<?xml version="1.0" encoding="utf-8"?>
<!-- Generator: Adobe Illustrator 23.0.3, SVG Export Plug-In . SVG Version: 6.00 Build 0)  -->
<svg version="1.1" id="Capa_1" xmlns="http://www.w3.org/2000/svg" xmlns:xlink="http://www.w3.org/1999/xlink" x="0px" y="0px"
	 viewBox="0 0 56.5 99.9" style="enable-background:new 0 0 56.5 99.9;" xml:space="preserve">
<style type="text/css">
	.st0{fill:#3E50B4;}
</style>
<path class="st0" d="M14.1,99c-0.8,0.3-1.8,0.5-2.8,0.6c-0.8,0.2-1.5,0.3-2.3,0.3c-0.9,0-0.9-1.4,0-1.4c1.7-0.2,3.5-1.2,5.2-0.8
	C15.1,98.1,14.9,98.9,14.1,99z M26.9,98c-2.1-0.5-4.8,0-6.9,0.2c-0.6,0-0.6,0.9,0,0.9c2.1,0.2,4.8,0.6,6.9,0.2
	C27.5,98.9,27.5,98.1,26.9,98z M40.1,97.8c-1.1,0-1.8,0.5-2.9,0.6c-1.2,0.3-2.5,0.3-3.8,0.3c-0.8,0-0.8,1.2,0,1.2
	c2.1,0,5.1,0.3,7.1-0.9C40.8,98.7,40.7,97.8,40.1,97.8z M48.2,94.3c-0.3-0.8-0.5-1.5-1.1-2.1C46.6,91.9,46,92,46,92.8
	c0,1.7,0.9,3.7,2,5.1C47.9,98,47.7,98,47.4,98c-0.5,0-1.1-0.2-1.5-0.2c-1.1,0-1.1,1.5,0,1.7c1.8,0.2,3.1,0.6,4.1-1.2
	c0.1-0.5,0-0.9-0.3-1.2C49,96.3,48.7,95.4,48.2,94.3z M43.9,83.4c-0.3-0.8-0.3-1.7-1.1-2.1c-0.5-0.3-1.1,0.2-1.1,0.6
	c0,0.8,0.5,1.5,0.8,2.1c0.3,0.8,0.6,1.5,1.1,2.3s1.4,0.2,1.1-0.6C44.4,84.9,44.2,84.2,43.9,83.4z M39,70.8c-0.3-0.6-1.2-0.8-1.4,0
	c-0.6,2.1,0.8,4.6,1.8,6.3c0.5,0.8,1.4,0.2,1.1-0.6c-0.3-0.9-0.8-1.7-0.9-2.6C39.3,72.8,39.5,71.9,39,70.8z M46.8,70.8
	c0.8-0.2,0.8-1.2,0-1.4c-0.8-0.2-1.5,0-2.3-0.2c-0.9,0-1.8-0.3-2.8-0.6c-0.6-0.3-1.1,0.8-0.5,1.1C42.8,70.5,45.1,71.3,46.8,70.8z
	 M54.9,70.2c-0.9,0-2.1,0.3-2.9-0.5c-0.6-0.5-1.5,0.3-0.9,0.9c0.9,0.9,2.5,1.2,3.8,1.2C56,71.9,56.2,70.1,54.9,70.2z M56,63
	c-0.3-0.9-0.6-2-1.5-2.5c-0.3-0.2-0.8,0-0.9,0.3c-0.2,0.8,0.2,1.2,0.6,2c0.5,0.9,0.9,2,1.1,3.2c0.2,0.8,1.2,0.8,1.2,0
	C56.5,65,56.3,63.9,56,63z M49.7,48c-0.5-0.5-1.2,0-1.2,0.5c0,1.1,0.6,2.1,1.1,3.2c0.5,1.1,1.1,2,1.5,3.1c0.5,0.8,1.5,0.2,1.2-0.8
	c-0.5-0.9-0.9-2-1.2-2.9C50.7,50,50.5,48.9,49.7,48z M44.1,35.8c-0.3-0.8-1.2-0.8-1.5,0c-0.6,2,0.9,4.8,1.8,6.4
	c0.5,0.8,1.5,0,1.2-0.8c-0.5-0.9-0.8-2-0.9-2.9C44.5,37.7,44.5,36.8,44.1,35.8z M38.5,28c0.5,0.8,1.5,0.2,1.2-0.8
	c-0.8-1.7-1.4-3.5-2.3-5.2c-0.6-1.2-2.3-0.2-1.7,1.1C36.5,24.8,37.6,26.3,38.5,28z M41.8,21.4c0.9,0,1.8,0.2,2.8,0.2
	c0.9,0,1.8,0.2,2.6-0.3c0.2,0,0.2-0.6-0.2-0.8c-0.6-0.5-1.4-0.3-2.1-0.3c-1.1,0-2,0.2-3.1,0.2C41,20.3,41,21.4,41.8,21.4z
	 M51.6,21.6c0.9,0,2,0.3,2.9-0.2c0.5,0,0.5-0.8,0-1.1c-0.8-0.5-2-0.2-2.9-0.2C50.7,20.2,50.7,21.6,51.6,21.6z M8.8,95.4
	c0.5-1.1,0.8-2.1,0.9-3.2c0.2-1.2,0.5-2.8,0-3.8c-0.2-0.6-0.9-0.6-1.1,0c-0.5,0.9-0.2,2.1-0.2,3.1c0,1.2,0,2.5-0.5,3.7
	C7.9,95.5,8.6,95.8,8.8,95.4z M9.7,82.5c-0.8-2.8-0.3-5.5-0.8-8.3c-0.2-0.6-1.2-0.6-1.4,0c-0.5,2.8,0,6.1,0.9,8.7
	C8.8,83.6,10,83.2,9.7,82.5z M9.8,67.8C9.8,66.9,10,66,10,65c0-0.9,0.2-1.8-0.2-2.6c-0.2-0.5-0.9-0.5-1.2,0
	c-0.3,0.8-0.2,1.5-0.2,2.3c0,1.1,0.2,2,0.2,3.1C8.6,68.5,9.8,68.5,9.8,67.8z M16.3,54.4c-2.1-1.1-4.8,0-6.9-0.9
	c-0.8-0.3-1.2,0.6-0.9,1.2c0.3,0.8,0.2,2.1,0.2,2.9c0,0.6,0.9,0.6,1.1,0c0-0.6,0-1.5,0-2.3c2,0.5,4,0,5.8,0.6
	C16.6,56.4,17.2,54.9,16.3,54.4z M26,55.5c-0.6-0.2-1.2,0-1.8-0.2c-0.8,0-1.5-0.3-2.1-0.6s-1.2,0.6-0.6,0.9c1.4,0.6,3.1,1.4,4.6,0.9
	C26.6,56.4,26.6,55.6,26,55.5z M34.7,56.2c0-0.6-0.2-1.1-0.8-1.1c-0.5,0-0.9,0-1.4,0c-0.2,0-0.3,0-0.5,0.2c-0.2,0-0.3,0-0.5,0
	c-0.9,0-0.9,1.4,0,1.5c0.2,0,0.3,0,0.5,0s0.3,0.2,0.5,0.2c0.5,0,0.9,0,1.4,0C34.5,57,34.7,56.6,34.7,56.2z M31.3,49.6
	c-0.3-0.5-0.8-0.9-1.1-1.4c-0.3-0.6-0.2-1.4-0.5-1.8c-0.3-0.5-0.9-0.5-1.2,0c-0.9,1.4,0.9,3.2,1.8,4.1C31,51.2,31.8,50.3,31.3,49.6z
	 M26.3,42.7c0.3,0.6,1.1,0.2,0.8-0.3c-0.5-1.1-1.1-2.3-1.7-3.4c-0.5-0.9-0.8-2.3-1.7-2.9c-0.5-0.3-1.1,0.2-1.2,0.6
	c0,1.1,1.1,2.1,1.7,2.9C24.9,40.8,25.5,41.7,26.3,42.7z M22,31.5c-0.8-1.1-1.4-2.1-1.7-3.5c-0.3-0.9,0.2-2.1-0.8-2.8
	c-0.3-0.2-0.6-0.2-0.9,0.2c0,0-0.2,0-0.2,0.2c-0.3,0.2-0.3,0.6-0.3,0.9c0.3,2.1,1.5,4.1,3.1,5.7C21.8,32.5,22.3,32,22,31.5z
	 M16.4,22c-1.5,0.6-2.9,0.3-4.3-0.3c-1.2-0.5-2.1,1.1-1.1,1.7c2,0.9,4,0.8,5.8-0.3C17.5,22.8,17.2,21.7,16.4,22z M5.1,22.2
	c-0.8-0.2-1.7-0.3-2.5-0.5C2,21.6,1.4,21,0.8,21.1c-0.5,0-0.9,0.3-0.8,0.8c0.2,2.3,3.7,1.5,5.2,1.4C5.6,23.1,5.6,22.2,5.1,22.2z
	 M5.4,17.3c0.8-0.6,1.7-1.2,2.6-1.7c1.1-0.6,2.1-0.8,3.2-1.5c0.3-0.5,0.3-1.2-0.5-1.2c-2.3,0-4.8,1.8-6.3,3.5
	C3.9,17,4.8,17.7,5.4,17.3z M20.3,7.2c0.5-0.3,0.3-0.9-0.2-0.9c-1.1-0.2-2,0.8-2.8,1.4c-1.1,0.9-2,2-2.9,3.1
	c-0.5,0.5,0.2,1.2,0.8,0.8c0.9-0.8,1.8-1.5,2.6-2.3C18.6,8.5,20,8.1,20.3,7.2z M28.9,2.1c0.6,1.1,1.5,2.5,2.6,2.6
	c0.3,0,0.8-0.2,0.8-0.6c0-1.1-1.4-2.9-2.5-3.8C29.5,0,29,0,28.7,0.1c-0.8,0.5-4.4,2.5-4.3,3.2c-0.2-0.5-0.6-0.2-0.6,0.2
	C24,5,27.3,2.9,28.9,2.1z M41.3,9.8c-0.6-0.6-1.4-0.9-2-1.4c-0.8-0.5-1.5-0.9-2.3-1.2c-0.8-0.3-1.4,0.8-0.6,1.1
	c0.8,0.5,1.4,0.9,2.1,1.4c0.6,0.5,1.4,0.9,2.1,1.1C41.3,10.8,41.8,10.2,41.3,9.8z M45.4,13.3c0.8,0.5,1.4,0.9,2.1,1.4
	c0.8,0.5,1.5,1.2,2.5,1.2c0.5,0,0.9-0.6,0.6-1.1c-0.5-0.6-1.2-0.9-2-1.4s-1.7-0.9-2.5-1.4C45.4,11.8,44.7,12.8,45.4,13.3z"/>
</svg>
