<?xml version="1.0" encoding="utf-8"?>
<!-- Generator: Adobe Illustrator 23.0.3, SVG Export Plug-In . SVG Version: 6.00 Build 0)  -->
<svg version="1.1" id="Layer_1" xmlns="http://www.w3.org/2000/svg" xmlns:xlink="http://www.w3.org/1999/xlink" x="0px" y="0px"
	 viewBox="0 0 57.3 98.2" style="enable-background:new 0 0 57.3 98.2;" xml:space="preserve">
<style type="text/css">
	.st0{fill:#3E50B4;}
</style>
<path class="st0" d="M54.8,45.3c-1.5-0.6-3.3-0.3-4.5,0.9L28.7,67.8L7,46.2c-1.2-1.2-2.9-1.5-4.5-0.9C1,45.9,0,47.4,0,49.1v20.7
	c0,1.1,0.4,2.1,1.2,2.9L25.8,97c0.8,0.8,1.8,1.2,2.9,1.2c1,0,2.1-0.4,2.9-1.2l24.5-24.3c0.8-0.8,1.2-1.8,1.2-2.9V49.1
	C57.3,47.4,56.3,45.9,54.8,45.3z M54.8,0.3c-1.5-0.6-3.3-0.3-4.5,0.9L28.7,22.8L7,1.2C5.8,0,4.1-0.3,2.5,0.3C1,0.9,0,2.4,0,4.1v20.7
	c0,1.1,0.4,2.1,1.2,2.9L25.8,52c0.8,0.8,1.8,1.2,2.9,1.2c1,0,2.1-0.4,2.9-1.2l24.5-24.3c0.8-0.8,1.2-1.8,1.2-2.9V4.1
	C57.3,2.4,56.3,0.9,54.8,0.3z"/>
</svg>
