<?xml version="1.0" encoding="utf-8"?>
<!-- Generator: Adobe Illustrator 23.0.3, SVG Export Plug-In . SVG Version: 6.00 Build 0)  -->
<svg version="1.1" id="Layer_1" xmlns="http://www.w3.org/2000/svg" xmlns:xlink="http://www.w3.org/1999/xlink" x="0px" y="0px"
	 viewBox="0 0 96 96" style="enable-background:new 0 0 96 96;" xml:space="preserve">
<style type="text/css">
	.st0{fill:#3E50B4;}
</style>
<path class="st0" d="M48,0C21.5,0,0,21.5,0,48s21.5,48,48,48s48-21.5,48-48S74.5,0,48,0z M62.7,36.6c-2.1,0-3.9-1.7-3.9-3.9
	c0-3.4-2.7-6.1-6.1-6.1c-3.4,0-6.1,2.7-6.1,6.1v30l2.6-3.1c1.4-1.6,3.8-1.8,5.5-0.5c1.6,1.4,1.8,3.8,0.5,5.4l-9.4,11.2l-0.1,0.1
	c-0.1,0.1-0.2,0.2-0.4,0.3c-0.1,0.1-0.1,0.1-0.2,0.2c-0.1,0.1-0.3,0.2-0.5,0.3c-0.1,0-0.2,0.1-0.2,0.1c-0.2,0.1-0.4,0.1-0.6,0.2
	c-0.1,0-0.1,0-0.2,0.1c-0.3,0.1-0.5,0.1-0.8,0.1s-0.6,0-0.8-0.1c-0.1,0-0.1,0-0.2-0.1c-0.2-0.1-0.4-0.1-0.6-0.2
	c-0.1,0-0.2-0.1-0.2-0.1c-0.2-0.1-0.3-0.2-0.5-0.3c-0.1-0.1-0.1-0.1-0.2-0.2c-0.1-0.1-0.3-0.2-0.4-0.3l-0.1-0.1l-9.4-11.2
	c-1.4-1.6-1.2-4.1,0.5-5.4c1.6-1.4,4.1-1.2,5.4,0.5l2.6,3.1v-30c0-0.3,0-0.5,0.1-0.8c0.4-7.3,6.4-13.1,13.8-13.1
	c7.6,0,13.9,6.2,13.9,13.9C66.6,34.8,64.8,36.6,62.7,36.6z"/>
</svg>
