<?xml version="1.0" encoding="utf-8"?>
<!-- Generator: Adobe Illustrator 23.0.3, SVG Export Plug-In . SVG Version: 6.00 Build 0)  -->
<svg version="1.1" id="Layer_1" xmlns="http://www.w3.org/2000/svg" xmlns:xlink="http://www.w3.org/1999/xlink" x="0px" y="0px"
	 viewBox="0 0 86.7 59.2" style="enable-background:new 0 0 86.7 59.2;" xml:space="preserve">
<style type="text/css">
	.st0{fill:#3E50B4;}
</style>
<path class="st0" d="M84.5,24.4L62.3,2.2c-2.9-2.9-7.5-2.9-10.4,0s-2.9,7.5,0,10.4l5.1,5.1H11.9C5.3,17.7,0,23,0,29.6
	s5.3,11.9,11.9,11.9h45.2L52,46.6c-2.9,2.9-2.9,7.5,0,10.4c1.4,1.4,3.3,2.2,5.2,2.2s3.8-0.7,5.2-2.2l22.1-22.2
	c1.4-1.4,2.2-3.3,2.2-5.2C86.7,27.6,85.9,25.8,84.5,24.4z M11.9,37c-4.1,0-7.4-3.3-7.4-7.4s3.3-7.4,7.4-7.4s7.4,3.3,7.4,7.4
	S15.9,37,11.9,37z"/>
</svg>
