<?xml version="1.0" encoding="utf-8"?>
<!-- Generator: Adobe Illustrator 23.0.3, SVG Export Plug-In . SVG Version: 6.00 Build 0)  -->
<svg version="1.1" id="Capa_1" xmlns="http://www.w3.org/2000/svg" xmlns:xlink="http://www.w3.org/1999/xlink" x="0px" y="0px"
	 viewBox="0 0 35.8 100" style="enable-background:new 0 0 35.8 100;" xml:space="preserve">
<style type="text/css">
	.st0{fill:#3E50B4;}
</style>
<path class="st0" d="M32.1,78.6H25V21.4h7.1c1,0,1.8-0.4,2.5-1.1s1.1-1.5,1.1-2.5s-0.4-1.8-1.1-2.5L20.4,1.1C19.7,0.4,18.8,0,17.9,0
	S16,0.4,15.3,1.1L1.1,15.3C0.4,16.1,0,16.9,0,17.9s0.4,1.8,1.1,2.5s1.5,1.1,2.5,1.1h7.1v57.1H3.6c-1,0-1.8,0.4-2.5,1.1
	C0.4,80.3,0,81.2,0,82.1s0.4,1.8,1.1,2.5l14.3,14.3c0.7,0.7,1.5,1.1,2.5,1.1s1.8-0.4,2.5-1.1l14.3-14.3c0.7-0.7,1.1-1.5,1.1-2.5
	s-0.4-1.8-1.1-2.5C33.9,78.9,33.1,78.6,32.1,78.6z"/>
</svg>
