<?xml version="1.0" encoding="utf-8"?>
<!-- Generator: Adobe Illustrator 23.0.3, SVG Export Plug-In . SVG Version: 6.00 Build 0)  -->
<svg version="1.1" id="Capa_1" xmlns="http://www.w3.org/2000/svg" xmlns:xlink="http://www.w3.org/1999/xlink" x="0px" y="0px"
	 viewBox="0 0 72.8 100.1" style="enable-background:new 0 0 72.8 100.1;" xml:space="preserve">
<style type="text/css">
	.st0{fill:#3E50B4;}
</style>
<path class="st0" d="M72.3,66.4c-0.9-1.8-2.2-2.6-4.1-2.6H54.5V2.4c0-0.7-0.2-1.2-0.7-1.7c-0.5-0.4-1-0.7-1.6-0.7h-50
	c-0.9,0.1-1.6,0.5-2,1.4s-0.3,1.8,0.3,2.4l11.4,13.6c0.5,0.5,1.1,0.8,1.8,0.8h22.7v45.5H22.7c-1.9,0-3.3,0.9-4.1,2.6
	c-0.8,1.8-0.6,3.4,0.6,4.9l22.7,27.3c0.9,1,2,1.6,3.5,1.6s2.6-0.5,3.5-1.6l22.7-27.3C72.9,69.7,73.1,68.1,72.3,66.4z"/>
</svg>
