<?xml version="1.0" encoding="utf-8"?>
<!-- Generator: Adobe Illustrator 23.0.3, SVG Export Plug-In . SVG Version: 6.00 Build 0)  -->
<svg version="1.1" id="Capa_1" xmlns="http://www.w3.org/2000/svg" xmlns:xlink="http://www.w3.org/1999/xlink" x="0px" y="0px"
	 viewBox="0 0 72.9 100" style="enable-background:new 0 0 72.9 100;" xml:space="preserve">
<style type="text/css">
	.st0{fill:#3E50B4;}
</style>
<path class="st0" d="M71.7,28.9L49,1.6c-0.9-1-2-1.6-3.5-1.6S42.9,0.5,42,1.6L19.3,28.9c-1.2,1.5-1.4,3.1-0.6,4.8
	c0.9,1.8,2.2,2.6,4.1,2.6h13.6v45.5H13.7c-0.8,0-1.4,0.3-1.8,0.8L0.5,96.2c-0.6,0.7-0.7,1.5-0.3,2.5c0.4,0.9,1.1,1.3,2.1,1.3h50
	c0.7,0,1.2-0.2,1.6-0.6c0.4-0.4,0.6-1,0.6-1.6V36.3h13.6c1.9,0,3.3-0.9,4.1-2.6C73.2,32,73,30.4,71.7,28.9z"/>
</svg>
