<?xml version="1.0" encoding="utf-8"?>
<!-- Generator: Adobe Illustrator 23.0.3, SVG Export Plug-In . SVG Version: 6.00 Build 0)  -->
<svg version="1.1" id="Layer_1" xmlns="http://www.w3.org/2000/svg" xmlns:xlink="http://www.w3.org/1999/xlink" x="0px" y="0px"
	 viewBox="0 0 92 54.6" style="enable-background:new 0 0 92 54.6;" xml:space="preserve">
<style type="text/css">
	.st0{fill:#3E50B4;}
</style>
<path class="st0" d="M49,16L30.2,0.7c-1.3-1-3.2-0.9-4.2,0.4s-0.8,3.2,0.4,4.2l12.2,10H3c-1.7,0-3,1.3-3,3s1.3,3,3,3h35.7l-12.2,10
	c-1.3,1-1.5,2.9-0.4,4.2c0.6,0.7,1.5,1.1,2.3,1.1c0.7,0,1.3-0.2,1.9-0.7L49,20.6c0.7-0.6,1.1-1.4,1.1-2.3C50.1,17.4,49.7,16.6,49,16
	z M89,33.4H53.4l12.2-10c1.3-1,1.5-2.9,0.4-4.2c-1-1.3-2.9-1.5-4.2-0.4L43,34c-0.7,0.6-1.1,1.4-1.1,2.3s0.4,1.8,1.1,2.3l18.8,15.3
	c0.6,0.5,1.2,0.7,1.9,0.7c0.9,0,1.7-0.4,2.3-1.1c1-1.3,0.8-3.2-0.4-4.2l-12.2-10H89c1.7,0,3-1.3,3-3S90.7,33.4,89,33.4z"/>
</svg>
