<?xml version="1.0" encoding="utf-8"?>
<!-- Generator: Adobe Illustrator 23.0.3, SVG Export Plug-In . SVG Version: 6.00 Build 0)  -->
<svg version="1.1" id="Layer_1" xmlns="http://www.w3.org/2000/svg" xmlns:xlink="http://www.w3.org/1999/xlink" x="0px" y="0px"
	 viewBox="0 0 92.1 78.8" style="enable-background:new 0 0 92.1 78.8;" xml:space="preserve">
<style type="text/css">
	.st0{fill:#3E50B4;}
</style>
<path class="st0" d="M70.6,46h-3.3c-0.5,0-0.9,0.2-1.2,0.5c-0.3,0.3-0.5,0.7-0.5,1.2v16.4c0,2.3-0.8,4.2-2.4,5.8
	c-1.6,1.6-3.5,2.4-5.8,2.4H14.8c-2.3,0-4.2-0.8-5.8-2.4s-2.4-3.5-2.4-5.8V21.4c0-2.3,0.8-4.2,2.4-5.8s3.5-2.4,5.8-2.4h36.1
	c0.5,0,0.9-0.2,1.2-0.5s0.5-0.7,0.5-1.2V8.2c0-0.5-0.2-0.9-0.5-1.2c-0.3-0.3-0.7-0.5-1.2-0.5H14.8c-4.1,0-7.6,1.4-10.4,4.3
	c-3,3-4.4,6.5-4.4,10.6v42.7c0,4.1,1.4,7.6,4.3,10.4c2.9,2.9,6.4,4.3,10.4,4.3h42.7c4.1,0,7.6-1.4,10.4-4.3
	c2.9-2.9,4.3-6.4,4.3-10.4V47.7c0-0.5-0.2-0.9-0.5-1.2C71.5,46.2,71.1,46,70.6,46z M91,1c-0.7-0.7-1.4-1-2.3-1H62.4
	c-0.9,0-1.7,0.3-2.3,1c-0.7,0.7-1,1.4-1,2.3s0.3,1.7,1,2.3l9,9L35.7,48.2c-0.3,0.3-0.5,0.7-0.5,1.2c0,0.4,0.2,0.8,0.5,1.2l5.9,5.9
	c0.3,0.3,0.7,0.5,1.2,0.5s0.8-0.2,1.2-0.5L77.5,23l9,9c0.6,0.7,1.4,1,2.3,1s1.7-0.3,2.3-1c0.7-0.7,1-1.4,1-2.3V3.3
	C92,2.4,91.7,1.7,91,1z"/>
</svg>
