<?xml version="1.0" encoding="utf-8"?>
<!-- Generator: Adobe Illustrator 23.0.3, SVG Export Plug-In . SVG Version: 6.00 Build 0)  -->
<svg version="1.1" id="Capa_1" xmlns="http://www.w3.org/2000/svg" xmlns:xlink="http://www.w3.org/1999/xlink" x="0px" y="0px"
	 viewBox="0 0 100 100.1" style="enable-background:new 0 0 100 100.1;" xml:space="preserve">
<style type="text/css">
	.st0{fill:#3E50B4;}
</style>
<path class="st0" d="M97.5,4.5c-1.8-0.7-3.3-0.4-4.6,0.9l-8.5,8.4C79.8,9.4,74.5,6,68.5,3.6C62.6,1.2,56.4,0,50,0
	c-6.8,0-13.2,1.3-19.4,4c-6.2,2.6-11.5,6.2-16,10.7s-8,9.8-10.7,16S0,43.2,0,50s1.3,13.2,4,19.4c2.6,6.2,6.2,11.5,10.7,16
	s9.8,8,16,10.7c6.2,2.6,12.6,4,19.4,4c7.5,0,14.6-1.6,21.3-4.7C78,92.1,83.7,87.7,88.5,82c0.3-0.4,0.5-0.9,0.5-1.5
	c0-0.5-0.2-1-0.6-1.3l-8.9-9c-0.5-0.4-1-0.6-1.6-0.6c-0.7,0.1-1.2,0.3-1.5,0.8c-3.2,4.1-7.1,7.3-11.7,9.6c-4.6,2.3-9.5,3.4-14.6,3.4
	c-4.5,0-8.8-0.9-12.9-2.6c-4.1-1.8-7.6-4.1-10.6-7.1s-5.4-6.5-7.1-10.6c-1.8-4.1-2.6-8.4-2.6-12.9s0.9-8.8,2.6-12.9
	c1.8-4.1,4.1-7.6,7.1-10.6s6.5-5.4,10.6-7.1c4.1-1.8,8.4-2.6,12.9-2.6c8.7,0,16.3,3,22.7,8.9l-9,9c-1.3,1.3-1.6,2.8-0.9,4.5
	c0.7,1.7,2,2.6,3.8,2.6h29.2c1.1,0,2.1-0.4,2.9-1.2s1.2-1.8,1.2-2.9V8.3C100,6.5,99.2,5.2,97.5,4.5z"/>
</svg>
