<?xml version="1.0" encoding="utf-8"?>
<!-- Generator: Adobe Illustrator 23.0.3, SVG Export Plug-In . SVG Version: 6.00 Build 0)  -->
<svg version="1.1" id="Capa_1" xmlns="http://www.w3.org/2000/svg" xmlns:xlink="http://www.w3.org/1999/xlink" x="0px" y="0px"
	 viewBox="0 0 100.3 100" style="enable-background:new 0 0 100.3 100;" xml:space="preserve">
<style type="text/css">
	.st0{fill:#3E50B4;}
</style>
<path class="st0" d="M67.2,51c-0.9-0.6-2.3,0.2-2.2,1.3c0.3,3.7,1,7,0.8,10.8c-0.1,4.3-0.6,8.5-0.7,12.8c-7.9,0.2-15.9-0.5-23.8-0.5
	c0.3-17.2,0.3-34.4,0.3-51.5c0-1.3-1.3-1.8-2.2-1.4l0,0c-3.5-4.4-11.2-6.6-16.1-9.2C17.8,10.4,12.4,7.2,7.8,3.1
	c8.4,0.6,16.6,1.8,25,2.4C43.6,6.3,54.3,4.3,65,5.7c0.3,3.4,0.2,6.9,0,10.3c-0.2,3.2-0.8,6.8,0.5,9.8c0.7,1.6,2.7,1.3,2.9-0.4
	c0.5-3.5,0.1-7.2,0.3-10.8c0.2-3.1,0.1-6.2-0.8-9.2c1-0.8,1.1-2.7-0.5-3c-9.6-1.7-19.3-0.7-29-0.4c-11.1,0.2-22-2.9-33-1.6
	c-0.1,0-0.2,0-0.2,0.1c-0.6-0.7-1.6-0.7-2,0.3c-5,12.3-2.7,26.7-2.1,39.6C1.7,53.2-0.2,66.4,3,79c0.2,0.7,0.7,1,1.2,1
	c8.7,9.6,22.4,13.5,33.4,19.8c0.7,0.4,1.4,0.2,1.9-0.2c0.6,0,1.2-0.4,1.2-1.2c0.3-6.7,0.4-13.5,0.5-20.3c8.5,1.1,17.1,1.7,25.7,1.4
	c1,0,1.8-0.8,1.8-1.8c0.2-5.3,0.7-10.6,0.8-16C69.6,58.5,70.1,53.2,67.2,51z M4,27.3C15.5,32.4,26.7,37.5,36.9,45
	c0.4,0.3,0.7,0.2,1,0c-0.1,1.6-0.1,3.2-0.2,4.8C26.6,43.3,15,37.3,4.1,30.2C4.1,29.3,4,28.3,4,27.3z M4.1,31.7
	c10.7,7.5,21.8,14.9,33.5,20.5c0,0.7,0,1.3-0.1,2c-10.4-7.3-21.4-13.9-33-19.4c-0.1-0.1-0.2-0.1-0.3,0C4.2,33.8,4.1,32.7,4.1,31.7z
	 M4.4,40.4c0-1.6-0.1-3.1-0.1-4.7c11.4,6.2,22,13.3,32.6,20.7c0.2,0.1,0.4,0.2,0.6,0.2c0,1.1-0.1,2.1-0.1,3.2
	c-10.8-6.6-22-12.5-33-18.7C4.4,40.8,4.4,40.6,4.4,40.4z M4.4,42.1c10.9,6.8,21.6,14.1,32.9,20c0,0.5,0,1,0,1.5
	C26.4,57.8,15.1,52.8,4.5,46.3C4.5,44.9,4.4,43.5,4.4,42.1z M4.5,50.5c0-1,0-2.1,0-3.1c10,7.4,21.4,13.5,32.7,18.6
	c0,0.4,0,0.8,0,1.3C27.1,60.3,14.6,57.6,4.5,50.5z M37.1,69.7c0,1,0,1.9,0,2.9c-9.9-7-21.9-11.4-32.5-17.1H4.5c0-1.2,0-2.4,0-3.7
	C14.2,59.4,26.7,63,37.1,69.7z M4.5,56.7C15.1,62.9,26.1,69,37.1,74.5c0,1.7,0,3.3,0,5c-9.2-8-22.1-10.9-32.6-17
	C4.5,60.5,4.5,58.6,4.5,56.7z M4.7,67.7c-0.1-1.4-0.1-2.9-0.1-4.3c10.4,7,23,10.4,32.7,18.4c0,1.6,0.1,3.3,0.2,4.9
	C33.7,83,27,80.6,22.6,78.2c-3.7-2-7.4-3.9-11-5.9C10.2,71.6,5,69.5,4.7,67.7L4.7,67.7z M4.8,70c2.4,2.8,9.1,5.7,10.4,6.5
	c7.4,4.2,14.8,8.8,22.3,12.7c0.1,1.3,0.2,2.5,0.3,3.8c-7-4-13.9-8.2-20.5-12.8C14,77.9,9.4,73.1,5,72.7C4.9,71.8,4.9,70.9,4.8,70z
	 M5.6,78.5c0-0.1,0-0.1,0-0.2c-0.2-1.3-0.3-2.7-0.5-4C15.5,81.9,26.6,89.1,38,95.2c0,0.3,0.1,0.7,0.1,1
	C27.4,90.1,15.8,85.7,5.6,78.5z M38,43c-9.7-8.2-22.2-12.5-34-16.9c0-2,0-4,0-6c9.5,8.6,22.4,13.6,34.1,18.3C38.1,40,38,41.5,38,43z
	 M38.2,36c-11.6-5.3-24-8.9-34-17.2c-0.1-0.1-0.1-0.1-0.2-0.1c0-1.6,0.1-3.3,0.2-4.9c6.1,4.5,12.6,8.2,19.3,11.8
	c1.7,0.9,12,7,14.8,7.1C38.3,33.8,38.2,34.9,38.2,36z M38.3,30.2c-2.1-1.3-5-2.1-6.9-2.9C22,23.5,12.6,18.2,4.2,12.4
	C4.3,11,4.4,9.6,4.6,8.2c5,3.9,10.5,7.1,16,10.3C26.7,22.1,32.3,26.4,38.3,30.2L38.3,30.2z M38.4,27.5c-4-4.2-9.8-7-14.8-9.7
	c-6.5-3.5-12.9-6.6-18.8-11c0.1-1,0.2-2,0.3-3c3.4,4.5,8.4,7.5,13.3,10.3c5.9,3.4,13.2,8.5,19.8,10.3c0.1,0,0.2,0,0.3,0
	C38.4,25.5,38.4,26.5,38.4,27.5z M99.9,35.8c0-0.1,0-0.3-0.1-0.4c-1.4-3.7-6.1-6.2-9.3-8.3c-4.3-2.7-8.8-5-13.5-6.8
	c-0.6-0.2-1,0.2-1.1,0.7c-0.6,0.1-1.1,0.5-1.2,1.1c-0.5,2.4-0.3,5.3,0.1,7.9c-2-0.4-4.4-0.2-5.8-0.2c-5.3-0.1-10.7,0.1-15.9,0.8
	c-0.7,0.1-1.1,0.8-1,1.3c0,0.1-0.1,0.1-0.1,0.2c-0.3,2.4-0.4,4.8-0.5,7.3c0,1.5-0.1,3.6,0.7,5c-0.2,0.1-0.4,0.2-0.5,0.4
	s-0.2,0.4,0,0.5c2.4,2.6,7.1,1.2,10.3,1.1c4.5-0.3,9.3-0.3,13.7-1.1c-0.2,1.2-0.1,2.5-0.2,3.6c-0.1,1.7-0.3,3.4-0.4,5.2
	c-0.1,1.9,2.4,2.2,3.2,0.8c0,0,0,0,0.1,0c9.4-0.6,16.8-9.9,21.7-17.2C100.5,37,100.3,36.3,99.9,35.8z M55,43.2
	c0.1-0.9-0.1-1.8-0.2-2.7c0.7,0.6,1.5,1.2,2.2,1.8c0.3,0.2,0.5,0.4,0.8,0.6C56.8,43,55.9,43,55,43.2z M61.9,42.9c-0.5,0-1,0-1.5,0
	c-0.7-0.4-1.4-0.8-2-1.3c-1.3-0.9-2.5-1.9-3.8-2.9c-0.1-1.6-0.3-3.3-0.4-4.9c3.1,3.2,6.6,6.4,10.4,8.8
	C63.6,42.8,62.8,42.9,61.9,42.9z M66.9,42.4L66.9,42.4c-4.2-3.3-8.5-6.2-12.5-9.5c1.1,0.2,2.2,0.3,3.3,0.3c2,1.8,4,3.6,6.1,5.4
	c1.3,1.1,2.9,2.7,4.6,3.6C67.9,42.3,67.4,42.4,66.9,42.4z M71,42.1C71,42.1,71,42,71,42.1c-1.5-1.7-3.9-2.8-5.7-4.1
	c-2-1.5-4-3-6-4.6c1,0,1.9,0,2.9,0c0,0.1,0.1,0.2,0.2,0.3c3.2,3,6.5,5.7,9.9,8.4C71.8,42,71.4,42,71,42.1z M78.7,51.7
	c0.1-1.4,0.1-3.2-0.1-4.7c1.4,1.1,2.7,2.2,4,3.3C81.4,50.9,80,51.4,78.7,51.7z M84.4,49.3c-2-1.9-4.1-3.6-6.3-5.3
	c0.3-0.8-0.3-1.9-1.4-2c-0.5,0-0.9,0-1.4,0c-3.9-2.8-7.9-5.6-11.5-8.7c0.5,0,1.1,0,1.6,0c0.9,0,1.8,0,2.8,0
	c5.1,5.6,11.3,10.6,17.2,15.4C85,48.9,84.7,49.1,84.4,49.3z M86.7,47.7c-4.8-5.5-11.3-9.4-16.7-14.4c0.7,0,1.3,0,2,0.1
	c1.1,0.1,2.3,0.4,3.5,0.6c2.6,1.7,5.2,3.5,7.6,5.5c1.4,1.1,2.7,2.3,4,3.5c0.8,0.7,1.6,1.7,2.6,2.1C88.8,46,87.8,46.9,86.7,47.7z
	 M90.7,44c-0.8-2.3-4.7-4.6-6.4-5.9c-2.1-1.6-4.2-3.2-6.6-4.5c0.4-0.3,0.6-0.8,0.4-1.3c-0.1-0.3-0.3-0.5-0.4-0.7
	c0-0.3,0.1-0.6,0.1-0.8c2.1,2.1,4.2,4.1,6.4,6.1c2,1.9,4.7,5.1,7.5,5.7c0.2,0,0.4,0,0.5-0.1C91.6,42.9,91.2,43.5,90.7,44z
	 M92.3,42.2c0.1-0.2,0.1-0.3,0-0.5c-1.6-2.4-4.9-4.1-7.1-6c-2.5-2.1-4.8-4.4-7.3-6.4c0.1-0.7,0.1-1.5,0.2-2.2
	c5.6,4,10.8,8.5,16.6,12.2C93.9,40.2,93.1,41.2,92.3,42.2z M95.8,37.6c-6-3.8-11.6-8.3-17.7-12c0-0.8,0-1.5-0.1-2.2
	c3.2,2.1,6.5,4.1,9.7,6.1s5.9,4.9,9,6.9C96.4,36.7,96.1,37.1,95.8,37.6z"/>
</svg>
