<?xml version="1.0" encoding="utf-8"?>
<!-- Generator: Adobe Illustrator 23.0.3, SVG Export Plug-In . SVG Version: 6.00 Build 0)  -->
<svg version="1.1" id="Layer_1" xmlns="http://www.w3.org/2000/svg" xmlns:xlink="http://www.w3.org/1999/xlink" x="0px" y="0px"
	 viewBox="0 0 94 38" style="enable-background:new 0 0 94 38;" xml:space="preserve">
<style type="text/css">
	.st0{fill:#3E50B4;}
</style>
<path class="st0" d="M93.3,12.9L89,8.6c-0.7-0.7-2-0.7-2.7,0L82,12.9c-0.5,0.5-0.7,1.4-0.4,2.1c0.3,0.7,1,1.2,1.8,1.2h2.1v6
	c0,6.3-5.1,11.4-11.4,11.4s-11.4-5.1-11.4-11.4v-6.3C62.7,7.1,55.6,0,46.9,0S31.1,7.1,31.1,15.8v6.3c0,6.3-5.1,11.4-11.4,11.4
	S8.3,28.4,8.3,22.1v-6h2.1c0.8,0,1.5-0.5,1.8-1.2s0.1-1.5-0.4-2.1L7.5,8.5c-0.7-0.7-2-0.7-2.7,0l-4.3,4.3c-0.5,0.5-0.7,1.4-0.4,2.1
	s1,1.2,1.8,1.2h2v6C3.9,30.9,11,38,19.7,38s15.8-7.1,15.8-15.8v-6.3c0-6.3,5.1-11.4,11.4-11.4s11.4,5.1,11.4,11.4v6.3
	c0,8.7,7.1,15.8,15.8,15.8s15.8-7.1,15.8-15.8v-6H92c0.8,0,1.5-0.5,1.8-1.2C94.1,14.3,93.9,13.5,93.3,12.9z"/>
</svg>
