<?xml version="1.0" encoding="utf-8"?>
<!-- Generator: Adobe Illustrator 23.0.3, SVG Export Plug-In . SVG Version: 6.00 Build 0)  -->
<svg version="1.1" id="Capa_1" xmlns="http://www.w3.org/2000/svg" xmlns:xlink="http://www.w3.org/1999/xlink" x="0px" y="0px"
	 viewBox="0 0 137.4 100" style="enable-background:new 0 0 137.4 100;" xml:space="preserve">
<style type="text/css">
	.st0{fill:#3E50B4;}
</style>
<path class="st0" d="M118.7,32.5c2.3,15.3,1,32.2,0.5,47.7c-0.3,6.1-1,12.5-7.9,14.6C76.3,105.2,37.5,97.1,2,95c-2.5,0-2.8-4,0-4
	c34.5-1.3,68.2,5.4,102.1-1c11.5-2,8.7-11.2,8.7-20.9c0-12-1.3-24.8,0.5-36.5C113.8,29.9,118.2,29.9,118.7,32.5z M2,78.4
	C15.8,81.8,31.4,80,45.4,80c18.6,0,37-0.5,55.7-1.3c1.5,0,2.8-1.3,2.8-2.8c0-14.8,0-29.6,0-44.2c0-3.8-5.9-3.8-5.9,0
	c0,13.8,0,27.6,0,41.4c-16.1,0.8-32.2,1.3-48.3,1.5C34.4,74.9,17,73.1,2,76.6C1,76.9,1,78.4,2,78.4z M137.3,37.8
	c-3.3-13.3-16.1-25.5-23.7-36.5c-1-1.5-3.1-1.8-4.6-0.5c-10.7,9-20.7,18.4-28.6,29.9c-1.3,2,1.8,4.3,3.3,2.6
	c7.9-10,17.1-18.1,26.8-26c7.1,11,14,23.5,22.7,33.2C134.8,42.4,138.1,40.1,137.3,37.8z"/>
</svg>
