<?xml version="1.0" encoding="utf-8"?>
<!-- Generator: Adobe Illustrator 23.0.3, SVG Export Plug-In . SVG Version: 6.00 Build 0)  -->
<svg version="1.1" id="Capa_1" xmlns="http://www.w3.org/2000/svg" xmlns:xlink="http://www.w3.org/1999/xlink" x="0px" y="0px"
	 viewBox="0 0 280 100" style="enable-background:new 0 0 280 100;" xml:space="preserve">
<style type="text/css">
	.st0{fill:#3E50B4;}
</style>
<path class="st0" d="M277,43L237,3c-2-2-4.3-3-7-3s-5.1,1-7,3c-2,2-3,4.3-3,7v20H60V10c0-2.7-1-5.1-3-7c-2-2-4.3-3-7-3s-5.1,1-7,3
	L3,43c-2,2-3,4.3-3,7s1,5.1,3,7l40,40c2,2,4.3,3,7,3s5.1-1,7-3c2-2,3-4.3,3-7V70h160v20c0,2.7,1,5.1,3,7c2,2,4.3,3,7,3s5.1-1,7-3
	l40-40c2-2,3-4.3,3-7S279,44.9,277,43z"/>
</svg>
