<?xml version="1.0" encoding="utf-8"?>
<!-- Generator: Adobe Illustrator 23.0.3, SVG Export Plug-In . SVG Version: 6.00 Build 0)  -->
<svg version="1.1" id="Layer_1" xmlns="http://www.w3.org/2000/svg" xmlns:xlink="http://www.w3.org/1999/xlink" x="0px" y="0px"
	 viewBox="0 0 73.1 96.1" style="enable-background:new 0 0 73.1 96.1;" xml:space="preserve">
<style type="text/css">
	.st0{fill:#3E50B4;}
</style>
<path class="st0" d="M40.6,4.1c0-2.2-1.8-4.1-4.1-4.1c-2.2,0-4.1,1.8-4.1,4.1v19h8.1L40.6,4.1L40.6,4.1z M65.2,23H65H50.8H40.6v31.3
	l2.7-3.2c1.4-1.7,4-1.9,5.7-0.5s1.9,4,0.5,5.7l-9.9,11.8l-0.1,0.1c-0.1,0.1-0.2,0.3-0.4,0.4c-0.1,0.1-0.2,0.1-0.2,0.2
	c-0.1,0.1-0.3,0.2-0.5,0.3c-0.1,0-0.2,0.1-0.2,0.1c-0.2,0.1-0.4,0.1-0.6,0.2c-0.1,0-0.1,0-0.2,0.1c-0.3,0.1-0.6,0.1-0.9,0.1
	c-0.3,0-0.6,0-0.9-0.1c-0.1,0-0.1,0-0.2-0.1c-0.2-0.1-0.4-0.1-0.6-0.2c-0.1,0-0.2-0.1-0.2-0.1c-0.2-0.1-0.3-0.2-0.5-0.3
	c-0.1-0.1-0.2-0.1-0.2-0.2c-0.1-0.1-0.3-0.2-0.4-0.4l-0.1-0.1l-9.9-11.8c-1.4-1.7-1.2-4.3,0.5-5.7s4.3-1.2,5.7,0.5l2.7,3.2V23h-9.9
	H7.9C3.5,23,0,26.5,0,30.9v57.3c0,4.4,3.5,7.9,7.9,7.9h57.3c4.4,0,7.9-3.5,7.9-7.9V30.9C73.1,26.6,69.6,23,65.2,23z"/>
</svg>
