<?xml version="1.0" encoding="utf-8"?>
<!-- Generator: Adobe Illustrator 23.0.3, SVG Export Plug-In . SVG Version: 6.00 Build 0)  -->
<svg version="1.1" id="Capa_1" xmlns="http://www.w3.org/2000/svg" xmlns:xlink="http://www.w3.org/1999/xlink" x="0px" y="0px"
	 viewBox="0 0 99.9 100" style="enable-background:new 0 0 99.9 100;" xml:space="preserve">
<style type="text/css">
	.st0{fill:#3E50B4;}
</style>
<path class="st0" d="M94.5,5.5C90.8,1.8,86.4,0,81.3,0H18.8C13.6,0,9.2,1.8,5.5,5.5S0,13.6,0,18.8v62.5c0,5.2,1.8,9.6,5.5,13.2
	c3.7,3.7,8.1,5.5,13.2,5.5h62.5c5.2,0,9.6-1.8,13.2-5.5s5.5-8.1,5.5-13.2V18.8C100,13.6,98.2,9.2,94.5,5.5z M83.3,52.1
	c0,1.8-0.8,3.1-2.5,3.8c-0.6,0.2-1.1,0.3-1.6,0.3c-1.2,0-2.1-0.4-2.9-1.2l-9.4-9.4L32.1,80.4c-0.8,0.8-1.8,1.2-2.9,1.2
	s-2.1-0.4-2.9-1.2l-6.6-6.6c-0.8-0.8-1.2-1.8-1.2-2.9s0.4-2.1,1.2-2.9l34.8-34.8L45,23.8c-1.3-1.3-1.6-2.8-0.9-4.6
	c0.7-1.7,2-2.5,3.8-2.5h31.2c1.1,0,2.1,0.4,2.9,1.2c0.8,0.8,1.2,1.8,1.2,2.9v31.3H83.3z"/>
</svg>
