<?xml version="1.0" encoding="utf-8"?>
<!-- Generator: Adobe Illustrator 23.0.3, SVG Export Plug-In . SVG Version: 6.00 Build 0)  -->
<svg version="1.1" id="Layer_1" xmlns="http://www.w3.org/2000/svg" xmlns:xlink="http://www.w3.org/1999/xlink" x="0px" y="0px"
	 viewBox="0 0 95 87.2" style="enable-background:new 0 0 95 87.2;" xml:space="preserve">
<style type="text/css">
	.st0{fill:#3E50B4;}
</style>
<path class="st0" d="M82.8,71.5c-13.9,17.5-41,13.1-47.3-8.6c-0.4-1.1-0.5-2.3-0.7-3.4c14.6-3.2,28.8-13.9,30.1-26.6
	C66,21.4,54.3,18,46.5,24.4c-9.2,7.7-15.7,19.1-16.2,31.1c-9.4,1.3-18.5-1.3-23.6-10.4c-8.5-15.5,2.9-36.4,18-42.5
	c1.6-0.5,0.9-3.1-0.7-2.5C3,5.9-7.8,35.1,6.5,52.4c5.6,6.7,14.6,8.8,23.9,7.7c1.3,12.2,10.8,22,22.1,25.7c13.1,4.3,25.2-2,32.9-12.2
	C86.7,72,84,70,82.8,71.5z M42.4,35.1c2.9-4,6.7-8.5,11.5-10.1c4.7-1.6,6.3,4.9,6.5,7.7c0.2,3.6-2.3,6.8-4.7,9.4
	c-4.9,5.6-13,10.4-21.2,12.6C35.1,47.7,38.5,40.9,42.4,35.1z M92.8,64.8c-5,0-10.3,0.4-15.1,1.6c-2,0.5-1.1,3.2,0.9,2.9
	c4-0.7,8.1-0.5,12.1-0.4c-0.2,2.3-0.4,4.9-0.7,7.2c-0.4,1.8-1.6,4.5-0.5,6.3c0.5,0.9,1.4,0.9,2.3,0.5c2.2-0.9,2.2-4.7,2.5-6.7
	c0.5-3.2,0.7-6.3,0.7-9.5C95,65.7,93.9,64.8,92.8,64.8z"/>
</svg>
