<?xml version="1.0" encoding="utf-8"?>
<!-- Generator: Adobe Illustrator 23.0.3, SVG Export Plug-In . SVG Version: 6.00 Build 0)  -->
<svg version="1.1" id="Layer_1" xmlns="http://www.w3.org/2000/svg" xmlns:xlink="http://www.w3.org/1999/xlink" x="0px" y="0px"
	 viewBox="0 0 96.1 88" style="enable-background:new 0 0 96.1 88;" xml:space="preserve">
<style type="text/css">
	.st0{fill:#3E50B4;}
</style>
<path class="st0" d="M22.7,73.3c-4.8-0.7-7.6-4-9.5-8.1c-0.3-0.7-0.7-2.9-1.4-4.8c1-0.2,2.1-0.3,3.1-0.3c1.2-0.2,2.6-1.2,2.1-2.6
	c-2.6-6.4-4.7-13.1-6.6-19.7c-0.5-1.7-3.1-2.2-4-0.5c-2.1,4.3-3.5,9-4.7,13.7c-0.9,2.9-2.4,6.6-1.4,9.5c0.3,1.2,2.1,1.6,2.8,0.3l0,0
	c1.6,0.3,2.9,0.5,4.3,0.3c1.4,7.4,6.4,16.1,14.9,15.6C24.1,76.5,24.6,73.7,22.7,73.3z M4.4,57.6c1.6-4,2.4-8.3,3.6-12.4
	c1.2,4,2.4,7.8,4,11.6C9.6,57.4,7,57.6,4.4,57.6z M51.6,4.5c-3.5-1.7-7.1-2.9-11.1-3.6c-3.2-0.7-7.7-1.6-10.7,0.2
	c-0.9,0.5-1,1.7-0.5,2.6c0,1.4,0.2,2.8,0.3,4.1c-3.6,0.2-7.3,3.6-9.9,5.9c-3.3,2.9-6.1,6.7-7.3,11.1c-0.3,1.6,1.7,2.6,2.6,1
	c2.1-3.6,4.3-6.7,7.4-9.3c2.2-1.9,5.9-3.5,7.8-5.7c0.7,2.1,1.4,4.1,2.2,6.1c0.3,0.9,1.6,1.2,2.4,1C41,15.7,46.6,12,51.7,8
	C53.2,7.1,52.8,5.1,51.6,4.5z M32.4,4.7c2.2,0.2,4.8,0,7.1,0.3c2.2,0.3,4.5,1,6.7,1.9c-3.3,2.4-6.9,4.7-10.7,6.2
	C34.2,10.4,33.1,7.6,32.4,4.7z M93.3,22.2c-1.6,0.3-3.1,0.9-4.7,1.2l0,0c0.3-3.6-5.5-8.5-8.1-10.4c-4.1-3.1-9-4.8-14.2-4
	c-1.6,0.2-1,2.4,0.3,2.6c5.4,0.3,9.3,2.6,13.3,6.1c1.9,1.7,3.6,5.2,5.9,6.6c-2.2,0.7-4.5,1.4-6.7,2.6c-0.2,0.2-0.3,0.3-0.5,0.5
	c-0.7,0.5-1,1.2-0.9,2.2c1.2,7.4,4.8,14.4,10,19.7c1,1.2,3.3,0.7,3.6-1c1.9-7.8,2.1-15.9,4.7-23.5C96.4,23.2,94.7,21.7,93.3,22.2z
	 M90.7,26.8c-1.4,5.2-2.1,10.5-2.9,15.9c-2.9-4.1-5-8.8-5.9-14C84.8,27.9,87.8,27.2,90.7,26.8z M78.6,74.4c3.6-3.6,6.1-8.6,5.2-13.8
	c-0.3-1.4-2.4-1-2.4,0.3c-0.2,4.7-2.9,8.3-6.2,11.2c-1.6,1.6-3.5,2.6-5.4,3.6c-0.7,0.3-1.2,0.5-1.9,0.9c-0.5-1.7-1-3.5-1-5.4
	c0-1.4-1.7-2.8-3.1-1.7C59,73.1,53.9,76.4,49.3,80c-1.4,1-0.3,3.1,1,3.6c3.1,1.2,6.2,2.1,9.3,2.9c2.2,0.7,5.4,2.1,7.8,1.4
	c1.2-0.3,1.7-2.1,0.9-2.9c0,0,0,0-0.2-0.2c0.7,0,1.2-0.5,1.4-1.4c0-1,0-1.9-0.2-2.8C72.4,80.4,76.7,76.3,78.6,74.4z M60.4,82.3
	c-1.7-0.5-3.6-1-5.4-1.6c2.9-2.1,5.9-4.1,8.6-6.4c1,2.8,1.9,6.1,2.1,9c0,0.2,0,0.3,0.2,0.5C64.4,83,62.2,82.9,60.4,82.3z"/>
</svg>
