<?xml version="1.0" encoding="utf-8"?>
<!-- Generator: Adobe Illustrator 23.0.3, SVG Export Plug-In . SVG Version: 6.00 Build 0)  -->
<svg version="1.1" id="Layer_1" xmlns="http://www.w3.org/2000/svg" xmlns:xlink="http://www.w3.org/1999/xlink" x="0px" y="0px"
	 viewBox="0 0 88 88" style="enable-background:new 0 0 88 88;" xml:space="preserve">
<style type="text/css">
	.st0{fill:#3E50B4;}
</style>
<path class="st0" d="M44,0C19.7,0,0,19.7,0,44s19.7,44,44,44s44-19.7,44-44S68.3,0,44,0z M29.3,67.5H19.1v-47h10.3v47H29.3z
	 M67.5,66c0,0.5-0.3,1-0.8,1.3c-0.2,0.1-0.5,0.2-0.7,0.2c-0.3,0-0.6-0.1-0.8-0.3l-32.3-22c-0.4-0.3-0.6-0.7-0.6-1.2s0.2-0.9,0.6-1.2
	l32.3-22c0.5-0.3,1-0.3,1.5-0.1c0.5,0.3,0.8,0.8,0.8,1.3V66z"/>
</svg>
