<?xml version="1.0" encoding="utf-8"?>
<!-- Generator: Adobe Illustrator 23.0.3, SVG Export Plug-In . SVG Version: 6.00 Build 0)  -->
<svg version="1.1" id="Capa_1" xmlns="http://www.w3.org/2000/svg" xmlns:xlink="http://www.w3.org/1999/xlink" x="0px" y="0px"
	 viewBox="0 0 100 100" style="enable-background:new 0 0 100 100;" xml:space="preserve">
<style type="text/css">
	.st0{fill:#3E50B4;}
</style>
<path class="st0" d="M93.3,24.9c-4.5-7.7-10.5-13.7-18.2-18.2S59.1,0,50,0S32.6,2.2,24.9,6.7S11.2,17.2,6.7,24.9S0,40.9,0,50
	s2.2,17.4,6.7,25.1s10.5,13.7,18.2,18.2c7.7,4.5,16,6.7,25.1,6.7s17.4-2.2,25.1-6.7s13.7-10.5,18.2-18.2c4.5-7.7,6.7-16,6.7-25.1
	S97.8,32.6,93.3,24.9z M75,53.6L39.6,74.4c-0.7,0.4-1.3,0.6-2.1,0.6c-0.7,0-1.4-0.2-2.1-0.5c-1.4-0.8-2.1-2-2.1-3.6V29.2
	c0-1.6,0.7-2.8,2.1-3.6c1.4-0.8,2.8-0.8,4.2,0.1L75,46.4c1.4,0.8,2.1,2,2.1,3.6S76.4,52.8,75,53.6z"/>
</svg>
