<?xml version="1.0" encoding="utf-8"?>
<!-- Generator: Adobe Illustrator 23.0.3, SVG Export Plug-In . SVG Version: 6.00 Build 0)  -->
<svg version="1.1" id="Layer_1" xmlns="http://www.w3.org/2000/svg" xmlns:xlink="http://www.w3.org/1999/xlink" x="0px" y="0px"
	 viewBox="0 0 71.2 78.3" style="enable-background:new 0 0 71.2 78.3;" xml:space="preserve">
<style type="text/css">
	.st0{fill:#3E50B4;}
</style>
<path class="st0" d="M39.9,7.9H16.1V3.8c0-1.5-0.9-2.9-2.3-3.5s-3-0.3-4.1,0.8L1.1,9.7c-1.5,1.5-1.5,3.9,0,5.3l8.6,8.6
	c0.7,0.7,1.7,1.1,2.7,1.1c0.5,0,1-0.1,1.4-0.3c1.4-0.6,2.3-2,2.3-3.5v-4.2h23.8c12.4,0,22.5,10.1,22.5,22.5S52.3,61.6,39.9,61.6
	H16.1v-4.2c0-1.5-0.9-2.9-2.3-3.5s-3-0.3-4.1,0.8l-8.6,8.6c-1.5,1.5-1.5,3.9,0,5.3l8.6,8.6c0.7,0.7,1.7,1.1,2.7,1.1
	c0.5,0,1-0.1,1.4-0.3c1.4-0.6,2.3-2,2.3-3.5v-4.2h23.8c17.3,0.1,31.3-13.9,31.3-31.1S57.2,7.9,39.9,7.9z"/>
</svg>
