<?xml version="1.0" encoding="utf-8"?>
<!-- Generator: Adobe Illustrator 23.0.3, SVG Export Plug-In . SVG Version: 6.00 Build 0)  -->
<svg version="1.1" id="Layer_1" xmlns="http://www.w3.org/2000/svg" xmlns:xlink="http://www.w3.org/1999/xlink" x="0px" y="0px"
	 viewBox="0 0 68.4 92.9" style="enable-background:new 0 0 68.4 92.9;" xml:space="preserve">
<style type="text/css">
	.st0{fill:#3E50B4;}
</style>
<path class="st0" d="M2.9,89.4c-1.3-1.6-0.8-3-0.6-4.9c0.2-0.8-0.8-1.6-1.4-0.8c-1.7,1.9-0.9,5.4,0.8,7C2.5,91.4,3.6,90.3,2.9,89.4z
	 M2,67.1c-0.2-0.6-0.9-0.6-1.3,0c-0.8,2.2-0.2,5.2,0,7.6c0,0.8,1.3,0.8,1.3,0C2.1,72.3,2.8,69.1,2,67.1z M2,55.5
	c-0.3-1.1-0.5-2.4-0.5-3.5c0-1.3,0.5-2.4,0.5-3.6c0-0.6-0.8-0.8-1.1-0.3c-1.4,2.2-0.9,5.4,0,7.8C1,56.6,2.1,56.3,2,55.5z M2.5,34.8
	c-1.6,1.7-1.7,4.7-1.6,7.1c0,0.6,0.9,0.6,0.9,0c0.2-1.3,0.5-2.4,0.9-3.6c0.3-0.9,0.8-1.7,0.9-2.7C3.9,34.8,3.1,34.1,2.5,34.8z
	 M7.7,15.1C4.9,17.2,4.2,20.6,5,24c0.2,0.6,1.1,0.3,0.9-0.3c-0.3-1.6-0.3-3,0.3-4.4c0.5-1.1,1.4-2.2,2.1-3.2
	C8.8,15.5,8.2,14.7,7.7,15.1z M20.2,1.8c-1.3-0.2-2.8,0.9-3.8,1.7c-1.3,0.9-2.4,2.2-3.2,3.6C12.9,7.6,13.7,8,14,7.6
	c0.9-1.1,2.1-2.1,3.3-2.8c1.1-0.6,2.4-0.9,3.3-1.7C21.1,2.6,20.8,1.8,20.2,1.8z M39.2,0.3c-1.1-0.5-2.4-0.2-3.6-0.2s-2.7,0.2-4,0.2
	c-0.6,0-0.6,1.1,0,1.1c1.3,0,2.7,0.2,4,0.2c1.1,0,2.4,0.3,3.6-0.2C39.8,1.4,39.8,0.6,39.2,0.3z M53.7,9.8c-0.5-1.1-1.6-1.9-2.5-2.7
	c-1.1-0.8-2.4-1.4-3.6-1.7c-0.6-0.2-0.9,0.8-0.5,0.9c1.1,0.5,2.2,1.3,3.2,2.1c0.8,0.8,1.6,1.9,2.7,2.4C53.3,10.9,53.9,10.2,53.7,9.8
	z M56.9,19.6c-0.3-0.9-1.6-0.5-1.4,0.3c0.6,2.4,0.3,4.9,0.8,7.4c0.2,0.8,1.3,0.8,1.4,0C58.2,24.6,57.9,21.9,56.9,19.6z M59.3,41.6
	c-0.3-1.9-0.5-3.8-0.9-5.5c-0.2-0.5-0.9-0.5-1.1,0c-0.6,2.8-0.2,6.6,0.6,9.3c0.2,0.6,1.1,0.6,1.3,0C59.6,44.1,59.6,42.8,59.3,41.6z
	 M58.8,59.2c0-1.7-0.2-3.3-0.3-5.1c0-0.6-1-0.6-1.1,0c-0.2,1.6-0.3,3-0.3,4.4c0,1.6-0.3,3.2,0.2,4.7c0.3,0.8,1.3,0.8,1.6,0
	C59,62,58.8,60.6,58.8,59.2z M57.2,71.2c-0.5,1.3-0.8,2.5-0.9,4c-0.2,1.4-0.5,3.2,0,4.6c0.3,0.8,1.3,0.8,1.4,0
	c0.5-1.3,0.2-2.7,0.2-4.1s0.2-2.8,0.5-4.1C58.7,70.7,57.5,70.4,57.2,71.2z M65.5,77.8c-2.2,4-4.1,8.2-7,11.7
	c-2.5-2.1-5.1-3.8-7.1-6.6c-0.9-1.3-2.2,0-2.1,0.8l0,0l0,0c0,0.2,0,0.2,0.2,0.3c1.1,4,5.2,5.9,8.1,8.5c0.6,0.6,1.6,0.6,2.2,0
	C63.4,88.7,66,84,68.2,79C68.9,77.7,66.4,76.1,65.5,77.8z"/>
</svg>
