<?xml version="1.0" encoding="utf-8"?>
<!-- Generator: Adobe Illustrator 23.0.3, SVG Export Plug-In . SVG Version: 6.00 Build 0)  -->
<svg version="1.1" id="Layer_1" xmlns="http://www.w3.org/2000/svg" xmlns:xlink="http://www.w3.org/1999/xlink" x="0px" y="0px"
	 viewBox="0 0 68.7 89.2" style="enable-background:new 0 0 68.7 89.2;" xml:space="preserve">
<style type="text/css">
	.st0{fill:#3E50B4;}
</style>
<path class="st0" d="M9.5,3.6C9.5,3.6,9.5,3.4,9.5,3.6C9.5,3.4,9.5,3.6,9.5,3.6z M68.6,35.1c0.2-0.7,0-1.2-0.3-1.5
	c0.3-0.8-0.2-2-1-2.5c-11-4.3-20.7-11.7-30.6-18.3c-6.9-4.6-14.3-8.4-21.9-12c-0.2,0-0.3-0.2-0.5-0.2c-0.7-1-2.3-0.8-2.6,0.5
	c-0.2,0.7-0.3,1.3-0.5,2L11,3.3C10.8,3.1,10.7,3,10.5,3c-0.3-0.2-0.7,0-0.8,0.2H9.5c-0.2,0-0.2,0.2,0,0.2c0.5,0,0,0.3,0,0.2
	C9,4.1,8.8,4.9,8.5,5.4c-1,2-2.5,3.6-3.6,5.4c-1.3,1.8-6.1,5.9-4.6,8.6c0,0.2,0.2,0.2,0.2,0.3c-0.7,11,0.2,22.1,0.5,33.1
	c0.3,10.9-0.2,22.6,1.8,33.4C3,87,3.5,87.4,4.1,87.4c3,6.6,24.4-7.4,27-9.1c7.6-4.8,15-9.9,22.1-15.3c3.1-2.5,11.9-7.4,12.5-11.7
	c0.2-0.7-0.2-1.2-0.5-1.5C66.4,44.9,67.9,40,68.6,35.1z M62.2,49.9c-2.8,1.5-5.8,5.1-7.9,6.9c-6.3,4.9-12.7,9.6-19.3,14
	C25.8,77,16.2,82.6,5.5,85.6l0,0c1-10.7-0.5-22.2-1-32.9c-0.3-11-0.3-22.2-1.8-33.1c0.8-0.5,1.3-1.3,1.8-2.1c1.3-1.8,2.6-3.6,4-5.4
	c0.7-1,1.6-2.3,2.5-3.8c0.2,2.5,0.5,4.9,0.5,7.2c0.3,7.2,0.7,14.5,1,21.7C12.8,43.5,13,49.7,13,56c0,4.4-1,9.4-0.2,13.8
	c0.2,1.2,2,1.2,2.5,0.3c0.2-0.2,0.3-0.5,0.3-0.8l0,0c0.5,0.7,1.2,1,2,0.8c10.4-1.8,20.7-10.4,29-16.3c5.3-3.6,10.4-7.4,15.1-11.7
	c0.7-0.5,1.3-1,2-1.6C63,43.8,62.5,46.9,62.2,49.9z M40.1,53.3c-5.3,3.6-10.7,6.9-16.1,10c-2,1.2-5.3,2.1-7.4,3.6
	c2.6-8.1,0.5-20.1,0.2-27.5c-0.3-7.2-0.7-14.5-1-21.9c-0.2-3.6,0.2-8.1-0.2-12c7.6,4.3,15,8.2,22.2,13c6.1,4.1,12.2,8.4,18.4,12
	c2.3,1.3,5.1,3.1,7.9,3.8C57.2,41.8,48.5,47.6,40.1,53.3z"/>
</svg>
