<?xml version="1.0" encoding="utf-8"?>
<!-- Generator: Adobe Illustrator 23.0.3, SVG Export Plug-In . SVG Version: 6.00 Build 0)  -->
<svg version="1.1" id="Layer_1" xmlns="http://www.w3.org/2000/svg" xmlns:xlink="http://www.w3.org/1999/xlink" x="0px" y="0px"
	 viewBox="0 0 84.4 90.8" style="enable-background:new 0 0 84.4 90.8;" xml:space="preserve">
<style type="text/css">
	.st0{fill:#3E50B4;}
</style>
<path class="st0" d="M31.5,63.5c-1.2-0.9-2.8-0.6-3.6,0.5c-4.3,5.7-10.9,9-18.1,9H2.6C1.2,73,0,74.2,0,75.6s1.2,2.6,2.6,2.6h7.2
	c4.5,0,8.7-1,12.6-3c3.8-1.9,7.1-4.7,9.6-8.1C32.9,66,32.6,64.3,31.5,63.5z M38.8,27c0.5,0.4,1,0.5,1.6,0.5c0.8,0,1.5-0.3,2.1-1
	c4.3-5.6,10.9-8.8,17.9-8.8h15.1l-8.1,8.1c-1,1-1,2.7,0,3.7c0.5,0.5,1.2,0.8,1.8,0.8c0.7,0,1.3-0.3,1.8-0.8L83.5,17c1-1,1-2.7,0-3.7
	L71.1,0.8c-1-1-2.7-1-3.7,0s-1,2.7,0,3.7l8.1,8.1H60.4c-8.7,0-16.7,3.9-22,10.8C37.5,24.5,37.7,26.1,38.8,27z M71.1,61.3
	c-1-1-2.7-1-3.7,0s-1,2.7,0,3.7l8.1,8.1H60.4c-12.5,0-22.7-10.2-22.7-22.7V40.3c0-15.4-12.5-27.9-27.9-27.9H2.6
	C1.2,12.4,0,13.6,0,15s1.2,2.6,2.6,2.6h7.2c12.6,0.1,22.7,10.2,22.7,22.7v10c0,15.4,12.5,27.9,27.9,27.9h15.1l-8,8.1
	c-1,1-1,2.7,0,3.7c0.5,0.5,1.2,0.8,1.8,0.8s1.3-0.3,1.8-0.8l12.5-12.5c1-1,1-2.7,0-3.7L71.1,61.3z"/>
</svg>
