<?xml version="1.0" encoding="utf-8"?>
<!-- Generator: Adobe Illustrator 23.0.3, SVG Export Plug-In . SVG Version: 6.00 Build 0)  -->
<svg version="1.1" id="Layer_1" xmlns="http://www.w3.org/2000/svg" xmlns:xlink="http://www.w3.org/1999/xlink" x="0px" y="0px"
	 viewBox="0 0 92 67.4" style="enable-background:new 0 0 92 67.4;" xml:space="preserve">
<style type="text/css">
	.st0{fill:#3E50B4;}
</style>
<path class="st0" d="M79.9,57.3C76,53.2,72.5,48.8,69.6,44c-0.6-0.9-1.7-1.3-2.6-0.7c-5.1,3.8-9.9,8-15.6,10.8
	c6.8-13.9,14.3-27.6,18.3-42.6c0.4-1.7-1.9-3.4-3.2-1.9c-12.6,14.8-26,28.6-40.2,41.7C37.7,37,49.9,23.2,55.2,5.5
	c0.6-1.7-1.3-2.8-2.8-2.2C36.5,10.1,21.6,19.5,5,24.5c3.5-8.3,8-15.9,14.1-22.6c1-1-0.6-2.6-1.6-1.6C10.1,7.7,4.4,16.8,0.2,26.4
	c-0.6,1.5,0.4,3.1,2,2.8C19.1,24.9,34.3,15.6,50,8.5C42.3,29.9,24.1,46,11.7,64.6c-1.3,1.9,1.5,3.6,3.1,2.3
	C32,52.2,48.2,36.1,63.3,19.2c-4.7,13-11.7,25.1-17.5,37.6c-0.7,1.5,0.4,3.4,2.2,2.8c7.4-2.2,13.3-7.1,19.4-11.7
	c2.9,4.4,6.1,8.5,9.8,12.2C78.9,62,81.6,59.2,79.9,57.3z M92,65c-1-5.8-2.3-13.7-6.4-18.2c-1.2-1.3-3.4,0-2.8,1.6
	c0.9,2.9,2.5,5.5,3.4,8.5c0.7,2.2,1.3,4.4,1.7,6.7c-5.4-0.1-10.8-0.9-16.2-1.6c-1.7-0.1-2.2,2.8-0.4,3.1c6.3,1.3,12.5,2.2,18.9,2.3
	C91.4,67.5,92.1,66.2,92,65z"/>
</svg>
