<?xml version="1.0" encoding="utf-8"?>
<!-- Generator: Adobe Illustrator 23.0.3, SVG Export Plug-In . SVG Version: 6.00 Build 0)  -->
<svg version="1.1" id="Layer_1" xmlns="http://www.w3.org/2000/svg" xmlns:xlink="http://www.w3.org/1999/xlink" x="0px" y="0px"
	 viewBox="0 0 89.9 89.8" style="enable-background:new 0 0 89.9 89.8;" xml:space="preserve">
<style type="text/css">
	.st0{fill:#3E50B4;}
</style>
<path class="st0" d="M74.1,29.2l-4.4,4.4l8.1,8.2H56.9v6.3h20.9l-8.1,8.1l4.4,4.5l15.8-15.8L74.1,29.2z M33,48.1v-6.3H12l8.2-8.2
	l-4.4-4.4L0,44.9l15.8,15.8l4.4-4.5L12,48.1H33z M48.1,77.8V56.9h-6.3v20.9l-8.2-8.1l-4.4,4.4l15.7,15.7l15.8-15.7l-4.5-4.4
	L48.1,77.8z M41.8,12v21h6.3V12l8.1,8.2l4.5-4.5L44.9,0L29.2,15.7l4.4,4.5L41.8,12z"/>
</svg>
