<?xml version="1.0" encoding="utf-8"?>
<!-- Generator: Adobe Illustrator 23.0.3, SVG Export Plug-In . SVG Version: 6.00 Build 0)  -->
<svg version="1.1" id="Capa_1" xmlns="http://www.w3.org/2000/svg" xmlns:xlink="http://www.w3.org/1999/xlink" x="0px" y="0px"
	 viewBox="0 0 133.4 99.9" style="enable-background:new 0 0 133.4 99.9;" xml:space="preserve">
<style type="text/css">
	.st0{fill:#3E50B4;}
</style>
<path class="st0" d="M0.7,35C0.2,34.5,0,34,0,33.3V19c0-0.6,0.2-1.2,0.7-1.7s1-0.7,1.7-0.7h102.4V2.4c0-0.7,0.2-1.3,0.7-1.7
	c0.4-0.4,1-0.7,1.7-0.7c0.6,0,1.2,0.2,1.8,0.7l23.7,23.7c0.4,0.4,0.7,1,0.7,1.7s-0.2,1.3-0.7,1.7l-23.8,23.8c-0.4,0.4-1,0.7-1.7,0.7
	c-0.6,0-1.2-0.2-1.7-0.7s-0.7-1-0.7-1.7V35.7H2.4C1.7,35.7,1.2,35.5,0.7,35z M131,64.3H28.6V50c0-0.6-0.2-1.2-0.7-1.7
	s-1-0.7-1.7-0.7s-1.3,0.2-1.7,0.7L0.7,72.1c-0.4,0.4-0.7,1-0.7,1.7c0,0.6,0.2,1.2,0.7,1.6l23.7,23.8c0.6,0.5,1.2,0.7,1.8,0.7
	c0.6,0,1.2-0.2,1.7-0.7s0.7-1,0.7-1.7V83.3H131c0.6,0,1.2-0.2,1.7-0.7s0.7-1,0.7-1.7V66.7c0-0.6-0.2-1.2-0.7-1.7
	S131.6,64.3,131,64.3z"/>
</svg>
