<?xml version="1.0" encoding="utf-8"?>
<!-- Generator: Adobe Illustrator 23.0.3, SVG Export Plug-In . SVG Version: 6.00 Build 0)  -->
<svg version="1.1" id="Capa_1" xmlns="http://www.w3.org/2000/svg" xmlns:xlink="http://www.w3.org/1999/xlink" x="0px" y="0px"
	 viewBox="0 0 112 100.1" style="enable-background:new 0 0 112 100.1;" xml:space="preserve">
<style type="text/css">
	.st0{fill:#3E50B4;}
</style>
<path class="st0" d="M110.8,33.2l-32-32C78,0.4,77.1,0,76,0s-2,0.4-2.8,1.2C72.4,2,72,2.9,72,4v16H58c-29.7,0-47.9,8.4-54.7,25.2
	C1.1,50.8,0,57.7,0,66c0,6.9,2.6,16.3,7.9,28.2C8,94.5,8.2,95,8.6,95.7s0.6,1.3,0.8,1.9c0.3,0.5,0.5,1,0.8,1.4
	c0.5,0.7,1.1,1.1,1.8,1.1c0.6,0,1.1-0.2,1.5-0.6s0.5-0.9,0.5-1.6c0-0.4-0.1-0.9-0.2-1.7c-0.1-0.7-0.2-1.2-0.2-1.5
	c-0.2-2.8-0.3-5.4-0.3-7.7c0-4.2,0.4-8,1.1-11.3c0.7-3.3,1.7-6.2,3-8.7c1.3-2.4,3-4.5,5-6.3s4.2-3.2,6.6-4.3s5.1-2,8.3-2.7
	c3.2-0.6,6.4-1.1,9.6-1.3c3.2-0.2,6.9-0.4,11-0.4h14v16c0,1.1,0.4,2,1.2,2.8C74,71.6,74.9,72,76,72s2-0.4,2.8-1.2l32-32
	c0.8-0.8,1.2-1.7,1.2-2.8C112,34.9,111.6,34,110.8,33.2z"/>
</svg>
