<?xml version="1.0" encoding="utf-8"?>
<!-- Generator: Adobe Illustrator 23.0.3, SVG Export Plug-In . SVG Version: 6.00 Build 0)  -->
<svg version="1.1" id="Layer_1" xmlns="http://www.w3.org/2000/svg" xmlns:xlink="http://www.w3.org/1999/xlink" x="0px" y="0px"
	 viewBox="0 0 83 91.5" style="enable-background:new 0 0 83 91.5;" xml:space="preserve">
<style type="text/css">
	.st0{fill:#3E50B4;}
</style>
<path class="st0" d="M56.9,51.7L13,89.6c-1.5,1.3-3.3,1.9-5.1,1.9c-1.1,0-2.2-0.2-3.3-0.7C1.8,89.5,0,86.7,0,83.7V7.8
	c0-3.1,1.8-5.9,4.6-7.1c2.8-1.3,6.1-0.8,8.4,1.2l43.9,38c1.7,1.5,2.7,3.7,2.7,5.9C59.6,48,58.6,50.2,56.9,51.7z M81.2,41.8l-43.9-38
	c-2.2-1.9-5.5-1.6-7.4,0.5c-1.9,2.2-1.6,5.5,0.5,7.4l39.3,34l-39.3,34c-2.2,1.9-2.4,5.2-0.5,7.4c1,1.2,2.5,1.8,4,1.8
	c1.2,0,2.4-0.4,3.4-1.3l43.9-38c1.1-1,1.8-2.4,1.8-4S82.3,42.8,81.2,41.8z"/>
</svg>
