<?xml version="1.0" encoding="utf-8"?>
<!-- Generator: Adobe Illustrator 23.0.3, SVG Export Plug-In . SVG Version: 6.00 Build 0)  -->
<svg version="1.1" id="Capa_1" xmlns="http://www.w3.org/2000/svg" xmlns:xlink="http://www.w3.org/1999/xlink" x="0px" y="0px"
	 viewBox="0 0 96.7 100.1" style="enable-background:new 0 0 96.7 100.1;" xml:space="preserve">
<style type="text/css">
	.st0{fill:#3E50B4;}
</style>
<path class="st0" d="M96.7,63.8v29.6c0,3.7-3,6.7-6.7,6.7H6.7c-3.7,0-6.7-3-6.7-6.7V63.8h13.4v22.8h69.9V63.8H96.7z M27.8,38.3
	L47,61.5c0,0,1.6,1.8,3.2,0.2c2.3-2.3,18.6-24,18.6-24s2.9-2.9-1-2.9s-10,0-10,0s0-1.7,0-4.2c0-7.9,0-23.3,0-29.2c0,0,0-1.4-1.7-1.4
	c-1.8,0-12.8,0-15.3,0s-2.1,1.6-2.1,1.6c0,6.1,0,20.9,0,29.1c0,2.9,0,4.7,0,4.7s-7.7,0-10.8,0S27.8,38.3,27.8,38.3z"/>
</svg>
