<?xml version="1.0" encoding="utf-8"?>
<!-- Generator: Adobe Illustrator 23.0.3, SVG Export Plug-In . SVG Version: 6.00 Build 0)  -->
<svg version="1.1" id="Capa_1" xmlns="http://www.w3.org/2000/svg" xmlns:xlink="http://www.w3.org/1999/xlink" x="0px" y="0px"
	 viewBox="0 0 122.5 100" style="enable-background:new 0 0 122.5 100;" xml:space="preserve">
<style type="text/css">
	.st0{fill:#3E50B4;}
</style>
<path class="st0" d="M50.1,94.1c0.1,0.8,0.1,1.5,0,2.1c0,0.5-0.1,1.2-0.2,1.8c-0.1,0.7-0.4,1.2-0.8,1.5c-0.4,0.3-0.9,0.5-1.6,0.5
	h-25c-6.2,0-11.5-2.2-15.9-6.6S0,83.7,0,77.5v-55C0,16.3,2.2,11,6.6,6.6S16.3,0,22.5,0h25c0.7,0,1.3,0.2,1.8,0.7S50,1.8,50,2.5
	c0,0.2,0,0.7,0.1,1.6c0.1,0.8,0.1,1.5,0,2.1c0,0.5-0.1,1.2-0.2,1.8c-0.1,0.7-0.4,1.2-0.8,1.5c-0.4,0.3-0.9,0.5-1.6,0.5h-25
	c-3.4,0-6.4,1.2-8.8,3.7c-2.4,2.4-3.7,5.4-3.7,8.8v55c0,3.4,1.2,6.4,3.7,8.8c2.4,2.4,5.4,3.7,8.8,3.7H45h0.9h1c0,0,0.3,0,0.9,0.1
	c0.6,0,0.9,0.1,0.9,0.2s0.2,0.2,0.6,0.4c0.4,0.2,0.6,0.4,0.5,0.7c-0.1,0.3,0,0.6,0.2,1.1C50,92.7,50,93.2,50.1,94.1z M121,46.5
	L78.5,4c-1-1-2.2-1.5-3.5-1.5c-1.4,0-2.5,0.5-3.5,1.5S70,6.2,70,7.5V30H35c-1.4,0-2.5,0.5-3.5,1.5S30,33.7,30,35v30
	c0,1.4,0.5,2.5,1.5,3.5S33.7,70,35,70h35v22.5c0,1.4,0.5,2.5,1.5,3.5s2.2,1.5,3.5,1.5c1.4,0,2.5-0.5,3.5-1.5L121,53.5
	c1-1,1.5-2.2,1.5-3.5C122.5,48.6,122,47.5,121,46.5z"/>
</svg>
