<?xml version="1.0" encoding="utf-8"?>
<!-- Generator: Adobe Illustrator 23.0.3, SVG Export Plug-In . SVG Version: 6.00 Build 0)  -->
<svg version="1.1" id="Layer_1" xmlns="http://www.w3.org/2000/svg" xmlns:xlink="http://www.w3.org/1999/xlink" x="0px" y="0px"
	 viewBox="0 0 85.4 90.7" style="enable-background:new 0 0 85.4 90.7;" xml:space="preserve">
<style type="text/css">
	.st0{fill:#3E50B4;}
</style>
<path class="st0" d="M63.4,55.8c0.9-0.9,1.4-2,1.4-3.2s-0.5-2.4-1.4-3.3c-1.9-1.8-4.9-1.8-6.7,0l-9.2,8.8V4.6c0-2.5-2.1-4.6-4.8-4.6
	s-4.8,2.1-4.8,4.6v53.5l-9.2-8.8c-1.9-1.8-4.9-1.8-6.8,0c-0.9,0.9-1.4,2-1.4,3.2s0.5,2.4,1.4,3.2l6.2,6h29L63.4,55.8z M77.1,61.8
	h-1.2H57.2L46.1,72.5c-0.4,0.4-0.9,0.8-1.5,1s-1.2,0.3-1.8,0.3s-1.2-0.1-1.8-0.3c-0.6-0.3-1.2-0.6-1.6-1L28.2,61.8H9.5H0v13.6
	c0,8.4,7.1,15.3,15.9,15.3h53.6c8.8,0,15.9-6.9,15.9-15.3V61.8H77.1L77.1,61.8z"/>
</svg>
