<?xml version="1.0" encoding="utf-8"?>
<!-- Generator: Adobe Illustrator 23.0.3, SVG Export Plug-In . SVG Version: 6.00 Build 0)  -->
<svg version="1.1" id="Capa_1" xmlns="http://www.w3.org/2000/svg" xmlns:xlink="http://www.w3.org/1999/xlink" x="0px" y="0px"
	 viewBox="0 0 99.9 99.9" style="enable-background:new 0 0 99.9 99.9;" xml:space="preserve">
<style type="text/css">
	.st0{fill:#3E50B4;}
</style>
<path class="st0" d="M48.5,58.9c0.4,0.4,0.7,0.9,0.7,1.5s-0.2,1.1-0.7,1.5L26.9,83.5l9.4,9.4c0.8,0.8,1.2,1.8,1.2,2.9
	s-0.4,2.1-1.2,2.9s-1.8,1.2-2.9,1.2H4.2c-1.1,0-2.1-0.4-2.9-1.2C0.4,97.9,0,97,0,95.8V66.7c0-1.1,0.4-2.1,1.2-2.9
	C2,63,3,62.6,4.1,62.6S6.2,63,7,63.8l9.4,9.4L38,51.6c0.4-0.4,0.9-0.6,1.5-0.6s1.1,0.2,1.5,0.6L48.5,58.9z M98.8,1.2
	C97.9,0.4,97,0,95.8,0H66.7c-1.1,0-2.1,0.4-2.9,1.2C63,2,62.6,3,62.6,4.1S63,6.2,63.8,7l9.4,9.4L51.5,38.1c-0.4,0.4-0.7,0.9-0.7,1.5
	s0.2,1.1,0.7,1.5l7.4,7.4c0.4,0.4,0.9,0.6,1.5,0.6s1.1-0.2,1.5-0.6l21.6-21.6l9.4,9.4c0.8,0.8,1.8,1.2,2.9,1.2s2.1-0.4,2.9-1.2
	s1.2-1.8,1.2-2.9V4.2C100,3,99.6,2.1,98.8,1.2z"/>
</svg>
