<?xml version="1.0" encoding="utf-8"?>
<!-- Generator: Adobe Illustrator 23.0.3, SVG Export Plug-In . SVG Version: 6.00 Build 0)  -->
<svg version="1.1" id="Capa_1" xmlns="http://www.w3.org/2000/svg" xmlns:xlink="http://www.w3.org/1999/xlink" x="0px" y="0px"
	 viewBox="0 0 110.6 100" style="enable-background:new 0 0 110.6 100;" xml:space="preserve">
<style type="text/css">
	.st0{fill:#3E50B4;}
</style>
<path class="st0" d="M103.8,57c-5,4.2-13.2,7.9-19.5,4.7c-1.4,1.7-3.5,3.1-5.3,4.2c-1.7,1-3.8,2.4-5.8,1.5c-1.3-0.5-1.8-2.3-0.4-3.2
	l0,0c0.2-0.2,0.4-0.4,0.6-0.5c0.3-0.2,0.7-0.4,1.1-0.5c0.9-0.4,1.8-0.9,2.7-1.4c2-1.3,3.7-2.8,5.4-4.4c1.1-1,2.4-0.6,2.9,0.4
	c6.2,0.7,11.7,0.3,16.3-5c4-4.6,6.9-12.2,2.1-17.4c-3.4-3.7-8.1-6.6-13.1-7.4c-4-0.7-6.3,1.1-9.9,1.4c-0.4,0-0.7-0.2-0.9-0.5
	c-0.3-0.2-0.6-0.5-0.7-0.9c-2-5.3-1.6-10.9-5.3-15.6C69.8,7.1,63,4,56.3,4.6c-13.2,1.1-24.5,8.3-27.6,21.3c1.8,0.8,1.5,3.2-0.5,3.4
	c-5.6,0.6-11.1-0.5-16.4,2.4c-5.7,3.2-9,8.8-6.8,15.4c2.2,6.8,7.7,9.4,14.5,9.5c3,0.1,8-1.3,10.7,0.3c0.4,0.1,0.7,0.3,1,0.6
	c1,1,1,2.9,1.8,4.1c1.9,2.9,4.6,3.7,7.8,4.1c1.6,0.2,1.3,2.5,0,2.9C35,70.5,29,65.7,27.7,60.2c-4.6,1.5-12.3,0.6-15.4-0.3
	c-7.1-2.2-11-7.5-12.1-14.8c-1.9-12.9,13.2-22.4,25.1-20.2C27.5,9.7,43.5-1.5,58.8,0.2C71,1.5,83.3,11.3,82.9,24.3
	C86,23,90.8,23.4,93.1,24c6.4,1.8,13.8,5.7,16.4,12.3C112.5,43.5,109.5,52.1,103.8,57z M73.1,74.9c0.5,0.5,0.5,1.3,0,1.9
	c-1,1.1-2.6,1-4.2,0.9c0.4,0.5,0.6,1.2,0.2,1.8c-4.7,7-10.7,14-16.6,20c-0.8,0.9-2.2,0.6-2.8-0.4c-5-7.7-11.5-14.8-14.9-23.4
	c-0.2,0-0.3,0-0.5-0.1c-1.7-0.4-0.9-2.8,0.7-2.5c2.1,0.3,4.2,0.4,6.3,0.4c1.6,0,3.1-0.3,4.6,0.5c0-0.1-0.1-0.2-0.1-0.4
	c-0.1-0.9-0.1-1.8-0.2-2.8c-0.6-0.7-1.2-1.3-1.8-2c-0.3-0.4,0.2-0.8,0.5-0.5c0.4,0.4,0.8,0.7,1.2,1.1c-0.1-1.7-0.2-3.4-0.3-5.1
	c-0.1-0.1-0.1-0.1-0.2-0.2c-0.4-0.4-0.2-0.9,0.1-1.1c-0.1-1.7-0.2-3.4-0.2-5c0-0.1,0-0.2,0-0.2c-0.2-3.8-0.3-7.6-0.3-11.5
	c0-1.8,2.3-2.1,3.1-0.9c0.6,0,1.1,0,1.7,0c0.1-0.3,0.4-0.5,0.7-0.3c0.1,0.1,0.3,0.2,0.5,0.3c2.9,0,5.9,0.1,8.5-1
	c0.4-1.8,3.3-1.6,3.3,0.4c0,9.9-0.5,19.7-1.1,29.6c0,0.2-0.1,0.3-0.1,0.5c2-0.4,4.3-0.5,6.2-0.7C69.1,74.1,71.7,73.4,73.1,74.9z
	 M54,47.5c0.4,0.2,0.7,0.4,1.1,0.6c1.3,0.7,2.6,1.4,3.7,2.3c0-1,0.1-2.1,0.1-3.1C57.2,47.5,55.6,47.5,54,47.5z M47.9,47.3
	c0,1.7,0.1,3.3,0.1,5c0,0,0.1,0,0.1,0.1c2.2,1.8,4.3,3.8,6.4,5.6c1,0.9,2.4,2.4,3.9,3.3c0-1.3,0.1-2.7,0.1-4c-1.7-0.2-3.8-2.1-5-3
	c-1.8-1.3-3.6-2.8-5.1-4.4c-0.7-0.8,0.4-1.9,1.2-1.2c1.9,1.7,3.9,3.2,6,4.6c0.8,0.5,2,1,2.9,1.6c0-0.9,0-1.7,0.1-2.6
	c-0.2,0.1-0.5,0.1-0.7,0c-1.7-0.9-3.2-2.3-4.8-3.4c-0.6-0.4-1.2-0.8-1.7-1.2C50.3,47.4,49.1,47.4,47.9,47.3z M48.2,61.5
	c0,1.2,0,2.4,0,3.6c3.3,3,6.8,6,10.3,8.8c-0.1-1.6-0.1-3.1-0.1-4.7c-2.4-0.6-4.8-3.1-6.7-4.6C50.5,63.7,49.4,62.6,48.2,61.5z
	 M53.5,63.8c1.5,1.1,3.3,2,4.8,3.1c0-1.2,0-2.3,0-3.5c-1.2-0.6-2.4-1.8-3.2-2.5c-2.5-2.2-4.7-4.6-7.2-6.8c0,1.8,0.1,3.5,0.1,5.3
	C49.9,60.9,51.7,62.4,53.5,63.8z M53.7,92.7c-2.9-1-5.2-4.2-7.2-6.4c-2.5-2.7-5.7-5.9-6.8-9.5c0-0.1,0-0.2,0-0.3
	c-0.9-0.1-1.7-0.2-2.6-0.3c4.6,6.5,9.7,12.6,14.2,19.1C52.2,94.4,52.9,93.6,53.7,92.7z M56.4,89.3c-0.3,0.1-0.6,0.1-1,0
	c-1.6-0.6-2.6-2-3.7-3.3c-2.5-3.1-4.8-6.3-7.4-9.3c-1,0.2-2,0.1-3.1,0c3.6,5.5,8.6,10,13.5,14.3c0.1,0,0.1,0.1,0.1,0.1
	C55.4,90.5,55.9,89.9,56.4,89.3z M60.1,84.7c-2.5-0.5-5-3.7-6.6-5.3c-1.9-1.9-3.7-3.8-5.5-5.8v0.1c-0.1,0.9-0.9,1.2-1.5,1
	c0.2,0.5,0.1,1.1-0.5,1.4c0,0-0.1,0-0.1,0.1c1.6,1.8,3.1,3.7,4.7,5.5c1.3,1.4,2.6,2.9,3.9,4.3c0.4,0.4,0.9,0.8,1.4,1.2
	c0.2,0.1,0.3,0.2,0.3,0.3c0.3-0.1,0.7,0.1,0.8,0.5c0.1,0.2,0,0.4,0,0.6C58,87.3,59.1,86,60.1,84.7z M63.1,80.8
	c-1.3-1-2.6-2.1-3.9-3.1l0,0c-0.7,0-1-0.4-1.1-0.9c-3.4-3-6.7-6.1-9.9-9.3c0,1.5,0,2.9-0.1,4.4c1.9,1.7,3.8,3.4,5.7,5.1
	c1.5,1.3,3,2.6,4.5,3.8c0.7,0.5,1.8,1.8,2.6,2.1c0.2,0.1,0.4,0.2,0.5,0.4C61.9,82.4,62.5,81.6,63.1,80.8z M66.7,77.6
	c-1.2,0-2.4,0-3.6,0c0.6,0.5,1.1,0.9,1.7,1.4C65.3,78.5,66,78,66.7,77.6z"/>
</svg>
