<?xml version="1.0" encoding="utf-8"?>
<!-- Generator: Adobe Illustrator 23.0.3, SVG Export Plug-In . SVG Version: 6.00 Build 0)  -->
<svg version="1.1" id="Layer_1" xmlns="http://www.w3.org/2000/svg" xmlns:xlink="http://www.w3.org/1999/xlink" x="0px" y="0px"
	 viewBox="0 0 93.8 40.6" style="enable-background:new 0 0 93.8 40.6;" xml:space="preserve">
<style type="text/css">
	.st0{fill:#3E50B4;}
</style>
<path class="st0" d="M92.7,17.5L76.2,1.1c-1.5-1.5-4-1.5-5.5,0s-1.5,4,0,5.5l9.9,9.9H72L56.7,1.1c-1.5-1.5-4-1.5-5.5,0s-1.5,4,0,5.5
	l9.9,9.9H3.9C1.7,16.4,0,18.1,0,20.3c0,2.1,1.7,3.8,3.9,3.8h57.2L51.2,34c-1.5,1.5-1.5,4,0,5.5c0.8,0.8,1.7,1.1,2.7,1.1
	s2-0.4,2.7-1.1L72,24.1h8.6L70.7,34c-1.5,1.5-1.5,4,0,5.5c0.8,0.8,1.7,1.1,2.7,1.1s2-0.4,2.7-1.1L92.6,23
	C94.2,21.5,94.2,19.1,92.7,17.5z"/>
</svg>
