<?xml version="1.0" encoding="utf-8"?>
<!-- Generator: Adobe Illustrator 23.0.3, SVG Export Plug-In . SVG Version: 6.00 Build 0)  -->
<svg version="1.1" id="Layer_1" xmlns="http://www.w3.org/2000/svg" xmlns:xlink="http://www.w3.org/1999/xlink" x="0px" y="0px"
	 viewBox="0 0 92.9 28.5" style="enable-background:new 0 0 92.9 28.5;" xml:space="preserve">
<style type="text/css">
	.st0{fill:#3E50B4;}
</style>
<path class="st0" d="M81.6,20c-9.9-11.4-25.5-7.1-37.8-3c-7.2,2.3-14.6,5-22.3,5.2C11.7,22.3,5.7,15,1.6,7C1.2,6.2-0.3,6.7,0,7.7
	c5.7,15.1,17.3,19.7,32.4,16.1C48.1,20,65.5,9.2,79.6,22C80.9,23.3,82.8,21.4,81.6,20z M85.3,12.7C74.9,0,59.8,2.7,45.8,7.2
	c-7.5,2.5-15,5.4-23,6c-9.1,0.7-15-4.8-18.7-12.7c-0.4-1-2.2-0.3-1.8,0.7c13.9,38,58.9-13.1,80.6,13.5
	C84.5,16.4,86.5,14.2,85.3,12.7z M86.2,2.6C85,1.2,82.8,3,83.7,4.5c3,4.6,8.8,11.6,3.8,16.9c-4.1,4.4-12.4,4.6-18,4.8
	c-1.5,0-1.5,2.3,0,2.3c6.9,0.1,16.5,0,21.2-5.9C95.9,16.5,90.5,7.4,86.2,2.6z"/>
</svg>
