<?xml version="1.0" encoding="utf-8"?>
<!-- Generator: Adobe Illustrator 23.0.3, SVG Export Plug-In . SVG Version: 6.00 Build 0)  -->
<svg version="1.1" id="Capa_1" xmlns="http://www.w3.org/2000/svg" xmlns:xlink="http://www.w3.org/1999/xlink" x="0px" y="0px"
	 viewBox="0 0 85.2 100.2" style="enable-background:new 0 0 85.2 100.2;" xml:space="preserve">
<style type="text/css">
	.st0{fill:#3E50B4;}
</style>
<path class="st0" d="M4.5,60.5c0,0,0,1.3-2.1,1.3c-1.8,0-1.8-0.9-1.8-0.9s-4.9-20.9,12.8-36c0,0,12.9-11.2,31.3-15V4.1
	c0,0-0.2-2.1,2.2-3.7c0,0,1.9-1.4,5.2,0.8s19.7,13.4,19.7,13.4S76,17,76,22s-3.1,6.9-3.6,7.3S52,44.3,52,44.3s-2.8,2.6-5.9,0.2
	c0,0-1.3-0.4-1.4-5.2v-3c0,0-10.2-1.9-21.6,1.9C11.8,41.9,5.4,53.4,4.5,60.5z M84.6,39.1c0,0,0-0.9-1.8-0.9c-2,0-2.1,1.3-2.1,1.3
	c-0.8,7.1-7.2,18.6-18.6,22.4c-11.4,3.8-21.6,1.8-21.6,1.8v-3c0-4.8-1.4-5.2-1.4-5.2c-3.1-2.4-5.9,0.2-5.9,0.2s-19.8,14.6-20.4,15
	C12.3,71.1,9.2,73,9.2,78s4.2,7.4,4.2,7.4s16.4,11.1,19.7,13.4s5.2,0.9,5.2,0.9c2.4-1.6,2.2-3.7,2.2-3.7v-5.8
	c18.4-3.8,31.3-15,31.3-15C89.5,60.1,84.6,39.1,84.6,39.1z"/>
</svg>
