<?xml version="1.0" encoding="utf-8"?>
<!-- Generator: Adobe Illustrator 23.0.3, SVG Export Plug-In . SVG Version: 6.00 Build 0)  -->
<svg version="1.1" id="Layer_1" xmlns="http://www.w3.org/2000/svg" xmlns:xlink="http://www.w3.org/1999/xlink" x="0px" y="0px"
	 viewBox="0 0 93.8 84.1" style="enable-background:new 0 0 93.8 84.1;" xml:space="preserve">
<style type="text/css">
	.st0{fill:#3E50B4;}
</style>
<path class="st0" d="M93.5,81.3c-5-8.3-10.4-16.5-15.4-24.8c-0.9-1.6-3.6-0.9-3.5,0.9c0,3.6,0.2,7.1,0.2,10.7
	c-2.5-2.7-3.1-5.8-3.6-9.6c-0.3-1.6-0.9-3.3-2.7-3.8c-2.7-0.7-5.7,1.9-7.7,3.3c-5.2,3.6-9.9,7.9-15.6,10.9c-6.6,3.3-6.8-1.4-5.3-6.6
	c1.4-5.5,3.9-11,6.8-15.9c5-8.5,10.9-17.3,12.3-27.2c0.8-5.5-2-13.8-9-13.5C41.5,6,31.8,12.3,26.3,18.6C23,21.7,5.1,45.3,3.4,31.8
	c-1.3-9.9,6.9-22,11.8-30.2c0.6-1.1-0.9-2.2-1.7-1.3C7.4,7.8,2.5,17.4,0.3,27c-1.2,5.3,0.6,14.8,8.1,12.8
	c8.8-2.4,14.6-12.3,20.3-18.9c3.5-4.2,9-7.4,13.7-9.9C52.5,5.7,57,13.5,54.5,22.6c-3.2,11.2-11.2,20.3-15.7,30.9
	c-1.6,3.8-7.2,16.4-1.1,19.5c7.1,3.6,16.5-5.3,21.5-9.3c-0.3,0.2,8-6.6,8.5-5.2s0.5,3.1,0.8,4.7c0.6,3,1.9,5.3,3.9,7.2
	c-3-0.2-6,0-9,0.5c-1.6,0.3-1.7,2.7-0.5,3.5c9,5,19,6.3,28.6,9.6C93,84.6,94.4,82.7,93.5,81.3z M76.5,73.3c0.9,0,1.3-0.8,1.1-1.4
	c0.5-0.3,0.8-0.8,0.8-1.4c0-2,0-4.2,0-6.3c3.1,5,6.3,9.9,9.4,14.9c-6-1.7-12.1-3-17.8-5.3C72.1,73.6,74.3,73.5,76.5,73.3z"/>
</svg>
