<?xml version="1.0" encoding="utf-8"?>
<!-- Generator: Adobe Illustrator 23.0.3, SVG Export Plug-In . SVG Version: 6.00 Build 0)  -->
<svg version="1.1" id="Layer_1" xmlns="http://www.w3.org/2000/svg" xmlns:xlink="http://www.w3.org/1999/xlink" x="0px" y="0px"
	 viewBox="0 0 61.4 96.8" style="enable-background:new 0 0 61.4 96.8;" xml:space="preserve">
<style type="text/css">
	.st0{fill:#3E50B4;}
</style>
<path class="st0" d="M60.8,58.6c-0.6-0.6-1.7-0.6-2.3,0L30.6,86.5L2.7,58.6C2.1,58,1,58,0.5,58.6c-0.6,0.6-0.6,1.7,0,2.3L29.6,90
	c0.3,0.3,0.7,0.5,1.1,0.5s0.8-0.2,1.1-0.5l29.1-29.1C61.5,60.2,61.5,59.2,60.8,58.6z M30.6,46.8c-0.9,0-1.6,0.7-1.6,1.6v40.4
	c0,0.9,0.7,1.6,1.6,1.6s1.6-0.7,1.6-1.6V48.4C32.2,47.5,31.6,46.8,30.6,46.8z M30.6,0C29.7,0,29,0.7,29,1.6v3.2
	c0,0.9,0.7,1.6,1.6,1.6s1.6-0.7,1.6-1.6V1.6C32.2,0.7,31.6,0,30.6,0z M30.6,28.1c-0.9,0-1.6,0.7-1.6,1.6v6.2c0,0.9,0.7,1.6,1.6,1.6
	s1.6-0.7,1.6-1.6v-6.2C32.2,28.8,31.6,28.1,30.6,28.1z M30.6,12.5c-0.9,0-1.6,0.7-1.6,1.6v6.2c0,0.9,0.7,1.6,1.6,1.6
	s1.6-0.7,1.6-1.6v-6.2C32.2,13.3,31.6,12.5,30.6,12.5z M30.6,43.6c-0.9,0-1.6,0.7-1.6,1.6v3.2c0,0.9,0.7,1.6,1.6,1.6
	s1.6-0.7,1.6-1.6v-3.2C32.2,44.3,31.6,43.6,30.6,43.6z M59.7,93.6H1.6c-0.9,0-1.6,0.7-1.6,1.6s0.7,1.6,1.6,1.6h58.1
	c0.9,0,1.6-0.7,1.6-1.6S60.6,93.6,59.7,93.6z"/>
</svg>
