<?xml version="1.0" encoding="utf-8"?>
<!-- Generator: Adobe Illustrator 23.0.3, SVG Export Plug-In . SVG Version: 6.00 Build 0)  -->
<svg version="1.1" id="Layer_1" xmlns="http://www.w3.org/2000/svg" xmlns:xlink="http://www.w3.org/1999/xlink" x="0px" y="0px"
	 viewBox="0 0 69.8 95" style="enable-background:new 0 0 69.8 95;" xml:space="preserve">
<style type="text/css">
	.st0{fill:#3E50B4;}
</style>
<path class="st0" d="M68.9,28.5c-3-5.6-6.4-11.2-9.8-16.5c-1.7-2.6-4.2-7.3-7.3-9.6c0.2-0.3,0-0.6-0.2-0.9c-1.1-1.6-3.3-1.4-5.1-1.4
	c-2.6-0.2-5.3,0-7.9,0.3c-0.8,0.2-1.1,0.8-0.9,1.4c-5.8,7.6-11.3,15.7-15.4,24.4c-0.3,0.6-0.2,1.1,0.2,1.6c1.2,2,3.6,3.4,4.5,5.4
	c0.3,0.9,1.1,1.4,2,1.1c1.7-0.3,4.2-0.3,6.4-0.9c0.3,8.6,1.2,16.9,0.8,25.5c-0.3,4.7-1.6,13.1-5.8,16.9c-1.1-0.6-2.3-1.1-3.4-2
	c-1.7-1.4-1.9-3.7-2-5.8c0-0.9-0.6-1.6-1.6-1.6c-1.6,0-3-0.6-4.4-0.9c-0.8-0.2-1.6-0.5-2.3-0.6l0,0c0.2-0.9-0.5-1.9-1.6-1.9
	c-3.9,0.2-7.9,0.2-11.8,0.5c-0.6,0-0.9,0.5-1.1,0.8c-0.8-0.3-1.9,0.2-2,1.2c-2,16.6,14.1,31.9,29.7,28.6
	c10.9,4.4,20.5-8.4,23.9-17.4c2.8-7.6,3.4-16,4-23.9c0.3-6.1,1.2-13.2,0.5-19.4c3.6,0,7-0.8,10.4-1.6C70.3,31.3,70.1,29.1,68.9,28.5
	z M35.1,29.6c-0.6,0.2-1.4,0.3-2,0.5c-1.4,0.2-2.8,0.3-4.2,0.8c-0.8-0.8-1.6-1.6-2.3-2.2c1.4-0.2,3-0.5,4-0.6
	c1.4-0.2,3.3-0.3,4.5-0.9C35.1,27.7,35.1,28.7,35.1,29.6z M21.9,69.4c0.3,3.4,2,6.7,5,8.4C26.6,78,26.3,78,25.8,78
	c-5,0.6-8.1-5.8-9.3-10.4C18,68.6,20.2,69.1,21.9,69.4z M18.3,89.6C8,86.5,3.2,75.6,2.8,65.7c0.2,0,0.2,0,0.3,0
	c3.6,0.5,7.3,0.5,10.9,0.5c0.9,10,10,21.1,19.3,11.2c5-5.4,6.1-14,6.4-21c0.6-10.1-0.3-20.7-1.1-30.8c-0.2-1.4-1.6-1.9-2.5-1.4
	c-1.7-1.4-4.5-0.5-6.5-0.2c-0.9,0.2-2.2,0.2-3.3,0.3c4-6.8,8.6-13.4,13.4-19.7c3.3,3.3,6.1,6.8,8.9,10.6c2,2.8,3.6,6.2,5.9,8.9
	c-1.9,0-3.7,0.2-5.6,0.3c-0.8-0.5-1.7-0.3-2.2,0.3c-0.8,0.3-0.9,1.4-0.3,2c0.9,16.5,3.3,34.2-2.2,50.1
	C40.4,87.3,28.9,92.9,18.3,89.6z M57.5,30.1c-0.6-0.9-2.3-0.9-2.6,0.3c-1.1,5-0.3,10.7-0.5,15.9c-0.2,7.5-0.8,14.8-2.2,22.1
	C51,74.6,48.9,81,44.9,86c-2.3,2.8-4.8,3.9-7.6,4.7c0.3-0.2,0.5-0.3,0.8-0.6c17.7-13.8,12.7-42.8,11.3-62.7c1.6,0.2,3.3,0.2,4.8,0.2
	c1.4,0,4.7,0.6,4.7-1.7c0-0.9-0.6-1.4-1.6-1.6c0-0.2,0-0.3,0-0.5c-0.6-3.7-4-7.3-6.2-10.1c-2.8-3.7-5.8-7.6-9-10.9
	C43,2.8,44,3,44.7,3s1.9,0.3,2.8,0.6c0.8,1.2,1.9,2.3,2.8,3.6c2.2,2.6,4.2,5.4,6.1,8.4c3.1,4.4,6.1,9,9.7,13.2
	C63.6,29.3,60.6,29.9,57.5,30.1z"/>
</svg>
