<?xml version="1.0" encoding="utf-8"?>
<!-- Generator: Adobe Illustrator 23.0.3, SVG Export Plug-In . SVG Version: 6.00 Build 0)  -->
<svg version="1.1" id="Layer_1" xmlns="http://www.w3.org/2000/svg" xmlns:xlink="http://www.w3.org/1999/xlink" x="0px" y="0px"
	 viewBox="0 0 91 88.1" style="enable-background:new 0 0 91 88.1;" xml:space="preserve">
<style type="text/css">
	.st0{fill:#3E50B4;}
</style>
<path class="st0" d="M90.4,22.2L74.5,7.9H40.9V1.6c0-0.9-0.7-1.6-1.6-1.6c-0.9,0-1.6,0.7-1.6,1.6v6.3H0v31.4h37.7v47.2
	c0,0.9,0.7,1.6,1.6,1.6c0.9,0,1.6-0.7,1.6-1.6V39.4h33.6l15.9-14.3c0.4-0.4,0.6-0.9,0.6-1.5S90.8,22.6,90.4,22.2z M73.3,36.2H3.1
	V11.1h70.1l14,12.6L73.3,36.2z"/>
</svg>
