<?xml version="1.0" encoding="utf-8"?>
<!-- Generator: Adobe Illustrator 23.0.3, SVG Export Plug-In . SVG Version: 6.00 Build 0)  -->
<svg version="1.1" id="Layer_1" xmlns="http://www.w3.org/2000/svg" xmlns:xlink="http://www.w3.org/1999/xlink" x="0px" y="0px"
	 viewBox="0 0 89.1 58" style="enable-background:new 0 0 89.1 58;" xml:space="preserve">
<style type="text/css">
	.st0{fill:#3E50B4;}
</style>
<path class="st0" d="M89.1,11.5L77.6,0v8.6H62c-11.2,0-20.4,9.1-20.4,20.4c0,8.1-6.6,14.6-14.6,14.6H11.5V35L0,46.5L11.5,58v-8.6H27
	c11.2,0,20.4-9.1,20.4-20.4c0-8.1,6.6-14.6,14.6-14.6h15.5V23L89.1,11.5z M89.1,46.5L77.6,35v8.6H62c-8.1,0-14.6-6.6-14.6-14.6
	c0-11.2-9.1-20.4-20.4-20.4H11.5V0L0,11.5L11.5,23v-8.6H27c8.1,0,14.6,6.6,14.6,14.6c0,11.2,9.1,20.4,20.4,20.4h15.5V58L89.1,46.5z"
	/>
</svg>
