<?xml version="1.0" encoding="utf-8"?>
<!-- Generator: Adobe Illustrator 23.0.3, SVG Export Plug-In . SVG Version: 6.00 Build 0)  -->
<svg version="1.1" id="Layer_1" xmlns="http://www.w3.org/2000/svg" xmlns:xlink="http://www.w3.org/1999/xlink" x="0px" y="0px"
	 viewBox="0 0 83.1 82.9" style="enable-background:new 0 0 83.1 82.9;" xml:space="preserve">
<style type="text/css">
	.st0{fill:#3E50B4;}
</style>
<path class="st0" d="M82.2,70.2L65.7,53.7l11.8-6.8c0.9-0.5,1.5-1.5,1.4-2.6s-0.8-2-1.7-2.4l-52.5-21c-1-0.4-2.2-0.2-3,0.6
	c-0.8,0.8-1,2-0.6,3l21,52.6c0.4,1,1.3,1.7,2.4,1.7c1.1,0.1,2.1-0.5,2.6-1.4l6.8-11.8l16.5,16.5c0.5,0.5,1.2,0.8,2,0.8
	s1.4-0.3,2-0.8l8.1-8.1C83.3,73,83.3,71.3,82.2,70.2z M72.2,76.3L55.1,59.2c-0.5-0.5-1.2-0.8-2-0.8c-0.1,0-0.2,0-0.4,0
	c-0.9,0.1-1.6,0.6-2,1.4l-5.8,10L28.5,28.5l41.2,16.4l-10,5.8c-0.7,0.4-1.3,1.2-1.4,2c-0.1,0.9,0.2,1.7,0.8,2.3l17.1,17.1L72.2,76.3
	z M12.2,8.3c-1.1-1.1-2.8-1.1-3.9,0s-1.1,2.8,0,3.9l6.2,6.2c0.5,0.5,1.3,0.8,2,0.8s1.4-0.3,2-0.8c1.1-1.1,1.1-2.8,0-3.9L12.2,8.3z
	 M14.3,27.5c0-1.5-1.2-2.8-2.8-2.8H2.8c-1.5,0-2.8,1.2-2.8,2.8c0,1.5,1.2,2.8,2.8,2.8h8.7C13,30.2,14.3,29,14.3,27.5z M13.2,36
	L7,42.2c-1.1,1.1-1.1,2.8,0,3.9c0.5,0.5,1.3,0.8,2,0.8s1.4-0.3,2-0.8l6.2-6.2c1.1-1.1,1.1-2.8,0-3.9C16,34.9,14.2,34.9,13.2,36z
	 M27.5,14.3c1.5,0,2.8-1.2,2.8-2.8V2.8C30.2,1.2,29,0,27.5,0s-2.8,1.2-2.8,2.8v8.7C24.7,13,25.9,14.3,27.5,14.3z M38,17.9
	c0.7,0,1.4-0.3,2-0.8l6.2-6.2c1.1-1.1,1.1-2.8,0-3.9s-2.8-1.1-3.9,0L36,13.2c-1.1,1.1-1.1,2.8,0,3.9C36.6,17.6,37.3,17.9,38,17.9z"
	/>
</svg>
