<?xml version="1.0" encoding="utf-8"?>
<!-- Generator: Adobe Illustrator 23.0.3, SVG Export Plug-In . SVG Version: 6.00 Build 0)  -->
<svg version="1.1" id="Capa_1" xmlns="http://www.w3.org/2000/svg" xmlns:xlink="http://www.w3.org/1999/xlink" x="0px" y="0px"
	 viewBox="0 0 84.4 100" style="enable-background:new 0 0 84.4 100;" xml:space="preserve">
<style type="text/css">
	.st0{fill:#3E50B4;}
</style>
<path class="st0" d="M29.7,93.2c-8.4,0.5-16.9,0.2-25.3,0.2c-0.9,0-1.9-0.6-2.1-1.6c-3-12.8-2.4-26.2-1.6-39.3
	c0.8-11.2,0.5-23.2,2.7-34.3C6.9,2.1,20.3,2.7,34,3.6C35.6,3.8,35.6,6,34,6c-6.3,0.5-18-0.8-22.7,4.4c-6,6.5-4.6,18.8-5.2,26.8
	c-1,12.7-2.2,25.6-1.6,38.3c0.2,3.6,0.5,7.4,1.1,11.1c0.6,3.2,1.3,2.7,4.6,2.7c6.5,0,13.1-0.2,19.6,0.2C32.1,89.5,32.1,93,29.7,93.2
	z M81.2,11.2c0-0.8-0.6-1.7-1.4-1.9C71.6,7.4,63.4,7.1,55,8.2c-2.5,0.3-2.5,4.3,0,3.9c4.4-0.6,8.7-0.8,13.1-0.6
	c1.9,0,9.2-0.3,9.2,2.1c0,2.5,0.2,4.9,0.3,7.3c0.5,9.6,1.4,19.3,2.2,28.9c0.6,9.5,0.9,19.1,0.3,28.6c-0.2,3-0.6,6-1.1,9
	c-0.3,1.7-5.4,0.9-6.3,0.9c-5.2,0-10.4-0.2-15.5-0.6c-1.4-0.2-1.7,2.4-0.3,2.5c7.7,1.3,15.6,1.6,23.5,1.6c0.8,0,1.6-0.6,1.7-1.4
	C87.7,64.4,81.5,37.6,81.2,11.2z M53.6,16.1c-3.3-2.2-6.3-4.9-9.2-7.7c2.2-1.1,4.4-2.1,6.8-2.8c2.5-0.9,5.2-1.3,7.7-2.4
	c2-0.8,1-3.2-0.6-3.2c-5.8-0.2-12.9,3.5-17.8,6.3c-1.1,0.6-1.3,2.2-0.5,3c3.6,3.5,7.6,7.4,12.2,9.3C53.9,19.4,55.2,17.2,53.6,16.1z
	 M35.1,78.9c-2.2-1.4-4.3,2.1-2.1,3.5c4.3,2.7,7.7,5.8,10.9,9.6c-2.7,2.2-6.2,3.9-9.3,5.1c-1.7,0.6-1.1,3.3,0.8,2.8
	c4.6-1.1,7.9-4.3,12.2-6c0.9-0.5,1.4-1.9,0.8-2.7C44.6,86.4,40.3,82.3,35.1,78.9z"/>
</svg>
