<?xml version="1.0" encoding="utf-8"?>
<!-- Generator: Adobe Illustrator 23.0.3, SVG Export Plug-In . SVG Version: 6.00 Build 0)  -->
<svg version="1.1" id="Capa_1" xmlns="http://www.w3.org/2000/svg" xmlns:xlink="http://www.w3.org/1999/xlink" x="0px" y="0px"
	 viewBox="0 0 72.7 100" style="enable-background:new 0 0 72.7 100;" xml:space="preserve">
<style type="text/css">
	.st0{fill:#3E50B4;}
</style>
<path class="st0" d="M1.3,39.6c-0.9-0.9-1.3-2-1.3-3.2s0.5-2.3,1.3-3.2L33.2,1.3c0.9-0.9,2-1.3,3.2-1.3s2.3,0.5,3.2,1.3l31.8,31.8
	c0.9,0.9,1.3,2,1.3,3.2s-0.5,2.3-1.3,3.2c-0.9,0.9-2,1.3-3.2,1.3H4.5C3.3,40.9,2.3,40.5,1.3,39.6z M68.2,59.1H4.5
	c-1.2,0-2.3,0.5-3.2,1.3c-0.9,0.9-1.3,2-1.3,3.2c0,1.2,0.5,2.3,1.3,3.2l31.8,31.8c0.9,0.9,2,1.4,3.2,1.4s2.3-0.5,3.2-1.4l31.8-31.8
	c0.9-0.9,1.4-2,1.4-3.2s-0.5-2.3-1.4-3.2C70.5,59.5,69.4,59.1,68.2,59.1z"/>
</svg>
