<?xml version="1.0" encoding="utf-8"?>
<!-- Generator: Adobe Illustrator 23.0.3, SVG Export Plug-In . SVG Version: 6.00 Build 0)  -->
<svg version="1.1" id="Layer_1" xmlns="http://www.w3.org/2000/svg" xmlns:xlink="http://www.w3.org/1999/xlink" x="0px" y="0px"
	 viewBox="0 0 97 83.1" style="enable-background:new 0 0 97 83.1;" xml:space="preserve">
<style type="text/css">
	.st0{fill:#3E50B4;}
</style>
<path class="st0" d="M40.8,10.7C27.8,8.2,15.7,2.7,2.9,0C1.6-0.1-0.2,0.8,0,2.2c1.6,13.7,6.4,26.7,11.6,39.5
	c0.5,1.4,2.7,1.1,2.5-0.4c4.4-2.5,6.2-11.6,6.8-16.9c8-1.4,14.8-4.3,20.8-9.8C42.9,13.4,42.4,11.1,40.8,10.7z M16.6,22.5
	c-0.2,4.8-2.7,8.9-4.1,13.2c-3.2-10-6.2-19.9-7.7-30.4c10.3,2.5,20.1,6.4,30.4,9.1c-5,3.4-10.7,5.2-16.9,6.2
	C17.1,20.4,16.6,21.4,16.6,22.5z M68.7,32.1c-11.9,0-23.7,0-35.6,0c-1.8,0-2.7,2-2,3.4c4.7,10.3,9.5,20.6,13.8,31.3
	c0.5,1.2,2,1.1,2.5,0.2c0.5,1.1,2.5,0.9,2.5-0.5c0.4-6.1,0.2-12.5,3.4-17.8c3.2-5.2,11.2-7.8,16.6-10.1c1.2-0.5,1.2-1.8,0.7-2.7
	C71.4,34.4,70.8,32.1,68.7,32.1z M49.7,46.5c-3.6,5-2.8,12.6-2.5,18.7c-2.7-9.8-6.6-19.2-10.7-28.5c9.1,0,18.2,0,27.2,0
	C58.4,38.9,53,41.7,49.7,46.5z M94.7,51c-11.4-0.2-22.6-0.9-33.8,1.2c-1.6,0.4-2.1,2.3-1.4,3.6c5,8.5,9.4,17.4,14.9,25.8
	c0.4,0.5,0.9,0.7,1.4,0.7c0.4,1.2,2.7,1.1,2.5-0.4c-0.5-3.9,0.4-7.7,1.1-11.4c0.7-3.9,0.7-3.6,4.1-5.5c3.7-2.1,9.1-5.5,11.9-9.3
	C97.7,54.9,97.5,51,94.7,51z M77.1,63.2C76.4,63.6,76,64.3,76,65c0.2,3.6-0.5,7.3-0.7,10.9c-3.2-6.6-6.6-13.3-10.1-19.8
	C73,54.9,81,55.2,89,55.4c-0.4,0.4-0.9,0.7-1.2,1.1C84.5,59.3,81,61.6,77.1,63.2z"/>
</svg>
