<?xml version="1.0" encoding="utf-8"?>
<!-- Generator: Adobe Illustrator 23.0.3, SVG Export Plug-In . SVG Version: 6.00 Build 0)  -->
<svg version="1.1" id="Layer_1" xmlns="http://www.w3.org/2000/svg" xmlns:xlink="http://www.w3.org/1999/xlink" x="0px" y="0px"
	 viewBox="0 0 80.6 94.5" style="enable-background:new 0 0 80.6 94.5;" xml:space="preserve">
<style type="text/css">
	.st0{fill:#3E50B4;}
</style>
<path class="st0" d="M67.3,77.7V65.9c0-18.6-15.1-33.7-33.7-33.7C15.1,32.2,0,47.3,0,65.8h7c0-14.7,11.9-26.6,26.6-26.6
	s26.6,11.9,26.6,26.6v11.8H46.9l16.9,16.9l16.8-16.8L67.3,77.7L67.3,77.7z M80.6,16.9L63.8,0L46.9,16.9h13.4v11.8
	c0,14.7-12,26.6-26.7,26.6S7,43.4,7,28.7H0c0,18.5,15.1,33.6,33.6,33.6s33.6-15.1,33.6-33.6V16.9H80.6z"/>
</svg>
