<?xml version="1.0" encoding="utf-8"?>
<!-- Generator: Adobe Illustrator 23.0.3, SVG Export Plug-In . SVG Version: 6.00 Build 0)  -->
<svg version="1.1" id="Layer_1" xmlns="http://www.w3.org/2000/svg" xmlns:xlink="http://www.w3.org/1999/xlink" x="0px" y="0px"
	 viewBox="0 0 92.2 14.7" style="enable-background:new 0 0 92.2 14.7;" xml:space="preserve">
<style type="text/css">
	.st0{fill:#3E50B4;}
</style>
<path class="st0" d="M91.7,6.5l-5.1-5.1c-0.5-0.5-1.3-0.7-2-0.4s-1.1,0.9-1.1,1.7v4h-11V6.6l0,0V5.7c0-0.1,0-0.1,0-0.1V5.5l0,0
	c-0.1-3-2.6-5.5-5.7-5.5s-5.7,2.6-5.7,5.7v2.1c0,1.8-1.5,3.3-3.3,3.3s-3.3-1.5-3.3-3.3V5.7c0-3.1-2.6-5.7-5.7-5.7
	c-3.1,0-5.7,2.6-5.7,5.7v2.1c0,1.8-1.5,3.3-3.3,3.3s-3.3-1.5-3.3-3.3V5.7c0-3.1-2.6-5.7-5.7-5.7s-5.7,2.6-5.7,5.7v2.1
	c0,1.8-1.5,3.3-3.3,3.3s-3.3-1.5-3.3-3.3V5.5c0-0.3-0.1-0.6-0.4-0.9c-0.2-0.2-0.5-0.4-0.8-0.4l0,0L1.2,4.4C0.5,4.4,0,4.9,0,5.6
	s0.5,1.2,1.2,1.2l0,0l15-0.1v1.1c0,3.1,2.6,5.7,5.7,5.7s5.7-2.6,5.7-5.7V5.7c0-1.8,1.5-3.3,3.3-3.3s3.3,1.5,3.3,3.3v2.1
	c0,3.1,2.6,5.7,5.7,5.7c3.1,0,5.7-2.6,5.7-5.7V5.7c0-1.8,1.5-3.3,3.3-3.3s3.3,1.5,3.3,3.3v2.1c0,3.1,2.6,5.7,5.7,5.7
	c3.1,0,5.7-2.6,5.7-5.7V5.7c0-1.8,1.5-3.3,3.3-3.3s3.2,1.4,3.3,3.1v2.3c0,0.3,0.1,0.6,0.4,0.9c0.2,0.2,0.5,0.4,0.8,0.4l0,0h12.2V13
	c0,0.7,0.4,1.4,1.1,1.7c0.2,0,0.4,0,0.6,0c0.5,0,0.9-0.2,1.3-0.5l5.1-5.1c0.3-0.3,0.5-0.8,0.5-1.3C92.3,7.3,92.1,6.8,91.7,6.5z"/>
</svg>
