<?xml version="1.0" encoding="utf-8"?>
<!-- Generator: Adobe Illustrator 23.0.3, SVG Export Plug-In . SVG Version: 6.00 Build 0)  -->
<svg version="1.1" id="Capa_1" xmlns="http://www.w3.org/2000/svg" xmlns:xlink="http://www.w3.org/1999/xlink" x="0px" y="0px"
	 viewBox="0 0 79.4 100" style="enable-background:new 0 0 79.4 100;" xml:space="preserve">
<style type="text/css">
	.st0{fill:#3E50B4;}
</style>
<path class="st0" d="M79,23.5C65.2,16.1,52,7.6,38.3,0.1c-0.4-0.2-0.9-0.1-1.1,0.3c-2.2,4.2-3.8,8.5-5.2,13
	c-0.1-0.2-0.3-0.4-0.4-0.6c-0.2-0.3-0.6,0-0.4,0.2c0.2,0.4,0.4,0.7,0.6,1.1c-0.8,2.5-1.5,5-2.1,7.5c-0.1-0.1-0.2-0.3-0.3-0.4
	c-0.1-0.3-0.6,0-0.4,0.2c0.2,0.3,0.3,0.6,0.5,0.9c-0.2,0.9-0.5,1.9-0.7,2.8c-0.1,0.1-0.2,0.2-0.1,0.3l0,0c-0.3,1.2-0.6,2.4-1,3.7
	c-0.5,1.9-1,3.8-1.6,5.7L26,34.7l0,0c-0.1-0.1-0.4,0-0.3,0.2c0.1,0.1,0.2,0.2,0.2,0.4c-1.8,6.3-3.7,12.7-5.1,19.1
	c-0.2-0.1-0.5,0.1-0.3,0.3c0.1,0.1,0.1,0.2,0.2,0.4c-0.2,0.9-0.4,1.8-0.5,2.7c0,0.1-0.1,0.1,0,0.2l0,0c-0.3,1.5-0.5,3-0.7,4.6
	c-0.2-0.2-0.5,0-0.3,0.2c0.1,0.1,0.2,0.3,0.2,0.4c0,0.1,0,0.2,0,0.3c-6.1-2.4-12.5-3.4-19-3.9c-0.4,0-0.5,0.5-0.4,0.7
	c0,0.1,0,0.2,0,0.3c6,13.2,12.8,26,19.1,39c0.2,0.3,0.6,0.4,0.9,0.4c4-0.8,7.8-2.1,11.5-3.5c0.1,0,0.1,0,0.2-0.1
	c2.1-0.8,4.1-1.7,6.1-2.6c0.1,0,0.1,0.1,0.1,0.1c0.2,0.1,0.5-0.1,0.3-0.3c0.5-0.2,1-0.5,1.5-0.7c0.2,0.1,0.3,0,0.4-0.2
	c0.7-0.3,1.4-0.7,2.1-1l0.1,0.1c0.2,0.1,0.4-0.1,0.4-0.3c2.2-1.1,4.3-2.2,6.4-3.3h0.1c1.4-0.7,2.7-1.4,4.1-2.1l0,0
	c0.9-0.5,1.8-0.9,2.7-1.4c0.3-0.2,0.4-0.4,0.4-0.7c0.1-0.1,0.1-0.2,0.1-0.4c-0.2-3.1-0.5-6.3-1.2-9.4c-0.1-0.3-0.3-0.5-0.6-0.6
	c-1.2-0.4-2.3-1-3.5-1.6c-0.3-0.2-0.6-0.4-0.9-0.5c0.2-0.2,0.4-0.4,0.5-0.6l0.1,0.1c0.2,0.2,0.7-0.1,0.5-0.4c0-0.1-0.1-0.1-0.1-0.2
	c6.7-8.1,14.5-15.1,21.4-23.1c6.5-7.5,6.5-12.8,6.2-22.2C79.4,24.9,79.7,23.9,79,23.5z M76.9,24.3c0.1,1.6,0.2,3.3,0.3,4.9
	c-0.7-2.1-1.8-4.2-2.8-6.2C75.2,23.4,76.1,23.9,76.9,24.3z M51,9.3c2.3,1.4,4.6,2.8,6.9,4.1c5.7,6.7,8.8,14.8,13,22.3h-0.1
	c-0.6-0.3-1.2-0.5-1.8-0.8c-0.9-1.7-2.4-3.4-3.3-5c-2-3.3-3.9-6.8-6-10.1c-1.2-2-5.1-10.2-8.3-9.6v0.1c3-0.3,8.4,11.9,9.5,13.9
	c1.6,2.9,3.3,5.8,5,8.6c0.2,0.3,0.4,0.7,0.6,1.1c-0.7-0.3-1.4-0.6-2-0.8c0.2-0.4-0.3-0.7-0.6-0.4c0.6-0.4-13.6-20.8-17.1-26.1
	C48.8,7.8,50.5,9,51,9.3z M41.4,70.8c0.1,0.1,0.2,0.2,0.2,0.3c-1.7,2.4-3.3,4.9-4.8,7.5c-0.7,0.3-0.8,1.5,0.1,1.7
	c2.1,0.5,4.1,1.1,6.2,1.6c6.9,2,2.4,2.5-0.9,3.8c-3.9,1.5-7.9,2.7-11.7,4.4c-5.5,2.4-5.7,2.1-8.1-3.3c-1.8-4.1-3.8-8.1-6-12.1
	c0-0.1,0-0.2,0-0.3c-0.4-0.7-0.8-1.4-1.2-2.1c1.7,0.8,3.4,1.5,5.1,2.3c1,0.5,2,0.9,3,1.4c0.3,0.1,1.7,0.7,1.5,0.5
	c0.4,0.5,1.3,0,1.1-0.6c-0.1-0.3-0.3-0.6-0.6-0.9c6-16.7,9.7-34.2,15.7-50.9c8.7,6,19.2,8.5,28.7,13c-9.4,11-19.4,21.7-27.6,33.5
	c-0.1-0.1-0.1-0.2-0.2-0.2C41.5,70.3,41.2,70.6,41.4,70.8z M39.1,77.4c0.2,0.6,0.4,1.2,0.8,1.8c-0.6-0.2-1.2-0.3-1.8-0.5
	C38.4,78.3,38.8,77.9,39.1,77.4z M46,6c3.4,7.2,8.4,13.6,12.6,20.3c0.8,1.3,1.9,4,3.2,5.7h-0.1c-7.9-8-14.8-17.4-19.1-27.8
	C43.7,4.7,44.9,5.4,46,6z M41.8,3.9c1.8,5.7,5,11.1,8.3,16.1c0.7,1.1,1.5,2.2,2.3,3.3c-4.9-6.3-10-12.5-12.7-20.1
	C40.4,3.3,41.1,3.6,41.8,3.9z M37.1,4.1c0.3-0.8,1.1-1,2-1c1.3,5.2,4.4,9.9,7.4,14.3c2.9,4.3,6.1,8.8,9.8,12.5
	c-1-0.4-2.1-0.8-3.1-1.2C47.8,20.5,42,12.7,37.1,4.1L37.1,4.1z M36.9,4.7c3.8,8,8.4,16.4,14.2,23.2c-1-0.4-2-0.8-3-1.2
	c-4-6.5-9.2-12.2-12.4-19.2C36.1,6.6,36.5,5.6,36.9,4.7z M35.4,8.3c2.7,6.4,7.1,11.9,11.1,17.7c-0.7-0.3-1.4-0.6-2-1
	c-3.7-4.5-6.5-9.5-10.1-14C34.8,10.1,35.1,9.2,35.4,8.3z M34.2,11.8c2.4,3.5,4.5,7.1,7,10.5c-0.3-0.4-1.2-0.5-1.5,0.2
	c-0.2,0.4-0.3,0.8-0.4,1.3c-1.9-3-4.1-5.8-6.2-8.8C33.4,13.9,33.8,12.9,34.2,11.8z M32.7,16.5c0-0.2,0.1-0.3,0.1-0.5
	c1.8,3.1,3.8,6.2,6.1,8.9c-0.1,0.4-0.3,0.8-0.4,1.3c-0.1,0-0.2,0-0.3,0c-0.5-0.9-1-1.8-1.9-2.7c-1.6-1.7-2.7-3.8-4-5.7
	C32.4,17.3,32.6,16.9,32.7,16.5z M31.3,21.4c1.2,1.8,2.2,3.8,3.4,5.7c0.2,0.3,2.1,3,2.4,1.3c0.1-0.4-0.5-0.6-0.6-0.2
	c0-0.1-0.8-1-1-1.2c-0.5-0.7-1-1.4-1.4-2.2c-0.8-1.3-1.6-2.7-2.5-4h-0.1c0.2-0.8,0.5-1.7,0.7-2.5c1,1.7,2,3.5,3.2,5.2
	c0.6,0.9,1.4,1.7,1.9,2.7c0.2,0.5,0.4,1,0.7,1.4c-0.5,1.4-1,2.8-1.4,4.2c0,0-0.1,0-0.1,0.1c0,0,0,0,0,0.1l0,0
	c-0.1-0.1-0.1-0.2-0.3-0.4c-0.2-0.3-0.4-0.6-0.5-0.9c-0.6-1-1.3-1.8-2-2.8c-1-1.5-2-2.9-2.9-4.4C30.9,22.8,31.1,22.1,31.3,21.4z
	 M29.6,27.4c0.8,1.5,1.7,3,2.7,4.4c0.3,0.4,1.9,3.1,2.6,2c0.2-0.3-0.3-0.6-0.5-0.4c0.2-0.2,0.2,0-0.1-0.4c-0.2-0.3-0.4-0.5-0.6-0.7
	c-0.6-0.8-1.2-1.6-1.7-2.4c-0.7-1.1-1.5-2.2-2.1-3.3c0.2-0.8,0.4-1.6,0.7-2.4c1.5,2.5,3.1,4.8,4.6,7.3c0.3,0.4,0.7,1,1,1.3
	c-0.4,1.3-0.8,2.5-1.2,3.8v-0.1c-0.8-1.3-1.9-2.4-2.9-3.6c-0.9-1.2-1.9-2.4-3-3.5C29.3,28.7,29.5,28.1,29.6,27.4z M29,29.9
	c0.9,1.2,1.8,2.4,2.7,3.7c0.8,1.1,1.7,2.6,2.8,3.4c0.1,0.1,0.3,0.1,0.4,0c-0.3,1-0.6,2-0.9,2.9c-2.2-2.2-4-4.7-5.7-7.3
	C28.5,31.6,28.7,30.8,29,29.9z M27,36.9c0.6,0.8,1.2,1.6,1.9,2.5c1,1.3,2,2.8,3.3,3.8c0.3,0.3,0.9-0.1,0.6-0.5
	c-0.9-1.2-2.1-2.3-3.1-3.5c-0.8-1-1.7-2-2.5-3c0.3-0.9,0.5-1.8,0.8-2.8c0.9,1.5,1.8,3,2.8,4.4c0.6,0.8,1.7,2.7,2.9,2.8
	c-0.5,1.8-1.1,3.5-1.6,5.3c-0.1,0-0.3,0.1-0.3,0.3c0,0.1,0,0.3,0,0.4c-0.9-1.4-1.9-2.8-2.9-4.1c-0.8-1.1-1.8-2.2-2.5-3.3
	C26.6,38.4,26.8,37.7,27,36.9z M26.3,39.6c1.4,2.8,3.2,5.4,5.1,7.9c0.1,0.1,0.1,0.1,0.2,0.2c-0.1,0.5-0.3,1-0.4,1.5
	c-0.7-0.9-2.4-2.9-2.7-3.2c-1-1.3-1.9-2.7-2.8-4C25.8,41.2,26.1,40.4,26.3,39.6z M25.4,42.8c1.3,2,2.5,3.9,4,5.8
	c0.2,0.2,0.8,1.1,1.5,1.5c-0.2,0.9-0.5,1.7-0.7,2.6c-1.1-1.4-2.2-2.7-3.1-4.2c-0.7-1-1.3-2.4-2.2-3.4C25,44.4,25.2,43.6,25.4,42.8z
	 M24.5,46.1c0.7,1.3,1.6,2.5,2.4,3.7c0.8,1.3,1.7,2.8,3,3.8c-0.2,0.7-0.4,1.5-0.6,2.2c-0.9-1-1.9-2-2.7-3.1
	c-0.9-1.3-1.8-2.6-2.7-3.9C24,47.9,24.3,47,24.5,46.1z M23.6,49.6c0.8,1.3,1.7,2.6,2.6,3.9c0.8,1.1,1.7,2.4,2.8,3.3
	c-0.3,0.9-0.5,1.8-0.8,2.7c-0.8-1.1-1.7-2.2-2.5-3.4c-0.9-1.4-1.8-2.8-2.7-4.2C23.2,51.2,23.4,50.4,23.6,49.6z M22.8,52.8
	c0.7,1.3,1.5,2.5,2.2,3.8c0.8,1.3,1.7,2.8,2.9,3.8c-0.3,1.1-0.6,2.2-0.9,3.3c-0.8-1.6-2-3-3-4.5c-0.7-1-1.3-2.1-2-3.1
	C22.2,55,22.5,53.9,22.8,52.8z M21.8,56.9c0.5,0.9,1.1,1.7,1.6,2.6c1,1.6,2,3.4,3.3,4.8h0.1c-0.2,0.8-0.4,1.6-0.6,2.3
	c-1.5-2.6-3.5-4.9-4.9-7.5C21.4,58.4,21.6,57.7,21.8,56.9z M21.1,60.1c0.7,1.3,1.4,2.5,2.2,3.8c0.8,1.3,1.6,2.8,2.6,4
	c-0.3,1.3-0.7,2.5-1,3.8c-0.7-1.3-1.6-2.5-2.3-3.8c-0.7-1.3-1.5-2.6-2.3-3.9C20.6,62.7,20.8,61.4,21.1,60.1z M14.1,63.4
	c2,2.9,3.3,6.4,5.7,8.9c0.2,0.3,0.6-0.1,0.5-0.4c-1.6-2.8-3.4-5.7-5.3-8.3c1.4,0.4,2.9,0.9,4.3,1.5c0.1,0.1,0.3,0.2,0.5,0.1l0,0
	c0.1,0,0.1,0,0.2-0.1s0.2-0.2,0.3-0.3c1.3,2.6,2.6,5.5,4.4,7.6c-0.1,0.5-0.3,1-0.4,1.4c-1-1.6-2.2-3.2-3.3-4.8
	c-1.1-1.7-2.3-3.2-3.8-4.5c-0.2-0.2-0.5,0.1-0.3,0.3c1.7,1.7,2.9,3.6,4.1,5.6c0.7,1.1,1.3,2.3,2.2,3.4c-0.5-0.2-1-0.4-1.3-0.6
	c-1.6-0.7-3.2-1.5-4.9-2.2l0,0c-0.7-1.3-1.7-2.4-2.5-3.7c-0.9-1.5-1.7-3.1-2.4-4.6l0,0C12.8,63,13.4,63.2,14.1,63.4z M11.9,62.8
	c-0.1,0-0.2,0.1-0.1,0.2c0.8,2.6,2,5.7,3.9,7.8c-0.1,0-0.2-0.1-0.3-0.1c-0.4-0.1-0.7,0.1-0.9,0.4c0,0,0,0,0,0.1c0,0,0,0-0.1,0.1
	c-1.9-2.8-3.9-5.5-5.1-8.7c-0.1-0.3-0.6-0.2-0.5,0.1c1.1,3.3,3,6.2,4.9,9.1c0,0.1,0,0.2,0,0.3c3,6.2,5.9,12.5,8.5,18.9
	c-6.1-9.4-12.2-18.8-16-29.4C8.1,61.9,10,62.3,11.9,62.8z M18.6,95.2C13.2,83.5,7.3,71.8,0.8,60.6c0.8,0.1,1.7,0.3,2.5,0.4
	c0.5,5.7,3.5,10.6,6.6,15.3c4.6,7,9,13.9,13,21.2C20.9,97.5,19.4,96.8,18.6,95.2z M24,97.5c-3.4-6.3-6.9-12.6-11-18.5
	c-3.7-5.3-8.1-11.2-9.1-17.8c0.5,0.1,1.1,0.2,1.6,0.3c3.9,13.2,12.3,24.4,19.7,35.8C24.9,97.3,24.5,97.4,24,97.5z M26.2,97.1
	c-0.5-0.8-1-1.5-1.5-2.3h0.1c0.5-0.3,1-0.5,1.5-0.8c0.2,1.1,0.9,2.1,2,2.4c0.2,0.1,0.3-0.2,0.2-0.3c-0.7-0.8-1.5-1.2-1.7-2.3
	c0.3-0.2,0.6-0.3,0.9-0.4c0.8,0.9,1.8,1.7,2.7,2.5C29,96.4,27.5,96.8,26.2,97.1z M31,95.6c-0.9-0.9-1.9-1.6-2.9-2.5
	c0.7-0.3,1.4-0.6,2.1-0.9c0.8,0.9,1.7,1.9,2.8,2.6C32.4,95.1,31.7,95.4,31,95.6z M35.7,93.7c-0.7-0.8-1.6-1.3-2.3-2
	c-0.3-0.3-0.7,0.1-0.4,0.4c0.7,0.7,1.4,1.3,2.2,1.8c-0.5,0.2-1,0.4-1.5,0.6c-1-0.9-2-1.7-2.9-2.5c1.3-0.6,2.6-1.1,3.9-1.6
	c0.6,0.9,1.3,1.9,2.1,2.7C36.4,93.3,36.1,93.5,35.7,93.7z M37.5,92.8c-0.4-0.5-0.8-0.9-1.2-1.4c-0.3-0.4-0.7-0.8-1-1.2
	c0.5-0.2,0.9-0.4,1.4-0.5c0.6,0.9,1.3,1.8,2,2.5C38.4,92.4,38,92.6,37.5,92.8z M39.5,91.8c-0.7-0.8-1.5-1.5-2.2-2.4
	c0.6-0.2,1.3-0.5,1.9-0.7c0.7,0.7,1.3,1.5,2,2.2C40.6,91.2,40,91.5,39.5,91.8z M41.9,90.6c-0.7-0.7-1.4-1.4-2.2-2
	c0.6-0.2,1.2-0.5,1.8-0.7c0.6,0.6,1.3,1.4,2,1.8C43,90,42.5,90.3,41.9,90.6z M44.4,89.2c-0.8-0.5-1.5-1-2.2-1.6
	c0.7-0.3,1.3-0.5,2-0.8c0.6,0.5,1.2,1.1,1.8,1.5C45.5,88.6,44.9,88.9,44.4,89.2z M46.5,88c-0.4-0.6-1-1-1.6-1.5
	c0.6-0.2,1.1-0.5,1.7-0.7c0.3,0.5,0.7,1,1.1,1.5C47.3,87.6,46.9,87.8,46.5,88z M48.4,86.9c-0.2-0.2-0.4-0.3-0.6-0.5
	c-0.2-0.2-0.4-0.5-0.6-0.8c0.8-0.3,1.7-0.7,2.5-1c0.6-0.3,0.5-1.2,0-1.5c-2.8-1.7-5.8-2.7-8.9-3.6c-0.6-0.7-1.1-1.5-1.5-2.5
	c0.6-0.8,1.2-1.6,1.7-2.4c0.2,1,1.1,2,1.7,2.8c0.5,0.7,1.1,1.4,1.6,2.1c0.5,0.6,1,1.4,1.7,1.7c0.2,0.1,0.6-0.1,0.4-0.3
	c-0.5-1.1-1.8-2.2-2.6-3.1c-0.6-0.7-1.1-1.3-1.7-2.1c-0.3-0.4-0.9-0.9-0.9-1.4c0.4-0.6,0.9-1.2,1.3-1.8c3,4.1,5.3,9.1,9,12.6
	C50.7,85.6,49.6,86.3,48.4,86.9z M52.7,74.6c0.4,0.2,0.7,0.3,1.1,0.4c0.1,0,0.4,2.5,0.5,2.8l0,0c-1.1-1.3-2.1-2.7-3.3-4
	C51.7,74.2,52.3,74.4,52.7,74.6z M54.5,79.4L54.5,79.4c0.3,1.3,0.5,2.5,0.7,3.7h-0.1c-0.6,0.3-1.4,0.8-2.5,1.4
	c-3.1-4.2-6.1-8.6-9.5-12.5c0.9-1.2,1.9-2.4,2.9-3.6C48.3,72.1,51,76.6,54.5,79.4z M50.4,69.3c-0.6-0.8-1.1-1.6-1.7-2.4
	c-0.2-0.3-0.7,0-0.5,0.3c0.5,0.9,1,1.9,1.7,2.8c-0.3,0.5-0.7,0.9-1,1.4l-0.1,0.1c-0.9-1.1-1.8-2.2-2.7-3.3c1.2-1.5,2.4-3,3.6-4.5
	c0.6,1.2,1.3,2.6,2.2,3.7C51.5,67.9,50.9,68.6,50.4,69.3z M52.5,66.6c-0.8-1.1-1.6-2.2-2.3-3.4c0,0,0,0-0.1-0.1
	c0.5-0.6,1-1.2,1.5-1.8c0.5,1.1,1.2,2.7,2.2,3.6C53.4,65.5,52.9,66.1,52.5,66.6z M55.9,62.6c-0.4-1-1.3-1.9-1.7-2.9
	c-0.1-0.3-0.5-0.2-0.4,0.1c0.4,1.1,1,2.3,1.8,3.2c-0.4,0.4-0.8,0.9-1.2,1.3c-0.9-1-1.7-2-2.4-3.3c0,0,0,0-0.1-0.1
	c1-1.2,1.9-2.3,2.9-3.4c0.8,1.1,1.7,2.2,2.6,3.1c0,0,0.1,0,0.1,0.1C57,61.3,56.5,61.9,55.9,62.6z M57.9,60.3L57.9,60.3
	C57.3,59,56.2,58,55.3,57c0.6-0.8,1.3-1.5,1.9-2.2c0.3,0.5,0.6,1.1,0.9,1.6c0.4,0.7,0.9,1.6,1.7,1.9h0.1
	C59.2,58.9,58.6,59.6,57.9,60.3z M60.2,57.9c0-0.1,0-0.2-0.1-0.2c-1-1-1.8-2.1-2.5-3.3c0.5-0.5,0.9-1.1,1.4-1.7
	c0.6,1.3,1.5,3,2.7,2.9c0.3,0,0.4-0.5,0.1-0.6c-1.1-0.4-1.9-1.7-2.5-2.8c0.6-0.7,1.2-1.4,1.8-2.1c0.4,0.8,0.8,1.6,1.3,2.4
	c0.4,0.5,0.8,1.2,1.4,1.5C62.6,55.3,61.4,56.6,60.2,57.9z M65.2,52.5c-0.3,0.3-0.6,0.6-0.9,0.9c-1.1-1.2-2-2.5-2.8-3.9
	c0.4-0.5,0.8-0.9,1.2-1.4c0.5,1.5,1.8,3.4,3.3,3.4c0.1,0,0.1-0.1,0.1-0.1C65.9,51.8,65.5,52.2,65.2,52.5z M66.3,51.4
	c0-0.1,0.1-0.2,0-0.2c-0.4-0.6-1.2-0.9-1.7-1.4c-0.7-0.6-1.1-1.4-1.4-2.2c0.4-0.5,0.8-0.9,1.2-1.4v0.1c0.4,0.8,0.9,1.5,1.4,2.1
	c0.4,0.6,1,1.4,1.7,1.8C67.1,50.6,66.7,51,66.3,51.4z M68.2,49.6C67,48.5,66,47.2,64.8,46c-0.1-0.1-0.1-0.1-0.2-0.1
	c0.6-0.7,1.1-1.3,1.6-2c0.6,0.9,1.2,1.9,1.8,2.8c0.4,0.6,0.9,1.2,1.6,1.4C69.1,48.7,68.6,49.1,68.2,49.6z M70.2,47.6
	c-1.6-1-2.4-2.7-3.6-4.1c0.5-0.6,1-1.2,1.5-1.8c0.5,1,1,2,1.6,3c0.4,0.6,0.9,1.3,1.6,1.7C70.9,46.8,70.5,47.2,70.2,47.6z M72,45.7
	c-0.6-0.7-1.3-1.3-1.9-2c-0.6-0.8-1.1-1.6-1.6-2.4c0.4-0.4,0.7-0.9,1.1-1.3c0.6,1.7,1.6,3.9,3.2,4.8C72.6,45,72.3,45.3,72,45.7z
	 M73.3,44.1c-0.4-0.8-1.2-1.5-1.7-2.2c-0.6-0.8-1-1.6-1.5-2.5c0.6-0.7,1.1-1.3,1.7-2c0.9,1.6,1.9,3.2,3,4.6
	C74.4,42.7,73.9,43.4,73.3,44.1z M75.8,40.2c-0.1,0.3-0.3,0.6-0.4,0.8c-3.9-9.4-9.5-19.4-16.5-27c1.9,1.1,3.8,2.2,5.7,3.4
	c2.7,7,6.2,15.6,11.9,20.6h0.1C76.3,38.7,76.1,39.4,75.8,40.2z M76.7,37.1c-4-6.4-7.9-12.6-11.3-19.3c2.7,1.6,5.4,3.1,8.1,4.6l0,0
	c1,2.5,1.8,5.5,3.3,7.8c0.1,0.2,0.4,0.2,0.5,0.1C77.3,32.7,77.3,34.9,76.7,37.1z M77.1,33.2c0.1,0.5-0.5,0.7-0.8,0.3
	c-1.4-1.9-2.3-4.2-3.4-6.2c-1.2-2.1-2.5-4.2-3.8-6.3c-0.2-0.3,0.3-0.6,0.5-0.3c1.6,2.3,3.1,4.5,4.6,6.9
	C75.3,29.4,76.6,31.2,77.1,33.2z M45,70.1c3.1,4,6.2,7.8,9.6,11.6c0.3,0.3-0.1,0.9-0.5,0.6c-4-3-6.8-7.8-9.5-11.9
	C44.5,70.2,44.9,69.9,45,70.1z"/>
</svg>
