<?xml version="1.0" encoding="utf-8"?>
<!-- Generator: Adobe Illustrator 23.0.3, SVG Export Plug-In . SVG Version: 6.00 Build 0)  -->
<svg version="1.1" id="Layer_1" xmlns="http://www.w3.org/2000/svg" xmlns:xlink="http://www.w3.org/1999/xlink" x="0px" y="0px"
	 viewBox="0 0 90.5 50" style="enable-background:new 0 0 90.5 50;" xml:space="preserve">
<style type="text/css">
	.st0{fill:#3E50B4;}
</style>
<path class="st0" d="M89.7,23.2L72.2,5.6c-0.8-0.8-2-1-3-0.6s-1.7,1.4-1.7,2.5v14.3H14.1c-4.2,0-7.7-3.4-7.7-7.7
	c0-4.2,3.4-7.7,7.7-7.7c1.8,0,3.2-1.4,3.2-3.2S15.9,0,14.1,0c-7.7,0-14,6.3-14,14c0,4.4,2,8.3,5.1,10.9C2,27.7,0,31.6,0,36
	c0,7.7,6.3,14,14,14c1.8,0,3.2-1.4,3.2-3.2s-1.4-3.2-3.2-3.2c-4.2,0-7.7-3.4-7.7-7.7c0-4.2,3.4-7.7,7.7-7.7h53.4v14.3
	c0,1.1,0.7,2.1,1.7,2.5c0.3,0.1,0.7,0.2,1,0.2c0.7,0,1.4-0.3,1.9-0.8L89.7,27c0.5-0.5,0.8-1.2,0.8-1.9
	C90.5,24.4,90.2,23.7,89.7,23.2z"/>
</svg>
