<svg version="1.2" xmlns="http://www.w3.org/2000/svg" viewBox="0 0 1584 1152" width="1584" height="1152">
	<title>15399-ai</title>
	<style>
		.s0 { fill: #f7f7f7 } 
		.s1 { fill: #ff3a65 } 
		.s2 { fill: #09ced6 } 
		.s3 { fill: #000000 } 
		.s4 { fill: #ffffff } 
		.s5 { fill: #2a2833 } 
		.s6 { fill: #ffd000 } 
		.s7 { fill: #1b3c61 } 
		.s8 { fill: #09c793 } 
	</style>
	<g id="_Artboards_">
	</g>
	<g id="Layer 1">
		<g id="&lt;Group&gt;">
			<path id="&lt;Path&gt;" class="s0" d="m1584 0v1152h-1584v-1152z"/>
			<g id="&lt;Group&gt;">
				<g id="&lt;Group&gt;">
					<path id="&lt;Path&gt;" class="s1" d="m192.9 313.4l378.5 90-55.6-140z"/>
					<path id="&lt;Path&gt;" class="s2" d="m1108.1 314.2l-915.2-0.8-1.3-197.2 916.5-29z"/>
					<g id="&lt;Group&gt;">
						<path id="&lt;Path&gt;" class="s3" d="m215.5 98c-0.9 0-1.7-0.7-1.7-1.7-0.1-0.9 0.7-1.7 1.6-1.8l429.1-14c1 0 1.7 0.8 1.8 1.7 0 1-0.8 1.8-1.7 1.8l-429 14q-0.1 0-0.1 0z"/>
					</g>
					<g id="&lt;Group&gt;">
						<path id="&lt;Path&gt;" class="s3" d="m582.3 390.1c-0.7 0-1.4-0.5-1.7-1.2l-23.1-59.9c-0.2-0.5-0.2-1.1 0.2-1.6 0.3-0.5 0.8-0.7 1.4-0.7l250.1-0.7q0 0 0 0c1 0 1.8 0.8 1.8 1.8 0 0.9-0.8 1.7-1.8 1.7l-247.6 0.6 22.3 57.6c0.3 0.9-0.1 1.9-1 2.2q-0.3 0.2-0.6 0.2z"/>
					</g>
					<g id="&lt;Group&gt;">
						<path id="&lt;Path&gt;" class="s3" d="m284.3 353.9q-0.2 0-0.5 0l-106.2-26.6c-0.8-0.2-1.3-0.9-1.3-1.7l-0.6-96.9c0-1 0.7-1.8 1.7-1.8q0 0 0 0c1 0 1.8 0.8 1.8 1.7l0.6 95.7 104.9 26.2c0.9 0.2 1.5 1.2 1.3 2.1-0.2 0.8-1 1.3-1.7 1.3z"/>
					</g>
					<g id="&lt;Group&gt;">
						<path id="&lt;Path&gt;" class="s4" d="m723.4 122.3c-1 0-1.7-0.7-1.8-1.7 0-0.9 0.8-1.7 1.7-1.8l361.3-11.7c1 0.1 1.8 0.7 1.8 1.7 0 1-0.7 1.8-1.7 1.8l-361.3 11.7q0 0 0 0z"/>
					</g>
					<g id="&lt;Group&gt;">
						<path id="&lt;Path&gt;" class="s3" d="m1120.8 330.5q0 0 0 0l-111.5-1c-1 0-1.7-0.8-1.7-1.7 0-1 0.8-1.8 1.7-1.8q0 0 0 0l109.7 0.9v-100.7c0-1 0.8-1.8 1.8-1.8 1 0 1.7 0.8 1.7 1.8v102.5c0 0.5-0.1 0.9-0.5 1.2-0.3 0.4-0.7 0.6-1.2 0.6z"/>
					</g>
					<g id="&lt;Group&gt;">
						<path id="&lt;Compound Path&gt;" fill-rule="evenodd" class="s3" d="m1147.7 128.5c-6 0-10.9-4.9-10.9-10.9 0-6 4.9-10.8 10.9-10.8 6 0 10.8 4.8 10.8 10.8 0 6-4.8 10.9-10.8 10.9zm0-18.2c-4.1 0-7.4 3.3-7.4 7.3 0 4.1 3.3 7.4 7.4 7.4 4 0 7.3-3.3 7.3-7.4 0-4-3.3-7.3-7.3-7.3z"/>
					</g>
					<g id="&lt;Group&gt;">
						<path id="&lt;Compound Path&gt;" fill-rule="evenodd" class="s3" d="m679.5 80.3c-6 0-10.8-4.8-10.8-10.8 0-6 4.8-10.9 10.8-10.9 6 0 10.9 4.9 10.9 10.9 0 6-4.9 10.8-10.9 10.8zm0-18.2c-4 0-7.4 3.3-7.4 7.4 0 4 3.4 7.3 7.4 7.3 4.1 0 7.4-3.3 7.4-7.3 0-4.1-3.3-7.4-7.4-7.4z"/>
					</g>
					<g id="&lt;Group&gt;">
						<path id="&lt;Compound Path&gt;" fill-rule="evenodd" class="s3" d="m148.4 202.6q-0.5 0-0.9-0.2c-0.5-0.3-0.9-0.9-0.9-1.5v-16.3c0-0.6 0.4-1.2 0.9-1.5 0.6-0.3 1.2-0.3 1.8 0l14.1 8.1c0.5 0.3 0.8 0.9 0.8 1.5 0 0.7-0.3 1.2-0.8 1.5l-14.1 8.2q-0.4 0.2-0.9 0.2zm1.7-15v10.2l8.9-5.1z"/>
					</g>
					<g id="&lt;Group&gt;">
						<path id="&lt;Compound Path&gt;" fill-rule="evenodd" class="s3" d="m923.4 353.3q-0.5 0-0.9-0.2l-14.1-8.1c-0.5-0.4-0.9-0.9-0.9-1.6 0-0.6 0.4-1.2 0.9-1.5l14.1-8.1c0.5-0.3 1.2-0.3 1.7 0 0.6 0.3 0.9 0.9 0.9 1.5v16.3c0 0.6-0.3 1.2-0.9 1.5q-0.4 0.2-0.8 0.2zm-10.6-9.9l8.8 5.2v-10.3z"/>
					</g>
					<g id="&lt;Group&gt;">
						<path id="&lt;Path&gt;" class="s3" d="m242.9 82.6c-1 0-1.7-0.7-1.8-1.7 0-1 0.8-1.8 1.7-1.8l294.6-10.7c0.9 0 1.8 0.7 1.8 1.7 0.1 0.9-0.7 1.8-1.7 1.8l-294.6 10.7q0 0 0 0z"/>
					</g>
					<g id="&lt;Group&gt;">
						<path id="&lt;Path&gt;" class="s3" d="m686.3 346.2c-0.9 0-1.7-0.8-1.7-1.7 0-1 0.7-1.8 1.7-1.8l171.1-0.6q0 0 0 0c1 0 1.7 0.8 1.7 1.7 0 1-0.7 1.8-1.7 1.8l-171.1 0.6q0 0 0 0z"/>
					</g>
				</g>
				<g id="&lt;Group&gt;">
					<path id="&lt;Compound Path&gt;" class="s4" d="m441.4 247.4l1.3-79.8h15.1l11.7 56.1 12.1-56.1h14.8l1.4 79.8h-11.2l-0.9-55-11.7 55h-8.7l-11.8-55.2-0.9 55.2z"/>
					<path id="&lt;Compound Path&gt;" class="s4" d="m509.2 247.4v-79.8h33.9v10.2h-19.1v22.9h15.1v10.3h-15.1v26.4h19.4v10z"/>
					<path id="&lt;Compound Path&gt;" class="s4" d="m571.6 248.5q-11.5 0-16.5-7.1-5.1-7.1-5.1-20.6v-26q0-6.9 1.1-11.9 1.1-5 3.7-8.7 2.6-3.8 7.1-5.7 4.6-1.8 11.2-1.8 12 0 17.2 5.8 5.2 5.8 5.2 17.6v3.9h-14.1v-4.2q0-2.6-0.1-4.3-0.1-1.7-0.6-3.4-0.4-1.7-1.3-2.6-0.9-1-2.4-1.5-1.5-0.6-3.7-0.6-1.7 0-3 0.4-1.3 0.4-2.2 1-0.8 0.6-1.4 1.7-0.7 1.1-1 2.2-0.3 1-0.5 2.6-0.1 1.7-0.2 2.9 0 1.3 0 3.3v32.2q0 7.2 1.8 10.5 1.8 3.4 6.9 3.4 2.6 0 4.4-1 1.8-1 2.8-3 1-2 1.4-4.6 0.4-2.5 0.4-6.2v-6.5h-8.7v-9.4h22v40.5h-9.6l-1.1-8.1q-3.6 9.2-13.7 9.2z"/>
					<path id="&lt;Compound Path&gt;" fill-rule="evenodd" class="s4" d="m602.4 247.4l16.5-79.8h15.3l16.5 79.8h-13.8l-3.2-18.5h-14.1l-3.3 18.5zm18.8-28h10.9l-5.5-32.8z"/>
					<path id="&lt;Compound Path&gt;" class="s4" d="m702.4 248.4q-21.4 0-22.4-24.4l12.8-2.6q0.5 15.8 9.2 15.8 3.4 0 5-2 1.6-2 1.6-5.5 0-3.3-1.2-6-1.2-2.8-2.8-4.6-1.6-1.7-4.6-4.3l-10.6-9.1q-4.7-4.1-7-8.4-2.3-4.4-2.3-10.9 0-9.3 5.5-14.5 5.6-5.2 15.2-5.2 4.5-0.1 7.9 1 3.4 1.2 5.6 3.1 2.2 1.9 3.7 4.7 1.5 2.9 2.3 5.9 0.7 3.1 1 6.8l-12.6 2.5q-0.1-2.4-0.3-4.2-0.3-1.8-0.8-3.6-0.5-1.8-1.4-3-0.8-1.1-2.3-1.8-1.4-0.7-3.3-0.5-3.3 0.2-5 2.1-1.8 2-1.8 5.3 0 3.8 1.6 6.3 1.5 2.5 4.8 5.3l10.5 9.1q2.7 2.3 4.6 4.5 2 2.3 3.8 5.1 1.7 2.8 2.7 6.3 0.9 3.4 0.9 7.2 0 8.7-5.6 14.1-5.6 5.5-14.7 5.5z"/>
					<path id="&lt;Compound Path&gt;" fill-rule="evenodd" class="s4" d="m726.6 247.4l16.5-79.8h15.4l16.4 79.8h-13.7l-3.3-18.5h-14l-3.3 18.5zm18.8-28h10.8l-5.4-32.8z"/>
					<path id="&lt;Compound Path&gt;" class="s4" d="m782.3 247.4v-79.8h14.8v69.8h19.4v10z"/>
					<path id="&lt;Compound Path&gt;" class="s4" d="m823.8 247.4v-79.8h33.9v10.2h-19.2v22.9h15.2v10.3h-15.2v26.4h19.4v10z"/>
				</g>
			</g>
			<g id="&lt;Group&gt;">
				<g id="&lt;Group&gt;">
					<path id="&lt;Path&gt;" class="s5" d="m1480.2 664.1l-378.5 90.1 55.6-140z"/>
					<path id="&lt;Path&gt;" class="s6" d="m565 665l915.2-0.9 1.3-197.1-916.5-29z"/>
					<g id="&lt;Group&gt;">
						<path id="&lt;Path&gt;" class="s3" d="m1457.6 448.8q0 0 0 0l-429-14c-1 0-1.8-0.8-1.7-1.8 0-0.9 0.8-1.6 1.8-1.7l429 14c1 0.1 1.7 0.9 1.7 1.8 0 1-0.8 1.7-1.8 1.7z"/>
					</g>
					<g id="&lt;Group&gt;">
						<path id="&lt;Path&gt;" class="s3" d="m1090.9 740.8q-0.3 0.1-0.6-0.1c-0.9-0.3-1.4-1.3-1-2.2l22.2-57.6-247.6-0.6c-0.9 0-1.7-0.8-1.7-1.7 0-1 0.8-1.8 1.7-1.8q0 0 0 0l250.2 0.6c0.5 0 1.1 0.3 1.4 0.8 0.3 0.5 0.4 1.1 0.2 1.6l-23.2 59.9c-0.2 0.7-0.9 1.1-1.6 1.1z"/>
					</g>
					<g id="&lt;Group&gt;">
						<path id="&lt;Path&gt;" class="s3" d="m1388.9 704.7c-0.8 0-1.5-0.5-1.7-1.3-0.2-0.9 0.3-1.9 1.3-2.1l104.9-26.2 0.6-95.7c0-0.9 0.9-1.6 1.7-1.7 1 0 1.8 0.8 1.8 1.8l-0.6 96.9c0 0.8-0.6 1.5-1.4 1.7l-106.2 26.6q-0.2 0-0.4 0z"/>
					</g>
					<g id="&lt;Group&gt;">
						<path id="&lt;Path&gt;" class="s4" d="m949.8 473.1q-0.1 0-0.1 0l-361.3-11.7c-0.9 0-1.7-0.9-1.7-1.8 0.1-1 0.9-1.8 1.8-1.7l361.3 11.7c1 0.1 1.8 0.9 1.7 1.8 0 1-0.8 1.7-1.7 1.7z"/>
					</g>
					<g id="&lt;Group&gt;">
						<path id="&lt;Path&gt;" class="s3" d="m552.4 681.2c-0.5 0-0.9-0.1-1.3-0.5-0.3-0.3-0.5-0.7-0.5-1.2v-102.5c0-1 0.8-1.8 1.8-1.8 0.9 0 1.7 0.8 1.7 1.8v100.7l109.7-0.9c1 0.1 1.8 0.8 1.8 1.8 0 0.9-0.8 1.7-1.8 1.7l-111.4 0.9q0 0 0 0z"/>
					</g>
					<g id="&lt;Group&gt;">
						<path id="&lt;Compound Path&gt;" fill-rule="evenodd" class="s3" d="m525.5 479.3c-6 0-10.9-4.9-10.9-10.9 0-6 4.9-10.8 10.9-10.8 6 0 10.9 4.8 10.9 10.8 0 6-4.9 10.9-10.9 10.9zm0-18.3c-4.1 0-7.4 3.4-7.4 7.4 0 4.1 3.3 7.4 7.4 7.4 4.1 0 7.4-3.3 7.4-7.4 0-4-3.3-7.4-7.4-7.4z"/>
					</g>
					<g id="&lt;Group&gt;">
						<path id="&lt;Compound Path&gt;" fill-rule="evenodd" class="s3" d="m993.6 431.1c-6 0-10.8-4.9-10.8-10.8 0-6 4.8-10.9 10.8-10.9 6 0 10.9 4.9 10.9 10.9 0 5.9-4.9 10.8-10.9 10.8zm0-18.2c-4 0-7.4 3.3-7.4 7.4 0 4 3.4 7.3 7.4 7.3 4.1 0 7.4-3.3 7.4-7.3 0-4.1-3.3-7.4-7.4-7.4z"/>
					</g>
					<g id="&lt;Group&gt;">
						<path id="&lt;Compound Path&gt;" fill-rule="evenodd" class="s3" d="m1524.8 553.4q-0.5 0-0.9-0.2l-14.1-8.2c-0.6-0.3-0.9-0.9-0.9-1.5 0-0.6 0.3-1.2 0.9-1.5l14.1-8.1c0.5-0.3 1.2-0.3 1.7 0 0.6 0.3 0.9 0.9 0.9 1.5v16.3c0 0.6-0.3 1.2-0.9 1.5q-0.4 0.2-0.8 0.2zm-10.7-9.9l8.9 5.1v-10.2z"/>
					</g>
					<g id="&lt;Group&gt;">
						<path id="&lt;Compound Path&gt;" fill-rule="evenodd" class="s3" d="m749.8 704.1q-0.5 0-0.9-0.2c-0.5-0.3-0.9-0.9-0.9-1.5v-16.3c0-0.6 0.4-1.2 0.9-1.5 0.5-0.3 1.2-0.3 1.7 0l14.1 8.1c0.6 0.3 0.9 0.9 0.9 1.5 0 0.7-0.3 1.2-0.9 1.5l-14.1 8.2q-0.4 0.2-0.8 0.2zm1.7-15v10.3l8.9-5.2z"/>
					</g>
					<g id="&lt;Group&gt;">
						<path id="&lt;Path&gt;" class="s3" d="m1430.3 433.4q-0.1 0-0.1 0l-294.6-10.7c-1-0.1-1.7-0.9-1.7-1.8 0.1-1 0.9-1.6 1.8-1.7l294.6 10.7c1 0 1.7 0.8 1.7 1.8 0 0.9-0.8 1.7-1.7 1.7z"/>
					</g>
					<g id="&lt;Group&gt;">
						<path id="&lt;Path&gt;" class="s3" d="m986.8 697q0 0 0 0l-171-0.6c-1 0-1.8-0.8-1.8-1.8 0-0.9 0.8-1.7 1.8-1.7q0 0 0 0l171 0.6c1 0 1.8 0.8 1.8 1.8 0 0.9-0.8 1.7-1.8 1.7z"/>
					</g>
				</g>
				<g id="&lt;Group&gt;">
					<path id="&lt;Compound Path&gt;" class="s5" d="m794.1 605q-11.5 0-16.6-7.1-5-7.1-5-20.6v-26q0-6.9 1.1-11.9 1.1-5 3.7-8.7 2.6-3.8 7.1-5.7 4.5-1.8 11.1-1.8 12.1 0 17.3 5.8 5.2 5.8 5.2 17.6v3.9h-14.1v-4.2q0-2.6-0.1-4.3-0.2-1.7-0.6-3.4-0.5-1.7-1.4-2.6-0.8-0.9-2.4-1.5-1.5-0.6-3.7-0.6-1.6 0-2.9 0.4-1.3 0.4-2.2 1-0.9 0.6-1.5 1.7-0.6 1.1-0.9 2.2-0.3 1-0.5 2.7-0.2 1.6-0.2 2.8-0.1 1.3-0.1 3.3v32.2q0 7.2 1.8 10.6 1.8 3.3 6.9 3.3 2.7 0 4.4-1 1.8-1 2.8-3 1-2 1.4-4.5 0.5-2.6 0.5-6.3v-6.5h-8.8v-9.4h22v40.5h-9.5l-1.1-8.1q-3.7 9.2-13.7 9.2z"/>
					<path id="&lt;Compound Path&gt;" fill-rule="evenodd" class="s5" d="m829.1 603.9v-79.8h18.5q6.4 0 11 1 4.6 1.1 8 3.5 3.4 2.4 5.1 6.6 1.7 4.2 1.7 10.2 0 7.5-2.3 12.3-2.3 4.7-7.5 6.9l11.2 39.3h-14.8l-9.6-36.4h-6.6v36.4zm14.8-45.7h3.5q6.6 0 9.3-2.8 2.8-2.7 2.8-9.4 0-6.4-2.4-9.1-2.4-2.8-8.8-2.8h-4.4z"/>
					<path id="&lt;Compound Path&gt;" class="s5" d="m884 603.9v-79.8h33.9v10.2h-19.1v23h15.1v10.2h-15.1v26.4h19.4v10z"/>
					<path id="&lt;Compound Path&gt;" fill-rule="evenodd" class="s5" d="m922 603.9l16.4-79.8h15.4l16.4 79.8h-13.7l-3.3-18.5h-14l-3.3 18.5zm18.8-28h10.8l-5.4-32.8z"/>
					<path id="&lt;Compound Path&gt;" class="s5" d="m982.7 603.9v-69.1h-13.5v-10.7h41.4v10.7h-13.1v69.1z"/>
					<path id="&lt;Compound Path&gt;" fill-rule="evenodd" class="s5" d="m1040.5 603.9v-79.8h18.8q7.4 0 12.3 1.4 4.9 1.5 7.9 4.6 3 3.1 4.2 7.7 1.3 4.5 1.3 11.2v28.8q0 6.8-1.3 11.6-1.3 4.8-4.2 8.1-2.9 3.3-7.7 4.9-4.9 1.5-11.9 1.5zm14.8-10.2h4.2q2.2 0 3.8-0.4 1.7-0.3 2.8-0.9 1.1-0.5 1.9-1.7 0.7-1.2 1.1-2.2 0.4-1 0.6-3.1 0.2-2 0.3-3.5 0-1.4 0-4.3v-29.1q0-2.9-0.1-4.6-0.1-1.8-0.5-3.5-0.3-1.8-1-2.7-0.7-1-1.9-1.8-1.2-0.8-2.9-1.1-1.8-0.3-4.3-0.3h-4z"/>
					<path id="&lt;Compound Path&gt;" class="s5" d="m1095.3 603.9v-79.8h33.9v10.2h-19.1v23h15.1v10.2h-15.1v26.4h19.3v10z"/>
					<path id="&lt;Compound Path&gt;" fill-rule="evenodd" class="s5" d="m1133.2 603.9l16.5-79.8h15.4l16.4 79.8h-13.8l-3.2-18.5h-14l-3.4 18.5zm18.8-28h10.9l-5.4-32.8z"/>
					<path id="&lt;Compound Path&gt;" class="s5" d="m1188.9 603.9v-79.8h14.8v69.8h19.4v10z"/>
					<path id="&lt;Compound Path&gt;" class="s5" d="m1250.8 604.9q-21.4 0-22.5-24.4l12.9-2.6q0.5 15.8 9.1 15.8 3.4 0 5.1-2 1.6-2 1.6-5.4 0-3.4-1.2-6.1-1.3-2.8-2.9-4.6-1.6-1.7-4.6-4.3l-10.6-9.1q-4.7-4.1-7-8.4-2.3-4.4-2.3-10.9 0-9.3 5.6-14.5 5.5-5.1 15.2-5.2 4.4-0.1 7.8 1.1 3.4 1.1 5.7 3 2.2 1.9 3.7 4.7 1.5 2.9 2.2 5.9 0.7 3.1 1 6.8l-12.6 2.5q-0.1-2.4-0.3-4.2-0.2-1.8-0.7-3.6-0.6-1.8-1.4-3-0.9-1.1-2.3-1.8-1.5-0.6-3.4-0.5-3.2 0.2-5 2.1-1.7 2-1.7 5.3 0 3.8 1.5 6.3 1.6 2.5 4.8 5.3l10.6 9.1q2.6 2.3 4.6 4.6 1.9 2.2 3.7 5 1.8 2.9 2.7 6.3 0.9 3.4 0.9 7.2 0 8.7-5.5 14.2-5.6 5.4-14.7 5.4z"/>
				</g>
			</g>
			<g id="&lt;Group&gt;">
				<g id="&lt;Group&gt;">
					<path id="&lt;Path&gt;" class="s7" d="m192.9 1010l378.5 90.1-55.6-140z"/>
					<path id="&lt;Path&gt;" class="s8" d="m1108.1 1010.8l-915.2-0.8-1.3-197.1 916.5-29z"/>
					<g id="&lt;Group&gt;">
						<path id="&lt;Path&gt;" class="s3" d="m215.5 794.7c-0.9 0-1.7-0.8-1.7-1.7-0.1-1 0.7-1.8 1.6-1.8l429.1-14c0.9-0.1 1.7 0.7 1.8 1.7 0 0.9-0.8 1.8-1.7 1.8l-429 14q-0.1 0-0.1 0z"/>
					</g>
					<g id="&lt;Group&gt;">
						<path id="&lt;Path&gt;" class="s3" d="m582.3 1086.7c-0.7 0-1.4-0.4-1.7-1.1l-23.1-59.9c-0.2-0.6-0.2-1.2 0.2-1.6 0.3-0.5 0.8-0.8 1.4-0.8l250.1-0.6q0 0 0 0c1 0 1.8 0.8 1.8 1.7 0 1-0.8 1.8-1.8 1.8l-247.6 0.6 22.3 57.5c0.3 0.9-0.1 1.9-1 2.3q-0.3 0.1-0.6 0.1z"/>
					</g>
					<g id="&lt;Group&gt;">
						<path id="&lt;Path&gt;" class="s3" d="m284.3 1050.6q-0.2 0-0.5-0.1l-106.2-26.5c-0.8-0.2-1.3-0.9-1.3-1.7l-0.6-97c0-0.9 0.7-1.7 1.7-1.7q0 0 0 0c1 0 1.8 0.7 1.8 1.7l0.6 95.6 104.9 26.2c0.9 0.3 1.5 1.2 1.3 2.1-0.2 0.8-1 1.4-1.7 1.4z"/>
					</g>
					<g id="&lt;Group&gt;">
						<path id="&lt;Path&gt;" class="s4" d="m723.4 819c-1 0-1.7-0.8-1.8-1.7 0-1 0.8-1.8 1.7-1.8l361.3-11.8c1 0 1.8 0.8 1.8 1.7 0 1-0.7 1.8-1.7 1.8l-361.3 11.8q0 0 0 0z"/>
					</g>
					<g id="&lt;Group&gt;">
						<path id="&lt;Path&gt;" class="s3" d="m1120.8 1027.1q0 0 0 0l-111.5-0.9c-1 0-1.7-0.8-1.7-1.8 0-0.9 0.8-1.7 1.7-1.7q0 0 0 0l109.7 0.9v-100.8c0-0.9 0.8-1.7 1.8-1.7 1 0 1.7 0.8 1.7 1.7v102.6c0 0.4-0.1 0.9-0.5 1.2-0.3 0.3-0.7 0.5-1.2 0.5z"/>
					</g>
					<g id="&lt;Group&gt;">
						<path id="&lt;Compound Path&gt;" fill-rule="evenodd" class="s3" d="m1147.7 825.1c-6 0-10.9-4.8-10.9-10.8 0-6 4.9-10.9 10.9-10.9 6 0 10.8 4.9 10.8 10.9 0 6-4.8 10.8-10.8 10.8zm0-18.2c-4.1 0-7.4 3.3-7.4 7.4 0 4 3.3 7.4 7.4 7.4 4 0 7.3-3.4 7.3-7.4 0-4.1-3.3-7.4-7.3-7.4z"/>
					</g>
					<g id="&lt;Group&gt;">
						<path id="&lt;Compound Path&gt;" fill-rule="evenodd" class="s3" d="m679.5 777c-6 0-10.8-4.9-10.8-10.9 0-6 4.8-10.9 10.8-10.9 6 0 10.9 4.9 10.9 10.9 0 6-4.9 10.9-10.9 10.9zm0-18.3c-4 0-7.4 3.3-7.4 7.4 0 4.1 3.4 7.4 7.4 7.4 4.1 0 7.4-3.3 7.4-7.4 0-4.1-3.3-7.4-7.4-7.4z"/>
					</g>
					<g id="&lt;Group&gt;">
						<path id="&lt;Compound Path&gt;" fill-rule="evenodd" class="s3" d="m148.4 899.3q-0.5 0-0.9-0.3c-0.5-0.3-0.9-0.9-0.9-1.5v-16.3c0-0.6 0.4-1.2 0.9-1.5 0.6-0.3 1.2-0.3 1.8 0l14.1 8.2c0.5 0.3 0.8 0.8 0.8 1.5 0 0.6-0.3 1.2-0.8 1.5l-14.1 8.1q-0.4 0.3-0.9 0.3zm1.7-15v10.2l8.9-5.1z"/>
					</g>
					<g id="&lt;Group&gt;">
						<path id="&lt;Compound Path&gt;" fill-rule="evenodd" class="s3" d="m923.4 1050q-0.5 0-0.9-0.3l-14.1-8.1c-0.5-0.3-0.9-0.9-0.9-1.5 0-0.6 0.4-1.2 0.9-1.5l14.1-8.2c0.5-0.3 1.2-0.3 1.7 0 0.6 0.3 0.9 0.9 0.9 1.5v16.3c0 0.7-0.3 1.2-0.9 1.5q-0.4 0.3-0.8 0.3zm-10.6-9.9l8.8 5.1v-10.2z"/>
					</g>
					<g id="&lt;Group&gt;">
						<path id="&lt;Path&gt;" class="s3" d="m242.9 779.2c-1 0-1.7-0.7-1.8-1.6 0-1 0.8-1.8 1.7-1.9l294.6-10.7c0.9 0 1.8 0.8 1.8 1.7 0.1 1-0.7 1.8-1.7 1.8l-294.6 10.7q0 0 0 0z"/>
					</g>
					<g id="&lt;Group&gt;">
						<path id="&lt;Path&gt;" class="s3" d="m686.3 1042.9c-0.9 0-1.7-0.8-1.7-1.8 0-1 0.7-1.7 1.7-1.7l171.1-0.7q0 0 0 0c1 0 1.7 0.8 1.7 1.8 0 0.9-0.7 1.7-1.7 1.7l-171.1 0.7q0 0 0 0z"/>
					</g>
				</g>
				<g id="&lt;Group&gt;">
					<path id="&lt;Compound Path&gt;" class="s4" d="m366.2 947.3v-79.8h10.2l19.8 45.2v-45.2h12.2v79.8h-9.7l-20-47.5v47.5z"/>
					<path id="&lt;Compound Path&gt;" class="s4" d="m420 947.3v-79.8h33.9v10.2h-19.2v22.9h15.2v10.3h-15.2v26.4h19.4v10z"/>
					<path id="&lt;Compound Path&gt;" class="s4" d="m470.9 947.3l-11.6-79.8h12.4l6.7 51.5 8.6-51.5h9.9l8.9 51.5 6.6-51.5h12.2l-11.6 79.8h-11.8l-9.1-53.3-9.1 53.3z"/>
					<path id="&lt;Compound Path&gt;" fill-rule="evenodd" class="s4" d="m553.1 947.3l16.5-79.8h15.4l16.4 79.8h-13.8l-3.2-18.5h-14l-3.4 18.5zm18.8-28h10.9l-5.5-32.8z"/>
					<path id="&lt;Compound Path&gt;" fill-rule="evenodd" class="s4" d="m608.8 947.3v-79.8h18.6q6.4 0 11 1 4.5 1 7.9 3.5 3.4 2.4 5.1 6.6 1.7 4.1 1.7 10.2 0 7.5-2.3 12.2-2.2 4.8-7.5 7l11.3 39.3h-14.8l-9.7-36.4h-6.5v36.4zm14.7-45.7h3.6q6.5 0 9.3-2.8 2.7-2.7 2.7-9.4 0-6.4-2.4-9.1-2.3-2.8-8.7-2.8h-4.5z"/>
					<path id="&lt;Compound Path&gt;" fill-rule="evenodd" class="s4" d="m663.8 947.3v-79.8h18.5q6.4 0 11 1 4.6 1 8 3.5 3.4 2.4 5.1 6.6 1.7 4.1 1.7 10.2 0 7.5-2.3 12.2-2.3 4.8-7.5 7l11.2 39.3h-14.8l-9.6-36.4h-6.6v36.4zm14.8-45.7h3.5q6.6 0 9.3-2.8 2.8-2.7 2.8-9.4 0-6.4-2.4-9.1-2.4-2.8-8.8-2.8h-4.4z"/>
					<path id="&lt;Compound Path&gt;" class="s4" d="m719.2 947.3v-79.8h14.5v79.8z"/>
					<path id="&lt;Compound Path&gt;" class="s4" d="m758.3 947.3l-16.4-79.8h13.1l10.7 55.5 10-55.5h13.4l-16.5 79.8z"/>
					<path id="&lt;Compound Path&gt;" fill-rule="evenodd" class="s4" d="m790.1 947.3l16.4-79.8h15.4l16.4 79.8h-13.7l-3.3-18.5h-14l-3.3 18.5zm18.8-28h10.8l-5.4-32.8z"/>
					<path id="&lt;Compound Path&gt;" class="s4" d="m845.8 947.3v-79.8h14.7v69.8h19.4v10z"/>
					<path id="&lt;Compound Path&gt;" class="s4" d="m907.6 948.3q-21.4 0-22.4-24.4l12.8-2.6q0.5 15.8 9.2 15.8 3.3 0 5-2 1.6-2 1.6-5.5 0-3.3-1.2-6-1.2-2.8-2.8-4.6-1.6-1.7-4.6-4.3l-10.7-9.1q-4.7-4.1-6.9-8.4-2.3-4.4-2.3-11 0-9.2 5.5-14.4 5.5-5.2 15.2-5.2 4.5-0.1 7.9 1 3.4 1.2 5.6 3.1 2.2 1.9 3.7 4.7 1.5 2.9 2.2 5.9 0.8 3.1 1.1 6.8l-12.6 2.5q-0.1-2.4-0.3-4.2-0.3-1.8-0.8-3.6-0.5-1.8-1.4-3-0.9-1.1-2.3-1.8-1.4-0.7-3.3-0.5-3.3 0.2-5 2.1-1.8 2-1.8 5.3 0 3.8 1.6 6.3 1.5 2.5 4.8 5.3l10.5 9.1q2.7 2.3 4.6 4.5 2 2.3 3.7 5.1 1.8 2.8 2.8 6.3 0.9 3.4 0.9 7.2 0 8.7-5.6 14.1-5.6 5.5-14.7 5.5z"/>
				</g>
			</g>
		</g>
	</g>
</svg>