<?xml version="1.0" encoding="utf-8"?>
<!-- Generator: Adobe Illustrator 23.0.3, SVG Export Plug-In . SVG Version: 6.00 Build 0)  -->
<svg version="1.1" id="Layer_1" xmlns="http://www.w3.org/2000/svg" xmlns:xlink="http://www.w3.org/1999/xlink" x="0px" y="0px"
	 viewBox="0 0 1200 700.1" style="enable-background:new 0 0 1200 700.1;" xml:space="preserve">
<style type="text/css">
	.st0{fill:#673AB6;}
	.st1{fill:#F74187;}
	.st2{fill:#4EC9F4;}
	.st3{fill:#FFD348;}
</style>
<rect class="st0" width="1200" height="700.1"/>
<path class="st1" d="M0,0c0,0,405.2,0,477.2,0c27.7,37.4,24.6,151.9-98.9,123.5c-117.1-26.9-175.5,36.7-159.4,163.7
	C236,422,59.9,480.3,0,365.3V0z M235.4,273c5.9,53.3,43.2,86.9,43.7,22.5S230.8,232,235.4,273z"/>
<path class="st2" d="M1200,0c0,0,0,78.7,0,116c-20.7,8.5-42.3-39.1-130.6,15.3C1004.1,171.5,910.7,122.8,943,0H1200z M1010,167.7
	c-10.8,0-19.5,9.2-19.5,20.5s8.7,20.5,19.5,20.5s19.5-9.2,19.5-20.5S1020.7,167.7,1010,167.7z M583.1,109.5
	c-12.4,0-22.4,10.6-22.4,23.6s10,23.6,22.4,23.6s22.4-10.6,22.4-23.6S595.5,109.5,583.1,109.5z M702.3,16.7c-3.9,0-7,3.3-7,7.4
	s3.1,7.4,7,7.4s7-3.3,7-7.4C709.4,20,706.2,16.7,702.3,16.7z"/>
<path class="st3" d="M385.2,700.1c84.7-89,118.5-10.7,206.4-53.5s158-42.8,265,53.5C856.7,700.1,471.9,700.1,385.2,700.1z
	 M802.1,601.9c-6,0-10.9,5.1-10.9,11.4c0,6.3,4.9,11.4,10.9,11.4s10.9-5.1,10.9-11.4S808.1,601.9,802.1,601.9z M758.4,561.7
	c-10.1,0-18.2,8.6-18.2,19.1c0,10.6,8.2,19.1,18.2,19.1c10.1,0,18.2-8.6,18.2-19.1C776.7,570.3,768.5,561.7,758.4,561.7z"/>
<path class="st2" d="M887.4,700.1c-20.1-81.8,51.7-119.6,128.1-116.7c143.8,5.5,64.3-173.9,184.6-180.5c0,85,0,297.2,0,297.2H887.4z
	 M956.3,510.6c-60.1,23.7-51.5,60.4,17.4,40.9C1042.5,531.9,1032.4,480.6,956.3,510.6z M1030.3,429c-12,0-21.8,10.3-21.8,22.9
	c0,12.7,9.8,22.9,21.8,22.9s21.8-10.3,21.8-22.9C1052.1,439.3,1042.3,429,1030.3,429z"/>
<path class="st3" d="M670.7,0c0,0-29.7,50.9-70.7,71.7S505.1,90.2,504.5,0H670.7z M511.8,105.8c-10.2,0-18.5,8.7-18.5,19.4
	s8.3,19.4,18.5,19.4s18.5-8.7,18.5-19.4C530.2,114.5,522,105.8,511.8,105.8z M1084.7,184.6c-18.1,0-32.7,15.4-32.7,34.3
	s14.6,34.3,32.7,34.3s32.7-15.4,32.7-34.3S1102.8,184.6,1084.7,184.6z M72.5,456.6c-4,0-7.3,3.4-7.3,7.6s3.3,7.6,7.3,7.6
	s7.3-3.4,7.3-7.6S76.5,456.6,72.5,456.6z"/>
<path class="st2" d="M80.4,700.1c39-63.4,117.9-73.8,165.3,0C180,700.1,80.4,700.1,80.4,700.1z"/>
</svg>
