<svg xmlns="http://www.w3.org/2000/svg" width="452.625" height="376.844" viewBox="0 0 452.625 376.844">
  <defs>
    <style>
      .cls-1 {
        fill: #fcbb2f;
        fill-rule: evenodd;
      }
    </style>
  </defs>
  <path id="ab-6" class="cls-1" d="M349.064,70.269c19.209,1.478,38.764,3.034,56.652,10.24,33.419,13.465,57.063,45.881,66.1,80.99s4.914,72.544-5.146,107.367c-9,31.164-23.033,61.443-45.089,85.1s-52.833,40.141-85.04,40.36c-21.86.148-43.532-7.008-65.278-4.762-35.095,3.624-63.268,30.623-96.864,41.475-34.978,11.3-75.447,3.377-103.685-20.3C39.918,384.926,25.26,343.381,24.244,303.03s10.13-80,23.469-118.059c15.894-45.353,38.447-93.249,81.58-113.842,31.22-14.9,67.485-12.572,101.931-9.923Z" transform="translate(-24.188 -59.25)"/>
</svg>
