<svg xmlns="http://www.w3.org/2000/svg" width="451.844" height="397.625" viewBox="0 0 451.844 397.625">
  <defs>
    <style>
      .cls-1 {
        fill: #84c74e;
        fill-rule: evenodd;
      }
    </style>
  </defs>
  <path id="ab-7" class="cls-1" d="M102.056,447.289c26.991-2.345,52.276-13.73,76.964-24.953l185.572-84.363c24.275-11.036,49.027-22.386,68.481-40.69,26.871-25.283,41.364-63.289,38.193-100.158s-23.934-71.809-54.722-92.077c-35.621-23.451-80.2-26.526-121.969-34.8-38.043-7.533-75.564-19.935-114.336-20.2S99.5,64.712,80.544,98.73C65.3,126.1,67.827,159.648,72,190.737S81.413,254.4,70.58,283.82c-7.335,19.92-21.4,36.442-32.908,54.254s-20.849,38.912-16.885,59.777c3.258,17.151,15.5,31.823,30.756,40.161S84.757,448.792,102.056,447.289Z" transform="translate(-19.844 -50.063)"/>
</svg>
