<svg xmlns="http://www.w3.org/2000/svg" width="494.938" height="428.688" viewBox="0 0 494.938 428.688">
  <defs>
    <style>
      .cls-1 {
        fill: #4eadea;
        fill-rule: evenodd;
      }
    </style>
  </defs>
  <path id="ab-8" class="cls-1" d="M22.364,85.79c13.83-33.982,55.1-48.914,92.008-48.337S187.151,49.982,224,52.217c31.686,1.923,63.489-3.378,95.169-1.36,64.5,4.11,126.076,40.522,160.441,94.868,11.719,18.534,20.583,40.154,17.822,61.865-4.5,35.369-38.148,60.2-72.057,71.915S354.7,294.311,321.983,309c-30,13.47-54.9,35.944-78.037,59.206s-45.272,47.847-71.927,67.043S113.139,468.1,80.286,465.9,14.679,442.736,5.67,411.289c-8.091-28.238,3.472-58.128,16.791-84.339s29-52.8,29.65-82.147c0.609-27.5-12.1-53.276-22.245-78.874S11.985,111.294,22.364,85.79Z" transform="translate(-3 -37.438)"/>
</svg>
