<?xml version="1.0" encoding="utf-8"?>
<!-- Generator: Adobe Illustrator 23.0.3, SVG Export Plug-In . SVG Version: 6.00 Build 0)  -->
<svg version="1.1" id="OBJECTS" xmlns="http://www.w3.org/2000/svg" xmlns:xlink="http://www.w3.org/1999/xlink" x="0px" y="0px"
	 viewBox="0 0 454.1 320.4" style="enable-background:new 0 0 454.1 320.4;" xml:space="preserve">
<style type="text/css">
	.st0{fill:#425FA1;}
	.st1{opacity:0.7;fill:#8339BD;}
	.st2{opacity:0.8;fill:#8339BD;}
</style>
<path class="st0" d="M434.3,126.5c-3.6-4.3-7.6-8.2-11.9-11.9l0.1,0c0,0-111.7-75.3-231.2-93.5l0.1,0c-32.7-6.1-76.8-1.6-107.5,14.7
	c-30.6,16.3-49.6,41.2-54.8,67.5C4.8,198,63.5,265.2,63.8,265.6c2.6,4.5,5.7,9,9.3,13.2c29.4,34.8,91.6,48.8,141.4,37.8
	c0,0,110.6-15.5,200.8-86.7l0,0C457.9,197.5,467.2,165.5,434.3,126.5z"/>
<path class="st1" d="M415.7,97.9c-0.5-0.5-1-1.1-1.6-1.8c-5.9-6.4-12.9-11.8-20.4-16.2C365.3,63.4,279,17.2,179.4,2.5l0.1,0
	C146.1-3.5,109.1,1.2,77.6,18C46.3,34.8,26.8,60.2,21.3,87.1c-24.9,96.5,23.6,154,23.9,154.5c2.6,4.6,5.8,9.1,9.5,13.5
	c29.9,35.4,85.4,49.4,136.3,38c0,0,112.4-16.1,204.9-89.1l0,0C439.6,170.5,449.3,137.5,415.7,97.9z"/>
<path class="st2" d="M0.7,211.2c-6.8,41.3,33.9,70.8,83.2,83.7c0,0,108.2,22.8,233.8,3.6h0c31.4-4.3,58.2-15.6,76.4-32.4
	c21-19.4,28.2-49.5,19.1-76.6c-9.9-29.5-35.1-84.1-94.9-130.7l0,0C295.4,39.3,232.1,27,194.9,27c-37.1,0-70.5,12.3-93.4,31.7
	C14.7,126.4,0.7,211.2,0.7,211.2z"/>
</svg>
