<?xml version="1.0" encoding="utf-8"?>
<!-- Generator: Adobe Illustrator 23.0.3, SVG Export Plug-In . SVG Version: 6.00 Build 0)  -->
<svg version="1.1" id="Layer_1" xmlns="http://www.w3.org/2000/svg" xmlns:xlink="http://www.w3.org/1999/xlink" x="0px" y="0px"
	 viewBox="0 0 390.3 317.7" style="enable-background:new 0 0 390.3 317.7;" xml:space="preserve">
<style type="text/css">
	.st0{fill:#FFC10D;}
	.st1{fill:#56ACE0;}
	.st2{fill:#194F82;}
</style>
<path class="st0" d="M367.8,235.5c0,33-27.1,60.1-60.2,60.1c-33,0-60.2-27.1-60.2-60.1c0-23.9,14.1-44.5,34.1-54.2l13,56.4
	c1.6,5.4,7,9.2,13,8.1c5.9-1.6,9.2-7,8.1-13L302,175.3h5.4C340.7,175.4,367.8,202.5,367.8,235.5z"/>
<path class="st1" d="M140.7,224.7H96.8L112,184C126.6,192.7,137.5,207.4,140.7,224.7z M70.8,231.8l20.6-55.3
	c-3.2-0.5-7-1.1-10.3-1.1c-33,0-60.2,27.1-60.2,60.2s27.1,60.2,60.2,60.2c29.3,0,54.2-21.1,59.1-49.3L81,246.4
	C73.6,246.4,68.1,238.3,70.8,231.8z"/>
<path class="st2" d="M307.6,153.2c-3.2,0-7,0.5-10.3,0.5L269.7,35.5h37.9c5.4,0,9.8,4.3,9.8,9.8c0,5.4-4.3,9.8-9.8,9.8h-3.2
	c-5.9,0-10.9,4.8-10.9,10.9c0,5.9,4.8,10.9,10.9,10.9h3.2c17.3,0,31.4-14.1,31.4-31.4s-14-31.6-31.4-31.6h-51.5
	c-6.5,0-11.9,6.5-10.3,13.6l9.2,39.6H147.3l-9.8-31h26c5.9,0,10.9-4.8,10.9-10.9s-4.8-10.9-10.9-10.9h-65l-3.2-7.6
	c-2.2-5.4-8.7-8.1-14.1-5.9s-8.1,8.7-5.9,14.1l5.9,14.6c1.6,4.3,5.4,7,10.3,7h23.3l13.6,41.2l-28.7,78c-5.9-1.1-11.9-2.2-17.9-2.2
	c-45,0.1-81.8,37-81.8,81.9s36.8,81.8,81.8,81.8c41.2,0,75.9-30.9,81.3-71h27.7c4.3,0,7.6-2.2,9.8-5.9l0,0l65.6-130.1l11.4,49.8
	c-29.8,12.5-50.9,41.8-50.9,75.9c0,45,36.8,81.8,81.8,81.8s81.8-36.8,81.8-81.8S352.6,153.2,307.6,153.2z M81.1,295.7
	c-33,0-60.2-27.1-60.2-60.2c0-33,27.1-60.2,60.2-60.2c3.8,0,7,0.5,10.3,1.1l-20.6,55.3c-2.7,6.5,2.2,14.6,10.3,14.6h59.1
	C135.3,274.1,110.4,295.7,81.1,295.7z M96.8,224.7L112,184c14.6,8.7,25.5,23.3,28.7,40.7H96.8z M162.4,224.7
	c-3.8-26.6-20-49.3-42.8-61.2l18.9-52l36.3,113.3L162.4,224.7L162.4,224.7z M192.2,206.8L154.3,89.2h97L192.2,206.8z M307.6,295.7
	c-33,0-60.2-27.1-60.2-60.2c0-23.9,14.1-44.4,34.1-54.2l13,56.4c1.6,5.4,7,9.2,13,8.1c5.9-1.6,9.2-7,8.1-13L302,175.3
	c1.6,0,3.2,0,5.4,0c33,0,60.2,27.1,60.2,60.2S340.7,295.7,307.6,295.7z"/>
</svg>
