<?xml version="1.0" encoding="utf-8"?>
<!-- Generator: Adobe Illustrator 23.0.3, SVG Export Plug-In . SVG Version: 6.00 Build 0)  -->
<svg version="1.1" id="Layer_1" xmlns="http://www.w3.org/2000/svg" xmlns:xlink="http://www.w3.org/1999/xlink" x="0px" y="0px"
	 viewBox="0 0 473 512" style="enable-background:new 0 0 473 512;" xml:space="preserve">
<style type="text/css">
	.st0{fill:#F4C063;}
	.st1{fill:#D57CD4;}
	.st2{fill:#D3468D;}
	.st3{fill:#B7744F;}
	.st4{fill:#F9DCA4;}
	.st5{opacity:0.1;}
	.st6{fill:#E6E6E6;}
	.st7{fill:#CCCCCC;}
</style>
<path class="st0" d="M157.8,18.7L139.2,0l-18.7,18.7c-10.3,10.3-10.3,27,0,37.3l0,0c10.3,10.3,27,10.3,37.3,0l0,0
	C168.1,45.7,168.1,29,157.8,18.7z M265.2,18.7L246.5,0l-18.7,18.7c-10.3,10.3-10.3,27,0.1,37.3l0,0c10.3,10.3,27,10.3,37.3,0l0,0
	C275.5,45.7,275.5,29,265.2,18.7z M372.5,18.7L353.8,0l-18.7,18.7c-10.3,10.3-10.3,27,0,37.3l0,0c10.3,10.3,27,10.3,37.3,0l0,0
	C382.8,45.7,382.8,29,372.5,18.7z"/>
<path class="st1" d="M155.5,83.1v105.6h-21.9h-10.8l0,0V83.1c0-6,4.8-10.8,10.8-10.8h11.1C150.7,72.3,155.5,77.2,155.5,83.1z
	 M252.1,72.3H241c-6,0-10.8,4.8-10.8,10.8v105.6l0,0H241h21.9V83.1C262.9,77.2,258,72.3,252.1,72.3z M359.4,72.3h-11.1
	c-6,0-10.8,4.8-10.8,10.8v105.6l0,0h10.8h21.9V83.1C370.2,77.2,365.4,72.3,359.4,72.3z"/>
<polygon class="st2" points="439.4,253.7 33.6,253.7 33.6,321.7 33.6,321.7 33.6,472 439.4,472 439.4,323 439.4,323 "/>
<polyline class="st2" points="86.4,294.9 86.4,472 33.6,472 33.6,294.9 "/>
<polyline class="st0" points="439.4,350.7 439.4,438 33.6,438 33.6,350.7 "/>
<polyline class="st3" points="439.4,414.4 439.4,481.9 33.6,481.9 33.6,414.4 "/>
<path class="st4" d="M463,235.9c0,36.2-24.3,68.5-59.4,77.2c-4.5,1.1-9.8,1.8-16.1,1.8c-37.8,0-37.8-24.3-75.5-24.3
	c-37.8,0-37.8,24.3-75.5,24.3s-37.8-24.3-75.5-24.3s-37.7,24.3-75.5,24.3c-19.6,0-29-6.5-38.8-12.8c-22.9-14.7-36.7-40-36.7-67.2
	c0-8.7,0-17.4,0-25.1c0-15,12.2-27.2,27.2-27.2h398.7c15,0,27.2,12.2,27.2,27.2L463,235.9L463,235.9z"/>
<g class="st5">
	<polygon points="33.6,414.4 33.6,438 33.6,481.9 86.4,481.9 86.4,438 86.4,414.4 86.4,350.7 33.6,350.7 	"/>
	<path d="M85.5,314.9c12.2,0,20.4-2.5,27.3-6c-4.2-2.1-7.8-4.5-11.5-6.8c-22.9-14.7-36.7-40-36.7-67.2c0-8.7,0-17.4,0-25.1
		c0-15,12.2-27.2,27.2-27.2H37.2c-15,0-27.2,12.2-27.2,27.2c0,7.7,0,16.3,0,25.1c0,27.2,13.8,52.5,36.7,67.2
		C56.5,308.4,65.9,314.9,85.5,314.9z"/>
</g>
<path class="st6" d="M404.5,512h-336c-22.6,0-44-10.1-58.3-27.6L0,472h473l-10.2,12.5C448.5,501.9,427.1,512,404.5,512z"/>
<path class="st7" d="M83,484.4L72.8,472H0l10.2,12.5C24.5,501.9,45.9,512,68.5,512h72.8C118.7,512,97.3,501.9,83,484.4z"/>
</svg>
