<?xml version="1.0" encoding="utf-8"?>
<!-- Generator: Adobe Illustrator 22.1.0, SVG Export Plug-In . SVG Version: 6.00 Build 0)  -->
<svg version="1.1" id="Objects" xmlns="http://www.w3.org/2000/svg" xmlns:xlink="http://www.w3.org/1999/xlink" x="0px" y="0px"
	 viewBox="0 0 194.8 52.6" style="enable-background:new 0 0 194.8 52.6;" xml:space="preserve">
<style type="text/css">
	.st0{fill:#1AD2E5;}
</style>
<title>01</title>
<path class="st0" d="M162,47.9h-4.1v-1.1h2.4l0,0h1.7L162,47.9L162,47.9z M165.2,47.9h1.7v-1.1h-1.7V47.9z M159.6,45.2h-1.7v1.1h1.7
	V45.2z M162.8,46.2h1.7v-1.1h-1.7V46.2z M160.3,44.6h1.7v-1.1h-1.7V44.6z M165.2,44.5h1.7v-1.1h-1.7V44.5z M160.3,43l1.7-0.1l0,0
	h0.7l0,0l1.7-0.1v-1.1l-6.5,0.3v1.1L160.3,43L160.3,43z M160.3,41.3l1.7-0.1v-1.1l-1.7,0.1V41.3z M165.2,40v1.1l1.7-0.1v-1.1
	L165.2,40z M162,38.5l-1.7,0.1v1.1l1.7-0.1V38.5z M162.8,39.6l4.1-0.3v-1.1l-4.1,0.3V39.6z M159.6,37l-1.7,0.1v1.1l1.7-0.1V37z
	 M164.5,36.7l-1.7,0.1v1.1l4.1-0.3v-1.1L164.5,36.7L164.5,36.7z M159.6,35.5l-1.7,0.1v1.1l1.7-0.1V35.5z M162.8,36.3l1.7-0.1V35
	l-1.7,0.1V36.3z M166.9,34.9l-1.7,0.1v1.1l1.7-0.1V34.9z M162,33.6l-1.7,0.2v1.1l1.7-0.2V33.6z M159.6,32.3l-1.7,0.2v1.1l1.7-0.2
	V32.3z M164.5,31.7l-1.7,0.2V33l1.7-0.2V31.7z M166.9,31.5l-1.7,0.2v1.1l1.7-0.2V31.5z M164.5,31.2L164.5,31.2V30l0,0l-0.5,0.1
	l-1.2,0.1l0,0l-4.8,0.6v1.1l6-0.7H164.5z M162,28.7l-1.7,0.2V30l1.7-0.2V28.7z M164.5,28.4l-1.7,0.2v1.1l1.7-0.2V28.4z M23.4,48.2
	v-0.6h-2.6v0.6H23.4z M25.4,48.2h1.1v-0.6h-1.1V48.2z M21.9,46.7h-1.1v0.6h1.1V46.7z M23.9,47.3H25v-0.6h-1.1V47.3z M22.4,46.4h1.1
	v-0.6h-1.1V46.4z M25.4,46.3h1.1v-0.6h-1.1V46.3z M22.4,45.5h1.1l0,0H24l0,0h1.1v-0.7L20.8,45v0.6L22.4,45.5z M22.4,44.6h1.1V44
	h-1.1V44.6z M25.4,43.9v0.6h1.1v-0.6H25.4z M23.4,43.1l-1.1,0.1v0.6l1.1-0.1V43.1z M23.9,43.7l2.6-0.2v-0.6l-2.6,0.2V43.7z
	 M21.9,42.3l-1.1,0.1V43l1.1-0.1V42.3z M24.9,42.1l-1.1,0.1v0.6l2.6-0.2V42L24.9,42.1L24.9,42.1z M21.9,41.4l-1.1,0.1v0.6l1.1-0.1
	V41.4z M23.9,41.9l1.1-0.1v-0.6l-1.1,0.1V41.9z M26.5,41.1l-1.1,0.1v0.6l1.1-0.1V41.1z M23.4,40.4l-1.1,0.1v0.6l1.1-0.1V40.4z
	 M21.9,39.7l-1.1,0.1v0.6l1.1-0.1V39.7z M24.9,39.4l-1.1,0.1v0.6l1.1-0.1V39.4z M26.5,39.2l-1.1,0.1v0.6l1.1-0.1V39.2z M24.9,39.1
	L24.9,39.1v-0.6l0,0h-0.3l-0.8,0.1l0,0l-3,0.3v0.6l3.8-0.4L24.9,39.1z M23.4,37.7l-1.1,0.1v0.6l1.1-0.1V37.7z M24.9,37.5l-1.1,0.1
	v0.6l1.1-0.1V37.5z M77.1,31.8H76v1.6h1.1V31.8z M75.2,31.8h-1.1v1.6h1.1V31.8z M73.3,31.8h-1v1.6h1.1L73.3,31.8z M71.3,31.8h-1.1
	v1.6h1.1V31.8z M69.4,31.8h-1.1v1.6h1.1V31.8z M77.1,34.6H76v1.6h1.1V34.6z M75.2,34.6h-1.1v1.6h1.1V34.6z M73.3,34.6h-1v1.6h1.1
	L73.3,34.6z M71.3,34.6h-1.1v1.6h1.1V34.6z M69.4,34.6h-1.1v1.6h1.1V34.6z M77.1,37.3H76v1.6h1.1V37.3z M75.2,37.3h-1.1v1.6h1.1
	V37.3z M73.3,37.3h-1v1.6h1.1L73.3,37.3z M71.3,37.3h-1.1v1.6h1.1V37.3z M69.4,37.3h-1.1v1.6h1.1V37.3z M77.1,40H76v1.6h1.1V40z
	 M75.2,40h-1.1v1.6h1.1V40z M73.3,40h-1v1.6h1.1L73.3,40z M71.3,40h-1.1v1.6h1.1V40z M69.4,40h-1.1v1.6h1.1V40z M77.1,42.7H76v1.6
	h1.1V42.7z M75.2,42.7h-1.1v1.6h1.1V42.7z M73.3,42.7h-1v1.6h1.1L73.3,42.7z M71.3,42.7h-1.1v1.6h1.1V42.7z M69.4,42.7h-1.1v1.6h1.1
	V42.7z M77.1,45.4H76V47h1.1V45.4z M75.2,45.4h-1.1V47h1.1V45.4z M73.3,45.4h-1V47h1.1L73.3,45.4z M71.3,45.4h-1.1V47h1.1V45.4z
	 M69.4,45.4h-1.1V47h1.1V45.4z M194.8,48.6v4H0v-4h4.1V22.2l10.2-2.7v11.8h5v17.2H20V37.4l4.8-0.6v-3.3l6.7-1.2l0,0l2.4,1.3v15h1
	V24.3h7.4v-6.9l6.4,2.7V16h9.5v5.7H60v4.2h0.5v4h2.3v3h1.5v15.7h2.3V30.1H79v3.3h7.5v15.1h0.3V32.1h2.4V29h0.9v-2l3.1-3.4l3.1,3.4v2
	h0.9v3.1h2.4v16.5h0.7V18.9l6-2.3l14.7,2.3v6.4l1.7-1.3l14.7,1.8v22.9h1.1V20.8l0,0l8.1-14V0h0.5v6.8l8.1,14l0,0v27.8h1.2V28.1
	l7.5-1V21l10.6-2.2v0.5l3.8,2v27.4h2v-4h-0.7l5.4-6.4l5.4,6.4h-0.7v4L194.8,48.6z M10,42.9H7.9V45H10V42.9z M10,40H7.9v2.1H10V40z
	 M10,37.1H7.9v2.1H10V37.1z M10,34.2H7.9v2.1H10V34.2z M10,31.2H7.9v2.1H10V31.2z M10,28.3H7.9v2.1H10V28.3z M10,25.4H7.9v2.1H10
	V25.4z M10,22.4H7.9v2.1H10V22.4z M12.9,42.9h-2.1V45h2.1V42.9z M12.9,40h-2.1v2.1h2.1V40z M12.9,37.1h-2.1v2.1h2.1V37.1z
	 M12.9,34.2h-2.1v2.1h2.1V34.2z M12.9,31.2h-2.1v2.1h2.1V31.2z M12.9,28.3h-2.1v2.1h2.1V28.3z M12.9,25.4h-2.1v2.1h2.1V25.4z
	 M12.9,22.4h-2.1v2.1h2.1V22.4z M27,36.9l-6.7,0.8v10.6H27V36.9z M31.1,32.6l-6,1.1v3.1l2.3-0.3l3,0.9v11h0.8L31.1,32.6L31.1,32.6z
	 M37.7,44.7h-2v2.1h2V44.7z M37.7,41.1h-2v2.1h2V41.1z M37.7,37.4h-2v2.1h2V37.4z M37.7,33.7h-2v2.1h2V33.7z M37.7,30.1h-2v2h2V30.1
	z M37.7,26.4h-2v2.1h2V26.4z M48.3,37.2h-5v1.3h5V37.2z M48.3,34.3h-5v1.3h5V34.3z M48.3,31.4h-5v1.3h5V31.4z M48.3,28.6h-5v1.3h5
	V28.6z M48.3,25.7h-5V27h5V25.7z M48.3,22.8h-5v1.3h5V22.8z M52.3,33h1.5v-3H56v-4h3.3v-3.7h-1.9v-5.7H49v3.8l0.2,0.1v27.9h2.9
	L52.3,33z M55,44.4h-1.9v2.3H55V44.4z M55,41h-1.9v2.3H55V41z M55,37.6h-1.9v2.3H55V37.6z M55,34.2h-1.9v2.3H55V34.2z M57.8,44.4
	h-1.9v2.3h1.9V44.4z M57.8,41h-1.9v2.3h1.9V41z M57.8,37.6h-1.9v2.3h1.9V37.6z M57.8,34.2h-1.9v2.3h1.9V34.2z M60.7,44.4h-1.9v2.3
	h1.9V44.4z M60.7,41h-1.9v2.3h1.9V41z M60.7,37.6h-1.9v2.3h1.9V37.6z M60.7,34.2h-1.9v2.3h1.9V34.2z M63.5,44.4h-1.9v2.3h1.9V44.4z
	 M63.5,41h-1.9v2.3h1.9V41z M63.5,37.6h-1.9v2.3h1.9V37.6z M63.5,34.2h-1.9v2.3h1.9V34.2z M78.4,30.7H67.1v17.4h11.3V30.7z
	 M85.3,45.1h-5v1.4h5V45.1z M85.3,42.6h-5V44h5V42.6z M85.3,40.1h-5v1.4h5V40.1z M85.3,37.6h-5V39h5V37.6z M85.3,35.1h-5v1.4h5V35.1
	z M95.8,31.7h1v-2.1h-1V31.7z M94.3,31.7h1v-2.1h-1V31.7z M92.8,31.7h1v-2.1h-1V31.7z M91.3,31.7h1v-2.1h-1V31.7z M89.8,31.7h1v-2.1
	h-1V31.7z M91.4,46.4h-2.8v1.1h2.8V46.4z M91.4,43.9h-2.8V45h2.8V43.9z M91.4,41.4h-2.8v1.1h2.8V41.4z M91.4,38.9h-2.8V40h2.8V38.9z
	 M91.4,36.4h-2.8v1.1h2.8V36.4z M91.4,34h-2.8v1h2.8V34z M94.7,46.4h-2.8v1.1h2.8V46.4z M94.7,43.9h-2.8V45h2.8V43.9z M94.7,41.4
	h-2.8v1.1h2.8V41.4z M94.7,38.9h-2.8V40h2.8V38.9z M94.7,36.4h-2.8v1.1h2.8V36.4z M94.7,34h-2.8v1h2.8V34z M98,46.4h-2.8v1.1H98
	V46.4z M98,43.9h-2.8V45H98V43.9z M98,41.4h-2.8v1.1H98V41.4z M98,38.9h-2.8V40H98V38.9z M98,36.4h-2.8v1.1H98V36.4z M98,34h-2.8v1
	H98V34z M117.3,35.8l2.1,0.1v-1.6l-2.1-0.1V35.8z M117.3,38.2l2.1,0.1v-1.6l-2.1-0.1V38.2z M114.2,21.3l2.1,0.3V20l-2.1-0.3V21.3z
	 M114.2,26.1l2.1,0.3v-1.6l-2.1-0.3V26.1z M114.2,28.5l2.1,0.2v-1.6l-2.1-0.2V28.5z M111.2,20.9l2.1,0.3v-1.6l-2.1-0.3V20.9z
	 M111.2,25.7l2.1,0.2v-1.6l-2.1-0.2V25.7z M111.2,30.6l2.1,0.2v-1.6l-2.1-0.2V30.6z M111.2,33l2.1,0.2v-1.6l-2.1-0.2V33z
	 M110.3,45.9h-2.1v1.6h2.1V45.9z M110.3,43.5h-2.1V45h2.1V43.5z M110.3,41.1l-2.1-0.1v1.6l2.1,0.1V41.1z M110.3,38.6l-2.1-0.1v1.6
	l2.1,0.1V38.6z M110.3,33.8l-2.1-0.1v1.6l2.1,0.1V33.8z M110.3,28.9l-2.1-0.2v1.6l2.1,0.2V28.9z M110.3,26.5l-2.1-0.2v1.6l2.1,0.2
	V26.5z M110.3,21.6l-2.1-0.3v1.6l2.1,0.3V21.6z M110.3,19.2l-2.1-0.3v1.6l2.1,0.3V19.2z M113.3,43.5h-2.1v1.6h2.1V43.5z M113.3,36.3
	l-2.1-0.1v1.6l2.1,0.1V36.3z M114.2,35.6l2.1,0.1v-1.6l-2.1-0.1V35.6z M116.4,45.9h-2.1v1.6h2.1V45.9z M116.4,43.5h-2.1v1.6h2.1
	V43.5z M116.4,41.2l-2.1-0.1v1.6l2.1,0.1V41.2z M116.4,38.8h-2.1v1.6l2.1,0.1V38.8z M119.4,45.9h-2.1v1.6h2.1V45.9z M119.4,39
	l-2.1-0.1v1.6l2.1,0.1V39z M119.4,32.1l-2.1-0.2v1.6l2.1,0.2V32.1z M119.4,27.5l-2.1-0.2v1.6l2.1,0.2V27.5z M119.4,25.1l-2.1-0.2
	v1.6l2.1,0.2V25.1z M119.4,22.8l-2.1-0.3v1.6l2.1,0.3V22.8z M133.8,38.7l2.1,0.1v-1.2l-2.1-0.1V38.7z M133.8,40.5l2.1,0.1v-1.2
	l-2.1-0.1V40.5z M130.7,27.6l2.1,0.2v-1.2l-2.1-0.2V27.6z M130.7,31.2l2.1,0.2v-1.2l-2.1-0.2V31.2z M130.7,33.1l2.1,0.2V32l-2.1-0.2
	V33.1z M127.7,27.2l2.2,0.2v-1.2l-2.1-0.2L127.7,27.2z M127.7,30.9l2.1,0.2v-1.2l-2.1-0.2C127.7,29.7,127.7,30.9,127.7,30.9z
	 M127.7,34.7l2.1,0.1v-1.2l-2.1-0.2L127.7,34.7z M127.7,36.5l2.1,0.1v-1.2l-2.1-0.1C127.7,35.3,127.7,36.5,127.7,36.5z M126.8,46.5
	h-2.1v1.2h2.1V46.5z M126.8,44.6h-2.1v1.2h2.1V44.6z M126.8,42.7h-2.1v1.2h2.1V42.7z M126.8,40.9l-2.1-0.1V42l2.1,0.1V40.9z
	 M126.8,37.1l-2.1-0.1v1.2l2.1,0.1V37.1z M126.8,33.4l-2.1-0.2v1.2l2.1,0.2V33.4z M126.8,31.5l-2.1-0.2v1.2l2.1,0.2V31.5z
	 M126.8,27.7l-2.1-0.2v1.3l2.1,0.2V27.7z M126.8,25.9l-2.1-0.2v1.2l2.1,0.2V25.9z M129.8,44.7h-2.1v1.2h2.1V44.7z M129.8,39.2
	l-2.1-0.1v1.2l2.1,0.1V39.2z M130.7,38.6l2.1,0.1v-1.2l-2.1-0.1V38.6z M132.9,46.5h-2.1v1.2h2.1V46.5z M132.9,44.7h-2.1v1.2h2.1
	V44.7z M132.9,42.9h-2.1v1.2h2.1V42.9z M132.9,41.1l-2.1-0.1v1.2l2.1,0.1V41.1z M135.9,46.5h-2.1v1.2h2.1V46.5z M135.9,41.2
	l-2.1-0.1v1.2l2.1,0.1V41.2z M135.9,35.8l-2.1-0.1v1.2l2.1,0.1V35.8z M135.9,32.3l-2.2-0.1v1.2l2.1,0.2L135.9,32.3z M135.9,30.5
	l-2.1-0.2v1.2l2.1,0.2V30.5z M135.9,28.7l-2.1-0.2v1.2l2.1,0.2V28.7z M142.9,34.9h-2.2v2.7h2.2V34.9z M142.9,29.9h-2.2v2.7h2.2V29.9
	z M146.5,39.9h-2.2v2.7h2.2V39.9z M146.5,24.9h-2.2v2.7h2.2V24.9z M150,34.9h-2.2v2.7h2.2V34.9z M150,29.9h-2.2v2.7h2.2V29.9z
	 M153.5,39.9h-2.3v2.7h2.2L153.5,39.9z M153.5,29.9h-2.3v2.7h2.2L153.5,29.9z M153.5,24.9h-2.3v2.7h2.2L153.5,24.9z M167.7,27.1
	l-10.6,1.4V48h10.6V27.1z M174.1,19.4l-9.5,2V27l3.6-0.5l4.7,1.6v20.2h1.2V19.4z M183.3,44.9H182V48h1.3V44.9z M185.7,44.9h-1.3V48
	h1.3V44.9z M185.9,42.4c0-0.5-0.4-0.9-0.9-0.9s-0.9,0.4-0.9,0.9s0.4,0.9,0.9,0.9l0,0C185.5,43.3,185.9,42.9,185.9,42.4z M188.1,44.9
	h-1.3V48h1.3V44.9z"/>
</svg>
