<?xml version="1.0" encoding="utf-8"?>
<!-- Generator: Adobe Illustrator 23.0.3, SVG Export Plug-In . SVG Version: 6.00 Build 0)  -->
<svg version="1.1" id="Capa_1" xmlns="http://www.w3.org/2000/svg" xmlns:xlink="http://www.w3.org/1999/xlink" x="0px" y="0px"
	 viewBox="0 0 511.6 438.9" style="enable-background:new 0 0 511.6 438.9;" xml:space="preserve">
<style type="text/css">
	.st0{fill:#3E50B4;}
</style>
<path class="st0" d="M500.9,156.9c-7.1-7.1-15.8-10.7-25.8-10.7l0,0V36.5c0-9.9-3.6-18.5-10.8-25.7C457,3.6,448.4,0,438.5,0
	c-87.7,73.1-173,109.6-255.8,109.6h-137c-12.6,0-23.3,4.5-32.3,13.4C4.5,132,0,142.8,0,155.3v54.8c0,12.6,4.5,23.3,13.4,32.3
	s19.7,13.4,32.3,13.4h34.8c-3.2,10.3-5.3,20.8-6.3,31.5c-0.9,10.8-1.3,20.1-1,28.1s1.7,17.6,4.3,28.8c2.6,11.2,4.8,19.7,6.6,25.4
	c1.8,5.7,4.9,14.7,9.1,27c4.3,12.3,7.1,20.6,8.4,25c8.8,8,21.3,13.3,37.7,15.8c16.4,2.6,32.4,1.5,48.1-3.3s26.3-12.7,31.8-23.7
	c-7.2-5.7-13.1-10.5-17.6-14.4s-9-8.7-13.7-14.3c-4.7-5.6-7.8-10.8-9.6-15.7c-1.7-4.9-2.3-10.4-1.7-16.6s2.8-12.4,6.6-18.7
	c-7.2-7.4-11-16.2-11.4-26.4c-0.4-10.2,2.6-19.7,8.9-28.7c6.3-8.9,14.9-15.2,26-18.8c75.2,6.3,152.5,42.4,231.8,108.5
	c9.9,0,18.5-3.6,25.7-10.9c7.2-7.2,10.8-15.8,10.8-25.7V219.3c10.1,0,18.7-3.6,25.8-10.7c7.1-7.1,10.7-15.8,10.7-25.8
	C511.6,172.6,508.1,164,500.9,156.9z M438.5,318.6c-74.4-56.9-147.5-89.4-219.3-97.4v-77.1c71.2-7.8,144.3-40.4,219.3-97.9V318.6z"
	/>
</svg>
