<?xml version="1.0" encoding="utf-8"?>
<!-- Generator: Adobe Illustrator 23.0.3, SVG Export Plug-In . SVG Version: 6.00 Build 0)  -->
<svg version="1.1" id="Layer_1" xmlns="http://www.w3.org/2000/svg" xmlns:xlink="http://www.w3.org/1999/xlink" x="0px" y="0px"
	 viewBox="0 0 462.2 241.6" style="enable-background:new 0 0 462.2 241.6;" xml:space="preserve">
<style type="text/css">
	.st0{fill:#008DB3;}
	.st1{fill:#76CDCE;}
	.st2{fill:#666666;}
	.st3{fill:#E6E6E6;}
	.st4{fill:#CCCCCC;}
	.st5{fill:#FFFFFF;}
	.st6{fill:#96E0DE;}
</style>
<path class="st0" d="M449.6,124.7c-6.9-16.1-21.9-28.1-40.5-30.2l-70.5-8.1L301,25.2C291.4,9.6,274.3,0,256,0H134.3
	c-31.7,0-59.4,21.1-67.8,51.7l-0.9,3.4c-2.7,9.7-7.8,18.3-14.6,25.2S35.5,92.4,25.9,95.1c-10.5,3.1-17.7,12.6-17.7,23.4v67.9l38.4-9
	c0.8-1.9,1.7-3.7,2.8-5.5C59,155.3,76.8,145,96,145s37,10.3,46.6,26.9c1,1.8,1.9,3.6,2.8,5.5h163.1c0.8-1.9,1.7-3.7,2.7-5.4
	c9.6-16.6,27.5-27,46.6-27c19.2,0,37,10.3,46.6,26.9c1,1.8,2,3.6,2.8,5.5H450h0.3l3.1-27.4c0.1-1.1,0.2-2.2,0.3-3.3
	C453.9,139,452.4,131.5,449.6,124.7z"/>
<path class="st1" d="M116,28.1v58.3H82.5c0,0,3.9-15.8,6.4-24.8l1-3.5c0.5-1.8,1.1-3.6,1.8-5.3C96.3,41.6,105.1,32.8,116,28.1z
	 M131,24.4v62h69V24.2h-65.7C133.2,24.2,132.1,24.3,131,24.4z M280.3,37.9c-5.2-8.4-14.6-13.7-24.5-13.7H215v62.2h95.1L280.3,37.9z"
	/>
<path class="st2" d="M394.7,177.4c-7.4-12.8-21.2-21.4-37-21.4c-15.9,0-29.7,8.6-37.1,21.5c-3.6,6.3-5.7,13.5-5.7,21.3
	c0,0.9,0,1.9,0.1,2.8c1.4,22.3,20,40,42.7,40s41.2-17.7,42.7-40c0.1-0.9,0.1-1.8,0.1-2.8C400.4,191,398.4,183.7,394.7,177.4z
	 M357.7,216.3c-9.7,0-17.5-7.9-17.5-17.5c0-9.7,7.9-17.5,17.5-17.5c9.7,0,17.5,7.9,17.5,17.5S367.4,216.3,357.7,216.3z M95.9,156
	c-15.8,0-29.7,8.6-37.1,21.4c-3.6,6.3-5.7,13.6-5.7,21.3c0,0.9,0,1.9,0.1,2.8c1.4,22.3,20,40,42.7,40s41.2-17.7,42.7-40
	c0.1-0.9,0.1-1.8,0.1-2.8c0-7.8-2.1-15.1-5.7-21.3C125.6,164.6,111.8,156,95.9,156z M95.9,216.3c-9.7,0-17.5-7.9-17.5-17.5
	c0-9.7,7.9-17.5,17.5-17.5c9.7,0,17.5,7.9,17.5,17.5C113.5,208.4,105.6,216.3,95.9,216.3z"/>
<path class="st3" d="M375.2,198.8c0,9.7-7.9,17.5-17.5,17.5c-9.7,0-17.5-7.9-17.5-17.5s7.9-17.5,17.5-17.5
	C367.4,181.2,375.2,189.1,375.2,198.8z M95.9,181.2c-9.7,0-17.5,7.9-17.5,17.5s7.9,17.5,17.5,17.5c9.7,0,17.5-7.9,17.5-17.5
	C113.5,189.1,105.6,181.2,95.9,181.2z"/>
<path class="st4" d="M42.2,198.8c0,0.9,0,1.9,0.1,2.8H12.1c-6.7,0-12.1-5.4-12.1-12.1l0,0c0-6.7,5.4-12.1,12.1-12.1h34.5
	C43.7,184.1,42.2,191.4,42.2,198.8z"/>
<path class="st4" d="M462.2,189.5c0,6.7-5.4,12-12,12h-38.8c0-0.9,0.1-1.8,0.1-2.8c0-7.4-1.5-14.7-4.4-21.3h43.1
	C456.8,177.4,462.2,182.8,462.2,189.5z M145.3,177.4c2.9,6.7,4.4,14,4.4,21.3c0,0.9,0,1.8-0.1,2.8H304c0-0.9-0.1-1.8-0.1-2.8
	c0-7.4,1.5-14.6,4.4-21.3H145.3z M240.5,119.3h15.8c3.3,0,6-2.7,6-6s-2.7-6-6-6h-15.8c-3.3,0-6,2.7-6,6
	C234.5,116.6,237.2,119.3,240.5,119.3z M154,113.3c0-3.3-2.7-6-6-6h-15.8c-3.3,0-6,2.7-6,6s2.7,6,6,6H148
	C151.3,119.3,154,116.6,154,113.3z"/>
<path class="st5" d="M453.5,146.7h-12c-12.1,0-22-9.9-22-22l0,0h30.1C452.9,131.9,454.4,139.1,453.5,146.7z"/>
<path class="st6" d="M131,24.4h69v62h-7L131,24.4z M280.3,37.9c-5.2-8.4-14.6-13.7-24.5-13.7H215l62.2,62.2h32.9L280.3,37.9z
	 M91.6,52.9l24.3,24.3V28.1C105.1,32.8,96.3,41.6,91.6,52.9z"/>
</svg>
