<?xml version="1.0" encoding="utf-8"?>
<!-- Generator: Adobe Illustrator 23.0.3, SVG Export Plug-In . SVG Version: 6.00 Build 0)  -->
<svg version="1.1" id="Layer_1" xmlns="http://www.w3.org/2000/svg" xmlns:xlink="http://www.w3.org/1999/xlink" x="0px" y="0px"
	 viewBox="0 0 504.1 433.2" style="enable-background:new 0 0 504.1 433.2;" xml:space="preserve">
<style type="text/css">
	.st0{fill:#BF392B;}
	.st1{fill:#1E2E37;}
	.st2{fill:#324D5B;}
	.st3{fill:#85C6DC;}
	.st4{fill:#85281E;}
	.st5{fill:#E4E7E7;}
	.st6{fill:#E2574C;}
	.st7{fill:#E87970;}
	.st8{fill:#E0E3E4;}
	.st9{fill:#C0C8CB;}
	.st10{fill:#F4B459;}
	.st11{fill:#92D2E8;}
	.st12{fill:#CCD0D2;}
</style>
<path class="st0" d="M415.8,177.2l-81.7-11.8h83.4C417.5,57.1,385.2,0,251.7,0h-1.2C119.3,0,86.6,57.1,86.6,165.4h83.7l-82.1,11.8
	C39.4,177.2,0,217,0,266.2v19.3c0,14.2,6.7,25.6,25.2,26h453.6c18.9,0,25.2-11.4,25.2-25.6v-19.3C504,217,464.6,177.2,415.8,177.2z"
	/>
<path class="st1" d="M378.1,342.6v27.6c0,11,8.7,19.7,19.3,19.7h31.9v-47.3L378.1,342.6L378.1,342.6z M74.8,389.9h31.9
	c10.6,0,19.3-8.7,19.3-19.7v-27.6H74.8C74.8,342.6,74.8,389.9,74.8,389.9z"/>
<path class="st2" d="M413.5,342.6v64.2c0,14.6,11.8,26.4,26,26.4h14.6c14.6,0,26-11.8,26-26.4v-72.1
	C480.1,334.8,413.5,342.6,413.5,342.6z M23.6,406.8c0,14.6,11.8,26.4,26,26.4h14.6c14.6,0,26-11.8,26-26.4v-64.2l-66.6-7.9
	C23.6,334.8,23.6,406.8,23.6,406.8z"/>
<path class="st3" d="M250.9,19.7h1.2c117.4,0,145.7,50.4,145.7,145.7H106.3C106.3,70.1,135.1,19.7,250.9,19.7z"/>
<path class="st4" d="M252.1,299.3c80.3,0,145.7,15,145.7,33.5s-65.4,33.5-145.7,33.5s-145.7-15-145.7-33.5
	C106.3,314.3,171.7,299.3,252.1,299.3z"/>
<path class="st5" d="M20.1,307.2h463.6c6.7,0,12.2,5.1,12.2,11.8c0,13-11,23.6-24.8,23.6H32.7C18.9,342.6,7.9,332,7.9,319
	C7.9,312.3,13.4,307.2,20.1,307.2L20.1,307.2z"/>
<path class="st6" d="M422.6,165c0,0-45.7,18.1-69.7,98.1c0,0-13.4,44.1-44.1,44.1H195.3c-30.7,0-44.1-44.1-44.1-44.1
	c-24-80-69.3-97.3-69.3-97.3c-15.8-6.3,0-15.8,0-15.8c63.8-36.2,170.1-31.9,170.1-31.9s105.9-4.7,170.5,31.9
	C422.6,150.1,437.2,158.3,422.6,165z"/>
<path class="st0" d="M106.4,159.1c23.2-10.3,62.2-21.3,122.1-21.3v149.7h-34.7c-13,0-23.2-23.6-25.2-29.9
	C151.6,201.6,124.5,172.9,106.4,159.1z M275.7,137.8v149.7h31.1c13.4,0,23.2-23.6,25.2-29.9c16.5-55.1,43.3-84.3,61.4-98.5
	C371,148.9,333.2,138.2,275.7,137.8z"/>
<path class="st7" d="M244.2,118.2H260v189h-15.8V118.2z"/>
<path class="st8" d="M70.9,212.7c-19.7,0-35.4,15.8-35.4,35.4s15.8,35.4,35.4,35.4s35.4-15.8,35.4-35.4
	C106.3,228.4,90.6,212.7,70.9,212.7z M433.2,212.7c-19.7,0-35.4,15.8-35.4,35.4s15.8,35.4,35.4,35.4s35.4-15.8,35.4-35.4
	C468.7,228.4,452.9,212.7,433.2,212.7z"/>
<path class="st9" d="M70.9,236.3c-6.7,0-11.8,5.1-11.8,11.8s5.1,11.8,11.8,11.8s11.8-5.1,11.8-11.8S77.2,236.3,70.9,236.3z
	 M433.2,236.3c-6.7,0-11.8,5.1-11.8,11.8s5.1,11.8,11.8,11.8s11.8-5.1,11.8-11.8S439.9,236.3,433.2,236.3z"/>
<path class="st10" d="M426.5,157.5h-7.1c-7.9,0-14.2,5.9-14.2,13.8v6.7c0,3.9,7.9,6.7,17.3,6.7c9.8,0,17.3-3.2,17.3-6.7v-6.7
	C440.7,163.8,434.4,157.5,426.5,157.5z M83.9,157.5h-7.1c-7.9,0-14.2,5.9-14.2,13.8v6.7c0,3.9,7.9,6.7,17.3,6.7s17.3-3.2,17.3-6.7
	v-6.7C98.1,163.8,91.8,157.5,83.9,157.5z"/>
<path class="st11" d="M117.4,87c19.7-9.8,76.8-35,133.9-35c57.5,0,115.4,25.2,135.1,35.1c-16.5-44.5-55.1-67.3-134.3-67.3h-1.2
	C172.9,19.7,134.3,42.5,117.4,87z"/>
<path class="st12" d="M433.2,220.6c15.4,0,27.6,12.2,27.6,27.6s-12.2,27.6-27.6,27.6s-27.6-12.2-27.6-27.6
	C405.7,232.8,417.9,220.6,433.2,220.6 M70.9,220.6c15.4,0,27.6,12.2,27.6,27.6s-12.2,27.6-27.6,27.6s-27.6-12.2-27.6-27.6
	C43.3,232.8,55.5,220.6,70.9,220.6 M433.2,212.7c-19.7,0-35.4,15.8-35.4,35.4s15.8,35.4,35.4,35.4s35.4-15.8,35.4-35.4
	C468.7,228.4,452.9,212.7,433.2,212.7z M70.9,212.7c-19.7,0-35.4,15.8-35.4,35.4s15.8,35.4,35.4,35.4s35.4-15.8,35.4-35.4
	C106.3,228.4,90.6,212.7,70.9,212.7z"/>
</svg>
