<?xml version="1.0" encoding="utf-8"?>
<!-- Generator: Adobe Illustrator 23.0.3, SVG Export Plug-In . SVG Version: 6.00 Build 0)  -->
<svg version="1.1" id="Layer_1" xmlns="http://www.w3.org/2000/svg" xmlns:xlink="http://www.w3.org/1999/xlink" x="0px" y="0px"
	 viewBox="0 0 341.9 461.3" style="enable-background:new 0 0 341.9 461.3;" xml:space="preserve">
<style type="text/css">
	.st0{fill:#D8D9DD;}
	.st1{fill:#FFFFFF;}
	.st2{fill:#59595A;}
	.st3{fill:#E5C400;}
</style>
<rect x="63.5" y="334.5" class="st0" width="214.8" height="105.9"/>
<rect x="88.7" y="359.7" class="st1" width="164.4" height="55.5"/>
<rect x="52.1" y="435.6" class="st2" width="237.6" height="25.7"/>
<path class="st3" d="M256.6,327.1v7.4H85.2v-7.4c0-14.8,12-26.8,26.8-26.8h117.9C244.6,300.3,256.6,312.3,256.6,327.1z M332.3,88.2
	c-10.8,32.9-35.8,76.7-93.7,102.2c-13.2,16.5-29.9,28.4-50.7,32.5v77.3H154V223c-20.9-4.2-37.5-16-50.7-32.5
	c-58-25.6-83-69.4-93.8-102.3c-12.1-36.9-9.3-67.7-9.2-69l0.9-9h54.2C55.3,6.6,55.3,3.3,55.3,0c47.8,0,115.6,0,115.6,0
	s67.8,0,115.6,0c0,3.3,0,6.6-0.1,10.1h54.2l0.9,9C341.6,20.5,344.4,51.3,332.3,88.2z M83,156.4C65.9,118,58.5,69.9,56.2,30.1H20
	c0.1,11,1.5,30.7,8.7,52.6C39.1,113.7,57.3,138.4,83,156.4z M321.8,30.1h-36.2c-2.4,39.8-9.7,87.9-26.8,126.3
	c26-18.1,44.2-43,54.5-74.4C320.4,60.3,321.7,40.9,321.8,30.1z"/>
</svg>
