<?xml version="1.0" encoding="utf-8"?>
<!-- Generator: Adobe Illustrator 23.0.3, SVG Export Plug-In . SVG Version: 6.00 Build 0)  -->
<svg version="1.1" id="Capa_1" xmlns="http://www.w3.org/2000/svg" xmlns:xlink="http://www.w3.org/1999/xlink" x="0px" y="0px"
	 viewBox="0 0 388.3 351" style="enable-background:new 0 0 388.3 351;" xml:space="preserve">
<g>
	<path d="M264.1,147.9c21.4,11.5,62.6,8,93.9-23.4c31.1-31.1,42.8-76.5,13.4-106.8l0,0c-0.1-0.1-0.6-0.6-0.8-0.8c0,0,0,0,0,0
		c-30.3-29.4-75.7-17.6-106.8,13.4c-31.3,31.3-34.8,72.5-23.4,93.9c-3,17.5-27,36.5-48.5,48.9c-16.6-10.3-37.6-28.4-39.8-64.8
		c1.6-14.6-3.2-29.7-14.3-40.8c-1-1-4-3.5-4-3.5L52.7,0.8l-7.4,7.4l88.1,82.6l-9.6,9.6L38.5,15l-7.8,7.8l85.3,85.4l-8.1,8.1
		L22.5,30.9L15.4,38l84.8,84.8l-9.7,9.8L8.1,45.3L0,53.4l67.4,84.9c0,0,1.6,1.6,2.3,2.2c9.8,8.6,22.1,12.6,34.3,12.3
		c0.1,0,0.2,0,0.3,0c32.1,0.3,51.9,19.8,64.4,36.6C138.1,220.1,43.4,314.7,43.4,314.7l0,0c-0.1,0.1-0.2,0.2-0.3,0.2
		c-7.7,7.7-7.7,20.2,0,27.9c0.4,0.4,1.9,1.9,2.3,2.3c7.7,7.7,20.2,7.7,27.9,0c0.1-0.1,0.2-0.2,0.3-0.3l0,0
		c0,0,87.9-87.9,121.6-121.6c32.1,32.1,121,121,121,121l0,0c0.1,0.1,0.1,0.2,0.2,0.3c7.6,7.6,19.9,7.6,27.5,0
		c7.6-7.6,7.6-19.9,0-27.5c-0.1-0.1-0.2-0.1-0.3-0.2l0,0c0,0-98.2-98.2-125.5-125.5C230.5,171.2,247.9,150.6,264.1,147.9z
		 M253.6,89.2c0.5-5.2,1.5-11.2,3.2-17.5c0.9-3.2,2-6.4,3.3-9.7c1.5-3.3,3-6.4,5.2-9.7c4.3-6.2,9.5-11.1,14.6-15.1
		c5.1-4.1,10.3-7.3,14.9-9.7c4.6-2.5,8.7-4.1,11.6-5c3-1,4.7-1.1,4.7-1.1s-1.4,1.1-3.6,3.1c-2.2,2-5.2,4.9-8.9,8.3
		c-7.1,6.9-17.2,15.9-24.4,25.7c-1.7,2.2-3.3,5.2-4.6,7.9c-1.5,2.8-2.8,5.6-4,8.4c-2.5,5.6-4.5,11-6.3,15.7c-1.7,4.7-3,8.7-3.8,11.5
		c-0.9,2.8-0.7,4.5-0.6,4.5c-0.1,0.1-1.1-1.5-1.4-4.6C253.2,98.8,253.1,94.4,253.6,89.2z"/>
</g>
</svg>
