<?xml version="1.0" encoding="utf-8"?>
<!-- Generator: Adobe Illustrator 23.0.3, SVG Export Plug-In . SVG Version: 6.00 Build 0)  -->
<svg version="1.1" id="Capa_1" xmlns="http://www.w3.org/2000/svg" xmlns:xlink="http://www.w3.org/1999/xlink" x="0px" y="0px"
	 viewBox="0 0 360 410" style="enable-background:new 0 0 360 410;" xml:space="preserve">
<style type="text/css">
	.st0{fill:#D80027;}
	.st1{fill:#FF5023;}
	.st2{fill:#A2001D;}
	.st3{fill:#DEDDE0;}
	.st4{fill:#FFFFFF;}
</style>
<path class="st0" d="M360,170v240L225,297.5l95-89.7l0,0L360,170z M0,410h180v-70l-45-42.5L0,410z"/>
<path class="st1" d="M0,170l135,127.5L0,410V170z M40,132.2L0,170h40V132.2z M320,132.2V170h40L320,132.2z M116.2,60.2L243.6,60
	L180,0L116.2,60.2z"/>
<path class="st2" d="M225,297.5L360,410H180v-70L225,297.5z M360,170h-40v37.8L360,170z M0,170l40,37.8V170H0z M40,207.8L40,207.8
	L180,340l-45-42.5L40,207.8z"/>
<path id="XMLID_1266_" class="st3" d="M40,207.8L180,340l45-42.5l95-89.7l0,0V170v-37.8V60l-76.4,0.1l-127.4,0.2H40v71.9V170V207.8z
	 M90,180h180v30H90V180z M90,150v-30h180v30H90z"/>
<path class="st4" d="M270,120v30H90v-30H270z M90,210h180v-30H90V210z"/>
</svg>
