<?xml version="1.0" encoding="utf-8"?>
<!-- Generator: Adobe Illustrator 23.0.3, SVG Export Plug-In . SVG Version: 6.00 Build 0)  -->
<svg version="1.1" id="Capa_1" xmlns="http://www.w3.org/2000/svg" xmlns:xlink="http://www.w3.org/1999/xlink" x="0px" y="0px"
	 viewBox="0 0 496 496" style="enable-background:new 0 0 496 496;" xml:space="preserve">
<g>
	<g>
		<polygon points="271.9,209.6 338.4,114.5 257.5,39 144.5,79.7 148.3,186.1 		"/>
		<polygon points="228.9,402.4 289.7,465.8 396,420.4 413.3,326.5 307.8,313.5 		"/>
		<path d="M15.7,336.8l1.3,1.6C53.2,430.7,143,496,248,496c137,0,248-111,248-248C496,111,385,0,248,0C111,0,0,111,0,248
			c0,30.7,5.6,60,15.8,87.1L15.7,336.8z M12.9,248c0-31.3,6.2-61.2,17.4-88.6L89,86.7l15.2-24.4C144,31.4,193.9,12.9,248,12.9
			c1.3,0,2.6,0.1,3.9,0.1l26.2,9.7l57.8,7.4c37,15,69.4,39.2,94.3,69.7l-9.6,41.9l38,107.1l24.3,6.1
			C479.2,381.4,375.3,483.1,248,483.1c-63.4,0-120.9-25.2-163.2-66.2l45.6-39.2L86.8,265.5L18.7,242l-1.6,50
			C14.4,277.8,12.9,263.1,12.9,248z"/>
	</g>
</g>
</svg>
