<?xml version="1.0" encoding="utf-8"?>
<!-- Generator: Adobe Illustrator 23.0.3, SVG Export Plug-In . SVG Version: 6.00 Build 0)  -->
<svg version="1.1" id="Layer_1" xmlns="http://www.w3.org/2000/svg" xmlns:xlink="http://www.w3.org/1999/xlink" x="0px" y="0px"
	 viewBox="0 0 504.2 504.1" style="enable-background:new 0 0 504.2 504.1;" xml:space="preserve">
<style type="text/css">
	.st0{fill:#EB6258;}
	.st1{fill:#C54B42;}
	.st2{fill:#D05045;}
	.st3{fill:#BB483E;}
	.st4{fill:#E2574C;}
	.st5{fill:#EFEFEF;}
	.st6{fill:#D1D1D1;}
</style>
<path class="st0" d="M504.1,142.2l-15.8,7.9V386L252.1,504.1L15.8,386V150.4L0,142.6v-16.9L252.1,0l252.1,125.6v16.6H504.1z"/>
<path class="st1" d="M15.8,157.5v73.6l235.5,115.4l237.1-115.8v-73.3L252.1,273.3L15.8,157.5z"/>
<path class="st2" d="M252.1,504.1v-252L31.5,141.8H15.8V386L252.1,504.1z"/>
<path class="st3" d="M15.8,157.5v73.6l235.5,115.4l0.8-0.4v-73.3v0.4L15.8,157.5z"/>
<path class="st4" d="M0,126l252.1,123.3l252-123.3v81.5L251.3,330.8L0,207.6V126z"/>
<path class="st5" d="M320.4,126.4c53.4-12.7,81.3-39.8,81.3-66.2c0-7.1-1.6-14.2-5.1-20.5c-8.3-15-26-24-46.9-24
	c-47.7,0-81.1,44.5-97.7,72.9c-16.5-28.4-50.4-72.5-97.7-72.5c-30.3,0-52,18.5-52,43.7c0,32.8,26.3,57.2,79,68l-86.9,45.9v12.6
	l63,27.6v-9.1l94.5-51.2l94.5,51.2v9.1l63-28v-12.6L320.4,126.4z M164.6,88.2c-11-7.5-15-15.8-15-21.3c0-6.7,6.3-11.8,15.4-11.8
	c21.3,0,38.2,28,47.7,47.3C187.9,100.4,173.3,93.7,164.6,88.2z M339.1,55.1c9.1,0,15.4,5.1,15.4,11.8c0,5.5-3.9,13.8-15,21.3
	c-8.7,5.5-23.2,12.2-48,14.2C300.5,83.1,317.4,55.1,339.1,55.1z"/>
<g>
	<polygon class="st6" points="346.6,204.8 346.6,456.5 409.6,425 409.6,173.3 	"/>
	<polygon class="st6" points="94.5,425.4 157.5,456.9 157.5,205.2 94.5,173.3 	"/>
</g>
</svg>
