<?xml version="1.0" encoding="utf-8"?>
<!-- Generator: Adobe Illustrator 23.0.3, SVG Export Plug-In . SVG Version: 6.00 Build 0)  -->
<svg version="1.1" id="Capa_1" xmlns="http://www.w3.org/2000/svg" xmlns:xlink="http://www.w3.org/1999/xlink" x="0px" y="0px"
	 viewBox="0 0 116.5 184.5" style="enable-background:new 0 0 116.5 184.5;" xml:space="preserve">
<style type="text/css">
	.st0{fill:#FCD0A3;}
	.st1{opacity:0.16;fill:#FCD0A3;enable-background:new    ;}
	.st2{fill:#E94941;}
	.st3{fill:#EA524B;}
	.st4{fill:#AD483E;}
	.st5{fill:#BC4E43;}
	.st6{fill:none;stroke:#6F6F6E;stroke-width:0.1;stroke-linecap:round;stroke-linejoin:round;stroke-miterlimit:10;}
	.st7{fill:#DC2A2C;}
	.st8{opacity:0.25;fill:#F296A4;enable-background:new    ;}
	.st9{fill:#67657B;}
	.st10{fill:#8E8D9C;}
	.st11{fill:#5F5D73;}
	.st12{opacity:0.35;fill:#1D1A3A;enable-background:new    ;}
	.st13{fill:#FFFFFF;}
</style>
<g>
	<g>
		<g>
			<path class="st0" d="M98.2,102.4c4,0,7.7-3.4,7.7-7.7c0-4.2-3.7-7.7-7.7-7.7L98.2,102.4L98.2,102.4z"/>
			<path class="st1" d="M98.2,102.4c4,0,7.7-3.4,7.7-7.7c0-4.2-3.7-7.7-7.7-7.7L98.2,102.4L98.2,102.4z"/>
		</g>
		<g>
			<path class="st0" d="M20.2,102.4c-4,0-7.7-3.4-7.7-7.7c0-4.2,3.7-7.7,7.7-7.7V102.4z"/>
			<path class="st1" d="M20.2,102.4c-4,0-7.7-3.4-7.7-7.7c0-4.2,3.7-7.7,7.7-7.7V102.4z"/>
		</g>
	</g>
	<g>
		<g>
			<g>
				<path class="st0" d="M94.6,179.3c-0.3-1.7-0.8-3.4-1.5-5.1c-0.3-0.7-0.7-1.5-1.1-2.2c-1-1.8-2.3-3.5-3.8-5.1
					c-0.7-0.8-1.5-1.5-2.4-2.2c-2.6-2.2-5.7-4.1-9.2-5.4c-3.2-1.3-6.7-2.1-10.4-2.4c-1.2-0.1-2.4-0.2-3.7-0.2h-6.8
					c-1.2,0-2.5,0.1-3.7,0.2c-3.7,0.3-7.2,1.2-10.4,2.4c-3.5,1.4-6.6,3.2-9.2,5.4c-0.8,0.7-1.6,1.4-2.4,2.2
					c-1.5,1.6-2.8,3.3-3.8,5.1c-0.4,0.7-0.7,1.4-1.1,2.2c-0.7,1.6-1.2,3.3-1.5,5.1c-0.1,0.7-0.2,1.5-0.2,2.2
					c1.2,0.2,2.3,0.4,3.5,0.6c4,0.6,8,1.1,11.9,1.5c0.2,0,0.3,0,0.5,0c17.3,1.7,34.7,1.1,51.9-1.5c1.2-0.2,2.3-0.4,3.5-0.6
					C94.7,180.8,94.7,180,94.6,179.3z"/>
				<path class="st2" d="M93.1,174.3c-0.3-0.8-0.7-1.6-1.2-2.4c0,0,0,0,0,0l-1,0.2c-21,3.7-42.4,3.7-63.3,0l-1-0.2c0,0,0,0,0,0
					c-0.4,0.8-0.8,1.6-1.2,2.4c-0.7,1.6-1.2,3.3-1.5,5.1c-0.1,0.7-0.2,1.5-0.2,2.2c1.2,0.2,2.3,0.4,3.5,0.6c4,0.6,8,1.1,11.9,1.5
					c0.2,0,0.3,0,0.5,0c17.3,1.7,34.7,1.1,51.9-1.5c1.2-0.2,2.3-0.4,3.5-0.6c0-0.7-0.1-1.5-0.2-2.2
					C94.3,177.6,93.8,175.9,93.1,174.3z"/>
			</g>
			<g>
				<g>
					<g>
						<path class="st2" d="M66,28.6c-5.2,0-9.6,0.8-15.5,2.3c-5.3,1.3-14.7,5.7-15.2,11.9c-0.4,4.5,1.6,7.3,4.2,10.6
							C45,60.7,54,64.3,62.9,65.3c4.5,0.5,9.1,0.4,13.6-0.3c4.5-0.7,9.4-3,13.8-0.8c6.2,3,6.8,10.4,5.9,16.4
							c-0.9,5.7-5.2,10.6-5.6,16.4c-0.3,3.4,1.1,5.9,3.3,7.5c2.7-3.2,5-2.5,7.8-9.8C103.4,90.1,116.1,34,66,28.6z"/>
						<g>
							<path class="st3" d="M83.3,37.2c0,0,15.6-8.3-1.6-37.2C81.7,0,60.4,24.2,83.3,37.2z"/>
							<path class="st2" d="M82.8,37.1c0,0-8.4-15.6,21.9-30.2C104.7,7,109.1,38.9,82.8,37.1z"/>
						</g>
					</g>
					<path class="st4" d="M104.8,110.7c-7.8-8.8-9.2-19.3-10-30.6c0.1-0.3,0.2-0.6,0.1-0.9c-0.1-0.6-0.3-1.3-0.4-1.9
						c-0.1-0.4-0.5-0.8-0.9-0.9c-23.5-4.3-47.1,2.3-70.8,0.8c-1.1-0.1-1.5,1-1.2,1.8c0,0.1-0.1,0.2-0.1,0.4
						c-0.7,11.6-2.1,22.4-10,31.4c-5.3,6-11.4,11.8-11.6,20.4c-0.4,14.6,14.3,23.7,26.8,18.9c3.3,3.5,9,3.5,13.5,3.2
						c3.6-0.3,6.8-1.3,9.3-3.5c0.1,0.1,0.2,0.2,0.4,0.3c2.7,1.4,5.5,2,8.3,2c2.8,0,5.7-0.6,8.3-2c0.1-0.1,0.3-0.2,0.4-0.3
						c2.5,2.2,5.7,3.2,9.3,3.5c4.5,0.4,10.2,0.4,13.5-3.2c12.5,4.8,27.2-4.3,26.8-18.9C116.2,122.5,110.1,116.8,104.8,110.7z"/>
				</g>
				<g>
					<g>
						<path class="st0" d="M59.2,159.9L59.2,159.9c-1.9,0-3.5-1.6-3.5-3.5v-14c0-1.9,1.6-3.5,3.5-3.5l0,0c1.9,0,3.5,1.6,3.5,3.5v14
							C62.7,158.3,61.1,159.9,59.2,159.9z"/>
						<path class="st0" d="M59.2,146.3L59.2,146.3c-21.9,0-39.7-17.8-39.7-39.7v-34C19.5,50.7,37.3,33,59.2,33h0
							c21.9,0,39.7,17.8,39.7,39.7v34C98.9,128.5,81.1,146.3,59.2,146.3z"/>
					</g>
					<path class="st1" d="M37.5,135.9c-5.9-7.4-7.6-16.1-7.8-25.3c-0.2-9.2-0.3-17.5,0.3-26.7c0.5-8.9,2.3-17.6,6.8-25
						c6.2-10.1,17.3-19.7,28-25.5C62.9,33.1,61,33,59.1,33l0,0c-21.9,0-39.7,17.8-39.7,39.7v34c0,18,12,33.2,28.5,38.1
						C44,142.4,40.4,139.5,37.5,135.9z"/>
				</g>
				<g>
					<path class="st4" d="M58.5,31c-7.4,0.1-14.3,2.2-20.3,5.7c-1.8,0.3-3.7,0.6-5.6,0.7c-3.8,0.2-7.6,0-11.3,1
						c-10.2,3-13.9,14.1-13.1,23.8c1,11.5,8,21.7,20.5,21.7h33.3c16.6,0,18.6-5.6,22.8-14.4c1.5-3.2,5.2-4,7.9-2.6
						c1.6,0.8,2.6,2.5,2.9,4.3l3.2,23.5l2-21.3C100.9,50.1,81.8,30.6,58.5,31z"/>
					<path class="st5" d="M58.5,31c-7.4,0.1-14.3,2.2-20.3,5.7c-1.8,0.3-3.7,0.6-5.6,0.7c-3.8,0.2-7.6,0-11.3,1
						c-10.2,3-13.9,14.1-13.1,23.8c1,11.5,8,21.7,20.5,21.7h33.3c5.7,0,9.7-0.7,12.6-1.9c-0.1-0.3-0.1-0.6-0.2-0.9
						c-0.3-1.8-1.1-3.5-2.5-4.6c-5-4.1-9.9-9.1-6.8-16.6c3.3-7.9,14.5-9.9,21.6-6c7.2,4,9.1,11.4,9,18.9l3,21.9l2-21.3
						C102.4,52.9,81.9,30.8,58.5,31z"/>
				</g>
			</g>
		</g>
		<g>
			<g>
				<path class="st6" d="M37.8,122.2c5.6,5.2,13.1,8.3,21.4,8.3c8.3,0,15.8-3.2,21.4-8.3"/>
				<g>
					<path class="st7" d="M54,130.1l1.5,1.8c0.6,0.8,1.6,1.2,2.6,1.2h2.5c1,0,1.9-0.5,2.5-1.3l1.4-1.8L54,130.1L54,130.1z"/>
					<path class="st2" d="M59.7,128l-0.3,0.3c-0.1,0.1-0.4,0.1-0.5,0l-0.3-0.3c-0.7-0.7-1.9-0.7-2.6,0l-2,2h2.7
						c0.7,0,1.3,0.1,1.9,0.3l0.3,0.1c0.2,0.1,0.4,0.1,0.7,0l0.3-0.1c0.5-0.2,1.1-0.3,1.7-0.3h2.8l-2.1-2.1
						C61.6,127.3,60.4,127.3,59.7,128z"/>
				</g>
			</g>
			<g>
				
					<ellipse transform="matrix(0.2525 -0.9676 0.9676 0.2525 -76.3375 113.377)" class="st8" cx="35.2" cy="106.1" rx="7.4" ry="12"/>
				
					<ellipse transform="matrix(0.9676 -0.2525 0.2525 0.9676 -24.0949 24.4236)" class="st8" cx="83.1" cy="106.1" rx="12" ry="7.4"/>
			</g>
			<g>
				<g>
					<g>
						<g>
							<g>
								<path class="st9" d="M80.2,93.4c1.4,0.3,2.8-0.5,3.2-1.8c0-0.2-0.2-0.2-0.2-0.1c-0.4,1.2-1.7,1.9-2.9,1.6
									C80.1,93.1,80.1,93.3,80.2,93.4L80.2,93.4z"/>
							</g>
						</g>
						<g>
							<g>
								<path class="st9" d="M80.1,93c1.2,0,2.2-1,2.2-2.1c0-0.2-0.2-0.2-0.3,0c-0.1,1.1-0.9,1.9-2,1.9C79.9,92.7,79.9,93,80.1,93
									L80.1,93z"/>
							</g>
						</g>
						<g>
							<g>
								<path class="st9" d="M80.3,93.7c0.9,0.6,2,0.8,3.1,0.5c0.2,0,0.1-0.3-0.1-0.2c-1,0.3-2,0.2-2.9-0.4
									C80.3,93.4,80.2,93.6,80.3,93.7L80.3,93.7z"/>
							</g>
						</g>
					</g>
					<g>
						<g>
							<circle class="st9" cx="77.3" cy="94.6" r="3.3"/>
							<circle class="st10" cx="77.3" cy="94.6" r="3.1"/>
							<polygon class="st11" points="74.7,93.2 76,93.8 74.8,92.9 76.1,93.7 75,92.7 76.2,93.6 75.3,92.4 76.3,93.5 75.5,92.2 
								76.5,93.4 75.8,92 76.6,93.3 76.1,91.9 76.8,93.2 76.4,91.8 76.9,93.2 76.7,91.7 77.1,93.1 77,91.7 77.2,93.1 77.3,91.6 
								77.4,93.1 77.7,91.7 77.5,93.2 78,91.7 77.7,93.2 78.3,91.8 77.9,93.2 78.6,91.9 78,93.3 78.9,92.1 78.1,93.4 79.1,92.3 
								78.3,93.5 79.4,92.5 78.4,93.6 79.6,92.7 78.5,93.7 79.8,93 78.6,93.9 79.9,93.3 78.6,94 80.1,93.6 78.7,94.2 80.2,93.9 
								78.7,94.3 80.2,94.2 78.8,94.5 80.3,94.5 78.8,94.6 80.2,94.8 78.8,94.8 80.2,95.1 78.7,95 80.1,95.5 78.7,95.1 80,95.8 
								78.6,95.3 79.9,96.1 78.5,95.4 79.7,96.3 78.5,95.5 79.5,96.6 78.3,95.7 79.3,96.8 78.2,95.8 79,97 78.1,95.9 78.8,97.2 
								78,95.9 78.5,97.3 77.8,96 78.2,97.5 77.7,96.1 77.9,97.5 77.5,96.1 77.6,97.6 77.3,96.1 77.2,97.6 77.2,96.1 76.9,97.6 
								77,96.1 76.6,97.5 76.9,96 76.3,97.4 76.7,96 76,97.3 76.6,95.9 75.7,97.1 76.4,95.8 75.4,97 76.3,95.7 75.2,96.7 76.2,95.6 
								75,96.5 76.1,95.5 74.8,96.2 76,95.4 74.6,96 75.9,95.2 74.5,95.7 75.9,95.1 74.4,95.4 75.8,94.9 74.3,95 75.8,94.8 
								74.3,94.7 75.8,94.6 74.3,94.4 75.8,94.4 74.4,94.1 75.8,94.3 74.4,93.8 75.9,94.1 74.5,93.5 75.9,94 							"/>
						</g>
						<g>
							<circle class="st12" cx="77.3" cy="94.6" r="1.6"/>
							<path class="st13" d="M78.3,93.9C78.3,93.9,78.3,93.9,78.3,93.9c0-0.3-0.2-0.5-0.5-0.5c-0.3,0-0.5,0.2-0.5,0.5
								c0,0.3,0.2,0.5,0.5,0.5c0,0,0.1,0,0.1,0c0,0,0.1,0,0.1,0c0.2,0,0.3-0.1,0.3-0.3C78.3,94,78.3,94,78.3,93.9z"/>
						</g>
					</g>
				</g>
				<g>
					<g>
						<g>
							<g>
								<path class="st9" d="M39.2,93.2c-1.2,0.3-2.5-0.4-2.9-1.6c0-0.2-0.3-0.1-0.2,0.1c0.4,1.3,1.8,2.1,3.2,1.8
									C39.4,93.4,39.4,93.1,39.2,93.2L39.2,93.2z"/>
							</g>
						</g>
						<g>
							<g>
								<path class="st9" d="M39.4,92.8c-1,0-1.9-0.8-2-1.9c0-0.2-0.3-0.2-0.3,0c0.1,1.2,1.1,2.1,2.2,2.1
									C39.6,93,39.6,92.8,39.4,92.8L39.4,92.8z"/>
							</g>
						</g>
						<g>
							<g>
								<path class="st9" d="M39,93.5c-0.9,0.6-1.9,0.7-2.9,0.4c-0.2,0-0.2,0.2-0.1,0.2c1.1,0.3,2.2,0.2,3.1-0.5
									C39.3,93.6,39.2,93.4,39,93.5L39,93.5z"/>
							</g>
						</g>
					</g>
					<g>
						<g>
							<circle class="st9" cx="42.1" cy="94.7" r="3.3"/>
							<circle class="st10" cx="42.1" cy="94.7" r="3.1"/>
							<polygon class="st11" points="39.5,93.2 40.8,93.9 39.7,92.9 40.9,93.7 39.9,92.7 41,93.6 40.1,92.5 41.2,93.5 40.3,92.3 
								41.3,93.4 40.6,92.1 41.4,93.3 40.9,91.9 41.6,93.3 41.2,91.8 41.7,93.2 41.5,91.7 41.9,93.2 41.8,91.7 42.1,93.2 42.2,91.7 
								42.2,93.2 42.5,91.7 42.4,93.2 42.8,91.8 42.5,93.2 43.1,91.9 42.7,93.3 43.4,92 42.8,93.4 43.7,92.1 43,93.4 43.9,92.3 
								43.1,93.5 44.2,92.5 43.2,93.7 44.4,92.8 43.3,93.8 44.6,93 43.4,93.9 44.8,93.3 43.5,94.1 44.9,93.6 43.5,94.2 45,93.9 
								43.6,94.4 45.1,94.2 43.6,94.5 45.1,94.6 43.6,94.7 45.1,94.9 43.6,94.8 45,95.2 43.6,95 45,95.5 43.5,95.2 44.9,95.8 
								43.4,95.3 44.7,96.1 43.4,95.4 44.5,96.4 43.3,95.6 44.3,96.6 43.2,95.7 44.1,96.9 43.1,95.8 43.9,97.1 42.9,95.9 43.6,97.2 
								42.8,96 43.3,97.4 42.6,96.1 43,97.5 42.5,96.1 42.7,97.6 42.3,96.1 42.4,97.6 42.2,96.1 42.1,97.6 42,96.1 41.7,97.6 
								41.8,96.1 41.4,97.6 41.7,96.1 41.1,97.5 41.5,96 40.8,97.3 41.4,96 40.5,97.2 41.3,95.9 40.3,97 41.1,95.8 40,96.8 41,95.7 
								39.8,96.5 40.9,95.5 39.6,96.3 40.8,95.4 39.5,96 40.7,95.3 39.3,95.7 40.7,95.1 39.2,95.4 40.7,95 39.2,95.1 40.6,94.8 
								39.1,94.8 40.6,94.6 39.1,94.4 40.6,94.5 39.2,94.1 40.7,94.3 39.3,93.8 40.7,94.2 39.4,93.5 40.8,94 							"/>
						</g>
						<g>
							<circle class="st12" cx="42.1" cy="94.7" r="1.6"/>
							<path class="st13" d="M43.1,93.9C43.1,93.9,43.1,93.9,43.1,93.9c0-0.3-0.2-0.5-0.5-0.5c-0.3,0-0.5,0.2-0.5,0.5
								c0,0.3,0.2,0.5,0.5,0.5c0,0,0.1,0,0.1,0c0,0,0.1,0,0.1,0c0.2,0,0.3-0.1,0.3-0.3C43.1,94,43.1,94,43.1,93.9z"/>
						</g>
					</g>
				</g>
			</g>
		</g>
	</g>
</g>
</svg>
