<?xml version="1.0" encoding="utf-8"?>
<!-- Generator: Adobe Illustrator 22.0.1, SVG Export Plug-In . SVG Version: 6.00 Build 0)  -->
<svg version="1.1" id="Layer_1" xmlns="http://www.w3.org/2000/svg" xmlns:xlink="http://www.w3.org/1999/xlink" x="0px" y="0px"
	 viewBox="0 0 105 85" style="enable-background:new 0 0 105 85;" xml:space="preserve">
<style type="text/css">
	.st0{fill:#CE64FF;}
</style>
<path class="st0" d="M102.8,74.2c-0.4,0.7-0.8,1.4-1.3,2.1c-0.2,0.3-0.5,0.7-0.8,1c-0.1,0.2-0.3,0.3-0.4,0.5
	c-0.1,0.2-0.3,0.3-0.4,0.5c-0.2,0.2-0.3,0.3-0.5,0.5c-0.2,0.2-0.3,0.3-0.5,0.5c-0.3,0.3-0.7,0.6-1,0.9c-0.7,0.6-1.4,1.1-2.2,1.6
	c-0.8,0.5-1.6,0.9-2.5,1.3c-0.9,0.4-1.8,0.7-2.7,0.9c-0.9,0.3-1.9,0.5-2.8,0.6c-1,0.1-1.9,0.2-2.9,0.3C81,85,77,84.3,73.2,83
	l-0.3-0.1l-0.1,0l-0.1,0l-0.2-0.1c-0.2-0.1-0.5-0.2-0.7-0.3c-0.5-0.2-0.9-0.5-1.4-0.7c-0.4-0.3-0.9-0.5-1.3-0.8
	c-0.4-0.3-0.8-0.6-1.2-0.9c-1.6-1.3-3-2.8-4.3-4.3c-0.7-0.8-1.3-1.5-2-2.3c-0.7-0.8-1.3-1.5-2-2.2c-0.3-0.4-0.7-0.7-1-1
	c-0.3-0.3-0.7-0.7-1-1c-0.7-0.6-1.4-1.2-2.2-1.7c-0.4-0.3-0.8-0.5-1.2-0.7l-0.3-0.2l-0.3-0.1l-0.3-0.1L53,66.1
	c-0.8-0.3-1.7-0.5-2.6-0.7c-0.9-0.1-1.8-0.2-2.8-0.3c-0.9-0.1-1.9-0.1-2.9-0.2c-0.5,0-1-0.1-1.4-0.2c-0.1,0-0.2,0-0.4,0l-0.2,0
	l-0.1,0l-0.1,0c-0.2,0-0.5-0.1-0.7-0.1c-1-0.2-1.9-0.5-2.7-0.9c-1.7-0.7-3.3-1.7-4.7-2.8c-1.4-1.1-2.6-2.3-3.7-3.6
	c-0.5-0.6-1-1.3-1.5-1.9c-0.1-0.2-0.2-0.3-0.3-0.5c-0.1-0.2-0.2-0.3-0.3-0.5c-0.2-0.3-0.4-0.7-0.6-1c-0.7-1.4-1.3-2.7-1.7-4.1
	c-0.4-1.3-0.7-2.6-0.9-3.9c-0.2-1.2-0.3-2.4-0.4-3.5c0-0.1,0-0.3,0-0.4c0,0,0,0,0,0c-0.3,1.4-0.4,3.4-0.9,4.7
	c-0.7,1.9-2.7,3.1-4.5,4.2c-2.1,1.3-3.9,2.1-6.4,2.6c3.6-1.3,8.3-3.3,10.2-7.2c1.4-2.8,1.4-6.6,2.1-9.8c0.1-0.5,0.1-0.9,0.2-1.2
	c0-0.2,0.1-0.4,0.1-0.6c0-0.1,0-0.2,0.1-0.2c0,0,0,0,0,0c0-0.1,0-0.1,0-0.2c-0.1-0.2-0.1-0.3-0.2-0.5c-0.1-0.3-0.2-0.5-0.3-0.8
	c-0.1-0.3-0.2-0.5-0.2-0.8c-0.1-0.5-0.3-1.1-0.4-1.6c-0.2-1-0.4-2.1-0.7-3c-0.2-1-0.5-1.9-0.8-2.8c-0.3-0.9-0.7-1.7-1.1-2.5
	c-0.1-0.2-0.2-0.4-0.3-0.6c-0.1-0.1-0.1-0.2-0.2-0.3c-0.1-0.1-0.1-0.2-0.2-0.3c-0.3-0.3-0.5-0.7-0.8-1c-0.3-0.3-0.6-0.6-0.9-0.8
	c-0.3-0.3-0.6-0.5-0.9-0.7c-0.6-0.4-1.3-0.8-1.9-1c-1.3-0.5-2.4-0.8-3.4-0.8c-0.5,0-0.9,0-1.3,0c-0.4,0-0.7,0.1-1,0.1
	c-0.1,0-0.2,0-0.3,0.1c-0.1,0-0.2,0-0.3,0c-0.1,0-0.2,0.1-0.3,0.1c0,0-0.1,0-0.2,0c0,0-0.4-0.1-0.5-0.1c-0.4-0.1-1.1-0.3-1.8-0.8
	c-0.2-0.1-0.4-0.2-0.6-0.4c-0.2-0.1-0.4-0.3-0.6-0.4c-0.2-0.2-0.4-0.3-0.6-0.5c-0.1-0.1-0.2-0.2-0.3-0.3c-0.1-0.1-0.2-0.2-0.3-0.3
	c-0.1-0.1-0.2-0.2-0.3-0.3c-0.1-0.1-0.2-0.2-0.3-0.4C5.1,12.7,5,12.6,5,12.5c-0.1-0.1-0.2-0.3-0.3-0.4c-0.1-0.1-0.2-0.3-0.2-0.4
	c-0.1-0.1-0.2-0.3-0.2-0.5C4.2,11,4.1,10.9,4,10.7c-0.1-0.2-0.1-0.3-0.2-0.5C3.8,10,3.7,9.8,3.7,9.6C3.6,9.5,3.6,9.3,3.6,9.1
	c0-0.1,0-0.2-0.1-0.3l0,0c0,0,0,0,0,0l0,0l0-0.1l0-0.1c0-0.2,0-0.4,0-0.6c0-0.8,0.2-1.6,0.5-2.4c0.2-0.4,0.4-0.8,0.6-1.1
	c0.2-0.4,0.5-0.7,0.8-1C6,2.7,6.7,2.2,7.5,1.7c0.4-0.2,0.8-0.4,1.2-0.6C9.1,0.9,9.5,0.8,10,0.6c0.4-0.1,0.9-0.2,1.3-0.3
	c0.1,0,0.2,0,0.3-0.1c0.1,0,0.1,0,0.2,0l0.2,0c0.2,0,0.5-0.1,0.7-0.1c0.2,0,0.5,0,0.7-0.1c0.2,0,0.5,0,0.7,0c0.2,0,0.5,0,0.7,0
	l0.4,0l0.4,0c0.9,0,1.9,0.1,2.8,0.3C19.2,0.4,20.1,0.7,21,1c0.9,0.3,1.8,0.7,2.6,1.2c1.6,0.9,3.1,1.9,4.6,2.9c0.7,0.5,1.4,1,2.1,1.5
	c0.3,0.3,0.7,0.5,1,0.8c0.3,0.3,0.6,0.5,1,0.7c1.3,1,2.5,1.9,3.6,2.6c1.2,0.7,2.3,1.3,3.3,1.7c0.5,0.2,1,0.4,1.5,0.5
	c0.5,0.1,0.9,0.2,1.3,0.2c0.4,0,0.8,0,1.1,0c0.3,0,0.6,0,0.8-0.1c0.1,0,0.2,0,0.3-0.1c0.1,0,0.1,0,0.2-0.1c0.1,0,0.2,0,0.2,0l0,0
	c0,0,0.1,0,0.1,0c0,0,0,0.1,0,0.1c0,0-0.1,0-0.2,0.1c-0.1,0-0.1,0-0.2,0.1c-0.1,0-0.2,0.1-0.3,0.1c-0.2,0.1-0.5,0.1-0.8,0.2
	c-0.3,0-0.7,0.1-1.1,0.1c-0.8,0-1.8-0.2-2.9-0.5c-1.1-0.3-2.3-0.9-3.5-1.5c-1.2-0.7-2.5-1.5-3.9-2.4c-1.3-0.9-2.7-1.8-4.2-2.8
	c-1.4-1-2.9-2-4.4-2.9c-0.4-0.2-0.8-0.4-1.1-0.7c-0.4-0.2-0.8-0.4-1.2-0.6c-0.4-0.2-0.8-0.4-1.2-0.6C19,1.3,18.5,1.2,18.1,1
	c-0.4-0.1-0.9-0.3-1.3-0.4c-0.2-0.1-0.4-0.1-0.7-0.1c-0.2,0-0.5-0.1-0.7-0.1c-0.9-0.1-1.8-0.1-2.7,0c-0.2,0-0.5,0.1-0.7,0.1l-0.2,0
	c-0.1,0-0.1,0-0.2,0c-0.1,0-0.2,0-0.3,0.1c-0.2,0.1-0.4,0.1-0.6,0.2c-0.2,0.1-0.4,0.2-0.6,0.3C9.3,1.5,8.6,2,8,2.6
	C7.4,3.1,6.9,3.7,6.6,4.4C6.4,4.7,6.2,5,6.1,5.3C6,5.5,5.9,5.6,5.9,5.8C5.8,5.9,5.8,6.1,5.7,6.2C5.5,6.8,5.5,7.4,5.4,7.9
	c0,0.1,0,0.1,0,0.2l0,0c0,0,0,0,0,0.1l0,0.1c0,0.1,0,0.1,0,0.2c0,0.1,0,0.1,0,0.2c0,0.1,0,0.3,0.1,0.4c0,0.1,0.1,0.3,0.1,0.4
	c0.1,0.6,0.3,1.1,0.6,1.6c0.2,0.5,0.5,1,0.7,1.4c0.5,0.9,1.1,1.6,1.6,2.1c0.1,0.1,0.3,0.3,0.4,0.4c0,0,0.1,0.1,0.1,0.1
	C9,15.2,8.9,15,8.8,14.9c-0.2-0.2-0.3-0.5-0.5-0.7c-0.3-0.5-0.7-1.2-1-1.9c-0.2-0.4-0.3-0.7-0.4-1.1c-0.1-0.4-0.2-0.8-0.3-1.3
	c0-0.2-0.1-0.4-0.1-0.7c0-0.2,0-0.5,0-0.7c0-0.1,0-0.2,0-0.4c0-0.1,0-0.1,0-0.2l0-0.1l0-0.1l0,0c0-0.2,0.1-0.5,0.2-0.7
	C6.8,6.8,6.9,6.6,7,6.4c0-0.1,0.1-0.2,0.2-0.3l0.1-0.2c0-0.1,0.1-0.1,0.1-0.2c0.2-0.4,0.5-0.8,0.9-1.2l0.3-0.3l0.3-0.3
	C8.8,3.9,8.9,3.8,9,3.7c0.1-0.1,0.2-0.2,0.3-0.2l0.3-0.2C9.7,3.1,9.8,3,9.9,3L10,2.9l0.2-0.1c0.1-0.1,0.2-0.1,0.3-0.2
	c0.2-0.1,0.5-0.2,0.7-0.3c0.1-0.1,0.2-0.1,0.4-0.1C11.7,2,11.8,2,12,2c0.5-0.1,1-0.2,1.5-0.3c0.5,0,1,0,1.5,0c0.5,0,1,0.1,1.5,0.2
	c1,0.2,1.9,0.6,2.7,1c0.8,0.4,1.5,0.9,2.1,1.4c0.6,0.4,1.1,0.9,1.6,1.2c0.1,0,0.2,0.1,0.3,0.1c0.8,0.3,1.6,0.7,2.3,1.1
	c0.8,0.4,1.5,0.8,2.2,1.3c1.5,0.9,2.9,1.8,4.2,2.7c1.4,0.9,2.8,1.7,4.2,2.4c0.7,0.3,1.4,0.6,2.1,0.9c0.3,0.1,0.7,0.2,1,0.4
	c0.3,0.1,0.7,0.2,1,0.3c0.3,0.1,0.7,0.2,1,0.2c0.3,0.1,0.7,0.1,1,0.2c0.6,0.1,1.3,0.2,1.9,0.3c1.2,0.1,2.3,0,3.3-0.1
	c1-0.2,1.8-0.5,2.5-0.7c0.7-0.3,1.2-0.5,1.5-0.7c0.2-0.1,0.3-0.2,0.4-0.2c0.1,0,0.1-0.1,0.1-0.1c0,0,0.1,0,0.1,0c0,0,0,0,0,0.1l0,0
	c0,0-0.1,0.2-0.4,0.4c-0.3,0.3-0.7,0.7-1.4,1.1c-0.3,0.2-0.7,0.4-1.1,0.6c-0.2,0.1-0.4,0.2-0.7,0.3c-0.1,0-0.2,0.1-0.4,0.1
	s-0.3,0.1-0.4,0.1c-0.3,0.1-0.5,0.2-0.8,0.2c-0.1,0-0.3,0.1-0.4,0.1c-0.1,0-0.3,0.1-0.4,0.1c-0.2,0-0.4,0-0.6,0.1
	c0.2,0,0.5,0.1,0.7,0.1c0.7,0.1,1.3,0.1,2,0.1c0.7,0,1.4-0.1,2.1-0.3c0.7-0.1,1.4-0.3,2-0.5c0.7-0.2,1.3-0.4,1.9-0.6
	c0.6-0.2,1.2-0.5,1.7-0.8c0.5-0.3,1-0.6,1.4-0.9c0.2-0.1,0.4-0.3,0.6-0.4c0.2-0.1,0.3-0.3,0.5-0.4c0.3-0.3,0.5-0.6,0.7-0.8
	c0.2-0.2,0.2-0.5,0.3-0.6c0.1-0.2,0.1-0.2,0.1-0.2l0,0c0,0,0,0,0,0c0,0,0,0,0,0c0,0,0,0.1,0,0.3c0,0.2,0,0.4-0.1,0.7
	c-0.1,0.3-0.3,0.7-0.5,1c-0.1,0.2-0.3,0.4-0.5,0.6c-0.2,0.2-0.4,0.4-0.6,0.5c-0.4,0.3-0.9,0.7-1.5,1c-0.6,0.3-1.2,0.5-1.8,0.8
	c-0.6,0.2-1.3,0.4-2,0.5c-0.7,0.1-1.4,0.2-2.1,0.3c-0.7,0.1-1.4,0.1-2.1,0.2c-0.7,0-1.4,0.1-2.1,0.1c-0.7,0-1.3,0-1.9,0
	c-0.6-0.1-1.2-0.2-1.7-0.3c-0.5-0.1-1-0.3-1.4-0.4c-0.2-0.1-0.4-0.1-0.6-0.2c0,0,0,0-0.1,0l-0.1,0c-0.2,0-0.4-0.1-0.6-0.1
	c-0.4-0.1-0.7-0.2-1.1-0.4c-0.2-0.1-0.4-0.1-0.5-0.2c-0.2-0.1-0.4-0.2-0.5-0.2c-0.7-0.3-1.4-0.7-2.1-1.2c-1.4-0.9-2.7-1.8-4.1-2.7
	c-1.4-0.9-2.7-1.9-4.1-2.8c-0.7-0.4-1.4-0.8-2.2-1.2c-0.7-0.4-1.5-0.7-2.3-1c-0.2-0.1-0.4-0.1-0.6-0.2c-0.2-0.1-0.4-0.1-0.6-0.2
	c-0.2,0-0.4-0.1-0.6-0.1c-0.2,0-0.4-0.1-0.6-0.1c-0.8-0.1-1.6-0.2-2.3-0.2c-0.8,0-1.5,0.1-2.2,0.2c-0.4,0.1-0.7,0.2-1,0.3
	c-0.3,0.1-0.7,0.2-1,0.3c-1.3,0.5-2.3,1.3-3,2.2c-0.7,0.9-1,2-1.1,2.9c0,0.5,0,0.9,0,1.4c0,0.4,0.1,0.8,0.2,1.2
	c0.2,0.7,0.3,1.2,0.5,1.6c0.1,0.2,0.1,0.3,0.2,0.4c0,0,0,0,0,0.1c0,0,0.1,0,0.1-0.1c0,0,0.1,0,0.1,0c0,0,0-0.1,0-0.2
	c0-0.1,0-0.2,0-0.3c0-0.1-0.1-0.1-0.1-0.2c-0.2-0.3-0.3-0.9-0.4-1.6c0-0.4,0-0.8,0.1-1.2c0.1-0.4,0.2-0.9,0.4-1.4
	c0.2-0.5,0.5-0.9,0.8-1.4c0.2-0.2,0.4-0.4,0.6-0.7c0.1-0.1,0.2-0.2,0.3-0.3c0.1-0.1,0.2-0.2,0.4-0.3c0.5-0.4,1.1-0.7,1.7-0.9
	c0.6-0.2,1.3-0.4,2-0.5c0.4,0,0.7-0.1,1.1-0.1c0.4,0,0.7,0,1.1,0.1c0.4,0,0.7,0.1,1.1,0.2c0.4,0.1,0.7,0.2,1.1,0.3
	c0.7,0.2,1.5,0.5,2.2,0.8c0.4,0.2,0.7,0.3,1.1,0.5c0.4,0.2,0.7,0.4,1.1,0.5c0.7,0.4,1.4,0.8,2.1,1.2c0.7,0.4,1.4,0.8,2.1,1.3
	c1.4,0.9,2.7,1.8,4,2.6c1.3,0.9,2.6,1.7,3.9,2.4c0.3,0.2,0.7,0.3,1,0.5c0.3,0.2,0.7,0.3,1,0.5c0.7,0.3,1.3,0.6,1.9,0.8
	c0,0,0,0,0.1,0c0,0,0,0,0,0c0.9,0.3,1.7,0.5,2.6,0.7c0.2,0,0.4,0.1,0.6,0.1c0.2,0,0.4,0.1,0.6,0.1c0.4,0.1,0.8,0.1,1.3,0.2
	c0.8,0.1,1.7,0.2,2.5,0.2c0.8,0,1.6,0,2.4-0.1c1.5-0.2,2.9-0.6,4.1-1.3c1.2-0.6,2-1.5,2.6-2.4c0.5-0.9,0.8-1.9,0.9-2.6
	c0.1-0.8,0.1-1.4,0.1-1.8c0-0.2,0-0.4,0-0.5c0-0.1,0-0.2,0-0.2c0,0,0-0.1,0.1-0.1c0,0,0,0,0.1,0v0c0,0,0,0.1,0,0.2
	c0,0.1,0.1,0.3,0.1,0.5c0.1,0.4,0.2,1.1,0.2,1.9c0,0.8-0.1,1.9-0.7,3c-0.3,0.6-0.6,1.1-1.1,1.7c-0.5,0.5-1,1-1.6,1.5
	c-0.6,0.4-1.4,0.8-2.1,1.1c-0.8,0.3-1.6,0.5-2.4,0.7c-0.8,0.2-1.7,0.3-2.6,0.3c-0.9,0-1.8,0-2.7-0.1c-0.5,0-0.9-0.1-1.4-0.2
	c-0.2,0-0.5-0.1-0.7-0.1c-0.2,0-0.5-0.1-0.7-0.1c-0.2-0.1-0.5-0.1-0.7-0.2s-0.5-0.1-0.7-0.2c-0.5-0.1-0.9-0.3-1.4-0.4
	c-0.9-0.3-1.8-0.7-2.6-1.1c-0.4-0.2-0.9-0.4-1.3-0.6c-0.2-0.1-0.4-0.2-0.6-0.3c-0.2-0.1-0.4-0.2-0.6-0.4c-1.6-1-3.1-2.2-4.6-3.2
	c-0.7-0.5-1.5-1-2.3-1.5c-0.4-0.2-0.8-0.4-1.2-0.6c-0.2-0.1-0.4-0.2-0.6-0.3c-0.2-0.1-0.4-0.2-0.6-0.3c-0.2-0.1-0.4-0.2-0.6-0.3
	c-0.2-0.1-0.4-0.2-0.6-0.2l-0.3-0.1c-0.1,0-0.2-0.1-0.3-0.1c-0.2-0.1-0.4-0.1-0.6-0.2c-0.8-0.2-1.6-0.4-2.4-0.4
	c-1.5-0.2-3-0.1-4.3,0c-0.7,0.1-1.3,0.2-1.9,0.4c-0.6,0.2-1.1,0.4-1.6,0.7c-0.9,0.5-1.7,1.1-2.1,1.8c-0.5,0.6-0.8,1.2-0.9,1.6
	c-0.1,0.1-0.1,0.3-0.1,0.4c0,0.1,0,0.1,0,0.1c0,0,0,0,0,0c0,0,0,0,0,0l0,0c0,0,0,0,0,0.1c0,0,0.1,0,0.1,0c0.5-0.2,1.3-0.4,2.4-0.4
	c0.2,0,0.3,0,0.5,0c0.1-0.1,0.1-0.1,0.2-0.2c0.4-0.3,1-0.7,1.8-1c0.8-0.3,1.9-0.6,3.1-0.7c1.2-0.1,2.7,0.1,4.1,0.5
	c0.4,0.1,0.7,0.2,1.1,0.3c0.2,0.1,0.4,0.1,0.5,0.2c0.2,0.1,0.4,0.1,0.5,0.2c0.4,0.2,0.7,0.3,1.1,0.5c0.4,0.2,0.7,0.4,1.1,0.6
	c0.7,0.4,1.4,0.9,2.2,1.4c0.7,0.5,1.4,1.1,2.1,1.7c1.3,1.2,2.6,2.5,3.8,3.8c0.3,0.3,0.6,0.6,1,1c0.3,0.3,0.7,0.6,1,0.9
	c0.3,0.3,0.7,0.6,1,0.9c0.3,0.3,0.7,0.6,1,0.9c1.4,1.1,2.9,2.1,4.6,2.8c1.6,0.7,3.3,1.1,4.9,1.3c1.6,0.1,3.3,0,4.8-0.3
	c1.5-0.3,2.9-0.8,4.1-1.4c1.2-0.6,2.2-1.3,3-2.1c0.8-0.8,1.4-1.5,1.7-2.2c0.4-0.7,0.6-1.3,0.7-1.7c0.1-0.2,0.1-0.4,0.1-0.5
	c0-0.1,0-0.2,0-0.2c0,0,0,0,0.1,0c0,0,0,0,0,0.1v0c0,0,0,0.1,0,0.2c0,0.1,0,0.3,0,0.5c-0.1,0.4-0.2,1.1-0.5,1.8
	c-0.3,0.8-0.8,1.7-1.6,2.6c-0.4,0.4-0.8,0.9-1.3,1.3c-0.5,0.4-1.1,0.8-1.7,1.2c-0.6,0.4-1.3,0.7-2,1c-0.7,0.3-1.5,0.6-2.3,0.8
	c-0.8,0.2-1.7,0.4-2.5,0.5c-0.4,0-0.9,0.1-1.3,0.1c-0.2,0-0.5,0-0.7,0c-0.1,0-0.2,0-0.3,0l-0.3,0c-0.2,0-0.5,0-0.7-0.1
	c-0.2,0-0.5-0.1-0.7-0.1c-0.2,0-0.5-0.1-0.7-0.1c-0.2-0.1-0.5-0.1-0.7-0.2c-0.5-0.1-0.9-0.3-1.3-0.5c-0.4-0.2-0.9-0.4-1.3-0.6
	c-0.4-0.2-0.8-0.5-1.2-0.7c-0.4-0.2-0.8-0.5-1.2-0.8c-0.4-0.3-0.8-0.5-1.2-0.8c-0.3-0.2-0.6-0.5-1-0.7c0.6,0.6,1.2,1.2,1.8,1.9
	c0.7,0.8,1.5,1.6,2.4,2.4c0.9,0.8,1.8,1.7,2.9,2.4c0.3,0.2,0.6,0.4,0.8,0.5c0.3,0.2,0.6,0.3,0.9,0.5c0.6,0.3,1.3,0.5,2,0.7
	c1.4,0.3,2.8,0.4,4.2,0.3c0.7-0.1,1.4-0.2,2.1-0.3c0.3-0.1,0.7-0.2,1-0.3c0.3-0.1,0.7-0.2,1-0.3c1.3-0.5,2.5-1.1,3.5-1.9
	c1-0.8,1.9-1.6,2.6-2.6c0.7-0.9,1.1-1.9,1.4-2.9c0.3-1,0.3-1.9,0.2-2.7c0-0.4-0.1-0.8-0.2-1.1c-0.1-0.3-0.2-0.7-0.3-0.9
	c-0.2-0.5-0.5-0.9-0.8-1.1c-0.1-0.1-0.2-0.2-0.3-0.2c-0.1,0-0.1-0.1-0.1-0.1c0,0,0,0,0-0.1c0,0,0,0,0.1,0l0,0c0,0,0,0,0.1,0
	c0.1,0,0.2,0.1,0.4,0.2c0.3,0.2,0.7,0.5,1.1,1.1c0.2,0.3,0.3,0.6,0.5,1c0.1,0.4,0.3,0.8,0.4,1.2c0.2,0.9,0.2,1.9,0,3.1
	c-0.2,1.1-0.6,2.3-1.4,3.4c0,0.1-0.1,0.1-0.1,0.2l-0.1,0.2c-0.1,0.1-0.2,0.3-0.3,0.4c-0.2,0.3-0.4,0.5-0.7,0.7
	c-0.2,0.2-0.5,0.5-0.8,0.7c-0.3,0.2-0.5,0.4-0.8,0.6c-1.2,0.8-2.5,1.4-3.9,1.9c-1.4,0.4-2.9,0.6-4.4,0.6c-1.5,0-2.9-0.3-4.3-0.6
	c-0.7-0.2-1.4-0.4-2-0.6c-0.7-0.2-1.3-0.5-1.9-0.8c-1.2-0.6-2.3-1.4-3.3-2.2c-0.5-0.4-0.9-0.8-1.3-1.3c-0.4-0.4-0.8-0.8-1.1-1.3
	c-0.7-0.8-1.3-1.6-1.9-2.3c-0.3-0.3-0.5-0.7-0.7-1c-0.2-0.3-0.4-0.6-0.6-0.9c-0.1-0.1-0.1-0.2-0.2-0.2c-0.8-0.6-1.5-1.2-2.2-1.8
	C33.4,23.1,32,22,30.7,21c-0.7-0.5-1.3-1-2-1.4c-0.7-0.4-1.3-0.9-2-1.2c-0.7-0.4-1.3-0.7-2-1c-0.2-0.1-0.3-0.1-0.5-0.2
	c-0.2-0.1-0.3-0.1-0.5-0.2c-0.3-0.1-0.6-0.3-1-0.4c-1.3-0.5-2.5-0.7-3.5-0.9c-1.1-0.2-2-0.2-2.8-0.1c-0.4,0-0.8,0.1-1.1,0.1
	c0.1,0,0.1,0,0.2,0c0.3,0,0.6,0.1,1,0.2c0.2,0,0.3,0.1,0.5,0.1c0.2,0.1,0.3,0.1,0.5,0.2c1.4,0.5,2.9,1.3,4.2,2.6c0,0,0,0,0,0
	c0,0,0,0,0,0c0.1,0,0.2,0,0.3,0c0.1,0,0.2,0,0.3,0.1c0.3,0.1,0.6,0.1,0.9,0.2c0.3,0.1,0.7,0.2,1.1,0.4c0.4,0.1,0.8,0.3,1.2,0.5
	c0.8,0.4,1.8,0.9,2.7,1.6c0.5,0.3,0.9,0.7,1.4,1.1c0.1,0.1,0.2,0.2,0.4,0.3c0.1,0.1,0.2,0.2,0.3,0.3c0.2,0.2,0.5,0.4,0.7,0.7
	c0.2,0.2,0.4,0.5,0.7,0.7c0.2,0.3,0.4,0.5,0.6,0.8c0.2,0.3,0.4,0.6,0.6,0.8c0.2,0.3,0.4,0.6,0.6,0.9c0.2,0.3,0.4,0.6,0.5,0.9
	c0.2,0.3,0.3,0.6,0.5,0.9c0.1,0.2,0.2,0.3,0.3,0.5c0.1,0.2,0.2,0.3,0.3,0.5c0.2,0.3,0.4,0.6,0.6,0.9c0.8,1.2,1.6,2.4,2.6,3.5
	c1,1.1,2,2.1,3.1,3c1.1,0.9,2.3,1.6,3.5,2.1c1.2,0.5,2.4,0.8,3.6,1.1c0.3,0,0.6,0.1,0.9,0.2c0.1,0,0.3,0.1,0.4,0.1
	c0.1,0,0.3,0.1,0.4,0.1c0.6,0.1,1.1,0.2,1.6,0.2c1.1,0.2,2,0.2,2.9,0.2c0.2,0,0.4,0,0.6,0c0.2,0,0.4,0,0.6,0c0,0,0.1,0,0.1,0
	c0.4-0.1,0.7-0.2,1.1-0.4c0.8-0.3,1.5-0.6,2.2-0.9c0.7-0.3,1.3-0.7,1.8-1c0.3-0.2,0.5-0.4,0.8-0.5c0.3-0.2,0.5-0.4,0.7-0.5
	c0.5-0.4,0.9-0.7,1.2-1c0.7-0.7,1.2-1.2,1.6-1.6c0.2-0.2,0.3-0.3,0.4-0.4c0.1-0.1,0.1-0.2,0.1-0.2l0,0c0,0,0.1,0,0.1,0
	c0,0,0,0,0,0.1c0,0,0,0.1-0.1,0.2c-0.1,0.1-0.2,0.3-0.3,0.5c-0.3,0.5-0.7,1.1-1.3,1.9c-0.6,0.8-1.5,1.7-2.6,2.6
	c-1.1,0.9-2.5,1.8-4.1,2.5c-0.8,0.4-1.6,0.7-2.5,1c-0.2,0.1-0.4,0.1-0.7,0.2c-0.2,0.1-0.5,0.1-0.7,0.2c-0.5,0.1-1,0.3-1.4,0.4
	c-0.1,0-0.2,0.1-0.4,0.1c0.1,0,0.2,0.1,0.4,0.1c0.3,0.1,0.7,0.1,1,0.2c0.4,0.1,0.7,0.1,1.1,0.2c0.2,0,0.4,0.1,0.6,0.1
	c0.2,0,0.4,0,0.6,0.1c0.2,0,0.4,0,0.6,0.1c0.2,0,0.4,0,0.7,0c0.2,0,0.4,0,0.7,0c0.2,0,0.5,0,0.7,0c0.2,0,0.5,0,0.7,0
	c0.2,0,0.5,0,0.7,0c0.2,0,0.5,0,0.7,0c0.2,0,0.5,0,0.7-0.1c0.5,0,1-0.1,1.4-0.2c0.2,0,0.5-0.1,0.7-0.1l0.4-0.1l0.2,0l0.2,0
	c0.5-0.1,0.9-0.3,1.4-0.4c0.5-0.1,0.9-0.3,1.3-0.5c0.9-0.4,1.7-0.8,2.4-1.3c0.4-0.3,0.7-0.5,1.1-0.7c0.3-0.3,0.7-0.5,1-0.8
	c0.2-0.1,0.3-0.3,0.4-0.4c0.1-0.1,0.3-0.3,0.4-0.4C72,40.1,72,40,72.1,40c0.1-0.1,0.1-0.1,0.2-0.2c0.1-0.1,0.3-0.3,0.4-0.4
	c0.1-0.1,0.2-0.3,0.3-0.4c0.1-0.1,0.2-0.3,0.3-0.4c0.1-0.1,0.2-0.3,0.3-0.4c0.1-0.1,0.2-0.2,0.3-0.4c0.3-0.5,0.5-0.9,0.7-1.3
	c0.1-0.2,0.2-0.4,0.2-0.5c0-0.2,0.1-0.3,0.1-0.4c0.1-0.2,0.1-0.3,0.1-0.3l0,0c0,0,0,0,0.1,0c0,0,0,0,0,0.1c0,0,0,0.1,0,0.4
	c0,0.1,0,0.3,0,0.4c0,0.2-0.1,0.4-0.1,0.6c-0.1,0.4-0.3,0.9-0.5,1.5c-0.1,0.1-0.1,0.3-0.2,0.4c-0.1,0.1-0.1,0.3-0.2,0.4
	c-0.1,0.1-0.2,0.3-0.3,0.5c-0.1,0.2-0.2,0.3-0.3,0.5c-0.4,0.6-0.9,1.3-1.5,1.9c-0.1,0.2-0.3,0.3-0.5,0.5c-0.2,0.2-0.3,0.3-0.5,0.5
	c-0.3,0.3-0.7,0.6-1.1,1c-0.8,0.6-1.6,1.3-2.5,1.8c-0.9,0.5-1.9,1-2.9,1.3L64.2,47L64,47.1c-0.1,0-0.3,0.1-0.4,0.1l-0.4,0.1
	c-0.1,0-0.3,0.1-0.4,0.1c-0.3,0-0.5,0.1-0.8,0.1c-0.3,0-0.5,0.1-0.8,0.1c-0.3,0-0.5,0-0.8,0c-0.3,0-0.5,0-0.8,0c-0.3,0-0.5,0-0.8,0
	c-0.3,0-0.5,0-0.7-0.1c-0.5,0-1-0.1-1.4-0.2c-0.2,0-0.5-0.1-0.7-0.1c-0.2-0.1-0.4-0.1-0.7-0.2c-0.9-0.2-1.7-0.5-2.4-0.8
	c-0.4-0.2-0.7-0.3-1-0.4c-0.2-0.1-0.3-0.1-0.5-0.2c-0.2-0.1-0.3-0.2-0.4-0.2c-0.1-0.1-0.3-0.1-0.4-0.2c-0.1-0.1-0.3-0.1-0.4-0.2
	c0,0-0.1,0-0.1-0.1c-0.3,0.1-0.6,0.1-1,0.1c-0.4,0-0.8,0.1-1.1,0.1c0.1,0.1,0.2,0.1,0.3,0.2c0.3,0.2,0.5,0.4,0.8,0.6
	c0.3,0.2,0.6,0.4,1,0.7c0.4,0.2,0.8,0.5,1.2,0.7c0.4,0.3,0.9,0.5,1.3,0.8c0.2,0.1,0.5,0.2,0.7,0.4c0.1,0.1,0.2,0.1,0.4,0.2
	c0.1,0.1,0.3,0.1,0.4,0.2c0.5,0.2,1,0.5,1.6,0.7c0.3,0.1,0.6,0.2,0.9,0.4c0.3,0.1,0.6,0.2,0.9,0.3c0.2,0.1,0.3,0.1,0.5,0.2
	c0.2,0,0.3,0.1,0.5,0.1c0.3,0.1,0.6,0.2,0.9,0.3c1.3,0.3,2.7,0.6,4.1,0.6c0.7,0,1.4,0,2.1-0.1c0.7,0,1.4-0.2,2.1-0.3
	c0.7-0.1,1.4-0.3,2-0.5c0.3-0.1,0.7-0.2,1-0.4c0.3-0.1,0.6-0.3,1-0.4c1.3-0.6,2.5-1.2,3.5-2c1.1-0.8,2-1.6,2.9-2.4
	c0.8-0.9,1.6-1.7,2.2-2.6c0.6-0.9,1.1-1.7,1.4-2.5c0.4-0.8,0.6-1.5,0.8-2.1c0.1-0.3,0.2-0.6,0.2-0.8c0.1-0.2,0.1-0.4,0.1-0.6
	c0.1-0.3,0.1-0.5,0.1-0.5v0c0,0,0,0,0,0c0,0,0,0,0,0c0,0,0,0.2,0,0.5c0,0.2,0,0.4-0.1,0.6c0,0.2-0.1,0.5-0.1,0.8
	c0,0.2-0.1,0.3-0.1,0.5c0,0.2-0.1,0.3-0.1,0.5c-0.1,0.2-0.1,0.4-0.2,0.6c-0.1,0.2-0.1,0.4-0.2,0.6c-0.3,0.8-0.7,1.7-1.3,2.7
	c-0.6,0.9-1.3,1.9-2.1,2.8c-0.4,0.5-0.9,0.9-1.4,1.3c-0.2,0.2-0.5,0.4-0.8,0.6c-0.1,0.1-0.3,0.2-0.4,0.3c-0.1,0.1-0.3,0.2-0.4,0.3
	c-1.1,0.8-2.4,1.4-3.7,2c-0.7,0.3-1.4,0.5-2.1,0.7c-0.7,0.2-1.4,0.3-2.1,0.4c-0.7,0.1-1.4,0.2-2.2,0.2c-0.4,0-0.7,0-1.1,0
	c-0.4,0-0.7,0-1.1,0c-0.4,0-0.7,0-1.1-0.1c-0.4,0-0.7-0.1-1-0.1c-0.3,0-0.7-0.1-1-0.1c-0.3-0.1-0.7-0.1-1-0.2
	c-0.3-0.1-0.7-0.1-1-0.2C58,51,57.9,51,57.7,51c-0.2,0-0.3-0.1-0.5-0.1c-0.3-0.1-0.6-0.2-0.9-0.3c-0.3-0.1-0.6-0.2-0.9-0.3
	c-0.3-0.1-0.6-0.2-0.9-0.4c-0.3-0.1-0.5-0.2-0.8-0.4c-0.1-0.1-0.3-0.1-0.4-0.2c-0.1-0.1-0.3-0.1-0.4-0.2c-0.2-0.1-0.5-0.3-0.7-0.4
	c-0.5-0.3-0.9-0.6-1.3-0.8c-0.4-0.3-0.8-0.6-1.1-0.8c-0.3-0.3-0.7-0.5-1-0.8c-0.3-0.2-0.5-0.5-0.8-0.7c-0.2-0.2-0.3-0.3-0.4-0.4
	c0,0-0.1,0-0.1,0c-0.3,0-0.7,0-1,0c0.1,0.1,0.2,0.3,0.3,0.5c0.2,0.2,0.4,0.5,0.6,0.8c0.2,0.3,0.5,0.6,0.8,0.9c0.3,0.3,0.6,0.6,1,0.9
	c0.4,0.3,0.7,0.6,1.2,0.9c0.4,0.3,0.9,0.6,1.3,0.9c0.2,0.2,0.5,0.3,0.7,0.5c0.3,0.1,0.5,0.3,0.8,0.5c0.5,0.3,1.1,0.6,1.6,0.9
	c0.6,0.3,1.1,0.6,1.8,0.8c0.6,0.2,1.2,0.5,1.9,0.6c0.3,0.1,0.7,0.2,1,0.3c0.2,0,0.3,0.1,0.5,0.1c0.2,0,0.3,0.1,0.5,0.1
	c1.4,0.3,2.8,0.5,4.2,0.6c1.4,0.1,2.8,0.1,4.2,0c0.3,0,0.7-0.1,1-0.1c0.3,0,0.7-0.1,1-0.1c0.7-0.1,1.3-0.2,1.9-0.4
	c0.6-0.2,1.2-0.4,1.8-0.6c0.6-0.2,1.1-0.5,1.7-0.7c0.3-0.1,0.5-0.3,0.8-0.4c0.1-0.1,0.3-0.1,0.4-0.2c0.1-0.1,0.2-0.1,0.4-0.2
	c0.5-0.3,0.9-0.6,1.3-0.9c0.8-0.6,1.6-1.2,2.2-1.8c0.3-0.3,0.6-0.6,0.8-0.9c0.2-0.3,0.4-0.6,0.6-0.8c0.3-0.5,0.6-0.9,0.7-1.2
	c0.1-0.1,0.1-0.3,0.2-0.3c0-0.1,0.1-0.1,0.1-0.1c0,0,0,0,0.1,0c0,0,0,0,0,0.1c0,0,0,0,0,0.1c0,0.1,0,0.2-0.1,0.4
	c-0.1,0.3-0.2,0.8-0.5,1.4c-0.3,0.6-0.7,1.3-1.2,2c-0.5,0.7-1.2,1.5-2,2.3c-0.4,0.4-0.9,0.7-1.4,1.1c-0.1,0.1-0.3,0.2-0.4,0.3
	c-0.1,0-0.1,0.1-0.2,0.1c-0.1,0-0.1,0.1-0.2,0.1c-0.3,0.2-0.5,0.3-0.8,0.5c-0.6,0.3-1.2,0.6-1.8,0.8c-0.6,0.3-1.3,0.5-2,0.7
	c-0.7,0.2-1.4,0.3-2.1,0.5c-0.4,0.1-0.7,0.1-1.1,0.2c-0.4,0-0.7,0.1-1.1,0.1c-1.5,0.1-3,0.1-4.5,0c-0.4,0-0.7-0.1-1.1-0.1
	c-0.4,0-0.7-0.1-1.1-0.1c-0.7-0.1-1.4-0.2-2.2-0.3c-0.4-0.1-0.7-0.1-1.1-0.2c-0.2,0-0.3-0.1-0.5-0.1l-0.3-0.1l-0.1,0l-0.1,0
	c-0.7-0.2-1.5-0.4-2.1-0.6c-0.7-0.2-1.3-0.5-2-0.8c-0.6-0.3-1.2-0.6-1.8-1c-0.6-0.3-1.1-0.7-1.6-1.1c-0.5-0.4-1-0.7-1.4-1.1
	c-0.4-0.4-0.8-0.8-1.2-1.1c-0.4-0.4-0.7-0.8-1-1.1c-0.6-0.7-1.1-1.4-1.4-2c-0.2-0.3-0.3-0.6-0.4-0.8c0-0.1-0.1-0.2-0.1-0.3
	c-0.7,0-1.4-0.1-2.2-0.1c0.1,0.2,0.3,0.4,0.4,0.6c0.1,0.2,0.2,0.3,0.4,0.5c0.1,0.2,0.3,0.4,0.4,0.5c0.2,0.2,0.3,0.4,0.5,0.6
	c0.2,0.2,0.3,0.4,0.5,0.6c0.7,0.8,1.6,1.7,2.6,2.6c1,0.9,2.2,1.8,3.4,2.8c1.3,0.9,2.6,1.8,4.1,2.7c0.7,0.4,1.5,0.8,2.3,1.2
	c0.4,0.2,0.8,0.4,1.2,0.5c0.2,0.1,0.4,0.2,0.6,0.2c0.2,0.1,0.4,0.2,0.6,0.2c1.7,0.6,3.5,1,5.4,1.2l0.7,0.1l0.7,0.1
	c0.5,0,0.9,0.1,1.4,0.1c0.9,0,1.8,0,2.7,0c1.8-0.1,3.5-0.3,5.2-0.6c1.7-0.4,3.2-0.8,4.6-1.4c1.4-0.6,2.7-1.3,3.8-2.1
	c1.1-0.8,2.1-1.6,2.8-2.4c0.4-0.4,0.7-0.8,0.9-1.2c0.3-0.4,0.5-0.8,0.6-1.1c0.3-0.7,0.4-1.3,0.4-1.8c0-0.1,0-0.2,0-0.3
	c0-0.1,0-0.1,0-0.2c0-0.1,0-0.2,0-0.2v0c0,0,0-0.1,0.1-0.1c0,0,0.1,0,0.1,0c0,0,0,0.1,0,0.2c0,0.1,0,0.1,0,0.2c0,0.1,0,0.2,0,0.3
	c0,0.4,0,1.1-0.2,1.9c-0.1,0.4-0.3,0.8-0.5,1.3c-0.2,0.5-0.5,0.9-0.9,1.4c-0.7,0.9-1.6,1.9-2.8,2.7c-0.6,0.4-1.2,0.9-1.8,1.3
	c-0.7,0.4-1.4,0.8-2.1,1.1c-1.5,0.7-3.2,1.2-4.9,1.5c-1.8,0.3-3.6,0.5-5.4,0.4c-0.9,0-1.9-0.1-2.8-0.2c-0.5-0.1-0.9-0.1-1.4-0.2
	l-0.7-0.1L65.5,60c-1.8-0.4-3.6-0.9-5.4-1.5c-0.9-0.3-1.7-0.6-2.6-0.9c-0.4-0.2-0.8-0.3-1.2-0.5c-0.2-0.1-0.4-0.2-0.6-0.3
	c-0.2-0.1-0.4-0.2-0.6-0.3c-1.6-0.7-3.1-1.5-4.4-2.4c-1.3-0.9-2.5-1.9-3.5-2.9c-1-1-1.9-2-2.5-2.9c-0.2-0.2-0.3-0.5-0.5-0.7
	c-0.1-0.2-0.3-0.4-0.4-0.6c-0.1-0.2-0.3-0.4-0.4-0.6c-0.1-0.2-0.2-0.4-0.3-0.6c-0.2-0.3-0.3-0.6-0.5-0.9c-0.8-0.1-1.6-0.2-2.3-0.4
	c0.2,0.3,0.4,0.7,0.7,1.1c0.1,0.2,0.3,0.5,0.5,0.7c0.1,0.1,0.2,0.3,0.2,0.4c0.1,0.1,0.2,0.3,0.3,0.4c0.4,0.5,0.8,1.1,1.3,1.6
	c1,1.1,2.2,2.3,3.5,3.6c0.2,0.2,0.3,0.3,0.5,0.5c0.1,0.1,0.2,0.2,0.3,0.2l0.1,0.1l0.1,0.1c0.4,0.3,0.7,0.7,1.1,1
	c0.7,0.6,1.6,1.2,2.4,1.8c0.4,0.3,0.9,0.6,1.3,0.8c0.2,0.1,0.5,0.3,0.7,0.4c0.2,0.1,0.5,0.3,0.7,0.4c1,0.5,2,1.1,3,1.6
	c2.1,1,4.3,1.9,6.5,2.9c2.2,1,4.5,1.6,6.9,2c1.2,0.2,2.4,0.3,3.6,0.4c1.2,0.1,2.4,0,3.6,0c1.2-0.1,2.4-0.3,3.5-0.5
	c1.1-0.2,2.2-0.6,3.3-1c1.1-0.4,2.1-0.9,3-1.4c0.5-0.3,0.9-0.6,1.3-0.9c0.1-0.1,0.2-0.2,0.3-0.2c0.1-0.1,0.2-0.2,0.3-0.2
	c0.2-0.2,0.4-0.3,0.6-0.5c0.8-0.7,1.4-1.5,1.9-2.2c0.1-0.1,0.1-0.2,0.2-0.3l0.1-0.1c0,0,0,0,0,0l0,0l0,0l0-0.1
	c0.1-0.1,0.1-0.2,0.2-0.3c0.1-0.1,0.1-0.2,0.2-0.3c0.1-0.1,0.1-0.2,0.1-0.3c0-0.1,0.1-0.2,0.1-0.3c0.1-0.2,0.2-0.4,0.2-0.6
	c0.1-0.2,0.1-0.4,0.2-0.6c0-0.2,0.1-0.4,0.1-0.6c0-0.2,0-0.4,0.1-0.6c0-0.2,0-0.4,0-0.6c-0.1-0.8-0.2-1.5-0.5-2.2
	c-0.3-0.7-0.6-1.2-1-1.7c-0.4-0.5-0.8-0.9-1.2-1.2c-0.4-0.3-0.8-0.6-1.1-0.8c-0.4-0.2-0.7-0.4-0.9-0.5c-0.1-0.1-0.2-0.1-0.3-0.2
	c-0.1,0-0.2-0.1-0.3-0.1c-0.1-0.1-0.2-0.1-0.2-0.1l0,0c0,0,0,0,0-0.1c0,0,0,0,0.1,0c0,0,0.1,0,0.2,0.1c0.1,0,0.2,0.1,0.3,0.1
	c0.1,0,0.2,0.1,0.4,0.1c0.3,0.1,0.6,0.3,1,0.4c0.4,0.2,0.8,0.4,1.2,0.8c0.9,0.6,1.9,1.6,2.6,3c0.2,0.4,0.3,0.7,0.5,1.1
	c0,0.1,0.1,0.2,0.1,0.3c0,0.1,0.1,0.2,0.1,0.3c0,0.2,0.1,0.4,0.1,0.7c0,0.2,0,0.4,0,0.7c0,0.2,0,0.5,0,0.7c0,0.2-0.1,0.5-0.1,0.7
	c-0.1,0.2-0.1,0.5-0.2,0.7c-0.1,0.5-0.3,0.9-0.5,1.4c-0.1,0.1-0.1,0.2-0.2,0.3c-0.1,0.1-0.1,0.2-0.2,0.3l0,0.1l0,0l0,0l0,0l-0.1,0.2
	c-0.1,0.1-0.1,0.2-0.2,0.3c-0.6,0.9-1.2,1.7-2,2.4c-1.6,1.5-3.6,2.7-5.9,3.5c-1.1,0.4-2.3,0.7-3.5,1c-0.4,0.1-0.9,0.2-1.3,0.2
	c0,0,0,0,0.1,0c0.1,0,0.2,0,0.3,0.1c0.1,0,0.2,0.1,0.3,0.1c0.8,0.2,1.6,0.5,2.5,0.8c0.9,0.3,1.7,0.5,2.7,0.6c0.9,0.1,1.9,0.1,2.8,0
	c0.1,0,0.2,0,0.4,0l0.3-0.1c0.1,0,0.2,0,0.3-0.1c0.1,0,0.2,0,0.3-0.1c0.4-0.1,0.9-0.3,1.3-0.4c0.4-0.2,0.8-0.4,1.2-0.6
	c0.4-0.2,0.7-0.5,1-0.8c0.3-0.3,0.6-0.6,0.9-0.9c0.1-0.1,0.1-0.2,0.2-0.2c0.1-0.1,0.1-0.2,0.2-0.2c0.1-0.2,0.2-0.3,0.3-0.5
	c0.2-0.3,0.4-0.7,0.6-1c0.2-0.3,0.3-0.7,0.4-1c0.3-0.6,0.4-1.3,0.6-1.8c0.1-0.3,0.1-0.5,0.2-0.8c0-0.2,0.1-0.5,0.1-0.7
	c0-0.2,0.1-0.4,0.1-0.6c0-0.2,0-0.3,0-0.4c0-0.1,0-0.2,0-0.3c0,0,0,0,0,0c0,0,0,0,0-0.1c0,0,0,0,0.1,0l0,0c0,0,0,0,0,0c0,0,0,0,0,0
	c0.1,0,0.2,0,0.3,0.1c0.3,0,0.6,0.1,1.1,0.3c0.2,0.1,0.5,0.2,0.8,0.3c0.3,0.1,0.6,0.3,0.9,0.4c0.6,0.4,1.4,0.9,2,1.6
	c0.3,0.4,0.7,0.8,1,1.2c0.3,0.5,0.6,1,0.8,1.5c0.5,1.1,0.8,2.4,0.8,3.7C105,68.4,104.3,71.4,102.8,74.2z M10.6,16.2
	c-0.1-0.1-0.2-0.2-0.3-0.3c-0.3-0.3-0.7-0.8-1.1-1.5c-0.4-0.7-0.8-1.6-0.9-2.8c0-0.3,0-0.6,0-0.9c0-0.3,0.1-0.7,0.1-1
	c0.1-0.7,0.4-1.4,0.9-2.1c0.2-0.3,0.5-0.7,0.7-1c0.3-0.3,0.6-0.6,0.9-0.9c0.7-0.5,1.4-0.9,2.2-1.2c0.8-0.3,1.7-0.5,2.5-0.5
	c0.9,0,1.7,0,2.6,0.2c0.8,0.1,1.6,0.4,2.4,0.6c-0.6-0.4-1.2-0.7-1.9-1.1c-0.8-0.4-1.6-0.7-2.5-0.9c-0.4-0.1-0.9-0.2-1.4-0.3
	c-0.5-0.1-0.9-0.1-1.4-0.1c-0.2,0-0.5,0-0.7,0.1c-0.2,0-0.5,0.1-0.7,0.1c-0.5,0.1-0.9,0.2-1.4,0.4c-0.5,0.2-0.9,0.4-1.3,0.7
	C9,4,8.6,4.3,8.3,4.6C8,5,7.7,5.4,7.5,5.9C7.5,5.9,7.5,6,7.4,6L7.4,6.2c0,0.1-0.1,0.2-0.1,0.3C7.2,6.7,7.1,7,7.1,7.2
	C7,7.4,7,7.6,7,7.9l0,0c0,0,0,0,0,0v0v0L7,8c0,0.1,0,0.1,0,0.2c0,0.1,0,0.2,0,0.3c0,0.2,0,0.4,0.1,0.6c0,0.2,0.1,0.4,0.1,0.6
	c0.2,0.8,0.4,1.6,0.7,2.3c0.3,0.7,0.5,1.3,0.8,1.9c0.1,0.3,0.3,0.5,0.4,0.7c0.1,0.2,0.3,0.4,0.4,0.6c0.2,0.3,0.3,0.5,0.4,0.7
	c0,0,0,0,0,0c0.2,0.1,0.3,0.2,0.4,0.3c0.1,0,0.1,0.1,0.1,0.1c0,0,0,0,0,0l0,0C10.5,16.3,10.6,16.3,10.6,16.2
	C10.7,16.3,10.7,16.2,10.6,16.2z M11.5,13.4c0.4-0.8,1.1-1.8,2.1-2.6c1-0.8,2.4-1.4,4-1.8c0.4-0.1,0.8-0.1,1.2-0.2
	c0.4,0,0.8-0.1,1.2-0.1c0.8,0,1.7,0.1,2.6,0.3c0.4,0.1,0.9,0.2,1.3,0.4c0.4,0.2,0.8,0.3,1.3,0.5c0.2,0.1,0.4,0.2,0.6,0.3
	c0.1,0.1,0.2,0.1,0.3,0.2l0.3,0.2c0.2,0.1,0.4,0.2,0.6,0.3c0.2,0.1,0.4,0.2,0.6,0.3c0.8,0.5,1.5,0.9,2.3,1.4
	c0.6,0.3,1.2,0.7,1.8,1.1c-0.6-0.5-1.3-0.9-1.9-1.4c-0.7-0.5-1.3-0.9-2-1.4c-0.7-0.4-1.4-0.8-2.1-1.2c-1.4-0.8-2.8-1.4-4.3-1.7
	C20.9,8.1,20.5,8,20.2,8c-0.4-0.1-0.7-0.1-1.1-0.1c-0.4,0-0.7,0-1.1,0c-0.3,0-0.7,0-1,0.1c-1.3,0.2-2.5,0.6-3.5,1.3
	c-1,0.6-1.6,1.5-2,2.3c-0.4,0.8-0.6,1.7-0.6,2.3c0,0.6,0.1,1,0.1,1.4c0-0.2,0-0.4,0.1-0.7C11.2,14.2,11.3,13.8,11.5,13.4z
	 M91.7,81.5c0.2-0.1,0.4-0.2,0.7-0.3c0.8-0.3,1.5-0.7,2.3-1.1c0.7-0.4,1.4-0.9,2-1.4c0.3-0.3,0.6-0.5,0.9-0.8
	c0.3-0.3,0.6-0.5,0.8-0.8c-0.2,0.1-0.3,0.1-0.5,0.2c-0.2,0.1-0.4,0.2-0.6,0.3c-0.2,0.1-0.4,0.2-0.7,0.2c-0.1,0-0.2,0.1-0.3,0.1
	C96.2,78,96,78,95.9,78c-0.2,0.1-0.5,0.2-0.8,0.2c-0.3,0.1-0.5,0.1-0.8,0.2c-0.3,0.1-0.5,0.1-0.8,0.1c-0.3,0.1-0.6,0.1-0.9,0.1
	c-0.6,0.1-1.2,0.1-1.8,0.1c-0.3,0-0.6,0-0.9,0c-0.3,0-0.6,0-0.9-0.1c-0.3,0-0.6-0.1-1-0.1c-0.2,0-0.3,0-0.5-0.1
	c-0.2,0-0.3-0.1-0.5-0.1c-0.3,0-0.6-0.1-1-0.2l-0.2-0.1l-0.1,0l-0.1,0c-0.2,0-0.3-0.1-0.5-0.1c-1.3-0.3-2.5-0.8-3.8-1.4
	c-0.3-0.1-0.6-0.3-0.9-0.4c-0.3-0.2-0.6-0.3-0.9-0.5c-0.3-0.2-0.6-0.3-0.9-0.5c-0.3-0.2-0.6-0.3-0.9-0.5c-1.1-0.7-2.2-1.3-3.3-2
	c-1-0.7-2-1.4-2.9-2.1c-0.9-0.7-1.7-1.5-2.4-2.1c-0.7-0.6-1.3-1.2-1.8-1.7c0.6,0.6,1.2,1.3,1.8,1.9c0.8,0.9,1.6,1.8,2.4,2.7
	c0.8,0.9,1.6,1.7,2.4,2.5c0.4,0.4,0.8,0.8,1.2,1.1c0.4,0.4,0.8,0.7,1.3,1c1.7,1.3,3.4,2.4,5.1,3.3c0.8,0.4,1.6,0.8,2.4,1.1
	c0.8,0.3,1.6,0.5,2.3,0.7c0.7,0.2,1.4,0.3,2.1,0.4c0.7,0.1,1.3,0.1,1.8,0.1C90.7,81.6,91.2,81.6,91.7,81.5z M27.3,40.4
	c0,0.2,0,0.5,0,0.7c0,0.1,0,0.2,0,0.3c0,0.1,0,0.3,0,0.4c0.1,1,0.3,2.1,0.5,3.2c0.1,0.6,0.2,1.1,0.4,1.7c0.1,0.6,0.3,1.2,0.5,1.8
	c0.2,0.6,0.4,1.2,0.7,1.8c0.2,0.6,0.5,1.2,0.8,1.8c0.1,0.1,0.2,0.3,0.2,0.4c0,0.1,0.1,0.1,0.1,0.2l0.1,0.2c0.1,0.2,0.2,0.3,0.3,0.5
	c0.1,0.1,0.2,0.3,0.3,0.4c0.4,0.6,0.8,1.2,1.3,1.8c0.5,0.6,1,1.1,1.5,1.7c0.3,0.3,0.5,0.5,0.8,0.8c0.1,0.1,0.3,0.3,0.4,0.4
	c0.1,0.1,0.3,0.3,0.4,0.4c0.1,0.1,0.3,0.3,0.5,0.4c0.2,0.1,0.3,0.2,0.5,0.4c0.3,0.2,0.6,0.5,1,0.7c0.7,0.5,1.4,0.9,2.1,1.3
	c0.7,0.4,1.5,0.7,2.3,0.9c0.2,0.1,0.4,0.1,0.6,0.2l0.1,0c0,0,0,0,0,0l0,0l0.2,0l0.3,0.1c0.4,0.1,0.9,0.2,1.3,0.2
	c0.9,0.1,1.9,0.3,2.8,0.4c1,0.1,1.9,0.3,2.9,0.5c0.5,0.1,1,0.2,1.5,0.4c0.5,0.1,1,0.3,1.4,0.5l0.3,0.1l0.3,0.2
	c0.2,0.1,0.4,0.2,0.7,0.4c0.4,0.2,0.9,0.5,1.3,0.8c1.7,1.1,3.1,2.5,4.5,3.9c0.7,0.7,1.4,1.4,2.1,2.2c0.7,0.7,1.4,1.5,2.1,2.2
	c0.7,0.7,1.4,1.4,2.1,2.1c0.7,0.7,1.4,1.3,2.2,1.9c0.4,0.3,0.8,0.5,1.2,0.8c0.2,0.1,0.4,0.2,0.6,0.4c0.2,0.1,0.4,0.2,0.6,0.3
	c0.4,0.2,0.8,0.4,1.2,0.6c0.2,0.1,0.4,0.2,0.6,0.2l0.7,0.2c0.4,0.1,0.9,0.3,1.3,0.4c0.4,0.1,0.9,0.3,1.3,0.4
	c0.5,0.1,0.9,0.2,1.4,0.3c0.2,0,0.5,0.1,0.7,0.1c0.2,0,0.5,0.1,0.7,0.1c0.5,0.1,0.9,0.1,1.4,0.2c0.3,0,0.7,0.1,1,0.1
	c-0.3-0.1-0.5-0.1-0.8-0.2c-1-0.3-2.2-0.7-3.5-1.3c-1.3-0.6-2.7-1.5-4.2-2.6c-1.4-1.1-2.9-2.4-4.3-3.9c-0.7-0.7-1.4-1.5-2.1-2.4
	c-0.7-0.8-1.4-1.7-2.1-2.5c-0.2-0.2-0.3-0.4-0.5-0.6L64,69l0,0l0,0c0,0,0,0,0,0l-0.1-0.1l-0.3-0.3c-0.2-0.2-0.4-0.4-0.6-0.5
	c-0.2-0.2-0.4-0.4-0.6-0.5c-0.8-0.7-1.7-1.3-2.6-1.8c-0.5-0.3-1-0.5-1.5-0.7c-0.5-0.2-1.1-0.3-1.6-0.5c-0.6-0.1-1.1-0.2-1.7-0.4
	c-0.6-0.1-1.2-0.2-1.8-0.4c-0.6-0.1-1.2-0.2-1.8-0.4c-0.6-0.1-1.2-0.2-1.8-0.4c-1.2-0.3-2.3-0.6-3.5-0.9c-2.3-0.7-4.4-1.7-6.4-2.8
	c-1.9-1.2-3.6-2.6-5-4.1c-1.4-1.5-2.4-3.2-3.1-4.9c-0.4-0.8-0.7-1.6-0.9-2.4c-0.2-0.8-0.4-1.5-0.6-2.2c-0.3-1.4-0.4-2.7-0.5-3.7
	c0-0.5,0-1,0-1.4c0-0.4,0-0.7,0-1c0-0.1,0-0.1,0-0.2c0,0-0.1-0.1-0.1-0.1c-0.8-0.8-1.5-1.7-2.2-2.7c-0.1,0.7-0.1,1.6-0.1,2.5
	C27.3,39.5,27.3,39.9,27.3,40.4z M46,41.5c-0.7-0.2-1.3-0.5-1.9-0.9c-1.3-0.7-2.4-1.6-3.5-2.5c-1.1-1-2.1-2.1-3-3.3
	c-0.9-1.2-1.8-2.4-2.5-3.6c-0.4-0.6-0.8-1.2-1.2-1.8c-0.2-0.3-0.4-0.6-0.6-0.9c-0.2-0.3-0.4-0.6-0.6-0.8c-0.2-0.3-0.4-0.5-0.6-0.8
	c-0.2-0.3-0.4-0.5-0.6-0.7c-0.4-0.5-0.9-0.9-1.3-1.4c-0.2-0.2-0.4-0.4-0.7-0.6c-0.1-0.1-0.2-0.2-0.3-0.3c-0.1-0.1-0.2-0.2-0.3-0.3
	c-0.4-0.4-0.9-0.7-1.3-1.1c-0.2-0.2-0.4-0.3-0.6-0.5c-0.1,0-0.1-0.1-0.2-0.1c-0.1,0-0.1-0.1-0.2-0.1c-0.1-0.1-0.2-0.1-0.3-0.2
	c-0.4-0.3-0.8-0.5-1.2-0.7c-0.2-0.1-0.4-0.2-0.6-0.3c0,0,0,0,0,0c0,0,0.1,0,0.1,0.1c0.2,0.1,0.3,0.2,0.5,0.4
	c0.2,0.1,0.3,0.3,0.5,0.4c0.1,0.1,0.2,0.1,0.3,0.2c0.1,0.1,0.2,0.2,0.2,0.2c0.2,0.2,0.3,0.3,0.5,0.5c0.7,0.7,1.3,1.5,2,2.4
	c0.3,0.4,0.6,0.9,1,1.4c0.3,0.5,0.6,1,1,1.5c0.6,1,1.3,2,2,3.1c0.7,1,1.4,2.1,2.2,3c0.4,0.5,0.8,1,1.2,1.4c0.4,0.5,0.9,0.9,1.3,1.3
	c0.5,0.4,0.9,0.8,1.4,1.2c0.2,0.2,0.5,0.4,0.7,0.5c0.1,0.1,0.3,0.2,0.4,0.3l0.2,0.1l0.2,0.1c1,0.6,2,1.1,3,1.6
	c1,0.4,1.9,0.8,2.8,1.1c0.3,0.1,0.7,0.2,1,0.3C46.5,41.8,46.3,41.7,46,41.5z M46,43.1c1,0,2-0.1,3-0.2c0.4,0,0.8-0.1,1.2-0.2
	c-0.1,0-0.2,0-0.3,0c-0.2,0-0.3,0-0.5,0c-0.2,0-0.3,0-0.5,0c-0.2,0-0.4,0-0.6-0.1c-0.8-0.1-1.7-0.2-2.6-0.5
	c-0.9-0.3-1.9-0.6-2.9-1.1c-1-0.5-2-1.1-3-1.8c-1-0.7-1.9-1.5-2.8-2.4c-0.2-0.2-0.5-0.4-0.7-0.6l-0.3-0.3l-0.3-0.3
	c-0.5-0.4-0.9-0.9-1.3-1.4c-0.9-0.9-1.7-1.9-2.5-2.9c-0.8-1-1.5-2-2.1-3c-0.3-0.5-0.7-1-1-1.5c-0.2-0.2-0.3-0.5-0.5-0.7
	c-0.2-0.2-0.3-0.5-0.5-0.7c-0.2-0.2-0.3-0.4-0.5-0.7c-0.2-0.2-0.3-0.4-0.5-0.6c-0.2-0.2-0.3-0.4-0.5-0.6c-0.2-0.2-0.3-0.4-0.5-0.6
	c-0.1-0.2-0.3-0.3-0.5-0.5c-0.1-0.1-0.1-0.2-0.2-0.2C25.1,22.1,25,22,25,21.9c-0.2-0.1-0.3-0.3-0.4-0.4c-0.2-0.1-0.3-0.3-0.4-0.4
	c-0.1-0.1-0.3-0.2-0.4-0.4c-0.1-0.1-0.3-0.2-0.4-0.3c-0.2-0.1-0.3-0.2-0.4-0.3c0.1,0.1,0.1,0.1,0.2,0.2l0,0l0,0l0,0.1l0.1,0.1
	l0.1,0.1l0.1,0.2c0.6,0.8,1,1.7,1.5,2.6c0.9,1.8,1.6,3.8,2.3,5.8c0.2,0.5,0.4,1,0.6,1.4c0.1,0.2,0.2,0.5,0.3,0.7
	c0.1,0.2,0.2,0.5,0.3,0.7c0.2,0.5,0.4,0.9,0.7,1.4c0.1,0.2,0.2,0.4,0.4,0.6c0.1,0.2,0.3,0.4,0.4,0.6c1.1,1.7,2.5,3.2,4.2,4.6
	c0.8,0.6,1.8,1.2,2.7,1.7c0.5,0.2,1,0.5,1.5,0.7c0.5,0.2,1,0.4,1.5,0.5C41.7,42.9,43.9,43.1,46,43.1z M33.1,42c0,0.1,0,0.3,0.1,0.4
	c0.2,1.1,0.4,2.3,0.8,3.8c0.2,0.7,0.5,1.5,0.8,2.3c0.2,0.4,0.3,0.8,0.5,1.2c0.2,0.4,0.4,0.8,0.6,1.2c0.2,0.4,0.5,0.8,0.8,1.1
	c0,0,0.1,0.1,0.1,0.1l0.1,0.1c0.1,0.1,0.2,0.2,0.2,0.3c0.2,0.2,0.3,0.4,0.5,0.5c0.7,0.7,1.4,1.4,2.3,2.1c1.7,1.3,3.7,2.4,5.9,3.3
	c0.5,0.2,1.1,0.4,1.7,0.6c0.6,0.2,1.2,0.4,1.7,0.5c0.6,0.2,1.2,0.3,1.8,0.5c0.6,0.1,1.2,0.3,1.8,0.4c0.5,0.1,0.9,0.2,1.4,0.3
	c0,0,0,0-0.1,0c-0.2-0.1-0.5-0.2-0.7-0.2c-0.2-0.1-0.5-0.2-0.7-0.3c-0.2-0.1-0.5-0.2-0.7-0.3c-0.5-0.2-1-0.4-1.5-0.7
	c-1-0.5-2-1-3-1.6c-1-0.6-1.9-1.2-2.9-2c-0.9-0.7-1.8-1.4-2.7-2.2l-0.3-0.3c-0.1-0.1-0.2-0.2-0.3-0.3c-0.2-0.2-0.4-0.4-0.6-0.6
	c-0.4-0.4-0.8-0.7-1.2-1.1c-0.4-0.4-0.8-0.7-1.1-1.1c-0.4-0.4-0.7-0.8-1-1.2c-0.2-0.2-0.3-0.4-0.5-0.6c-0.1-0.2-0.3-0.4-0.4-0.6
	c-0.3-0.4-0.5-0.8-0.7-1.1c-0.1-0.2-0.2-0.4-0.3-0.6c-0.1-0.2-0.2-0.4-0.3-0.5c-0.2-0.4-0.3-0.7-0.5-1c-0.3-0.6-0.5-1.2-0.7-1.7
	c-0.1-0.2-0.1-0.3-0.1-0.4C33.5,42.2,33.3,42.1,33.1,42z M56.4,60.4c-0.3-0.1-0.5-0.2-0.8-0.4c-0.3-0.1-0.5-0.2-0.8-0.4
	c-0.3-0.1-0.5-0.2-0.8-0.4s-0.5-0.2-0.8-0.4c-0.3-0.1-0.5-0.3-0.8-0.4c-0.3-0.1-0.5-0.3-0.7-0.4c-0.5-0.3-1-0.5-1.4-0.8
	c-0.2-0.1-0.5-0.3-0.7-0.4c-0.2-0.1-0.5-0.3-0.7-0.4c-0.2-0.2-0.4-0.3-0.7-0.5c-0.2-0.2-0.4-0.3-0.6-0.5c-0.4-0.3-0.8-0.6-1.2-0.9
	l-0.1-0.1c0,0,0,0,0,0l0,0l0,0l-0.1-0.1c-0.1-0.1-0.2-0.2-0.3-0.2c-0.2-0.2-0.4-0.3-0.5-0.5c-1.4-1.2-2.7-2.4-3.8-3.5
	c-0.3-0.3-0.5-0.6-0.8-0.9c-0.1-0.1-0.2-0.3-0.4-0.4c-0.1-0.2-0.2-0.3-0.4-0.4c-0.1-0.1-0.2-0.3-0.3-0.4c-0.1-0.1-0.2-0.3-0.3-0.4
	c-0.2-0.2-0.3-0.5-0.5-0.7c-0.6-0.9-1.2-1.5-1.5-2c-0.4-0.5-0.5-0.7-0.5-0.7c-0.1-0.1-0.2-0.3-0.2-0.4c-0.4-0.1-0.7-0.3-1.1-0.4
	c-0.5-0.2-1-0.5-1.5-0.7c0,0,0,0.1,0.1,0.1c0.1,0.1,0.1,0.2,0.2,0.4c0,0.1,0.1,0.1,0.1,0.2c0,0.1,0.1,0.1,0.1,0.2
	c0.1,0.1,0.1,0.3,0.2,0.4c0.1,0.1,0.1,0.3,0.2,0.4c0.2,0.3,0.4,0.6,0.6,1c0.1,0.2,0.2,0.3,0.3,0.5c0.1,0.2,0.2,0.4,0.3,0.5
	c0.2,0.4,0.5,0.7,0.8,1.1c0.1,0.2,0.3,0.4,0.4,0.6c0.1,0.2,0.3,0.4,0.4,0.6c0.1,0.2,0.3,0.4,0.5,0.6c0.2,0.2,0.3,0.4,0.5,0.6
	c0.3,0.4,0.7,0.8,1,1.2c0.7,0.8,1.5,1.6,2.4,2.3c0.9,0.7,1.8,1.4,2.8,2l0.7,0.5c0.2,0.1,0.5,0.3,0.7,0.4c0.2,0.1,0.5,0.3,0.7,0.4
	c0.2,0.1,0.5,0.3,0.7,0.4c1,0.5,2,1,3,1.5c0.5,0.2,1,0.4,1.4,0.6c0.2,0.1,0.5,0.2,0.7,0.3c0.2,0.1,0.5,0.2,0.7,0.3
	c0.5,0.2,0.9,0.3,1.3,0.5c0.4,0.2,0.9,0.3,1.3,0.4c0.4,0.1,0.8,0.3,1.2,0.4c0.3,0.1,0.6,0.2,0.8,0.3C57.6,60.9,57,60.7,56.4,60.4z
	 M63.2,64.2L62.8,64c-0.1-0.1-0.3-0.2-0.4-0.3c-0.2-0.2-0.5-0.3-0.8-0.4c-0.5-0.2-1.1-0.4-1.7-0.6c-1.2-0.3-2.4-0.6-3.6-0.8
	c-0.6-0.1-1.2-0.2-1.9-0.3c-0.6-0.1-1.2-0.2-1.9-0.3c-2.5-0.5-4.9-1.1-7.1-2c-1.1-0.5-2.2-1-3.2-1.5c-0.5-0.3-1-0.6-1.5-0.9
	c-0.5-0.3-0.9-0.6-1.4-1c-0.9-0.7-1.7-1.4-2.4-2.1c-0.2-0.2-0.4-0.4-0.5-0.6c-0.1-0.1-0.2-0.2-0.3-0.3L36,52.7
	c-0.1-0.1-0.1-0.1-0.1-0.2c-0.3-0.4-0.6-0.8-0.9-1.2c-0.3-0.4-0.5-0.8-0.7-1.2c-0.2-0.4-0.4-0.8-0.6-1.2c-0.4-0.8-0.7-1.6-0.9-2.3
	c-0.3-0.7-0.5-1.4-0.6-2.1c-0.1-0.3-0.2-0.6-0.2-0.9c-0.1-0.3-0.1-0.6-0.2-0.9c-0.2-0.7-0.3-1.3-0.3-1.8c-0.5-0.4-1-0.8-1.5-1.3
	c0,0,0,0.1,0,0.1c0,0.3,0,0.6,0,1c0,0.4,0,0.9,0.1,1.4c0.1,1,0.3,2.3,0.6,3.7c0.2,0.7,0.4,1.4,0.6,2.2c0.3,0.8,0.6,1.5,1,2.3
	c0.8,1.6,1.8,3.2,3.2,4.7c1.4,1.5,3,2.8,4.9,3.9c0.9,0.6,1.9,1.1,3,1.5c1,0.5,2.1,0.8,3.2,1.2c1.1,0.4,2.2,0.7,3.4,0.9
	c0.6,0.1,1.2,0.3,1.7,0.4c0.6,0.1,1.2,0.2,1.7,0.4c0.3,0.1,0.6,0.1,0.9,0.2l0.9,0.2c0.6,0.1,1.2,0.2,1.8,0.3
	c0.6,0.1,1.2,0.2,1.8,0.4c0.6,0.1,1.2,0.3,1.7,0.6c0.6,0.2,1.1,0.5,1.6,0.8c0.5,0.3,1,0.7,1.4,1c0.5,0.4,0.9,0.8,1.3,1.2
	c0.2,0.2,0.4,0.4,0.6,0.6c0.2,0.2,0.4,0.4,0.5,0.7c0.7,0.9,1.3,1.8,2,2.6c0.6,0.8,1.3,1.7,1.9,2.4c1.3,1.5,2.7,2.9,4,4.1
	c1.3,1.2,2.7,2.1,3.9,2.8c1.2,0.7,2.4,1.2,3.4,1.5c0.8,0.3,1.4,0.4,1.9,0.5c0.6,0,1.2,0,1.9,0c0.9,0,1.8-0.1,2.6-0.2
	c0.6-0.1,1.1-0.2,1.7-0.3c-0.9,0-1.9,0-3-0.1c-0.8-0.1-1.6-0.3-2.5-0.6c-0.9-0.3-1.8-0.6-2.7-1c-0.5-0.2-0.9-0.4-1.4-0.7
	c-0.4-0.2-0.9-0.5-1.4-0.8c-0.5-0.3-0.9-0.6-1.4-0.9c-0.2-0.1-0.5-0.3-0.7-0.5c-0.2-0.2-0.4-0.3-0.7-0.5c-0.4-0.3-0.9-0.7-1.4-1.1
	c-0.4-0.4-0.9-0.8-1.3-1.2c-0.8-0.9-1.6-1.8-2.3-2.7c-1.5-1.9-2.9-3.9-4.6-5.7C65.1,65.8,64.2,65,63.2,64.2z M97.2,56.8
	C97.2,56.8,97.2,56.8,97.2,56.8c0,0.2,0,0.3,0.1,0.5c0,0.2,0,0.4,0,0.6c0,0.4,0,1,0,1.5c-0.1,0.6-0.2,1.3-0.4,2
	c-0.2,0.7-0.5,1.5-1,2.2c-0.2,0.4-0.5,0.7-0.8,1.1c-0.3,0.3-0.7,0.7-1,1c-0.8,0.6-1.6,1.1-2.5,1.5c-0.5,0.2-0.9,0.4-1.4,0.5
	c-0.1,0-0.2,0.1-0.4,0.1c-0.1,0-0.2,0.1-0.4,0.1L89,67.9c-0.1,0-0.2,0-0.4,0.1c-1,0.2-2,0.3-3,0.2c-0.5,0-1-0.1-1.5-0.1
	c-0.5-0.1-1-0.1-1.4-0.2c-0.9-0.2-1.8-0.4-2.6-0.7c-0.4-0.1-0.8-0.2-1.1-0.4c-0.4-0.1-0.7-0.2-1.1-0.3c-0.2,0-0.3-0.1-0.5-0.2
	c-0.2,0-0.3-0.1-0.5-0.1c-0.3-0.1-0.6-0.2-0.9-0.2c-0.3-0.1-0.5-0.1-0.8-0.2c-0.2-0.1-0.5-0.1-0.7-0.1c-0.3,0-0.5,0-0.8,0
	c-1.2-0.1-2.5-0.2-3.7-0.4c-0.1,0-0.3,0-0.4-0.1c1.1,0.5,2.3,1.2,3.6,1.8c1.3,0.7,2.6,1.5,3.9,2.3c1.4,0.8,2.8,1.6,4.2,2.3
	c0.7,0.3,1.5,0.7,2.3,0.9c0.2,0.1,0.4,0.1,0.6,0.2c0.2,0.1,0.4,0.1,0.6,0.1c0.4,0.1,0.8,0.2,1.2,0.2c1.7,0.2,3.3,0.1,4.9-0.3
	c0.8-0.2,1.6-0.4,2.3-0.7c0.7-0.3,1.4-0.7,2-1.1c0.6-0.4,1.2-0.9,1.7-1.4c0.5-0.5,0.9-1.1,1.2-1.7c0.3-0.6,0.6-1.2,0.8-1.8l0-0.1
	l0-0.1c0-0.1,0-0.2,0.1-0.2c0-0.1,0.1-0.3,0.1-0.4c0.1-0.3,0.1-0.6,0.1-0.9c0.1-0.6,0.1-1.2,0-1.7c0-0.5-0.1-1.1-0.2-1.5
	c-0.2-1-0.5-1.8-0.9-2.4c-0.3-0.6-0.7-1.1-0.9-1.4c-0.1-0.1-0.1-0.1-0.2-0.2C97.3,56.9,97.2,56.8,97.2,56.8z M100.2,59.3
	c-0.5-0.7-1-1.2-1.5-1.6c-0.5-0.4-0.9-0.7-1.2-0.8c0,0,0,0,0,0c-0.1,0-0.1,0-0.1-0.1c0,0,0,0,0,0c0,0,0,0,0,0c0.1,0,0.1,0.1,0.2,0.2
	c0.3,0.3,0.7,0.7,1.2,1.3c0.4,0.6,0.9,1.4,1.2,2.5c0.3,1,0.5,2.2,0.5,3.5c0,1.3-0.4,2.8-1.1,4.1c-0.4,0.7-0.9,1.3-1.4,1.9
	c-0.6,0.6-1.2,1.1-1.9,1.5c-0.7,0.4-1.4,0.8-2.2,1.1c-0.8,0.3-1.6,0.6-2.4,0.7c-0.8,0.2-1.7,0.3-2.6,0.3c-0.9,0-1.7,0-2.6-0.1
	c-0.2,0-0.4,0-0.5-0.1c0.1,0,0.3,0.1,0.4,0.1c1.3,0.4,2.7,0.6,4.1,0.6c0.4,0,0.7,0,1.1,0c0.4,0,0.7-0.1,1.1-0.1
	c0.7-0.1,1.4-0.3,2.1-0.5c1.3-0.5,2.6-1.2,3.7-2c1.1-0.9,2-1.9,2.6-3c0.3-0.6,0.6-1.1,0.8-1.7c0.1-0.3,0.2-0.6,0.2-0.9l0-0.1
	c0,0,0,0,0,0l0,0l0,0l0-0.1c0-0.1,0-0.2,0-0.2c0-0.1,0-0.3,0.1-0.4c0.1-0.6,0-1.2,0-1.7c-0.1-0.6-0.2-1.1-0.3-1.6
	C101.1,60.8,100.7,60,100.2,59.3z M102.7,62.4c-0.3-1-0.8-1.8-1.3-2.5c-0.3-0.4-0.5-0.7-0.8-0.9c-0.1-0.1-0.2-0.2-0.3-0.3
	c0.1,0.1,0.2,0.2,0.3,0.4c0.6,0.7,1.1,1.6,1.4,2.7c0.3,1.1,0.6,2.3,0.5,3.6c-0.1,1.3-0.5,2.6-1.2,3.8c-0.7,1.2-1.7,2.3-2.9,3.2
	c-1.2,0.9-2.5,1.5-4,1.9c-0.7,0.2-1.4,0.3-2.2,0.4c-0.7,0.1-1.4,0.1-2.2,0.1c-1.4,0-2.8-0.2-4.2-0.4c-1.3-0.2-2.6-0.6-3.8-1.1
	c-1.2-0.5-2.2-1-3.2-1.5c-0.1-0.1-0.2-0.1-0.3-0.2c-0.7-0.3-1.4-0.6-2-1c-1.4-0.7-2.8-1.4-4.1-2.1c-1.3-0.7-2.5-1.3-3.6-1.8
	c-1-0.5-2-0.9-2.8-1.4c0,0,0.1,0.1,0.1,0.1c0.1,0.1,0.3,0.2,0.4,0.3c0.1,0.1,0.3,0.2,0.5,0.3c0.2,0.1,0.3,0.2,0.5,0.4
	c0.7,0.5,1.4,1.1,2.1,1.7c0.8,0.7,1.6,1.4,2.4,2.1c0.9,0.7,1.8,1.5,2.7,2.3c1,0.8,2,1.5,3.2,2.2c0.6,0.3,1.1,0.6,1.7,0.9
	c0.3,0.1,0.6,0.3,0.9,0.4c0.3,0.1,0.6,0.3,0.9,0.4c1.2,0.5,2.5,0.8,3.8,1.1c0.2,0,0.3,0.1,0.5,0.1l0.1,0l0.1,0l0.2,0
	c0.3,0.1,0.6,0.1,0.9,0.2c0.2,0,0.3,0,0.5,0.1c0.2,0,0.3,0,0.5,0.1c0.3,0,0.6,0.1,0.9,0.1c0.3,0,0.6,0,0.9,0c0.3,0,0.6,0,0.9,0
	c0.3,0,0.6,0,0.9,0c0.3,0,0.6,0,0.9-0.1c1.1-0.1,2.2-0.3,3.1-0.5c0.1,0,0.2-0.1,0.4-0.1s0.2-0.1,0.3-0.1c0.2-0.1,0.4-0.1,0.7-0.2
	c0.2-0.1,0.4-0.1,0.6-0.2c0.2-0.1,0.4-0.1,0.6-0.2c0.3-0.1,0.6-0.2,0.8-0.4c0.7-0.9,1.3-1.9,1.9-2.9c0.7-1.3,1.2-2.6,1.6-3.9
	c0.4-1.3,0.5-2.6,0.6-3.8C103.1,64.5,103,63.3,102.7,62.4z M60,23.4c-0.3,0.3-0.6,0.5-1,0.8c-0.2,0.1-0.4,0.3-0.6,0.4
	c-0.2,0.1-0.4,0.3-0.6,0.4c-0.9,0.6-2,1.1-3.3,1.4c-1.3,0.4-2.7,0.6-4.2,0.6c-0.8,0-1.5,0-2.3-0.1c-0.8-0.1-1.6-0.3-2.4-0.5
	l-0.3-0.1l-0.1,0l0,0l0,0l-0.1-0.1c-0.2-0.1-0.4-0.1-0.6-0.2c-0.2-0.1-0.4-0.2-0.6-0.2c-0.2-0.1-0.4-0.2-0.6-0.2
	c-0.8-0.3-1.5-0.7-2.3-1.2c-1.5-0.9-2.9-1.9-4.2-3c-1.3-1.1-2.6-2.2-3.9-3.3c-1.3-1.1-2.7-2-4.1-2.8c-0.3-0.2-0.7-0.4-1-0.6
	c-0.4-0.2-0.7-0.3-1-0.5c-0.3-0.2-0.7-0.3-1-0.4c-0.3-0.1-0.7-0.3-1-0.4c-0.7-0.2-1.4-0.4-2-0.5c-0.7-0.1-1.3-0.2-1.9-0.2
	c-1.3,0-2.4,0.1-3.4,0.4c-1,0.3-1.8,0.6-2.4,1c-0.6,0.4-1.1,0.7-1.4,1c-0.2,0.1-0.3,0.2-0.3,0.3c-0.1,0.1-0.1,0.1-0.1,0.1
	c0,0,0,0-0.1,0c0,0,0,0,0-0.1c0,0,0,0,0.1-0.1c0.1-0.1,0.2-0.2,0.3-0.4c0.3-0.3,0.7-0.7,1.3-1.2c0.6-0.4,1.5-0.9,2.5-1.2
	c0.5-0.2,1.1-0.3,1.7-0.4c0.6-0.1,1.2-0.1,1.9-0.1c1.3,0,2.8,0.2,4.2,0.7c0.3,0.1,0.7,0.3,1.1,0.4c0.2,0.1,0.3,0.2,0.5,0.2
	c0.2,0.1,0.4,0.2,0.5,0.3c0.7,0.4,1.4,0.8,2.1,1.2c1.3,0.9,2.7,1.9,4,2.9c1.3,1,2.7,2.1,4.1,3.1c1.4,1,2.8,2,4.2,2.8
	c1.5,0.8,2.9,1.5,4.5,1.9c0.8,0.2,1.5,0.4,2.3,0.4c0.7,0.1,1.5,0.2,2.2,0.2c0.7,0,1.4,0,2.1-0.1c0.7-0.1,1.3-0.2,1.9-0.4
	c0.6-0.2,1.2-0.3,1.7-0.6c0.5-0.2,1-0.4,1.5-0.7c0.9-0.5,1.6-1,2.2-1.5c0.6-0.5,1-0.9,1.3-1.2c0.3-0.3,0.4-0.4,0.4-0.4l0,0
	c0,0,0,0,0.1,0c0,0,0,0,0,0.1c0,0-0.1,0.2-0.4,0.5C60.9,22.5,60.5,22.9,60,23.4z M8.3,26.4C9,26.7,9.7,27,10,27.6
	c-0.7,0.2-1.4-0.2-2-0.4c-2.1-0.7-5.1-0.7-6.7-0.3c0.1-0.1,0.4-0.3,0.8-0.4C4.2,25.9,6.3,25.8,8.3,26.4z M4.9,29.6
	c0.3-0.1,0.4-0.8,0.7-0.7c0.1,0,0.3,0.2,0.4,0.3c0.3,0.3,0.9,0.3,1.3,0.4c0.7,0.1,1.3,0.5,1.7,1.1c-0.5-0.2-1-0.4-1.5-0.5
	c0,0,0,0.1,0,0.1c0,0.4,0,0.8-0.2,1.1c-0.2,0.2-0.4,0.4-0.7,0.4c-0.3,0.1-0.6,0-0.9-0.1c-0.3-0.1-0.5-0.3-0.7-0.5
	C5,31,5,30.8,5,30.5c0-0.1,0-0.1,0-0.2c-0.5,0.2-1,0.4-1.4,0.8c0,0.2,0.1,0.3,0.2,0.5C4,31.8,4.4,32,4.7,32.1
	c0.7,0.3,1.4,0.4,2.2,0.5c-0.2,0.1-0.4,0.1-0.6,0.1c-0.6,0.1-1.3,0-1.9-0.2c-0.5-0.2-1-0.4-1.3-0.8c-0.1,0-0.4-0.1-0.4-0.1
	c-0.4-0.2-0.9-0.2-1.3-0.4c0.4-0.4,0.9-0.6,1.4-0.5c-0.2-0.3-0.4-0.6-0.7-0.9c0.5,0.1,0.9,0.2,1.4,0.3c0.1,0,0.2,0,0.2,0
	c0.1,0,0.1-0.1,0.1-0.2c0-0.3,0-0.5-0.1-0.8C4.2,29,4.5,29.8,4.9,29.6z M6.8,30.8c0.2,0.1,0.4,0,0.4-0.2c0-0.1,0-0.2,0.1-0.3
	c-0.2,0-0.4-0.1-0.6-0.1c0,0.1,0,0.2,0,0.3C6.7,30.6,6.7,30.7,6.8,30.8z M9.5,39.3c-0.2-0.1-0.3-0.3-0.3-0.4c0-0.2,0.2-0.3,0.4-0.3
	c0.2,0,0.4,0.1,0.6,0.2c0.4,0.2,0.8,0.4,0.9,0.8c-0.3-0.1-0.4-0.2-0.6-0.2c-0.2,0-0.3,0-0.5,0C9.9,39.3,9.7,39.3,9.5,39.3z
	 M13.8,39.4c-0.2,0-0.5,0-0.7,0.1c0.3-0.4,0.8-0.8,1.4-1.1c0.2-0.1,0.4-0.1,0.5,0c0.1,0.1,0,0.3-0.1,0.4
	C14.6,39.2,14.2,39.4,13.8,39.4z M10.7,47.4c-1.5-0.5-2.3-1.7-3.1-3.1c0.6-0.6,0.8-1,1.5-1.4c0.7-0.4,1.7-0.5,2.4-0.2
	c0.3,0.1,0.5,0.3,0.8,0.3c0.5,0,0.9-0.4,1.4-0.4c0.4-0.1,1.1,0,1.4,0.2c0.8,0.3,0.9,0.6,1.6,1.1c-0.2,0.6-1.2,2.5-1.8,3
	C13.7,47.7,12.2,47.9,10.7,47.4z M12.6,44.5c-1.2,0.1-1.3-0.4-2.4,0.1c0.7,0.3,1.1,0.3,2.1,0.3c0.7,0,1.1-0.1,1.9-0.5
	C13.5,44.2,13.1,44.5,12.6,44.5z M17.1,27.2c-0.7,0.2-1.4,0.7-2,0.4c0.3-0.6,1-0.9,1.7-1.1c2-0.7,4.1-0.5,6.2,0
	c0.5,0.1,0.7,0.3,0.8,0.4C22.2,26.5,19.2,26.5,17.1,27.2z M17.9,29.7c0.5-0.1,1-0.1,1.3-0.4c0.1-0.1,0.3-0.3,0.4-0.3
	c0.3-0.1,0.4,0.5,0.7,0.7c0.4,0.2,0.7-0.6,1.2-0.6c-0.1,0.2-0.1,0.5-0.1,0.8c0,0.1,0,0.2,0.1,0.2c0.1,0.1,0.2,0,0.2,0
	c0.5-0.1,0.9-0.2,1.4-0.3c-0.2,0.3-0.4,0.6-0.7,0.9c0.5,0,1.1,0.2,1.4,0.5c-0.4,0.2-0.9,0.2-1.3,0.4c-0.1,0-0.3,0.1-0.4,0.1
	c-0.3,0.4-0.8,0.7-1.3,0.8c-0.6,0.2-1.2,0.2-1.9,0.2c-0.2,0-0.4,0-0.6-0.1c0.7,0,1.5-0.2,2.2-0.5c0.3-0.1,0.7-0.3,0.9-0.5
	c0.1-0.1,0.2-0.3,0.2-0.5c-0.4-0.3-0.8-0.5-1.2-0.7c0,0.4,0,0.7-0.2,1c-0.2,0.2-0.4,0.4-0.7,0.4c-0.3,0.1-0.6,0-0.9-0.1
	c-0.3-0.1-0.5-0.3-0.7-0.5c-0.1-0.2-0.2-0.5-0.2-0.8c0-0.1,0-0.2,0-0.3c0,0,0,0,0,0c-0.6,0.1-1.2,0.3-1.7,0.6
	C16.5,30.2,17.2,29.8,17.9,29.7z M19.7,30.8c0.2,0.1,0.4,0,0.4-0.2c0-0.1,0-0.2,0-0.3c-0.2-0.1-0.4-0.1-0.6-0.1c0,0.1,0,0.2,0,0.3
	C19.5,30.6,19.5,30.7,19.7,30.8z M1.8,45.3c0.2,0.4,0.5,0.8,0.7,1.2c0.3,0.4,0.6,0.8,0.9,1.3C3.6,48,3.8,48.2,4,48.4
	c0.1,0.1,0.2,0.2,0.3,0.3c0.1,0.1,0.2,0.2,0.3,0.3c0.2,0.2,0.4,0.4,0.6,0.6c0.2,0.2,0.4,0.4,0.6,0.6c0.4,0.4,0.9,0.8,1.4,1.2
	c0.5,0.4,1,0.8,1.6,1.1c0.2,0.1,0.5,0.3,0.7,0.4c0.1,0.1,0.3,0.1,0.5,0.2c0.2,0.1,0.3,0.1,0.5,0.2c0.1,0,0.2,0.1,0.3,0.1
	c0.6,0.2,1.2,0.4,1.8,0.5c0.7,0.1,1.4,0.2,2.1,0.3c0.7,0.1,1.4,0.2,2.1,0.4c0.7,0.2,1.4,0.5,2,0.8c0.7,0.4,1.3,0.8,1.8,1.4
	c0.6,0.6,1,1.2,1.3,2c0.3,0.7,0.5,1.5,0.6,2.1c0,0.1,0,0.2,0,0.3l0,0.1l0,0.1l0,0l0,0c0,0,0,0.1,0,0c0,0.1,0,0.2,0,0.2
	c0,0.1,0,0.1,0,0.2c0,0.4,0,0.7-0.1,1c0,0.3-0.1,0.6-0.2,0.9c0,0.2-0.1,0.3-0.1,0.4c-0.1,0.1-0.1,0.3-0.2,0.4
	c-0.2,0.6-0.5,1-0.8,1.5c-0.3,0.4-0.6,0.8-1,1.2c-0.3,0.3-0.7,0.7-1,0.9c-0.6,0.6-1.2,1-1.7,1.3c-0.2,0.2-0.5,0.3-0.7,0.4
	c-0.4,0.3-0.8,0.6-1.2,0.9c-0.3,0.2-0.6,0.4-0.9,0.6c-0.3,0.2-0.6,0.4-0.9,0.5c-0.3,0.2-0.5,0.3-0.7,0.4c-0.2,0.1-0.3,0.3-0.5,0.4
	c-0.5,0.4-1.1,0.7-1.6,1.1c-1,0.7-1.9,1.2-2.7,1.8c-0.8,0.6-1.3,1.2-1.8,1.7c-0.4,0.5-0.7,1-0.8,1.3c-0.1,0.2-0.1,0.3-0.2,0.4
	c0,0.1-0.1,0.1-0.1,0.1l0,0c0,0,0,0-0.1,0c0,0,0,0,0-0.1c0,0,0,0,0-0.1c0-0.1,0.1-0.2,0.2-0.4c0.1-0.3,0.4-0.9,0.8-1.4
	C6.8,77.3,7,77,7.3,76.7c0.3-0.3,0.6-0.7,1-1c0.7-0.7,1.6-1.4,2.5-2.1c0.9-0.8,1.9-1.6,2.7-2.6c0.8-1,1.5-2.3,1.9-3.6
	c0.1-0.3,0.2-0.7,0.3-1c0.1-0.3,0.2-0.7,0.2-1c0.1-0.7,0.2-1.3,0.2-2c0-1.3-0.4-2.6-1.1-3.8c-0.3-0.6-0.8-1.2-1.2-1.7
	c-0.5-0.5-1-1-1.6-1.4c-0.3-0.2-0.6-0.4-0.9-0.6c-0.3-0.2-0.6-0.4-0.9-0.5c-0.2-0.1-0.3-0.2-0.5-0.3c-0.2-0.1-0.3-0.2-0.5-0.3
	c-0.3-0.2-0.7-0.4-1-0.6c-1.3-0.8-2.5-1.7-3.5-2.7c-1-1-1.8-2.1-2.4-3.2c-0.3-0.5-0.6-1.1-0.8-1.6c-0.1-0.2-0.1-0.3-0.2-0.5
	c-0.1-0.2-0.2-0.4-0.3-0.6C1,45.4,0.9,45.2,0.8,45c0-0.1-0.1-0.2-0.1-0.3c0-0.1-0.1-0.2-0.1-0.3c-0.1-0.4-0.2-0.8-0.3-1.2
	c-0.1-0.4-0.1-0.7-0.2-1C0.1,41.6,0,41.1,0,40.8c0-0.1,0-0.1,0-0.2c0,0,0,0,0,0c0,0,0,0,0,0c0-0.2,0-0.3,0-0.3c0,0,0-0.1,0.1-0.1
	c0,0,0,0,0.1,0c0,0,0,0.2,0.1,0.5c0,0.2,0.1,0.3,0.1,0.6c0.1,0.2,0.1,0.5,0.2,0.8c0.1,0.3,0.2,0.6,0.3,0.9c0.1,0.3,0.3,0.7,0.4,1.1
	C1.4,44.5,1.6,44.9,1.8,45.3z M19,68.2c0.3-0.3,0.6-0.6,0.8-1c0.3-0.4,0.5-0.8,0.8-1.2c0.5-0.8,0.8-1.8,0.8-2.9l0-0.2l0-0.2
	c0-0.1,0-0.3,0-0.4c0-0.1,0-0.1,0-0.2l0-0.2l0-0.2l-0.1-0.2c-0.2-0.5-0.4-1.1-0.7-1.6c-0.3-0.5-0.7-1-1.1-1.4
	c-0.5-0.4-1-0.8-1.5-1.1c-0.3-0.2-0.6-0.4-0.9-0.6c0.6,0.5,1.2,1.1,1.7,1.8c0.3,0.4,0.6,0.8,0.9,1.3c0.3,0.4,0.5,0.9,0.7,1.4
	c0.3,1,0.5,2.1,0.4,3.1c-0.1,1-0.5,2-0.9,2.9C19.4,67.6,19.2,67.9,19,68.2C19,68.2,19,68.2,19,68.2z M17.1,58.3
	c0.5,0.7,0.9,1.6,1.2,2.5c0.3,0.9,0.4,1.8,0.4,2.7c0,0.9-0.2,1.8-0.4,2.6c-0.1,0.4-0.3,0.8-0.4,1.2c-0.2,0.4-0.4,0.7-0.6,1.1
	c-0.4,0.7-0.9,1.3-1.3,1.9c-0.1,0.1-0.1,0.1-0.2,0.2c0.5-0.4,1-0.9,1.5-1.4c0.1-0.1,0.2-0.2,0.2-0.2c0.1-0.1,0.1-0.2,0.2-0.2
	c0.1-0.2,0.3-0.3,0.5-0.5c0.3-0.3,0.5-0.7,0.8-1.1c0.5-0.8,0.8-1.7,1-2.6c0.2-0.9,0.2-2,0-2.9c-0.1-0.2-0.1-0.5-0.2-0.7
	c-0.1-0.2-0.2-0.5-0.3-0.7c-0.3-0.4-0.6-0.8-0.9-1.2c-0.7-0.8-1.4-1.4-2.2-1.9c-0.2-0.1-0.4-0.2-0.6-0.3
	C16.2,57.1,16.6,57.6,17.1,58.3z"/>
</svg>
