<?xml version="1.0" encoding="utf-8"?>
<!-- Generator: Adobe Illustrator 23.0.3, SVG Export Plug-In . SVG Version: 6.00 Build 0)  -->
<svg version="1.1" id="Capa_1" xmlns="http://www.w3.org/2000/svg" xmlns:xlink="http://www.w3.org/1999/xlink" x="0px" y="0px"
	 viewBox="0 0 93.3 154.1" style="enable-background:new 0 0 93.3 154.1;" xml:space="preserve">
<style type="text/css">
	.st0{fill:#FCD0A3;}
	.st1{opacity:0.16;fill:#FCD0A3;enable-background:new    ;}
	.st2{fill:#FFDE67;}
	.st3{fill:#233842;}
	.st4{fill:#E94941;}
	.st5{fill:#FFE176;}
	.st6{fill:none;stroke:#6F6F6E;stroke-width:0.1;stroke-linecap:round;stroke-linejoin:round;stroke-miterlimit:10;}
	.st7{fill:#DC2A2C;}
	.st8{opacity:0.25;fill:#F296A4;enable-background:new    ;}
	.st9{fill:#67657B;}
	.st10{fill:#8E8D9C;}
	.st11{fill:#5F5D73;}
	.st12{opacity:0.35;fill:#1D1A3A;enable-background:new    ;}
	.st13{fill:#FFFFFF;}
	.st14{fill:#EB5C54;}
</style>
<g>
	<g>
		<g>
			<path class="st0" d="M85.7,80.9c4,0,7.7-3.4,7.7-7.7s-3.7-7.7-7.7-7.7V80.9z"/>
			<path class="st1" d="M85.7,80.9c4,0,7.7-3.4,7.7-7.7s-3.7-7.7-7.7-7.7V80.9z"/>
		</g>
		<g>
			<path class="st0" d="M7.7,80.9c-4,0-7.7-3.4-7.7-7.7s3.7-7.7,7.7-7.7V80.9z"/>
			<path class="st1" d="M7.7,80.9c-4,0-7.7-3.4-7.7-7.7s3.7-7.7,7.7-7.7V80.9z"/>
		</g>
	</g>
	<g>
		<g>
			<g>
				<path class="st2" d="M58.4,150.7H37.1c-18,0-32.6-14.6-32.6-32.6V41.7h83.3v79.6C87.9,137.5,74.7,150.7,58.4,150.7z"/>
				<g>
					<path class="st3" d="M81.6,148.9c-0.3-1.7-0.8-3.4-1.5-5.1c-0.3-0.7-0.7-1.5-1.1-2.2c-1-1.8-2.3-3.5-3.8-5.1
						c-0.7-0.8-1.5-1.5-2.4-2.2c-2.6-2.2-5.7-4.1-9.2-5.4c-3.2-1.3-6.7-2.1-10.4-2.4c-1.2-0.1-2.4-0.2-3.7-0.2h-6.8
						c-1.2,0-2.5,0.1-3.7,0.2c-3.7,0.3-7.2,1.2-10.4,2.4c-3.5,1.4-6.6,3.2-9.2,5.4c-0.8,0.7-1.6,1.4-2.4,2.2
						c-1.5,1.6-2.8,3.3-3.8,5.1c-0.4,0.7-0.7,1.4-1.1,2.2c-0.7,1.6-1.2,3.3-1.5,5.1c-0.1,0.7-0.2,1.5-0.2,2.2
						c1.2,0.2,2.3,0.4,3.5,0.6c4,0.6,8,1.1,11.9,1.5c0.2,0,0.3,0,0.5,0c17.3,1.7,34.7,1.1,51.9-1.5c1.2-0.2,2.3-0.4,3.5-0.6
						C81.8,150.3,81.7,149.6,81.6,148.9z"/>
					<path class="st4" d="M12.6,144.4c4.8,5.2,16.1,2.9,21.3-0.1c6.7-3.9,8.5-10.1,8.7-17.4c0-0.2-0.1-0.4-0.1-0.5
						c-1.2,0-2.3,0.1-3.5,0.2c-3.7,0.3-7.2,1.2-10.4,2.4c-3.5,1.4-6.6,3.2-9.2,5.4c-0.8,0.7-1.6,1.4-2.4,2.2
						c-1.5,1.6-2.8,3.3-3.8,5.1c-0.4,0.7-0.7,1.4-1.1,2.2c0,0.1-0.1,0.2-0.1,0.2C12.3,144.2,12.4,144.3,12.6,144.4z"/>
					<path class="st4" d="M49.9,128c0,9.9,7,18.2,16.4,20.2c4.7,1,10.2,1,15-0.6c-0.3-1.3-0.7-2.6-1.2-3.8c-0.3-0.7-0.7-1.5-1.1-2.2
						c-1-1.8-2.3-3.5-3.8-5.1c-0.7-0.8-1.5-1.5-2.4-2.2c-2.6-2.2-5.7-4.1-9.2-5.4c-3.2-1.3-6.7-2.1-10.4-2.4c-1.2-0.1-2-0.2-3.3-0.2
						C49.9,126.3,49.9,127.3,49.9,128z"/>
				</g>
				<g>
					<path class="st0" d="M46.2,128.9L46.2,128.9c-1.9,0-3.5-1.6-3.5-3.5v-14c0-1.9,1.6-3.5,3.5-3.5l0,0c1.9,0,3.5,1.6,3.5,3.5v14
						C49.7,127.3,48.2,128.9,46.2,128.9z"/>
					<path class="st0" d="M46.2,115.3L46.2,115.3c-21.9,0-39.7-17.8-39.7-39.7v-34C6.6,19.8,24.3,2,46.2,2l0,0
						c21.9,0,39.7,17.8,39.7,39.7v34C85.9,97.6,68.1,115.3,46.2,115.3z"/>
					<path class="st1" d="M24.5,104.9c-5.9-7.4-7.6-16.1-7.8-25.3c-0.2-9.2-0.3-17.5,0.3-26.7c0.5-8.9,2.3-17.6,6.8-25
						C30,17.8,41.1,8.2,51.8,2.4C49.9,2.1,48,2,46.1,2l0,0C24.2,2,6.5,19.8,6.5,41.7v34c0,18,12,33.2,28.5,38.1
						C31,111.4,27.4,108.5,24.5,104.9z"/>
				</g>
			</g>
			<path class="st5" d="M87.8,54.7V42.4C87.8,19.1,68.8-0.4,45.4,0C22.8,0.4,4.5,18.9,4.5,41.7v31.9l7.3-4.8
				c12.9-8.4,28-41.1,43.4-41.4L87.8,54.7z"/>
		</g>
		<g>
			<g>
				<path class="st6" d="M24.8,91.3c5.6,5.2,13.1,8.3,21.4,8.3c8.3,0,15.8-3.2,21.4-8.3"/>
				<g>
					<path class="st7" d="M41,99.1l1.5,1.8c0.6,0.8,1.6,1.2,2.6,1.2h2.5c1,0,1.9-0.5,2.5-1.3l1.4-1.8H41z"/>
					<path class="st4" d="M46.8,97.1l-0.3,0.3c-0.1,0.1-0.4,0.1-0.5,0l-0.3-0.3c-0.7-0.7-1.9-0.7-2.6,0l-2,2h2.7
						c0.7,0,1.3,0.1,1.9,0.3l0.3,0.1c0.2,0.1,0.4,0.1,0.7,0l0.3-0.1c0.5-0.2,1.1-0.3,1.7-0.3h2.8l-2.1-2.1
						C48.6,96.3,47.5,96.4,46.8,97.1z"/>
				</g>
			</g>
			<g>
				
					<ellipse transform="matrix(0.2525 -0.9676 0.9676 0.2525 -56.0757 77.6608)" class="st8" cx="22.2" cy="75.1" rx="7.4" ry="12"/>
				
					<ellipse transform="matrix(0.9676 -0.2525 0.2525 0.9676 -16.6952 20.1412)" class="st8" cx="70.1" cy="75.1" rx="12" ry="7.4"/>
			</g>
			<g>
				<g>
					<g>
						<g>
							<g>
								<g>
									<path class="st9" d="M66.5,62.6c1.4,0.3,2.8-0.5,3.2-1.8c0-0.2-0.2-0.2-0.2-0.1c-0.4,1.2-1.7,1.9-2.9,1.6
										C66.4,62.4,66.4,62.6,66.5,62.6L66.5,62.6z"/>
								</g>
							</g>
							<g>
								<g>
									<path class="st9" d="M66.4,62.3c1.2,0,2.2-1,2.2-2.1c0-0.2-0.2-0.2-0.3,0c-0.1,1.1-0.9,1.9-2,1.9
										C66.2,62,66.2,62.3,66.4,62.3L66.4,62.3z"/>
								</g>
							</g>
							<g>
								<g>
									<path class="st9" d="M66.6,63c0.9,0.6,2,0.8,3.1,0.5c0.2,0,0.1-0.3-0.1-0.2c-1,0.3-2,0.2-2.9-0.4
										C66.6,62.7,66.5,62.9,66.6,63L66.6,63z"/>
								</g>
							</g>
						</g>
						<g>
							<g>
								<circle class="st9" cx="63.6" cy="63.9" r="3.3"/>
								<circle class="st10" cx="63.6" cy="63.9" r="3.1"/>
								<polygon class="st11" points="61,62.5 62.3,63.1 61.2,62.2 62.4,63 61.4,61.9 62.5,62.9 61.6,61.7 62.7,62.8 61.8,61.5 
									62.8,62.7 62.1,61.3 62.9,62.6 62.4,61.2 63.1,62.5 62.7,61.1 63.2,62.5 63,61 63.4,62.4 63.3,60.9 63.5,62.4 63.6,60.9 
									63.7,62.4 64,61 63.9,62.4 64.3,61 64,62.5 64.6,61.1 64.2,62.5 64.9,61.2 64.3,62.6 65.2,61.4 64.4,62.7 65.4,61.6 
									64.6,62.8 65.7,61.8 64.7,62.9 65.9,62 64.8,63 66.1,62.3 64.9,63.2 66.2,62.6 65,63.3 66.4,62.9 65,63.5 66.5,63.2 
									65.1,63.6 66.5,63.5 65.1,63.8 66.6,63.8 65.1,63.9 66.6,64.1 65.1,64.1 66.5,64.4 65,64.3 66.4,64.8 65,64.4 66.3,65.1 
									64.9,64.6 66.2,65.3 64.9,64.7 66,65.6 64.8,64.8 65.8,65.9 64.7,64.9 65.6,66.1 64.5,65.1 65.4,66.3 64.4,65.2 65.1,66.5 
									64.3,65.2 64.8,66.6 64.1,65.3 64.5,66.7 64,65.3 64.2,66.8 63.8,65.4 63.9,66.9 63.6,65.4 63.5,66.9 63.5,65.4 63.2,66.9 
									63.3,65.4 62.9,66.8 63.2,65.3 62.6,66.7 63,65.3 62.3,66.6 62.9,65.2 62,66.4 62.7,65.1 61.8,66.2 62.6,65 61.5,66 
									62.5,64.9 61.3,65.8 62.4,64.8 61.1,65.5 62.3,64.7 60.9,65.3 62.2,64.5 60.8,65 62.2,64.4 60.7,64.7 62.1,64.2 60.7,64.3 
									62.1,64 60.6,64 62.1,63.9 60.6,63.7 62.1,63.7 60.7,63.4 62.1,63.6 60.7,63.1 62.2,63.4 60.9,62.8 62.3,63.3 								"/>
							</g>
							<g>
								<circle class="st12" cx="63.6" cy="63.9" r="1.6"/>
								<path class="st13" d="M64.6,63.2C64.6,63.2,64.6,63.2,64.6,63.2c0-0.3-0.2-0.5-0.5-0.5c-0.3,0-0.5,0.2-0.5,0.5
									c0,0.3,0.2,0.5,0.5,0.5c0,0,0.1,0,0.1,0c0,0,0.1,0,0.1,0c0.2,0,0.3-0.1,0.3-0.3C64.6,63.3,64.6,63.2,64.6,63.2z"/>
							</g>
						</g>
					</g>
					<g>
						<g>
							<g>
								<g>
									<path class="st9" d="M26.2,62.2c-1.2,0.3-2.5-0.4-2.9-1.6c0-0.2-0.3-0.1-0.2,0.1c0.4,1.3,1.8,2.1,3.2,1.8
										C26.4,62.4,26.4,62.1,26.2,62.2L26.2,62.2z"/>
								</g>
							</g>
							<g>
								<g>
									<path class="st9" d="M26.5,61.8c-1,0-1.9-0.8-2-1.9c0-0.2-0.3-0.2-0.3,0c0.1,1.2,1.1,2.1,2.2,2.1
										C26.6,62.1,26.6,61.8,26.5,61.8L26.5,61.8z"/>
								</g>
							</g>
							<g>
								<g>
									<path class="st9" d="M26.1,62.5c-0.9,0.6-1.9,0.7-2.9,0.4c-0.2,0-0.2,0.2-0.1,0.2c1.1,0.3,2.2,0.2,3.1-0.5
										C26.3,62.7,26.2,62.4,26.1,62.5L26.1,62.5z"/>
								</g>
							</g>
						</g>
						<g>
							<g>
								<circle class="st9" cx="29.1" cy="63.7" r="3.3"/>
								<circle class="st10" cx="29.1" cy="63.7" r="3.1"/>
								<polygon class="st11" points="26.5,62.3 27.9,62.9 26.7,62 28,62.8 26.9,61.7 28.1,62.6 27.1,61.5 28.2,62.5 27.4,61.3 
									28.3,62.4 27.6,61.1 28.5,62.4 27.9,61 28.6,62.3 28.2,60.9 28.8,62.2 28.5,60.8 28.9,62.2 28.9,60.7 29.1,62.2 29.2,60.7 
									29.2,62.2 29.5,60.7 29.4,62.2 29.8,60.8 29.5,62.3 30.1,60.9 29.7,62.3 30.4,61 29.8,62.4 30.7,61.2 30,62.5 31,61.4 
									30.1,62.6 31.2,61.6 30.2,62.7 31.4,61.8 30.3,62.8 31.6,62.1 30.4,62.9 31.8,62.3 30.5,63.1 31.9,62.6 30.5,63.2 32,62.9 
									30.6,63.4 32.1,63.3 30.6,63.6 32.1,63.6 30.6,63.7 32.1,63.9 30.6,63.9 32.1,64.2 30.6,64 32,64.5 30.5,64.2 31.9,64.8 
									30.5,64.3 31.7,65.1 30.4,64.5 31.6,65.4 30.3,64.6 31.4,65.7 30.2,64.7 31.1,65.9 30.1,64.8 30.9,66.1 29.9,64.9 
									30.6,66.3 29.8,65 30.3,66.4 29.7,65.1 30,66.5 29.5,65.1 29.7,66.6 29.3,65.2 29.4,66.7 29.2,65.2 29.1,66.7 29,65.2 
									28.8,66.6 28.9,65.2 28.4,66.6 28.7,65.1 28.1,66.5 28.6,65.1 27.8,66.4 28.4,65 27.5,66.2 28.3,64.9 27.3,66 28.1,64.8 
									27,65.8 28,64.7 26.8,65.6 27.9,64.6 26.6,65.3 27.8,64.4 26.5,65 27.8,64.3 26.3,64.7 27.7,64.1 26.2,64.4 27.7,64 
									26.2,64.1 27.6,63.8 26.2,63.8 27.6,63.7 26.2,63.5 27.6,63.5 26.2,63.2 27.7,63.3 26.3,62.8 27.7,63.2 26.4,62.5 27.8,63 
																	"/>
							</g>
							<g>
								<circle class="st12" cx="29.1" cy="63.7" r="1.6"/>
								<path class="st13" d="M30.1,63C30.1,63,30.1,63,30.1,63c0-0.3-0.2-0.5-0.5-0.5c-0.3,0-0.5,0.2-0.5,0.5s0.2,0.5,0.5,0.5
									c0,0,0.1,0,0.1,0c0,0,0.1,0,0.1,0c0.2,0,0.3-0.1,0.3-0.3C30.2,63.1,30.1,63,30.1,63z"/>
							</g>
						</g>
					</g>
				</g>
				<g>
					<path class="st14" d="M80.4,56H53.2c-2.5,0-4.6,2.1-4.6,4.6c0,0.1,0,0.2,0,0.3h-4.9c0-0.1,0-0.2,0-0.3c0-2.5-2.1-4.6-4.6-4.6
						H11.9c-0.5,0-0.9,0.4-0.9,0.9c0,10,8.2,18.2,18.2,18.2c7.3,0,13.3-5.4,14.4-12.4h5.2c1,7,7.1,12.4,14.4,12.4
						c10,0,18.2-8.2,18.2-18.2C81.3,56.4,80.9,56,80.4,56z M29.2,73.2c-8.7,0-15.8-6.8-16.3-15.4h26.2c1.5,0,2.7,1.2,2.7,2.7
						C41.8,67.6,36.2,73.2,29.2,73.2z M63.2,73.2c-7,0-12.6-5.7-12.6-12.6c0-1.5,1.2-2.7,2.7-2.7h26.2
						C78.9,66.4,71.8,73.2,63.2,73.2z"/>
				</g>
			</g>
		</g>
	</g>
</g>
</svg>
