<?xml version="1.0" encoding="utf-8"?>
<!-- Generator: Adobe Illustrator 22.1.0, SVG Export Plug-In . SVG Version: 6.00 Build 0)  -->
<svg version="1.1" id="Layer_1" xmlns="http://www.w3.org/2000/svg" xmlns:xlink="http://www.w3.org/1999/xlink" x="0px" y="0px"
	 viewBox="0 0 1201 618" style="enable-background:new 0 0 1201 618;" xml:space="preserve">
<style type="text/css">
	.st0{fill:#F34236;}
</style>
<path class="st0" d="M1200.1,468.1c-0.1,0.4-0.5,1.1-0.5,1.1c-2.5,5.1-9.3,8.3-9.3,8.3s-6.8-3.3-9.3-8.3c-0.2-0.4-0.5-1.1-0.5-1.1
	c-0.3-0.8-0.4-1.6-0.4-2.5c0-3.2,2.6-5.8,5.8-5.8c1.7,0,3.2,0.7,4.3,1.9c1.1-1.1,2.6-1.9,4.3-1.9c3.2,0,5.8,2.6,5.8,5.8
	C1200.6,466.5,1200.4,467.3,1200.1,468.1z M1181.4,68.2c-2.5,5.1-9.3,8.3-9.3,8.3s-6.8-3.3-9.3-8.3c-0.2-0.4-0.5-1.1-0.5-1.1
	c-0.3-0.8-0.4-1.6-0.4-2.5c0-3.2,2.6-5.8,5.8-5.8c1.7,0,3.2,0.7,4.3,1.9c1.1-1.1,2.6-1.9,4.3-1.9c3.2,0,5.8,2.6,5.8,5.8
	c0,0.9-0.2,1.7-0.4,2.5C1181.7,67.5,1181.4,68.2,1181.4,68.2z M1168.7,557.2c0,0.7-0.1,1.4-0.3,2c-0.1,0.4-0.4,0.9-0.4,0.9
	c-2,4.1-7.5,6.8-7.5,6.8s-5.5-2.7-7.5-6.8c-0.2-0.3-0.4-0.9-0.4-0.9c-0.2-0.6-0.3-1.3-0.3-2c0-2.6,2.1-4.8,4.8-4.8
	c1.4,0,2.6,0.6,3.5,1.5c0.9-0.9,2.1-1.5,3.5-1.5C1166.5,552.4,1168.7,554.5,1168.7,557.2z M1138.2,193.7c-2.7,5.6-10.2,9.2-10.2,9.2
	s-7.5-3.6-10.2-9.2c-0.2-0.4-0.5-1.2-0.5-1.2c-0.3-0.9-0.5-1.8-0.5-2.8c0-3.6,2.9-6.5,6.5-6.5c1.9,0,3.6,0.8,4.7,2.1
	c1.2-1.3,2.9-2.1,4.7-2.1c3.6,0,6.5,2.9,6.5,6.5c0,1-0.2,1.9-0.5,2.8C1138.6,193,1138.2,193.7,1138.2,193.7z M1121.8,47.1
	c-3.3,6.7-12.3,11.1-12.3,11.1s-9-4.4-12.3-11.1c-0.3-0.5-0.6-1.5-0.6-1.5c-0.4-1.1-0.6-2.2-0.6-3.3c0-4.3,3.5-7.7,7.7-7.7
	c2.2,0,4.3,1,5.7,2.5c1.4-1.5,3.4-2.5,5.7-2.5c4.3,0,7.7,3.5,7.7,7.7c0,1.2-0.2,2.3-0.6,3.3C1122.3,46.2,1121.8,47.1,1121.8,47.1z
	 M1101.1,291.3c1.6,0,3,0.7,4,1.7c1-1.1,2.4-1.7,4-1.7c3,0,5.4,2.4,5.4,5.4c0,0.8-0.2,1.6-0.4,2.3c-0.1,0.4-0.4,1-0.4,1
	c-2.3,4.7-8.6,7.7-8.6,7.7s-6.3-3-8.6-7.7c-0.2-0.4-0.4-1-0.4-1c-0.2-0.7-0.4-1.5-0.4-2.3C1095.7,293.8,1098.1,291.3,1101.1,291.3z
	 M1097.8,438.1c1.4-1.5,3.4-2.5,5.7-2.5c4.3,0,7.8,3.5,7.8,7.8c0,1.1-0.2,2.3-0.6,3.3c-0.2,0.6-0.6,1.5-0.6,1.5
	c-3.3,6.7-12.3,11.1-12.3,11.1s-9-4.4-12.3-11.1c-0.3-0.5-0.6-1.5-0.6-1.5c-0.4-1.1-0.6-2.2-0.6-3.3c0-4.3,3.5-7.8,7.8-7.8
	C1094.4,435.6,1096.4,436.6,1097.8,438.1z M1077.3,185.9c-5.8,11.9-21.8,19.7-21.8,19.7s-10.4-5-17.5-13.2
	c-9.5,8.7-20.1,13.8-20.1,13.8s-23.5-11.4-32-28.9c-0.7-1.4-1.6-3.9-1.6-3.9c-0.9-2.8-1.5-5.6-1.5-8.6c0-11.2,9.1-20.2,20.2-20.2
	c5.9,0,11.1,2.5,14.8,6.5c3.7-4,9-6.5,14.8-6.5c11.2,0,20.2,9.1,20.2,20.2c0,0.4,0,0.7,0,1c0.9,0.6,1.8,1.3,2.6,2.2
	c2.5-2.7,6.1-4.4,10.1-4.4c7.6,0,13.8,6.2,13.8,13.8c0,2-0.4,4-1,5.9C1078.1,184.3,1077.3,185.9,1077.3,185.9z M1045.6,75.7
	c-2.5,5.2-9.4,8.5-9.4,8.5s-6.9-3.3-9.4-8.5c-0.2-0.4-0.5-1.1-0.5-1.1c-0.3-0.8-0.4-1.7-0.4-2.5c0-3.3,2.7-6,6-6
	c1.7,0,3.3,0.7,4.4,1.9c1.1-1.2,2.6-1.9,4.4-1.9c3.3,0,6,2.7,6,6c0,0.9-0.2,1.7-0.4,2.5C1045.9,75.1,1045.6,75.7,1045.6,75.7z
	 M1024.4,485.3c0,0-6.9-3.3-9.4-8.5c-0.2-0.4-0.5-1.1-0.5-1.1c-0.3-0.8-0.4-1.7-0.4-2.5c0-3.3,2.7-6,6-6c1.7,0,3.3,0.7,4.4,1.9
	c1.1-1.2,2.6-1.9,4.4-1.9c3.3,0,6,2.7,6,6c0,0.9-0.2,1.7-0.4,2.5c-0.1,0.4-0.5,1.1-0.5,1.1C1031.3,481.9,1024.4,485.3,1024.4,485.3z
	 M1006.1,552.1c3.7-4,9-6.5,14.8-6.5c11.2,0,20.2,9.1,20.2,20.2c0,0.4,0,0.7,0,1c0.9,0.6,1.8,1.3,2.6,2.2c2.5-2.7,6.1-4.4,10.1-4.4
	c7.6,0,13.8,6.2,13.8,13.8c0,2-0.4,4-1,5.9c-0.3,1-1.1,2.6-1.1,2.6c-5.8,12-21.8,19.7-21.8,19.7s-10.4-5-17.5-13.2
	c-9.5,8.7-20.1,13.8-20.1,13.8s-23.5-11.4-32-28.9c-0.7-1.4-1.6-3.9-1.6-3.9c-0.9-2.8-1.5-5.6-1.5-8.6c0-11.2,9.1-20.2,20.2-20.2
	C997.2,545.6,1002.4,548.1,1006.1,552.1z M966.3,35.2c-3.3,6.8-12.4,11.2-12.4,11.2s-9.1-4.4-12.4-11.2c-0.3-0.5-0.6-1.5-0.6-1.5
	c-0.4-1.1-0.6-2.2-0.6-3.3c0-4.3,3.5-7.8,7.8-7.8c2.3,0,4.3,1,5.7,2.5c1.4-1.5,3.5-2.5,5.7-2.5c4.3,0,7.8,3.5,7.8,7.8
	c0,1.2-0.2,2.3-0.6,3.3C966.7,34.3,966.3,35.2,966.3,35.2z M956.5,105c0,1.7-0.3,3.3-0.8,4.8c-0.3,0.9-0.9,2.2-0.9,2.2
	c-4.8,9.8-17.9,16.1-17.9,16.1s-13.1-6.3-17.9-16.1c-0.4-0.8-0.9-2.2-0.9-2.2c-0.5-1.5-0.8-3.1-0.8-4.8c0-6.2,5.1-11.3,11.3-11.3
	c3.3,0,6.2,1.4,8.3,3.6c2.1-2.2,5-3.6,8.3-3.6C951.4,93.7,956.5,98.8,956.5,105z M925.1,498.4c2.1-2.2,5-3.6,8.3-3.6
	c6.2,0,11.3,5.1,11.3,11.3c0,1.7-0.3,3.3-0.8,4.8c-0.3,0.9-0.9,2.2-0.9,2.2c-4.8,9.8-17.9,16.1-17.9,16.1s-13.1-6.3-17.9-16.1
	c-0.4-0.8-0.9-2.2-0.9-2.2c-0.5-1.5-0.8-3.1-0.8-4.8c0-6.2,5.1-11.3,11.3-11.3C920.1,494.8,923.1,496.2,925.1,498.4z M906.9,191.7
	c-2.2,4.5-8.3,7.5-8.3,7.5s-6.1-2.9-8.3-7.5c-0.2-0.4-0.4-1-0.4-1c-0.2-0.7-0.4-1.5-0.4-2.2c0-2.9,2.3-5.2,5.2-5.2
	c1.5,0,2.9,0.6,3.8,1.7c1-1,2.3-1.7,3.8-1.7c2.9,0,5.2,2.3,5.2,5.2c0,0.8-0.2,1.5-0.4,2.2C907.2,191.1,906.9,191.7,906.9,191.7z
	 M895.9,589.6c0,0.8-0.2,1.5-0.4,2.2c-0.1,0.4-0.4,1-0.4,1c-2.2,4.5-8.3,7.5-8.3,7.5s-6.1-2.9-8.3-7.5c-0.2-0.4-0.4-1-0.4-1
	c-0.2-0.7-0.4-1.5-0.4-2.2c0-2.9,2.3-5.2,5.2-5.2c1.5,0,2.9,0.6,3.8,1.7c1-1,2.3-1.7,3.8-1.7C893.5,584.3,895.9,586.7,895.9,589.6z
	 M873.9,85.3c-1.6,3.3-6,5.4-6,5.4s-4.4-2.1-6-5.4c-0.1-0.3-0.3-0.7-0.3-0.7c-0.2-0.5-0.3-1.1-0.3-1.6c0-2.1,1.7-3.8,3.8-3.8
	c1.1,0,2.1,0.5,2.8,1.2c0.7-0.7,1.7-1.2,2.8-1.2c2.1,0,3.8,1.7,3.8,3.8c0,0.6-0.1,1.1-0.3,1.6C874.1,84.9,873.9,85.3,873.9,85.3z
	 M860.8,28.9c-1.7,3.4-6.2,5.6-6.2,5.6s-4.6-2.2-6.2-5.6c-0.1-0.3-0.3-0.8-0.3-0.8c-0.2-0.5-0.3-1.1-0.3-1.7c0-2.2,1.8-3.9,3.9-3.9
	c1.1,0,2.2,0.5,2.9,1.3c0.7-0.8,1.7-1.3,2.9-1.3c2.2,0,3.9,1.8,3.9,3.9c0,0.6-0.1,1.1-0.3,1.7C861,28.4,860.8,28.9,860.8,28.9z
	 M861.4,182.5c0,2.5-0.5,4.8-1.2,7.1c-0.4,1.3-1.3,3.2-1.3,3.2c-7,14.4-26.4,23.8-26.4,23.8s-19.4-9.4-26.4-23.8
	c-0.6-1.1-1.3-3.2-1.3-3.2c-0.8-2.3-1.2-4.7-1.2-7.1c0-9.2,7.5-16.7,16.7-16.7c4.8,0,9.2,2.1,12.2,5.3c3-3.3,7.4-5.3,12.2-5.3
	C853.9,165.8,861.4,173.3,861.4,182.5z M820.7,344.4c0,0-1.9-0.9-2.6-2.4c-0.1-0.1-0.1-0.3-0.1-0.3c-0.1-0.2-0.1-0.5-0.1-0.7
	c0-0.9,0.7-1.7,1.7-1.7c0.5,0,0.9,0.2,1.2,0.5c0.3-0.3,0.7-0.5,1.2-0.5c0.9,0,1.7,0.7,1.7,1.7c0,0.2,0,0.5-0.1,0.7
	c0,0.1-0.1,0.3-0.1,0.3C822.6,343.5,820.7,344.4,820.7,344.4z M842.8,435.5c0,0-4.6-2.2-6.2-5.6c-0.1-0.3-0.3-0.8-0.3-0.8
	c-0.2-0.5-0.3-1.1-0.3-1.7c0-2.2,1.8-3.9,3.9-3.9c1.1,0,2.2,0.5,2.9,1.3c0.7-0.8,1.7-1.3,2.9-1.3c2.2,0,3.9,1.8,3.9,3.9
	c0,0.6-0.1,1.1-0.3,1.7c-0.1,0.3-0.3,0.8-0.3,0.8C847.4,433.3,842.8,435.5,842.8,435.5z M820.7,572.2c3.1-3.3,7.4-5.3,12.2-5.3
	c9.2,0,16.7,7.5,16.7,16.7c0,2.5-0.5,4.8-1.2,7.1c-0.4,1.3-1.3,3.2-1.3,3.2c-7,14.5-26.4,23.8-26.4,23.8s-19.4-9.4-26.4-23.8
	c-0.6-1.1-1.3-3.2-1.3-3.2c-0.8-2.3-1.2-4.7-1.2-7.1c0-9.2,7.5-16.7,16.7-16.7C813.3,566.9,817.7,568.9,820.7,572.2z M793,110.7
	c-3.3,6.8-12.4,11.2-12.4,11.2s-9.1-4.4-12.4-11.2c-0.3-0.5-0.6-1.5-0.6-1.5c-0.4-1.1-0.6-2.2-0.6-3.3c0-4.3,3.5-7.8,7.8-7.8
	c2.3,0,4.3,1,5.7,2.5c1.4-1.5,3.5-2.5,5.7-2.5c4.3,0,7.8,3.5,7.8,7.8c0,1.2-0.2,2.3-0.6,3.3C793.5,109.8,793,110.7,793,110.7z
	 M793.7,69.8c-1.6,3.3-6,5.4-6,5.4s-4.4-2.1-6-5.4c-0.1-0.3-0.3-0.7-0.3-0.7c-0.2-0.5-0.3-1.1-0.3-1.6c0-2.1,1.7-3.8,3.8-3.8
	c1.1,0,2.1,0.5,2.8,1.2c0.7-0.7,1.7-1.2,2.8-1.2c2.1,0,3.8,1.7,3.8,3.8c0,0.6-0.1,1.1-0.3,1.6C793.9,69.4,793.7,69.8,793.7,69.8z
	 M768.1,391c0.5,0,0.9,0.2,1.2,0.5c0.3-0.3,0.7-0.5,1.2-0.5c0.9,0,1.7,0.7,1.7,1.7c0,0.2,0,0.5-0.1,0.7c0,0.1-0.1,0.3-0.1,0.3
	c-0.7,1.4-2.6,2.4-2.6,2.4s-1.9-0.9-2.6-2.4c-0.1-0.1-0.1-0.3-0.1-0.3c-0.1-0.2-0.1-0.5-0.1-0.7C766.5,391.8,767.2,391,768.1,391z
	 M775.9,476.2c0,0-4.4-2.1-6-5.4c-0.1-0.3-0.3-0.7-0.3-0.7c-0.2-0.5-0.3-1.1-0.3-1.6c0-2.1,1.7-3.8,3.8-3.8c1.1,0,2.1,0.5,2.8,1.2
	c0.7-0.7,1.7-1.2,2.8-1.2c2.1,0,3.8,1.7,3.8,3.8c0,0.6-0.1,1.1-0.3,1.6c-0.1,0.3-0.3,0.7-0.3,0.7
	C780.2,474.1,775.9,476.2,775.9,476.2z M768.8,501.6c1.4-1.5,3.5-2.5,5.7-2.5c4.3,0,7.8,3.5,7.8,7.8c0,1.2-0.2,2.3-0.6,3.3
	c-0.2,0.6-0.6,1.5-0.6,1.5c-3.3,6.8-12.4,11.2-12.4,11.2s-9.1-4.4-12.4-11.2c-0.3-0.5-0.6-1.5-0.6-1.5c-0.4-1.1-0.6-2.2-0.6-3.3
	c0-4.3,3.5-7.8,7.8-7.8C765.4,499.1,767.4,500.1,768.8,501.6z M701.8,327.1c-3.3,6.8-12.4,11.2-12.4,11.2s-9.1-4.4-12.4-11.2
	c-0.3-0.5-0.6-1.5-0.6-1.5c-0.4-1.1-0.6-2.2-0.6-3.3c0-4.3,3.5-7.8,7.8-7.8c2.3,0,4.3,1,5.7,2.5c1.4-1.5,3.5-2.5,5.7-2.5
	c4.3,0,7.8,3.5,7.8,7.8c0,1.2-0.2,2.3-0.6,3.3C702.2,326.2,701.8,327.1,701.8,327.1z M673.2,208.6c-7,14.5-26.4,23.8-26.4,23.8
	s-19.4-9.4-26.4-23.8c-0.6-1.1-1.3-3.2-1.3-3.2c-0.8-2.3-1.2-4.7-1.2-7.1c0-9.2,7.5-16.7,16.7-16.7c4.8,0,9.2,2.1,12.2,5.3
	c3.1-3.3,7.4-5.3,12.2-5.3c9.2,0,16.7,7.5,16.7,16.7c0,2.5-0.5,4.8-1.2,7.1C674.1,206.7,673.2,208.6,673.2,208.6z M606.4,328.8
	c-0.7,1.4-2.6,2.4-2.6,2.4s-1.9-0.9-2.6-2.4c-0.1-0.1-0.1-0.3-0.1-0.3c-0.1-0.2-0.1-0.5-0.1-0.7c0-0.9,0.7-1.7,1.7-1.7
	c0.5,0,0.9,0.2,1.2,0.5c0.3-0.3,0.7-0.5,1.2-0.5c0.9,0,1.7,0.7,1.7,1.7c0,0.2,0,0.5-0.1,0.7C606.5,328.6,606.4,328.8,606.4,328.8z
	 M596.9,528c-3.3,6.8-12.4,11.2-12.4,11.2s-9.1-4.4-12.4-11.2c-0.3-0.5-0.6-1.5-0.6-1.5c-0.4-1.1-0.6-2.2-0.6-3.3
	c0-4.3,3.5-7.8,7.8-7.8c2.3,0,4.3,1,5.7,2.5c1.4-1.5,3.5-2.5,5.7-2.5c4.3,0,7.8,3.5,7.8,7.8c0,1.2-0.2,2.3-0.6,3.3
	C597.4,527.1,596.9,528,596.9,528z M584,333.2c-1.7,3.4-6.2,5.6-6.2,5.6s-4.6-2.2-6.2-5.6c-0.1-0.3-0.3-0.8-0.3-0.8
	c-0.2-0.5-0.3-1.1-0.3-1.7c0-2.2,1.8-3.9,3.9-3.9c1.1,0,2.2,0.5,2.9,1.3c0.7-0.8,1.7-1.3,2.9-1.3c2.2,0,3.9,1.8,3.9,3.9
	c0,0.6-0.1,1.1-0.3,1.7C584.2,332.8,584,333.2,584,333.2z M576.6,56.5c-1.6,3.3-6,5.4-6,5.4s-4.4-2.1-6-5.4
	c-0.1-0.3-0.3-0.7-0.3-0.7c-0.2-0.5-0.3-1.1-0.3-1.6c0-2.1,1.7-3.8,3.8-3.8c1.1,0,2.1,0.5,2.8,1.2c0.7-0.7,1.7-1.2,2.8-1.2
	c2.1,0,3.8,1.7,3.8,3.8c0,0.6-0.1,1.1-0.3,1.6C576.8,56.1,576.6,56.5,576.6,56.5z M565.2,456.8c-0.1,0.3-0.3,0.7-0.3,0.7
	c-1.6,3.3-6,5.4-6,5.4s-4.4-2.1-6-5.4c-0.1-0.3-0.3-0.7-0.3-0.7c-0.2-0.5-0.3-1.1-0.3-1.6c0-2.1,1.7-3.8,3.8-3.8
	c1.1,0,2.1,0.5,2.8,1.2c0.7-0.7,1.7-1.2,2.8-1.2c2.1,0,3.8,1.7,3.8,3.8C565.5,455.8,565.4,456.3,565.2,456.8z M556.8,231.6
	c-3.3,6.8-12.4,11.2-12.4,11.2s-9.1-4.4-12.4-11.2c-0.3-0.5-0.6-1.5-0.6-1.5c-0.4-1.1-0.6-2.2-0.6-3.3c0-4.3,3.5-7.8,7.8-7.8
	c2.3,0,4.3,1,5.7,2.5c1.4-1.5,3.5-2.5,5.7-2.5c4.3,0,7.8,3.5,7.8,7.8c0,1.2-0.2,2.3-0.6,3.3C557.3,230.7,556.8,231.6,556.8,231.6z
	 M548.9,96.7c-3.3,6.8-12.4,11.2-12.4,11.2s-9.1-4.4-12.4-11.2c-0.3-0.5-0.6-1.5-0.6-1.5c-0.4-1.1-0.6-2.2-0.6-3.3
	c0-4.3,3.5-7.8,7.8-7.8c2.3,0,4.3,1,5.7,2.5C538,85,540,84,542.3,84c4.3,0,7.8,3.5,7.8,7.8c0,1.2-0.2,2.3-0.6,3.3
	C549.3,95.7,548.9,96.7,548.9,96.7z M516.2,24.6c-3.3,6.8-12.4,11.2-12.4,11.2s-9.1-4.4-12.4-11.2c-0.3-0.5-0.6-1.5-0.6-1.5
	c-0.4-1.1-0.6-2.2-0.6-3.3c0-4.3,3.5-7.8,7.8-7.8c2.3,0,4.3,1,5.7,2.5c1.4-1.5,3.5-2.5,5.7-2.5c4.3,0,7.8,3.5,7.8,7.8
	c0,1.2-0.2,2.3-0.6,3.3C516.7,23.7,516.2,24.6,516.2,24.6z M497.3,145.8c1.4-1.5,3.5-2.5,5.7-2.5c4.3,0,7.8,3.5,7.8,7.8
	c0,1.2-0.2,2.3-0.6,3.3c-0.2,0.6-0.6,1.5-0.6,1.5c-3.3,6.8-12.4,11.2-12.4,11.2s-9.1-4.4-12.4-11.2c-0.3-0.5-0.6-1.5-0.6-1.5
	c-0.4-1.1-0.6-2.2-0.6-3.3c0-4.3,3.5-7.8,7.8-7.8C493.8,143.3,495.8,144.3,497.3,145.8z M503.7,282.6c3.1-3.3,7.4-5.3,12.2-5.3
	c9.2,0,16.7,7.5,16.7,16.7c0,2.5-0.5,4.8-1.2,7.1c-0.4,1.3-1.3,3.2-1.3,3.2c-7,14.4-26.4,23.8-26.4,23.8s-19.4-9.4-26.4-23.8
	c-0.6-1.1-1.3-3.2-1.3-3.2c-0.8-2.3-1.2-4.7-1.2-7.1c0-9.2,7.5-16.7,16.7-16.7C496.3,277.3,500.7,279.3,503.7,282.6z M479.8,544.4
	c2.3,0,4.3,1,5.7,2.5c1.4-1.5,3.5-2.5,5.7-2.5c4.3,0,7.8,3.5,7.8,7.8c0,1.2-0.2,2.3-0.6,3.3c-0.2,0.6-0.6,1.5-0.6,1.5
	c-3.3,6.8-12.4,11.2-12.4,11.2s-9.1-4.4-12.4-11.2c-0.3-0.5-0.6-1.5-0.6-1.5c-0.4-1.1-0.6-2.2-0.6-3.3
	C472,547.9,475.5,544.4,479.8,544.4z M445.1,45.7c-2.5,5.1-9.3,8.3-9.3,8.3s-6.8-3.3-9.3-8.3c-0.2-0.4-0.5-1.1-0.5-1.1
	c-0.3-0.8-0.4-1.6-0.4-2.5c0-3.2,2.6-5.8,5.8-5.8c1.7,0,3.2,0.7,4.3,1.9c1.1-1.1,2.6-1.9,4.3-1.9c3.2,0,5.8,2.6,5.8,5.8
	c0,0.9-0.2,1.7-0.4,2.5C445.4,45,445.1,45.7,445.1,45.7z M434.3,443.1c0,0.9-0.2,1.7-0.4,2.5c-0.1,0.4-0.5,1.1-0.5,1.1
	c-2.5,5.1-9.3,8.3-9.3,8.3s-6.8-3.3-9.3-8.3c-0.2-0.4-0.5-1.1-0.5-1.1c-0.3-0.8-0.4-1.6-0.4-2.5c0-3.2,2.6-5.8,5.8-5.8
	c1.7,0,3.2,0.7,4.3,1.9c1.1-1.1,2.6-1.9,4.3-1.9C431.7,437.3,434.3,439.9,434.3,443.1z M401.9,171.2c-2.7,5.6-10.2,9.2-10.2,9.2
	s-7.5-3.6-10.2-9.2c-0.2-0.4-0.5-1.2-0.5-1.2c-0.3-0.9-0.5-1.8-0.5-2.8c0-3.6,2.9-6.5,6.5-6.5c1.9,0,3.6,0.8,4.7,2.1
	c1.2-1.3,2.9-2.1,4.7-2.1c3.6,0,6.5,2.9,6.5,6.5c0,1-0.2,1.9-0.5,2.8C402.3,170.4,401.9,171.2,401.9,171.2z M385.5,24.6
	c-3.3,6.7-12.3,11.1-12.3,11.1s-9-4.4-12.3-11.1c-0.3-0.5-0.6-1.5-0.6-1.5c-0.4-1.1-0.6-2.2-0.6-3.3c0-4.3,3.5-7.7,7.7-7.7
	c2.2,0,4.3,1,5.7,2.5c1.4-1.5,3.4-2.5,5.7-2.5c4.3,0,7.8,3.5,7.8,7.7c0,1.1-0.2,2.3-0.6,3.3C386,23.7,385.5,24.6,385.5,24.6z
	 M364.8,268.8c1.6,0,3,0.7,4,1.7c1-1.1,2.4-1.7,4-1.7c3,0,5.4,2.4,5.4,5.4c0,0.8-0.2,1.6-0.4,2.3c-0.1,0.4-0.4,1-0.4,1
	c-2.3,4.7-8.6,7.7-8.6,7.7s-6.3-3-8.6-7.7c-0.2-0.4-0.4-1-0.4-1c-0.2-0.7-0.4-1.5-0.4-2.3C359.4,271.3,361.8,268.8,364.8,268.8z
	 M361.5,415.6c1.4-1.5,3.4-2.5,5.7-2.5c4.3,0,7.8,3.5,7.8,7.8c0,1.1-0.2,2.3-0.6,3.3c-0.2,0.6-0.6,1.5-0.6,1.5
	c-3.3,6.7-12.3,11.1-12.3,11.1s-9-4.4-12.3-11.1c-0.3-0.5-0.6-1.5-0.6-1.5c-0.4-1.1-0.6-2.2-0.6-3.3c0-4.3,3.5-7.8,7.8-7.8
	C358.1,413.1,360.1,414,361.5,415.6z M341,163.4c-5.8,11.9-21.8,19.7-21.8,19.7s-10.4-5-17.5-13.2c-9.5,8.7-20.1,13.8-20.1,13.8
	s-23.5-11.4-32-28.9c-0.7-1.4-1.6-3.9-1.6-3.9c-0.9-2.8-1.4-5.6-1.4-8.6c0-11.2,9.1-20.2,20.2-20.2c5.9,0,11.1,2.5,14.8,6.5
	c3.7-4,9-6.5,14.8-6.5c11.2,0,20.2,9.1,20.2,20.2c0,0.4,0,0.7,0,1c0.9,0.6,1.8,1.3,2.6,2.2c2.5-2.7,6.1-4.4,10.1-4.4
	c7.6,0,13.8,6.2,13.8,13.8c0,2-0.4,4-1,5.9C341.8,161.8,341,163.4,341,163.4z M309.3,53.2c-2.5,5.2-9.4,8.5-9.4,8.5
	s-6.9-3.3-9.4-8.5c-0.2-0.4-0.5-1.1-0.5-1.1c-0.3-0.8-0.4-1.7-0.4-2.5c0-3.3,2.7-6,6-6c1.7,0,3.3,0.7,4.4,1.9
	c1.1-1.2,2.6-1.9,4.4-1.9c3.3,0,6,2.7,6,6c0,0.9-0.2,1.7-0.4,2.5C309.6,52.5,309.3,53.2,309.3,53.2z M288.1,462.8
	c0,0-6.9-3.3-9.4-8.5c-0.2-0.4-0.5-1.1-0.5-1.1c-0.3-0.8-0.4-1.7-0.4-2.5c0-3.3,2.7-6,6-6c1.7,0,3.3,0.7,4.4,1.9
	c1.1-1.2,2.6-1.9,4.4-1.9c3.3,0,6,2.7,6,6c0,0.9-0.2,1.7-0.4,2.5c-0.1,0.4-0.5,1.1-0.5,1.1C295,459.4,288.1,462.8,288.1,462.8z
	 M269.8,529.6c3.7-4,9-6.5,14.8-6.5c11.2,0,20.2,9.1,20.2,20.2c0,0.4,0,0.7,0,1c0.9,0.6,1.8,1.3,2.6,2.2c2.5-2.7,6.1-4.4,10.1-4.4
	c7.6,0,13.8,6.2,13.8,13.8c0,2-0.4,4-1,5.9c-0.3,1-1.1,2.6-1.1,2.6c-5.8,12-21.8,19.7-21.8,19.7s-10.4-5-17.5-13.2
	c-9.5,8.7-20.1,13.8-20.1,13.8s-23.5-11.4-32-28.9c-0.7-1.4-1.6-3.9-1.6-3.9c-0.9-2.8-1.5-5.6-1.5-8.6c0-11.2,9.1-20.2,20.2-20.2
	C260.9,523.1,266.1,525.6,269.8,529.6z M230,12.7c-3.3,6.8-12.4,11.2-12.4,11.2s-9.1-4.4-12.4-11.2c-0.3-0.5-0.6-1.5-0.6-1.5
	c-0.4-1.1-0.6-2.2-0.6-3.3c0-4.3,3.5-7.8,7.8-7.8c2.3,0,4.3,1,5.7,2.5c1.4-1.5,3.5-2.5,5.7-2.5c4.3,0,7.8,3.5,7.8,7.8
	c0,1.2-0.2,2.3-0.6,3.3C230.4,11.8,230,12.7,230,12.7z M220.2,82.5c0,1.7-0.3,3.3-0.8,4.8c-0.3,0.9-0.9,2.2-0.9,2.2
	c-4.8,9.8-17.9,16.1-17.9,16.1s-13.1-6.3-17.9-16.1c-0.4-0.8-0.9-2.2-0.9-2.2c-0.5-1.5-0.8-3.1-0.8-4.8c0-6.2,5.1-11.3,11.3-11.3
	c3.3,0,6.2,1.4,8.3,3.6c2.1-2.2,5-3.6,8.3-3.6C215.1,71.2,220.2,76.3,220.2,82.5z M188.9,475.9c2.1-2.2,5-3.6,8.3-3.6
	c6.2,0,11.3,5.1,11.3,11.3c0,1.7-0.3,3.3-0.8,4.8c-0.3,0.9-0.9,2.2-0.9,2.2c-4.8,9.8-17.9,16.1-17.9,16.1s-13.1-6.3-17.9-16.1
	c-0.4-0.8-0.9-2.2-0.9-2.2c-0.5-1.5-0.8-3.1-0.8-4.8c0-6.2,5.1-11.3,11.3-11.3C183.9,472.3,186.8,473.7,188.9,475.9z M170.6,169.2
	c-2.2,4.5-8.3,7.5-8.3,7.5s-6.1-2.9-8.3-7.5c-0.2-0.4-0.4-1-0.4-1c-0.2-0.7-0.4-1.5-0.4-2.2c0-2.9,2.3-5.2,5.2-5.2
	c1.5,0,2.9,0.6,3.8,1.7c1-1,2.3-1.7,3.8-1.7c2.9,0,5.2,2.3,5.2,5.2c0,0.8-0.2,1.5-0.4,2.2C170.9,168.6,170.6,169.2,170.6,169.2z
	 M159.6,567.1c0,0.8-0.2,1.5-0.4,2.2c-0.1,0.4-0.4,1-0.4,1c-2.2,4.5-8.3,7.5-8.3,7.5s-6.1-2.9-8.3-7.5c-0.2-0.4-0.4-1-0.4-1
	c-0.2-0.7-0.4-1.5-0.4-2.2c0-2.9,2.3-5.2,5.2-5.2c1.5,0,2.9,0.6,3.8,1.7c1-1,2.3-1.7,3.8-1.7C157.3,561.8,159.6,564.2,159.6,567.1z
	 M137.6,62.8c-1.6,3.3-6,5.4-6,5.4s-4.4-2.1-6-5.4c-0.1-0.3-0.3-0.7-0.3-0.7c-0.2-0.5-0.3-1.1-0.3-1.6c0-2.1,1.7-3.8,3.8-3.8
	c1.1,0,2.1,0.5,2.8,1.2c0.7-0.7,1.7-1.2,2.8-1.2c2.1,0,3.8,1.7,3.8,3.8c0,0.6-0.1,1.1-0.3,1.6C137.8,62.3,137.6,62.8,137.6,62.8z
	 M124.5,6.4c-1.7,3.4-6.2,5.6-6.2,5.6s-4.6-2.2-6.2-5.6c-0.1-0.3-0.3-0.8-0.3-0.8c-0.2-0.5-0.3-1.1-0.3-1.7c0-2.2,1.8-3.9,3.9-3.9
	c1.1,0,2.2,0.5,2.9,1.3c0.7-0.8,1.7-1.3,2.9-1.3c2.2,0,3.9,1.8,3.9,3.9c0,0.6-0.1,1.1-0.3,1.7C124.8,5.9,124.5,6.4,124.5,6.4z
	 M113.1,406.6c-0.1,0.3-0.3,0.8-0.3,0.8c-1.7,3.4-6.2,5.6-6.2,5.6s-4.6-2.2-6.2-5.6c-0.1-0.3-0.3-0.8-0.3-0.8
	c-0.2-0.5-0.3-1.1-0.3-1.7c0-2.2,1.8-3.9,3.9-3.9c1.1,0,2.2,0.5,2.9,1.3c0.7-0.8,1.7-1.3,2.9-1.3c2.2,0,3.9,1.8,3.9,3.9
	C113.3,405.5,113.2,406.1,113.1,406.6z M113.3,561.1c0,2.5-0.5,4.8-1.2,7.1c-0.4,1.3-1.3,3.2-1.3,3.2c-7,14.5-26.4,23.8-26.4,23.8
	S65,585.8,58,571.4c-0.6-1.1-1.3-3.2-1.3-3.2c-0.8-2.3-1.2-4.7-1.2-7.1c0-9.2,7.5-16.7,16.7-16.7c4.8,0,9.2,2.1,12.2,5.3
	c3.1-3.3,7.4-5.3,12.2-5.3C105.9,544.4,113.3,551.8,113.3,561.1z M87.1,319.5c-0.7,1.4-2.6,2.4-2.6,2.4s-1.9-0.9-2.6-2.4
	c-0.1-0.1-0.1-0.3-0.1-0.3c-0.1-0.2-0.1-0.5-0.1-0.7c0-0.9,0.7-1.7,1.7-1.7c0.5,0,0.9,0.2,1.2,0.5c0.3-0.3,0.7-0.5,1.2-0.5
	c0.9,0,1.7,0.7,1.7,1.7c0,0.2,0,0.5-0.1,0.7C87.1,319.3,87.1,319.5,87.1,319.5z M55.6,170.3c-7,14.4-26.4,23.8-26.4,23.8
	s-19.4-9.4-26.4-23.8c-0.6-1.1-1.3-3.2-1.3-3.2c-0.8-2.3-1.2-4.7-1.2-7.1c0-9.2,7.5-16.7,16.7-16.7c4.8,0,9.2,2.1,12.2,5.3
	c3.1-3.3,7.4-5.3,12.2-5.3c9.2,0,16.7,7.5,16.7,16.7c0,2.5-0.5,4.8-1.2,7.1C56.5,168.4,55.6,170.3,55.6,170.3z M56.8,88.2
	C53.5,95,44.4,99.4,44.4,99.4S35.3,95,32,88.2c-0.3-0.5-0.6-1.5-0.6-1.5c-0.4-1.1-0.6-2.2-0.6-3.3c0-4.3,3.5-7.8,7.8-7.8
	c2.3,0,4.3,1,5.7,2.5c1.4-1.5,3.5-2.5,5.7-2.5c4.3,0,7.8,3.5,7.8,7.8c0,1.2-0.2,2.3-0.6,3.3C57.2,87.3,56.8,88.2,56.8,88.2z
	 M57.4,47.3c-1.6,3.3-6,5.4-6,5.4s-4.4-2.1-6-5.4c-0.1-0.3-0.3-0.7-0.3-0.7c-0.2-0.5-0.3-1-0.3-1.6c0-2.1,1.7-3.8,3.8-3.8
	c1.1,0,2.1,0.5,2.8,1.2c0.7-0.7,1.7-1.2,2.8-1.2c2.1,0,3.8,1.7,3.8,3.8c0,0.6-0.1,1.1-0.3,1.6C57.6,46.8,57.4,47.3,57.4,47.3z
	 M33.1,373.6c0,0-1.9-0.9-2.6-2.4c-0.1-0.1-0.1-0.3-0.1-0.3c-0.1-0.2-0.1-0.5-0.1-0.7c0-0.9,0.7-1.7,1.7-1.7c0.5,0,0.9,0.2,1.2,0.5
	c0.3-0.3,0.7-0.5,1.2-0.5c0.9,0,1.7,0.7,1.7,1.7c0,0.2,0,0.5-0.1,0.7c0,0.1-0.1,0.3-0.1,0.3C35,372.7,33.1,373.6,33.1,373.6z
	 M39.6,443.4c0.7-0.7,1.7-1.2,2.8-1.2c2.1,0,3.8,1.7,3.8,3.8c0,0.6-0.1,1.1-0.3,1.6c-0.1,0.3-0.3,0.7-0.3,0.7c-1.6,3.3-6,5.4-6,5.4
	s-4.4-2.1-6-5.4c-0.1-0.3-0.3-0.7-0.3-0.7c-0.2-0.5-0.3-1.1-0.3-1.6c0-2.1,1.7-3.8,3.8-3.8C37.9,442.2,38.9,442.7,39.6,443.4z
	 M26.8,476.6c2.3,0,4.3,1,5.7,2.5c1.4-1.5,3.5-2.5,5.7-2.5c4.3,0,7.8,3.5,7.8,7.8c0,1.2-0.2,2.3-0.6,3.3c-0.2,0.6-0.6,1.5-0.6,1.5
	c-3.3,6.8-12.4,11.2-12.4,11.2s-9.1-4.4-12.4-11.2c-0.3-0.5-0.6-1.5-0.6-1.5c-0.4-1.1-0.6-2.2-0.6-3.3
	C19,480.1,22.5,476.6,26.8,476.6z M117.1,457.7c1.1,0,2.1,0.5,2.8,1.2c0.7-0.7,1.7-1.2,2.8-1.2c2.1,0,3.8,1.7,3.8,3.8
	c0,0.6-0.1,1.1-0.3,1.6c-0.1,0.3-0.3,0.7-0.3,0.7c-1.6,3.3-6,5.4-6,5.4s-4.4-2.1-6-5.4c-0.1-0.3-0.3-0.7-0.3-0.7
	c-0.2-0.5-0.3-1.1-0.3-1.6C113.3,459.4,115,457.7,117.1,457.7z M190,553.9c2.3,0,4.3,1,5.7,2.5c1.4-1.5,3.5-2.5,5.7-2.5
	c4.3,0,7.8,3.5,7.8,7.8c0,1.2-0.2,2.3-0.6,3.3c-0.2,0.6-0.6,1.5-0.6,1.5c-3.3,6.8-12.4,11.2-12.4,11.2s-9.1-4.4-12.4-11.2
	c-0.3-0.5-0.6-1.5-0.6-1.5c-0.4-1.1-0.6-2.2-0.6-3.3C182.2,557.5,185.7,553.9,190,553.9z M205.8,424.9c0,0-9.1-4.4-12.4-11.2
	c-0.3-0.5-0.6-1.5-0.6-1.5c-0.4-1.1-0.6-2.2-0.6-3.3c0-4.3,3.5-7.8,7.8-7.8c2.3,0,4.3,1,5.7,2.5c1.4-1.5,3.5-2.5,5.7-2.5
	c4.3,0,7.8,3.5,7.8,7.8c0,1.2-0.2,2.3-0.6,3.3c-0.2,0.6-0.6,1.5-0.6,1.5C214.9,420.5,205.8,424.9,205.8,424.9z M195.7,339.1
	c0,0.3-0.1,0.6-0.1,0.8c0,0.1-0.2,0.4-0.2,0.4c-0.8,1.7-3.1,2.8-3.1,2.8s-2.3-1.1-3.1-2.8c-0.1-0.1-0.2-0.4-0.2-0.4
	c-0.1-0.3-0.1-0.6-0.1-0.8c0-1.1,0.9-2,2-2c0.6,0,1.1,0.2,1.5,0.6c0.4-0.4,0.9-0.6,1.5-0.6C194.8,337.1,195.7,338,195.7,339.1z
	 M207.5,176.7c0,0-9.1-4.4-12.4-11.2c-0.3-0.5-0.6-1.5-0.6-1.5c-0.4-1.1-0.6-2.2-0.6-3.3c0-4.3,3.5-7.8,7.8-7.8c2.3,0,4.3,1,5.7,2.5
	c1.4-1.5,3.5-2.5,5.7-2.5c4.3,0,7.8,3.5,7.8,7.8c0,1.2-0.2,2.3-0.6,3.3c-0.2,0.6-0.6,1.5-0.6,1.5
	C216.6,172.3,207.5,176.7,207.5,176.7z M375.2,561.8c1.9,0,3.6,0.8,4.7,2.1c1.2-1.3,2.9-2.1,4.7-2.1c3.6,0,6.5,2.9,6.5,6.5
	c0,1-0.2,1.9-0.5,2.8c-0.2,0.5-0.5,1.2-0.5,1.2c-2.7,5.6-10.2,9.2-10.2,9.2s-7.5-3.6-10.2-9.2c-0.2-0.4-0.5-1.2-0.5-1.2
	c-0.3-0.9-0.5-1.8-0.5-2.8C368.8,564.7,371.7,561.8,375.2,561.8z M420.7,529.9c1.4,0,2.6,0.6,3.5,1.5c0.9-0.9,2.1-1.5,3.5-1.5
	c2.6,0,4.8,2.1,4.8,4.8c0,0.7-0.1,1.4-0.3,2c-0.1,0.4-0.4,0.9-0.4,0.9c-2,4.1-7.5,6.8-7.5,6.8s-5.5-2.7-7.5-6.8
	c-0.2-0.3-0.4-0.9-0.4-0.9c-0.2-0.6-0.3-1.3-0.3-2C415.9,532,418,529.9,420.7,529.9z M431.1,366c-0.1-0.1-0.2-0.4-0.2-0.4
	c-0.1-0.3-0.1-0.6-0.1-0.8c0-1.1,0.9-2,2-2c0.6,0,1.1,0.2,1.5,0.6c0.4-0.4,0.9-0.6,1.5-0.6c1.1,0,2,0.9,2,2c0,0.3-0.1,0.6-0.1,0.8
	c0,0.1-0.2,0.4-0.2,0.4c-0.8,1.7-3.1,2.8-3.1,2.8S432,367.8,431.1,366z M435.9,143.3c0,0-5.5-2.7-7.5-6.8c-0.2-0.3-0.4-0.9-0.4-0.9
	c-0.2-0.6-0.3-1.3-0.3-2c0-2.6,2.1-4.8,4.8-4.8c1.4,0,2.6,0.6,3.5,1.5c0.9-0.9,2.1-1.5,3.5-1.5c2.6,0,4.8,2.1,4.8,4.8
	c0,0.7-0.1,1.4-0.3,2c-0.1,0.4-0.4,0.9-0.4,0.9C441.4,140.6,435.9,143.3,435.9,143.3z M492.1,436.8c0,0-9.1-4.4-12.4-11.2
	c-0.3-0.5-0.6-1.5-0.6-1.5c-0.4-1.1-0.6-2.2-0.6-3.3c0-4.3,3.5-7.8,7.8-7.8c2.3,0,4.3,1,5.7,2.5c1.4-1.5,3.5-2.5,5.7-2.5
	c4.3,0,7.8,3.5,7.8,7.8c0,1.2-0.2,2.3-0.6,3.3c-0.2,0.6-0.6,1.5-0.6,1.5C501.2,432.4,492.1,436.8,492.1,436.8z M519.1,485
	c2.3,0,4.3,1,5.7,2.5c1.4-1.5,3.5-2.5,5.7-2.5c4.3,0,7.8,3.5,7.8,7.8c0,1.2-0.2,2.3-0.6,3.3c-0.2,0.6-0.6,1.5-0.6,1.5
	c-3.3,6.8-12.4,11.2-12.4,11.2s-9.1-4.4-12.4-11.2c-0.3-0.5-0.6-1.5-0.6-1.5c-0.4-1.1-0.6-2.2-0.6-3.3
	C511.3,488.5,514.8,485,519.1,485z M551.2,377.8c0.5,0,0.9,0.2,1.2,0.5c0.3-0.3,0.7-0.5,1.2-0.5c0.9,0,1.7,0.7,1.7,1.7
	c0,0.2,0,0.5-0.1,0.7c0,0.1-0.1,0.3-0.1,0.3c-0.7,1.4-2.6,2.4-2.6,2.4s-1.9-0.9-2.6-2.4c-0.1-0.1-0.1-0.3-0.1-0.3
	c-0.1-0.2-0.1-0.5-0.1-0.7C549.6,378.5,550.3,377.8,551.2,377.8z M677.1,445.9c2.3,0,4.3,1,5.7,2.5c1.4-1.5,3.5-2.5,5.7-2.5
	c4.3,0,7.8,3.5,7.8,7.8c0,1.2-0.2,2.3-0.6,3.3c-0.2,0.6-0.6,1.5-0.6,1.5c-3.3,6.8-12.4,11.2-12.4,11.2s-9.1-4.4-12.4-11.2
	c-0.3-0.5-0.6-1.5-0.6-1.5c-0.4-1.1-0.6-2.2-0.6-3.3C669.3,449.4,672.8,445.9,677.1,445.9z M853.4,480.2c1.1,0,2.1,0.5,2.8,1.2
	c0.7-0.7,1.7-1.2,2.8-1.2c2.1,0,3.8,1.7,3.8,3.8c0,0.6-0.1,1.1-0.3,1.6c-0.1,0.3-0.3,0.7-0.3,0.7c-1.6,3.3-6,5.4-6,5.4
	s-4.4-2.1-6-5.4c-0.1-0.3-0.3-0.7-0.3-0.7c-0.2-0.5-0.3-1.1-0.3-1.6C849.6,481.9,851.3,480.2,853.4,480.2z M926.3,576.5
	c2.3,0,4.3,1,5.7,2.5c1.4-1.5,3.5-2.5,5.7-2.5c4.3,0,7.8,3.5,7.8,7.8c0,1.2-0.2,2.3-0.6,3.3c-0.2,0.6-0.6,1.5-0.6,1.5
	c-3.3,6.8-12.4,11.2-12.4,11.2s-9.1-4.4-12.4-11.2c-0.3-0.5-0.6-1.5-0.6-1.5c-0.4-1.1-0.6-2.2-0.6-3.3
	C918.5,580,922,576.5,926.3,576.5z M942.1,447.4c0,0-9.1-4.4-12.4-11.2c-0.3-0.5-0.6-1.5-0.6-1.5c-0.4-1.1-0.6-2.2-0.6-3.3
	c0-4.3,3.5-7.8,7.8-7.8c2.3,0,4.3,1,5.7,2.5c1.4-1.5,3.5-2.5,5.7-2.5c4.3,0,7.8,3.5,7.8,7.8c0,1.2-0.2,2.3-0.6,3.3
	c-0.2,0.6-0.6,1.5-0.6,1.5C951.2,443,942.1,447.4,942.1,447.4z M932,361.6c0,0.3-0.1,0.6-0.1,0.8c0,0.1-0.2,0.4-0.2,0.4
	c-0.8,1.7-3.1,2.8-3.1,2.8s-2.3-1.1-3.1-2.8c-0.1-0.1-0.2-0.4-0.2-0.4c-0.1-0.3-0.1-0.6-0.1-0.8c0-1.1,0.9-2,2-2
	c0.6,0,1.1,0.2,1.5,0.6c0.4-0.4,0.9-0.6,1.5-0.6C931.1,359.7,932,360.5,932,361.6z M943.8,199.2c0,0-9.1-4.4-12.4-11.2
	c-0.3-0.5-0.6-1.5-0.6-1.5c-0.4-1.1-0.6-2.2-0.6-3.3c0-4.3,3.5-7.8,7.8-7.8c2.3,0,4.3,1,5.7,2.5c1.4-1.5,3.5-2.5,5.7-2.5
	c4.3,0,7.8,3.5,7.8,7.8c0,1.2-0.2,2.3-0.6,3.3c-0.2,0.6-0.6,1.5-0.6,1.5C952.9,194.8,943.8,199.2,943.8,199.2z M1111.5,584.3
	c1.9,0,3.6,0.8,4.7,2.1c1.2-1.3,2.9-2.1,4.7-2.1c3.6,0,6.5,2.9,6.5,6.5c0,1-0.2,1.9-0.5,2.8c-0.2,0.5-0.5,1.2-0.5,1.2
	c-2.7,5.6-10.2,9.2-10.2,9.2s-7.5-3.6-10.2-9.2c-0.2-0.4-0.5-1.2-0.5-1.2c-0.3-0.9-0.5-1.8-0.5-2.8
	C1105.1,587.2,1108,584.3,1111.5,584.3z M1167.3,388.2c-0.1-0.3-0.1-0.6-0.1-0.8c0-1.1,0.9-2,2-2c0.6,0,1.1,0.2,1.5,0.6
	c0.4-0.4,0.9-0.6,1.5-0.6c1.1,0,2,0.9,2,2c0,0.3-0.1,0.6-0.1,0.8c0,0.1-0.2,0.4-0.2,0.4c-0.8,1.7-3.1,2.8-3.1,2.8s-2.3-1.1-3.1-2.8
	C1167.4,388.4,1167.3,388.2,1167.3,388.2z M1172.2,165.8c0,0-5.5-2.7-7.5-6.8c-0.2-0.3-0.4-0.9-0.4-0.9c-0.2-0.6-0.3-1.3-0.3-2
	c0-2.6,2.1-4.8,4.8-4.8c1.4,0,2.6,0.6,3.5,1.5c0.9-0.9,2.1-1.5,3.5-1.5c2.6,0,4.8,2.1,4.8,4.8c0,0.7-0.1,1.4-0.3,2
	c-0.1,0.4-0.4,0.9-0.4,0.9C1177.7,163.1,1172.2,165.8,1172.2,165.8z"/>
</svg>
