<?xml version="1.0" encoding="utf-8"?>
<!-- Generator: Adobe Illustrator 22.0.1, SVG Export Plug-In . SVG Version: 6.00 Build 0)  -->
<svg version="1.1" id="Capa_1" xmlns="http://www.w3.org/2000/svg" xmlns:xlink="http://www.w3.org/1999/xlink" x="0px" y="0px" width="710" height="685.3"
	 viewBox="0 0 710 685.3" style="enable-background:new 0 0 710 685.3;" xml:space="preserve">
<style type="text/css">
	.st0{fill:#B92B82;}
	.st1{fill:#EF833A;}
	.st2{fill:#F9585D;}
	.st3{fill:#019E7E;}
	.st4{fill:#A1DB63;}
	.st5{fill:#642E85;}
	.st6{fill:#E5C028;}
	.st7{fill:none;}
	.st8{fill:#6B6B6B;}
</style>
<title>mail</title>
<path class="st0" d="M446.4,264.8h-172c-15.8,0-28.7,12.8-28.7,28.6v114.7c0,15.8,12.8,28.7,28.7,28.7l0,0h172
	c15.8,0,28.7-12.8,28.7-28.6l0,0V293.5C475.1,277.7,462.2,264.8,446.4,264.8z M399.2,341.3l60.7-52c0.5,1.3,0.8,2.7,0.8,4.2v114.7
	c-0.1,1-0.3,1.9-0.6,2.8L399.2,341.3z M446.4,279.2c0.9,0.1,1.8,0.3,2.7,0.5l-88.7,76l-88.7-76c0.9-0.3,1.8-0.5,2.7-0.5H446.4z
	 M260.6,411c-0.3-0.9-0.5-1.8-0.6-2.8V293.5c0.1-1.4,0.4-2.8,0.8-4.2l60.7,52L260.6,411z M274.4,422.5c-1.4-0.1-2.8-0.3-4.1-0.8
	l62.2-71l23.3,19.9c1.3,1.1,2.9,1.7,4.7,1.7c1.7,0,3.4-0.6,4.7-1.7l23.3-19.9l62.2,71c-1.3,0.5-2.7,0.8-4.1,0.8H274.4z"/>
<path class="st1" d="M538.9,511.3H444c-8.7,0-15.8,7.1-15.8,15.8v63.3c0,8.7,7.1,15.8,15.8,15.8h94.9c8.7,0,15.8-7.1,15.8-15.8l0,0
	v-63.3C554.7,518.4,547.7,511.3,538.9,511.3L538.9,511.3z M512.9,553.5l33.5-28.7c0.3,0.7,0.4,1.5,0.5,2.3v63.3
	c-0.1,0.5-0.2,1-0.3,1.5L512.9,553.5z M538.9,519.2c0.5,0,1,0.1,1.5,0.3l-48.9,42l-48.9-42c0.5-0.2,1-0.3,1.5-0.3H538.9z
	 M436.4,591.9c-0.2-0.5-0.3-1-0.3-1.5v-63.3c0-0.8,0.2-1.6,0.5-2.3l33.5,28.7L436.4,591.9z M444,598.3c-0.8,0-1.5-0.2-2.3-0.5
	l34.3-39.2l12.9,11c0.7,0.6,1.6,1,2.6,1c0.9,0,1.9-0.4,2.6-1l12.8-11l34.3,39.2c-0.7,0.3-1.5,0.4-2.3,0.5H444z M644.8,622.1h-63.2
	c-5.8,0-10.5,4.7-10.5,10.5l0,0v42.1c0,5.8,4.7,10.5,10.5,10.5l0,0h63.2c5.8,0,10.5-4.7,10.5-10.5l0,0v-42.1
	C655.3,626.8,650.6,622.1,644.8,622.1z M627.5,650.2l22.3-19.1c0.2,0.5,0.3,1,0.3,1.5v42.1c0,0.3-0.1,0.7-0.2,1L627.5,650.2z
	 M644.8,627.4c0.3,0,0.7,0.1,1,0.2l-32.6,27.9l-32.6-27.9c0.3-0.1,0.7-0.2,1-0.2H644.8z M576.6,675.8c-0.1-0.3-0.2-0.7-0.2-1v-42.1
	c0-0.5,0.1-1,0.3-1.5l22.3,19.1L576.6,675.8z M581.6,680c-0.5,0-1-0.1-1.5-0.3l22.8-26.1l8.5,7.3c0.5,0.4,1.1,0.6,1.7,0.6
	c0.6,0,1.2-0.2,1.7-0.6l8.5-7.3l22.8,26.1c-0.5,0.2-1,0.3-1.5,0.3H581.6z"/>
<path class="st2" d="M599.7,319.3h-63.2c-5.8,0-10.5,4.7-10.5,10.5v42.1c0,5.8,4.7,10.5,10.5,10.5l0,0h63.2
	c5.8,0,10.5-4.7,10.5-10.5v-42.1C610.2,324,605.5,319.3,599.7,319.3z M582.3,347.4l22.3-19.1c0.2,0.5,0.3,1,0.3,1.5v42.1
	c0,0.3-0.1,0.7-0.2,1L582.3,347.4z M599.7,324.5c0.3,0,0.7,0.1,1,0.2l-32.6,27.9l-32.6-27.9c0.3-0.1,0.7-0.2,1-0.2H599.7z
	 M531.5,372.9c-0.1-0.3-0.2-0.7-0.2-1v-42.1c0-0.5,0.1-1,0.3-1.5l22.3,19.1L531.5,372.9z M536.5,377.2c-0.5,0-1-0.1-1.5-0.3
	l22.8-26.1l8.5,7.3c0.5,0.4,1.1,0.6,1.7,0.6c0.6,0,1.2-0.2,1.7-0.6l8.5-7.3l22.8,26.1c-0.5,0.2-1,0.3-1.5,0.3H536.5z M675.1,274.2
	h-24.5c-2.3,0-4.1,1.8-4.1,4.1v16.4c0,2.3,1.8,4.1,4.1,4.1h24.5c2.3,0,4.1-1.8,4.1-4.1v-16.4C679.2,276,677.3,274.2,675.1,274.2z
	 M668.3,285.1l8.7-7.4c0.1,0.2,0.1,0.4,0.1,0.6v16.4c0,0.1,0,0.3-0.1,0.4L668.3,285.1z M675.1,276.3c0.1,0,0.3,0,0.4,0.1l-12.7,10.9
	l-12.7-10.9c0.1,0,0.3-0.1,0.4-0.1H675.1z M648.6,295.1c0-0.1-0.1-0.3-0.1-0.4v-16.4c0-0.2,0-0.4,0.1-0.6l8.7,7.4L648.6,295.1z
	 M650.6,296.7c-0.2,0-0.4,0-0.6-0.1l8.8-10.1l3.3,2.9c0.2,0.2,0.4,0.2,0.7,0.3c0.2,0,0.5-0.1,0.7-0.3l3.3-2.9l8.9,10.1
	c-0.2,0.1-0.4,0.1-0.6,0.1H650.6z M703.5,372.1h-39.3c-3.6,0-6.6,2.9-6.6,6.5v26.2c0,3.6,2.9,6.5,6.5,6.5l0,0h39.3
	c3.6,0,6.5-2.9,6.5-6.5l0,0v-26.2C710,375.1,707.1,372.1,703.5,372.1z M692.7,389.6l13.9-11.9c0.1,0.3,0.2,0.6,0.2,1v26.2
	c0,0.2-0.1,0.4-0.1,0.6L692.7,389.6z M703.5,375.4c0.2,0,0.4,0.1,0.6,0.1l-20.3,17.4l-20.2-17.4c0.2-0.1,0.4-0.1,0.6-0.1H703.5z
	 M661,405.5c-0.1-0.2-0.1-0.4-0.1-0.6v-26.2c0-0.3,0.1-0.6,0.2-1l13.9,11.9L661,405.5z M664.2,408.1c-0.3,0-0.6-0.1-0.9-0.2
	l14.2-16.2l5.3,4.5c0.3,0.3,0.7,0.4,1.1,0.4c0.4,0,0.8-0.1,1.1-0.4l5.3-4.5l14.2,16.2c-0.3,0.1-0.6,0.2-0.9,0.2H664.2z M648.8,461.9
	h-39.3c-3.6,0-6.5,2.9-6.5,6.5l0,0v26.2c0,3.6,2.9,6.5,6.5,6.5l0,0h39.3c3.6,0,6.5-2.9,6.5-6.5v-26.2
	C655.3,464.8,652.4,461.9,648.8,461.9L648.8,461.9z M638,479.3l13.9-11.8c0.1,0.3,0.2,0.7,0.2,1v26.2c0,0.2-0.1,0.4-0.1,0.6
	L638,479.3z M648.8,465.1c0.2,0,0.4,0.1,0.6,0.1l-20.2,17.4l-20.3-17.4c0.2-0.1,0.4-0.1,0.6-0.1H648.8z M606.4,495.2
	c-0.1-0.2-0.1-0.4-0.1-0.6v-26.2c0-0.3,0.1-0.7,0.2-1l13.9,11.9L606.4,495.2z M609.5,497.9c-0.3,0-0.6-0.1-0.9-0.2l14.1-16.2
	l5.3,4.6c0.3,0.3,0.7,0.4,1.1,0.4c0.4,0,0.8-0.1,1.1-0.4l5.3-4.6l14.2,16.2c-0.3,0.1-0.6,0.2-0.9,0.2H609.5z"/>
<path class="st3" d="M293.5,481.5H180.8c-10.4,0-18.8,8.4-18.8,18.8l0,0v75.1c0,10.4,8.4,18.8,18.8,18.8l0,0h112.7
	c10.4,0,18.8-8.4,18.8-18.8l0,0v-75.1C312.3,489.9,303.9,481.5,293.5,481.5L293.5,481.5z M262.6,531.6l39.7-34.1
	c0.3,0.9,0.5,1.8,0.5,2.7v75.1c-0.1,0.6-0.2,1.2-0.4,1.8L262.6,531.6z M293.5,490.9c0.6,0.1,1.2,0.2,1.8,0.4L237.2,541l-58.1-49.8
	c0.6-0.2,1.2-0.3,1.8-0.4L293.5,490.9L293.5,490.9z M171.8,577.2c-0.2-0.6-0.3-1.2-0.4-1.8v-75.1c0-0.9,0.2-1.9,0.6-2.7l39.7,34
	L171.8,577.2z M180.8,584.8c-0.9,0-1.8-0.2-2.7-0.5l40.7-46.5l15.3,13.1c0.8,0.7,1.9,1.1,3,1.1s2.2-0.4,3-1.1l15.3-13.1l40.7,46.5
	c-0.9,0.3-1.8,0.5-2.7,0.5H180.8z M121,626.1H74.3c-4.3,0-7.8,3.5-7.8,7.8v31.2c0,4.3,3.5,7.8,7.8,7.8H121c4.3,0,7.8-3.5,7.8-7.8
	v-31.2C128.8,629.6,125.3,626.1,121,626.1z M108.2,646.9l16.5-14.1c0.1,0.4,0.2,0.7,0.2,1.1v31.2c0,0.3-0.1,0.5-0.2,0.8L108.2,646.9
	z M121,630c0.2,0,0.5,0.1,0.7,0.2l-24.1,20.7l-24.1-20.7c0.2-0.1,0.5-0.1,0.7-0.2H121z M70.5,665.9c-0.1-0.2-0.1-0.5-0.2-0.8v-31.2
	c0-0.4,0.1-0.8,0.2-1.1L87,646.9L70.5,665.9z M74.3,669c-0.4,0-0.8-0.1-1.1-0.2L90,649.5l6.3,5.4c0.4,0.3,0.8,0.5,1.3,0.5
	s0.9-0.2,1.3-0.5l6.3-5.4l16.9,19.3c-0.4,0.1-0.7,0.2-1.1,0.2H74.3z"/>
<path class="st4" d="M161.2,313H72.1c-8.2,0-14.8,6.6-14.8,14.9v59.4c0,8.2,6.6,14.9,14.8,14.9h89.1c8.2,0,14.8-6.6,14.8-14.9v-59.4
	C176,319.6,169.4,313,161.2,313z M136.8,352.6l31.4-26.9c0.3,0.7,0.4,1.4,0.4,2.2v59.4c0,0.5-0.1,1-0.3,1.5L136.8,352.6z
	 M161.2,320.4c0.5,0,0.9,0.1,1.4,0.3l-46,39.4l-45.9-39.4c0.5-0.1,0.9-0.2,1.4-0.3H161.2z M65,388.7c-0.2-0.5-0.3-1-0.3-1.5v-59.4
	c0-0.7,0.2-1.5,0.4-2.2l31.4,26.9L65,388.7z M72.1,394.7c-0.7,0-1.4-0.2-2.1-0.4l32.2-36.8l12.1,10.3c0.7,0.6,1.5,0.9,2.4,0.9
	s1.7-0.3,2.4-0.9l12.1-10.3l32.2,36.8c-0.7,0.3-1.4,0.4-2.1,0.4H72.1z M54.6,244.4H7.8c-4.3,0-7.8,3.5-7.8,7.8v31.2
	c0,4.3,3.5,7.8,7.8,7.8h46.8c4.3,0,7.8-3.5,7.8-7.8v-31.2C62.3,247.8,58.9,244.4,54.6,244.4z M41.7,265.1L58.2,251
	c0.1,0.4,0.2,0.7,0.2,1.1v31.2c0,0.3-0.1,0.5-0.2,0.8L41.7,265.1z M54.6,248.2c0.2,0,0.5,0.1,0.7,0.1L31.2,269L7.1,248.4
	c0.2-0.1,0.5-0.1,0.7-0.1L54.6,248.2L54.6,248.2z M4.1,284.1c-0.1-0.2-0.1-0.5-0.2-0.8v-31.2c0-0.4,0.1-0.8,0.2-1.1l16.5,14.1
	L4.1,284.1z M7.8,287.2c-0.4,0-0.8-0.1-1.1-0.2l16.9-19.3l6.3,5.4c0.4,0.3,0.8,0.5,1.3,0.5s0.9-0.2,1.3-0.5l6.3-5.4L55.7,287
	c-0.4,0.1-0.7,0.2-1.1,0.2H7.8z M60.5,436.1H25c-3.3,0-5.9,2.7-5.9,5.9l0,0v23.7c0,3.3,2.6,5.9,5.9,5.9l0,0h35.6
	c3.3,0,5.9-2.6,5.9-5.9l0,0V442C66.5,438.8,63.8,436.2,60.5,436.1L60.5,436.1z M50.8,452l12.5-10.8c0.1,0.3,0.2,0.6,0.2,0.9v23.7
	c0,0.2-0.1,0.4-0.1,0.6L50.8,452z M60.5,439.1c0.2,0,0.4,0.1,0.6,0.1l-18.3,15.7l-18.3-15.7c0.2-0.1,0.4-0.1,0.5-0.1H60.5z
	 M22.1,466.4c-0.1-0.2-0.1-0.4-0.1-0.6v-23.7c0-0.3,0.1-0.6,0.2-0.9L34.7,452L22.1,466.4z M25,468.8c-0.3,0-0.6-0.1-0.8-0.2
	L37,453.9l4.8,4.1c0.3,0.2,0.6,0.4,1,0.4s0.7-0.1,1-0.4l4.8-4.1l12.8,14.7c-0.3,0.1-0.6,0.2-0.8,0.2L25,468.8L25,468.8z"/>
<path class="st5" d="M307.5,89.8H194.8c-10.4,0-18.8,8.4-18.8,18.8l0,0v75.1c0,10.4,8.4,18.8,18.8,18.8l0,0h112.7
	c10.4,0,18.8-8.4,18.8-18.8l0,0v-75.1C326.3,98.2,317.9,89.8,307.5,89.8z M276.6,139.9l39.7-34.1c0.3,0.9,0.5,1.8,0.5,2.7v75.1
	c-0.1,0.6-0.2,1.2-0.4,1.8L276.6,139.9z M307.5,99.2c0.6,0.1,1.2,0.2,1.8,0.4l-58.1,49.8l-58.1-49.8c0.6-0.2,1.2-0.3,1.8-0.4
	L307.5,99.2z M185.8,185.5c-0.2-0.6-0.3-1.2-0.4-1.8v-75.1c0-0.9,0.2-1.9,0.6-2.7l39.7,34.1L185.8,185.5z M194.8,193.1
	c-0.9,0-1.8-0.2-2.7-0.5l40.7-46.5l15.3,13.1c0.8,0.7,1.9,1.1,3,1.1s2.2-0.4,3-1.1l15.3-13.1l40.7,46.5c-0.9,0.3-1.8,0.5-2.7,0.5
	H194.8z M80.4,85.8H20.1c-5.6,0-10.1,4.5-10.1,10l0,0V136c0,5.5,4.5,10,10.1,10h60.3c5.5,0,10-4.5,10.1-10V95.9
	C90.5,90.3,86,85.8,80.4,85.8L80.4,85.8z M63.9,112.7l21.3-18.2c0.2,0.5,0.3,1,0.3,1.5v40.2c0,0.3-0.1,0.7-0.2,1L63.9,112.7z
	 M80.4,90.9c0.3,0,0.6,0.1,1,0.2l-31.1,26.7L19.1,91.1c0.3-0.1,0.6-0.2,1-0.2H80.4z M15.3,137.1c-0.1-0.3-0.2-0.7-0.2-1V95.9
	c0-0.5,0.1-1,0.3-1.5l21.3,18.2L15.3,137.1z M20.1,141.1c-0.5,0-1-0.1-1.4-0.3l21.8-24.9l8.2,7c0.5,0.4,1,0.6,1.6,0.6
	s1.2-0.2,1.6-0.6l8.2-7l21.8,24.9c-0.5,0.2-0.9,0.3-1.4,0.3H20.1z M186.3,0h-48.5c-4.5,0-8.1,3.6-8.1,8.1l0,0v32.4
	c0,4.5,3.6,8.1,8.1,8.1l0,0h48.5c4.5,0,8.1-3.6,8.1-8.1V8.1C194.4,3.6,190.8,0,186.3,0z M173,21.6l17.1-14.7
	c0.1,0.4,0.2,0.8,0.3,1.2v32.4c0,0.3-0.1,0.5-0.2,0.8L173,21.6z M186.3,4c0.3,0,0.5,0.1,0.8,0.1l-25,21.5l-25-21.5
	c0.2-0.1,0.5-0.1,0.8-0.1C137.9,4,186.3,4,186.3,4z M133.9,41.3c-0.1-0.3-0.1-0.5-0.2-0.8V8.1c0-0.4,0.1-0.8,0.2-1.2L151,21.6
	L133.9,41.3z M137.8,44.5c-0.4,0-0.8-0.1-1.2-0.2l17.5-20l6.6,5.6c0.4,0.3,0.8,0.5,1.3,0.5s1-0.2,1.3-0.5l6.6-5.6l17.5,20
	c-0.4,0.1-0.8,0.2-1.2,0.2H137.8z M340.3,18.8h-28c-2.6,0-4.7,2.1-4.7,4.7v18.7c0,2.6,2.1,4.7,4.7,4.7h28c2.6,0,4.7-2.1,4.7-4.7
	V23.5C344.9,20.9,342.8,18.8,340.3,18.8z M332.6,31.3l9.9-8.5c0.1,0.2,0.1,0.4,0.1,0.7v18.7c0,0.2,0,0.3-0.1,0.5L332.6,31.3z
	 M340.3,21.2c0.1,0,0.3,0,0.4,0.1l-14.4,12.4l-14.4-12.4c0.1,0,0.3-0.1,0.4-0.1H340.3z M310,42.6c0-0.1-0.1-0.3-0.1-0.4V23.5
	c0-0.2,0.1-0.5,0.1-0.7l9.9,8.5L310,42.6z M312.3,44.5c-0.2,0-0.5-0.1-0.7-0.1l10.1-11.6l3.8,3.2c0.2,0.2,0.5,0.3,0.8,0.3
	s0.5-0.1,0.8-0.3l3.8-3.2L341,44.4c-0.2,0.1-0.4,0.1-0.7,0.1H312.3z"/>
<path class="st6" d="M446.9,160.3v56.4c0,7.8,6.3,14.1,14.1,14.1l0,0h84.6c7.8,0,14.1-6.3,14.1-14.1l0,0v-56.4
	c0-7.8-6.3-14.1-14.1-14.1H461C453.2,146.2,446.9,152.5,446.9,160.3z M454.2,218.1c-0.1-0.4-0.2-0.9-0.3-1.4v-56.4
	c0-0.7,0.2-1.4,0.4-2.1l29.9,25.6L454.2,218.1z M545.6,153.2c0.5,0,0.9,0.1,1.3,0.3l-43.6,37.4l-43.6-37.4c0.4-0.1,0.9-0.2,1.3-0.3
	H545.6z M522.4,183.8l29.8-25.6c0.2,0.7,0.4,1.3,0.4,2.1v56.4c0,0.5-0.1,0.9-0.3,1.4L522.4,183.8z M461,223.8c-0.7,0-1.4-0.2-2-0.4
	l30.6-34.9l11.5,9.8c0.6,0.6,1.4,0.9,2.3,0.9c0.8,0,1.7-0.3,2.3-0.9l11.5-9.8l30.6,34.9c-0.6,0.2-1.3,0.4-2,0.4L461,223.8L461,223.8
	z M480.2,32.1v22.7c0,3.1,2.5,5.7,5.7,5.7l0,0h34c3.1,0,5.7-2.5,5.7-5.7l0,0V32.1c0-3.1-2.6-5.6-5.7-5.6h-34
	C482.8,26.5,480.3,29,480.2,32.1z M483.2,55.3c-0.1-0.2-0.1-0.4-0.1-0.6V32.1c0-0.3,0.1-0.6,0.2-0.8l12,10.3L483.2,55.3z M520,29.3
	c0.2,0,0.4,0.1,0.5,0.1l-17.5,15l-17.5-15c0.2,0,0.4-0.1,0.5-0.1C486,29.3,520,29.3,520,29.3z M510.6,41.6l12-10.3
	c0.1,0.3,0.2,0.5,0.2,0.8v22.6c0,0.2-0.1,0.4-0.1,0.6L510.6,41.6z M486,57.6c-0.3,0-0.5-0.1-0.8-0.2l12.3-14l4.6,3.9
	c0.3,0.2,0.6,0.3,0.9,0.3s0.7-0.1,0.9-0.3l4.6-3.9l12.3,14c-0.3,0.1-0.5,0.1-0.8,0.2H486z M613.2,87v37.9c0,5.2,4.2,9.5,9.5,9.5l0,0
	h56.8c5.2,0,9.5-4.2,9.5-9.5l0,0V87c0-5.2-4.2-9.5-9.5-9.5l0,0h-56.8C617.5,77.5,613.2,81.7,613.2,87L613.2,87z M618.1,125.8
	c-0.1-0.3-0.2-0.6-0.2-0.9V87c0-0.5,0.1-0.9,0.3-1.4l20,17.2L618.1,125.8z M679.5,82.2c0.3,0,0.6,0.1,0.9,0.2l-29.3,25.1l-29.3-25.1
	c0.3-0.1,0.6-0.2,0.9-0.2H679.5z M663.9,102.8l20-17.2c0.2,0.4,0.3,0.9,0.3,1.4v37.9c0,0.3-0.1,0.6-0.2,0.9L663.9,102.8z
	 M622.7,129.6c-0.5,0-0.9-0.1-1.3-0.3l20.5-23.5l7.7,6.6c0.4,0.4,1,0.6,1.5,0.6c0.6,0,1.1-0.2,1.5-0.6l7.7-6.6l20.5,23.5
	c-0.4,0.2-0.9,0.2-1.4,0.3H622.7z"/>
<rect x="430.9" y="217.3" class="st7" width="6" height="6"/>
<rect x="422.3" y="223.5" class="st7" width="6" height="6"/>
<rect x="415.6" y="231.9" class="st7" width="6" height="6"/>
<rect x="411.4" y="241.8" class="st7" width="6" height="6"/>
<rect x="409.7" y="252.5" class="st7" width="6" height="6"/>
<rect x="272.6" y="205.8" class="st7" width="6" height="6"/>
<rect x="282.2" y="210.9" class="st7" width="6" height="6"/>
<rect x="291.4" y="216.3" class="st7" width="6" height="6"/>
<rect x="299" y="224" class="st7" width="6" height="6"/>
<rect x="305.4" y="232.6" class="st7" width="6" height="6"/>
<rect x="310.3" y="242.2" class="st7" width="6" height="6"/>
<rect x="313.4" y="252.5" class="st7" width="6" height="6"/>
<rect x="185.2" y="350" class="st7" width="6" height="6"/>
<rect x="196" y="350" class="st7" width="6" height="6"/>
<rect x="206.8" y="350" class="st7" width="6" height="6"/>
<rect x="217.6" y="350" class="st7" width="6" height="6"/>
<rect x="228.4" y="350" class="st7" width="6" height="6"/>
<rect x="515.8" y="348" class="st7" width="6" height="6"/>
<rect x="505" y="348" class="st7" width="6" height="6"/>
<rect x="494.2" y="348" class="st7" width="6" height="6"/>
<rect x="483.4" y="348" class="st7" width="6" height="6"/>
<rect x="635.3" y="450.6" class="st7" width="6" height="6"/>
<rect x="633.3" y="440" class="st7" width="6" height="6"/>
<rect x="630.5" y="429.6" class="st7" width="6" height="6"/>
<rect x="625.7" y="419.9" class="st7" width="6" height="6"/>
<rect x="620.3" y="410.7" class="st7" width="6" height="6"/>
<rect x="614" y="401.8" class="st7" width="6" height="6"/>
<rect x="607.2" y="393.5" class="st7" width="6" height="6"/>
<rect x="600" y="385.5" class="st7" width="6" height="6"/>
<rect x="636" y="285.5" class="st7" width="6" height="6"/>
<rect x="625.4" y="287.5" class="st7" width="6" height="6"/>
<rect x="616.4" y="293.5" class="st7" width="6" height="6"/>
<rect x="608.7" y="300.9" class="st7" width="6" height="6"/>
<rect x="603" y="310" class="st7" width="6" height="6"/>
<rect x="304.9" y="474.2" class="st7" width="6" height="6"/>
<rect x="311.8" y="465.9" class="st7" width="6" height="6"/>
<rect x="318.6" y="457.5" class="st7" width="6" height="6"/>
<rect x="325.5" y="449.2" class="st7" width="6" height="6"/>
<rect x="332.3" y="440.8" class="st7" width="6" height="6"/>
<rect x="445.5" y="497.6" class="st7" width="6" height="6"/>
<rect x="440.3" y="488.2" class="st7" width="6" height="6"/>
<rect x="435.1" y="478.7" class="st7" width="6" height="6"/>
<rect x="429.9" y="469.2" class="st7" width="6" height="6"/>
<rect x="424.7" y="459.8" class="st7" width="6" height="6"/>
<rect x="419.5" y="450.3" class="st7" width="6" height="6"/>
<rect x="414.4" y="440.8" class="st7" width="6" height="6"/>
<rect x="95" y="608.1" class="st7" width="6" height="6"/>
<rect x="95.9" y="597.4" class="st7" width="6" height="6"/>
<rect x="96.9" y="586.6" class="st7" width="6" height="6"/>
<rect x="100.3" y="576.5" class="st7" width="6" height="6"/>
<rect x="104.8" y="566.7" class="st7" width="6" height="6"/>
<rect x="111.2" y="558.2" class="st7" width="6" height="6"/>
<rect x="118.8" y="550.5" class="st7" width="6" height="6"/>
<rect x="127.9" y="544.8" class="st7" width="6" height="6"/>
<rect x="137.7" y="540.3" class="st7" width="6" height="6"/>
<rect x="148.1" y="537.5" class="st7" width="6" height="6"/>
<rect x="84.7" y="448.5" class="st7" width="6" height="6"/>
<rect x="94.6" y="444.9" class="st7" width="6" height="6"/>
<rect x="101.6" y="436.7" class="st7" width="6" height="6"/>
<rect x="105.6" y="426.8" class="st7" width="6" height="6"/>
<rect x="107.4" y="416.3" class="st7" width="6" height="6"/>
<rect x="107.4" y="405.5" class="st7" width="6" height="6"/>
<rect x="70.2" y="264.6" class="st7" width="6" height="6"/>
<rect x="81" y="264.3" class="st7" width="6" height="6"/>
<rect x="91.8" y="264" class="st7" width="6" height="6"/>
<rect x="102.2" y="266.5" class="st7" width="6" height="6"/>
<rect x="112.6" y="269.5" class="st7" width="6" height="6"/>
<rect x="121.6" y="275.5" class="st7" width="6" height="6"/>
<rect x="129.7" y="282.5" class="st7" width="6" height="6"/>
<rect x="136.2" y="291" class="st7" width="6" height="6"/>
<rect x="140.7" y="300.8" class="st7" width="6" height="6"/>
<rect x="80.8" y="152.6" class="st7" width="6" height="6"/>
<rect x="89.7" y="158.8" class="st7" width="6" height="6"/>
<rect x="99.7" y="162.9" class="st7" width="6" height="6"/>
<rect x="109.8" y="166.8" class="st7" width="6" height="6"/>
<rect x="120.3" y="169.1" class="st7" width="6" height="6"/>
<rect x="130.9" y="171.2" class="st7" width="6" height="6"/>
<rect x="141.6" y="172.1" class="st7" width="6" height="6"/>
<rect x="152.4" y="172.5" class="st7" width="6" height="6"/>
<rect x="163.2" y="172.2" class="st7" width="6" height="6"/>
<rect x="204" y="26" class="st7" width="6" height="6"/>
<rect x="214.5" y="28.8" class="st7" width="6" height="6"/>
<rect x="223" y="35.1" class="st7" width="6" height="6"/>
<rect x="229.5" y="43.4" class="st7" width="6" height="6"/>
<rect x="233.2" y="53.5" class="st7" width="6" height="6"/>
<rect x="234.4" y="64.2" class="st7" width="6" height="6"/>
<rect x="233.7" y="74.9" class="st7" width="6" height="6"/>
<rect x="634.4" y="147.3" class="st7" width="6" height="6"/>
<rect x="630.1" y="157.2" class="st7" width="6" height="6"/>
<rect x="622.7" y="165" class="st7" width="6" height="6"/>
<rect x="614.4" y="171.8" class="st7" width="6" height="6"/>
<rect x="604.7" y="176.6" class="st7" width="6" height="6"/>
<rect x="594.5" y="179.9" class="st7" width="6" height="6"/>
<rect x="584" y="182.2" class="st7" width="6" height="6"/>
<rect x="573.2" y="183.2" class="st7" width="6" height="6"/>
<rect x="499.9" y="68.2" class="st7" width="6" height="6"/>
<rect x="499.9" y="79" class="st7" width="6" height="6"/>
<rect x="499.9" y="89.8" class="st7" width="6" height="6"/>
<rect x="499.9" y="100.6" class="st7" width="6" height="6"/>
<rect x="499.9" y="111.4" class="st7" width="6" height="6"/>
<rect x="499.9" y="122.2" class="st7" width="6" height="6"/>
<rect x="499.9" y="133" class="st7" width="6" height="6"/>
<rect x="312.9" y="50.6" class="st7" width="6" height="6"/>
<rect x="307.4" y="59.9" class="st7" width="6" height="6"/>
<rect x="301.9" y="69.2" class="st7" width="6" height="6"/>
<rect x="296.4" y="78.5" class="st7" width="6" height="6"/>
<rect x="618.5" y="605.1" class="st7" width="6" height="6"/>
<rect x="617.5" y="594.4" class="st7" width="6" height="6"/>
<rect x="616.6" y="583.6" class="st7" width="6" height="6"/>
<rect x="613.2" y="573.5" class="st7" width="6" height="6"/>
<rect x="608.6" y="563.7" class="st7" width="6" height="6"/>
<rect x="602.3" y="555.2" class="st7" width="6" height="6"/>
<rect x="594.7" y="547.5" class="st7" width="6" height="6"/>
<rect x="585.6" y="541.8" class="st7" width="6" height="6"/>
<rect x="575.8" y="537.3" class="st7" width="6" height="6"/>
<rect x="565.4" y="534.5" class="st7" width="6" height="6"/>
<path class="st8" d="M433.9,217.3c1.7,0,3,1.3,3,3s-1.3,3-3,3s-3-1.3-3-3S432.2,217.3,433.9,217.3z M425.3,223.5c1.7,0,3,1.3,3,3
	s-1.3,3-3,3s-3-1.3-3-3S423.6,223.5,425.3,223.5z M418.6,231.9c1.7,0,3,1.3,3,3s-1.3,3-3,3s-3-1.3-3-3S416.9,231.9,418.6,231.9z
	 M414.4,241.8c1.7,0,3,1.3,3,3s-1.3,3-3,3s-3-1.3-3-3S412.7,241.8,414.4,241.8z M412.7,252.5c1.7,0,3,1.3,3,3s-1.3,3-3,3s-3-1.3-3-3
	S411,252.5,412.7,252.5z M275.6,205.8c1.7,0,3,1.3,3,3s-1.3,3-3,3s-3-1.3-3-3S273.9,205.8,275.6,205.8z M285.2,210.9
	c1.7,0,3,1.3,3,3s-1.3,3-3,3s-3-1.3-3-3S283.5,210.9,285.2,210.9z M294.4,216.3c1.7,0,3,1.3,3,3s-1.3,3-3,3s-3-1.3-3-3
	S292.7,216.3,294.4,216.3z M302,224c1.7,0,3,1.3,3,3s-1.3,3-3,3s-3-1.3-3-3S300.3,224,302,224z M308.4,232.6c1.7,0,3,1.3,3,3
	s-1.3,3-3,3s-3-1.3-3-3S306.7,232.6,308.4,232.6z M313.3,242.2c1.7,0,3,1.3,3,3s-1.3,3-3,3s-3-1.3-3-3S311.6,242.2,313.3,242.2z
	 M316.4,252.5c1.7,0,3,1.3,3,3s-1.3,3-3,3s-3-1.3-3-3S314.7,252.5,316.4,252.5z M188.2,350c1.7,0,3,1.3,3,3s-1.3,3-3,3s-3-1.3-3-3
	S186.5,350,188.2,350z M199,350c1.7,0,3,1.3,3,3s-1.3,3-3,3s-3-1.3-3-3S197.3,350,199,350z M209.8,350c1.7,0,3,1.3,3,3s-1.3,3-3,3
	s-3-1.3-3-3S208.1,350,209.8,350z M220.6,350c1.7,0,3,1.3,3,3s-1.3,3-3,3s-3-1.3-3-3S218.9,350,220.6,350z M231.4,350
	c1.7,0,3,1.3,3,3s-1.3,3-3,3s-3-1.3-3-3S229.7,350,231.4,350z M518.8,348c1.7,0,3,1.3,3,3s-1.3,3-3,3s-3-1.3-3-3
	S517.1,348,518.8,348z M508,348c1.7,0,3,1.3,3,3s-1.3,3-3,3s-3-1.3-3-3S506.3,348,508,348z M497.2,348c1.7,0,3,1.3,3,3s-1.3,3-3,3
	s-3-1.3-3-3S495.5,348,497.2,348z M486.4,348c1.7,0,3,1.3,3,3s-1.3,3-3,3s-3-1.3-3-3S484.7,348,486.4,348z M638.3,450.6
	c1.7,0,3,1.3,3,3s-1.3,3-3,3s-3-1.3-3-3S636.6,450.6,638.3,450.6z M636.3,440c1.7,0,3,1.3,3,3s-1.3,3-3,3s-3-1.3-3-3
	S634.6,440,636.3,440z M633.5,429.6c1.7,0,3,1.3,3,3s-1.3,3-3,3s-3-1.3-3-3S631.8,429.6,633.5,429.6z M628.7,419.9c1.7,0,3,1.3,3,3
	s-1.3,3-3,3s-3-1.3-3-3S627,419.9,628.7,419.9z M623.3,410.7c1.7,0,3,1.3,3,3s-1.3,3-3,3s-3-1.3-3-3S621.6,410.7,623.3,410.7z
	 M617,401.8c1.7,0,3,1.3,3,3s-1.3,3-3,3s-3-1.3-3-3S615.3,401.8,617,401.8z M610.2,393.5c1.7,0,3,1.3,3,3s-1.3,3-3,3s-3-1.3-3-3
	S608.5,393.5,610.2,393.5z M603,385.5c1.7,0,3,1.3,3,3s-1.3,3-3,3s-3-1.3-3-3S601.3,385.5,603,385.5z M639,285.5c1.7,0,3,1.3,3,3
	s-1.3,3-3,3s-3-1.3-3-3S637.3,285.5,639,285.5z M628.4,287.5c1.7,0,3,1.3,3,3s-1.3,3-3,3s-3-1.3-3-3S626.7,287.5,628.4,287.5z
	 M619.4,293.5c1.7,0,3,1.3,3,3s-1.3,3-3,3s-3-1.3-3-3S617.7,293.5,619.4,293.5z M611.7,300.9c1.7,0,3,1.3,3,3s-1.3,3-3,3s-3-1.3-3-3
	S610,300.9,611.7,300.9z M606,310c1.7,0,3,1.3,3,3s-1.3,3-3,3s-3-1.3-3-3S604.3,310,606,310z M307.9,474.2c1.7,0,3,1.3,3,3
	s-1.3,3-3,3s-3-1.3-3-3S306.2,474.2,307.9,474.2z M314.8,465.9c1.7,0,3,1.3,3,3s-1.3,3-3,3s-3-1.3-3-3S313.1,465.9,314.8,465.9z
	 M321.6,457.5c1.7,0,3,1.3,3,3s-1.3,3-3,3s-3-1.3-3-3S319.9,457.5,321.6,457.5z M328.5,449.2c1.7,0,3,1.3,3,3s-1.3,3-3,3s-3-1.3-3-3
	S326.8,449.2,328.5,449.2z M335.3,440.8c1.7,0,3,1.3,3,3s-1.3,3-3,3s-3-1.3-3-3S333.6,440.8,335.3,440.8z M448.5,497.6
	c1.7,0,3,1.3,3,3s-1.3,3-3,3s-3-1.3-3-3S446.8,497.6,448.5,497.6z M443.3,488.2c1.7,0,3,1.3,3,3s-1.3,3-3,3s-3-1.3-3-3
	S441.6,488.2,443.3,488.2z M438.1,478.7c1.7,0,3,1.3,3,3s-1.3,3-3,3s-3-1.3-3-3S436.4,478.7,438.1,478.7z M432.9,469.2
	c1.7,0,3,1.3,3,3s-1.3,3-3,3s-3-1.3-3-3S431.2,469.2,432.9,469.2z M427.7,459.8c1.7,0,3,1.3,3,3s-1.3,3-3,3s-3-1.3-3-3
	S426,459.8,427.7,459.8z M422.5,450.3c1.7,0,3,1.3,3,3s-1.3,3-3,3s-3-1.3-3-3S420.8,450.3,422.5,450.3z M417.4,440.8
	c1.7,0,3,1.3,3,3s-1.3,3-3,3s-3-1.3-3-3S415.7,440.8,417.4,440.8z M98,608.1c1.7,0,3,1.3,3,3s-1.3,3-3,3s-3-1.3-3-3
	S96.3,608.1,98,608.1z M98.9,597.4c1.7,0,3,1.3,3,3s-1.3,3-3,3s-3-1.3-3-3S97.2,597.4,98.9,597.4z M99.9,586.6c1.7,0,3,1.3,3,3
	s-1.3,3-3,3s-3-1.3-3-3S98.2,586.6,99.9,586.6z M103.3,576.5c1.7,0,3,1.3,3,3s-1.3,3-3,3s-3-1.3-3-3S101.6,576.5,103.3,576.5z
	 M107.8,566.7c1.7,0,3,1.3,3,3s-1.3,3-3,3s-3-1.3-3-3S106.1,566.7,107.8,566.7z M114.2,558.2c1.7,0,3,1.3,3,3s-1.3,3-3,3s-3-1.3-3-3
	S112.5,558.2,114.2,558.2z M121.8,550.5c1.7,0,3,1.3,3,3s-1.3,3-3,3s-3-1.3-3-3S120.1,550.5,121.8,550.5z M130.9,544.8
	c1.7,0,3,1.3,3,3s-1.3,3-3,3s-3-1.3-3-3S129.2,544.8,130.9,544.8z M140.7,540.3c1.7,0,3,1.3,3,3s-1.3,3-3,3s-3-1.3-3-3
	S139,540.3,140.7,540.3z M151.1,537.5c1.7,0,3,1.3,3,3s-1.3,3-3,3s-3-1.3-3-3S149.4,537.5,151.1,537.5z M87.7,448.5c1.7,0,3,1.3,3,3
	s-1.3,3-3,3s-3-1.3-3-3S86,448.5,87.7,448.5z M97.6,444.9c1.7,0,3,1.3,3,3s-1.3,3-3,3s-3-1.3-3-3S95.9,444.9,97.6,444.9z
	 M104.6,436.7c1.7,0,3,1.3,3,3s-1.3,3-3,3s-3-1.3-3-3S102.9,436.7,104.6,436.7z M108.6,426.8c1.7,0,3,1.3,3,3s-1.3,3-3,3s-3-1.3-3-3
	S106.9,426.8,108.6,426.8z M110.4,416.3c1.7,0,3,1.3,3,3s-1.3,3-3,3s-3-1.3-3-3S108.7,416.3,110.4,416.3z M110.4,405.5
	c1.7,0,3,1.3,3,3s-1.3,3-3,3s-3-1.3-3-3S108.7,405.5,110.4,405.5z M73.2,264.6c1.7,0,3,1.3,3,3s-1.3,3-3,3s-3-1.3-3-3
	S71.5,264.6,73.2,264.6z M84,264.3c1.7,0,3,1.3,3,3s-1.3,3-3,3s-3-1.3-3-3S82.3,264.3,84,264.3z M94.8,264c1.7,0,3,1.3,3,3
	s-1.3,3-3,3s-3-1.3-3-3S93.1,264,94.8,264z M105.2,266.5c1.7,0,3,1.3,3,3s-1.3,3-3,3s-3-1.3-3-3S103.5,266.5,105.2,266.5z
	 M115.6,269.5c1.7,0,3,1.3,3,3s-1.3,3-3,3s-3-1.3-3-3S113.9,269.5,115.6,269.5z M124.6,275.5c1.7,0,3,1.3,3,3s-1.3,3-3,3s-3-1.3-3-3
	S122.9,275.5,124.6,275.5z M132.7,282.5c1.7,0,3,1.3,3,3s-1.3,3-3,3s-3-1.3-3-3S131,282.5,132.7,282.5z M139.2,291c1.7,0,3,1.3,3,3
	s-1.3,3-3,3s-3-1.3-3-3S137.5,291,139.2,291z M143.7,300.8c1.7,0,3,1.3,3,3s-1.3,3-3,3s-3-1.3-3-3S142,300.8,143.7,300.8z
	 M83.8,152.6c1.7,0,3,1.3,3,3s-1.3,3-3,3s-3-1.3-3-3S82.1,152.6,83.8,152.6z M92.7,158.8c1.7,0,3,1.3,3,3s-1.3,3-3,3s-3-1.3-3-3
	S91,158.8,92.7,158.8z M102.7,162.9c1.7,0,3,1.3,3,3s-1.3,3-3,3s-3-1.3-3-3S101,162.9,102.7,162.9z M112.8,166.8c1.7,0,3,1.3,3,3
	s-1.3,3-3,3s-3-1.3-3-3S111.1,166.8,112.8,166.8z M123.3,169.1c1.7,0,3,1.3,3,3s-1.3,3-3,3s-3-1.3-3-3S121.6,169.1,123.3,169.1z
	 M133.9,171.2c1.7,0,3,1.3,3,3s-1.3,3-3,3s-3-1.3-3-3S132.2,171.2,133.9,171.2z M144.6,172.1c1.7,0,3,1.3,3,3s-1.3,3-3,3s-3-1.3-3-3
	S142.9,172.1,144.6,172.1z M155.4,172.5c1.7,0,3,1.3,3,3s-1.3,3-3,3s-3-1.3-3-3S153.7,172.5,155.4,172.5z M166.2,172.2
	c1.7,0,3,1.3,3,3s-1.3,3-3,3s-3-1.3-3-3S164.5,172.2,166.2,172.2z M207,26c1.7,0,3,1.3,3,3s-1.3,3-3,3s-3-1.3-3-3S205.3,26,207,26z
	 M217.5,28.8c1.7,0,3,1.3,3,3c0,1.7-1.3,3-3,3s-3-1.3-3-3C214.5,30.1,215.8,28.8,217.5,28.8z M226,35.1c1.7,0,3,1.3,3,3s-1.3,3-3,3
	s-3-1.3-3-3S224.3,35.1,226,35.1z M232.5,43.4c1.7,0,3,1.3,3,3s-1.3,3-3,3s-3-1.3-3-3S230.8,43.4,232.5,43.4z M236.2,53.5
	c1.7,0,3,1.3,3,3s-1.3,3-3,3s-3-1.3-3-3S234.5,53.5,236.2,53.5z M237.4,64.2c1.7,0,3,1.3,3,3s-1.3,3-3,3s-3-1.3-3-3
	S235.7,64.2,237.4,64.2z M236.7,74.9c1.7,0,3,1.3,3,3s-1.3,3-3,3s-3-1.3-3-3S235,74.9,236.7,74.9z M637.4,147.3c1.7,0,3,1.3,3,3
	s-1.3,3-3,3s-3-1.3-3-3S635.7,147.3,637.4,147.3z M633.1,157.2c1.7,0,3,1.3,3,3s-1.3,3-3,3s-3-1.3-3-3S631.4,157.2,633.1,157.2z
	 M625.7,165c1.7,0,3,1.3,3,3s-1.3,3-3,3s-3-1.3-3-3S624,165,625.7,165z M617.4,171.8c1.7,0,3,1.3,3,3s-1.3,3-3,3s-3-1.3-3-3
	S615.7,171.8,617.4,171.8z M607.7,176.6c1.7,0,3,1.3,3,3s-1.3,3-3,3s-3-1.3-3-3S606,176.6,607.7,176.6z M597.5,179.9
	c1.7,0,3,1.3,3,3s-1.3,3-3,3s-3-1.3-3-3S595.8,179.9,597.5,179.9z M587,182.2c1.7,0,3,1.3,3,3s-1.3,3-3,3s-3-1.3-3-3
	S585.3,182.2,587,182.2z M576.2,183.2c1.7,0,3,1.3,3,3s-1.3,3-3,3s-3-1.3-3-3S574.5,183.2,576.2,183.2z M502.9,68.2c1.7,0,3,1.3,3,3
	s-1.3,3-3,3s-3-1.3-3-3S501.2,68.2,502.9,68.2z M502.9,79c1.7,0,3,1.3,3,3s-1.3,3-3,3s-3-1.3-3-3S501.2,79,502.9,79z M502.9,89.8
	c1.7,0,3,1.3,3,3s-1.3,3-3,3s-3-1.3-3-3S501.2,89.8,502.9,89.8z M502.9,100.6c1.7,0,3,1.3,3,3s-1.3,3-3,3s-3-1.3-3-3
	S501.2,100.6,502.9,100.6z M502.9,111.4c1.7,0,3,1.3,3,3s-1.3,3-3,3s-3-1.3-3-3S501.2,111.4,502.9,111.4z M502.9,122.2
	c1.7,0,3,1.3,3,3s-1.3,3-3,3s-3-1.3-3-3S501.2,122.2,502.9,122.2z M502.9,133c1.7,0,3,1.3,3,3s-1.3,3-3,3s-3-1.3-3-3
	S501.2,133,502.9,133z M315.9,50.6c1.7,0,3,1.3,3,3s-1.3,3-3,3s-3-1.3-3-3S314.2,50.6,315.9,50.6z M310.4,59.9c1.7,0,3,1.3,3,3
	s-1.3,3-3,3s-3-1.3-3-3S308.7,59.9,310.4,59.9z M304.9,69.2c1.7,0,3,1.3,3,3s-1.3,3-3,3s-3-1.3-3-3S303.2,69.2,304.9,69.2z
	 M299.4,78.5c1.7,0,3,1.3,3,3s-1.3,3-3,3s-3-1.3-3-3S297.7,78.5,299.4,78.5z M621.5,605.1c1.7,0,3,1.3,3,3s-1.3,3-3,3s-3-1.3-3-3
	S619.8,605.1,621.5,605.1z M620.5,594.4c1.7,0,3,1.3,3,3s-1.3,3-3,3s-3-1.3-3-3S618.8,594.4,620.5,594.4z M619.6,583.6
	c1.7,0,3,1.3,3,3s-1.3,3-3,3s-3-1.3-3-3S617.9,583.6,619.6,583.6z M616.2,573.5c1.7,0,3,1.3,3,3s-1.3,3-3,3s-3-1.3-3-3
	S614.5,573.5,616.2,573.5z M611.6,563.7c1.7,0,3,1.3,3,3s-1.3,3-3,3s-3-1.3-3-3S609.9,563.7,611.6,563.7z M605.3,555.2
	c1.7,0,3,1.3,3,3s-1.3,3-3,3s-3-1.3-3-3S603.6,555.2,605.3,555.2z M597.7,547.5c1.7,0,3,1.3,3,3s-1.3,3-3,3s-3-1.3-3-3
	S596,547.5,597.7,547.5z M588.6,541.8c1.7,0,3,1.3,3,3s-1.3,3-3,3s-3-1.3-3-3S586.9,541.8,588.6,541.8z M578.8,537.3
	c1.7,0,3,1.3,3,3s-1.3,3-3,3s-3-1.3-3-3S577.1,537.3,578.8,537.3z M568.4,534.5c1.7,0,3,1.3,3,3s-1.3,3-3,3s-3-1.3-3-3
	S566.7,534.5,568.4,534.5z"/>
</svg>
