<?xml version="1.0" encoding="utf-8"?>
<!-- Generator: Adobe Illustrator 22.1.0, SVG Export Plug-In . SVG Version: 6.00 Build 0)  -->
<svg version="1.1" id="Layer_1" xmlns="http://www.w3.org/2000/svg" xmlns:xlink="http://www.w3.org/1999/xlink" x="0px" y="0px"
	 viewBox="0 0 101 79" style="enable-background:new 0 0 101 79;" xml:space="preserve">
<style type="text/css">
	.st0{fill:#F34236;}
</style>
<path class="st0" d="M97.7,76.3c-1.7,1.8-3.9,2.6-6.3,2.6H9.3c-2.5,0-4.6-0.9-6.3-2.6c-1.7-1.8-2.6-3.9-2.6-6.3V25.5
	C2,27.3,3.9,29,6,30.4C19.4,39.6,28.7,46,33.7,49.7c2.1,1.6,3.8,2.8,5.2,3.7c1.3,0.9,3.1,1.8,5.3,2.7s4.2,1.4,6.1,1.4h0.1h0.1
	c1.9,0,3.9-0.5,6.1-1.4c2.2-0.9,4-1.8,5.3-2.7s3-2.1,5.2-3.7c6.3-4.6,15.6-11,27.8-19.3c2.1-1.5,4-3.1,5.6-4.9v44.4
	C100.3,72.4,99.5,74.5,97.7,76.3z M90.8,24.4c-14,9.7-22.7,15.8-26.1,18.2c-0.4,0.3-1.2,0.8-2.4,1.7s-2.2,1.6-3,2.1
	s-1.8,1.1-2.9,1.8c-1.1,0.7-2.2,1.2-3.2,1.5s-1.9,0.5-2.8,0.5h-0.1h-0.1c-0.9,0-1.8-0.2-2.8-0.5s-2.1-0.8-3.2-1.5
	c-1.1-0.7-2.1-1.3-2.9-1.8c-0.8-0.5-1.8-1.3-3-2.1c-1.2-0.9-2-1.4-2.4-1.7c-3.4-2.4-8.3-5.8-14.6-10.2c-6.4-4.4-10.2-7.1-11.4-8
	c-2.3-1.6-4.5-3.7-6.5-6.5c-2-2.7-3.1-5.3-3.1-7.6C0.3,7.4,1.1,5,2.6,3c1.5-1.9,3.7-2.9,6.6-2.9h82.1c2.4,0,4.5,0.9,6.3,2.6
	c1.8,1.8,2.7,3.9,2.7,6.3c0,2.9-0.9,5.8-2.7,8.4C95.8,20.2,93.5,22.5,90.8,24.4z"/>
</svg>
