<?xml version="1.0" encoding="utf-8"?>
<!-- Generator: Adobe Illustrator 22.0.1, SVG Export Plug-In . SVG Version: 6.00 Build 0)  -->
<svg version="1.1" id="Objects" xmlns="http://www.w3.org/2000/svg" xmlns:xlink="http://www.w3.org/1999/xlink" x="0px" y="0px" width="248.3" height="153.8"
	 viewBox="0 0 248.3 153.8" style="enable-background:new 0 0 248.3 153.8;" xml:space="preserve">
<style type="text/css">
	.st0{fill:#FFFFFF;}
	.st1{display:none;fill:none;}
	.st2{fill:#929393;}
	.st3{fill:#23292A;}
	.st4{fill:#3A6EBA;}
	.st5{fill:#363C76;}
	.st6{fill:#6BE0FF;}
</style>
<symbol  id="New_Symbol" viewBox="-8 -16 16 31.6">
	<g>
		<path class="st0" d="M4.3,11.8C4.3,9.7,2.6,8,0.5,8c-2.1,0-3.8,1.7-3.8,3.8c0,2.1,1.7,3.8,3.8,3.8C2.6,15.6,4.3,13.9,4.3,11.8z"/>
	</g>
	<path class="st0" d="M3.8,7C3.7,7,3.4,7,3.4,7H-4l0,0c-2.1,0-4-2-4-4.1V-6h3v8.9C-5,3.5-5,4-4,4.2v-11l0,0V-16h3v10h3v-10h2v6.4
		l0,0V4.2C5,4,5,3.5,5,2.9V-6h3v8.9C8,5.2,6.2,7,3.8,7z"/>
	<rect x="-8" y="-16" class="st1" width="16" height="31"/>
</symbol>
<path class="st2" d="M212.9,145.9h-19.6c0.3-0.6,0.5-1.4,0.5-2.2V45.1c0-2.6-2.1-4.7-4.7-4.7H31.6c-2.6,0-4.7,2.1-4.7,4.7v98.6
	c0,0.8,0.2,1.5,0.5,2.2h-20c0,0.2-0.1,0.5-0.1,0.7v0.4c0,3.8,3.1,6.9,6.9,6.9h191.9c3.8,0,6.9-3.1,6.9-6.9v-0.4
	C213,146.3,213,146.1,212.9,145.9z"/>
<path class="st3" d="M32.9,143.4v-96h155v96H32.9z M127.9,148.9c0-0.8-0.7-1.5-1.5-1.5h-32c-0.8,0-1.5,0.7-1.5,1.5l0,0
	c0,0.8,0.7,1.5,1.5,1.5h32C127.2,150.4,127.9,149.7,127.9,148.9L127.9,148.9z M110.2,42.7c-0.9,0-1.6,0.7-1.6,1.6
	c0,0.9,0.7,1.6,1.6,1.6c0.9,0,1.6-0.7,1.6-1.6C111.8,43.4,111.1,42.7,110.2,42.7z"/>
<path class="st4" d="M70.7,121.8c-2.3,0-4.6,0-6.8-0.1c-0.6,0-1-0.5-1-1c0-0.6,0.4-1,1-1c2.2,0.1,4.4,0.1,6.7,0.1l1.3,0
	c0.6,0,1,0.4,1,1c0,0.6-0.4,1-1,1L70.7,121.8z M77.9,121.7c-0.5,0-1-0.4-1-1c0-0.6,0.4-1,1-1c2.6-0.1,5.3-0.2,8-0.4
	c0.6,0,1,0.4,1.1,0.9c0,0.6-0.4,1-0.9,1.1C83.3,121.4,80.6,121.6,77.9,121.7C78,121.7,78,121.7,77.9,121.7z M58,121.3
	C57.9,121.3,57.9,121.3,58,121.3c-2.9-0.2-5.6-0.5-8.1-0.9c-0.5-0.1-0.9-0.6-0.8-1.1c0.1-0.5,0.6-0.9,1.1-0.8
	c2.5,0.4,5.1,0.6,7.9,0.9c0.6,0,1,0.5,0.9,1.1C58.9,120.9,58.5,121.3,58,121.3z M91.9,120.7c-0.5,0-0.9-0.4-1-0.9
	c-0.1-0.5,0.3-1,0.9-1.1c2.6-0.2,5.3-0.5,7.9-0.9c0.6-0.1,1,0.3,1.1,0.9s-0.3,1-0.9,1.1C97.3,120.2,94.6,120.5,91.9,120.7
	C92,120.7,91.9,120.7,91.9,120.7z M44.1,119.4c-0.1,0-0.1,0-0.2,0c-2.8-0.6-5.5-1.3-7.8-2.1c-0.5-0.2-0.8-0.7-0.6-1.3
	c0.2-0.5,0.7-0.8,1.3-0.6c2.3,0.8,4.8,1.5,7.6,2c0.5,0.1,0.9,0.6,0.8,1.2C45,119.1,44.6,119.4,44.1,119.4z M105.8,119
	c-0.5,0-0.9-0.4-1-0.9c-0.1-0.5,0.3-1.1,0.8-1.1c2.6-0.4,5.3-0.8,7.9-1.3c0.5-0.1,1.1,0.3,1.2,0.8c0.1,0.5-0.3,1.1-0.8,1.2
	c-2.6,0.5-5.3,0.9-7.9,1.3C105.9,119,105.9,119,105.8,119z M119.6,116.6c-0.5,0-0.9-0.3-1-0.8c-0.1-0.5,0.2-1.1,0.8-1.2
	c1-0.2,2-0.4,3-0.6c1.6-0.3,3.3-0.7,4.9-1c0.5-0.1,1.1,0.2,1.2,0.8c0.1,0.5-0.2,1.1-0.8,1.2c-1.6,0.3-3.2,0.7-4.9,1
	c-1,0.2-2,0.4-3,0.6C119.7,116.6,119.7,116.6,119.6,116.6z M30.8,115c-0.2,0-0.3,0-0.5-0.1c-2.8-1.4-5.1-3.1-6.7-4.9
	c-0.4-0.4-0.3-1,0.1-1.4c0.4-0.4,1-0.3,1.4,0.1c1.5,1.6,3.5,3.2,6.1,4.5c0.5,0.3,0.7,0.9,0.4,1.3C31.6,114.9,31.2,115,30.8,115z
	 M133.3,113.7c-0.5,0-0.9-0.3-1-0.8c-0.1-0.5,0.2-1.1,0.8-1.2c2.6-0.6,5.2-1.2,7.8-1.8c0.5-0.1,1.1,0.2,1.2,0.7
	c0.1,0.5-0.2,1.1-0.7,1.2c-2.6,0.6-5.2,1.2-7.8,1.8C133.4,113.7,133.4,113.7,133.3,113.7z M146.9,110.6c-0.5,0-0.9-0.3-1-0.8
	c-0.1-0.5,0.2-1.1,0.7-1.2c2.7-0.6,5.3-1.3,7.7-2c0.5-0.1,1.1,0.2,1.2,0.7s-0.2,1.1-0.7,1.2c-2.5,0.7-5.1,1.3-7.8,2
	C147.1,110.6,147,110.6,146.9,110.6z M160.5,107c-0.4,0-0.8-0.3-1-0.7c-0.1-0.5,0.2-1.1,0.7-1.2c2.7-0.7,5.2-1.5,7.7-2.2
	c0.5-0.2,1.1,0.1,1.2,0.7c0.2,0.5-0.1,1.1-0.7,1.2c-2.4,0.7-5,1.5-7.7,2.3C160.7,107,160.6,107,160.5,107z M21.6,105.1
	c-0.4,0-0.8-0.3-0.9-0.7l0-0.1c-0.2-0.8-0.2-1.5-0.2-2.3c0-1.9,0.5-3.9,1.4-6c0.2-0.5,0.8-0.7,1.3-0.5c0.5,0.2,0.7,0.8,0.5,1.3
	c-0.8,1.8-1.2,3.5-1.2,5.1c0,0.7,0.1,1.3,0.2,1.9c0.1,0.5-0.2,1.1-0.8,1.2C21.8,105.1,21.7,105.1,21.6,105.1z M173.9,103
	c-0.4,0-0.8-0.3-0.9-0.7c-0.2-0.5,0.1-1.1,0.6-1.3c2.6-0.9,5.2-1.8,7.5-2.7c0.5-0.2,1.1,0.1,1.3,0.6s-0.1,1.1-0.6,1.3
	c-2.4,0.9-4.9,1.8-7.6,2.7C174.1,103,174,103,173.9,103z M187,98.1c-0.4,0-0.8-0.2-0.9-0.6c-0.2-0.5,0-1.1,0.5-1.3
	c2.6-1.1,5-2.2,7.2-3.3c0.5-0.3,1.1-0.1,1.3,0.4c0.3,0.5,0.1,1.1-0.4,1.3c-2.2,1.1-4.7,2.3-7.3,3.4C187.3,98,187.1,98.1,187,98.1z
	 M199.5,91.8c-0.3,0-0.7-0.2-0.9-0.5c-0.3-0.5-0.1-1.1,0.3-1.4c2.4-1.5,4.5-3.1,6.3-4.6c0.4-0.4,1-0.3,1.4,0.1
	c0.4,0.4,0.3,1-0.1,1.4c-1.8,1.6-4,3.3-6.6,4.8C199.8,91.7,199.7,91.8,199.5,91.8z M191.9,122.3c-0.4,0-0.8-0.3-0.9-0.7
	c-0.2-0.5,0.1-1.1,0.6-1.3c0.9-0.3,1.7-0.6,2.5-1c0.5-0.2,1.1,0,1.3,0.5c0.2,0.5,0,1.1-0.5,1.3c-0.8,0.4-1.7,0.7-2.7,1.1
	C192.1,122.3,192,122.3,191.9,122.3z M199.5,118c-0.3,0-0.5-0.1-0.7-0.3c-0.4-0.4-0.4-1,0-1.4c1.1-1.1,1.9-2.3,2.4-3.6
	c0.3-0.9,0.5-1.8,0.6-2.8c0-0.6,0.5-1,1.1-0.9c0.6,0,1,0.5,0.9,1.1c-0.1,1.2-0.3,2.3-0.7,3.4c-0.6,1.6-1.6,3-2.9,4.3
	C200,117.9,199.7,118,199.5,118z M201.9,105c-0.4,0-0.8-0.3-0.9-0.7c-0.7-2.1-2-4.4-3.6-6.8c-0.3-0.5-0.2-1.1,0.2-1.4
	c0.5-0.3,1.1-0.2,1.4,0.2c1.8,2.5,3.1,5,3.9,7.3c0.2,0.5-0.1,1.1-0.6,1.3C202.1,105,202,105,201.9,105z M194.4,93.3
	c-0.3,0-0.5-0.1-0.7-0.3c-1.6-1.8-3.5-3.7-5.6-5.6c-0.4-0.4-0.4-1-0.1-1.4c0.4-0.4,1-0.4,1.4-0.1c2.1,1.9,4,3.9,5.7,5.8
	c0.4,0.4,0.3,1-0.1,1.4C194.9,93.2,194.6,93.3,194.4,93.3z M184.2,83.7c-0.2,0-0.4-0.1-0.6-0.2c-2-1.6-4.1-3.2-6.3-4.8
	c-0.4-0.3-0.5-0.9-0.2-1.4c0.3-0.4,0.9-0.5,1.4-0.2c2.3,1.6,4.4,3.3,6.4,4.9c0.4,0.3,0.5,1,0.1,1.4
	C184.8,83.6,184.5,83.7,184.2,83.7z M172.9,75.4c-0.2,0-0.4-0.1-0.6-0.2c-2.1-1.4-4.4-2.9-6.7-4.3c-0.5-0.3-0.6-0.9-0.3-1.4
	s0.9-0.6,1.4-0.3c2.3,1.4,4.6,2.9,6.8,4.3c0.5,0.3,0.6,0.9,0.3,1.4C173.6,75.2,173.3,75.4,172.9,75.4z M161,68c-0.2,0-0.3,0-0.5-0.1
	c-2.2-1.3-4.6-2.6-7-3.8c-0.5-0.3-0.7-0.9-0.4-1.4c0.3-0.5,0.9-0.7,1.4-0.4c2.4,1.3,4.8,2.6,7,3.9c0.5,0.3,0.6,0.9,0.4,1.4
	C161.7,67.8,161.4,68,161,68z M148.7,61.4c-0.1,0-0.3,0-0.4-0.1c-2.4-1.2-4.8-2.3-7.2-3.5c-0.5-0.2-0.7-0.8-0.5-1.3
	c0.2-0.5,0.8-0.7,1.3-0.5c2.4,1.1,4.9,2.3,7.2,3.5c0.5,0.2,0.7,0.8,0.4,1.3C149.4,61.2,149,61.4,148.7,61.4z M136,55.5
	c-0.1,0-0.3,0-0.4-0.1c-2.4-1.1-4.9-2.1-7.4-3.1c-0.5-0.2-0.8-0.8-0.6-1.3c0.2-0.5,0.8-0.8,1.3-0.6c2.5,1,5,2.1,7.4,3.1
	c0.5,0.2,0.7,0.8,0.5,1.3C136.7,55.3,136.4,55.5,136,55.5z M123,50.2c-0.1,0-0.2,0-0.4-0.1c-2.5-1-5-1.9-7.5-2.8
	c-0.5-0.2-0.8-0.8-0.6-1.3c0.2-0.5,0.8-0.8,1.3-0.6c2.5,0.9,5,1.9,7.5,2.8c0.5,0.2,0.8,0.8,0.6,1.3C123.8,49.9,123.4,50.2,123,50.2z
	 M109.9,45.3c-0.1,0-0.2,0-0.3-0.1c-2.6-0.9-5.1-1.8-7.5-2.7c-0.5-0.2-0.8-0.8-0.6-1.3s0.8-0.8,1.3-0.6c2.5,0.9,5,1.8,7.5,2.7
	c0.5,0.2,0.8,0.8,0.6,1.3C110.7,45,110.3,45.3,109.9,45.3z M96.7,40.7c-0.1,0-0.2,0-0.3-0.1c-2.6-0.9-5.1-1.7-7.6-2.5
	c-0.5-0.2-0.8-0.7-0.7-1.3c0.2-0.5,0.7-0.8,1.3-0.7c2.5,0.8,5,1.6,7.6,2.5c0.5,0.2,0.8,0.7,0.6,1.3C97.5,40.4,97.1,40.7,96.7,40.7z
	 M83.4,36.4c-0.1,0-0.2,0-0.3,0c-2.6-0.8-5.2-1.5-7.7-2.2c-0.5-0.1-0.8-0.7-0.7-1.2c0.1-0.5,0.7-0.8,1.2-0.7
	c2.5,0.7,5.1,1.4,7.7,2.2c0.5,0.2,0.8,0.7,0.7,1.2C84.2,36.1,83.8,36.4,83.4,36.4z M69.8,32.8c-0.1,0-0.2,0-0.2,0
	c-2.7-0.6-5.3-1.2-7.8-1.7c-0.5-0.1-0.9-0.6-0.8-1.2c0.1-0.5,0.6-0.9,1.2-0.8c2.5,0.5,5.1,1.1,7.9,1.7c0.5,0.1,0.9,0.7,0.7,1.2
	C70.7,32.5,70.3,32.8,69.8,32.8z M56.1,30.1c0,0-0.1,0-0.1,0c-2.8-0.4-5.4-0.7-7.9-0.8c-0.6,0-1-0.5-0.9-1.1c0-0.6,0.5-1,1.1-0.9
	c2.5,0.1,5.2,0.4,8,0.8c0.5,0.1,0.9,0.6,0.8,1.1C57,29.7,56.6,30.1,56.1,30.1z M248.3,58l-42.7,20.5l6.4,12.1L248.3,58z M36.3,32.6
	l6.4-12.1L0,0L36.3,32.6z"/>
<path class="st5" d="M247.7,58.4L212,90.6l4.6-8.5L247.7,58.4z M0.6,0.4l35.7,32.2L31.7,24L0.6,0.4z"/>
<path class="st6" d="M229.1,87.1l-12.5-5l31.7-24L229.1,87.1z M248.3,58l-54.4,17.2l11.7,3.3L248.3,58z M19.2,29.1l12.5-5L0,0
	L19.2,29.1z M42.7,20.5l11.7-3.3L0,0L42.7,20.5z"/>
</svg>
