<?xml version="1.0" encoding="utf-8"?>
<!-- Generator: Adobe Illustrator 23.0.3, SVG Export Plug-In . SVG Version: 6.00 Build 0)  -->
<svg version="1.1" id="Capa_1" xmlns="http://www.w3.org/2000/svg" xmlns:xlink="http://www.w3.org/1999/xlink" x="0px" y="0px"
	 viewBox="0 0 100.5 158.2" style="enable-background:new 0 0 100.5 158.2;" xml:space="preserve">
<style type="text/css">
	.st0{fill:#FCD0A3;}
	.st1{opacity:0.16;fill:#FCD0A3;enable-background:new    ;}
	.st2{fill:#1D1A3A;}
	.st3{fill:#152A35;}
	.st4{fill:#67657B;}
	.st5{fill:#233842;}
	.st6{fill:#8E8D9C;}
	.st7{fill:#5F5D73;}
	.st8{opacity:0.35;fill:#1D1A3A;enable-background:new    ;}
	.st9{fill:#FFFFFF;}
</style>
<g>
	<path class="st0" d="M12.9,81.1c-4,0-7.7-3.4-7.7-7.7s3.7-7.7,7.7-7.7V81.1z"/>
	<path class="st0" d="M90.9,81.1c4,0,7.7-3.4,7.7-7.7s-3.7-7.7-7.7-7.7V81.1z"/>
</g>
<g>
	<g>
		<rect x="48.8" y="112" class="st0" width="7" height="21"/>
		<g>
			<path class="st0" d="M52.3,119.4L52.3,119.4c-21.9,0-39.7-17.8-39.7-39.7v-34C12.6,23.8,30.4,6,52.3,6l0,0
				C74.2,6.1,92,23.8,92,45.7v34C92,101.6,74.2,119.4,52.3,119.4z"/>
			<path class="st1" d="M30.7,108.9c-5.9-7.4-7.6-16.1-7.8-25.3c-0.2-9.2-0.3-17.5,0.3-26.7c0.5-8.9,2.3-17.6,6.8-25
				c6.2-10.1,17.3-19.7,28-25.5C56.1,6.1,54.3,6,52.3,6l0,0C30.4,6,12.6,23.8,12.6,45.7v34c0,18,12,33.2,28.5,38.1
				C37.2,115.5,33.6,112.6,30.7,108.9z"/>
		</g>
	</g>
	<path class="st2" d="M87.7,153c-0.3-1.7-0.8-3.4-1.5-5.1c-0.3-0.7-0.7-1.5-1.1-2.2c-1-1.8-2.3-3.5-3.8-5.1
		c-0.7-0.8-1.5-1.5-2.4-2.2c-2.6-2.2-5.7-4.1-9.2-5.4c-2.9-1.1-6-1.9-9.3-2.3c0-0.1,0-0.2,0-0.4c0-1.4-1.1-2.5-2.5-2.5l-1.5,0.3
		c-2.8,0.5-5.6,0.5-8.3,0l-1.5-0.3c-1.4,0-2.5,1.1-2.5,2.5c0,0.1,0,0.2,0,0.3c-3.3,0.4-6.5,1.2-9.4,2.3c-3.5,1.4-6.6,3.2-9.2,5.4
		c-0.8,0.7-1.6,1.5-2.4,2.2c-1.5,1.6-2.8,3.3-3.8,5.1c-0.4,0.7-0.7,1.4-1.1,2.2c-0.7,1.6-1.2,3.3-1.5,5.1c-0.1,0.7-0.2,1.5-0.2,2.2
		c1.2,0.2,2.3,0.4,3.5,0.6c4,0.6,8,1.1,11.9,1.5c0.2,0,0.3,0,0.5,0c17.3,1.7,34.7,1.1,51.9-1.5c1.2-0.2,2.3-0.4,3.5-0.5
		C87.9,154.5,87.8,153.8,87.7,153z"/>
	<g>
		<path class="st3" d="M100.2,33.9c-5.9-6-7.2-15-12-21.8c-3.7-5.3-8.7-9.3-15.1-10.8c-11.6-2.8-27.8-1-37.8,6.3
			c-9.4,0.1-18.9,3.9-24.5,11.6C2.5,30.5,10,46.8,0.3,57.2c-0.4,0.4-0.4,1,0,1.4c2.6,2.7,6.1,3.7,9.5,3.7
			c33.2,0,64.6-27.4,64.6-27.4c2.5-1.1,5.5,0,6.8,2.4L92,61.9c0,0,3.7-1.8,5.1-2.6c0.4-0.2,0.6-0.7,0.5-1.1c-1.4-4.6-1.3-9.3-2-14
			c-0.3-1.8-0.4-4.2-1.5-5.6c2.2-0.5,4.3-1.6,6.2-3.3C100.6,34.9,100.6,34.2,100.2,33.9z"/>
	</g>
</g>
<path class="st4" d="M73.4,67.7c0,1.8-1.5,3.3-3.3,3.3c-1.8,0-3.3-1.5-3.3-3.3c0-1.8,1.5-3.3,3.3-3.3C71.9,64.4,73.4,65.9,73.4,67.7
	z M35.8,64.4c-1.8,0-3.3,1.5-3.3,3.3c0,1.8,1.5,3.3,3.3,3.3c1.8,0,3.3-1.5,3.3-3.3C39.1,65.9,37.6,64.4,35.8,64.4z"/>
<g>
	<path class="st5" d="M80.8,92.8c-1.6,2.7-5.8,4.8-8.9,4.8c-1.8,0-3.3-0.9-4.8-1.8c-1.9-1.3-2.8-3.3-5.3-3.9
		c-7.2-1.8-13.5,6.6-9,12.8c4.4,6.2,15.5,3.7,20.9,0.4c3.7-2.3,8.8-7,8.9-11.7C82.7,92.3,81.3,92,80.8,92.8z"/>
	<path class="st5" d="M23.8,92.8c1.6,2.7,5.8,4.8,8.9,4.8c1.8,0,3.3-0.9,4.8-1.8c1.9-1.3,2.8-3.3,5.3-3.9c7.2-1.8,13.5,6.6,9,12.8
		c-4.4,6.2-15.5,3.7-20.9,0.4c-3.7-2.3-8.8-7-8.9-11.7C22,92.3,23.3,92,23.8,92.8z"/>
</g>
<circle class="st6" cx="70.1" cy="67.7" r="3.1"/>
<circle class="st6" cx="35.8" cy="67.7" r="3.1"/>
<path class="st7" d="M73.1,67.6l-1.5,0.2l1.5,0.1h-1.5l1.5,0.4l-1.5-0.2l1.4,0.5l-1.5-0.4l1.4,0.7l-1.4-0.5l1.2,0.8l-1.3-0.7
	l1.2,0.9l-1.3-0.7l1.1,1l-1.2-0.9l0.9,1.1l-1-1l0.8,1.2L71,69l0.6,1.3l-0.8-1.2l0.5,1.4l-0.6-1.4l0.3,1.5l-0.5-1.4l0.2,1.4l-0.3-1.4
	v1.5l-0.2-1.5l-0.1,1.5L70,69.2l-0.2,1.5l0.1-1.5l-0.5,1.4l0.3-1.4l-0.6,1.3l0.5-1.4l-0.8,1.3l0.6-1.4l-0.8,1.3l0.7-1.4l-1,1.2
	l0.9-1.3l-1.1,1.1l0.9-1.2l-1.2,0.9l1.1-1l-1.3,0.8l1.3-0.9l-1.4,0.6l1.3-0.8l-1.4,0.5l1.3-0.6l-1.4,0.3l1.4-0.5l-1.5,0.2l1.5-0.3
	l-1.5-0.1l1.5-0.1l-1.5-0.2h1.5l-1.5-0.3l1.5,0.2l-1.4-0.5l1.4,0.3l-1.3-0.6l1.4,0.5l-1.3-0.8l1.4,0.6L67.7,66l1.3,0.8l-1.1-1
	l1.2,0.9l-1-1.2l1.1,1.1l-0.8-1.3l0.9,1.2l-0.7-1.3l0.9,1.2L68.9,65l0.7,1.3l-0.4-1.4l0.6,1.4l-0.3-1.5l0.4,1.5v-1.5l0.2,1.4
	l0.1-1.4v1.4l0.3-1.4l-0.1,1.5l0.4-1.5l-0.2,1.5l0.5-1.4l-0.4,1.5l0.7-1.3l-0.5,1.3l0.8-1.2L71,66.5l1-1.1l-0.9,1.2l1.1-1l-1,1.1
	l1.2-0.9l-1.1,1.1l1.3-0.8L71.4,67l1.4-0.6l-1.3,0.7l1.4-0.4l-1.3,0.6L73,67l-1.4,0.4l1.5-0.1l-1.5,0.3H73.1z M37.3,67.6l1.4-0.3
	l-1.4,0.1l1.4-0.4l-1.5,0.3l1.4-0.6l-1.4,0.4l1.2-0.7L37.1,67l1.2-0.9L37,66.9l1.1-1.1l-1.2,0.9l1-1.1l-1.1,1l0.8-1.2l-0.9,1.1
	l0.7-1.3l-0.9,1.2l0.6-1.3l-0.7,1.3l0.4-1.5l-0.6,1.4l0.3-1.5l-0.4,1.5l0.1-1.5l-0.3,1.4l-0.1-1.4l-0.1,1.4l-0.2-1.4l0.1,1.5
	l-0.4-1.5l0.2,1.5l-0.5-1.4l0.4,1.4L34.6,65l0.5,1.4l-0.8-1.2l0.7,1.3l-1-1.2l0.9,1.3l-1.1-1.1l0.9,1.2l-1.1-0.9l1,1L33.4,66
	l1.1,0.9l-1.3-0.6l1.3,0.8l-1.4-0.5l1.3,0.6l-1.5-0.3l1.5,0.5l-1.5-0.2l1.4,0.3h-1.5l1.5,0.2l-1.5,0.1l1.5,0.1l-1.4,0.3l1.4-0.2
	l-1.4,0.5l1.5-0.3L33,68.8l1.4-0.5l-1.3,0.8l1.4-0.6l-1.2,0.9l1.3-0.8l-1.1,1l1.2-0.9l-1,1.2l1.1-1.1L34,70.1l0.9-1.2l-0.7,1.4
	l0.9-1.3l-0.6,1.4l0.7-1.3l-0.4,1.4l0.6-1.3l-0.3,1.4l0.4-1.4l-0.1,1.5l0.3-1.5v1.5l0.2-1.5l0.2,1.5L36,69.2l0.4,1.4l-0.2-1.4
	l0.5,1.4l-0.4-1.5l0.7,1.4l-0.5-1.4l0.8,1.2L36.6,69l1,1.1l-0.9-1.2l1.1,1l-0.9-1.1l1.1,0.9l-1-1l1.2,0.7l-1.1-0.9l1.3,0.7l-1.3-0.8
	l1.4,0.5l-1.3-0.7l1.4,0.4l-1.4-0.5l1.5,0.2l-1.4-0.4h1.5l-1.5-0.1l1.5-0.2H37.3z"/>
<g>
	<path class="st8" d="M37.4,67.7c0,0.9-0.7,1.6-1.6,1.6s-1.6-0.7-1.6-1.6s0.7-1.6,1.6-1.6S37.4,66.8,37.4,67.7z M70.1,66.1
		c-0.9,0-1.6,0.7-1.6,1.6s0.7,1.6,1.6,1.6c0.9,0,1.6-0.7,1.6-1.6S71,66.1,70.1,66.1z"/>
	<path class="st9" d="M36.8,67c0,0.1,0,0.1,0,0.2c0,0.2-0.1,0.3-0.3,0.3h-0.1h-0.1c-0.3,0-0.5-0.2-0.5-0.5s0.2-0.5,0.5-0.5
		S36.8,66.7,36.8,67z M71.1,67c0-0.3-0.2-0.5-0.5-0.5c-0.3,0-0.5,0.2-0.5,0.5s0.2,0.5,0.5,0.5h0.1h0.1c0.2,0,0.3-0.1,0.3-0.3
		C71.2,67.1,71.2,67.1,71.1,67z"/>
</g>
</svg>
