<?xml version="1.0" encoding="utf-8"?>
<!-- Generator: Adobe Illustrator 23.0.3, SVG Export Plug-In . SVG Version: 6.00 Build 0)  -->
<svg version="1.1" id="Capa_1" xmlns="http://www.w3.org/2000/svg" xmlns:xlink="http://www.w3.org/1999/xlink" x="0px" y="0px"
	 viewBox="0 0 41.6 60.1" style="enable-background:new 0 0 41.6 60.1;" xml:space="preserve">
<style type="text/css">
	.st0{fill:#3E50B4;}
</style>
<path class="st0" d="M9.4,0c3.2,0,5.8,2.6,5.8,5.8s-2.6,5.8-5.8,5.8S3.6,9,3.6,5.8S6.2,0,9.4,0z M41.6,35.8
	c-0.3-6.7-1.1-13.4-2.4-20c-1-5.2-7.5-4.5-9.5-0.8c-0.1,0.1-0.2,0.3-0.3,0.4c-2.3,4.1-5.1,7.7-8.6,10.8c-3.5-3.1-6.3-6.7-8.6-10.8
	c-0.1-0.2-0.2-0.3-0.3-0.4c-2-3.7-8.4-4.3-9.4,0.8C1.1,22.4,0.3,29.1,0,35.7c0,1.2,0.3,2.2,0.8,3c-0.1,0.2-0.1,0.5-0.1,0.7
	c0,5.9,0,11.8,0,17.7c0,3.9,6.1,3.9,6.1,0c0-5.6,0-11.1,0-16.7c1.9-0.6,3.4-2.1,3.5-4.7c0.1-3.6,0.5-7.2,1-10.8
	c2,2.5,4.2,4.7,6.6,6.7c0.5,1.2,1.6,2.1,2.9,1.9c1.3,0.2,2.4-0.7,2.9-1.9c2.5-2,4.7-4.3,6.6-6.7c0.5,3.6,0.8,7.1,1,10.7
	c0.1,2.5,1.6,4.1,3.5,4.7c0,5.6,0,11.1,0,16.7c0,3.9,6.1,3.9,6.1,0c0-5.9,0-11.8,0-17.7c0-0.3,0-0.5-0.1-0.7
	C41.3,38,41.6,37,41.6,35.8z M32.2,0C35.4,0,38,2.6,38,5.8s-2.6,5.8-5.8,5.8S26.4,9,26.4,5.8S29,0,32.2,0z"/>
</svg>
