<?xml version="1.0" encoding="utf-8"?>
<!-- Generator: Adobe Illustrator 23.0.3, SVG Export Plug-In . SVG Version: 6.00 Build 0)  -->
<svg version="1.1" id="Layer_1" xmlns="http://www.w3.org/2000/svg" xmlns:xlink="http://www.w3.org/1999/xlink" x="0px" y="0px"
	 viewBox="0 0 49.1 51.5" style="enable-background:new 0 0 49.1 51.5;" xml:space="preserve">
<style type="text/css">
	.st0{fill:#F05F61;}
	.st1{fill:#FFFFFF;}
	.st2{fill:#DB3640;}
	.st3{fill:#23BDC4;}
	.st4{fill:#009090;}
</style>
<g>
	<g>
		<path class="st0" d="M22.2,46.5c1.9,0.9,8.2,5,8.2,5S46.2,24,46.3,21.6c0.2-4-10.3-8.6-10.6-8.8c-3.1-1.7-10.4-7.9-13.2-3.1
			c-2.3,4-4.7,8-7,12.2C12.9,26.5,10,31.4,7.4,36c-0.9,1.7-1,2.2-1,2.2S18.9,44.9,22.2,46.5z"/>
		<path class="st1" d="M22.7,46.4c1.8,0.8,7.4,3.9,7.4,3.9s3-4.8,3.8-6.2c3.5-5.6,6.4-11.6,9.7-17.3c1.2-2,2.6-4,2.8-6.4
			c0.3-3.9-9.6-8.3-9.9-8.5c-2.9-1.7-9.8-7.6-12.6-2.7c-2.3,4-4.7,8.1-7,12.2C14.3,26,7.3,37.8,7.3,37.8s4.3,2.4,6.4,3.6
			C16.7,43,19.6,44.9,22.7,46.4z"/>
		<path class="st0" d="M31.2,50.1l17.9-32.6c0,0-12.1-6.5-12.4-6.7c-3.1-1.7-11.5-6.3-11.5-6.3s-6.4,11.3-8.7,15.4
			c-2.6,4.6-9.4,16.7-9.4,16.7s4.3,2.2,6.4,3.4C16.7,41.9,31.2,50.1,31.2,50.1z"/>
	</g>
	<g>
		<path class="st2" d="M6.4,38.1l24,13.4l0.4-0.8l-0.1,0l0.3-0.6l0,0l0.5-0.9L7.4,36L6.4,38.1z M30.3,49.7L30,50.2L7.3,37.8L7.8,37
			L30.3,49.7z"/>
		<polygon class="st2" points="32.4,38.2 17.4,29.8 13.9,35.9 28.8,44.4 		"/>
	</g>
	
		<rect x="23.6" y="28.5" transform="matrix(0.4875 -0.8731 0.8731 0.4875 -18.6597 38.8832)" class="st0" width="0.4" height="13.7"/>
	
		<rect x="22.6" y="30.1" transform="matrix(0.4875 -0.8731 0.8731 0.4875 -20.6064 38.8226)" class="st0" width="0.4" height="13.7"/>
	
		<rect x="21.6" y="31.6" transform="matrix(0.4875 -0.8731 0.8731 0.4875 -22.3558 38.7661)" class="st0" width="0.4" height="13.7"/>
</g>
<g>
	<g>
		<path class="st3" d="M19.3,42.7c2.2,0.1,10.3,1.4,10.3,1.4S33.1,10,32.2,7.6c-1.5-4-13.9-4-14.3-4C14.1,3.2,4.1,0.4,3.5,6.4
			c-0.5,5-1.1,10-1.6,15.1C1.4,27.2,0.6,33.3,0.1,39c-0.2,2.1,0,2.6,0,2.6S15.4,42.6,19.3,42.7z"/>
		<path class="st1" d="M19.7,42.4c2.1,0.1,9,0.6,9,0.6s0.9-6.1,1.1-7.8c1-7.1,1.2-14.3,1.9-21.4c0.3-2.5,0.8-5.1,0-7.6
			c-1.4-4-13.1-4-13.5-4C14.6,1.9,5.2-1,4.6,5c-0.5,5-1.1,10-1.5,15.1c-0.5,5.7-2.3,20.4-2.3,20.4s5.3,0.5,7.9,0.7
			C12.3,41.8,16,42.3,19.7,42.4z"/>
		<path class="st3" d="M29.8,42.3l3.4-39.9c0,0-14.8-1.1-15.2-1.2C14.2,0.8,3.8,0,3.8,0S2.5,14,2,19.1c-0.6,5.7-1.9,20.6-1.9,20.6
			S5.3,40,8,40.3C11.9,40.6,29.8,42.3,29.8,42.3z"/>
	</g>
	<polygon class="st4" points="28.6,43.4 29.5,43.6 29.7,41.7 28.9,41.6 	"/>
	<g>
		<polygon class="st4" points="29.7,42.3 29.8,41.3 0.1,38.9 0.1,41.4 29.6,44.1 29.6,43.2 0.8,40.7 0.9,39.7 		"/>
		<polygon class="st4" points="25.7,30.1 7.3,28.3 6.5,36 24.8,37.8 		"/>
	</g>
	
		<rect x="15.9" y="23.7" transform="matrix(9.011519e-02 -0.9959 0.9959 9.011519e-02 -16.3539 44.2743)" class="st3" width="0.4" height="14.8"/>
	
		<rect x="15.6" y="25.8" transform="matrix(9.011519e-02 -0.9959 0.9959 9.011519e-02 -18.6988 45.8841)" class="st3" width="0.4" height="14.8"/>
	
		<rect x="15.3" y="27.6" transform="matrix(9.011432e-02 -0.9959 0.9959 9.011432e-02 -20.7801 47.2977)" class="st3" width="0.4" height="14.8"/>
</g>
</svg>
