<?xml version="1.0" encoding="utf-8"?>
<!-- Generator: Adobe Illustrator 23.0.3, SVG Export Plug-In . SVG Version: 6.00 Build 0)  -->
<svg version="1.1" id="Layer_1" xmlns="http://www.w3.org/2000/svg" xmlns:xlink="http://www.w3.org/1999/xlink" x="0px" y="0px"
	 viewBox="0 0 19.4 45.2" style="enable-background:new 0 0 19.4 45.2;" xml:space="preserve">
<style type="text/css">
	.st0{fill:#80ADE4;}
	.st1{fill:#FFFFFF;}
	.st2{fill:#BCBEC0;}
	.st3{fill:#32383F;}
</style>
<path id="XMLID_16895_" class="st0" d="M19.3,33.3v-4.4c0-0.3-0.2-0.5-0.5-0.5c0.3,0,0.5-0.2,0.5-0.5v-3H0.5v3
	c0,0.3,0.2,0.5,0.5,0.5c-0.3,0-0.5,0.2-0.5,0.5v4.4c0,0.3,0.2,0.5,0.5,0.5c-0.3,0-0.5,0.2-0.5,0.5v4.4c0,0.3,0.2,0.5,0.5,0.5
	c-0.3,0-0.5,0.2-0.5,0.5v4.4c0,0.3,0.2,0.5,0.5,0.5h17.7c0.3,0,0.5-0.2,0.5-0.5v-4.4c0-0.3-0.2-0.5-0.5-0.5c0.3,0,0.5-0.2,0.5-0.5
	v-4.4c0-0.3-0.2-0.5-0.5-0.5C19,33.8,19.3,33.6,19.3,33.3z"/>
<g id="XMLID_16892_">
	<path id="XMLID_16893_" class="st1" d="M18.5,17.7H0.7c-0.3,0-0.5,0.2-0.5,0.5v4.4c0,0.3,0.2,0.5,0.5,0.5h17.7
		c0.3,0,0.5-0.2,0.5-0.5v-4.4C19,17.9,18.8,17.7,18.5,17.7z"/>
</g>
<g id="XMLID_16890_">
	<path id="XMLID_16891_" class="st1" d="M18.5,12.3H0.7c-0.3,0-0.5,0.2-0.5,0.5v4.4c0,0.3,0.2,0.5,0.5,0.5h17.7
		c0.3,0,0.5-0.2,0.5-0.5v-4.4C19,12.5,18.8,12.3,18.5,12.3z"/>
</g>
<g>
	<rect x="5.6" y="5.2" class="st2" width="8" height="1"/>
	<path class="st2" d="M12.7,0.4h-6c-0.6,0-1,0.5-1,1v3.3C5.7,4.9,5.8,5,6,5h7.4c0.2,0,0.3-0.1,0.3-0.3V1.4
		C13.8,0.9,13.3,0.4,12.7,0.4z"/>
</g>
<g id="XMLID_16881_">
	<path id="XMLID_16882_" class="st1" d="M13.5,6.6c-0.1-0.1-0.2-0.3-0.4-0.3c-0.3,0-0.6,0-0.8,0c-1.2,0-2.4,0-3.6,0
		c-0.9,0-1.8,0-2.6,0c-0.1,0-0.2,0-0.2,0.1c-1.5,1.4-5.5,5-5.5,5.6v0.8l0.5-0.4h17.4l0.5,0.4v-0.5v-0.2C18.9,11.3,14.8,8,13.5,6.6z"
		/>
</g>
<path class="st3" d="M19.3,26.6c0-0.9,0-1.8,0-2.8c0-0.3-0.1-0.4-0.2-0.6c0.5-0.5,0.2-1.5,0.2-2.1c0-0.9,0-1.8,0-2.8
	c0-0.2-0.1-0.4-0.2-0.6c0.4-0.5,0.1-1.5,0.1-2c0-0.9,0-1.8,0-2.8c0-0.2,0-0.3-0.1-0.4c0-0.3,0-0.6-0.2-1c-0.4-0.6-0.9-1.1-1.4-1.5
	c-1.2-1.2-2.5-2.2-3.7-3.5c0.1,0,0.1-0.1,0.1-0.2c0-0.3,0-0.7,0-1c0-0.1-0.1-0.1-0.1-0.2c0,0,0,0,0,0c0.1-0.2,0.1-0.4,0.1-0.6
	c0-0.6,0-1.1,0-1.7c0-1,0.1-2.3-1.2-2.5c0,0-0.1,0-0.1,0c-1.8,0-3.5,0-5.3,0c-0.8,0-1.6,0-1.9,0.8C5.3,1.4,5.3,1.8,5.3,2.2
	c0,0.5,0,1.1,0,1.6c0,0.4-0.1,0.9,0.1,1.3c-0.1,0-0.1,0.1-0.1,0.2c0,0.3,0,0.7,0,1c0,0,0,0.1,0,0.1C5.3,6.5,5.2,6.6,5.1,6.6
	C3.6,8,1.9,9.4,0.5,11c-0.2,0.2-0.4,0.5-0.5,0.7c-0.1,0.3,0,0.6,0,0.9c0,0,0,0.1,0,0.1c0,0,0,0.1,0,0.1c-0.1,0.8,0,1.6,0,2.5
	c0,0.5,0,1,0,1.5c0,0.3,0,0.6,0.1,0.8c0,0,0.1,0.1,0.1,0.1C0.1,17.8,0,18,0,18.2c-0.1,0.8,0,1.6,0,2.5c0,0.5,0,1,0,1.5
	c0,0.3,0,0.6,0.1,0.8c0,0.1,0.1,0.1,0.1,0.1C0.1,23.3,0,23.4,0,23.7c-0.1,0.8,0,1.6,0,2.5c0,0.5,0,1,0,1.5c0,0.3,0,0.6,0.1,0.8
	c0,0,0.1,0.1,0.1,0.1C0.1,28.7,0,28.9,0,29.1c-0.1,0.8,0,1.6,0,2.5c0,0.5,0,1,0,1.5c0,0.3,0,0.6,0.1,0.8c0,0,0.1,0.1,0.1,0.1
	C0.1,34.1,0,34.3,0,34.5c-0.1,0.8,0,1.6,0,2.5c0,0.5,0,1,0,1.5c0,0.3,0,0.6,0.1,0.8c0,0.1,0.1,0.1,0.1,0.1C0.1,39.6,0,39.7,0,40
	c-0.1,0.8,0,1.6,0,2.5c0,0.5,0,1,0,1.5c0,0.3,0,0.6,0.1,0.8c0.3,0.4,0.7,0.4,1.2,0.4c0.6,0,1.3,0,1.9,0c4.2,0,8.5,0,12.7,0
	c0.7,0,1.3,0,2,0c0.3,0,0.8,0.1,1.1-0.1c0.6-0.4,0.3-1.6,0.3-2.2c0-0.9,0-1.8,0-2.8c0-0.3-0.1-0.4-0.2-0.6c0.5-0.5,0.2-1.5,0.2-2.1
	c0-0.9,0-1.8,0-2.8c0-0.2-0.1-0.4-0.2-0.5c0.4-0.5,0.2-1.5,0.2-2.1c0-0.9,0-1.8,0-2.8c0-0.2-0.1-0.4-0.2-0.5
	C19.5,28.2,19.3,27.2,19.3,26.6z M0.9,18c0.1,0,0.2,0,0.3,0c0.5,0,1,0,1.5,0c0.1,0,0.3,0,0.4,0c1.8,0,3.4,0,5.2,0c2.5,0,5,0,7.5,0
	c0.7,0,1.3,0,2,0c0.2,0,0.6,0.1,0.9,0c0.1,0.2,0.1,0.5,0.1,0.7c0,0.5,0,0.9,0,1.4s0,1.1,0,1.6c0,0.3,0.1,0.6,0,0.8
	c-0.1,0.4-0.5,0.3-0.8,0.3c-0.6,0-1.2,0-1.8,0c-4,0-8,0-12,0c-0.7,0-1.5,0-2.2,0c-0.3,0-0.8,0.1-1.1,0c-0.2,0-0.3-0.2-0.3-0.3
	c0-0.3,0-0.7,0-1c0-1,0-1.9,0-2.9C0.6,18.3,0.5,18.1,0.9,18z M11.9,6C11,6,10,6,9.1,6C8.2,6,7.2,6,6.3,6C6.2,6,6.1,6,6,6
	c0-0.1,0-0.3,0-0.4c2.5,0,4.9,0,7.4,0c0,0.1,0,0.3,0,0.4c-0.3,0-0.5,0-0.8,0C12.4,6,12.1,6,11.9,6z M5.8,3.8c0-0.8,0-1.6,0-2.4
	c0.1-0.9,1-0.8,1.6-0.8c1.7,0,3.3,0,5,0c0,0.1,0.1,0.2,0.2,0.2c1,0.1,0.7,1.6,0.7,2.3c0,0.4,0,0.9,0,1.3c0,0.2,0.1,0.3-0.1,0.4
	c-0.2,0.1-0.5,0-0.6,0c-0.4,0-0.8,0-1.2,0c-1,0-2,0-2.9,0c-0.8,0-1.5,0-2.3,0c-0.1,0-0.3,0-0.4-0.1C5.7,4.5,5.8,4,5.8,3.8z M1.3,11
	c0.8-0.9,1.8-1.7,2.6-2.6C4.3,8,4.8,7.6,5.2,7.2C5.4,7,5.5,6.9,5.7,6.7c0.1,0,0.1-0.1,0.2-0.1c2.4,0,4.7,0,7.1,0
	c0.1,0,0.1,0.1,0.2,0.1c0,0,0.1,0.1,0.1,0.1c0,0,0,0,0,0c1.2,1.1,2.4,2.2,3.6,3.3c0.5,0.5,1,1,1.5,1.5c0.1,0.2,0.2,0.3,0.2,0.4
	c0,0-0.1,0-0.1,0c-0.1,0-0.2,0-0.3,0c-0.4,0-0.7,0-1.1,0c-1.5,0-2.9,0-4.4,0c-1.3,0-2.5,0-3.8,0c-2,0-4.1,0-6.1,0
	c-0.1,0-0.2,0-0.3,0c-0.5,0-1,0-1.4,0c-0.2,0-0.3,0-0.5,0.1c0-0.1,0-0.1,0-0.2C0.7,11.6,1.1,11.3,1.3,11z M0.9,17.4
	c-0.2,0-0.3-0.2-0.3-0.3c0-0.3,0-0.7,0-1c0-1,0-1.9,0-2.9c0-0.3-0.1-0.5,0.3-0.6c0.1,0,0.2,0,0.3,0c0.5,0,1,0,1.5,0
	c1.9,0,3.7,0,5.6,0c3.3,0,6.7,0,9.9,0c0.1,0.1,0.3,0.2,0.4,0.3c0.1,0,0.1,0,0.2,0.1c0,0.1,0,0.2,0,0.3c0,0.5,0,0.9,0,1.4
	s0,1.1,0,1.6c0,0.3,0.1,0.6,0,0.8c0,0.2-0.2,0.3-0.3,0.3c-0.2,0-0.3,0-0.5,0c-0.6,0-1.2,0-1.8,0c-2.4,0-4.9,0-7.3,0
	c-1.5,0-3.1,0-4.7,0c-0.5,0-0.9,0-1.4,0c-0.3,0-0.5,0-0.8,0c-0.3,0-0.6,0-0.9,0C1.1,17.4,1,17.4,0.9,17.4
	C0.9,17.4,0.9,17.4,0.9,17.4z M0.9,28.3c-0.2,0-0.3-0.2-0.3-0.3c0-0.3,0-0.7,0-1c0-1,0-1.9,0-2.9c0-0.3-0.1-0.5,0.3-0.6
	c0.1,0,0.2,0,0.3,0c0.5,0,1,0,1.5,0c1.9,0,3.7,0,5.6,0c3.4,0,6.8,0,10.1,0c0.1,0,0.1,0,0.2,0c0,0,0,0,0,0c0.2,0.1,0.2,0.5,0.2,0.7
	c0,0.5,0,0.9,0,1.4s0,1.1,0,1.6c0,0.3,0.1,0.6,0,0.8c0,0.2-0.2,0.3-0.3,0.3c-0.2,0-0.3,0-0.5,0c-0.6,0-1.2,0-1.8,0
	c-2.4,0-4.9,0-7.3,0c-1.5,0-3.1,0-4.7,0c-0.5,0-0.9,0-1.4,0c-0.3,0-0.5,0-0.8,0c-0.3,0-0.6,0-0.9,0C1.1,28.3,1,28.3,0.9,28.3
	C0.9,28.3,0.9,28.3,0.9,28.3z M0.9,33.7c-0.2,0-0.3-0.2-0.3-0.3c0-0.3,0-0.7,0-1c0-1,0-1.9,0-2.9c0-0.3-0.1-0.5,0.3-0.6
	c0.1,0,0.2,0,0.3,0c0,0,0.1,0,0.1,0c0.5,0,0.9,0,1.4,0c0.2,0,0.3,0,0.5,0c1.7,0,3.4,0,5.1,0c2.6,0,5.1,0,7.6,0c0.7,0,1.3,0,2,0
	c0.2,0,0.5,0,0.8,0c0.1,0.2,0.1,0.5,0.1,0.7c0,0.5,0,0.9,0,1.4s0,1.1,0,1.6c0,0.3,0.1,0.6,0,0.8c0,0.2-0.2,0.3-0.3,0.3
	c-0.2,0-0.3,0-0.5,0c-0.6,0-1.2,0-1.8,0c-2.4,0-4.9,0-7.3,0c-1.5,0-3.1,0-4.7,0c-0.5,0-0.9,0-1.4,0c-0.3,0-0.5,0-0.8,0
	c-0.3,0-0.6,0-0.9,0C1.1,33.7,1,33.7,0.9,33.7C0.9,33.7,0.9,33.7,0.9,33.7z M2.7,34.3c0.2,0,0.3,0,0.5,0c1.7,0,3.4,0,5.1,0
	c2.6,0,5.1,0,7.6,0c0.7,0,1.3,0,2,0c0.2,0,0.5,0,0.8,0c0.1,0.2,0.1,0.5,0.1,0.7c0,0.5,0,0.9,0,1.4s0,1.1,0,1.6c0,0.3,0.1,0.6,0,0.8
	c-0.1,0.4-0.5,0.3-0.8,0.3c-0.6,0-1.2,0-1.8,0c-4,0-8,0-12,0c-0.7,0-1.5,0-2.2,0c-0.3,0-0.8,0.1-1.1,0c-0.2,0-0.3-0.2-0.3-0.3
	c0-0.3,0-0.7,0-1c0-1,0-1.9,0-2.9c0-0.3-0.1-0.5,0.3-0.6c0.1,0,0.2,0,0.3,0c0,0,0.1,0,0.1,0C1.8,34.3,2.2,34.3,2.7,34.3z M18.8,44.3
	c-0.1,0.4-0.5,0.3-0.8,0.3c-0.6,0-1.2,0-1.8,0c-4,0-8,0-12,0c-0.7,0-1.5,0-2.2,0c-0.3,0-0.8,0.1-1.1,0c-0.2,0-0.3-0.2-0.3-0.3
	c0-0.3,0-0.7,0-1c0-1,0-1.9,0-2.9c0-0.3-0.1-0.5,0.3-0.6c0.1,0,0.2,0,0.3,0c0.5,0,1,0,1.5,0c1.9,0,3.7,0,5.6,0c3.4,0,6.8,0,10.1,0
	c0.1,0,0.1,0,0.2,0c0,0,0,0,0,0c0.2,0.1,0.2,0.5,0.2,0.7c0,0.5,0,0.9,0,1.4s0,1.1,0,1.6C18.8,43.8,18.9,44.1,18.8,44.3z"/>
</svg>
