<?xml version="1.0" encoding="utf-8"?>
<!-- Generator: Adobe Illustrator 23.0.3, SVG Export Plug-In . SVG Version: 6.00 Build 0)  -->
<svg version="1.1" id="Layer_1" xmlns="http://www.w3.org/2000/svg" xmlns:xlink="http://www.w3.org/1999/xlink" x="0px" y="0px"
	 viewBox="0 0 49 49" style="enable-background:new 0 0 49 49;" xml:space="preserve">
<style type="text/css">
	.st0{fill:#3E50B4;}
</style>
<path class="st0" d="M5.4,8.9c-3,3.7-5,8.2-5.4,13.2h9.9C9.5,17.4,8,12.9,5.4,8.9z M26.9,0v22.1h7.6c0.4-6,2.4-11.7,5.7-16.6
	C36.5,2.5,31.9,0.5,26.9,0z M0,26.9c0.5,5,2.4,9.5,5.4,13.2c2.5-4,4-8.5,4.4-13.2C9.8,26.9,0,26.9,0,26.9z M39.1,26.9
	c0.4,4.7,1.9,9.2,4.4,13.2c3-3.7,5-8.2,5.4-13.2C48.9,26.9,39.1,26.9,39.1,26.9z M14.6,26.9c-0.4,6-2.4,11.7-5.7,16.6
	c3.7,3,8.3,5,13.3,5.5V26.9H14.6z M34.4,26.9h-7.6V49c5-0.5,9.6-2.5,13.3-5.5C36.8,38.5,34.8,32.8,34.4,26.9z M8.8,5.5
	c3.4,5,5.3,10.7,5.7,16.6h7.6V0C17.1,0.5,12.5,2.5,8.8,5.5z M43.6,8.9c-2.5,4-4,8.5-4.4,13.2H49C48.5,17.2,46.6,12.6,43.6,8.9z"/>
</svg>
