<?xml version="1.0" encoding="utf-8"?>
<!-- Generator: Adobe Illustrator 23.0.3, SVG Export Plug-In . SVG Version: 6.00 Build 0)  -->
<svg version="1.1" id="Layer_1" xmlns="http://www.w3.org/2000/svg" xmlns:xlink="http://www.w3.org/1999/xlink" x="0px" y="0px"
	 viewBox="0 0 53.3 35.9" style="enable-background:new 0 0 53.3 35.9;" xml:space="preserve">
<style type="text/css">
	.st0{fill:#FFFFFF;}
	.st1{fill:#F8D920;}
	.st2{fill:#BEBEBF;}
	.st3{fill:#1F191A;}
</style>
<path class="st0" d="M52.3,6.1c0-0.8-0.7-1.5-1.5-1.5H2.3c-0.8,0-1.5,0.7-1.5,1.5V10h18.3l0,0l0,0h14.7l0,0l0,0h18.3V6.1H52.3z
	 M15.2,31.2H0.8v2.2h16.1C16.3,32.7,15.7,32,15.2,31.2z M37.8,31.2c-0.5,0.8-1.1,1.5-1.7,2.2h16.1v-2.2H37.8z"/>
<path id="XMLID_15764_" class="st1" d="M11.7,21.9c0-4.7,2.4-8.8,6-11.2H0.9v18.5h12.9C12.5,27.1,11.7,24.6,11.7,21.9z M35.3,11
	c3.3,2.4,5.4,6.5,5.4,11.2c0,2.7-0.7,5.2-1.9,7.2h13V11H35.3z"/>
<path id="XMLID_15770_" class="st2" d="M26.8,8.9c-7.4,0-13.4,6-13.4,13.4s6,13.4,13.4,13.4s13.5-5.9,13.5-13.3S34.2,8.9,26.8,8.9z
	 M26.8,32.3c-5.5,0-9.9-4.4-9.9-9.9s4.4-9.9,9.9-9.9s9.9,4.4,9.9,9.9C36.8,27.8,32.3,32.3,26.8,32.3z"/>
<path id="XMLID_7712_" class="st3" d="M44.6,9.4c-1.1,0-1.9-0.9-1.9-1.9c0-1.1,0.9-1.9,1.9-1.9c1.1,0,1.9,0.9,1.9,1.9
	S45.7,9.4,44.6,9.4z M44.6,6.3c-0.6,0-1.2,0.5-1.2,1.2c0,0.6,0.5,1.2,1.2,1.2s1.2-0.5,1.2-1.2S45.3,6.3,44.6,6.3z M36.3,5L36.3,5
	H17.1c-0.1,0-0.3-0.1-0.3-0.2c-0.1-0.1-0.1-0.3,0-0.4l2.4-4.2C19.3,0.1,19.4,0,19.5,0H34c0.1,0,0.3,0.1,0.3,0.2l2.3,4.1
	c0,0.1,0.1,0.1,0.1,0.2C36.7,4.8,36.5,5,36.3,5z M17.7,4.3h17.9l-1.9-3.4H19.6L17.7,4.3z M26.7,35.9c-7.8,0-14.1-6.3-14.1-14.1
	S18.9,7.7,26.7,7.7S40.8,14,40.8,21.8S34.4,35.9,26.7,35.9z M26.7,8.5c-7.3,0-13.3,6-13.3,13.3s6,13.3,13.3,13.3S40,29.1,40,21.8
	S34,8.5,26.7,8.5z M26.7,31.5c-5.3,0-9.7-4.3-9.7-9.7c0-5.3,4.3-9.7,9.7-9.7c5.3,0,9.7,4.3,9.7,9.7S32,31.5,26.7,31.5z M26.7,12.9
	c-4.9,0-8.9,4-8.9,8.9s4,8.9,8.9,8.9s8.9-4,8.9-8.9S31.6,12.9,26.7,12.9z M26.7,35.9c-2.1,0-4.2-0.5-6.1-1.4H1.9
	c-1,0-1.9-0.8-1.9-1.9V6.1c0-1,0.8-1.9,1.9-1.9h49.5c1,0,1.9,0.8,1.9,1.9v26.5c0,1-0.8,1.9-1.9,1.9H32.8
	C30.9,35.4,28.8,35.9,26.7,35.9z M1.9,5C1.3,5,0.8,5.5,0.8,6.1v26.5c0,0.6,0.5,1.1,1.1,1.1h18.7c0.1,0,0.1,0,0.2,0
	c1.8,0.9,3.8,1.4,5.9,1.4s4-0.5,5.9-1.4c0.1,0,0.1,0,0.2,0h18.7c0.6,0,1.1-0.5,1.1-1.1V6.1c0-0.6-0.5-1.1-1.1-1.1
	C51.5,5,1.9,5,1.9,5z M16.9,31.8H0.5c-0.2,0-0.4-0.2-0.4-0.4v-2.2c0-0.2,0.2-0.4,0.4-0.4h14.7c0.1,0,0.2,0.1,0.3,0.2
	c0.5,0.8,1.1,1.5,1.7,2.1c0.1,0.1,0.1,0.3,0.1,0.4C17.2,31.7,17.1,31.8,16.9,31.8z M0.8,31.1H16c-0.4-0.5-0.8-1-1.1-1.5H0.8V31.1z
	 M52.9,31.8H36.4c-0.2,0-0.3-0.1-0.3-0.2c-0.1-0.1,0-0.3,0.1-0.4c0.6-0.7,1.2-1.4,1.7-2.1c0.1-0.1,0.2-0.2,0.3-0.2h14.7
	c0.2,0,0.4,0.2,0.4,0.4v2.2C53.3,31.6,53.1,31.8,52.9,31.8z M37.3,31.1h15.2v-1.5H38.4C38.1,30.1,37.7,30.6,37.3,31.1z M13,5H3.9
	C3.7,5,3.5,4.8,3.5,4.6V2.5c0-0.2,0.2-0.4,0.4-0.4H13c0.2,0,0.4,0.2,0.4,0.4v2.1C13.4,4.8,13.2,5,13,5z M4.3,4.3h8.4V2.9H4.3V4.3z
	 M49.1,5h-6c-0.2,0-0.4-0.2-0.4-0.4V2.5c0-0.2,0.2-0.4,0.4-0.4h6c0.2,0,0.4,0.2,0.4,0.4v2.1C49.5,4.8,49.3,5,49.1,5z M43.5,4.3h5.3
	V2.9h-5.3V4.3z M15.2,29.6H0.5c-0.2,0-0.4-0.2-0.4-0.4V10.4c0-0.2,0.2-0.4,0.4-0.4h18.7c0.2,0,0.3,0.1,0.4,0.3c0,0.2,0,0.3-0.2,0.4
	c-3.8,2.5-6,6.6-6,11.1c0,2.6,0.7,5,2.1,7.2c0.1,0.1,0.1,0.3,0,0.4S15.3,29.6,15.2,29.6z M0.8,28.8h13.7c-1.2-2.1-1.9-4.5-1.9-7
	c0-4.4,2-8.4,5.4-11.1H0.8V28.8z M52.9,29.6H38.2c-0.1,0-0.3-0.1-0.3-0.2c-0.1-0.1-0.1-0.3,0-0.4c1.4-2.1,2.1-4.6,2.1-7.2
	c0-4.5-2.2-8.7-6-11.1c-0.1-0.1-0.2-0.3-0.2-0.4c0-0.2,0.2-0.3,0.4-0.3h18.7c0.2,0,0.4,0.2,0.4,0.4v18.8
	C53.3,29.4,53.1,29.6,52.9,29.6z M38.9,28.8h13.7v-18H35.4c3.4,2.7,5.4,6.7,5.4,11.1C40.7,24.3,40.1,26.7,38.9,28.8z"/>
</svg>
