<?xml version="1.0" encoding="utf-8"?>
<!-- Generator: Adobe Illustrator 23.0.3, SVG Export Plug-In . SVG Version: 6.00 Build 0)  -->
<svg version="1.1" id="Layer_1" xmlns="http://www.w3.org/2000/svg" xmlns:xlink="http://www.w3.org/1999/xlink" x="0px" y="0px"
	 viewBox="0 0 39.1 33.9" style="enable-background:new 0 0 39.1 33.9;" xml:space="preserve">
<style type="text/css">
	.st0{fill:#3E50B4;}
</style>
<path class="st0" d="M0,29h39.1v4.9H0V29z M20.2,7.1c1.7-0.3,2.9-1.8,2.9-3.5c0-2-1.6-3.6-3.6-3.6s-3.6,1.6-3.6,3.6
	c0,1.8,1.3,3.2,2.9,3.5L9.4,20.8L0,16.9v10.6h39.1V16.9l-9.4,3.9L20.2,7.1z M1.1,25.2v-6.3l3.2,3.2L1.1,25.2z M19.5,25.2L16.3,22
	l3.2-3.2l3.2,3.2L19.5,25.2z M37.9,18.8v6.3l-3.2-3.2L37.9,18.8z M8.6,18.2L15,8.9c-1.5-2.1-4-3.5-6.7-3.5C3.7,5.4,0,9.1,0,13.7
	c0,0.3,0.1,0.6,0.1,1L8.6,18.2z M39,14.7c0-0.3,0.1-0.6,0.1-1c0-4.6-3.7-8.3-8.3-8.3c-2.8,0-5.2,1.4-6.7,3.5l6.4,9.3L39,14.7z"/>
</svg>
