<?xml version="1.0" encoding="utf-8"?>
<!-- Generator: Adobe Illustrator 23.0.3, SVG Export Plug-In . SVG Version: 6.00 Build 0)  -->
<svg version="1.1" id="Layer_1" xmlns="http://www.w3.org/2000/svg" xmlns:xlink="http://www.w3.org/1999/xlink" x="0px" y="0px"
	 viewBox="0 0 38.9 56.3" style="enable-background:new 0 0 38.9 56.3;" xml:space="preserve">
<style type="text/css">
	.st0{fill:#F3F3F3;}
	.st1{fill:#80ADE4;}
	.st2{fill:#3F3E40;}
</style>
<path id="XMLID_15694_" class="st0" d="M36.1,0.7H2.6c-1.1,0-2,0.9-2,2v40.1h37.5V2.7C38.1,1.6,37.2,0.7,36.1,0.7z M19.4,4.5
	c3.5,0,6.3,2.8,6.3,6.4c0,3.5-2.8,6.4-6.3,6.4s-6.3-2.8-6.3-6.4S15.9,4.5,19.4,4.5z M19.4,39.9c-5.5,0-10-4.5-10-10.2
	s4.5-10.2,10-10.2s10,4.5,10,10.2S24.9,39.9,19.4,39.9z"/>
<path id="XMLID_15693_" class="st1" d="M1.1,50.9c0,1.1,0.9,2,2,2h33.5c1.1,0,2-0.9,2-2v-6.3H1.1V50.9z"/>
<path class="st2" d="M36.5,0H2.4C1.1,0,0,1.1,0,2.4v40.3v0.1v2.1v6.3c0,1.3,1.1,2.4,2.4,2.4h2.3l0.7,2.5c0,0.1,0.1,0.2,0.3,0.2H9
	c0.2,0,0.3-0.1,0.5-0.3l0.7-2.4h18.6l0.7,2.5c0,0.1,0.1,0.2,0.3,0.2h3.3c0.1,0,0.3-0.1,0.3-0.3l0.7-2.4h2.3c1.3,0,2.4-1,2.4-2.4
	v-6.3v-2.1v-0.1V2.4C38.9,1.1,37.8,0,36.5,0z M8.7,55.6H5.9l-0.6-1.9h4L8.7,55.6z M32.9,55.6h-2.8l-0.6-1.9h4L32.9,55.6z M0.6,43.1
	h37.5v1.4H0.6V43.1z M0.7,2.4c0-0.9,0.8-1.7,1.7-1.7h34.1c0.9,0,1.7,0.8,1.7,1.7v40H0.6L0.7,2.4z M36.4,53h-2.5h-4.7H9.9H5H2.3
	c-0.9,0-1.7-0.8-1.7-1.7v-6.1h37.5v6.1C38.1,52.2,37.3,53,36.4,53z M19.4,17.5c3.7,0,6.8-3,6.7-6.7c0-3.7-3-6.7-6.7-6.7
	c-3.7,0-6.7,3-6.7,6.7S15.7,17.5,19.4,17.5z M19.4,4.7c3.4,0,6,2.7,6,6c0,3.3-2.7,6-6,6c-3.3,0-6-2.7-6-6
	C13.4,7.4,16.1,4.7,19.4,4.7z M19.4,14.2c1.9,0,3.5-1.5,3.5-3.5c0-1.9-1.6-3.5-3.5-3.5c-1.9,0-3.5,1.6-3.5,3.5
	C15.9,12.6,17.5,14.2,19.4,14.2z M19.4,8c1.6,0,2.8,1.2,2.8,2.8s-1.3,2.8-2.8,2.8c-1.6,0-2.8-1.3-2.8-2.8C16.6,9.2,17.9,8,19.4,8z
	 M19.4,19.1c-5.9,0-10.6,4.7-10.6,10.6c0,5.9,4.8,10.6,10.6,10.6c5.8,0,10.6-4.7,10.6-10.6C30,23.8,25.3,19.1,19.4,19.1z M19.4,39.7
	c-5.5,0-9.9-4.4-9.9-9.9s4.5-9.9,9.9-9.9c5.5,0,9.9,4.4,9.9,9.9S24.9,39.7,19.4,39.7z M19.4,22.4c-4,0-7.3,3.3-7.3,7.3
	s3.3,7.3,7.3,7.3s7.3-3.2,7.3-7.3C26.7,25.7,23.4,22.4,19.4,22.4z M19.4,36.3c-3.6,0-6.6-3-6.6-6.6c0-3.6,3-6.6,6.6-6.6
	c3.7,0,6.6,3,6.6,6.6C26,33.3,23,36.3,19.4,36.3z M15.8,26.4c0-0.3,0.2-0.5,0.5-0.5s0.5,0.2,0.5,0.5c0,0.3-0.2,0.5-0.5,0.5
	S15.8,26.7,15.8,26.4z M17.9,26.4c0-0.3,0.2-0.5,0.5-0.5c0.3,0,0.5,0.2,0.5,0.5c0,0.3-0.2,0.5-0.5,0.5
	C18.1,26.9,17.9,26.7,17.9,26.4z M20,26.4c0-0.3,0.2-0.5,0.5-0.5s0.5,0.2,0.5,0.5c0,0.3-0.2,0.5-0.5,0.5S20,26.7,20,26.4z M23,26.4
	c0,0.3-0.2,0.5-0.5,0.5S22,26.7,22,26.4c0-0.3,0.2-0.5,0.5-0.5S23,26.1,23,26.4z M14.8,28.1c0-0.3,0.2-0.5,0.5-0.5
	c0.2,0,0.5,0.2,0.5,0.5s-0.2,0.5-0.5,0.5S14.8,28.4,14.8,28.1z M17.8,28.1c0,0.3-0.2,0.5-0.5,0.5s-0.5-0.2-0.5-0.5s0.2-0.5,0.5-0.5
	S17.8,27.8,17.8,28.1z M19.9,28.1c0,0.3-0.2,0.5-0.5,0.5c-0.3,0-0.5-0.2-0.5-0.5s0.2-0.5,0.5-0.5C19.7,27.6,19.9,27.8,19.9,28.1z
	 M21,28.1c0-0.3,0.2-0.5,0.5-0.5s0.5,0.2,0.5,0.5s-0.2,0.5-0.5,0.5S21,28.4,21,28.1z M24.1,28.1c0,0.3-0.2,0.5-0.5,0.5
	c-0.3,0-0.5-0.2-0.5-0.5s0.2-0.5,0.5-0.5C23.8,27.6,24.1,27.8,24.1,28.1z M16.8,29.7c0,0.3-0.2,0.5-0.5,0.5s-0.5-0.2-0.5-0.5
	c0-0.3,0.2-0.5,0.5-0.5C16.6,29.3,16.8,29.5,16.8,29.7z M14.8,29.7c0,0.3-0.2,0.5-0.5,0.5s-0.5-0.2-0.5-0.5c0-0.3,0.2-0.5,0.5-0.5
	S14.8,29.5,14.8,29.7z M17.9,29.7c0-0.3,0.2-0.5,0.5-0.5c0.3,0.1,0.5,0.3,0.5,0.5c0,0.3-0.2,0.5-0.5,0.5
	C18.1,30.2,17.9,30,17.9,29.7z M20,29.7c0-0.3,0.2-0.5,0.5-0.5c0.3,0.1,0.5,0.3,0.5,0.5c0,0.3-0.2,0.5-0.5,0.5S20,30,20,29.7z
	 M23,29.7c0,0.3-0.2,0.5-0.5,0.5S22,30,22,29.7c0-0.3,0.2-0.5,0.5-0.5C22.8,29.3,23,29.5,23,29.7z M24,29.7c0-0.3,0.2-0.5,0.5-0.5
	s0.5,0.3,0.5,0.5c0,0.3-0.2,0.5-0.5,0.5S24,30,24,29.7z M15.8,31.4c0,0.3-0.2,0.5-0.5,0.5s-0.5-0.2-0.5-0.5c0-0.3,0.2-0.5,0.5-0.5
	C15.5,30.9,15.8,31.1,15.8,31.4z M17.8,31.4c0,0.3-0.2,0.5-0.5,0.5s-0.5-0.2-0.5-0.5c0-0.3,0.2-0.5,0.5-0.5S17.8,31.1,17.8,31.4z
	 M19.9,31.4c0,0.3-0.2,0.5-0.5,0.5c-0.3,0-0.5-0.2-0.5-0.5c0-0.3,0.2-0.5,0.5-0.5C19.7,30.9,19.9,31.1,19.9,31.4z M22,31.4
	c0,0.3-0.2,0.5-0.5,0.5S21,31.7,21,31.4c0-0.3,0.2-0.5,0.5-0.5S22,31.1,22,31.4z M24.1,31.4c0,0.3-0.2,0.5-0.5,0.5
	c-0.3,0-0.5-0.2-0.5-0.5c0-0.3,0.2-0.5,0.5-0.5C23.8,30.9,24.1,31.1,24.1,31.4z M16.8,33.1c0,0.3-0.2,0.5-0.5,0.5s-0.5-0.2-0.5-0.5
	s0.2-0.5,0.5-0.5S16.8,32.8,16.8,33.1z M18.9,33.1c0,0.3-0.2,0.5-0.5,0.5c-0.3,0-0.5-0.2-0.5-0.5s0.2-0.5,0.5-0.5
	C18.7,32.6,18.9,32.8,18.9,33.1z M21,33.1c0,0.3-0.2,0.5-0.5,0.5S20,33.4,20,33.1s0.2-0.5,0.5-0.5S21,32.8,21,33.1z M23,33.1
	c0,0.3-0.2,0.5-0.5,0.5S22,33.4,22,33.1s0.2-0.5,0.5-0.5S23,32.8,23,33.1z M33,46.8c-1.2,0-2.3,1-2.3,2.3c0,1.2,1,2.3,2.3,2.3
	s2.3-1.1,2.3-2.3S34.3,46.8,33,46.8z M33,50.7c-1,0-1.7-0.8-1.7-1.7c0-1,0.8-1.7,1.7-1.7s1.6,0.8,1.7,1.7C34.7,50,33.9,50.7,33,50.7
	z"/>
</svg>
