<?xml version="1.0" encoding="utf-8"?>
<!-- Generator: Adobe Illustrator 23.0.3, SVG Export Plug-In . SVG Version: 6.00 Build 0)  -->
<svg version="1.1" id="Layer_1" xmlns="http://www.w3.org/2000/svg" xmlns:xlink="http://www.w3.org/1999/xlink" x="0px" y="0px"
	 viewBox="0 0 52.6 53.3" style="enable-background:new 0 0 52.6 53.3;" xml:space="preserve">
<style type="text/css">
	.st0{fill:#4ACFD9;}
	.st1{fill:#0295AA;}
	.st2{fill:#E6EAEA;}
	.st3{fill:#CDD4D5;}
	.st4{fill:#9BAAAB;}
	.st5{fill:#FD6A33;}
	.st6{fill:#F0353D;}
	.st7{fill:#365558;}
	.st8{fill:#687F82;}
</style>
<path class="st0" d="M20.7,11.9C9.3,11.9,0,21.2,0,32.6s9.3,20.7,20.7,20.7S41.4,44,41.4,32.6S32.1,11.9,20.7,11.9z"/>
<path class="st1" d="M0,32.6C0,44,9.3,53.3,20.7,53.3V11.9C9.3,11.9,0,21.2,0,32.6z"/>
<path class="st2" d="M20.7,18.1c-8,0-14.5,6.5-14.5,14.5s6.5,14.6,14.5,14.6s14.5-6.5,14.5-14.5S28.7,18.1,20.7,18.1z"/>
<g>
	<path class="st3" d="M6.2,32.6c0,8,6.5,14.5,14.5,14.5v-29C12.7,18.1,6.2,24.6,6.2,32.6z"/>
	<path class="st3" d="M20.7,23.5c-5.1,0-9.2,4.1-9.2,9.2s4.1,9.2,9.2,9.2s9.2-4.1,9.2-9.2S25.8,23.5,20.7,23.5z"/>
</g>
<path class="st4" d="M11.5,32.6c0,5.1,4.1,9.2,9.2,9.2V23.5C15.7,23.5,11.5,27.6,11.5,32.6z"/>
<path class="st5" d="M20.7,27.4c-2.9,0-5.2,2.3-5.2,5.2s2.3,5.2,5.2,5.2s5.2-2.3,5.2-5.2S23.6,27.4,20.7,27.4z"/>
<path class="st6" d="M15.5,32.6c0,2.9,2.3,5.2,5.2,5.2V27.4C17.8,27.4,15.5,29.8,15.5,32.6z"/>
<path class="st7" d="M21,32.5c-0.2,0-0.4-0.1-0.6-0.2c-0.3-0.3-0.3-0.8,0-1.2l19.5-19.5c0.3-0.3,0.8-0.3,1.2,0
	c0.3,0.3,0.3,0.8,0,1.2L21.6,32.2C21.4,32.4,21.2,32.5,21,32.5z"/>
<path class="st2" d="M41.4,0.9c0-0.3-0.2-0.6-0.5-0.8C40.6,0,40.2,0,40,0.3L28.5,11.8c-0.2,0.2-0.2,0.4-0.2,0.6v11.2l0,0
	c0,0,0,0,0,0.1c0,0,0,0,0,0.1c0,0,0,0,0,0.1c0,0,0,0,0,0.1l0,0l0,0c0,0,0,0,0,0.1c0,0,0,0,0,0.1l0,0l0,0l0,0l13.1-13V0.9L41.4,0.9z"
	/>
<path class="st4" d="M52.5,11.7c-0.1-0.3-0.4-0.5-0.8-0.5H41.4L28.5,24.1l0,0l0,0l0,0c0,0,0,0,0.1,0c0,0,0,0,0.1,0l0,0
	c0,0,0,0,0.1,0l0,0h0.1l0,0H29l0,0l0,0h11.2c0.2,0,0.4-0.1,0.6-0.2l11.5-11.5C52.6,12.4,52.7,12.1,52.5,11.7z"/>
<path class="st8" d="M34.1,18.5c0.1,0.1,0.4,0.2,0.6,0.2h11.5l1.6-1.6H35.5L34.1,18.5z"/>
<path class="st4" d="M35.5,4.8l-1.6,1.6v11.5c0,0.2,0.1,0.4,0.2,0.6l1.4-1.4L35.5,4.8L35.5,4.8z"/>
</svg>
