<?xml version="1.0" encoding="utf-8"?>
<!-- Generator: Adobe Illustrator 23.0.3, SVG Export Plug-In . SVG Version: 6.00 Build 0)  -->
<svg version="1.1" id="Layer_1" xmlns="http://www.w3.org/2000/svg" xmlns:xlink="http://www.w3.org/1999/xlink" x="0px" y="0px"
	 viewBox="0 0 28.5 48" style="enable-background:new 0 0 28.5 48;" xml:space="preserve">
<style type="text/css">
	.st0{fill:#3E50B4;}
</style>
<path class="st0" d="M3,45.7h7.5V48H3V45.7z M18,45.7h7.5V48H18V45.7z M3,15h22.5c1.7,0,3-1.3,3-3V3c0-1.7-1.3-3-3-3H3
	C1.3,0,0,1.3,0,3v9C0,13.7,1.3,15,3,15z M3,4.5c0-0.4,0.3-0.7,0.7-0.7s0.7,0.3,0.7,0.7v5.3c0,0.4-0.3,0.7-0.7,0.7S3,10.2,3,9.8V4.5z
	 M3,44.3h22.5c1.7,0,3-1.3,3-3v-21c0-1.7-1.3-3-3-3H3c-1.7,0-3,1.3-3,3v21C0,42.9,1.3,44.3,3,44.3z M3,20.3c0-0.4,0.3-0.7,0.7-0.7
	s0.7,0.3,0.7,0.7v5.3c0,0.4-0.3,0.7-0.7,0.7S3,26,3,25.6V20.3z"/>
</svg>
