<?xml version="1.0" encoding="utf-8"?>
<!-- Generator: Adobe Illustrator 23.0.3, SVG Export Plug-In . SVG Version: 6.00 Build 0)  -->
<svg version="1.1" id="Layer_1" xmlns="http://www.w3.org/2000/svg" xmlns:xlink="http://www.w3.org/1999/xlink" x="0px" y="0px"
	 viewBox="0 0 47.6 48.1" style="enable-background:new 0 0 47.6 48.1;" xml:space="preserve">
<style type="text/css">
	.st0{fill:#FFFFFF;}
	.st1{fill:#F8D920;}
	.st2{fill:#82AE72;}
	.st3{fill:#32383F;}
</style>
<g id="XMLID_17008_">
	<path id="XMLID_17010_" class="st0" d="M8,42.3h31.4c4.8-3.8,7.8-9.9,7.8-18.6c0-12.9-10.5-23.4-23.4-23.4S0.3,10.8,0.3,23.7
		C0.3,32.5,3.3,38.5,8,42.3z"/>
</g>
<g id="XMLID_17006_">
	<path id="XMLID_17007_" class="st1" d="M41.6,47.5H6.2c-0.6,0-1-0.7-0.6-1.3L8,42.9c0.1-0.2,0.4-0.3,0.6-0.3h30.5
		c0.3,0,0.5,0.1,0.6,0.3l2.4,3.3C42.6,46.7,42.2,47.5,41.6,47.5z"/>
</g>
<path class="st2" d="M40.5,36.9l-6.5-8h5.1l-6.5-8h4.9L27.9,9l-9.7,11.9h5.1l-6.6,8h5.1L15.3,37L40.5,36.9z M31.7,19.1
	c0,1.1-0.9,2-2,2c-1.1,0-2-0.9-2-2s0.9-2,2-2C30.8,17.1,31.7,18,31.7,19.1z M27.9,25.7c0,1.1-0.9,2-2,2c-1.1,0-2-0.9-2-2
	c0-1.1,0.9-2,2-2C27,23.7,27.9,24.6,27.9,25.7z M27.1,38.4h3.8v3.8h-3.8V38.4z M16.4,29.5l6.3-7.7l-4.6-0.3l2.4-3.1l-1-1.1l-7.1,8.8
	h3.7L11.3,32H15l-4.8,6l4.4-0.1l6.4-8.1L16.4,29.5z M20.6,24.6l-1.2,1.7c-0.8,0-1.4-0.6-1.4-1.4s0.6-1.4,1.4-1.4
	C20.2,23.5,20.7,24.1,20.6,24.6z M15.1,29.1c-0.8,0-1.4,0.6-1.4,1.4c0,0.8,0.6,1.4,1.4,1.4c0.8,0,1.4-0.6,1.4-1.4
	C16.5,29.7,15.8,29,15.1,29.1z M17.2,39.6h3v2.6h-3V39.6z"/>
<path class="st3" d="M47.2,19.9c-0.9-5.7-4-11-8.4-14.6C34.2,1.6,28.5-0.3,22.6,0C16.7,0.3,11.2,2.7,7,6.9C2.9,11,0.4,16.5,0,22.3
	c-0.2,4,0.1,11.6,4.9,17.5c0.7,0.9,1.5,1.7,2.5,2.5c-0.1,0.1-0.2,0.3-0.3,0.4l-1.5,2.1c-0.1,0.1-0.1,0.2-0.2,0.3
	c-0.3,0.4-0.7,0.9-0.6,1.4c0.1,1.1,1.1,1.1,1.8,1.1h34.7h0.1c0.4-0.1,0.8-0.3,1-0.7c0.2-0.4,0.1-0.9-0.2-1.3s-0.6-0.8-0.9-1.2
	c-0.1-0.2-0.3-0.4-0.4-0.6c-0.1-0.2-0.2-0.3-0.3-0.5c-0.2-0.3-0.4-0.6-0.6-0.9c0.4-0.3,0.9-0.7,1.2-1.1l0.1-0.1
	c0.9-0.9,1.8-2,2.5-3.1c1.6-2.4,2.7-5.2,3.3-8.4C47.6,26.3,47.7,23,47.2,19.9z M16.5,39.2H19v2.5h-2.5V39.2z M19.8,39.2h5.1v-0.8H9
	l4.2-5.1l0.1-0.1c0.1-0.1,0.1-0.3,0.1-0.5c-0.1-0.1-0.2-0.2-0.3-0.2H13h-2.7l4.2-5.2l0.1-0.1c0.1-0.1,0.1-0.3,0.1-0.5
	c-0.1-0.1-0.2-0.2-0.3-0.2h-0.1h-2.7l6.3-7.8l0.9,1.1l-1.3,1.5l-0.1,0.1c-0.1,0.1-0.1,0.3-0.1,0.5c0.1,0.1,0.2,0.2,0.3,0.2h0.1h2.5
	L21,23l-0.9,1.1c-0.3-0.3-0.8-0.6-1.3-0.6c-1,0-1.8,0.8-1.8,1.8c0,0.7,0.3,1.2,0.9,1.5l-2.1,2.5l-0.1,0.1c0,0,0,0,0,0
	C15.4,29.2,15,29,14.5,29c-1,0-1.8,0.8-1.8,1.8s0.8,1.8,1.8,1.8c0.9,0,1.7-0.8,1.8-1.6v-0.1v-0.1c0-0.3-0.1-0.5-0.2-0.7h4l-5.6,7.3
	l-0.1,0.1c-0.1,0.1-0.1,0.3-0.1,0.5c0.1,0.1,0.2,0.2,0.3,0.2h0.1h10.5v3.6h-5.4V39.2z M31.8,22l0.1,0.1l5.9,7.2h-4h-0.1
	c-0.2,0-0.3,0.1-0.4,0.2c-0.1,0.1,0,0.3,0.1,0.5l0.1,0.1l5.9,7.2H15.8l5.6-7.2c0.2-0.2,0.2-0.4,0.2-0.6c-0.1-0.1-0.2-0.2-0.3-0.2
	h-0.1h-4.1l5.9-7.2l0.1-0.1c0.1-0.1,0.1-0.3,0.1-0.5c-0.1-0.1-0.2-0.2-0.3-0.2h-0.1h-4l8.8-10.9l7.9,10.1l0.6,0.8h-4H32
	c-0.2,0-0.3,0.1-0.3,0.2C31.6,21.6,31.7,21.8,31.8,22z M8.5,42.7c0.2,0,0.3,0,0.5,0s0.3,0,0.5,0s0.3,0,0.5,0h27.3c0.2,0,0.4,0,0.6,0
	c0.4,0,0.8,0,1.1,0c0,0,0.1,0,0.1,0c0.2,0.1,0.3,0.2,0.5,0.4c0,0,0,0,0,0l0.1,0.1c0.1,0.1,0.2,0.3,0.3,0.4H7.6
	c0-0.1,0.1-0.1,0.1-0.2C7.9,43.1,8.2,42.7,8.5,42.7z M6.4,46.8c-0.2,0-0.3,0-0.4,0s-0.3-0.1-0.4-0.2c-0.1-0.2,0.1-0.5,0.4-0.9
	l0.1-0.1h35.3c0.1,0.1,0.1,0.2,0.2,0.3c0.2,0.3,0.3,0.6,0.2,0.8c-0.1,0-0.2,0.1-0.3,0.1C41.4,46.8,6.4,46.8,6.4,46.8z M41,45.2H6.4
	L7.3,44h33c0.1,0.2,0.3,0.4,0.4,0.6L41,45.2z M5.4,45.4C5.2,45.7,5,46,4.9,46.3C4.9,46,5.2,45.7,5.4,45.4
	C5.4,45.4,5.4,45.4,5.4,45.4z M25.7,41.8v-3.6h3.9v3.6H25.7z M17.8,25.4c0-0.7,0.5-1,1-1c0.3,0,0.5,0.1,0.8,0.3l-1.3,1.5
	C18,26.1,17.8,25.8,17.8,25.4z M21.5,22.4l-0.2-0.3h0.5L21.5,22.4z M14.4,29.7c0.5,0,1.1,0.4,1.1,1c-0.1,0.7-0.6,1-1.1,1s-1-0.3-1-1
	C13.4,30,13.9,29.7,14.4,29.7z M7.6,42.4C7.6,42.4,7.6,42.4,7.6,42.4c-0.1,0.1-0.3,0.3-0.4,0.5C7.3,42.7,7.5,42.6,7.6,42.4z M5.7,45
	c0,0.1-0.1,0.1-0.1,0.2C5.6,45.1,5.6,45.1,5.7,45z M46.5,26.3c-0.2,3.4-1,6.4-2.3,9.1c-1.2,2.5-2.8,4.6-4.8,6.3
	c-0.1,0.1-0.1,0.1-0.2,0.2c-0.1,0-0.3-0.1-0.4-0.1c-1.4,0-2.8,0-4.2,0c-0.7,0-1.4,0-2.1,0h-2.3v-3.6h9.5h0.1h0.1
	c0.2-0.1,0.2-0.2,0.2-0.4c0.2-0.2,0.2-0.3,0.1-0.3l-6-7.3h4h0.3c0.2,0,0.3-0.1,0.3-0.2c0.1-0.1,0-0.3-0.1-0.5l-0.1-0.1l-5.9-7.2h4
	h0.1c0.2,0,0.3-0.1,0.4-0.2c0.1-0.1,0-0.3-0.1-0.5L37,21.4L27.5,9.7c-0.1-0.2-0.5-0.2-0.6,0l-7.6,9.4l-1.1-1.3
	c-0.1-0.2-0.5-0.2-0.6,0l-7,8.7l-0.1,0.1c-0.1,0.1-0.1,0.3-0.1,0.5c0.1,0.1,0.2,0.2,0.3,0.2h2.5L9,32.5l-0.1,0.1
	c-0.1,0.1-0.1,0.3-0.1,0.5c0.1,0.1,0.2,0.2,0.3,0.2h0.1h2.7l-4.2,5.1l-0.1,0.1c-0.1,0.1-0.1,0.3-0.1,0.5c0.1,0.1,0.2,0.2,0.3,0.2
	h0.1h7.8v2.6H8.9H8.7c-0.1,0-0.2,0-0.3,0c-0.1,0-0.2,0-0.3,0.1C2.9,37.6,1.3,31.4,0.9,27c-0.3-3.4-0.1-6.5,0.6-9.2s2-5.3,3.6-7.6
	c3.3-4.5,8.3-7.8,13.8-8.9c5.7-1.2,11.8-0.1,16.7,2.9c4.8,2.9,8.4,7.7,10,13C46.4,20,46.7,23,46.5,26.3z M29.3,17.1
	c-1.3,0-2.4,1.1-2.4,2.4c0,0.7,0.2,1.2,0.7,1.7c0.4,0.5,1,0.7,1.6,0.7c1.3,0,2.3-1,2.4-2.3c0-0.1,0-0.1,0-0.1c0-0.1,0-0.1,0-0.1
	C31.6,18.1,30.6,17.1,29.3,17.1z M29.2,18c0.9,0,1.5,0.7,1.6,1.6c-0.1,0.9-0.8,1.6-1.6,1.6c-0.9,0-1.6-0.8-1.6-1.6
	C27.6,18.7,28.4,18,29.2,18z M29.1,17.9C29.2,17.9,29.2,17.9,29.1,17.9c1,0,1.6,0.6,1.7,1.4C30.7,18.5,30,17.9,29.1,17.9z
	 M25.4,23.8c-1.3,0-2.4,1.1-2.4,2.4c0,0.6,0.2,1.2,0.7,1.7c0.4,0.4,1,0.7,1.6,0.7c1.3,0,2.3-1,2.3-2.3c0.2-0.1,0.2-0.1,0.2-0.2
	C27.7,24.8,26.7,23.8,25.4,23.8z M25.4,27.9C25.4,27.9,25.4,27.9,25.4,27.9c0.8,0,1.5-0.6,1.7-1.4C27,27.3,26.3,27.9,25.4,27.9z
	 M23.8,26.2c0-0.8,0.7-1.6,1.6-1.6c0.9,0,1.5,0.7,1.6,1.6c0,0.9-0.7,1.6-1.6,1.6C24.6,27.8,23.8,27.1,23.8,26.2z M7.6,24.8
	c-0.4-0.1-0.8,0.1-1.1,0.3s-0.5,0.6-0.6,1c-0.1,0.6,0.2,1.1,0.6,1.4c0.2,0.1,0.4,0.2,0.7,0.3c0.8,0.1,1.6-0.5,1.7-1.3
	C9,25.7,8.4,24.9,7.6,24.8z M8.1,26.7C7.9,26.9,7.7,27,7.4,27c-0.4-0.1-0.7-0.4-0.6-0.8c0.1-0.4,0.4-0.7,0.8-0.6
	c0.2,0,0.4,0.1,0.5,0.3c0,0.1,0.1,0.3,0.1,0.5C8.2,26.5,8.1,26.6,8.1,26.7z M9.9,12.2c-0.4-0.1-0.8,0.1-1.1,0.3
	c-0.3,0.2-0.6,0.6-0.6,1c-0.1,0.6,0.2,1.1,0.6,1.4C9,15,9.2,15.1,9.5,15.2c0.8,0.1,1.6-0.5,1.7-1.3C11.3,13.1,10.7,12.3,9.9,12.2z
	 M10.3,14.1c-0.2,0.2-0.4,0.3-0.7,0.3C9.2,14.3,8.9,14,9,13.6s0.4-0.7,0.8-0.6c0.2,0,0.4,0.1,0.5,0.3c0.1,0.1,0.1,0.3,0.1,0.5
	C10.4,13.9,10.3,14,10.3,14.1z M21.7,12.3c-0.4-0.1-0.7,0-1,0.3c-0.3,0.2-0.5,0.6-0.5,0.9c-0.1,0.5,0.1,1,0.5,1.3
	c0.2,0.1,0.4,0.2,0.6,0.3c0.8,0.1,1.4-0.4,1.6-1.2C23,13.1,22.5,12.5,21.7,12.3z M22.1,14.1c-0.1,0.2-0.4,0.3-0.6,0.2
	c-0.4-0.1-0.6-0.4-0.6-0.7c0.1-0.4,0.4-0.6,0.7-0.6c0.2,0,0.3,0.1,0.4,0.2c0.1,0.3,0.2,0.4,0.2,0.6C22.2,13.9,22.1,14,22.1,14.1z
	 M42.4,28.4c-0.4-0.1-0.7,0-1,0.3c-0.3,0.2-0.5,0.5-0.5,0.9c-0.1,0.5,0.1,1,0.5,1.3c0.2,0.1,0.4,0.2,0.6,0.3
	c0.8,0.1,1.4-0.4,1.6-1.2C43.7,29.2,43.2,28.6,42.4,28.4z M42.8,30.2c-0.1,0.2-0.4,0.3-0.6,0.2c-0.4-0.1-0.6-0.4-0.6-0.7
	c0.1-0.4,0.4-0.6,0.7-0.6c0.2,0,0.3,0.1,0.4,0.2c0.2,0.2,0.2,0.4,0.2,0.6C42.9,30,42.8,30.1,42.8,30.2z"/>
</svg>
