<?xml version="1.0" encoding="utf-8"?>
<!-- Generator: Adobe Illustrator 23.0.3, SVG Export Plug-In . SVG Version: 6.00 Build 0)  -->
<svg version="1.1" id="Layer_1" xmlns="http://www.w3.org/2000/svg" xmlns:xlink="http://www.w3.org/1999/xlink" x="0px" y="0px"
	 viewBox="0 0 31 41.3" style="enable-background:new 0 0 31 41.3;" xml:space="preserve">
<style type="text/css">
	.st0{fill:#3E50B4;}
</style>
<path class="st0" d="M30.3,12.3c-0.7-1.4-2-2.6-3.5-3.1L4,0.2c-1.4-0.6-3,0-3.7,1.4S0.1,4.7,1.5,5.5l20.8,11v22.1
	c0,1.5,1.2,2.7,2.7,2.7c1.4,0,2.5-1,2.7-2.4L30.8,16C31.1,14.8,30.9,13.5,30.3,12.3z M5.6,5.7L2.4,4C1.8,3.7,1.6,3,1.9,2.4
	s1-0.8,1.6-0.6l3.2,1.3L5.6,5.7z M26.1,38.7c-0.1,0.5-0.5,0.9-1,0.9c-0.6,0-1-0.4-1-1v-4.2h2.6L26.1,38.7z"/>
</svg>
