<?xml version="1.0" encoding="utf-8"?>
<!-- Generator: Adobe Illustrator 23.0.3, SVG Export Plug-In . SVG Version: 6.00 Build 0)  -->
<svg version="1.1" id="Layer_1" xmlns="http://www.w3.org/2000/svg" xmlns:xlink="http://www.w3.org/1999/xlink" x="0px" y="0px"
	 viewBox="0 0 62.2 60.4" style="enable-background:new 0 0 62.2 60.4;" xml:space="preserve">
<style type="text/css">
	.st0{fill:#707070;}
	.st1{fill:#3F3E40;}
	.st2{fill:#1F191A;}
</style>
<path class="st0" d="M7,27h4.4v30.5H7V27z M0.6,57.5H5V27H0.6V57.5z M58.5,59.6c-2.2,0.9-4.7-0.4-5.9-2.4l-3.2-6.4h-1.5
	c0.1-0.2,0.1-0.5,0.1-0.7c0-1.5-1.2-2.7-2.7-2.7s-2.7,1.2-2.7,2.7c0,0.3,0,0.5,0.1,0.7h-4.6c0.1-0.2,0.1-0.5,0.1-0.7
	c0-1.5-1.2-2.7-2.7-2.7s-2.7,1.2-2.7,2.7c0,0.3,0,0.5,0.1,0.7h-1.5l-3.2,6.4c-1.1,2-3.6,3.3-5.9,2.4c-2.3-0.9-3.3-3.5-2.4-5.7
	c0,0,3.6-13.2,4-13.8c1.1-2,3.3-3.4,5.8-3.4c1.7,0,3.1,0.5,4.3,1.5h1.4v6.7h10.2v-6.7H47c1.2-0.9,2.7-1.5,4.3-1.5
	c2.5,0,4.6,1.4,5.8,3.4c0.4,0.6,4,13.8,4,13.8C62,56.2,60.7,58.7,58.5,59.6z M34.3,43.5c0-2.5-2.1-4.6-4.6-4.6s-4.6,2-4.6,4.6
	c0,2.5,2.1,4.6,4.6,4.6S34.3,46,34.3,43.5z M55.9,43.5c0-2.5-2.1-4.6-4.6-4.6s-4.6,2-4.6,4.6c0,2.5,2.1,4.6,4.6,4.6
	S55.9,46,55.9,43.5z M51.5,39.8c-0.6,0-1.1,0.5-1.1,1.1c0,0.6,0.5,1.1,1.1,1.1c0.6,0,1.1-0.5,1.1-1.1C52.6,40.3,52.1,39.8,51.5,39.8
	z M48.9,42.3c-0.6,0-1.1,0.6-1.1,1.1c0,0.6,0.5,1.1,1.1,1.1c0.6,0,1.1-0.5,1.1-1.1S49.5,42.3,48.9,42.3z M51.4,45
	c-0.6,0-1.1,0.5-1.1,1.1c0,0.6,0.6,1.1,1.1,1.1c0.6,0,1.1-0.5,1.1-1.1C52.5,45.5,52,45,51.4,45z M53,43.5c0,0.6,0.5,1.1,1.1,1.1
	c0.6,0,1.1-0.5,1.1-1.1c0-0.6-0.5-1.1-1.1-1.1C53.5,42.4,53,42.9,53,43.5z M29.4,39.8c-0.6,0-1.1,0.5-1.1,1.1c0,0.6,0.5,1.1,1.1,1.1
	c0.6,0,1.1-0.5,1.1-1.1C30.5,40.3,30,39.8,29.4,39.8z M26.8,42.3c-0.7,0-1.2,0.6-1.1,1.1c0,0.6,0.5,1.1,1.1,1.1
	c0.6,0,1.1-0.5,1.1-1.1S27.4,42.3,26.8,42.3z M29.3,45c-0.6,0-1.1,0.5-1.1,1.1c0,0.6,0.5,1.1,1.1,1.1c0.6,0,1.1-0.5,1.1-1.1
	C30.4,45.5,29.9,45,29.3,45z M31.9,42.4c-0.6,0-1.1,0.5-1.1,1.1c0,0.6,0.5,1.1,1.1,1.1c0.7,0,1.2-0.5,1.1-1.1
	C33,42.9,32.5,42.4,31.9,42.4z M35.3,49.1c-0.8,0-1.4,0.6-1.4,1.4c0,0.8,0.6,1.4,1.4,1.4s1.4-0.6,1.4-1.4
	C36.7,49.8,36,49.1,35.3,49.1z M45.2,49.1c-0.8,0-1.4,0.6-1.4,1.4c0,0.8,0.6,1.4,1.4,1.4s1.4-0.6,1.4-1.4
	C46.6,49.8,45.9,49.1,45.2,49.1z"/>
<path class="st1" d="M7,0.9h4.4v24.7H7V0.9z M0.6,25.6H5V0.9H0.6V25.6z M35.8,38.9v5.7H45v-5.7H35.8z"/>
<path class="st2" d="M11.1,0H6.6C6.4,0,6.3,0.2,6.3,0.3v1.2H5.1V0.3C5.1,0.1,4.9,0,4.8,0H0.3C0.1,0,0,0.2,0,0.3v25.2V58
	c0,0.2,0.2,0.3,0.3,0.3h1v1.8c0,0.2,0.2,0.3,0.3,0.3h8.1c0.2,0,0.3-0.2,0.3-0.3v-1.8h1.1c0.1,0,0.2-0.1,0.3-0.2V25.5V0.3
	C11.4,0.1,11.2,0,11.1,0z M10.8,0.5v24.8H6.9V1.8c0-0.1,0-0.2-0.1-0.2V0.5H10.8z M5.1,57.7v-1h1.2v1H5.1z M6.3,2.1v23.4v30.7H5.1
	V25.5V2.1H6.3z M0.6,0.5h4v1.1C4.5,1.7,4.5,1.7,4.5,1.8v23.5H0.6C0.6,13.1,0.6,0.5,0.6,0.5z M0.6,25.8h3.9v30.6c0,0.1,0,0.2,0.1,0.2
	v1.1h-3c-0.1,0-0.2,0-0.2,0.1H0.6C0.6,57.8,0.6,41.6,0.6,25.8z M9.5,59.8H1.9v-1.5h2.9c0.1,0,0.2,0,0.2-0.1h1.3
	c0.1,0.1,0.2,0.1,0.2,0.1h2.9V59.8z M9.9,57.8c-0.1-0.1-0.2-0.1-0.2-0.1H6.8v-1.1c0,0,0.1-0.1,0.1-0.2V25.8h3.9v32H9.9z M29.4,38.3
	c-2.8,0-5,2.3-5,5c0,2.8,2.3,5,5,5c2.8,0,5-2.3,5-5C34.4,40.5,32.2,38.3,29.4,38.3z M29.4,47.6c-2.4,0-4.4-1.9-4.4-4.4
	c0-2.4,1.9-4.4,4.4-4.4s4.5,2,4.4,4.4C33.8,45.6,31.8,47.6,29.4,47.6z M51.5,38.3c-2.8,0-5,2.3-5,5c0,2.8,2.3,5,5,5s5-2.3,5-5
	C56.5,40.5,54.2,38.3,51.5,38.3z M51.5,47.6c-2.4,0-4.4-1.9-4.4-4.4c0-2.4,1.9-4.4,4.4-4.4s4.4,2,4.4,4.4
	C55.9,45.6,54,47.6,51.5,47.6z M51.5,42.1c0.8,0,1.4-0.7,1.4-1.4c0-0.8-0.6-1.4-1.4-1.4s-1.4,0.6-1.4,1.4S50.7,42.1,51.5,42.1z
	 M51.5,39.7c0.5,0,0.9,0.4,0.9,0.9s-0.4,0.9-0.9,0.9s-0.9-0.4-0.9-0.9S51,39.7,51.5,39.7z M48.9,41.9c-0.8,0-1.4,0.6-1.4,1.4
	c0,0.8,0.6,1.4,1.4,1.4c0.7,0,1.4-0.6,1.4-1.4C50.3,42.5,49.7,41.9,48.9,41.9z M48.9,44.2c-0.5,0-0.9-0.4-0.9-0.9s0.4-0.9,0.9-0.9
	s0.9,0.4,0.9,0.9S49.4,44.2,48.9,44.2z M51.5,44.6c-0.8,0-1.4,0.6-1.4,1.4c0,0.8,0.6,1.4,1.4,1.4s1.4-0.7,1.4-1.4
	C52.9,45.2,52.3,44.6,51.5,44.6z M51.5,46.8c-0.5,0-0.9-0.4-0.9-0.9S51,45,51.5,45s0.9,0.4,0.9,0.9S52,46.8,51.5,46.8z M52.7,43.3
	c0,0.8,0.6,1.4,1.4,1.4c0.8,0,1.5-0.6,1.4-1.4c0-0.8-0.6-1.4-1.4-1.4C53.3,41.9,52.7,42.5,52.7,43.3z M55,43.3
	c0,0.5-0.4,0.9-0.9,0.9s-0.9-0.4-0.9-0.9s0.4-0.9,0.9-0.9S55.1,42.8,55,43.3z M29.4,42.1c0.8,0,1.5-0.7,1.4-1.4
	c0-0.8-0.6-1.4-1.4-1.4c-0.8,0-1.4,0.6-1.4,1.4S28.6,42.1,29.4,42.1z M29.4,39.7c0.5,0,0.9,0.4,0.9,0.9s-0.4,0.9-0.9,0.9
	s-0.9-0.4-0.9-0.9S28.9,39.7,29.4,39.7z M26.8,41.9c-0.8,0-1.4,0.6-1.4,1.4c0,0.8,0.6,1.4,1.4,1.4s1.4-0.6,1.4-1.4
	C28.2,42.5,27.6,41.9,26.8,41.9z M26.8,44.2c-0.5,0-0.9-0.4-0.9-0.9s0.4-0.9,0.9-0.9s0.9,0.4,0.9,0.9S27.3,44.2,26.8,44.2z
	 M29.4,44.6c-0.8,0-1.4,0.6-1.4,1.4c0,0.8,0.6,1.4,1.4,1.4c0.8,0,1.5-0.7,1.4-1.4C30.8,45.2,30.2,44.6,29.4,44.6z M29.4,46.8
	c-0.5,0-0.9-0.4-0.9-0.9s0.4-0.9,0.9-0.9s1,0.4,0.9,0.9C30.3,46.4,29.9,46.8,29.4,46.8z M30.7,43.3c0,0.8,0.6,1.4,1.4,1.4
	c0.8,0,1.4-0.6,1.4-1.4c0-0.8-0.6-1.4-1.4-1.4C31.3,41.9,30.7,42.5,30.7,43.3z M33,43.3c0,0.5-0.4,0.9-0.9,0.9s-0.9-0.4-0.9-0.9
	s0.4-0.9,0.9-0.9S33,42.8,33,43.3z M35.5,48c-1.1,0-2,0.9-2,2c0,1.1,0.9,2,2,2s2-0.9,2-2C37.5,48.9,36.6,48,35.5,48z M35.5,51.5
	c-0.8,0-1.5-0.7-1.5-1.5c0-0.8,0.7-1.5,1.5-1.5s1.4,0.7,1.5,1.5C37,50.8,36.3,51.5,35.5,51.5z M45.5,48c-1.1,0-2,0.9-2,2
	c0,1.1,0.9,2,2,2s2-0.9,2-2C47.5,48.9,46.6,48,45.5,48z M45.5,51.5c-0.8,0-1.5-0.7-1.5-1.5c0-0.8,0.7-1.5,1.5-1.5S47,49.2,47,50
	C47,50.8,46.3,51.5,45.5,51.5z M61.8,53.9c-0.4-1.5-3.7-13.5-4.1-14.1c-1.3-2.2-3.7-3.6-6.2-3.6c-1.6,0-3.1,0.6-4.4,1.6h-1.4
	c-0.1-0.1-0.2-0.1-0.2-0.1h-10c-0.1,0-0.2,0-0.2,0.1h-1c-1.2-1-2.8-1.6-4.4-1.6c-2.6,0-4.9,1.4-6.2,3.6c-0.4,0.7-3.7,12.7-4.1,14.1
	c-1,2.4,0.2,5.2,2.6,6.2c0.5,0.2,1,0.3,1.6,0.3c1.8,0,3.7-1.2,4.7-2.9l3.2-6.4h1c0.3,0.7,0.8,1.2,1.5,1.6c0.4,0.3,1,0.4,1.5,0.4
	c1.2,0,2.4-0.8,2.8-2h4.2c0.2,0.4,0.4,0.8,0.7,1.1c0.5,0.6,1.3,0.9,2.2,0.9c1.2,0,2.4-0.8,2.8-2h1.2l3.2,6.4c1,1.8,2.9,2.9,4.7,2.9
	c0.6,0,1.1-0.2,1.7-0.3C61.6,59.1,62.8,56.3,61.8,53.9z M35.7,38.3h9.5v6.3h-9.5V38.3z M37.9,50.6c-0.1,0-0.1,0.1-0.1,0.2
	c-0.1,0.4-0.3,0.7-0.6,1c-0.4,0.4-1.1,0.7-1.7,0.7c-1.4,0-2.5-1.1-2.5-2.5c0-1.4,1.1-2.5,2.5-2.5c1.3,0,2.5,1.1,2.5,2.5
	C38,50.2,38,50.4,37.9,50.6z M47.9,50.6L47.9,50.6c-0.1,0-0.2,0.1-0.2,0.2c-0.2,0.7-0.6,1.2-1.2,1.5c-0.3,0.1-0.7,0.2-1,0.2
	c-1.4,0-2.5-1.1-2.5-2.5c0-1.4,1.1-2.5,2.5-2.5S48,48.6,48,50C48,50.2,48,50.4,47.9,50.6z M59,59.5c-0.5,0.2-1,0.3-1.5,0.3
	c-1.7,0-3.4-1-4.3-2.6l-3.5-6.5c0,0-0.1-0.1-0.2-0.1h-1.1c0-0.2,0.1-0.4,0.1-0.6c0-1.6-1.3-3-3-3c-1.6,0-3,1.3-3,3
	c0,0.2,0,0.4,0.1,0.6h-4.1c0-0.2,0.1-0.4,0.1-0.6c0-1.6-1.3-3-3-3c-1.6,0-3,1.3-3,3c0,0.2,0,0.4,0.1,0.6h-1.4c-0.1,0-0.2,0-0.2,0.1
	l-3.3,6.5c-0.9,1.6-2.7,2.6-4.3,2.6c-0.5,0-0.9-0.1-1.4-0.3c-2.2-0.9-3.2-3.3-2.3-5.5c1.4-5.4,3.7-13.5,4-14c1.2-2,3.4-3.3,5.7-3.3
	c1.5,0,3,0.5,4.2,1.5c0.1,0.1,0.1,0.1,0.2,0.1h1.4v6.5c0,0.2,0.2,0.3,0.3,0.3h10c0.1,0,0.2-0.1,0.3-0.3v-6.5h1.4
	c0.1,0,0.2-0.1,0.2-0.1c1.2-1,2.7-1.5,4.2-1.5c2.3,0,4.5,1.3,5.7,3.3c0.2,0.5,2.5,8.6,4,14C62.2,56.1,61.2,58.6,59,59.5z"/>
</svg>
