<?xml version="1.0" encoding="utf-8"?>
<!-- Generator: Adobe Illustrator 23.0.3, SVG Export Plug-In . SVG Version: 6.00 Build 0)  -->
<svg version="1.1" id="Layer_1" xmlns="http://www.w3.org/2000/svg" xmlns:xlink="http://www.w3.org/1999/xlink" x="0px" y="0px"
	 viewBox="0 0 56.5 63.9" style="enable-background:new 0 0 56.5 63.9;" xml:space="preserve">
<style type="text/css">
	.st0{fill:#959595;}
	.st1{fill:#DB3640;}
	.st2{fill:#B9B9BA;}
	.st3{fill:#F05F61;}
	.st4{fill:#C0C0C0;}
</style>
<g>
	<path class="st0" d="M25.9,41c0,0-0.4-3.3,1.7-7.9c0,0-2.2-26.5-7.5-32.4c0,0-2-3.1-0.8,3.7l5,41.9L25.9,41z"/>
	<g>
		<path class="st1" d="M26.9,40.6c-1.1-1.7-3.2-1.4-4.4,0.1c-0.7,0.9-1,2-1.7,2.9c-0.6,0.8-1.5,1.5-2.3,2.1
			c-1.3,0.9-2.5,1.9-3.8,2.8c-2.6,1.5-4.4,4.4-4.2,7.6c0.2,4.5,4.1,8,8.7,7.8c4.5-0.2,8-4.1,7.8-8.7c0-0.1,0-0.2,0-0.3
			c0.5-3.7,0.6-8.5,0.5-10.1C27.4,43.6,27.6,41.6,26.9,40.6z M19,61.3c-3.1,0.2-5.8-2.2-6-5.4c-0.2-3.1,2.2-5.8,5.4-6
			c3.1-0.2,5.8,2.2,6,5.4C24.6,58.4,22.2,61.1,19,61.3z M52.9,33c-2.7-1.8-6-1.8-8.7-0.3c-1.5,0.6-2.9,1.2-4.4,1.8
			c-1,0.4-2,0.7-3,0.9c-1.1,0.1-2.2-0.2-3.3,0c-1.9,0.3-3.2,1.9-2.3,3.7c0.5,1.2,2.3,2,3.3,2.7c1.4,1,5.6,3.3,9,4.8
			c0.1,0,0.1,0.1,0.2,0.1c3.8,2.5,8.9,1.6,11.4-2.2C57.6,40.7,56.6,35.5,52.9,33z M53,43c-1.8,2.6-5.3,3.3-7.9,1.5
			c-2.6-1.8-3.3-5.3-1.5-7.9c1.8-2.6,5.3-3.3,7.9-1.5C54,36.9,54.7,40.4,53,43z"/>
		<path class="st2" d="M31.8,37.9c0,0-2.6-2-7.6-2.6c0,0-21.6-15.5-24-23.1c0,0-1.6-3.3,3.6,1.2l33.4,25.8L31.8,37.9z"/>
	</g>
	<path class="st3" d="M26.4,39.9c-1.1-1.7-3.2-1.4-4.4,0.1c-0.7,0.9-1,2-1.7,2.9c-0.6,0.8-1.5,1.5-2.3,2.1c-1.3,0.9-2.5,1.9-3.8,2.8
		c-2.6,1.5-4.4,4.4-4.2,7.6c0.2,4.5,4.1,8,8.7,7.8c4.6-0.2,8-4.1,7.8-8.7c0-0.1,0-0.2,0-0.3c0.5-3.6,0.6-8.4,0.5-10.1
		C26.9,42.9,27.1,40.9,26.4,39.9z M18.5,60.6c-3.1,0.2-5.8-2.2-6-5.4c-0.2-3.1,2.2-5.8,5.4-6c3.1-0.2,5.8,2.2,6,5.4
		C24.1,57.8,21.7,60.5,18.5,60.6z M52.8,32.2c-2.6-1.8-5.8-1.8-8.4-0.4c-1.6,0.6-3.1,1.3-4.6,1.8c-1,0.4-2,0.7-3,0.9
		c-1.1,0.1-2.2-0.2-3.3,0c-1.9,0.3-3.2,1.9-2.3,3.7c0.5,1.2,2.3,2,3.3,2.7c1.4,0.9,5.4,3.2,8.7,4.6c0.1,0.1,0.2,0.2,0.4,0.3
		c3.8,2.6,8.9,1.6,11.4-2.2C57.6,39.9,56.6,34.7,52.8,32.2z M52.9,42.2c-1.8,2.6-5.3,3.3-7.9,1.5c-2.6-1.7-3.3-5.3-1.5-7.9
		c1.8-2.6,5.3-3.3,7.9-1.5C54,36.1,54.7,39.6,52.9,42.2z M23.5,33.4c-0.1-0.2-0.1-0.4-0.1-0.7c0-0.9,0.7-1.6,1.6-1.6
		c0.8,0,1.4,0.5,1.6,1.2c0.1,0.2,0.1,0.4,0.1,0.7c0,0.9-0.7,1.6-1.6,1.6C24.3,34.6,23.7,34.1,23.5,33.4z"/>
	<rect x="13.3" y="5" transform="matrix(0.6107 -0.7919 0.7919 0.6107 -11.8244 19.0805)" class="st4" width="0.3" height="33.1"/>
</g>
</svg>
