<?xml version="1.0" encoding="utf-8"?>
<!-- Generator: Adobe Illustrator 23.0.3, SVG Export Plug-In . SVG Version: 6.00 Build 0)  -->
<svg version="1.1" id="Layer_1" xmlns="http://www.w3.org/2000/svg" xmlns:xlink="http://www.w3.org/1999/xlink" x="0px" y="0px"
	 viewBox="0 0 28.5 63.6" style="enable-background:new 0 0 28.5 63.6;" xml:space="preserve">
<style type="text/css">
	.st0{fill:#FFFFFF;}
	.st1{fill:none;}
	.st2{fill:#808285;}
	.st3{fill:#F65959;}
	.st4{fill:#32383F;}
</style>
<g id="XMLID_16976_">
	<g id="XMLID_16982_">
		<path id="XMLID_16983_" class="st0" d="M9.8,51.9L9.8,51.9c-1-0.1,0.6-19.7,0.6-19.7l1.2-16l1.8,0.1L12,32.2
			C12.1,32.3,10.8,52,9.8,51.9z"/>
	</g>
	<g id="XMLID_16980_">
		<polygon id="XMLID_16981_" class="st0" points="13.6,9.4 12.5,9.3 11.6,16.3 13.4,16.4 		"/>
	</g>
	<g id="XMLID_16977_">
		<path id="XMLID_16978_" class="st0" d="M14.5,6.8c-0.1-0.7-1-2.9-1-2.9S12.4,5.7,12,6.7c-0.3,0.9,0,2.3,1.1,2.4
			C14.3,9.2,14.6,7.7,14.5,6.8z"/>
	</g>
</g>
<path id="XMLID_16975_" class="st1" d="M27.4,2.4l-3.8,26.4c0.2,0,0.3,0,0.5,0l3.8-26.4c-0.7-1.1-1.6-1.8-2.4-1.8l0,0
	C26.1,0.8,26.8,1.4,27.4,2.4z"/>
<path id="XMLID_16973_" class="st1" d="M25.7,2.7c-0.1-0.1-0.2-0.2-0.3-0.2c-0.3,0-0.6,0.2-0.6,0.5s0.2,0.6,0.5,0.6
	c0.2,0,0.4-0.1,0.5-0.2c0-0.1,0-0.1,0.1-0.2C25.7,3,25.7,2.9,25.7,2.7z"/>
<path id="XMLID_16972_" class="st1" d="M14.4,18.6L14,28.8c0.7,0,1.5,0,2.2,0l0.3-10.1L14.4,18.6z"/>
<path id="XMLID_16971_" class="st1" d="M24.6,4c-0.3-0.2-0.5-0.6-0.4-1.1c0-0.3,0.2-0.6,0.5-0.7C24.3,2.3,24,2.6,24,3
	C23.8,3.4,24.1,3.9,24.6,4z"/>
<polygon id="XMLID_16970_" class="st1" points="15.3,15.8 15.9,15.8 15.6,14.8 "/>
<polygon id="XMLID_16968_" class="st1" points="14.5,18 16.5,18.1 16,16.4 15.1,16.3 "/>
<path id="XMLID_16967_" class="st1" d="M5.2,11.7H4.9c-0.4,0-0.8,0.4-0.9,0.8l2.2-0.2C6,11.9,5.6,11.7,5.2,11.7z"/>
<polygon id="XMLID_16966_" class="st1" points="7.3,17.1 7.9,17 7.6,14.7 7.1,14.7 7.3,16.8 "/>
<polygon id="XMLID_16965_" class="st1" points="6.5,14.5 6.3,12.9 4,13.1 4.2,14.9 4.2,15.2 6.5,14.9 "/>
<path id="XMLID_16963_" class="st1" d="M6.6,15.5l-2.3,0.3l1.3,13c0.8,0,1.5,0,2.3,0L6.6,16.3V15.5z"/>
<polygon id="XMLID_16962_" class="st1" points="9.6,25 8.4,13.8 8.1,13.8 8.2,14.3 8.2,14.3 8.2,14.4 9.3,25 "/>
<path id="XMLID_16958_" class="st2" d="M27.4,2.4c-0.7-1.1-1.3-1.6-2-1.9c-1.2-0.1-2.3,0.8-2.5,1.1l-0.6,3.8l1.2,0.2
	c0.2,0,0.3,0.2,0.3,0.3c0,0.2-0.2,0.3-0.3,0.3L22.3,6l-0.6,3.8l1.2,0.2c0.2,0,0.3,0.2,0.3,0.3c0,0.2-0.2,0.3-0.3,0.3l-1.2-0.2
	l-0.6,3.8l1.2,0.2c0.2,0,0.3,0.2,0.3,0.3S22.4,15,22.3,15L21,14.8l-0.5,3.8l1.2,0.2c0.2,0,0.3,0.2,0.3,0.3c0,0.2-0.2,0.3-0.3,0.3
	l-1.2-0.2L19.9,23l1.2,0.2c0.2,0,0.3,0.2,0.3,0.3c0,0.2-0.2,0.3-0.3,0.3l-1.2-0.2l-0.6,3.8l1.2,0.2c0.2,0,0.3,0.2,0.3,0.3
	c0,0.2-0.2,0.3-0.3,0.3L19.3,28L19,28.8c1.5,0,3.1,0,4.6,0L27.4,2.4z M23.9,2.9c0.1-0.4,0.3-0.7,0.7-0.8c0.2-0.2,0.5-0.3,0.8-0.2
	c0.6,0.1,1,0.7,1,1.3c-0.1,0.6-0.7,1-1.3,1c-0.2,0-0.4-0.1-0.5-0.2C24.1,3.9,23.8,3.4,23.9,2.9z"/>
<path id="XMLID_16957_" class="st2" d="M25.7,3.2c0,0.1,0,0.1-0.1,0.2C25.7,3.3,25.8,3.2,25.7,3.2c0.1-0.2,0-0.3,0-0.5
	C25.7,2.9,25.7,3,25.7,3.2z"/>
<path id="XMLID_16956_" class="st2" d="M22.3,1.5c0-0.1,0-0.1,0.1-0.2c0,0,0.2-0.2,0.4-0.4C22.3,1.2,22,1.6,22,1.6l-4,27.2
	c0.1,0,0.2,0,0.3,0L22.3,1.5z"/>
<path id="XMLID_16955_" class="st3" d="M4.8,52.2C5,55.6,5.2,59,5.4,62.4c0.8,0,1.6,0,2.3,0c3.8,0,7.6,0,11.4,0c2.3,0,4.6,0,6.9,0
	c0.1-1.2,0.1-2.4,0.2-3.6c0.3-5.6,0.6-11.2,0.9-16.8c0.2-3.4,0.4-6.8,0.6-10.2c-0.6,0-1.1,0-1.7,0c-0.4,0-0.7,0-1.1,0
	c-4.4,0-8.9,0-13.3,0c-0.1,0-0.3,0-0.4,0c-2.5,0-5.1,0-7.6,0c0.1,1.2,0.1,2.4,0.2,3.6C4.2,41,4.5,46.6,4.8,52.2z"/>
<path id="XMLID_16953_" class="st0" d="M27.5,29.4c-1,0-2.1,0-3.1,0c-4.9,0-9.9,0-14.8,0c-3,0-6,0-9,0c0,0.8,0,1.6,0,2.4
	c0.4,0,0.7,0,1.1,0c0.7,0,1.3,0,2,0c0.4,0,0.7,0,1.1,0c4.4,0,8.9,0,13.3,0c0.1,0,0.3,0,0.4,0c2.6,0,5.3,0,7.9,0c0.4,0,0.7,0,1.1,0
	C27.5,31,27.5,30.2,27.5,29.4z"/>
<path class="st4" d="M18.5,27.6l0,0.3c0,0,0-0.1,0-0.1C18.4,27.7,18.4,27.7,18.5,27.6z M21.7,5.5c-0.1,0-0.3,0.1-0.3,0.3
	c0,0.1,0.1,0.2,0.2,0.3L21.7,5.5L21.7,5.5z M28.5,2.4l-3.8,26.4c1,0,2.1,0,3.1,0c0.1,0,0.2,0.1,0.2,0.1c0.1,0,0.1,0.1,0.1,0.2
	c0,1,0,2,0,3c0,0.2-0.1,0.3-0.3,0.3c-0.3,0-0.7,0-1.1,0c-0.1,1.2-0.1,2.4-0.2,3.6c-0.3,5.6-0.6,11.2-0.9,16.8
	c-0.2,3.5-0.4,7-0.6,10.5c0,0.2-0.1,0.3-0.3,0.3c-0.9,0-1.7,0-2.6,0c-3.8,0-7.6,0-11.4,0c-2.4,0-4.8,0-7.2,0c-0.2,0-0.3-0.1-0.3-0.3
	C3.1,62,3.1,60.7,3,59.4c-0.3-5.6-0.6-11.2-0.9-16.8c-0.2-3.4-0.4-6.8-0.6-10.2c0,0-0.1,0-0.1,0c-0.3,0-0.7,0-1.1,0
	c-0.2,0-0.3-0.1-0.3-0.3c0-1,0-2,0-3c0-0.2,0.1-0.3,0.3-0.3c1.1,0,2.3,0,3.4,0c0.5,0,0.9,0,1.4,0L3.4,12.9c0,0,0,0,0,0.1
	c-0.1-0.8,0.5-1.6,1.4-1.7h0.3c0.6-0.1,1.3,0.3,1.6,0.9c0.1,0,0.2,0.1,0.2,0.3l0.2,1.6L7.5,14v-0.4c0-0.1,0.1-0.3,0.3-0.3l0.9-0.1
	c0.1,0,0.3,0.1,0.3,0.3l1.2,11.7c0,0.1-0.1,0.3-0.3,0.3L9,25.6c-0.1,0-0.3-0.1-0.3-0.3l-0.8-7.7H7.8l-0.5,0.1h0.1l1.1,11.1
	c0,0,0.1,0,0.1,0c0.6,0,1.2,0,1.8,0l0.9-12.3l-0.1,0l1-7.4C12.2,9,12.1,8.8,12,8.7c-0.4-0.7-0.4-1.6-0.2-2.2c0.4-1,1.5-2.8,1.5-2.9
	l0.3-0.5l0.2,0.5c0.1,0.2,1,2.2,1,3c0.1,0.7,0,1.7-0.6,2.3C14.1,9,14,9.1,13.9,9.2l-0.2,7.5l0,0l-1,12.1c0.1,0,0.2,0,0.4,0
	c0.1,0,0.3,0,0.4,0l0.4-10.5c0,0.1,0.1,0.1,0.1,0.2c0,0,0,0,0.1,0.1c0,0,0-0.1,0-0.2c-0.1-0.1-0.1-0.1-0.1-0.2l0.7-2
	c0-0.1-0.1-0.2-0.1-0.3l0.8-2.3c0.1-0.1,0.2-0.2,0.3-0.2c0.2,0,0.3,0.1,0.3,0.2l0.5,1.8l0.8,3c0,0.1-0.1,0.1-0.1,0.2
	c0.1-0.1,0.1-0.1,0.1-0.2l-0.3,10.4c0.4,0,0.8,0,1.2,0c0.1,0,0.1,0,0.2,0l0.1-0.9c0,0.1,0.1,0.2,0.3,0.2H19l-0.1,0.7
	c0,0,0.1,0,0.1,0c1.5,0,3.1,0,4.6,0c0.2,0,0.3,0,0.5,0l3.4-26.4c-0.7-1.1-1.5-1.7-2.4-1.8c-1.2-0.1-2.2,0.8-2.5,1.1L22,5.5h-0.3
	l0.6-3.9c0-0.1,0.1-0.2,0.1-0.2c0-0.1,0.2-0.2,0.4-0.4c0.5-0.4,1.5-1.1,2.7-1c1.1,0.1,2.1,0.8,3,2.2C28.5,2.3,28.5,2.3,28.5,2.4z
	 M12.4,8.4c0.2,0.2,0.4,0.4,0.7,0.4c0.3,0,0.5-0.1,0.7-0.2c0.4-0.4,0.5-1.2,0.4-1.8c0-0.4-0.5-1.5-0.8-2.3c-0.4,0.6-0.9,1.6-1.2,2.3
	C12.1,7.2,12.1,8,12.4,8.4z M12,16l1.2,0.1l0.2-6.4h-0.5L12,16z M15.6,14.8l-0.3,1h0.6L15.6,14.8z M14.5,18l2,0.1L16,16.4h0.2
	c0.1,0,0.1,0,0.2-0.1c0.1-0.1,0.1-0.2,0.1-0.3l0,0c0,0.1,0,0.1-0.1,0.2c0,0.1-0.1,0.1-0.2,0.1H16h-0.9L14.5,18z M14,28.8
	c0.4,0,0.8,0,1.2,0c0.2,0,0.4,0,0.6,0c0.2,0,0.3,0,0.5,0l0.3-10.1l-1.1,0l-1.1,0L14,28.8z M11,28.8c0.3,0,0.7,0,1,0l1.1-12.1
	l-1.2-0.1L11,28.8z M4.2,15.1l2.2-0.2l0,0v-0.5c0-0.1,0-0.1,0.1-0.2l-0.2-1.4L4,13l0.2,1.8V15.1z M7.8,17.1l-0.2-2.4l-0.5,0.1
	l0.2,2.1v0.2v0.1L7.8,17.1z M8,14.1c0.1,0,0.1,0.1,0.1,0.2v0.1l0.3,2.9c0,0.1-0.1,0.3-0.3,0.3h0.1c0.2,0,0.3-0.1,0.3-0.3l-0.3-3
	l1.1,10.6h0.3L8.5,13.8H8.2v0.5C8.2,14.2,8.1,14.1,8,14.1z M4.1,12.4L4.1,12.4l2-0.2c-0.2-0.3-0.5-0.4-0.9-0.4H4.9
	C4.5,11.9,4.2,12.1,4.1,12.4z M3.8,15.7c-0.1-0.1-0.1-0.2,0-0.4l-0.3-2.6c0,0,0,0,0,0c-0.1,0.1-0.1,0.1-0.1,0.3l0.3,2.6
	C3.7,15.6,3.8,15.7,3.8,15.7z M5.7,28.8c0.8,0,1.4,0,2.2,0L6.8,17.6c-0.1,0-0.1-0.1-0.1-0.2l-0.1-1.1l-0.1-0.7l-2.2,0.2L5.7,28.8z
	 M26.1,32.4c-0.6,0-1.1,0-1.7,0c-0.4,0-0.7,0-1.1,0c-4.4,0-8.9,0-13.3,0c-0.1,0-0.3,0-0.4,0c-2.5,0-5,0-7.5,0
	c0.1,1.2,0.1,2.4,0.2,3.6c0.3,5.6,0.6,11.2,0.9,16.8c0.2,3.4,0.4,6.8,0.6,10.2c0.7,0,1.5,0,2.3,0c3.8,0,7.6,0,11.4,0
	c2.3,0,4.6,0,6.9,0c0.1-1.2,0.1-2.4,0.2-3.6c0.3-5.6,0.6-11.2,0.9-16.8C25.7,39.2,25.9,35.8,26.1,32.4z M24.4,29.4
	c-4.9,0-9.9,0-14.8,0c-3,0-6,0-9,0c0,0.8,0,1.6,0,2.4c0.4,0,0.7,0,1.1,0c0.7,0,1.3,0,2,0c0.4,0,0.7,0,1.1,0c4.4,0,8.9,0,13.3,0
	c0.1,0,0.3,0,0.4,0c2.6,0,5.3,0,7.9,0c0.4,0,0.7,0,1.1,0c0-0.8,0-1.6,0-2.4C26.5,29.4,25.4,29.4,24.4,29.4z M19.6,19
	c0,0.1,0,0.2,0.1,0.2l0.1-0.5C19.7,18.8,19.6,18.9,19.6,19z M18.5,27.6c0,0,0,0.1,0,0.1c0,0.2,0.1,0.3,0.3,0.3h0.3l1.2,0.2
	c0.1,0,0.3-0.2,0.3-0.3c0-0.2-0.1-0.3-0.3-0.3l-1.2-0.2H19l0.6-3.7h-0.3c-0.1,0-0.2,0-0.2-0.1L18.5,27.6
	C18.5,27.6,18.5,27.6,18.5,27.6z M20,18.7c0,0-0.1,0.1-0.1,0.2c0,0.2,0.1,0.3,0.3,0.3h0.3l1.2,0.2c0,0,0.1-0.1,0.2-0.3
	c0-0.2-0.1-0.3-0.3-0.3l-1.1-0.2h-0.3l0.6-3.7h-0.3c-0.1,0-0.1,0-0.1,0l-0.6,3.9C19.8,18.7,19.9,18.7,20,18.7L20,18.7z M24.5,4
	c-0.3-0.3-0.5-0.7-0.4-1.1c0.1-0.3,0.3-0.6,0.4-0.8c0.2-0.2,0.5-0.2,0.8-0.2c0.7,0.1,1.1,0.7,1,1.3c-0.1,0.7-0.7,1.1-1.3,1
	C24.8,4.2,24.6,4.1,24.5,4z M24.7,2.9c0,0.3,0.2,0.6,0.5,0.6c0.2,0,0.4-0.1,0.5-0.2c0,0,0.1-0.1,0.1-0.2s0-0.2-0.2-0.5
	c0-0.1-0.2-0.2-0.3-0.2C25,2.4,24.7,2.6,24.7,2.9z M19.4,23.6h0.3l1.2,0.2c0.2,0,0.3-0.1,0.3-0.3c0-0.2-0.1-0.3-0.3-0.3L19.7,23
	h-0.1l0.6-3.7h-0.3c-0.1,0-0.1,0-0.2-0.1l-0.6,3.9c0,0,0,0,0,0c0,0,0,0,0,0l0,0c-0.1,0-0.1,0.1-0.1,0.2c0,0.1,0,0.1,0.1,0.2l0-0.2
	C19.1,23.5,19.2,23.6,19.4,23.6z M20.7,14.8H21l1.2,0.2c0.1,0,0.3-0.1,0.3-0.3c0-0.2-0.1-0.3-0.3-0.3L21,14.2h-0.2l0.6-3.7h0.2
	l1.2,0.2c0.2-0.1,0.3-0.2,0.3-0.3c0-0.2-0.1-0.3-0.3-0.3l-1.2-0.2h-0.2L22,6.1h-0.3c0,0,0,0-0.1,0l-0.6,3.8c0,0,0,0,0,0h0.2
	c-0.1,0-0.2,0-0.2,0.1l0-0.1c-0.1,0-0.3,0.1-0.3,0.3c0,0.1,0.1,0.2,0.2,0.3l0-0.2c0,0.1,0.1,0.2,0.3,0.2h-0.2c0,0-0.1,0-0.1,0
	l-0.6,3.8c0,0,0,0,0,0c0,0,0,0.1,0,0.1l0-0.1c-0.1,0-0.2,0.1-0.2,0.3c0,0.1,0.1,0.2,0.2,0.3l0-0.3C20.4,14.7,20.5,14.8,20.7,14.8z
	 M21.7,5.8c0,0.2,0.1,0.3,0.3,0.3h0.3l1.2,0.2c0.1,0,0.3-0.1,0.3-0.3c0-0.2-0.1-0.3-0.3-0.3l-1.2-0.2H22C21.8,5.5,21.7,5.6,21.7,5.8
	z"/>
</svg>
