<?xml version="1.0" encoding="utf-8"?>
<!-- Generator: Adobe Illustrator 23.0.3, SVG Export Plug-In . SVG Version: 6.00 Build 0)  -->
<svg version="1.1" id="Layer_1" xmlns="http://www.w3.org/2000/svg" xmlns:xlink="http://www.w3.org/1999/xlink" x="0px" y="0px"
	 viewBox="0 0 24.6 44.5" style="enable-background:new 0 0 24.6 44.5;" xml:space="preserve">
<style type="text/css">
	.st0{fill:#57595B;}
	.st1{fill:#80ADE4;}
	.st2{fill:#3F3E40;}
	.st3{fill:#1F191A;}
</style>
<g id="XMLID_15698_">
	<path class="st0" d="M11.3,10H1.6l2.5-2.9c0,0,1.8-2.2,1.8-4.7v-2h5.4h5.4v2c0,2.6,1.8,4.7,1.7,4.7l2.7,3L11.3,10z M11.5,33.4
		l-9.8-0.1l2.7,3c-0.1,0,1.7,2.1,1.7,4.7v2h5.4h5.4v-2c0-2.5,1.8-4.7,1.8-4.7l2.5-2.9H11.5z"/>
	<rect id="XMLID_15702_" x="3.1" y="12.3" class="st1" width="17.3" height="18.2"/>
	<path id="XMLID_15699_" class="st2" d="M6.1,41l15-7.6h-9.7l-9.8-0.1l2.7,3C4.3,36.3,6.1,38.4,6.1,41z"/>
</g>
<g>
	<path class="st3" d="M20.2,12.2L2.6,12.1c-0.3,0-0.5,0.2-0.5,0.5L1.9,31.1c0,0.3,0.2,0.5,0.5,0.5l17.7,0.1c0.2,0,0.4-0.2,0.5-0.5
		l0.1-18.5C20.7,12.4,20.5,12.2,20.2,12.2z M19.6,30.8L2.9,30.7L3,13.1l16.7,0.1L19.6,30.8z"/>
	<path class="st3" d="M24.1,19.8h-1.5l0-7.8c0-0.9-0.5-1.6-1.3-1.8L19,7.5c0-0.1-1.7-2.1-1.7-4.5V1c0-0.3-0.2-0.5-0.5-0.5L5.9,0.4
		c-0.3,0-0.5,0.2-0.5,0.5v2c0,2.3-1.7,4.4-1.7,4.4l-2.6,2.9c0,0,0,0,0,0c-0.6,0.3-1,0.9-1,1.6L0,31.7c0,0.7,0.3,1.2,0.7,1.5
		c0,0.1,0,0.1,0.1,0.2l2.7,3.1c0,0.1,1.7,2.1,1.7,4.5v2c0,0.3,0.2,0.5,0.5,0.5l11,0.1c0.2,0,0.5-0.2,0.3-0.6v-2
		c0-2.3,1.7-4.4,1.7-4.4l2.6-2.9c0,0,0,0,0-0.1c0.7-0.3,1.2-0.9,1.2-1.7l0-7.8h1.6c0.2,0,0.4-0.2,0.5-0.5v-3.3
		C24.6,20,24.4,19.8,24.1,19.8z M4.4,8c0.1-0.1,2-2.4,2-5.1V1.4l10,0.1V3c0,2.8,1.8,5,1.9,5.1l1.7,2L2.6,10L4.4,8z M18.2,36.1
		c-0.1,0.1-2,2.4-2,5.1v1.5l-10-0.1V41c0-2.8-1.8-5-1.9-5.1l-2-2.3l0.5,0l8.5,0.2l8.8,0.1L18.2,36.1z M20.7,32.8L7.6,32.7l-6.1-0.1
		C1.2,32.5,1,32.2,1,31.8l0.1-19.9C1.1,11.4,1.5,11,2,11l9.3,0.1l9.9,0.2c0.3,0.1,0.5,0.4,0.5,0.8l0,8c0,0.1-0.1,0.1-0.1,0.2v3.3
		c0,0.1,0,0.1,0,0.2l0,8.1C21.6,32.4,21.2,32.8,20.7,32.8z M23.6,23.2h-1.1l0-2.4h1V23.2z"/>
</g>
</svg>
