<?xml version="1.0" encoding="utf-8"?>
<!-- Generator: Adobe Illustrator 23.0.3, SVG Export Plug-In . SVG Version: 6.00 Build 0)  -->
<svg version="1.1" id="Layer_1" xmlns="http://www.w3.org/2000/svg" xmlns:xlink="http://www.w3.org/1999/xlink" x="0px" y="0px"
	 viewBox="0 0 57 53.8" style="enable-background:new 0 0 57 53.8;" xml:space="preserve">
<style type="text/css">
	.st0{fill:#BFBEBE;}
	.st1{fill:#EAEAE9;}
	.st2{fill:#37B34A;}
	.st3{fill:#26A9E0;}
	.st4{fill:#F16228;}
	.st5{fill:#EE383B;}
	.st6{fill:#F8C414;}
	.st7{fill:#9B4D9D;}
	.st8{fill:#372C3C;}
	.st9{fill:#CECECD;}
	.st10{opacity:0.1;fill:#FFFFFF;}
	.st11{fill:#A4A4A4;}
	.st12{fill:#7E481E;}
	.st13{fill:#C0C0C0;}
	.st14{fill:#D27728;}
	.st15{fill:#9A5C31;}
	.st16{fill:#D8D8D7;}
</style>
<g>
	<path class="st0" d="M55.8,16.2c-2-5.3-6.3-9.7-11.4-12.1c-8-3.8-17.2-2-22.9,4.7c-1.9,2.2-3,5-2.6,8c0.8,6,6.2,5.2,10.5,7.5
		c2,1.1,4.1,3.2,3.9,5.7c-0.2,2.4-2.5,4.2-2.3,6.6c0.7,7,11.4,6.1,15.8,3.8C54.9,36,59.1,24.9,55.8,16.2z"/>
	<path class="st1" d="M55.8,15.1c-2-5.3-6.3-9.7-11.4-12.1c-8-3.8-17.2-2-22.9,4.7c-1.9,2.2-3,5-2.6,8c0.8,6,6.2,5.2,10.5,7.5
		c2,1.1,4.1,3.2,3.9,5.7c-0.2,2.4-2.5,4.2-2.3,6.6c0.7,7,11.4,6.1,15.8,3.8C54.9,35,59.1,23.9,55.8,15.1z"/>
	<path class="st2" d="M21.1,13c0.3,1.8,1.8,3.4,4.1,3.2c1.8-0.2,3.1-2.3,3.1-4c0-2.7-3.4-4.3-5.6-2.8C21.4,10.2,20.9,11.7,21.1,13z"
		/>
	<path class="st3" d="M28.8,7.9c0.3,1.8,1.8,3.4,4.1,3.2c1.8-0.2,3.1-2.3,3.1-4c0-2.7-3.4-4.3-5.6-2.8C29.1,5.1,28.7,6.5,28.8,7.9z"
		/>
	<path class="st4" d="M37.9,8.7c0.3,1.8,1.8,3.4,4.1,3.2c1.8-0.2,3.1-2.3,3.1-4c0-2.7-3.4-4.3-5.6-2.8C38.1,6,37.7,7.4,37.9,8.7z"/>
	<path class="st5" d="M45.1,14.4c0.3,1.8,1.8,3.4,4.1,3.2c1.8-0.2,3.1-2.3,3.1-4c0-2.7-3.4-4.3-5.6-2.8C45.4,11.6,44.9,13,45.1,14.4
		z"/>
	<path class="st6" d="M47.7,23.3c0.3,1.8,1.8,3.4,4.1,3.2c1.8-0.2,3.1-2.3,3.1-4c0-2.7-3.4-4.3-5.6-2.8C48,20.6,47.5,22,47.7,23.3z"
		/>
	<path class="st7" d="M44.1,31.7c0.3,1.8,1.8,3.4,4.1,3.2c1.8-0.2,3.1-2.3,3.1-4c0-2.7-3.4-4.3-5.6-2.8C44.4,29,43.9,30.4,44.1,31.7
		z"/>
	<path class="st8" d="M35.4,35.4c0.3,1.8,1.8,3.4,4.1,3.2c1.8-0.2,3.1-2.3,3.1-4c0-2.7-3.4-4.3-5.6-2.8
		C35.6,32.7,35.2,34.1,35.4,35.4z"/>
	<path class="st9" d="M35.3,14.4c2.8-0.2,5.9,1.1,7.5,3.6c2.1,3.3,0.7,6.2-1.7,8.7c-1.8,1.9-4.2,1.7-5.1-0.6c-0.9-2.5-2-4.1-4.2-5.6
		c-1.2-0.9-2.9-1.5-1.9-3.3c0.5-0.9,1.9-1.9,2.9-2.2C33.6,14.6,34.4,14.5,35.3,14.4z"/>
	<path class="st10" d="M24.7,10.2c0.1,0.3,1,0.5,1.2,0.7c0.9,0.5,1.3,1.3,1,2.3c0.8,0.7,0.9-1.4,0.7-1.7c-0.3-0.9-0.9-1.3-1.7-1.7
		C25.5,9.6,24.4,9.2,24.7,10.2z M34.4,7.3C34.6,8.4,35,7.6,35.1,7c0.3-1-0.1-1.6-1-2.2c-0.5-0.3-1.6-0.3-1.1,0.6
		c0.1,0.2,0.8,0.4,1,0.6C34.4,6.4,34.3,6.8,34.4,7.3z M43.2,10.3c-0.7-0.2,0.2-1.5,0.2-2.1c0-0.8-0.7-1.6-1.3-2.2
		c-0.1-0.2,0.6-0.5,0.7-0.6c1.2,0.5,1.7,1.7,1.6,2.9C44.5,8.8,44.1,10.5,43.2,10.3z M51.4,14.3c-0.1,0.4-1,2.3-1.2,1.1
		c-0.1-0.5,0.4-0.8,0.5-1.2c0.2-0.5-0.1-0.7-0.2-1.2c-0.2-0.4-0.7-1.6,0.2-1.5C51.6,11.6,51.6,13.7,51.4,14.3z M52.9,25.2
		c-0.5-0.5,0.6-1.9,0.7-2.6c0-0.5-0.7-3.3,0.5-1.5C54.9,22.4,54.3,24.6,52.9,25.2z M50.4,31.8c-0.1,0.4-0.9,2.3-1.7,1.6
		c-0.4-0.3,0.7-1.7,0.8-2.2c0.3-1-0.3-1.4-0.6-2.3C50.4,27.6,50.5,31.2,50.4,31.8z M41.3,36.4c-0.3,0.4-1.9,1.4-1.8,0.4
		c0-0.3,0.7-0.7,0.8-0.9c0.3-0.5,0.3-0.8,0.3-1.3c0-0.4,0.1-1.1,0.6-1.2C42.3,33.3,41.6,36,41.3,36.4z"/>
	<path class="st11" d="M42.8,22.4c-0.3,1.4-1.6,3.3-2.7,3.8c-0.5,0.2-1.4,0.3-1.7-0.3c-0.3-0.8,0.8-1.3,1.2-1.8
		c0.9-1.1,1.4-2.4,1.2-3.8c-0.1-1.2-1-1.7-1.5-2.6s0.5-1.2,1.2-0.8c1.7,0.9,2.4,3.1,2.4,5C42.9,21.9,42.9,22.1,42.8,22.4z"/>
</g>
<g>
	<path class="st12" d="M3.3,10.1C1.2,9.8-0.5,7.6,0.1,5.5C0.7,3.3,3.2,2,0.6,0c2.5-0.3,4.3,1.8,4.9,3.9C5.8,5,6.1,6.4,5.7,7.5
		c-0.4,1.2-1.3,2-1.4,3.2L3.3,10.1z"/>
	<polygon class="st13" points="2.8,10.1 4.7,9.5 9.3,22.7 5.6,23.8 	"/>
	<path class="st14" d="M5.6,23.8l7.7,26.8c0,0,2.2,5.4,2.4,2.2l-0.1-2.5L9.3,22.7L5.6,23.8z"/>
	<path class="st15" d="M3.4,2.3c1.7,1.4,1.2,3.9,1,5.8c0,0.3,0.5,0.4,0.5,0.1c0.3-2.1,0.8-4.8-1.1-6.3C3.5,1.7,3.2,2.1,3.4,2.3
		L3.4,2.3z"/>
	<rect x="6.1" y="10" transform="matrix(0.953 -0.303 0.303 0.953 -4.5867 2.6499)" class="st16" width="0.3" height="12.2"/>
</g>
</svg>
