<?xml version="1.0" encoding="utf-8"?>
<!-- Generator: Adobe Illustrator 23.0.3, SVG Export Plug-In . SVG Version: 6.00 Build 0)  -->
<svg version="1.1" id="Layer_1" xmlns="http://www.w3.org/2000/svg" xmlns:xlink="http://www.w3.org/1999/xlink" x="0px" y="0px"
	 viewBox="0 0 15.6 62" style="enable-background:new 0 0 15.6 62;" xml:space="preserve">
<style type="text/css">
	.st0{fill:#303C42;}
	.st1{fill:#FFB300;}
	.st2{opacity:0.2;fill:#FFFFFF;enable-background:new    ;}
	.st3{opacity:0.1;enable-background:new    ;}
	.st4{fill:#FF6F00;}
</style>
<g>
	<path class="st0" d="M15.5,56.7l-2.6-22c-0.1-0.6-0.6-1.1-1.3-1.1h-0.1l-1.2-16.9c0-0.4-0.2-0.7-0.5-0.9s-0.7-0.3-1-0.2
		c-0.4,0.1-1.7,0.1-2.1,0c-0.4-0.1-0.7,0-1,0.2s-0.5,0.6-0.5,0.9L4,33.6H3.9c-0.7,0-1.2,0.5-1.3,1.1L0,56.8C0,59.6,2.3,62,5.2,62
		h5.2C13.2,62,15.6,59.7,15.5,56.7C15.5,56.8,15.5,56.7,15.5,56.7z"/>
	<path class="st0" d="M7.8,12.9c2.8,0,5.2-2.3,5.2-5.2c0-0.2,0-0.3,0-0.5c-0.2-2-1-3.2-1.7-4.2c-0.5-0.7-0.8-1.2-0.9-1.9
		c0-0.5-0.3-0.9-0.8-1C9.2-0.1,8.7,0,8.3,0.2C7,1.1,6.6,2.8,6.5,4.3C6.4,4.2,6.3,4.1,6.2,4c-0.4-0.5-1-0.7-1.6-0.4
		c-0.2,0.1-2,1-2,3.9v0.3C2.6,10.6,4.9,12.9,7.8,12.9z"/>
</g>
<path class="st1" d="M7.7,18.2c0.1,0,0.1,0,0.2,0L9,33.6H6.6L7.7,18.2z M10.3,59.4H5.1c-1.4,0-2.6-1.2-2.6-2.4L5,36.2h0.1h5.2h0.1
	l2.4,20.7C12.9,58.3,11.7,59.4,10.3,59.4z"/>
<path class="st2" d="M5.2,57l1.2-20.8H5.2H5L2.6,57c0,1.3,1.2,2.4,2.6,2.4h1.3C5.7,59.4,5.2,58.3,5.2,57z"/>
<path class="st3" d="M10.5,36.2L10.5,36.2H9.2l1.2,20.7c0,1.4-0.6,2.5-1.3,2.5h1.3c1.4,0,2.5-1.1,2.6-2.5L10.5,36.2z"/>
<path class="st4" d="M5.3,6.7c0.6,0.5,1.5,1,2.5,1c0.7,0,1.3-0.6,1.3-1.3V6.1c0-0.7,0-1.2,0-1.7c0,0,0,0,0,0.1
	c0.6,0.9,1.1,1.6,1.2,3v0.2c0,1.4-1.2,2.6-2.6,2.6S5.1,9.1,5.1,7.5C5.2,7.2,5.2,7,5.3,6.7z"/>
</svg>
