<?xml version="1.0" encoding="utf-8"?>
<!-- Generator: Adobe Illustrator 23.0.3, SVG Export Plug-In . SVG Version: 6.00 Build 0)  -->
<svg version="1.1" id="Layer_1" xmlns="http://www.w3.org/2000/svg" xmlns:xlink="http://www.w3.org/1999/xlink" x="0px" y="0px"
	 viewBox="0 0 48.5 33" style="enable-background:new 0 0 48.5 33;" xml:space="preserve">
<style type="text/css">
	.st0{fill:#FFFFFF;}
	.st1{fill:#F65959;}
	.st2{fill:#80ADE4;}
	.st3{fill:#F8D920;}
	.st4{fill:#808285;}
	.st5{fill:#FF151F;}
	.st6{fill:#32383F;}
</style>
<g id="XMLID_16917_">
	<g id="XMLID_16951_">
		<path id="XMLID_16952_" class="st0" d="M44.9,31H3.6c-0.2,0-0.3,0.1-0.3,0.3v1c0,0.2,0.1,0.3,0.3,0.3h41.3c0.2,0,0.3-0.1,0.3-0.3
			v-1C45.2,31.1,45.1,31,44.9,31z"/>
	</g>
	<g id="XMLID_16948_">
		<path id="XMLID_16950_" class="st0" d="M48,31.1H0.5c-0.2,0-0.3-0.1-0.3-0.3v-1c0-0.2,0.1-0.3,0.3-0.3H48c0.2,0,0.3,0.1,0.3,0.3v1
			C48.3,31,48.1,31.1,48,31.1z"/>
	</g>
	<g id="XMLID_16945_">
		<g id="XMLID_16946_">
			<path id="XMLID_16947_" class="st1" d="M16.1,19c0,2.2-1.8,4-4,4s-4-1.8-4-4s1.8-4,4-4S16.1,16.8,16.1,19z"/>
		</g>
	</g>
	<g id="XMLID_16941_">
		<g id="XMLID_16942_">
			<path id="XMLID_16943_" class="st2" d="M24.4,18.8c0,2.2-1.8,4-4,4s-4-1.8-4-4s1.8-4,4-4S24.4,16.6,24.4,18.8z"/>
		</g>
	</g>
	<g id="XMLID_16937_">
		<g id="XMLID_16938_">
			<path id="XMLID_16940_" class="st3" d="M32.3,19c0,2.2-1.8,4-4,4s-4-1.8-4-4s1.8-4,4-4S32.3,16.8,32.3,19z"/>
		</g>
	</g>
	<g id="XMLID_16933_">
		<g id="XMLID_16935_">
			<path id="XMLID_16936_" class="st4" d="M42.8,18.3c0.3,2.2-1.2,4.2-3.4,4.5s-4.2-1.2-4.5-3.4s1.2-4.2,3.4-4.5
				C40.5,14.6,42.5,16.1,42.8,18.3z"/>
		</g>
	</g>
	<g id="XMLID_16931_">
		<rect id="XMLID_16932_" x="4.9" y="29.3" class="st5" width="0.3" height="0.4"/>
	</g>
	<g id="XMLID_16928_">
		<rect id="XMLID_16930_" x="11.9" y="9.1" class="st5" width="0.4" height="0.3"/>
	</g>
	<g id="XMLID_16926_">
		<path id="XMLID_16927_" class="st0" d="M13.9,0.2h-3.5v0.9c0,0.2,0.2,0.4,0.4,0.4h2.8c0.2,0,0.4-0.2,0.4-0.4L13.9,0.2L13.9,0.2z"
			/>
	</g>
	<g id="XMLID_16923_">
		<path id="XMLID_16925_" class="st0" d="M22,0.2h-3.5v0.9c0,0.2,0.2,0.4,0.4,0.4h2.8c0.2,0,0.4-0.2,0.4-0.4L22,0.2L22,0.2z"/>
	</g>
	<g id="XMLID_16921_">
		<path id="XMLID_16922_" class="st0" d="M30,0.2h-3.5v0.9c0,0.2,0.2,0.4,0.4,0.4h2.8c0.2,0,0.4-0.2,0.4-0.4L30,0.2L30,0.2z"/>
	</g>
	<g id="XMLID_16918_">
		<path id="XMLID_16920_" class="st0" d="M38.1,0.2h-3.5v0.9c0,0.2,0.2,0.4,0.4,0.4h2.8c0.2,0,0.4-0.2,0.4-0.4V0.2H38.1z"/>
	</g>
</g>
<g>
	<path id="XMLID_9273_" class="st6" d="M45,33H3.5c-0.2,0-0.4-0.2-0.4-0.4v-1.2c0-0.2,0.2-0.4,0.4-0.4H45c0.2,0,0.4,0.2,0.4,0.4v1.2
		C45.4,32.8,45.2,33,45,33z M3.5,31.3C3.5,31.3,3.5,31.4,3.5,31.3v1.3l0,0H45l0,0v-1.2l0,0L3.5,31.3L3.5,31.3z"/>
	<g id="XMLID_9259_">
		<g id="XMLID_9267_">
			<path id="XMLID_9272_" class="st6" d="M10.4,0.1h-7c-0.8,0-1.5,0.7-1.5,1.5v27.9h0.4V1.6c0-0.6,0.5-1.1,1-1.2c0,0,0.4,0,0.5,0
				h6.6V0.1z"/>
			<rect id="XMLID_9271_" x="13.9" y="0.1" class="st6" width="4.5" height="0.4"/>
			<rect id="XMLID_9270_" x="22" y="0.1" class="st6" width="4.5" height="0.4"/>
			<rect id="XMLID_9269_" x="30" y="0.1" class="st6" width="4.6" height="0.4"/>
			<path id="XMLID_9268_" class="st6" d="M46.3,0.7C46,0.3,45.6,0,45,0h-7v0.4h7c0.7,0,1.2,0.5,1.2,1.2v28h0.2h0.1h0.1v-28
				C46.6,1.3,46.5,1,46.3,0.7z"/>
		</g>
		<g id="XMLID_9260_">
			<g id="XMLID_9261_">
				<path id="XMLID_9266_" class="st6" d="M10.4,1.2c0,0-6.7,0-6.8,0C3.1,1.2,3.1,1.6,3.1,2v27.5h0.4V2.1c0-0.2-0.1-0.5,0.2-0.6
					c0.2,0,6.8,0,6.8,0L10.4,1.2L10.4,1.2z"/>
				<rect id="XMLID_9265_" x="13.9" y="1.2" class="st6" width="4.5" height="0.4"/>
				<rect id="XMLID_9264_" x="22" y="1.2" class="st6" width="4.5" height="0.4"/>
				<rect id="XMLID_9263_" x="30" y="1.2" class="st6" width="4.6" height="0.4"/>
				<path id="XMLID_9262_" class="st6" d="M44.9,1.2c-0.5,0-1.1,0-1.7,0H38v0.4h6.4c0.1,0,0.4,0,0.5,0c0.2,0.1,0.2,0.4,0.2,0.6v27.5
					h0.4V2C45.4,1.6,45.4,1.3,44.9,1.2z"/>
			</g>
		</g>
	</g>
	<path id="XMLID_9256_" class="st6" d="M48.1,31.3H0.4c-0.2,0-0.4-0.2-0.4-0.4v-1.2c0-0.2,0.2-0.4,0.4-0.4h47.7
		c0.2,0,0.4,0.2,0.4,0.4v1.2C48.4,31.1,48.3,31.3,48.1,31.3z M48.1,29.7H0.4v1.2H48L48.1,29.7L48.1,29.7z"/>
	<g id="XMLID_9253_">
		<g id="XMLID_9254_">
			<path id="XMLID_9255_" class="st6" d="M15.9,18.9c0,1.6-1,3-2.5,3.6c-1.5,0.5-3.2,0.1-4.2-1.2c-1-1.2-1.1-3-0.3-4.3
				s2.4-2.1,4-1.8C14.7,15.5,15.9,17.1,15.9,18.9c0,0.3,0.4,0.3,0.4,0c0-1.7-1.1-3.3-2.7-3.9c-1.6-0.6-3.6-0.1-4.7,1.3
				c-1.1,1.3-1.2,3.3-0.3,4.8s2.7,2.3,4.4,2c2-0.4,3.4-2.1,3.4-4.1C16.3,18.6,15.9,18.6,15.9,18.9z"/>
		</g>
	</g>
	<g id="XMLID_9250_">
		<g id="XMLID_9251_">
			<path id="XMLID_9252_" class="st6" d="M24,18.9c0,1.6-1,3-2.5,3.6c-1.5,0.5-3.2,0.1-4.2-1.2c-1-1.2-1.1-3-0.3-4.3s2.4-2.1,4-1.8
				C22.7,15.5,24,17.1,24,18.9c0,0.3,0.4,0.3,0.4,0c0-1.7-1.1-3.3-2.7-3.9c-1.6-0.6-3.6-0.1-4.7,1.3c-1.1,1.3-1.2,3.3-0.3,4.8
				c0.9,1.5,2.7,2.3,4.4,2c2-0.4,3.4-2.1,3.4-4.1C24.4,18.6,24,18.6,24,18.9z"/>
		</g>
	</g>
	<g id="XMLID_9247_">
		<g id="XMLID_9248_">
			<path id="XMLID_9249_" class="st6" d="M32.1,18.9c0,1.6-1,3-2.5,3.6c-1.5,0.5-3.2,0.1-4.2-1.2c-1-1.2-1.1-3-0.3-4.3
				s2.4-2.1,4-1.8C30.8,15.5,32.1,17.1,32.1,18.9c0,0.3,0.4,0.3,0.4,0c0-1.7-1.1-3.3-2.7-3.9c-1.6-0.6-3.6-0.1-4.7,1.3
				c-1.1,1.3-1.2,3.3-0.3,4.8s2.7,2.3,4.4,2c2-0.4,3.4-2.1,3.4-4.1C32.5,18.6,32.1,18.6,32.1,18.9z"/>
		</g>
	</g>
	<g id="XMLID_9244_">
		<g id="XMLID_9245_">
			<path id="XMLID_9246_" class="st6" d="M42.6,18.3c0.2,1.6-0.5,3.1-1.9,3.9s-3.2,0.5-4.4-0.6s-1.5-2.8-0.9-4.3
				c0.6-1.4,2.1-2.3,3.7-2.2C40.9,15.2,42.3,16.6,42.6,18.3c0,0.3,0.4,0.2,0.4-0.1c-0.3-1.7-1.6-3.1-3.3-3.5s-3.5,0.4-4.4,1.9
				s-0.8,3.4,0.3,4.8s2.9,1.9,4.6,1.4c1.9-0.6,3.1-2.5,2.8-4.5C42.9,18,42.5,18,42.6,18.3z"/>
		</g>
	</g>
	<g id="XMLID_9242_">
		
			<rect id="XMLID_9243_" x="37.1" y="1.4" transform="matrix(0.9903 -0.1387 0.1387 0.9903 -0.7697 5.2522)" class="st6" width="0.4" height="13.5"/>
	</g>
	<g id="XMLID_9240_">
		<rect id="XMLID_9241_" x="28.1" y="1.4" class="st6" width="0.4" height="13.5"/>
	</g>
	<g id="XMLID_9238_">
		<rect id="XMLID_9239_" x="20" y="1.4" class="st6" width="0.4" height="13.5"/>
	</g>
	<g id="XMLID_9236_">
		<rect id="XMLID_9237_" x="12" y="1.4" class="st6" width="0.4" height="13.5"/>
	</g>
	<path id="XMLID_9233_" class="st6" d="M13.7,1.7h-3.1c-0.2,0-0.4-0.2-0.4-0.4V0h3.9v1.2C14.1,1.5,13.9,1.7,13.7,1.7z M10.6,0.4v0.9
		l0,0h3.1l0,0V0.4H10.6z"/>
	<path id="XMLID_9230_" class="st6" d="M21.8,1.7h-3.1c-0.2,0-0.4-0.2-0.4-0.4V0h3.9v1.2C22.2,1.5,22,1.7,21.8,1.7z M18.6,0.4v0.9
		l0,0h3.1l0,0V0.4H18.6z"/>
	<path id="XMLID_9227_" class="st6" d="M29.8,1.7h-3.1c-0.2,0-0.4-0.2-0.4-0.4V0h3.9v1.2C30.2,1.5,30,1.7,29.8,1.7z M26.7,0.4v0.9
		l0,0h3.1l0,0V0.4H26.7z"/>
	<path id="XMLID_9224_" class="st6" d="M37.9,1.7h-3.1c-0.2,0-0.4-0.2-0.4-0.4V0h3.9v1.2C38.3,1.5,38.1,1.7,37.9,1.7z M34.8,0.4v0.9
		l0,0h3.1l0,0V0.4H34.8z"/>
</g>
</svg>
