<?xml version="1.0" encoding="utf-8"?>
<!-- Generator: Adobe Illustrator 23.0.3, SVG Export Plug-In . SVG Version: 6.00 Build 0)  -->
<svg version="1.1" id="Layer_1" xmlns="http://www.w3.org/2000/svg" xmlns:xlink="http://www.w3.org/1999/xlink" x="0px" y="0px"
	 viewBox="0 0 34.3 62.2" style="enable-background:new 0 0 34.3 62.2;" xml:space="preserve">
<style type="text/css">
	.st0{fill:#57BED7;}
	.st1{fill:#3F74C4;}
</style>
<rect id="XMLID_15687_" x="1.6" y="5.1" class="st0" width="32.7" height="48.6"/>
<path class="st1" d="M31.1,0H3.2C1.4,0,0,1.5,0,3.2v2.4v49.6V59c0,1.8,1.5,3.2,3.2,3.2h27.9c1.7,0,3.1-1.4,3.2-3.2V3.2
	C34.3,1.4,32.8,0,31.1,0z M0.9,6h32.5v48.8H0.9V6z M3.2,0.9h27.9c1.3,0,2.3,1,2.3,2.3v2H0.9v-2C0.9,1.9,1.9,0.9,3.2,0.9z M31.1,61.3
	H3.2c-1.3,0-2.3-1-2.3-2.3v-3.4h32.5V59C33.4,60.3,32.4,61.3,31.1,61.3z M19.3,56.9H15c-0.7,0-1.3,0.6-1.3,1.3s0.6,1.3,1.3,1.3h4.3
	c0.7,0,1.3-0.6,1.3-1.3S20,56.9,19.3,56.9z M19.3,58.7H15c-0.3,0-0.5-0.2-0.5-0.5s0.2-0.5,0.5-0.5h4.3c0.3,0,0.5,0.2,0.5,0.5
	S19.6,58.7,19.3,58.7z"/>
</svg>
