<?xml version="1.0" encoding="utf-8"?>
<!-- Generator: Adobe Illustrator 23.0.3, SVG Export Plug-In . SVG Version: 6.00 Build 0)  -->
<svg version="1.1" id="Layer_1" xmlns="http://www.w3.org/2000/svg" xmlns:xlink="http://www.w3.org/1999/xlink" x="0px" y="0px"
	 viewBox="0 0 37.8 49.5" style="enable-background:new 0 0 37.8 49.5;" xml:space="preserve">
<style type="text/css">
	.st0{fill:#57595B;}
	.st1{fill:#BCBEC0;}
	.st2{fill:#1F191A;}
</style>
<g id="XMLID_15800_">
	<path id="XMLID_15819_" class="st0" d="M33.7,13.6c0,0.4-0.3,0.7-0.7,0.7H5.6c-0.4,0-0.7-0.3-0.7-0.7V6.7C4.9,6.3,5.2,6,5.6,6H33
		c0.4,0,0.7,0.3,0.7,0.7V13.6z"/>
	<path id="XMLID_15801_" class="st1" d="M36,1.2H2.5c-0.8,0-1.4,0.6-1.4,1.4v45c0,0.8,0.6,1.4,1.4,1.4H36c0.8,0,1.4-0.6,1.4-1.4v-45
		C37.5,1.8,36.8,1.2,36,1.2z M10.3,44.8c0,0.3-0.3,0.6-0.6,0.6H5.4c-0.3,0-0.6-0.3-0.6-0.6v-4.2c0-0.3,0.3-0.6,0.6-0.6h4.3
		c0.3,0,0.6,0.3,0.6,0.6C10.3,40.6,10.3,44.8,10.3,44.8z M10.3,37.6c0,0.3-0.3,0.6-0.6,0.6H5.4c-0.3,0-0.6-0.3-0.6-0.6v-4.2
		c0-0.3,0.3-0.6,0.6-0.6h4.3c0.3,0,0.6,0.3,0.6,0.6C10.3,33.4,10.3,37.6,10.3,37.6z M10.3,30.3c0,0.3-0.3,0.6-0.6,0.6H5.4
		c-0.3,0-0.6-0.3-0.6-0.6v-4.2c0-0.3,0.3-0.6,0.6-0.6h4.3c0.3,0,0.6,0.3,0.6,0.6C10.3,26.1,10.3,30.3,10.3,30.3z M10.3,23.1
		c0,0.3-0.3,0.6-0.6,0.6H5.4c-0.3,0-0.6-0.3-0.6-0.6v-4.2c0-0.3,0.3-0.6,0.6-0.6h4.3c0.3,0,0.6,0.3,0.6,0.6
		C10.3,18.9,10.3,23.1,10.3,23.1z M18.1,44.8c0,0.3-0.3,0.6-0.6,0.6h-4.3c-0.3,0-0.6-0.3-0.6-0.6v-4.2c0-0.3,0.3-0.6,0.6-0.6h4.3
		c0.3,0,0.6,0.3,0.6,0.6V44.8z M18.1,37.6c0,0.3-0.3,0.6-0.6,0.6h-4.3c-0.3,0-0.6-0.3-0.6-0.6v-4.2c0-0.3,0.3-0.6,0.6-0.6h4.3
		c0.3,0,0.6,0.3,0.6,0.6V37.6z M18.1,30.3c0,0.3-0.3,0.6-0.6,0.6h-4.3c-0.3,0-0.6-0.3-0.6-0.6v-4.2c0-0.3,0.3-0.6,0.6-0.6h4.3
		c0.3,0,0.6,0.3,0.6,0.6V30.3z M18.1,23.1c0,0.3-0.3,0.6-0.6,0.6h-4.3c-0.3,0-0.6-0.3-0.6-0.6v-4.2c0-0.3,0.3-0.6,0.6-0.6h4.3
		c0.3,0,0.6,0.3,0.6,0.6V23.1z M25.9,44.8c0,0.3-0.3,0.6-0.6,0.6H21c-0.3,0-0.6-0.3-0.6-0.6v-4.2c0-0.3,0.3-0.6,0.6-0.6h4.3
		c0.3,0,0.6,0.3,0.6,0.6V44.8z M25.9,37.6c0,0.3-0.3,0.6-0.6,0.6H21c-0.3,0-0.6-0.3-0.6-0.6v-4.2c0-0.3,0.3-0.6,0.6-0.6h4.3
		c0.3,0,0.6,0.3,0.6,0.6V37.6z M25.9,30.3c0,0.3-0.3,0.6-0.6,0.6H21c-0.3,0-0.6-0.3-0.6-0.6v-4.2c0-0.3,0.3-0.6,0.6-0.6h4.3
		c0.3,0,0.6,0.3,0.6,0.6V30.3z M25.9,23.1c0,0.3-0.3,0.6-0.6,0.6H21c-0.3,0-0.6-0.3-0.6-0.6v-4.2c0-0.3,0.3-0.6,0.6-0.6h4.3
		c0.3,0,0.6,0.3,0.6,0.6V23.1z M33.7,44.8c0,0.3-0.3,0.6-0.6,0.6h-4.3c-0.3,0-0.6-0.3-0.6-0.6V33.4c0-0.3,0.3-0.6,0.6-0.6h4.3
		c0.3,0,0.6,0.3,0.6,0.6V44.8z M33.7,30.3c0,0.3-0.3,0.6-0.6,0.6h-4.3c-0.3,0-0.6-0.3-0.6-0.6v-4.2c0-0.3,0.3-0.6,0.6-0.6h4.3
		c0.3,0,0.6,0.3,0.6,0.6V30.3z M33.7,23.1c0,0.3-0.3,0.6-0.6,0.6h-4.3c-0.3,0-0.6-0.3-0.6-0.6v-4.2c0-0.3,0.3-0.6,0.6-0.6h4.3
		c0.3,0,0.6,0.3,0.6,0.6V23.1z M33.7,14.6c0,0.4-0.3,0.7-0.7,0.7H5.6c-0.4,0-0.7-0.3-0.7-0.7V5.8c0-0.4,0.3-0.7,0.7-0.7H33
		c0.4,0,0.7,0.3,0.7,0.7V14.6z"/>
</g>
<path id="XMLID_8052_" class="st2" d="M36.1,49.5H1.8c-1,0-1.8-0.8-1.8-1.8V1.8C0,0.8,0.8,0,1.8,0H36c1,0,1.8,0.8,1.8,1.8v45.9
	C37.9,48.7,37.1,49.5,36.1,49.5z M1.8,0.8c-0.6,0-1,0.5-1,1v45.9c0,0.6,0.5,1,1,1H36c0.6,0,1-0.5,1-1V1.8c0-0.6-0.5-1-1-1
	C36,0.8,1.8,0.8,1.8,0.8z M9.3,23.7H4.9c-0.5,0-1-0.4-1-1v-4.3c0-0.5,0.4-1,1-1h4.4c0.5,0,1,0.4,1,1v4.3
	C10.2,23.2,9.8,23.7,9.3,23.7z M4.8,18.2c-0.1,0-0.2,0.1-0.2,0.2v4.3c0,0.1,0.1,0.2,0.2,0.2h4.4c0.1,0,0.2-0.1,0.2-0.2v-4.3
	c0-0.1-0.1-0.2-0.2-0.2H4.8z M17.2,23.7h-4.4c-0.5,0-1-0.4-1-1v-4.3c0-0.5,0.4-1,1-1h4.4c0.5,0,1,0.4,1,1v4.3
	C18.2,23.2,17.7,23.7,17.2,23.7z M12.8,18.2c-0.1,0-0.2,0.1-0.2,0.2v4.3c0,0.1,0.1,0.2,0.2,0.2h4.4c0.1,0,0.2-0.1,0.2-0.2v-4.3
	c0-0.1-0.1-0.2-0.2-0.2H12.8z M25.1,23.7h-4.4c-0.5,0-1-0.4-1-1v-4.3c0-0.5,0.4-1,1-1h4.4c0.5,0,1,0.4,1,1v4.3
	C26.1,23.2,25.7,23.7,25.1,23.7z M20.7,18.2c-0.1,0-0.2,0.1-0.2,0.2v4.3c0,0.1,0.1,0.2,0.2,0.2h4.4c0.1,0,0.2-0.1,0.2-0.2v-4.3
	c0-0.1-0.1-0.2-0.2-0.2H20.7z M33.1,23.7h-4.4c-0.5,0-1-0.4-1-1v-4.3c0-0.5,0.4-1,1-1h4.4c0.5,0,1,0.4,1,1v4.3
	C34,23.2,33.6,23.7,33.1,23.7z M28.6,18.2c-0.1,0-0.2,0.1-0.2,0.2v4.3c0,0.1,0.1,0.2,0.2,0.2H33c0.1,0,0.2-0.1,0.2-0.2v-4.3
	c0-0.1-0.1-0.2-0.2-0.2H28.6z M9.3,31.1H4.9c-0.5,0-1-0.4-1-1v-4.3c0-0.5,0.4-1,1-1h4.4c0.5,0,1,0.4,1,1v4.3
	C10.2,30.6,9.8,31.1,9.3,31.1z M4.8,25.6c-0.1,0-0.2,0.1-0.2,0.2v4.3c0,0.1,0.1,0.2,0.2,0.2h4.4c0.1,0,0.2-0.1,0.2-0.2v-4.3
	c0-0.1-0.1-0.2-0.2-0.2C9.2,25.6,4.8,25.6,4.8,25.6z M17.2,31.1h-4.4c-0.5,0-1-0.4-1-1v-4.3c0-0.5,0.4-1,1-1h4.4c0.5,0,1,0.4,1,1
	v4.3C18.2,30.6,17.7,31.1,17.2,31.1z M12.8,25.6c-0.1,0-0.2,0.1-0.2,0.2v4.3c0,0.1,0.1,0.2,0.2,0.2h4.4c0.1,0,0.2-0.1,0.2-0.2v-4.3
	c0-0.1-0.1-0.2-0.2-0.2C17.2,25.6,12.8,25.6,12.8,25.6z M25.1,31.1h-4.4c-0.5,0-1-0.4-1-1v-4.3c0-0.5,0.4-1,1-1h4.4c0.5,0,1,0.4,1,1
	v4.3C26.1,30.6,25.7,31.1,25.1,31.1z M20.7,25.6c-0.1,0-0.2,0.1-0.2,0.2v4.3c0,0.1,0.1,0.2,0.2,0.2h4.4c0.1,0,0.2-0.1,0.2-0.2v-4.3
	c0-0.1-0.1-0.2-0.2-0.2C25.1,25.6,20.7,25.6,20.7,25.6z M33.1,31.1h-4.4c-0.5,0-1-0.4-1-1v-4.3c0-0.5,0.4-1,1-1h4.4c0.5,0,1,0.4,1,1
	v4.3C34,30.6,33.6,31.1,33.1,31.1z M28.6,25.6c-0.1,0-0.2,0.1-0.2,0.2v4.3c0,0.1,0.1,0.2,0.2,0.2H33c0.1,0,0.2-0.1,0.2-0.2v-4.3
	c0-0.1-0.1-0.2-0.2-0.2C33,25.6,28.6,25.6,28.6,25.6z M9.3,38.5H4.9c-0.5,0-1-0.4-1-1v-4.3c0-0.5,0.4-1,1-1h4.4c0.5,0,1,0.4,1,1v4.3
	C10.2,38.1,9.8,38.5,9.3,38.5z M4.8,33c-0.1,0-0.2,0.1-0.2,0.2v4.3c0,0.1,0.1,0.2,0.2,0.2h4.4c0.1,0,0.2-0.1,0.2-0.2v-4.3
	c0-0.1-0.1-0.2-0.2-0.2H4.8z M17.2,38.5h-4.4c-0.5,0-1-0.4-1-1v-4.3c0-0.5,0.4-1,1-1h4.4c0.5,0,1,0.4,1,1v4.3
	C18.2,38.1,17.7,38.5,17.2,38.5z M12.8,33c-0.1,0-0.2,0.1-0.2,0.2v4.3c0,0.1,0.1,0.2,0.2,0.2h4.4c0.1,0,0.2-0.1,0.2-0.2v-4.3
	c0-0.1-0.1-0.2-0.2-0.2H12.8z M25.1,38.5h-4.4c-0.5,0-1-0.4-1-1v-4.3c0-0.5,0.4-1,1-1h4.4c0.5,0,1,0.4,1,1v4.3
	C26.1,38.1,25.7,38.5,25.1,38.5z M20.7,33c-0.1,0-0.2,0.1-0.2,0.2v4.3c0,0.1,0.1,0.2,0.2,0.2h4.4c0.1,0,0.2-0.1,0.2-0.2v-4.3
	c0-0.1-0.1-0.2-0.2-0.2H20.7z M33.1,45.9h-4.4c-0.5,0-1-0.4-1-1V33.2c0-0.5,0.4-1,1-1h4.4c0.5,0,1,0.4,1,1v11.7
	C34,45.5,33.6,45.9,33.1,45.9z M28.6,33c-0.1,0-0.2,0.1-0.2,0.2v11.7c0,0.1,0.1,0.2,0.2,0.2H33c0.1,0,0.2-0.1,0.2-0.2V33.2
	c0-0.1-0.1-0.2-0.2-0.2H28.6z M9.3,45.9H4.9c-0.5,0-1-0.4-1-1v-4.3c0-0.5,0.4-1,1-1h4.4c0.5,0,1,0.4,1,1v4.3
	C10.2,45.5,9.8,45.9,9.3,45.9z M4.8,40.4c-0.1,0-0.2,0.1-0.2,0.2v4.3c0,0.1,0.1,0.2,0.2,0.2h4.4c0.1,0,0.2-0.1,0.2-0.2v-4.3
	c0-0.1-0.1-0.2-0.2-0.2H4.8z M17.2,45.9h-4.4c-0.5,0-1-0.4-1-1v-4.3c0-0.5,0.4-1,1-1h4.4c0.5,0,1,0.4,1,1v4.3
	C18.2,45.5,17.7,45.9,17.2,45.9z M12.8,40.4c-0.1,0-0.2,0.1-0.2,0.2v4.3c0,0.1,0.1,0.2,0.2,0.2h4.4c0.1,0,0.2-0.1,0.2-0.2v-4.3
	c0-0.1-0.1-0.2-0.2-0.2H12.8z M25.1,45.9h-4.4c-0.5,0-1-0.4-1-1v-4.3c0-0.5,0.4-1,1-1h4.4c0.5,0,1,0.4,1,1v4.3
	C26.1,45.5,25.7,45.9,25.1,45.9z M20.7,40.4c-0.1,0-0.2,0.1-0.2,0.2v4.3c0,0.1,0.1,0.2,0.2,0.2h4.4c0.1,0,0.2-0.1,0.2-0.2v-4.3
	c0-0.1-0.1-0.2-0.2-0.2H20.7z M32.9,15.1h-28c-0.6,0-1.1-0.5-1.1-1.1V5.1C3.8,4.5,4.3,4,4.9,4h28C33.5,4,34,4.5,34,5.1V14
	C34,14.6,33.5,15.1,32.9,15.1z M5,4.8c-0.2,0-0.3,0.1-0.3,0.3V14c0,0.2,0.1,0.3,0.3,0.3h28c0.2,0,0.3-0.1,0.3-0.3V5.1
	c0-0.2-0.1-0.3-0.3-0.3C33,4.8,5,4.8,5,4.8z"/>
</svg>
