<?xml version="1.0" encoding="utf-8"?>
<!-- Generator: Adobe Illustrator 23.0.3, SVG Export Plug-In . SVG Version: 6.00 Build 0)  -->
<svg version="1.1" id="Layer_1" xmlns="http://www.w3.org/2000/svg" xmlns:xlink="http://www.w3.org/1999/xlink" x="0px" y="0px"
	 viewBox="0 0 34.8 50.6" style="enable-background:new 0 0 34.8 50.6;" xml:space="preserve">
<style type="text/css">
	.st0{fill:#F8D920;}
	.st1{fill:#57595B;}
	.st2{fill:#82AE72;}
	.st3{fill:#1F191A;}
</style>
<g id="XMLID_17683_">
	<path id="XMLID_17684_" class="st0" d="M26.5,50.6H0V0.8h34v42.3C34,47.3,30.6,50.6,26.5,50.6z"/>
</g>
<g id="XMLID_17681_">
	<rect id="XMLID_17682_" x="2.6" y="3.2" class="st1" width="28.9" height="23.8"/>
</g>
<g id="XMLID_17679_">
	<rect id="XMLID_17680_" x="7.8" y="4.9" class="st2" width="18.5" height="20.3"/>
</g>
<g>
	<g id="XMLID_6991_">
		<g id="XMLID_6992_">
			<g id="XMLID_6993_">
				<path id="XMLID_6994_" class="st3" d="M26.9,49.9c-3,0-6,0-8.9,0c-4.7,0-9.5,0-14.2,0c-1.1,0-2.2,0-3.3,0
					c0.1,0.1,0.2,0.2,0.4,0.4c0-5.6,0-11.3,0-16.9c0-8.9,0-17.9,0-26.8c0-2,0-4.1,0-6.1C0.8,0.6,0.7,0.7,0.5,0.9c3.8,0,7.7,0,11.5,0
					c6.1,0,12.1,0,18.2,0c1.4,0,2.8,0,4.2,0c-0.1-0.1-0.2-0.2-0.4-0.4c0,5.8,0,11.6,0,17.3c0,7.8,0,15.5,0,23.3c0,0.6,0,1.3,0,1.9
					C34,46.8,30.7,49.8,26.9,49.9c-0.5,0-0.5,0.7,0,0.7c3.1,0,6-1.9,7.2-4.7c0.5-1.2,0.7-2.5,0.7-3.8c0-2.8,0-5.6,0-8.4
					c0-8.8,0-17.7,0-26.5c0-2.3,0-4.5,0-6.8c0-0.2-0.2-0.4-0.4-0.4c-3.8,0-7.7,0-11.5,0C16.8,0,10.8,0,4.7,0C3.3,0,1.9,0,0.5,0
					C0.3,0,0.1,0.2,0.1,0.4c0,5.6,0,11.3,0,16.9c0,8.9,0,17.9,0,26.8c0,2,0,4.1,0,6.1c0,0.2,0.2,0.4,0.4,0.4c3,0,6,0,8.9,0
					c4.7,0,9.5,0,14.2,0c1.1,0,2.2,0,3.3,0C27.3,50.6,27.3,49.9,26.9,49.9z"/>
			</g>
		</g>
	</g>
	<g id="XMLID_6987_">
		<g id="XMLID_6988_">
			<g id="XMLID_6989_">
				<path id="XMLID_6990_" class="st3" d="M31.9,26.3c-3.3,0-6.5,0-9.8,0c-5.2,0-10.3,0-15.5,0c-1.2,0-2.4,0-3.6,0
					c0.1,0.1,0.2,0.2,0.4,0.4c0-7,0-13.9,0-20.9c0-1,0-1.9,0-2.9C3.3,3,3.2,3.1,3,3.3c3.3,0,6.5,0,9.8,0c5.2,0,10.3,0,15.5,0
					c1.2,0,2.4,0,3.6,0c-0.1-0.1-0.2-0.2-0.4-0.4c0,7,0,13.9,0,20.9c0,1,0,1.9,0,2.9c0,0.5,0.7,0.5,0.7,0c0-7,0-13.9,0-20.9
					c0-1,0-1.9,0-2.9c0-0.2-0.2-0.4-0.4-0.4c-3.3,0-6.5,0-9.8,0c-5.2,0-10.3,0-15.5,0c-1.2,0-2.4,0-3.6,0c-0.2,0-0.4,0.2-0.4,0.4
					c0,7,0,13.9,0,20.9c0,1,0,1.9,0,2.9c0,0.2,0.2,0.4,0.4,0.4c3.3,0,6.5,0,9.8,0c5.2,0,10.3,0,15.5,0c1.2,0,2.4,0,3.6,0
					C32.3,27,32.3,26.3,31.9,26.3z"/>
			</g>
		</g>
	</g>
	<g id="XMLID_6983_">
		<g id="XMLID_6984_">
			<g id="XMLID_6985_">
				<path id="XMLID_6986_" class="st3" d="M26.7,24.8c-5.4,0-10.8,0-16.2,0c-0.8,0-1.5,0-2.3,0c0.1,0.1,0.2,0.2,0.4,0.4
					c0-5.9,0-11.9,0-17.8c0-0.8,0-1.7,0-2.5C8.5,5,8.4,5.1,8.2,5.3c5.4,0,10.8,0,16.2,0c0.8,0,1.5,0,2.3,0c-0.1-0.1-0.2-0.2-0.4-0.4
					c0,5.9,0,11.9,0,17.8c0,0.8,0,1.7,0,2.5c0,0.5,0.7,0.5,0.7,0c0-5.9,0-11.9,0-17.8c0-0.8,0-1.7,0-2.5c0-0.2-0.2-0.4-0.4-0.4
					c-5.4,0-10.8,0-16.2,0c-0.8,0-1.5,0-2.3,0c-0.2,0-0.4,0.2-0.4,0.4c0,5.9,0,11.9,0,17.8c0,0.8,0,1.7,0,2.5c0,0.2,0.2,0.4,0.4,0.4
					c5.4,0,10.8,0,16.2,0c0.8,0,1.5,0,2.3,0C27.1,25.5,27.1,24.8,26.7,24.8z"/>
			</g>
		</g>
	</g>
	<g id="XMLID_4_">
		<g id="XMLID_6978_">
			<g id="XMLID_6979_">
				<path id="XMLID_6980_" class="st3" d="M8.7,45.6c-3.9,0-7-3.1-7-7s3.1-7,7-7s7,3.1,7,7C15.7,42.4,12.6,45.6,8.7,45.6z M8.7,32.2
					c-3.5,0-6.3,2.8-6.3,6.3s2.8,6.3,6.3,6.3S15,42,15,38.5C15,35.1,12.2,32.2,8.7,32.2z"/>
			</g>
		</g>
		<g id="XMLID_6973_">
			<g id="XMLID_6974_">
				<path id="XMLID_6975_" class="st3" d="M8.7,36.8c-1.1,0-2-0.9-2-2s0.9-2,2-2s2,0.9,2,2S9.8,36.8,8.7,36.8z M8.7,33.5
					c-0.7,0-1.3,0.6-1.3,1.3c0,0.7,0.6,1.3,1.3,1.3s1.3-0.6,1.3-1.3C10,34.1,9.4,33.5,8.7,33.5z"/>
			</g>
		</g>
		<g id="XMLID_6968_">
			<g id="XMLID_6969_">
				<path id="XMLID_6970_" class="st3" d="M5,40.5c-1.1,0-2-0.9-2-2s0.9-2,2-2s2,0.9,2,2S6.1,40.5,5,40.5z M5,37.3
					c-0.7,0-1.3,0.6-1.3,1.3c0,0.7,0.6,1.3,1.3,1.3s1.3-0.6,1.3-1.3C6.2,37.8,5.7,37.3,5,37.3z"/>
			</g>
		</g>
		<g id="XMLID_6963_">
			<g id="XMLID_6964_">
				<path id="XMLID_6965_" class="st3" d="M8.7,44.3c-1.1,0-2-0.9-2-2s0.9-2,2-2s2,0.9,2,2S9.8,44.3,8.7,44.3z M8.7,41
					c-0.7,0-1.3,0.6-1.3,1.3s0.6,1.3,1.3,1.3S10,43,10,42.3S9.4,41,8.7,41z"/>
			</g>
		</g>
		<g id="XMLID_6958_">
			<g id="XMLID_6959_">
				<path id="XMLID_6960_" class="st3" d="M12.4,40.5c-1.1,0-2-0.9-2-2s0.9-2,2-2s2,0.9,2,2C14.5,39.6,13.6,40.5,12.4,40.5z
					 M12.4,37.3c-0.7,0-1.3,0.6-1.3,1.3c0,0.7,0.6,1.3,1.3,1.3s1.3-0.6,1.3-1.3C13.7,37.8,13.1,37.3,12.4,37.3z"/>
			</g>
		</g>
		<g id="XMLID_5_">
			<g id="XMLID_543_">
				<g id="XMLID_548_">
					<path id="XMLID_549_" class="st3" d="M26.4,43.2c-0.8,0.8-2.2,0.8-3.1,0c-0.8-0.8-0.8-2.2,0-3.1c0.8-0.8,2.2-0.8,3.1,0
						C27.2,41,27.2,42.4,26.4,43.2z M23.6,40.4c-0.7,0.7-0.7,1.8,0,2.5s1.8,0.7,2.5,0s0.7-1.8,0-2.5C25.4,39.7,24.3,39.7,23.6,40.4z
						"/>
				</g>
			</g>
			<g id="XMLID_94_">
				<g id="XMLID_174_">
					<path id="XMLID_536_" class="st3" d="M25.9,42.7c-0.6,0.6-1.5,0.6-2,0c-0.6-0.6-0.6-1.5,0-2s1.5-0.6,2,0S26.4,42.1,25.9,42.7z
						 M24.1,40.9c-0.4,0.4-0.4,1.1,0,1.5s1.1,0.4,1.5,0s0.4-1.1,0-1.5C25.2,40.5,24.5,40.5,24.1,40.9z"/>
				</g>
			</g>
			<g id="XMLID_42_">
				<g id="XMLID_90_">
					<path id="XMLID_91_" class="st3" d="M31.4,38.1c-0.8,0.8-2.2,0.8-3.1,0c-0.8-0.8-0.8-2.2,0-3.1c0.8-0.8,2.2-0.8,3.1,0
						C32.3,35.9,32.3,37.3,31.4,38.1z M28.6,35.3c-0.7,0.7-0.7,1.8,0,2.5c0.7,0.7,1.8,0.7,2.5,0c0.7-0.7,0.7-1.8,0-2.5
						C30.5,34.6,29.3,34.6,28.6,35.3z"/>
				</g>
			</g>
			<g id="XMLID_6_">
				<g id="XMLID_7_">
					<path id="XMLID_8_" class="st3" d="M30.9,37.6c-0.6,0.6-1.5,0.6-2,0c-0.6-0.6-0.6-1.5,0-2c0.6-0.6,1.5-0.6,2,0
						C31.5,36.1,31.5,37.1,30.9,37.6z M29.2,35.8c-0.4,0.4-0.4,1.1,0,1.5s1.1,0.4,1.5,0c0.4-0.4,0.4-1.1,0-1.5
						C30.3,35.4,29.6,35.4,29.2,35.8z"/>
				</g>
			</g>
		</g>
	</g>
</g>
</svg>
