<?xml version="1.0" encoding="utf-8"?>
<!-- Generator: Adobe Illustrator 23.0.3, SVG Export Plug-In . SVG Version: 6.00 Build 0)  -->
<svg version="1.1" id="Layer_1" xmlns="http://www.w3.org/2000/svg" xmlns:xlink="http://www.w3.org/1999/xlink" x="0px" y="0px"
	 viewBox="0 0 31.6 51.6" style="enable-background:new 0 0 31.6 51.6;" xml:space="preserve">
<style type="text/css">
	.st0{fill:#F65959;}
	.st1{fill:#D0D3D4;}
	.st2{fill:#80ADE4;}
	.st3{fill:#1F191A;}
</style>
<g id="XMLID_15277_">
	<path id="XMLID_15278_" class="st0" d="M24.1,31.6c0,0.7-0.6,1.2-1.4,1.2s-1.4-0.5-1.4-1.2s0.6-1.2,1.4-1.2
		C23.5,30.4,24.1,30.9,24.1,31.6z"/>
</g>
<g>
	<path class="st1" d="M21.6,48.4c0.1-0.1-0.1-0.3-0.3-0.3h-4.6V25.2h-1.5v22.9h-4.5c-0.2,0-0.4,0.2-0.4,0.3v0.9h11.3V48.4z"/>
	<path class="st1" d="M28,49.4H4c-0.4,0-0.6,0.2-0.6,0.5v0.5c0,0.3,0.3,0.5,0.6,0.5h24c0.3,0,0.6-0.3,0.6-0.5v-0.5
		C28.6,49.6,28.3,49.4,28,49.4z"/>
</g>
<g id="XMLID_15270_">
	<polygon id="XMLID_15272_" class="st2" points="31.1,24.7 0.1,24.7 4.1,0.2 27.1,0.2 	"/>
</g>
<path class="st3" d="M30.2,16.4C29.5,12,28.8,7.6,28,3.2c-0.2-1-0.3-2-0.5-3c0-0.1-0.1-0.2-0.2-0.2c-2.6,0-5.2,0-7.8,0
	c-4.1,0-8.2,0-12.4,0C6.2,0,5.2,0,4.3,0C4.2,0,4.1,0.1,4.1,0.2C3.6,3,3.2,5.7,2.7,8.5C2,12.9,1.3,17.3,0.5,21.7c-0.2,1-0.3,2-0.5,3
	C0,24.8,0.1,25,0.2,25c3.5,0,7,0,10.5,0c1.3,0,2.5,0,3.8,0v23.4c-1.3,0-2.7,0-4,0c-0.3,0-0.6,0-0.8,0.2c-0.2,0.3-0.1,0.8-0.1,1.1
	c-0.9,0-1.7,0-2.6,0c-1.1,0-2.3,0-3.4,0c-0.3,0-0.6,0.1-0.8,0.4c-0.2,0.4-0.1,1.1,0.2,1.3s0.7,0.2,1.1,0.2c4,0,8.1,0,12.1,0
	c3.7,0,7.5,0,11.2,0c0.1,0,0.1,0,0.2,0c0.1,0,0.1,0,0.1-0.1c0.5-0.2,0.6-0.6,0.6-1c0-0.4-0.3-0.8-0.8-0.8c-0.3,0-0.6,0-0.9,0
	c-1.7,0-3.5,0-5.2,0c0,0-0.1,0-0.1,0c0.1-0.4,0.2-1.2-0.5-1.3c-1.4,0-2.9,0-4.3,0V25c2.1,0,4.3,0,6.4,0v5.1c-0.9,0-1.5,0.6-1.5,1.4
	c0,0.8,0.7,1.4,1.6,1.4s1.6-0.6,1.6-1.4c0-0.7-0.5-1.2-1.2-1.4V25c1.3,0,2.6,0,3.9,0c1.3,0,2.6,0,3.8,0c0,0,0,0,0.1-0.1
	c0.1,0.1,0.4,0,0.4-0.2C31.1,21.9,30.7,19.2,30.2,16.4z M24.1,31.5c-0.1,1.3-2.3,1.3-2.3,0C21.8,30.3,24,30.3,24.1,31.5z M24.6,50.2
	c0.7,0,1.3,0,2,0c0.2,0,0.7-0.1,0.9,0c0.1,0,0.3,0.2,0.3,0.3c0.1,0.1,0,0.6-0.3,0.7c-2.9,0-5.7,0-8.6,0c-4.4,0-8.7,0-13.1,0
	c-0.6,0-1.2,0-1.8,0c-0.4,0-0.8,0.1-0.9-0.3c-0.1-0.3,0-0.7,0.4-0.7c0.1,0,0.2,0,0.4,0c0.5,0,1.1,0,1.6,0c4.3,0,8.6,0,12.9,0
	C20.5,50.2,22.5,50.2,24.6,50.2z M20.7,48.8c0.3,0.1,0.3,0.6,0.2,0.9c-3.2,0-6.5,0-9.7,0c-0.4,0-0.8,0-1.2,0c0-0.3,0-0.8,0.2-0.9
	c0.1,0,0.3,0,0.4,0c0.8,0,1.5,0,2.3,0c2.1,0,4.2,0,6.3,0C19.7,48.8,20.1,48.8,20.7,48.8z M16,48.4c-0.3,0-0.7,0-1,0V25
	c0.3,0,0.7,0,1,0V48.4z M20.5,24.5c-5.5,0-11.1,0-16.6,0c-1.2,0-2.4,0-3.5,0c0.5-2.7,0.9-5.3,1.3-8c0.7-4.4,1.4-8.8,2.2-13.2
	c0.2-0.9,0.3-1.9,0.5-2.8c2.5,0,5.1,0,7.6,0c4.1,0,8.2,0,12.4,0c0.8,0,1.8,0,2.6,0c0.5,2.7,0.9,5.4,1.4,8.1
	c0.7,4.4,1.4,8.8,2.2,13.2c0.2,0.9,0.3,1.8,0.5,2.7c0,0,0,0-0.1,0C27.5,24.5,24,24.5,20.5,24.5z"/>
</svg>
