<?xml version="1.0" encoding="utf-8"?>
<!-- Generator: Adobe Illustrator 23.0.3, SVG Export Plug-In . SVG Version: 6.00 Build 0)  -->
<svg version="1.1" id="Layer_1" xmlns="http://www.w3.org/2000/svg" xmlns:xlink="http://www.w3.org/1999/xlink" x="0px" y="0px"
	 viewBox="0 0 36.6 37.4" style="enable-background:new 0 0 36.6 37.4;" xml:space="preserve">
<style type="text/css">
	.st0{fill:#24CDDB;}
	.st1{fill:#1F89D9;}
</style>
<path class="st0" d="M6.3,35.2c-2.3,0-4.1-1.9-4.1-4.1v-2.5c0-2.3,1.9-4.1,4.1-4.1h1.1v10.8L6.3,35.2L6.3,35.2z M10.2,35.9
	c0,0.7-0.5,1.2-1.2,1.2l0,0c-0.7,0-1.2-0.5-1.2-1.2V24.6c0-0.7,0.5-1.2,1.2-1.2l0,0c0.7,0,1.2,0.5,1.2,1.2V35.9z M0.4,27.4H2V33H0.4
	V27.4z M30.6,36.1c2.3,0,4.2-1.9,4.2-4.2v-2.5c0-2.3-1.9-4.2-4.2-4.2h-1.1V36L30.6,36.1L30.6,36.1z M26.8,35.9
	c0,0.7,0.5,1.2,1.2,1.2l0,0c0.7,0,1.2-0.5,1.2-1.2V24.6c0-0.7-0.5-1.2-1.2-1.2l0,0c-0.7,0-1.2,0.5-1.2,1.2V35.9z M35,27.8h1.6v5.6
	H35V27.8z M2,28.2c0-1.7,1-3.3,2.4-4v-7.3c0-1.7,0.3-3.3,0.9-4.9L3,11.1c-0.7,1.8-1.1,3.7-1.1,5.7V30l0,0L2,28.2L2,28.2z M32.6,25.2
	c1.3,0.7,2.3,2,2.4,3.6V18c0-2-0.4-4-1.1-5.7l-2.3,0.9c0.6,1.5,0.9,3.1,0.9,4.9L32.6,25.2L32.6,25.2z"/>
<path id="XMLID_7760_" class="st1" d="M7.6,36.4H6.5c-2.7,0-4.9-2.2-4.9-4.9v-2.8c0-2.7,2.2-4.9,4.9-4.9h1.2c0.1,0,0.2,0.1,0.2,0.2
	v12.1C7.9,36.3,7.8,36.4,7.6,36.4z M6.5,24.3c-2.4,0-4.4,2-4.4,4.4v2.8c0,2.4,2,4.4,4.4,4.4h0.9V24.3H6.5z M8.9,37.4
	c-0.8,0-1.5-0.7-1.5-1.5V24.3c0-0.8,0.7-1.5,1.5-1.5s1.5,0.7,1.5,1.5v11.6C10.4,36.7,9.7,37.4,8.9,37.4z M8.9,23.3c-0.6,0-1,0.5-1,1
	v11.6c0,0.6,0.5,1,1,1c0.6,0,1-0.5,1-1V24.3C9.9,23.8,9.4,23.3,8.9,23.3z M1.8,33.2H0.2C0.1,33.2,0,33.1,0,33v-5.7
	c0-0.1,0.1-0.2,0.2-0.2h1.6c0.1,0,0.2,0.1,0.2,0.2V33C2.1,33.1,2,33.2,1.8,33.2z M0.4,32.8h1.2v-5.3H0.4V32.8z M30.1,36.4h-1.2
	c-0.1,0-0.2-0.1-0.2-0.2V24.1c0-0.1,0.1-0.2,0.2-0.2h1.2c2.7,0,4.9,2.2,4.9,4.9v2.8C35,34.2,32.8,36.4,30.1,36.4z M29.2,35.9h0.9
	c2.4,0,4.4-2,4.4-4.4v-2.8c0-2.4-2-4.4-4.4-4.4h-0.9V35.9z M27.7,37.4c-0.8,0-1.5-0.7-1.5-1.5V24.3c0-0.8,0.7-1.5,1.5-1.5
	s1.5,0.7,1.5,1.5v11.6C29.2,36.7,28.5,37.4,27.7,37.4z M27.7,23.3c-0.6,0-1,0.5-1,1v11.6c0,0.6,0.5,1,1,1c0.6,0,1-0.5,1-1V24.3
	C28.7,23.8,28.2,23.3,27.7,23.3z M36.4,33.2h-1.6c-0.1,0-0.2-0.1-0.2-0.2v-5.7c0-0.1,0.1-0.2,0.2-0.2h1.6c0.1,0,0.2,0.1,0.2,0.2V33
	C36.6,33.1,36.5,33.2,36.4,33.2z M35,32.8h1.2v-5.3H35V32.8z M5.9,12.7C5.9,12.7,5.8,12.7,5.9,12.7l-3.7-1.4c-0.1,0-0.1-0.1-0.1-0.1
	c0-0.1,0-0.1,0-0.2c1.2-3.1,3.3-5.8,6.1-7.8s6.2-3.1,9.6-3.2c0.2,0,0.3,0,0.5,0c3.3,0,6.6,1,9.3,2.7c2.9,1.8,5.1,4.4,6.5,7.5
	c0.1,0.3,0.3,0.6,0.4,0.9c0,0.1,0,0.3-0.1,0.3l-3.6,1.4c-0.1,0-0.1,0-0.2,0s-0.1-0.1-0.1-0.1c-0.1-0.2-0.2-0.5-0.3-0.7
	c-1-2.3-2.8-4.3-4.9-5.6c-2.2-1.4-4.8-2.1-7.4-2s-5.1,0.9-7.2,2.4c-2,1.5-3.7,3.6-4.6,5.9C6.1,12.6,6,12.7,5.9,12.7L5.9,12.7z
	 M2.6,11l3.1,1.2c1-2.3,2.6-4.4,4.6-5.9c2.2-1.6,4.8-2.4,7.5-2.5s5.4,0.7,7.7,2.1c2.2,1.4,4,3.5,5.1,5.8c0.1,0.2,0.1,0.3,0.2,0.5
	l3.1-1.2c-0.1-0.2-0.2-0.5-0.3-0.7c-1.4-3-3.5-5.5-6.3-7.2c-2.7-1.7-5.9-2.7-9-2.7c-0.2,0-0.3,0-0.5,0c-3.3,0.1-6.6,1.2-9.3,3.2
	C5.8,5.5,3.8,8,2.6,11z M1.8,30.9c-0.1,0-0.2-0.1-0.2-0.2V17.2c0-2,0.4-4,1.1-5.9c0-0.1,0.1-0.1,0.1-0.1c0.1,0,0.1,0,0.2,0l2.3,0.9
	c0.1,0,0.2,0.2,0.1,0.3c-0.6,1.6-0.9,3.2-0.9,4.9v7.4c0,0.1,0,0.2-0.1,0.2C2.9,25.7,2,27.2,2,28.8v2C2.1,30.8,2,30.9,1.8,30.9z
	 M3.1,11.7c-0.7,1.8-1,3.6-1,5.5v9.4c0.4-0.9,1.1-1.6,2-2.1v-7.3c0-1.7,0.3-3.3,0.8-4.8L3.1,11.7z M34.7,28.5
	c-0.1,0-0.2-0.1-0.2-0.2c-0.2-1.5-1-2.8-2.4-3.4c-0.1,0-0.1-0.1-0.1-0.2v-7.4c0-1.7-0.3-3.3-0.9-4.9c0-0.1,0-0.3,0.1-0.3l2.3-0.9
	c0.1,0,0.1,0,0.2,0s0.1,0.1,0.1,0.1c0.7,1.9,1.1,3.9,1.1,5.9v11C35,28.4,34.9,28.5,34.7,28.5L34.7,28.5z M32.5,24.5
	c0.9,0.5,1.6,1.2,2,2.1v-9.4c0-1.9-0.3-3.8-1-5.5l-1.9,0.7c0.6,1.5,0.8,3.2,0.8,4.8L32.5,24.5L32.5,24.5z"/>
</svg>
