<?xml version="1.0" encoding="utf-8"?>
<!-- Generator: Adobe Illustrator 23.0.3, SVG Export Plug-In . SVG Version: 6.00 Build 0)  -->
<svg version="1.1" id="Layer_1" xmlns="http://www.w3.org/2000/svg" xmlns:xlink="http://www.w3.org/1999/xlink" x="0px" y="0px"
	 viewBox="0 0 51 41" style="enable-background:new 0 0 51 41;" xml:space="preserve">
<style type="text/css">
	.st0{fill:#3E50B4;}
</style>
<path class="st0" d="M42.5,16.2c-0.4-0.1-0.8,0.1-1,0.5c-0.8-3-2.3-5.4-4.4-7.2c0-0.3-0.3-0.7-0.6-0.6l0,0c-1.7-1.3-3.6-2.4-5.8-3
	c0.2-1.9-0.1-4.2-1.9-5.2c-0.6-0.4-1.4-0.5-2.1-0.4c-1.3-0.5-2.9-0.4-4.1,0.2c-1,0.4-1.8,1.3-2.2,2.3c-0.7,0.9-0.8,2-0.6,3.1
	c-4.8,1.5-9.5,4.9-9.3,9.7c-1.3-0.7-4.1,0.6-4.9,0.9c-3.2,1.2-4.9,3.5-5.5,6.8c-0.8,4,2.2,6.5,5.9,8.3c0,0.1,0,0.1,0.1,0.2
	c6,8.4,31.2,14.6,35.9,1.9c2.3-0.9,4.4-2,6.2-3.5C54.7,24.5,48.7,17.8,42.5,16.2z M36,10.8c1.1,1,2,2.3,2.7,3.6c-0.1,0-0.1,0-0.2,0
	c-1.3,0.4-2.7,0.5-3.2-1.1C35,12.4,35.4,11.5,36,10.8z M16.5,9.2c0,0.1,0,0.2,0.1,0.3c1.5,2.8-1.1,5.6-3.9,5.1
	C13.2,12.2,14.6,10.4,16.5,9.2z M12.3,18.1c0-0.9,0-1.7,0.1-2.5c4.1,1.3,7.9-3.2,5.7-7c0-0.1-0.1-0.1-0.2-0.2
	c0.8-0.4,1.6-0.7,2.4-0.9c0.1,0.2,0.2,0.3,0.2,0.5c0.2,0.4,0.9,0.4,1.2,0c0.5,0.6,1.1,1.1,2,1.3c1.7,0.5,4.8-0.1,6.1-1.7
	c0.1,0,0.2-0.1,0.3-0.1c1.8,0.5,3.3,1.4,4.7,2.5c-1.1,1.1-1.6,2.6-1.2,4.1c0.6,2.4,3.3,2.9,5.3,2.2c0.2-0.1,0.3-0.2,0.4-0.3
	c0.4,1,0.7,2,0.9,3.1c-0.1,0-0.1,0-0.2,0.1C31.5,23.3,20.6,22.7,12.3,18.1L12.3,18.1z M8.2,32.4c1.4,0.5,2.7,0.9,4,1.2
	c0,0.1,0,0.1,0,0.2c0.1,0.4,0.1,0.8,0.1,1.2C10.8,34.2,9.4,33.4,8.2,32.4z M13.3,35.5c0-0.5,0.1-1.1,0.1-1.6
	c0.5,0.1,0.9,0.2,1.3,0.3h0.1c0,0.2,0,0.3,0.1,0.5c0.1,0.6,0.2,1.1,0.4,1.6C14.6,36.1,13.9,35.8,13.3,35.5z M15.9,36.6
	c0-0.1,0.1-0.2,0-0.3c-0.2-0.6-0.2-1.2-0.2-1.9c0,0,0,0,0-0.1c0.4,0.1,0.8,0.1,1.2,0.2c0,0.8,0,1.6,0.1,2.3
	C16.6,36.8,16.2,36.7,15.9,36.6z M19.1,37.6c-0.5-0.1-0.9-0.2-1.4-0.4c0-0.8,0.1-1.6,0.1-2.4c0.4,0.1,0.9,0.1,1.4,0.2
	c0,0.3-0.1,0.6-0.1,0.9C19.1,36.4,19.1,37,19.1,37.6z M21.5,36.3c0,0.6,0,1.1,0,1.7c-0.6-0.1-1.1-0.2-1.7-0.3c0-0.5,0.1-1.1,0.1-1.6
	c0-0.3,0.1-0.6,0.2-1c0.5,0.1,1,0.1,1.5,0.2C21.5,35.6,21.5,36,21.5,36.3z M24.3,38.4L24.3,38.4c-0.7,0-1.3-0.1-2-0.2
	c0-0.5,0.1-1,0.1-1.6c0-0.4,0.1-0.8,0.2-1.2c0.6,0.1,1.3,0.1,1.9,0.2c0,0.1,0,0.2,0,0.3C24.5,36.7,24.5,37.6,24.3,38.4z M26.9,36.4
	c-0.1,0.7-0.3,1.3-0.4,2c-0.4,0-0.9,0-1.3,0c0.2-0.8,0.4-1.8,0.4-2.8c0.5,0,1,0,1.4,0.1C27,35.9,27,36.2,26.9,36.4z M30.2,36.5
	c-0.1,0.6-0.4,1.2-0.6,1.7c-0.7,0.1-1.5,0.2-2.3,0.2c0.2-0.6,0.3-1.1,0.5-1.7c0.1-0.3,0.2-0.7,0.3-1c0.7,0,1.5,0,2.2,0
	C30.3,36,30.3,36.2,30.2,36.5z M33.3,35.6c-0.2,0.7-0.5,1.4-0.8,2c-0.6,0.2-1.2,0.3-1.9,0.4c0.4-0.8,0.7-1.6,0.9-2.4
	C32.1,35.6,32.7,35.5,33.3,35.6L33.3,35.6z M35.5,35.2c0,0.5,0,0.9-0.1,1.3c-0.5,0.2-0.9,0.4-1.4,0.6c0.3-0.6,0.6-1.2,0.7-1.8
	C35,35.3,35.2,35.2,35.5,35.2z M36.1,36.2c0.1-0.3,0.1-0.5,0.1-0.8c0-0.1,0-0.2,0-0.3c0.8-0.1,1.5-0.3,2.2-0.5
	C37.8,35.2,37,35.8,36.1,36.2z M48.1,26.8c-1.8,3.6-6.6,4.8-10.1,5.6c-0.6,0.2-1.2,0.3-1.9,0.4c-0.2-0.1-0.4,0-0.5,0.1
	c-7.4,1.3-15.6,0.4-22.7-1.3C6.3,30-4.3,22.7,7.5,17.9c0.1,0,2.3-0.6,3.2-1.3c0.1,0.5,0.3,1.1,0.5,1.6l0,0c-0.1,0.2,0,0.5,0.2,0.6
	c8.1,6.1,20.7,6.1,29.5,1.7c0.2-0.1,0.3-0.2,0.4-0.3c0.4-0.1,0.8-0.3,0.7-0.8c-0.1-0.6-0.2-1.2-0.3-1.7l0,0
	C45.6,19.4,50.6,21.8,48.1,26.8z M26.6,11.2L26.6,11.2c-2.9-1.2-6.1,0.1-6.5,3.4c-0.5,3.7,2.8,6.2,6.2,6.4c3,0.2,5.5-2.2,5.7-5.2
	C32.1,13.5,29.2,9.9,26.6,11.2z M26.6,19.3c-2.5,0.2-4.9-1.5-4.9-4.1s2.3-3.7,4.5-3.5c0,0.2,0.1,0.5,0.3,0.7
	c0.7,0.6,1.8,0.5,2.5,1.1c0.7,0.5,1,1.4,1.1,2.2C30.2,17.7,28.5,19.1,26.6,19.3z M11.2,21.2L11.2,21.2c-0.1-0.7-0.7-1-1.3-0.9
	c-0.2-0.1-0.4-0.1-0.6-0.2c-0.2-0.3-0.5-0.6-0.8-0.7c-1.4-0.6-2.5,0.5-2.9,1.8c-0.6,1.7,0,4.2,2.1,4.5c0.4,0.1,0.8,0.1,1.2,0
	c0.4,0.2,0.9,0.2,1.2-0.1c0.1-0.1,0.2-0.2,0.2-0.3c0.6-0.3,1-0.7,1.3-1.3C12.1,22.9,11.8,21.9,11.2,21.2z M20.1,24.8
	c-1.1-0.8-2-0.1-2.5,0.9c-0.2,0-0.4,0.2-0.5,0.6c0,0.1,0,0.2,0.1,0.3c-0.1,0.3-0.2,0.6-0.3,0.8c-0.1,0.4,0.1,0.8,0.5,1
	c0,0,0,0,0,0.1c0.2,0.3,0.4,0.4,0.7,0.5c0.6,0.2,1.3,0.2,1.9,0c0.7-0.1,1.3-0.6,1.4-1.3C21.6,26.6,20.9,25.4,20.1,24.8z M30.8,25.7
	c-0.7-0.3-1.3,0.1-1.5,0.6c-0.4,0.2-0.7,0.4-1.1,0.8c-0.6,0.7-0.9,1.6-0.7,2.5c0.3,1.3,1.7,1.5,2.8,1.4c1.1-0.2,2.1-0.9,2.5-2
	C33.5,27.5,32,26.3,30.8,25.7z M43.1,24.2c-0.2-0.6-0.9-0.7-1.3-0.5c-1.1,0.1-2.3,0.4-2.6,1.5c-0.3,0.9,0.4,1.7,1.1,2.2
	c0.7,0.4,1.7,0.6,2.4,0.1C43.8,26.8,43.6,25.3,43.1,24.2z"/>
</svg>
