<?xml version="1.0" encoding="utf-8"?>
<!-- Generator: Adobe Illustrator 23.0.3, SVG Export Plug-In . SVG Version: 6.00 Build 0)  -->
<svg version="1.1" id="Layer_1" xmlns="http://www.w3.org/2000/svg" xmlns:xlink="http://www.w3.org/1999/xlink" x="0px" y="0px"
	 viewBox="0 0 45.8 39.2" style="enable-background:new 0 0 45.8 39.2;" xml:space="preserve">
<style type="text/css">
	.st0{fill:#35F9EF;}
	.st1{fill:#046A72;}
</style>
<polygon id="XMLID_15256_" class="st0" points="22.4,7.4 29.7,7.4 29.7,16.4 22.3,16.4 "/>
<path class="st1" d="M44.5,7.2c-1-1.1-2.5-1.7-4.1-1.7h-7.5V1c0-0.3-0.2-0.5-0.5-0.5h-5.7c0,0.3,0,0.6,0,0.9l5.2,0.1V6
	c0-0.3,0.2-0.5,0.5-0.5c-0.2,0-0.5,0.2-0.5,0.5v3.5v17.3c0-0.2,0.1-0.3,0.3-0.4c-0.2,0.1-0.3,0.2-0.3,0.5v3.2v0.2v7.8h-31V1.5h24.8
	c0,1.7,0,3.5,0,5.2c-1.2,0-2.3,0-3.5,0c-0.2,0-0.4,0.2-0.4,0.4c-0.1,3.1-0.1,6.3-0.2,9.4c0,0.3,0.2,0.5,0.5,0.5c2.8,0,5.5,0,8.3,0
	c0.1,0,0.2,0,0.3-0.1c0.1-0.1,0.1-0.2,0.1-0.3c0-3.1,0-6.3,0-9.4c0-0.3-0.2-0.5-0.5-0.5c-1.2,0-2.4,0-3.7,0c0-1.7,0-3.5,0-5.2
	c0-0.3,0-0.6,0-0.9c0-0.1,0-0.1,0-0.2c0.1-0.5-0.9-0.5-0.9,0c0,0.1,0,0.1,0,0.2H0.5C0.2,0.6,0,0.8,0,1.1v37.6c0,0.3,0.2,0.5,0.5,0.5
	h31.9c0.3,0,0.5-0.2,0.5-0.5v-7.9h5.4c0,0,0,0,0.1,0c4-0.5,5.1-2.2,5.7-5.2l1.7-14.1C45.9,9.8,45.5,8.3,44.5,7.2z M29.9,7.6
	c0,2.8,0,5.6,0,8.5c-2.4,0-4.9,0-7.3,0c0-2.7,0.1-5.7,0.1-8.5C25.1,7.6,27.5,7.6,29.9,7.6z M32.9,10h4.8c0.9,0,1.9,0.1,2.4,0.7
	c0.4,0.5,0.6,1.2,0.5,2.3l-1.1,10.3c-0.5,2.3-1.1,3.1-3.5,3.1h-3.1V10z M32.4,26.4c-0.1,0-0.1,0-0.2,0
	C32.3,26.4,32.3,26.4,32.4,26.4z M43.2,25.2c-0.6,2.7-1.5,4-4.9,4.5h-5.4v-2.4H36c1.5,0,2.5-0.3,3.2-1c0.7-0.7,1-1.8,1.3-2.8
	l1.1-10.3c0.1-1.4-0.1-2.4-0.8-3.1c-0.8-0.9-2-1-3.1-1h-4.8V6.4h7.5c1.3,0,2.6,0.5,3.4,1.4c0.8,0.9,1.2,2.1,1.1,3.6L43.2,25.2z"/>
</svg>
