<?xml version="1.0" encoding="utf-8"?>
<!-- Generator: Adobe Illustrator 23.0.3, SVG Export Plug-In . SVG Version: 6.00 Build 0)  -->
<svg version="1.1" id="Layer_1" xmlns="http://www.w3.org/2000/svg" xmlns:xlink="http://www.w3.org/1999/xlink" x="0px" y="0px"
	 viewBox="0 0 47 49.7" style="enable-background:new 0 0 47 49.7;" xml:space="preserve">
<style type="text/css">
	.st0{fill:#F65959;}
	.st1{fill:#1F191A;}
	.st2{fill:#FFFFFF;}
</style>
<rect id="XMLID_15752_" x="4" y="9.2" class="st0" width="40.2" height="33.6"/>
<path class="st1" d="M6.8,5.8c-0.7,0-1.3-0.6-1.3-1.3V1.3C5.5,0.6,6.1,0,6.8,0s1.3,0.6,1.3,1.3v3.2C8.1,5.2,7.5,5.8,6.8,5.8z
	 M6.8,0.8C6.5,0.8,6.3,1,6.3,1.3v3.2C6.3,4.8,6.5,5,6.8,5s0.5-0.2,0.5-0.5V1.3C7.3,1,7.1,0.8,6.8,0.8z M11.6,5.8
	c-0.7,0-1.3-0.6-1.3-1.3V1.3c0-0.7,0.6-1.3,1.3-1.3s1.3,0.6,1.3,1.3v3.2C12.8,5.2,12.3,5.8,11.6,5.8z M11.6,0.8
	c-0.3,0-0.5,0.2-0.5,0.5v3.2c0,0.3,0.2,0.5,0.5,0.5s0.5-0.2,0.5-0.5V1.3C12.1,1,11.8,0.8,11.6,0.8z M16.3,5.8
	c-0.7,0-1.3-0.6-1.3-1.3V1.3C15,0.6,15.6,0,16.3,0s1.3,0.6,1.3,1.3v3.2C17.6,5.2,17,5.8,16.3,5.8z M16.3,0.8c-0.3,0-0.5,0.2-0.5,0.5
	v3.2C15.8,4.8,16,5,16.3,5s0.5-0.2,0.5-0.5V1.3C16.8,1,16.6,0.8,16.3,0.8z M21.1,5.8c-0.7,0-1.3-0.6-1.3-1.3V1.3
	c0-0.7,0.6-1.3,1.3-1.3s1.3,0.6,1.3,1.3v3.2C22.3,5.2,21.8,5.8,21.1,5.8z M21.1,0.8c-0.3,0-0.5,0.2-0.5,0.5v3.2
	c0,0.3,0.2,0.5,0.5,0.5s0.5-0.2,0.5-0.5V1.3C21.5,1,21.3,0.8,21.1,0.8z M25.8,5.8c-0.7,0-1.3-0.6-1.3-1.3V1.3c0-0.7,0.6-1.3,1.3-1.3
	s1.3,0.6,1.3,1.3v3.2C27.1,5.2,26.5,5.8,25.8,5.8z M25.8,0.8c-0.3,0-0.5,0.2-0.5,0.5v3.2c0,0.3,0.2,0.5,0.5,0.5s0.5-0.2,0.5-0.5V1.3
	C26.3,1,26.1,0.8,25.8,0.8z M30.6,5.8c-0.7,0-1.3-0.6-1.3-1.3V1.3c0-0.7,0.6-1.3,1.3-1.3s1.3,0.6,1.3,1.3v3.2
	C31.8,5.2,31.3,5.8,30.6,5.8z M30.6,0.8c-0.3,0-0.5,0.2-0.5,0.5v3.2c0,0.3,0.2,0.5,0.5,0.5s0.5-0.2,0.5-0.5V1.3
	C31,1,30.8,0.8,30.6,0.8z M35.3,5.8c-0.7,0-1.3-0.6-1.3-1.3V1.3C34,0.6,34.6,0,35.3,0s1.3,0.6,1.3,1.3v3.2C36.6,5.2,36,5.8,35.3,5.8
	z M35.3,0.8c-0.3,0-0.5,0.2-0.5,0.5v3.2C34.8,4.8,35,5,35.3,5s0.5-0.2,0.5-0.5V1.3C35.8,1,35.6,0.8,35.3,0.8z M40.1,5.8
	c-0.7,0-1.3-0.6-1.3-1.3V1.3c0-0.7,0.6-1.3,1.3-1.3s1.3,0.6,1.3,1.3v3.2C41.3,5.2,40.8,5.8,40.1,5.8z M40.1,0.8
	c-0.3,0-0.5,0.2-0.5,0.5v3.2c0,0.3,0.2,0.5,0.5,0.5s0.5-0.2,0.5-0.5V1.3C40.5,1,40.3,0.8,40.1,0.8z M44,49.7H3
	c-0.2,0-0.4-0.2-0.4-0.4V2.9c0-0.2,0.2-0.4,0.4-0.4h3c0.2,0,0.4,0.2,0.4,0.4v1.6C6.4,4.8,6.6,5,6.9,5s0.5-0.2,0.5-0.5V2.9
	c0-0.2,0.2-0.4,0.4-0.4h3c0.2,0,0.4,0.2,0.4,0.4v1.6c0,0.3,0.2,0.5,0.5,0.5s0.5-0.2,0.5-0.5V2.9c0-0.2,0.2-0.4,0.4-0.4h3
	c0.2,0,0.4,0.2,0.4,0.4v1.6C16,4.8,16.2,5,16.5,5S17,4.8,17,4.5V2.9c0-0.2,0.2-0.4,0.4-0.4h3c0.2,0,0.4,0.2,0.4,0.4v1.6
	C20.8,4.8,21,5,21.3,5s0.5-0.2,0.5-0.5V2.9c0-0.2,0.2-0.4,0.4-0.4h3c0.2,0,0.4,0.2,0.4,0.4v1.6c0,0.3,0.2,0.5,0.5,0.5
	s0.5-0.2,0.5-0.5V2.9c0-0.2,0.2-0.4,0.4-0.4h3c0.2,0,0.4,0.2,0.4,0.4v1.6c0,0.3,0.2,0.5,0.5,0.5s0.5-0.2,0.5-0.5V2.9
	c0-0.2,0.2-0.4,0.4-0.4h3c0.2,0,0.4,0.2,0.4,0.4v1.6c0,0.3,0.2,0.5,0.5,0.5s0.5-0.2,0.5-0.5V2.9c0-0.2,0.2-0.4,0.4-0.4h3
	c0.2,0,0.4,0.2,0.4,0.4v1.6C40,4.8,40.2,5,40.5,5S41,4.8,41,4.5V2.9c0-0.2,0.2-0.4,0.4-0.4h3c0.2,0,0.4,0.2,0.4,0.4v46.4
	C44.4,49.5,44.2,49.7,44,49.7z M3.4,48.9h40.2V3.3h-2.2v1.2c0,0.7-0.6,1.3-1.3,1.3s-1.3-0.6-1.3-1.3V3.3h-2.2v1.2
	c0,0.7-0.6,1.3-1.3,1.3S34,5.2,34,4.5V3.3h-2.2v1.2c0,0.7-0.6,1.3-1.3,1.3s-1.3-0.6-1.3-1.3V3.3H27v1.2c0,0.7-0.6,1.3-1.3,1.3
	s-1.3-0.6-1.3-1.3V3.3h-2.2v1.2c0,0.7-0.6,1.3-1.3,1.3s-1.3-0.6-1.3-1.3V3.3h-2.2v1.2c0,0.7-0.6,1.3-1.3,1.3s-1.3-0.6-1.3-1.3V3.3
	h-2.2v1.2c0,0.7-0.6,1.3-1.3,1.3S10,5.2,10,4.5V3.3H7.8v1.2c0,0.7-0.6,1.3-1.3,1.3S5.2,5.2,5.2,4.5V3.3H3v45.6
	C3,48.9,3.4,48.9,3.4,48.9z M46.5,47.5H44c-0.2,0-0.4-0.2-0.4-0.4V2.9c0-0.2,0.2-0.4,0.4-0.4s0.4,0.2,0.4,0.4L47,47.2
	c0,0.1,0,0.2-0.1,0.3C46.8,47.5,46.6,47.5,46.5,47.5z M44.4,46.7h1.7l-1.7-30.1V46.7z M3,47.5H0.4c-0.1,0-0.2,0-0.3-0.1
	C0,47.3,0,47.2,0,47.1L2.6,2.8c0-0.2,0.2-0.4,0.4-0.4s0.4,0.2,0.4,0.4v44.3C3.4,47.4,3.2,47.5,3,47.5z M0.8,46.7h1.7V16.6L0.8,46.7z
	 M44,43.8H3c-0.2,0-0.4-0.2-0.4-0.4V9.1c0-0.2,0.2-0.4,0.4-0.4h41c0.2,0,0.4,0.2,0.4,0.4v34.3C44.4,43.6,44.2,43.8,44,43.8z M3.4,43
	h40.2V9.5H3.4V43z"/>
<path id="XMLID_7605_" class="st2" d="M20.2,34.4c-0.2,0-0.4,0-0.4,0.2l-2.1,3.3l-2.1-3.3c-0.1-0.1-0.3-0.2-0.4-0.2
	c-0.2,0-0.3,0.2-0.3,0.4v5.1c0,0.2,0.2,0.4,0.4,0.4s0.4-0.2,0.4-0.4v-3.7l1.7,2.7c0.1,0.1,0.2,0.2,0.3,0.2S18,39,18,38.9l1.7-2.7
	v3.7c0,0.2,0.2,0.4,0.4,0.4s0.4-0.2,0.4-0.4v-5.1C20.5,34.6,20.3,34.4,20.2,34.4z M24.6,34.6c-0.1-0.1-0.2-0.2-0.4-0.2
	s-0.2,0.1-0.3,0.2l-2.4,5.1c-0.1,0.2,0,0.4,0.2,0.5s0.4,0,0.5-0.2l0.8-1.7h2.5l0.8,1.7c0.1,0.1,0.2,0.2,0.4,0.2c0.1,0,0.1,0,0.2,0
	c0.2-0.1,0.3-0.3,0.2-0.5L24.6,34.6z M23.4,37.5l0.9-1.8l0.9,1.8H23.4z M32,34.5c-0.2-0.1-0.4-0.1-0.6,0l-2,2.2l-2-2.2
	c-0.1-0.2-0.4-0.2-0.6,0c-0.2,0.1-0.2,0.4,0,0.6l2.2,2.4V40c0,0.2,0.2,0.4,0.4,0.4s0.4-0.2,0.4-0.4v-2.5l2.2-2.4
	C32.2,34.9,32.2,34.6,32,34.5z M17.5,15.2l-2.1,1.2c-0.1,0-0.2,0.1-0.3,0.1c-0.2,0-0.4-0.1-0.4-0.3c-0.1-0.3-0.1-0.6,0.2-0.7
	l2.9-1.7c0.2-0.1,0.6,0,0.7,0.2c0.1,0.1,0.1,0.3,0.1,0.4v13.7c0,0.3-0.2,0.5-0.5,0.5s-0.5-0.2-0.5-0.5V15.2H17.5z M22.5,27.1
	c-0.2-0.2-0.2-0.6,0-0.7c0.2-0.2,0.6-0.2,0.8,0c0.7,0.7,1.7,1.1,2.8,1.1c1,0,2-0.4,2.8-1.2c0.7-0.8,1.1-1.8,1.1-2.8
	s-0.4-2.1-1.1-2.8c-0.8-0.8-1.8-1.1-2.8-1.1s-2,0.4-2.8,1.2c-0.2,0.2-0.6,0.2-0.7,0c-0.1,0-0.1-0.1-0.1-0.2l0,0c0,0,0,0,0-0.1
	c0,0,0-0.1,0-0.2v-0.1l0.7-6c0-0.2,0.1-0.3,0.2-0.4c0.1-0.1,0.2-0.1,0.3-0.1h6.4c0.3,0,0.5,0.2,0.5,0.5s-0.2,0.5-0.5,0.5h-6
	l-0.5,4.4c0.8-0.4,1.6-0.7,2.5-0.7c1.3,0,2.6,0.5,3.5,1.5c1,1,1.5,2.3,1.5,3.6s-0.5,2.6-1.5,3.6s-2.3,1.5-3.6,1.5
	C24.8,28.5,23.5,28,22.5,27.1z M36.2,31.9H10.7c-0.2,0-0.4-0.2-0.4-0.4s0.2-0.4,0.4-0.4h25.5c0.2,0,0.4,0.2,0.4,0.4
	S36.4,31.9,36.2,31.9z"/>
</svg>
