<?xml version="1.0" encoding="utf-8"?>
<!-- Generator: Adobe Illustrator 23.0.3, SVG Export Plug-In . SVG Version: 6.00 Build 0)  -->
<svg version="1.1" id="Capa_1" xmlns="http://www.w3.org/2000/svg" xmlns:xlink="http://www.w3.org/1999/xlink" x="0px" y="0px"
	 viewBox="0 0 60 59.1" style="enable-background:new 0 0 60 59.1;" xml:space="preserve">
<style type="text/css">
	.st0{fill:#52C306;}
	.st1{fill:#388F04;}
	.st2{fill:#EFCE4A;}
</style>
<path class="st0" d="M52.5,46.4c-1.9-3.6-8.9-7.7-8.9-7.7c-1.6-0.9-3.5-1-4.4,0.6c0,0-2.3,2.7-2.9,3.1c-2.6,1.8-5.1,1.7-7.6-0.8
	L23,36l-5.7-5.7c-2.5-2.5-2.5-4.9-0.8-7.6c0.4-0.6,3.1-2.9,3.1-2.9c1.6-0.9,1.5-2.8,0.6-4.4c0,0-4.1-7-7.7-8.9C11,5.7,9.2,6,7.9,7.2
	L5.4,9.7c-8,8-4.1,17.1,4,25.2l7.4,7.4l7.4,7.4c8,8,17.1,12,25.2,4l2.5-2.5C53,49.8,53.3,48,52.5,46.4z"/>
<path class="st1" d="M53.4,46c-2-3.8-9-7.9-9.3-8.1c-1.3-0.7-2.6-1-3.7-0.6c-0.8,0.2-1.5,0.8-2,1.5c-1,1.2-2.3,2.6-2.6,2.9
	c-2.4,1.6-4.3,1.4-6.3-0.6L18,29.5c-2-2-2.2-3.9-0.6-6.3c0.2-0.3,1.6-1.6,2.9-2.6c0.8-0.5,1.3-1.2,1.5-2c0.3-1.1,0.1-2.4-0.7-3.7
	c-0.2-0.3-4.3-7.3-8.1-9.3c-1.9-1-4.3-0.7-5.8,0.9L4.7,9.1c-7.4,7.4-6,16.6,4,26.6l14.7,14.7c4.5,4.5,8.9,7.3,13.1,8.3
	c1.1,0.3,2.2,0.4,3.2,0.4c3.7,0,7.2-1.6,10.3-4.7l2.5-2.5C54,50.2,54.4,47.9,53.4,46z M51.1,50.4l-2.5,2.5c-6.6,6.6-14.6,5.2-23.8-4
	L10.1,34.2C0.9,25-0.5,17,6.1,10.5L8.6,8c0.6-0.6,1.3-0.9,2.1-0.9c0.5,0,0.9,0.1,1.4,0.3c3.3,1.7,7.3,8.5,7.3,8.5
	c0.4,0.8,0.6,1.6,0.5,2.2c-0.1,0.4-0.3,0.6-0.7,0.8L19,19.1c-0.9,0.7-2.9,2.4-3.3,3.1c-0.6,0.9-1,1.8-1.2,2.7
	c-0.7-1.4-1.3-3.1-1.5-4.9c-0.1-0.5-0.5-0.9-1.1-0.9c-0.5,0.1-0.9,0.5-0.9,1.1c0.7,7,6.1,11.5,6.4,11.7h0.1l10.6,10.6l0.1,0.1
	c0,0.1,0.1,0.1,0.1,0.2c0.2,0.2,4.7,4.6,11.6,5.3H40c0.5,0,0.9-0.4,1-0.9s-0.3-1-0.9-1.1c-2.1-0.2-4-0.8-5.5-1.6
	c0.8-0.2,1.5-0.6,2.3-1.1c0.6-0.4,2.3-2.5,3.1-3.3l0.1-0.2c0.2-0.4,0.5-0.6,0.8-0.7c0.6-0.2,1.4,0,2.2,0.5c1.9,1.1,7.1,4.6,8.5,7.3
	C52.2,48.1,52,49.4,51.1,50.4z"/>
<path class="st2" d="M60,32.6c0,0.6-0.4,1-1,1s-1-0.4-1-1C58,15.7,44.3,2,27.4,2c-0.6,0-1-0.4-1-1s0.4-1,1-1C45.4,0,60,14.6,60,32.6
	z M27.4,7c-0.6,0-1,0.4-1,1s0.4,1,1,1C40.4,9,51,19.6,51,32.6c0,0.6,0.4,1,1,1s1-0.4,1-1C53,18.5,41.5,7,27.4,7z M27.4,14
	c-0.6,0-1,0.4-1,1s0.4,1,1,1C36.5,16,44,23.4,44,32.6c0,0.6,0.4,1,1,1s1-0.4,1-1C45.9,22.4,37.6,14,27.4,14z"/>
</svg>
