<?xml version="1.0" encoding="utf-8"?>
<!-- Generator: Adobe Illustrator 22.1.0, SVG Export Plug-In . SVG Version: 6.00 Build 0)  -->
<svg version="1.1" id="Capa_1" xmlns="http://www.w3.org/2000/svg" xmlns:xlink="http://www.w3.org/1999/xlink" x="0px" y="0px"
	 viewBox="0 0 50 50" style="enable-background:new 0 0 50 50;" xml:space="preserve">
<style type="text/css">
	.st0{fill:#F34236;}
</style>
<g>
	<g>
		<path class="st0" d="M50,39.5c0.1,0.8-0.1,1.5-0.7,2.1l-7,7c-0.3,0.4-0.7,0.7-1.2,0.9s-1,0.4-1.5,0.5c0,0-0.1,0-0.3,0
			s-0.4,0-0.7,0c-0.7,0-1.8-0.1-3.3-0.3S32,48.9,29.8,48s-4.6-2.2-7.4-4s-5.7-4.3-8.8-7.4c-2.5-2.4-4.5-4.8-6.1-7s-2.9-4.3-3.9-6.2
			c-1-1.9-1.7-3.6-2.2-5.1s-0.8-2.9-1-4S0,12.2,0,11.6c0-0.6,0.1-1,0.1-1.1C0.2,10,0.3,9.5,0.6,9c0.2-0.5,0.5-0.9,0.9-1.2l7-7
			C9,0.3,9.5,0,10.2,0c0.5,0,0.9,0.1,1.2,0.4c0.4,0.3,0.7,0.6,0.9,1L18,12.1c0.3,0.6,0.4,1.2,0.3,1.9s-0.4,1.2-0.9,1.7l-2.6,2.6
			c-0.1,0.1-0.1,0.2-0.2,0.3s-0.1,0.3-0.1,0.4c0.1,0.7,0.5,1.6,1,2.5c0.4,0.8,1.1,1.9,2,3.1c0.9,1.2,2.1,2.6,3.8,4.2
			c1.6,1.6,3,2.9,4.2,3.8c1.2,0.9,2.3,1.6,3.1,2c0.8,0.4,1.5,0.7,1.9,0.8l0.7,0.1c0.1,0,0.2,0,0.3-0.1c0.2-0.1,0.3-0.1,0.3-0.2
			l3-3.1c0.6-0.6,1.4-0.8,2.2-0.8c0.6,0,1.1,0.1,1.4,0.3h0.1l10.2,6C49.4,38.2,49.8,38.7,50,39.5z"/>
	</g>
</g>
</svg>
