<?xml version="1.0" encoding="utf-8"?>
<!-- Generator: Adobe Illustrator 23.0.3, SVG Export Plug-In . SVG Version: 6.00 Build 0)  -->
<svg version="1.1" id="Layer_1" xmlns="http://www.w3.org/2000/svg" xmlns:xlink="http://www.w3.org/1999/xlink" x="0px" y="0px"
	 viewBox="0 0 512 495.8" style="enable-background:new 0 0 512 495.8;" xml:space="preserve">
<style type="text/css">
	.st0{fill:#4675CF;}
	.st1{fill:#4E8FE3;}
	.st2{fill:#CCA400;}
	.st3{fill:#EEBF00;}
	.st4{fill:#FFEB99;}
</style>
<path class="st0" d="M123,282.3l88.6,88.6L186.3,400l-95.8,95.8l-24.3-66.1L0,405.3l82.2-82.2L123,282.3z M405.5,298.8L299,373.2
	l122.6,122.6l24.3-66.1l66.1-24.3L405.5,298.8z"/>
<path class="st1" d="M146.6,306l44.5,44.5L78.4,463.1L66,429.6L34.5,418L146.6,306z M377.8,318.4L325.4,355l108.5,108.5l12.5-33.8
	l31.2-11.5L377.8,318.4z"/>
<path class="st2" d="M275.4,3.8L275.4,3.8c27.8-9.9,58.8,0.2,75.5,24.5l0,0c8.5,12.3,20.9,21.4,35.2,25.6l0,0
	c28.3,8.4,47.5,34.7,46.7,64.3l0,0c-0.4,14.9,4.4,29.6,13.5,41.4l0,0c18,23.4,18,56,0,79.4l0,0c-9.1,11.9-13.9,26.5-13.5,41.4l0,0
	c0.8,29.5-18.4,55.9-46.7,64.3l0,0c-14.3,4.2-26.8,13.3-35.2,25.6l0,0c-16.7,24.3-47.7,34.4-75.5,24.5l0,0c-14.1-5-29.5-5-43.6,0
	l0,0c-27.8,9.9-58.8-0.2-75.5-24.5l0,0c-8.5-12.3-20.9-21.4-35.2-25.6l0,0c-28.3-8.4-47.5-34.7-46.7-64.3l0,0
	c0.4-14.9-4.4-29.6-13.5-41.4l0,0c-18-23.4-18-56,0-79.4l0,0c9.1-11.9,13.9-26.5,13.5-41.4l0,0c-0.8-29.5,18.4-55.9,46.7-64.3l0,0
	c14.3-4.2,26.8-13.3,35.2-25.6l0,0C173,4,204-6.1,231.8,3.8l0,0C246,8.8,261.3,8.8,275.4,3.8z"/>
<circle class="st3" cx="253.6" cy="199.4" r="154.7"/>
<polygon class="st4" points="237.1,133.9 212.7,133.9 212.7,171.3 237.1,171.3 237.1,275.5 274.5,275.5 274.5,171.3 274.5,133.9 "/>
<path class="st2" d="M188.4,225.9c17.7,17.7,14.2,49.8,14.2,49.8s-32.1,3.4-49.8-14.2c-17.7-17.7-14.2-49.8-14.2-49.8
	S170.7,208.2,188.4,225.9z M369.4,211.7c0,0-32.1-3.4-49.8,14.2c-17.7,17.7-14.2,49.8-14.2,49.8s32.1,3.4,49.8-14.2
	C372.8,243.8,369.4,211.7,369.4,211.7z"/>
</svg>
