<?xml version="1.0" encoding="utf-8"?>
<!-- Generator: Adobe Illustrator 23.0.3, SVG Export Plug-In . SVG Version: 6.00 Build 0)  -->
<svg version="1.1" id="Layer_1" xmlns="http://www.w3.org/2000/svg" xmlns:xlink="http://www.w3.org/1999/xlink" x="0px" y="0px"
	 viewBox="0 0 512 495.7" style="enable-background:new 0 0 512 495.7;" xml:space="preserve">
<style type="text/css">
	.st0{fill:#F63E31;}
	.st1{fill:#C8815C;}
	.st2{fill:#E4B780;}
	.st3{fill:#AD4A38;}
</style>
<rect x="91" class="st0" width="330.1" height="495.7"/>
<path class="st1" d="M32.4,381.3c2.6,3.7,1.7,8.8-2,11.4c-1.4,1-3.1,1.5-4.7,1.5c-2.6,0-5.1-1.2-6.7-3.5C6.6,373,0,352.2,0,330.6
	c0-21.7,6.6-42.5,18.9-60.1c2.6-3.7,7.7-4.6,11.4-2c3.7,2.6,4.6,7.7,2,11.4c-10.5,14.9-16,32.4-16,50.7
	C16.3,348.8,21.9,366.4,32.4,381.3z M57.8,287.8c-3.7-2.6-8.8-1.7-11.4,2c-8.4,12-12.9,26.1-12.9,40.8s4.5,28.8,12.9,40.8
	c1.6,2.3,4.1,3.5,6.7,3.5c1.6,0,3.3-0.5,4.7-1.5c3.7-2.6,4.6-7.7,2-11.4c-6.5-9.2-9.9-20.1-9.9-31.4s3.4-22.2,9.9-31.4
	C62.4,295.4,61.5,290.3,57.8,287.8z M493,270.5c-2.6-3.7-7.7-4.6-11.4-2c-3.7,2.6-4.6,7.7-2,11.4c10.5,14.9,16,32.5,16,50.7
	c0,18.3-5.5,35.8-16,50.7c-2.6,3.7-1.7,8.8,2,11.4c1.4,1,3.1,1.5,4.7,1.5c2.6,0,5.1-1.2,6.7-3.5c12.4-17.7,19-38.5,19-60.1
	C512,308.9,505.4,288.1,493,270.5z M465.6,289.8c-2.6-3.7-7.7-4.6-11.4-2c-3.7,2.6-4.6,7.7-2,11.4c6.5,9.2,9.9,20.1,9.9,31.4
	s-3.4,22.2-9.9,31.4c-2.6,3.7-1.7,8.8,2,11.4c1.4,1,3.1,1.5,4.7,1.5c2.6,0,5.1-1.2,6.7-3.5c8.4-12,12.9-26.1,12.9-40.8
	S474,301.7,465.6,289.8z"/>
<path class="st2" d="M364.8,330.6c0,60.1-48.7,108.8-108.8,108.8s-108.8-48.7-108.8-108.8S195.9,221.8,256,221.8
	S364.8,270.5,364.8,330.6z M256,176.8c33.3,0,60.3-27,60.3-60.3s-27-60.3-60.3-60.3s-60.3,27-60.3,60.3S222.7,176.8,256,176.8z"/>
<path class="st3" d="M228.4,116.5c0-15.2,12.4-27.6,27.6-27.6s27.6,12.4,27.6,27.6s-12.4,27.6-27.6,27.6
	C240.8,144.1,228.4,131.7,228.4,116.5z M256,254.5c-42,0-76.1,34.1-76.1,76.1s34.1,76.1,76.1,76.1s76.1-34.1,76.1-76.1
	S298,254.5,256,254.5z"/>
<path class="st1" d="M256,346.9c-8.9,0-16.3-7.5-16.3-16.3s7.5-16.3,16.3-16.3c8.8,0,16.3,7.5,16.3,16.3S264.9,346.9,256,346.9z"/>
</svg>
