<?xml version="1.0" encoding="utf-8"?>
<!-- Generator: Adobe Illustrator 23.0.3, SVG Export Plug-In . SVG Version: 6.00 Build 0)  -->
<svg version="1.1" id="Capa_1" xmlns="http://www.w3.org/2000/svg" xmlns:xlink="http://www.w3.org/1999/xlink" x="0px" y="0px"
	 viewBox="0 0 57.3 55.6" style="enable-background:new 0 0 57.3 55.6;" xml:space="preserve">
<style type="text/css">
	.st0{fill:#69BC45;}
	.st1{fill:#EDDCC7;}
	.st2{fill:#D75A4A;}
	.st3{fill:#F29C21;}
	.st4{fill:#D6C4B1;}
	.st5{fill:#A34740;}
	.st6{fill:#E18C25;}
	.st7{fill:#5E5E5E;}
</style>
<g>
	<path class="st0" d="M56,16c0-8.8-7.2-16-16-16H16C7.2,0,0,7.2,0,16v14c0,8.5,6.6,15.4,15,15.9V42c0-0.6,0.4-1,1-1s1,0.4,1,1v4v1
		v8.6l1.4-1.4c5.3-5.3,12.4-8.2,19.9-8.2H40c8.8,0,16-7.2,16-16V16z"/>
	<g>
		<polygon class="st1" points="35.8,45.1 35.8,45.1 33.8,52.4 38.5,47.7 		"/>
		<path class="st2" d="M55.1,31.1l-1.2-1.2c-0.8-0.8-2-0.8-2.8,0l-3.6,3.6l2.7,2.7L55.1,31.1z"/>
		
			<rect x="34.8" y="38.7" transform="matrix(0.7071 -0.7071 0.7071 0.7071 -16.1181 42.2726)" class="st3" width="16.4" height="3.7"/>
		<polygon class="st4" points="41.5,50.7 41.5,50.7 38.5,47.7 33.8,52.4 33.7,52.9 		"/>
		<path class="st5" d="M53.1,39.1l3.6-3.6c0.8-0.8,0.8-2,0-2.8l-1.6-1.6l-5,5L53.1,39.1z"/>
		
			<rect x="37.6" y="41.3" transform="matrix(0.7071 -0.7071 0.7071 0.7071 -17.2907 45.1007)" class="st6" width="16.4" height="4.3"/>
		<path class="st7" d="M33,54.6c-0.3,0-0.5-0.1-0.7-0.3c-0.4-0.4-0.4-1,0-1.4l2.2-2.2c0.4-0.4,1-0.4,1.4,0s0.4,1,0,1.4l-2.2,2.2
			C33.5,54.5,33.3,54.6,33,54.6z"/>
	</g>
</g>
</svg>
