<?xml version="1.0" encoding="utf-8"?>
<!-- Generator: Adobe Illustrator 23.0.3, SVG Export Plug-In . SVG Version: 6.00 Build 0)  -->
<svg version="1.1" id="Capa_1" xmlns="http://www.w3.org/2000/svg" xmlns:xlink="http://www.w3.org/1999/xlink" x="0px" y="0px"
	 viewBox="0 0 58 58" style="enable-background:new 0 0 58 58;" xml:space="preserve">
<style type="text/css">
	.st0{fill:#977956;}
	.st1{fill:#8D5538;}
	.st2{fill:#7A6D61;}
	.st3{opacity:0.1;fill:#020202;enable-background:new    ;}
	.st4{fill:#B19046;}
	.st5{fill:#E4C05C;}
</style>
<path class="st0" d="M57,20.4v30c0,1.6-1.1,2.9-2.6,3.3L45,56c-10.5,2.6-21.5,2.6-32,0l-9.4-2.4C2.1,53.3,1,51.9,1,50.4v-30
	C3.6,28.3,11,34,19.8,34H24v-6h10v6h4.2C47,34,54.4,28.3,57,20.4z M22,5.4c0-1.1,1.1-1.9,2.2-1.4c3.1,1.3,6.6,1.3,9.7,0
	c1-0.4,2.2,0.3,2.2,1.4V8h4V5.9C40,2.6,37.4,0,34.1,0H23.9C20.6,0,18,2.6,18,5.9V8h4V5.4z"/>
<path class="st1" d="M0,11v3.2C0,25.2,8.8,34,19.8,34H24h10h4.2c11,0,19.8-8.8,19.8-19.8V11H0z"/>
<path class="st2" d="M28,34v24c0.7,0,1.3,0,2,0V34H28z"/>
<path class="st3" d="M16.6,30.7c-0.1,0-0.1,0-0.2,0c-0.3-0.1-0.7-0.1-1-0.2c-0.5-0.1-0.9-0.7-0.7-1.2c0.1-0.5,0.7-0.8,1.2-0.7
	c0.3,0.1,0.6,0.1,0.9,0.2c0.5,0.1,0.9,0.6,0.8,1.2C17.5,30.4,17.1,30.7,16.6,30.7z M12.1,29c-0.2,0-0.3,0-0.5-0.1
	c-0.3-0.2-0.6-0.3-0.9-0.5c-0.5-0.3-0.6-0.9-0.3-1.4s0.9-0.6,1.4-0.3c0.3,0.2,0.5,0.3,0.8,0.5c0.5,0.3,0.7,0.9,0.4,1.4
	C12.8,28.8,12.4,29,12.1,29z M8.3,26c-0.3,0-0.5-0.1-0.7-0.3c-0.2-0.3-0.5-0.5-0.7-0.8c-0.4-0.4-0.3-1.1,0.1-1.4
	c0.4-0.4,1.1-0.3,1.4,0.1c0.2,0.2,0.4,0.5,0.6,0.7c0.4,0.4,0.4,1,0,1.4C8.7,25.9,8.5,26,8.3,26z M5.5,22c-0.4,0-0.7-0.2-0.9-0.6
	c-0.1-0.3-0.3-0.6-0.4-0.9c-0.2-0.5,0-1.1,0.6-1.3c0.5-0.2,1.1,0,1.3,0.6c0.1,0.3,0.2,0.6,0.4,0.8c0.2,0.5,0,1.1-0.5,1.3
	C5.8,22,5.7,22,5.5,22z M4.1,17.4c-0.5,0-0.9-0.4-1-0.9c0-0.3-0.1-0.7-0.1-1c0-0.6,0.4-1,0.9-1.1c0.5,0,1,0.4,1.1,0.9
	c0,0.3,0.1,0.6,0.1,0.9c0.1,0.5-0.3,1.1-0.9,1.1C4.2,17.4,4.2,17.4,4.1,17.4z M21,31h-0.5c-0.6,0-1-0.4-1-1s0.4-1,1-1H21
	c0.6,0,1,0.4,1,1S21.6,31,21,31z M37.5,31H37c-0.6,0-1-0.4-1-1s0.4-1,1-1h0.5c0.6,0,1,0.4,1,1S38.1,31,37.5,31z M41.4,30.7
	c-0.5,0-0.9-0.3-1-0.8s0.2-1.1,0.8-1.2c0.3-0.1,0.6-0.1,0.9-0.2c0.5-0.1,1.1,0.2,1.2,0.7c0.1,0.5-0.2,1.1-0.7,1.2
	c-0.3,0.1-0.7,0.2-1,0.2C41.5,30.7,41.4,30.7,41.4,30.7z M45.9,29c-0.4,0-0.7-0.2-0.9-0.5c-0.3-0.5-0.1-1.1,0.4-1.4
	c0.3-0.1,0.5-0.3,0.8-0.5c0.5-0.3,1.1-0.2,1.4,0.3c0.3,0.5,0.2,1.1-0.3,1.4c-0.3,0.2-0.6,0.4-0.9,0.5C46.3,29,46.1,29,45.9,29z
	 M49.7,26c-0.2,0-0.5-0.1-0.7-0.3c-0.4-0.4-0.4-1,0-1.4c0.2-0.2,0.4-0.5,0.6-0.7c0.4-0.4,1-0.5,1.4-0.1s0.5,1,0.1,1.4
	c-0.2,0.3-0.4,0.5-0.7,0.8C50.3,25.9,50,26,49.7,26z M52.5,22c-0.1,0-0.3,0-0.4-0.1c-0.5-0.2-0.7-0.8-0.5-1.3
	c0.1-0.3,0.3-0.6,0.4-0.8c0.2-0.5,0.8-0.8,1.3-0.6c0.5,0.2,0.8,0.8,0.6,1.3c-0.1,0.3-0.3,0.6-0.4,0.9C53.2,21.8,52.9,22,52.5,22z
	 M53.9,17.4L53.9,17.4c-0.6-0.1-1-0.6-1-1.1c0-0.3,0.1-0.6,0.1-0.9c0-0.6,0.5-1,1.1-0.9c0.6,0,1,0.5,0.9,1.1c0,0.3-0.1,0.7-0.1,1
	C54.8,17,54.4,17.4,53.9,17.4z M53,53c-0.6,0-1-0.4-1-1v-1c0-0.6,0.4-1,1-1s1,0.4,1,1v1C54,52.6,53.6,53,53,53z M53,48
	c-0.6,0-1-0.4-1-1v-1c0-0.6,0.4-1,1-1s1,0.4,1,1v1C54,47.6,53.6,48,53,48z M53,43c-0.6,0-1-0.4-1-1v-1c0-0.6,0.4-1,1-1s1,0.4,1,1v1
	C54,42.6,53.6,43,53,43z M53,38c-0.6,0-1-0.4-1-1v-1c0-0.6,0.4-1,1-1s1,0.4,1,1v1C54,37.6,53.6,38,53,38z M53,33c-0.6,0-1-0.4-1-1
	v-1c0-0.6,0.4-1,1-1s1,0.4,1,1v1C54,32.6,53.6,33,53,33z M5,52.3c-0.6,0-1-0.4-1-1v-1c0-0.6,0.4-1,1-1s1,0.4,1,1v1
	C6,51.9,5.6,52.3,5,52.3z M5,47.3c-0.6,0-1-0.4-1-1v-1c0-0.6,0.4-1,1-1s1,0.4,1,1v1C6,46.9,5.6,47.3,5,47.3z M5,42.3
	c-0.6,0-1-0.4-1-1v-1c0-0.6,0.4-1,1-1s1,0.4,1,1v1C6,41.9,5.6,42.3,5,42.3z M5,37.3c-0.6,0-1-0.4-1-1v-1c0-0.6,0.4-1,1-1s1,0.4,1,1
	v1C6,36.9,5.6,37.3,5,37.3z M5,32.3c-0.6,0-1-0.4-1-1v-1c0-0.6,0.4-1,1-1s1,0.4,1,1v1C6,31.9,5.6,32.3,5,32.3z"/>
<rect x="26" y="30" class="st4" width="6" height="7.6"/>
<path class="st5" d="M24,11h-8V8h8V11z M34,8v3h8V8H34z M24,20h10v-4H24V20z M24,28h10v11H24V28z M27,33.4c0,0.3,0.3,0.6,0.6,0.6H28
	v2c0,0.6,0.4,1,1,1s1-0.4,1-1v-2h0.4c0.3,0,0.6-0.3,0.6-0.6v-1.9c0-0.3-0.3-0.6-0.6-0.6h-2.9c-0.3,0-0.6,0.3-0.6,0.6v1.9H27z"/>
</svg>
