<?xml version="1.0" encoding="utf-8"?>
<!-- Generator: Adobe Illustrator 23.0.3, SVG Export Plug-In . SVG Version: 6.00 Build 0)  -->
<svg version="1.1" id="Layer_1" xmlns="http://www.w3.org/2000/svg" xmlns:xlink="http://www.w3.org/1999/xlink" x="0px" y="0px"
	 viewBox="0 0 416 501.6" style="enable-background:new 0 0 416 501.6;" xml:space="preserve">
<style type="text/css">
	.st0{fill:#40596B;}
	.st1{fill:#F8B64C;}
	.st2{fill:#FF7058;}
	.st3{fill:#FFD15C;}
	.st4{fill:#CDD6E0;}
	.st5{fill:#F2F2F2;}
</style>
<path class="st0" d="M209.9,24C144.1,24,89.8,77.3,89.8,143.2v267.5h239.3V143.2h1C330.1,77.3,275.8,24,209.9,24z"/>
<polygon class="st1" points="145.2,218.4 209.9,283.2 274.7,218.4 "/>
<path class="st1" d="M286.2,392.9c-51.2,6.3-101.4,6.3-152.6,0c7.3-44.9,7.3-89.9,0-135.8c51.2-6.3,101.4-6.3,152.6,0
	C278.9,303,278.9,348,286.2,392.9z"/>
<polygon class="st1" points="137.8,355.3 209.9,427.4 282,355.3 "/>
<path class="st2" d="M340.5,227.8h-24v-84.6h24c11.5,0,20.9,9.4,20.9,20.9v42.8C361.4,218.4,352,227.8,340.5,227.8z M79.3,227.8h24
	v-84.6h-24c-11.5,0-20.9,9.4-20.9,20.9v42.8C58.4,218.4,67.8,227.8,79.3,227.8z M291.4,355.3H281l-72.1,72.1l-72.1-72.1h-10.4
	C56.4,355.3,0,411.7,0,481.7v19.9h415.9v-19.9C417.9,411.7,361.4,355.3,291.4,355.3z"/>
<path class="st3" d="M269.5,131v-30.3L258.8,131H188v-21.9L175.6,131h-72.3v87.4c0,58.5,48.1,106.6,106.6,106.6
	s106.6-48.1,106.6-106.6V131H269.5z"/>
<path class="st4" d="M352,148.4h-14.6c0-74.2-57.5-134.8-127.5-134.8S82.5,74.2,82.5,148.4H67.9C67.8,65.8,131.6,0,209.9,0
	S352,66.9,352,148.4z M225.6,266.4h-31.3c-8.4,0-14.6,7.3-14.6,14.6v3.1c0,8.4,7.3,14.6,14.6,14.6h31.3c8.4,0,14.6-7.3,14.6-14.6
	V281C240.2,273.8,234,266.4,225.6,266.4z M369.8,159.9h-8.4v53.3h8.4c6.3,0,10.4-4.2,10.4-10.4v-32.4
	C380.3,164,375,159.9,369.8,159.9z M39.6,169.3v32.4c0,6.3,4.2,10.4,10.4,10.4h8.4v-53.3h-8.3C44.8,159.9,39.6,164,39.6,169.3z"/>
<path class="st5" d="M298.8,290.5h-69v-13.6h69c12.5,0,23-10.4,23-23v-26.1h14.6v26.1C336.4,273.8,319.7,290.5,298.8,290.5z"/>
</svg>
