<?xml version="1.0" encoding="utf-8"?>
<!-- Generator: Adobe Illustrator 23.0.3, SVG Export Plug-In . SVG Version: 6.00 Build 0)  -->
<svg version="1.1" id="Capa_1" xmlns="http://www.w3.org/2000/svg" xmlns:xlink="http://www.w3.org/1999/xlink" x="0px" y="0px"
	 viewBox="0 0 324.8 472.5" style="enable-background:new 0 0 324.8 472.5;" xml:space="preserve">
<style type="text/css">
	.st0{fill:#3E50B4;}
</style>
<path class="st0" d="M92.8,0H8.4C3.7,0,0,3.7,0,8.4v406.3c0,4.6,3.7,8.4,8.4,8.4h21.5v24.1h41.4V423h21.5c4.6,0,8.4-3.7,8.4-8.4V8.4
	C101.2,3.7,97.4,0,92.8,0z M50.6,26.4c12,0,21.7,9.7,21.7,21.7s-9.7,21.7-21.7,21.7s-21.7-9.7-21.7-21.7
	C28.9,36.1,38.6,26.4,50.6,26.4z M50.6,398.9c-23.1,0-41.8-18.7-41.8-41.8c0-23.1,18.7-41.8,41.8-41.8s41.8,18.7,41.8,41.8
	C92.4,380.2,73.7,398.9,50.6,398.9z M50.6,291.8c-23.1,0-41.8-18.7-41.8-41.8s18.7-41.8,41.8-41.8s41.8,18.7,41.8,41.8
	C92.4,273.1,73.7,291.8,50.6,291.8z M50.6,184.6c-23.1,0-41.8-18.7-41.8-41.8S27.5,101,50.6,101s41.8,18.7,41.8,41.8
	S73.7,184.6,50.6,184.6z M50.6,34.3c7.6,0,13.8,6.2,13.8,13.8s-6.2,13.8-13.8,13.8s-13.8-6.2-13.8-13.8S43,34.3,50.6,34.3z
	 M6.7,457.3h87.8v15.2H6.7V457.3z M50.6,108.5c-19,0-34.4,15.4-34.4,34.4s15.4,34.4,34.4,34.4S85,161.9,85,142.9
	S69.6,108.5,50.6,108.5z M50.6,159.6c-9.2,0-16.7-7.5-16.7-16.7s7.5-16.7,16.7-16.7s16.7,7.5,16.7,16.7S59.8,159.6,50.6,159.6z
	 M50.6,215.6c-19,0-34.4,15.4-34.4,34.4s15.4,34.4,34.4,34.4S85,269,85,250S69.6,215.6,50.6,215.6z M50.6,266.8
	c-9.2,0-16.7-7.5-16.7-16.7s7.5-16.7,16.7-16.7s16.7,7.5,16.7,16.7S59.8,266.8,50.6,266.8z M50.6,322.8c-19,0-34.4,15.4-34.4,34.4
	s15.4,34.4,34.4,34.4S85,376.2,85,357.2C85,338.2,69.6,322.8,50.6,322.8z M50.6,373.9c-9.2,0-16.7-7.5-16.7-16.7s7.5-16.7,16.7-16.7
	s16.7,7.5,16.7,16.7S59.8,373.9,50.6,373.9z M324.8,414.7V8.4c0-4.6-3.8-8.4-8.4-8.4H232c-4.6,0-8.4,3.7-8.4,8.4v406.3
	c0,4.6,3.7,8.4,8.4,8.4h21.5v24.1h41.4V423h21.5C321.1,423,324.8,419.3,324.8,414.7z M274.2,26.4c12,0,21.7,9.7,21.7,21.7
	s-9.7,21.7-21.7,21.7s-21.7-9.7-21.7-21.7C252.5,36.1,262.3,26.4,274.2,26.4z M274.2,398.9c-23.1,0-41.8-18.7-41.8-41.8
	c0-23.1,18.7-41.8,41.8-41.8S316,334,316,357.1C316,380.2,297.3,398.9,274.2,398.9z M274.2,291.8c-23.1,0-41.8-18.7-41.8-41.8
	s18.7-41.8,41.8-41.8S316,226.9,316,250S297.3,291.8,274.2,291.8z M274.2,184.6c-23.1,0-41.8-18.7-41.8-41.8s18.7-41.8,41.8-41.8
	s41.8,18.7,41.8,41.8S297.3,184.6,274.2,184.6z M274.2,34.2c7.6,0,13.8,6.2,13.8,13.8s-6.2,13.8-13.8,13.8
	c-7.6,0-13.8-6.2-13.8-13.8C260.4,40.4,266.6,34.2,274.2,34.2z M230.3,457.3h87.8v15.2h-87.8V457.3z M274.2,108.5
	c-19,0-34.4,15.4-34.4,34.4s15.4,34.4,34.4,34.4s34.4-15.4,34.4-34.4S293.2,108.5,274.2,108.5z M274.2,159.6
	c-9.2,0-16.7-7.5-16.7-16.7s7.5-16.7,16.7-16.7s16.7,7.5,16.7,16.7C291,152.1,283.5,159.6,274.2,159.6z M274.2,215.6
	c-19,0-34.4,15.4-34.4,34.4s15.4,34.4,34.4,34.4s34.4-15.4,34.4-34.4S293.2,215.6,274.2,215.6z M274.2,266.8
	c-9.2,0-16.7-7.5-16.7-16.7s7.5-16.7,16.7-16.7s16.7,7.5,16.7,16.7C291,259.3,283.5,266.8,274.2,266.8z M274.2,322.8
	c-19,0-34.4,15.4-34.4,34.4s15.4,34.4,34.4,34.4s34.4-15.4,34.4-34.4C308.6,338.2,293.2,322.8,274.2,322.8z M274.2,373.9
	c-9.2,0-16.7-7.5-16.7-16.7s7.5-16.7,16.7-16.7s16.7,7.5,16.7,16.7C291,366.4,283.5,373.9,274.2,373.9z"/>
</svg>
