<?xml version="1.0" encoding="iso-8859-1"?>
<!-- Generator: Adobe Illustrator 19.0.0, SVG Export Plug-In . SVG Version: 6.00 Build 0)  -->
<svg version="1.1" id="Layer_1" xmlns="http://www.w3.org/2000/svg" xmlns:xlink="http://www.w3.org/1999/xlink" x="0px" y="0px" width="100px" height="100px"
	 viewBox="0 0 512 512" style="enable-background:new 0 0 512 512;" xml:space="preserve">
<path style="fill:#FFE14D;" d="M188.885,77.843c-4.268,0-8.536-1.629-11.793-4.887l-33.361-33.361
	c-6.515-6.51-6.515-17.076,0-23.587c6.515-6.515,17.072-6.515,23.587,0l33.361,33.361c6.515,6.51,6.515,17.076,0,23.587
	C197.421,76.214,193.153,77.843,188.885,77.843z"/>
<path style="fill:#FFCC33;" d="M322.33,77.843c-4.268,0-8.536-1.629-11.793-4.887c-6.515-6.51-6.515-17.076,0-23.587l33.361-33.361
	c6.515-6.515,17.072-6.515,23.587,0c6.515,6.51,6.515,17.076,0,23.587l-33.361,33.361C330.866,76.214,326.598,77.843,322.33,77.843z
	"/>
<path style="fill:#FFE14D;" d="M255.608,66.722c-9.209,0-16.681-7.466-16.681-16.681V16.681C238.927,7.466,246.399,0,255.608,0
	s16.681,7.466,16.681,16.681v33.361C272.288,59.256,264.818,66.722,255.608,66.722z"/>
<path style="fill:#FFCC33;" d="M272.288,50.042V16.681C272.288,7.466,264.817,0,255.608,0v66.722
	C264.818,66.722,272.288,59.256,272.288,50.042z"/>
<path style="fill:#FFD9B3;" d="M85.088,499.282c-7.46-2.716-12.125-10.474-10.704-18.568l23.169-131.415
	c1.604-9.072,10.257-15.133,19.325-13.531c8.995,1.576,15.132,10.245,13.538,19.322l-23.169,131.415
	c-1.604,9.072-10.257,15.133-19.325,13.531C86.943,499.864,85.996,499.612,85.088,499.282z"/>
<path style="fill:#FFC080;" d="M130.415,355.089c1.592-9.075-4.543-17.746-13.538-19.322c-0.011-0.002-0.021-0.001-0.032-0.002
	L87.883,500.024c0.013,0.002,0.026,0.009,0.039,0.011c9.068,1.601,17.721-4.459,19.325-13.531L130.415,355.089z"/>
<path style="fill:#FFEFD9;" d="M256.274,217.683l13.258-75.193c1.592-9.075-4.528-17.724-13.538-19.322L58.867,88.408
	c-4.354-0.77-8.842,0.226-12.458,2.763c-3.626,2.534-6.09,6.411-6.865,10.763L26.08,178.29l-5.792,32.852l230.193,39.395
	L256.274,217.683z"/>
<g>
	<path style="fill:#FFD9B3;" d="M135.347,230.832l115.135,19.704l5.792-32.853l13.258-75.193
		c1.592-9.075-4.528-17.724-13.538-19.322l-98.596-17.386L135.347,230.832z"/>
	<path style="fill:#FFD9B3;" d="M421.162,500.413c-7.939,0-14.976-5.696-16.409-13.786l-23.175-131.414
		c-1.597-9.073,4.464-17.728,13.531-19.325c8.992-1.597,17.724,4.453,19.331,13.526l23.175,131.414
		c1.597,9.073-4.464,17.728-13.531,19.325C423.105,500.326,422.128,500.413,421.162,500.413z"/>
</g>
<path style="fill:#FFC080;" d="M414.439,349.413c-1.607-9.073-10.339-15.123-19.331-13.526c-0.011,0.002-0.02,0.007-0.031,0.009
	l28.964,164.259c0.013-0.002,0.027-0.001,0.041-0.003c9.068-1.597,15.128-10.252,13.531-19.325L414.439,349.413z"/>
<path style="fill:#FFEFD9;" d="M485.712,177.247l-13.26-75.193c-1.607-9.073-10.316-15.106-19.331-13.526l-197.127,34.757
	c-4.355,0.765-8.231,3.236-10.762,6.858c-2.541,3.622-3.53,8.107-2.769,12.462l13.463,76.354l5.794,32.852l229.784-41.712
	L485.712,177.247z"/>
<g>
	<path style="fill:#FFD9B3;" d="M376.575,230.962l114.93-20.863l-5.794-32.852l-13.26-75.193
		c-1.607-9.073-10.316-15.106-19.331-13.526l-98.596,17.385L376.575,230.962z"/>
	<path style="fill:#FFD9B3;" d="M355.449,512c-7.939,0-14.976-5.696-16.409-13.792c-1.597-9.073,4.464-17.724,13.531-19.319
		l131.425-23.169c9.013-1.612,17.724,4.447,19.331,13.531c1.597,9.073-4.464,17.724-13.531,19.319L358.37,511.74
		C357.393,511.913,356.415,512,355.449,512z"/>
</g>
<path style="fill:#FFC080;" d="M424.042,500.162l65.753-11.592c9.068-1.597,15.128-10.246,13.531-19.319
	c-1.607-9.084-10.316-15.144-19.331-13.531l-65.746,11.591L424.042,500.162z"/>
<path style="fill:#E6563A;" d="M495.627,233.468l-9.915-56.221l-32.832,5.959l-196.952,35.752l9.711,55.07
	c5.419,30.711,22.469,57.48,48.022,75.366c19.852,13.901,42.983,21.15,66.722,21.15c6.809,0,13.673-0.597,20.525-1.808
	c30.711-5.413,57.48-22.469,75.377-48.017C494.171,295.174,501.035,264.185,495.627,233.468z"/>
<path style="fill:#D9472B;" d="M476.285,320.721c17.886-25.548,24.75-56.536,19.342-87.253l-9.915-56.221l-32.832,5.959
	l-82.097,14.902l30.087,170.633c0.012-0.002,0.024-0.002,0.038-0.004C431.619,363.325,458.388,346.269,476.285,320.721z"/>
<path style="fill:#FFD9B3;" d="M19.375,487.695c-7.46-2.716-12.125-10.474-10.702-18.572c1.604-9.072,10.256-15.128,19.323-13.527
	l131.423,23.178c9.022,1.567,15.134,10.241,13.537,19.326c-1.604,9.072-10.256,15.128-19.323,13.527L22.209,488.449
	C21.231,488.278,20.283,488.025,19.375,487.695z"/>
<path style="fill:#FFC080;" d="M87.88,500.031l65.753,11.596c9.068,1.601,17.719-4.455,19.323-13.527
	c1.597-9.086-4.515-17.759-13.537-19.326l-65.745-11.595L87.88,500.031z"/>
<path style="fill:#E6563A;" d="M246.362,273.906l9.912-56.223l-32.89-5.629L26.082,178.289l-9.709,55.07
	c-5.411,30.712,1.455,61.699,19.348,87.246c13.901,19.852,33.158,34.574,55.465,42.695c6.399,2.329,13.052,4.115,19.906,5.321
	c30.711,5.417,61.699-1.455,87.254-19.34C223.89,331.391,240.939,304.619,246.362,273.906z"/>
<path style="fill:#D9472B;" d="M198.345,349.281c25.545-17.889,42.593-44.662,48.017-75.375l9.912-56.223l-32.89-5.629
	l-82.243-14.075l-30.087,170.634c0.012,0.002,0.023,0.006,0.038,0.009C141.802,374.038,172.79,367.167,198.345,349.281z"/>
<g>
</g>
<g>
</g>
<g>
</g>
<g>
</g>
<g>
</g>
<g>
</g>
<g>
</g>
<g>
</g>
<g>
</g>
<g>
</g>
<g>
</g>
<g>
</g>
<g>
</g>
<g>
</g>
<g>
</g>
</svg>
