<?xml version="1.0" encoding="utf-8"?>
<!-- Generator: Adobe Illustrator 23.0.3, SVG Export Plug-In . SVG Version: 6.00 Build 0)  -->
<svg version="1.1" id="Layer_1" xmlns="http://www.w3.org/2000/svg" xmlns:xlink="http://www.w3.org/1999/xlink" x="0px" y="0px"
	 viewBox="0 0 97 97" style="enable-background:new 0 0 97 97;" xml:space="preserve">
<style type="text/css">
	.st0{fill:#EC5E53;}
	.st1{fill:#3C444F;}
	.st2{fill:#FFFFFF;}
</style>
<rect class="st0" width="97" height="97"/>
<path class="st1" d="M39.3,66.2c-0.7-1-2.1-1.2-3-0.5l-1.2,0.8c-0.5,0.4-0.8,0.9-0.9,1.4L23.8,53.6c0.6,0.2,1.3,0.1,1.8-0.3l1.2-0.8
	c1-0.7,1.2-2,0.5-3L23.4,44c-0.6-0.8-1.7-1.1-2.6-0.7c-0.1,0.1-0.3,0.1-0.4,0.2l-1.2,0.8c-0.7,0.5-1,1.3-0.9,2
	c-0.1,0.1-0.2,0.2-0.3,0.2c-2.7,2.3-3.3,6.4-1.1,9.3l13.2,18.3c1.6,2.3,4.4,3.3,7,2.8c0.4-0.1,1.2-0.3,2.1-0.7
	c0.1,0,0.2-0.1,0.2-0.1l0,0c0.1-0.1,0.2-0.1,0.3-0.2c0.6,0.2,1.3,0.1,1.9-0.3l0.1-0.1l1-0.7c0.5-0.3,0.8-0.8,0.9-1.4
	c0.1-0.6,0-1.2-0.4-1.6L39.3,66.2z"/>
<path class="st2" d="M36,51.9l-2.9,2.6v3.1h15.7v-4.3h-8.4v-0.1l2-1.7c3.2-2.9,5.9-5.8,5.9-9.5c0-4-2.8-6.9-7.8-6.9
	c-3,0-5.6,1-7.3,2.3l1.5,3.7c1.2-0.9,2.8-1.8,4.7-1.8c2.6,0,3.7,1.4,3.7,3.2C43.2,45.1,40.8,47.6,36,51.9z M59.8,35.5L51.4,49v3.4
	h9.8v5.3h4.9v-5.3h2.7v-3.9h-2.7v-13H59.8z M61.3,43.6v4.9h-5v-0.1l3-4.8c0.8-1.4,1.3-2.7,2-4.1h0.1C61.3,40.9,61.3,42.2,61.3,43.6z
	 M71,64.8c3.5-4.9,5.5-10.8,5.5-17.2C76.5,31.2,63.2,18,46.8,18c-2.6,0-5,0.3-7.4,0.9L34.7,18l0.7,2.3c-9.2,3.8-16.1,12.1-17.8,22.2
	l2.7-1c1.1-4.9,3.6-9.4,7.3-13c2.5-2.5,5.4-4.4,8.6-5.8l1,3.1l4.5-4.7c1.7-0.3,3.4-0.5,5.2-0.5c7.3,0,14.1,2.8,19.2,7.9
	s8,11.9,8,19.2c0,5.7-1.7,11.1-5,15.6l-2.3-1.9l-1.1,5.8c-5.1,4.9-11.8,7.6-18.9,7.6c-0.1,0-0.2,0-0.3,0l-1.7,2.4
	c0.7,0,1.4,0.1,2.1,0.1c8.2,0,15.5-3.3,20.9-8.6l5.3-2.1L71,64.8z"/>
</svg>
