<?xml version="1.0" encoding="utf-8"?>
<!-- Generator: Adobe Illustrator 23.0.3, SVG Export Plug-In . SVG Version: 6.00 Build 0)  -->
<svg version="1.1" id="Layer_1" xmlns="http://www.w3.org/2000/svg" xmlns:xlink="http://www.w3.org/1999/xlink" x="0px" y="0px"
	 viewBox="0 0 98.7 98.6" style="enable-background:new 0 0 98.7 98.6;" xml:space="preserve">
<style type="text/css">
	.st0{fill:#F39226;}
	.st1{fill:#DD8028;}
	.st2{fill:#3C454F;}
	.st3{fill:none;}
	.st4{fill:#00B3AB;}
	.st5{fill:#FFFFFF;}
</style>
<g>
	<g>
		<path class="st0" d="M98.7,49.3c0,27.2-22.1,49.3-49.3,49.3C22.1,98.6,0,76.5,0,49.3S22.1,0,49.3,0C76.6-0.1,98.7,22,98.7,49.3z"
			/>
	</g>
</g>
<g>
	<path class="st1" d="M75.4,21.4l-4.1,3.9l-1.5-3.8l-5.6,4.4l-0.6-4.5l-4,3l-0.8-3l-5.6,5.5L46,22l-5.5,4.9l-0.1-5.5l-5.5,5.8
		l-2.4-5.8l-3.9,6.1v-5.9l-2.4,4L24.4,22l-2.3,3.6l-3.9-4.2L2.6,33.5C0.9,38.4,0,43.7,0,49.3c0,20.3,12.3,37.8,29.9,45.3L79.5,67
		L75.4,21.4z"/>
</g>
<path class="st2" d="M40.5,21.4h2.2v34L40.5,57V21.4z M50,67h4.5c-0.9-0.4-1.8-0.8-2.6-1.3L50,67z M58.8,33.2c0.6-0.1,1.3-0.1,2-0.1
	V21.4h-2V33.2z M46.1,41.3c1.1-1.7,2.4-3.2,4-4.5c1.5-1.2,3.3-2.2,5.1-2.8V21.4h-9.1V41.3z M32.5,62.6l4.4-3.1V21.4h-4.4V62.6z
	 M18.7,67h3.6V21.4h-3.6V67z M24.4,67h1.9l0.1-0.1V21.4h-2V67z M27.9,65.9l2-1.4v-43h-2V65.9z M63.6,33.2c0.5,0.1,1,0.2,1.4,0.3
	c0.2,0,0.4,0.1,0.5,0.1V21.4h-2L63.6,33.2L63.6,33.2z M69.8,35.4c1.1,0.6,2.1,1.3,3,2.2V21.4h-3V35.4z M69.8,65.9V67h3v-3.3
	c-0.3,0.3-0.6,0.5-0.9,0.8C71.2,65,70.5,65.5,69.8,65.9z M75.4,21.4v19.1l0,0c2.1,3,3.2,6.5,3.2,10.1c0,1.3-0.2,2.6-0.4,3.9l0,0v0.1
	c-0.5,2.2-1.5,4.2-2.7,6v6.2h4.1V21.4H75.4z"/>
<path class="st3" d="M27.4,78.1c0.6,0,1.3-0.2,1.8-0.6l8.7-5.8c0.9-0.6,1.5-1.7,1.5-2.7c0-0.6-0.2-1.3-0.6-1.8
	c-0.1-0.2-0.3-0.4-0.5-0.6l-13.7,10C25.3,77.6,26.3,78.1,27.4,78.1z"/>
<g>
	<path class="st4" d="M65.5,40.3c-0.6-0.3-1.3-0.5-2-0.6c-0.7-0.2-1.5-0.2-2.3-0.2c-0.2,0-0.3,0-0.5,0c-0.7,0-1.3,0.1-2,0.3
		c-1.3,0.3-2.6,0.9-3.7,1.6c-2.9,2-4.7,5.2-4.7,8.9c0,2.3,0.7,4.4,1.9,6.1l17.6-12.8C68.7,42.2,67.2,41.1,65.5,40.3z"/>
	<path class="st4" d="M70,43.6L52.3,56.4c0.8,1.1,1.8,2,2.9,2.8c1.1,0.7,2.3,1.3,3.7,1.6c0.6,0.1,1.3,0.2,2,0.3c0.2,0,0.3,0,0.5,0
		c0.8,0,1.6-0.1,2.3-0.2c0.7-0.1,1.3-0.4,2-0.6c1.7-0.7,3.1-1.8,4.3-3.3c1.4-1.8,2.3-4.2,2.3-6.7S71.4,45.5,70,43.6z"/>
</g>
<path class="st5" d="M75.4,42.5c-0.4-0.8-0.9-1.5-1.5-2.2l0,0c-0.4-0.6-0.7-1-1.1-1.4c-0.9-0.9-1.9-1.7-3-2.4
	c-1.3-0.8-2.7-1.5-4.3-1.9c-0.3-0.1-0.5-0.2-0.8-0.2c-0.2,0-0.3-0.1-0.5-0.1h-0.1c-0.1,0-0.3-0.1-0.4-0.1h-0.1c0,0,0,0-0.1,0
	s-0.2,0-0.3,0c-0.1,0-0.1,0-0.2,0s-0.2,0-0.3,0c-0.1,0-0.1,0-0.2,0s-0.2,0-0.3,0c-0.1,0-0.1,0-0.2,0s-0.2,0-0.3,0
	c-0.1,0-0.1,0-0.2,0s-0.2,0-0.2,0c-0.1,0-0.1,0-0.2,0c-0.1,0-0.2,0-0.2,0h-0.1c0,0,0,0-0.1,0c-0.7,0-1.3,0.1-2,0.1
	c-1.3,0.2-2.5,0.5-3.7,0.9c-4,1.5-7.3,4.5-9.1,8.5c-0.4,1-0.8,2-1,3c-0.3,1.3-0.4,2.5-0.4,3.8c0,1.4,0.2,2.8,0.5,4.2l0.1,0.3
	l-2.6,1.8l-2.2,1.6l-0.7,0.5l-0.8,0.6l-2,1.4L32.4,64l-2.6,1.9l-1.5,1l-5.6,4c-1.4,1-2.2,2.6-2.2,4.1v0.1c0,1,0.3,2,0.9,2.9l0.4,0.5
	l-0.1,0.1l0.1-0.1c1,1.4,3,2.3,4.6,2.3c1,0,2.1-0.3,3-0.9l0.7-0.5l13.8-9.7l0.7-0.5l3.4-2.4l3.9-2.8l0.3,0.2c1,0.6,2,1.2,3.1,1.6
	c0.7,0.3,1.4,0.5,2.1,0.6c0.5,0.1,1.1,0.2,1.6,0.3c0.2,0,0.5,0.1,0.7,0.1c0.5,0,1,0.1,1.5,0.1c0.9,0,1.7-0.1,2.6-0.2
	c0.7-0.1,1.3-0.3,2-0.4c1.5-0.4,2.9-1.1,4.3-1.9c1.1-0.7,2.1-1.5,3-2.4c1-1,1.9-2.2,2.6-3.5c0.7-1.3,1.2-2.6,1.6-4.1v-0.1
	c0.3-1.2,0.4-2.5,0.4-3.7C77.4,47.5,76.7,44.8,75.4,42.5z M37.7,71.4l-8.5,5.8c-0.6,0.4-1.2,0.6-1.8,0.6c-0.6,0-1.4-0.4-2-0.8
	c-0.7-0.4-1.3-1.1-1.4-1.9c0-0.1,0-0.3,0-0.4c0-1.1,0.5-2.1,1.5-2.7l7.7-5.1l1.1-0.7c0.6-0.4,1.2-0.6,1.8-0.6c0.3,0,0.6,0,0.8,0.1
	c0.5,0.1,1,0.4,1.4,0.8l0,0c0.1,0.1,0.2,0.3,0.4,0.4c0.4,0.6,0.6,1.2,0.6,1.8C39.2,69.8,38.7,70.8,37.7,71.4z M69.7,56.7
	c-1.1,1.4-2.6,2.5-4.3,3.3c-0.6,0.3-1.3,0.5-2,0.6c-0.7,0.2-1.5,0.2-2.3,0.2c-0.2,0-0.3,0-0.5,0c-0.7,0-1.3-0.1-2-0.3
	c-1.3-0.3-2.6-0.9-3.7-1.6c-1.1-0.8-2.1-1.7-2.8-2.8l0,0c-1.1-1.7-1.8-3.7-1.8-5.9c0-3.7,1.9-7,4.7-8.9c1.1-0.7,2.3-1.3,3.7-1.6
	c0.6-0.1,1.3-0.2,2-0.3c0.2,0,0.3,0,0.5,0c0.8,0,1.6,0.1,2.3,0.2c0.7,0.1,1.3,0.4,2,0.6c1.7,0.7,3.1,1.9,4.3,3.3l0,0
	c1.3,1.8,2.2,4.1,2.2,6.5C72,52.5,71.1,54.8,69.7,56.7z"/>
</svg>
