<?xml version="1.0" encoding="utf-8"?>
<!-- Generator: Adobe Illustrator 22.0.1, SVG Export Plug-In . SVG Version: 6.00 Build 0)  -->
<svg version="1.1" id="Layer_1" xmlns="http://www.w3.org/2000/svg" xmlns:xlink="http://www.w3.org/1999/xlink" x="0px" y="0px"
	 viewBox="0 0 99 33" style="enable-background:new 0 0 99 33;" xml:space="preserve">
<style type="text/css">
	.st0{fill:#1C1C1C;}
</style>
<path class="st0" d="M54,22.4c-0.1-0.2-0.2-0.4-0.3-0.6l1-1.8l-2.3-2.5l0.2,3.2c-0.6-0.3-1.3-0.5-2-0.4c-0.7,0.1-1.4,0.4-1.8,0.8
	l-0.4-3.2l-1.7,2.9l1.3,1.5c-0.1,0.2-0.1,0.4-0.2,0.7c-4.4-6.8-19.9-25.9-47.8-9c0,0,12.5-3.4,20.6,2c0,0,8.3-2,14.8,2.7
	c0,0,13.4,2.8,16.6,14.3c0.8-11.9,13.4-17.3,13.4-17.3c5.4-6,13.9-5.6,13.9-5.6C86.1,3.2,99,4,99,4C68.2-7,56.9,14.8,54,22.4z"/>
</svg>
