<?xml version="1.0" encoding="utf-8"?>
<!-- Generator: Adobe Illustrator 22.0.1, SVG Export Plug-In . SVG Version: 6.00 Build 0)  -->
<svg version="1.1" id="Layer_1" xmlns="http://www.w3.org/2000/svg" xmlns:xlink="http://www.w3.org/1999/xlink" x="0px" y="0px"
	 viewBox="0 0 1200 628" style="enable-background:new 0 0 1200 628;" xml:space="preserve">
<style type="text/css">
	.st0{fill:#FDDC4F;}
	.st1{fill:#FF7712;}
</style>
<rect class="st0" width="1200" height="628"/>
<path class="st1" d="M675.1,0l-74.9,313.6L629.1,0H675.1z M435,0l165.2,313.6L488.5,0H435z M848,0L600.2,313.6L930.5,0H848z
	 M294.1,0l306.1,313.6L371.2,0H294.1z M725.6,0L600.2,313.6L781,0H725.6z M537.8,0l62.4,313.6L583.3,0H537.8z M0,495.6l600.2-182
	L0,405.4V495.6z M38.3,0l561.9,313.6L189.1,0H38.3z M0,0v22.3L11.2,0H0z M0,139.4l600.2,174.2L0,85.5V139.4z M0,317.2l600.2-3.6
	L0,231.1V317.2z M1200,14.9V0h-154.6L600.2,313.6L1197.8,9.2L1200,14.9z M1200,111.3L600.2,313.6L1200,202.8V111.3z M652.8,628
	l-52.5-314.4l7.3,314.4H652.8z M561.4,628l38.8-314.4L514.8,628H561.4z M335.6,628l264.6-314.4L247.9,628H335.6z M0,628h123.2
	l477-314.4L0,596.3V628z M1200,628v-21l-11.4,21H1200z M463.1,628l137.1-314.4L405.8,628H463.1z M1200,467.7L600.2,313.6L1200,563
	V467.7z M753.7,628L600.2,313.6L701.4,628H753.7z M1200,291.5l-599.8,22.1l599.8,63.6V291.5z M888.7,628L600.2,313.6l215,314.4
	H888.7z M1124.8,628L600.2,313.6L987,628H1124.8z"/>
</svg>
