<?xml version="1.0" encoding="utf-8"?>
<!-- Generator: Adobe Illustrator 23.0.3, SVG Export Plug-In . SVG Version: 6.00 Build 0)  -->
<svg version="1.1" id="Layer_1" xmlns="http://www.w3.org/2000/svg" xmlns:xlink="http://www.w3.org/1999/xlink" x="0px" y="0px"
	 viewBox="0 0 99.5 99.5" style="enable-background:new 0 0 99.5 99.5;" xml:space="preserve">
<style type="text/css">
	.st0{fill:#3A54A5;}
	.st1{fill:#CCCECB;}
	.st2{fill:#E8E7E7;}
	.st3{fill:#2D5972;}
	.st4{fill:#E5E6E6;}
	.st5{fill:#0E3959;}
	.st6{fill:#E6513E;}
	.st7{fill:#FFFFFF;}
</style>
<g>
	<path class="st0" d="M99.5,49.8c0,27.5-22.3,49.8-49.8,49.8C22.3,99.5,0,77.2,0,49.8C0,22.3,22.3,0,49.8,0
		C77.2,0,99.5,22.3,99.5,49.8z"/>
</g>
<path class="st1" d="M50.7,71.6h-9.6c0,0.2,0,0.4,0,0.6v5.4c0,0.1,0,0.3,0,0.4h9.6h9.6c0-0.1,0-0.3,0-0.4v-5.4c0-0.2,0-0.4,0-0.6
	H50.7z"/>
<path class="st2" d="M82,22.6H50.7H19.4c-1.9,0-3.5,1.6-3.5,3.5v42.1c0,1.9,1.6,3.5,3.5,3.5H41h9.6v0l9.7-0.1H82
	c1.9,0,3.5-1.6,3.5-3.5v-42C85.5,24.2,83.9,22.6,82,22.6z M57.8,68.7v0.6h-7.2h-0.9h-6.2v-0.5v-0.5h7.1v0l7.2-0.1V68.7z M84,63.6
	c0,1.7-1.5,3-3.4,3l-30.9,0.1H20.8c-1.9,0-3.4-1.4-3.4-3V27.3c0.1-1.7,1.6-3.1,3.4-3.1h29.9h29.9c1.9,0,3.4,1.4,3.4,3V63.6z"/>
<path class="st3" d="M80.6,24.3H50.8v-0.1h-30c-1.8,0-3.3,1.4-3.3,3.1v36.4c0,1.7,1.5,3,3.4,3h29.8v0.1h29.9v-0.1
	c1.9,0,3.4-1.4,3.4-3V27.3C84,25.6,82.5,24.3,80.6,24.3z"/>
<polygon class="st4" points="60.3,77.1 50.7,77.1 41,77.1 31.9,83.4 50.7,83.4 69.5,83.4 "/>
<polygon class="st5" points="50.7,68.3 43.6,68.3 43.6,68.8 43.6,69.3 50.7,69.3 57.8,69.3 57.8,68.8 57.8,68.3 "/>
<path class="st6" d="M60.3,61.5c0,0.8-0.6,1.4-1.4,1.4H40.1c-0.8,0-1.4-0.6-1.4-1.4v-8.2c0-0.8,0.6-1.4,1.4-1.4h18.8
	c0.8,0,1.4,0.6,1.4,1.4V61.5z"/>
<path class="st7" d="M47.1,55.4l-0.3,0.8l-1.4,1.3l0.8,1.2c0,0.3,0,0.6,0,0.8s-0.1,0.7-0.4,1.3h-3.7H41l1.5-5.7l0.2-0.8h0.7h2
	c0.7,0,1.2,0,1.4,0.1s0.3,0.2,0.3,0.5C47.2,55,47.1,55.2,47.1,55.4z M43.4,59.7h0.3l0.5-1.8h-0.3L43.4,59.7z M44.1,56.5h0.3l0.3-1.1
	h-0.3L44.1,56.5z M46.6,59.6l1.4-5.4h2.2l-1.4,5.4h0.3l1.4-5.4h2.2L51,60.8h-2.7c-0.7,0-1.2,0-1.4-0.1c-0.3-0.1-0.5-0.3-0.5-0.6
	C46.5,60,46.6,59.8,46.6,59.6z M55.1,57.3h0.4l0.7-3h1.5h0.7l-0.3,1.2l-1,4l-0.2,0.7c-0.1,0.4-0.4,0.7-0.7,0.7h-3.6
	c-0.4,0-0.6-0.3-0.4-0.8l0.3-1.1h2.2l-0.2,0.7h0.4l0.5-1.7h-2.7l0.8-2.9l0.2-0.8h0.7h1.5L55.1,57.3z"/>
<path class="st7" d="M67.2,28.8c-1.7,0-3.5,0-5.2,0c-0.4,0-0.8,0.3-0.9,0.6c-1.3,4.5-2.4,9-3.7,13.5c-5.8,0.1-11.6,0-17.4,0
	c-1.2,0-1.1,1.9,0,1.8c6,0,11.9,0,17.9,0c0.5,0.1,1-0.3,1.1-0.8c1.2-4.5,2.4-8.9,3.7-13.3c1.5-0.1,3.1,0.1,4.7-0.1
	C68.2,30.3,68.1,28.9,67.2,28.8z M41.5,42.2c4.7,0,9.5,0,14.2,0c0.5,0,1-0.2,1.1-0.7c0.9-3.4,1.8-6.9,2.7-10.3
	c0.3-0.6-0.3-1.4-1-1.3c-6.7,0-13.4,0-20.1,0c-0.6,0-0.9,0.8-0.7,1.3c0.9,3.4,1.7,6.8,2.6,10.1C40.5,42,41,42.3,41.5,42.2z
	 M50.6,40.4c-1.2,0-2.3,0-3.5,0C47,39.9,47,39.5,47,39c1.2,0,2.4,0,3.6,0C50.8,39.4,50.6,39.9,50.6,40.4z M50.8,37
	c-1.3,0.2-2.7,0.1-4,0.1c-0.1-0.5-0.1-1-0.1-1.6c1.4,0,2.8-0.1,4.2,0.1C50.9,36,50.9,36.5,50.8,37z M53.1,31.8c1.5,0,2.9,0,4.4,0
	c-0.1,0.6-0.2,1.2-0.5,1.8c-1.3,0-2.7,0-4,0C52.8,33,53,32.4,53.1,31.8z M52.8,35.5c1.2-0.1,2.5,0,3.7,0C56.4,36,56.4,36.6,56,37
	c-1.1,0.1-2.2,0-3.3,0C52.7,36.5,52.7,36,52.8,35.5z M52.6,39c1,0,2.1,0,3.1,0c-0.1,0.5-0.2,0.9-0.4,1.4c-0.9,0.1-1.8,0-2.7,0
	C52.5,39.9,52.5,39.4,52.6,39z M46.5,31.8c1.6,0,3.1,0,4.7,0c0,0.6-0.1,1.2-0.1,1.7c-1.5,0-3,0-4.5,0C46.5,33,46.4,32.4,46.5,31.8z
	 M45.1,40.3c-1,0-2.1,0-3.1,0c-0.2-0.5-0.3-0.9-0.4-1.4c1.1,0,2.2,0,3.3,0C45.1,39.4,45.2,39.9,45.1,40.3z M44.9,37
	c-1.2,0-2.5,0.1-3.7,0c-0.2-0.5-0.3-1-0.4-1.6c1.3,0,2.7-0.1,4,0C44.9,36,44.9,36.5,44.9,37z M39.9,31.8c1.6,0,3.1-0.1,4.7,0.1
	c0.1,0.6,0.1,1.1,0.1,1.7c-1.4,0-2.9,0-4.3,0C40.1,33,40,32.4,39.9,31.8z M43.2,45.6c-1.1,0.3-1.8,1.5-1.5,2.6s1.4,1.9,2.5,1.6
	c1.2-0.2,2.1-1.5,1.7-2.6C45.8,45.9,44.4,45.1,43.2,45.6z M54.4,45.5c-0.9,0.2-1.6,0.9-1.7,1.8c-0.2,1.3,0.9,2.5,2.2,2.5
	c1.2,0,2.3-1.1,2.2-2.3C57,46.2,55.7,45.1,54.4,45.5z"/>
</svg>
