<?xml version="1.0" encoding="utf-8"?>
<!-- Generator: Adobe Illustrator 23.0.3, SVG Export Plug-In . SVG Version: 6.00 Build 0)  -->
<svg version="1.1" id="Layer_1" xmlns="http://www.w3.org/2000/svg" xmlns:xlink="http://www.w3.org/1999/xlink" x="0px" y="0px"
	 viewBox="0 0 99 99" style="enable-background:new 0 0 99 99;" xml:space="preserve">
<style type="text/css">
	.st0{fill:#F39225;}
	.st1{fill:#EFF7F0;}
	.st2{fill:#314F60;}
</style>
<g>
	<path class="st0" d="M99,49.5C99,76.8,76.8,99,49.5,99S0,76.8,0,49.5S22.2,0,49.5,0S99,22.2,99,49.5z"/>
</g>
<polygon class="st1" points="25.2,24.3 75.7,24.3 80,77.4 20.8,77.4 "/>
<path class="st2" d="M67.3,37.2c0-1.4-1.1-2.5-2.5-2.5s-2.5,1.1-2.5,2.5c0,0.6,0.2,1.2,0.6,1.6c0.1,3.4-0.1,10.5-4,14.9
	c-2.3,2.5-5.5,3.8-9.6,3.8c-4,0-6.9-1.2-8.8-3.6c-3.2-4.2-2.6-11.1-2-14.6c0.8-0.4,1.3-1.2,1.3-2.2c0-1.4-1.1-2.5-2.5-2.5
	s-2.5,1.1-2.5,2.5c0,0.6,0.2,1.1,0.5,1.5c-0.7,4-1.4,12,2.7,17.3c2.5,3.2,6.3,4.9,11.4,4.9s9.1-1.7,12.1-5c4.5-5.1,5-12.6,4.9-16.7
	C66.8,38.8,67.3,38.1,67.3,37.2z M25.2,24.3c0,0,6.7-2.6,6.7-4.6h39c0,0,0.7,3.4,4.7,4.6H25.2z"/>
</svg>
