<?xml version="1.0" encoding="utf-8"?>
<!-- Generator: Adobe Illustrator 23.0.3, SVG Export Plug-In . SVG Version: 6.00 Build 0)  -->
<svg version="1.1" id="Layer_1" xmlns="http://www.w3.org/2000/svg" xmlns:xlink="http://www.w3.org/1999/xlink" x="0px" y="0px"
	 viewBox="0 0 98.5 98.5" style="enable-background:new 0 0 98.5 98.5;" xml:space="preserve">
<style type="text/css">
	.st0{fill:#3F4D50;}
	.st1{fill:#F09023;}
	.st2{fill:#DF8B3E;}
	.st3{fill:#EC9C23;}
	.st4{fill:#E18D2B;}
	.st5{fill:#F8C25F;}
</style>
<g>
	<circle class="st0" cx="49.3" cy="49.3" r="49.3"/>
</g>
<g>
	<polygon class="st1" points="71.2,43.7 71.6,71 48.3,87 48.3,59.1 	"/>
	<polygon class="st2" points="25,43 24.6,70.8 48.3,87 48.3,59.1 	"/>
	<g>
		<polygon class="st3" points="47.8,25.7 46.8,25.6 25.3,39 25.4,44.8 48.4,59.1 48.1,25.7 		"/>
		<polygon class="st4" points="51.1,25.9 48.1,25.7 48.4,59.1 71,44.3 71.3,42.2 		"/>
	</g>
	<path class="st5" d="M25.4,42.8L15.1,32l23.5-17.1l9.3,10.8L25.4,42.8z M47.9,25.7l23.3,17.6l11-9.6L59.7,15.4L47.9,25.7z
		 M48.4,59.1l11.1,10.4l22-15.7L71.2,43.4L48.4,59.1z M14.1,53.5l11.1-10.6l23.2,16.2L36.8,71.6L14.1,53.5z"/>
</g>
</svg>
