<?xml version="1.0" encoding="utf-8"?>
<!-- Generator: Adobe Illustrator 23.0.3, SVG Export Plug-In . SVG Version: 6.00 Build 0)  -->
<svg version="1.1" id="Layer_1" xmlns="http://www.w3.org/2000/svg" xmlns:xlink="http://www.w3.org/1999/xlink" x="0px" y="0px"
	 viewBox="0 0 99.8 99.8" style="enable-background:new 0 0 99.8 99.8;" xml:space="preserve">
<style type="text/css">
	.st0{fill:#3C444F;}
	.st1{fill:#FFFFFF;}
	.st2{fill:#E1A730;}
</style>
<g>
	<path class="st0" d="M99.8,49.9c0,27.6-22.4,49.9-49.9,49.9C22.3,99.8,0,77.5,0,49.9S22.3,0,49.9,0C77.4,0,99.8,22.3,99.8,49.9z"/>
</g>
<path class="st1" d="M34.7,40.5L34.7,40.5L34.7,40.5C25.5,40.5,18,48,18,57.2s7.5,16.7,16.7,16.7l0,0l0,0c9.2,0,16.7-7.5,16.7-16.7
	S44,40.5,34.7,40.5z M34.7,71.9L34.7,71.9L34.7,71.9c-8.1,0-14.7-6.6-14.7-14.6c0-8.1,6.6-14.6,14.6-14.6l0,0l0,0
	c8.1,0,14.6,6.6,14.6,14.6C49.4,65.3,42.8,71.9,34.7,71.9z M40.3,60.3c0,2.2-1.6,4.1-4.5,4.6v2.6h-1.1h-1.3v-2.4
	c-1.7-0.1-3.3-0.5-4.3-1.1l0.8-2.9c1.1,0.6,2.5,1.1,4.2,1.1c0.2,0,0.5,0,0.7,0c1-0.2,1.7-0.7,1.7-1.5s-0.5-1.3-1.7-1.8v-3.8
	c0.4,0.2,0.8,0.4,1.4,0.6C39.1,56.6,40.3,58,40.3,60.3z M29.3,53.9c0-2.2,1.6-3.9,4.2-4.5V47h1.2l0,0h1.2v2.2
	c1.7,0.1,2.8,0.4,3.6,0.8l-0.6,2.9c-0.7-0.3-1.8-0.9-3.6-0.9c-0.2,0-0.4,0-0.5,0l0,0c-1.2,0.1-1.6,0.8-1.6,1.4
	c0,0.6,0.5,1.1,1.6,1.6v3.8c-0.3-0.1-0.6-0.2-0.9-0.4C31.1,57.6,29.3,56.3,29.3,53.9z"/>
<path class="st2" d="M34.7,52.1v3c-1.1-0.5-1.6-1-1.6-1.6C33.1,52.8,33.5,52.2,34.7,52.1z M49.4,57.2c0,8.1-6.6,14.6-14.6,14.6l0,0
	l0,0c-8.1,0-14.6-6.6-14.6-14.6c0-8.1,6.6-14.6,14.6-14.6l0,0l0,0C42.8,42.6,49.4,49.2,49.4,57.2z M40.3,60.3c0-2.3-1.2-3.6-4.2-4.7
	c-0.5-0.2-1-0.4-1.4-0.6v-3c0.2,0,0.3,0,0.5,0c1.8,0,3,0.6,3.6,0.9l0.7-2.8c-0.8-0.4-2-0.8-3.6-0.8v-2.2h-1.2l0,0h-1.2v2.4
	c-2.7,0.5-4.2,2.3-4.2,4.5c0,2.4,1.8,3.7,4.5,4.6c0.3,0.1,0.7,0.2,0.9,0.4c1.2,0.5,1.7,1.1,1.7,1.8c0,0.8-0.7,1.4-1.7,1.5
	c-0.2,0-0.4,0-0.7,0c-1.6,0-3.1-0.5-4.2-1.1L29,64.1c1,0.5,2.6,1,4.3,1.1v2.4h1.3l0,0h1.3V65C38.7,64.4,40.3,62.5,40.3,60.3z
	 M64.5,41.3c10.5,0,19.4-4.3,19.7-9.6c-0.3-5.2-9.2-9.6-19.7-9.6s-19.4,4.3-19.7,9.6C45.1,36.9,54,41.3,64.5,41.3z M55.9,52.6
	c0.3,1.5,0.5,3,0.5,4.6c0,1.1-0.1,2.2-0.2,3.3c-0.1,0.7-0.2,1.3-0.4,1.9c-0.6,2.6-1.7,5-3.2,7.1c-3.9,5.7-10.5,9.4-17.9,9.4l0,0l0,0
	c-12,0-21.7-9.7-21.7-21.7s9.7-21.7,21.7-21.7l0,0l0,0c6.2,0,11.8,2.6,15.8,6.8c2.2,2.3,3.9,5.1,4.9,8.2
	C55.6,51.3,55.8,51.9,55.9,52.6z M51.4,57.2c0-9.2-7.5-16.7-16.7-16.7l0,0l0,0C25.5,40.5,18,48,18,57.2s7.5,16.7,16.7,16.7l0,0
	C44,74,51.4,66.5,51.4,57.2z M64.5,62.3c-1.7,0-3.3-0.1-4.8-0.3c-0.6,2.6-1.7,5-3.2,7.1c2.5,0.6,5.2,0.9,8,0.9
	c10.7,0,19.8-4.5,19.8-9.8v-4.7C80.9,59.5,73.4,62.3,64.5,62.3z M64.5,43.2c-3.7,0-7.1-0.5-10.1-1.3c2.2,2.3,3.9,5.1,4.9,8.2
	c1.7,0.2,3.4,0.4,5.2,0.4c10.7,0,19.8-4.5,19.8-9.8v-4.3C80.9,40.4,73.4,43.2,64.5,43.2z M64.5,52.4c-1.6,0-3.2-0.1-4.7-0.3
	c0.3,1.5,0.5,3,0.5,4.6c0,1.1-0.1,2.2-0.2,3.3c1.4,0.2,2.9,0.3,4.4,0.3c10.7,0,19.8-4.5,19.8-9.8v-4.9
	C80.9,49.7,73.4,52.4,64.5,52.4z"/>
</svg>
