<?xml version="1.0" encoding="utf-8"?>
<!-- Generator: Adobe Illustrator 21.1.0, SVG Export Plug-In . SVG Version: 6.00 Build 0)  -->
<svg version="1.1" id="Layer_1" xmlns="http://www.w3.org/2000/svg" xmlns:xlink="http://www.w3.org/1999/xlink" x="0px" y="0px"
	 viewBox="0 0 100 100" style="enable-background:new 0 0 100 100;" xml:space="preserve">
<style type="text/css">
	.st0{fill:#CBCAC8;}
	.st1{fill:#FCFDFF;}
	.st2{display:none;fill:#8F9E3A;}
</style>
<path class="st0" d="M100.3,50.9c0,27.3-22.1,49.4-49.4,49.4c-27.3,0-49.4-22.1-49.4-49.4c0-27.3,22.1-49.4,49.4-49.4
	C78.2,1.5,100.3,23.6,100.3,50.9z"/>
<path class="st1" d="M57.4,38.5l-0.1-1.2c-0.6-0.1-1.4,0-2.3,0.4l-0.7-1.5l-1,0.5l0.7,1.6c-1.3,0.9-1.8,2.3-1.2,3.6h-4.2v4.4h0v-4.4
	H47c0.4-3.3,2.4-6.3,5.6-7.8c4.9-2.3,10.7-0.1,13,4.8c0.5,1,0.7,2,0.8,3H55.2c-0.5-0.1-0.8-0.4-1-0.8c-0.3-0.6-0.3-1.5,0.9-2.1
	C56.1,38.4,57,38.4,57.4,38.5z M77.7,15.3L77.7,15.3l3.3,7.4c-1.3,2.5-4.3,3.7-7.1,2.7c-1.4-0.5-2.6-1.6-3.2-3
	c-0.5-1.2-0.6-2.5-0.4-3.7L22.1,40.9l0,0l7.3-3.3c1.1,0.6,2,1.5,2.6,2.7c0.2,0.5,0.4,1,0.5,1.6h1.4c-0.1-0.7-0.3-1.5-0.6-2.2
	c-0.5-1.1-1.3-2.1-2.3-2.8l37.9-17.5c-0.1,1.2,0.1,2.4,0.6,3.6c0.8,1.7,2.2,3.1,4,3.7c1.9,0.7,3.8,0.6,5.5-0.2
	c1.1-0.5,2-1.3,2.8-2.3l5.5,12c-3.1-0.3-6.2,1.6-7.3,4.6c-0.7,1.8-0.6,3.8,0.2,5.5c0.5,1.1,1.3,2,2.2,2.7l1.5-0.7
	c-1-0.6-1.9-1.5-2.4-2.6c-0.6-1.4-0.7-3-0.2-4.4c1-2.7,3.9-4.2,6.7-3.6l3.3,7.1l0,0L77.7,15.3z M22.6,41.8l-0.4-0.9l0,0L22.6,41.8z
	 M13.5,43.3L13.5,43.3l7.8,0h0l0.2,0c0.7,0.9,1.1,1.9,1.2,2.9l0,0c0,0.2,0,0.4,0,0.6c0,1.5-0.6,3-1.7,4.1c-2.1,2.1-5.3,2.2-7.5,0.5
	V53c1.1,0.6,2.3,0.9,3.5,0.9c1.8,0,3.7-0.7,5.1-2.1c0.9-0.9,1.5-1.9,1.8-3.1l0,0c0.2-0.6,0.3-1.3,0.3-2c0-1.3-0.4-2.4-1-3.5h8v0
	h-9.9H13.5z M13.5,66.2v1.7c2.3-1.7,5.4-1.5,7.5,0.6c1.1,1.1,1.7,2.5,1.7,4.1c0,1.2-0.4,2.4-1.1,3.3h1.6c0.5-1,0.9-2.1,0.9-3.3
	c0-1.9-0.7-3.7-2.1-5.1C19.6,65.1,16.2,64.7,13.5,66.2z M74.5,66.3c-2.7-1.5-6.3-1.2-8.6,1.1c-1.4,1.4-2.1,3.2-2.1,5.1
	c0,1.2,0.3,2.3,0.9,3.3h1.6c-0.7-1-1.1-2.1-1.1-3.3c0-1.5,0.6-3,1.7-4.1c2.1-2.1,5.3-2.2,7.6-0.5v7.9h0V53.4l0,0V66.3z M31.9,44
	L31.9,44l0-1.4h0V44z M74.5,51.3c-2.3,1.7-5.5,1.6-7.5-0.5c-1.1-1.1-1.7-2.5-1.7-4.1c0-1.3,0.4-2.5,1.2-3.5h-1.4
	c0.1,0.5,0.1,0.9,0.1,1.4c0-0.5,0-0.9-0.1-1.4H53.9l0,0h-2.4v0h2.4h11c-0.6,1.1-1,2.3-0.9,3.5c0,0.7,0.1,1.3,0.3,1.9c0,0,0,0,0,0
	c0.3,1.2,0.9,2.3,1.8,3.1c1.4,1.4,3.2,2.1,5.1,2.1c1.2,0,2.4-0.3,3.5-0.9v0.4l0,0V43.3h0V51.3z M39.1,36.7v13.1h0L39.1,36.7
	L39.1,36.7z M51.6,53.3c1.4,1.7,2.2,3.9,2.2,6.2c0,1.3-0.3,2.6-0.8,3.8c0,0,0,0,0,0c-1.5,3.5-5,5.9-9,5.9c-1,0-2-0.2-2.9-0.4
	c0,0,0,0,0,0c-3.2-1-5.7-3.7-6.5-6.9c-0.1-0.5-0.2-0.9-0.3-1.4c0-0.3-0.1-0.7-0.1-1c0-5.4,4.4-9.8,9.8-9.8c1.4,0,2.7,0.3,3.8,0.8
	C49.3,51.2,50.6,52.1,51.6,53.3z M47.3,61.9c0-1.6-0.9-2.4-2.7-3.2c-1.5-0.6-2.1-1.1-2.1-2c0-0.7,0.4-1.5,1.7-1.5
	c1.1,0,1.8,0.4,2.2,0.6l0.4-1.2c-0.5-0.3-1.2-0.6-2.3-0.6l0-1.7h-1.1v1.7c-1.6,0.3-2.6,1.4-2.6,2.8c0,1.5,1.1,2.3,2.9,3
	c1.3,0.5,1.9,1.1,1.9,2.1c0,1-0.7,1.7-2,1.7c-0.5,0-1-0.1-1.5-0.3c-0.4-0.1-0.7-0.3-1-0.5l-0.4,1l-0.1,0.2c0.1,0.1,0.2,0.1,0.3,0.2
	c0.5,0.3,1.2,0.5,1.8,0.5c0.2,0,0.3,0,0.5,0l0,1.8h1.1v-1.8C46.3,64.6,47.3,63.3,47.3,61.9z"/>
<path class="st2" d="M20.9,68.4c1.1,1.1,1.7,2.5,1.7,4.1c0,1.2-0.4,2.4-1.1,3.3h-8.1v-8C15.7,66.2,18.9,66.3,20.9,68.4z M13.5,75.8
	h8.1c0,0,0,0,0,0L13.5,75.8L13.5,75.8z M66.4,75.8h8.2v0L66.4,75.8C66.4,75.8,66.4,75.8,66.4,75.8z M74,25.3c2.7,1,5.7-0.2,7.1-2.7
	l-3.4-7.3l-7.3,3.3c-0.3,1.2-0.2,2.5,0.4,3.7C71.4,23.7,72.5,24.8,74,25.3z M67,68.4c-1.1,1.1-1.7,2.5-1.7,4.1
	c0,1.2,0.4,2.4,1.1,3.3h8.2v-7.9C72.3,66.2,69.1,66.3,67,68.4z M21,50.8c1.1-1.1,1.7-2.5,1.7-4.1c0-0.2,0-0.4,0-0.6l0,0
	c-0.1-1.1-0.5-2.1-1.2-2.9h-0.2h0h-7.8v8.1C15.7,53,18.9,52.9,21,50.8z M32.5,41.8c-0.1-0.5-0.2-1.1-0.5-1.6
	c-0.5-1.2-1.5-2.1-2.6-2.7l-7.3,3.3l0.4,0.9H32.5z M88,37.7c-2.8-0.6-5.7,0.8-6.7,3.6c-0.5,1.4-0.5,3,0.2,4.4c0.5,1.1,1.3,2,2.4,2.6
	l7.4-3.4L88,37.7z M40.8,64.2c0.1,0.1,0.2,0.1,0.3,0.2c-0.1-0.1-0.2-0.2-0.2-0.4L40.8,64.2z M52.8,41.8h2.4c-0.5-0.1-0.8-0.4-1-0.8
	c-0.3-0.7-0.3-1.5,0.9-2.1c1-0.5,1.8-0.4,2.3-0.4l-0.1-1.2c-0.6-0.1-1.4,0-2.3,0.4l-0.7-1.5l-1,0.5l0.7,1.6
	C52.7,39,52.2,40.4,52.8,41.8z M80.2,46.3c-0.8-1.7-0.9-3.7-0.2-5.5c1.1-3.1,4.2-4.9,7.3-4.6l-5.5-12c-0.7,1-1.7,1.8-2.8,2.3
	c-1.7,0.8-3.6,0.9-5.5,0.2c-1.8-0.7-3.2-2-4-3.7c-0.5-1.1-0.7-2.4-0.6-3.6L31,36.8c1,0.7,1.8,1.7,2.3,2.8c0.3,0.7,0.5,1.4,0.6,2.2
	H47c0.4-3.3,2.4-6.3,5.6-7.8c4.9-2.3,10.7-0.1,13,4.8c0.5,1,0.7,2,0.8,3h1.4h8h0v10.2l6.4-3C81.4,48.2,80.7,47.4,80.2,46.3z
	 M74.6,51.3v-8.1h-8c-0.8,1-1.2,2.2-1.2,3.5c0,1.5,0.6,3,1.7,4.1C69.1,52.9,72.3,53,74.6,51.3z M74.6,53.4L74.6,53.4L74.6,53.4
	L74.6,53.4v12.8c-2.7-1.5-6.3-1.2-8.6,1.1c-1.4,1.4-2.1,3.2-2.1,5.1c0,1.2,0.3,2.3,0.9,3.3h0c0,0,0,0,0,0H23.2c0,0,0,0,0,0h0
	c0.5-1,0.9-2.1,0.9-3.3c0-1.9-0.7-3.7-2.1-5.1c-2.3-2.3-5.8-2.7-8.5-1.2V53c1.1,0.6,2.3,0.9,3.5,0.9c1.8,0,3.7-0.7,5.1-2.1
	c0.9-0.9,1.5-1.9,1.8-3.1c0.2-0.6,0.3-1.3,0.3-2c0-1.3-0.4-2.4-1-3.5h8h1.4h13.1h5.8h2.4h11c-0.6,1.1-1,2.3-0.9,3.5
	c0,0.7,0.1,1.3,0.3,1.9c0.3,1.2,0.9,2.3,1.8,3.1c1.4,1.4,3.2,2.1,5.1,2.1c1.2,0,2.4-0.3,3.5-0.9V53.4z M53.8,59.5
	c0-2.4-0.8-4.5-2.2-6.2c-1-1.2-2.3-2.2-3.7-2.8c-1.2-0.5-2.5-0.8-3.8-0.8c-5.4,0-9.8,4.4-9.8,9.8c0,0.3,0,0.7,0.1,1
	c0,0.5,0.1,0.9,0.3,1.4c0.8,3.3,3.3,5.9,6.5,6.9l0,0c0.9,0.3,1.9,0.4,2.9,0.4c4,0,7.5-2.5,9-5.9c0,0,0,0,0,0
	C53.5,62.2,53.8,60.9,53.8,59.5z M44.6,58.7c-1.5-0.6-2.1-1.1-2.1-2c0-0.7,0.4-1.5,1.7-1.5c1.1,0,1.8,0.4,2.2,0.6l0.4-1.2
	c-0.5-0.3-1.2-0.6-2.3-0.6l0-1.7h-1.1v1.7c-1.6,0.3-2.6,1.4-2.6,2.8c0,1.5,1.1,2.3,2.9,3c1.3,0.5,1.9,1.1,1.9,2.1c0,1-0.7,1.7-2,1.7
	c-0.5,0-1-0.1-1.5-0.3c0,0,0,0,0,0c-0.4-0.1-0.7-0.3-1-0.5l-0.4,1c0.1,0.1,0.2,0.2,0.2,0.4c0.5,0.3,1.1,0.5,1.8,0.5c0,0,0,0,0,0
	c0.2,0,0.3,0,0.5,0l0,1.8h1.1v-1.8c1.8-0.3,2.8-1.6,2.8-3C47.3,60.3,46.4,59.5,44.6,58.7z"/>
</svg>
