<?xml version="1.0" encoding="utf-8"?>
<!-- Generator: Adobe Illustrator 23.0.3, SVG Export Plug-In . SVG Version: 6.00 Build 0)  -->
<svg version="1.1" id="Layer_1" xmlns="http://www.w3.org/2000/svg" xmlns:xlink="http://www.w3.org/1999/xlink" x="0px" y="0px"
	 viewBox="0 0 100 99.7" style="enable-background:new 0 0 100 99.7;" xml:space="preserve">
<style type="text/css">
	.st0{fill:#9697AD;}
	.st1{opacity:0.1;}
	.st2{fill:#0AB5E1;}
	.st3{fill:#3C444F;}
	.st4{fill:#E9D319;}
	.st5{fill:#FFFFFF;}
</style>
<rect class="st0" width="100" height="99.7"/>
<polygon class="st1" points="41.6,99.7 71.2,78.4 70.3,73.5 77.5,71.4 85.4,49 88.6,39.3 64.9,30.3 55.1,27.5 39.8,21.7 0,56.5 
	0,99.7 "/>
<polygon class="st2" points="31.7,43.8 40,22.4 41.7,22.3 87.5,38.2 88.7,39.7 77.7,70.4 75.9,70.8 70.8,68.8 "/>
<path class="st3" d="M87.7,37.4L42.3,21.3c-1.4-0.5-2.8,0.2-3.3,1.5L37.1,28L36,31l-0.9,2.5L34,36.9l-2,5.8H21.2
	c-1.4,0-2.6,1.1-2.6,2.5v31.3c0,1.4,1.2,2.5,2.6,2.5h48.2c1.4,0,2.6-1.1,2.6-2.5v-6.1l3.5,1.2c1.4,0.5,2.8-0.2,3.3-1.5l5.4-15.3
	l1.2-3.4l0.9-2.5l1.1-3l1.9-5.2C89.8,39.3,89,37.9,87.7,37.4z M77.2,69.4C77,70,76.6,70.2,76.1,70L72,68.6V45.2
	c0-1.4-1.2-2.5-2.6-2.5H33.8l1.8-5.3l11.1,3.9h23.9c1.4,0,2.6,1.1,2.6,2.5v6.9l9.4,3.4L77.2,69.4z M87.7,40.1l-1.9,5.2l-47-16.7
	l1.9-5.2c0.2-0.4,0.6-0.6,1.1-0.5L87.1,39C87.6,39.2,87.8,39.7,87.7,40.1z"/>
<path class="st4" d="M22.6,58c0,0.5,0,1.1,0,1.6c0,0.2,0,0.3,0,0.5c0.2,0.9,0.9,1.4,1.8,1.4c1.5,0,3.1,0,4.6,0V58H22.6L22.6,58z
	 M29.7,56.1h3.6v0.6h-3.6v4.8c1.5,0,3.1,0,4.6,0c0.2,0,0.4,0,0.5,0c0.9-0.2,1.4-0.9,1.4-1.9c0-2,0-4,0-6.1h-6.5V56.1z M32.2,52.9v-5
	c-0.9,0-1.8,0-2.8,0s-2,0-3,0v5H32.2z M29.1,53.5h-6.5c0,1.3,0,2.6,0,3.9h6.5V53.5z M25.8,47.9c-0.4,0-0.8,0-1.2,0
	c-0.2,0-0.4,0-0.6,0.1c-0.9,0.2-1.3,0.9-1.3,1.8c0,1.1,0,2.1,0,3.2h3.2v-5.1H25.8z M36.2,52.9c0-1,0-2.1,0-3.1c0-0.2,0-0.4-0.1-0.6
	c-0.2-0.9-0.9-1.3-1.8-1.3c-0.5,0-1,0-1.5,0v5C32.8,52.9,36.2,52.9,36.2,52.9z"/>
<path class="st5" d="M22.3,73.8h0.6V71h-0.7v-0.7h1.5v3.6h0.6v0.7h-2C22.3,74.5,22.3,73.8,22.3,73.8z M24.8,71.4
	c0-0.9,0.9-1.3,1.6-1.3c0.9,0,1.8,0.3,1.8,1.4s-0.8,1.3-1.7,1.3c-0.4,0-0.9,0.1-0.9,0.6v0.4h2.6v0.7h-3.5c0-0.4,0-0.7,0-1.1
	c0-1,0.9-1.3,1.7-1.3c0.3,0,0.9-0.1,0.9-0.5c0-0.5-0.4-0.7-1-0.7c-0.4,0-0.9,0.2-0.9,0.6C25.5,71.4,24.8,71.4,24.8,71.4z M29.7,72.6
	v-0.7h0.6c0.4,0,0.9-0.1,0.9-0.5c0-0.2-0.2-0.6-0.9-0.6c-0.4,0-0.9,0.1-0.9,0.5h-0.8c0-0.9,0.9-1.3,1.7-1.3c0.8,0,1.7,0.4,1.7,1.3
	c0,0.3-0.2,0.7-0.6,0.8c0.4,0.1,0.7,0.5,0.7,0.9c0,1-1,1.4-1.8,1.4s-1.7-0.3-1.7-1.3h0.8c0,0.4,0.6,0.6,0.9,0.6c0.4,0,1-0.2,1-0.6
	c0-0.3-0.1-0.6-0.9-0.6L29.7,72.6L29.7,72.6z M35.8,70.2v2.7h0.5v0.8h-0.5v0.8H35v-0.8h-2.3l-0.1-0.8l1.9-2.6
	C34.6,70.2,35.8,70.2,35.8,70.2z M35,72.9v-2l-1.4,2H35L35,72.9z M41.2,71h-2.3v0.7h0.8c0.9,0,1.7,0.4,1.7,1.4s-0.8,1.4-1.7,1.4
	S38,74.2,38,73.2h0.8c0,0.5,0.5,0.6,0.9,0.6s0.9-0.2,0.9-0.7s-0.5-0.6-0.9-0.6h-1.6c0-0.8,0-1.5,0-2.3h3.1V71L41.2,71z M42.6,71.5
	v0.6c0.2-0.3,0.7-0.5,1-0.5c0.9,0,1.8,0.4,1.8,1.4c0,0.9-0.9,1.4-1.8,1.4c-0.9,0-1.8-0.5-1.8-1.4v-1.6c0-1,0.9-1.4,1.8-1.4
	c0.9,0,1.7,0.4,1.7,1.3h-0.8c0-0.4-0.5-0.6-0.9-0.6C43.1,70.8,42.6,71.1,42.6,71.5L42.6,71.5z M44.6,73.1c0-0.5-0.4-0.7-1-0.7
	c-0.5,0-1,0.2-1,0.7s0.5,0.7,1,0.7C44.1,73.8,44.6,73.6,44.6,73.1z M45.8,74.5l1.7-3.5h-2.1v-0.8h3.1v0.4l-1.9,3.8L45.8,74.5
	L45.8,74.5z M49.4,72.3c-0.4-0.2-0.5-0.5-0.5-0.8c0-0.9,0.8-1.3,1.7-1.3s1.7,0.4,1.7,1.3c0,0.3-0.2,0.6-0.5,0.8
	c0.4,0.2,0.6,0.6,0.6,0.9c0,1-0.9,1.4-1.8,1.4c-0.9,0-1.9-0.4-1.8-1.4C48.8,72.8,49,72.4,49.4,72.3z M49.6,73.2c0,0.3,0.3,0.6,1,0.6
	s1-0.3,1-0.6c0-0.4-0.5-0.6-1-0.6S49.6,72.8,49.6,73.2z M50.6,72c0.5,0,0.9-0.2,0.9-0.6s-0.4-0.6-0.9-0.6c-0.6,0-0.9,0.3-0.9,0.6
	C49.7,71.8,50.1,72,50.6,72z M54.1,73.8h0.6V71H54v-0.7h1.5v3.6h0.6v0.7h-2V73.8L54.1,73.8z M56.6,71.4c0-0.9,0.9-1.3,1.6-1.3
	c0.9,0,1.8,0.3,1.8,1.4s-0.8,1.3-1.7,1.3c-0.4,0-0.9,0.1-0.9,0.6v0.4H60v0.7h-3.5c0-0.4,0-0.7,0-1.1c0-1,0.9-1.3,1.7-1.3
	c0.3,0,0.9-0.1,0.9-0.5c0-0.5-0.4-0.7-1-0.7c-0.4,0-0.9,0.2-0.9,0.6C57.4,71.4,56.6,71.4,56.6,71.4z M61.5,72.6v-0.7h0.6
	c0.4,0,0.9-0.1,0.9-0.5c0-0.2-0.2-0.6-0.9-0.6c-0.4,0-0.9,0.1-0.9,0.5h-0.8c0-0.9,0.9-1.3,1.7-1.3s1.7,0.4,1.7,1.3
	c0,0.3-0.2,0.7-0.6,0.8c0.4,0.1,0.7,0.5,0.7,0.9c0,1-1,1.4-1.8,1.4s-1.7-0.3-1.7-1.3h0.8c0,0.4,0.6,0.6,0.9,0.6c0.4,0,1-0.2,1-0.6
	c0-0.3-0.1-0.6-0.9-0.6L61.5,72.6L61.5,72.6z M67.6,70.2v2.7h0.5v0.8h-0.5v0.8h-0.8v-0.8h-2.3l-0.1-0.8l1.9-2.6
	C66.4,70.2,67.6,70.2,67.6,70.2z M66.8,72.9v-2l-1.4,2H66.8L66.8,72.9z M45.9,58.8c-0.7,0.8-1.5,1.2-2.4,1.2c-2.4,0-3.4-2.1-3.4-4.2
	c0-2.1,1.1-4.3,3.4-4.3c0.9,0,1.7,0.4,2.3,1.3l-0.8,1c-0.4-0.5-1-0.8-1.5-0.8c-1.5,0-2.2,1.5-2.2,2.8c0,1.4,0.6,2.8,2.2,2.8
	c0.6,0,1.2-0.3,1.6-0.8L45.9,58.8z M50.8,58.3h-3.3L47,59.9h-1.3l2.9-8.2h1.3l2.9,8.2h-1.3L50.8,58.3z M49.2,53.4L48,56.9h2.4
	L49.2,53.4z M58.9,59.9h-1.4l-1.9-2.7h-1.2v2.7h-1.2v-8.2c1,0,2,0,3,0c1.5,0,2.3,1.3,2.3,2.7c0,1.1-0.4,2.3-1.6,2.6l1.9,2.8
	L58.9,59.9L58.9,59.9z M54.4,53.1v2.6h1.8c0.8,0,1.1-0.7,1.1-1.3c0-0.7-0.3-1.3-1.1-1.3H54.4L54.4,53.1z M65,55.7
	c0,2.1-1,4.2-3.2,4.2c-0.8,0-1.7,0-2.5,0v-8.2c0.8,0,1.7,0,2.5,0C64,51.7,65,53.7,65,55.7z M60.5,58.4h1.3c1.4,0,2-1.4,2-2.7
	s-0.6-2.5-2-2.5h-1.3V58.4z"/>
</svg>
