<?xml version="1.0" encoding="utf-8"?>
<!-- Generator: Adobe Illustrator 23.0.3, SVG Export Plug-In . SVG Version: 6.00 Build 0)  -->
<svg version="1.1" id="Capa_1" xmlns="http://www.w3.org/2000/svg" xmlns:xlink="http://www.w3.org/1999/xlink" x="0px" y="0px"
	 viewBox="0 0 488.8 267.4" style="enable-background:new 0 0 488.8 267.4;" xml:space="preserve">
<style type="text/css">
	.st0{fill:#3E50B4;}
</style>
<path class="st0" d="M467.3,61.4c-13.2-14.3-32-22.2-52.9-22.2h-50.3V12c0-6.6-5.4-12-12-12H112.5c-6.6,0-12,5.4-12,12v41.8H53.8
	c-6.6,0-12,5.4-12,12s5.4,12,12,12h58.4c0.1,0,0.2,0,0.3,0c0,0,0,0,0.1,0c6.6,0,12-5.4,12-12V24h215.6v27.2v160.9h-113
	c-0.5,0-1,0-1.5,0.1c-6-14.8-20.5-25.3-37.4-25.3c-17,0-31.5,10.6-37.4,25.5c-0.9-0.2-1.7-0.3-2.6-0.3h-23.7v-41.9
	c0-6.6-5.4-12-12-12c-0.2,0-0.4,0-0.6,0s-0.3,0-0.5,0H53.8c-6.6,0-12,5.4-12,12s5.4,12,12,12h46.7V224c0,6.6,5.4,12,12,12h35.7
	c0.3,0,0.5,0,0.8,0c4,18,20.1,31.4,39.3,31.4s35.2-13.4,39.3-31.4h124.6h19.2c4.1,17.9,20.1,31.4,39.3,31.4S445.9,254,450,236h26.8
	c6.6,0,12-5.4,12-12v-99.7C488.8,98.4,481.3,76.6,467.3,61.4z M188.3,243.5c-9,0-16.3-7.3-16.3-16.3s7.3-16.3,16.3-16.3
	s16.3,7.3,16.3,16.3S197.3,243.5,188.3,243.5z M410.7,243.5c-9,0-16.3-7.3-16.3-16.3s7.3-16.3,16.3-16.3s16.3,7.3,16.3,16.3
	C426.9,236.2,419.6,243.5,410.7,243.5z M464.8,212.1H448c-6-14.7-20.5-25.2-37.3-25.2s-31.3,10.4-37.3,25.2h-9.2V63.2h50.3
	c31.5,0,50.3,22.9,50.3,61.2V212.1z M206.1,140.5c-4.7,4.7-4.7,12.3,0,17c2.3,2.3,5.4,3.5,8.5,3.5s6.1-1.2,8.5-3.5l30.9-30.9
	l0.1-0.1c0.2-0.3,0.5-0.5,0.7-0.8c0.1-0.2,0.2-0.3,0.3-0.5s0.2-0.3,0.4-0.5c0.1-0.2,0.2-0.4,0.3-0.6s0.2-0.3,0.3-0.5
	s0.2-0.4,0.3-0.6c0.1-0.2,0.2-0.3,0.2-0.5c0.1-0.2,0.1-0.4,0.2-0.6s0.1-0.4,0.2-0.5c0.1-0.2,0.1-0.4,0.1-0.6s0.1-0.4,0.1-0.6
	s0.1-0.4,0.1-0.7c0-0.2,0.1-0.3,0.1-0.5c0.1-0.8,0.1-1.6,0-2.4c0-0.2,0-0.3-0.1-0.5c0-0.2-0.1-0.4-0.1-0.7c0-0.2-0.1-0.4-0.1-0.6
	s-0.1-0.4-0.1-0.6c-0.1-0.2-0.1-0.4-0.2-0.5c-0.1-0.2-0.1-0.4-0.2-0.6s-0.2-0.3-0.2-0.5c-0.1-0.2-0.2-0.4-0.3-0.6
	c-0.1-0.2-0.2-0.3-0.3-0.5s-0.2-0.4-0.3-0.6s-0.2-0.3-0.4-0.5c-0.1-0.2-0.2-0.3-0.3-0.5c-0.2-0.3-0.5-0.5-0.7-0.8L254,109
	l-29.4-29.4c-4.7-4.7-12.3-4.7-17,0s-4.7,12.3,0,17l8.9,8.9H12c-6.6,0-12,5.4-12,12s5.4,12,12,12h204.4L206.1,140.5z"/>
</svg>
