<?xml version="1.0" encoding="utf-8"?>
<!-- Generator: Adobe Illustrator 23.0.3, SVG Export Plug-In . SVG Version: 6.00 Build 0)  -->
<svg version="1.1" id="Capa_1" xmlns="http://www.w3.org/2000/svg" xmlns:xlink="http://www.w3.org/1999/xlink" x="0px" y="0px"
	 viewBox="0 0 496 496" style="enable-background:new 0 0 496 496;" xml:space="preserve">
<style type="text/css">
	.st0{fill:#FFD100;}
	.st1{fill:#FF9500;}
	.st2{fill:#FFFFFF;}
	.st3{fill:#FF4F19;}
	.st4{fill:#E7001E;}
</style>
<g>
	<path class="st0" d="M496,248c0,21.5-18.6,40.3-23.9,60.1c-5.5,20.5,1,46-9.3,64c-10.5,18.2-36,25.2-50.8,40s-21.8,40.2-40,50.8
		c-18,10.4-43.4,3.9-64,9.3c-19.8,5.3-38.6,23.9-60.1,23.9s-40.3-18.6-60.1-23.9c-20.5-5.5-46,1-64-9.3c-18.2-10.5-25.2-36-40-50.8
		s-40.2-21.8-50.8-40c-10.4-18-3.9-43.4-9.3-64C18.6,288.3,0,269.5,0,248s18.6-40.3,23.9-60.1c5.5-20.5-1-46,9.3-64
		c10.5-18.2,36-25.2,50.8-40s21.8-40.2,40-50.8c18-10.4,43.4-3.9,64-9.3C207.7,18.6,226.5,0,248,0s40.3,18.6,60.1,23.9
		c20.5,5.5,46-1,64,9.3c18.2,10.5,25.2,36,40,50.8s40.2,21.8,50.8,40c10.4,18,3.9,43.4,9.3,64C477.4,207.7,496,226.5,496,248z"/>
</g>
<g>
	<path class="st1" d="M84,84c-14.8,14.8-40.2,21.8-50.8,40c-10.4,18-3.9,43.4-9.3,64C18.6,207.7,0,226.5,0,248s18.6,40.3,23.9,60.1
		c5.5,20.5-1,46,9.3,64c10.5,18.2,36,25.2,50.8,40s21.8,40.2,40,50.8c18,10.4,43.5,3.9,64,9.3c19.8,5.3,38.6,23.8,60.1,23.8
		s40.3-18.6,60.1-23.9c20.5-5.5,46,1,64-9.3c18.2-10.5,25.2-36,40-50.8l0,0L84,84z"/>
</g>
<g>
	<circle class="st2" cx="248" cy="252" r="176"/>
</g>
<g>
	<path class="st0" d="M250.6,428.8c48.6,0.9,91.9-22.5,123.8-54.3l-249-249C93.7,157.4,72,201.4,72,250
		C72,347.2,142.3,426.7,250.6,428.8z"/>
</g>
<g>
	<circle class="st3" cx="248" cy="248" r="152"/>
</g>
<g>
	<path class="st4" d="M140.5,140.5C113,168,96,206,96,248c0,83.9,68.1,152,152,152c42,0,80-17,107.5-44.5L140.5,140.5z"/>
</g>
<path class="st2" d="M176,332c-3.1,0-6.1-1.2-8.5-3.5c-4.7-4.7-4.7-12.3,0-17l144-144c4.7-4.7,12.3-4.7,17,0s4.7,12.3,0,17l-144,144
	C182.1,330.8,179.1,332,176,332z M200,244c-24.3,0-44-19.7-44-44s19.7-44,44-44s44,19.7,44,44S224.3,244,200,244z M200,180
	c-11,0-20,9-20,20s9,20,20,20s20-9,20-20S211,180,200,180z M296,340c-24.3,0-44-19.7-44-44s19.7-44,44-44s44,19.7,44,44
	S320.3,340,296,340z M296,276c-11,0-20,9-20,20s9,20,20,20s20-9,20-20S307,276,296,276z"/>
</svg>
