<?xml version="1.0" encoding="utf-8"?>
<!-- Generator: Adobe Illustrator 23.0.3, SVG Export Plug-In . SVG Version: 6.00 Build 0)  -->
<svg version="1.1" id="Layer_1" xmlns="http://www.w3.org/2000/svg" xmlns:xlink="http://www.w3.org/1999/xlink" x="0px" y="0px"
	 viewBox="0 0 100.3 100.3" style="enable-background:new 0 0 100.3 100.3;" xml:space="preserve">
<style type="text/css">
	.st0{fill:#404E51;}
	.st1{fill:#E3A33A;}
	.st2{fill:#FFFFFF;}
	.st3{fill:#D2E8F7;}
</style>
<g>
	<g>
		<path class="st0" d="M100.3,50.1c0,27.7-22.4,50.1-50.1,50.1C22.5,100.3,0,77.8,0,50.1S22.5,0,50.1,0
			C77.8,0,100.3,22.5,100.3,50.1z"/>
	</g>
</g>
<g>
	<path class="st1" d="M60.2,38c-0.1-0.6-0.3-1.1-0.4-1.6c-0.8-2.5-2.2-4.7-3.9-6.6c-3.2-3.4-7.7-5.4-12.6-5.4
		c-9.6,0-17.4,7.8-17.4,17.4s7.8,17.4,17.4,17.4c5.9,0,11.2-3,14.3-7.5c1.2-1.7,2-3.6,2.6-5.7c0.1-0.5,0.2-1,0.3-1.5
		c0.1-0.9,0.2-1.7,0.2-2.6C60.6,40.4,60.4,39.2,60.2,38z"/>
	<path class="st2" d="M43.2,28.3c-7.4,0-13.4,6-13.4,13.4c0,7.4,6,13.4,13.4,13.4c7.4,0,13.4-6,13.4-13.4
		C56.6,34.3,50.6,28.3,43.2,28.3z M43.2,53.3c-6.5,0-11.7-5.3-11.7-11.7c0-6.4,5.2-11.7,11.7-11.7s11.7,5.3,11.7,11.7
		C54.9,48,49.6,53.3,43.2,53.3z M47.7,44.1c0,1.8-1.3,3.3-3.6,3.7v2.1h-2V48c-1.3-0.1-2.7-0.4-3.4-0.9l0.6-2.4
		c0.8,0.5,2,0.9,3.3,0.9c1.1,0,1.9-0.4,1.9-1.2s-0.6-1.2-2.1-1.8c-2.1-0.7-3.6-1.7-3.6-3.7c0-1.8,1.2-3.2,3.4-3.6v-1.9h2v1.8
		c1.3,0.1,2.2,0.3,2.9,0.7l-0.6,2.3c-0.5-0.2-1.4-0.7-2.9-0.7c-1.3,0-1.7,0.6-1.7,1.1c0,0.7,0.7,1.1,2.4,1.7
		C46.7,41.1,47.7,42.2,47.7,44.1z"/>
</g>
<g>
	<polygon class="st3" points="51.3,51.2 63,85.2 68.2,72.3 78.8,82.8 81.7,79.8 	"/>
	<polygon class="st2" points="51.3,51.2 86.1,60.6 74,66.4 84.7,76.6 81.7,79.8 	"/>
</g>
</svg>
