<?xml version="1.0" encoding="utf-8"?>
<!-- Generator: Adobe Illustrator 23.0.3, SVG Export Plug-In . SVG Version: 6.00 Build 0)  -->
<svg version="1.1" id="Layer_1" xmlns="http://www.w3.org/2000/svg" xmlns:xlink="http://www.w3.org/1999/xlink" x="0px" y="0px"
	 viewBox="0 0 63.2 63.2" style="enable-background:new 0 0 63.2 63.2;" xml:space="preserve">
<style type="text/css">
	.st0{fill:#88B337;}
	.st1{fill:#6B962A;}
	.st2{fill:#FFFFFF;}
	.st3{fill:#FDB62F;}
	.st4{fill:#FEC9A3;}
	.st5{fill:#F7BB8F;}
	.st6{fill:#4398D1;}
	.st7{fill:#3E8CC7;}
</style>
<g>
	<path class="st0" d="M52.3,41.1c0-0.5-0.1-0.9-0.4-1.4l-2.4-3.9c-0.3-0.6-0.5-1.3-0.5-1.9v-12c0-7.8-6.3-14.2-14.2-14.2h-6.5
		c-7.8,0-14.2,6.3-14.2,14.2v12c0,0.7-0.2,1.3-0.5,1.9l-2.4,3.9c-0.3,0.4-0.4,0.9-0.4,1.4l0,0c0,1.4,1.1,2.5,2.5,2.5h36.3
		C51.1,43.6,52.3,42.5,52.3,41.1z"/>
	<polygon class="st0" points="34.8,7.7 40.3,0 22.9,0 28.3,7.7 28.3,9.8 34.8,9.8 	"/>
</g>
<path class="st1" d="M51.9,39.7l-2.4-3.9c-0.3-0.6-0.5-1.3-0.5-1.9v-12c0-3.2-1-6.2-3-8.7c-2.9,16-13.1,25.2-22.8,30.5h26.5
	c1.4,0,2.6-1.1,2.6-2.5C52.3,40.6,52.2,40.1,51.9,39.7L51.9,39.7z"/>
<path class="st2" d="M37,24v-0.7c0-2-1.6-3.7-3.7-3.7h-0.7v-2.2h-2.2v2.2h-0.7c-2,0-3.7,1.6-3.7,3.6c0,1.5,0.9,2.9,2.4,3.4l2,0.7
	v4.1h-0.7c-0.8,0-1.5-0.7-1.5-1.5l0,0v-0.7H26v0.7c0,2,1.6,3.7,3.7,3.7h3.6c2,0,3.7-1.6,3.7-3.6c0-1.5-0.9-2.9-2.4-3.4l-2-0.7v-4.1
	h0.7c0.8,0,1.5,0.7,1.5,1.5l0,0V24H37L37,24z M33.9,28.8c0.6,0.2,1,0.8,1,1.4c0,0.8-0.7,1.5-1.5,1.5l0,0h-0.7v-3.3L33.9,28.8z
	 M30.5,25.2l-1.2-0.5c-0.6-0.2-1-0.8-1-1.4c0-0.8,0.7-1.5,1.5-1.5l0,0h0.7V25.2z"/>
<path class="st3" d="M57.8,6.5c-2.3,0.5-4.1,2.2-4.4,4.4c-0.4-2.2-2.1-4-4.4-4.4c2.2-0.4,4-2.1,4.4-4.4C53.8,4.3,55.5,6.1,57.8,6.5z
	 M4.4,23.9c-0.4,2.3-2.2,4-4.4,4.4c2.3,0.4,4,2.2,4.4,4.4c0.3-2.2,2.1-4,4.4-4.4C6.5,27.9,4.8,26.1,4.4,23.9z"/>
<path class="st4" d="M62.7,38c-0.9-1.5-2.8-2-4.4-1.2l-15.5,6.6c-0.3,0.1-0.6,0.2-0.9,0.2h-19c-1.2,0-2.2-1-2.2-2.2s1-2.2,2.2-2.2
	h8.7c3.6,0,6.5-2.9,6.5-6.5H20c-3,0-5.8,1.4-7.7,3.7l-6.8,8.3l7.7,14.1l29.6-7.1c1.3-0.3,2.5-0.7,3.7-1.4l15.2-7.8
	C63.2,41.6,63.6,39.6,62.7,38z"/>
<path class="st5" d="M10.7,54.3l2.4,4.5l29.6-7.1c1.3-0.3,2.5-0.7,3.7-1.4l8.2-4.2C40.9,50.3,22.8,52.9,10.7,54.3z"/>
<polygon class="st6" points="0,43.6 0,63.2 14.2,63.2 17.4,59.9 4.4,40.3 "/>
<path class="st7" d="M0,63.2h14.2l3.3-3.3L15,56.3c-4.8,2-9.9,3.5-15,4.5V63.2z"/>
<path class="st2" d="M12,57.8C12,59,11,60,9.8,60s-2.2-1-2.2-2.2s1-2.2,2.2-2.2S12,56.6,12,57.8z"/>
</svg>
