<?xml version="1.0" encoding="utf-8"?>
<!-- Generator: Adobe Illustrator 23.0.3, SVG Export Plug-In . SVG Version: 6.00 Build 0)  -->
<svg version="1.1" id="Layer_1" xmlns="http://www.w3.org/2000/svg" xmlns:xlink="http://www.w3.org/1999/xlink" x="0px" y="0px"
	 viewBox="0 0 46.2 46" style="enable-background:new 0 0 46.2 46;" xml:space="preserve">
<style type="text/css">
	.st0{fill:#3E50B4;}
</style>
<path class="st0" d="M4.8,19.4h3v3h-3V19.4z M40.5,21.4V0H0v27h20.1c-0.7,1.7-1.1,3.5-1.1,5.4c0,3.6,1.4,7,4,9.6s6,4,9.6,4
	s7-1.4,9.6-4s4-6,4-9.6s-1.4-7-4-9.6C41.6,22.3,41.1,21.8,40.5,21.4z M32.6,42.8c-2.8,0-5.3-1.1-7.3-3c-1.9-1.9-3-4.5-3-7.3
	c0-1.9,0.5-3.8,1.5-5.4c0.4-0.7,0.9-1.3,1.5-1.9c0.5-0.5,1-0.9,1.5-1.2c1.7-1.2,3.7-1.8,5.8-1.8c1.7,0,3.3,0.4,4.8,1.2
	c0.9,0.5,1.8,1.1,2.5,1.9c0.2,0.2,0.4,0.4,0.6,0.6c1.6,1.9,2.4,4.2,2.4,6.7c0,2.8-1.1,5.3-3,7.3C37.9,41.7,35.3,42.8,32.6,42.8z
	 M3.1,7.9h34.2v1.5H3.1V7.9L3.1,7.9z M3.1,3.1h34.2v1.7H3.1V3.1L3.1,3.1z M3.1,23.9V12.4h34.2v7.3c-1.5-0.6-3.1-0.9-4.8-0.9
	c-3.6,0-7,1.4-9.6,4c-0.3,0.3-0.7,0.7-1,1.1C21.9,23.9,3.1,23.9,3.1,23.9z M36.5,27l-0.4-0.4L35.7,27l-3.1,3.1L29.5,27l-0.4-0.4
	L28.7,27l-1.9,1.9l3.5,3.5l-3.5,3.5l2.3,2.3l3.5-3.5l3.5,3.5l2.3-2.3l-3.5-3.5l3.5-3.5L36.5,27z"/>
</svg>
