<?xml version="1.0" encoding="utf-8"?>
<!-- Generator: Adobe Illustrator 23.0.3, SVG Export Plug-In . SVG Version: 6.00 Build 0)  -->
<svg version="1.1" id="Layer_1" xmlns="http://www.w3.org/2000/svg" xmlns:xlink="http://www.w3.org/1999/xlink" x="0px" y="0px"
	 viewBox="0 0 34.1 39" style="enable-background:new 0 0 34.1 39;" xml:space="preserve">
<style type="text/css">
	.st0{fill:#FCB12B;}
</style>
<path class="st0" d="M14.5,7.3c0.8-3.1,1.8-4.9,2.5-4.9s1.8,1.8,2.5,4.9H22C21,3,19.3,0,16.9,0s-4.1,3.1-5.1,7.3H14.5z M29.3,9.8
	h-6.6c0.3,1.7,0.4,3.4,0.5,5.2c0.7,0.4,1.3,1.2,1.3,2.1c0,1.3-1.1,2.4-2.4,2.4s-2.4-1.1-2.4-2.4c0-0.9,0.5-1.6,1.2-2
	c-0.1-2-0.3-3.7-0.5-5.3H14c-0.3,1.6-0.4,3.3-0.5,5.3c0.7,0.4,1.2,1.2,1.2,2c0,1.3-1.1,2.4-2.4,2.4s-2.4-1.1-2.4-2.4
	c0-0.9,0.5-1.7,1.3-2.1c0.1-1.8,0.2-3.6,0.5-5.2H5.1L0,39h34.1L29.3,9.8z"/>
</svg>
