<?xml version="1.0" encoding="utf-8"?>
<!-- Generator: Adobe Illustrator 23.0.3, SVG Export Plug-In . SVG Version: 6.00 Build 0)  -->
<svg version="1.1" id="Layer_1" xmlns="http://www.w3.org/2000/svg" xmlns:xlink="http://www.w3.org/1999/xlink" x="0px" y="0px"
	 viewBox="0 0 33 52.6" style="enable-background:new 0 0 33 52.6;" xml:space="preserve">
<style type="text/css">
	.st0{fill:#703EE5;}
</style>
<path class="st0" d="M31.7,29.4c-0.6-0.5-6.8-7.3-8.4-8.3V3.3C23.3,1.5,21.8,0,20,0H3.3C1.5,0,0,1.5,0,3.3v31.1
	c0,1.8,1.5,3.3,3.3,3.3h5.4h1.9l-0.3-2.6C10.2,35,10.1,35,10,34.9H8.9H6.8c0.1-0.4,0.1-0.9,0.1-1.4c-0.2-1.3-1.3-2.4-2.6-2.7
	c-0.5-0.1-1-0.1-1.4,0V6.7c0.2,0,0.4,0.1,0.6,0.1c1.8,0,3.3-1.5,3.3-3.3c0-0.2,0-0.4-0.1-0.6h10c0,0.2-0.1,0.4-0.1,0.6
	c0,1.8,1.5,3.3,3.3,3.3c0.2,0,0.4,0,0.6-0.1v23.6l0,0v6.8c-1.1-0.8-2.4-3.5-2.4-3.5s-0.6-7-4.2-7c-0.1,0-0.2,0-0.3,0
	c0,0-2.7,0.2-0.5,7.9l1,8.5c0,0,1.1,4.6,4.2,7.8v0.9c0,0.5,0.4,0.9,0.9,0.9h9.9c0.5,0,0.9-0.4,0.9-0.8c0.4-3.3,1.7-15.6,2.5-17.5
	c0.1-0.3,0.2-0.6,0.3-0.9C33.1,32.4,33.2,30.5,31.7,29.4z M12,6.7c1.1,0,2,0.9,2,2s-0.9,2-2,2s-2-0.9-2-2S10.9,6.7,12,6.7z
	 M4.5,19.1c0,3.4,2.4,6.3,5.6,7c0.1-0.2,0.2-0.3,0.3-0.5c1.1-1.5,2.5-1.8,3-1.9c0.2,0,0.4,0,0.6,0c0.7,0,1.6,0.1,2.6,0.6
	c1.4-1.3,2.3-3.2,2.3-5.2c0-3.9-3.2-7.1-7.1-7.1S4.5,15.2,4.5,19.1z M7.4,18.5c0.4,0,0.4,0,0.5-0.4c0.1-0.3,0.2-0.6,0.3-1
	c0.1-0.2,0.2-0.2,0.4-0.2c0.3,0.1,0.5,0.2,0.8,0.2c0.2,0.1,0.3,0.2,0.2,0.4c-0.2,0.5-0.3,1-0.3,1.5c0,0.1,0,0.3,0.1,0.4
	c0.2,0.5,0.7,0.5,1,0.1c0.2-0.2,0.3-0.4,0.4-0.7c0.2-0.4,0.3-0.8,0.5-1.2c0.7-1.2,2.2-1.6,3.3-0.7c0.4,0.3,0.6,0.7,0.8,1.2
	c0.1,0.2,0.2,0.3,0.4,0.3s0.4,0,0.6,0s0.3,0.1,0.3,0.3s0,0.5,0,0.7s-0.1,0.3-0.3,0.3s-0.3,0-0.5,0c-0.3,0-0.4,0-0.4,0.3
	c-0.1,0.4-0.2,0.8-0.3,1.2c-0.2,0.3-0.2,0.3-0.5,0.2c-0.2-0.1-0.5-0.1-0.7-0.2c-0.3-0.1-0.3-0.2-0.2-0.4c0.2-0.4,0.3-0.9,0.4-1.3
	c0-0.3,0-0.6-0.1-0.9c-0.2-0.5-0.8-0.6-1.2-0.2c-0.1,0.2-0.2,0.3-0.3,0.5c-0.2,0.5-0.4,0.9-0.6,1.4c-0.4,0.7-1,1.1-1.9,1.1
	c-1-0.1-1.6-0.6-1.9-1.5c-0.1-0.4-0.1-0.4-0.5-0.4c-0.1,0-0.3,0-0.4,0C7,19.5,7,19.4,7,19.2c0-0.1,0-0.2,0-0.3
	C6.7,18.5,6.7,18.5,7.4,18.5z"/>
</svg>
