<?xml version="1.0" encoding="utf-8"?>
<!-- Generator: Adobe Illustrator 23.0.3, SVG Export Plug-In . SVG Version: 6.00 Build 0)  -->
<svg version="1.1" id="Layer_1" xmlns="http://www.w3.org/2000/svg" xmlns:xlink="http://www.w3.org/1999/xlink" x="0px" y="0px"
	 viewBox="0 0 37.9 47.3" style="enable-background:new 0 0 37.9 47.3;" xml:space="preserve">
<style type="text/css">
	.st0{fill:#04AD64;}
</style>
<path class="st0" d="M17.6,40.6v6.7h1.5c2.5,0,5-0.5,7.3-1.5c2.2-0.9,4.3-2.3,6-4s3.1-3.7,4-6c1-2.3,1.5-4.8,1.5-7.3v-0.7v-9
	c0-2.5-0.5-5-1.5-7.3c-0.9-2.2-2.3-4.3-4-6s-3.7-3.1-6-4c-2.3-1-4.8-1.5-7.3-1.5h-0.3c-2.5,0-5,0.5-7.3,1.5c-2.2,0.9-4.3,2.3-6,4
	s-3.1,3.7-4,6c-1,2.3-1.5,4.8-1.5,7.3v9C0,32.3,3.7,36,8.2,36h1.5V19.6H8.2c-1.9,0-3.7,0.7-5.1,1.8v-2.7c0-4.2,1.6-8.2,4.6-11.2
	s6.8-4.6,11-4.6H19c4.2,0,8.2,1.6,11.2,4.6s4.6,6.9,4.6,11.2v2.7c-1.4-1.1-3.2-1.8-5.1-1.8h-1.5v16.3h1.5c1.3,0,2.6-0.3,3.7-0.9
	c-0.8,1.7-1.8,3.2-3.2,4.6c-1.5,1.5-3.2,2.6-5.1,3.4l0.1-2.4H17.6L17.6,40.6z M6.5,22.9v9.8c-2.1-0.6-3.6-2.6-3.6-4.9
	C2.9,25.4,4.5,23.5,6.5,22.9z M31.3,32.6v-9.7c2.1,0.6,3.6,2.6,3.6,4.9S33.3,32,31.3,32.6z M22.1,43.9c-0.5,0.1-1,0.2-1.5,0.2v-0.5
	h1.5V43.9z"/>
</svg>
