<?xml version="1.0" encoding="utf-8"?>
<!-- Generator: Adobe Illustrator 23.0.3, SVG Export Plug-In . SVG Version: 6.00 Build 0)  -->
<svg version="1.1" id="Layer_1" xmlns="http://www.w3.org/2000/svg" xmlns:xlink="http://www.w3.org/1999/xlink" x="0px" y="0px"
	 viewBox="0 0 59.2 56.3" style="enable-background:new 0 0 59.2 56.3;" xml:space="preserve">
<style type="text/css">
	.st0{fill:#FEDB41;}
	.st1{fill:#F4B844;}
	.st2{fill:#00EFD1;}
</style>
<path class="st0" d="M44.4,49.5L44.4,49.5c0,3.8-3,6.8-6.8,6.8l0,0c-0.2,0-0.3,0-0.5,0c-3.6-0.2-6.3-3.2-6.3-6.8v-4.4H8V45L8.2,9.3
	h25.3l0,0C32.4,13,33,16.9,35,20.1c2.1,3.2,5.4,5.4,9.2,5.9L44.4,49.5z"/>
<path class="st1" d="M37.1,29.4H23.9c-0.5,0-1-0.4-1-1c0-0.5,0.4-1,1-1h13.2c0.5,0,1,0.4,1,1S37.6,29.4,37.1,29.4z M34.8,20.8h-11
	c-0.5,0-1-0.4-1-1s0.4-1,1-1h11c0.5,0,1,0.4,1,1S35.4,20.8,34.8,20.8z M37.1,38H23.9c-0.5,0-1-0.4-1-1c0-0.5,0.4-1,1-1h13.2
	c0.5,0,1,0.4,1,1S37.6,38,37.1,38z M19.7,19.8c0,1.1-1,2.1-2.2,2.1s-2.2-0.9-2.2-2.1s1-2.1,2.2-2.1S19.7,18.7,19.7,19.8z M19.7,28.4
	c0,1.2-1,2.1-2.2,2.1s-2.2-0.9-2.2-2.1s1-2.1,2.2-2.1S19.7,27.3,19.7,28.4z M19.7,37c0,1.2-1,2.1-2.2,2.1s-2.2-0.9-2.2-2.1
	c0-1.2,1-2.1,2.2-2.1C18.7,35,19.7,35.9,19.7,37z"/>
<path class="st1" d="M37.1,56.3L37.1,56.3H6.8c-3.8,0-6.8-3-6.8-6.8v-4.4h30.8v4.4C30.8,53.1,33.5,56,37.1,56.3z"/>
<path class="st2" d="M46.1,0c5.6,0,10.6,3.6,12.4,9s-0.1,11.2-4.6,14.6s-10.7,3.5-15.3,0.2c-4.6-3.2-6.7-9.1-5-14.5
	C35.2,3.8,40.3,0,46.1,0z"/>
<path class="st0" d="M46.1,12.1c-1.2,0-2.2-1-2.2-2.2s0.9-2.2,2.1-2.3l0,0h0.1c1.2,0,2.2,1,2.2,2.2c0,0.5,0.4,1,1,1s1-0.4,1-1
	c0-2-1.4-3.7-3.3-4.1v-1c0-0.5-0.4-1-1-1s-1,0.4-1,1v1c-2,0.5-3.4,2.5-3.1,4.6S44,14,46.1,14c1.2,0,2.2,1,2.2,2.2s-1,2.2-2.2,2.2
	s-2.2-1-2.2-2.2c0-0.5-0.4-1-1-1c-0.5,0-1,0.4-1,1c0,1.9,1.3,3.6,3.1,4.1v1.1c0,0.5,0.4,1,1,1s1-0.4,1-1v-1c2.1-0.5,3.5-2.4,3.3-4.6
	S48.2,12.1,46.1,12.1z"/>
</svg>
