<?xml version="1.0" encoding="utf-8"?>
<!-- Generator: Adobe Illustrator 23.0.3, SVG Export Plug-In . SVG Version: 6.00 Build 0)  -->
<svg version="1.1" id="Layer_1" xmlns="http://www.w3.org/2000/svg" xmlns:xlink="http://www.w3.org/1999/xlink" x="0px" y="0px"
	 viewBox="0 0 37.8 37.9" style="enable-background:new 0 0 37.8 37.9;" xml:space="preserve">
<style type="text/css">
	.st0{fill:#F55964;}
</style>
<path class="st0" d="M11,4.2H4.2V11H11V4.2z M8.4,8.4H6.8V6.8h1.6V8.4z M26.3,11h6.8V4.2h-6.8V11z M28.9,6.8h1.6v1.6h-1.6V6.8z
	 M11,26.7H4.2v6.8H11V26.7z M8.4,30.8H6.8v-1.6h1.6V30.8z M7,15.3V18h2.7v2.6H7H4.3V18v-2.7H7z M33,31.2c0.6-0.8,1-1.6,1.4-2.5h3V26
	v-2.7v-2.7h-2.7v2.7v0.1c-0.2-1-0.6-1.9-1.1-2.8h1.1V18h-2v-2.8h2V18h2.7v-3V0H22.1v4.7h-1.6h-0.1h-2.6V2h-2.6V0H0v15.2h15.1V18
	h-2.7v2.7h2.7h2.3c-0.9,1.5-1.4,3.1-1.4,4.9h-0.8v-3.2h-2.9v-1.6H9.6v1.6H4.2v-1.6H2v1.6H0v15.2h15.2v-0.8h2.5v-2.7h2.7v2.7h2.7
	v-2.1c0.6,0.2,1.2,0.2,1.8,0.3v1.8l2.7-0.1v-2c1.3-0.3,2.5-0.9,3.5-1.7l4.9,4.9l1.8-1.8L33,31.2z M12.6,12.6h-10v-10h10V12.6z
	 M12.6,34.9h-10v-10h10V34.9z M24.7,2.6h10v10h-10V2.6z M32,18v0.7c-0.2-0.2-0.5-0.5-0.8-0.7H32z M30,15.2v2c-0.5-0.3-1-0.5-1.6-0.7
	l0.1-1.3H30z M20.5,7.3h1.6v2.6h-1.6V7.3z M22.1,12.6v2.6h3.7V16c-0.1,0-0.2,0-0.3,0c-2.1,0-4.1,0.7-5.7,1.9h-2v-2.6h2.7v-2.7H22.1z
	 M15.2,15.2V7.3h2.6V10h2.6v2.6h-2.6v2.6H15.2z M15.2,31.4v-3.2h1.2c0.3,1.2,0.9,2.2,1.7,3.2H15.2z M32.2,26.1
	c-0.1,1-0.3,1.9-0.8,2.7c-0.1,0.2-0.3,0.6-0.4,0.7c-0.5,0.7-1.1,1.3-1.8,1.8c-1,0.7-2.2,1.1-3.5,1.2c-0.1,0-0.2,0-0.3,0
	c-2,0-3.8-0.9-5-2.2c-1-1.1-1.7-2.5-1.8-4.1c0-0.2,0-0.3,0-0.5c0-1.9,0.8-3.6,2-4.8c0.7-0.7,1.5-1.2,2.4-1.6
	c0.7-0.3,1.5-0.4,2.4-0.4c1.9-0.2,3.6,0.5,4.9,1.8c0.3,0.3,0.6,0.6,0.8,1c0.3,0.5,0.6,1.1,0.8,1.7c0.2,0.7,0.3,1.4,0.3,2.2
	C32.2,25.8,32.2,25.9,32.2,26.1z M31.3,25.5h-2.6c0-0.8-0.3-1.5-0.8-2.1c-0.6-0.7-1.4-1.1-2.4-1.1v-1.6l-0.1-1.1
	C28.7,19.6,31.3,22.3,31.3,25.5z"/>
</svg>
