<?xml version="1.0" encoding="utf-8"?>
<!-- Generator: Adobe Illustrator 23.0.3, SVG Export Plug-In . SVG Version: 6.00 Build 0)  -->
<svg version="1.1" id="Layer_1" xmlns="http://www.w3.org/2000/svg" xmlns:xlink="http://www.w3.org/1999/xlink" x="0px" y="0px"
	 viewBox="0 0 41 41" style="enable-background:new 0 0 41 41;" xml:space="preserve">
<style type="text/css">
	.st0{fill:#3E50B4;}
</style>
<path class="st0" d="M12.3,20.2V19h-1.8v7h6v-7h-1.6v1.2H12.3z M13.7,25.4c-0.5,0-0.9-0.4-0.9-0.9s0.4-0.9,0.9-0.9s0.9,0.4,0.9,0.9
	C14.7,25,14.3,25.4,13.7,25.4z M20.5,0C9.2,0,0,9.2,0,20.5S9.2,41,20.5,41S41,31.8,41,20.5S31.8,0,20.5,0z M7.5,15.5l5.7-6.4h0.9
	l-3.8,6.4V17h2v-1.5l3.8-6.4h0.7l-1.9,6.2V17h1.9v-1.5l1.9-6.4h0.5v6.5V17h2.6l-0.2-7.9h0.8l1.6,5.5V17h2.4v-1.4l-1.7-6.5h1l3.3,6.5
	V17h2v-1.4l-3.9-6.5h1l5.5,6.4v4.7h-1.1V28h-24v-7.8H7.4L7.5,15.5L7.5,15.5z M36.5,32h-32c0-1.7,1.3-3,3-3h25.9
	C35.1,29,36.5,30.3,36.5,32z M26.3,20.2V19H24v1.2h-2.1V19h-2.7v1.2h-0.7V26h12v-7h-1.6v1.2H26.3z"/>
</svg>
