<?xml version="1.0" encoding="utf-8"?>
<!-- Generator: Adobe Illustrator 23.0.3, SVG Export Plug-In . SVG Version: 6.00 Build 0)  -->
<svg version="1.1" id="Layer_1" xmlns="http://www.w3.org/2000/svg" xmlns:xlink="http://www.w3.org/1999/xlink" x="0px" y="0px"
	 viewBox="0 0 35.3 54.3" style="enable-background:new 0 0 35.3 54.3;" xml:space="preserve">
<style type="text/css">
	.st0{fill:#00ACEA;}
	.st1{fill:#00EFD1;}
	.st2{fill:#FEDB41;}
</style>
<path class="st0" d="M20.3,5.5H30l5.3,6.7v32.5H9V12.2L12.3,8l2-2.5H20.3z M22.3,11.3c-0.1,0-0.1,0-0.2,0c-1.5,0-2.8,1.2-2.9,2.7
	c0,0.1,0,0.1,0,0.2c0,1.6,1.3,2.9,2.9,2.9s2.9-1.2,3-2.8C25.1,12.8,23.9,11.4,22.3,11.3z"/>
<path class="st1" d="M28.2,44.7l-3.4,9.6L0,45.5l9-25.2l0,0v24.4C9,44.7,28.2,44.7,28.2,44.7z M19.8,15c-0.3,0-0.5,0-0.7-0.1
	c-2.1-0.3-4.5-2.1-6.3-4.5c-0.5-0.6-0.9-1.2-1.2-1.9c-1.8-3.4-1.8-6.6,0-7.9c1.1-0.9,2.8-0.8,4.6,0c1.6,0.8,3.2,2.2,4.5,3.9
	C20.8,4.7,21,4.9,21.1,5c0,0,0,0.1,0.1,0.1L19.7,6c0,0,0,0.1,0.1,0.1c0,0,0,0,0-0.1c-0.1-0.1-0.2-0.3-0.3-0.5
	c-2.4-3.2-5.4-4.5-6.6-3.6c-1,0.8-0.8,3.2,0.5,5.7c0.3,0.6,0.7,1.2,1.1,1.7c1.5,2.1,3.6,3.6,5.2,3.8c0.6,0.1,1.1,0,1.4-0.2
	c0.5-0.4,0.6-1.1,0.7-1.6h0.8h1l0,0l0,0c0,1.3-0.5,2.4-1.4,3C21.2,14.8,20.5,15,19.8,15z M31.1,41.4H13.2c-0.5,0-0.9-0.4-0.9-0.9
	s0.4-0.9,0.9-0.9h17.9c0.5,0,0.9,0.4,0.9,0.9C32,41,31.6,41.4,31.1,41.4z M31.1,37.2H13.2c-0.5,0-0.9-0.4-0.9-0.9s0.4-0.9,0.9-0.9
	h17.9c0.5,0,0.9,0.4,0.9,0.9C32,36.8,31.6,37.2,31.1,37.2z"/>
<path class="st2" d="M32.5,23.1c0.3,0,0.4,0.3,0.4,0.6s-0.2,0.6-0.4,0.6h-2.4v1.5h1.3c0.3,0,0.4,0.3,0.4,0.5s-0.1,0.5-0.4,0.5h-1.3
	v1.5h2.4c0.3,0,0.4,0.3,0.4,0.6s-0.1,0.6-0.4,0.6h-3.2c-0.3,0-0.6-0.1-0.6-0.4v-5.6c0-0.3,0.3-0.4,0.6-0.4
	C29.3,23.1,32.5,23.1,32.5,23.1z M26.9,28.4c0.3,0,0.4,0.3,0.4,0.6s-0.1,0.6-0.4,0.6h-2.8c-0.3,0-0.6-0.1-0.6-0.4v-5.7
	c0-0.3,0.3-0.4,0.7-0.4c0.3,0,0.7,0.1,0.7,0.4v4.9C24.9,28.4,26.9,28.4,26.9,28.4z M15.6,23.8c0,0.2-0.2,0.7-0.6,0.7
	c-0.3,0-0.5-0.3-1.2-0.3c-0.6,0-0.9,0.3-0.9,0.5c0,0.9,2.8,0.7,2.8,3c0,1.3-0.9,2-2.2,2c-1.2,0-2.1-0.6-2.1-1.2
	c0-0.3,0.3-0.7,0.6-0.7c0.4,0,0.7,0.7,1.5,0.7c0.4,0,0.9-0.2,0.9-0.6c0-1.1-2.8-0.9-2.8-3c0-1.3,1.2-1.8,2.3-1.8
	C14.3,23.1,15.6,23.2,15.6,23.8z M22.1,29L22.1,29c0,0.4-0.5,0.7-0.9,0.7c-0.2,0-0.4-0.1-0.5-0.3l-0.3-1.1h-1.9l-0.2,1.1
	c-0.1,0.2-0.2,0.3-0.5,0.3c-0.4,0-0.9-0.2-0.9-0.6V29l1.7-5.4c0.1-0.3,0.5-0.5,0.9-0.5s0.8,0.2,0.9,0.5L22.1,29z M20.2,27.2
	l-0.6-2.4L19,27.2H20.2z"/>
</svg>
