<?xml version="1.0" encoding="utf-8"?>
<!-- Generator: Adobe Illustrator 23.0.3, SVG Export Plug-In . SVG Version: 6.00 Build 0)  -->
<svg version="1.1" id="Layer_1" xmlns="http://www.w3.org/2000/svg" xmlns:xlink="http://www.w3.org/1999/xlink" x="0px" y="0px"
	 viewBox="0 0 44 44" style="enable-background:new 0 0 44 44;" xml:space="preserve">
<style type="text/css">
	.st0{fill:#C7EAFF;}
	.st1{fill:#FFBC53;}
</style>
<path class="st0" d="M24.7,15.8H6.1c-2.8,0-5.2,2.3-5.2,5.2v13.2c0,2.8,2.3,5.2,5.2,5.2h5.6h-0.1l3.8,3.8v-3.8h9.3
	c2.8,0,5.2-2.3,5.2-5.2V21C29.8,18.1,27.5,15.8,24.7,15.8z"/>
<path class="st1" d="M31.6,0.9h-2.2c-6.4,0-11.6,5.2-11.6,11.6l0,0c0,6.4,5.2,11.6,11.6,11.6h2.2c1.2,0,2.3-0.2,3.4-0.5l3.6,3.6
	v-5.4c2.8-2.1,4.6-5.5,4.6-9.3l0,0C43.2,6.1,38,0.9,31.6,0.9z"/>
<g>
	<path d="M23.7,26.6H5.6c-0.5,0-0.9,0.4-0.9,0.9s0.4,0.9,0.9,0.9h18.1c0.5,0,0.9-0.4,0.9-0.9S24.2,26.6,23.7,26.6z"/>
	<path d="M23.7,31.4c-0.2,0-0.4,0.1-0.6,0.3c-0.2,0.2-0.3,0.4-0.3,0.6c0,0.2,0.1,0.4,0.3,0.6c0.2,0.2,0.4,0.3,0.6,0.3
		c0.3,0,0.5-0.1,0.6-0.3c0.2-0.2,0.3-0.4,0.3-0.6s-0.1-0.4-0.3-0.6S23.9,31.4,23.7,31.4z"/>
	<path d="M5.6,31.4c-0.5,0-0.9,0.4-0.9,0.9s0.4,0.9,0.9,0.9h14.8c0.4,0,0.9-0.4,0.9-0.9s-0.4-0.9-0.9-0.9H5.6z"/>
	<path d="M31.6,0h-2.2c-6.9,0-12.5,5.5-12.5,12.4c0,6.9,5.6,12.5,12.5,12.5h2.2c1.1,0,2.2-0.1,3.2-0.4l3.2,3.2
		c0.2,0.2,0.4,0.3,0.6,0.3c0.1,0,0.2,0,0.3,0c0.3-0.1,0.5-0.5,0.5-0.8v-5c1.4-1.1,2.5-2.4,3.3-4c0.9-1.8,1.4-3.7,1.4-5.7
		C44.1,5.6,38.5,0,31.6,0z M38,21.2c-0.2,0.2-0.3,0.4-0.3,0.7v3.3l-2.1-2.1c-0.2-0.2-0.4-0.3-0.6-0.3c-0.1,0-0.1,0-0.3,0.1
		c-1.1,0.3-2.1,0.5-3.2,0.5h-2.2c-6,0-10.8-4.8-10.8-10.8S23.4,1.8,29.3,1.8h2.2c6,0,10.8,4.9,10.8,10.8C42.3,16,40.7,19.1,38,21.2z
		"/>
	<path d="M30,27.5c-0.5,0-0.9,0.4-0.9,0.9v5.9c0,2.4-1.9,4.3-4.3,4.3h-9.3c-0.5,0-0.9,0.4-0.9,0.9v1.7l-2.1-2.1
		c-0.1-0.3-0.4-0.5-0.8-0.5H6.1c-2.4,0-4.3-1.9-4.3-4.3V21.1c0-2.4,1.9-4.3,4.3-4.3h8.7c0.5,0,0.9-0.4,0.9-0.9S15.3,15,14.8,15H6.1
		c-3.3,0-6,2.7-6,6v13.2c0,3.3,2.7,6,6,6h5.2l3.5,3.5c0.2,0.2,0.4,0.3,0.6,0.3c0.1,0,0.2,0,0.6,0c0.3-0.1,0.5-0.5,0.5-0.8v-2.9h8.4
		c3.3,0,6-2.7,6-6v-5.9C30.9,27.9,30.5,27.5,30,27.5z"/>
	<path d="M18.1,21.7H5.6c-0.5,0-0.9,0.4-0.9,0.9s0.4,0.9,0.9,0.9h12.5c0.5,0,0.9-0.4,0.9-0.9S18.6,21.7,18.1,21.7z"/>
	<path d="M31,5.9c-1,0-2,0.3-2.7,1c-0.8,0.7-1.2,1.7-1.2,2.7c0,0.5,0.4,0.9,0.9,0.9s0.9-0.4,0.9-0.9s0.2-1,0.6-1.4
		c0.3-0.4,0.9-0.5,1.4-0.5c1,0.1,1.7,0.9,1.8,1.8c0.1,0.9-0.6,1.8-1.5,2c-0.8,0.2-1.3,0.8-1.3,1.6v2.1c0,0.5,0.4,0.9,0.9,0.9
		c0.4,0,0.8-0.4,0.8-1v-2c1.8-0.4,2.9-2,2.8-3.8C34.2,7.5,32.8,6,31,5.9z"/>
	<path d="M30.8,17.7c-0.2,0-0.4,0.1-0.6,0.3s-0.3,0.4-0.3,0.6c0,0.2,0.1,0.4,0.3,0.6s0.4,0.3,0.6,0.3s0.4-0.1,0.6-0.3
		c0.2-0.2,0.3-0.4,0.3-0.6c0-0.2-0.1-0.4-0.3-0.6C31.2,17.8,31,17.7,30.8,17.7z"/>
</g>
</svg>
