<?xml version="1.0" encoding="utf-8"?>
<!-- Generator: Adobe Illustrator 23.0.3, SVG Export Plug-In . SVG Version: 6.00 Build 0)  -->
<svg version="1.1" id="Layer_1" xmlns="http://www.w3.org/2000/svg" xmlns:xlink="http://www.w3.org/1999/xlink" x="0px" y="0px"
	 viewBox="0 0 45.8 45.8" style="enable-background:new 0 0 45.8 45.8;" xml:space="preserve">
<style type="text/css">
	.st0{fill:#3E50B4;}
</style>
<path class="st0" d="M22.9,0C10.3,0,0,10.3,0,22.9s10.3,22.9,22.9,22.9s22.9-10.3,22.9-22.9S35.5,0,22.9,0z M35.4,35.3h-25
	c0,0-2.2,0.3-2.2-1.9V13.5l0,0c0-0.1,0-0.2,0-0.4c0-0.3,0.1-0.5,0.2-0.8c0.5-1.3,2.2-1.8,2.3-1.8h0.1h23.7v1H10.8
	c-0.2,0.1-1.3,0.4-1.5,1.2c-0.2,0.5-0.1,1,0.3,1.6h25.8v6.5h-9.8c0,0-2.8,0.2-2.8,3.7s3,3.7,3,3.7h9.6V35.3z M11.2,12.6v-0.3V12
	h22.6v0.3v0.3H11.2z M33.9,13.1v0.3v0.4H11.2v-0.3v-0.3L33.9,13.1L33.9,13.1z M37.6,27.8H25.8c0,0-2.7-0.2-2.7-3.4s2.5-3.4,2.5-3.4
	h12.1L37.6,27.8L37.6,27.8z"/>
</svg>
