<?xml version="1.0" encoding="utf-8"?>
<!-- Generator: Adobe Illustrator 23.0.3, SVG Export Plug-In . SVG Version: 6.00 Build 0)  -->
<svg version="1.1" id="Layer_1" xmlns="http://www.w3.org/2000/svg" xmlns:xlink="http://www.w3.org/1999/xlink" x="0px" y="0px"
	 viewBox="0 0 37.7 41.4" style="enable-background:new 0 0 37.7 41.4;" xml:space="preserve">
<style type="text/css">
	.st0{fill:#DE617D;}
</style>
<path class="st0" d="M10.2,34.6c1.9,0,3.4,1.5,3.4,3.4s-1.5,3.4-3.4,3.4S6.8,39.9,6.8,38S8.3,34.6,10.2,34.6z M30.9,34.6
	c1.9,0,3.4,1.5,3.4,3.4s-1.5,3.4-3.4,3.4s-3.4-1.5-3.4-3.4S29,34.6,30.9,34.6z M35,6.9h-1.5c-0.5,0-0.9,0.4-0.9,0.9v3.4
	c0,0.8-0.4,1.5-1,2c-0.2,0.2-0.4,0.5-0.3,0.8c0.1,0.8-0.2,1.6-0.7,2.1l-2.4,2.4c-0.6,0.6-1.3,0.8-2.1,0.7c-0.3,0-0.6,0.1-0.8,0.3
	c-0.5,0.6-1.2,1-2,1h-3.4c-0.8,0-1.5-0.4-2-1c-0.4,0-0.7-0.1-1-0.1c-0.8,0.1-1.6-0.2-2.1-0.7l-2.4-2.4c-0.6-0.6-0.8-1.4-0.7-2.1
	c0-0.3-0.1-0.6-0.3-0.8c-0.6-0.5-1-1.2-1-2V8c0-0.5-0.4-0.9-0.9-0.9H7.6L6.9,4.9C6.7,4.2,6,3.7,5.3,3.7H0.9C0.4,3.7,0,4.1,0,4.6v1.7
	c0,0.5,0.4,0.9,0.9,0.9h3l5.4,17.4l-2.6,2.6c-1,1-1.3,2.5-0.7,3.8c0.5,1.3,1.8,2.1,3.2,2.1h24.3c0.5,0,0.9-0.4,0.9-0.9v-1.7
	c0-0.5-0.4-0.9-0.9-0.9H9.2l3.4-3.4h15.7c1.3,0,2.6-0.8,3.1-2l6-12.8c0.2-0.4,0.3-0.8,0.3-1.2V10C37.8,8.2,36.6,6.9,35,6.9z
	 M12.6,12.1l1.7,0.4L13.4,14c-0.2,0.3-0.1,0.8,0.1,1.1l2.4,2.4c0.3,0.3,0.7,0.3,1.1,0.1l1.5-0.9l0.4,1.7c0.1,0.4,0.4,0.7,0.8,0.7
	h3.4c0.4,0,0.7-0.3,0.8-0.7l0.4-1.7l1.5,0.9c0.3,0.2,0.8,0.1,1.1-0.1l2.4-2.4c0.3-0.3,0.3-0.7,0.1-1.1l-0.9-1.5l1.7-0.4
	c0.4-0.1,0.7-0.4,0.7-0.8V7.9c0-0.4-0.3-0.7-0.7-0.8l-1.7-0.4l0.9-1.5c0.2-0.3,0.1-0.8-0.1-1.1l-2.4-2.5c-0.3-0.3-0.7-0.3-1.1-0.1
	l-1.5,0.9l-0.4-1.7C23.8,0.3,23.5,0,23.1,0h-3.4c-0.4,0-0.7,0.3-0.8,0.7l-0.4,1.7L17,1.5c-0.3-0.2-0.8-0.2-1.1,0.1L13.5,4
	c-0.3,0.3-0.3,0.7-0.1,1.1l0.9,1.5L12.6,7c-0.4,0.1-0.7,0.4-0.7,0.8v3.4C12,11.6,12.2,12,12.6,12.1z M21.4,5.2
	c2.4,0,4.3,1.9,4.3,4.3s-1.9,4.3-4.3,4.3s-4.3-1.9-4.3-4.3S19.1,5.2,21.4,5.2z"/>
</svg>
