<?xml version="1.0" encoding="utf-8"?>
<!-- Generator: Adobe Illustrator 23.0.3, SVG Export Plug-In . SVG Version: 6.00 Build 0)  -->
<svg version="1.1" id="Layer_1" xmlns="http://www.w3.org/2000/svg" xmlns:xlink="http://www.w3.org/1999/xlink" x="0px" y="0px"
	 viewBox="0 0 50.9 51" style="enable-background:new 0 0 50.9 51;" xml:space="preserve">
<style type="text/css">
	.st0{fill:#2A51FF;}
	.st1{fill:#10BEFF;}
	.st2{fill:#5AECFF;}
</style>
<path class="st0" d="M43.8,48.5l6.4,1.8l-1.8-6.4c1.6-2.5,2.5-5.4,2.5-8.6c0-8.7-7-15.7-15.7-15.7s-15.7,7-15.7,15.7
	S26.6,51,35.3,51C38.4,51,41.4,50.1,43.8,48.5z"/>
<path class="st1" d="M19.5,0l-8,19.5l8,19.5C30.2,39,39,30.3,39,19.5S30.2,0,19.5,0z"/>
<path class="st2" d="M0,19.5c0,3.5,0.9,6.9,2.7,9.9l-2.6,9.5l9.5-2.6c3,1.8,6.4,2.7,9.9,2.7V0C8.7,0,0,8.7,0,19.5z"/>
<g>
	<rect x="18" y="27" width="3" height="3"/>
	<path d="M19.5,8.9L19.5,8.9C19.5,8.9,19.5,8.9,19.5,8.9C19.5,8.9,19.5,8.9,19.5,8.9L19.5,8.9c-3.3,0.1-6,2.7-6,6h3c0-1.6,1.3-3,3-3
		c1.6,0,3,1.3,3,3c0,0.8-0.3,1.6-1,2.2l-2,1.9v0L18,20.4V24h1.5h0H21v-2.3l2.5-2.4c1.2-1.1,1.9-2.7,1.9-4.4
		C25.5,11.5,22.8,8.9,19.5,8.9z"/>
</g>
</svg>
