<?xml version="1.0" encoding="utf-8"?>
<!-- Generator: Adobe Illustrator 23.0.3, SVG Export Plug-In . SVG Version: 6.00 Build 0)  -->
<svg version="1.1" id="Layer_1" xmlns="http://www.w3.org/2000/svg" xmlns:xlink="http://www.w3.org/1999/xlink" x="0px" y="0px"
	 viewBox="0 0 46 41.4" style="enable-background:new 0 0 46 41.4;" xml:space="preserve">
<style type="text/css">
	.st0{fill:#7FABDA;}
	.st1{fill:#7383BF;}
	.st2{fill:#E7ECED;}
	.st3{fill:#424A60;}
</style>
<path class="st0" d="M38.2,13.1C38.1,6.5,32.7,1,26.1,1c-4.2,0-8.2,2.3-10.4,5.6c-1-0.6-2.1-1-3.4-1c-3.4,0-6.1,2.7-6.1,6.1
	c0,0.1,0,0.2,0,0.3s0,0.3,0,0.4C3.3,13.8,1,17.2,1,20.8c0,4.9,4,9,9,9h18.6c0.1,0,0.2,0,0.3,0s0.2,0,0.3,0h7.4
	c4.6,0,8.4-3.8,8.4-8.4C45,17.3,42,13.8,38.2,13.1z"/>
<path class="st1" d="M39.2,12.3C38.7,5.4,33,0,26.1,0c-4,0-8.1,2-10.6,5.2c-0.9-0.4-2-0.7-3.1-0.7c-2,0-3.8,0.8-5.1,2.1
	C6,7.9,5.2,9.7,5.2,11.7v0.1c-3.1,1.8-5.2,5.4-5.2,9c0,5.5,4.5,10,10,10h26.6c5.2,0,9.4-4.2,9.4-9.4C46,17.2,43.1,13.4,39.2,12.3z
	 M36.6,28.8H10c-4.4,0-8-3.6-8-8c0-3,1.9-6.2,4.6-7.5L7.2,13v-1.3c0-0.1,0-0.3,0-0.4C7.3,10,7.9,8.9,8.7,8c0.9-0.9,2.2-1.4,3.6-1.4
	c1,0,1.9,0.3,2.9,0.9l0.8,0.5c1,0.9,1.6,2.2,1.6,3.7c0,0.6,0.4,1,1,1s1-0.4,1-1c0-2.1-0.9-4-2.3-5.3C19.3,3.7,22.7,2,26.1,2
	c5.7,0,10.4,4.4,11,10c-0.8,0-1.8,0-2.9,0.1c-0.5,0.1-0.9,0.6-0.8,1.1c0.1,0.5,0.5,0.8,1,0.8c0.1,0,0.1,0,0.2,0c1.7-0.3,3.4,0,3.5,0
	c3.4,0.6,6,3.8,6,7.3C44,25.5,40.7,28.8,36.6,28.8z"/>
<circle class="st2" cx="23.8" cy="27.5" r="7.6"/>
<path class="st3" d="M37.5,39.7l-7-6.9c1.2-1.5,1.9-3.3,1.9-5.3c0-4.7-3.9-8.6-8.6-8.6c-4.7,0-8.6,3.9-8.6,8.6s3.9,8.6,8.6,8.6
	c2,0,3.9-0.7,5.3-1.9l7,6.9c0.2,0.2,0.4,0.3,0.7,0.3c0.3,0,0.5-0.1,0.7-0.3C37.9,40.7,37.9,40.1,37.5,39.7z M17.2,27.5
	c0-3.6,3-6.6,6.6-6.6c3.6,0,6.6,3,6.6,6.6c0,3.6-3,6.6-6.6,6.6C20.2,34.1,17.2,31.1,17.2,27.5z"/>
</svg>
