<?xml version="1.0" encoding="utf-8"?>
<!-- Generator: Adobe Illustrator 23.0.3, SVG Export Plug-In . SVG Version: 6.00 Build 0)  -->
<svg version="1.1" id="Layer_1" xmlns="http://www.w3.org/2000/svg" xmlns:xlink="http://www.w3.org/1999/xlink" x="0px" y="0px"
	 viewBox="0 0 33.8 33.8" style="enable-background:new 0 0 33.8 33.8;" xml:space="preserve">
<style type="text/css">
	.st0{fill:#00E2C1;}
</style>
<path class="st0" d="M16.9,0C7.6,0,0,7.6,0,16.9s7.6,16.9,16.9,16.9s16.9-7.6,16.9-16.9S26.2,0,16.9,0z M16,26.7
	c0,0.2-0.1,0.4-0.3,0.5l-0.5,0.3h-0.1c-0.2,0.2-0.5,0.2-0.7,0.1l-0.1,0.1l0,0h-0.1c-0.3,0.2-0.7,0.3-0.8,0.3c-1,0.2-2-0.2-2.6-1.1
	l-5-7c-0.8-1.1-0.6-2.7,0.4-3.5l0.1-0.1c0-0.3,0.1-0.6,0.3-0.8L7,15.2c0.1,0,0.1-0.1,0.2-0.1c0.3-0.1,0.8,0,1,0.3l1.5,2.1
	c0.3,0.4,0.2,0.9-0.2,1.1L9.2,19c-0.2,0.1-0.5,0.2-0.7,0.1l4,5.5c0-0.2,0.1-0.4,0.3-0.5l0.4-0.3c0.4-0.3,0.9-0.2,1.1,0.2l1.5,2.1
	C16,26.2,16,26.5,16,26.7z M14.4,13.7c-0.7,0-1.4,0.4-1.8,0.7L12,13c0.6-0.5,1.6-0.9,2.8-0.9c1.9,0,2.9,1.1,2.9,2.6
	c0,1.4-1,2.5-2.2,3.6l-0.8,0.6l0,0h3.2v1.6h-6v-1.2l1.1-1c1.8-1.6,2.7-2.6,2.8-3.6C15.8,14.3,15.4,13.7,14.4,13.7z M27.1,24.1
	l-2,0.8c-2,2-4.8,3.3-7.9,3.3c-0.3,0-0.5,0-0.8,0l0.7-0.9h0.1c2.7,0,5.2-1,7.1-2.9l0.4-2.2l0.9,0.7c1.2-1.7,1.9-3.8,1.9-5.9
	c0-2.8-1.1-5.3-3-7.3c-1.9-1.9-4.5-3-7.3-3c-0.7,0-1.3,0.1-2,0.2l-1.7,1.8l-0.4-1.2C11.9,8,10.8,8.7,9.9,9.7c-1.4,1.4-2.3,3.1-2.8,5
	l-1,0.4c0.7-3.8,3.3-7,6.7-8.4l-0.3-0.9l1.8,0.4c0.9-0.2,1.8-0.4,2.8-0.4c6.2,0,11.2,5,11.2,11.2c0,2.4-0.8,4.7-2.1,6.5L27.1,24.1z
	 M25.5,17.2v1.5h-1v2h-1.9v-2h-3.7v-1.3l3.2-5.1h2.4v4.9H25.5z M21.9,15.4l-1.1,1.8l0,0h1.9v-1.9c0-0.5,0-1,0.1-1.6h-0.1
	C22.4,14.3,22.2,14.8,21.9,15.4z"/>
</svg>
