<?xml version="1.0" encoding="utf-8"?>
<!-- Generator: Adobe Illustrator 23.0.3, SVG Export Plug-In . SVG Version: 6.00 Build 0)  -->
<svg version="1.1" id="Layer_1" xmlns="http://www.w3.org/2000/svg" xmlns:xlink="http://www.w3.org/1999/xlink" x="0px" y="0px"
	 viewBox="0 0 60 43.4" style="enable-background:new 0 0 60 43.4;" xml:space="preserve">
<style type="text/css">
	.st0{fill:#FFAE39;}
</style>
<path class="st0" d="M60,5.9H22.9L23.4,0H12.7v4.1h3.2H19L18.8,6l-0.9,9.9H0V20h17.5l-0.3,3H9v4.1h7.8L16.6,29h35L60,5.9z M21.2,25
	l0.4-4.9H25V16h-3l0.5-6h31.7l-5.4,15H21.2z M39.6,41.4c1.1,1.3,2.7,2,4.4,2c3.4,0,6.5-2.6,7.1-6c0.3-1.7-0.1-3.5-1.2-4.7
	c-1.1-1.3-2.7-2-4.4-2H21.8c-3.4,0-6.5,2.6-7.1,6c-0.3,1.7,0.2,3.5,1.3,4.7c1.1,1.3,2.7,2,4.4,2c3.4,0,6.5-2.6,7.1-6
	c0.2-0.9,0.1-1.8-0.1-2.6H39c-0.3,0.6-0.5,1.2-0.6,1.9C38.1,38.4,38.6,40.2,39.6,41.4z M23.1,35.3c0.3,0.3,0.4,0.8,0.3,1.4
	c-0.2,1.4-1.7,2.6-3,2.6c-0.5,0-1-0.2-1.2-0.5c-0.3-0.3-0.4-0.8-0.3-1.4c0.2-1.4,1.7-2.6,3-2.6C22.4,34.8,22.8,34.9,23.1,35.3z
	 M46.7,35.3c0.3,0.3,0.4,0.8,0.3,1.4c-0.2,1.4-1.7,2.6-3,2.6c-0.5,0-1-0.2-1.2-0.5c-0.3-0.3-0.4-0.8-0.3-1.4c0.2-1.4,1.7-2.6,3-2.6
	C46,34.8,46.4,34.9,46.7,35.3z M5,9.1h11v4.1H5V9.1z"/>
</svg>
