<?xml version="1.0" encoding="utf-8"?>
<!-- Generator: Adobe Illustrator 23.0.3, SVG Export Plug-In . SVG Version: 6.00 Build 0)  -->
<svg version="1.1" id="Layer_1" xmlns="http://www.w3.org/2000/svg" xmlns:xlink="http://www.w3.org/1999/xlink" x="0px" y="0px"
	 viewBox="0 0 54 54" style="enable-background:new 0 0 54 54;" xml:space="preserve">
<style type="text/css">
	.st0{fill:#D8D5ED;}
	.st1{fill:#FF2C5C;}
	.st2{fill:#FFD659;}
	.st3{fill:#4FC6F5;}
	.st4{fill:#50536E;}
	.st5{fill:#B5FCFF;}
	.st6{fill:#71F6FC;}
</style>
<path class="st0" d="M33.8,54H0.4C0.2,54,0,53.8,0,53.6V6.4C0,6.2,0.2,6,0.4,6h33.4c0.2,0,0.4,0.2,0.4,0.4v47.2
	C34.2,53.9,34,54,33.8,54z"/>
<path class="st1" d="M9.6,50.3H4c-0.2,0-0.4-0.2-0.4-0.4V33.1c0-0.2,0.2-0.4,0.4-0.4h5.7c0.2,0,0.4,0.2,0.4,0.4v16.8
	C10.1,50.1,9.9,50.3,9.6,50.3z"/>
<path class="st2" d="M19.8,50.3h-5.7c-0.2,0-0.4-0.2-0.4-0.4V26.6c0-0.2,0.2-0.4,0.4-0.4h5.7c0.2,0,0.4,0.2,0.4,0.4v23.3
	C20.3,50.1,20.1,50.3,19.8,50.3z"/>
<path class="st3" d="M30.3,50.3h-5.7c-0.2,0-0.4-0.2-0.4-0.4V29c0-0.2,0.2-0.4,0.4-0.4h5.7c0.2,0,0.4,0.2,0.4,0.4v20.9
	C30.7,50.1,30.5,50.3,30.3,50.3z"/>
<g>
	<path class="st4" d="M53.5,37.4l-9-9c2.5-3,4.1-6.9,4.1-11.1C48.6,7.7,40.9,0,31.3,0c-6.8,0-12.6,3.9-15.5,9.6h-11
		C4.4,9.6,4,10,4,10.4c0,0.4,0.4,0.8,0.8,0.8h10.3c-0.2,0.6-0.5,1.3-0.6,2H4.8C4.4,13.2,4,13.6,4,14s0.4,0.8,0.8,0.8h9.4
		c-0.1,0.7-0.2,1.3-0.2,2H4.8c-0.4,0-0.8,0.4-0.8,0.8c0,0.4,0.4,0.8,0.8,0.8h9.3c0.6,9,8.1,16.2,17.2,16.2c4.1,0,7.9-1.5,10.9-3.9
		l9,9c0.6,0.6,1.7,0.6,2.3,0C54.2,39.1,54.2,38,53.5,37.4z"/>
	<path class="st4" d="M10.9,20.5H4.8c-0.4,0-0.8,0.4-0.8,0.8c0,0.4,0.4,0.8,0.8,0.8h6.1c0.4,0,0.8-0.4,0.8-0.8
		C11.7,20.9,11.4,20.5,10.9,20.5z"/>
</g>
<path class="st5" d="M41.2,27.2c-5.5,5.5-14.4,5.5-19.8,0s-5.5-14.4,0-19.8s14.4-5.5,19.8,0C46.7,12.9,46.7,21.8,41.2,27.2z"/>
<path class="st6" d="M41.2,7.4c-3.1-3.1-7.4-4.5-11.5-4c3,0.4,6,1.7,8.3,4c5.5,5.5,5.5,14.4,0,19.8c-2.3,2.3-5.3,3.7-8.3,4
	c4.1,0.5,8.4-0.9,11.5-4C46.7,21.8,46.7,12.9,41.2,7.4z"/>
</svg>
