<?xml version="1.0" encoding="utf-8"?>
<!-- Generator: Adobe Illustrator 23.0.3, SVG Export Plug-In . SVG Version: 6.00 Build 0)  -->
<svg version="1.1" id="Layer_1" xmlns="http://www.w3.org/2000/svg" xmlns:xlink="http://www.w3.org/1999/xlink" x="0px" y="0px"
	 viewBox="0 0 43 30.5" style="enable-background:new 0 0 43 30.5;" xml:space="preserve">
<style type="text/css">
	.st0{fill:#5650ED;}
</style>
<path class="st0" d="M4.1,26.4h4.1v4.1H43V8.2h-4.1V4.1h-4.1V0H0v22.4h4.1V26.4z M3,3h28.8v1.1H4.1v15.3H3V3L3,3z M7,22.4v-1.5v-1.5
	V7.1h24.8h1.5h1.5h1.1v1.1h-1.1h-1.5h-1.5H8.1v11.2v1.5v1.5v1.1H7V22.4L7,22.4z M40,27.6H11.1v-1.1V25v-1.5v-1.1v-1.5v-1.5v-8.3
	h20.7h1.5h1.5h1.1h1.5h1.5H40V27.6z M26.9,16.1h3v-2.9h-3v-1H24v1h-3.6v6.2v1.3H24v0.2v1.5v0.1h-3v0.9v1.5v0.4h3.1v1.1H27v-1.1h3.5
	v-0.4v-1.5v-1.1v-1.5v-1.5v-1.5H27L26.9,16.1L26.9,16.1z M27.6,22.4L27.6,22.4l-0.7,0.1v-0.1v-1.5v-0.2h0.7v0.2V22.4z M23.3,17.9
	v-1.8h0.8v1.8H23.3z"/>
</svg>
