<?xml version="1.0" encoding="utf-8"?>
<!-- Generator: Adobe Illustrator 23.0.3, SVG Export Plug-In . SVG Version: 6.00 Build 0)  -->
<svg version="1.1" id="Layer_1" xmlns="http://www.w3.org/2000/svg" xmlns:xlink="http://www.w3.org/1999/xlink" x="0px" y="0px"
	 viewBox="0 0 45.6 45.7" style="enable-background:new 0 0 45.6 45.7;" xml:space="preserve">
<style type="text/css">
	.st0{fill:#3E50B4;}
</style>
<path class="st0" d="M22.8,0C10.2,0,0,10.3,0,22.9s10.2,22.8,22.8,22.8s22.8-10.2,22.8-22.8C45.7,10.3,35.4,0,22.8,0z M14.8,15.2
	c-1.8-0.6-3-1.4-3-3.1c0-1.5,1-2.6,2.8-3V7.5h1.6V9c1.1,0.1,1.9,0.3,2.4,0.6l-0.5,1.9c-0.4-0.2-1.2-0.6-2.4-0.6
	c-1.1,0-1.4,0.5-1.4,0.9c0,0.6,0.6,0.9,2,1.4c2,0.7,2.8,1.6,2.8,3.1s-1.1,2.8-3,3.1v1.7h-1.6v-1.6c-1.1-0.1-2.2-0.4-2.9-0.7l0.5-2
	c0.7,0.4,1.7,0.7,2.8,0.7c1,0,1.6-0.4,1.6-1C16.5,16,16,15.6,14.8,15.2z M7,31.4c-3.7,0.7-3.6,0.7-3.6,0.7l4-11.8l9.3,9.3l-3.4,0.7
	l-1.1,0.2c0,0,1.6,5.9,9,6.4C21.2,36.8,12.3,41.9,7,31.4z M30.7,38.3c-1.6,0-3.2-0.7-4.1-1.9c-0.5-0.6-0.8-1.3-0.9-2.2h-1.1V33h0.9
	c0-0.1,0-0.2,0-0.3c0-0.2,0-0.3,0-0.5h-0.9V31h1.1c0.2-0.9,0.6-1.7,1.2-2.3c1-1.1,2.3-1.7,3.9-1.7c1,0,1.9,0.2,2.5,0.5l-0.5,1.9
	c-0.4-0.2-1.1-0.4-1.9-0.4s-1.5,0.3-2.1,0.9c-0.2,0.3-0.4,0.7-0.5,1.1h4.2v1.2H28c0,0.2,0,0.4,0,0.5s0,0.2,0,0.3h4.5v1.2h-4.2
	c0.1,0.5,0.3,0.9,0.6,1.2c0.5,0.6,1.3,0.9,2.2,0.9c0.8,0,1.6-0.3,1.9-0.4l0.4,1.9C32.7,37.9,31.7,38.3,30.7,38.3z M42.3,15.7
	l-5.1,11.7l-8.7-10.3l3.5-0.4l1.2-0.1c0,0-1.1-6.2-8.7-7.3c0,0,9.5-4.5,14.1,6.8C42.2,15.7,42.3,15.7,42.3,15.7L42.3,15.7L42.3,15.7
	z"/>
</svg>
