<?xml version="1.0" encoding="utf-8"?>
<!-- Generator: Adobe Illustrator 23.0.3, SVG Export Plug-In . SVG Version: 6.00 Build 0)  -->
<svg version="1.1" id="Layer_1" xmlns="http://www.w3.org/2000/svg" xmlns:xlink="http://www.w3.org/1999/xlink" x="0px" y="0px"
	 viewBox="0 0 48.4 48.4" style="enable-background:new 0 0 48.4 48.4;" xml:space="preserve">
<style type="text/css">
	.st0{fill:#3E50B4;}
</style>
<path class="st0" d="M24.1,0C10.8,0.1,0,10.9,0,24.3c0.1,13.3,10.9,24.1,24.3,24.1s24.1-10.9,24.1-24.3C48.3,10.7,37.4-0.1,24.1,0z
	 M10.2,31.8C10.1,31.9,10,32,9.8,32c-0.1,0-0.3,0-0.4-0.1c-0.2-0.2-4.3-4-4.3-9.9c0-6,4.1-9.2,4.3-9.3c0.2-0.2,0.6-0.1,0.7,0.1
	c0.2,0.2,0.1,0.6-0.1,0.7c-0.1,0-3.9,3.1-3.9,8.5c0,5.5,3.9,9.1,4,9.2C10.4,31.2,10.4,31.6,10.2,31.8z M12.9,27.9
	c0.2,0.2,0.2,0.5,0.1,0.7c-0.1,0.1-0.2,0.2-0.4,0.2c-0.1,0-0.2,0-0.3-0.1s-2.9-2.5-2.9-6.8s2.8-6.4,2.9-6.5c0.2-0.2,0.6-0.1,0.7,0.1
	c0.2,0.2,0.1,0.6-0.1,0.7c-0.1,0.1-2.5,1.9-2.5,5.7C10.4,25.7,12.9,27.9,12.9,27.9z M15.6,25.5c-0.1,0.1-0.2,0.2-0.4,0.2
	c-0.1,0-0.3,0-0.4-0.1c-1.2-1.2-1.8-2.4-1.8-3.7c0.1-2,1.7-3.3,1.8-3.3c0.2-0.2,0.5-0.1,0.7,0.1s0.1,0.5-0.1,0.7
	c0,0-1.3,1.1-1.4,2.6c0,1,0.4,1.9,1.4,2.9C15.8,24.9,15.8,25.2,15.6,25.5z M21.5,32.9h-1.3V25c0,0-3.2-0.3-3.2-3.3
	c0-2.9,3.2-3,3.2-3v-8.2h1.3V32.9z M22.1,32.9L22,10.6c2.3,5.4,9.1,7.3,9.1,7.3l1.7,0.1v7.9h-2.1C27,26.5,22.1,32.9,22.1,32.9z
	 M34,36.8c0,0-0.3,1.4-1.8,0.8c-1.5-0.6-0.6-1.9-0.6-1.9l2.6-8.5H39L34,36.8z M40,26.4h-6v-8.8h6V26.4z M43.1,21.9
	c0,2.8-2.2,3.6-2.2,3.6v-7.2C40.8,18.3,43.1,19.1,43.1,21.9z"/>
</svg>
