<?xml version="1.0" encoding="utf-8"?>
<!-- Generator: Adobe Illustrator 23.0.3, SVG Export Plug-In . SVG Version: 6.00 Build 0)  -->
<svg version="1.1" id="Layer_1" xmlns="http://www.w3.org/2000/svg" xmlns:xlink="http://www.w3.org/1999/xlink" x="0px" y="0px"
	 viewBox="0 0 40.2 46" style="enable-background:new 0 0 40.2 46;" xml:space="preserve">
<style type="text/css">
	.st0{fill:#F7CAA5;}
	.st1{fill:#FEDB41;}
	.st2{fill:#00EFD1;}
	.st3{fill:#083863;}
</style>
<path class="st0" d="M29,37.4l6.6-3.1c1.5-0.7,3.2-0.2,4,1.2l-13.4,8.7c-1.8,0.8-3.8,1.1-5.7,0.7l-9.2-2.6c-0.9-0.2-1.8-0.1-2.5,0.3
	l-1.9,1l0.3-9.4h0.1c2.8-2,6.4-2.2,9.4-0.7l0.6,0.3c0.9,0.4,1.8,0.7,2.8,0.7l5.4,0.1C27,34.7,28.5,35.8,29,37.4z"/>
<path class="st1" d="M30.8,20.9c0,5.6-4.5,10.1-10.1,10.1s-10.1-4.5-10.1-10.1s4.5-10.1,10.1-10.1S30.8,15.3,30.8,20.9z"/>
<path class="st2" d="M6.8,43.5v1.1l-6-0.2l0.4-13.1l6,0.2l-0.1,2.6L6.8,43.5z"/>
<path class="st3" d="M20.8,25c-0.1,0-0.2,0-0.3,0c-0.9-0.1-1.5-0.8-1.5-1.7c0-0.4-0.3-0.8-0.8-0.8s-0.8,0.3-0.8,0.8
	c0,1.4,1,2.7,2.4,3.1v0.8c0,0.4,0.3,0.8,0.8,0.8c0.4,0,0.8-0.3,0.8-0.8v-0.7c1.6-0.3,2.7-1.8,2.5-3.5c-0.2-1.6-1.5-2.9-3.2-2.9
	c-0.9,0-1.7-0.8-1.7-1.7s0.8-1.7,1.7-1.7s1.7,0.8,1.7,1.7c0,0.4,0.3,0.8,0.8,0.8s0.8-0.3,0.8-0.8c0-1.5-1.1-2.8-2.5-3.1v-0.7
	c0-0.4-0.3-0.8-0.8-0.8c-0.4,0-0.8,0.3-0.8,0.8v0.7c-1.5,0.4-2.5,1.9-2.3,3.5s1.6,2.8,3.2,2.8c0.9,0,1.7,0.7,1.7,1.7
	C22.4,24.2,21.7,25,20.8,25L20.8,25z M9.8,20.9c0,6,4.9,10.9,10.9,10.9s10.9-4.9,10.9-10.9S26.7,10,20.7,10S9.8,14.9,9.8,20.9z
	 M20.7,11.5c5.2,0,9.4,4.2,9.4,9.4s-4.2,9.4-9.4,9.4s-9.4-4.2-9.4-9.4C11.3,15.7,15.5,11.5,20.7,11.5z M35.3,33.6l-5.9,2.8
	c-0.8-1.5-2.4-2.5-4.1-2.5l-5.4-0.1c-0.9,0-1.7-0.2-2.5-0.6l-0.6-0.3c-2.8-1.5-6.2-1.5-9,0v-1.3c0-0.4-0.3-0.8-0.7-0.8l-6-0.2
	c-0.2,0-0.4,0.1-0.5,0.2c-0.1,0.2-0.2,0.4-0.2,0.6L0,44.5c0,0.4,0.3,0.8,0.7,0.8l6,0.2l0,0c0.4,0,0.7-0.3,0.8-0.7v-0.6L9,43.4
	c0.6-0.3,1.3-0.4,2-0.2l9.2,2.6l0,0c0.7,0.1,1.3,0.2,2,0.2c1.4,0,2.9-0.3,4.2-0.9c0,0,0.1,0,0.1-0.1l13.4-8.7c0.3-0.2,0.4-0.7,0.2-1
	C39.3,33.4,37.1,32.7,35.3,33.6z M6.1,43.5v0.3l-4.5-0.1l0.3-11.6l4.5,0.1L6.1,43.5z M25.9,43.5c-1.6,0.7-3.5,0.9-5.2,0.6l-9.2-2.6
	c-1-0.3-2.1-0.2-3.1,0.3l-0.8,0.4l0.2-7.7c2.5-1.7,5.7-1.8,8.4-0.4l0.6,0.3c1,0.5,2,0.8,3.1,0.8l5.4,0.2c1.4,0,2.6,0.9,3,2.3
	c0,0.1,0.1,0.2,0.1,0.4l-8.1-0.2c-0.4,0-0.8,0.3-0.8,0.7s0.3,0.8,0.7,0.8l8.9,0.2l0,0c0.4,0,0.7-0.3,0.8-0.7c0-0.3,0-0.7-0.1-1
	l6-2.8l0,0c0.9-0.4,1.9-0.3,2.6,0.4L25.9,43.5z M21.5,7.9V0.8c0-0.4-0.3-0.8-0.8-0.8c-0.4,0-0.8,0.3-0.8,0.8v7.1
	c0,0.4,0.3,0.8,0.8,0.8C21.1,8.6,21.5,8.3,21.5,7.9z M27.1,7.9V4.5c0-0.4-0.3-0.8-0.8-0.8c-0.4,0-0.8,0.3-0.8,0.8v3.4
	c0,0.4,0.3,0.8,0.8,0.8C26.8,8.6,27.1,8.3,27.1,7.9z M15.8,7.9V4.5c0-0.4-0.3-0.8-0.8-0.8c-0.4,0-0.8,0.3-0.8,0.8v3.4
	c0,0.4,0.3,0.8,0.8,0.8C15.5,8.6,15.8,8.3,15.8,7.9z"/>
</svg>
