<?xml version="1.0" encoding="utf-8"?>
<!-- Generator: Adobe Illustrator 23.0.3, SVG Export Plug-In . SVG Version: 6.00 Build 0)  -->
<svg version="1.1" id="Layer_1" xmlns="http://www.w3.org/2000/svg" xmlns:xlink="http://www.w3.org/1999/xlink" x="0px" y="0px"
	 viewBox="0 0 49.7 48.9" style="enable-background:new 0 0 49.7 48.9;" xml:space="preserve">
<style type="text/css">
	.st0{fill:#3E50B4;}
</style>
<path class="st0" d="M49.7,19c-0.1-0.6-0.6-1-1.2-1.1l-8.2-0.4c-0.1,0-0.2,0-0.2,0l-6.4-3.2c-0.2,0.4-0.4,0.8-0.8,1.2L32,16.4
	l5.1,2.5L24,25.4l-12.7-6.3l4.3-2.1l-1.5-1.5c-0.2-0.2-0.4-0.4-0.5-0.7l-5,2.5l-4.8-3.8l13.4-6.7V3.9c-0.1,0-0.3,0.1-0.4,0.1L0.7,12
	C0.3,12.2,0,12.6,0,13.1s0.1,0.9,0.5,1.2l6.3,5v20.3c0,0.5,0.3,1,0.7,1.2l16.1,8c0.2,0.1,0.4,0.1,0.6,0.1s0.4,0,0.6-0.1l16.1-8
	c0.5-0.2,0.7-0.7,0.7-1.2V24.2l7.5-3.7C49.5,20.2,49.8,19.6,49.7,19z M22.7,45.4L9.3,38.7V21.2l13.4,6.7V45.4z M32,25.9l-2.4-0.1
	l11.2-5.6c0,0,0,0,0.1,0l2.5,0.1L32,25.9z M31.2,13.8l-6.8,6.8c-0.3,0.3-0.6,0.4-0.9,0.4s-0.7-0.1-0.9-0.4l-6.8-6.8
	c-0.4-0.4-0.5-1-0.3-1.5s0.7-0.8,1.2-0.8h2.8V1.3c0-0.7,0.6-1.3,1.3-1.3h5.4c0.7,0,1.3,0.6,1.3,1.3v10.2h2.8c0.5,0,1,0.3,1.2,0.8
	S31.6,13.4,31.2,13.8z"/>
</svg>
