<?xml version="1.0" encoding="utf-8"?>
<!-- Generator: Adobe Illustrator 23.0.3, SVG Export Plug-In . SVG Version: 6.00 Build 0)  -->
<svg version="1.1" id="Layer_1" xmlns="http://www.w3.org/2000/svg" xmlns:xlink="http://www.w3.org/1999/xlink" x="0px" y="0px"
	 viewBox="0 0 53.2 32.1" style="enable-background:new 0 0 53.2 32.1;" xml:space="preserve">
<style type="text/css">
	.st0{fill:#FCBF62;}
	.st1{fill:#2EAAE1;}
	.st2{fill:#3984A5;}
	.st3{fill:#F37A53;}
</style>
<g>
	<path class="st0" d="M50.5,28H7.6c-1.5,0-2.7-1.2-2.7-2.7V0.6C4.9,0.3,5.2,0,5.5,0h47.1c0.3,0,0.6,0.3,0.6,0.6v24.6
		C53.2,26.7,52,28,50.5,28z"/>
	<path class="st1" d="M45.6,32.1H2.7c-1.5,0-2.7-1.2-2.7-2.7V4.8c0-0.3,0.3-0.6,0.6-0.6h47.1c0.3,0,0.6,0.3,0.6,0.6v24.6
		C48.3,30.9,47.1,32.1,45.6,32.1z"/>
	<rect y="10.5" class="st2" width="48.3" height="3.1"/>
	<ellipse class="st3" cx="41.6" cy="24.6" rx="3.4" ry="3.4"/>
	<ellipse class="st0" cx="37.1" cy="24.6" rx="3.4" ry="3.4"/>
</g>
</svg>
