<?xml version="1.0" encoding="utf-8"?>
<!-- Generator: Adobe Illustrator 23.0.3, SVG Export Plug-In . SVG Version: 6.00 Build 0)  -->
<svg version="1.1" id="Layer_1" xmlns="http://www.w3.org/2000/svg" xmlns:xlink="http://www.w3.org/1999/xlink" x="0px" y="0px"
	 viewBox="0 0 37.8 37.8" style="enable-background:new 0 0 37.8 37.8;" xml:space="preserve">
<style type="text/css">
	.st0{fill:#3E50B4;}
</style>
<path class="st0" d="M18.9,0C8.5,0,0,8.5,0,18.9s8.5,18.9,18.9,18.9s18.9-8.5,18.9-18.9C37.8,8.4,29.3,0,18.9,0z M18.6,4.9
	c7.2,0,9.1,6.6,9.1,6.6l-1.1,0.1c0,0-1.8-5-7.8-5s-8.2,5.8-8.2,5.8H9.9C9.9,12.4,11.4,4.9,18.6,4.9z M22.7,32.9h-8H8.1
	c0-1.8,0.6-3.4,1.7-4.8c1.6-2.1,4.3-3.6,7.5-4l0,0c0.2,0,0.3,0,0.5-0.1v0.1h1.9V24c3.8,0.2,7.1,2.1,8.8,4.8c0.7,1.2,1.2,2.6,1.2,4
	L22.7,32.9L22.7,32.9z M29.7,16.8c-0.1,1.8-2.4,1.5-2.4,1.5c0-0.1,0-0.6,0-1.4V17c-0.1,0.9-0.2,1.7-0.2,2.3c0.2-0.2,0.4-0.4,0.6-0.5
	c0,0,0.5-0.4,0.9,0.4c0.1,0.3-0.6,0.8-1.6,1.3c-0.3,1.7-0.5,2.2,0.2,3.5c0,0-3.1,0.1-4.2-1.3c-0.3,0.1-0.5,0.1-0.7,0.2
	c-1,0.6-2.2,0.9-3.5,0.9c-1.5,0-2.9-0.5-4-1.2c-1,1.6-4.3,1.4-4.3,1.4c1-1.9,0.1-2.1-0.3-6.9l0,0c-0.1-0.6-0.1-1.3,0-2
	c0.4-2.7,1.5-4.4,2.7-5.6l0,0C15.2,7.4,18,7.3,18,7.3c3-0.4,5.3,0.6,6.8,2.2l0,0c0,0,1.7,1.5,2.4,4.3c-0.1-1-0.2-1.7-0.2-1.7h0.2
	h1.2c1.3,0.5,1.4,1.6,1.4,1.6L29.7,16.8C29.8,16.8,29.7,16.8,29.7,16.8z M18.9,23.1c-1.5,0-1.8-0.5-1.8-0.5s-0.7-0.8,0.1-1.4
	c0.8-0.6,1.5-0.3,1.5-0.3s1.4,0.1,1.7,0.7c0,0,1.6-0.1,3.3-0.6c0.9-1.6,1-3.7,0.8-4.8c-4.7-1.8-6.8-5.1-6.8-5.1
	c-1.9,5.1-6.2,4.1-4.9,8.4c0.3,1.2,0.9,2,1.4,2.5c0.4,0.3,0.9,0.6,1.4,0.9c0.1,0,0.2,0.1,0.3,0.1c-0.1,0-0.1,0-0.2,0
	c0.9,0.4,1.8,0.6,2.8,0.6c1.5,0,3-0.5,4.1-1.4c-0.8,0.2-1.6,0.4-2.3,0.4C20.5,22.5,20.4,23.1,18.9,23.1z"/>
</svg>
