<?xml version="1.0" encoding="utf-8"?>
<!-- Generator: Adobe Illustrator 23.0.3, SVG Export Plug-In . SVG Version: 6.00 Build 0)  -->
<svg version="1.1" id="Layer_1" xmlns="http://www.w3.org/2000/svg" xmlns:xlink="http://www.w3.org/1999/xlink" x="0px" y="0px"
	 viewBox="0 0 37.6 37.7" style="enable-background:new 0 0 37.6 37.7;" xml:space="preserve">
<style type="text/css">
	.st0{fill:#3E50B4;}
</style>
<path class="st0" d="M18.8,7.6c-6.2,0-11.2,5-11.2,11.2S12.6,30,18.8,30S30,25,30,18.8C30.1,12.7,25,7.6,18.8,7.6z M10.9,18.3
	l0.4-1.2h10.6l-0.4,1.2H10.9z M14.1,19.2h-1.3c0-0.1,0-0.2,0-0.3s0-0.2,0-0.3h1.3c0,0.1,0,0.2,0,0.3S14.1,19.1,14.1,19.2z
	 M11.9,19.5h9.5L21,20.6h-9.5L11.9,19.5z M23.1,24.3c-1,0.7-2.3,1.1-3.7,1.1c-2.9,0-5.4-1.9-6.3-4.6h1.4c0.8,1.9,2.7,3.3,4.9,3.3
	c1.4,0,2.7-0.6,3.7-1.5C23.1,22.6,23.1,24.3,23.1,24.3z M23.3,15.3c-1-1.1-2.4-1.8-3.9-1.8c-2.2,0-4.1,1.4-4.9,3.3h-1.4
	c0.8-2.7,3.3-4.7,6.3-4.7c1.7,0,3.2,0.6,4.3,1.6L23.3,15.3z M18.8,0C8.4,0,0,8.4,0,18.9s8.4,18.8,18.8,18.8s18.8-8.4,18.8-18.8
	S29.3,0,18.8,0z M18.8,32.1c-7.3,0-13.2-5.9-13.2-13.2S11.5,5.7,18.8,5.7S32,11.6,32,18.9S26.1,32.1,18.8,32.1z"/>
</svg>
