<?xml version="1.0" encoding="utf-8"?>
<!-- Generator: Adobe Illustrator 23.0.3, SVG Export Plug-In . SVG Version: 6.00 Build 0)  -->
<svg version="1.1" id="Layer_1" xmlns="http://www.w3.org/2000/svg" xmlns:xlink="http://www.w3.org/1999/xlink" x="0px" y="0px"
	 viewBox="0 0 51 51" style="enable-background:new 0 0 51 51;" xml:space="preserve">
<style type="text/css">
	.st0{fill:#CEC900;}
</style>
<path class="st0" d="M39.7,31.3h-9.1v-2.4h9.1V31.3z M13.2,35.2h-3.1c-0.6,0-1.2,0.5-1.2,1.2c0,0.6,0.5,1.2,1.2,1.2h3.1
	c0.6,0,1.2-0.5,1.2-1.2C14.3,35.7,13.8,35.2,13.2,35.2z M22.4,31.4h3.1c0.6,0,1.2-0.5,1.2-1.2S26.2,29,25.5,29h-3.1
	c-0.6,0-1.2,0.5-1.2,1.2C21.2,30.8,21.7,31.4,22.4,31.4z M25.5,38.3h-3c-0.6,0-1.2,0.5-1.2,1.2c0,0.6,0.5,1.2,1.2,1.2h0.8h2.3
	c0.6,0,1.2-0.5,1.2-1.2C26.7,38.8,26.2,38.3,25.5,38.3z M19.8,29.1C19.7,29,19.5,29,19.4,29h-3.1c-0.6,0-1.2,0.5-1.2,1.2
	c0,0.6,0.5,1.2,1.2,1.2h3.1c0.6,0,1.2-0.5,1.2-1.2v-0.1C20.5,29.6,20.2,29.3,19.8,29.1z M19.4,32.1h-3.1c-0.6,0-1.2,0.5-1.2,1.2
	c0,0.6,0.5,1.2,1.2,1.2h3.1c0.6,0,1.2-0.5,1.2-1.2C20.5,32.6,20,32.1,19.4,32.1z M22.4,35.2c-0.2,0-0.4,0.1-0.5,0.1
	c-0.1,0.1-0.2,0.2-0.3,0.3c-0.2,0.2-0.3,0.5-0.3,0.8c0,0.6,0.4,1.1,1,1.1h0.1h3.1c0.6,0,1.2-0.5,1.2-1.2c0-0.3-0.1-0.6-0.3-0.8
	c-0.2-0.2-0.5-0.3-0.9-0.3H22.4z M25.5,32.1h-3.1c-0.3,0-0.6,0.1-0.8,0.3c-0.2,0.2-0.3,0.5-0.3,0.8c0,0.4,0.2,0.8,0.5,1
	c0.2,0.1,0.4,0.2,0.6,0.2h3.1c0.6,0,1.2-0.5,1.2-1.2C26.7,32.6,26.2,32.1,25.5,32.1z M11.6,26.7H14h3.5H24c1.1,0,1.9-1,1.9-2.1v-2.1
	v-2.7v-4.3v-3.7c0-1.2-0.9-2.1-1.9-2.1H11.7h-0.1c-1.1,0-1.9,1-1.9,2.1v12.8C9.7,25.7,10.6,26.7,11.6,26.7z M10.1,31.4h3.1
	c0.3,0,0.6-0.1,0.8-0.4c0.2-0.2,0.3-0.5,0.3-0.8s-0.1-0.6-0.3-0.8c-0.2-0.3-0.5-0.4-0.8-0.4h-3.1c-0.6,0-1.2,0.5-1.2,1.2
	C8.9,30.8,9.4,31.4,10.1,31.4z M13.2,38.3h-3.1c-0.6,0-1.2,0.5-1.2,1.2c0,0.6,0.5,1.2,1.2,1.2h3.1c0.6,0,1.2-0.5,1.2-1.2
	C14.3,38.8,13.8,38.3,13.2,38.3z M19.4,38.3h-3.1c-0.6,0-1.2,0.5-1.2,1.2c0,0.6,0.5,1.2,1.2,1.2h3.1c0.6,0,1.2-0.5,1.2-1.2
	C20.5,38.8,20,38.3,19.4,38.3z M51,25.5C51,39.6,39.6,51,25.5,51S0,39.6,0,25.5S11.4,0,25.5,0S51,11.4,51,25.5z M42.9,16.3
	c0-0.5-0.4-0.8-0.8-0.8H27.5v-3.9c0-1.9-1.6-3.5-3.5-3.5H11.5c-0.4,0-0.7,0.1-1.1,0.2c-1.3,0.5-2.3,1.8-2.3,3.3v27.8
	c0,1.9,1.6,3.5,3.5,3.5H24c0.2,0,0.4,0,0.6,0c1.6-0.2,2.9-1.7,2.9-3.4v-3.9h14.6c0.5,0,0.8-0.4,0.8-0.8V22.4H27.5v-2.7h15.4V16.3z
	 M19.4,35.2h-3.1c-0.3,0-0.7,0.2-0.9,0.4c-0.2,0.2-0.3,0.5-0.3,0.8c0,0.6,0.5,1.2,1.2,1.2h3.1c0.6,0,1.2-0.5,1.2-1.2
	c0-0.3-0.1-0.6-0.3-0.8C20,35.3,19.7,35.2,19.4,35.2z M10.1,34.5h3.1c0.3,0,0.6-0.1,0.8-0.4c0.2-0.2,0.3-0.5,0.3-0.8
	s-0.1-0.6-0.3-0.8c-0.2-0.3-0.5-0.4-0.8-0.4h-3.1c-0.6,0-1.2,0.5-1.2,1.2C8.9,33.9,9.4,34.5,10.1,34.5z"/>
</svg>
