<?xml version="1.0" encoding="utf-8"?>
<!-- Generator: Adobe Illustrator 23.0.3, SVG Export Plug-In . SVG Version: 6.00 Build 0)  -->
<svg version="1.1" id="Layer_1" xmlns="http://www.w3.org/2000/svg" xmlns:xlink="http://www.w3.org/1999/xlink" x="0px" y="0px"
	 viewBox="0 0 59.3 63.9" style="enable-background:new 0 0 59.3 63.9;" xml:space="preserve">
<style type="text/css">
	.st0{fill:#FFFFFF;}
	.st1{fill:#CFCBCB;}
	.st2{fill:#B93C3C;}
	.st3{fill:#DB4744;}
</style>
<rect x="5.2" y="30.2" class="st0" width="48.9" height="0.4"/>
<polygon class="st1" points="5.2,30.6 5.2,33 27.6,33 27.6,31.2 31.7,31.2 31.7,33 54.2,33 54.2,30.6 "/>
<path class="st0" d="M31.7,33h22.4v5.6H31.7V33z M5.2,63.9h22.4V42.8H5.2V63.9z M5.2,38.7h22.4V33H5.2V38.7z M31.7,63.9h22.4V42.8
	H31.7V63.9z M0,31.2h27.6v-16H0V31.2z M31.7,15.3v16h27.6v-16C59.3,15.3,31.7,15.3,31.7,15.3z"/>
<path class="st2" d="M27.6,31.2h4.1V33h-4.1V31.2z M42.7,6.8l-6-6.8l-5.5,12.5c-0.2-0.1-0.5-0.2-0.8-0.2h-2.1c-0.1,0-0.2,0-0.3,0
	L22.8,0l-6,6.8l10,7.3c0.1,0.7,0.8,1.3,1.6,1.3h2.1c0.6,0,1.2-0.4,1.4-0.9v0.1L42.7,6.8z"/>
<path class="st3" d="M54.2,38.7v4.1H31.7v21.1h-4.1V42.8H5.2v-4.1h22.4V33h4.1v5.6h22.5C54.2,38.6,54.2,38.7,54.2,38.7z M27.6,15.4
	v15.8h4.1V15.4l17.1-0.1c0,0,0.7-7.6-2.7-9.6c-3.2-1.9-14.3,8.3-15.8,9.6H29C27.6,14,16.4,3.8,13.2,5.7c-3.4,2.1-2.6,9.8-2.6,9.8
	L27.6,15.4z"/>
</svg>
