<?xml version="1.0" encoding="utf-8"?>
<!-- Generator: Adobe Illustrator 22.0.1, SVG Export Plug-In . SVG Version: 6.00 Build 0)  -->
<svg version="1.1" id="OBJECTS" xmlns="http://www.w3.org/2000/svg" xmlns:xlink="http://www.w3.org/1999/xlink" x="0px" y="0px"
	 viewBox="0 0 313.6 360.9" style="enable-background:new 0 0 313.6 360.9;" xml:space="preserve">
<style type="text/css">
	.st0{fill:#F9198A;}
	.st1{fill:#17041A;}
	.st2{fill:#FFFFFF;}
	.st3{fill:#2C2C2C;}
	.st4{fill:#616161;}
</style>
<title>halloween-bag-shop</title>
<polygon class="st0" points="118.4,66.9 32.4,66.9 0,360.9 313.6,360.9 282.6,66.9 185.5,66.9 "/>
<path class="st1" d="M100.3,107.4c0,6.4-5.2,11.5-11.6,11.5s-11.5-5.2-11.5-11.6s5.2-11.5,11.6-11.5l0,0
	C95.1,95.9,100.3,101.1,100.3,107.4L100.3,107.4z M224.1,95.9c-6.4,0-11.6,5.2-11.6,11.6s5.2,11.5,11.6,11.5s11.6-5.2,11.6-11.5
	S230.5,95.9,224.1,95.9L224.1,95.9z"/>
<path class="st2" d="M224.6,113.1c-2.8,0.1-5.2-2-5.3-4.8c0-54.4-28-98.7-62.5-98.7s-62.5,44.3-62.5,98.7c-0.3,2.9-2.8,5.1-5.8,4.8
	c-2.6-0.2-4.6-2.3-4.8-4.8C83.6,48.6,116.4,0,156.8,0s73.1,48.6,73.1,108.3C229.8,111.1,227.4,113.2,224.6,113.1z"/>
<path class="st3" d="M175.9,199.1c0,0,40.3-7.2,77-33c0,0-4.5,49-36.8,55.3C186.4,227.2,175.9,199.1,175.9,199.1z M134.6,199.1
	c0,0-40.3-7.2-77-33c0,0,4.5,49,36.8,55.3C124.1,227.2,134.6,199.1,134.6,199.1z M202.1,266.6l4.6,17.1l-12.9,4l-4.9-18.3
	c-22.9,4-46.3,4-69.2,0l-4.9,18.3l-12.8-4l4.6-17.1c-19.2-4.9-36-12.6-48.8-22.3c5.8,29,33.1,52.5,68.9,60.6l4.6-17.1l12.8,4
	l-4.1,15.4c9.5,1.1,19.1,1.1,28.6,0l-4.1-15.4l12.8-4l4.6,17.1c35.8-8.1,63.1-31.6,68.9-60.6C238,254,221.2,261.8,202.1,266.6
	L202.1,266.6z"/>
<path class="st4" d="M252.9,166.1c0,0-4.5,49-36.8,55.3c-1.8,0.4-3.7,0.6-5.5,0.7c30.8-7.5,28.5-36.5,30.4-48.3
	C244,171.9,250,168.2,252.9,166.1z M57.6,166.1c0,0,4.5,49,36.8,55.3c1.8,0.4,3.7,0.6,5.5,0.7c-30.8-7.5-28.5-36.5-30.4-48.3
	C66.5,171.9,60.5,168.2,57.6,166.1z M185.2,299.3l-4.7-17.5l-20.8,5l4.2,15.6c-4.8,0.5-4.6,0-9.6,0c-3.2,0-6.4-0.2-9.5-0.7l2.8-12.9
	l-18.1-4.3l-3.3,14.8c-33.7-7.6-59.9-28.6-68.4-55l0,0c5.8,29,33.1,52.5,68.9,60.6l4.6-17.1l12.8,4l-4.1,15.4
	c9.5,1.1,19.1,1.1,28.6,0l-4.1-15.4l12.8-4l4.6,17.1c35.8-8.1,63-31.6,68.9-60.5C242.6,270.7,218.8,291.6,185.2,299.3z"/>
</svg>
