<?xml version="1.0" encoding="utf-8"?>
<!-- Generator: Adobe Illustrator 23.0.3, SVG Export Plug-In . SVG Version: 6.00 Build 0)  -->
<svg version="1.1" id="Layer_1" xmlns="http://www.w3.org/2000/svg" xmlns:xlink="http://www.w3.org/1999/xlink" x="0px" y="0px"
	 viewBox="0 0 99.8 99.8" style="enable-background:new 0 0 99.8 99.8;" xml:space="preserve">
<style type="text/css">
	.st0{fill:#DA4643;}
	.st1{fill:#FBBE4E;}
	.st2{fill:#00A4A1;}
	.st3{fill:#D39D45;}
	.st4{fill:#007C76;}
	.st5{fill:#3C444F;}
	.st6{fill:#EFF7F0;}
</style>
<g>
	<circle class="st0" cx="49.9" cy="49.9" r="49.9"/>
</g>
<g>
	
		<rect x="44.9" y="45" transform="matrix(0.9237 -0.3832 0.3832 0.9237 -18.5319 27.6969)" class="st1" width="30.7" height="30.7"/>
	
		<rect x="35.5" y="28.2" transform="matrix(0.9237 -0.3831 0.3831 0.9237 -11.1813 20.3752)" class="st2" width="20.1" height="20.1"/>
	<rect x="54.3" y="65.9" transform="matrix(0.9199 -0.3922 0.3922 0.9199 -21.362 30.0217)" class="st3" width="17" height="2.8"/>
	<g>
		<g>
			
				<rect x="56.3" y="58.8" transform="matrix(0.9197 -0.3927 0.3927 0.9197 -19.9957 27.4722)" class="st3" width="1.7" height="7.6"/>
			
				<rect x="62.4" y="56.2" transform="matrix(0.9198 -0.3925 0.3925 0.9198 -18.4795 29.6431)" class="st3" width="1.7" height="7.6"/>
		</g>
	</g>
	
		<rect x="43.1" y="42.9" transform="matrix(0.9199 -0.3922 0.3922 0.9199 -13.2956 22.3207)" class="st4" width="9.8" height="1.6"/>
	<g>
		<rect x="44.3" y="38.8" transform="matrix(0.9198 -0.3924 0.3924 0.9198 -12.4895 20.8611)" class="st4" width="1" height="4.4"/>
		<rect x="47.8" y="37.3" transform="matrix(0.9195 -0.393 0.393 0.9195 -11.6356 22.157)" class="st4" width="1" height="4.4"/>
	</g>
	<path class="st5" d="M49.3,84.6l-22-54.1c-1.8-2.1-8.1-4.2-11.8-5c-0.8-0.2-1.3-0.9-1.1-1.7c0.2-0.8,0.9-1.3,1.7-1.1
		c1.1,0.2,10.8,2.4,13.6,6.2l0.1,0.1l0.1,0.2l20.9,51.4c4.9-2.4,21.2-9.8,31-9.8c0.8,0,1.4,0.6,1.4,1.4s-0.6,1.4-1.4,1.4
		c-10.8,0-30.9,10.1-31.1,10.2L49.3,84.6z"/>
	<path d="M29.1,33.1c-0.8,0-1.5-0.5-1.8-1.2c-1.4-3.4-9.3-5.6-11.9-6.1c-1.1-0.2-1.8-1.2-1.6-2.3s1.2-1.8,2.3-1.6
		c1.3,0.2,12.4,2.4,14.9,8.5c0.4,1-0.1,2.2-1.1,2.6C29.6,33.1,29.3,33.1,29.1,33.1z M50.4,77c3.9,0,7.1,3.2,7.1,7.1
		s-3.2,7.1-7.1,7.1s-7.1-3.2-7.1-7.1S46.5,77,50.4,77z"/>
	<circle class="st6" cx="50.4" cy="84.1" r="4.3"/>
</g>
</svg>
