<?xml version="1.0" encoding="utf-8"?>
<!-- Generator: Adobe Illustrator 22.0.1, SVG Export Plug-In . SVG Version: 6.00 Build 0)  -->
<svg version="1.1" id="Layer_1" xmlns="http://www.w3.org/2000/svg" xmlns:xlink="http://www.w3.org/1999/xlink" x="0px" y="0px"
	 viewBox="0 0 623.3 509.6" style="enable-background:new 0 0 623.3 509.6;" xml:space="preserve">
<style type="text/css">
	.st0{fill:#AD0747;}
	.st1{fill:#EF0050;}
	.st2{fill:#D4DEED;}
	.st3{fill:#62759B;}
	.st4{fill:none;}
	.st5{fill:#C4CFE3;}
</style>
<title>megaphones</title>
<path class="st0" d="M44.1,264.8l-30-6C5.9,257.2,0,249.9,0,241.5v-94.6c0-8.4,5.9-15.7,14.2-17.3l30-6L44.1,264.8z"/>
<path class="st1" d="M229.5,282.5H61.8c-9.7,0-17.6-7.9-17.7-17.6V123.6c0-9.7,7.9-17.7,17.7-17.7h167.7V282.5z"/>
<path class="st2" d="M251.3,477.3c-1.5-7.2-8.4-11.8-15.6-10.4l-2.4,0.5l-35.7-178.5l-95.2,19L140,495.4
	c1.9,9.6,11.2,15.8,20.8,13.9c0,0,0,0,0,0l80.2-16.4C248.1,491.4,252.8,484.4,251.3,477.3z M497.8,232.4l-30,6v-88.3l30,6
	c8.2,1.7,14.2,8.9,14.2,17.3V215C512,223.4,506.1,230.7,497.8,232.4L497.8,232.4z M229.5,105.9v176.6c61.8,0,158.9,35.3,229.5,97.1
	V8.8C388.4,70.6,291.3,105.9,229.5,105.9z M532.3,286.4c-2.2,0-4-1.8-4-4c0-1.1,0.4-2.1,1.2-2.8c46.5-46.7,46.5-122.2,0-168.8
	c-1.6-1.6-1.6-4.1,0-5.7c1.6-1.6,4.1-1.6,5.7,0l0,0c49.7,49.8,49.7,130.4,0,180.1C534.4,286,533.4,286.4,532.3,286.4z M560.3,340.3
	c-2.2,0-4-1.8-4-4c0-1.1,0.4-2.1,1.2-2.8c76.9-76.9,77-201.5,0.1-278.5c0,0-0.1-0.1-0.1-0.1c-1.5-1.6-1.5-4.1,0.1-5.7
	c1.5-1.5,4-1.5,5.5,0c80.1,80,80.1,209.7,0.2,289.7c-0.1,0.1-0.1,0.1-0.2,0.2C562.4,339.9,561.4,340.3,560.3,340.3L560.3,340.3z"/>
<path class="st3" d="M476.7,388.4h-8.8c-4.9,0-8.8-3.9-8.8-8.8V8.8c0-4.9,4-8.8,8.8-8.8h8.8c4.9,0,8.8,4,8.8,8.8v370.8
	C485.5,384.5,481.6,388.4,476.7,388.4C476.7,388.4,476.7,388.4,476.7,388.4z M194.2,105.9h35.3v176.5h-35.3V105.9z"/>
<path class="st4" d="M44.1,203H26.5c-4.9,0-8.8-4-8.8-8.8l0,0c0-4.9,4-8.8,8.8-8.8h0h17.7V203z M44.1,167.7H26.5
	c-4.9,0-8.8-3.9-8.8-8.8l0,0c0-4.9,4-8.8,8.8-8.8h0h17.7V167.7z M44.1,238.3H26.5c-4.9,0-8.8-4-8.8-8.8l0,0c0-4.9,4-8.8,8.8-8.8h0
	h17.7V238.3z"/>
<path class="st5" d="M79.4,282.5l8.7,35c1.6,6.6,8.1,10.8,14.8,9.7l101.5-16.9c4.3-0.7,7.4-4.4,7.4-8.7v-19L79.4,282.5z"/>
</svg>
