<?xml version="1.0" encoding="utf-8"?>
<!-- Generator: Adobe Illustrator 22.0.1, SVG Export Plug-In . SVG Version: 6.00 Build 0)  -->
<svg version="1.1" id="Layer_1" xmlns="http://www.w3.org/2000/svg" xmlns:xlink="http://www.w3.org/1999/xlink" x="0px" y="0px"
	 viewBox="0 0 423 425" style="enable-background:new 0 0 423 425;" xml:space="preserve">
<style type="text/css">
	.st0{fill:#FD3636;}
	.st1{fill:#1747A5;}
	.st2{fill:#36B4FD;}
</style>
<path class="st0" d="M203.9,18.6c112.5,0,203.8,91,203.8,203.2C407.7,334,316.5,425,203.9,425C91.4,425,0.2,334,0.2,221.8
	C0.2,109.5,91.4,18.6,203.9,18.6z M204,24c109.4,0,198,88.4,198,197.5S313.4,419,204,419S6,330.6,6,221.5S94.6,24,204,24z"/>
<path class="st1" d="M218.3,4.3c112.5,0,203.8,91,203.8,203.2s-91.2,203.2-203.8,203.2s-203.8-91-203.8-203.2S105.7,4.3,218.3,4.3z"
	/>
<path class="st2" d="M406.1,155.7c-4.9,0-8.9-4-8.9-8.9s4-8.9,8.9-8.9c4.9,0,8.9,4,8.9,8.9S411,155.7,406.1,155.7z M406.1,140.2
	c-3.6,0-6.5,2.9-6.5,6.5s2.9,6.5,6.5,6.5c3.6,0,6.5-2.9,6.5-6.5S409.7,140.2,406.1,140.2z M394.2,350.7l-20.8-16.5
	c-0.8-0.6-0.9-1.7-0.3-2.5c0.3-0.5,0.9-0.7,1.4-0.7c0.4,0,0.7,0.1,1.1,0.4l20.8,16.5c0.8,0.6,0.9,1.7,0.3,2.5
	C396.1,351.2,395,351.3,394.2,350.7z M378.1,345.4c-0.6,0.8-1.7,0.9-2.5,0.3l-20.8-16.5c-0.8-0.6-0.9-1.7-0.3-2.5
	c0.3-0.5,0.9-0.7,1.4-0.7c0.4,0,0.7,0.1,1.1,0.4l20.8,16.5C378.6,343.5,378.7,344.6,378.1,345.4z M334.6,38.2l-11.7,1
	c-0.7,0.1-1.3-0.5-1.4-1.2c0,0,0-0.1,0-0.1c0-0.7,0.5-1.2,1.2-1.3l10.2-0.9l-2.8-9.9c-0.2-0.7,0.2-1.4,0.9-1.6
	c0.7-0.2,1.4,0.2,1.6,0.9l3.3,11.4c0.1,0.4,0,0.8-0.2,1.1S335,38.2,334.6,38.2z M245.4,422.2c-0.2,0.6-0.9,1-1.6,0.7l-14.5-5.2
	c-0.3-0.1-0.5-0.3-0.7-0.6c-0.1-0.2-0.1-0.3-0.1-0.5c0-0.1,0-0.3,0.1-0.4l5.2-14.5c0.1-0.3,0.3-0.6,0.6-0.7c0.3-0.1,0.6-0.2,0.9,0
	l14.5,5.2c0.6,0.2,1,0.9,0.7,1.6L245.4,422.2z M235.7,403.6l-4.4,12.2l12.2,4.4l4.4-12.2L235.7,403.6z M161.6,20.7
	c-2.5,1.8-5.6,2.5-8.7,2c-0.1,0-0.1,0-0.2,0c-0.8-0.1-1.3-0.8-1.3-1.5c0-0.1,0-0.2,0-0.3l3.3-19.6c0.1-0.8,0.9-1.4,1.8-1.3
	c0,0,0.1,0,0.1,0c6.3,1.1,10.6,7,9.5,13.3C165.8,16.3,164.1,19,161.6,20.7z M157.7,3.5l-2.8,16.3c1.7,0,3.4-0.5,4.9-1.6
	c1.8-1.3,3.1-3.2,3.4-5.4C163.9,8.7,161.5,4.8,157.7,3.5z M69,106.5L48.2,90c-0.8-0.6-0.9-1.7-0.3-2.5c0.3-0.5,0.9-0.7,1.4-0.7
	c0.4,0,0.7,0.1,1.1,0.4l20.8,16.5c0.8,0.6,0.9,1.7,0.3,2.5C70.9,106.9,69.8,107.1,69,106.5z M52.9,101.1c-0.6,0.8-1.7,0.9-2.5,0.3
	L29.7,85c-0.8-0.6-0.9-1.7-0.3-2.5c0.3-0.5,0.9-0.7,1.4-0.7c0.4,0,0.7,0.1,1.1,0.4l20.8,16.5C53.4,99.2,53.5,100.4,52.9,101.1z
	 M41.9,323.3l17.9,5.2c0.4,0.1,0.7,0.4,0.9,0.8c0.2,0.4,0.1,0.8-0.1,1.2L52,346.8c-0.3,0.5-0.8,0.8-1.3,0.7c-0.5,0-1-0.4-1.2-0.9
	l-9.2-21.5c-0.1-0.2-0.1-0.4-0.1-0.5c0-0.3,0.1-0.7,0.4-0.9C40.9,323.3,41.4,323.1,41.9,323.3z M50.9,342.9l3-5.5l0,0l3.6-6.7
	L44,326.8L50.9,342.9z"/>
</svg>
