<?xml version="1.0" encoding="utf-8"?>
<!-- Generator: Adobe Illustrator 23.0.3, SVG Export Plug-In . SVG Version: 6.00 Build 0)  -->
<svg version="1.1" id="Layer_1" xmlns="http://www.w3.org/2000/svg" xmlns:xlink="http://www.w3.org/1999/xlink" x="0px" y="0px"
	 viewBox="0 0 100 100" style="enable-background:new 0 0 100 100;" xml:space="preserve">
<style type="text/css">
	.st0{fill:#12B4E4;}
	.st1{fill:#FFFFFF;}
	.st2{fill:#F3AB43;}
	.st3{fill:#DA4643;}
</style>
<rect class="st0" width="100" height="100"/>
<path class="st1" d="M51.4,32.5c-0.1,0-0.2-0.1-0.3-0.2l0,0l0.6-1.1c0.1,0,0.2,0.1,0.2,0.1l0,0c1,0.4,1.7,0.2,2.6-0.4l0,0
	c0.8-0.6,1.6-1.8,2.3-3.2l0,0c1.4-3.2,1.9-7.7,1.1-10.2l0,0l0,0l1.2-0.4c1,3.1,0.4,7.7-1.1,11.2l0,0c-0.7,1.5-1.6,2.9-2.6,3.7l0,0
	C54.2,32.8,52.8,33.1,51.4,32.5L51.4,32.5L51.4,32.5L51.4,32.5z"/>
<path class="st2" d="M89.1,66.2c0.8,1.4,0.3,3.1-1.1,3.9L68.2,81.5c-1.4,0.8-3.1,0.3-3.9-1.1L44.6,46.1c-0.8-1.4,3.5-21.5,3.5-21.5
	s20.5,5.8,21.3,7.2L89.1,66.2z"/>
<circle class="st1" cx="52.8" cy="32.4" r="3.4"/>
<path class="st3" d="M39,79.4c-0.7,1.4-2.5,1.9-3.9,1.2L14.9,69.9c-1.4-0.7-1.9-2.5-1.2-3.9l18.4-35c0.7-1.4,20-8.5,20-8.5
	s6,20.4,5.3,21.8L39,79.4z"/>
<path class="st1" d="M56.4,17.6c-2.8,1.8-6.5,5.6-8.3,9c-0.1,0.2-0.2,0.4-0.3,0.6c-1.7,0.2-3.1,1.6-3.1,3.4c0,1.9,1.5,3.4,3.4,3.4
	s3.4-1.5,3.4-3.4c0-1.5-1-2.8-2.4-3.2c0-0.1,0.1-0.2,0.1-0.3c1.1-2.1,3-4.5,5-6.3c1-0.9,2-1.7,2.8-2.2c0.9-0.5,1.6-0.7,1.9-0.7
	L59,17C58.2,17,57.4,17,56.4,17.6z"/>
<path class="st1" d="M25.9,62.9c0.4-0.3,0.8-0.6,1.4-0.7l0.5,1.6c-0.6,0.1-1.1,0.5-1.4,1.2c-0.3,0.6-0.4,1.1-0.2,1.5
	c0.2,0.3,0.5,0.5,0.8,0.4s0.7-0.4,1.1-1s0.9-1.1,1.6-1.5s1.4-0.3,2.2,0.1c0.6,0.3,1,0.9,1.2,1.7c0.2,0.8,0.1,1.6-0.3,2.4
	c-0.4,0.7-0.8,1.3-1.3,1.7c-0.5,0.4-1,0.7-1.5,0.9l-0.5-1.6c0.6-0.1,1.2-0.6,1.7-1.4c0.4-0.7,0.4-1.2,0.2-1.6
	c-0.2-0.3-0.5-0.5-0.9-0.5s-0.8,0.4-1.2,1.1c-0.4,0.6-0.9,1.1-1.5,1.5s-1.3,0.4-2.1,0c-0.7-0.4-1.1-0.9-1.3-1.8
	c-0.1-0.8,0-1.6,0.3-2.2C25.1,63.7,25.5,63.2,25.9,62.9z M34.8,64.5l-6.4-7.2l0.8-1.6l9.6,0.8l-0.9,1.7l-1.5-0.1l-1.8,3.6l1,1.1
	L34.8,64.5z M30.9,57.5l2.4,2.7l1.2-2.4L30.9,57.5z M32.2,49.6l6.5,3.3l2.1-4.3l1.5,0.8l-3,5.9l-8-4L32.2,49.6z M43,48.1l-8-4l3-5.9
	l1.5,0.8l-2.2,4.3l1.7,0.9l1.6-3.2l1.5,0.7l-1.6,3.2l1.8,0.9l2.1-4.3l1.5,0.8L43,48.1z"/>
<path class="st1" d="M60.5,60.5c-1.1-0.3-1.9-0.9-2.5-1.9s-0.8-2-0.5-3.1s0.9-1.9,1.9-2.5s2-0.8,3.1-0.5s1.9,0.9,2.5,1.9
	s0.8,2,0.5,3.1s-0.9,1.9-1.9,2.5C62.6,60.6,61.6,60.7,60.5,60.5z M62.5,58.4c0.5-0.3,0.8-0.7,0.9-1.3c0.1-0.5,0-1.1-0.3-1.6
	s-0.7-0.9-1.3-1c-0.5-0.1-1.1-0.1-1.6,0.2s-0.8,0.7-0.9,1.3c-0.1,0.5,0,1.1,0.3,1.6s0.7,0.9,1.3,1C61.5,58.8,62,58.7,62.5,58.4z
	 M67,67.4L66.5,49l2.2-1.4L69.2,66L67,67.4z M73.3,62.4c-1-0.3-1.9-0.9-2.5-1.8c-0.6-1-0.8-2-0.5-3s0.9-1.9,1.8-2.5s2-0.8,3-0.5
	c1.1,0.3,1.9,0.9,2.5,1.8c0.6,1,0.8,2,0.5,3s-0.9,1.9-1.8,2.5C75.3,62.5,74.3,62.6,73.3,62.4z M75.3,60.3c0.5-0.3,0.8-0.7,0.9-1.3
	c0.1-0.5,0-1.1-0.3-1.6s-0.7-0.8-1.2-1c-0.5-0.1-1-0.1-1.5,0.2s-0.8,0.7-0.9,1.2s0,1,0.3,1.5s0.7,0.8,1.2,1
	C74.2,60.6,74.8,60.6,75.3,60.3z"/>
</svg>
