<?xml version="1.0" encoding="utf-8"?>
<!-- Generator: Adobe Illustrator 23.0.3, SVG Export Plug-In . SVG Version: 6.00 Build 0)  -->
<svg version="1.1" id="Layer_1" xmlns="http://www.w3.org/2000/svg" xmlns:xlink="http://www.w3.org/1999/xlink" x="0px" y="0px"
	 viewBox="0 0 100 100" style="enable-background:new 0 0 100 100;" xml:space="preserve">
<style type="text/css">
	.st0{fill:#9697AD;}
	.st1{fill:#FFFFFF;}
	.st2{fill:#DA4643;}
	.st3{fill:#BC3C3C;}
</style>
<rect class="st0" width="100" height="100"/>
<g>
	<rect x="41.8" y="28.8" class="st1" width="17.3" height="20.6"/>
	<g>
		<path class="st1" d="M54.6,39.8c-0.5,0-0.9,0.2-1.2,0.5s-0.5,0.8-0.5,1.2c0,0.5,0.2,0.9,0.5,1.3c0.3,0.3,0.7,0.5,1.2,0.5
			s0.9-0.2,1.2-0.5s0.5-0.8,0.5-1.3s-0.2-0.9-0.5-1.2S55.1,39.8,54.6,39.8z"/>
		<path class="st2" d="M59.6,49.3V19.4c0-3.2-2.6-5.7-5.7-5.7h-3.5v22.5l2.8-4.9h2.2l-5,8.8V67l0,0l15.8-17.7H59.6L59.6,49.3z
			 M57,44c-0.6,0.6-1.5,1-2.4,1s-1.8-0.3-2.4-1s-1-1.5-1-2.4s0.3-1.8,1-2.4c0.6-0.6,1.5-1,2.4-1s1.8,0.3,2.4,1c0.6,0.6,1,1.5,1,2.4
			C57.9,42.5,57.6,43.3,57,44z"/>
		<path class="st3" d="M47.7,44.9h-2.2l4.9-8.7V13.7h-3.5c-3.2,0-5.7,2.6-5.7,5.7v29.9h-6.6L50.4,67V40.1L47.7,44.9z M42.8,34.6
			c0-1,0.3-1.8,1-2.4c0.7-0.7,1.5-1,2.4-1c1,0,1.8,0.3,2.4,1s1,1.5,1,2.4c0,1-0.3,1.8-1,2.4c-0.7,0.7-1.5,1-2.4,1
			c-1,0-1.8-0.3-2.4-1C43.2,36.4,42.8,35.6,42.8,34.6z"/>
		<path class="st3" d="M47.9,34.6c0-0.5-0.2-0.9-0.5-1.3c-0.3-0.3-0.7-0.5-1.3-0.5c-0.5,0-0.9,0.2-1.2,0.5s-0.5,0.8-0.5,1.3
			s0.2,0.9,0.5,1.3c0.3,0.3,0.7,0.5,1.2,0.5s0.9-0.2,1.2-0.5C47.8,35.5,47.9,35.1,47.9,34.6z"/>
		<path class="st2" d="M55.8,42.8c-0.3,0.3-0.7,0.5-1.2,0.5s-0.9-0.2-1.2-0.5s-0.5-0.8-0.5-1.3s0.2-0.9,0.5-1.2s0.7-0.5,1.2-0.5
			s0.9,0.2,1.2,0.5s0.5,0.8,0.5,1.2C56.3,42.1,56.1,42.5,55.8,42.8z"/>
	</g>
	<g>
		<g>
			<path class="st1" d="M23.8,83.1c1,0.5,2.6,1.1,4.3,1.1c1.8,0,2.7-0.7,2.7-1.9c0-1.1-0.8-1.7-2.9-2.4c-2.8-1-4.7-2.6-4.7-5
				c0-2.9,2.4-5.1,6.5-5.1c1.9,0,3.3,0.4,4.4,0.9l-0.9,3.1c-0.7-0.3-1.9-0.8-3.6-0.8s-2.5,0.8-2.5,1.6c0,1.1,1,1.6,3.2,2.4
				c3,1.1,4.4,2.7,4.4,5.1c0,2.9-2.2,5.3-6.9,5.3c-2,0-3.9-0.5-4.8-1L23.8,83.1z"/>
			<path class="st1" d="M41.3,82.7l-1.2,4.4h-4L41.3,70h5.1l5.3,17.1h-4.2l-1.3-4.4H41.3z M45.7,79.8l-1.1-3.6
				c-0.3-1-0.6-2.3-0.9-3.3h-0.1c-0.3,1-0.5,2.3-0.8,3.3l-1,3.6H45.7z"/>
			<path class="st1" d="M54,70h3.9v13.8h6.8V87H54V70z"/>
			<path class="st1" d="M77.1,79.9h-6.3V84h7v3.2H66.9V70h10.5v3.2h-6.7v3.5H77L77.1,79.9L77.1,79.9L77.1,79.9z"/>
		</g>
	</g>
</g>
</svg>
