<?xml version="1.0" encoding="utf-8"?>
<!-- Generator: Adobe Illustrator 23.0.3, SVG Export Plug-In . SVG Version: 6.00 Build 0)  -->
<svg version="1.1" id="Layer_1" xmlns="http://www.w3.org/2000/svg" xmlns:xlink="http://www.w3.org/1999/xlink" x="0px" y="0px"
	 viewBox="0 0 512 512" style="enable-background:new 0 0 512 512;" xml:space="preserve">
<style type="text/css">
	.st0{fill:#FFD15D;}
	.st1{fill:#F9B54C;}
	.st2{fill:#324A5E;}
	.st3{fill:#FFFFFF;}
	.st4{fill:#E6F3FF;}
	.st5{fill:#4A6475;}
	.st6{fill:#F96555;}
</style>
<circle class="st0" cx="256" cy="256" r="256"/>
<path class="st1" d="M512,256c0-2.6-0.1-5.3-0.1-7.9L407.7,143.9l-54.9-14.1L125.6,415.7l93.7,93.7c12,1.7,24.3,2.6,36.8,2.6
	C397.4,512,512,397.4,512,256z"/>
<rect x="186.2" y="267.6" transform="matrix(0.7071 -0.7071 0.7071 0.7071 -133.1813 244.7432)" class="st2" width="85.3" height="31"/>
<circle class="st3" cx="319.4" cy="192.6" r="85.3"/>
<path class="st4" d="M379.7,132.3c-0.4-0.4-0.8-0.7-1.2-1.1L257.9,251.8c0.4,0.4,0.7,0.8,1.1,1.2c33.3,33.3,87.4,33.3,120.7,0
	C413,219.6,413,165.6,379.7,132.3z"/>
<path class="st5" d="M319.4,293.5c-26.9,0-52.3-10.5-71.3-29.5s-29.5-44.4-29.5-71.3s10.5-52.3,29.5-71.3s44.4-29.5,71.3-29.5
	s52.3,10.5,71.3,29.5c39.3,39.3,39.3,103.3,0,142.6C371.6,283,346.3,293.5,319.4,293.5z M319.4,122.8c-18.6,0-36.2,7.3-49.4,20.4
	s-20.4,30.7-20.4,49.4s7.3,36.2,20.4,49.4s30.7,20.4,49.4,20.4s36.2-7.3,49.4-20.4c27.2-27.2,27.2-71.5,0-98.7
	C355.6,130.1,338,122.8,319.4,122.8z"/>
<path class="st6" d="M237.7,303.5l-29.3-29.3c-6.1-6.1-15.9-6.1-21.9,0l-90.2,90.2c-6.1,6.1-6.1,15.9,0,21.9l29.3,29.3
	c3,3,7,4.5,11,4.5s7.9-1.5,11-4.5l90.2-90.2C243.8,319.4,243.8,309.6,237.7,303.5z"/>
</svg>
