<?xml version="1.0" encoding="utf-8"?>
<!-- Generator: Adobe Illustrator 23.0.3, SVG Export Plug-In . SVG Version: 6.00 Build 0)  -->
<svg version="1.1" id="Layer_1" xmlns="http://www.w3.org/2000/svg" xmlns:xlink="http://www.w3.org/1999/xlink" x="0px" y="0px"
	 viewBox="0 0 99.2 99.2" style="enable-background:new 0 0 99.2 99.2;" xml:space="preserve">
<style type="text/css">
	.st0{fill:#00A4A1;}
	.st1{fill:#038D85;}
	.st2{fill:#FFFDF5;}
	.st3{fill:#E8E7E7;}
	.st4{fill:#DB4744;}
</style>
<g>
	<circle class="st0" cx="49.6" cy="49.6" r="49.6"/>
</g>
<g>
	<path class="st1" d="M78,69.4l-6.1-2.7l3.9-2.8L33.2,22.3L0.1,50c0.2,25.7,20,46.8,45.2,49l39.4-26.2L78,69.4z"/>
</g>
<g>
	<g>
		<g>
			<circle class="st2" cx="34.5" cy="56.2" r="2"/>
			<path class="st3" d="M75.8,39.7H23v24.2h52.9C75.8,64,75.8,39.7,75.8,39.7z M40.6,59.5H27.4V44.1h13.2V59.5z M45,59.5V44.1h26.4
				v15.4H45z"/>
			<polygon class="st2" points="33.2,22.3 66.1,22.3 75.8,37.1 75.8,46.7 23,46.7 24.2,35.8 			"/>
		</g>
	</g>
</g>
<path class="st4" d="M84.7,72.8H14.2c0-3.6,3-6.6,6.6-6.6h57.3C81.7,66.2,84.7,69.1,84.7,72.8z M20.9,47.1h5.2v13.8h16.4V47.1h1.4
	v13.8H74V47.1h3.9c0.5,0,0.9-0.4,0.9-0.9c0-0.4-0.3-0.7-0.6-0.9v-8.9L66.1,22.3h-2.2l8.6,14.3v7.5H68v-7.5l-7.2-14.3h-2.2l3.7,14.3
	v7.5h-5.2v-9.6l-3.4-12.2h-1.8l0.6,21.8h-5.8v-7.3V22.3h-1.2l-4.2,14.1v5.9h-4.2v-6.2l4.2-13.8h-1.5l-8.4,14.1v5.9H27v-5.9l8.2-14.1
	h-2L20.6,36.4v8.9c-0.4,0.1-0.6,0.5-0.6,0.9C20,46.7,20.4,47.1,20.9,47.1z"/>
<rect x="23" y="46.3" class="st3" width="51.9" height="1.3"/>
</svg>
