<?xml version="1.0" encoding="utf-8"?>
<!-- Generator: Adobe Illustrator 23.0.3, SVG Export Plug-In . SVG Version: 6.00 Build 0)  -->
<svg version="1.1" id="Layer_1" xmlns="http://www.w3.org/2000/svg" xmlns:xlink="http://www.w3.org/1999/xlink" x="0px" y="0px"
	 viewBox="0 0 99.1 99.1" style="enable-background:new 0 0 99.1 99.1;" xml:space="preserve">
<style type="text/css">
	.st0{fill:#DB4744;}
	.st1{fill:none;}
	.st2{fill:#4C5864;}
	.st3{fill:#3C454F;}
	.st4{fill:#FFFFFF;}
</style>
<g>
	<g>
		<g>
			<path class="st0" d="M99.1,49.6C99.1,77,77,99.1,49.6,99.1S0,77,0,49.6S22.2,0,49.6,0S99.1,22.2,99.1,49.6z"/>
		</g>
	</g>
</g>
<path class="st1" d="M48.7,60.5v13c0,1.2,1,2.2,2.2,2.2V58.4C49.7,58.4,48.7,59.4,48.7,60.5z"/>
<path class="st1" d="M53,73.6v-13c0-1.2-1-2.2-2.2-2.2v17.3C52.1,75.7,53,74.8,53,73.6z"/>
<path class="st1" d="M42.2,58.4c-1.2,0-2.2,1-2.2,2.2v13c0,1.2,1,2.2,2.2,2.2s2.2-1,2.2-2.2v-13C44.3,59.4,43.4,58.4,42.2,58.4z"/>
<path class="st1" d="M33.5,58.4c-1.2,0-2.2,1-2.2,2.2v13c0,1.2,1,2.2,2.2,2.2s2.2-1,2.2-2.2v-13C35.7,59.4,34.7,58.4,33.5,58.4z"/>
<path class="st1" d="M68.2,58.4c-1.2,0-2.2,1-2.2,2.2v13c0,1.2,1,2.2,2.2,2.2s2.2-1,2.2-2.2v-13C70.4,59.4,69.4,58.4,68.2,58.4z"/>
<path class="st1" d="M59.5,58.4c-1.2,0-2.2,1-2.2,2.2v13c0,1.2,1,2.2,2.2,2.2s2.2-1,2.2-2.2v-13C61.7,59.4,60.7,58.4,59.5,58.4z"/>
<path class="st2" d="M48.7,73.6v-13c0-1.2,1-2.2,2.2-2.2V41h-16L32,46.6c-0.7,1.3-1.9,2-3.4,2c-0.6,0-1.2-0.1-1.7-0.4
	c-1.9-1-2.6-3.2-1.6-5.1l1.1-2.1h-5.9c-2.4,0-4.3,1.9-4.3,4.3v4.3c0,2.4,1.9,4.3,4.3,4.3l4.3,26h26v-4.3
	C49.7,75.7,48.7,74.8,48.7,73.6z M35.7,73.6c0,1.2-1,2.2-2.2,2.2s-2.2-1-2.2-2.2v-13c0-1.2,1-2.2,2.2-2.2s2.2,1,2.2,2.2V73.6z
	 M44.3,73.6c0,1.2-1,2.2-2.2,2.2s-2.2-1-2.2-2.2v-13c0-1.2,1-2.2,2.2-2.2s2.2,1,2.2,2.2V73.6z"/>
<path class="st3" d="M81.2,41h-5.1l1.1,2.1c1,1.8,0.2,4.1-1.6,5.1c-0.5,0.3-1.1,0.4-1.7,0.4c-1.4,0-2.7-0.8-3.4-2L67.6,41H50.9v17.3
	c1.2,0,2.2,1,2.2,2.2v13c0,1.2-1,2.2-2.2,2.2V80h26l4.3-26c2.4,0,4.3-1.9,4.3-4.3v-4.3C85.5,43,83.6,41,81.2,41z M61.7,73.6
	c0,1.2-1,2.2-2.2,2.2s-2.2-1-2.2-2.2v-13c0-1.2,1-2.2,2.2-2.2s2.2,1,2.2,2.2V73.6z M70.4,73.6c0,1.2-1,2.2-2.2,2.2s-2.2-1-2.2-2.2
	v-13c0-1.2,1-2.2,2.2-2.2s2.2,1,2.2,2.2V73.6z"/>
<path class="st4" d="M27.7,46.7c0.3,0.2,0.6,0.2,0.9,0.2c0.7,0,1.4-0.4,1.8-1.1l12.7-24.4c0.5-1,0.1-2.2-0.9-2.7s-2.2-0.1-2.7,0.9
	L26.9,43.9C26.4,44.9,26.7,46.1,27.7,46.7z M72,45.8c0.4,0.7,1.1,1.1,1.8,1.1c0.3,0,0.6-0.1,0.9-0.2c1-0.5,1.4-1.7,0.9-2.7L63,19.6
	c-0.5-1-1.7-1.4-2.7-0.9s-1.4,1.7-0.9,2.7L72,45.8z"/>
</svg>
