<?xml version="1.0" encoding="utf-8"?>
<!-- Generator: Adobe Illustrator 23.0.3, SVG Export Plug-In . SVG Version: 6.00 Build 0)  -->
<svg version="1.1" id="Layer_1" xmlns="http://www.w3.org/2000/svg" xmlns:xlink="http://www.w3.org/1999/xlink" x="0px" y="0px"
	 viewBox="0 0 98.5 98.5" style="enable-background:new 0 0 98.5 98.5;" xml:space="preserve">
<style type="text/css">
	.st0{fill:#00A4A1;}
	.st1{fill:#FDFCEA;}
	.st2{fill:#EFF7F0;}
	.st3{fill:#F39225;}
	.st4{fill:#3F4D50;}
	.st5{fill:#C67838;}
</style>
<g>
	<path class="st0" d="M98.5,49.3c0,27.2-22.1,49.3-49.3,49.3C22.1,98.5,0,76.5,0,49.3S22.1,0,49.3,0S98.5,22.1,98.5,49.3z"/>
</g>
<ellipse class="st1" cx="23.1" cy="65.2" rx="3.1" ry="3.4"/>
<ellipse class="st1" cx="70.8" cy="65" rx="3.1" ry="3.5"/>
<polygon class="st2" points="67,37.1 67,49.8 77.6,49.1 77.7,47.6 74.8,38.2 "/>
<path class="st3" d="M79,57.4h5.6v3.3H79V57.4z M59.4,29.5H16.8c-0.9,0-1.6,0.7-1.6,1.6v24.3c0,0.9,0.7,1.6,1.6,1.6h42.6
	c0.9,0,1.7-0.7,1.7-1.6V31.1C61.1,30.2,60.3,29.5,59.4,29.5z"/>
<g>
	<path d="M70.4,58.2c-3.8,0-6.9,3.1-6.9,6.9c0,3.8,3.1,6.9,6.9,6.9s6.9-3.1,6.9-6.9C77.3,61.3,74.2,58.2,70.4,58.2z M71.8,66.7
		c-0.4,0.3-0.9,0.5-1.4,0.5s-1-0.2-1.4-0.5c-0.4-0.4-0.7-0.9-0.7-1.5c0-0.1,0-0.3,0-0.4c0.2-1,1-1.7,2-1.7s1.9,0.7,2,1.7
		c0,0.1,0,0.2,0,0.4C72.5,65.7,72.2,66.3,71.8,66.7z M23.3,58.2L23.3,58.2c-3.5,0-6.3,2.5-6.8,5.8c-0.1,0.4-0.1,0.8-0.1,1.2
		c0,3.8,3.1,6.9,6.9,6.9s6.9-3.1,6.9-6.9c0-0.4,0-0.8-0.1-1.2C29.6,60.7,26.7,58.2,23.3,58.2z M24.7,66.6c-0.4,0.3-0.9,0.5-1.4,0.5
		s-1-0.2-1.4-0.5c-0.4-0.4-0.7-0.9-0.7-1.5c0-0.1,0-0.3,0-0.4c0.1-0.3,0.2-0.6,0.3-0.8c0.4-0.5,1-0.9,1.7-0.9s1.3,0.4,1.7,0.9
		c0.2,0.2,0.3,0.5,0.3,0.8c0,0.1,0,0.2,0,0.4C25.4,65.7,25.1,66.3,24.7,66.6z"/>
	<path class="st4" d="M20.8,58.2H15V64h1v-0.1C16.5,61.2,18.4,59.1,20.8,58.2z"/>
	<path class="st4" d="M84.8,60.3c0-3.2,0.1-6.3-0.1-9.5c-1-0.5-2-0.9-3-1.4c-0.7-0.3-1.4-0.7-2.1-1c-0.1,0-0.2-0.1-0.3-0.1
		c-1.4-0.8-1.4-2.7-1.9-4.1c-0.6-2.3-1.5-4.6-2.1-6.9c-0.4-1.5-0.6-3-0.5-4.5c-4.1-0.1-8.3,0-12.4,0l0,0l0,0l0,0v5.1l0,0
		c0,6.8-0.1,13.5,0,20.3H25.8c2.4,0.9,4.3,3,4.8,5.7c0,0,0,0,0,0.1h31.9c1-3.2,3.5-6.3,7.2-6.5c4-0.6,7.7,2.5,8.6,6.3
		c2.6,0,5.3,0,7.9,0c0-1.1,0-2.2,0-3.3C85.7,60.4,85.3,60.4,84.8,60.3z M67.9,47.9c0-3.1-0.1-6.2,0-9.2c2.1,0,4.2,0,6.2,0.1
		c0.8,3,1.8,6.1,2.6,9.1C73.8,47.9,70.8,47.9,67.9,47.9z M84.4,60.6c-1.8,0.1-3.6,0.1-5.4,0c0-1.1,0-2.1,0-3.2c1.8,0,3.6,0,5.4,0
		C84.5,58.5,84.5,59.5,84.4,60.6z"/>
</g>
<rect x="15.2" y="39.6" class="st5" width="31.5" height="4.6"/>
</svg>
