<?xml version="1.0" encoding="utf-8"?>
<!-- Generator: Adobe Illustrator 23.0.3, SVG Export Plug-In . SVG Version: 6.00 Build 0)  -->
<svg version="1.1" id="Layer_1" xmlns="http://www.w3.org/2000/svg" xmlns:xlink="http://www.w3.org/1999/xlink" x="0px" y="0px"
	 viewBox="0 0 53.4 53.4" style="enable-background:new 0 0 53.4 53.4;" xml:space="preserve">
<style type="text/css">
	.st0{fill:#EBBB02;}
</style>
<g>
	<path class="st0" d="M49.9,13.3c-2.4-4.1-5.6-7.3-9.7-9.7C36,1.2,31.6,0,26.7,0s-9.3,1.2-13.4,3.6S6,9.2,3.6,13.3S0,21.9,0,26.7
		c0,4.9,1.2,9.3,3.6,13.4s5.6,7.3,9.7,9.7c4.1,2.4,8.6,3.6,13.4,3.6s9.3-1.2,13.4-3.6c4.1-2.4,7.3-5.6,9.7-9.7
		c2.4-4.1,3.6-8.6,3.6-13.4C53.5,21.9,52.3,17.4,49.9,13.3z M26.7,45.7c-3.4,0-6.6-0.8-9.5-2.5c-2.9-1.7-5.2-4-6.9-6.9
		s-2.5-6.1-2.5-9.5s0.8-6.6,2.5-9.5s4-5.2,6.9-6.9s6.1-2.5,9.5-2.5V45.7L26.7,45.7z"/>
</g>
</svg>
