<?xml version="1.0" encoding="utf-8"?>
<!-- Generator: Adobe Illustrator 16.0.0, SVG Export Plug-In . SVG Version: 6.00 Build 0)  -->
<!DOCTYPE svg PUBLIC "-//W3C//DTD SVG 1.1//EN" "http://www.w3.org/Graphics/SVG/1.1/DTD/svg11.dtd" [
	<!ENTITY ns_extend "http://ns.adobe.com/Extensibility/1.0/">
	<!ENTITY ns_ai "http://ns.adobe.com/AdobeIllustrator/10.0/">
	<!ENTITY ns_graphs "http://ns.adobe.com/Graphs/1.0/">
	<!ENTITY ns_vars "http://ns.adobe.com/Variables/1.0/">
	<!ENTITY ns_imrep "http://ns.adobe.com/ImageReplacement/1.0/">
	<!ENTITY ns_sfw "http://ns.adobe.com/SaveForWeb/1.0/">
	<!ENTITY ns_custom "http://ns.adobe.com/GenericCustomNamespace/1.0/">
	<!ENTITY ns_adobe_xpath "http://ns.adobe.com/XPath/1.0/">
]>
<svg version="1.1" id="Layer_1" xmlns:x="&ns_extend;" xmlns:i="&ns_ai;" xmlns:graph="&ns_graphs;"
	 xmlns="http://www.w3.org/2000/svg" xmlns:xlink="http://www.w3.org/1999/xlink" x="0px" y="0px" width="59.802px"
	 height="77.115px" viewBox="0 0 59.802 77.115" enable-background="new 0 0 59.802 77.115" xml:space="preserve">
<metadata>
	<sfw  xmlns="&ns_sfw;">
		<slices></slices>
		<sliceSourceBounds  height="77.115" width="59.802" x="363.765" y="-29.13" bottomLeftOrigin="true"></sliceSourceBounds>
	</sfw>
</metadata>
<g>
	<path fill="#FFFFFF" d="M34.469,7.892c2.521,1.577,4.202,4.422,4.202,7.668l-0.001,0.15H21.133l-0.001-0.15
		c0-3.336,1.776-6.247,4.412-7.795c0.072,0.104,0.148,0.205,0.227,0.304c-0.605-0.834-0.963-1.854-0.963-2.955
		C24.808,2.29,27.156,0,30.054,0C32.952,0,35.3,2.29,35.3,5.114c0,1.079-0.342,2.079-0.926,2.903L34.469,7.892L34.469,7.892z
		 M30.022,1.95L30.022,1.95c-1.547,0-2.8,1.228-2.8,2.743c0,1.514,1.253,2.742,2.8,2.742c1.546,0,2.799-1.228,2.799-2.742
		C32.821,3.178,31.568,1.95,30.022,1.95z"/>
	<path fill="#FFFFFF" d="M36.82,69.327c0.005,0.105,0.007,0.211,0.007,0.316c0,4.127-3.323,7.472-7.424,7.472
		s-7.425-3.345-7.425-7.472c0-0.105,0.003-0.211,0.008-0.316H36.82z"/>
</g>
<path fill="#FAAC19" d="M6.458,58.352h46.886c3.552,0,6.458,2.947,6.458,6.55v4.426H0v-4.426C0,61.299,2.905,58.352,6.458,58.352
	L6.458,58.352z"/>
<g>
	<path fill="#FDB91F" d="M59.634,66.372c0.109,0.239,0.168,0.487,0.168,0.742v2.213H0v-2.213c0-0.255,0.058-0.503,0.168-0.742
		H59.634z"/>
	<path fill="#FDB91F" d="M21.074,15.729c0,0-9.825,2.831-9.256,20.431S7.013,58.352,7.013,58.352h22.889H52.79
		c0,0-5.375-4.592-4.806-22.191s-9.255-20.431-9.255-20.431l-8.828-0.02L21.074,15.729z"/>
</g>
</svg>
