<?xml version="1.0" encoding="utf-8"?>
<!-- Generator: Adobe Illustrator 22.1.0, SVG Export Plug-In . SVG Version: 6.00 Build 0)  -->
<svg version="1.1" id="Layer_1" xmlns="http://www.w3.org/2000/svg" xmlns:xlink="http://www.w3.org/1999/xlink" x="0px" y="0px"
	 viewBox="0 0 100 100" style="enable-background:new 0 0 100 100;" xml:space="preserve">
<style type="text/css">
	.st0{fill:#2195F2;}
	.st1{fill:#1985CE;}
</style>
<g>
	<path class="st0" d="M50,98.5C23.3,98.5,1.5,76.7,1.5,50S23.3,1.5,50,1.5S98.5,23.3,98.5,50S76.7,98.5,50,98.5z"/>
	<path class="st1" d="M50,3c25.9,0,47,21.1,47,47S75.9,97,50,97S3,75.9,3,50S24.1,3,50,3 M50,0C22.4,0,0,22.4,0,50
		c0,27.6,22.4,50,50,50s50-22.4,50-50C100,22.4,77.6,0,50,0L50,0z"/>
</g>
</svg>
