<?xml version="1.0" encoding="utf-8"?>
<!-- Generator: Adobe Illustrator 22.1.0, SVG Export Plug-In . SVG Version: 6.00 Build 0)  -->
<svg version="1.1" id="Layer_1" xmlns="http://www.w3.org/2000/svg" xmlns:xlink="http://www.w3.org/1999/xlink" x="0px" y="0px"
	 viewBox="0 0 100 100" style="enable-background:new 0 0 100 100;" xml:space="preserve">
<style type="text/css">
	.st0{fill:#2195F2;}
</style>
<g>
	<g>
		<path class="st0" d="M50,100c27.5,0,50-22.4,50-50S77.5,0,50,0S0,22.5,0,50S22.5,100,50,100z M50,7.1c23.7,0,42.9,19.3,42.9,42.9
			S73.7,92.9,50,92.9S7.1,73.7,7.1,50S26.3,7.1,50,7.1z"/>
		<path class="st0" d="M31.2,68.2c0.7,0.7,1.5,1,2.5,1c0.9,0,1.8-0.3,2.5-1L50,54.5l13.8,13.8c0.7,0.7,1.5,1,2.5,1
			c0.9,0,1.8-0.3,2.5-1c1.4-1.4,1.4-3.6,0-5L55,49.5l13.8-13.8c1.4-1.4,1.4-3.6,0-5c-1.4-1.4-3.6-1.4-5,0L50,44.5L36.2,30.7
			c-1.4-1.4-3.6-1.4-5,0c-1.4,1.4-1.4,3.6,0,5L45,49.5L31.2,63.3C29.9,64.6,29.9,66.9,31.2,68.2z"/>
	</g>
</g>
</svg>
