<?xml version="1.0" encoding="utf-8"?>
<!-- Generator: Adobe Illustrator 22.1.0, SVG Export Plug-In . SVG Version: 6.00 Build 0)  -->
<svg version="1.1" id="Capa_1" xmlns="http://www.w3.org/2000/svg" xmlns:xlink="http://www.w3.org/1999/xlink" x="0px" y="0px"
	 viewBox="0 0 30 30" style="enable-background:new 0 0 30 30;" xml:space="preserve">
<style type="text/css">
	.st0{fill:#2195F2;}
</style>
<g>
	<path class="st0" d="M29.5,6.7L26.8,4c-0.4-0.4-0.8-0.5-1.3-0.5c-0.5,0-1,0.2-1.3,0.5L11.5,16.8l-5.7-5.7c-0.4-0.4-0.8-0.5-1.3-0.5
		c-0.5,0-1,0.2-1.3,0.5l-2.6,2.6C0.2,14,0,14.5,0,15c0,0.5,0.2,1,0.5,1.3l7,7l2.6,2.6c0.4,0.4,0.8,0.5,1.3,0.5c0.5,0,1-0.2,1.3-0.5
		l2.6-2.6l14-14C29.8,8.9,30,8.5,30,8C30,7.5,29.8,7,29.5,6.7z"/>
</g>
</svg>
