<?xml version="1.0" encoding="utf-8"?>
<!-- Generator: Adobe Illustrator 23.0.3, SVG Export Plug-In . SVG Version: 6.00 Build 0)  -->
<svg version="1.1" id="Layer_1" xmlns="http://www.w3.org/2000/svg" xmlns:xlink="http://www.w3.org/1999/xlink" x="0px" y="0px"
	 viewBox="0 0 31.6 29" style="enable-background:new 0 0 31.6 29;" xml:space="preserve">
<style type="text/css">
	.st0{fill:#3E50B4;}
</style>
<path class="st0" d="M15.8,0c3.6,0,6.6,3,6.6,6.6s-3,6.6-6.6,6.6s-6.6-3-6.6-6.6S12.2,0,15.8,0z M25,15.8c3.6,0,6.6,3,6.6,6.6
	S28.6,29,25,29s-6.6-3-6.6-6.6S21.4,15.8,25,15.8z M6.6,15.8c3.6,0,6.6,3,6.6,6.6s-3,6.6-6.6,6.6S0,26,0,22.4S3,15.8,6.6,15.8z"/>
</svg>
