<?xml version="1.0" encoding="utf-8"?>
<!-- Generator: Adobe Illustrator 23.0.3, SVG Export Plug-In . SVG Version: 6.00 Build 0)  -->
<svg version="1.1" id="Layer_1" xmlns="http://www.w3.org/2000/svg" xmlns:xlink="http://www.w3.org/1999/xlink" x="0px" y="0px"
	 viewBox="0 0 27.3 46.7" style="enable-background:new 0 0 27.3 46.7;" xml:space="preserve">
<style type="text/css">
	.st0{fill:#3E50B4;}
</style>
<path class="st0" d="M25.6,18.3H18V1.2C18,0.5,16.9,0,15.6,0h-4.2C10.1,0,9,0.5,9,1.2v17.1H1.4c-0.8,0-1.4,0.5-1.4,1.1
	c0,0,11.4,16.7,12.4,17.5s2.1,0,2.1,0l12.4-17.5C27,18.8,26.4,18.3,25.6,18.3z M27.3,45c0,1-0.7,1.7-1.5,1.7H1.6
	c-0.8,0-1.5-0.8-1.5-1.7v-1.7c0-1,0.7-1.7,1.5-1.7h24.2c0.8,0,1.5,0.8,1.5,1.7L27.3,45L27.3,45z"/>
</svg>
