<?xml version="1.0" encoding="utf-8"?>
<!-- Generator: Adobe Illustrator 22.1.0, SVG Export Plug-In . SVG Version: 6.00 Build 0)  -->
<svg version="1.1" id="Layer_1" xmlns="http://www.w3.org/2000/svg" xmlns:xlink="http://www.w3.org/1999/xlink" x="0px" y="0px"
	 viewBox="0 0 100 100" style="enable-background:new 0 0 100 100;" xml:space="preserve">
<style type="text/css">
	.st0{fill:#2195F2;}
</style>
<g>
	<g>
		<path class="st0" d="M50,0C22.4,0,0,22.4,0,50s22.4,50,50,50s50-22.4,50-50S77.6,0,50,0z M8.9,50C8.9,27.3,27.3,8.9,50,8.9
			c9.4,0,18,3.1,24.9,8.4L17.3,74.9C12,68,8.9,59.4,8.9,50z M50,91.1c-9.3,0-17.9-3.1-24.8-8.3l57.6-57.6c5.2,6.9,8.3,15.5,8.3,24.8
			C91.1,72.7,72.7,91.1,50,91.1z"/>
	</g>
</g>
</svg>
