<?xml version="1.0" encoding="utf-8"?>
<!-- Generator: Adobe Illustrator 22.1.0, SVG Export Plug-In . SVG Version: 6.00 Build 0)  -->
<svg version="1.1" id="Layer_1" xmlns="http://www.w3.org/2000/svg" xmlns:xlink="http://www.w3.org/1999/xlink" x="0px" y="0px"
	 viewBox="0 0 100 88.6" style="enable-background:new 0 0 100 88.6;" xml:space="preserve">
<style type="text/css">
	.st0{fill:#2195F2;}
</style>
<g>
	<path class="st0" d="M13.6,86.4c0,0-0.1,2.2,2.1,2.2c2.7,0,25.2,0,25.2,0l0-20.7c0,0-0.4-3.4,2.9-3.4h10.5c3.9,0,3.7,3.4,3.7,3.4
		l0,20.6c0,0,21.3,0,24.7,0c2.8,0,2.6-2.8,2.6-2.8V47.6L50.5,16.7L13.6,47.6V86.4z"/>
	<path class="st0" d="M0,44.8c0,0,3.1,5.8,10,0l40.9-34.6l38.3,34.3c7.9,5.7,10.9,0,10.9,0L50.8,0L0,44.8z"/>
	<polygon class="st0" points="88.2,10.1 78.3,10.1 78.4,22.1 88.2,30.4 	"/>
</g>
</svg>
