<?xml version="1.0" encoding="utf-8"?>
<!-- Generator: Adobe Illustrator 23.0.3, SVG Export Plug-In . SVG Version: 6.00 Build 0)  -->
<svg version="1.1" id="Layer_1" xmlns="http://www.w3.org/2000/svg" xmlns:xlink="http://www.w3.org/1999/xlink" x="0px" y="0px"
	 viewBox="0 0 62 30.4" style="enable-background:new 0 0 62 30.4;" xml:space="preserve">
<style type="text/css">
	.st0{fill:#3E50B4;}
</style>
<path class="st0" d="M15.2,30.4C6.8,30.4,0,23.6,0,15.2S6.8,0,15.2,0c2.6,0,5.1,0.7,7.4,1.9C23.8,2.6,25,3.4,26,4.5l10.7,10.7
	L25.9,25.9c-1,1-2.2,1.9-3.4,2.6C20.3,29.7,17.8,30.4,15.2,30.4z M15.2,8.1c-3.9,0-7.1,3.2-7.1,7.1s3.2,7.1,7.1,7.1
	c1.2,0,2.4-0.3,3.4-0.9c0.6-0.3,1.1-0.7,1.6-1.2l5-5l-5-5c-0.5-0.5-1-0.9-1.6-1.2C17.6,8.4,16.4,8.1,15.2,8.1z M46.8,30.4
	c-2.6,0-5.1-0.7-7.4-1.9C38.2,27.8,37,27,36,25.9L25.3,15.2L36,4.5c1-1,2.1-1.9,3.4-2.6C41.6,0.7,44.2,0,46.8,0
	C55.2,0,62,6.8,62,15.2S55.1,30.4,46.8,30.4z M36.7,15.2l5,5c0.5,0.5,1,0.9,1.6,1.2c1.1,0.6,2.2,0.9,3.4,0.9c3.9,0,7.1-3.2,7.1-7.1
	s-3.2-7.1-7.1-7.1c-1.2,0-2.4,0.3-3.4,0.9c-0.6,0.3-1.1,0.7-1.6,1.2L36.7,15.2z"/>
</svg>
