<?xml version="1.0" encoding="utf-8"?>
<!-- Generator: Adobe Illustrator 23.0.3, SVG Export Plug-In . SVG Version: 6.00 Build 0)  -->
<svg version="1.1" id="Layer_1" xmlns="http://www.w3.org/2000/svg" xmlns:xlink="http://www.w3.org/1999/xlink" x="0px" y="0px"
	 viewBox="0 0 29.2 51.5" style="enable-background:new 0 0 29.2 51.5;" xml:space="preserve">
<style type="text/css">
	.st0{fill:#3E50B4;}
</style>
<path class="st0" d="M29.2,27.1h-4.3c0,5.7-4.6,10.3-10.3,10.3S4.3,32.8,4.3,27.1H0c0,7.4,5.4,13.4,12.5,14.5v9.1
	c0,0.4,0.4,0.8,0.9,0.8h2.3c0.5,0,0.9-0.3,0.9-0.8v-9.1C23.8,40.6,29.2,34.5,29.2,27.1z M23.6,9c0-5-4-9-9-9s-9,4-9,9
	c0,4.1,0,13.3,0,17.4c0,5,4,9,9,9s9-4,9-9C23.6,22.3,23.6,13.2,23.6,9z"/>
</svg>
