<?xml version="1.0" encoding="utf-8"?>
<!-- Generator: Adobe Illustrator 23.0.3, SVG Export Plug-In . SVG Version: 6.00 Build 0)  -->
<svg version="1.1" id="Layer_1" xmlns="http://www.w3.org/2000/svg" xmlns:xlink="http://www.w3.org/1999/xlink" x="0px" y="0px"
	 viewBox="0 0 37.5 10" style="enable-background:new 0 0 37.5 10;" xml:space="preserve">
<style type="text/css">
	.st0{fill:#3E50B4;}
</style>
<path class="st0" d="M5,0C2.2,0,0,2.2,0,5s2.2,5,5,5s5-2.2,5-5S7.8,0,5,0z M32.5,0c-2.8,0-5,2.2-5,5s2.2,5,5,5s5-2.2,5-5
	S35.3,0,32.5,0z M18.8,0c-2.8,0-5,2.2-5,5s2.2,5,5,5s5-2.2,5-5S21.5,0,18.8,0z"/>
</svg>
