<?xml version="1.0" encoding="utf-8"?>
<!-- Generator: Adobe Illustrator 23.0.3, SVG Export Plug-In . SVG Version: 6.00 Build 0)  -->
<svg version="1.1" id="Layer_1" xmlns="http://www.w3.org/2000/svg" xmlns:xlink="http://www.w3.org/1999/xlink" x="0px" y="0px"
	 viewBox="0 0 47.7 48" style="enable-background:new 0 0 47.7 48;" xml:space="preserve">
<style type="text/css">
	.st0{fill:#3E50B4;}
</style>
<path class="st0" d="M42.8,0c-2.9,0-5.2,2.3-5.2,5.2c0,0.9,0.2,1.8,0.6,2.5l-8.6,8.6c-1.2-0.9-2.7-1.5-4.3-1.5s-3.1,0.6-4.3,1.5
	l-6.7-6.7c0.3-0.5,0.5-1.1,0.5-1.8c0-1.9-1.6-3.5-3.5-3.5S7.8,5.9,7.8,7.8s1.6,3.5,3.5,3.5c0.6,0,1.2-0.2,1.8-0.5l6.7,6.7
	c-0.9,1.2-1.5,2.7-1.5,4.3s0.6,3.1,1.5,4.3l-11.1,11c-0.9-0.8-2.2-1.4-3.5-1.4C2.3,35.7,0,38,0,40.9s2.3,5.2,5.2,5.2
	s5.2-2.3,5.2-5.2c0-0.9-0.2-1.8-0.6-2.5L21,27.3c1,0.8,2.1,1.3,3.4,1.4v8.9C21.9,38,20,40.2,20,42.8c0,2.9,2.3,5.2,5.2,5.2
	s5.2-2.3,5.2-5.2c0-2.6-1.9-4.7-4.4-5.2v-8.9c1.3-0.2,2.4-0.7,3.4-1.4l6.7,6.7c-0.3,0.5-0.5,1.1-0.5,1.8c0,1.9,1.6,3.5,3.5,3.5
	s3.5-1.6,3.5-3.5s-1.6-3.5-3.5-3.5c-0.6,0-1.2,0.2-1.8,0.5l-6.7-6.7c0.9-1.2,1.5-2.7,1.5-4.3s-0.6-3.1-1.5-4.3L39,9.1
	c0.9,0.8,2.2,1.4,3.5,1.4c2.9,0,5.2-2.3,5.2-5.2S45.7,0,42.8,0z"/>
</svg>
