<?xml version="1.0" encoding="utf-8"?>
<!-- Generator: Adobe Illustrator 23.0.3, SVG Export Plug-In . SVG Version: 6.00 Build 0)  -->
<svg version="1.1" id="Layer_1" xmlns="http://www.w3.org/2000/svg" xmlns:xlink="http://www.w3.org/1999/xlink" x="0px" y="0px"
	 viewBox="0 0 30.9 47.8" style="enable-background:new 0 0 30.9 47.8;" xml:space="preserve">
<style type="text/css">
	.st0{fill:#3E50B4;}
</style>
<path class="st0" d="M15.4,0C6.9,0,0,6.9,0,15.4c0,1.4,0.2,2.8,0.6,4.1c0.1,0.5,0.3,1,0.5,1.5l0.5,1.1l13.9,25.7l13.9-25.7l0.4-1
	c0.2-0.5,0.4-1.1,0.5-1.6c0.4-1.3,0.6-2.7,0.6-4.1C30.8,6.9,23.9,0,15.4,0z M15.4,22.9c-4.2,0-7.6-3.4-7.6-7.6s3.4-7.6,7.6-7.6
	s7.6,3.4,7.6,7.6C22.9,19.5,19.5,22.9,15.4,22.9z"/>
</svg>
