<?xml version="1.0" encoding="utf-8"?>
<!-- Generator: Adobe Illustrator 23.0.3, SVG Export Plug-In . SVG Version: 6.00 Build 0)  -->
<svg version="1.1" id="Layer_1" xmlns="http://www.w3.org/2000/svg" xmlns:xlink="http://www.w3.org/1999/xlink" x="0px" y="0px"
	 viewBox="0 0 40.1 40" style="enable-background:new 0 0 40.1 40;" xml:space="preserve">
<style type="text/css">
	.st0{fill:#3E50B4;}
</style>
<path class="st0" d="M38.9,34L23.3,18.3L5,0H3.5L3.3,0.7c-0.8,2-1.1,4-1,5.8c0.2,2.1,1,3.9,2.3,5.2L18.8,26l1.9-1.9L33.9,39
	c1.3,1.3,3.6,1.4,5,0S40.3,35.4,38.9,34z M12.3,22.8L1,34c-1.4,1.4-1.4,3.6,0,5c1.3,1.3,3.6,1.4,5,0l11.2-11.2L12.3,22.8z M38.3,6.7
	L32,13l-1.7-1.6L36.7,5L35,3.3l-6.4,6.4L27,8l6.4-6.4L31.7,0l-8.3,8.3c-1,1-1.6,2.4-1.7,3.8c0,0.4-0.1,0.7-0.2,1.1l5.4,5.4
	c0.3-0.1,0.7-0.2,1.1-0.2c1.4-0.1,2.8-0.7,3.8-1.7l8.3-8.3L38.3,6.7z"/>
</svg>
