<?xml version="1.0" encoding="utf-8"?>
<!-- Generator: Adobe Illustrator 23.0.3, SVG Export Plug-In . SVG Version: 6.00 Build 0)  -->
<svg version="1.1" id="Layer_1" xmlns="http://www.w3.org/2000/svg" xmlns:xlink="http://www.w3.org/1999/xlink" x="0px" y="0px"
	 viewBox="0 0 45 45" style="enable-background:new 0 0 45 45;" xml:space="preserve">
<style type="text/css">
	.st0{fill:#3E50B4;}
</style>
<path class="st0" d="M42.4,19.9c-0.1,0-0.3,0-0.4,0L25.1,3c0-0.1,0-0.3,0-0.4c0-1.4-1.2-2.6-2.6-2.6s-2.6,1.2-2.6,2.6
	c0,0.1,0,0.3,0,0.4L3,19.9c-0.1,0-0.3,0-0.4,0c-1.4,0-2.6,1.2-2.6,2.6s1.2,2.6,2.6,2.6c0.1,0,0.3,0,0.4,0L19.9,42c0,0.1,0,0.3,0,0.4
	c0,1.4,1.2,2.6,2.6,2.6s2.6-1.2,2.6-2.6c0-0.1,0-0.3,0-0.4L42,25.1c0.1,0,0.3,0,0.4,0c1.4,0,2.6-1.2,2.6-2.6S43.8,19.9,42.4,19.9z
	 M22.5,39.8c-0.6,0-1.2,0.2-1.7,0.6L4.6,24.2c0.4-0.5,0.6-1,0.6-1.7S5,21.3,4.6,20.8L20.9,4.5c0.5,0.4,1,0.6,1.7,0.6
	s1.2-0.2,1.7-0.6l16.3,16.3c-0.4,0.5-0.6,1-0.6,1.7s0.2,1.2,0.6,1.7L24.2,40.4C23.7,40,23.1,39.8,22.5,39.8z"/>
</svg>
