<?xml version="1.0" encoding="utf-8"?>
<!-- Generator: Adobe Illustrator 22.1.0, SVG Export Plug-In . SVG Version: 6.00 Build 0)  -->
<svg version="1.1" id="Layer_1" xmlns="http://www.w3.org/2000/svg" xmlns:xlink="http://www.w3.org/1999/xlink" x="0px" y="0px"
	 viewBox="0 0 110 110.4" style="enable-background:new 0 0 110 110.4;" xml:space="preserve">
<style type="text/css">
	.st0{fill:#2195F2;}
	.st1{fill:#71C6FF;}
</style>
<path class="st0" d="M100,5c2.8,0,5,2.2,5,5v90.4c0,2.8-2.2,5-5,5H10c-2.8,0-5-2.2-5-5V10c0-2.8,2.2-5,5-5H100 M100,0H10
	C4.5,0,0,4.5,0,10v90.4c0,5.5,4.5,10,10,10h90c5.5,0,10-4.5,10-10V10C110,4.5,105.5,0,100,0L100,0z"/>
<path class="st1" d="M100,5c2.8,0,5,2.2,5,5v90.4c0,2.8-2.2,5-5,5H10c-2.8,0-5-2.2-5-5V10c0-2.8,2.2-5,5-5H100"/>
</svg>
