<?xml version="1.0" encoding="utf-8"?>
<!-- Generator: Adobe Illustrator 23.0.3, SVG Export Plug-In . SVG Version: 6.00 Build 0)  -->
<svg version="1.1" id="Layer_1" xmlns="http://www.w3.org/2000/svg" xmlns:xlink="http://www.w3.org/1999/xlink" x="0px" y="0px"
	 viewBox="0 0 49 49" style="enable-background:new 0 0 49 49;" xml:space="preserve">
<style type="text/css">
	.st0{fill:#3E50B4;}
</style>
<path class="st0" d="M24.5,0C11,0,0,11,0,24.5S11,49,24.5,49S49,38,49,24.5S38,0,24.5,0z M24.5,45.8c-11.7,0-21.3-9.5-21.3-21.3
	c0-11.7,9.5-21.3,21.3-21.3c11.7,0,21.3,9.5,21.3,21.3C45.8,36.2,36.2,45.8,24.5,45.8z M34.2,22.9h-8.1v-8.1c0-0.9-0.7-1.6-1.6-1.6
	s-1.6,0.7-1.6,1.6v8.1h-8.1c-0.9,0-1.6,0.7-1.6,1.6s0.7,1.6,1.6,1.6h8.1v8.1c0,0.9,0.7,1.6,1.6,1.6s1.6-0.7,1.6-1.6v-8.1h8.1
	c0.9,0,1.6-0.7,1.6-1.6S35.1,22.9,34.2,22.9z"/>
</svg>
