<?xml version="1.0" encoding="utf-8"?>
<!-- Generator: Adobe Illustrator 23.0.3, SVG Export Plug-In . SVG Version: 6.00 Build 0)  -->
<svg version="1.1" id="Layer_1" xmlns="http://www.w3.org/2000/svg" xmlns:xlink="http://www.w3.org/1999/xlink" x="0px" y="0px"
	 viewBox="0 0 31.6 36.1" style="enable-background:new 0 0 31.6 36.1;" xml:space="preserve">
<style type="text/css">
	.st0{fill:#0086C4;}
	.st1{fill:#0060B2;}
</style>
<path class="st0" d="M31.6,30.8c0-2.9-2.4-5.3-5.3-5.3S21,27.9,21,30.8s2.4,5.3,5.3,5.3S31.6,33.7,31.6,30.8z M5.3,23.4
	c2.9,0,5.3-2.4,5.3-5.3s-2.4-5.3-5.3-5.3S0,15.2,0,18.1S2.4,23.4,5.3,23.4z M31.6,5.4c0,2.9-2.4,5.3-5.3,5.3S21,8.3,21,5.4
	s2.4-5.3,5.3-5.3S31.6,2.5,31.6,5.4z"/>
<path class="st1" d="M5.3,36.1h15.9c-1.4-1.3-2.2-3.3-2.2-5.3s0.9-3.9,2.2-5.3H5.3c-2.9,0-5.3,2.4-5.3,5.3S2.4,36.1,5.3,36.1z
	 M26.4,12.8h-16c1.4,1.3,2.2,3.3,2.2,5.3s-0.9,3.9-2.2,5.3h15.9c2.9,0,5.3-2.4,5.3-5.3S29.3,12.8,26.4,12.8z M5.3,10.6h15.9
	C19.8,9.3,19,7.4,19,5.3s0.9-3.9,2.2-5.3H5.3C2.4,0,0,2.4,0,5.3S2.4,10.6,5.3,10.6z"/>
</svg>
