<?xml version="1.0" encoding="utf-8"?>
<!-- Generator: Adobe Illustrator 23.0.3, SVG Export Plug-In . SVG Version: 6.00 Build 0)  -->
<svg version="1.1" id="Layer_1" xmlns="http://www.w3.org/2000/svg" xmlns:xlink="http://www.w3.org/1999/xlink" x="0px" y="0px"
	 viewBox="0 0 38.5 36.4" style="enable-background:new 0 0 38.5 36.4;" xml:space="preserve">
<style type="text/css">
	.st0{fill:#3E50B4;}
</style>
<path class="st0" d="M27.1,21.6L27.1,21.6c-3.2-1-4.3-4.7-2.4-7.4v-0.1c1.1-1.5,2.9-2.2,4.7-1.9l9.1,1.6L32,20.4
	C30.7,21.7,28.8,22.2,27.1,21.6z M23.1,13.1L23.1,13.1c-2,2.7-5.8,2.7-7.8,0.1l-0.1-0.1c-1.1-1.5-1.2-3.4-0.4-5L19.1,0l4.3,8.1
	C24.4,9.6,24.2,11.6,23.1,13.1z M0,13.8l9.1-1.6c1.8-0.3,3.6,0.4,4.7,1.9v0.1c1.9,2.6,0.7,6.3-2.3,7.4h-0.1
	c-1.7,0.6-3.7,0.1-4.9-1.2L0,13.8z M11.9,23.4L11.9,23.4c3.2-1,6.4,1.3,6.4,4.5V28c0,1.8-1,3.5-2.7,4.3l-8.2,4.1l1.3-9.2
	C9,25.5,10.2,24,11.9,23.4z M20.2,28L20.2,28c0-3.4,3.2-5.7,6.3-4.6h0.1c1.7,0.6,3,2.1,3.2,3.8l1.3,9.2l-8.3-4.1
	C21.2,31.5,20.2,29.9,20.2,28z"/>
</svg>
