<?xml version="1.0" encoding="utf-8"?>
<!-- Generator: Adobe Illustrator 23.0.3, SVG Export Plug-In . SVG Version: 6.00 Build 0)  -->
<svg version="1.1" id="Layer_1" xmlns="http://www.w3.org/2000/svg" xmlns:xlink="http://www.w3.org/1999/xlink" x="0px" y="0px"
	 viewBox="0 0 54.1 51.7" style="enable-background:new 0 0 54.1 51.7;" xml:space="preserve">
<style type="text/css">
	.st0{fill:#FFDC64;}
	.st1{fill:#FFF082;}
	.st2{fill:#FFC850;}
</style>
<path class="st0" d="M47.7,15.5l-14.1-1.3L28,1.2c-0.4-0.9-1.7-0.9-2.1,0l-5.6,13L6.2,15.5c-1,0.1-1.4,1.3-0.6,2l10.6,9.3l-3.1,13.8
	c-0.2,1,0.8,1.7,1.7,1.2L27,34.6l12.2,7.2c0.9,0.5,1.9-0.3,1.7-1.2l-3.1-13.8l10.6-9.3C49.1,16.8,48.7,15.6,47.7,15.5z"/>
<path class="st1" d="M12.6,0.7c0.7,1,2.7,5.3,3.9,7.8c0.2,0.4-0.3,0.7-0.6,0.5c-2-1.9-5.4-5.2-6.1-6.2C9.2,2,9.4,0.9,10.2,0.3
	C10.9-0.2,12-0.1,12.6,0.7z M41.4,0.7c-0.7,1-2.7,5.3-3.9,7.8c-0.2,0.4,0.3,0.7,0.6,0.5c2-1.9,5.4-5.2,6.1-6.2
	c0.6-0.8,0.4-1.9-0.4-2.5C43.1-0.2,42-0.1,41.4,0.7z M52.8,30c-1.2-0.4-5.9-1-8.6-1.4c-0.4-0.1-0.6,0.5-0.2,0.7
	c2.4,1.3,6.6,3.6,7.8,4c0.9,0.3,1.9-0.2,2.2-1.1S53.7,30.3,52.8,30z M1.2,30c1.2-0.4,5.9-1,8.6-1.4c0.4-0.1,0.6,0.5,0.2,0.7
	c-2.4,1.3-6.6,3.6-7.8,4c-0.9,0.3-1.9-0.2-2.2-1.1C-0.2,31.3,0.3,30.3,1.2,30z M25.3,49.9c0-1.2,0.9-5.9,1.4-8.6
	c0.1-0.4,0.7-0.4,0.8,0c0.5,2.7,1.4,7.4,1.4,8.6c0,1-0.8,1.8-1.8,1.8C26.1,51.7,25.3,50.9,25.3,49.9z"/>
<path class="st2" d="M30.1,5.9l-2-4.7c-0.4-0.9-1.7-0.9-2.1,0l-5.6,13L6.3,15.5c-1,0.1-1.4,1.3-0.6,2l10.6,9.3l-3.1,13.8
	c-0.2,1,0.8,1.7,1.7,1.2l1.6-1C19.1,23.7,26.6,11.1,30.1,5.9z"/>
</svg>
