<?xml version="1.0" encoding="utf-8"?>
<!-- Generator: Adobe Illustrator 23.0.3, SVG Export Plug-In . SVG Version: 6.00 Build 0)  -->
<svg version="1.1" id="Layer_1" xmlns="http://www.w3.org/2000/svg" xmlns:xlink="http://www.w3.org/1999/xlink" x="0px" y="0px"
	 viewBox="0 0 35 35" style="enable-background:new 0 0 35 35;" xml:space="preserve">
<style type="text/css">
	.st0{fill:#3E50B4;}
</style>
<path class="st0" d="M29.9,5.1C23.1-1.7,12-1.7,5.1,5.1c-6.8,6.8-6.8,17.9,0,24.8C8.5,33.3,13,35,17.5,35s9-1.7,12.4-5.1
	C36.7,23.1,36.7,11.9,29.9,5.1z M6.1,6.1c3.2-3.2,7.3-4.7,11.4-4.7c3.9,0,7.8,1.4,10.9,4.3L5.6,28.4C-0.2,22.1-0.1,12.2,6.1,6.1z
	 M28.9,28.9c-6.1,6.1-16,6.3-22.4,0.5L29.3,6.6C35.2,12.9,35.1,22.8,28.9,28.9z"/>
</svg>
