<?xml version="1.0" encoding="utf-8"?>
<!-- Generator: Adobe Illustrator 23.0.3, SVG Export Plug-In . SVG Version: 6.00 Build 0)  -->
<svg version="1.1" id="Layer_1" xmlns="http://www.w3.org/2000/svg" xmlns:xlink="http://www.w3.org/1999/xlink" x="0px" y="0px"
	 viewBox="0 0 46.4 44.5" style="enable-background:new 0 0 46.4 44.5;" xml:space="preserve">
<style type="text/css">
	.st0{fill:#3E50B4;}
</style>
<path class="st0" d="M43,14c0,0-6.4-1.1-8.5-1.5c-0.4-0.1-0.9,0.1-1.2,0.4l-1.1,1.3c-1.2,1.4-2,3.1-2.8,4.8
	c-0.1,0.3-0.4,0.6-0.6,0.9c-0.7,0.6-1.8,0.7-2.6,0.3c-1.4-0.7-1.6-2.5-0.7-3.6c0.1-0.1,0.2-0.3,0.4-0.4c1.8-1.3,3.5-2.8,5.1-4.4
	c0.4-0.4,0.4-1,0.2-1.5l0,0l-4.2-8c-1.6-3-5.8-3-7.3,0c0,0-2.8,5.3-4.1,7.7c-0.4,0.7-0.2,1.5,0.3,2c1.5,1.5,3.2,2.9,4.9,4.2
	c0.1,0.1,0.3,0.2,0.4,0.4c1,1.1,0.7,2.9-0.7,3.6c-0.8,0.5-1.9,0.3-2.6-0.3c-0.3-0.3-0.5-0.6-0.6-0.9c-0.7-1.7-1.6-3.4-2.8-4.8
	l-0.9-1.1c-0.4-0.5-1-0.7-1.6-0.6C9.5,13,3.5,14,3.5,14c-3.3,0.6-4.6,4.6-2.3,7c0,0,4.3,4.5,6,6.1c0.4,0.4,0.9,0.5,1.4,0.4h0.1
	c2.6-0.8,5-2.1,7.3-3.5c0.1-0.1,0.3-0.2,0.5-0.2c1.4-0.5,2.9,0.5,3.1,2c0.1,0.9-0.4,1.9-1.3,2.3c-0.3,0.2-0.7,0.3-1,0.3
	c-2,0-4,0.2-5.9,0.8l-1.7,0.5c-0.5,0.2-0.9,0.6-1,1.2l0,0l-1.3,8.9c-0.5,3.3,2.9,5.8,5.9,4.3l8.1-4l0,0c0.4-0.2,0.6-0.5,0.6-0.9v-2
	c0-1.7-0.5-4.3-1-5.9c-0.1-0.3-0.1-0.7-0.1-1.1c0.1-0.9,0.9-1.7,1.8-1.9c1.5-0.3,2.9,0.8,2.9,2.3c0,0.2,0,0.3-0.1,0.5
	c-0.6,2.6-1.1,5.3-1.1,8l0,0c0,0.4,0.2,0.8,0.6,0.9l0,0l8.1,4c3,1.5,6.4-1,5.9-4.3l-1.3-8.9l0,0c-0.1-0.6-0.5-1-1-1.2L35,29
	c-1.9-0.6-3.9-0.8-5.9-0.8c-0.3,0-0.7-0.1-1-0.3c-0.9-0.4-1.4-1.4-1.3-2.3c0.2-1.5,1.7-2.5,3.1-2c0.2,0.1,0.3,0.1,0.5,0.2
	c2.3,1.4,4.7,2.6,7.3,3.5h0.1c0.5,0.2,1.1,0,1.4-0.4c0.1-0.1,0.2-0.2,0.2-0.2l5.8-5.9C47.6,18.5,46.3,14.5,43,14z"/>
</svg>
