<?xml version="1.0" encoding="utf-8"?>
<!-- Generator: Adobe Illustrator 23.0.3, SVG Export Plug-In . SVG Version: 6.00 Build 0)  -->
<svg version="1.1" id="Layer_1" xmlns="http://www.w3.org/2000/svg" xmlns:xlink="http://www.w3.org/1999/xlink" x="0px" y="0px"
	 viewBox="0 0 37.4 35.7" style="enable-background:new 0 0 37.4 35.7;" xml:space="preserve">
<style type="text/css">
	.st0{fill:#3E50B4;}
</style>
<path class="st0" d="M37.4,13.6l-12.7-2.2L18.7,0l-6,11.4L0,13.6l9,9.3L7.5,33l0,0l0,0L7,35.7L18.6,30l11.6,5.7l-1.9-12.8L37.4,13.6
	z M5.6,15.5l13.6-2.3l-0.5-2.8l-2.6,0.5l2.5-4.8l6.3,12.3l2.5-1.3l-1.3-2.5l5.5,0.9l-9.4,9.6l2,2l1.7-1.7l0.8,5.4l-12.3-6.2
	l-1.3,2.5l2.5,1.3l-5,2.5l2.1-14.2l-2.8-0.4l-0.5,3.1L5.6,15.5z"/>
</svg>
