<?xml version="1.0" encoding="utf-8"?>
<!-- Generator: Adobe Illustrator 23.0.3, SVG Export Plug-In . SVG Version: 6.00 Build 0)  -->
<svg version="1.1" id="Layer_1" xmlns="http://www.w3.org/2000/svg" xmlns:xlink="http://www.w3.org/1999/xlink" x="0px" y="0px"
	 viewBox="0 0 47.1 44.7" style="enable-background:new 0 0 47.1 44.7;" xml:space="preserve">
<style type="text/css">
	.st0{fill:#3E50B4;}
</style>
<path class="st0" d="M37.4,44.7c-0.2,0-0.3,0-0.4-0.1L23.5,38L10,44.6c-0.3,0.2-0.7,0.1-1-0.1s-0.5-0.6-0.4-1l2.2-14.9L0.3,18
	C0,17.7,0,17.3,0.1,17c0.1-0.4,0.4-0.6,0.8-0.7l14.8-2.5l7-13.3C22.9,0.2,23.2,0,23.6,0s0.7,0.2,0.9,0.5l7,13.3l14.8,2.5
	c0.4,0.1,0.7,0.3,0.8,0.7c0.1,0.4,0,0.7-0.2,1L36.2,28.7l2.2,14.9c0.1,0.4-0.1,0.7-0.4,1C37.8,44.7,37.6,44.7,37.4,44.7z M23.5,35.9
	c0.2,0,0.3,0,0.4,0.1l12.2,6l-2-13.5c0-0.3,0.1-0.6,0.3-0.8l9.5-9.7l-13.4-2.3c-0.3-0.1-0.6-0.2-0.7-0.5L23.5,3.1l-6.3,12
	c-0.1,0.3-0.4,0.5-0.7,0.5L3,17.9l9.5,9.7c0.2,0.2,0.3,0.5,0.3,0.8l-2,13.5l12.2-6C23.2,35.9,23.3,35.9,23.5,35.9z M33.5,38.9
	c-0.4,0-1.5-0.5-6.3-2.7c-1.5-0.7-3.1-1.4-3.7-1.7c-0.5,0.2-2.2,1-3.7,1.7c-6.2,2.8-6.2,2.8-6.6,2.6c-0.5-0.3-0.5-0.3,0.3-6.8
	c0.2-1.7,0.4-3.7,0.4-4.3c-0.3-0.4-1.2-1.3-2.1-2.2c-5.4-5.7-5.4-5.8-5.4-6.1c0-0.6,0-0.7,7-2.3c1.6-0.4,3.3-0.8,3.8-0.9
	c0.2-0.4,0.9-1.5,1.5-2.6c4.1-7.1,4.2-7.1,4.7-7.1s0.6,0,4.7,7.1c0.6,1.1,1.3,2.2,1.5,2.6c0.5,0.2,2.3,0.6,3.8,0.9
	c7,1.6,7,1.6,7,2.3c0,0.4,0,0.4-5.4,6.1c-0.9,0.9-1.7,1.9-2.1,2.2c0,0.6,0.2,2.5,0.4,4.3c0.7,6.5,0.7,6.5,0.3,6.8
	C33.7,38.8,33.6,38.9,33.5,38.9z M8.1,19.7c1,1.1,3.2,3.5,4.7,5c2.2,2.3,2.2,2.4,2.3,2.5c0.1,0.2,0.2,0.3-0.4,4.9
	c-0.2,1.8-0.4,4.1-0.5,5.3c1.2-0.5,3.5-1.6,5.2-2.3c3.9-1.8,3.9-1.8,4.2-1.8c0.2,0,0.2,0,4.2,1.8c1.7,0.8,4,1.8,5.2,2.3
	c-0.1-1.2-0.3-3.5-0.5-5.3c-0.5-4.6-0.5-4.7-0.4-4.9c0.1-0.1,0.1-0.2,2.3-2.5c1.5-1.6,3.7-4,4.7-5c-1.2-0.3-3.8-0.9-5.7-1.4
	c-4.1-0.9-4.2-1-4.4-1.2c-0.1-0.1-0.3-0.3-1.7-2.9c-1-1.8-2.8-4.9-3.6-6.2c-0.8,1.2-2.6,4.3-3.6,6.2c-1.5,2.5-1.6,2.7-1.7,2.9
	c-0.2,0.2-0.2,0.2-4.4,1.2C11.9,18.7,9.3,19.3,8.1,19.7z M29.4,33.2c-0.4,0-1.4-0.3-3.8-1.2c-0.9-0.3-2-0.7-2.2-0.7
	s-1.3,0.4-2.1,0.7c-3.1,1.1-3.7,1.3-4.1,1.1s-0.4-0.8-0.4-3.9c0-0.9,0-2.1,0-2.4c-0.1-0.2-0.6-0.7-1.1-1.3c-2.3-2.8-2.9-3.5-2.9-3.9
	c0-0.6,0.9-1.1,4-2.2c0.8-0.3,1.9-0.7,2.1-0.9c0.1-0.1,0.6-0.8,1-1.4c2.3-3.2,3.1-4.1,3.6-4.1c0.6,0,1.4,0.9,3.6,4.1
	c0.4,0.6,0.9,1.2,1,1.4c0.2,0.1,1.2,0.5,2.1,0.9c3,1.1,4,1.6,4,2.2c0,0.4-0.6,1.2-2.9,3.9c-0.5,0.6-1,1.2-1.1,1.3
	c-0.1,0.3,0,1.4,0,2.4c0,3.1,0,3.7-0.4,3.9C29.6,33.2,29.5,33.2,29.4,33.2z M17.8,32.6L17.8,32.6L17.8,32.6z M29.2,32.6L29.2,32.6
	L29.2,32.6z M23.5,30.5c0.3,0,0.8,0.2,2.4,0.8c1,0.4,2.7,1,3.3,1.1c0.1-0.6,0.1-2.2,0.1-3.2c0-2,0-2.5,0.1-2.8
	c0.1-0.2,0.4-0.5,1.2-1.5c0.9-1,2.4-2.8,2.7-3.4c-0.4-0.4-2.3-1.1-3.4-1.5c-1.5-0.6-2.1-0.8-2.3-1s-0.5-0.6-1.1-1.5
	c-0.7-1-2.4-3.5-3-3.8c-0.5,0.3-2.2,2.7-3,3.8c-0.6,0.9-0.9,1.3-1.1,1.5s-0.9,0.5-2.3,1c-1.1,0.4-3,1.1-3.4,1.5
	c0.3,0.5,1.8,2.4,2.7,3.4c0.8,0.9,1.1,1.3,1.2,1.5s0.2,0.8,0.1,2.8c0,1,0,2.6,0.1,3.2c0.6-0.1,2.3-0.7,3.3-1.1
	C22.7,30.7,23.2,30.5,23.5,30.5z M16.9,26.9L16.9,26.9L16.9,26.9z M16.9,26.9L16.9,26.9L16.9,26.9z M30.1,26.9L30.1,26.9L30.1,26.9z
	 M23.5,28.9c-2.5,0-4.5-2-4.5-4.5s2-4.5,4.5-4.5s4.5,2,4.5,4.5S26,28.9,23.5,28.9z M23.5,20.7c-2.1,0-3.7,1.7-3.7,3.7
	c0,2.1,1.7,3.7,3.7,3.7c2.1,0,3.7-1.7,3.7-3.7S25.6,20.7,23.5,20.7z"/>
</svg>
