<?xml version="1.0" encoding="utf-8"?>
<!-- Generator: Adobe Illustrator 22.1.0, SVG Export Plug-In . SVG Version: 6.00 Build 0)  -->
<svg version="1.1" id="Layer_1" xmlns="http://www.w3.org/2000/svg" xmlns:xlink="http://www.w3.org/1999/xlink" x="0px" y="0px"
	 viewBox="0 0 100 95.5" style="enable-background:new 0 0 100 95.5;" xml:space="preserve">
<style type="text/css">
	.st0{fill:#2195F2;}
</style>
<g>
	<path class="st0" d="M99.9,36.1c-0.3-1-1.2-1.7-2.2-1.9l-31.2-4.4l-14-28.2C51.9,0.6,51,0,49.9,0l0,0c-1,0-2,0.6-2.5,1.6L33.6,29.9
		L2.4,34.5c-1,0.2-1.9,0.9-2.2,1.9c-0.3,1,0,2.1,0.7,2.8l22.6,21.9l-5.2,31.1c-0.2,1,0.2,2.1,1.1,2.7c0.5,0.3,1,0.5,1.6,0.5
		c0.5,0,0.9-0.1,1.3-0.3l27.9-14.8L78.1,95c0.4,0.2,0.8,0.3,1.3,0.3l0,0c1.5,0,2.8-1.3,2.8-2.8c0-0.2,0-0.4-0.1-0.6L76.6,61
		l22.5-22.1C99.9,38.2,100.2,37.1,99.9,36.1z"/>
</g>
</svg>
