<?xml version="1.0" encoding="utf-8"?>
<!-- Generator: Adobe Illustrator 23.0.3, SVG Export Plug-In . SVG Version: 6.00 Build 0)  -->
<svg version="1.1" id="Layer_1" xmlns="http://www.w3.org/2000/svg" xmlns:xlink="http://www.w3.org/1999/xlink" x="0px" y="0px"
	 viewBox="0 0 37.8 38" style="enable-background:new 0 0 37.8 38;" xml:space="preserve">
<style type="text/css">
	.st0{fill:#3E50B4;}
</style>
<path class="st0" d="M28.3,18.9c0-3.8-2.1-6.9-5.2-8.4v4.6l5.2,5.2C28.3,19.7,28.3,19.3,28.3,18.9z M33.5,18.9c0,1.9-0.4,3.8-1,5.4
	l3.1,3.1c1.5-2.5,2.1-5.7,2.1-8.8c0-9-6.3-16.6-14.7-18.4v4.4C29.1,6.7,33.5,12.2,33.5,18.9z M2.7,0L0,2.7l9.9,9.9H0v12.6h8.4
	l10.5,10.5v-14l9,9c-1.5,1-2.9,1.9-4.8,2.5v4.4c2.9-0.6,5.4-1.9,7.8-3.8l4.2,4.2l2.7-2.7l-19-19L2.7,0z M18.8,2.1l-4.4,4.4l4.4,4.4
	V2.1z"/>
</svg>
