<?xml version="1.0" encoding="utf-8"?>
<!-- Generator: Adobe Illustrator 23.0.3, SVG Export Plug-In . SVG Version: 6.00 Build 0)  -->
<svg version="1.1" id="Layer_1" xmlns="http://www.w3.org/2000/svg" xmlns:xlink="http://www.w3.org/1999/xlink" x="0px" y="0px"
	 viewBox="0 0 42 48.1" style="enable-background:new 0 0 42 48.1;" xml:space="preserve">
<style type="text/css">
	.st0{fill:#3E50B4;}
</style>
<path class="st0" d="M21,45.2c-3.9,0-7.6-1-10.8-2.6L8.5,46c-0.2,0.4-0.2,1,0.1,1.4s0.7,0.7,1.2,0.7h22.5c0.5,0,0.9-0.3,1.2-0.7
	s0.3-0.9,0.1-1.4l-1.7-3.4C28.6,44.2,24.9,45.2,21,45.2z M21,19.8c-0.8,0-1.4,0.6-1.4,1.4s0.6,1.4,1.4,1.4s1.4-0.6,1.4-1.4
	S21.8,19.8,21,19.8z M21,11.3c4.9,0,9,3.7,9.7,8.4H42C41.3,8.8,32.2,0,21,0S0.7,8.8,0,19.8h11.3C12,15,16.1,11.3,21,11.3z
	 M32.3,11.3c0.8,0,1.4,0.6,1.4,1.4s-0.6,1.4-1.4,1.4s-1.4-0.6-1.4-1.4S31.5,11.3,32.3,11.3z M21,42.4c11.2,0,20.3-8.8,21-19.8H30.7
	C30,27.4,26,31,21,31c-4.9,0-9-3.7-9.7-8.4H0C0.7,33.6,9.9,42.4,21,42.4z M21,14.2c-3.9,0-7,3.2-7,7s3.2,7,7,7c3.9,0,7-3.2,7-7
	S24.9,14.2,21,14.2z M21,25.4c-2.3,0-4.2-1.9-4.2-4.2S18.7,17,21,17s4.2,1.9,4.2,4.2S23.3,25.4,21,25.4z"/>
</svg>
