<?xml version="1.0" encoding="utf-8"?>
<!-- Generator: Adobe Illustrator 23.0.3, SVG Export Plug-In . SVG Version: 6.00 Build 0)  -->
<svg version="1.1" id="Layer_1" xmlns="http://www.w3.org/2000/svg" xmlns:xlink="http://www.w3.org/1999/xlink" x="0px" y="0px"
	 viewBox="0 0 51 44.8" style="enable-background:new 0 0 51 44.8;" xml:space="preserve">
<style type="text/css">
	.st0{fill:#3E50B4;}
</style>
<path class="st0" d="M25.5,35.8c-2.5,0-4.5,2-4.5,4.5s2,4.5,4.5,4.5s4.5-2,4.5-4.5S28,35.8,25.5,35.8z M50.7,10.8l-1.5,1.9
	c-0.5,0.7-1.4,0.8-2.1,0.3c-5.8-4.4-13-7-20.9-7h-0.7c-8,0.2-15.2,3-21,7.7c-0.7,0.5-1.6,0.4-2.1-0.2l-2.1-2.6
	c-0.5-0.7-0.4-1.6,0.2-2.1C7.7,3,16.3,0,25.5,0s17.8,3,24.9,8.7C51.1,9.2,51.2,10.1,50.7,10.8z M43.4,20.1L41.9,22
	c-0.5,0.6-1.4,0.7-2,0.3c-3.8-2.8-8.5-4.4-13.6-4.4c-0.2,0-0.5,0-0.7,0c-5.1,0.1-9.9,2-13.7,5.1c-0.7,0.5-1.6,0.4-2.1-0.2l-2.1-2.6
	c-0.5-0.6-0.4-1.6,0.2-2.1c5.1-4,11.1-6.2,17.7-6.2c6.5,0,12.6,2.1,17.6,6.1C43.8,18.6,43.9,19.5,43.4,20.1z M36,29.5l-1.5,1.9
	c-0.5,0.6-1.3,0.7-2,0.3c-1.8-1.2-3.9-1.9-6.2-1.9c-0.3,0-0.5,0-0.7,0c-2.4,0.1-4.6,1.1-6.3,2.5c-0.6,0.5-1.6,0.4-2.1-0.3L15,29.5
	c-0.5-0.6-0.4-1.6,0.2-2.1c2.9-2.3,6.6-3.5,10.3-3.5s7.4,1.2,10.3,3.5C36.4,28,36.4,28.9,36,29.5z"/>
</svg>
