<?xml version="1.0" encoding="utf-8"?>
<!-- Generator: Adobe Illustrator 23.0.3, SVG Export Plug-In . SVG Version: 6.00 Build 0)  -->
<svg version="1.1" id="Layer_1" xmlns="http://www.w3.org/2000/svg" xmlns:xlink="http://www.w3.org/1999/xlink" x="0px" y="0px"
	 viewBox="0 0 300 15.6" style="enable-background:new 0 0 300 15.6;" xml:space="preserve">
<style type="text/css">
	.st0{fill:#3E50B4;}
</style>
<path class="st0" d="M34.2,14.9c0-0.3,0-0.7-0.3-1.4C34.2,14.2,34.2,14.6,34.2,14.9z M278,15.3l-5.6-4.5c-0.3,0.7-0.7,1.4-1.7,1.4
	c-0.7,0-1-0.3-1.4-0.7c-0.7,0-1.7,0.3-2.1,1c-0.7,0.7-1.4,1.7-1.4,2.8c0-1,0-2.4,1-3.5c0.3-0.7,1-1,2.1-1.7c-2.8,0.3-5.2,1.7-7,3.8
	c0.7-1.4,2.1-2.8,3.5-3.8c0.7-0.7,1.7-1,2.8-1.4h-2.1l-4.5,3.1l-4.2-3.1h-2.4c-0.3,0.7-0.7,1-1.4,1c-0.7,0-1.4-0.3-1.4-1h-1.4
	c-1,1-2.1,1.7-3.1,1.7s-2.1-0.7-2.4-1.7h-1.4c-0.3,0.7-0.7,1-1.4,1c-0.7,0-1.4-0.3-1.4-1h-67.4c1,0,1.7,0.3,2.4,1
	c1,0.7,2.1,1.4,2.1,2.8c-0.3-1-1-2.1-2.1-2.4c-1.4-0.7-2.8-1-4.2-1c-1.4,0-2.8,0-4.2,0.3c-1.4,0.3-2.8,1-4.2,1.4s-3.1,0.7-4.5,0.3
	c-1-0.3-2.1-1-2.8-2.4h-0.3l-5.6,5.9l-5.9-5.9l0,0V9l0,0c-0.7,1-1.7,2.1-3.1,2.4s-3.1,0.3-4.5-0.3c-1.4-0.3-2.8-1-4.2-1.4
	c-1.4-0.3-2.8-0.7-4.2-0.3c-1.4,0-2.8,0.3-4.2,1c-1,0-1.7,1-2.1,2.1c0.3-1,1-2.1,2.1-2.8c1-0.3,1.7-0.7,2.8-1H58.7
	c-0.3,0.7-0.7,1-1.4,1c-0.7,0-1.4-0.3-1.4-1h-1.4c-0.3,1-1.4,1.7-2.4,1.7s-2.1-0.7-2.4-1.7h-1.4c-0.3,0.7-0.7,1-1.4,1
	s-1.4-0.3-1.4-1H43l-4.5,3.1l-4.5-3.1h-1.4c0.7,0.3,1.4,0.7,2.1,1.4c1.4,1,2.8,2.4,3.5,4.2c-1-1.4-2.4-2.4-3.8-2.8
	c-0.7-0.3-1.4-0.3-2.4-0.7h-0.3c0.7,0.3,1,0.7,1.7,1c0.3,0.7,0.7,1.4,0.7,1.7c0-0.3-0.3-1-1-1.7c-0.3-0.3-1-0.7-1.7-1
	c-0.3,0-0.3,0-0.7,0c0,0.7-0.7,1.4-1.7,1.4c-0.7,0-1-0.7-1.4-1.4l-5.6,4.5L1,8.3L0,8l1.4-0.3L22,0.3l5.6,4.5c0.3-0.7,0.7-1,1.7-1
	c0.7,0,1.4,0.3,1.4,1c0.7,0,1.4-0.7,1.7-1c0.7-0.7,1.4-1.7,1.4-3.1c0,1-0.3,2.4-1,3.1s-1.4,1-2.1,1.4v0.3c0.3,0,0.3,0,0.7,0
	c0.7,0,1.7-0.3,2.4-0.7c1.4-0.7,2.8-1.4,3.8-2.8C37,3.8,36,5.2,34.2,6.2c-0.3,0.3-1,0.7-1.4,0.7h1l4.5-2.8L43,6.9h2.4
	c0.3-0.7,0.7-0.7,1.4-0.7c0.7,0,1.4,0.3,1.4,0.7h1.4c0.3-1,1-1.4,2.4-1.4c1,0,2.1,0.7,2.4,1.4h1.4c0.3-0.7,0.7-0.7,1.4-0.7
	c0.7,0,1.4,0.3,1.4,0.7h79.6c0.3-0.7,1-1,1.7-1s1.4,0.7,1.7,1h1.4c-0.3-1-1.4-1.7-2.4-1.7c-1.4-0.3-2.8-0.3-4.2,0
	c-1.4,0.3-2.8,1-4.2,1.4c-1,0.3-2.8,0.3-4.2,0.3s-3.1-0.3-4.2-1c-1-0.7-2.1-1.4-2.1-2.8c0.3,1,1,2.1,2.1,2.4c1.4,0.7,2.8,1,4.2,1
	c1.4,0,2.8,0,4.2-0.3c1.4-0.3,2.8-1,4.2-1.4c1.4-0.3,3.1-0.7,4.5-0.3c1.4,0.3,2.8,1.7,3.5,2.8l5.6-5.6l5.2,5.2
	c0.7-1.4,1.7-2.4,3.1-2.8c1.4-0.3,3.1-0.3,4.5,0.3c1.4,0.3,2.8,1,4.2,1.4c1.4,0.3,2.8,0.7,4.2,0.3c1.4,0,2.8-0.3,4.2-1
	c1-0.3,1.7-1.4,2.1-2.4c-0.3,1-1,2.4-2.1,2.8c-1.4,1-2.8,1.4-4.2,1.4s-3.1,0-4.5-0.3s-2.8-1-4.2-1.4c-1.4-0.3-2.8-0.7-4.2,0
	c-1,0.3-2.1,1-2.4,1.7h1.4c0.3-0.7,1-1,1.7-1c0.7,0,1.4,0.7,1.7,1h80c0.3-0.7,0.7-0.7,1.4-0.7c0.7,0,1.4,0.3,1.4,0.7h1.4
	c0.3-1,1-1.4,2.4-1.4c1,0,2.1,0.7,2.4,1.4h1.4c0.3-0.7,0.7-0.7,1.4-0.7c0.7,0,1.4,0.3,1.4,0.7h2.4l4.2-2.8l4.9,2.8h3.1
	c-1-0.3-2.1-0.7-3.1-1c-1.4-1-2.8-2.4-3.5-3.8c1,1.7,3.5,2.8,5.6,3.5c-0.7-0.3-1-0.7-1.4-1.4c-0.7-1-1-2.4-1-3.5
	c0,1,0.7,2.1,1.4,2.8s1.4,1,2.4,1c0.3-0.3,0.7-0.7,1.4-0.7c1,0,1.4,0.7,1.7,1.4l5.6-4.5L298.6,8l1.4,0.3l-1.4,0.3L278,15.3z
	 M292.3,9.3l-14.7,2.8l0,0l-5.6-2.8l0,0l5.9,4.9L292.3,9.3z M278,11.4l15-2.8h-21.3L278,11.4z M293,7.6l-15-2.8l-6.3,2.8H293z
	 M272.1,6.6L272.1,6.6l5.6-2.8l0,0L292,6.6l-14.3-4.9L272.1,6.6z M269.6,7.3L269.6,7.3L269.6,7.3L269.6,7.3z M21.7,4.5l-15,3.1h21.3
	L21.7,4.5z M6.6,8.3l15,2.8l6.3-2.8H6.6z M7.3,6.6L22,3.8l0,0l5.6,2.8l0,0l-5.9-5.2L7.3,6.6z M27.6,9.3L27.6,9.3l-5.9,2.8l0,0
	L7.3,9.3l14.3,4.9L27.6,9.3z M143.2,8.6h-1c-0.3,0.7-1,1.4-1.7,1.4c-0.7,0-1.4-0.7-1.7-1.4h-7c0.3,0,1,0,1.4,0.3
	c1.4,0.3,2.8,1,4.2,1.4c1.4,0.3,2.8,0.7,4.2,0C142.1,10,142.8,9.7,143.2,8.6z M155.1,8.3l-4.9-5.2L145.3,8l4.9,5.2L155.1,8.3z
	 M168.7,8.6h-7.3c-0.3,0.7-1,1.4-1.7,1.4s-1.4-0.7-1.7-1.4h-0.7c0,1,0.7,1.4,1.7,1.7c1.4,0.3,2.8,0.3,4.2,0c1.4-0.3,2.8-1,4.2-1.4
	C167.6,9,168,9,168.7,8.6z M174.3,0.3c0.3,0,0.7,0,1,0C175,0.3,174.6,0.3,174.3,0.3z M175.3,0.3c1,0,2.1,0.7,2.4,1.7
	C177.8,1,176.7,0.3,175.3,0.3z M177.8,2c0,0.3,0,0.7,0,1C177.8,2.7,177.8,2.4,177.8,2z M121.9,3.1c0-0.3,0-0.7,0-1
	C121.9,2.4,121.9,2.7,121.9,3.1z M125.4,0.3c-1.4-0.7-3.1,0-3.5,1.7C122.2,0.6,124-0.1,125.4,0.3z M124.3,15.3c-1,0-2.1-0.7-2.4-1.7
	C121.9,14.6,122.9,15.3,124.3,15.3z M125.4,15.3c-0.3,0-0.7,0-1,0C124.7,15.3,125,15.3,125.4,15.3z M121.9,13.5c0-0.3,0-0.7,0-1
	C121.9,12.8,121.9,13.2,121.9,13.5z M178.1,12.5c0,0.3,0,0.7,0,1C178.1,13.2,178.1,12.8,178.1,12.5z M174.6,15.3
	c1.4,0.7,3.1,0,3.5-1.7C177.8,14.9,176,15.6,174.6,15.3z M148.1,9.7h3.5V6.2h-3.5V9.7z"/>
</svg>
