<?xml version="1.0" encoding="utf-8"?>
<!-- Generator: Adobe Illustrator 22.1.0, SVG Export Plug-In . SVG Version: 6.00 Build 0)  -->
<svg version="1.1" id="Layer_1" xmlns="http://www.w3.org/2000/svg" xmlns:xlink="http://www.w3.org/1999/xlink" x="0px" y="0px"
	 viewBox="0 0 321 20" style="enable-background:new 0 0 321 20;" xml:space="preserve">
<style type="text/css">
	.st0{fill:#4BAE4F;}
</style>
<path class="st0" d="M163.6,13.3c0,1.7-1.4,3.2-3.2,3.2s-3.2-1.4-3.2-3.2s1.4-3.2,3.2-3.2S163.6,11.6,163.6,13.3z M150.7,11.1
	c-1.1,0.2-2,0.5-2.7,0.8c-0.6,0.3-1.3,0.4-1.9,0.6c-1,0.2-2.2,0.3-3.6,0.4c-0.4,0-0.8,0-1.3,0.1c-0.5-1.5-2.2-2.6-4.8-2.5
	c-1.5,0.3-2.6,0.7-3.5,1c-0.8,0.3-1.7,0.6-2.5,0.7c-0.8,0.2-1.6,0.3-2.5,0.4c1.8-0.7,3.5-1.6,4.8-3.1c0.3-0.3,0.7-0.8,1-1.4
	c0.4-0.7,0.7-1.5,0.8-2.6c0.1-0.9-0.1-1.9-0.4-2.6c-0.4-0.9-1.2-2-2.1-2.4c-1.2-0.5-2.6,0-2.6,1.5c0,0.9,0.8,1.7,1.7,1.7
	c0.8,0,1.4-0.8,1.4-0.8c0.1-0.2,0.4-0.2,0.5,0c0,0,0.4,0.8,0.6,1.4c0.3,1.6-0.2,2.9-0.9,3.9c-2.7,4.3-8.5,4.6-13.1,4.7
	c1.1-0.3,2.2-0.9,3-1.8c0.2-0.2,0.3-0.4,0.5-0.7s0.4-0.8,0.4-1.3s0-1-0.2-1.4c-0.2-0.5-0.6-1-1.1-1.3c-0.6-0.3-1.3,0-1.3,0.8
	c0,0.5,0.4,0.9,0.9,0.9c0.4,0,0.7-0.4,0.7-0.4c0.1-0.1,0.2-0.1,0.2,0c0,0,0.2,0.4,0.3,0.7c0.2,0.8-0.1,1.5-0.4,2
	c-1.5,2.4-4.8,2.4-7.2,2.5c-0.7,0-1.5,0-2.2,0c-1-0.1-2-0.1-3.1,0l0,0c-2.2,0-4.3,0-6.5,0c-4.5,0-91.2,0-95.7,0L0,13.7
	c1.9,0,3.8,0,5.6,0c2.1,0,4.1,0,6.2,0s86.6,0,88.7,0c2.1,0,4.3,0,6.4,0c1.8,0,3.6,0,5.4,0c1,0,2,0,2.9,0c1.3,0.3,2.5,0.9,3.2,2.1
	c0.3,0.5,0.6,1.2,0.4,2c-0.1,0.3-0.3,0.7-0.3,0.7c-0.1,0.1-0.2,0.1-0.2,0c0,0-0.3-0.4-0.7-0.4c-0.5,0-0.9,0.4-0.9,0.9
	c0,0.7,0.7,1,1.3,0.8c0.5-0.2,0.9-0.8,1.1-1.3c0.2-0.4,0.2-0.9,0.2-1.4c-0.1-0.5-0.2-1-0.4-1.3c-0.2-0.3-0.4-0.6-0.5-0.7
	c-0.6-0.6-1.3-1.1-2-1.4c0.6,0,1.2,0,1.7,0c2.5,0.2,4.9,0.4,7.4,0.6c1.9,0.1,3.4,0.4,4.7,0.7c0.8,0.2,1.7,0.5,2.5,0.9
	c0.9,0.4,1.9,0.8,3.3,1.2c3.2,0.4,5.1-1.3,5.2-3.1c0.3,0,0.7,0.1,1,0.1c1.4,0.1,2.6,0.3,3.6,0.6c0.6,0.2,1.3,0.4,1.9,0.7
	c0.7,0.3,1.5,0.6,2.5,0.9c2.4,0.3,3.9-1,4-2.4C154.6,12.4,153.2,10.9,150.7,11.1z M313.1,12.8c-4.5,0-91.2,0-95.7,0
	c-2.2,0-4.3,0-6.5,0l0,0c-1,0-2,0-3.1,0c-0.7,0-1.5,0-2.2,0c-2.5,0-5.7-0.1-7.2-2.5c-0.3-0.5-0.6-1.2-0.4-2c0.1-0.3,0.3-0.7,0.3-0.7
	c0.1-0.1,0.2-0.1,0.2,0c0,0,0.3,0.4,0.7,0.4c0.5,0,0.9-0.4,0.9-0.9c0-0.7-0.7-1-1.3-0.8c-0.5,0.2-0.9,0.8-1.1,1.3
	c-0.2,0.4-0.2,0.9-0.2,1.4c0.1,0.5,0.2,1,0.4,1.3s0.4,0.6,0.5,0.7c0.8,0.9,1.9,1.4,3,1.8c-4.6-0.1-10.4-0.4-13.1-4.7
	c-0.6-1-1.1-2.4-0.9-3.9c0.1-0.6,0.6-1.4,0.6-1.4c0.1-0.2,0.3-0.2,0.5,0c0,0,0.6,0.8,1.4,0.8c0.9,0,1.7-0.8,1.7-1.7
	c0-1.4-1.4-2-2.6-1.5c-0.9,0.4-1.7,1.5-2.1,2.4c-0.3,0.8-0.5,1.7-0.4,2.6c0.1,1,0.4,1.9,0.8,2.6c0.4,0.7,0.7,1.1,1,1.4
	c1.3,1.4,3,2.4,4.8,3.1c-0.9-0.1-1.7-0.2-2.5-0.4s-1.7-0.4-2.5-0.7c-0.9-0.3-2-0.7-3.5-1c-2.6-0.1-4.3,1-4.8,2.5
	c-0.4,0-0.8,0-1.3-0.1c-1.4-0.1-2.6-0.2-3.6-0.4c-0.6-0.1-1.3-0.3-1.9-0.6c-0.7-0.3-1.5-0.6-2.7-0.8c-2.5-0.1-3.9,1.3-3.8,2.8
	c0.1,1.4,1.6,2.7,4,2.4c1-0.3,1.9-0.6,2.5-0.9c0.6-0.3,1.3-0.5,1.9-0.7c1-0.3,2.2-0.5,3.6-0.6c0.3,0,0.7-0.1,1-0.1
	c0.1,1.8,2.1,3.5,5.2,3.1c1.4-0.3,2.4-0.8,3.3-1.2c0.8-0.4,1.7-0.6,2.5-0.9c1.3-0.4,2.8-0.6,4.7-0.7c2.5-0.2,4.9-0.4,7.4-0.6
	c0.6,0,1.2,0,1.7,0c-0.8,0.3-1.5,0.8-2,1.4c-0.2,0.2-0.3,0.4-0.5,0.7s-0.4,0.8-0.4,1.3s0,1,0.2,1.4c0.2,0.5,0.6,1,1.1,1.3
	c0.6,0.3,1.3,0,1.3-0.8c0-0.5-0.4-0.9-0.9-0.9c-0.4,0-0.7,0.4-0.7,0.4c-0.1,0.1-0.2,0.1-0.2,0c0,0-0.2-0.4-0.3-0.7
	c-0.2-0.8,0.1-1.5,0.4-2c0.7-1.2,1.9-1.8,3.2-2.1c1,0,2,0,2.9,0c1.8,0,3.6,0,5.4,0c2.1,0,4.3,0,6.4,0c2.1,0,86.6,0,88.7,0
	s4.1,0,6.2,0c1.9,0,3.8,0,5.6,0L313.1,12.8z"/>
</svg>
