<?xml version="1.0" encoding="utf-8"?>
<!-- Generator: Adobe Illustrator 23.0.3, SVG Export Plug-In . SVG Version: 6.00 Build 0)  -->
<svg version="1.1" id="Layer_1" xmlns="http://www.w3.org/2000/svg" xmlns:xlink="http://www.w3.org/1999/xlink" x="0px" y="0px"
	 viewBox="0 0 300 33.6" style="enable-background:new 0 0 300 33.6;" xml:space="preserve">
<style type="text/css">
	.st0{fill:#3E50B4;}
</style>
<path class="st0" d="M150.3,6.9c-0.3-0.3-0.7-0.3-0.7,0c0,0-3,2.6-8.9,5.6c-11.9,5.9-51.1,12.2-87,3c-5.6-1.3-10.9-2.6-15.5-3
	c-12.9-1.6-23.1-0.3-29.7,4.3l0,0C2,21.4,0.3,27.7,0,30c0,1,0,1.6,0.7,2.6c0.7,0.3,2,1,3,1c1.3,0,2.3-0.7,3-1.6
	c0.3-0.7,0.7-1.3,0.7-2.3c-0.3-2.3-0.7-10.2,2-12.5c6.6-4.3,16.2-5.6,29-4c4.6,0.7,9.9,1.6,15.5,3c13.5,3.6,27.4,4.9,40.2,4.9
	c21.8,0,40.2-4,47.8-7.6c5.9-3,8.9-5.6,8.9-5.6C150.7,7.3,150.7,6.9,150.3,6.9z M150.3,6.9c-0.3-0.3-0.7-0.3-0.7,0
	c0,0-2.3,2-6.9,4.3c-9.2,4.6-39.9,9.6-67.6,2.3c-4.3-1-8.6-2-12.2-2.3c-10.2-1.3-17.8-0.3-23.1,3.3l0,0c-5.3,3.6-6.3,8.6-6.6,10.2
	c0,0.7,0,1.3,0.3,2c0.7,1,1.3,1.3,2.3,1.3c1,0,2-0.7,2.3-1.3s0.7-1.3,0.3-2c0-1.6-0.3-7.9,1.3-9.6c4.9-3.3,12.5-4.3,22.4-3
	c3.6,0.3,7.6,1.3,11.9,2.3c10.5,2.6,21.1,3.6,31.3,3.6c16.8,0,31.3-3,37.3-5.9c4.6-2.3,6.9-4.3,6.9-4.3
	C150.7,7.3,150.7,6.9,150.3,6.9z M152.3,1.3c-0.3-1-1-1.3-2-1.3l0,0c-1,0-1.6,0.7-2,1.3c-0.7,1.6,0,4,1.6,6.3l0.3,0.3
	c0.3,0,0.3,0,0.3-0.3C152.3,5.3,153,3,152.3,1.3z M300,29.3c-0.3-2.6-1.6-8.9-8.6-13.2l0,0c-6.6-4.6-16.8-5.9-29.7-4.3
	c-4.6,0.7-9.9,1.6-15.5,3c-35.9,9.2-75.2,3.3-87-3c-5.6-3-8.6-5.6-8.9-5.6c-0.3-0.3-0.7-0.3-0.7,0c-0.3,0.3-0.3,0.7,0,0.7
	c0,0,3,2.6,8.9,5.6c7.6,4,26,7.6,47.8,7.6c12.9,0,26.7-1.3,40.2-4.9c5.6-1.3,10.9-2.3,15.5-3c12.9-1.6,22.4-0.3,29,4
	c2.3,2.6,2,10.2,2,12.5c0,0.7,0,1.6,0.7,2.3c0.7,1,1.6,1.6,3,1.6l0,0c1.3,0,2.3-0.7,3-1.6C300,31.3,300,30.3,300,29.3z M266.7,24.4
	c-0.3-2-1.3-6.9-6.6-10.2l0,0c-5.3-3.6-12.9-4.6-23.1-3.3c-3.6,0.3-7.9,1.3-12.2,2.3c-28,7.3-58.4,2.6-67.6-2.3
	c-4.6-2.3-6.6-4.3-6.9-4.3c-0.3-0.3-0.7-0.3-0.7,0c-0.3,0.3-0.3,0.7,0,0.7c0,0,2.3,2,6.9,4.3c5.9,3,20.4,5.9,37.3,5.9
	c9.9,0,20.8-1,31.3-3.6c4.3-1,8.2-2,11.9-2.3c9.9-1.3,17.5-0.3,22.4,3c2,2,1.6,7.9,1.3,9.6c0,0.7,0,1.3,0.3,2c0.7,1,1.3,1.3,2.3,1.3
	c1,0,2-0.7,2.3-1.3C266.7,26,267,25.1,266.7,24.4z"/>
</svg>
