<?xml version="1.0" encoding="utf-8"?>
<!-- Generator: Adobe Illustrator 22.1.0, SVG Export Plug-In . SVG Version: 6.00 Build 0)  -->
<svg version="1.1" id="Layer_1" xmlns="http://www.w3.org/2000/svg" xmlns:xlink="http://www.w3.org/1999/xlink" x="0px" y="0px"
	 viewBox="0 0 104.9 20" style="enable-background:new 0 0 104.9 20;" xml:space="preserve">
<style type="text/css">
	.st0{fill:#4BAE4F;}
</style>
<path class="st0" d="M90.8,9.5c0.7,0.6,1,1.5,1,2.5c0,1.6-1.1,3.3-3.2,3.3c-2,0-3.4-1.1-3.4-2.5c0-0.2,0.1-0.3,0.3-0.3
	c0.2,0,0.3,0.1,0.3,0.3c0,1.2,1.2,2,2.8,2c1.7,0,2.6-1.4,2.6-2.7c0-0.8-0.3-1.5-0.9-2.1c-0.7-0.6-1.7-1-2.9-1c-2.1,0-4.9,0.9-8,2.2
	c-1.1,0.7-1.6,1.6-1.7,2.3c-0.2,0.7-0.1,1.5,0.3,2c0.3,0.5,0.7,0.8,1.2,0.9s1.1,0,1.5-0.3c1.2-0.9,0.6-1.9,0.6-1.9
	c-0.1-0.1,0-0.3,0.1-0.4c0.1-0.1,0.3,0,0.4,0.1c0,0,0.9,1.5-0.8,2.7c-0.4,0.3-0.9,0.4-1.4,0.4c-0.2,0-0.3,0-0.5,0
	c-0.7-0.1-1.2-0.5-1.6-1.1s-0.5-1.5-0.3-2.4c0.1-0.5,0.4-1.1,0.7-1.5c-1.1,0.5-2.2,0.9-3.3,1.4c-4.8,2.1-9.3,4.1-12.3,4.1
	c-2.1,0-3.7-0.5-4.7-1.5s-1.2-2.3-1.2-2.9c0-2.3,1.3-4.7,4.2-4.7c1.9,0,3.2,1.1,3.2,2.9c0,0.2-0.1,0.3-0.3,0.3s-0.3-0.1-0.3-0.3
	c0-1.4-1-2.3-2.6-2.3c-1.4,0-3.7,0.9-3.7,4.1c0,0.9,0.4,3.9,5.4,3.9c2.8,0,7.5-2,12.1-4c1.6-0.7,3.2-1.4,4.8-2.1l0,0
	c3.1-1.3,6.1-2.2,8.2-2.2C88.9,8.4,90,8.7,90.8,9.5z M44.2,8.1C42.3,8.1,41,9.3,41,11c0,0.2,0.1,0.3,0.3,0.3s0.3-0.1,0.3-0.3
	c0-1.4,1-2.3,2.6-2.3c1.4,0,3.7,0.9,3.7,4.1c0,3.6-4.1,3.9-5.4,3.9c-2.8,0-7.5-2-12.1-4c-1.6-0.7-3.2-1.4-4.8-2.1l0,0
	c-3.1-1.3-6.1-2.2-8.2-2.2c-1.4,0-2.5,0.4-3.3,1.1c-0.7,0.6-1,1.5-1,2.5c0,0.9,0.3,1.7,0.8,2.3c0.6,0.7,1.4,1,2.3,1
	c2,0,3.4-1.1,3.4-2.5c0-0.2-0.1-0.3-0.3-0.3c-0.2,0-0.3,0.1-0.3,0.3c0,1.2-1.2,2-2.8,2c-1.7,0-2.6-1.4-2.6-2.7
	c0-0.8,0.3-1.5,0.9-2.1c0.7-0.6,1.7-1,2.9-1c2.1,0,4.9,0.9,8,2.2c1.1,0.7,1.6,1.6,1.7,2.3c0.2,0.7,0.1,1.5-0.3,2
	c-0.3,0.5-0.7,0.8-1.2,0.9s-1.1,0-1.5-0.3c-0.5-0.4-0.8-0.8-0.8-1.3c0-0.4,0.2-0.7,0.2-0.7c0.1-0.1,0-0.3-0.1-0.4
	c-0.1-0.1-0.3,0-0.4,0.1c0,0-0.9,1.5,0.8,2.7c0.4,0.3,0.9,0.4,1.4,0.4c0.2,0,0.3,0,0.5,0c0.7-0.1,1.2-0.5,1.6-1.1s0.5-1.5,0.3-2.4
	c-0.1-0.5-0.4-1.1-0.7-1.5c1.1,0.5,2.2,0.9,3.3,1.4c4.8,2.1,9.3,4.1,12.3,4.1c2.1,0,3.7-0.5,4.7-1.5s1.2-2.3,1.2-2.9
	C48.4,10.6,47.1,8.1,44.2,8.1z M45.3,6.5C45.3,6.3,45.2,6,45,6H4C3.8,6,3.7,6.4,3.7,6.5S3.8,7,4,7h41.1C45.2,7,45.3,6.7,45.3,6.5z
	 M0.5,5.9C0.2,5.9,0,6.1,0,6.4s0.2,0.5,0.5,0.5S1,6.7,1,6.4C1.1,6.1,0.8,5.9,0.5,5.9z M2.2,5.9c-0.3,0-0.5,0.2-0.5,0.5
	s0.2,0.5,0.5,0.5s0.5-0.2,0.5-0.5C2.8,6.1,2.5,5.9,2.2,5.9z M101,6H59.8c-0.2,0-0.3,0.3-0.3,0.5S59.7,7,59.8,7H101
	c0.2,0,0.3-0.3,0.3-0.5C101.3,6.4,101.1,6,101,6z M104.3,5.9c-0.3,0-0.5,0.2-0.5,0.5s0.2,0.5,0.5,0.5s0.5-0.2,0.5-0.5
	C104.9,6.1,104.6,5.9,104.3,5.9z M102.6,5.9c-0.3,0-0.5,0.2-0.5,0.5s0.2,0.5,0.5,0.5s0.5-0.2,0.5-0.5S102.9,5.9,102.6,5.9z
	 M52.8,7.2c0.3,0.4,0.6,0.7,0.6,0.7c0.1,0.1,1.4,1.8,1.4,3.6c0,0.8-0.4,2-0.8,3.3c-0.5,1.6-1.1,3.3-1.2,5c0,0.1-0.1,0.3-0.3,0.3
	s-0.3-0.1-0.3-0.3c-0.1-1.7-0.7-3.4-1.2-5c-0.4-1.3-0.8-2.5-0.8-3.3c0-1.8,1.4-3.6,1.5-3.6c0,0,0.2-0.3,0.5-0.7
	c-0.8-0.9-2-1.9-3.2-2c-0.5,0-1,0.1-1.4,0.5C46.9,6.2,47.1,7,47.1,7c0,0.1,0,0.3-0.2,0.3c-0.1,0-0.3,0-0.3-0.2c0,0-0.3-1.1,0.5-1.8
	c0.5-0.5,1.1-0.8,1.8-0.7c1.3,0.1,2.7,1.2,3.5,2.1c0.9-0.9,2.2-2.1,3.6-2.2c0.7-0.1,1.3,0.2,1.8,0.7C58.6,6,58.3,7,58.3,7.1
	S58.1,7.3,58,7.3S57.8,7.1,57.8,7c0,0,0.2-0.8-0.3-1.3S56.6,5.1,56,5.1C54.9,5.2,53.6,6.3,52.8,7.2z M52.4,7.6
	c-0.3,0.3-0.5,0.6-0.5,0.6s-1.3,1.7-1.3,3.3c0,0.7,0.4,1.8,0.8,3.1c0.4,1.1,0.7,2.2,1,3.4c0.3-1.2,0.6-2.3,1-3.4
	c0.4-1.3,0.8-2.4,0.8-3.1c0-1.6-1.2-3.2-1.3-3.2C52.9,8.2,52.7,7.9,52.4,7.6z M50.9,1.8c0-0.1,0-0.2,0.1-0.3l1.4-1.4
	c0.1-0.1,0.3-0.1,0.4,0l1.4,1.4c0.1,0.1,0.1,0.2,0.1,0.3l-1.4,3.4c0,0.1-0.1,0.1-0.3,0.1l0,0c-0.1,0-0.2,0-0.3-0.1L50.9,1.8z
	 M51.5,1.7l1.1,2.7l1.1-2.6l-1.1-1.1L51.5,1.7z"/>
</svg>
