<?xml version="1.0" encoding="utf-8"?>
<!-- Generator: Adobe Illustrator 23.0.3, SVG Export Plug-In . SVG Version: 6.00 Build 0)  -->
<svg version="1.1" id="Layer_1" xmlns="http://www.w3.org/2000/svg" xmlns:xlink="http://www.w3.org/1999/xlink" x="0px" y="0px"
	 viewBox="0 0 300 11.7" style="enable-background:new 0 0 300 11.7;" xml:space="preserve">
<style type="text/css">
	.st0{fill:#3E50B4;}
</style>
<path class="st0" d="M278.6,6.3h-257V5.7h257V6.3z M12,6L6,8L0,6l6-2L12,6z M26.4,6l-5.7,2l-6-2l6-2L26.4,6z M19.4,3.3l-6,2l-6-2
	l6-2L19.4,3.3z M19.4,8.3l-6,2.3l-6-2.3l6-2L19.4,8.3z M285.3,6l-5.7,2l-6-2l6-2L285.3,6z M300,6l-6,2l-5.7-2l5.7-2L300,6z
	 M292.7,3.3l-6,2l-5.7-2l5.7-2L292.7,3.3z M292.7,8.3l-6,2.3L281,8.3l5.7-2L292.7,8.3z M146.5,6c0,2,1.7,3.7,3.7,3.7
	c2,0,3.7-1.7,3.7-3.7s-1.7-3.7-3.7-3.7C148.2,2.3,146.5,4,146.5,6z M139.8,3.3c-1.7,0-2.7,1.3-2.7,2.7c0,1.7,1.3,2.7,2.7,2.7
	c1.7,0,2.7-1.3,2.7-2.7C142.5,4.3,141.5,3.3,139.8,3.3z M160.2,3.3c-1.7,0-2.7,1.3-2.7,2.7c0,1.7,1.3,2.7,2.7,2.7
	c1.7,0,2.7-1.3,2.7-2.7C162.8,4.3,161.5,3.3,160.2,3.3z M134.5,4H29.7v1h104.8V4z M134.5,7H29.7v1h104.8V7z M270.6,4H165.9v1h104.8
	V4z M270.6,7H165.9v1h104.8V7z M25.4,0L31,6l-5.7,5.7 M21,0l5.7,6L21,11.7 M274.6,11.7L269,6l5.7-6 M279.3,11.7l-6-5.7l6-6"/>
</svg>
