<?xml version="1.0" encoding="utf-8"?>
<!-- Generator: Adobe Illustrator 23.0.3, SVG Export Plug-In . SVG Version: 6.00 Build 0)  -->
<svg version="1.1" id="Layer_1" xmlns="http://www.w3.org/2000/svg" xmlns:xlink="http://www.w3.org/1999/xlink" x="0px" y="0px"
	 viewBox="0 0 300 14.1" style="enable-background:new 0 0 300 14.1;" xml:space="preserve">
<style type="text/css">
	.st0{fill:#3E50B4;}
</style>
<path class="st0" d="M142.5,2.8c5,0,9.7,0,14.7,0c0.3,0,0.3-0.6,0-0.6c-5,0-9.7,0-14.7,0C142.2,2.2,142.2,2.8,142.5,2.8L142.5,2.8z
	 M142.5,12.2c5,0,9.7,0,14.7,0c0.3,0,0.3-0.6,0-0.6c-5,0-9.7,0-14.7,0C142.2,11.9,142.2,12.2,142.5,12.2L142.5,12.2z M159.1,14.1
	h-18.8c-0.3,0-0.3,0-0.3-0.3c0,0,0-0.3,0-0.6l2.2-5.9L140,0.9c0-0.3,0-0.3,0-0.6l0.3-0.3h18.8c0.3,0,0.3,0,0.3,0.3c0,0,0,0.3,0,0.6
	l-2.2,6.3l2.2,5.9C159.4,13.5,159.4,13.5,159.1,14.1C159.4,14.1,159.4,14.1,159.1,14.1z M141.2,13.1h17.2l-1.9-5.3V7.5l1.9-5.6
	h-17.2l1.9,5.6v0.3L141.2,13.1z M164.4,6.6c4.4,0,9.1,0,13.5,0c10.6,0,21.6,0,32.2,0c13.1,0,26,0,39.1,0c11.3,0,22.5,0,33.8,0
	c3.8,0,7.5,0,10.9,0c1.6,0,3.4,0.3,5.3,0h0.3c0.6,0,0.6-0.9,0-0.9c-4.4,0-9.1,0-13.5,0c-10.6,0-21.6,0-32.2,0c-13.1,0-26,0-39.1,0
	c-11.3,0-22.5,0-33.8,0c-3.8,0-7.5,0-10.9,0c-1.6,0-3.4-0.3-5.3,0h-0.3C163.8,5.6,163.8,6.6,164.4,6.6L164.4,6.6z M168.8,8.4
	c3.8,0,7.8,0,11.6,0c9.4,0,18.5,0,27.8,0c11.3,0,22.5,0,33.5,0c9.7,0,19.4,0,29.1,0c3.1,0,6.6,0,9.7,0c0.9,0,1.9,0,3.1,0
	c0.6,0,1.3,0,1.6,0c0,0,0,0,0.3,0c0.3,0,0.3-0.6,0-0.6c-3.8,0-7.8,0-11.6,0c-9.4,0-18.5,0-27.8,0c-11.3,0-22.5,0-33.5,0
	c-9.7,0-19.4,0-29.1,0c-3.1,0-6.6,0-9.7,0c-0.9,0-1.9,0-3.1,0c-0.6,0-1.3,0-1.6,0c0,0,0,0-0.3,0C168.5,8.1,168.5,8.4,168.8,8.4
	L168.8,8.4z M168.8,4.1c3.8,0,7.8,0,11.6,0c9.4,0,18.5,0,27.8,0c11.3,0,22.5,0,33.5,0c9.7,0,19.4,0,29.1,0c3.1,0,6.6,0,9.7,0
	c0.9,0,1.9,0,3.1,0c0.6,0,1.3,0,1.6,0c0,0,0,0,0.3,0c0.3,0,0.3-0.6,0-0.6c-3.8,0-7.8,0-11.6,0c-9.4,0-18.5,0-27.8,0
	c-11.3,0-22.5,0-33.5,0c-9.7,0-19.4,0-29.1,0c-3.1,0-6.6,0-9.7,0c-0.9,0-1.9,0-3.1,0c-0.6,0-1.3,0-1.6,0c0,0,0,0-0.3,0
	C168.5,3.8,168.5,4.1,168.8,4.1L168.8,4.1z M135.3,5.6c-4.4,0-9.1,0-13.5,0c-10.6,0-21.6,0-32.2,0c-13.1,0-26,0-39.1,0
	c-11.3,0-22.5,0-33.8,0c-3.8,0-7.5,0-10.9,0c-1.6,0-3.4-0.3-5.3,0l0,0c-0.6,0-0.6,0.9,0,0.9c4.4,0,9.1,0,13.5,0
	c10.6,0,21.6,0,32.2,0c13.1,0,26,0,39.1,0c11.3,0,22.5,0,33.8,0c3.8,0,7.5,0,10.9,0c1.6,0,3.4,0.3,5.3,0h0.3
	C135.9,6.6,135.9,5.6,135.3,5.6L135.3,5.6z M130.6,8.1c-3.8,0-7.8,0-11.6,0c-9.4,0-18.5,0-27.8,0c-11.3,0-22.5,0-33.5,0
	c-9.7,0-19.4,0-29.1,0c-3.1,0-6.6,0-9.7,0c-0.9,0-1.9,0-3.1,0c-0.6,0-1.3,0-1.6,0c0,0,0,0-0.3,0s-0.3,0.6,0,0.6c3.8,0,7.8,0,11.6,0
	c9.4,0,18.5,0,27.8,0c11.3,0,22.5,0,33.5,0c9.7,0,19.4,0,29.1,0c3.1,0,6.6,0,9.7,0c0.9,0,1.9,0,3.1,0c0.6,0,1.3,0,1.6,0
	c0,0,0,0,0.3,0C130.9,8.4,130.9,8.1,130.6,8.1L130.6,8.1z M130.6,3.8c-3.8,0-7.8,0-11.6,0c-9.4,0-18.5,0-27.8,0
	c-11.3,0-22.5,0-33.5,0c-9.7,0-19.4,0-29.1,0c-3.1,0-6.6,0-9.7,0c-0.9,0-1.9,0-3.1,0c-0.6,0-1.3,0-1.6,0c0,0,0,0-0.3,0
	s-0.3,0.6,0,0.6c3.8,0,7.8,0,11.6,0c9.4,0,18.5,0,27.8,0c11.3,0,22.5,0,33.5,0c9.7,0,19.4,0,29.1,0c3.1,0,6.6,0,9.7,0
	c0.9,0,1.9,0,3.1,0c0.6,0,1.3,0,1.6,0c0,0,0,0,0.3,0C130.9,4.1,130.9,3.8,130.6,3.8L130.6,3.8z"/>
</svg>
