<?xml version="1.0" encoding="utf-8"?>
<!-- Generator: Adobe Illustrator 23.0.3, SVG Export Plug-In . SVG Version: 6.00 Build 0)  -->
<svg version="1.1" id="Layer_1" xmlns="http://www.w3.org/2000/svg" xmlns:xlink="http://www.w3.org/1999/xlink" x="0px" y="0px"
	 viewBox="0 0 300 71.3" style="enable-background:new 0 0 300 71.3;" xml:space="preserve">
<style type="text/css">
	.st0{fill:#3E50B4;}
</style>
<path class="st0" d="M177,50.9c20.7-6,43.8-1.7,64.9-4c18.1-2,37.5-8,48.2-24.1c0.3-0.7-0.7-1.3-1-0.7
	c-13.4,18.4-36.5,22.8-57.9,24.1c-17.7,1.3-36.8-1.7-54.2,3.3C175.7,49.9,176.3,51.2,177,50.9L177,50.9z M251.3,44.9
	c11.7-6,18.4-21.1,19.4-33.8c0-1-1.3-0.7-1.3,0c-1.3,12.4-7.7,26.1-18.7,32.8C250.3,44.2,250.6,45.2,251.3,44.9L251.3,44.9z
	 M229.2,47.5c6.4-0.7,13.1,3.7,18.7,6c7,2.7,14.1,4.4,21.8,3.7c1,0,1-1.3,0-1.3c-9.4,0.7-17.7-2-26.4-5.7c-4.7-1.7-9-4.4-14.1-3.7
	C228.5,46.5,228.5,47.9,229.2,47.5L229.2,47.5z M216.8,47.5c11.4-6.7,19.7-17.1,26.1-28.4c0.3-0.7-0.7-1.3-1-0.7
	c-6.7,11-14.4,21.4-25.8,28.1C215.2,46.5,215.8,47.9,216.8,47.5L216.8,47.5z M199.1,48.2c11.4,6,21.4,13.7,34.5,16.1
	c1,0,1.3-1,0.3-1.3c-12.7-2.7-22.8-10-34.1-15.7C198.8,46.9,198.1,47.9,199.1,48.2L199.1,48.2z M220.5,59.6c3-1,7-1.3,10.4-0.3
	c3.3,1,7.7,5.7,2.7,7.7c-4.4,2-11.4-4-12.4-8c-0.3-0.7-1.3-0.7-1.3,0.3c0.7,5,11,13.1,15.7,8.4c2.7-2.7,1.7-5.7-1-8
	c-3.7-2.7-10-2.7-14.1-1C219.5,58.6,219.8,59.9,220.5,59.6L220.5,59.6z M233.6,32.5c2,0.7,4.4-1,6-1.7c2.3-1.3,3.7-3,4.7-5
	c2-3.3,4.7-9.7,0.3-12.4c-6.7-4-12.7,13.7-11.7,18.1c0.3,0.7,1.3,0.7,1.3-0.3c0-5.4,2.3-13.7,7.4-16.7c2.3-1.3,3.7,1.3,3.7,3.3
	c0,2.3-1,4.4-2,6.4c-2,3.7-5.4,7-10,7C233.2,31.1,233.2,32.2,233.6,32.5L233.6,32.5z M267.7,23.5c9,0.3,9.7-15.4,6.7-21.1
	c-2-4-4.7-2.3-6.7,0.7c-3.3,5.4-4,13.7-1,19.1c0.3,1,1.7,0,1.3-0.7c-2.3-4.7-1.7-10-0.3-14.7c0.7-1.7,1.7-3.7,3-5c2-1.3,3,3.7,3.3,5
	c0.7,4.7,0.3,15.7-6.4,15.7C266.7,22.4,266.7,23.5,267.7,23.5L267.7,23.5z M259,56.2c3.7-2.3,7-3,11-2c2,0.3,3.7,1,5.4,2.3
	c2,1.7,1,4-1.3,5C270,62.9,261,59.6,259,56.2c-0.3-1.3-2-0.3-1.3,0.3c2.7,4,15.7,10.7,19.4,4.7c2-3.3-0.3-6-3.3-7.4
	c-5.4-2-10.4-2-15.1,1.3C258,55.6,258.3,56.6,259,56.2L259,56.2z M283.8,29.1c0.3-2,0.7-4,1-6c0.7-2,2.3-3.7,4-5.4
	c2.3-2.3,8.4-7,9.4-0.7c0.7,5.4-7.7,14.4-13.1,12c-1-0.3-1.7,1-0.7,1.3c7,3.3,17.1-7.4,15.4-14.1c-1-4.7-5-4.7-8.4-2.3
	c-2,1.3-4,3.3-5.7,5.4c-2.3,3-2.3,6-3,9.4C282.4,29.8,283.8,30.1,283.8,29.1L283.8,29.1z M184.7,48.2c-0.3,0-1-0.3-1.3-0.3
	c0,0.3,0,0.7,0,1.3c6-4.4,12.7-7.4,17.7-13.4c0.7-0.7-0.3-1.7-1-1c-3,3-6,5.7-9.4,8c-2.7,1.7-5.4,3.3-8,5.4c-0.3,0.3,0,1,0.3,1
	s0.7,0,1,0C185,49.2,185.4,48.2,184.7,48.2L184.7,48.2z M193.1,43.5c4,0.3,8-2.3,10.7-5c2.3-2.3,3.3-6.4,0.3-8.4
	c-2.7-1.7-6.7,1.7-8.4,3.3c-2,2-5,6-3.3,9c0.3,0.7,1.7,0.3,1.3-0.7c-1-2.3,1-5,2.3-6.7s4.4-4.4,6.7-4c1.3,0.3,1.7,2.3,1.3,3.7
	s-1.7,2.7-2.7,3.7c-2.3,2-5.7,3.7-8.7,3.7C192.4,42.2,192.4,43.5,193.1,43.5L193.1,43.5z M151.6,47.9c-1.7-6-5-16.7-12.7-17.1
	c-3-0.3-5,1.3-6,4.4c-1.3,3.7,1,5.4,3.3,7.7c0.7,0.7,1.7-0.3,1-1c-1.7-2-4-3-3-6c1.3-4.4,5.7-3.3,8.7-1.3c4.4,3,6.4,9.7,7.7,14.4
	C150.6,48.9,151.9,48.6,151.6,47.9L151.6,47.9z M135.8,42.2c0,1.3-1.7,2.7-2.3,3.3c-1,1.3-1.7,3.3-2,5c-0.3,2,0.7,4,2.3,5.4
	c3.3,2.3,10,1.3,12.7-1.7c0.7-0.7-0.3-1.7-0.7-1c-3,2-7.7,3-11,1.3c-3.3-1.7-1.3-6.4,0.3-8.7c0.7-1,2.3-2.3,2-4
	C136.8,41.2,135.8,41.2,135.8,42.2L135.8,42.2z M148.2,37.5c-0.7-2-1-3.7-0.7-5.7c0.3-3,2.3-4,4.7-2.3c1.7,1.3,4.4,4.7,6.7,2.3
	c0.7-0.7,0-1.3-1-1c-3.3,1.3-5.4-5-9-3.7c-4,1.3-3,7.7-2,10.7C147.2,38.5,148.2,38.5,148.2,37.5L148.2,37.5z M159.3,31.8
	c1-1,2-2,3.3-2.3c2-0.3,1.7,3.3,1.3,4.7c-0.3,3.3-1.3,7-4,9c-0.7,0.3-0.3,1.7,0.7,1.3c4.4-2,5.4-8.7,5-13.1c-0.3-5-5.4-3-7.4-0.3
	C157.6,31.5,158.6,32.2,159.3,31.8L159.3,31.8z M168.3,50.2c4-1,8.4-6.7,3-9c-6.4-2.7-13.7,2.7-17.7,7c-0.7,0.7,0.3,2,1,1
	c3-3.3,6.4-5.7,10.4-7c1.7-0.7,4-0.3,5.7,0c2,1.3,2.3,2.7,1,4.4c-1,1-2.3,1.7-3.7,2C167.3,49.2,167.6,50.2,168.3,50.2L168.3,50.2z
	 M168,50.2c0.7,1.3,1.3,2.3,2,3.3c2.7,4.4-2.3,7.7-6.4,7.4c-4.7-0.7-7.4-5.7-9.7-9c-0.7-1-1.7,0-1.3,0.7c2.3,5.4,7.7,11,14.1,9.7
	c2.7-0.7,4.7-2.7,5.4-5.4c0.7-3-1.7-5.4-3-7.7C168.6,48.9,167.6,49.2,168,50.2L168,50.2z M159.3,60.9c0.3,2.3,1.3,5-1,6.7
	c-2,1.3-4.7,0-6-1.7c-0.7-0.7-1.7,0.3-1,1c1.3,2.3,5.4,3.3,7.7,2.3c3.3-1.7,2.3-5.4,1.7-8.4C160.3,60.3,159.3,60.3,159.3,60.9
	L159.3,60.9z M151.2,66.3c-1.3,0-2,0.7-3,1.7c-2,2-5,2-7.4,0.7c-3.3-2-4.7-8-2-10.7c0.7-0.7,0-1.7-1-1.3c-4.4,2.3-2,9,0.3,12
	c1.3,2,3.7,2.7,6,2.7c1.3,0,2.3-0.3,3.7-1c1.3-0.7,2-2.3,3.7-2.7C152.2,67.3,151.9,66.3,151.2,66.3L151.2,66.3z M154.6,49.2
	c0-1.7-1.7-2.3-3.3-2c-1.7,0.3-2.7,2.3-2,4s2.3,2.3,4,1.7C154.9,52.6,155.6,50.2,154.6,49.2c-0.3-1-1.3-0.3-1,0.3
	c0.3,0.7,0.3,1.7-0.7,2c-0.7,0.3-1.7,0-2-0.7c-1.3-1.7,2.3-3.7,2.7-1.7C153.6,49.9,154.6,49.9,154.6,49.2L154.6,49.2z M152.9,47.5
	c0.3-2.3,1-4.7,1-7c0-0.7-1-1-1.3,0c-0.3,2.3-1,5-1,7.4C151.9,48.6,152.9,48.6,152.9,47.5L152.9,47.5z M153.9,48.2
	c1.3-2.3,2-4.7,3-7.4c0.3-0.7-1-1.3-1.3-0.7c-1,2.3-2,5-3,7.4C152.6,48.2,153.6,48.9,153.9,48.2L153.9,48.2z M149.9,48.9
	c0.3-2.7-6-3-7.7-2.7c-1,0-1,1.3,0,1.3s2.3,0,3.3,0.3c0.7,0,3,0.3,3,1.3C148.9,49.9,149.9,49.9,149.9,48.9L149.9,48.9z M149.2,49.6
	c-2.7-0.3-5.7,0-8.4,1c-0.7,0.3-0.3,1.3,0.3,1.3c2.7-0.7,5.4-1,8-1C149.9,50.6,149.9,49.6,149.2,49.6L149.2,49.6z M149.9,51.9
	c-3,2.7-5.4,6.7-5.7,10.7c0,0.7,1,1,1.3,0.3c1-4,3-7,5.4-10C151.2,52.2,150.6,51.6,149.9,51.9L149.9,51.9z M151.2,52.2
	c-1,2.3-1.3,4.7-1.7,7c0,0.7,1,1,1.3,0.3c0.3-2.3,0.7-4.7,1.3-7C152.6,52.2,151.6,51.9,151.2,52.2L151.2,52.2z M154.6,50.6
	c2-0.7,3.7-0.7,5.7-0.3c0.7,0,1-1,0.3-1.3c-2-0.3-4.4-0.3-6.4,0.7C153.6,49.6,153.9,50.9,154.6,50.6L154.6,50.6z M154.3,51.9
	c2.3,0.7,4.4,1.7,6.4,3c0.7,0.3,1.3-0.7,0.7-1c-2-1.7-4.4-2.3-6.7-3C153.6,50.2,153.6,51.6,154.3,51.9L154.3,51.9z M130.5,35.2
	c-1.7-4-7.4-4.7-11.4-4.7c-1,0-1,1.3,0,1.3c3.7,0,8,0.3,10.4,3.7C129.8,36.5,130.8,35.8,130.5,35.2L130.5,35.2z M118.1,31.5
	c1.3,4.4,9.4,9.4,13.1,5c0.7-0.7-0.3-1.7-1-1c-3,3-9.4-1-10.7-4C118.8,30.5,117.8,30.8,118.1,31.5L118.1,31.5z M169,36.5
	c0.7-1.7,1.3-3.3,2.7-4.7c0.7-1,3.3-2.7,4.4-2c1.7,1,3.3-0.7,5-0.7c-0.3-0.3-0.3-0.3-0.7-0.7c0,2.3-2.3,4-4,5.4
	c-2.3,2-5.4,2-8.4,2.3c0.3,0.3,0.3,0.7,0.7,1C168.6,36.8,169,36.5,169,36.5c0-0.7-1-1.3-1.3-0.7l-0.3,0.3c-0.3,0.7,0.3,1.3,1,1
	c3.7-0.7,6.4-0.7,9.4-3c2-1.3,4-3.3,4-6c0-0.3-0.3-0.7-0.7-0.7c-0.7,0-4,1.7-4,1c0-0.3-0.3-0.3-0.7-0.3c-4.4,0.3-7.4,3.7-8.4,8
	C167.6,36.8,169,37.2,169,36.5L169,36.5z M131.2,58.6c-3.7,0.7-6.7,0.7-9.7,3c-1.7,1-3.7,3-2.3,5c1,1.7,4,1,5.7,0.7c3-1,5.4-4.4,7-7
	c0.3-0.7-0.7-1.3-1-1c-1.7,2-3,4.4-5.4,6c-1,0.7-3.3,1.3-4.7,0.7c-2.3-1,3.3-4,4-4.4c2-1,4.7-1,7-1.7
	C132.2,59.6,131.8,58.3,131.2,58.6L131.2,58.6z M143.5,25.5c-1.7-3-5.7,2-2.7,3.7C142.9,30.5,145.9,27.5,143.5,25.5
	c-0.3-0.3-1.3,0.3-0.7,1c0.7,0.7,0,1.7-1,1.7c-1.7,0,0-3.3,0.7-2C142.9,26.5,143.9,26.1,143.5,25.5L143.5,25.5z M165,66.6
	c2,1.7,5,3,7.4,1.7c0.7-0.3,0.3-1.3-0.7-1.3c-2.3,0.3-4.4,0-6-1.3C165,64.9,164.3,66,165,66.6L165,66.6z M164.6,66.3
	c2.7-0.3,4.7,1.7,7,1.3c0.7,0,1-1.3,0-1.3c-2.7,0-4.7-1.7-7.4-1.3C163.6,65.3,164,66.6,164.6,66.3L164.6,66.3z M123.5,49.6
	c-17.4-5-36.5-2.3-54.2-3.3c-21.4-1.3-44.8-5.7-57.9-24.1c-0.3-0.7-1.7,0-1,0.7c10.7,16.1,29.8,21.4,48.2,24.1
	c21.4,2.7,44.2-1.7,64.9,4C123.8,51.2,124.1,49.9,123.5,49.6L123.5,49.6z M49.2,43.9c-11-6.7-17.4-20.1-18.7-32.8c0-0.7-1.3-1-1.3,0
	c1,12.7,7.7,27.4,19.4,33.8C49.2,45.2,49.8,44.2,49.2,43.9L49.2,43.9z M70.9,46.5c-5-0.7-9.7,2-14.1,3.7c-8.4,3.3-17.1,6-26.4,5.7
	c-1,0-1,1.3,0,1.3c6.7,0.7,12.7-0.7,19.1-2.7c6.7-2,14.4-7.4,21.4-6.7C71.3,47.9,71.6,46.5,70.9,46.5L70.9,46.5z M84,46.2
	c-11.4-6.7-19.1-17.1-25.8-28.1c-0.3-0.7-1.7,0-1,0.7c6.4,11.4,14.4,21.8,26.1,28.4C84,47.9,84.6,46.5,84,46.2L84,46.2z M100.4,47.2
	C89,52.9,79,60.3,66.2,62.9c-1,0.3-0.3,1.3,0.3,1.3c12.7-2.3,23.1-10,34.5-16.1C101.7,47.9,101,46.9,100.4,47.2L100.4,47.2z
	 M79.6,58.3c-4-1.7-9.7-1.7-13.7,0.7c-3.3,2-4.7,5.4-1.7,8.4c4.7,4.7,15.1-3.3,15.7-8.4c0-0.7-1.3-1-1.3-0.3c-1,4.4-7.4,9-12,8.4
	c-1.7-0.3-3-2-2.7-4c0.3-1.7,2.3-3,3.7-3.7c3.3-1.7,8-1,11.4,0C80.3,59.9,80.3,58.6,79.6,58.3L79.6,58.3z M66.2,31.1
	c-4,0-7.7-3-9.4-6.4c-1.3-2-5-11.7,0.7-10.7c3,0.7,5,5.7,6,8c1,2.7,2,5.7,2,8.7c0,1,1.3,1,1.3,0.3c1.3-4.7-4.7-21.1-11.4-18.4
	c-4.7,2-2,8.7-0.3,12c1,2,2.3,4,4.4,5.4c1.7,1,4.7,3,6.7,2.3C66.9,32.2,66.9,31.1,66.2,31.1L66.2,31.1z M32.4,22.4
	c-7,0-7-11-6.4-15.7c0.3-1.3,0.7-3,1.3-4c1.7-3.3,4.4,2.3,4.7,3.3c2,5,2.3,10.7,0,15.7c-0.3,1,1,1.7,1.3,0.7c3-5.7,2-13.1-0.7-18.4
	c-1.7-3.3-5-5.7-7-1.3c-2.7,5.7-2.3,21.4,6.7,21.1C33.1,23.5,33.1,22.4,32.4,22.4L32.4,22.4z M41.5,55.2c-4.7-3.3-9-3.3-14.4-1.7
	c-3.3,1-6.4,4-4.4,7.7c3.7,5.7,16.7-0.7,19.4-4.7c0.7-1-1-1.7-1.3-0.7c-2,4.4-10.7,6.7-15.1,5.7c-1.7-0.3-2.7-2.3-2-4
	c0.7-1.7,3.3-2.7,5-3c4.4-1.3,8-0.7,11.7,1.7C41.5,56.6,42.1,55.6,41.5,55.2L41.5,55.2z M17.4,28.8c-0.3-3-0.7-6-2.3-8.7
	c-1.3-2-3.7-4-5.7-5.7c-3.3-2.3-7.4-3.7-9,1.3C-2,22.8,9,33.5,15.7,30.5c1-0.3,0-1.7-0.7-1.3C9.4,31.8,2,22.8,2,17.4
	c0-1.7,1.3-4,3.3-3.7s4,2.3,5.4,3.3c1.3,1.3,2.7,2.7,4,4.4c1.3,2,1.3,5,1.7,7.4C16.4,30.1,17.4,29.8,17.4,28.8L17.4,28.8z
	 M115.4,49.2c0.3,0,0.7,0,1,0c0.7,0,1-0.7,0.3-1c-2.3-2-4.7-3.3-7.4-4.7c-4-2.3-7-5-10.4-8.4c-0.7-0.7-1.7,0.3-1,1
	C103.1,42.2,109.7,45.2,115.4,49.2c0.3,0,0.3-0.3,0.3-1c-0.3,0-1,0.3-1.3,0.3C114.4,48.2,114.8,49.2,115.4,49.2L115.4,49.2z
	 M106.7,42.2c-2.7,0-5.7-1.7-8-3c-1.3-1-2.3-2-3.3-3.7c-0.7-1.3-0.3-3.7,1.3-4c2.3-0.7,5,2.3,6.4,3.7c1.7,1.7,3.7,4.7,2.7,7
	c-0.3,0.7,1,1.3,1.3,0.7c1.7-3-1.3-6.7-3-8.7c-1.7-2-5.4-5-8.4-3.7c-3.3,1.7-2.3,6-0.3,8c2.3,3,7.4,5.4,11,5.4
	C107.7,43.5,107.7,42.2,106.7,42.2L106.7,42.2z"/>
</svg>
