<?xml version="1.0" encoding="utf-8"?>
<!-- Generator: Adobe Illustrator 23.0.3, SVG Export Plug-In . SVG Version: 6.00 Build 0)  -->
<svg version="1.1" id="Layer_1" xmlns="http://www.w3.org/2000/svg" xmlns:xlink="http://www.w3.org/1999/xlink" x="0px" y="0px"
	 viewBox="0 0 300 32.4" style="enable-background:new 0 0 300 32.4;" xml:space="preserve">
<style type="text/css">
	.st0{fill:#3E50B4;}
</style>
<path class="st0" d="M154.2,16.2c0,2.3-1.9,4.2-4.2,4.2s-4.2-1.9-4.2-4.2s1.9-4.2,4.2-4.2C152.3,12,154.2,14,154.2,16.2z M141,15.6
	l4.2-4.8l-5.2,4.8h-3.9l4.2-4.8l-5.2,4.8H43.5c-0.3-0.6-1.6-1-2.9-1c-1.6,0-2.6,0.3-2.9,1h-1.6c-0.6-1-2.6-1.6-4.8-1.6
	s-4.2,0.6-4.8,1.6h-3.2v-0.3v-0.3c-2.6,0-5.8-1.6-7.7-3.5s-3.2-5.2-1.6-7.7c0.6-1.3,1.9-2.6,3.2-2.9s2.9,0,4.2,0.6
	c1.3,0.6,1.9,1.9,2.3,3.5c0,0.6,0,1.3-0.3,1.9l0,0c0-1.3-1-2.3-2.3-2.3c-1.3,0-2.3,1-2.3,2.3s1,2.3,2.3,2.3c1,0,1.9-0.6,2.3-1.6
	c0.6-0.6,1-1.6,0.6-2.6c-0.3-1.6-1.3-2.9-2.6-3.9c-1.3-1-3.2-1.3-4.8-1c-1.6,0.6-2.9,1.9-3.9,3.2c-1,1.3-1.3,3.2-1,4.8
	c0.3,1,0.6,1.9,1,2.6c-0.3-0.3-1-0.6-1.3-1.3C9.7,7.5,9.3,4.9,9.7,2.4C9,4.9,9,7.8,10.6,10.1c1,1.6,2.6,2.9,4.2,3.9L0,16.2l13.8,1.9
	c-1.3,1-2.9,2.3-3.5,3.5c-1.6,2.6-1.6,5.2-1,7.7c-0.3-2.6,0-5.2,1.6-7.1c0.6-1,1.6-1.6,2.6-2.3c-1,1.3-1.6,2.9-1.9,4.2
	c-0.3,1.6,0,3.5,1,4.8c1,1.6,2.3,2.9,3.9,3.2c1.6,0.3,3.5,0,4.8-1c1.3-0.6,2.6-2.3,2.6-3.9c0-0.6-0.3-1.6-0.6-2.3
	c0.3,0.6,0.3,1.6,0.3,2.3c-0.3,1.6-1.3,2.9-2.6,3.5c-1.3,1-2.9,1-4.2,0.6s-2.6-1.6-3.2-2.9c-1.6-2.6-0.6-5.8,1.6-7.7
	c2.3-2.3,5.2-3.5,7.7-3.5v-0.3h3.5c1,0.6,2.6,1.3,4.5,1.3c2.3,0,3.9-0.6,4.5-1.3h2.3c0.6,0.3,1.3,0.6,2.6,0.6c1.3,0,1.9-0.3,2.6-0.6
	h92.4l4.8,4.2l-3.9-4.2h4.2l4.8,4.2l-3.5-4.2h4.2v-1v-0.6H141z M20.9,23.3c-1.3,0-2.3,1-2.3,2.3s1,2.3,2.3,2.3c1.3,0,2.3-1,2.3-2.3
	v-0.3l0,0c0,0,0,0,0-0.3C22.9,23.9,22.2,23.3,20.9,23.3z M286.2,18.1l13.8-1.9l-14.2-1.9c1.6-1,3.2-2.6,4.2-4.2
	c1.3-2.3,1.3-5.2,0.6-7.7c0.6,2.6,0,5.2-1.6,7.1c-0.3,0.6-1,1-1.6,1.6c0.3-0.6,0.6-1.6,1-2.6c0.3-1.9,0-3.9-1-5.2
	c-0.6-1.6-2.3-2.9-3.9-3.2c-1.6-0.3-3.5,0-4.8,1s-2.6,2.6-2.6,4.2c-0.3,1.3,0.3,2.3,1.3,3.2c0.3,0.3,0.6,0.6,1,0.6
	c0,0,0.3,0,0.3,0.3c0,0,0,0-0.3-0.3c0.3,0,0.6,0.3,1,0.3c1.3,0,2.3-1,2.3-2.3s-1-2.3-2.3-2.3c-1.3,0-2.3,1-2.3,2.3
	c0,0.3,0,0.6,0.3,1c-0.3-0.6-0.6-1.6-0.6-2.6c0.3-1.6,1.3-2.9,2.6-3.5c1.3-1,2.9-1,4.2-0.6c1.6,0.6,2.6,1.6,3.2,2.9
	c1.3,2.6,0.3,5.5-1.9,7.4c-1.9,1.9-4.8,3.2-7.4,3.2v1h-2.9c-0.6-1-2.6-1.6-4.8-1.6s-4.2,0.6-4.8,1.6h-1.6c-0.3-0.6-1.6-1-2.9-1
	c-1.6,0-2.6,0.3-2.9,1h-92.7l-5.2-4.8l4.2,4.8H160l-5.2-4.8l4.2,4.8h-4.5v0.3v1h4.2l-3.5,4.2l4.8-4.2h4.2l-3.9,4.2l4.8-4.2h92.4
	c0.6,0.3,1.3,0.6,2.6,0.6c1.3,0,1.9-0.3,2.6-0.6h2.6c1,0.6,2.9,1.3,4.5,1.3c2.3,0,3.9-0.6,4.5-1.3h3.2v0.6c0.3,0,0.3,0,0.6,0l0,0
	c2.3,0,5.5,1.3,7.4,3.2c2.3,1.9,3.5,4.8,1.9,7.4c-1,1.3-1.9,2.6-3.2,2.9s-2.9,0-4.2-0.6c-1.3-0.6-2.3-1.9-2.6-3.5c0-0.3,0-1,0-1.3
	c0.3,1,1,1.9,2.3,1.9c1.3,0,2.3-1,2.3-2.3c0-1.3-1-2.3-2.3-2.3h-0.3l0,0l0,0c-1,0.3-1.6,1-1.6,1.6c-0.3,0.6-0.6,1.3-0.3,1.9
	c0,1.9,1.3,3.2,2.6,4.2c1.3,1,3.2,1.3,4.8,1c1.6-0.6,2.9-1.9,3.9-3.2c1-1.6,1.3-3.2,1-5.2c0-0.6-0.3-1.6-0.6-2.3
	c0.3,0.3,0.6,0.3,0.6,0.6c1.6,1.9,1.9,4.5,1.6,7.1c1-2.6,1-5.5-0.6-7.7C289.1,20.4,287.8,19.1,286.2,18.1z"/>
</svg>
