<?xml version="1.0" encoding="utf-8"?>
<!-- Generator: Adobe Illustrator 23.0.3, SVG Export Plug-In . SVG Version: 6.00 Build 0)  -->
<svg version="1.1" id="Layer_1" xmlns="http://www.w3.org/2000/svg" xmlns:xlink="http://www.w3.org/1999/xlink" x="0px" y="0px"
	 viewBox="0 0 300 39.1" style="enable-background:new 0 0 300 39.1;" xml:space="preserve">
<style type="text/css">
	.st0{fill:#3E50B4;}
</style>
<path class="st0" d="M151.5,17.9c-1.6-2.6-5.2,1.6-2.9,3.6C151.2,23.2,154.1,18.9,151.5,17.9c-0.7-0.3-1.3,0.3-0.7,0.7
	c0.7,0.7,0.7,1,0.3,1.6c-0.3,0.7-1,1-1.6,0.7c-1.6-0.7,0-3.6,1.3-2.3C151.2,18.9,151.8,18.3,151.5,17.9L151.5,17.9z M147.9,19.2
	c-6.2,1-8.5,8.5-8.2,14c0,0.7,1.3,0.7,1.3,0c-0.7-5.2,1.3-11.7,7.2-13.4C148.9,19.9,148.5,18.9,147.9,19.2L147.9,19.2z M150.2,21.5
	c0,2,0.3,3.6-0.7,5.5c-0.7,1.3-2.3,2.6-3.6,3.6c-1,0.7-2.3,1.3-3.3,2c-0.3,0.3-1,0.3-1.3,0.7c-0.3,0-0.7,0-0.3,0.3
	c-0.7-0.3-1.3,0.7-0.7,1c1.3,1,5.5-2,6.5-2.6c1.6-1,2.9-2.3,3.9-3.9c1.3-2,1-3.9,0.7-6.2C150.8,20.5,150.2,20.9,150.2,21.5
	L150.2,21.5z M147.9,19.2c-6.2,1-8.5,8.5-8.2,14c0,0.7,1.3,0.7,1.3,0c-0.7-5.2,1.3-11.7,7.2-13.4C148.9,19.9,148.5,18.9,147.9,19.2
	L147.9,19.2z M150.2,21.5c0,2,0.3,3.6-0.7,5.5c-0.7,1.3-2.3,2.6-3.6,3.6c-1,0.7-2.3,1.3-3.3,2c-0.3,0.3-1,0.3-1.3,0.7
	c-0.3,0-0.7,0-0.3,0.3c-0.7-0.3-1.3,0.7-0.7,1c1.3,1,5.5-2,6.5-2.6c1.6-1,2.9-2.3,3.9-3.9c1.3-2,1-3.9,0.7-6.2
	C150.8,20.5,150.2,20.9,150.2,21.5L150.2,21.5z M149.2,17.3c-3.9-4.9-11.7-3.3-16.3,0c-0.7,0.3,0,1.6,0.7,1c4.2-2.9,11.1-4.6,15-0.3
	C148.9,18.6,149.5,17.9,149.2,17.3L149.2,17.3z M148.2,20.2c-1.6,1-2.6,2-4.6,2.3c-2,0.3-3.9-0.7-5.5-1.3c-1-0.7-4.6-2.3-4.6-3.3
	c-0.3-0.7-1.3-0.7-1.3,0c0.3,2,4.6,3.6,5.9,4.2c3.9,2,7.2,1.3,10.8-1.3C149.2,20.9,148.5,20.2,148.2,20.2L148.2,20.2z M151.2,17.6
	c2.3-5.9-2.9-11.7-7.8-14.3c-0.7-0.3-1.3,0.7-0.7,1c4.9,2.3,9.5,7.2,7.5,13C150.2,17.9,150.8,17.9,151.2,17.6L151.2,17.6z
	 M148.2,18.3c-1.6-1-3.3-1.6-4.2-3.3c-1-1.3-1-3.3-1.3-4.9c0-1.3,0-5.2,0.7-5.9c0.7-0.3,0-1.3-0.7-1c-1.6,1-1,6.2-1,7.5
	c0.3,4.6,2.3,6.8,6.2,8.5C148.2,19.2,148.5,18.6,148.2,18.3L148.2,18.3z M152.1,19.2c6.5-1.3,8.2-9.1,7.5-14.7
	c0-0.7-1.3-0.3-1.3,0.3c0.7,5.2-1,11.7-6.5,13.4C151.2,18.6,151.5,19.6,152.1,19.2L152.1,19.2z M149.8,17.3c0-2-0.7-3.6,0.3-5.5
	c1-1.6,2.3-2.9,3.6-3.9c1-0.7,2-1.3,2.9-2c0.3-0.3,1-0.3,1.3-0.7c0.3-0.3,0.7,0,0-0.3c0.7,0.3,1.3-0.7,0.7-1c-1.3-1-5.2,2.3-6.2,2.9
	c-1.3,1-2.6,2.3-3.6,3.9c-1.3,2-1,4.2-0.3,6.5C148.9,17.9,149.8,17.6,149.8,17.3L149.8,17.3z M151.2,20.9c4.6,4.6,12.1,1.6,16.3-2
	c0.7-0.7-0.3-1.3-1-1c-3.9,3.6-10.1,5.9-14.7,2.3C151.2,19.9,150.5,20.5,151.2,20.9L151.2,20.9z M151.5,17.9c1.3-1,2.3-2,3.6-2.6
	c2-0.7,3.9-0.3,5.9,0.3c1,0.3,5.2,2,5.5,2.6c0.3,0.7,1.3,0.3,1.3-0.3c-0.3-1.6-5.2-2.9-6.5-3.6C157,13,154.1,14,151.2,17
	C150.5,17.6,151.2,18.3,151.5,17.9L151.5,17.9z M148.9,20.9c-2,6.2,3.9,11.7,9.1,13.7c0.7,0.3,1-1,0.3-1.3c-4.9-2-9.8-6.5-8.5-12.4
	C149.8,20.5,149.2,20.5,148.9,20.9L148.9,20.9z M151.8,20.2c1.6,1,3.3,1.3,4.6,2.9c1,1.6,1.3,3.6,1.6,5.2c0,1.3,0,2.3,0,3.6
	c0,0.7-0.3,2-0.3,2c-0.7,0.3,0,1.3,0.7,1c1.3-1,0.7-5.9,0.3-7.2c-0.7-4.6-2.6-7.2-6.8-8.5C151.8,19.2,151.5,19.9,151.8,20.2
	L151.8,20.2z M151.5,6.5c1.3-1.6,1.3-4.6,0.3-6.2c0-0.3-0.3-0.3-0.7-0.3c-2,1-2.3,4.9-0.7,6.5c0.7,0.3,1.3-0.3,0.7-0.7
	c-1-1-1.3-3.9,0.3-4.9c-0.3,0-0.3,0-0.7-0.3c1,1.6,0.7,3.6-0.3,5.2C150.5,6.2,151.2,6.8,151.5,6.5L151.5,6.5z M161.6,13
	c2,0,4.2-1.6,5.2-3.6c0-0.3,0-0.7-0.3-0.7c-2.3-1.3-5.5,1-5.5,3.3c0,0.7,1,0.7,1,0c0.3-1.6,2.6-3.6,3.9-2.6c0-0.3,0-0.3-0.3-0.7
	c-0.7,1.6-2.6,2.6-4.2,2.9C160.9,12.1,160.9,13,161.6,13L161.6,13z M161.6,25.8c1,1.6,3.6,2.9,5.5,2.6c0.3,0,0.7-0.3,0.7-0.7
	c0-2.3-3.6-4.2-5.9-2.9c-0.7,0.3,0,1.3,0.3,1c1.3-0.7,4.2,0.3,4.2,2.3c0-0.3,0.3-0.3,0.3-0.7c-1.6,0.3-3.6-1-4.6-2.3
	C161.9,24.8,161.3,25.4,161.6,25.8L161.6,25.8z M149.8,32.6c-1,1.6-1,4.6,0.3,6.2c0.3,0.3,0.3,0.3,0.7,0.3c2-1.3,2-5.2,0-6.5
	c-0.7-0.3-1,0.3-0.7,1c1.3,1,1.6,3.9,0,4.9c0.3,0,0.3,0,0.7,0.3c-1-1.3-1-3.6-0.3-5.2C150.8,32.3,150.2,32,149.8,32.6L149.8,32.6z
	 M137.8,24.1c-2-0.3-4.6,1-5.9,2.6c-0.3,0.3,0,0.7,0.3,0.7c2,1.3,5.5-0.3,5.9-2.6c0-0.7-0.7-1-1-0.3c-0.3,1.6-2.9,2.9-4.6,2
	c0,0.3,0,0.3,0.3,0.7c1-1.6,2.9-2.3,4.6-2.3C138.1,25.1,138.4,24.1,137.8,24.1L137.8,24.1z M139.7,11.4c-0.7-2-3.3-3.6-5.2-3.6
	c-0.3,0-0.7,0.3-0.7,0.7c-0.3,2.3,3.3,4.6,5.2,3.9c0.7-0.3,0.3-1.3-0.3-1c-1.6,0.3-4.2-1-3.9-2.9c-0.3,0.3-0.3,0.3-0.7,0.7
	c1.6,0,3.6,1.3,4.2,2.9C139.1,12.4,139.7,12.1,139.7,11.4L139.7,11.4z M11.9,19.9c39.1-0.3,78.3-0.3,117.4-0.7c1,0,1-1.3,0-1.3
	C90.2,18.3,51,18.3,11.9,18.6C11.3,18.6,11.3,19.9,11.9,19.9L11.9,19.9z M109.1,4.9c-1,2.3,1.3,4.9,2.6,6.2c2.3,2.3,4.9,3.9,8.2,3.6
	c-0.3-0.3-0.3-0.3-0.7-0.7c0,0,0,0,0,0.3c0,0.7,1,1,1.3,0.3c0,0,0,0,0-0.3c0-0.3-0.3-1-0.7-1c-2.6,0-4.9-1-6.8-2.6
	c-1.3-1.3-3.9-3.6-3.3-5.9C110.4,4.6,109.4,4.2,109.1,4.9L109.1,4.9z M109.7,5.2c4.9-0.7,7.8,5.5,9.5,9.1c0.3,0.7,1.3,0,1-0.7
	c-2-3.9-5.2-10.8-10.8-9.5C109.1,4.6,109.1,5.5,109.7,5.2L109.7,5.2z M110.4,31.3c-0.7-2,1.6-4.2,2.9-5.5c2-2,4.2-3.3,6.8-2.9
	c0.3,0,0.7-0.3,0.7-1c0,0,0,0,0-0.3c-0.3-0.7-1.3-0.7-1.3,0.3c0,0,0,0,0,0.3c0.3-0.3,0.3-0.3,0.7-0.7c-3.3,0-5.5,1.3-7.8,3.6
	c-1.6,1.6-3.9,4.2-2.9,6.5C109.7,32.3,110.7,32,110.4,31.3L110.4,31.3z M109.7,32.3c5.2,1.3,8.8-5.5,10.8-9.5c0.3-0.7-0.7-1.3-1-0.3
	c-1.6,3.6-4.6,9.8-9.1,9.1C109.4,31,109.1,32,109.7,32.3L109.7,32.3z M94.4,4.9c-1,2.3,1.3,4.9,2.9,6.5c2.3,2.3,4.9,3.9,8.2,3.6
	c-0.3-0.3-0.3-0.7-0.7-1c0,0,0,0,0,0.3c0,1,1.3,1.3,1.3,0.3c0,0,0,0,0-0.3s-0.3-1-0.7-1c-2.6,0-4.9-1-6.8-2.6
	c-1.3-1.3-3.9-3.6-3.3-5.5C96,4.6,94.7,3.9,94.4,4.9L94.4,4.9z M95.4,5.5c4.6-1,7.8,5.5,9.1,8.8c0.3,0.7,1.6,0,1.3-0.7
	c-2-4.2-5.2-10.8-10.8-9.5C94.1,4.2,94.4,5.5,95.4,5.5L95.4,5.5z M96,31.3c-0.7-2,1.6-4.2,2.9-5.9c2-2,3.9-2.9,6.5-2.6
	c0.3,0,0.7-0.3,0.7-1c0,0,0,0,0-0.3c0-1-1.3-0.7-1.3,0.3c0,0,0,0,0,0.3c0.3-0.3,0.3-0.7,0.7-1c-3.3,0-5.5,1.3-7.8,3.6
	c-1.6,1.6-3.9,4.2-2.9,6.8C95.1,32.6,96.4,32.3,96,31.3L96,31.3z M95.1,32.6c5.5,1,8.8-5.5,10.8-9.8c0.3-0.7-1-1.6-1.3-0.7
	c-1.6,3.3-4.6,9.8-9.1,9.1C94.7,31,94.4,32.3,95.1,32.6L95.1,32.6z M80.1,4.9c-1,2.3,1.3,4.9,2.9,6.5c2.3,2.3,4.9,3.9,8.2,3.6
	c-0.3-0.3-0.3-0.7-0.7-1c0,0,0,0,0,0.3c0,1,1.3,1.3,1.3,0.3c0,0,0,0,0-0.3s-0.3-1-0.7-1c-2.6,0-4.9-1-6.8-2.6
	C83,9.5,80.4,7.2,81,5.2C81.7,4.6,80.4,4.2,80.1,4.9L80.1,4.9z M80.7,5.5c4.6-1,7.8,5.5,9.1,8.8c0.3,0.7,1.6,0,1.3-0.7
	c-2-4.2-5.2-10.8-10.8-9.5C79.7,4.6,80.1,5.9,80.7,5.5L80.7,5.5z M81.4,31.6c-0.7-2,1.6-4.2,2.9-5.9c2-2,3.9-2.9,6.5-2.6
	c0.3,0,0.7-0.3,0.7-1c0,0,0,0,0-0.3c0-1-1.3-0.7-1.3,0.3c0,0,0,0,0,0.3c0.3-0.3,0.3-0.7,0.7-1c-3.3,0-5.5,1.3-7.8,3.6
	c-1.6,1.6-3.9,4.2-2.9,6.8C80.4,32.6,81.7,32.3,81.4,31.6L81.4,31.6z M80.7,32.6c5.5,1,8.8-5.5,10.8-9.8c0.3-0.7-1-1.6-1.3-0.7
	c-1.6,3.3-4.6,9.8-9.1,9.1C80.1,31,79.7,32.3,80.7,32.6L80.7,32.6z M65.4,4.9c-1,2.3,1.3,4.9,2.9,6.5c2.3,2.3,4.9,3.9,8.2,3.6
	c-0.3-0.3-0.3-0.7-0.7-1c0,0,0,0,0,0.3c0,1,1.3,1.3,1.3,0.3c0,0,0,0,0-0.3s-0.3-1-0.7-1c-2.6,0-4.9-1-6.8-2.6
	c-1.3-1.3-3.9-3.6-3.3-5.5C67,4.6,65.7,4.2,65.4,4.9L65.4,4.9z M66.4,5.5c4.6-1,7.8,5.5,9.1,8.8c0.3,0.7,1.6,0,1.3-0.7
	c-2-4.2-5.2-10.8-10.8-9.5C65.1,4.6,65.4,5.9,66.4,5.5L66.4,5.5z M67,31.6c-0.7-2,1.6-4.2,2.9-5.9c2-2,3.9-2.9,6.5-2.6
	c0.3,0,0.7-0.3,0.7-1c0,0,0,0,0-0.3c0-1-1.3-0.7-1.3,0.3c0,0,0,0,0,0.3c0.3-0.3,0.3-0.7,0.7-1c-3.3,0-5.5,1.3-7.8,3.6
	c-1.6,1.6-3.9,4.2-2.9,6.8C66,32.9,67.4,32.3,67,31.6L67,31.6z M66,32.6c5.5,1,8.8-5.5,10.8-9.8c0.3-0.7-1-1.6-1.3-0.7
	c-1.6,3.3-4.6,9.8-9.1,9.1C65.7,31.3,65.4,32.6,66,32.6L66,32.6z M51,5.2c-1,2.3,1.3,4.9,2.9,6.5c2.3,2.3,4.9,3.9,8.2,3.6
	c-0.3-0.3-0.3-0.7-0.7-1c0,0,0,0,0,0.3c0,1,1.3,1.3,1.3,0.3c0,0,0,0,0-0.3s-0.3-1-0.7-1c-2.6,0-4.9-1-6.8-2.6
	C54,9.8,51.4,7.5,52,5.5C52.7,4.6,51.4,4.2,51,5.2L51,5.2z M51.7,5.9c4.6-1,7.8,5.5,9.1,8.8c0.3,0.7,1.6,0,1.3-0.7
	c-2-4.2-5.2-10.8-10.8-9.5C50.7,4.6,51,5.9,51.7,5.9L51.7,5.9z M52.4,31.6c-0.7-2,1.6-4.2,2.9-5.9c2-2,3.9-2.9,6.5-2.6
	c0.3,0,0.7-0.3,0.7-1c0,0,0,0,0-0.3c0-1-1.3-0.7-1.3,0.3c0,0,0,0,0,0.3c0.3-0.3,0.3-0.7,0.7-1c-3.3,0-5.5,1.3-7.8,3.6
	c-1.6,1.6-3.9,4.2-2.9,6.8C51.4,32.9,52.7,32.6,52.4,31.6L52.4,31.6z M51.7,32.6c5.5,1,8.8-5.5,10.8-9.8c0.3-0.7-1-1.6-1.3-0.7
	c-1.6,3.3-4.6,9.8-9.1,9.1C51,31.3,50.7,32.6,51.7,32.6L51.7,32.6z M36.4,5.2c-1,2.3,1.3,4.9,2.9,6.5c2.3,2.3,4.9,3.9,8.2,3.6
	c-0.3-0.3-0.3-0.7-0.7-1c0,0,0,0,0,0.3c0,1,1.3,1.3,1.3,0.3c0,0,0,0,0-0.3c0-0.3-0.3-1-0.7-1c-2.6,0-4.9-1-6.8-2.6
	c-1.3-1.3-3.9-3.6-3.3-5.5C38,4.9,36.7,4.2,36.4,5.2L36.4,5.2z M37.4,5.9c4.6-1,7.8,5.5,9.1,8.8c0.3,0.7,1.6,0,1.3-0.7
	c-2-4.2-5.2-10.8-10.8-9.5C36,4.6,36.4,5.9,37.4,5.9L37.4,5.9z M38,31.6c-0.7-2,1.6-4.2,2.9-5.9c2-2,3.9-2.9,6.5-2.6
	c0.3,0,0.7-0.3,0.7-1c0,0,0,0,0-0.3c0-1-1.3-0.7-1.3,0.3c0,0,0,0,0,0.3c0.3-0.3,0.3-0.7,0.7-1c-3.3,0-5.5,1.3-7.8,3.6
	c-1.6,1.6-3.9,4.2-2.9,6.8C36.7,32.9,38,32.6,38,31.6L38,31.6z M37,32.9c5.5,1,8.8-5.5,10.8-9.8c0.3-0.7-1-1.6-1.3-0.7
	c-1.6,3.3-4.6,9.8-9.1,9.1C36.4,31.3,36,32.6,37,32.9L37,32.9z M22,5.2c-1,2.3,1.3,4.9,2.6,6.2c2.3,2.3,4.9,3.9,8.2,3.6
	c-0.3-0.3-0.3-0.3-0.7-0.7c0,0,0,0,0,0.3c0,0.7,1,1,1.3,0.3c0,0,0,0,0-0.3s-0.3-1-0.7-1c-2.6,0-4.9-1-6.8-2.6
	c-1.3-1.3-3.9-3.6-3.3-5.9C23.3,4.9,22.4,4.6,22,5.2L22,5.2z M22.7,5.9c4.9-0.7,7.8,5.5,9.5,9.1c0.3,0.7,1.3,0,1-0.7
	c-2-3.9-5.2-10.8-10.8-9.5C21.7,4.9,22,5.9,22.7,5.9L22.7,5.9z M23.3,32c-0.7-2,1.3-4.2,2.6-5.5c2-2,4.2-3.3,6.8-2.9
	c0.3,0,0.7-0.3,0.7-1c0,0,0,0,0-0.3c-0.3-0.7-1.3-0.7-1.3,0.3c0,0,0,0,0,0.3c0.3-0.3,0.3-0.3,0.7-0.7c-3.3,0-5.5,1.3-7.8,3.6
	C23.3,27.4,21,30,22,32.3C22.4,32.9,23.3,32.6,23.3,32L23.3,32z M22.7,32.6c5.2,1.3,8.8-5.5,10.8-9.5c0.3-0.7-0.7-1.3-1-0.3
	c-1.6,3.6-4.6,9.8-9.1,9.1C22,31.6,21.7,32.6,22.7,32.6L22.7,32.6z M20.7,18.6c-2.3-2.9-7.8-2.6-11.1-2.3c-2.3,0.3-8.2,0.7-9.5,2.6
	c-1.3,2.3,4.9,2.9,5.9,3.3c5.5,1,10.1,0.3,14.7-2.3c1-0.3,0-1.6-0.7-1.3c-3.9,2.3-7.8,2.9-12.4,2.6c-1,0-2-0.3-2.9-0.3
	c-0.7,0-3.9-0.7-2.6-1c4.6-1.6,14-4.2,17.6-0.3C20.4,19.9,21.4,19.2,20.7,18.6L20.7,18.6z M287.5,18.6c-39.1-0.3-78.3-0.3-117.4-0.7
	c-1,0-1,1.3,0,1.3c39.1,0.3,78.3,0.3,117.4,0.7C288.4,19.9,288.4,18.6,287.5,18.6L287.5,18.6z M189.3,5.2c0.7,2-1.6,4.2-2.9,5.5
	c-2,2-4.2,2.9-7.2,2.9c-0.3,0-0.7,0.3-0.7,1c0,0,0,0,0,0.3c0.3,0.7,1.3,0.7,1.3-0.3c0,0,0,0,0-0.3c-0.3,0.3-0.3,0.3-0.7,0.7
	c3.3,0,5.9-1.3,7.8-3.3c1.6-1.6,3.9-4.2,2.9-6.5C190.3,4.2,189.3,4.6,189.3,5.2L189.3,5.2z M190,4.2c-5.2-1.3-8.8,5.5-10.8,9.5
	c-0.3,0.7,0.7,1.3,1,0.7c1.6-3.6,4.6-9.8,9.5-9.1C190.3,5.5,190.6,4.6,190,4.2L190,4.2z M190.3,31.6c1-2.3-1.3-4.9-2.6-6.2
	c-2.3-2.3-4.9-3.9-8.2-3.9c0.3,0.3,0.3,0.3,0.7,0.7c0,0,0,0,0-0.3c0-0.7-1-1-1.3-0.3c0,0,0,0,0,0.3c0,0.3,0.3,1,0.7,1
	c2.6,0,4.9,1,6.8,2.6c1.3,1.3,3.9,3.6,3.3,5.9C189,32,190,32.3,190.3,31.6L190.3,31.6z M189.6,31.3c-4.6,0.7-7.8-5.5-9.1-9.1
	c-0.3-0.7-1.6-0.3-1,0.3c1.6,3.9,5.2,10.8,10.8,9.5C190.6,32,190.3,31,189.6,31.3L189.6,31.3z M203.6,5.2c0.7,2-1.6,4.2-2.9,5.2
	c-2,2-4.2,2.9-7.2,2.9c-0.3,0-0.7,0.3-0.7,1c0,0,0,0,0,0.3c0,1,1.3,0.7,1.3-0.3c0,0,0,0,0-0.3c-0.3,0.3-0.3,0.7-0.7,1
	c3.3,0,5.5-1.3,7.8-3.3c1.6-1.6,3.9-4.2,3.3-6.8C205,3.9,203.3,4.6,203.6,5.2L203.6,5.2z M204.6,4.2c-5.5-1.3-8.8,5.5-10.8,9.5
	c-0.3,0.7,0.7,1.6,1.3,0.7c1.6-3.3,4.6-9.8,9.1-8.8C205,5.5,205.6,4.2,204.6,4.2L204.6,4.2z M205,31.6c1-2.6-1.6-5.2-2.9-6.8
	c-2.3-2.3-4.9-3.6-7.8-3.6c0.3,0.3,0.3,0.7,0.7,1c0,0,0,0,0-0.3c0-1-1.3-1.3-1.3-0.3c0,0,0,0,0,0.3c0,0.3,0.3,1,0.7,1
	c2.6,0,4.9,1,6.5,2.6c1.3,1.3,3.9,3.6,2.9,5.9C203.3,32.3,204.6,32.6,205,31.6L205,31.6z M204,31.3c-4.6,1-7.8-5.5-9.1-9.1
	c-0.3-0.7-1.6,0-1.3,0.7c2,4.2,5.2,10.8,10.8,9.8C205.3,32.3,205,31,204,31.3L204,31.3z M218.3,5.2c0.7,2-1.6,4.2-2.9,5.2
	c-2,2.3-3.9,3.3-6.8,3.3c-0.3,0-0.7,0.3-0.7,1c0,0,0,0,0,0.3c0,1,1.3,0.7,1.3-0.3c0,0,0,0,0-0.3c-0.3,0.3-0.3,0.7-0.7,1
	c3.3,0,5.5-1.3,7.8-3.3c1.6-1.6,3.9-4.2,3.3-6.8C219.3,4.2,218,4.6,218.3,5.2L218.3,5.2z M219.3,4.2c-5.5-1.3-8.8,5.5-10.8,9.5
	c-0.3,0.7,0.7,1.6,1.3,0.7c1.6-3.3,4.6-9.8,9.1-8.8C219.6,5.9,220,4.6,219.3,4.2L219.3,4.2z M219.6,32c1-2.6-1.6-5.2-2.9-6.8
	c-2.3-2.3-4.9-3.6-7.8-3.6c0.3,0.3,0.3,0.7,0.7,1c0,0,0,0,0-0.3c0-1-1.3-1.3-1.3-0.3c0,0,0,0,0,0.3s0.3,1,0.7,1c2.6,0,4.9,1,6.5,2.6
	c1.3,1.3,3.9,3.6,2.9,5.9C218,32.3,219.3,32.6,219.6,32L219.6,32z M218.6,31.3c-4.6,1-7.8-5.5-9.1-9.1c-0.3-0.7-1.6,0-1.3,0.7
	c2,4.2,5.2,10.8,10.8,9.8C220,32.3,219.6,31,218.6,31.3L218.6,31.3z M233,5.5c0.7,2-1.6,4.2-2.9,5.2c-2,2-4.2,2.9-7.2,2.9
	c-0.3,0-0.7,0.3-0.7,1c0,0,0,0,0,0.3c0,1,1.3,0.7,1.3-0.3c0,0,0,0,0-0.3c-0.3,0.3-0.3,0.7-0.7,1c3.3,0,5.5-1.3,7.8-3.3
	c1.6-1.6,3.9-4.2,3.3-6.8C234,4.2,232.7,4.6,233,5.5L233,5.5z M233.6,4.2c-5.5-1.3-8.8,5.5-10.8,9.5c-0.3,0.7,0.7,1.6,1.3,0.7
	c1.6-3.3,4.6-9.8,9.1-8.8C234.3,5.9,234.6,4.6,233.6,4.2L233.6,4.2z M234,32c1-2.6-1.6-5.2-2.9-6.8c-2.3-2.3-4.9-3.6-7.8-3.6
	c0.3,0.3,0.3,0.7,0.7,1c0,0,0,0,0-0.3c0-1-1.3-1.3-1.3-0.3c0,0,0,0,0,0.3c0,0.3,0.3,1,0.7,1c2.6,0,4.9,1,6.5,2.6
	c1.3,1.3,3.9,3.6,2.9,5.9C232.3,32.3,233.6,32.9,234,32L234,32z M233.3,31.3c-4.6,1-7.8-5.5-9.1-9.1c-0.3-0.7-1.6,0-1.3,0.7
	c2,4.2,5.2,10.8,10.8,9.8C234.3,32.6,234,31.3,233.3,31.3L233.3,31.3z M247.3,5.5c0.7,2-1.6,4.2-2.9,5.2c-2,2-4.2,2.9-7.2,2.9
	c-0.3,0-0.7,0.3-0.7,1c0,0,0,0,0,0.3c0,1,1.3,0.7,1.3-0.3c0,0,0,0,0-0.3c-0.3,0.3-0.3,0.7-0.7,1c3.3,0,5.5-1.3,7.8-3.3
	c1.6-1.6,3.9-4.2,3.3-6.8C248.3,4.2,247,4.6,247.3,5.5L247.3,5.5z M248.3,4.6c-5.5-1.3-8.8,5.5-10.8,9.5c-0.3,0.7,0.7,1.6,1.3,0.7
	c1.6-3.3,4.6-9.8,9.1-8.8C248.6,5.9,249,4.6,248.3,4.6L248.3,4.6z M248.6,32c1-2.6-1.6-5.2-2.9-6.8c-2.3-2.3-4.9-3.6-7.8-3.6
	c0.3,0.3,0.3,0.7,0.7,1c0,0,0,0,0-0.3c0-1-1.3-1.3-1.3-0.3c0,0,0,0,0,0.3s0.3,1,0.7,1c2.6,0,4.9,1,6.5,2.6c1.3,1.3,3.9,3.6,2.9,5.9
	C247,32.6,248.3,32.9,248.6,32L248.6,32z M247.7,31.3c-4.6,1-7.8-5.5-9.1-9.1c-0.3-0.7-1.6,0-1.3,0.7c2,4.2,5.2,10.8,10.8,9.8
	C249,32.6,248.6,31.3,247.7,31.3L247.7,31.3z M262,5.5c0.7,2-1.6,4.2-2.9,5.2c-2,2-4.2,2.9-7.2,2.9c-0.3,0-0.7,0.3-0.7,1
	c0,0,0,0,0,0.3c0,1,1.3,0.7,1.3-0.3c0,0,0,0,0-0.3c-0.3,0.3-0.3,0.7-0.7,1c3.3,0,5.5-1.3,7.8-3.3c1.6-1.6,3.9-4.2,3.3-6.8
	C263,4.2,261.7,4.9,262,5.5L262,5.5z M262.7,4.6c-5.5-1.3-8.8,5.5-10.8,9.5c-0.3,0.7,0.7,1.6,1.3,0.7c1.6-3.3,4.6-9.8,9.1-8.8
	C263.3,5.9,263.6,4.6,262.7,4.6L262.7,4.6z M263,32.3c1-2.6-1.6-5.2-2.9-6.8c-2.3-2.3-4.9-3.6-7.8-3.6c0.3,0.3,0.3,0.7,0.7,1
	c0,0,0,0,0-0.3c0-1-1.3-1.3-1.3-0.3c0,0,0,0,0,0.3c0,0.3,0.3,1,0.7,1c2.6,0,4.9,1,6.5,2.6c1.3,1.3,3.9,3.6,2.9,5.9
	C261.4,32.6,262.7,32.9,263,32.3L263,32.3z M262.3,31.6c-4.6,1-7.8-5.5-9.1-9.1c-0.3-0.7-1.6,0-1.3,0.7c2,4.2,5.2,10.8,10.8,9.8
	C263.3,32.6,263,31.3,262.3,31.6L262.3,31.6z M276.7,5.5c0.7,2-1.6,4.2-2.9,5.5c-2,2-4.2,2.9-7.2,2.9c-0.3,0-0.7,0.3-0.7,1
	c0,0,0,0,0,0.3c0.3,0.7,1.3,0.7,1.3-0.3c0,0,0,0,0-0.3c-0.3,0.3-0.3,0.3-0.7,0.7c3.3,0,5.9-1.3,7.8-3.3c1.6-1.6,3.9-4.2,2.9-6.5
	C277.3,4.6,276.4,4.9,276.7,5.5L276.7,5.5z M277.3,4.9c-5.2-1.3-8.8,5.5-10.8,9.5c-0.3,0.7,0.7,1.3,1,0.7c1.6-3.6,4.6-9.8,9.5-9.1
	C277.7,5.9,278,4.9,277.3,4.9L277.3,4.9z M277.3,32.3c1-2.3-1.3-4.9-2.6-6.2c-2.3-2.3-4.9-3.9-8.2-3.9c0.3,0.3,0.3,0.3,0.7,0.7
	c0,0,0,0,0-0.3c0-0.7-1-1-1.3-0.3c0,0,0,0,0,0.3c0,0.3,0.3,1,0.7,1c2.6,0,4.9,1,6.8,2.6c1.3,1.3,3.9,3.6,3.3,5.9
	C276.4,32.6,277.3,32.9,277.3,32.3L277.3,32.3z M276.7,31.6c-4.6,0.7-7.8-5.5-9.1-9.1c-0.3-0.7-1.6-0.3-1,0.3
	c1.6,3.9,5.2,10.8,10.8,9.5C277.7,32.6,277.3,31.6,276.7,31.6L276.7,31.6z M279.6,19.2c3.9-3.9,13-1,17.6,0.3c1.3,0.3-1.3,0.7-1.6,1
	c-1.3,0.3-2.3,0.7-3.6,0.7c-4.6,0.7-8.5-0.3-12.4-2.6c-1-0.3-1.6,0.7-0.7,1.3c4.6,2.6,8.8,3.3,14.3,2.6c0.7,0,7.8-1.3,6.5-3.3
	c-1.3-2-6.2-2.3-8.2-2.6c-3.6-0.7-10.1-1.6-12.7,2C278.3,19.2,279.3,19.9,279.6,19.2L279.6,19.2z"/>
</svg>
