<?xml version="1.0" encoding="utf-8"?>
<!-- Generator: Adobe Illustrator 23.0.3, SVG Export Plug-In . SVG Version: 6.00 Build 0)  -->
<svg version="1.1" id="Layer_1" xmlns="http://www.w3.org/2000/svg" xmlns:xlink="http://www.w3.org/1999/xlink" x="0px" y="0px"
	 viewBox="0 0 300 72.2" style="enable-background:new 0 0 300 72.2;" xml:space="preserve">
<style type="text/css">
	.st0{fill:#3E50B4;}
</style>
<path class="st0" d="M168.9,54.2c21.8-6.1,43.4-9.9,65.9-9.9c16,0,32.4-0.7,47.1-7.9c6.1-2.7,11.9-7.9,14.3-14.3
	c2.4-5.8,3.8-15.7-3.1-19.8c-12.6-7.2-19.5,11.3-4.4,13c0.7,0,0.7-1,0-1c-4.1-0.7-8.5-2-7.9-8.2c3.8-5.1,7.9-5.5,12.6-1.4
	c3.4,2.7,3.4,7.9,3.1,11.9c-1,7.2-6.1,13-12.3,16.7c-10.9,7.2-25.6,8.5-38.2,9.2c-9.9,0.7-20.1,0-30,0.7c-16,1.7-32.1,5.1-47.4,9.9
	C167.9,53.5,168.2,54.5,168.9,54.2L168.9,54.2z M195.2,35.7c-5.1,6.1-12.3,13.3-20.1,15.7c-0.7,0.3-0.3,1.4,0.3,1
	c7.9-2,16-9.9,20.8-16C196.6,35.7,195.5,35,195.2,35.7L195.2,35.7z M187.3,46c3.8-1.4,7.2-3.1,9.6-6.1c2.7-3.8,3.8-9.6,3.8-14
	c0-0.7-1.4-1-1.4-0.3c-1,4.1-1.4,8.2-3.1,12.3s-5.8,5.1-9.2,7.2C186.3,45.3,186.7,46.3,187.3,46L187.3,46z M199.3,25.5
	c-6.1,5.5-10.6,11.3-12.6,19.1c-0.3,1,1.4,1.4,1.7,0.3c1-3.8,2.4-6.8,4.8-10.2c2-3.1,4.8-5.8,7.2-8.5
	C200.7,25.5,199.6,24.8,199.3,25.5L199.3,25.5z M218.7,53.8c-7.2-4.4-15.4-7.5-23.9-7.5c-1,0-1,1.4,0,1.4c8.5,0.3,16,3.1,23.2,7.2
	C219.1,55.2,219.4,54.2,218.7,53.8L218.7,53.8z M205.1,49c2.4-2.7,8.9,0.3,11.3,1.7c2,1.4,3.8,3.4,5.8,4.8c1.7,1,3.8,1.7,5.5,3.1
	c1,0.7,1.7-0.7,0.7-1.4c-2.7-2-6.1-3.4-8.9-5.5c-1.7-1.4-3.8-2.4-5.8-3.4c-2.7-1-7.5-2.7-9.6,0.3C203.7,49,204.8,49.7,205.1,49
	L205.1,49z M227.6,57.2c-7.9,1-20.1,1-22.5-8.5c-0.3-1-1.7-0.7-1.7,0.3c2.4,10.2,15.7,11.3,24.2,9.2
	C228.6,58.3,228.3,56.9,227.6,57.2L227.6,57.2z M235.5,44.3c3.1,1.4,6.5,2.4,9.6,4.1c3.1,1.7,6.1,3.4,8.9,5.1c0.7,0.3,1.4-0.7,0.7-1
	c-5.8-4.1-11.9-6.5-18.4-9.2C235.5,43.2,234.8,43.9,235.5,44.3L235.5,44.3z M243,47.3c7.9-3.1,15,5.8,21.8,7.9
	c0.7,0.3,1.4-1,0.7-1.4c-6.1-2.7-15.7-11.6-22.9-7.9C242,46.6,242.3,47.7,243,47.3L243,47.3z M264.8,54.2
	c-7.9,3.8-17.8,0.7-21.2-7.2c-0.3-0.7-1.7-0.3-1.4,0.7c2.7,8.9,15.7,12.3,23.2,7.9C265.9,54.8,265.5,53.8,264.8,54.2L264.8,54.2z
	 M206.1,45.6c3.8,0,7.5-1.7,10.9-3.1c4.8-2,8.5-4.4,12.3-7.9c0.7-0.3-0.3-1.4-0.7-1c-6.1,4.8-14.3,10.6-22.5,10.9
	C205.4,44.6,205.4,45.6,206.1,45.6L206.1,45.6z M220.5,41.2c3.8,0.7,7.2-1,10.2-3.8c1.7-1.4,3.1-3.4,4.1-5.1c1-1.4,2-4.4,3.4-5.5
	c1-0.7,0-2-0.7-1.4c-1.7,1.4-2.7,4.1-4.1,6.1c-2.7,4.4-7.2,8.9-13,8.2C220.1,39.8,219.8,40.8,220.5,41.2L220.5,41.2z M237.5,25.1
	c-2.4,1-4.8,1.4-7.2,2.4s-4.4,2.7-6.5,4.1c-2.7,2-5.1,4.8-4.1,8.5c0.3,1,1.7,0.7,1.4-0.3c-0.7-4.4,3.1-6.5,6.1-8.9
	c1.7-1.4,3.8-2.4,5.5-3.1s3.4-1,5.1-1.7C238.5,26.2,238.2,25.1,237.5,25.1L237.5,25.1z M242.6,44.3c3.8,0,6.5-2,9.6-3.8
	c3.4-2,7.2-4.4,9.6-7.9c0.7-0.7-0.3-1.4-1-1c-2.7,2.4-5.5,4.8-8.5,6.8c-3.1,2-6.1,4.4-9.9,4.4C242,42.9,242,43.9,242.6,44.3
	L242.6,44.3z M252.9,39.1c3.1,2.4,7.2-1,9.2-3.4c1.4-1.4,2.4-2.7,3.4-4.4c1.7-3.4,1-7.2,3.1-10.2c0.3-1-1-1.7-1.4-0.7
	c-2,3.8-1.4,8.5-3.8,12.3c-1.7,2.7-6.5,7.9-9.9,5.8C252.9,37.8,252.5,38.8,252.9,39.1L252.9,39.1z M267.6,19.3
	c-3.4,1.7-7.2,3.8-9.2,6.8c-2.4,3.4-6.5,7.9-6.5,12.3c0,1,1.4,1,1.4,0c0.3-4.1,3.4-7.5,5.8-10.9c2-3.4,5.8-5.5,9.2-7.5
	C268.9,20,268.6,19,267.6,19.3L267.6,19.3z M271.7,40.5c5.5,0.3,10.6,1,15.7,2c0.7,0.3,1-1,0.3-1.4c-5.1-1.7-10.9-2.4-16-2
	C271,39.5,271,40.5,271.7,40.5L271.7,40.5z M276.8,40.2c1.4,4.1,6.8,6.1,10.6,6.8c3.4,0.7,9.6,1.4,12.3-1.4c0.7-0.7,0-1.4-0.7-1
	c-5.5,3.1-18.1,1.7-20.8-4.8C277.5,39.1,276.4,39.5,276.8,40.2L276.8,40.2z M299.6,44.3c-3.1-1.4-5.1-3.4-8.9-4.4
	c-3.8-1-8.2-1.4-11.9,0c-0.7,0.3-0.3,1.4,0.3,1.4c4.4-1,8.2-0.7,12.3,0.3c3.1,0.7,4.8,3.1,7.5,3.8C300,45.3,300.3,44.3,299.6,44.3
	L299.6,44.3z M151.8,49c1-5.1,2-10.2,5.1-14.3c2.4-2.7,8.9-3.8,9.2,1c0.3,2.4-1,5.5-2,7.5c-3.4,8.2-9.2,15.4-13,23.2
	c-0.3,1,0.7,1.7,1.4,0.7c3.4-6.5,7.5-12.6,10.9-19.1c1.7-3.4,5.8-10.2,3.8-14.3c-1.7-3.4-6.1-3.1-9.2-1.7
	c-5.5,2.4-6.8,11.9-7.5,17.1C150.5,49.4,151.8,50.1,151.8,49L151.8,49z M151.8,48.7c-0.3-4.1-3.1-7.9-6.1-10.2
	c-2-1.4-6.8-3.8-8.5-0.3c-5.1,10.2,9.6,21.5,14.3,29c0.3,0.7,1.7,0,1-0.7c-3.1-5.8-8.5-10.2-11.9-15.7c-1-1.7-2-3.8-2.7-5.8
	c-0.7-2.4-1.4-9.2,5.8-5.8c3.4,1.7,6.1,6.1,6.8,9.9C150.8,49.7,151.8,49.4,151.8,48.7L151.8,48.7z M141.6,60.3
	c-3.8,0-11.6,8.2-7.2,11.6c3.1,2.4,7.2-8.9,7.9-10.9c0.3-0.7-1-1-1.4-0.3c-0.7,1.7-1.4,3.4-2,4.8c-0.7,1.7-1.7,3.8-3.4,5.1
	c-1,0.7-1-1.4-1-1.7c0.3-1.4,1-2.4,1.7-3.4c1.4-1.7,3.1-3.4,5.5-3.8C142.3,61.3,142.3,60.3,141.6,60.3L141.6,60.3z M163.1,61.7
	c2,0.3,3.8,2,5.1,3.4c1,1,1.7,2,2,3.4c0.3,0.7,0.3,2.7-0.7,2.4c-1.7-0.7-2.7-3.4-3.4-4.8c-0.7-1.7-1.7-3.4-2.4-5.1
	c-0.3-0.7-1.7-0.3-1.4,0.3c1,2.7,2,5.1,3.4,7.5c0.7,1.4,2.4,4.1,4.4,3.1c2.4-1.4,0.7-5.1-0.3-6.8c-1.4-2-4.1-4.8-6.8-4.8
	C162.8,60.3,162.4,61.3,163.1,61.7L163.1,61.7z M151.5,37.1c2.4-3.4,3.1-12.3-1.4-14.3c-2-1-3.1,1.7-3.1,3.1
	c-0.3,3.8,2,7.9,3.4,11.3C150.8,38.1,152.2,37.8,151.5,37.1c-0.3-2.4-1-4.1-1.7-6.1c-0.3-0.7-0.3-1.7-0.7-2.4c0-0.3-0.3-1-0.3-1.4
	c-0.3-1.4,0-2,1.7-2.4c2.4,2.4,1.7,8.9,0,11.6C149.8,37.1,150.8,37.8,151.5,37.1L151.5,37.1z M131.4,53.1c-14.7-4.8-30-7.9-45.4-9.6
	c-10.2-1-20.1-0.7-30.4-1c-13-0.3-26.6-2-38.2-8.5C10.9,30.6,6.4,25.1,4,18.3C2,11.5,4.4,3,12.6,1.9c10.2-1,6.5,9.9,1.4,11.6
	c-0.7,0.3-1.7,0.3-2.4,0.7c-0.7,0-0.7,1.4,0,1c15-1.7,7.9-20.1-2.7-14c-16,9.2-1.4,29,9.6,34.8c13.7,7.2,30.7,7.9,45.7,7.9
	c23.2,0,45.1,3.4,67.2,9.9C131.7,54.5,132,53.5,131.4,53.1L131.4,53.1z M104.1,36.4c4.8,6.1,12.6,14.3,20.8,16c0.7,0.3,1-1,0.3-1
	c-7.9-2.4-15-9.6-20.1-15.7C104.4,35,103.7,35.7,104.1,36.4L104.1,36.4z M113.3,44.9c-3.4-2.4-7.2-3.1-9.2-7.2
	c-2-3.8-2-8.2-3.1-12.3c-0.3-0.7-1.4-0.7-1.4,0.3c0,4.8,1.4,9.9,3.8,14c2,3.4,6.1,5.1,9.6,6.1C113.6,46.3,114,45.3,113.3,44.9
	L113.3,44.9z M100,26.2c2.4,3.1,5.1,5.5,7.2,8.5c2.4,3.4,3.8,6.5,4.8,10.2c0.3,1,2,0.7,1.7-0.3c-2-7.9-6.5-14-12.6-19.1
	C100.3,24.8,99.6,25.5,100,26.2L100,26.2z M81.9,54.8c7.2-4.1,14.7-6.8,23.2-7.2c1,0,1-1.4,0-1.4c-8.5,0-16.7,3.1-23.9,7.5
	C80.5,54.2,81.2,55.2,81.9,54.8L81.9,54.8z M95.9,48.4C93.5,45.3,89,47,86.3,48c-2,0.7-3.8,2-5.8,3.1c-3.1,2.4-6.1,3.4-9.2,5.8
	c-0.7,0.7,0,2,0.7,1.4c3.1-2,6.1-3.4,9.2-6.1c2.4-2,10.2-6.8,13.3-3.4C95.5,49.7,96.2,49,95.9,48.4L95.9,48.4z M72,58.3
	c8.5,1.7,21.8,1,24.2-9.2c0.3-1-1.4-1.4-1.7-0.3c-2.4,9.6-14.7,9.6-22.5,8.5C71.6,56.9,71.3,58.3,72,58.3L72,58.3z M64.1,43.2
	c-6.5,3.1-12.6,5.5-18.4,9.2c-0.7,0.3,0,1.4,0.7,1c3.1-1.7,5.8-3.8,8.9-5.1c3.1-1.7,6.5-2.7,9.6-4.1C65.1,43.9,64.8,43.2,64.1,43.2
	L64.1,43.2z M57.6,46.3c-7.2-3.8-17.1,5.1-22.9,7.9c-0.7,0.3-0.3,1.4,0.7,1.4c6.8-2,14.3-11.3,21.8-7.9
	C57.6,47.7,58.3,46.6,57.6,46.3L57.6,46.3z M34.8,55.2c7.5,4.4,20.5,1.4,23.2-7.9c0.3-0.7-1-1.4-1.4-0.7
	c-3.8,7.9-13.3,10.9-21.2,7.2C34.8,53.8,34.1,54.8,34.8,55.2L34.8,55.2z M93.8,44.6c-8.2-0.3-16.4-6.1-22.5-10.9
	c-0.7-0.3-1.4,0.7-0.7,1c3.4,3.1,6.8,5.1,10.9,7.2c3.8,1.7,8.2,3.8,12.3,3.8C94.5,45.6,94.5,44.6,93.8,44.6L93.8,44.6z M79.1,39.8
	c-5.5,0.7-9.6-3.4-12.3-7.5c-1.4-2-2.7-5.5-4.8-6.8c-1-0.7-1.7,0.7-0.7,1.4c1.4,1,2.4,4.1,3.4,5.5c1.4,1.7,2.7,3.4,4.1,5.1
	c2.7,2.7,6.5,4.4,10.2,3.8C80.2,40.8,80.2,39.8,79.1,39.8L79.1,39.8z M62.1,26.5c3.1,1.7,6.5,2.4,9.6,4.1c3.4,2,8.2,4.8,7.2,9.6
	c-0.3,1,1,1.4,1.4,0.3c1-3.8-1.4-6.5-4.1-8.5c-2-1.4-4.1-3.1-6.5-4.1c-2-1-4.8-1.4-7.2-2.4C61.7,25.1,61.4,26.2,62.1,26.5L62.1,26.5
	z M57.6,42.9c-3.8-0.3-6.8-2.7-9.9-4.4c-3.1-1.7-5.8-4.4-8.5-6.8c-0.7-0.7-1.4,0.3-1,1c2.7,3.1,6.1,5.8,9.6,7.9
	c3.1,1.7,5.8,3.8,9.6,3.8C58.3,43.9,58.3,42.9,57.6,42.9L57.6,42.9z M46.4,38.1c-3.4,2-7.9-3.4-9.9-5.8c-2.7-3.4-1.7-8.5-3.8-12.3
	c-0.3-1-1.7,0-1.4,0.7c1.7,3.1,1.7,6.8,2.7,10.2c0.7,1.7,2,3.4,3.4,4.8c2,2,6.1,5.8,9.2,3.4C47.7,38.8,47,37.8,46.4,38.1L46.4,38.1z
	 M31.7,20.4c2.7,1.7,5.8,3.4,7.9,5.8c1.4,1.4,2.4,3.4,3.4,4.8c1.7,2.4,3.4,4.4,3.8,7.5c0,1,1.4,1,1.4,0c0-4.4-3.8-8.2-5.8-11.6
	c-2.4-3.4-6.1-6.1-9.9-7.9C31.7,19,31,20,31.7,20.4L31.7,20.4z M28.3,39.5c-5.5,0-10.9,0.3-16,2c-0.7,0.3-0.3,1.4,0.3,1.4
	c5.1-1.4,10.2-2,15.7-2C29,40.5,29.3,39.5,28.3,39.5L28.3,39.5z M22.5,39.8c-2.7,6.5-15.7,7.9-20.8,4.8c-0.7-0.3-1.4,0.7-0.7,1
	c2.7,2.7,8.9,2,12.3,1.4c3.8-0.7,9.2-2.7,10.6-6.8C23.5,39.5,22.5,39.1,22.5,39.8L22.5,39.8z M1,45.3c2.7-0.7,4.8-3.1,7.5-3.8
	c4.1-1,8.2-1.4,12.3-0.3c1,0.3,1-1,0.3-1.4c-3.4-1.4-6.8-1-10.6-0.3c-1.7,0.3-3.4,0.7-5.1,1.4c-1.7,1-3.1,2.4-5.1,3.1
	C-0.4,44.3,0.3,45.3,1,45.3L1,45.3z"/>
</svg>
