<?xml version="1.0" encoding="utf-8"?>
<!-- Generator: Adobe Illustrator 22.1.0, SVG Export Plug-In . SVG Version: 6.00 Build 0)  -->
<svg version="1.1" id="Layer_1" xmlns="http://www.w3.org/2000/svg" xmlns:xlink="http://www.w3.org/1999/xlink" x="0px" y="0px"
	 viewBox="0 0 345.3 20" style="enable-background:new 0 0 345.3 20;" xml:space="preserve">
<style type="text/css">
	.st0{fill:#4BAE4F;}
</style>
<path class="st0" d="M145.7,11.5c0,0,0,0.1,0.1,0.1c-0.1,0-0.1,0-0.2,0.1l-0.1-0.1C145.6,11.6,145.6,11.5,145.7,11.5z M112.3,1
	c-0.1-0.1-0.2-0.1-0.3-0.2c0,0-0.1,0.1-0.2,0.2c0.1,0.1,0.3,0.1,0.4,0.1C112.2,1.1,112.2,1,112.3,1z M150.5,2.4c0-0.1,0-0.2,0-0.2
	s-0.1,0-0.2,0C150.3,2.3,150.4,2.3,150.5,2.4C150.4,2.4,150.5,2.4,150.5,2.4z M68.1,12.2c0,0.1,0,0.1,0,0.2
	C68.1,12.4,68.2,12.4,68.1,12.2c0.1,0,0.1,0,0-0.1C68.2,12.1,68.1,12.1,68.1,12.2z M112.4,11.2c0.1-0.1,0.2-0.1,0.2-0.2
	c-0.1,0-0.2,0-0.3-0.1C112.3,11.1,112.4,11.2,112.4,11.2z M87.9,1.2c0-0.2,0-0.3,0-0.5c-0.1,0.1-0.2,0.2-0.3,0.3
	c0,0.2,0.1,0.3,0.1,0.4C87.8,1.4,87.9,1.4,87.9,1.2z M0,11c0,0.1,0,0.3,0.1,0.5c0.2-0.1,0.4-0.2,0.4-0.3s-0.1-0.3-0.2-0.4
	C0.3,10.9,0,11,0,11z M297.8,10.2c0-0.1,0-0.2,0-0.4c-0.1,0.1-0.2,0.1-0.3,0.2c0,0.1,0.1,0.2,0.1,0.3
	C297.7,10.3,297.8,10.3,297.8,10.2z M299.2,10.5c0-0.1,0-0.2,0-0.2s-0.1,0-0.2,0c0,0.1,0.1,0.1,0.1,0.2H299.2z M264.7,9.3
	c-0.1-0.1-0.1-0.2-0.2-0.2s-0.2,0-0.4,0c0.1,0.1,0.1,0.2,0.2,0.3C264.6,9.4,264.6,9.4,264.7,9.3z M263.8,9.3c-0.1,0-0.1,0.1-0.2,0.1
	v0.1c0.1,0,0.2,0,0.2,0C263.8,9.4,263.8,9.3,263.8,9.3z M170.3,3.1L170.2,3c0,0.1-0.1,0.1-0.1,0.2c0,0,0,0.1,0.1,0.1
	C170.2,3.2,170.3,3.1,170.3,3.1z M159.4,2.4c-0.1-0.1-0.1-0.2-0.2-0.2c-0.1,0-0.2,0-0.2,0c0,0.1,0,0.2,0,0.3
	C159.3,2.4,159.4,2.4,159.4,2.4z M177.4,3.7c0-0.1,0-0.2,0-0.2s-0.1,0-0.2,0C177.2,3.6,177.3,3.6,177.4,3.7L177.4,3.7z M270.6,9.8
	L270.6,9.8c0-0.1,0-0.1,0-0.1l0,0l-0.1,0.1C270.5,9.8,270.5,9.8,270.6,9.8L270.6,9.8z M271.3,11.1c0-0.1,0-0.1,0-0.2
	c-0.1,0.1-0.1,0.2-0.2,0.4C271.1,11.1,271.2,11.1,271.3,11.1z M180.1,3.9L180.1,3.9C180.1,3.8,180.1,3.8,180.1,3.9
	c-0.1-0.1-0.1,0-0.1,0V4C180.1,4,180.1,4,180.1,3.9L180.1,3.9z M345.3,11.2c-0.5,0.4-0.7,1.1-1.3,1.3c-0.2,0.1-0.4,0.1-0.6,0
	c-0.3-0.1-0.5-0.1-0.8,0.1c-0.3,0.2-0.5,0.5-0.8,0.6c-0.2,0.1-0.5-0.1-0.8,0.3c-0.2,0.3-0.9-0.1-1.4,0.1c-0.3,0.1-0.7,0-0.8,0.2
	c-0.2,0.3-0.4,0.6-0.9,0.4c-0.6-0.2-0.9,0.1-0.9,0.6c0,0.4-0.3,0.5-0.6,0.7c-0.3,0.2-0.6,0.4-0.8-0.1c-0.9,0.3-1.8-0.1-2.7,0
	c-0.9,0.1-1.8,0.4-2.8,0.1c-0.4,0.3-1.2,0.1-1.4,0.8c0,0.1-0.2,0.2-0.3,0.2c-0.1,0-0.3-0.1-0.4-0.1c-0.4,0.4-1-0.1-1.3,0.1
	s-0.4,0.7-0.6,1c-0.3,0.5-0.8,0.3-1.2,0.2c-0.3-0.1-0.5-0.2-0.8-0.3c0,0.6-0.6,0.2-0.7,0.5s-0.2,0.4-0.5,0.3c-0.8-0.3-1.5,0-2.2,0.2
	c-0.5,0.1-0.9,0.4-1.4,0.6c-0.2,0.1-0.4,0.1-0.6,0.2c0.1,0.2,0.4,0.4-0.1,0.4c-0.3,0-0.6-0.1-0.8-0.1c-0.3,0-0.6,0.2-0.9,0.2
	c-0.2,0-0.4-0.1-0.5-0.2c-0.3-0.4-0.3-0.2-0.4,0.1c0,0-0.2,0.1-0.3,0c-0.6-0.4-1.3-0.7-2-0.2c-0.1,0-0.2,0.1-0.2,0.1
	c-0.4-0.1-0.9-0.4-1.1,0.3c-1.1-0.3-2.1,0.4-3.2-0.1c-0.4-0.2-0.9-0.3-1.3,0.1c-0.2,0.2-0.3-0.1-0.4-0.2c-0.1-0.5-0.5-0.2-0.9-0.2
	c0.2,0.2,0.2,0.3,0.3,0.5c-0.2,0-0.4,0-0.5,0s-0.2-0.1-0.2-0.1c-0.3-0.8-1-0.5-1.4-0.4c-1,0.3-1.8,0-2.7-0.2
	c-0.2-0.5-0.7-0.2-0.9-0.2c-0.5,0.2-0.9,0.1-1.4-0.2c-0.1-0.1-0.5,0-0.7,0c-0.1,0-0.1-0.3-0.1-0.5c-0.1,0.1-0.2,0.3-0.3,0.3
	c0,0-0.2,0-0.3-0.1c-0.6-0.7-0.6-0.7-1.4,0c-0.3,0.3-0.3-0.3-0.5-0.2c-0.3,0.2-0.7,0.3-0.8,0.6c-0.2,0.8-0.7,0.7-1.2,0.7
	c-0.4,0-0.8,0-1.2,0c-0.4,0-0.3-0.3-0.2-0.6c0.1,0,0.2,0,0.2,0s0-0.1,0-0.2c-0.1,0-0.1,0.1-0.2,0.2c-0.2,0.1-0.5-0.2-0.6,0.1
	c-0.1,0.8-0.7,0.7-1.2,0.6s-1-0.2-1.5-0.3c-0.3,0-0.6,0-0.9,0.1c-0.1-0.7-0.7-0.4-1.1-0.5c-0.3,0-0.6,0.2-0.5-0.3
	c0,0-0.2-0.2-0.3-0.2c-0.2,0-0.3,0.2-0.5,0.3c-0.1,0-1.7,0.3-1.8,0.4c-0.3,0-0.7,0-0.9,0.2c-0.6,0.4-1.4-0.1-1.9,0.7
	c-0.4-0.4-1.1,0.5-1.4-0.3c-0.5,0-1-0.1-1.4,0c-0.6,0.2-1-0.1-1.5-0.2c-0.2,0-0.5-0.7-0.7,0.1c-0.1,0-0.2-0.1-0.2-0.1
	c0.1-0.6-0.1-0.4-0.5-0.3c-0.4,0.2-0.9,0.3-1.3,0.2c-0.9-0.1-1.8-0.2-2.7-0.3c-0.3,0-0.5,0-0.8,0c-0.6,0-1.3,0.5-1.9-0.1
	c-0.7,0.2-1.4,0.1-2-0.4c-0.1,0-0.2,0-0.3,0c-0.5,0.3-1.1,0.7-1.6,0c0-0.1-0.3,0.1-0.5,0.1c-0.1,0-0.4-0.2-0.4-0.3
	c0-0.5,0-0.4-0.3-0.1s-1,0.5-1.4,0.5c-0.6,0-1.2-0.4-1.9-0.1c-0.1-0.6-0.9,0.2-1-0.4c-0.1,0-0.4,0-0.4,0.1c-0.3,0.4-0.6,0.7-1,0.1
	c-0.2-0.2-0.4-0.3-0.5-0.1c-0.4,0.9-0.6-0.1-0.9-0.1c0,0,0,0,0.1,0c0-0.1,0-0.2,0-0.2s-0.1,0-0.2,0c0,0.1,0.1,0.1,0.1,0.2
	s-0.1,0.2-0.2,0.2c-0.6-0.1-1.2-0.3-1.8-0.4c-0.1,0-0.1-0.2-0.1-0.3c0.1,0,0.1,0,0.2,0c0,0,0-0.1,0-0.2c-0.1,0-0.1,0.1-0.2,0.1
	c-0.5,0.1-0.8,1-1.4,0.4c-0.1,0.7-0.7,0.3-1.1,0.4c-0.3,0.1-0.8,0-1-0.2c-0.4-0.5-0.5-0.2-0.8,0.1c-0.2,0.3-0.6,0.5-0.9,0
	c-0.6,0-1.1-0.1-1.7,0c-0.4,0.1-0.4-0.2-0.6-0.3c-0.2-0.1-0.5,0.3-0.7,0.3c-0.3,0-0.6,0-0.8-0.2c-0.6-0.4-1.1-0.7-1.7-0.1
	c-0.9-0.3-2,0-2.6-1c-0.1-0.1-0.3-0.2-0.4-0.1c-0.5,0.3-1,0.5-1.7,0.4c-0.3,0-0.4,0.6-0.8,0.4c-0.1,0-0.4,0.1-0.5,0.1
	c-0.2-0.1-0.3-0.3-0.5-0.4c0,0.2,0,0.5-0.1,0.5c-0.4,0.1-0.9,0.2-1.3,0.1c-0.8-0.3-1.5-0.1-2.3-0.1c-0.6,0-0.3-0.1-0.3-0.4
	c0-0.5-0.1-0.6-0.5-0.3c-0.5,0.3-0.1,0.3,0.1,0.4c0.1,0,0,0.2,0,0.4c-0.1,0-0.2,0-0.3,0c-0.5-0.3-1.9-0.6-2.3-0.7
	c-0.3-0.1-0.5-0.4-0.8-0.4s-0.6,0.4-0.8,0.3c-0.6-0.1-1.2,0.2-1.7-0.3c-0.4-0.3-1.1-0.4-1.7-0.1c-0.4,0.2-0.7,0.3-0.9-0.2
	c0-0.1-0.2-0.1-0.3-0.1c-0.4,0-0.8,0.1-1.2,0c-0.3-0.1-0.6-0.4-0.9-0.5c-0.5-0.1-1-0.3-1.4,0.1c-0.1,0.1-0.6,0.1-0.8,0
	c-0.4-0.4-1-0.2-1.4-0.3c-0.5,0-0.9,0.2-1.3-0.3c-0.1-0.1-0.5,0-0.8,0c-0.2,0-0.4,0-0.4-0.3c0.2-0.1,0.4-0.2,0.5-0.2
	c0-0.1-0.1-0.2-0.1-0.2c-0.1,0-0.3,0.1-0.4,0.3c-0.4,0.1-0.7,0.1-1,0s-0.4,0-0.5,0.3s-0.3,0.2-0.5,0c-0.1-0.1-0.3-0.2-0.4-0.3
	c-0.4,0.8-1.4,0-1.8,0.7c0,0-0.2,0-0.3,0c-0.4,0.1-0.5-0.8-1-0.3c-0.3,0.3-0.7,0.2-1,0.2s-0.5,0.1-0.8,0.1c-0.4-0.1-1-0.5-1.3,0.2
	c-0.5-0.2-1,0.1-1.6-0.3c-0.2-0.2-0.6-0.6-1.1-0.4c-0.3,0.1-0.8,0-1.1-0.4c-0.1-0.1-0.2-0.2-0.3-0.2c-0.9,0.1-1.1,0.1-2-0.2
	c-0.4-0.1-0.9-0.3-1.3,0.1c-0.1,0.1-0.1,0.1-0.2,0.1c-0.2-0.8-0.9,0.1-1.1-0.3c-0.3-0.5-0.6-0.3-0.9,0c-0.4,0.3-0.8,0.4-1.3,0.2
	c-0.8-0.5-1.5,0.3-2.2,0.1c-0.4,0.3-0.9,0.1-1.2-0.1c-0.5-0.3-0.9-0.6-1.4-0.3c-0.1,0-0.3-0.2-0.6-0.4c0,0,0,0,0.1,0
	c0-0.1,0-0.2,0-0.2s-0.1,0-0.2,0c0,0.1,0.1,0.1,0.2,0.2c-0.6,0.2-1,0.1-1.4,0.1c-0.7,0-1.5-0.3-2.2,0c-0.8,0.4-1.3,0-1.9-0.5
	c-0.2-0.2-0.5-0.5-1-0.2c-0.8,0.6-1.9,0.2-2.8,0.4c0,0-0.1-0.1-0.1-0.2c0-0.1,0-0.2-0.1-0.4c-0.1,0.1-0.1,0.1-0.2,0.2
	c-0.8,0.9-1,0.9-1.9,0.2c-0.3-0.2-0.4-0.5-0.6,0.1c0,0-0.3,0.1-0.4,0c-0.2-0.4-0.4-0.2-0.6-0.2c-0.2,0-0.6-0.4-0.8-0.3
	c-0.2,0.1-0.4,0.3-0.7,0.4c-0.9,0.2-1.8-0.2-2.6,0.2c-0.5-1-1,0.3-1.5,0.1c-0.2-0.1-0.5,0.2-0.7-0.2s-0.4-0.6-0.6,0
	c0,0.1-0.4,0-0.6-0.1c-0.3-0.1-0.6-0.5-0.8-0.4c-0.4,0.2-0.6,0.1-0.9,0c-0.3-0.1-0.7,0.5-0.9-0.1c-0.2-0.5-0.7,0.3-0.9-0.2
	c-0.5,0-0.9,0-1.4,0c-0.1,0.7-0.6,0.2-0.9,0.2c-0.4,0-0.8-0.6-1.3-0.1c0,0-0.4-0.3-0.6-0.3c-0.7,0.2-1.2,0.1-1.6-0.6
	c-0.1-0.3-0.6,0-0.6,0.4s-0.4,0.4-0.4,0.4c-0.5-0.8-1.4,0-2-0.4c-0.6-0.3-1.3-0.6-2-0.3c-0.1,0-0.2-0.2-0.4-0.2
	c-0.4,0-0.7-0.5-1.3-0.3c-0.4,0.2-1-0.2-1.2,0.5l-0.1,0.1c0,0-0.1,0-0.1-0.1c0,0,0-0.1-0.1-0.1c-0.4,0-0.8-0.1-1.2-0.1
	c-0.1,0-1.4-0.3-1.4-0.3c-0.4,0.6-0.8,0-1.2-0.1c-0.5-0.1-1.1-0.3-1.6,0c-0.7,0.3-1.3,0-1.9-0.2c-0.3-0.1-0.4-0.7-0.3-1.2
	c0-0.1-0.1-0.2-0.2-0.3c-0.1,0.1-0.3,0.1-0.4,0.2v0.1c-0.1,0.6-0.3,0.3-0.5,0c0-0.1-0.4,0-0.4,0.1c-0.1,0.2-0.1,0.5-0.2,0.7
	c-0.3,0.6-0.9,0.9-1.4,0.4c-0.4-0.4-0.6-0.3-0.9-0.1c-0.4,0.2-0.7,0.7-1.1,0c-0.1-0.1-0.5-0.1-0.6,0c-0.4,0.1-0.6,0.1-0.9-0.2
	c-0.4-0.4-0.3,0.1-0.3,0.2c0,0.1,0,0.3,0,0.4c-0.1,0-0.2-0.1-0.4-0.2c-0.1-0.1-0.2-0.2-0.3-0.3c-0.4,0-0.2-0.8-0.7-0.6
	s-0.5-0.2-0.8-0.3c-0.5-0.2-0.8,0.1-1.3,0.2c0,0.8-0.5,0.6-1,0.4c-0.7-0.3-1.2-0.2-1.6,0.4c-0.1,0.1-0.6,0.7-0.5-0.2
	c-0.1,0-0.2-0.1-0.3,0c-0.4,0.4-0.8,0.2-1.2,0.1c-0.6-0.1-1.1-0.5-1.8-0.2c-0.2,0.1-0.5,0.1-0.7,0.2c0-0.3,0.1-0.5,0.1-0.8
	c0-0.1,0-0.2,0-0.3c-0.1,0.1-0.2,0.1-0.2,0.2c-0.3,0.2-0.5,0.5-0.8,0.7c-0.1,0.1-0.2,0.1-0.3,0.1c0-0.1,0-0.2,0-0.3
	s-0.1-0.1-0.2-0.1c0,0.6-0.6,0.3-0.8,0.5c-0.4,0.2-0.6-0.2-0.9-0.4c-0.2-0.1-0.5-0.1-0.6,0c-0.3,0.1-0.6,0.5-0.6-0.2
	c-0.5,0.2-0.7-0.2-1.1-0.3c-0.1-0.1-0.4,0.2-0.6,0.3c-0.1,0.1-0.2,0.3-0.2,0.3c-1-0.4-1.9,0.5-2.9,0.3c-0.3-0.1-0.6,0-0.9,0.1
	c-0.5,0.1-1,0.5-1-0.4c0,0-0.2,0-0.3,0c-0.4,0.1-0.8,0.3-1.3,0.4c-0.4,0-0.9-0.3-1.3,0c-0.1,0.1-0.4-0.2-0.6-0.3
	c-0.4-0.1-0.8-0.3-1.2-0.4l-0.1,0.2c0.1,0.1,0.2,0.2,0.3,0.3c-0.1,0-0.3,0-0.4,0c-0.2,0-0.5-0.1-0.7-0.2c0-0.1,0-0.2,0-0.3
	c-0.1,0.1-0.2,0.1-0.2,0.2c-0.2-0.5-0.8-0.2-1.1-0.5h-0.2c0.1,1-0.7,0.5-1.1,0.6c-0.3,0.1-0.7,0.2-1,0.2s-0.7,0-0.8-0.2
	c-0.4-0.9-0.9-0.4-1.3-0.1l-0.2-0.1c0.1-0.6-0.2-0.3-0.4-0.2c-0.1,0.1-0.2,0.3-0.2,0.5c-0.1,0.3-0.4,0.4-0.5,0.2
	c-0.4-0.7-1-0.3-1.4-0.2c-0.5,0.1-1,0.4-1.5-0.1c-0.2-0.2-0.7,0-1,0c-0.4,0-0.7-0.2-1.1-0.2c-0.1,0-0.6,0-0.4,0.5
	c0.1,0.2-0.4,0.3-0.4-0.1c0-0.6-0.1-0.3-0.4-0.2c-0.1,0-0.3-0.6-0.4,0c-0.6,0.1-1.2,0.1-1.7-0.1c0,0,0-0.1,0-0.2c0,0,0,0,0,0.1
	c0.1,0,0.2,0,0.2,0s0-0.1,0-0.2c-0.1,0-0.1,0.1-0.2,0.2c-0.6-0.1-1.2-0.3-1.9-0.1c-0.2,0.1-0.3,0.2-0.5,0.3
	c-0.3,0.2-0.8,0.4-1.2,0.2c-0.1,0-0.1-0.2-0.1-0.2c0.4-0.3,0-0.4-0.1-0.4c-0.5,0.4-1.1,0.3-1.7,0.5c-1.1,0.4-1.2,0.4-2,0.1
	c-0.9-0.3-1.6,0.2-2.5,0.2c-0.3,0-0.3-0.1-0.2-0.3c0.1-0.4,0-0.6-0.4-0.6c-0.3,0-0.6-0.2-0.7,0.3c0,0.1-0.3,0.3-0.3,0.3
	c-0.5-0.2-0.4,0.9-1,0.4c0,0,0,0,0.1,0c0-0.1,0-0.2,0-0.2s-0.1,0-0.2,0c0,0.1,0.1,0.1,0.2,0.2c-0.4,0.4-0.8,0.1-1.3-0.1
	c0,0,0-0.2,0-0.3c0-0.2,0-0.4,0-0.5c-0.1,0.1-0.2,0.3-0.3,0.4c-0.2,0.3-0.6,0.4-1,0.2l-0.1-0.1c-0.3-0.1-0.6-0.2-1-0.2
	c-0.6-0.1,0.2,0.5-0.2,0.5c-0.6,0-1.4,0.3-1.9,0s-0.8,0.7-1.3,0c-0.3-0.4-0.7-0.4-1.2-0.2c-0.3,0.1-0.7-0.3-0.8,0.3
	c-0.1-0.1-0.2-0.1-0.3-0.2c-0.1-0.1-0.3-0.2-0.3-0.1c-0.3,0.5-0.9,0-1.3,0.3c-0.1,0.1-0.3,0.1-0.4,0.1c-1.4-0.5-2.8,0.3-4.1-0.1
	c-0.7,0.4-1.4-0.2-2.1,0.1c-0.3,0.1-0.7-0.1-1,0.2c0.2,0.2-0.1,0.2-0.2,0.2c-0.2-0.7-0.8-0.3-1-0.2c-0.5,0.2-0.9,0-1.3-0.1
	c-0.1,0-0.2-0.2-0.2-0.4c0-0.3-0.2-0.3-0.3-0.1c-0.2,0.1-0.3,0.4-0.4,0.5c-0.2,0.1-0.4,0.2-0.6,0.2c-1.1,0-2.1-0.1-3.2-0.2
	c-0.4,0-0.7,0.1-0.9,0.3c-0.3,0.5-0.7-0.2-1,0.1c-0.2-0.5-0.6-0.3-1-0.2s-0.9,0.3-1.3,0.2c-0.5-0.2-0.9-0.2-1.3-0.1
	c-0.5,0.2-0.9-0.1-1.3-0.1c-0.4-0.1-0.7-0.2-1,0.2c-0.4,0.4-0.5,0.5-0.6,0.1c-0.1-0.3-0.2-0.4-0.4-0.4c-0.3,0-0.5,0.1-0.8,0
	c-0.2,0-0.3-0.3-0.5-0.3c-0.1,0-0.4,0-0.5,0.1c-0.3,0.3-0.7,0.3-1,0.2c-0.2,0-0.4,0-0.5,0.1c-0.3,0.3-0.7,0.2-1,0.1
	c-0.7-0.2-1.4-0.1-2.1,0.1c-1.2,0.3-2.4,0.4-3.6,0.1c-0.4-0.1-1-0.5-1.3,0.2c-0.2-0.1-0.3-0.3-0.5-0.3s-0.4,0.1-0.6,0.1
	c-0.4-0.1-0.8-0.2-1.2-0.3c-0.1,0-0.4-0.1-0.4-0.1c-0.5,1-1.3,0-1.9,0.2c-0.7,0.3-1.3-0.2-2-0.3c-0.4,0-0.8-0.5-1.1,0
	c-0.3,0.5-0.6,0-1,0.2c-0.9,0.7-2,0.5-3.1,0.6c-1,0-2,0.3-3,0C23,12.9,23,12,22.7,12.3c-0.3,0.2-0.6,0.1-0.9,0.1
	c-0.4-0.1-0.9-0.5-1.1,0.2c0,0-0.3,0-0.4,0c-0.5-0.1-0.9-0.2-1.4-0.3c-0.3-0.1-0.6-0.2-1-0.2c-0.2,0-0.4,0.3-0.6,0.4
	c-0.5,0.4-1.1,0-1.7,0.1c-0.8,0.2-1.6,0-2.4-0.2c-0.6-0.2-1.3,0.1-1.9-0.1c-0.6-0.2-1.3-0.3-1.9-0.4c-0.2,0-0.5,0.1-0.8,0.1
	c-0.2-0.1-0.4-0.4-0.7-0.4c-0.7-0.1-1.3-0.1-2-0.1c-0.2,0-0.2,0.2-0.4-0.1c-0.4-0.5-0.9-0.7-1.5-0.8c-0.4-0.1-0.6-0.2-0.4-0.6
	c0-0.1-0.1-0.3-0.1-0.3C3,9.7,2.8,9.3,2.6,8.9c-0.4-0.6-0.7-1-1.3-1C1,7.9,0.7,7.7,1.1,7.1c0.5-0.7,0-1.6-0.3-2.4
	c-0.2-0.5-0.7-1,0.1-1.4L1,3.1c-0.5-0.4,0.4-0.6,0.1-1C0.8,1.8,0.9,1.4,1.3,1.2C1.5,1.1,1.7,1.1,1.9,1c0.1,0,0-0.3,0-0.4
	C2,0.5,2.2,0.3,2.3,0.4c0.6,0.4,0.8-0.6,1.4-0.3C4,0.2,4.5,0.2,4.9,0c0.2,0.5,0.7,0.1,1,0.2c0.4,0.1,0.8,0.2,1.2,0.3
	c0.2,0,0.5,0,0.6-0.1c0.4-0.2,0.6-0.3,0.5,0.3l0.4,0.1c0.2-0.2,0.2-0.5,0.6-0.3c0.5,0.2,1,0.3,1.4-0.2c0,0,0.3,0.2,0.5,0.3
	c0.1,0,0.3-0.2,0.5-0.1c0.6,0.2,1.3,0,1.8,0.7c0.1,0.1,0.3,0.1,0.4,0.1c0.6-0.5,1.4-0.1,2.1-0.4c0.5-0.3,1-0.4,1.6-0.2
	c0.3,0.1,0.6,0,0.9-0.1l1.5,0.1C20.2,1,20.7,0.2,21,0.8s0.7,0,1,0c0.5,0,1.1,0,1.6,0.1c0.1,0,0.2,0.1,0.3,0.1
	c0.5-0.2,1.1-0.4,1.7-0.2c0.4,0.1,1.1,0.2,1.6,0c0.6-0.2,1.1,0,1.7-0.1s1.2,0,1.9,0.1c0.5,0.1,0.5,0.1,1.4-0.2
	c0.1,0,0.5-0.4,0.8,0.1c0.1,0.2,1.1,0.1,1.3,0c0.1,0,0.2-0.1,0.2-0.1c0.3,0.3,0.7,0.3,1.1,0.2c0.4-0.1,0.8-0.2,1.1-0.2
	s0.6,0.2,1,0.2c0.3,0,0.2,0.6,0.6,0.3C38.5,0.8,38.8,1,39.1,1s0.5-0.4,0.8,0c0.3,0.3,0.5-0.2,0.8-0.2c0.1,0,0.3,0.2,0.4,0.3
	c0.1,0.1,0.1,0.5,0.2,0.3c0.3-0.6,0.9,0.2,1.1-0.4c0.5-0.1,0.9-0.1,1.4-0.2c0.3,0,0.5,0,0.8,0c0.6,0.1,1.2,0.4,1.7-0.1
	c0.4,0.6,0.8-0.3,1.2-0.1s1,0.1,1.3,0.6c0.6-0.1,1.3-0.1,1.9-0.3c0.4-0.2,0.8-0.3,1.2-0.1s1-0.5,1.3,0.3c0,0,0.3-0.1,0.5-0.1
	c0.3-0.1,0.6-0.2,0.9-0.3c0.3-0.1,0.2,0.1,0.2,0.3c0,0.4,0.4,0.3,0.6,0.4c0.4-0.8,1-0.3,1.5-0.2c0.2,0,0.6,0,0.6-0.2
	c0.2-0.6,0.7-0.1,1.1-0.3c0.3-0.1,0.6,0,0.9,0c0.3,0,0.7,0.3,0.7,0.2c0.2-0.3,0.6,0.6,0.7-0.1c0,0,0.4-0.1,0.5,0
	c0.5,0.2,1-0.1,1.4,0.3c0,0,0.2-0.1,0.3-0.1c0.1-0.1,0.3-0.3,0.4-0.3c1.1,0.3,2.2-0.2,3.3,0.2c0.1,0,0.2,0,0.3,0
	c0.4-0.5,0.7-0.1,1.3,0.1c0,0.1,0.1,0.2,0.1,0.3c0.1,0.1,0.2,0,0.2-0.1c0.1,0,0.1,0,0,0c0.1-0.5,0.5-0.5,1-0.4c0.3,0,0.5,0,0.8,0
	c0.2,0,0.4-0.1,0.5-0.2c-0.1,0.3,0.1,0.7-0.4,0.7c-0.1,0-0.2,0-0.3,0.1c0,0.1,0.1,0.1,0.1,0.2h0.1c0.7,0.2,0.8,0.2,0.9-0.5
	c0.1-0.5,0.2-0.8,0.8-0.5c0.3,0.2,0.8-0.3,1,0.2c0,0.1,0.5,0.1,0.6,0C74.4,0.4,75,0.6,75.4,1c0.3,0.2,0.4,0.2,0.7,0.1
	c0.5-0.2,1.1-0.2,1.6,0c0.9,0.4,1.9,0.2,2.8,0C81,1,81.1,1,81.4,1.4c0.2,0.3,0.6,0.2,0.7-0.1c0.2-0.8,0.5-0.8,1-0.3
	c0,0,0.2,0,0.3-0.1c0.1-0.1,0.2-0.2,0.2-0.3c0.3,0.6,0.7,0.3,1.2,0.3c0.4,0,0.8,0.1,1.2,0.3c0.2,0.1,0.4,0.3,0.5,0.3
	s0.2-0.3,0.4-0.4c0.1,0,0.3,0.1,0.4,0.3c0.1,0.1,0.1,0.3,0.2,0.4c0,0.4,0.2,0.4,0.5,0.2c0.1-0.1,0.1-0.3,0.1-0.4
	c0.2-0.6,0.3-0.7,1-0.6c0.3,0.1,0.6,0.1,0.7-0.3l0.1-0.1c0.1,0.6,0.6,0,0.7,0.2c0.3,0.4,0.7,0.2,1,0.2c0.5,0,1-0.2,1.6-0.1
	c0.3,0,0.5,0.3,0.8,0.4c-0.2,0.5,0.2,0.8,0.4,1.1l0.2,0.1c0.1-0.1,0.1-0.2,0.1-0.2c0-0.2-0.3-0.7,0-0.7c0.6,0,0.7-0.9,1.3-0.7
	c0.2,0,0.4,0,0.5,0c0.6-0.1,1.1-0.4,1.4,0.4c0.7,0.1,1.2,0.8,1.8,1c0.5,0.2,1.1,0.1,1.7,0.1l0.1-0.2c-0.1-0.1-0.3-0.2-0.4-0.3
	c-0.3-0.2-0.1-0.4,0.1-0.5c0.2,0,0.7-0.1,0.7,0.1c0.2,0.4,0.6,0.3,1,0.4c0.1,0,0.1-0.1,0.2-0.1c-0.1-0.1-0.1-0.1-0.2-0.2
	c-0.1,0-0.2,0-0.3-0.1c-0.1-0.1-0.2-0.3-0.2-0.4c0.1-0.1,0.3-0.2,0.3-0.2c0.5,0.3,1.2-0.4,1.6,0.3c0.5-0.5,1.2,0.4,1.7-0.1
	c0,0.1,0.1,0.2,0.1,0.3c0,0.3,0.2,0.4,0.4,0.3c0.1,0,0.2-0.2,0.4-0.2c0.4,0,0.5-1,0.9-0.5c0.3,0.4,0.8-0.3,1,0.3
	c0.6,0.1,1.3,0.3,1.9,0.2c0.6-0.1,1.2,0.1,1.7,0.1c0.5,0.1,0.1-0.2,0.1-0.4c0,0,0.1-0.1,0.2-0.1c0.3,0.1,0.7,0.1,0.8,0.4
	c0.2,0.5,0.8-0.3,1,0.3c0.3-0.2,0.4-0.5,0.2-0.8c-0.2-0.3,0.1-0.3,0.2-0.2c0.4,0.2,0.6,0.7,1.2,0.3c0,0,0.1,0.1,0.1,0.2
	c-0.1,0.5,0.1,0.4,0.4,0.2c0.3-0.3,0.5-0.1,0.6,0.2c0.1,0.2,0,0.4,0.1,0.5c0.2,0.1,0.4,0.1,0.6,0.2c0-0.1,0-0.3-0.1-0.4
	c-0.3-0.6-0.3-0.6,0.4-0.6c0.1,0,0.3-0.1,0.4-0.1c0.1,0.1,0.2,0.3,0.3,0.5c-0.2,0.1-0.4,0.3-0.2,0.5c0.2,0.2,0.6,0.4,0.8-0.1
	c0-0.1,0.2-0.2,0.3-0.2c0.5,0.2,0.7,0,0.7-0.5c0-0.2,0.5-0.2,0.5,0c0,0.4,0.1,0.6,0.5,0.3c0.4-0.4,0.9-0.4,1.4-0.2
	c0.4,0.1,0.8,0.1,1.1,0.3c0.3,0.1,0,0.2-0.1,0.3c-0.2,0.2-0.3,0.4,0.1,0.5c0.2,0.1,0.6,0.2,0.6-0.1c0-0.7,0.6-0.8,0.9-1.1
	c0.2-0.2,0.5-0.1,0.5,0.1c-0.1,0.5,0.3,0.6,0.6,0.6c0.6,0,1.2-0.6,1.8,0.1c0.1,0.1,0.5-0.2,0.6-0.6s0.2-0.3,0.4,0
	c0.2,0.2,0.4,0.4,0.6,0.5c0.5,0.5,1.2,0.5,1.5-0.2c0.2-0.4,0.5-0.2,0.7-0.3c0.7-0.2,0.9-0.1,1.4,0.6c0.1,0.1,0.2,0.1,0.4,0.1
	c0-0.1,0-0.2,0-0.3c0-0.1,0.2-0.2,0.2-0.2c0.2,0.2,0.3,0.3,0.5,0.5c0.1,0.2,0.2,0.3,0.3,0c0.1-0.2,0.4-0.5,0.6-0.5
	c0.4,0,0.8,0.1,1.1,0.3c0.3,0.3,0.5,0.6,0.7-0.1h0.2c0.4,0.6,0.8,0.2,0.9-0.1c0.4-0.6,0.4,0,0.5,0.1c0.2,0.2-0.1,0.6,0.3,0.6
	c0.3,0,0.5,0,0.6-0.3c0.6-0.1,1.3-0.2,1.9-0.2c0.1,0,0.2,0.2,0.3,0.3s0.1,0.2,0.1,0.3c0.1-0.1,0.1-0.1,0.2-0.2
	c0.1-0.6,0.3-0.8,0.7-0.2c0.1,0.1,0.4,0,0.4,0c0.2-0.5,0.4-0.4,0.7-0.1c0.2,0.2,0.5,0.2,0.7,0.4c0.4,0.5,0.6,0.3,0.7-0.2
	c0.1-0.2,0.2-0.3,0.3-0.1c0.4,0.4,0.7,0.3,1.1,0.1c0.3-0.2,0.5-0.2,0.7,0.1s0.4,0.2,0.6,0.1c0.5-0.4,1-0.3,1.5,0.2
	c0.2,0.2,0.5,0.4,0.8,0c0.2,0,0.4,0.1,0.5,0.1c0.2,0,0.4,0,0.5,0c-0.1-0.2-0.2-0.3-0.2-0.5c0-0.1,0-0.2-0.1-0.3c0.1,0,0.3,0,0.4,0.1
	c0.2,0.2,0.2,0.5,0.4,0.6c0.1,0.1,0.4-0.1,0.6-0.1c0.2,0.1,0.4,0.3,0.6,0.5c0.1,0.1,0.1,0.1,0.4-0.2c0.4-0.3,0.8-0.5,1.2-0.7
	c0.1,0,0.2,0,0.3,0.1c0,0.1-0.1,0.2-0.1,0.3c-0.1,0.5,0.1,0.8,0.6,0.9c0,0,0,0.1,0.1,0.1c0.3-0.6,1.1-0.3,1.5-0.8
	c0.2-0.3,0.2-0.1,0.4,0c0.4,0.2,0.4,0.4,0.4,0.7c0.2-0.1,0.5-0.3,0.7-0.4c0.2,0,0.4,0.1,0.5,0.1c0.3,0.1,0.4,0,0.5-0.2
	c0.2-0.2,0.6-0.6,0.9-0.1l0.1,0.1c0.4,0,0.8,0.1,1.2-0.1c0.3-0.2,0.6,0.3,1,0.2l0.1,0.1c0,0,0.1,0,0-0.2c0.1,0,0,0,0-0.1l0,0
	c0-0.1,0.1-0.3,0.2-0.3c0.1-0.1,0.3-0.3,0.3,0c0,0.2-0.1,0.4-0.1,0.5s0.1,0.3,0.2,0.4c0.1,0,0.2-0.1,0.3-0.1
	c0.2-0.2,0.3-0.3,0.4-0.5c0.1-0.1,0.2-0.2,0.2-0.3c0,0.1,0,0.4,0,0.4c0.4,0.2,0.9,0.3,1.1,0.7c0.1-0.1,0.2-0.1,0.2-0.2
	c0.2-0.4,0.4-0.6,0.8-0.2l1.5-0.1c0.2,0.5,0.5,0.1,0.8,0.1c0.2,0,0.4,0.1,0.5,0.1c-0.1,0.1-0.2,0.2-0.2,0.4c0,0,0.1,0.2,0.2,0.2
	c0.3-0.1,0.8-0.1,0.9-0.3c0.3-0.6,0.8-0.5,1.3-0.3c0.4,0.1,0.8,0.2,1.2-0.2c0.2-0.2,0.3,0.1,0.4,0.2c0.2,0.3,0.3,0.5,0.6,0.2
	c0.2-0.2,0.4-0.3,0.5,0c0.2,0.4,0.4,0.6,0.8,0.3c0.1-0.1,0.4,0,0.5,0.1c0.3,0.5,0.6,0.2,0.8-0.1c0.1-0.1,0.2-0.2,0.2-0.3
	c0,0.1,0,0.3,0,0.4c0,0.2-0.1,0.4-0.1,0.5s0.2,0.2,0.3,0.2s0.2,0,0.2-0.1c0.1-0.3,0.2-0.6,0.2-1c0.2,0,0.3,0.1,0.6,0.2l0,0
	c0,0.1,0,0.3,0.1,0.4c0.1-0.1,0.1-0.1,0.1-0.4c0.1,0.1,0,0,0-0.1l0,0c0-0.1,0-0.2,0-0.2c0.1,0,0.3,0,0.4,0.1
	c0.8,0.5,0.9,0.5,1.5,0.3c0,0.1,0,0.2,0,0.3c0.1-0.1,0.1-0.1,0.1-0.4c0.1,0.1,0,0,0-0.1l0,0c0-0.1,0-0.2,0-0.2
	c0.2,0.1,0.5,0.3,0.6,0.3c0.3-0.1,0.5-0.1,0.7,0.2c0.2,0.3,0.5,0.2,0.5-0.2c0.1-0.6,0.3-0.3,0.5-0.1c0.1,0.1,0.2,0,0.2,0.1
	c0.2,0.2-0.1,0.7,0.3,0.6c0.2,0,0.5-0.3,0.6-0.5c0.4-0.5,0.4-0.6,0.7,0c0.2,0.4,0.4,0.2,0.6,0.1c0.3-0.3,0.6-0.2,0.9,0
	c0.6,0.4,1,0.5,1.9,0.4c0.5-0.1,1.2-0.4,1.6,0.3c0.4-0.1,0.8,0,1.1-0.2c0.6-0.4,1.3-0.3,1.5,0c0.6,0.6,1.1,0.3,1.6,0.1
	c0.4-0.1,0.7-0.5,1,0.1c0.4,0,0.9-0.1,1.3-0.1c0.1,0,0.3-0.1,0.4-0.1c0.4,0,0.2,1,0.8,0.5c0.4-0.3,0.8-0.1,1.2,0s0.8,0.2,1.2,0.3
	c0.2,0,0.3-0.1,0.5-0.2s0.4-0.2,0.5-0.1c0.6,0.7,1.4,0.1,2.1,0.4c0.8-0.5,1.5,0.6,2.2,0c0.1,0.2,0.3,0.5,0.6,0.3
	c0.8-0.4,1.4-0.3,2,0.5c0,0,0.1,0.1,0.2,0.1c0.4-1.1,0.8,0.3,1.2,0c0.4-0.2,0.9-0.1,1.4-0.2c0.4,0,0.8,0,1.2,0
	c0.3,0,0.7-0.3,0.8,0.3c0,0.1,0.1,0.1,0.2,0.2c0.4-0.5,0.8-0.1,1.2-0.1c0.2,0,0.5-0.3,0.7-0.2c0.2,0.1,0.3,0.2,0.6,0.2
	c0.9,0,1.8,0.1,2.8-0.1c0.4-0.1,0.7,0.4,1.2,0.4c0.1,0,0.3,0.3,0.5,0.1c0.4-0.4,0.8-0.3,1.3-0.2c0.5,0.1,1,0.2,1.5,0.4
	c1,0.2,1.6,0.1,3.2-0.1c0.5-0.1,1-0.1,1.4-0.2l0.2,0.1c-0.2,0.9,0.6,0.2,0.7,0.4c0.2,0.3,0.3,0.1,0.5,0c0,0.2,0,0.4,0.1,0.5
	c0.3,0.2,0.5,0.4,0.9,0.6c0.2,0.1,0.5,0,0.6-0.2c0.3-0.5,0.8-0.5,1.4-0.5c0.4,0,0.9,0.1,1.3,0c0.3-0.1,0.5-0.3,0.4,0.2
	c0,0,0,0.1,0.1,0.1c0.4-0.1,0.9-0.3,1.2-0.2c0.4,0.2,0.5,0.6,0.9-0.1c0.1-0.2,0.6,0.1,1-0.1s0.9,0.3,1.4,0h0.1
	c0.4,0.8,1,0.3,1.6,0.3c0.3,0,0.7-0.2,0.8,0.3c0,0.1,0.3,0.2,0.4,0.3c0-0.1-0.1-0.3-0.1-0.4c0-0.3,0.3-0.5,0.4-0.3
	c0.3,0.3,0.5,0.6,0.9,0.4c0.5-0.3,0.4,0.4,0.8,0.3c0.3-0.1,0.7-0.1,1-0.2c0.3-0.1,0.4-0.1,0.6,0.1c0.3,0.5,1.1,0.1,1.4,0.7
	c0.1,0,0.2-0.1,0.2-0.1c0.2-0.5,0.4-0.4,0.7,0c0.2,0.2,0.5,0.3,0.8,0.5l0.2-0.1c0.1-0.1,0.2-0.1,0.2-0.2c0.2,0.6,0.6,0.1,0.9,0.2
	c0.3,0,0.6,0.2,0.7-0.3c0.1,0.1,0.2,0.1,0.2,0.2c0.1,0.1,0,0.3,0.1,0.4c0.1,0.1,0.2,0.2,0.2,0.3c0.1-0.1,0.2-0.2,0.2-0.3
	c0-0.4,0.3-0.4,0.6-0.3c0.3,0.1,0.3,0.2,0.3,0.5c0,0.1,0,0.4,0.1,0.4c0.3,0.1,0.4-0.1,0.4-0.3c0-0.3,0.2-0.4,0.5-0.3
	c0.2,0.1,0.6,0.2,0.3-0.3c0.1,0,0.2-0.1,0.3-0.1c0.3,0.1,0.6,0.1,0.7,0.3c0.2,0.2,0.3,0.1,0.4,0c0.3-0.2,0.6-0.2,0.9-0.1
	c0.2,0,0.5,0,0.6-0.1c0.3-0.4,0.8,0.1,1.2-0.2c0.1-0.1,0.4,0.2,0.6,0.4c0.5,0.4,0.5,0.4,0.8-0.3c0-0.1,0.1-0.2,0.2-0.3
	c0.1,0.1,0.2,0.2,0.2,0.3c0.1,0.3,0.3,0.4,0.6,0.1c0.3-0.3,0.7-0.4,0.6,0.3c0,0,0.2,0.1,0.3,0.1c0.3-0.1,0.4,0,0.6,0.2
	c0.1,0.1,0.4,0,0.5,0s0.2,0.2,0.2,0.3c0,0.2-0.1,0.5-0.1,0.7c0,0.1,0.1,0.1,0.1,0.2c0.1-0.1,0.2-0.1,0.2-0.2c-0.1-0.4,0.7-1-0.2-1.3
	V9.7c0.1,0,0.2,0,0.3,0c0.5-0.1,0.3,0.5,0.6,0.6c0.2-0.5,0.4-0.4,0.9-0.3c0.3,0.1,0.7,0,1,0c-0.1,0.1-0.4,0.3-0.3,0.4
	c0.1,0.3,0.3,0.6,0.5,0.8c0.1-0.1,0.2-0.3,0.2-0.3c-0.2-0.4-0.2-0.6,0.3-0.4c0.5,0.2,0.4-0.2,0.5-0.5c0.2,0.1,0.3,0.3,0.5,0.4
	c0.2,0.1,0.5,0.2,0.6-0.2s0.5-0.5,0.8-0.3c0.2,0.2,0.5,0.2,0.6,0.1c0.1-0.1,0.3-0.4,0.4-0.4c0.4,0,0.7,0.2,1,0.3c0,0,0,0.3,0,0.4
	c0,0.1,0,0.3,0,0.4c0.1-0.1,0.2-0.2,0.2-0.3c0.1-0.3,0.1-0.5,0.5-0.4c0.3,0.1,0.6,0.2,0.9,0.3l0,0c0,0.1,0,0.3,0.1,0.4
	c0.1-0.1,0.1-0.1,0.1-0.4c0.1,0.1,0,0,0-0.1c0-0.3,0.2-0.3,0.4-0.2c0.1,0.1,0.1,0.3,0.2,0.5c0.2-0.1,0.3-0.2,0.5-0.3
	s0.5-0.1,0.5,0.2s-0.1,0.4-0.4,0.3c-0.1,0-0.2,0.2-0.4,0.6c0-0.1,0-0.1-0.1-0.2c-0.2-0.1-0.4-0.1-0.5,0.2c0,0.2,0,0.4,0.3,0.3
	c0,0.2,0.1,0.1,0.2,0c0,0,0-0.1,0-0.2c0.5-0.3,0.8,0.1,1-0.5c0-0.1,0.3-0.1,0.4-0.1c0.5,0.1,0.4,0,0.3-0.4s0.2-0.5,0.7-0.3
	c0.4,0.1,0.8,0.4,1.2,0.1c0.1-0.1,0.4-0.2,0.4-0.1c0.4,0.3,0.9-0.1,1.2,0.2c0.3,0.3,0.4,0.2,0.7,0c0.3-0.2,0.9-0.1,1.4-0.1
	s1,0.8,1.5,0.1c0,0,0.5,0.2,0.7,0.3c0.3,0.2,0.5,0.2,0.6-0.2h0.2c0.1,0.1,0.1,0.3,0.1,0.4c0.1-0.1,0.2-0.4,0.3-0.4
	c0.2-0.1,0.6,0.1,0.6-0.4l0.2-0.1c0.2,0.4,0.7,0.1,0.9,0.4c0.1,0.1,0.3,0.1,0.5,0.2c-0.1,0.3,0.2,0.4,0.4,0.3c0.3-0.1,0.3-0.4,0-0.5
	c1-0.3,1.1-0.3,1.7,0.1c0.2,0.1,0.4,0.5,0.7,0.2c0.1-0.1,0.4,0.3,0.6,0.2s0.7,0.1,0.7-0.4c0,0,0.4-0.1,0.4,0c0.2,0.6,1,0.2,1.2,0.8
	c0.3,0.5,0.9-0.2,1.2,0.3c0.3-0.3,0.6-0.5,0.8-0.8c0.1-0.1-0.7-0.3-1.1-0.2c-0.1,0.1-0.2,0.2-0.4,0.2c0,0-0.2-0.2-0.1-0.2
	c0.1-0.6,0.2-0.7,0.8-0.4c0.2,0.1,0.4,0.1,0.5,0.1c0.8,0.3,1.1,0.6,1,1.5c-0.1,0.5,0.2,0.5,0.5,0.6c0.1,0,0.2-0.1,0.2-0.2
	c-0.1-0.3-0.3-0.8-0.2-0.8c0.6-0.3,0-0.5,0-0.8c0-0.2,0-0.3,0.1-0.5c0,0,0.3,0,0.4,0c0.1,0.1,0.3,0.2,0.3,0.3c0.1,0.3-0.3,0.6,0,0.8
	c0.1-0.3,0.2-0.5,0.3-0.8c0-0.1,0.1-0.1,0.2-0.2c0,0.1,0.1,0.1,0.1,0.2c-0.1,0.3,0,0.5,0.3,0.4c0.1,0,0.2-0.3,0.3-0.4
	c0,0,0.1,0,0.3,0c0,0,0,0-0.1,0c0,0.1,0.1,0.1,0.1,0.2c0,0,0.1,0,0-0.2c0.1,0,0,0,0-0.1c0.1-0.4,0.3-0.3,0.5,0
	c0.1,0.2,0.2,0.5,0.3,0.7c0.2-0.2,0.4-0.5,0.5-0.7c0.3-0.5,0.3,0.1,0.4,0.2c0.1,0,0.3,0.1,0.4,0.1c0.1,0.4,0.2,0.9,0.9,0.5
	c0.1-0.1,0.4,0.1,0.5,0.1c0.2-0.1,0.2-0.3,0.3-0.5c0.6,0.1,1-0.5,1.6-0.7c0.5-0.1,0.7-0.1,0.5,0.4c-0.1,0.4,0.1,0.5,0.4,0.5
	c0.4,0.1,0.4-0.2,0.3-0.5c-0.1-0.4,0.5-0.7,0.6-0.4c0.4,0.7,1.3,0.1,1.7,0.6c0,0,0.3,0,0.3-0.1c0.2-0.6,0.3-0.1,0.5,0
	c0.1,0.1,0.4-0.1,0.6-0.1c0.2-0.1,0.2-0.1,0.4,0.3c0,0.1,0.1,0.2,0.2,0.2c0.3,0,0.7-0.1,0.8,0c0.5,0.5,0.3-0.2,0.5-0.2
	c0.3-0.1,0.6-0.4,0.9-0.4c0.2,0,0.4,0.3,0.7,0.4c0.2,0.1,0.5,0.2,0.6,0.1c1-0.3,1.1-0.3,2.3,0c0.5,0.1,1,0,1.6,0c1,0,2,0,3,0h0.1
	c0.3,0.1,0.5,0.3,0.8,0.3c0.2,0,0.5-0.2,0.7-0.3c0.2,0,0.3-0.4,0.5,0c0.4,0.5,0.7,0.3,1-0.2c0.1-0.1,0.4-0.2,0.6-0.1
	c0.2,0,0.3,0.3,0.5,0.3s0.4-0.2,0.6-0.3c0.1,0,0.2,0,0.3,0c0.2,0.6,0.6,0.4,1,0.2c0.9,1.1,2.1,0,3.2,0.4c0.9-0.7,1.8-0.1,2.6,0
	c0.3,0,0.5,0.1,0.8,0s0.4,0,0.6,0.2c0.3,0.3,0.5,0.2,0.6-0.2c0.1-0.2,0.1-0.5,0.4-0.4c0.5,0.2,1,0.1,1.3-0.1c0.6-0.3,1,0.2,1.6,0
	c0.7-0.2,1.5,0,2.2-0.4c0.3-0.2,0.9,0.2,1.3,0.2c0.5,0,0.9,0.3,1.5,0.2c0.5-0.1,0.7-0.5,1.1-0.7c0.2-0.1,0.8,0.5,1,0.4
	c0.5-0.2,0.8,0,1.2,0c0.3,0,0.3-0.8,0.8-0.3c0.2,0.2,0.6,0.3,0.7,0.2c0.4-0.2,0.7,0,1.1,0.1C345,10.3,345.4,11.1,345.3,11.2z
	 M56.6,11.6c0,0,0-0.1-0.1-0.1s-0.1,0-0.2,0.1c0,0,0,0.1,0.1,0.1C56.5,11.6,56.5,11.6,56.6,11.6z M57.2,3.7
	c-0.1-0.1-0.1-0.2-0.2-0.2c-0.1,0-0.2,0-0.2,0c0,0.1,0,0.2,0,0.3C57.1,3.7,57.2,3.7,57.2,3.7z M62.2,2.4c0-0.1,0-0.2,0-0.4
	C62.1,2.1,62,2.1,62,2.2c0,0.1,0,0.2,0,0.4C62.1,2.5,62.2,2.4,62.2,2.4z M63.8,2.7c-0.1,0-0.2,0-0.2,0.1s0,0.2,0,0.4
	c0.1,0,0.2-0.1,0.2-0.1C63.8,3,63.8,2.8,63.8,2.7z M65.7,4.7c-0.2-0.1-0.3-0.2-0.5-0.3c-0.1,0-0.2,0-0.3,0.1C65,4.7,65.1,4.9,65.2,5
	C65.4,4.9,65.5,4.8,65.7,4.7z M66.1,5.4C66.1,5.4,66.1,5.3,66.1,5.4c-0.2-0.1-0.2-0.1-0.3-0.1c0,0,0,0.1,0.1,0.1S66.1,5.4,66.1,5.4z
	 M66.7,2.7c0-0.1,0-0.1,0-0.2c0,0-0.1,0-0.1,0.1S66.6,2.7,66.7,2.7L66.7,2.7z M72.4,0.7c-0.1-0.1-0.2-0.1-0.3-0.2
	c0,0-0.1,0.1-0.2,0.2c0.1,0.1,0.3,0.1,0.4,0.1C72.3,0.9,72.3,0.8,72.4,0.7z M72.7,11c0,0,0-0.1-0.1-0.1s-0.1,0-0.2,0
	c0,0,0,0.1,0.1,0.1C72.5,11,72.6,11,72.7,11z M72.8,5.3c0-0.1-0.1-0.2-0.1-0.3c-0.1,0.1-0.2,0.2-0.2,0.3c0,0.1,0,0.2,0.1,0.2
	C72.7,5.5,72.8,5.4,72.8,5.3z M76.2,5.3c-0.3-0.3-1,0-1.1,0.4c0.1,0.1,0.1,0.1,0.2,0.2c0.3,0.3,0.5-0.8,0.9-0.1c0,0,0.1,0,0.1-0.1
	C76.2,5.5,76.3,5.4,76.2,5.3z M76.7,3.7c0-0.1-0.1-0.2-0.2-0.4c-0.1,0.1-0.2,0.2-0.2,0.3s0.1,0.3,0.1,0.4C76.5,4,76.6,3.9,76.7,3.7z
	 M78.2,8.5c-0.1,0-0.1-0.1-0.2-0.1c0,0-0.1,0-0.1,0.1c0.1,0,0.1,0.1,0.2,0.1C78.1,8.5,78.1,8.5,78.2,8.5z M80.1,4.9
	c0-0.1-0.2-0.3-0.3-0.4c-0.1,0.1-0.2,0.2-0.3,0.3c0,0.1,0,0.3,0,0.5C79.9,5.1,80.1,5,80.1,4.9z M80.8,4.7c-0.1,0-0.1-0.1-0.2-0.1
	c0,0-0.1,0-0.1,0.1C80.6,4.7,80.6,4.8,80.8,4.7C80.7,4.8,80.7,4.7,80.8,4.7z M82.7,6.4c-0.1,0-0.2,0.1-0.3,0.1
	c-0.1,0-0.1,0.2-0.1,0.2C82.3,6.8,82.4,6.9,82.7,6.4z M83,6.2C83,6.3,83,6.3,83,6.2c-0.2,0.2-0.3,0.4-0.5,0.8
	c0.2-0.2,0.3-0.4,0.5-0.6C83,6.3,83,6.3,83,6.2z M83.6,6.2c0-0.1-0.1-0.3-0.2-0.4c0,0-0.1,0-0.4,0.3c0,0.1,0.1,0.1,0.1,0.1
	C83.3,6.3,83.5,6.2,83.6,6.2z M84.4,7.6c0-0.1,0-0.1-0.1-0.2c0,0-0.1,0-0.1,0.1s0,0.1,0,0.2C84.3,7.7,84.4,7.7,84.4,7.6z M84.5,2.4
	c-0.1,0-0.1-0.1-0.2-0.1c0,0-0.1,0-0.1,0.1C84.3,2.4,84.3,2.5,84.5,2.4C84.4,2.4,84.5,2.4,84.5,2.4z M86.2,2.5c0-0.2,0-0.3-0.1-0.4
	c0,0-0.2,0-0.4,0c0.1,0.2,0.2,0.3,0.3,0.5C86.1,2.5,86.2,2.5,86.2,2.5z M86.7,10.2c0-0.1,0-0.1,0-0.2C86.7,10,86.6,10,86.7,10.2
	c-0.1,0-0.1,0-0.1,0.1C86.6,10.2,86.7,10.2,86.7,10.2z M88.9,8.3c-0.1-0.1-0.2-0.1-0.3-0.2c0,0-0.1,0.1-0.2,0.2
	c0.1,0.1,0.3,0.1,0.4,0.1C88.8,8.4,88.8,8.3,88.9,8.3z M89,7.8c-0.1-0.1-0.1-0.1-0.2-0.2c-0.1,0-0.2,0.1-0.3,0.1
	c0.1,0.1,0.1,0.2,0.2,0.2C88.8,7.8,88.9,7.8,89,7.8z M89.6,5.3C89.6,5.3,89.6,5.2,89.6,5.3c-0.1,0-0.2,0-0.2,0.1l0.1,0.1
	C89.5,5.4,89.5,5.3,89.6,5.3z M89.9,10.1c0-0.1,0-0.1-0.1-0.2c0,0-0.1,0-0.1,0.1s0,0.1,0,0.2C89.8,10.1,89.9,10.1,89.9,10.1z
	 M90.1,3.1L90.1,3.1c-0.2,0-0.2,0.1-0.3,0.2c0,0,0.1,0.1,0.2,0.2C90,3.4,90.1,3.2,90.1,3.1z M91.1,8.6C91,8.5,91,8.4,90.9,8.4
	s-0.2,0-0.2,0c0,0.1,0,0.2,0,0.3C91,8.6,91,8.6,91.1,8.6z M91.9,2.6C91.9,2.6,91.9,2.5,91.9,2.6c-0.1,0-0.2,0-0.2,0.1l0.1,0.1
	C91.8,2.7,91.9,2.7,91.9,2.6z M92.5,5.2C92.5,5.3,92.5,5.3,92.5,5.2c0-0.1,0-0.2,0-0.2s-0.1,0-0.2,0C92.3,5.1,92.4,5.1,92.5,5.2z
	 M92.5,5.4L92.5,5.4c0,0.1,0.1,0.1,0.1,0.2C92.6,5.5,92.7,5.5,92.5,5.4z M92.7,5.5c0-0.1-0.1-0.1-0.1-0.2c0,0,0,0-0.1,0
	C92.6,5.4,92.7,5.4,92.7,5.5z M93.7,6.7c-0.1-0.4-0.3-0.8-0.4-1.2h-0.1c-0.1,0-0.2,0.1-0.2,0.2c0.1,0.4,0.2,0.8,0.3,1.1
	c0,0,0.1,0.1,0.2,0.1C93.6,6.8,93.6,6.8,93.7,6.7z M93.7,1.6c0-0.2,0-0.3-0.1-0.4c-0.2,0.1-0.4,0.2-0.5,0.3c0.1,0.1,0.1,0.2,0.2,0.2
	C93.4,1.7,93.6,1.6,93.7,1.6z M94.5,8.1c0-0.1,0-0.2,0-0.4c-0.1,0.1-0.2,0.1-0.2,0.2s0,0.2,0,0.4C94.4,8.2,94.5,8.2,94.5,8.1z
	 M96.1,2.5C96,2.3,95.8,2.2,95.7,2c0,0.1-0.1,0.1-0.2,0.3c0.1,0.1,0.2,0.2,0.3,0.2C95.9,2.6,96,2.5,96.1,2.5z M96.6,2.3
	c0-0.1,0-0.1,0-0.2c0,0-0.1,0-0.1,0.1S96.5,2.3,96.6,2.3C96.5,2.4,96.6,2.4,96.6,2.3z M97.3,3.1c0-0.1,0-0.1,0-0.2
	c0,0-0.1,0-0.1,0.1S97.2,3.1,97.3,3.1C97.2,3.1,97.3,3.1,97.3,3.1z M97.5,2.3c0-0.1,0-0.1-0.1-0.2c0,0-0.1,0-0.1,0.1s0,0.1,0,0.2
	C97.4,2.3,97.5,2.3,97.5,2.3z M98,5.2C98,5.2,98,5.1,98,5.2c-0.2-0.1-0.2-0.1-0.3,0c0,0,0,0.1,0.1,0.1C97.9,5.3,98,5.2,98,5.2z
	 M98.5,4.2c0-0.1,0-0.1-0.1-0.2c0,0-0.1,0-0.1,0.1c0,0.1,0,0.1,0,0.2C98.4,4.3,98.5,4.3,98.5,4.2z M99.3,9.6l-0.1-0.1
	c-0.1,0.1-0.1,0.2-0.2,0.3c0,0,0.1,0.1,0.2,0.2C99.3,9.8,99.3,9.7,99.3,9.6z M99.9,9.8c0-0.1-0.1-0.2-0.1-0.3
	c-0.1,0.1-0.2,0.2-0.2,0.3s0,0.2,0.1,0.2C99.7,10,99.8,9.9,99.9,9.8z M100.6,9.3c-0.1-0.1-0.1-0.2-0.2-0.2s-0.2,0-0.4,0
	c0.1,0.1,0.1,0.2,0.2,0.2C100.3,9.4,100.4,9.3,100.6,9.3z M101.4,9.5c0,0,0-0.1-0.1-0.1s-0.1,0-0.2,0c0,0,0,0.1,0.1,0.1
	S101.3,9.5,101.4,9.5z M103,9.9c0,0,0-0.1-0.1-0.1s-0.2,0-0.2,0.1c-0.2,0.2-0.3,0.4-0.4,0.6c0,0.1,0,0.2,0,0.2h0.1
	C102.7,10.6,103.1,10.1,103,9.9z M103.1,3.5C103.1,3.5,103.1,3.4,103.1,3.5c-0.2-0.1-0.2-0.1-0.3-0.1c0,0,0,0.1,0.1,0.1
	C102.9,3.5,103,3.5,103.1,3.5z M104.2,8.4c0-0.1,0-0.1-0.1-0.2c0,0-0.1,0-0.1,0.1s0,0.1,0,0.2C104.1,8.5,104.2,8.5,104.2,8.4z
	 M105.3,7.4c-0.1-0.1-0.2-0.1-0.3-0.1c-0.2-0.1-0.4-0.1-0.5-0.1s-0.2,0.1-0.3,0.1c0,0-0.1,0.2,0,0.2c0.1,0.1,0.2,0.2,0.3,0.2
	c0.1,0,0.2-0.1,0.4-0.2C105,7.5,105.2,7.5,105.3,7.4z M106.5,2.1C106.5,2.1,106.6,2.1,106.5,2.1c0-0.1,0-0.2,0-0.2s-0.1,0-0.2,0
	C106.4,2,106.4,2,106.5,2.1z M106.5,2.3c0,0.1,0.1,0.1,0.1,0.2C106.7,2.4,106.7,2.4,106.5,2.3C106.6,2.2,106.6,2.2,106.5,2.3z
	 M106.8,7.5C106.8,7.5,106.8,7.4,106.8,7.5c-0.2-0.1-0.2-0.1-0.3-0.1c0,0,0,0.1,0.1,0.1C106.6,7.6,106.7,7.6,106.8,7.5z M106.8,2.4
	c0-0.1-0.1-0.1-0.1-0.2c0,0,0,0-0.1,0C106.7,2.3,106.7,2.3,106.8,2.4z M107.9,7.8c-0.1,0-0.1-0.1-0.2-0.1l-0.1,0.1
	C107.7,7.8,107.7,7.9,107.9,7.8C107.8,7.9,107.8,7.8,107.9,7.8z M108.8,7.5c0-0.1,0-0.1-0.1-0.2c0,0-0.1,0-0.1,0.1s0,0.1,0,0.2
	C108.7,7.5,108.7,7.5,108.8,7.5z M109.2,2c-0.1-0.1-0.2-0.1-0.4-0.2c-0.1,0-0.2,0.1-0.4,0.2c0.1,0.1,0.2,0.2,0.3,0.2
	C108.9,2.1,109,2,109.2,2z M109.7,7.3C109.7,7.3,109.7,7.2,109.7,7.3c-0.1,0-0.2,0-0.2,0.1l0.1,0.1C109.6,7.4,109.6,7.3,109.7,7.3z
	 M110.2,10.5c0-0.1-0.1-0.2-0.1-0.3c-0.1,0.1-0.2,0.1-0.2,0.2c0,0.1,0,0.2,0,0.4C110,10.7,110.1,10.6,110.2,10.5z M110.7,1.7
	c0,0-0.1-0.2-0.2-0.1c-0.3,0.1-0.6,0.2-0.9,0.3v0.2c0.3,0,0.5,0,0.7,0.1c0.1,0,0.2,0.1,0.3,0.2C110.6,2.2,110.6,2,110.7,1.7z
	 M111.9,4.1c0.1,0.1,0.1,0.2,0.2,0.3c0,0,0.2,0,0.3,0c0-0.1-0.1-0.3-0.2-0.4C112.2,4,112.1,4,111.9,4.1z M111.6,3.2
	c0.1,0,0.1,0.1,0.2,0.1s0.3-0.1,0.4-0.2c-0.1-0.2-0.1-0.3-0.1-0.3C111.9,3,111.7,3.1,111.6,3.2z M111.6,4.2c-0.2,0-0.4,0-0.6,0
	C111.1,4.3,111.2,4.3,111.6,4.2z M111.8,4.4L111.8,4.4c-0.2,0-0.3,0-0.5,0.1C111.5,4.4,111.7,4.4,111.8,4.4z M112.4,9.4
	c-0.1,0-0.1-0.1-0.2-0.1c0,0-0.1,0-0.1,0.1c0.1,0,0.1,0.1,0.2,0.1L112.4,9.4z M113.1,7.6C113.1,7.6,113.1,7.5,113.1,7.6
	c-0.2-0.1-0.2-0.1-0.3-0.1c0,0,0,0.1,0.1,0.1S113.1,7.6,113.1,7.6z M116,1.6c-0.1,0-0.1-0.1-0.2-0.1c0,0-0.1,0-0.1,0.1
	c0.1,0,0.1,0.1,0.2,0.1C115.9,1.6,115.9,1.6,116,1.6z M116.5,10.1c0-0.1,0-0.1-0.1-0.2c0,0-0.1,0-0.1,0.1s0,0.1,0,0.2
	C116.5,10.2,116.5,10.2,116.5,10.1z M116.9,3.7L116.9,3.7c0-0.1,0-0.2,0-0.2s-0.1,0-0.2,0C116.7,3.5,116.8,3.5,116.9,3.7z
	 M116.9,3.8L116.9,3.8c0,0.1,0.1,0.1,0.1,0.2C117,4,117.1,3.9,116.9,3.8z M117.1,3.9c0-0.1-0.1-0.1-0.1-0.2c0,0,0,0-0.1,0
	C117,3.8,117.1,3.8,117.1,3.9z M117.5,4.8c0.1,0.1,0.1,0.2,0.2,0.2s0.3,0,0.4-0.1c0-0.2,0-0.3-0.1-0.4
	C117.9,4.6,117.7,4.7,117.5,4.8z M118.7,9.5c0-0.1-0.4-0.3-0.5-0.3c-0.2,0-0.4,0.2-0.6,0.3c-0.1,0-0.1,0.2-0.1,0.3s0.1,0.1,0.2,0.2
	c0.2-0.1,0.4-0.2,0.6-0.2C118.7,9.8,118.8,9.7,118.7,9.5z M119,8.1c0,0.3,0.1,0.5,0.1,0.8c0,0.1,0.2,0.2,0.3,0.1
	c0.1-0.1,0.3-0.2,0.3-0.3c-0.1-0.2-0.2-0.4-0.3-0.6c0-0.1,0-0.3,0-0.4C119.2,7.8,119.1,8,119,8.1z M119.8,9.8l-0.1-0.3
	c-0.2,0.1-0.5,0.2-0.7,0.3c0.1,0.1,0.2,0.2,0.4,0.3C119.5,10,119.7,9.9,119.8,9.8z M120.3,4.4c0.1,0,0.1,0,0.2-0.1
	c0,0,0-0.1-0.1-0.1s-0.1,0-0.2,0C120.3,4.3,120.3,4.4,120.3,4.4z M120.9,9c-0.1,0-0.1-0.1-0.2-0.1S120.5,9,120.4,9
	c0.1,0,0.1,0.1,0.3,0.2C120.7,9.2,120.8,9.1,120.9,9z M121.3,9.7c0,0,0-0.1-0.1-0.1s-0.1,0-0.2,0.1c0,0,0,0.1,0.1,0.1
	C121.2,9.8,121.2,9.8,121.3,9.7z M121.8,5.3c0.1,0,0.1,0,0.2,0c0,0,0-0.1,0-0.2C121.9,5.2,121.9,5.2,121.8,5.3z M121.7,5.4
	c-0.1,0-0.2,0-0.2,0.1C121.4,5.6,121.4,5.7,121.7,5.4z M121.7,5.6c0,0,0-0.1,0-0.2c-0.1,0.1-0.2,0.3-0.3,0.5
	C121.6,5.8,121.6,5.7,121.7,5.6z M122.6,9.2c-0.1-0.1-0.2-0.2-0.3-0.2C122,9,122,9.3,122,9.5c0,0.1,0,0.2,0.1,0.4
	C122.3,9.6,122.4,9.4,122.6,9.2z M123,5.1C123,5.1,123,5,123,5.1c0-0.1-0.1-0.3-0.2-0.5C122.8,4.7,122.9,4.9,123,5.1z M123,5.1
	C123,5.1,123,5.2,123,5.1c0,0.1,0,0.2,0.1,0.2C123.1,5.3,123.1,5.3,123,5.1z M123.3,4.7c0-0.2-0.2-0.3-0.3-0.5
	c-0.1,0.1-0.1,0.2,0,0.7C123.2,4.9,123.3,4.8,123.3,4.7z M125.8,8.8c0-0.1,0-0.1-0.1-0.2c0,0-0.1,0-0.1,0.1s0,0.1,0,0.2
	C125.7,8.9,125.8,8.8,125.8,8.8z M126.9,9l-0.1-0.1c0,0.1-0.1,0.1-0.1,0.2c0,0,0,0.1,0.1,0.1C126.9,9.1,126.9,9,126.9,9z M129.4,8.7
	l-0.1-0.1c-0.1,0.1-0.1,0.2-0.2,0.3c0,0,0.1,0.1,0.2,0.2C129.3,9,129.3,8.8,129.4,8.7z M129.7,2.4c0,0,0-0.1-0.1-0.1s-0.1,0-0.2,0
	c0,0,0,0.1,0.1,0.1C129.5,2.5,129.6,2.4,129.7,2.4z M131.2,10.5H131c0,0.1-0.1,0.2-0.1,0.4c0.1,0,0.2,0,0.2,0
	C131.2,10.8,131.2,10.7,131.2,10.5z M132.5,8.9c-0.1-0.1-0.2-0.2-0.3-0.2S132,8.8,132,8.8c0.1,0.1,0.2,0.2,0.3,0.2
	C132.4,8.9,132.4,8.9,132.5,8.9z M134.2,9c0,0,0-0.1-0.1-0.1s-0.1,0-0.2,0.1c0,0,0,0.1,0.1,0.1C134.1,9,134.2,9,134.2,9z M134.4,8.4
	c0-0.2,0-0.3-0.1-0.4c-0.2,0.1-0.4,0.2-0.5,0.3c0.1,0.1,0.1,0.2,0.2,0.2C134.1,8.5,134.3,8.4,134.4,8.4z M134.9,4.8
	c-0.1-0.1-0.2-0.2-0.3-0.2s-0.2,0.1-0.2,0.1c0.1,0.1,0.2,0.2,0.3,0.2C134.7,4.8,134.8,4.8,134.9,4.8z M137.5,3.2
	c-0.1,0-0.2,0-0.2,0.1s0,0.2,0,0.4c0.1,0,0.2-0.1,0.2-0.1C137.5,3.5,137.5,3.4,137.5,3.2z M138.3,3.8c0-0.2,0-0.3-0.1-0.4
	c0,0-0.2,0-0.4,0c0.1,0.2,0.2,0.3,0.3,0.5C138.2,3.9,138.3,3.8,138.3,3.8z M139.3,4.6c0,0,0,0.1,0.1,0.1s0.1,0,0.2,0
	c0,0,0-0.1-0.1-0.1S139.4,4.6,139.3,4.6z M139.2,7.6c0.1,0,0.2-0.1,0.2-0.1c0-0.1,0-0.3,0-0.4c-0.1,0-0.2,0-0.2,0.1
	C139.2,7.4,139.2,7.5,139.2,7.6z M139.7,10.5c-0.1-0.1-0.2-0.3-0.3-0.4c-0.1,0.1-0.2,0.2-0.3,0.3c0,0.1,0,0.3,0.1,0.4
	C139.3,10.7,139.5,10.6,139.7,10.5z M140.3,5.4c0,0.1,0,0.1,0.1,0.2c0,0,0.1,0,0.1-0.1s0-0.1,0-0.2C140.4,5.4,140.4,5.4,140.3,5.4z
	 M141.3,9.4c-0.1-0.1-0.1-0.2-0.2-0.1c-0.3,0-0.5,0.1-0.8,0.1c0,0-0.1,0.1-0.1,0.2c0.1,0.1,0.1,0.2,0.3,0.4
	C140.8,9.8,141.1,9.6,141.3,9.4z M142.6,4.3c0.1,0,0.1,0,0.2,0C142.8,4.3,142.8,4.2,142.6,4.3c0-0.1,0-0.1-0.1,0
	C142.6,4.3,142.6,4.3,142.6,4.3z M143.2,7.5c-0.1,0-0.1-0.1-0.2-0.1c-0.1,0-0.2,0.1-0.3,0.1c0.1,0,0.1,0.1,0.3,0.2
	C143.1,7.7,143.1,7.6,143.2,7.5z M144,10.2c-0.1,0-0.2,0-0.2,0.1s0,0.3,0,0.4c0.1,0,0.2-0.1,0.2-0.1C144,10.5,144,10.4,144,10.2z
	 M145.4,7.8c0-0.1,0-0.1,0-0.2c0,0-0.1,0-0.1,0.1s0,0.1,0,0.2C145.4,7.9,145.4,7.9,145.4,7.8z M146.3,3.1c-0.1,0-0.1-0.1-0.2-0.1
	c0,0-0.1,0-0.1,0.1c0.1,0,0.1,0.1,0.2,0.1C146.2,3.1,146.3,3.1,146.3,3.1z M147.3,2.7c0,0,0,0.1,0.1,0.2h0.1c0-0.1,0-0.2,0-0.2
	C147.5,2.7,147.3,2.7,147.3,2.7z M147.5,3.2l-0.1,0.1c0,0-0.2-0.1-0.3-0.1s-0.2,0-0.3,0c0,0-0.1,0.2,0,0.2c0.2,0.1,0.4,0.2,0.6,0.2
	C147.5,3.7,147.6,3.6,147.5,3.2z M147.7,3.4c0-0.2-0.1-0.3-0.1-0.4c0,0-0.1,0.1-0.1,0.2C147.6,3.2,147.7,3.3,147.7,3.4z M149.9,9.7
	c0-0.1,0-0.1,0-0.2c0,0-0.1,0-0.1,0.1s0,0.1,0.1,0.2C149.9,9.8,149.9,9.8,149.9,9.7z M150.9,8.2c0,0,0-0.1-0.1-0.1s-0.1,0-0.2,0
	c0,0,0,0.1,0.1,0.1S150.8,8.2,150.9,8.2z M154.5,7.6c0,0,0-0.1-0.1-0.1s-0.1,0-0.2,0.1c0,0,0,0.1,0.1,0.1
	C154.4,7.6,154.5,7.6,154.5,7.6z M156.1,9.7c0,0-0.1-0.1-0.2-0.1c0,0-0.1,0.1-0.1,0.2c0,0.1,0.1,0.2,0.1,0.3
	C155.9,9.9,156,9.9,156.1,9.7z M156.4,10.5C156.4,10.5,156.5,10.5,156.4,10.5c0-0.1,0-0.2,0-0.2s-0.1,0-0.2,0
	C156.3,10.3,156.3,10.4,156.4,10.5z M156.5,10.6C156.5,10.6,156.4,10.6,156.5,10.6c0,0.1,0.1,0.1,0.1,0.2
	C156.6,10.8,156.6,10.7,156.5,10.6z M156.7,10.7c0-0.1-0.1-0.1-0.1-0.2c0,0,0,0-0.1,0C156.6,10.6,156.6,10.6,156.7,10.7z M157,5.5
	l-0.1-0.1c0,0.1-0.1,0.1-0.1,0.2c0,0,0,0.1,0.1,0.1C156.9,5.6,157,5.5,157,5.5z M159.6,3.5c0,0,0,0.1,0.1,0.2c0,0,0,0,0.1,0
	c0-0.1,0-0.2,0-0.2C159.7,3.5,159.6,3.5,159.6,3.5z M159.7,3.8L159.7,3.8c-0.1,0.2-0.1,0.4,0.2,0.5C160,4.3,160.1,4.3,159.7,3.8z
	 M160.2,4.3c-0.1-0.2-0.2-0.4-0.3-0.5c0,0-0.1,0-0.1,0.1C159.9,3.9,160,4.1,160.2,4.3z M160.8,10.7c0-0.1-0.1-0.2-0.1-0.3
	c-0.1,0.1-0.2,0.1-0.2,0.2c0,0.1,0,0.2,0,0.4C160.6,10.8,160.7,10.7,160.8,10.7z M161.4,4c0-0.1,0-0.1-0.1-0.2c0,0-0.1,0-0.1,0.1
	s0,0.1,0,0.2C161.3,4,161.4,4,161.4,4z M163.1,4.1C163,4,163,3.9,162.9,3.9s-0.2,0-0.2,0c0,0.1,0,0.2,0,0.3
	C162.9,4.1,163,4.1,163.1,4.1z M163.8,5.9l-0.1-0.1c0,0.1-0.1,0.1-0.1,0.2c0,0,0,0.1,0.1,0.1C163.8,6,163.8,6,163.8,5.9z M164.4,11
	c-0.1-0.2-0.3-0.3-0.4-0.5c0,0.1-0.1,0.2-0.1,0.2c0,0.1,0.1,0.3,0.2,0.4C164.3,11.1,164.4,11.1,164.4,11z M164.5,4.8
	c0.1,0,0.2-0.1,0.2-0.1c0-0.3-0.1-0.6-0.1-0.9c0,0-0.1-0.1-0.2,0S164,4,164.1,4C164.2,4.2,164.4,4.5,164.5,4.8z M165,5.9
	c-0.1-0.1-0.2-0.1-0.3-0.2c0,0-0.1,0.1-0.2,0.2c0.1,0.1,0.3,0.1,0.4,0.1C164.9,6.1,165,6,165,5.9z M165.7,10.5
	c0-0.1-0.2-0.3-0.2-0.3c-0.1,0.1-0.3,0.1-0.3,0.3c0,0,0.1,0.2,0.2,0.4C165.5,10.8,165.7,10.7,165.7,10.5z M167.2,11.7
	c0.1,0-0.4-0.9-0.4-0.8c-0.1,0.1-0.2,0.2-0.3,0.4c-0.2,0.4,0,0.5,0.5,0.5C166.9,11.7,167.1,11.7,167.2,11.7z M167.8,11.5
	c-0.1,0-0.1-0.1-0.2-0.1c0,0-0.1,0-0.1,0.1c0.1,0,0.1,0.1,0.2,0.1L167.8,11.5z M169.1,6c0,0,0-0.1-0.1-0.1s-0.1,0-0.2,0
	c0,0,0,0.1,0.1,0.1C168.9,6.1,169,6,169.1,6z M169.6,9.8c0-0.1-0.1-0.2-0.1-0.3c-0.1,0.1-0.3,0.1-0.4,0.2c0,0,0.1,0.2,0.1,0.5
	C169.4,10,169.6,9.9,169.6,9.8z M170.9,7.8l-0.1-0.1c0,0.1-0.1,0.1-0.1,0.2c0,0,0,0.1,0.1,0.1C170.8,8,170.9,7.9,170.9,7.8z
	 M172,4.3c0-0.2-0.5-0.6-0.8-0.6c-0.1,0-0.1,0.1-0.2,0.1c0.3,0.2,0.5,0.4,0.8,0.6C171.9,4.4,172,4.4,172,4.3z M173.2,9.6
	c0,0,0-0.1-0.1-0.1s-0.2,0-0.2,0.1c-0.1,0.2-0.1,0.4-0.1,0.5c-0.1,0.3-0.1,0.5-0.2,0.8c0,0.1,0.2,0.2,0.3,0.2s0.3-0.2,0.3-0.2
	C173,10.4,173,10,173.2,9.6z M173.2,4.3c0,0,0-0.1-0.1-0.1c0,0.1-0.1,0.1-0.1,0.2l0.1,0.1C173.1,4.4,173.2,4.4,173.2,4.3z
	 M173.7,8.5c0-0.1,0-0.2,0-0.4c-0.1,0.1-0.2,0.1-0.2,0.2c0,0.1,0,0.2,0,0.4C173.6,8.6,173.7,8.5,173.7,8.5z M174.4,11.9
	c0,0,0-0.1-0.1-0.1s-0.1,0-0.2,0.1c0,0,0,0.1,0.1,0.1C174.2,11.9,174.3,11.9,174.4,11.9z M174.6,4.4c-0.1-0.1-0.1-0.2-0.2-0.2
	c-0.1,0-0.2,0-0.2,0c0,0.1,0,0.2,0,0.3C174.4,4.5,174.5,4.5,174.6,4.4z M175.5,4.8c-0.1-0.2-0.1-0.3-0.1-0.3
	c-0.2,0.1-0.3,0.2-0.5,0.4c0.1,0,0.1,0.1,0.2,0.1C175.3,4.9,175.4,4.8,175.5,4.8z M180.4,6.9c0,0,0-0.1-0.1-0.1
	c0,0.1-0.1,0.1-0.1,0.2l0.1,0.1C180.3,7,180.4,6.9,180.4,6.9z M180.5,5.3c0-0.2-0.2-0.4-0.3-0.6c-0.2,0.1-0.3,0.2-0.4,0.2
	c0,0.4,0,0.7,0,1c0,0,0.2,0.1,0.3,0C180.3,5.7,180.5,5.5,180.5,5.3z M183.2,5.2c-0.1,0-0.1-0.1-0.2-0.1c0,0-0.1,0-0.1,0.1
	c0,0,0.1,0.1,0.2,0.1C183.1,5.3,183.1,5.2,183.2,5.2z M186.7,8.7c0-0.1-0.1-0.2-0.1-0.2c-0.2,0.2-0.4,0.3-0.5,0.5
	c0,0,0.1,0.2,0.3,0.4C186.5,9.1,186.6,8.9,186.7,8.7z M187.4,5.5c0-0.1,0-0.2,0-0.2c-0.1,0-0.2,0-0.3,0c0,0.2,0.1,0.3,0.1,0.4
	C187.3,5.6,187.4,5.6,187.4,5.5z M197,9.3c0,0,0-0.1-0.1-0.1s-0.1,0-0.2,0c0,0,0,0.1,0.1,0.1C196.9,9.3,196.9,9.3,197,9.3z
	 M200.3,9.7l-0.1-0.1c0,0.1-0.1,0.1-0.1,0.2c0,0,0,0.1,0.1,0.1C200.2,9.8,200.3,9.8,200.3,9.7z M201.3,6.8c0,0,0-0.1-0.1-0.1
	s-0.1,0-0.2,0c0,0,0,0.1,0.1,0.1C201.2,6.9,201.3,6.8,201.3,6.8z M202.5,14.3c0,0,0-0.1-0.1-0.1s-0.1,0-0.2,0c0,0,0,0.1,0.1,0.1
	C202.3,14.4,202.4,14.3,202.5,14.3z M205.1,6.8c-0.1-0.1-0.1-0.2-0.2-0.2c-0.1,0-0.2,0-0.4,0c0.1,0.1,0.1,0.2,0.2,0.2
	C204.8,6.9,205,6.9,205.1,6.8z M209.1,12.4c0,0-0.1-0.1-0.2-0.1c0,0-0.1,0.1-0.1,0.2c0,0.1,0.1,0.2,0.1,0.3
	C208.9,12.6,208.9,12.6,209.1,12.4z M230.3,9.7c-0.2-0.2-0.2-0.3-0.4-0.4c-0.1,0-0.2,0.1-0.3,0.1c0.1,0.1,0.1,0.3,0.2,0.4
	C229.9,9.8,230.1,9.7,230.3,9.7z M233.3,15.9c0,0,0-0.1-0.1-0.1c0,0.1-0.1,0.1-0.1,0.2l0.1,0.1C233.2,16,233.3,16,233.3,15.9z
	 M233.6,14.8c0-0.2-0.2-0.3-0.3-0.5c-0.1,0.1-0.2,0.1-0.3-0.1h0.1c0-0.1,0-0.2,0-0.2s-0.1,0-0.2,0c0,0.1,0.1,0.1,0.2,0.4
	c0,0.2-0.1,0.3-0.1,0.4c0,0.1,0.1,0.2,0.1,0.3C233.3,15,233.6,14.9,233.6,14.8z M241.1,11c0,0,0-0.1-0.1-0.1c0,0.1-0.1,0.1-0.1,0.2
	l0.1,0.1C241,11.1,241.1,11.1,241.1,11z M242.7,11.1c0,0.1,0,0.1,0,0.2c0,0,0.1,0,0.1-0.1s0-0.1-0.1-0.2
	C242.7,11.1,242.7,11.1,242.7,11.1z M242.4,13.4c0,0.1,0,0.1,0,0.2c0,0,0.1,0,0.1-0.1s0-0.1,0-0.2C242.5,13.3,242.4,13.3,242.4,13.4
	z M242,9.6l0.1-0.1c-0.1,0-0.1-0.1-0.2-0.1c0,0-0.1,0-0.1,0.1C241.9,9.6,241.9,9.6,242,9.6z M242.5,16.3c-0.1-0.1-0.1-0.1-0.2-0.1
	c-0.1,0-0.2,0.1-0.3,0.1c0.1,0,0.1,0.1,0.3,0.2C242.4,16.5,242.5,16.4,242.5,16.3z M242.9,15c0,0-0.1-0.1-0.2-0.1
	c0,0-0.1,0.1-0.1,0.2c0,0.1,0.1,0.2,0.1,0.3C242.7,15.2,242.8,15.2,242.9,15z M245.2,13.4H245c-0.1,0.1-0.1,0.2-0.1,0.4
	c0.1,0,0.2,0,0.2,0C245.2,13.7,245.2,13.6,245.2,13.4z M245.6,16.7l-0.1-0.1c0,0.1-0.1,0.1-0.1,0.2c0,0,0,0.1,0.1,0.1
	C245.5,16.8,245.6,16.8,245.6,16.7z M251.9,10.6C251.9,10.6,251.9,10.5,251.9,10.6c-0.1,0-0.1,0.1-0.2,0.1
	C251.7,10.7,251.7,10.7,251.9,10.6z M251.9,10.6c0,0-0.1,0.1-0.1,0.2C251.8,10.7,251.9,10.7,251.9,10.6
	C251.9,10.7,251.9,10.6,251.9,10.6z M252,11.6c0,0-0.1-0.1-0.2-0.1l-0.1,0.1c0.1,0,0.1,0.1,0.2,0.1C252,11.7,252,11.6,252,11.6z
	 M252.2,10.3c0,0-0.1,0-0.2,0.2l0,0c0.1,0,0.2,0,0.2,0S252.2,10.4,252.2,10.3z M252.8,13.2c0-0.1,0-0.1-0.1-0.2c0,0-0.1,0-0.1,0.1
	s0,0.1,0,0.2C252.7,13.3,252.7,13.3,252.8,13.2z M255,11.5c-0.1,0-0.1,0-0.2,0C254.9,11.5,254.9,11.5,255,11.5L255,11.5z M254,10.2
	c0.1,0.1,0.3,0.3,0.4,0.3c0.1,0,0.3,0,0.4,0c-0.2-0.2-0.4-0.4-0.5-0.6C254.2,10,254.2,10.1,254,10.2z M253.6,12.2
	c0-0.1-0.1-0.3-0.2-0.4c-0.1,0.1-0.3,0.2-0.3,0.3c0,0.2,0.2,0.4,0.3,0.7C253.5,12.5,253.6,12.3,253.6,12.2z M254.7,11.5
	c-0.3-0.1-0.4-0.4-0.6-0.6c-0.1-0.1-0.8,0.2-0.9,0.3c0,0.1,0,0.2,0,0.2C253.8,11.6,254.3,11.8,254.7,11.5z M254.9,11.8v-0.1
	c0,0.1-0.1,0.2-0.1,0.3C254.8,11.9,254.9,11.9,254.9,11.8z M255.4,17.1c0-0.1-0.1-0.2-0.1-0.2c-0.1,0-0.3,0-0.4,0
	c0,0.1,0,0.2,0.1,0.2S255.2,17.1,255.4,17.1z M255.8,11.4c-0.1-0.2-0.2-0.4-0.3-0.6c-0.2,0.1-0.3,0.3-0.5,0.7
	c0.2,0.1,0.4,0.1,0.5,0.1C255.6,11.6,255.9,11.4,255.8,11.4z M255.8,10.1c-0.1-0.1-0.3-0.2-0.3-0.2c-0.1,0.1-0.2,0.2-0.3,0.3
	l0.1,0.1C255.5,10.3,255.7,10.2,255.8,10.1z M256.6,10.6c0,0,0,0.1,0.1,0.1s0.1,0,0.2,0c0,0,0-0.1-0.1-0.1S256.7,10.6,256.6,10.6z
	 M256.4,12.9c0-0.1-0.1-0.2-0.1-0.2c-0.1,0.1-0.2,0.2-0.2,0.3s0.1,0.2,0.1,0.3C256.2,13.2,256.3,13.1,256.4,12.9z M257.1,12.2
	c0-0.2,0-0.3-0.1-0.5c-0.1-0.3-0.3-0.2-0.5-0.1c-0.1,0.1-0.3,0.1-0.5,0.1c0.1,0.1,0.3,0.2,0.4,0.2c0.1,0.1,0.3,0.2,0.5,0.3
	C257,12.2,257.1,12.2,257.1,12.2z M258,16.8c0-0.1,0-0.2,0-0.3c-0.1-0.1-0.2-0.3-0.3-0.3c-0.1,0-0.2,0-0.2,0c0,0.1-0.1,0.1,0,0.2
	s0.2,0.3,0.3,0.4C257.8,16.8,257.9,16.8,258,16.8z M258.9,13.2c-0.1,0-0.1-0.1-0.2-0.1c0,0-0.1,0-0.1,0.1c0.1,0,0.1,0.1,0.2,0.1
	C258.8,13.2,258.9,13.2,258.9,13.2z M259.4,11.7c-0.3-0.4-0.2-0.6,0.1-0.9c-0.1-0.1-0.3-0.3-0.3-0.3c-0.4,0.2-0.7,0.5-1,0.7
	c0,0.3-0.1,0.5-0.1,0.7c0,0.3,0.8,0.8,1.1,0.6C259.5,12.3,259.6,12,259.4,11.7z M260.3,10.4C260.2,10.5,260.2,10.5,260.3,10.4
	c0,0.1,0,0.1,0.1,0.2C260.3,10.6,260.3,10.5,260.3,10.4z M260.2,10.7c0,0,0,0-0.1-0.2l0,0C260.2,10.6,260.2,10.7,260.2,10.7z
	 M260.1,11c0,0-0.1,0-0.1,0.1s0,0.1,0,0.2c0,0,0.1,0,0.1-0.1C260.2,11.1,260.2,11.1,260.1,11z M259.9,10.2c0,0,0,0.1,0.2,0.2l0,0
	c0-0.1,0-0.2,0-0.2S260,10.2,259.9,10.2z M259.9,11.7c0,0,0,0.1,0.1,0.1c0-0.1,0.1-0.1,0.1-0.2l-0.1-0.1
	C260,11.6,259.9,11.7,259.9,11.7z M260,17.2c0,0,0-0.1-0.1-0.1s-0.1,0-0.2,0c0,0,0,0.1,0.1,0.1S259.9,17.2,260,17.2z M260.5,12.3
	c-0.1,0-0.1-0.1-0.2-0.1s-0.2,0.1-0.3,0.1c0.1,0,0.1,0.1,0.3,0.2C260.4,12.5,260.4,12.4,260.5,12.3z M261.6,10.3c0,0,0-0.1-0.1-0.1
	s-0.1,0-0.2,0c0,0,0,0.1,0.1,0.1C261.5,10.4,261.5,10.3,261.6,10.3z M262.4,16.9c0-0.1,0-0.1-0.1-0.2c0,0-0.1,0-0.1,0.1s0,0.1,0,0.2
	C262.3,17,262.3,16.9,262.4,16.9z M262.4,10.8c0,0,0-0.1-0.1-0.1s-0.1,0-0.2,0.1c0,0,0,0.1,0.1,0.1
	C262.2,10.8,262.3,10.8,262.4,10.8z M262.8,11.5c0,0,0-0.1-0.1-0.1s-0.1,0-0.2,0.1c0,0,0,0.1,0.1,0.1
	C262.6,11.5,262.7,11.5,262.8,11.5z M263.4,14.8c0-0.1,0-0.1-0.1-0.2c0,0-0.1,0-0.1,0.1s0,0.1,0,0.2
	C263.3,14.9,263.4,14.9,263.4,14.8z M263.6,12.8c0,0,0-0.1-0.1-0.1s-0.1,0-0.2,0c0,0,0,0.1,0.1,0.1
	C263.5,12.9,263.6,12.8,263.6,12.8z M264.2,15.3c0-0.1-0.1-0.2-0.1-0.2c-0.1,0-0.3,0-0.4,0c0,0.1,0,0.2,0.1,0.2
	C263.9,15.3,264,15.3,264.2,15.3z M264.9,14.6c0-0.1,0-0.1,0-0.2c0,0-0.1,0-0.1,0.1s0,0.1,0,0.2C264.8,14.7,264.9,14.6,264.9,14.6z
	 M265.4,17.6c-0.1-0.2-0.2-0.4-0.3-0.6c-0.1,0.1-0.2,0.1-0.2,0.2s0,0.3,0.1,0.4C265.2,17.6,265.3,17.6,265.4,17.6z M265.5,14.4
	c0,0,0-0.1-0.1-0.1c0,0.1-0.1,0.1-0.1,0.2l0.1,0.1C265.5,14.5,265.5,14.4,265.5,14.4z M266,13.6c-0.1-0.1-0.2-0.4-0.3-0.4
	c-0.1,0-0.3,0.2-0.5,0.3c0.1,0.1,0.2,0.2,0.3,0.4C265.8,13.7,265.9,13.7,266,13.6z M266.3,10.6c-0.1-0.2-0.2-0.3-0.4-0.1
	c-0.3,0.2-0.5,0.3-0.9,0.2c-0.1,0-0.2,0-0.3,0.1c0,0.1,0.1,0.2,0.1,0.2c0.3,0.1,0.7,0.2,1.1,0.4c0,0,0.1-0.2,0.2-0.3
	C266.4,10.9,266.4,10.8,266.3,10.6z M267,15.6c-0.1-0.1-0.2-0.1-0.3-0.2c0,0-0.1,0.1-0.2,0.2c0.1,0.1,0.3,0.1,0.4,0.1
	C266.9,15.7,267,15.6,267,15.6z M268.2,16.5c0-0.1,0-0.1-0.1-0.2c0,0-0.1,0-0.1,0.1s0,0.1,0,0.2C268.2,16.6,268.2,16.6,268.2,16.5z
	 M268.8,16.7c0-0.1-0.1-0.2-0.1-0.3c-0.1,0.1-0.2,0.2-0.2,0.3c0,0.1,0.1,0.2,0.1,0.2C268.7,16.9,268.8,16.8,268.8,16.7z M269.9,15.7
	c-0.1-0.1-0.1-0.2-0.2-0.2s-0.2,0-0.4,0c0.1,0.1,0.1,0.1,0.2,0.2C269.7,15.8,269.8,15.7,269.9,15.7z M270.1,10c0,0,0-0.1-0.1-0.1
	s-0.1,0-0.2,0.1c0,0,0,0.1,0.1,0.1C269.9,10,270,10,270.1,10z M274.5,11c0,0,0,0.1,0.1,0.1s0.1,0,0.2,0c0,0,0-0.1-0.1-0.1
	C274.6,10.9,274.5,11,274.5,11z M270.9,13c0,0.1,0,0.1,0.1,0.2c0,0,0.1,0,0.1-0.1s0-0.1,0-0.2C271,12.9,270.9,13,270.9,13z
	 M270.9,16.4c0-0.1,0-0.2,0.1-0.3c-0.1,0-0.3,0.1-0.3,0.1C270.6,16.3,270.6,16.4,270.9,16.4z M272.1,16.3c-0.1-0.1-0.1-0.2-0.2-0.2
	c-0.1-0.1-0.2-0.2-0.2-0.3s0.1-0.4-0.2-0.2c-0.2,0.1-0.3,0.3-0.4,0.5c0.1,0.1,0.2,0.1,0.2,0.2c0,0,0.1,0,0,0.1c0.1,0,0.2,0,0.3-0.1
	c0.1,0,0.2,0.1,0.3,0.1C271.9,16.3,272,16.3,272.1,16.3z M272.4,14.7c-0.1,0.1-0.2,0.2-0.3,0.3c0,0.2,0,0.3,0,0.5
	c0.1-0.1,0.2-0.2,0.3-0.3C272.4,15,272.4,14.9,272.4,14.7z M273,13.3c0-0.1,0-0.1,0-0.2c0,0-0.1,0-0.1,0.1s0,0.1,0,0.2
	C273,13.3,273,13.3,273,13.3z M273.7,11.3c-0.1,0-0.3-0.1-0.4-0.1c-0.3,0.1-0.6,0.2-0.7,0.4c-0.3,0.4-0.9-0.3-1,0.3
	c0,0.1,0.1,0.2,0.2,0.3c0,0,0.2,0,0.3,0c0.1,0,0.2-0.1,0.3,0c0.1,0,0.2,0.2,0.3,0.3c0.1,0,0.4,0,0.5,0s0-0.3,0-0.5
	c-0.1-0.5,0.3-0.1,0.4-0.2C273.7,11.6,273.7,11.5,273.7,11.3z M275.5,12.9c-0.1-0.1-0.1-0.3-0.2-0.3c-0.1-0.1-0.3-0.1-0.4-0.1
	s-0.2,0.1-0.3,0c-0.2-0.1-0.3-0.2-0.4-0.3c0,0-0.2,0.1-0.2,0.2c0,0.1,0,0.3,0.1,0.4c0.2,0.1,0.4,0.1,0.7,0.2c0.2,0,0.4,0.1,0.5,0.1
	C275.2,13,275.3,13,275.5,12.9z M276.4,13.3c0.1-0.1,0.2-0.1,0.2-0.2c0-0.1,0-0.2,0-0.4c-0.1,0.1-0.2,0.1-0.2,0.2
	C276.3,13.1,276.4,13.2,276.4,13.3z M276.9,17.9c-0.1-0.1-0.2-0.2-0.3-0.2c-0.1,0-0.3,0.1-0.4,0.1c0.1,0.1,0.2,0.1,0.4,0.2
	C276.6,18,276.8,17.9,276.9,17.9z M277.5,18c-0.1,0-0.1-0.1-0.2-0.1c0,0-0.1,0-0.1,0.1c0,0,0.1,0.1,0.2,0.1
	C277.4,18.1,277.4,18.1,277.5,18z M277.6,17.5c0,0,0-0.1-0.1-0.1s-0.1,0-0.2,0c0,0,0,0.1,0.1,0.1S277.5,17.5,277.6,17.5z
	 M278.4,11.3c-0.1-0.1-0.2-0.1-0.3-0.2c0,0-0.1,0.1-0.2,0.2c0.1,0.1,0.3,0.1,0.4,0.1C278.3,11.4,278.4,11.3,278.4,11.3z M278.6,16.2
	c0.2,0.2,0.3,0.3,0.4,0.3s0.2-0.2,0.4-0.3c-0.1-0.1-0.1-0.3-0.2-0.3C279,16,278.9,16.1,278.6,16.2z M279,17.8
	c-0.1-0.1-0.1-0.2-0.2-0.4c-0.1,0.1-0.2,0.2-0.2,0.3c0,0.1,0.1,0.3,0.1,0.4C278.9,18.1,278.9,17.9,279,17.8z M280.1,18.9l-0.1-0.1
	c-0.3,0-0.7,0.1-1,0.1c0,0.1,0,0.2,0,0.2C279.3,19.3,279.9,19.2,280.1,18.9C280.1,19,280.1,18.9,280.1,18.9z M284.6,11.1
	c0,0.1,0.1,0.2,0.1,0.3c0-0.1,0.1-0.1,0.2-0.3c0,0-0.1-0.1-0.2-0.2C284.7,11,284.6,11.1,284.6,11.1z M285,17.2
	c-0.1-0.2-0.1-0.3-0.2-0.4c-0.2,0.1-0.3,0.2-0.5,0.3c0.1,0.2,0.2,0.3,0.3,0.5C284.8,17.4,284.9,17.3,285,17.2z M286.1,18.5
	c-0.1-0.2-0.1-0.3-0.1-0.3c-0.2,0.1-0.3,0.2-0.5,0.4c0.1,0,0.1,0.1,0.2,0.1C285.9,18.6,286,18.5,286.1,18.5z M286.4,11.8
	c-0.1-0.1-0.2-0.2-0.2-0.2c-0.3-0.1-0.5-0.1-0.7-0.1l-0.2,0.1c0.1,0.2,0.2,0.4,0.3,0.4C285.9,12,286.2,11.8,286.4,11.8z M287.9,10.8
	c0,0.1,0,0.2,0,0.3c0.2,0,0.3-0.1,0.4-0.1c-0.1-0.1-0.1-0.2-0.2-0.2C288.1,10.8,288,10.8,287.9,10.8z M287.1,14.2c0,0,0-0.1-0.1-0.1
	s-0.1,0-0.2,0c0,0,0,0.1,0.1,0.1C286.9,14.2,287,14.2,287.1,14.2z M287.9,17.8c0,0,0-0.1-0.1-0.1s-0.1,0.1-0.1,0.2l0.1,0.1
	C287.8,17.9,287.9,17.9,287.9,17.8z M288.7,11.9c-0.2-0.1-0.7-0.2-0.7-0.2c-0.3,0.8-0.5,0.2-0.6-0.1c-0.1-0.1-0.1-0.3-0.1-0.4
	c-0.1,0.2-0.3,0.3-0.4,0.5c0,0,0,0.2,0.1,0.3c0.2,0.3,0.4,0.6,0.7,0.8c0.1,0.1,0.2,0.1,0.3,0.2c0.5,0,0.8,0,0.9-0.2
	C288.9,12.5,289,12.1,288.7,11.9z M289.8,13.8c0-0.1-0.1-0.2-0.1-0.3c-0.1,0.1-0.2,0.1-0.2,0.2c0,0.1,0,0.2,0,0.4
	C289.6,14,289.7,13.9,289.8,13.8z M291.6,16.9c-0.1-0.1-0.2-0.1-0.3-0.2c0,0-0.1,0.1-0.2,0.2c0.1,0.1,0.3,0.1,0.4,0.1
	C291.5,17.1,291.5,17,291.6,16.9z M291.7,19.1c0-0.1,0-0.1-0.1-0.2c0,0-0.1,0-0.1,0.1s0,0.1,0,0.2C291.6,19.1,291.6,19.1,291.7,19.1
	z M292.7,18.7c-0.1-0.1-0.2-0.2-0.3-0.2c-0.1,0-0.2,0.1-0.2,0.1c0.1,0.1,0.2,0.2,0.3,0.2C292.5,18.7,292.6,18.7,292.7,18.7z
	 M293.1,16.7c0,0-0.1-0.1-0.2-0.1l-0.1,0.1c0.1,0,0.1,0.1,0.2,0.1C293,16.8,293.1,16.8,293.1,16.7z M293.1,14.4c0-0.2,0-0.3-0.1-0.4
	c-0.2,0.1-0.4,0.2-0.5,0.3c0.1,0.1,0.1,0.2,0.2,0.2C292.9,14.5,293,14.4,293.1,14.4z M302.1,16.7c0-0.1,0-0.2,0-0.4
	c-0.1,0.1-0.2,0.1-0.2,0.2s0,0.2,0,0.4C302,16.8,302.1,16.8,302.1,16.7z M302.3,13.4c0,0,0-0.1-0.1-0.1s-0.1,0-0.2,0
	c0,0,0,0.1,0.1,0.1C302.2,13.4,302.2,13.4,302.3,13.4z M307,19.4c-0.1-0.1-0.1-0.2-0.2-0.2s-0.2,0-0.4,0c0.1,0.1,0.1,0.2,0.4,0.3
	l0,0C306.8,19.5,306.9,19.4,307,19.4z M309.2,10.9c-0.1,0-0.1-0.1-0.2-0.1c0,0-0.1,0-0.1,0.1c0,0,0.1,0.1,0.2,0.1
	S309.2,10.9,309.2,10.9z M310.9,12.2c0-0.1,0-0.1-0.1-0.2c0,0-0.1,0-0.1,0.1s0,0.1,0,0.2C310.8,12.3,310.9,12.2,310.9,12.2z
	 M321.7,10.8c0,0,0-0.1-0.1-0.1c0,0.1-0.1,0.1-0.1,0.2l0.1,0.1C321.6,10.9,321.6,10.9,321.7,10.8z M323.8,11.6c0-0.1,0-0.2-0.1-0.4
	c-0.1,0.1-0.2,0.1-0.2,0.2c0,0.1,0,0.2,0,0.4C323.7,11.7,323.8,11.7,323.8,11.6z M326,12.5c-0.1,0-0.1-0.1-0.2-0.1
	c0,0-0.1,0-0.1,0.1c0.1,0,0.1,0.1,0.2,0.1C325.9,12.5,325.9,12.5,326,12.5z M341.6,12.6c0,0,0-0.1-0.1-0.1s-0.1,0-0.2,0
	c0,0,0,0.1,0.1,0.1C341.4,12.6,341.5,12.6,341.6,12.6z M344.4,11.4c-0.1,0-0.2,0-0.2,0.1C344.1,11.6,344.1,11.7,344.4,11.4z
	 M344.4,11.6c0-0.1,0-0.1,0-0.2c-0.1,0.1-0.2,0.3-0.3,0.5C344.3,11.8,344.3,11.7,344.4,11.6z M344.7,11.2c0,0-0.1,0-0.2,0.2
	c0.1,0,0.1,0,0.2,0C344.7,11.3,344.7,11.2,344.7,11.2z M295.3,10.2L295.3,10.2C295.3,10.2,295.4,10.2,295.3,10.2
	C295.4,10.2,295.4,10.2,295.3,10.2L295.3,10.2L295.3,10.2L295.3,10.2z M178.1,4.1L178.1,4.1C178.1,4,178.1,4,178.1,4.1
	c0-0.1-0.1-0.1-0.1,0C178,4,178,4,178.1,4.1L178.1,4.1z M68.7,0.9C68.7,0.9,68.6,0.9,68.7,0.9c-0.2-0.1-0.2-0.1-0.3-0.1l0,0
	C68.5,0.9,68.6,1,68.7,0.9C68.7,1,68.7,1,68.7,0.9z M163,2.8L163,2.8L163,2.8h-0.1l0,0C162.9,2.9,163,2.8,163,2.8L163,2.8z
	 M257.6,18.5L257.6,18.5L257.6,18.5z M289,19.6c0,0,0,0.1,0.1,0.1s0.1-0.1,0.2-0.1c0-0.1-0.1-0.1-0.1-0.1
	C289.1,19.5,289.1,19.5,289,19.6z M94.5,0.5c-0.1,0-0.3,0.1-0.3,0.1c0,0.2-0.1,0.3-0.1,0.4c0.2-0.1,0.4-0.2,0.6-0.2
	C94.6,0.7,94.6,0.5,94.5,0.5z M293.5,19L293.5,19L293.5,19L293.5,19z M293.5,19C293.5,18.9,293.5,18.9,293.5,19
	C293.5,18.9,293.5,19,293.5,19z M217,15.5L217,15.5c0-0.1,0-0.1,0-0.2C217,15.3,217,15.4,217,15.5z M255.5,18L255.5,18L255.5,18
	C255.5,17.9,255.5,18,255.5,18z"/>
</svg>
