<?xml version="1.0" encoding="utf-8"?>
<!-- Generator: Adobe Illustrator 23.0.3, SVG Export Plug-In . SVG Version: 6.00 Build 0)  -->
<svg version="1.1" id="Layer_1" xmlns="http://www.w3.org/2000/svg" xmlns:xlink="http://www.w3.org/1999/xlink" x="0px" y="0px"
	 viewBox="0 0 300 33.1" style="enable-background:new 0 0 300 33.1;" xml:space="preserve">
<style type="text/css">
	.st0{fill:#3E50B4;}
</style>
<path class="st0" d="M287.1,17.3c2.6,1.3,5,2.3,7.6,3.6c0.3,0,4,3.3,4,3.3c-1.3,1-3.6,0.3-5-0.3c-5.3-1.7-9.6-5.3-14.2-7.9
	c0,0.3,0,0.7,0,1.3c4.3-3,8.9-6,13.9-7.6c0.7-0.3,4.6-0.3,3,1.7c-0.7,0.7-2,1.3-3,2c-2,1-4,2-6,2.6c-1,0.3-0.7,1.7,0.3,1.3
	c1.7-0.3,13.6-5.3,10.3-8.3c-4.6-4.6-15.5,4.3-19.2,6.9c-0.3,0.3-0.3,1,0,1.3c4,2.3,7.6,5,11.9,6.9c2.6,1.3,6.3,2.6,8.9,1
	c0.3-0.3,0.3-0.7,0.3-1c-2.6-4.3-7.9-6-12.2-7.9C287.1,15.9,286.4,16.9,287.1,17.3L287.1,17.3z M261,17.6c2.6,1,5,2.3,7.6,3.6
	c0.3,0.3,4,3.3,4,3.3c-1.3,1-3.6,0.3-5-0.3c-5.3-1.7-9.6-5.3-14.2-7.9c0,0.3,0,1,0,1.3c4.3-3,8.9-6.3,13.9-7.6
	c1-0.3,4.3-0.3,2.6,1.7c-0.7,0.7-2,1.3-3,2c-2,1-4,2-6,2.6C260,16.6,260.3,17.9,261,17.6c2-0.3,13.9-5.3,10.9-8.3
	c-5-4.3-15.5,4.3-19.5,6.9c-0.3,0.3-0.7,1,0,1.3c5,2.6,15.2,11.9,20.8,7.6c0.3-0.3,0.3-0.7,0.3-1c-2.6-4.3-7.6-6-12.2-7.9
	C260.6,15.6,260,16.9,261,17.6L261,17.6z M234.8,17.6c2.6,1,5,2.3,7.6,3.6c0.3,0.3,4,3.3,4,3.3c-1.3,1-3.6,0.3-5-0.3
	c-5.3-1.7-9.6-5.3-14.2-7.9c0,0.3,0,1,0,1.3c4.3-3,8.9-6.3,13.9-7.6c1-0.3,4.3-0.3,2.6,1.7c-0.7,0.7-2,1.3-3,2c-2,1-4,2-6,2.6
	C233.8,16.6,234.2,17.9,234.8,17.6c2-0.3,13.9-5.3,10.9-8.3c-5-4.3-15.5,4.3-19.5,6.9c-0.3,0.3-0.7,1,0,1.3
	c5,2.6,15.2,11.9,20.8,7.6c0.3-0.3,0.3-0.7,0.3-1c-2.6-4.3-7.6-6-12.2-7.9C234.5,15.6,233.8,16.9,234.8,17.6L234.8,17.6z
	 M208.7,17.6c2.6,1,5,2.3,7.6,3.6c0.3,0.3,4,3.3,4,3.3c-1.3,1-3.6,0.3-5-0.3c-5.3-1.7-9.6-5.3-14.2-7.9c0,0.3,0,1,0,1.3
	c4.3-3,8.9-6.3,13.9-7.6c1-0.3,4.3-0.3,2.6,1.7c-0.7,0.7-2,1.3-3,2c-2,1-4,2-6,2.6C207.7,16.6,208,17.9,208.7,17.6
	c2-0.3,13.9-5.3,10.9-8.3c-5-4.3-15.5,4.3-19.5,6.9c-0.3,0.3-0.7,1,0,1.3c5,2.6,15.2,11.9,20.8,7.6c0.3-0.3,0.3-0.7,0.3-1
	c-2.6-4.3-7.6-6-12.2-7.9C208.4,15.6,207.7,16.9,208.7,17.6L208.7,17.6z M182.6,17.3c2.6,1.3,5,2.3,7.6,3.6c0.3,0,4,3.3,4,3.3
	c-1.3,1-3.6,0.3-5-0.3c-5.3-1.7-9.6-5.3-14.2-7.9c0,0.3,0,0.7,0,1.3c4.3-3,8.9-6,13.9-7.6c0.7-0.3,4.6-0.3,3,1.7c-0.7,0.7-2,1.3-3,2
	c-2,1-4,2-6,2.6c-1,0.3-0.7,1.7,0.3,1.3c1.7-0.3,13.6-5.3,10.3-8.3c-4.6-4.6-15.5,4.3-19.2,6.9c-0.3,0.3-0.3,1,0,1.3
	c4,2.3,7.6,5,11.9,6.9c2.6,1.3,6.3,2.6,8.9,1c0.3-0.3,0.3-0.7,0.3-1c-2.6-4.3-7.9-6-12.2-7.9C182.6,15.9,181.9,16.9,182.6,17.3
	L182.6,17.3z M12.9,16.9c-2.6-1.3-5-2.3-7.6-3.6c-0.3,0-4-3.3-4-3.3c1.3-1,3.6-0.3,5,0.3c5.3,1.7,9.6,5.3,14.2,7.9
	c0-0.3,0-0.7,0-1.3c-4.3,3-8.9,6-13.9,7.6c-0.7,0.3-4.6,0.3-3-1.7c0.7-0.7,2-1.3,3-2c2-1,4-2,6-2.6c1-0.3,0.7-1.7-0.3-1.3
	C10.6,17.3-1.3,22.2,2,25.2c4.6,4.6,15.5-4.3,19.2-6.9c0.3-0.3,0.3-1,0-1.3c-4-2.3-7.6-5-11.9-6.9C6.6,8.7,3,7.3,0.3,9
	C0,9.3,0,9.7,0,10c2.6,4.3,7.9,6,12.2,7.9C13.2,18.3,13.6,17.3,12.9,16.9L12.9,16.9z M39,16.9c-2.6-1-5-2.3-7.6-3.6
	c-0.3-0.3-4-3.3-4-3.3c1.3-1,3.6-0.3,5,0.3c5.3,1.7,9.6,5.3,14.2,7.9c0-0.3,0-1,0-1.3c-4.3,3-8.6,6.3-13.9,7.6
	c-1,0.3-4.3,0.3-2.6-1.7c0.7-0.7,2-1.3,3-2c2-1,4-2,6-2.6c1-0.3,0.7-1.7-0.3-1.3c-1.7,0.3-13.6,5.3-10.6,8.3
	c5,4.3,15.5-4.3,19.5-6.9c0.3-0.3,0.7-1,0-1.3c-5-2.6-15.2-11.9-20.8-7.6c-0.3,0.3-0.3,0.7-0.3,1c2.6,4.3,7.6,6,12.2,7.9
	C39.4,18.6,40,17.3,39,16.9L39,16.9z M65.2,16.9c-2.6-1-5-2.3-7.6-3.6c-0.3-0.3-4-3.3-4-3.3c1.3-1,3.6-0.3,5,0.3
	c5.3,1.7,9.6,5.3,14.2,7.9c0-0.3,0-1,0-1.3c-4.3,3-8.9,6.3-13.9,7.6c-1,0.3-4.3,0.3-2.6-1.7c0.7-0.7,2-1.3,3-2c2-1,4-2,6-2.6
	c1-0.3,0.7-1.7-0.3-1.3c-1.7,0.3-13.6,5.3-10.6,8.3c5,4.3,15.5-4.3,19.5-6.9c0.3-0.3,0.7-1,0-1.3c-5-2.6-15.2-11.9-20.8-7.6
	c-0.3,0.3-0.3,0.7-0.3,1c2.6,4.3,7.6,6,12.2,7.9C65.5,18.6,66.2,17.3,65.2,16.9L65.2,16.9z M91.3,16.9c-2.6-1-5-2.3-7.6-3.6
	c-0.3-0.3-4-3.3-4-3.3c1.3-1,3.6-0.3,5,0.3c5.3,1.7,9.6,5.3,14.2,7.9c0-0.3,0-1,0-1.3c-4.3,3-8.9,6.3-13.9,7.6
	c-1,0.3-4.3,0.3-2.6-1.7c0.7-0.7,2-1.3,3-2c2-1,4-2,6-2.6C92.3,17.9,92,16.6,91.3,16.9c-2,0.3-13.9,5.3-10.9,8.3
	c5,4.3,15.5-4.3,19.5-6.9c0.3-0.3,0.7-1,0-1.3c-5-2.6-15.2-11.9-20.8-7.6c-0.3,0.3-0.3,0.7-0.3,1c2.6,4.3,7.6,6,12.2,7.9
	C91.6,18.6,92.3,17.3,91.3,16.9L91.3,16.9z M117.4,16.9c-2.6-1.3-5-2.3-7.6-3.6c-0.3,0-4-3.3-4-3.3c1.3-1,3.6-0.3,5,0.3
	c5.3,1.7,9.6,5.3,14.2,7.9c0-0.3,0-0.7,0-1.3c-4.3,3-8.9,6-13.9,7.6c-0.7,0.3-4.6,0.3-3-1.7c0.7-0.7,2-1.3,3-2c2-1,4-2,6-2.6
	c1-0.3,0.7-1.7-0.3-1.3c-1.7,0.3-13.6,5.3-10.3,8.3c4.6,4.6,15.5-4.3,19.2-6.9c0.3-0.3,0.3-1,0-1.3c-4-2.3-7.6-5-11.9-6.9
	c-2.6-1.3-6.3-2.6-8.9-1c-0.3,0.3-0.3,0.7-0.3,1c2.6,4.3,7.9,6,12.2,7.9C117.8,18.3,118.1,17.3,117.4,16.9L117.4,16.9z M153.1,13.6
	c-1.3-1.3-3.3-0.3-4.3,1c-1.3,1.7-1,4,1,5c1.7,1.3,4,0,5-1.7C155.8,15.9,154.8,14,153.1,13.6c-1-0.3-1.3,0.3-0.7,0.7
	c0.7,0.3,1.3,0.7,1.7,1.3c0.3,0.7,0,1,0,1.7c-0.7,1.3-2,1.7-3,1.3c-2.6-1.3-0.3-5.6,2-4.3C153.1,14.6,153.5,14,153.1,13.6
	L153.1,13.6z M154.5,14.9c2.3-2.6,3.3-5.6,1.3-8.6c-1.3-1.7-1.7-3.3-2.6-5c-0.7-0.7-1.7-1.7-2.6-1.3c-5.6,1.3-3.3,10.6-1,13.9
	c0.3,0.7,1.3,0,1-0.7c-1.7-3-3.3-7.3-1.7-10.6c1-2,3.3-1.3,4.3,0.3c0.7,1,0.7,2,1,2.6c1,1.3,1.7,1,2,3.6c0.3,1.7-1,3.6-2,5
	C153.5,14.6,154.1,15.3,154.5,14.9L154.5,14.9z M149.8,13.6c-2.3-2-4-4.6-7.3-4.6c-1.7,0-6.3-0.3-6.3,2.3c0,2,2.3,4.3,4,5.3
	c2.3,1.3,6.3,2,8.6,0.3c0.7-0.3,0.3-1.3-0.3-1c-4,1.3-8.3,0-10.3-3.6c-1.7-3.3,5.6-2,6.9-1.3c1.7,1,2.6,2.6,4.3,3.3
	C149.8,14.6,150.5,14,149.8,13.6L149.8,13.6z M147.9,16.6c-1.3,0.7-3,1-4.3,1.7c-1.3,0.7-2.3,1.7-3.3,3c-1.7,2-2,4.3-1.7,6.9
	c0,1,1.3,0.3,1.3-0.3c-0.3-3,0.7-5.3,2.6-7.3c1.7-1.7,4-2,6-3C148.8,17.3,148.5,16.3,147.9,16.6L147.9,16.6z M149.5,19.2
	c-1.7,4-4.3,9.3-9.6,8.3c-0.7-0.3-1,1-0.3,1c5.3,1.7,9.9-4.3,10.9-8.9C150.5,18.9,149.8,18.9,149.5,19.2L149.5,19.2z M152.8,19.6
	c0.7,1.7,1.7,3,2,4.6c1,2.3-0.3,4-1.7,6c-0.3,0.7-1.3,2.3-2.3,1c-0.7-0.7-1-1.7-1.3-2.3c-0.7-1.7-1-3.6-0.7-5.3c0-0.7-1-1-1-0.3
	c-0.3,2,0.7,11.6,4.6,9.6c1.7-1,3.3-3.6,4-5.6c0.7-2.6-1.3-5.6-2.6-7.9C153.1,18.6,152.5,18.9,152.8,19.6L152.8,19.6z M155.1,14.6
	c1.7-2,3.6-3,6.3-3c1,0,1.7,0.3,2.6,0.7c1.3,0.3,4,0.3,2.6,3c-1.7,3.6-8.6,4-11.6,2.3c-0.7-0.3-1.3,0.7-0.7,1c2.6,2,6.6,1.3,9.6,0.3
	c2-0.7,4.6-3,4.3-5.3c0-1-0.7-1.7-1.3-2c-1.3-0.3-3.3-1.3-5-1.3c-3-0.3-6,1-7.6,3.6C153.8,14.6,154.8,14.9,155.1,14.6L155.1,14.6z
	 M159.4,19.9c3.3,0.7,3.6,4.3,3.6,6.9c0,1,0.3,1.3-1.3,1.7c-1,0-1.7-0.3-2.3-0.7c-1.3-0.7-2.3-2-3.3-3.3c-0.3-0.3-1.3,0-1,0.7
	c1.3,1.7,2.6,3.6,4.6,4.3c1.3,0.3,3.6,0.7,4.3-1c0.3-1,0-2.3,0-3.3s-0.3-2-0.7-3c-0.7-1.3-2.3-3-4-3.3
	C159.1,18.9,159.1,19.6,159.4,19.9L159.4,19.9z"/>
</svg>
