<?xml version="1.0" encoding="utf-8"?>
<!-- Generator: Adobe Illustrator 23.0.3, SVG Export Plug-In . SVG Version: 6.00 Build 0)  -->
<svg version="1.1" id="Layer_1" xmlns="http://www.w3.org/2000/svg" xmlns:xlink="http://www.w3.org/1999/xlink" x="0px" y="0px"
	 viewBox="0 0 300 20.7" style="enable-background:new 0 0 300 20.7;" xml:space="preserve">
<style type="text/css">
	.st0{fill:#B14F8B;}
</style>
<path class="st0" d="M5.4,20.1c-2.6,0-5.1-1.6-5.1-1.9L0,17.9c0-0.3,0-0.3,0.3-0.3c0,0,3.5-2.2,6.1-1.6c1.3,0.3,1.9,1.3,1.9,2.2
	c0,1-0.6,1.9-1.9,2.2l0,0C6.1,20.1,5.7,20.1,5.4,20.1z M6.4,19.5L6.4,19.5L6.4,19.5z M1.6,17.9c1,0.6,2.9,1.3,4.5,1l0,0
	c0.6,0,1-0.6,1-1c0-0.3-0.3-1-1-1C4.8,16.6,2.9,17.2,1.6,17.9z M294.6,20.7c-0.3,0-0.6,0-1,0l0,0c-1.3-0.3-1.9-1.3-1.9-2.2
	c0-1,0.6-1.9,1.9-2.2c2.6-0.6,6.1,1.6,6.1,1.6l0.3,0.3c0,0.3,0,0.3-0.3,0.3C299.7,19.1,296.8,20.7,294.6,20.7z M293.9,19.5
	c1.6,0.3,3.5-0.6,4.5-1c-1-0.6-2.9-1.3-4.5-1c-0.6,0-1,0.6-1,1C293,18.8,293.3,19.5,293.9,19.5L293.9,19.5z M292.3,19.1L7.7,18.5
	c-0.3,0-0.6-0.3-0.6-0.6s0.3-0.6,0.6-0.6l284.7,0.6c0.3,0,0.6,0.3,0.6,0.6C293,18.8,292.7,19.1,292.3,19.1z M161.2,18.8
	c-1,0-1.6,0-2.6-0.3h-0.3c-1.6-0.6-3.8-1.9-5.4-3.5c-4.8-4.1-8.9-2.6-8.9-2.6l0,0c-1.6,0.3-2.6,1.9-2.2,3.8c0.3,1.3,1.6,1.9,2.9,1.6
	c0.3,0,1-0.3,1-1c0.3-0.6,0.3-1.3,0-1.6c-0.3-0.3-1-0.6-1.3-0.3c-0.3,0-0.6,0-0.6-0.3c0-0.3,0-0.6,0.3-0.6c1-0.3,1.9,0,2.6,1
	c0.6,0.6,0.6,1.9,0,2.9c-0.3,0.6-1,1.3-1.9,1.3c-1.9,0.3-3.5-0.6-4.1-2.6c-0.6-2.2,1-4.5,2.9-5.1c0.3-0.3,5.1-1.6,9.9,2.9
	c1.6,1.6,3.5,2.9,5.1,3.2h0.3c1.9,0.6,4.1,0.3,6.1-1c1.6-1.3,2.6-3.2,2.6-5.1v-0.3c-0.3-1.3-1-2.6-2.2-3.5c-1.9-1.3-3.8-1.3-5.1-0.3
	c-1.3,1-2.2,2.6-1.9,4.1c0,1,0.6,1.6,1.3,2.2c1,0.6,2.2,1,3.2,0.3s1.3-1.6,1.3-2.6c0-0.6-0.3-1-0.6-1.3c-0.3-0.3-1-0.3-1.3-0.3
	s-0.6-0.3-0.6-0.3c0-0.3,0.3-0.6,0.3-0.6c0.6,0,1.6,0,2.2,0.6c0.6,0.3,1,1.3,1,1.9c0.3,1.3-0.6,2.9-1.6,3.5
	c-1.3,0.6-2.9,0.6-4.5-0.3c-1-0.6-1.6-1.6-1.6-2.9c-0.3-1.9,0.6-4.1,2.6-5.1c1.9-1.3,4.1-1,6.4,0.6c1.6,1,2.6,2.6,2.6,4.1
	c0,0.3,0,0.3,0,0.6c0,2.2-1,4.5-2.9,6.1C164.4,18.2,162.8,18.8,161.2,18.8z M138.8,18.8c-1.6,0-3.2-0.6-4.5-1.6
	c-1.9-1.6-2.9-3.5-2.9-6.1c0-0.3,0-0.3,0-0.6c0.3-1.6,1.3-3.2,2.6-4.1c2.2-1.6,4.5-1.6,6.4-0.6c1.6,1,2.6,3.2,2.6,5.1
	c0,1.3-0.6,2.2-1.9,2.9c-1.3,1-3.2,1.3-4.5,0.3c-1.3-0.6-1.9-2.2-1.6-3.5c0-0.6,0.6-1.6,1.3-1.9c0.6-0.3,1.3-0.6,2.2-0.6
	c0.3,0,0.6,0.3,0.3,0.6c0,0.3-0.3,0.6-0.6,0.3c-0.6,0-1,0-1.3,0.3c-0.3,0.3-0.6,0.6-0.6,1.3c0,1,0.3,1.9,1.3,2.6
	c1,0.6,2.2,0.3,3.2-0.3c0.6-0.6,1.3-1.3,1.3-2.2c0.3-1.6-0.6-3.2-1.9-4.1c-1.6-1-3.5-0.6-5.1,0.3c-1.3,1-1.9,2.2-2.2,3.5v0.3
	c0,1.9,0.6,3.8,2.6,5.1c1.6,1.3,4.1,1.6,6.1,1h0.3c1.6-0.6,3.5-1.9,5.1-3.2c5.1-4.5,9.6-3.2,9.9-2.9c2.2,0.6,3.5,2.9,2.9,5.1
	c-0.3,1.9-2.2,2.9-4.1,2.6c-0.6-0.3-1.3-0.6-1.9-1.3c-0.6-1-0.6-2.2,0-2.9c0.6-0.6,1.6-1,2.6-1c0.3,0,0.3,0.3,0.3,0.6
	c0,0.3-0.3,0.3-0.6,0.3c-0.6,0-1,0-1.3,0.3c-0.3,0.3-0.3,1,0,1.6c0.3,0.3,0.6,0.6,1,1c1.3,0.3,2.6-0.3,2.9-1.6
	c0.3-1.6-0.6-3.2-2.2-3.8l0,0c-0.3,0-4.1-1.6-8.9,2.6c-1.9,1.6-3.8,2.9-5.4,3.5h-0.3C140.7,18.5,139.8,18.8,138.8,18.8z M150,9.9
	c-0.3,0-0.3,0-0.6-0.3c0-0.3-1.6-4.1-1.3-7.3c0.3-1.6,1-2.2,1.9-2.2c0.6,0,1.6,0.6,1.9,2.2c0.3,3.2-1.3,7-1.3,7.3
	C150.3,9.6,150.3,9.9,150,9.9z M150,1c-0.3,0-0.6,0.3-0.6,1.3l0,0c-0.3,1.6,0.3,3.8,0.6,5.4c0.3-1.3,1-3.5,0.6-5.4
	C150.6,1.6,150.3,1,150,1z M148.7,2.2L148.7,2.2L148.7,2.2z M153.2,9.3L153.2,9.3c-0.3,0-0.6-0.3-0.3-0.6c0-0.3,0.6-2.2,1.6-2.9l0,0
	c0.6-0.3,1.3-0.3,1.6,0c0.3,0.3,0.6,1.3,0.3,1.6C155.4,8.9,153.5,9.3,153.2,9.3C153.5,9.3,153.2,9.3,153.2,9.3z M154.8,6.1
	L154.8,6.1c0,0.6-0.3,1.3-0.6,1.6c0.6-0.3,1-0.6,1.3-1c0-0.3,0-0.3,0-0.3h-0.3L154.8,6.1z M146.8,9.3L146.8,9.3
	c-0.3,0-2.2-0.6-3.2-1.6c-0.3-0.6-0.3-1.3,0.3-1.6c0.3-0.3,1.3-0.6,1.6,0l0,0C146.8,6.7,147.1,8.9,146.8,9.3
	C147.1,9.3,147.1,9.3,146.8,9.3C147.1,9.3,146.8,9.3,146.8,9.3z M144.9,6.7L144.9,6.7c-0.3,0-0.3,0.3-0.3,0.6c0.3,0.3,1,0.6,1.3,1
	C145.9,7.3,145.5,7,144.9,6.7L144.9,6.7z"/>
</svg>
