<?xml version="1.0" encoding="utf-8"?>
<!-- Generator: Adobe Illustrator 23.0.3, SVG Export Plug-In . SVG Version: 6.00 Build 0)  -->
<svg version="1.1" id="Layer_1" xmlns="http://www.w3.org/2000/svg" xmlns:xlink="http://www.w3.org/1999/xlink" x="0px" y="0px"
	 viewBox="0 0 300 13.5" style="enable-background:new 0 0 300 13.5;" xml:space="preserve">
<style type="text/css">
	.st0{fill-rule:evenodd;clip-rule:evenodd;fill:#3E50B4;}
</style>
<path class="st0" d="M246.3,10.7c-0.3,0.3-0.9,0-1.2,0.3c-0.3,0-0.6,0-0.9,0c-0.6,0-0.3,0-0.9-0.3c0.3,0,0.3,0,0.6,0c0.3,0,0,0,0,0
	h0.3c0,0-0.3,0,0.3-0.3c0.3,0,0.3,0,0.3,0c0.3,0,0,0,0.3,0C245.4,10.7,246,10.7,246.3,10.7z M245.1,11c0.3-0.3,0.6,0,1.2,0
	C246,11,245.7,11,245.1,11C245.4,11,245.1,11,245.1,11z M247.6,11c0.3,0,0.3,0,0.6,0c0.3,0,0-0.3,0-0.3S247.9,10.7,247.6,11
	C247.6,11,248.2,10.7,247.6,11C247.9,11,247.3,11,247.6,11z M250.7,10.7c-0.6,0-1.2,0-1.9,0c0,0,0.6,0,0.3,0c-0.3,0-0.3,0-0.6,0
	c0.9,0,0.6,0.3,1.2,0.3c-0.3,0-0.3,0-0.3-0.3C250.1,10.7,250.4,11,250.7,10.7z M273.2,10L273.2,10C273.2,10,273.2,10.3,273.2,10
	C273.9,10,273.2,10.3,273.2,10z M267.1,10.7c-0.3,0-0.3,0-0.6,0C266.1,10.7,266.8,10.7,267.1,10.7L267.1,10.7z M266.1,11.3
	c0.3,0,0.6,0,0.6,0C266.4,11.3,265.8,11,266.1,11.3z M262.7,11.9C262.4,11.9,262.4,11.9,262.7,11.9
	C262.4,11.9,262.4,11.9,262.7,11.9z M231.5,3.2L231.5,3.2L231.5,3.2L231.5,3.2z M254.7,10.7c0.6,0,0.9,0,1.5,0c0,0,0,0,0.3,0
	C255.9,10.3,255.3,10.7,254.7,10.7z M264.6,10.7C264.9,10.7,264.9,10.7,264.6,10.7c0.3,0,0.3,0,0.6,0
	C265.2,10.7,265.2,10.7,264.6,10.7L264.6,10.7z M252.2,11c0.3,0,0.6,0,1.2,0c-0.3,0-0.6,0-0.6,0C252.2,10.7,252.8,10.7,252.2,11z
	 M257.5,10.7c-0.3,0-0.6,0-0.6,0C257.2,10.7,257.5,10.7,257.5,10.7S257.8,10.7,257.5,10.7z M254.4,10.7L254.4,10.7
	c-0.6,0-0.6,0-0.9,0C253.8,10.7,254.1,10.7,254.4,10.7C254.1,10.7,254.7,11,254.4,10.7z M261.8,11c0.3,0,0.6,0,0.6,0
	S262.4,11,261.8,11C262.1,10.7,261.8,10.3,261.8,11c0.3-0.3,0.6,0,0.6,0C262.1,10.7,261.5,10.7,261.8,11z M259.9,11.3
	C260.3,11.3,260.3,11,259.9,11.3c0.3,0,0.3,0.3,0.6,0C260.6,11.3,260.3,11.3,259.9,11.3c-0.3-0.3-1.2-0.3-1.5-0.3c0,0,0,0,0,0.3
	C259.3,11,259.6,11,259.9,11.3z M261.2,10.7c-0.3,0-1.2,0-0.9,0S261.2,11,261.2,10.7z M258.1,10.7c0.3,0,0.6,0,0.6,0
	C258.4,10.7,258.1,10.7,258.1,10.7z M292.1,9.4c-0.3,0-0.3,0-0.6,0C292.1,9.4,292.1,9.4,292.1,9.4L292.1,9.4z M294.6,9.1
	c-0.3,0-0.6,0-0.9,0C294,9.1,294.3,9.1,294.6,9.1z M294.3,9.4c0.3,0,0.6,0,0.9,0C294.9,9.1,294.6,9.4,294.3,9.4z M293,9.1
	c-0.3,0-0.3,0-0.6,0C292.7,9.1,293.4,9.1,293,9.1L293,9.1z M299.5,9.1L299.5,9.1c-0.6,0-0.3,0-0.6,0.3c-0.3,0-0.6,0-0.9,0
	c0,0,0.9,0,0.6-0.3c-0.3,0-1.2,0-1.9,0c-0.3,0-0.3,0-0.9,0c-0.3,0-0.6-0.3-0.9-0.3c0.3,0.3,0.6,0.3,0.6,0.3c0.3,0,0.3-0.3,0.6,0l0,0
	c0.3,0,0.3,0,0.6,0c0.9,0,1.5,0,2.2,0C299.5,9.4,298.9,9.1,299.5,9.1z M273.2,8.5C273.2,8.5,272.6,8.5,273.2,8.5
	C272.9,8.5,273.2,8.5,273.2,8.5L273.2,8.5z M290.3,9.7C289.9,9.7,290.3,9.7,290.3,9.7s0.6,0,0.9,0C290.9,9.7,290.3,9.7,290.3,9.7z
	 M262.7,11.9L262.7,11.9L262.7,11.9z M278.8,6.9L278.8,6.9c0,0,0.9,0,0.6,0C279.1,6.9,279.4,6.9,278.8,6.9z M274.5,5.4
	c0.3,0,0.3,0.3,0.6,0H274.5C274.8,5.4,274.8,5.4,274.5,5.4z M279.1,5.4c-0.3,0-0.6,0-0.6,0C277.6,5.4,278.5,5.4,279.1,5.4z
	 M231.2,3.2c0.3,0,0.3,0,0.6,0C231.5,3.2,230.9,3.2,231.2,3.2z M189.4,0.4c-0.3-0.3-1.2,0-1.2,0C188.8,0.4,189.1,0.4,189.4,0.4z
	 M191.6,0.4C191.3,0.4,191.6,0.1,191.6,0.4c-0.3,0-0.6,0-0.6,0C191,0.1,191.3,0.4,191.6,0.4z M145.8,0.8c0.3,0,0.3,0,0.6,0
	C146.1,0.8,145.5,0.8,145.8,0.8z M187.3,0.4L187.3,0.4L187.3,0.4C187.3,0.1,187.3,0.1,187.3,0.4C187.3,0.1,187,0.4,187.3,0.4z
	 M184.5,0.4L184.5,0.4C184.8,0.1,184.8,0.1,184.5,0.4C184.5,0.1,184.8,0.4,184.5,0.4z M228.1,0.8c0.3,0,0.9,0,1.2,0.3
	c0.3,0,0.9,0,1.2-0.3c-0.3,0-0.6,0-0.9,0C229.3,0.4,228.1,0.8,228.1,0.8z M229.3,0.1c-0.6,0.3-1.9,0-2.5,0
	C227.2,0.4,229.3,0.4,229.3,0.1z M226.9,0.8c0.6,0,0.9,0,1.5,0c-0.3,0-0.6,0-0.9,0h0.3c-0.6,0-1.2,0-1.5,0c-0.3,0.3-0.6,0-1.2,0l0,0
	C225.6,0.8,226.9,0.4,226.9,0.8z M272.3,1.1L272.3,1.1c0,0-0.3,0-0.6,0C271.7,1.4,271.7,1.4,272.3,1.1C272,1.4,272,1.1,272.3,1.1z
	 M266.1,11.9c0.9,0,1.9,0,3.1,0c-0.3,0-1.5,0-1.5,0c-0.3,0-0.6,0-0.9,0C266.1,11.9,265.8,11.9,266.1,11.9z M270.5,1.4
	c0,0-0.6,0-0.9,0C269.8,1.4,270.2,1.4,270.5,1.4z M259.6,1.1c-0.3,0-0.6,0-0.9,0C259,1.1,259.3,1.1,259.6,1.1z M221.6,0.4
	c0.3,0,0.6,0,0.9,0C222.5,0.4,221.9,0.4,221.6,0.4z M218.2,0.4c-0.3,0-0.3,0-0.6,0c0,0-0.6,0-0.3,0C217.6,0.4,218.2,0.4,218.2,0.4z
	 M219.1,0.4c-0.3,0-0.6,0-0.6,0C218.5,0.4,218.8,0.8,219.1,0.4z M215.1,0.8c-0.6,0-1.5-0.3-1.9,0C213.9,0.8,214.5,0.8,215.1,0.8z
	 M218.2,0.4c-0.3,0-0.6,0-0.6-0.3c-0.6,0,0,0-0.3,0.3c-0.3,0-0.9,0-0.9,0c-0.3,0.3-0.6,0-0.9,0.3C216,0.8,217.6,0.8,218.2,0.4z
	 M50.3,1.4c-0.3,0-0.6,0-0.9,0c0.3,0,0.3,0,0.3,0C49.9,1.4,50.6,1.4,50.3,1.4z M92.6,11.6c0.3,0,0.9,0,1.2,0c0.3,0,0.9,0,1.2,0
	C94.2,11.3,93.6,11.3,92.6,11.6C92.6,11.3,92.6,11.3,92.6,11.6C92.6,11.3,92.6,11.6,92.6,11.6z M88,11.3c0.6,0,1.5,0,2.2,0
	C89.2,11.3,88.3,11.3,88,11.3z M50.3,1.4c-0.3,0,0.3,0.3,0.6,0.3C50.6,1.7,50.9,1.4,50.3,1.4z M56.8,1.1c-0.6,0-0.9,0-1.5,0
	C55.8,1.4,56.1,1.4,56.8,1.1z M54.3,1.4c-0.3,0-0.6,0-0.6-0.3C54,1.4,54.9,1.4,54.3,1.4c0.6,0,0.9,0.3,1.2,0
	c-0.9-0.3-1.9-0.3-2.5-0.6c0.3,0-0.3,0-0.3,0.3l-1.5-0.3c0.6,0,1.9,0.3,2.2,0.6C54,1.4,54.3,1.7,54.3,1.4z M50.9,1.4
	c0.3,0,0.6,0,0.6,0h0.3C51.5,1.4,51.5,1.4,50.9,1.4C51.2,1.4,50.9,1.4,50.9,1.4L50.9,1.4z M285.9,9.7C286.2,9.4,286.2,9.7,285.9,9.7
	c0.3,0,0.6,0,0.6,0C286.5,9.4,285.9,9.4,285.9,9.7z M282.5,11.6L282.5,11.6h0.6C283.1,11.3,282.8,11.3,282.5,11.6z M281.6,11.6
	c0.3,0,0.3-0.3,0.6,0C282.2,11.6,281.9,11.3,281.6,11.6L281.6,11.6z M56.8,1.7c0.6,0,1.9,0.3,1.9,0C58,1.7,57.4,1.4,56.8,1.7
	C57.1,1.4,56.8,1.7,56.8,1.7z M287.2,9.4h0.6C287.5,9.7,287.2,9.4,287.2,9.4z M259.9,11.9c0.3,0,0.6,0,0.9,0
	C260.6,11.9,260.3,11.9,259.9,11.9z M255.9,11.9c-0.6,0-1.2,0-1.9,0C254.7,12.2,255.6,12.2,255.9,11.9z M271.7,11.9
	c-0.3,0-0.3,0-0.6,0C271.1,11.9,271.4,12.2,271.7,11.9z M278.5,11.3c-0.3,0-0.6,0-0.6,0h-0.3c-0.3,0-0.6,0-0.3-0.3
	c-0.3,0-0.6,0-0.9,0c0.3,0,0.9,0,0.9,0.3C277.6,11.3,277.9,11.3,278.5,11.3C278.5,11.6,278.5,11.6,278.5,11.3L278.5,11.3
	C278.8,11.6,278.8,11.6,278.5,11.3z M279.1,11.6c0.3,0,0.6,0,0.9,0C279.4,11.3,279.1,11.6,279.1,11.6z M57.1,1.1c-0.3,0-0.6,0-0.9,0
	C56.4,1.1,57.1,1.1,57.1,1.1z M65.4,0.4c-0.6,0-1.2,0-1.9,0C64.5,0.4,65.1,0.4,65.4,0.4z M58.6,1.4c-0.6,0-1.5-0.3-1.9,0
	C57.4,1.4,58,1.4,58.6,1.4z M60.8,1.4c-0.6,0-0.6,0-1.2,0C59.8,1.4,60.2,1.4,60.8,1.4z M67.3,0.4C67,0.4,67,0.4,67.3,0.4
	c-0.3,0-0.6,0-0.6,0H67.3z M289.6,9.4H289c-0.3,0,0.3,0.3-0.3,0c0.3,0,0.9,0,0.3,0.3c-0.3,0-0.3,0,0,0h-0.3c-0.3,0-0.3,0-0.3-0.3
	c-0.6,0-0.9,0-1.5,0c-0.6,0.3-1.2,0-1.9,0c0,0.3,0.9,0,0.9,0.3c-0.9,0-1.5,0-2.5-0.3c-0.3,0-0.6,0.3-0.9,0c-0.3,0-0.3,0.3,0,0.3
	c-0.3,0-0.3,0-0.3,0c0.3,0-0.3-0.3,0-0.3c-0.6,0-1.2,0-1.9,0c0.6,0,1.2,0.3,1.2,0.3c-0.3,0.3-1.2,0-1.9-0.3c0,0-0.6,0-0.9,0l0,0
	h-0.3l0,0c-0.6,0-1.2,0-2.2-0.3l0,0c0.6,0,0.9,0.3,1.5,0.3c-0.6,0-1.2,0-1.9,0h0.3H276c-0.3,0-0.3,0.3-0.6,0.3c0,0,0,0-0.3,0h0.3
	c0.3,0,0.3-0.3,0.3,0c0.6,0,0-0.3-0.3-0.3c0.3,0-0.6,0-0.3,0.3c-0.3,0-0.3,0-0.6,0s0.3,0.3,0.6,0.3c0.3,0-0.3,0,0,0.3
	c-0.3,0-0.6,0-0.9,0c0,0,0.3,0,0.3,0.3c-0.3,0-0.6,0-0.9,0c0,0,0.3,0,0.6,0c-0.3,0-0.6,0-0.6,0c0.3,0,0.3-0.3,0.3-0.3h-0.3
	c-0.3,0,0.3,0-0.3,0c-0.3-0.3-2.2,0-2.2,0c-0.3,0-0.6,0-0.3-0.3c-0.6,0-0.3,0.3-0.6,0.3c0.3,0,0.9,0,1.2,0c-0.3,0-1.2,0-1.9,0
	c-0.3,0,0,0-0.3,0s-0.6-0.3-1.2,0c0,0-0.3,0,0-0.3c-0.3,0-0.6,0-0.9,0c0.3-0.3-0.6,0-0.6-0.3c-0.6,0,0.3,0.3-0.3,0.3
	c-0.3,0-0.3,0-0.6,0c0,0,0,0,0,0.3c0.9,0,1.9,0,2.2,0.3c-0.3,0-0.3,0-0.6,0c-0.9-0.3-2.2,0-3.1,0c-1.2,0.3-3.1,0-3.7,0.3
	c-0.3,0-0.6,0-0.9,0c0-0.3-0.6,0-1.2,0l0,0c0,0-0.6-0.3-0.6,0c-0.9-0.3-1.9,0-2.8,0c0.3,0-0.3,0-0.3-0.3c-0.3,0,0.3,0,0.3,0.3
	c-0.9,0-1.5,0-2.5,0c0,0.3-0.9,0.3-1.2,0c-0.3,0-0.3,0-0.6,0c-0.3-0.3-2.2,0-3.1-0.3c-0.9,0.3-2.2-0.3-2.8,0c0.3,0,0.6,0,0.6,0
	c-0.3,0-0.9,0-1.5,0c-0.3,0-1.2,0.3-1.2,0c0,0-0.3,0-0.6,0c-0.6,0-1.2,0-1.9-0.3c-0.6,0-2.2,0-3.4,0C208,10.7,180.2,10,152,10
	c-0.3,0,0,0,0,0.3c2.2-0.3,4.3,0,6.2,0c0.3,0,0.3,0,0.6,0c0,0,0,0-0.3,0c0.3,0,0.6,0,0.9,0c0.3,0,0,0,0.3,0.3c0.9-0.3,2.2-0.3,3.4,0
	c0.9,0,1.9,0,2.8,0l0,0c1.5,0,3.4,0,4.6,0.3c0.3,0,0,0,0.3,0c0,0,0,0-0.3,0c1.9-0.3,3.4,0.3,5.3,0c0.3,0.3,1.2,0,1.5,0
	c0.6,0,1.2,0.3,1.5,0c0.6,0,1.2,0,1.9,0c0.3,0-0.3,0,0.3,0.3c0,0,0.6,0,0.3,0c0.3,0,0.9,0,1.2,0c0.3,0,0,0,0,0c0.6,0,1.2,0,1.9,0
	c0-0.3,0,0,0.6,0h0.3c0,0,0,0,0.3,0c0.3,0.3,1.2,0,1.9,0l0,0c0.9,0,3.4,0,3.4,0c0.6,0,0.9,0,1.5,0s1.2-0.3,1.5,0c3.1,0,5.9,0,9.3,0
	c0.3,0,0,0,0.3,0c0.3,0,0.3,0,0.6,0c1.9,0.3,4,0,6.2,0.3c0.3,0,0,0,0.3,0c0.6,0,1.5,0,2.5,0c0,0-0.3,0.3,0.3,0.3
	c0.3,0,0-0.3,0.6-0.3c0,0-0.3-0.3-0.6,0c-0.3,0,0.6-0.3,0.6,0c1.2-0.3,2.2,0,3.1,0c0.3,0.3,0.9,0,1.5,0c0.3,0,0,0,0,0
	c0.9,0,1.9,0,2.8,0l0,0c1.2,0,3.1,0,4.3,0l0,0c1.5,0,3.1,0,4.6,0c0.9,0,2.8,0,4,0c0.3,0,0,0,0.3,0.3h0.3c-0.3-0.3,0.9,0,1.5-0.3
	c0,0-0.3,0-0.6,0s0.3,0,0.6,0c0.6-0.3,1.9,0,2.5-0.3c0.3,0,0,0,0.3,0.3h0.3c0,0,0,0-0.3,0c0.3,0,0.6,0,0.6,0s-0.3,0,0,0.3
	c-0.3,0-0.3,0-0.6,0c0.3,0,0.6,0,0.9,0c0.3,0,0.6,0,0.9,0h-0.6c0.6-0.3-0.3,0-0.3,0c0.9-0.3,0.6,0,1.5,0c0,0-0.3,0-0.3,0.3h0.3
	c0,0,0,0-0.3,0c0.3,0.3,0.9,0,1.2,0.3c0.3,0,0.3,0,0.3,0c0.3,0,0.6,0.3,0.9,0c0.3,0-0.3,0-0.3-0.3c0.3,0,0.6,0,0.3,0
	c0.3,0,0.6,0,0.6,0s-0.3,0,0.3-0.3c0.3,0.3,1.5,0.3,1.5,0c0.3,0,0.6,0,0.9,0c0.6-0.3,1.2,0,1.2,0c0.3,0.3,1.5,0,2.2,0s1.2,0,2.2,0
	c0.3,0-0.3,0,0,0c0.9,0.3,2.2,0,3.4,0c-0.3,0-0.3,0-0.3,0l0,0c0.6,0,0.9,0,1.5,0h-0.3c-0.3,0,0.3,0,0.3,0s0,0,0.3,0
	c0.3,0.3,1.2,0,1.9,0c0.3,0,0.3,0,0-0.3c0.3,0,0.3,0,0.6,0h-0.3c0.3,0,0.3,0,0.6,0c0,0,0,0,0-0.3c0.6,0,1.2,0,1.9,0c0,0,0,0,0.3-0.3
	c0.3,0.3,2.2,0,2.5,0.3c0.3,0,0.9,0,0.3-0.3c0.3,0,0.3,0,0.3,0c0.3,0,0.6-0.3,0.9,0c-0.3,0-0.3,0-0.6,0l0,0c0.9,0,1.9,0,2.5,0
	c0,0,0,0,0.3-0.3c0.3,0-0.3,0.3-0.3,0.3c0.3,0.3,0.9,0,1.2,0c0.6,0,0-0.3,0.3-0.3c0.3,0,0,0.3,0,0.3c0.3,0,0.3,0,0.6,0
	c0,0,0,0-0.3,0c0.3,0,0.6,0,0.6,0c0.6-0.3,0.6,0,1.2-0.3c0.6,0,0.6,0,1.2,0c0,0-0.3,0,0,0.3c-0.3,0-0.3,0-0.6,0c-0.3,0,0,0-0.6,0
	c-0.3,0,0,0,0,0c-0.6,0-2.2,0-1.9,0.3c-0.3,0-0.3,0-0.3,0c-0.3,0,0,0.3,0,0.3c-0.3,0-0.9,0-0.6,0c-0.3,0-0.6,0-0.9,0
	c-0.3,0,0.3,0,0.3,0.3c-0.3,0-1.2,0-0.9,0c-0.3,0-0.3,0,0,0c-0.3,0-0.6,0-0.9,0l0,0c-0.3,0-0.3,0-0.6,0l0,0c-0.6,0-1.5,0-2.2,0
	c-0.3,0,0.3,0,0.3,0c-0.3,0-0.6,0-0.9,0c-0.6-0.3-0.6,0.3-1.2,0c0.3,0,0.3,0,0.6,0c-0.3,0-0.3,0-0.6,0s0,0,0,0h-0.3
	c0-0.3-1.5,0-2.2,0l0,0c-0.9,0-1.9,0-2.8,0c0,0,0,0,0.3,0c-0.3,0-0.6,0-0.6,0c-0.6,0,0,0.3-0.6,0.3c-0.3,0,0.3,0,0-0.3
	c-0.6,0-1.2-0.3-2.2,0c-0.3-0.3-0.6,0-0.9-0.3c-0.3,0,0,0-0.3,0c-0.6,0-0.9,0-1.5,0c-0.3,0,0.3,0,0.6,0c-0.3,0-0.9,0-1.2,0
	c-0.3,0,0,0-0.3,0.3c0.3,0,0.6,0,0.6,0c-0.9,0-1.9,0-2.5-0.3c-0.6,0,0.3,0.3-0.3,0.3c-0.9,0-1.9,0-2.8,0c-0.3-0.3-0.6,0-0.9,0
	c0,0,0,0,0-0.3c-0.6,0.3-2.2,0-2.2,0c-0.9,0-2.5,0-3.1,0s-0.9,0-1.5,0.3c-0.3-0.3-0.6,0-0.9-0.3c-0.3,0,0,0-0.3,0.3
	c-1.9,0-3.7,0-5.9,0l0,0c-1.5,0-3.1,0-4.6,0c-0.3,0-0.9,0-1.2,0l0,0c-0.6,0-1.2,0-1.9,0c-0.3,0-0.3,0-0.6,0.3c-1.5-0.3-3.4,0-4.9,0
	l0,0c-3.1,0-5.9,0-8.7,0c-0.3-0.3-2.5,0-3.7,0c-0.6,0-1.2,0-1.9,0H203c-0.3,0.3-0.9,0-1.5,0c-1.2-0.3-3.4,0-4.9,0h-0.3
	c-2.2-0.3-4.3,0-6.5-0.3c-0.9,0.3-1.9,0-2.8,0c-0.6-0.3-1.2,0-1.5,0c-1.5,0-3.1,0-4.6,0c-3.4,0-6.8,0-10.2,0h-0.3l0,0
	c-1.9,0-3.1,0-4.9,0H165c-0.3,0,0-0.3-0.6,0c0,0,0,0,0.3,0c-0.3,0-0.6,0-0.6,0c-13.3,0-26.6-0.3-39.9-0.3h-0.3c-1.9,0-3.7,0-5.6,0
	c-0.3,0-0.6-0.3-0.6,0c-0.3,0-0.9,0-1.5,0h-0.3c-0.6,0-1.2,0-1.9,0c-3.1,0.3-6.2,0-9.3,0.3h-0.3c-0.3,0-1.2,0-1.5,0c0,0,0,0-0.3,0
	c-0.3-0.3-0.6,0-0.6,0c-0.9,0-1.9,0-2.8,0l0,0c-0.3,0-0.3-0.3-0.9,0l0,0c-0.3,0-0.6,0-0.9,0l0,0c-0.3,0-0.9,0-1.2,0s0.3,0,0.6,0
	c-0.9,0-2.2,0-3.1-0.3h-0.3c0,0-0.3,0,0,0c-0.6,0-0.9,0-1.5,0c0,0-0.6,0-0.3,0.3c-0.3,0-0.3,0-0.9,0c-0.3,0,0.3,0,0.3,0
	c-0.6,0-0.9,0-1.5,0h-0.3l0,0c0,0-0.3,0-0.6,0l0,0c-0.9,0-1.5,0-2.5,0.3h0.6c-0.3,0-0.6,0-0.9,0c-0.3,0-0.3,0-0.6,0
	c-0.3,0-0.3,0-0.6,0c-6.2,0.3-12.7,0.6-19.2,0.6c5.3,0,10.5,0,15.8,0c6.5-0.3,13-0.3,19.2-0.3c0.6,0,0.6,0.3,0,0.3
	c-6.5,0.3-12.7,0.3-19.2,0.3c-13,0.3-26,0.6-38.7,0c-8.4,0-16.4,0-24.7,0c-0.6,0-0.6-0.3,0-0.3c2.5,0,4.9,0,7.7,0c0,0,0,0,0.3,0
	c0.3,0,0.6,0,0.9,0c1.9,0,3.4,0,5.3,0c-6.2,0-12.4,0-17.9-0.6c-3.1,0-6.5-0.3-9.6-0.3c-1.2,0-2.5,0-3.7,0c-0.6,0-0.6-0.3,0-0.3
	c1.2,0,2.8,0,4,0c0.3,0,0.3,0,0.6,0c-0.3,0-0.6,0-0.9,0l0,0l0,0c-0.6,0-0.3-0.3,0-0.3c4,0,8.4,0,12.4,0c-2.8,0-5.6,0-8.4-0.3
	c-0.3,0-0.3,0-0.3,0c-0.9,0-1.5,0-2.5,0c-0.6,0-0.6-0.3,0-0.3c2.5,0,4.9,0,7.4,0c-3.7,0-7.1-0.3-10.5-0.3c-0.6,0-0.3-0.3,0-0.3
	c7.1,0.3,13.9,0,21,0c-2.8,0-5.3,0-8-0.3c-4.3,0-8.7,0-13-0.3c-0.3,0-0.6-0.3,0-0.3c3.1,0,6.2-0.3,9.3-0.3c0,0,0-0.3,0.3-0.3
	c1.2,0,2.5,0,3.7,0c0,0,0-0.3,0.3-0.3c2.2,0,4.6,0,6.8,0c-2.5,0-5.3,0-7.7,0c-1.5,0-3.1,0-4.6,0l0,0l0,0l0,0c-0.6,0-0.3-0.3,0-0.3
	c0.9,0,2.2,0,3.1,0h0.3c4.9,0,10.2,0,15.2-0.3l0,0c0,0,0,0-0.3-0.3l0,0c-6.2,0-12.4,0-18.6,0c-0.6,0-0.6-0.3,0-0.3
	c2.5,0,4.9,0,7.7,0c-3.1,0-5.9-0.3-9-0.3c-0.3,0-0.3,0-0.3-0.3c-1.5,0-3.1,0-4.3,0C3.6,6.3,3.6,6,4.2,6c3.7,0,7.7,0,11.4,0
	C15.3,6,15,6,15,6c-1.5,0-3.1-0.3-4.9-0.3c-0.3,0-0.6-0.3,0-0.3c0.9,0,1.9,0,2.8,0c0.3,0,0.3,0,0.3-0.3C13.8,4.8,15,4.8,15,4.5
	c0.3,0,0.9,0,1.2,0.3l0,0c0,0,0,0,0.3,0c0,0,0.3,0,0.6,0c-0.3,0-0.3,0,0-0.3l0,0l0,0h0.3h0.3c0.6,0,1.2,0,2.2,0h0.3
	c0.6-0.3,1.2,0,2.2,0c0.3,0,0.6,0,0.9,0h-0.6c1.2-1.2,0-1.2-0.9-1.2c-0.3,0-0.3,0-0.3,0c-2.2,0-4.3-0.3-6.2-0.6
	c-0.6,0-0.6-0.3,0-0.3c2.2,0,4,0,6.2,0h0.3c0.9,0,1.5,0,2.5,0c0,0,0.3,0,0.6,0c1.9,0,3.7,0,5.6,0c2.2,0,4.6,0,6.8,0l0,0
	c0.3,0,0.6,0,0.6,0s0,0,0.3,0h0.3c0.6,0,0.9,0,1.5,0c0.6,0,0.9,0,1.5,0h0.3l0,0c0.9,0,1.9,0,2.8,0c-0.6-0.3-1.2,0-1.9-0.3
	c0.3,0,0.9,0,0.9,0c0.3,0,0.3,0,0.6,0s0,0,0.3,0c-0.3,0-0.6,0-0.6,0s-0.3,0-0.3-0.3c0.3-0.3,0.9,0.3,1.2,0c0.6,0,0.9,0.3,1.5,0.3
	c0.3,0,0,0,0-0.3c0.3,0,0.6,0,0.9,0c0,0,0,0,0.6,0.3c0,0-0.3,0-0.6,0c0.3,0,0.6,0,0.9,0l0.9,0.3c0-0.3-0.3,0,0.3,0
	c0.3,0-0.3,0,0-0.3c0.3,0.3,0.6,0,1.5,0.3c0.6,0,0.9,0,1.5-0.3C53,2,53,2,53.4,2.3c0.3,0,0.6,0,0.9,0l0,0h0.3c2.5,0,4.6,0,7.1,0
	c0,0-0.3,0-0.6,0c0.3,0,0.6,0,0.9,0h-0.3c0.3,0,0.6,0,0.9,0c0.3,0,0.3,0,0.6,0c-0.3,0-0.6,0-0.9,0l0,0c0.3,0,0.9,0,1.2,0
	s-0.3,0-0.3-0.3h0.6c0,0-0.3,0.3,0.3,0l0,0c2.2,0,4.3,0,6.5-0.3c-0.3,0,0,0-0.3-0.3h0.3c0,0,0,0,0.3,0c-0.3,0,0.3,0,0,0
	c1.2,0,2.5,0,4,0h-0.3c0.3,0,0.6,0,0.6,0c0.6,0,0.9,0,1.5,0c0,0,0-0.3,0.3-0.3c19.5,0,39.3-0.3,58.8-0.6c9.9-0.3,19.2-0.3,29.1,0
	c2.5,0,4.6,0,7.1,0.3h0.3c0.3,0.3,0.6,0,1.2,0l0,0c0.3,0,0.3,0,0.6,0l0,0H174h0.3c0.3,0.3,0.9,0,0.9,0c-0.3,0,0.3,0,0,0.3
	c0.3,0,0.3,0,0.6,0c0,0-0.6,0,0,0c-0.3,0-0.3,0-0.6,0c0.3,0,0,0,0.3,0c0.6,0.3,0.6,0,0.9,0c0,0.3,1.2,0,1.5,0c0.3,0,0,0-0.3,0
	c0.6,0,1.2,0,1.5,0h0.3c0,0-0.3,0,0,0c-0.6,0-0.9,0-1.5,0c-0.3,0-0.3,0,0-0.3h0.3l0,0c0.6-0.3,1.9,0,2.2,0c-0.3-0.3,0.6,0,0.9-0.3
	h0.3c0.3,0-0.3,0-0.6,0c0,0,0.3,0.3,0.6,0.3h0.3c0,0-0.6,0-0.3-0.3c0.3,0,0.3,0,0.9,0l0,0c0.3,0,0.9,0,1.2,0c0,0,0,0,0.3-0.3
	c0,0,0,0,0,0.3c0.3,0,0.6,0,0.9,0c-0.3,0,0.3,0-0.3-0.3c0.6,0,0.9,0,1.5,0c0.3,0,0,0,0.3,0c0,0,0.3,0,0.6,0s0,0,0,0l0,0
	c0.6,0,0.9,0,1.5,0l0,0l0,0c2.2,0,4.3,0,6.5,0s4.3,0,6.5,0h0.3l0,0c0.9,0,2.2,0,3.1,0c0,0,0,0,0.3,0h0.3l0,0c0.3,0,0.6,0,0.9,0l0,0
	h0.3c0.3,0,0.9,0,1.2,0l0,0l0,0c0.3,0,0.6,0,0.9,0h0.3c-0.3,0-0.6,0-1.2,0c0.3,0,0.3,0,0.6,0c0.6,0,0.9,0,1.2,0c0,0-0.3,0.3,0,0.3
	h0.3c0.3,0,0.6,0,0.9,0c0.3-0.3,0.3-0.3,1.2-0.3c-0.3,0-0.6,0-0.6,0.3c0.3,0,0.6,0,0.9,0c0.3,0,0,0,0.3,0.3c-0.3,0-0.9,0-0.9,0l0,0
	c0.3,0,0.6,0,0.9,0l0,0l0,0c0.3,0,0.3,0,0.6,0l0,0l0,0c0.3,0,0.3,0,0.6,0l0,0c0.3,0,0.6,0,0.6,0c0.3,0,0.3,0,0.3,0h0.3h-0.3
	c0.3,0,1.2-0.3,1.5,0c0,0,0.6,0,0.3,0c0.6,0,0.9,0,1.5,0.3h0.3c-0.3,0-0.3,0,0-0.3l0,0c0.3,0,0.6,0,0.9,0c0.3,0-0.3,0-0.3,0
	c0.3,0,0.3,0,0.6,0c0,0.3,1.2,0,1.9,0c0.3,0,0.6,0.3,0,0.3c0.3,0-0.3,0-0.6,0c0,0,0,0,0.3,0c0,0,0,0-0.3,0c1.2,0,2.5,0,3.7,0
	c-0.9-0.3-1.9,0-2.8-0.3c0.9,0,1.5,0,2.5,0c0,0,0,0-0.3,0c0.3,0,0.3,0,0.6,0l0,0c0.6,0,0.9,0,1.5,0c0,0-0.6,0,0-0.3
	c0.3,0.3,0.6,0,1.2,0h0.3h0.3h0.3h0.3c0.3,0,0.6,0,0.9,0c0.9-0.3,2.5,0,4,0c0,0,0.3,0.3,0.6,0c0.3,0,0.3,0,0.3,0h0.3c0,0,0,0-0.3,0
	c0.6,0,0,0.3,0.6,0l0,0c0.3,0,0.6,0,0.6,0s0,0-0.3,0c0.3,0,1.2,0,1.5,0c0.3,0,0.6,0,0.9,0h0.3c0,0,0,0,0.3,0h0.3l0,0l0,0h0.3h-0.3
	c0.3,0,0,0,0,0c0.6,0,1.5-0.3,2.5,0c0.3,0-0.3,0,0-0.3c0.3,0,1.2,0,1.9,0c0.3,0,0,0,0.3,0l0,0c0.3,0,0,0,0.3,0l0,0
	c0.3,0,0.6,0,0.6,0h0.3l0,0c0.9,0,2.2-0.3,2.8,0c0.9,0,0.6,0,0.9,0c0.3,0.3,0.6,0.3,1.2,0.3c-0.3,0-0.3,0-0.6,0c0.3,0,0.6,0,0.9,0
	l0,0c0.6,0,1.2,0,1.9,0l0,0c0.3,0,0.6,0,0.9,0c0.3,0.3,2.2,0,2.8,0c-0.9,0-2.2,0-3.1,0c0.3,0,0.6,0,0.9,0h-0.6c0.3,0,0.3,0,0.6,0.3
	c0.3,0,0,0,0.3,0c0.6,0,0.6,0.3,1.5,0.3c0,0-0.6,0-0.6-0.3c0,0,0.3,0,0-0.3c0.3,0,0.6,0.3,1.2,0.3c0,0,0,0,0-0.3
	c0.3,0,0.6,0.3,1.2,0.3c0.3,0-0.3,0,0.3-0.3l0,0c0,0,0.6,0,0.3,0.3c0.3,0,0.6,0,0.6,0c0.3,0,0.3,0,0.6,0c0,0-0.6-0.3-0.3-0.3
	c0.3,0,0.6,0,0.6,0c0.3,0,0,0,0.3,0c0.6,0,0.9,0,1.5,0c0.3,0-0.3,0-0.3,0c0.6,0,0.6,0.3,1.5,0c0.3,0,0.3,0.3,0.6,0
	c0.3,0-0.3,0-0.3,0h0.3c0.6,0,0.9,0,1.5,0c0,0-0.6-0.3-0.9,0c-0.3,0-0.3,0-0.6,0c0.3,0,0.9-0.3,1.5,0c0.3,0,0-0.3,0.3-0.3
	c0.3,0.3,1.2,0.3,2.2,0.3c0.3,0-0.3,0-0.3,0c0.3,0,0.3,0,0.6,0c0.3,0,0.9,0,1.2,0c0.6,0,0.6,0,1.5,0.3c-0.3,0-0.6,0-1.2,0
	c-0.3,0,0,0,0,0c-0.3,0-0.3,0-0.6,0s0.3,0,0.3,0s-0.3,0-0.9,0.3c6.5,0,13,0,19.8,0.3c0.6,0,0.6,0.3,0,0.3c-0.6,0-1.2,0.3-1.9,0.3
	c4.3,0,9,0,13.3,0.3c0.6,0,0.3,0.3,0,0.3c-3.4,0-6.5,0-9.9,0c0,0-0.3,0-0.6,0c-0.6,0-1.5,0-2.2,0c4,0,8,0.3,10.5,0.9
	c0.3,0,0.3,0.3-0.3,0.3c-3.4,0.3-6.8,0.3-10.2,0.6h0.3h-0.6l0,0c-0.3,0-0.3,0-0.6,0c0,0,0,0-0.3,0.3c4.6,0,9.3,0,13.9,0
	c0.6,0,0.6,0.3,0,0.3c-6.2,0-12.4,0-18.2,0h0.3c-0.3,0-0.3,0-0.6,0c0,0,0,0-0.3,0c-0.6-0.3-1.2,0-1.9,0c-0.3,0,0,0,0,0.3
	c-0.3,0-0.3,0-0.6,0c0.3,0,0.3-0.3,0.6-0.3l0,0h-0.3h-0.3l0,0c0,0,0,0,0.3,0c-0.6,0-1.2,0-1.9,0c-1.5,0-3.1,0-4.6,0.3
	c2.8,0,5.6,0,8,0.3c0.3,0,0.6,0,0.3,0.3c4.3,0,8.4,0,12.7,0c0.6,0,0.6,0.3,0,0.3c-5.6,0-10.8,0-16.4,0c4.6,0,9.3,0.3,13.6,0.6
	c2.2,0,4,0,6.2,0.3c0.6,0,0.9,0.3,0,0.3c-1.2,0-2.2,0-3.4,0c0,0,0,0.3-0.6,0.3c-0.3,0-0.6,0-0.9,0c-1.9,0.3-3.7,0.3-5.6,0.6
	c2.2,0,4.3,0.3,6.5,0.3c0.6,0,0.6,0.3,0,0.3c-2.5,0-4.9,0-7.1,0c0.3,0,0.3,0,0.6,0l0,0c-0.3,0-0.3,0-0.3,0h0.3
	c0.6-0.3,0.6,0,1.2-0.3c-0.3,0-0.6,0-0.9,0c0.3,0,0.3,0,0.6,0c-0.3,0,0.6,0.3,0.9,0.3l0,0c0.3,0,0.3,0,0.6,0h-0.3
	C288.1,9.1,289,9.1,289.6,9.4c-0.3,0-0.6-0.3-0.9-0.3l0,0C289,9.1,289,9.4,289.6,9.4z M83.7,1.4c0.9,0,1.9,0,2.8,0c0,0,0,0,0.3,0
	C85.8,1.7,84.9,1.7,83.7,1.4z M82.7,11c-0.3,0-0.3,0-0.3,0c-0.3,0-0.3,0-0.6,0c0,0,0,0,0.3,0h0.3C82.4,11,82.4,11.3,82.7,11
	C82.7,11,82.4,11,82.7,11z M75.9,1.7C75.9,1.7,76.2,1.7,75.9,1.7c0.3,0,0.3,0,0.3,0c2.2,0,4,0,6.2,0C80.3,1.7,78.1,1.7,75.9,1.7z
	 M72.5,1.7c0.3,0,0.6,0,0.9,0C73.1,1.7,72.8,1.7,72.5,1.7c1.2,0,2.5,0,3.4,0h-0.3c0,0,0,0,0.3,0C74.7,1.7,73.8,1.7,72.5,1.7z
	 M69.4,2c0.9,0,1.9,0,2.8,0h-0.3C71,2,70.4,2,69.4,2z M64.2,10.7c2.5,0,4.6,0,7.1,0c-0.3,0-0.6,0-1.2,0
	C68.2,10.7,66.3,10.7,64.2,10.7z M58.3,10.3c1.2,0,2.8,0,4,0C60.8,10,59.5,10,58.3,10.3z M49.9,11.3c-1.5,0-3.1,0-4.6,0.3
	c5.6,0,11.1-0.3,16.7-0.3C58,11.3,54,11.3,49.9,11.3z M56.1,10c-0.9,0-2.2,0-3.1,0c1.5,0,3.1,0,4.3,0c0,0,0,0-0.3,0S56.8,10,56.1,10
	C56.4,10,56.4,10.3,56.1,10C56.1,10.3,56.1,10,56.1,10z M51.5,10c1.2,0,2.5,0,3.4,0l0,0h-0.3C53.4,10,52.4,10,51.5,10z M39.4,10.7
	c3.1,0,6.2,0,9.3,0c2.8,0,5.9-0.3,8.7-0.3c-3.7,0-7.4,0-11.1,0C44.1,10.7,41.6,10.7,39.4,10.7z M37.6,11c-0.6,0-1.2,0-1.9,0
	c3.1,0,6.2,0,9.3,0C42.8,11,40.1,11,37.6,11z M32.3,10.3c0.3,0,0.6,0,0.9,0c1.2,0,2.8,0,4,0c2.5,0,4.6-0.3,7.1-0.3
	c-0.3,0-0.3,0-0.6,0C40.1,10,36.3,10,32.3,10.3z M36.3,7.3L36.3,7.3c-0.3,0-0.3,0-0.3,0c-0.9,0-1.9,0-3.1,0
	C34.5,7.3,35.4,7.3,36.3,7.3C36.6,7.3,36.6,7.3,36.3,7.3c0.3,0,0.6,0,0.9,0c0.3,0,0.3,0,0.6,0h-0.3C37.3,7.3,37,7.3,36.3,7.3z
	 M29.5,3.2C29.8,3.2,29.8,2.9,29.5,3.2c0.9-0.3,0.6,0,0.9,0c0.3,0,0.3,0,0,0c0.3,0,0.3,0,0.6,0c0,0,0.3,0,0.3-0.3
	c-0.3,0-0.3,0-0.6,0l0,0c-1.2,0-2.5,0-3.7,0l0,0c0.3,0,1.5,0,1.5,0.3l0,0c0,0,0,0,0.3,0h-0.3C29.2,2.9,29.5,3.2,29.5,3.2z M32.3,2.9
	L32.3,2.9c-0.3,0-0.6,0-0.9,0c0.3,0,0.3,0,0.3,0.3c0.6,0,1.2,0,1.9,0.3c0.3,0,0,0,0-0.3C32.9,2.9,32.6,2.9,32.3,2.9z M30.5,5.4
	c0.3,0,0.6,0,0.9,0c1.2,0,2.5,0,3.7,0l0,0c-0.6,0-0.9,0-1.5,0c-0.3,0-0.6,0-0.9,0s-0.6,0-0.6,0l0,0h-0.3l0,0
	C31.1,5.4,30.8,5.4,30.5,5.4L30.5,5.4z M36.3,5.4c-0.3,0-0.6,0-0.6,0c-0.6,0-1.5,0-2.2,0c0.3,0,0.6,0,1.2,0
	C35.1,5.4,35.7,5.4,36.3,5.4z M33.9,3.2C33.6,2.9,33.6,2.9,33.9,3.2c-0.3-0.3-0.6-0.3-0.6-0.3S33.6,3.2,33.9,3.2
	c0.3,0,1.2,0.3,1.9,0c0.3,0-0.3,0-0.3,0c0.3,0,0.9,0,0.6,0c-0.6,0-0.6,0-0.9,0h-0.3l0,0C34.5,2.9,34.5,2.9,33.9,3.2
	C34.2,2.9,34.2,2.9,33.9,3.2z M32.9,2.6L32.9,2.6c0.3,0,0.3,0,0.6,0s0.3,0,0.6,0l0,0c0,0,0,0-0.3,0l0,0c-5.3,0-10.8,0-16.1,0
	c1.5,0,3.1,0.3,4.6,0.3C25.8,2.6,29.2,2.6,32.9,2.6z M26.8,3.2c0,0,0.3,0,0.6,0h0.3l0,0C27.4,3.2,27.1,2.9,26.8,3.2
	c-0.6,0-1.2,0-1.9,0C25.8,3.2,26.1,3.2,26.8,3.2z M15,5.4c3.7,0,7.1,0,10.8,0l0,0l0,0c-0.3,0-0.9,0-1.2,0s-0.6,0-0.9,0l0,0l0,0
	C20.6,5.1,17.8,5.1,15,5.4z M28.9,5.4c-0.3,0-0.6,0-0.9,0c-4,0-8,0.3-12.4,0.3C20.3,5.7,24.6,5.4,28.9,5.4z M32,5.7
	c-0.3,0-0.6,0-1.2,0c-3.1,0-6.2,0.3-9.3,0.3c2.2,0,4.3,0,6.2,0C29.5,5.7,30.8,5.7,32,5.7z M29.8,9.1c1.2,0,2.5,0,3.7,0
	c-0.3,0-0.3,0-0.6,0l0,0C31.7,8.8,30.8,8.8,29.8,9.1z M18.7,7.9c-1.5,0-3.1,0-4.3,0c-2.2,0-4.6,0-6.8,0.3c1.9,0,4,0,5.9,0
	c0,0,0,0,0.3,0l0,0l0,0l0,0C15.6,8.2,17.2,7.9,18.7,7.9z M29.2,8.5C29.2,8.2,29.2,8.2,29.2,8.5C29.5,8.2,29.5,8.2,29.2,8.5
	c-0.3,0-0.9,0-1.5,0c-1.5,0-3.4,0-4.9,0C24.9,8.2,27.1,8.5,29.2,8.5z M24.9,9.4c2.2,0,4.3,0,6.5,0c0.3,0,0.6,0,0.9,0
	c-1.9,0-4,0-5.9,0C25.8,9.4,25.5,9.4,24.9,9.4z M24.3,10.3c0.6,0,0.9,0,1.5,0c1.2,0,2.5,0,3.7,0h-0.3C27.7,10.3,26.1,10.3,24.3,10.3
	z M15.3,8.8c1.9,0,3.7,0,5.3,0c0.9,0,1.9,0,2.8-0.3C20.6,8.8,17.8,8.8,15.3,8.8z M23,9.7L23,9.7c-2.5,0-4.3,0-6.5,0h-0.3
	c-0.6,0-0.9,0-1.5,0C17.5,9.7,20.3,9.7,23,9.7z M15.6,10.7c4.9,0,10.2,0,15.2,0h0.3c-0.3,0-0.6,0-0.9,0c-2.2,0-4.3,0-6.8,0
	c-0.3,0-0.3,0-0.3,0c-2.8,0-5.6,0-8,0C15.3,10.7,15.3,10.7,15.6,10.7z M41.6,11.3c-3.4,0-6.8,0-10.2,0c-0.3,0-0.6-0.3,0-0.3
	c0.9,0,1.5,0,2.5,0c-4.9,0-9.9,0-14.8,0c6.5,0.6,13.9,0.3,20.4,0.3C40.1,11.3,41,11.3,41.6,11.3z M64.8,12.2c-4.3,0-8.7,0-12.7,0
	C56.4,12.2,60.8,12.2,64.8,12.2z M83.4,11.3c-0.6,0-1.2,0-1.2-0.3c-0.3,0-0.3,0-0.3,0c-0.9,0-1.5,0-2.8-0.3c-0.9,0-1.5,0-2.5,0
	c-1.5,0-3.1,0-4.9,0c-9.6,0.6-19.5,0.6-29.4,0.9l0,0c1.9,0,4,0,5.9,0c2.8,0,5.9,0,8.7,0C65.7,11.9,74.7,11.9,83.4,11.3z M87.7,11
	c-0.9,0-2.2-0.3-2.8,0c-0.3-0.3-1.2-0.3-1.9-0.3c0,0.3,0.6,0,0.9,0h-0.3c0.3,0,0.6,0,0.9,0C85.8,11.3,86.8,11,87.7,11z M92.9,1.4
	c1.2,0,2.5,0,3.7-0.3c-2.2,0-4.6,0-6.8,0C90.8,1.4,91.7,1.4,92.9,1.4z M96.6,1.7c-0.6,0-1.2,0-1.9,0c-0.3,0-0.6,0-0.9,0h-0.3l0,0
	C94.5,1.7,95.4,1.7,96.6,1.7z M251.9,11.9c0,0,0.6,0,0.9,0C252.5,11.6,252.2,11.6,251.9,11.9z M232.7,11c0.3,0.3,0.6,0.3,0.6,0.3
	C234,11,234,11,234.9,11c-0.3,0-0.9-0.3-1.2-0.3c0,0,0.3,0,0,0.3c-0.3,0-0.3-0.3-0.3-0.3C233,11,232.7,10.7,232.7,11z M230.6,11
	C230.9,11,231.5,11,230.6,11c0.6,0.3,1.2,0.3,1.9,0.3c-0.3,0-0.3,0-0.3-0.3h-0.3l0,0C231.2,11,230.9,10.7,230.6,11z M223.5,11
	c0.3,0,0.6,0,1.2,0C224.1,11,223.5,11,223.5,11z M159.1,10.3c0.6,0,0.3,0,0.6,0.3c0.3,0,0.3-0.3,0.3-0.3c0.3,0,0.6,0.3,0.6,0
	C160.4,10.3,159.4,10.3,159.1,10.3z M110.6,1.4c-3.7,0-7.4,0-11.1,0l0,0c2.8,0,5.6,0,8.7,0C108.7,1.4,109.6,1.4,110.6,1.4
	C110.3,1.7,110.3,1.4,110.6,1.4L110.6,1.4z M120.8,1.4L120.8,1.4c-5.6,0-11.1,0-16.7,0c3.1,0,6.2,0,9.3,0c1.2,0,2.5,0,3.7-0.3
	c0.6,0,0.9,0.3,0.3,0.3c-0.3,0-0.3,0-0.6,0h0.3c0.3,0,0.6,0,0.9,0c0.6,0,1.2,0,1.9,0C120.2,1.4,120.5,1.4,120.8,1.4L120.8,1.4z
	 M139.9,10c-0.3,0-0.9,0-1.2,0c0.3,0,0.6,0,0.6,0.3C139.3,10,139.6,10.3,139.9,10C139.3,10,140.3,10,139.9,10z M143.7,10
	c-0.3,0,0-0.3-0.6-0.3c-0.3,0-0.3,0-0.6,0c0,0,0,0.3,0.3,0c-0.3,0,0,0,0.3,0c0,0,0,0,0,0.3C143.4,10,143.7,10.3,143.7,10z M152.6,10
	c-0.3,0-1.2,0-1.2,0C151.7,10,152.6,10.3,152.6,10z M170.9,1.1c-0.3,0-0.6-0.3-0.9-0.3c-1.9,0-3.7,0-5.6-0.3c-0.3,0-0.6,0-0.9,0
	s-0.6,0-0.9,0c-9.3-0.3-18.2,0-27.2,0c-5.6,0-10.8,0.3-16.4,0.3c1.2,0,2.2,0,3.4,0h0.3c0.3,0,0.3,0,0.6,0c-0.3,0-0.3,0-0.3,0l0,0
	c0.3,0,0.3,0,0.6,0l0,0c0,0,0.3,0,0.6,0c3.4,0,6.5,0,9.9,0c5.6-0.3,11.1-0.3,16.7,0c1.2,0,2.5,0,3.7,0l0,0l0,0c0.3,0,0.6,0,0.9,0
	l0,0c0,0,0,0,0.3,0h0.3h0.3c0.3,0,0.9,0,1.2,0s0.6,0,0.6,0c0.3,0,0.6,0,0.6,0s0.3,0,0.6,0l0,0l0,0c0.6,0,1.2,0,1.9,0l0,0
	c0.3,0,0.3,0,0.6,0l0,0c0.3,0,0,0,0.3,0c0,0,0,0,0.3,0l0,0c0.3,0,0.3,0,0-0.3c0.3,0,1.2,0,1.5,0c0.3,0,0,0,0.3-0.3
	c0,0.3,0.3,0,0.3,0c0.6,0,0.9,0.3,1.5,0c0,0.3,0.9,0,1.2,0l0,0c0.3,0.3,0.6,0,1.2,0.3c0,0-0.3,0-0.6,0l0,0c0.6,0,0.9,0,1.5,0
	c0,0,0,0,0.3,0C170.3,1.1,170.6,1.1,170.9,1.1C170.6,1.1,170.6,1.1,170.9,1.1L170.9,1.1L170.9,1.1z M180.2,1.1c-0.6,0-0.9,0-1.5,0
	C179.2,1.4,180.5,1.4,180.2,1.1z M182,3.5c-0.3,0-0.3,0-0.9,0C180.8,3.5,182,3.8,182,3.5z M204.3,3.5c0.6,0,1.5,0,1.5,0
	c-0.3,0-0.3,0-0.3,0C205.2,3.5,204.6,3.2,204.3,3.5z M188.8,3.5c-0.3-0.3-0.6,0-0.6-0.3l0,0C187.9,3.2,188.2,3.5,188.8,3.5
	L188.8,3.5z M190.1,3.5C189.7,3.5,190.1,3.5,190.1,3.5c-0.6,0-0.6,0-0.9-0.3C188.5,3.5,189.7,3.5,190.1,3.5z M191.9,3.2
	c-0.3,0-0.6,0-0.9,0l0,0c-0.3,0-0.6,0-0.9,0h-0.3l0,0c0.3,0,0.3,0,0.3,0c0.6,0,0.6,0,0.9,0c0.3,0,0,0,0.3-0.3
	C191.3,3.5,191.3,3.5,191.9,3.2C191.6,3.5,191.6,3.2,191.9,3.2z M197.8,3.5C197.5,3.5,197.8,3.5,197.8,3.5c-0.9,0-1.2-0.3-1.9-0.3
	C196.2,3.5,197.2,3.5,197.8,3.5z M199,6c-0.6,0-0.6,0-0.6-0.3c-0.3,0-0.3,0-0.6,0C197.5,5.7,198.4,6,199,6z M200.3,1.4
	C199.9,1.4,199.9,1.4,200.3,1.4l-0.6-0.3l0,0l0,0c0,0,0,0-0.3,0H199C199.3,1.4,199.6,1.7,200.3,1.4z M201.8,0.8c0.9,0,1.5,0,2.5,0
	c-0.3,0-0.6,0-0.6,0c-0.3,0-0.3,0-0.6,0l0,0l0,0h-0.3l0,0l0,0c-2.8,0-5.3,0-7.7,0c-0.3,0-0.6,0-0.9,0c0.6,0,1.5,0,2.2,0l0,0l0,0
	C197.8,0.8,199.6,0.8,201.8,0.8L201.8,0.8L201.8,0.8z M204.6,5.7c-0.3,0-0.6,0-0.9,0C204,5.7,204,6,204.6,5.7
	C204,5.7,204,5.7,204.6,5.7z M205.8,3.8c-0.3,0-1.2,0-1.2,0C204.9,3.8,205.8,3.8,205.8,3.8z M209.2,6c-0.3,0-0.6-0.3-0.9,0
	C208.3,6,208.6,6,209.2,6C208.9,6,209.2,6,209.2,6z M213.2,5.7c-0.9,0-2.2,0-3.1,0c0.3,0,0.6,0,0.6,0h0.3
	C212,5.7,212.6,5.7,213.2,5.7z M214.5,3.5C214.2,3.5,214.2,3.5,214.5,3.5c-0.6,0-0.6,0-0.9,0l0,0l0,0c0.6,0,0,0,0.3,0.3
	C213.9,3.5,214.2,3.5,214.5,3.5z M216.3,6c-0.6,0-0.6,0-0.6,0c-0.3,0-0.6,0-0.9,0c0,0,0,0-0.3,0c0,0,0.3,0,0.6,0.3c0.3,0,0,0,0-0.3
	c0.3,0,0.3,0,0.6,0C215.7,6.3,216,6.3,216.3,6z M218.2,6c-0.6,0-1.2,0-1.9,0C216.6,6,217.6,6,218.2,6L218.2,6z M221,2.9
	C221,2.9,221,3.2,221,2.9C221.3,2.9,221.3,2.9,221,2.9c0.3,0,0.3,0,0.6,0c0,0,0,0,0.3,0l0,0c-0.3,0-0.3,0-0.3,0
	C221.3,2.9,221,2.9,221,2.9z M222.5,6c-0.9,0-1.9,0-2.5,0l0,0c0.6,0,1.5,0,2.2,0.3C222.2,6,222.2,6,222.5,6L222.5,6z M288.1,7.6
	c-4.3,0-8.4,0-12.7,0.3l0,0c2.5,0,5.3,0,7.7,0.3C285,7.9,286.5,7.9,288.1,7.6z M276.6,6.9c4,0,8,0,12.1,0c-2.8,0-5.6,0-8.4-0.3h0.3
	c-0.3,0-0.3,0-0.6,0c-0.3,0,0,0,0.3-0.3c-0.6,0-0.9,0-1.5,0c0.3,0-0.3,0,0,0.3c0,0,0,0-0.3,0C277.9,7.3,277.3,6.9,276.6,6.9z
	 M269.2,6.6c0,0,0.3,0,0.6,0c0,0,0,0,0.3,0c0.3,0,0,0,0,0c0.3,0,0.9,0,1.2,0l0,0c0.3,0,0.6,0,0.9,0c0.3,0,0.3,0,0.6,0h0.3h0.3h-0.3
	h0.3c0.3,0,0.3,0,0.6,0c0,0,1.2,0,0.9,0c0.3,0,0.6,0,0.6,0.3c0.3,0,0.6,0,0.9,0c-0.3,0,0,0,0-0.3C273.9,6.9,271.4,6.6,269.2,6.6z
	 M261.8,5.4L261.8,5.4c0.3,0,0.6,0,0.9,0c0,0,0,0-0.3,0C262.4,5.1,262.1,5.1,261.8,5.4C262.1,5.1,261.8,5.1,261.8,5.4
	C261.8,5.1,261.8,5.1,261.8,5.4C261.5,5.1,261.8,5.4,261.8,5.4z M261.2,5.7c2.8,0,5.6,0,8.4,0c-1.5,0-3.4,0-4.9,0
	C263.4,5.7,262.1,5.7,261.2,5.7z M264.3,2.9c0.3,0.3,0.6,0,0.9,0c0,0,0,0,0.3,0c-0.6,0-1.2,0-1.9,0c0,0-0.3,0.3,0,0
	C263.7,2.9,264,2.9,264.3,2.9z M265.8,5.4c0.6,0,1.5,0,2.2,0l0,0c-0.3,0-0.6,0-0.9,0l0,0c-0.3,0-0.3,0-0.6,0
	C266.1,5.1,266.1,5.1,265.8,5.4L265.8,5.4z M266.4,7.3c1.9,0,3.4,0,5.3,0c-1.2,0-2.2,0-3.4,0C267.7,7.3,267.1,7.3,266.4,7.3
	C266.1,7.3,266.4,7.3,266.4,7.3z M286.5,4.5c-2.2,0-4.6,0-6.8,0l0,0l0,0c-0.6,0-1.2,0-1.9,0c-0.6,0-1.2,0-1.5,0c-0.6,0-0.9,0-1.5,0
	c0.3,0,0.3,0,0.6,0.3c-0.3,0-0.9,0-0.6-0.3c-0.3,0-0.6,0-1.2,0l0,0l0,0c-0.3,0-0.3,0-0.6,0l0,0c0,0,0,0,0.3,0c-0.3,0-0.3,0-0.6,0
	c-0.6,0-0.9,0-1.5,0c0,0,0,0-0.3,0l0,0l0,0c0.6,0,0.9,0,0.9,0c0.6,0,0.9,0,1.5,0c0,0-0.6,0-0.9,0c0.3,0,0.9,0,1.2,0c0,0,0,0,0.3,0
	h0.3c0.9,0,2.2,0,3.1,0l0,0c-0.3,0-1.2,0-0.9-0.3c0.3,0,0.3,0,0.6,0c0,0,0,0,0.3,0s0.3,0,0.6,0c0.3,0,0.3,0,0.3,0c0.3,0,0.3,0,0.6,0
	l0,0c0.3,0,0.6,0,0.6,0l0,0c0.3,0,0.6,0,0.9,0c0,0,0,0,0.3,0C282.5,4.5,284.4,4.5,286.5,4.5z M281.3,2.9c-1.2,0-2.5,0-3.7,0
	c-0.3,0-0.9,0-1.2,0l0,0l0,0c0.9,0,2.2,0,3.4,0C280.4,2.6,280.7,2.9,281.3,2.9z M281,3.8c-0.3,0-0.6,0-0.9,0c1.9,0,4,0,5.9,0
	c-0.9,0-1.9,0-2.8,0c-0.3,0-0.3,0-0.6,0C282.2,3.8,281.6,3.8,281,3.8z M294,3.8c-1.9,0-3.7,0-5.6,0c1.5,0,2.8,0,4.3,0.3
	c0,0,0,0,0.3,0c0.6,0,0.9,0,1.5,0C294.6,3.8,294.3,3.8,294,3.8L294,3.8z M285.6,3.2c0.3,0.3,0.6,0,0.9,0c0.3,0-0.3,0-0.3,0.3
	c2.2,0,4,0,6.2,0c-1.9-0.3-4-0.3-6.2-0.3C286.2,3.2,286.2,3.2,285.6,3.2z M285,3.2C284.7,3.2,285.3,3.2,285,3.2c0,0-0.6,0.3-0.9,0.3
	l0,0c0.6,0,1.2,0,2.2,0c0,0-0.3,0-0.6,0C285.3,3.5,285,3.5,285,3.2c0.3,0,0.6,0,0.6,0C285.3,3.2,285.3,3.2,285,3.2z M282.5,2.3
	c-0.3,0-0.3,0-0.6,0c0.3,0,0.6,0,0.9,0c2.5,0,4.9,0,7.4,0C287.5,2.3,285,2.3,282.5,2.3z M266.4,1.4c0.3,0,0.3,0,0.9,0
	c0,0-0.3-0.3-0.6-0.3C267.1,1.4,266.8,1.1,266.4,1.4C266.4,1.1,266.4,1.4,266.4,1.4z M251.9,2c2.2,0,4,0,6.2,0c0.3,0,0.9,0,0.9-0.3
	c0.3,0-0.3,0,0,0.3l0,0c1.2,0,2.5,0,3.4,0c0,0,0,0,0.3,0c-0.3,0-0.6,0-0.6,0c0.3,0,0.3,0,0.6,0c0,0.3,0.6,0,0.9,0.3
	c-0.3,0-0.6,0-0.9,0c0.9,0,1.9,0,2.8,0h0.3c-0.3,0-0.3,0-0.9-0.3c0.9,0,1.5,0.3,2.2,0v0.3c0.3,0,0.3,0,0.6,0c4.6,0,9.6,0,14.2,0
	c0.9,0,1.9-0.3,2.8-0.3c-7.1-0.3-14.2-0.3-21.3,0c-0.3,0-0.9,0-1.2,0c-1.2,0-2.8,0-4,0c0,0,0,0-0.3,0l0,0c-0.3,0-0.3,0-0.6,0
	c0.3,0,0.9,0,1.2,0h-1.2c-0.6,0-0.9,0-1.5,0l0,0h-0.3c-0.3,0-0.6,0-0.9,0l0,0l0,0C253.8,2,252.8,2,251.9,2z M260.6,5.1
	c-0.3,0-0.6,0-0.9,0l0,0C259.9,5.4,260.3,5.4,260.6,5.1C260.9,5.1,260.6,5.1,260.6,5.1z M253.8,2.9c-0.6,0-0.9,0-1.2,0
	C252.2,2.9,253.8,2.9,253.8,2.9z M252.2,1.7L252.2,1.7c-0.3-0.3-0.9,0-1.2,0l0,0h0.3h0.3C251.9,1.7,252.2,1.7,252.2,1.7z M251.3,1.1
	c0.6,0,0.3,0.3,0.6,0.3c0.3,0,0.3,0,0.6,0C252.2,1.1,251.9,1.1,251.3,1.1z M250.7,1.4c0.3,0,0.3,0,0.6,0V1.1
	C251,1.1,251,1.1,250.7,1.4z M250.4,2.9c0.3,0,0.6,0,0.9,0c0.3,0,0.3,0,0.6,0c-0.3,0-0.3,0-0.3,0C251,2.9,250.7,2.9,250.4,2.9
	L250.4,2.9z M246.3,1.4C246.6,1.4,246.3,1.4,246.3,1.4c0.6,0,0.6,0,1.2,0h-0.3c0.3,0,0.3,0,0.6,0l0,0C247.6,1.4,246.6,1.4,246.3,1.4
	z M238.9,2.6c0.6,0,1.2,0,1.9,0c0.3,0-0.3,0.3-0.6,0.3l0,0c0.3,0,0.3,0,0.6,0h0.3l0,0l0,0l0,0h0.3l0,0h0.3c0,0,0,0,0.3,0
	c0,0,0,0,0.3,0l0,0l0,0h0.3l0,0c0.3,0,0.3,0,0.6,0c-0.6,0-1.2,0-1.9,0c0.3,0,0.3,0,0.3,0.3c-0.6,0-0.9,0-0.6-0.3
	C240.5,2.9,239.8,2.9,238.9,2.6C239.5,2.6,239.2,2.6,238.9,2.6L238.9,2.6z M230.9,6c-0.3,0-0.3,0-0.6,0l0,0c-0.3,0-0.3,0-0.6,0h-0.3
	l0,0c0.3,0,0.6,0,0.9,0C230.6,6,230.6,6,230.9,6z M234.3,3.2C234.3,3.2,234,3.2,234.3,3.2C234,3.2,234,3.2,234.3,3.2
	c-1.2,0-1.9,0-2.8,0c0.3,0,0.6,0,0.3,0c-0.6,0-1.2,0-1.5,0l0,0c-0.3,0-0.3,0-0.6,0c0,0,0,0,0.3,0c-0.3,0-0.6,0-0.9,0h0.3
	c0.3,0,0.9,0,1.2,0c0,0,0,0,0.3,0c0,0,0,0,0.3,0C232.1,3.2,233,3.2,234.3,3.2z M235.2,2.9L235.2,2.9L235.2,2.9c0.9,0,1.2,0,1.9,0
	c0.3,0,0.3,0,0.6,0.3c0,0,0,0,0.3,0c0,0,0.3,0,0.6-0.3c0.3,0,0,0,0,0.3c0.3,0,0.6,0,0.9,0c0,0-0.3-0.3,0-0.3
	C237.7,2.6,236.4,2.6,235.2,2.9C235.2,2.6,235.2,2.6,235.2,2.9c-0.9,0-1.9,0-2.8,0c0.3,0,0.9,0,1.2,0l0,0l0,0
	C234.3,2.6,234.9,2.9,235.2,2.9z M241.4,6c-1.2,0-2.5,0-3.7,0c-0.9,0-1.5,0-2.5,0c1.5,0,3.4,0,4.9,0C240.5,6,240.8,6,241.4,6
	C241.1,6,241.1,6,241.4,6C241.1,6,241.1,6,241.4,6L241.4,6z M243.6,6c0.6,0,1.2,0,1.9,0c-1.2,0-2.5,0-4,0l0,0c0.3,0,0.6,0,0.9,0
	c0,0,0,0,0.3,0C242.9,6,243.2,6,243.6,6z M260.9,7.3c-0.3,0-0.9,0-1.2-0.3c-0.3,0-0.3,0-0.6,0s-0.6-0.3-0.9,0c0,0,0,0,0.3,0
	c0.6,0,0.9,0,1.5,0l0,0C260.3,6.9,260.6,6.9,260.9,7.3C260.6,7.3,260.9,7.3,260.9,7.3z M262.4,6c-0.3,0-0.6,0-0.9,0
	c-3.4,0-6.8,0-10.2,0c-2.8,0-5.6,0-8,0c0,0,0,0-0.3,0c0.6,0,1.2,0,2.2,0C251,6,256.5,6,262.4,6z M263.7,7.3L263.7,7.3
	c-0.6,0-1.2-0.3-1.5,0C262.4,7.3,263,7.3,263.7,7.3z M277.3,8.5c-0.3,0-0.3,0-0.6,0c0.3,0,0.6,0,0.9,0
	C278.2,8.5,277.6,8.5,277.3,8.5c1.2,0,2.2,0,3.1-0.3c-5.6,0-10.8-0.3-16.4-0.3h-0.3l0,0l0,0c-0.3,0-0.9,0-1.2,0l0,0
	c0.3,0,0.6,0,0.6,0s0.3,0,0.6,0s0,0-0.3,0c0.3,0,0.6,0,1.2,0c0.3,0-0.3,0-0.6,0c0.3,0,0.9,0,1.5,0c-0.3,0-0.3,0-0.6,0
	c0.9,0,0.9,0,1.9,0.3c0.3,0-0.6,0,0-0.3h0.3c0.9,0,1.5,0,2.2,0c-0.3-0.3,0.3,0,0.9,0c0,0,0.3,0,0,0c0.6,0.3,0.6,0,1.2,0
	c0.3,0,0.3-0.3,0.3-0.3c0.3,0,0.6,0,0.6,0.3c0.3,0,0.9,0,1.2,0h0.3c0.3,0,0.3,0,0.3,0h0.3c0.3,0,0.9,0,1.2,0c0,0,0,0-0.3,0
	c0.3,0,0.6,0,0.9,0s-0.3,0.3,0,0c0,0-0.3,0-0.6,0l0,0C276,8.5,276.6,8.5,277.3,8.5z M288.7,8.5c-1.9,0-3.4-0.3-5.3-0.3
	c-1.9,0.3-4,0.3-6.2,0.3l0,0c0.3,0,0.9,0,1.2,0l0,0c0.3,0,0.6,0,0.6,0h-0.3h0.3C282.5,8.8,285.6,8.5,288.7,8.5z M287.5,9.4
	c-0.3,0-0.9,0-0.9,0c0.3,0,0,0,0.3,0C286.9,9.1,287.2,9.4,287.5,9.4z"/>
</svg>
