<?xml version="1.0" encoding="utf-8"?>
<!-- Generator: Adobe Illustrator 22.1.0, SVG Export Plug-In . SVG Version: 6.00 Build 0)  -->
<svg version="1.1" id="Layer_1" xmlns="http://www.w3.org/2000/svg" xmlns:xlink="http://www.w3.org/1999/xlink" x="0px" y="0px"
	 viewBox="0 0 101.9 20" style="enable-background:new 0 0 101.9 20;" xml:space="preserve">
<style type="text/css">
	.st0{fill:#4BAE4F;}
</style>
<path class="st0" d="M47.1,18.3c-5.2-2.2-7.2-3.9-7.3-7.2c0-1.5-0.9-2.1-1.1-2.7c-0.6-2.3,4.4-3.9,4.4-3.9c-0.8,2.8-0.2,4.7-0.2,4.7
	s-1.4,0.3-1.2,1.5c0.2,1.1,1.2,1.4,1.2,1.4C43.4,15.5,47.1,18.3,47.1,18.3z M51.1,15.8c-2.6,0.6-2.2,3.1-2.2,3.1
	c4.8,1.2,7.1-1.2,7.1-1.2l-1.2-0.2C52.1,16.9,52.2,15.6,51.1,15.8z M60.3,12.5c0,0-0.8,1.9-1.8,2.5c-0.9,0.6-1.1,1.1-1.1,1.1
	s-0.9,1.4-1.4,1.3l0.7,0.2c0,0,1.4-0.1,1.6-0.8c0.2-0.7-0.5-0.7,0-1.2c0.5-0.4,1.9,0,2.5-0.5c0.5-0.5,1.5-1.2,1.1-3.7
	C62.1,11.4,61.2,12.5,60.3,12.5z M50.9,15.4c1.9-0.1,1.4,0.8,3.6,1.4c0,0,2.1-1.8,2.1-4c0-1.5-1.1-1.7-1.6-1.7
	c-0.5-0.1-1.3,0.3-3.6,0.2c-0.9,0-0.9,0.4-1.1,0.9c-0.2,0.4-0.9,1.4-2.3,1c-1.4-0.3-2.1-0.5-2.9-0.7c-1.3-0.5-1.9-1.9-2.1-2.8
	c-0.6,0.2-1,0.5-0.9,1.1c0.1,0.5,0.6,0.8,1,0.9c0.5,1.3,1.9,4.7,4.9,6.5C48.1,18.2,48.4,15.6,50.9,15.4z M44.9,11.9
	c0,0,0.6-0.4,0.8-0.5c0,0-0.3-1.5-0.3-2.2c0,0-1.1-0.6-0.8-2.2c0.3-1.5,1.7-1.1,1.7-1.1s0.4-0.4,0.7-0.5c0,0,1.1-2.1,2.5-3.1
	c0,0-1.4-0.3-2.4-0.1s-1,0.7-1.3,0.8s-1-0.4-1.4,0.2c0,0-2.2,3.9-0.4,7.7C44,10.9,44.3,11.6,44.9,11.9z M57.8,4.7
	c-0.7-1.5-2.5-2.2-3.2-2.3c-0.8-0.1-0.8-0.5-2.4-0.7c-1.8-0.3-4.5,3.5-4.5,3.5C48.2,4.9,48.9,5,48.9,5c2-2,4.6-1.5,4.6-1.5
	c-0.1,0.5,1.1,1.4,1.1,1.4s1.2,0.4,1.7,1.5s-0.8,2.2-0.8,2.2l0.3,2.3c1.6,0.4,1.2,2.7,1.2,2.7C59,10,58.5,6.2,57.8,4.7z M61,4.3
	c-0.3-1.5-1.1-2-2.7-2.3c-1.6-0.4-3.2,0.2-3.2,0.2c2.3,0.6,4.5,1.9,3.8,7.2c-0.7,5.5-3.8,7.6-3.8,7.6l0.5,0.2
	c1.2-0.5,1.3-1.4,2.1-2.1c1.5-1.4,2.2-3,2.2-3c1-0.3,1.3-0.7,2.1-1.8s1.2-2.7,0.7-3.7C62.3,5.6,61.4,5.9,61,4.3z M55.5,7.7
	C55.7,7.2,56,6,54.8,5.3c0,0,0.2,0.9,0.1,1.5c0,0.6,0,1-0.4,1.7c-0.2,0.3-0.6,0.9-1,1.1c-0.2,0.4-0.4,0.8-0.9,1.2c0,0,1.8,0,2.5-0.1
	l-0.2-2.3C54.9,8.4,55.3,8.2,55.5,7.7z M49,12.7c1-0.2,1-1,1.2-1.4c0.3-0.4,0.6-0.1,1.5-0.4c0.8-0.3,1.3-1.2,1.3-1.2
	c-0.9,0.5-3.7,1.3-5.3,1.6s-2.2,0.9-2.2,0.9C46.7,12.5,48,12.8,49,12.7z M45,7.2c-0.1,1,0.6,1.5,0.8,1.6l0.4,2.3
	c0,0,0.3-0.2,2.7-0.6c0,0-1.5-0.6-2.4-1.2c-0.2-0.2-0.2-0.2-0.2-0.8c-1-0.7-0.3-2.2-0.3-2.2S45,6.3,45,7.2z M46.4,7.2
	c0,0.8,0.4,1.2,0.4,1.2V9l0.7,0.4c0,0-0.1-0.7,0.1-1.8c0.2-1.4,1.2-2.1,1.2-2.1c-0.5,0-1.1,0.1-1.6,0.3C46.7,6,46.3,6.4,46.4,7.2z
	 M54.3,8c0.2-0.6,0.6-2.4-0.2-3.1s-0.9-1.1-0.9-1.1s-2.3-0.3-3.9,1.5c0,0,1.3-0.5,2.8,0.6C53.5,7,53.7,7.8,53,9.1
	C52.9,9.3,54.1,8.6,54.3,8z M52.5,9.4L52.6,9c0,0-0.4-0.2-1,0s-1,0.2-1.3,0C50,9,50,9,49.6,9.2c-0.4,0.3-1.3,0.5-1.7,0.5
	c0,0,1.3,0.6,1.6,0.7C49.6,10.4,49.9,10.5,52.5,9.4z M48,7.5l-0.1,0.3c0,0,0.5,0.1,0.7,0C49,7.6,49.2,7.2,49.5,7s0.8-0.4,1.2-0.1
	s0.4,0.3,0.9,0.3S52,7.7,52,7.7l0.7,0.9c0,0,0.2-0.5,0.2-0.7c-0.1-0.5-0.7-1.2-1.1-1.5c-0.4-0.3-1-0.5-1.5-0.5
	C48.7,5.8,48,7.5,48,7.5z M48.9,8.1c-0.4,0.4-1,0.2-1,0.2c0,0.2,0,1,0,1s1.1,0.1,1.7-0.4c0.3-0.2,0.6-0.4,1.1-0.2
	C51.2,8.9,52,8.4,52,8.4S51.6,7.8,51.4,8c-0.2,0.2-1.1,0.3-1.5,0.2s-0.1-0.8-0.1-0.8C49.5,7.5,49.2,7.8,48.9,8.1z M50.1,1.8
	c0.8-0.3,1-0.6,1.7-0.6s1.3,0.2,1.5,0.3c0,0-1-1-3-1.5s-1.8,1.1-2.4,1.6C47.9,1.7,49.1,1.5,50.1,1.8z M79.8,11.3
	c0.1,0,0.3,0.1,0.3,0.1c0.1-0.1,0-0.1-0.1-0.2c-0.3-0.3-0.6-0.7-0.3-0.7c4,1.6,7.9-0.3,8.8-3c1.2-3.7-2.5-6.4-5-3.8
	c-0.8,0.8-0.3,2,0.7,1.9c0.9,0,0.9-1.1,1.8-1.1c0.4,0,0.3,0.4,0,0.5c-0.4,0.1-0.4,0.6-0.1,0.5c1.3,0,1.6,2.4,0.3,3.1
	c0.6-1.6-1.4-2.7-2.5-2.1c-0.2,0.1-0.2,0.2,0,0.2c1.4,0.5,1.4,2.6-0.1,3.1c0.7-0.7,0.7-2.1-0.3-2.4c-0.2-0.1-0.2,0-0.2,0.1
	C83,11,79.6,9.8,79.1,9c1.1,1.1,4.1-0.9,1.9-2c-0.1,0-0.2,0-0.1,0.1c0.3,0.6,0.1,1-0.6,1.2c-2.6,0.7-3.4-3.5-6-3.3
	C76.6,6.4,76.6,10.2,79.8,11.3z M70.2,4.8c-5.4,0-7.2,4.7-7.2,8c0,1.7,0.1,1.9,0.1,1.9s0.1,0.5,0.4,0.4c0.2,0,0.2-0.1,0.2-0.5
	c-0.1-4,1.2-5.4,2.3-6.4s1.8-1.2,3.3-0.6s1.4-0.1,2.2,0c0.7,0.1,1.1,0.8,1.2,1c0.2,0.3,0.4,1,0.5,0.4c0.4-2.2-1.5-3.2-1.5-3.2
	c2.6,0.7,3.4,3,3.4,5.1c0,1.5-0.6,2.9-2.6,3.5c-2.3,0.7-2.2-1.5-3.9-0.9c-1.2,0.4-0.4,1.9-0.4,1.9c-0.5-0.2-1.1-1.1-1.1-2.9
	s1.9-2.9,2.8-2.9c-0.2,0.2-0.4,0.6-0.4,0.9c0,0.7,0.6,1.3,1.3,1.3c0.7,0,1.2-0.5,1.3-1.2c0-0.1,0-0.2,0-0.3C72,9.2,71,8.8,70.2,8.8
	c-2.2,0-3.9,1.6-3.9,3.7c0,3.7,2.3,4.5,4.6,4.5c2.8,0,5.4-2.4,5.4-5.9C76.3,9.1,75.1,4.8,70.2,4.8z M86,16.3L86,16.3
	c2.4,0,4.8-0.9,6.6-2.4c3.3-2.8,4.5-7.4,2.9-11.5c0,0-0.1-0.2-0.2-0.1c-0.1,0,0,0.2,0,0.2c0.6,1.9,0.7,3.8,0.2,5.7s-1.6,3.7-3.1,5
	c-1.8,1.5-4.1,2.4-6.5,2.4l0,0c-2.9,0-5.7-1.3-7.6-3.5c-0.7-0.8-1.3-1.8-1.7-2.8c0,0-0.1-0.3-0.2-0.2c-0.1,0,0,0.3,0,0.3
	c0.4,1.2,1.1,2.4,1.9,3.4C80.2,15,83,16.3,86,16.3z M101,4.9c0,0-0.1-0.2-0.2-0.1c-0.1,0-0.1,0.2-0.1,0.2c0.8,1.9,0.9,4,0.2,6
	c-0.7,2-2,3.8-4,5.2c-2.3,1.6-5.2,2.5-8.2,2.5l0,0c-3.7,0-7.2-1.3-9.6-3.6c-0.9-0.9-1.6-1.9-2.1-2.9c0,0-0.1-0.3-0.3-0.2
	c-0.1,0,0,0.3,0,0.3c0.5,1.3,1.3,2.5,2.4,3.5c2.4,2.4,6,3.7,9.8,3.7c3.1,0,6-0.9,8.4-2.5C101.6,13.9,103,9.1,101,4.9z M78.6,6.4
	c0.7,0,1.2-0.5,1.2-1.2S79.2,4,78.6,4s-1.2,0.5-1.2,1.2S77.9,6.4,78.6,6.4z M22.2,11.1c0.3-0.1,0,0.4-0.3,0.7
	c-0.1,0.1-0.1,0.2-0.1,0.2s0.2,0,0.3-0.1c3.1-1.1,3.2-4.9,5.5-6.3c-2.6-0.1-3.4,4.1-6,3.3C21,8.7,20.7,8.3,21,7.7
	c0-0.1,0-0.2-0.1-0.1c-2.2,1.1,0.8,3.1,1.9,2c-0.5,0.8-3.9,2-4-1.3c0-0.1,0-0.2-0.2-0.1c-1,0.3-1,1.7-0.3,2.4
	c-1.5-0.5-1.6-2.6-0.1-3.1c0.1-0.1,0.2-0.1,0-0.2c-1.1-0.6-3.1,0.5-2.5,2.1c-1.3-0.7-1-3.1,0.3-3.1c0.3,0,0.3-0.5-0.1-0.6
	c-0.3-0.1-0.3-0.5,0-0.5c0.9,0,0.9,1.1,1.8,1.1c1,0.1,1.5-1.1,0.7-1.9c-2.5-2.6-6.2,0-5,3.8C14.2,10.8,18.1,12.7,22.2,11.1z
	 M31.7,5.4c-4.9,0-6.1,4.3-6.1,6.3c0,3.4,2.6,5.9,5.4,5.9c2.3,0,4.6-0.8,4.6-4.5c0-2-1.7-3.7-3.9-3.7c-0.8,0-1.8,0.4-1.9,1.5
	c0,0.1,0,0.2,0,0.3c0.1,0.7,0.6,1.2,1.3,1.2c0.7,0,1.3-0.6,1.3-1.3c0-0.4-0.2-0.7-0.4-0.9l0,0c0.9,0,2.8,1,2.8,2.9
	c0,1.8-0.7,2.8-1.1,2.9c0,0,0.8-1.4-0.4-1.9c-1.7-0.6-1.6,1.6-3.9,0.9c-2-0.6-2.6-2.1-2.6-3.5c0-2.1,0.8-4.3,3.4-5.1
	c0,0-1.9,1-1.5,3.2c0.1,0.7,0.3-0.1,0.5-0.4c0.1-0.2,0.5-0.9,1.2-1s0.7,0.6,2.2,0c1.5-0.6,2.2-0.4,3.3,0.6s2.3,2.4,2.3,6.4
	c0,0.3,0.1,0.5,0.2,0.5c0.3,0,0.4-0.4,0.4-0.4s0.1-0.2,0.1-1.9C38.9,10.1,37.1,5.4,31.7,5.4z M25.4,9.9c-0.4,1-1,2-1.7,2.8
	c-1.9,2.2-4.7,3.5-7.6,3.5c-2.4,0-4.7-0.8-6.5-2.4c-1.5-1.3-2.6-3-3.1-5C6,6.9,6,4.9,6.7,3.1c0,0,0.1-0.2,0-0.2C6.5,2.8,6.4,3,6.4,3
	C4.8,7,6,11.6,9.3,14.5c1.8,1.6,4.2,2.4,6.6,2.4c3,0,5.8-1.3,7.8-3.6c0.9-1,1.5-2.1,1.9-3.4c0,0,0.1-0.3,0-0.3
	C25.5,9.6,25.4,9.9,25.4,9.9z M24.8,12.7c-0.5,1.1-1.2,2.1-2.1,2.9c-2.4,2.3-5.9,3.6-9.6,3.6l0,0c-3,0-5.9-0.9-8.2-2.5
	c-1.9-1.4-3.3-3.2-4-5.2c-0.6-2-0.6-4,0.2-6c0,0,0.1-0.2-0.1-0.2L0.9,5.5c-2,4.2-0.5,9,3.6,11.9c2.3,1.6,5.3,2.5,8.4,2.5
	c3.8,0,7.3-1.4,9.8-3.7c1.1-1,1.9-2.2,2.4-3.5c0,0,0.1-0.3,0-0.3C24.9,12.4,24.8,12.7,24.8,12.7z M23.3,7c0.7,0,1.2-0.5,1.2-1.2
	S24,4.6,23.3,4.6s-1.2,0.5-1.2,1.2S22.7,7,23.3,7z"/>
</svg>
