<?xml version="1.0" encoding="utf-8"?>
<!-- Generator: Adobe Illustrator 22.1.0, SVG Export Plug-In . SVG Version: 6.00 Build 0)  -->
<svg version="1.1" id="Layer_1" xmlns="http://www.w3.org/2000/svg" xmlns:xlink="http://www.w3.org/1999/xlink" x="0px" y="0px"
	 viewBox="0 0 93.1 20" style="enable-background:new 0 0 93.1 20;" xml:space="preserve">
<style type="text/css">
	.st0{fill:#4BAE4F;}
</style>
<path class="st0" d="M45.7,8.3c0,0-0.6-0.9-0.6-1.9c0-0.5,0.2-1.1,0.5-1.9c0.3-0.9,0.6-1.9,0.7-2.9c0-0.1,0.1-0.2,0.2-0.2
	c0.1,0,0.2,0.1,0.2,0.2c0.1,1,0.4,2,0.7,2.9C47.8,5.2,48,5.9,48,6.4c0,1-0.7,1.9-0.7,1.9c0,0.1-0.1,0.1-0.2,0.1H47
	c-0.1-0.1-0.1-0.2,0-0.3c0,0,0.6-0.8,0.6-1.7c0-0.4-0.2-1-0.5-1.8c-0.2-0.5-0.4-1.1-0.5-1.6c-0.1,0.6-0.3,1.1-0.5,1.6
	c-0.2,0.7-0.5,1.4-0.5,1.8c0,0.9,0.5,1.6,0.5,1.6c0.1,0.1,0,0.3-0.1,0.3C46,8.4,45.8,8.4,45.7,8.3z M45.2,10.3
	c-0.1-0.1-0.2-0.1-0.3-0.1c0,0-1,0.7-2.2,0.7c-0.6,0-1.4-0.3-2.4-0.6c-0.8-0.3-1.7-0.6-2.5-0.8c0.9-0.2,1.7-0.5,2.5-0.8
	c1-0.3,1.9-0.6,2.4-0.6c1.2,0,2.3,0.8,2.3,0.8c0,0.1,0.2,0.1,0.2,0c0.1-0.1,0.1-0.2,0-0.3c0,0-1.2-0.9-2.6-0.9C42,7.7,41.1,8,40,8.3
	c-1.2,0.4-2.6,0.9-3.9,1c-0.1,0-0.2,0.1-0.2,0.2c0,0.1,0.1,0.2,0.2,0.2c1.3,0.1,2.7,0.6,3.9,1c1,0.3,1.9,0.6,2.6,0.6
	c1.4,0,2.5-0.8,2.5-0.8C45.2,10.5,45.2,10.4,45.2,10.3z M56.9,9.3c-1.3-0.1-2.7-0.6-3.9-1c-1-0.3-1.9-0.6-2.6-0.6
	c-1.4,0-2.5,0.9-2.6,0.9c-0.1,0.1-0.1,0.2,0,0.3C47.9,9,48,9,48.1,9c0,0,1.1-0.8,2.3-0.8c0.6,0,1.4,0.3,2.4,0.6
	c0.8,0.3,1.7,0.6,2.5,0.8c-0.9,0.2-1.7,0.5-2.5,0.8c-1,0.3-1.9,0.6-2.4,0.6c-1.2,0-2.2-0.7-2.2-0.7c-0.1-0.1-0.3,0-0.3,0.1
	c-0.1,0.1,0,0.3,0.1,0.3c0,0,1.1,0.8,2.5,0.8c0.6,0,1.5-0.3,2.6-0.6c1.2-0.4,2.6-0.9,3.9-1c0.1,0,0.2-0.1,0.2-0.2
	C57.1,9.4,57,9.3,56.9,9.3z M47.2,10.8c-0.1,0.1-0.1,0.2-0.1,0.3c0,0,0.7,1,0.7,2.2c0,0.6-0.3,1.4-0.6,2.4c-0.3,0.8-0.6,1.7-0.8,2.5
	c-0.2-0.9-0.5-1.7-0.8-2.5c-0.3-1-0.6-1.9-0.6-2.4c0-1.2,0.8-2.3,0.8-2.3c0.1-0.1,0.1-0.2,0-0.3s-0.2-0.1-0.3,0c0,0-0.9,1.2-0.9,2.6
	c0,0.6,0.3,1.5,0.6,2.6c0.4,1.2,0.9,2.6,1,3.9c0,0.1,0.1,0.2,0.2,0.2c0.1,0,0.2-0.1,0.2-0.2c0.1-1.3,0.6-2.7,1-3.9
	c0.3-1,0.6-1.9,0.6-2.6c0-1.4-0.8-2.5-0.8-2.5C47.5,10.7,47.3,10.7,47.2,10.8z M87.3,4.5c0-2.5-1.8-3.4-3.3-3.4
	c-2.2,0-2.9,1.5-3,1.5c-0.1,0.1,0,0.3,0.1,0.3c0.1,0.1,0.3,0,0.3-0.1s0.6-1.3,2.5-1.3c1.4,0,2.9,0.8,2.9,3c0,1.1-0.6,3-4.7,3
	c-0.8,0-1.6,0-2.3-0.1c0.3-0.6,0.4-1.1,0.4-1.4c0-1.6-1-3.4-3.1-3.4c-1.4,0-2.3,0.8-2.3,2.1c0,0.1,0.1,0.2,0.2,0.2s0.2-0.1,0.2-0.2
	c0-1,0.7-1.6,1.8-1.6c2.1,0,2.6,1.8,2.6,2.9c0,0.6-0.2,1-0.4,1.4c-3.8-0.5-6.8-1.9-9.8-3.4c0.6,0,1-0.2,1.3-0.4
	c0.5-0.3,0.9-0.9,1.1-1.4c0.1-0.5,0-1-0.2-1.4c-0.3-0.4-0.7-0.7-1.2-0.8c-1.4-0.3-1.8,1-1.8,1c0,0.1,0,0.2,0.2,0.3s0.3,0,0.3-0.2
	c0-0.1,0.2-0.8,1.2-0.7C70.7,0.5,71,0.7,71.2,1s0.3,0.7,0.2,1c-0.1,0.4-0.4,0.8-0.8,1.1c-0.4,0.2-1,0.5-1.8,0.3
	c-3.2-1.6-6.3-3-10.2-3c-4,0-6.3,1.7-7.6,3c-1.3,1.5-1.7,3-1.7,3.1c0,0.1,0,0.3,0.2,0.3c0.1,0,0.3,0,0.3-0.2c0,0,0.4-1.5,1.6-2.9
	c1.7-1.9,4.1-2.9,7.2-2.9c3.7,0,6.7,1.3,9.8,2.8c0,0.1,0.1,0.1,0.1,0.1h0.1C68.8,3.8,69,3.9,69.2,4c3,1.5,6.1,3,9.9,3.5
	c-0.9,0.8-2.4,0.9-3,0.9c-2,0-5.4-1.5-8.6-2.9c-1.2-0.5-2.3-1-3.4-1.5l0,0c-2.2-0.9-4.3-1.6-5.9-1.6c-1,0-1.8,0.3-2.3,0.8
	S55.1,4.3,55.1,5c0,1.2,0.8,2.4,2.3,2.4c1.4,0,2.5-0.8,2.5-1.9c0-0.1-0.1-0.2-0.2-0.2c-0.1,0-0.2,0.1-0.2,0.2c0,0.8-0.8,1.4-2,1.4
	s-1.8-1-1.8-1.9c0-0.6,0.2-1.1,0.6-1.5c0.5-0.5,1.2-0.7,2-0.7c1.5,0,3.5,0.7,5.7,1.6c0.8,0.5,1.1,1.1,1.2,1.6s0,1-0.2,1.4
	c-0.2,0.3-0.5,0.5-0.9,0.6c-0.4,0.1-0.7,0-1-0.2c-0.8-0.6-0.5-1.3-0.4-1.3c0.1-0.1,0-0.3-0.1-0.3c-0.1-0.1-0.3,0-0.3,0.1
	c0,0-0.7,1.1,0.5,2c0.3,0.2,0.7,0.3,1,0.3c0.1,0,0.2,0,0.4,0c0.5-0.1,0.9-0.4,1.2-0.8c0.3-0.5,0.4-1.1,0.3-1.7
	c-0.1-0.4-0.2-0.7-0.5-1c0.7,0.3,1.5,0.6,2.2,1C70.8,7.6,74.1,9,76.2,9c1.5,0,2.7-0.4,3.4-1.1c-0.1,0.1-0.1,0.1,0,0
	C80.4,8,81.3,8,82.2,8c1.8,0,3.1-0.4,4-1.1C86.9,6.4,87.3,5.5,87.3,4.5z M93.1,6.2c-0.1,0.8-0.6,1.5-1.4,2c-0.6,0.4-1.4,0.6-2.4,0.6
	c-1.2,0-2.4-0.3-3.4-0.9c-0.1-0.1-0.1-0.2-0.1-0.3c0-0.1,0.1-0.2,0.3-0.2c0,0,0.3,0,0.7,0c0.7,0,1.7-0.1,2.4-0.6
	c1.2-0.8,0.7-1.6,0.7-1.6c-0.1-0.1-0.4-0.4-1-0.4c-0.1,0-0.1,0-0.2-0.1c0-0.1-0.1-0.1,0-0.2c0,0,0.2-0.6,0.9-1.1
	c0.3-0.2,0.7-0.3,1.2-0.3c0.8,0,1.5,0.4,2,1.1C93.1,4.9,93.2,5.6,93.1,6.2z M92.3,4.6C92,4,91.4,3.7,90.7,3.7
	c-0.3,0-0.7,0.1-0.9,0.2c-0.3,0.2-0.5,0.4-0.6,0.6c0.5,0.1,0.9,0.4,1,0.5c0,0,0.8,1.2-0.8,2.3C88.7,7.8,87.8,8,87.1,8
	c0.7,0.2,1.4,0.3,2.1,0.3c0.9,0,1.6-0.2,2.1-0.5C92.8,6.9,92.9,5.5,92.3,4.6z M38.2,5.4c0-0.7-0.3-1.3-0.8-1.8
	c-0.6-0.5-1.4-0.8-2.3-0.8c-1.6,0-3.6,0.7-5.9,1.6l0,0c-1.1,0.5-2.3,1-3.4,1.5c-3.2,1.4-6.6,2.9-8.6,2.9c-1.6,0-2.5-0.4-3-0.9
	C17.9,7.2,21,5.8,24,4.3c0.2-0.1,0.4-0.2,0.6-0.3h0.1c0.1,0,0.1-0.1,0.1-0.1C28,2.4,31,1.1,34.7,1.1c3.1,0,5.5,1,7.2,2.9
	c1.3,1.4,1.6,2.9,1.6,2.9c0,0.1,0.2,0.2,0.3,0.2S44,6.8,44,6.7c0-0.1-0.4-1.6-1.7-3.1c-1.2-1.4-3.5-3-7.6-3c-3.9,0-7,1.4-10.2,3
	c-0.8,0.1-1.5-0.1-1.8-0.3c-0.4-0.3-0.8-0.7-0.8-1.1c-0.1-0.4,0-0.7,0.2-1s0.5-0.5,0.9-0.6c1-0.2,1.2,0.6,1.2,0.7
	c0,0.1,0.2,0.2,0.3,0.2c0.1,0,0.2-0.2,0.2-0.3c0,0-0.3-1.3-1.8-1C22.4,0.3,22,0.6,21.7,1s-0.4,0.9-0.2,1.4c0.1,0.5,0.5,1.1,1.1,1.4
	c0.1,0,0.5,0.2,0.9,0.2c-2.9,1.4-6,2.9-9.7,3.4c-0.4-0.5-0.4-1.1-0.4-1.4c0-2.3,1.6-2.9,2.6-2.9c1.1,0,1.8,0.6,1.8,1.6
	c0,0.1,0.1,0.2,0.2,0.2s0.2-0.1,0.2-0.2c0-1.3-0.9-2.1-2.3-2.1c-2.1,0-3.1,1.8-3.1,3.4c0,0.3,0.1,0.9,0.4,1.4
	c-0.7,0.1-1.5,0.1-2.3,0.1c-4.1,0-4.7-1.9-4.7-3c0-2.2,1.5-3,2.9-3c1.9,0,2.5,1.2,2.5,1.3C11.7,2.9,11.9,3,12,2.9s0.2-0.2,0.1-0.3
	c0-0.1-0.7-1.5-3-1.5C7.6,1.1,5.8,2,5.8,4.5c0,1,0.4,1.8,1.1,2.4C7.8,7.7,9.1,8,10.9,8c0.9,0,1.8-0.1,2.6-0.2
	C13.6,8,13.7,8,13.7,8.1c0.7,0.7,1.9,1.1,3.4,1.1c2.1,0,5.4-1.4,8.8-2.9c0.7-0.3,1.5-0.7,2.2-1c-0.2,0.3-0.4,0.6-0.5,1
	c-0.1,0.6,0,1.3,0.3,1.7c0.3,0.4,0.7,0.7,1.2,0.8c0.1,0,0.2,0,0.4,0c0.4,0,0.7-0.1,1-0.3c1.2-0.8,0.6-1.9,0.5-2s-0.2-0.1-0.3-0.1
	c-0.1,0.1-0.1,0.2-0.1,0.3c0,0,0.4,0.7-0.4,1.3c-0.3,0.2-0.7,0.3-1,0.2s-0.6-0.3-0.9-0.6c-0.2-0.4-0.3-0.9-0.2-1.4
	c0.1-0.5,0.4-1.1,1.2-1.6C31.5,3.7,33.5,3,35,3c0.9,0,1.6,0.2,2,0.7c0.4,0.4,0.6,0.9,0.6,1.5c0,0.9-0.6,1.9-1.8,1.9s-2-0.6-2-1.4
	c0-0.1-0.1-0.2-0.2-0.2c-0.1,0-0.2,0.1-0.2,0.2c0,1.1,1,1.9,2.5,1.9C37.4,7.8,38.2,6.6,38.2,5.4z M7.3,7.8c0,0.1,0,0.3-0.1,0.3
	c-1,0.6-2.2,1-3.4,1c-1,0-1.8-0.3-2.3-0.7C0.7,7.8,0.2,7,0,6.2c-0.1-0.7,0-1.4,0.4-1.9c0.4-0.7,1.2-1.1,2-1.1c0.4,0,0.8,0.1,1.2,0.3
	C4.2,4,4.4,4.7,4.4,4.7c0,0.1,0,0.1,0,0.2C4.3,5,4.3,5,4.2,5c-0.6,0-0.9,0.3-1,0.4c0,0-0.5,0.8,0.7,1.6c0.7,0.5,1.7,0.6,2.4,0.6
	c0.4,0,0.7,0,0.7,0C7.2,7.6,7.3,7.7,7.3,7.8z M5.9,8.2c-0.7,0-1.6-0.3-2.3-0.8C2.1,6.3,2.8,5.1,2.8,5.1c0.1-0.2,0.5-0.5,1-0.5
	C3.7,4.4,3.6,4.2,3.3,4C3.1,3.8,2.7,3.7,2.4,3.7C1.7,3.7,1.2,4,0.8,4.6C0.2,5.5,0.3,7,1.7,8C2.2,8.3,3,8.7,3.8,8.7l0,0
	C4.5,8.7,5.2,8.4,5.9,8.2z"/>
</svg>
