<?xml version="1.0" encoding="utf-8"?>
<!-- Generator: Adobe Illustrator 23.0.3, SVG Export Plug-In . SVG Version: 6.00 Build 0)  -->
<svg version="1.1" id="Layer_1" xmlns="http://www.w3.org/2000/svg" xmlns:xlink="http://www.w3.org/1999/xlink" x="0px" y="0px"
	 viewBox="0 0 300 18.3" style="enable-background:new 0 0 300 18.3;" xml:space="preserve">
<style type="text/css">
	.st0{fill:#3E50B4;}
</style>
<path class="st0" d="M150,1c4.9,0,8.8,3.3,8.8,7.5S154.9,16,150,16s-8.8-3.3-8.8-7.5S145.1,1,150,1z M141.2,0c0,0-5.6,4.9-5.2,10.2
	c0.3,3.9,5.2,8.2,5.2,8.2s-14.1-7.5-18-9.2C123.1,8.8,135.9,3.3,141.2,0z M131,2.9c0,0-3.6,3.3-3.3,6.6c0,2.6,3.3,5.6,3.3,5.6
	s-9.5-4.9-12.1-5.9C118.9,8.8,127.4,5.2,131,2.9z M127.4,11.8L0,9.2l127.4-3.3V11.8z M158.8,0c0,0,5.6,4.9,5.2,10.2
	c-0.3,3.6-5.2,7.9-5.2,7.9s14.1-7.5,18-9.2C176.9,8.8,164.1,3.3,158.8,0z M169.3,2.9c0,0,3.6,3.3,3.3,6.6c0,2.6-3.3,5.6-3.3,5.6
	s9.5-4.9,12.1-5.9C181.1,8.8,172.6,5.2,169.3,2.9z M172.6,11.8L300,9.2L172.6,5.9C172.6,5.9,172.6,11.8,172.6,11.8z"/>
</svg>
