<?xml version="1.0" encoding="utf-8"?>
<!-- Generator: Adobe Illustrator 23.0.3, SVG Export Plug-In . SVG Version: 6.00 Build 0)  -->
<svg version="1.1" id="Layer_1" xmlns="http://www.w3.org/2000/svg" xmlns:xlink="http://www.w3.org/1999/xlink" x="0px" y="0px"
	 viewBox="0 0 300 12.3" style="enable-background:new 0 0 300 12.3;" xml:space="preserve">
<style type="text/css">
	.st0{fill:#006BFF;}
</style>
<path class="st0" d="M106.6,6.1c0,0,0,0.3,1.8,1.8c1.8,1.5,4,1.5,11,0.6c2.5-0.3,4.9-0.6,7.4-0.9c3.1,0,5.8,0,8.9,0.3
	c3.1,0.3,6.4,0.6,9.5,1.8c3.7,1.2,4.3,2.5,4.6,2.5l0,0l0,0l0,0l0,0c0,0,0.9-1.2,4.6-2.5c3.1-1.2,6.1-1.5,9.5-1.8
	c3.1-0.3,5.8-0.3,8.9-0.3c2.5,0,4.9,0.3,7.4,0.9c6.7,0.9,9.2,0.9,11-0.6s1.8-1.8,1.8-1.8h-43.5l0,0H106.6z M192.7,6.1
	c0,0,0-0.3-1.8-1.8c-1.8-1.5-4-1.5-11-0.6c-2.5,0.3-4.9,0.6-7.4,0.9c-3.1,0-5.8,0-8.9-0.3s-6.4-0.6-9.5-1.8
	c-3.7-1.2-4.6-2.1-4.6-2.5l0,0l0,0l0,0l0,0c0,0-0.9,1.2-4.6,2.5c-3.1,1.2-6.1,1.5-9.5,1.8c-3.1,0.3-5.8,0.3-8.9,0.3
	c-2.5,0-4.9-0.3-7.4-0.9c-6.7-0.9-9.2-0.9-11,0.6c-1.5,1.5-1.5,1.8-1.5,1.8h42.9l0,0H192.7z M195.8,6.1c0,1.8,1.5,3.4,3.4,3.4
	s3.4-1.5,3.4-3.4s-1.5-3.4-3.4-3.4C197.3,2.5,195.8,4,195.8,6.1z M205.6,6.1h53v0.6h-53V6.1z M262,6.4c0,1.2,0.9,2.5,2.5,2.5
	s2.5-0.9,2.5-2.5c0-1.2-0.9-2.5-2.5-2.5S262,5.2,262,6.4z M299.7,6.4c0,0,0,0-0.6,0.6c-0.6,0.6-1.5,0.6-4,0.3
	c-0.9,0-1.8-0.3-2.8-0.3c-1.2,0-2.1,0-3.4,0c-1.2,0-2.5,0.3-3.4,0.6c-1.2,0.3-1.5,0.9-1.5,0.9l0,0l0,0l0,0l0,0c0,0-0.3-0.3-1.5-0.9
	c-1.2-0.3-2.1-0.6-3.4-0.6s-2.1,0-3.4,0c-0.9,0-1.8,0.3-2.8,0.3c-2.5,0.3-3.4,0.3-4-0.3c-0.6-0.6-0.6-0.6-0.6-0.6h15.6l0,0H299.7z
	 M268.7,6.4c0,0,0,0,0.6-0.6c0.6-0.6,1.5-0.6,4-0.3c0.9,0,1.8,0.3,2.8,0.3c1.2,0,2.1,0,3.4,0c1.2,0,2.5-0.3,3.4-0.6
	c1.2-0.3,1.5-0.9,1.5-0.9l0,0l0,0l0,0l0,0c0,0,0.3,0.3,1.5,0.9c1.2,0.3,2.1,0.6,3.4,0.6c1.2,0,2.1,0,3.4,0c0.9,0,1.8-0.3,2.8-0.3
	c2.5-0.3,3.4-0.3,4,0.3c0.6,0.6,0.6,0.6,0.6,0.6h-15.6l0,0H268.7z M104.2,6.1c0,1.8-1.5,3.4-3.4,3.4S97.4,8,97.4,6.1
	s1.5-3.4,3.4-3.4C102.7,2.5,104.2,4,104.2,6.1z M41.4,6.1h53v0.6h-53V6.1z M38,6.4c0,1.2-0.9,2.5-2.5,2.5c-1.2,0-2.5-0.9-2.5-2.5
	C33.1,5.2,34,4,35.5,4C37.1,4.3,38,5.2,38,6.4z M0.3,6.4c0,0,0,0,0.6,0.6s1.5,0.6,4,0.3C5.8,7.4,6.7,7,7.7,7C8.9,7,9.8,7,11,7
	s2.5,0.3,3.4,0.6c1.2,0.3,1.5,0.9,1.5,0.9l0,0l0,0l0,0l0,0c0,0,0.3-0.3,1.5-0.9C18.7,7.4,19.6,7,20.8,7c1.2,0,2.1,0,3.4,0
	C25.1,7,26,7.4,27,7.4c2.5,0.3,3.4,0.3,4-0.3s0.6-0.6,0.6-0.6H15.6l0,0H0.3z M31.3,6.4c0,0,0,0-0.6-0.6c-0.6-0.6-1.5-0.6-4-0.3
	c-0.9,0-1.8,0.3-2.8,0.3c-1.2,0-2.1,0-3.4,0s-2.5-0.3-3.4-0.6c-1.2-0.3-1.5-0.9-1.5-0.9l0,0l0,0l0,0l0,0c0,0-0.3,0.3-1.5,0.9
	c-1.2,0.3-2.1,0.6-3.4,0.6s-2.1,0-3.4,0c-0.9,0-1.8-0.3-2.8-0.3c-2.5-0.3-3.4-0.3-4,0.3S0,6.4,0,6.4h15.6l0,0H31.3z"/>
</svg>
