<?xml version="1.0" encoding="utf-8"?>
<!-- Generator: Adobe Illustrator 22.1.0, SVG Export Plug-In . SVG Version: 6.00 Build 0)  -->
<svg version="1.1" id="Layer_1" xmlns="http://www.w3.org/2000/svg" xmlns:xlink="http://www.w3.org/1999/xlink" x="0px" y="0px"
	 viewBox="0 0 394.4 20" style="enable-background:new 0 0 394.4 20;" xml:space="preserve">
<style type="text/css">
	.st0{fill:#4BAE4F;}
</style>
<g>
	<path class="st0" d="M264,6.7c-1.5-0.4-3.2,0.1-4.2,1.2c-0.1,0.1-0.2,0.3-0.4,0.4c-0.2,0.3-0.4,0.5-0.5,0.8s-0.3,0.6-0.3,0.9
		c0,0.3-0.1,0.5-0.2,0.8c-0.1,0.2-0.2,0.5-0.3,0.7c-0.1,0.2-0.3,0.4-0.4,0.6c-0.2,0.2-0.3,0.4-0.5,0.5s-0.4,0.3-0.6,0.4
		c-1.1,0.5-2.4,0.5-3.4-0.1c-0.9-0.6-1.5-1.6-1.5-2.6s0.5-1.9,1.2-2.4s1.6-0.6,2.3-0.3c0.7,0.3,1.2,0.8,1.4,1.5
		c0.2,0.6,0.1,1.2-0.2,1.7c-0.3,0.4-0.7,0.7-1.1,0.7c-0.4,0.1-0.7,0-1-0.2c-0.2-0.1-0.4-0.3-0.4-0.5c-0.1-0.1-0.1-0.2,0-0.3
		c0-0.1,0.2,0.2,0.4,0.3s0.4,0.2,0.7,0.2s0.7-0.2,0.9-0.5c0.3-0.3,0.4-0.8,0.2-1.3c-0.1-0.5-0.6-0.9-1.1-1.1c-0.6-0.2-1.3,0-1.8,0.5
		s-0.8,1.3-0.6,2.1c0.2,0.8,0.8,1.5,1.7,1.8s1.9,0,2.6-0.7s1.1-1.9,0.8-2.9c-0.3-1.1-1.2-2-2.3-2.3c-1.2-0.3-2.6,0.1-3.5,1
		c-0.2,0.2-0.4,0.5-0.6,0.8c0-0.3-0.1-0.6-0.2-1c-0.6-2-2.3-3.7-4.4-4.2c-2.2-0.5-4.7,0.2-6.3,1.8c-0.2,0.2-0.4,0.4-0.5,0.6
		c-0.3,0.4-0.5,0.8-0.7,1.2s-0.4,0.9-0.5,1.3c-0.1,0.4-0.1,0.8-0.2,1.2c-0.1,0.4-0.3,0.7-0.4,1.1c-0.2,0.3-0.4,0.7-0.6,1
		c-0.2,0.3-0.5,0.6-0.8,0.8s-0.6,0.4-0.9,0.6c-1.6,0.8-3.6,0.7-5-0.2s-2.2-2.4-2.2-3.9c0-1.4,0.7-2.8,1.8-3.6c1-0.7,2.4-0.9,3.5-0.5
		c1,0.4,1.8,1.2,2.1,2.2c0.3,0.9,0.1,1.8-0.3,2.5c-0.4,0.6-1,1-1.7,1.1c-0.6,0.1-1.1,0-1.5-0.3c-0.3-0.2-0.5-0.5-0.7-0.7
		c-0.1-0.2-0.1-0.3-0.1-0.4c0-0.1,0.2,0.2,0.6,0.5c0.3,0.2,0.6,0.3,1,0.3c0.5,0,1-0.3,1.3-0.7c0.4-0.5,0.5-1.2,0.3-1.9
		s-0.9-1.4-1.7-1.6c-0.9-0.2-1.9,0-2.7,0.7s-1.1,1.9-0.9,3.1c0.3,1.2,1.3,2.2,2.5,2.6c1.3,0.4,2.9,0,3.9-1c1.1-1,1.6-2.8,1.2-4.3
		c-0.4-1.6-1.8-3-3.5-3.4c-1.7-0.5-3.8,0.1-5.1,1.4c-0.5,0.5-0.9,1.1-1.1,1.7c0-0.2-0.1-0.5-0.1-0.7c-0.7-2.6-3-4.7-5.6-5.4
		c-2.8-0.7-5.9,0.2-8,2.3c-0.2,0.2-0.5,0.5-0.7,0.8c-0.4,0.5-0.7,1-0.9,1.6c-0.3,0.5-0.5,1.1-0.6,1.7c-0.1,0.5-0.2,1-0.3,1.5
		s-0.3,0.9-0.5,1.3c-0.2,0.4-0.5,0.8-0.8,1.2s-0.6,0.7-1,1s-0.8,0.6-1.2,0.8c-2,1-4.5,0.9-6.3-0.2c-1.7-1.1-2.8-3-2.8-4.9
		c0-1.8,0.9-3.6,2.3-4.5c1.3-0.9,3-1.1,4.4-0.6c1.3,0.5,2.3,1.6,2.6,2.7s0.1,2.3-0.4,3.1s-1.3,1.3-2.1,1.4c-0.7,0.1-1.4,0-1.9-0.3
		c-0.4-0.3-0.7-0.6-0.8-0.9c-0.1-0.2-0.1-0.4-0.1-0.6c0-0.1,0.3,0.3,0.8,0.6c0.3,0.2,0.8,0.4,1.3,0.4c0.6,0,1.3-0.3,1.7-0.9
		c0.5-0.6,0.7-1.5,0.4-2.4s-1.1-1.8-2.1-2.1c-1.1-0.3-2.5,0-3.4,0.9c-1,0.9-1.5,2.5-1.1,3.9c0.3,1.5,1.6,2.8,3.2,3.3
		c1.6,0.5,3.6,0,5-1.3s2-3.5,1.5-5.5s-2.3-3.8-4.4-4.4c-2.2-0.6-4.8,0.1-6.5,1.8c-1,1.1-1.7,2.5-1.9,4c-0.2-1.5-0.9-2.9-1.9-3.9
		c-1.7-1.7-4.3-2.4-6.5-1.8c-2.1,0.6-3.9,2.3-4.4,4.4c-0.5,2,0.1,4.1,1.5,5.5c1.3,1.3,3.3,1.7,5,1.3c1.6-0.5,2.8-1.8,3.2-3.3
		c0.3-1.4-0.1-2.9-1.1-3.9c-0.9-0.9-2.3-1.2-3.4-0.9c-1,0.3-1.9,1.1-2.1,2.1c-0.3,0.9,0,1.8,0.4,2.4s1.1,0.9,1.7,0.9
		c0.5,0,1-0.2,1.3-0.4c0.5-0.3,0.7-0.8,0.8-0.6c0,0.1,0,0.3-0.1,0.6s-0.4,0.7-0.8,0.9c-0.5,0.3-1.2,0.5-1.9,0.3
		c-0.8-0.1-1.6-0.6-2.1-1.4c-0.6-0.9-0.8-2-0.4-3.1c0.4-1.2,1.3-2.3,2.6-2.8c1.4-0.5,3.1-0.3,4.4,0.6c1.4,1,2.3,2.7,2.3,4.5
		c0,1.9-1.1,3.9-2.8,4.9c-1.8,1.1-4.3,1.3-6.4,0.2c-0.4-0.2-0.8-0.5-1.2-0.8s-0.7-0.6-1-1s-0.6-0.8-0.8-1.2s-0.4-0.9-0.5-1.3
		c-0.1-0.5-0.2-1-0.3-1.5c-0.1-0.6-0.3-1.2-0.6-1.7s-0.6-1.1-0.9-1.6c-0.2-0.3-0.4-0.5-0.7-0.8c-2-2.1-5.2-3-8-2.3
		c-2.7,0.7-4.9,2.8-5.6,5.4c-0.1,0.2-0.1,0.5-0.1,0.7c-0.3-0.6-0.6-1.2-1.1-1.7c-1.3-1.3-3.4-1.9-5.1-1.4c-1.7,0.4-3,1.8-3.5,3.4
		c-0.4,1.5,0.1,3.3,1.2,4.3c1,1,2.6,1.4,3.9,1c1.2-0.4,2.2-1.4,2.5-2.6c0.3-1.1-0.1-2.3-0.9-3.1c-0.7-0.7-1.8-0.9-2.7-0.7
		c-0.8,0.2-1.5,0.9-1.7,1.6s0,1.4,0.3,1.9c0.3,0.4,0.9,0.7,1.3,0.7c0.4,0,0.8-0.1,1-0.3c0.4-0.3,0.6-0.6,0.6-0.5s0,0.3-0.1,0.4
		c-0.1,0.3-0.3,0.5-0.7,0.7s-0.9,0.4-1.5,0.3c-0.6-0.1-1.3-0.5-1.7-1.1c-0.4-0.7-0.6-1.6-0.3-2.5s1.1-1.8,2.1-2.2
		c1.1-0.4,2.4-0.2,3.5,0.5c1.1,0.8,1.8,2.1,1.8,3.6s-0.9,3-2.2,3.9c-1.4,0.9-3.4,1-5,0.2c-0.3-0.2-0.6-0.4-0.9-0.6
		c-0.3-0.2-0.6-0.5-0.8-0.8s-0.5-0.6-0.6-1c-0.2-0.3-0.3-0.7-0.4-1.1c-0.1-0.4-0.2-0.8-0.2-1.2c-0.1-0.5-0.3-0.9-0.5-1.3
		s-0.5-0.8-0.7-1.2c-0.2-0.2-0.3-0.4-0.5-0.6c-1.6-1.7-4.1-2.4-6.3-1.8c-2.1,0.5-3.9,2.2-4.4,4.2c-0.1,0.3-0.1,0.6-0.2,1
		c-0.2-0.3-0.3-0.5-0.6-0.8c-0.9-0.9-2.3-1.3-3.4-1c-1.1,0.3-2.1,1.2-2.3,2.3c-0.3,1,0.1,2.2,0.8,2.9s1.8,0.9,2.6,0.7s1.5-1,1.7-1.8
		s-0.1-1.6-0.6-2.1S140,8,139.4,8.1c-0.6,0.2-1,0.6-1.1,1.1s0,0.9,0.2,1.3c0.2,0.3,0.6,0.5,0.9,0.5c0.3,0,0.5-0.1,0.7-0.2
		c0.3-0.2,0.4-0.4,0.4-0.3s0,0.2,0,0.3c-0.1,0.2-0.2,0.4-0.4,0.5c-0.3,0.2-0.6,0.2-1,0.2c-0.4-0.1-0.9-0.3-1.1-0.7
		c-0.3-0.5-0.4-1.1-0.2-1.7c0.2-0.6,0.7-1.2,1.4-1.5s1.6-0.2,2.3,0.3s1.2,1.4,1.2,2.4s-0.6,2.1-1.5,2.6c-1,0.6-2.3,0.7-3.4,0.1
		c-0.2-0.1-0.4-0.3-0.6-0.4c-0.2-0.2-0.4-0.3-0.5-0.5c-0.2-0.2-0.3-0.4-0.4-0.6c-0.1-0.2-0.2-0.5-0.3-0.7c-0.1-0.3-0.1-0.5-0.2-0.8
		c-0.1-0.3-0.2-0.6-0.3-0.9c-0.1-0.3-0.3-0.6-0.5-0.8c-0.1-0.1-0.2-0.3-0.3-0.4c-1.1-1.1-2.8-1.6-4.3-1.2c-1.4,0.4-2.6,1.5-3,2.9
		c-0.4,1.3,0,2.8,0.9,3.8c0.9,0.9,2.3,1.3,3.5,1c1.1-0.3,2.1-1.2,2.3-2.3c0.3-1-0.1-2.2-0.8-2.9s-1.8-0.9-2.6-0.7
		c-0.8,0.3-1.5,1-1.7,1.8s0.1,1.6,0.6,2.1s1.2,0.6,1.8,0.5c0.6-0.2,1-0.6,1.1-1.1s0-0.9-0.2-1.3c-0.2-0.3-0.6-0.5-0.9-0.5
		c-0.3,0-0.5,0.1-0.7,0.2c-0.3,0.2-0.4,0.4-0.4,0.3c0-0.1,0-0.2,0-0.3c0.1-0.2,0.2-0.4,0.4-0.5c0.3-0.2,0.6-0.2,1-0.2
		c0.4,0.1,0.8,0.3,1.1,0.7c0.3,0.5,0.4,1.1,0.2,1.7c-0.2,0.6-0.7,1.2-1.4,1.5s-1.6,0.2-2.3-0.3s-1.2-1.4-1.2-2.4s0.6-2.1,1.5-2.6
		c1-0.6,2.3-0.7,3.4-0.1c0.2,0.1,0.4,0.3,0.6,0.4c0.2,0.2,0.4,0.3,0.6,0.5c0.2,0.2,0.3,0.4,0.4,0.7c0.1,0.2,0.2,0.5,0.3,0.7
		c0.1,0.3,0.1,0.5,0.2,0.8c0.1,0.3,0.2,0.6,0.3,0.9c0.1,0.3,0.3,0.6,0.5,0.8c0.1,0.1,0.2,0.3,0.3,0.4c1.1,1.1,2.8,1.6,4.3,1.2
		c1.4-0.4,2.6-1.5,3-2.9c0-0.1,0-0.1,0-0.2c0.3,0.7,0.7,1.3,1.1,1.8c1.3,1.3,3.4,1.9,5.1,1.4c1.7-0.5,3-1.8,3.5-3.4
		c0.4-1.5-0.1-3.3-1.2-4.3c-1-1-2.6-1.4-3.9-1c-1.2,0.4-2.2,1.4-2.5,2.6c-0.3,1.1,0.1,2.3,0.9,3c0.7,0.7,1.8,0.9,2.7,0.7
		c0.8-0.2,1.5-0.9,1.7-1.6c0.2-0.7,0-1.4-0.3-1.9c-0.3-0.4-0.9-0.7-1.3-0.7c-0.4,0-0.8,0.1-1,0.3c-0.4,0.3-0.6,0.6-0.6,0.5
		s0-0.3,0.1-0.4c0.1-0.3,0.3-0.5,0.7-0.7s0.9-0.4,1.5-0.3s1.3,0.5,1.7,1.1c0.4,0.7,0.6,1.6,0.3,2.5s-1.1,1.8-2.1,2.2
		c-1.1,0.4-2.4,0.2-3.5-0.5c-1.1-0.8-1.8-2.1-1.8-3.6s0.9-3,2.2-3.9c1.4-0.9,3.4-1,5-0.2c0.3,0.2,0.6,0.4,0.9,0.6
		c0.3,0.2,0.6,0.5,0.8,0.8s0.5,0.6,0.6,1c0.2,0.3,0.3,0.7,0.4,1.1c0.1,0.4,0.2,0.8,0.2,1.2c0.1,0.4,0.3,0.9,0.5,1.3
		c0.2,0.4,0.4,0.8,0.7,1.2c0.2,0.2,0.3,0.4,0.5,0.6c1.6,1.7,4.1,2.4,6.3,1.8c2.1-0.5,3.9-2.2,4.4-4.2c0-0.1,0-0.1,0-0.2
		c0.3,1,0.9,2,1.6,2.7c1.7,1.7,4.3,2.4,6.5,1.8c2.1-0.6,3.9-2.3,4.4-4.4c0.5-2-0.1-4.1-1.5-5.5c-1.3-1.3-3.3-1.8-5-1.3
		c-1.6,0.5-2.8,1.8-3.2,3.3c-0.3,1.4,0.1,3,1.1,3.9c0.9,0.9,2.3,1.2,3.4,0.9c1-0.3,1.9-1.1,2.1-2.1c0.3-0.9,0-1.8-0.4-2.4
		s-1.1-0.9-1.7-0.9c-0.5,0-1,0.2-1.3,0.4c-0.5,0.3-0.7,0.8-0.8,0.6c0-0.1,0-0.3,0.1-0.6c0.1-0.3,0.4-0.7,0.8-0.9
		c0.5-0.3,1.2-0.5,1.9-0.3c0.8,0.1,1.6,0.6,2.1,1.4c0.6,0.8,0.8,2,0.4,3.1c-0.4,1.2-1.3,2.3-2.6,2.8c-1.4,0.5-3.1,0.3-4.4-0.6
		c-1.4-1-2.3-2.7-2.3-4.5c0-1.9,1.1-3.9,2.8-4.9c1.8-1.1,4.3-1.3,6.4-0.2c0.4,0.2,0.8,0.5,1.2,0.8s0.7,0.6,1,1s0.6,0.8,0.8,1.2
		c0.2,0.4,0.4,0.9,0.5,1.4s0.2,1,0.3,1.5c0.1,0.6,0.3,1.1,0.6,1.7c0.3,0.5,0.6,1.1,0.9,1.5c0.2,0.3,0.4,0.5,0.6,0.7
		c2,2.1,5.2,3,8,2.3c2.7-0.7,4.9-2.8,5.6-5.4c0.1-0.3,0.1-0.6,0.2-0.9c0,0.3,0.1,0.5,0.2,0.8c0.7,2.6,3,4.7,5.6,5.4
		c2.7,0.7,5.9-0.2,8-2.3c0.2-0.2,0.4-0.5,0.6-0.7c0.4-0.5,0.7-1,0.9-1.5c0.3-0.5,0.5-1.1,0.6-1.7c0.1-0.5,0.2-1,0.3-1.5
		s0.3-0.9,0.5-1.4c0.2-0.4,0.5-0.8,0.8-1.2s0.7-0.7,1-1c0.4-0.3,0.8-0.6,1.2-0.8c2-1,4.5-0.9,6.3,0.2c1.7,1.1,2.8,3,2.8,4.9
		c0,1.8-0.9,3.6-2.3,4.5c-1.3,0.9-3,1.1-4.4,0.6c-1.3-0.5-2.3-1.6-2.6-2.7s-0.1-2.3,0.4-3.1s1.3-1.3,2.1-1.4c0.7-0.1,1.4,0,1.9,0.3
		c0.4,0.3,0.7,0.6,0.8,0.9c0.1,0.2,0.1,0.4,0.1,0.6c0,0.1-0.3-0.3-0.8-0.6c-0.3-0.2-0.8-0.4-1.3-0.4c-0.6,0-1.3,0.3-1.7,0.9
		c-0.5,0.6-0.7,1.5-0.4,2.4c0.3,0.9,1.1,1.8,2.1,2.1c1.1,0.3,2.5,0,3.4-0.9c1-0.9,1.5-2.5,1.1-3.9c-0.3-1.5-1.6-2.8-3.2-3.3
		c-1.6-0.5-3.6,0-5,1.3s-2,3.5-1.5,5.5s2.3,3.8,4.4,4.4c2.2,0.6,4.8-0.1,6.5-1.8c0.7-0.8,1.3-1.7,1.6-2.7c0,0.1,0,0.1,0,0.2
		c0.6,2,2.3,3.7,4.4,4.2c2.2,0.5,4.7-0.2,6.3-1.8c0.2-0.2,0.4-0.4,0.5-0.6c0.3-0.4,0.5-0.8,0.7-1.2s0.4-0.9,0.5-1.3
		c0.1-0.4,0.1-0.8,0.2-1.2c0.1-0.4,0.2-0.7,0.4-1.1c0.2-0.3,0.4-0.7,0.6-1c0.2-0.3,0.5-0.6,0.8-0.8c0.3-0.2,0.6-0.5,0.9-0.6
		c1.6-0.8,3.6-0.7,5,0.2c1.4,0.8,2.2,2.4,2.2,3.9c0,1.4-0.7,2.8-1.8,3.6c-1,0.7-2.4,0.9-3.5,0.5c-1-0.4-1.8-1.2-2.1-2.2
		c-0.3-0.9-0.1-1.8,0.3-2.5c0.4-0.6,1-1,1.7-1.1c0.6-0.1,1.1,0,1.5,0.3c0.3,0.2,0.5,0.5,0.6,0.7c0.1,0.2,0.1,0.3,0.1,0.4
		c0,0.1-0.2-0.2-0.6-0.5c-0.3-0.2-0.6-0.3-1-0.3c-0.5,0-1,0.3-1.3,0.7c-0.4,0.5-0.5,1.2-0.3,1.9s0.9,1.4,1.7,1.6
		c0.9,0.2,1.9,0,2.7-0.7s1.1-1.9,0.9-3c-0.3-1.2-1.3-2.2-2.5-2.6c-1.3-0.4-2.9,0-3.9,1c-1.1,1-1.6,2.8-1.2,4.3
		c0.4,1.6,1.8,3,3.5,3.4c1.7,0.5,3.8-0.1,5.1-1.4c0.5-0.5,0.9-1.1,1.1-1.8c0,0.1,0,0.1,0,0.2c0.4,1.4,1.6,2.5,3,2.9
		c1.5,0.4,3.2-0.1,4.2-1.2c0.1-0.1,0.2-0.3,0.3-0.4c0.2-0.2,0.4-0.5,0.5-0.8s0.3-0.6,0.3-0.9c0-0.3,0.1-0.5,0.2-0.8s0.2-0.5,0.3-0.7
		c0.1-0.2,0.3-0.5,0.4-0.7c0.2-0.2,0.3-0.4,0.6-0.5c0.2-0.1,0.4-0.3,0.6-0.4c1.1-0.5,2.4-0.5,3.4,0.1c0.9,0.6,1.5,1.6,1.5,2.6
		s-0.5,1.9-1.2,2.4s-1.6,0.6-2.3,0.3c-0.7-0.3-1.2-0.8-1.4-1.5c-0.2-0.6-0.1-1.2,0.2-1.7c0.3-0.4,0.7-0.7,1.1-0.7
		c0.4-0.1,0.7,0,1,0.2c0.2,0.1,0.4,0.3,0.4,0.5c0.1,0.1,0.1,0.2,0,0.3c0,0.1-0.2-0.2-0.4-0.3c-0.2-0.1-0.4-0.2-0.7-0.2
		c-0.3,0-0.7,0.2-0.9,0.5c-0.3,0.3-0.4,0.8-0.2,1.3c0.1,0.5,0.6,0.9,1.1,1.1c0.6,0.2,1.3,0,1.8-0.5s0.8-1.3,0.6-2.1
		c-0.2-0.8-0.8-1.5-1.7-1.8c-0.9-0.3-1.9,0-2.6,0.7s-1.1,1.9-0.8,2.9c0.3,1.1,1.2,2,2.3,2.3c1.2,0.3,2.6-0.1,3.5-1s1.3-2.4,0.9-3.8
		C266.6,8.2,265.4,7,264,6.7z"/>
	<polygon class="st0" points="0,15.1 125.8,20 125.8,10.2 125.8,0.4 0,5.3 	"/>
	<polygon class="st0" points="268.6,0.4 268.6,0.4 268.6,10.2 268.6,10.2 268.6,10.2 268.6,20 394.4,15.1 394.4,5.3 	"/>
</g>
</svg>
