<?xml version="1.0" encoding="utf-8"?>
<!-- Generator: Adobe Illustrator 23.0.3, SVG Export Plug-In . SVG Version: 6.00 Build 0)  -->
<svg version="1.1" id="Layer_1" xmlns="http://www.w3.org/2000/svg" xmlns:xlink="http://www.w3.org/1999/xlink" x="0px" y="0px"
	 viewBox="0 0 300 7.8" style="enable-background:new 0 0 300 7.8;" xml:space="preserve">
<style type="text/css">
	.st0{fill:#3E50B4;}
</style>
<path class="st0" d="M150,1.3c-1.3,0-2.6,1-2.6,2.6c0,1.3,1,2.6,2.6,2.6c1.3,0,2.6-1,2.6-2.6C152.6,2.6,151.3,1.3,150,1.3z M150,5.5
	c-1,0-1.6-0.6-1.6-1.6s0.6-1.6,1.6-1.6s1.6,0.6,1.6,1.6S151,5.5,150,5.5z M150,2.3c1,0,1.6,0.6,1.6,1.6S151,5.5,150,5.5
	s-1.6-0.6-1.6-1.6S149,2.3,150,2.3z M150,0c-1.9,0-3.9,1.6-3.9,3.9c0,1.9,1.6,3.9,3.9,3.9s3.9-1.6,3.9-3.9S151.9,0,150,0z M150,6.2
	c-1.3,0-2.6-1-2.6-2.6c0-1.3,1-2.6,2.6-2.6c1.3,0,2.6,1,2.6,2.6S151.3,6.2,150,6.2z M14.9,3.6c-0.6,0-1.3-0.3-1.9-0.6
	c-0.3-0.3-0.6-0.6-1-1.3c-0.3,1-1,1.3-1.6,1.6c-1-0.3-2.3-1.3-2.9-2.9c-1,1.6-2.9,2.6-4.5,2.9S0,3.6,0,3.6s1.3,0,2.9,0.3
	s3.6,1.3,4.5,2.9c0.6-1.6,1.9-2.6,2.9-2.9C11,4.5,11.7,5.2,12,5.8c0-0.3,0.3-0.6,0.6-1c0.6-0.6,1.3-1,2.3-1V3.6z M11.7,3.2v0.6v0.6
	h135.7V3.9V3.2H11.7z M297.1,3.6c-1.6-0.3-3.6-1.3-4.5-2.9c-0.6,1.6-1.9,2.6-2.9,2.9c-0.6-0.3-1.3-0.6-1.9-1.6c-0.3,0.6-0.6,1-1,1.3
	c-0.6,0.3-1.3,0.6-1.9,0.6v0.3c1,0,1.6,0.3,2.3,1c0.3,0.3,0.6,0.6,0.6,1c0.3-0.6,1.3-1.3,1.9-1.6c1,0.6,2.3,1.3,2.9,2.9
	c1-1.6,2.9-2.6,4.5-2.9s2.9-0.3,2.9-0.3S298.7,3.9,297.1,3.6z M152.6,3.2h135.7v1.3H152.6V3.2z"/>
</svg>
