<?xml version="1.0" encoding="utf-8"?>
<!-- Generator: Adobe Illustrator 23.0.3, SVG Export Plug-In . SVG Version: 6.00 Build 0)  -->
<svg version="1.1" id="Layer_1" xmlns="http://www.w3.org/2000/svg" xmlns:xlink="http://www.w3.org/1999/xlink" x="0px" y="0px"
	 viewBox="0 0 300 42.6" style="enable-background:new 0 0 300 42.6;" xml:space="preserve">
<style type="text/css">
	.st0{fill:#3E50B4;}
</style>
<path class="st0" d="M161.5,27c0,0.3,0.3,0.3,0.3,0.6c0.3,0.3,0.3,0.3,0.6,0.3c42.1-13,91.7-12.1,131,9c0.9,0.6,1.5-0.9,0.6-1.2
	c-18.6-12.1-40.3-16.4-61.9-17.7c-13-0.9-25.7-0.3-38.4,1.2c-5,0.6-9.9,1.5-14.6,2.2c-2.2,0.3-15.2,5.6-16.4,4.3
	C161.8,25.5,161.2,26.4,161.5,27L161.5,27z M192.5,20.5c5.3-2.8,10.5-5.6,14.6-10.2c0.6-0.6-0.3-1.5-0.9-0.9
	c-4.3,4-9.3,7.1-14.6,9.9C190.9,19.9,191.5,20.8,192.5,20.5L192.5,20.5z M201.1,19.9c8.4,0.9,15.8,5,23.5,7.4
	c0.9,0.3,1.2-0.9,0.3-1.2c-7.7-2.8-15.5-6.8-23.8-7.4C200.5,18.3,200.5,19.9,201.1,19.9L201.1,19.9z M228.4,19
	c4.6-0.9,9-3.1,12.7-6.2c0.6-0.3-0.3-1.5-0.9-0.9c-3.7,2.8-7.7,4.6-12.1,5.9C227.1,18,227.5,19,228.4,19L228.4,19z M238,19.9
	c8.1,1.9,15.5,6.5,21.7,11.5c0.6,0.3,1.5-0.6,0.9-0.9c-6.2-5-14.2-10.2-22.3-11.8C237.4,18.6,237.1,19.6,238,19.9L238,19.9z
	 M264.9,24.8c6.8,1.2,14.2-0.9,19.8-4.6c0.6-0.6,0-1.5-0.6-1.2c-5.9,3.4-12.4,5.3-19.2,4.6C264.6,23.3,264.3,24.5,264.9,24.8
	L264.9,24.8z M280.7,30.1c0.6,2.5,3.1,4,4.6,5.6c2.5,2.5,5,5.3,8.4,6.8c0.3,0.3,0.9,0,1.2-0.3c0.6-2.2-0.3-3.1-1.9-4.6
	c-0.3,0.3-0.3,0.9-0.6,1.2c1.9,0,9.3,0.6,7.1-3.4c-0.9-1.9-3.7-2.5-5.6-3.1C290,31,286,31,282,29.8c-0.9-0.3-1.2,0.9-0.3,1.2
	c4,1.2,8.7,1.2,12.7,2.8c0.9,0.3,1.9,0.6,2.8,1.2c1.5,0.9,1.2,2.2-0.6,2.5c-1.2,0-2.5,0-3.7,0c-0.6,0-0.9,0.6-0.6,1.2
	c0.9,0.9,1.2,1.9,1.2,3.4c0.3,0,0.6-0.3,1.2-0.3c-2.8-1.2-5-3.7-7.4-5.9c-1.5-1.5-4.6-3.4-5.3-5.6C281.6,28.9,280.7,29.2,280.7,30.1
	L280.7,30.1z M278.6,23c2.2-2.8,4.3-6.8,8.1-8.1c-0.3-0.3-0.6-0.6-0.9-0.9c0,0.3-0.3,0.9-0.3,1.2c0,0.3,0.3,0.9,0.6,0.9
	c1.2,0,2.5-0.3,3.7-0.6c0.3,0,0.9,0,1.2-0.3c1.5,0.9,1.9,1.5,0.9,1.9c-0.6,0.3-1.5,0.6-2.5,0.9c-3.4,1.5-5.6,3.7-9.9,3.4
	c-0.9,0-0.9,1.2,0,1.2c2.8,0.3,5.3-0.3,7.4-1.9c1.2-0.6,2.5-1.5,4-2.2c0.9-0.3,1.9-0.6,2.5-1.2c0.9-0.9,0.9-2.5-0.6-3.1
	c-2.2-1.2-4.6,0.3-7.1,0.3c0.3,0.3,0.3,0.6,0.6,0.9c0-0.3,0.3-0.9,0.3-1.2c0.3-0.6-0.3-0.9-0.9-0.9c-4,1.2-6.5,5.3-8.7,8.7
	C277,23,277.9,23.6,278.6,23L278.6,23z M236.1,16.2c2.8,0,5.6-0.6,8.4-1.5c1.9-0.6,4.3-1.2,5.3-3.1c0.3-0.3,0-0.9-0.3-0.9
	c-1.2-0.3-2.5-0.6-3.7-0.6c0,0.3,0.3,0.9,0.3,1.2c0.9-0.3,2.8-1.5,2.2-2.8c-0.6-1.5-1.9-2.2-3.4-1.9c-4.3,0.9-8.4,4.3-9.6,8.7
	C234.9,15.9,236.1,16.5,236.1,16.2c1.2-2.2,2.2-3.7,3.4-5.3c0.9-0.9,1.9-1.5,2.8-2.2c0.6-0.3,1.2-0.6,1.9-0.6
	c1.9,0.9,2.2,1.5,0.9,1.9c-0.6,0.3-0.3,1.2,0.3,1.2c1.2,0,2.2,0.3,3.1,0.6c0-0.3-0.3-0.6-0.3-0.9c-0.9,1.5-3.7,2.2-5.3,2.5
	c-2.5,0.6-5,1.2-7.4,1.5C235.5,14.9,235.5,16.2,236.1,16.2L236.1,16.2z M254.1,27.6c0.6,2.2,1.9,3.7,3.1,5.3
	c0.9,0.9,2.2,3.4,3.4,3.7c0.3,0,0.6-0.3,0.6-0.3c0.6-0.9,0.6-1.9,0.3-3.1c-0.3,0.3-0.6,0.3-1.2,0.6c1.2,0.6,3.1,1.9,4.6,1.5
	c1.2-0.3,2.2-1.2,1.5-2.5c-0.9-1.5-2.8-2.8-4.3-3.7c-2.8-1.9-5.9-3.1-9-3.7c-0.9-0.3-1.2,1.2-0.3,1.5c3.4,0.9,6.2,2.2,9.3,4
	c0.9,0.6,2.2,1.5,2.8,2.5c0.6,1.2-2.8-0.3-2.5,0c-0.6-0.3-1.2-0.6-1.5-0.9c-0.6-0.3-1.2,0-1.2,0.6c0,0.3,0.9,1.9,0.3,1.5
	c-0.6-0.6-1.2-1.5-1.9-2.2c-1.5-1.5-2.5-3.4-3.4-5.3C255,26.4,253.8,27,254.1,27.6L254.1,27.6z M216.9,24.8c2.2,2.2,4.3,4.6,6.5,7.1
	c0.6,0.9,1.9,2.8,3.1,3.1c0.9,0.3,1.5,0,1.5-0.9c0.6-1.5-1.2-3.1-1.9-4.3c-0.3,0.3-0.3,0.6-0.6,0.9c2.5,0,5.3,2.2,7.4,0.9
	c1.2-0.6,1.5-1.5,0.9-2.8c-0.9-1.9-3.4-2.5-5.3-3.4c-3.1-1.2-6.8-1.9-10.2-2.2c-0.6,0-0.9,1.2-0.3,1.2c4,0.6,7.7,1.2,11.5,2.8
	c0.6,0.3,1.2,0.6,1.9,1.2c1.9,1.2-1.5,1.5-2.5,1.5c-1.5-0.3-2.8-0.9-4-0.9c-0.6,0-0.9,0.6-0.6,0.9c0.3,0.6,0.9,1.5,1.2,2.2
	c0.6,1.2-0.9-0.9-1.2-0.9c-2.5-2.5-4.6-5.3-7.1-7.4C217.2,23.6,216.3,24.2,216.9,24.8L216.9,24.8z M202.7,13.7
	c1.9,0.6,5-0.9,6.5-1.5c2.5-0.9,5.3-2.2,7.1-4c0.3-0.3,0.3-0.9-0.3-1.2c-2.2-0.6-3.7,0.3-5.6,0.9c0.3,0.3,0.6,0.3,0.9,0.6
	c0-1.9,2.8-7.4-0.6-8.4c-2.2-0.6-4,3.1-4.3,4.6c0.6,0,0.9,0,1.5,0.3c0-1.2-1.2-3.1-2.5-1.5c-0.9,0.9-0.9,1.9-1.2,2.8
	c-0.3,2.2-1.2,4-1.9,6.2c-0.3,0.9,1.2,1.2,1.5,0.3c0.3-1.5,0.9-2.8,1.5-4.3c0.3-0.6,0.3-1.2,0.3-1.9c0-0.3,0-0.3,0-0.6
	c0-0.6,0.3-0.9,0.9-1.2c0,0.9,1.2,0.9,1.5,0.3s3.1-5.9,3.4-2.2c0,1.9-1.2,3.4-0.9,5.6c0,0.3,0.3,0.9,0.9,0.6
	c1.5-0.6,3.1-1.5,4.6-0.9c0-0.3-0.3-0.9-0.3-1.2c-1.5,1.5-3.7,2.5-5.6,3.1c-1.5,0.6-5,2.8-6.8,2.2C202.4,12.1,202.1,13.4,202.7,13.7
	L202.7,13.7z M137.7,26.1c-0.9,0.6-12.1-3.4-13.9-4c-5.6-1.2-11.5-1.9-17-2.8c-12.1-1.5-23.8-2.2-35.9-1.5
	C48.2,19,24.9,23.3,5.4,35.1c-0.9,0.6,0,1.9,0.6,1.2c39.3-21.1,88.9-21.7,131-9c0.3,0,0.6,0,0.6-0.3S138,26.7,137.7,26.1
	C138.9,26.4,138.3,25.5,137.7,26.1L137.7,26.1z M108.6,19.3c-5.3-2.8-9.9-5.9-14.6-9.9c-0.6-0.6-1.5,0.3-0.9,0.9
	c4,4.3,9.3,7.1,14.6,10.2C108.6,20.8,109.2,19.9,108.6,19.3L108.6,19.3z M99,18.6c-8.4,0.6-16.1,4.6-23.8,7.4
	c-0.6,0.3-0.3,1.5,0.3,1.2c8.1-2.5,15.2-6.5,23.5-7.4C99.6,19.9,99.6,18.3,99,18.6L99,18.6z M72.3,17.7c-4.3-1.2-8.4-3.1-12.1-5.9
	c-0.6-0.3-1.2,0.6-0.9,0.9C63,15.6,67.4,18,72,19C72.6,19,72.9,18,72.3,17.7L72.3,17.7z M61.8,18.6c-8.1,1.2-16.1,6.5-22.3,11.8
	c-0.6,0.6,0.3,1.5,0.9,0.9c6.5-5,13.9-9.6,21.7-11.5C63,19.6,62.7,18.6,61.8,18.6L61.8,18.6z M34.9,23.6C28,24.2,21.5,22.4,15.7,19
	c-0.6-0.3-1.2,0.6-0.6,1.2c5.6,3.7,13.3,5.9,19.8,4.6C35.8,24.5,35.5,23.3,34.9,23.6L34.9,23.6z M18.1,29.5c-0.9,2.2-3.7,4-5.3,5.6
	c-2.2,2.2-4.3,4.3-7.4,5.9c0.3,0,0.6,0.3,1.2,0.3c0-1.2,0.3-2.5,1.2-3.4c0.3-0.6,0-1.2-0.6-1.2c-1.2,0-2.5,0-3.7,0
	c-1.9,0-1.9-1.5-0.6-2.5c0.9-0.6,1.9-0.9,2.8-1.2c4-1.5,8.7-1.2,12.7-2.8C19.4,30.4,19.1,29.2,18.1,29.5c-4,0.9-8.1,1.2-12.1,2.2
	c-1.9,0.6-4.6,1.5-5.6,3.1c-2.5,4,5.3,3.4,7.1,3.4c-0.3-0.3-0.3-0.9-0.6-1.2c-1.5,1.9-2.5,2.8-1.9,5c0,0.6,0.6,0.6,1.2,0.3
	c3.4-1.5,5.9-4.3,8.4-6.8c1.5-1.5,4.3-3.1,4.6-5.6C19.4,29.2,18.4,28.9,18.1,29.5L18.1,29.5z M22.8,22.4c-2.2-3.4-4.6-7.4-8.7-8.7
	c-0.6-0.3-0.9,0.3-0.9,0.9c0,0.3,0.3,0.9,0.3,1.2c0.3-0.3,0.3-0.6,0.6-0.9c-2.5,0-4.6-1.5-7.1-0.3c-1.5,0.6-1.5,2.2-0.6,3.1
	C7,18.3,8.2,18.6,8.8,19c1.5,0.6,2.8,1.2,4,2.2c2.5,1.5,4.6,2.2,7.4,1.9c0.9,0,0.9-1.5,0-1.2c-4,0.3-6.5-1.5-9.9-3.4
	C10.1,18,9.5,18,9.2,17.7c-0.3,0-0.6-0.3-0.9-0.3c-1.2-0.3-0.9-0.9,0.9-1.9c1.5,0,3.4,0.6,5,0.9c0.3,0,0.9-0.3,0.6-0.9
	c0-0.3-0.3-0.9-0.3-1.2c-0.3,0.3-0.6,0.6-0.9,0.9c3.7,0.9,6.2,5,8.1,7.7C22.2,23.6,23.1,23,22.8,22.4L22.8,22.4z M64,14.9
	c-2.2,0-4.6-0.6-6.8-1.2c-1.5-0.3-5-1.2-5.9-2.8c0,0.3-0.3,0.6-0.3,0.9c0.9-0.3,2.2-0.6,3.1-0.6c0.6,0,0.9-0.9,0.3-1.2
	c-1.5-0.9,0.3-1.9,1.5-1.5c1.2,0.3,2.5,1.2,3.4,1.9c1.9,1.5,2.8,3.7,3.7,5.6c0.3,0.6,1.5,0.3,1.2-0.6C63,10.9,59,7.2,54.7,6.6
	c-1.2-0.3-2.8,0.3-3.4,1.2c-0.6,1.5,0.9,2.8,2.2,3.4c0-0.3,0.3-0.9,0.3-1.2c-1.2,0-2.5,0.3-3.7,0.6c-0.6,0.3-0.6,0.6-0.3,0.9
	c0.9,1.5,3.1,2.2,4.6,2.8c2.8,0.9,5.9,1.5,9,1.5C64.6,16.2,64.6,14.9,64,14.9L64,14.9z M44.8,27c-0.9,1.9-1.9,3.4-3.1,4.6
	c-0.6,0.6-1.2,1.5-1.9,2.2c-1.2,1.5,0,0,0-0.9c0-0.6-0.6-0.9-1.2-0.6c-0.9,0.6-1.9,0.9-3.1,1.2c-2.5,0.6,0.6-2.2,0.9-2.2
	c3.1-2.2,6.5-3.7,9.9-4.6c0.9-0.3,0.6-1.9-0.3-1.5c-4.3,1.2-10.2,3.4-13,7.4c-0.6,0.9,0,2.5,0.9,2.8c1.9,0.3,3.7-0.6,5.3-1.5
	c-0.3-0.3-0.6-0.3-1.2-0.6c0,1.2,0,2.2,0.3,3.1c0,0.3,0.3,0.3,0.6,0.3c1.5-0.3,2.5-2.8,3.4-3.7c1.2-1.5,2.5-3.4,3.1-5.3
	C46.3,27,45.1,26.4,44.8,27L44.8,27z M82.2,23.9c-2.5,2.2-4.3,4.3-6.5,6.8c-0.6,0.9-1.2,1.5-1.9,2.5c0-0.3,0-0.9,0.3-1.2
	c0.3-0.6,0.6-0.9,0.9-1.5c0.3-0.3,0-0.9-0.6-0.9c-1.2,0-2.2,0.3-3.4,0.6c0,0-5,0.9-3.7-0.9c0.6-0.6,1.2-0.9,1.9-1.2
	c3.7-2.2,8.1-2.5,12.1-3.1c0.6,0,0.6-1.5-0.3-1.2c-3.4,0.3-6.8,0.9-10.2,2.2c-1.5,0.6-4.3,1.5-5.3,3.4c-0.6,1.2-0.3,2.2,0.9,2.8
	c2.5,1.2,5.3-0.9,7.4-0.9c-0.3-0.3-0.3-0.6-0.6-0.9c-0.9,1.5-1.9,2.5-1.9,4.3c0,0.6,0.6,1.5,1.2,1.2c1.2-0.3,1.9-1.5,2.5-2.5
	c1.9-2.8,4.6-5.6,7.1-8.1C83.8,24.2,82.9,23.6,82.2,23.9L82.2,23.9z M97.1,12.5c-1.5,0.6-4.6-1.2-6.2-1.9c-2.2-0.9-4.6-1.9-6.2-3.4
	c0,0.3-0.3,0.9-0.3,1.2c1.9-0.6,3.1,0.3,4.6,0.9C89.4,9.4,90,9,90,8.7C90,7.2,89.7,6,89,4.4c-0.6-1.2,0-1.9,1.2-2.5
	c0.3,0.3,0.6,0.6,0.9,1.2c0.3,0.6,0.9,1.5,0.9,2.2C92.5,6.3,93.4,6,93.7,5c0.6,0.3,0.9,0.6,0.9,1.2s0.3,0.9,0.3,1.5
	c0.3,1.9,0.9,3.4,1.5,5.3c0.3,0.9,1.9,0.6,1.5-0.3c-0.6-1.9-1.2-3.7-1.9-5.6c-0.3-0.9-0.3-2.5-0.9-3.1c-1.5-1.5-2.8-0.6-2.8,1.2
	c0.6,0,0.9,0,1.5-0.3c-0.6-1.5-2.2-5.3-4.3-4.6C86.3,1.3,89,6.9,89,8.7c0.3-0.3,0.6-0.3,0.9-0.6c-1.9-0.6-3.4-1.5-5.6-0.9
	c-0.6,0-0.6,0.9-0.3,1.2c1.9,1.9,4.6,2.8,7.1,4c1.9,0.6,4.6,2.5,6.8,1.5C98,13.4,97.7,12.1,97.1,12.5L97.1,12.5z"/>
</svg>
