<?xml version="1.0" encoding="utf-8"?>
<!-- Generator: Adobe Illustrator 23.0.3, SVG Export Plug-In . SVG Version: 6.00 Build 0)  -->
<svg version="1.1" id="Layer_1" xmlns="http://www.w3.org/2000/svg" xmlns:xlink="http://www.w3.org/1999/xlink" x="0px" y="0px"
	 viewBox="0 0 300 36.4" style="enable-background:new 0 0 300 36.4;" xml:space="preserve">
<style type="text/css">
	.st0{fill:#3E50B4;}
</style>
<path class="st0" d="M114.2,9.5c2,3,5.9,5.2,8.9,6.9c2,1.3,6.2,3.6,8.2,0.7c3-4.6-14.1-7.9-16.4-8.5c-1-0.3-1,1.3-0.3,1.3
	c2.3,0.3,4.9,1,7.2,1.6c2.6,0.7,6.6,1.6,8.2,3.9c1.3,2-3,1.3-3.3,1c-1.6-0.7-3.3-1.6-4.9-2.3c-2.3-1.3-4.9-3-6.6-5.2
	C114.9,8.5,113.9,8.9,114.2,9.5L114.2,9.5z M110.6,13.1c-3-0.7-19.4,0-17.7,5.6c1.6,5.2,15.1-3,17.7-4.6c0.7-0.3,0-1.6-0.7-1
	c-2,1.3-3.9,2.3-5.9,3.3c-2.6,1.3-6.6,3.3-9.5,2.6c-2.6-0.7,2-3,2.3-3.3c1.3-0.7,3-1,4.3-1c2.6-0.7,6.2-1,8.9-0.3
	C111,14.4,111.3,13.5,110.6,13.1L110.6,13.1z M99.1,8.9c-2-2.6-14.8-12.5-17.1-7.2c-2,4.9,13.8,7.5,16.4,7.9c1,0.3,1-1.3,0.3-1.3
	c-2.3-0.3-4.6-1-6.6-1.3c-3-0.7-6.2-1.6-8.5-3.6c-2-1.6,1.6-2,2.6-1.6C88,2,90,3,91.3,3.9c2.3,1.3,5.2,3,6.9,5.2
	C98.8,10.2,99.8,9.5,99.1,8.9L99.1,8.9z M81.8,10.2c-3,0-19,4.3-16.1,9.2c2.6,4.9,14.1-6.2,16.4-8.2c0.7-0.7-0.3-1.6-1-1
	c-1.6,1.6-3.6,3.3-5.6,4.6c-2.3,1.6-5.2,4.3-8.2,4.3c-2.6,0,0.7-3,1.3-3.6c1.3-1,3.3-1.6,4.9-2.3c2.3-1,5.6-2.3,8.2-2
	C82.4,11.2,82.4,10.2,81.8,10.2L81.8,10.2z M59.4,11.2c-2.6-2.3-17.4-8.9-18.4-3c-1,5.2,15.1,3.9,18,3.9c1,0,1-1.3,0-1.3
	c-4.6,0.7-11.8,0.7-16.1-1.3c-2.6-1.3,1.3-2.3,2.3-2.3c1.6,0,3.6,0.7,5.2,1c2.6,0.7,5.9,2,7.9,3.6C59.4,12.5,60.1,11.8,59.4,11.2
	L59.4,11.2z M43.4,16.4c-3.3,0.7-6.6,3.6-9.2,5.9c-2,1.6-5.6,4.9-3.6,7.5c3.3,4.3,12.1-10.5,13.5-12.5
	C44.3,16.7,43.4,16.1,43.4,16.4c-1.3,2.6-3,4.6-4.3,6.6s-3.9,6.2-6.6,6.2c-1.6,0-0.3-2.6,0-3.3c1-1.3,2.3-2.6,3.6-3.6
	c2.3-2,4.9-4.3,7.9-4.9C44.3,17.4,44,16.1,43.4,16.4L43.4,16.4z M28.6,21c-2.3-2.3-16.7-10.2-18-3.9C9.2,22,25.6,22,28.3,22.3
	C29.3,22.3,29.3,21,28.6,21c-5.2,0.3-12.1,0-16.1-2.6c-2.6-1.6,2-2,3-2c1.6,0.3,3,1,4.6,1.3c2.6,1,5.6,2.3,7.9,4.3
	C28.3,22.3,29.3,21.7,28.6,21L28.6,21z M115.5,18.4c2,0,2,3,0,3C113.6,21.7,113.6,18.7,115.5,18.4c1,0,1-1.3,0-1.3c-1.6,0-3,1.3-3,3
	c0,1.6,1.3,3,3,3s3-1.3,3-3c0-1.6-1.3-3-3-3C114.6,17.1,114.6,18.4,115.5,18.4z M104.4,1.3c2,0,2,3,0,3
	C102.4,4.6,102.4,1.6,104.4,1.3c1,0,1-1.3,0-1.3c-1.6,0-3,1.3-3,3s1.3,3,3,3c1.6,0,3-1.3,3-3s-1.3-3-3-3
	C103.4,0,103.4,1.3,104.4,1.3z M88.3,12.8c2,0,2,3,0,3C86.3,16.1,86.3,13.1,88.3,12.8c1,0,1-1.3,0-1.3c-1.6,0-3,1.3-3,3s1.3,3,3,3
	s3-1.3,3-3s-1.3-3-3-3C87.7,11.5,87.7,12.8,88.3,12.8z M69.3,1.3c2,0,2,3,0,3C67.3,4.6,67.3,1.6,69.3,1.3c1,0,1-1.3,0-1.3
	c-1.6,0-3,1.3-3,3s1.3,3,3,3s3-1.3,3-3s-1.3-3-3-3C68.6,0,68.6,1.3,69.3,1.3z M56.8,18.4c2,0,2,3,0,3C54.8,21.7,54.8,18.4,56.8,18.4
	c1,0,1-1.3,0-1.3c-1.6,0-3,1.3-3,3c0,1.6,1.3,3,3,3c1.6,0,3-1.3,3-3c0-1.6-1.3-3-3-3C56.2,16.7,56.2,18.4,56.8,18.4z M30.6,12.8
	c2,0,2,3,0,3C28.6,16.1,28.6,13.1,30.6,12.8c1,0,1-1.3,0-1.3c-1.6,0-3,1.3-3,3s1.3,3,3,3c1.6,0,3-1.3,3-3s-1.3-3-3-3
	C29.9,11.5,29.9,12.8,30.6,12.8z M15.1,26.6c-3.3-0.7-6.2-1-8.9,1c-2.6,1.6-4.9,4.3-6.2,7.2c-0.3,0.7,1,1.3,1.3,0.7
	c1-2.3,2.3-3.9,4.3-5.6c3-2.3,5.9-2.3,9.2-2C15.5,27.9,15.8,26.9,15.1,26.6L15.1,26.6z M0.7,35.8c5.6,1.6,11.2-4.6,14.4-8.2
	c0.7-0.7-0.3-1.6-1-1c-3.3,3.3-7.9,9.5-13.5,7.9C0.4,34.5,0.1,35.4,0.7,35.8L0.7,35.8z M184.8,8.9c-1.6,2.3-4.3,3.9-6.6,5.2
	c-1.3,1-3,1.6-4.3,2.3c-0.7,0.3-4.9,1.3-3.9-1c1-2.3,5.9-3.3,8.2-3.9s4.9-1.3,7.2-1.6c1,0,0.7-1.6-0.3-1.3
	c-2.6,0.7-18.4,3.6-16.4,8.2c2.6,5.6,15.1-4.6,17.1-7.2C186.1,8.9,185.1,8.5,184.8,8.9L184.8,8.9z M189.4,14.4
	c2.6-0.7,5.6,0,8.2,0.3c1.6,0.3,3,0.7,4.6,1c0.7,0.3,5.6,2.3,3,3.3c-2.3,1-6.9-1.6-8.9-2.3c-2.3-1-4.6-2-6.6-3.6
	C189,12.8,188.4,13.8,189.4,14.4c2.3,1,15.7,9.5,17.4,4.3c1.6-5.6-14.8-6.6-17.7-5.6C188.4,13.5,188.7,14.4,189.4,14.4L189.4,14.4z
	 M201.5,9.5c1.6-2,4.3-3.6,6.6-4.9c1.3-1,3-1.6,4.6-2.3c0.7-0.3,4.9-1.3,3.9,1c-1,2.3-5.9,3.3-8.2,3.9s-4.9,1.3-7.2,1.6
	c-1,0-0.7,1.6,0.3,1.3c3-0.7,18.7-3,16.4-7.9c-2.3-5.6-15.4,4.6-17.1,7.2C200.2,9.5,201.2,10.2,201.5,9.5L201.5,9.5z M218.2,11.2
	c2.6,0,5.2,1,7.5,2c1,0.3,9.8,3.9,7.2,5.9c-2,1.3-6.9-3-8.2-3.9c-2-1.6-4.3-3.3-5.9-4.9c-0.7-0.7-1.6,0.3-1,1
	c2,1.6,13.8,12.8,16.4,8.5c3-5.2-12.5-9.5-15.7-9.5C217.3,10.2,217.3,11.2,218.2,11.2L218.2,11.2z M241.2,12.1
	c2.3-2,5.2-2.6,7.9-3.6c1.6-0.7,3.3-1,5.2-1c1.3,0,4.6,0.7,2.3,2.3c-2.3,1.6-6.2,1.3-9.2,1.6c-2.3,0-4.6,0.3-6.9,0c-1,0-1,1.3,0,1.3
	c2.6,0,18.7,1.3,18-3.9c-1-6.2-15.7,0.7-18.4,3C239.6,11.8,240.6,12.5,241.2,12.1L241.2,12.1z M256.3,17.4
	c2.3,0.7,15.1,9.5,11.8,11.8c-1.6,1.3-5.9-4.9-6.9-5.9c-1.6-2-3.3-4.3-4.3-6.9c-0.3-0.7-1.6,0-1,0.7c1.3,2.3,9.5,16.4,13.1,12.8
	c4.3-4.3-9.2-12.8-12.5-13.8C255.7,16.1,255.7,17.4,256.3,17.4L256.3,17.4z M272.1,22c2-2,5.2-3.3,7.9-4.3c1.6-0.7,3-1,4.6-1.3
	c1-0.3,5.6,0,3,2c-2.3,1.6-6.2,2-8.9,2.3c-2.3,0.3-4.6,0.3-6.9,0.3C270.7,21,270.7,22.3,272.1,22c2.3,0.3,18.4,0.3,17.4-4.9
	c-1.3-5.9-15.7,1.6-18,3.9C270.7,21.7,271.4,22.3,272.1,22L272.1,22z M184.5,17.1c-1.6,0-3,1.3-3,3c0,1.6,1.3,3,3,3c1.6,0,3-1.3,3-3
	C187.4,18.4,185.8,17.1,184.5,17.1c-1,0-1,1.3,0,1.3c2,0,2,3,0,3c-2,0-2-3,0-3C185.1,18.4,185.1,17.1,184.5,17.1z M195.6,0
	c-1.6,0-3,1.3-3,3s1.3,3,3,3s3-1.3,3-3S197.2,0,195.6,0c-1,0-1,1.3,0,1.3c2,0,2,3,0,3s-2-3,0-3C196.6,1.3,196.6,0,195.6,0z
	 M211.4,11.5c-1.6,0-3,1.3-3,3s1.3,3,3,3s3-1.3,3-3C214.6,12.8,213,11.5,211.4,11.5c-1,0-1,1.3,0,1.3c2,0,2,3,0,3s-2-3,0-3
	C212.3,12.8,212.3,11.5,211.4,11.5z M230.4,0c-1.6,0-3,1.3-3,3s1.3,3,3,3c1.6,0,3-1.3,3-3C233.7,1.3,232,0,230.4,0c-1,0-1,1.3,0,1.3
	c2,0,2,3,0,3s-2-3,0-3C231.4,1.3,231.4,0,230.4,0z M242.9,17.1c-1.6,0-3,1.3-3,3c0,1.6,1.3,3,3,3s3-1.3,3-3
	C246.1,18,244.5,17.1,242.9,17.1c-1,0-1,1.3,0,1.3c2,0,2,3,0,3s-2-3,0-3C243.8,18.4,243.8,16.7,242.9,17.1z M269.1,11.5
	c-1.6,0-3,1.3-3,3s1.3,3,3,3s3-1.3,3-3C272.4,12.8,270.7,11.5,269.1,11.5c-1,0-1,1.3,0,1.3c2,0,2,3,0,3c-2,0-2-3,0-3
	C270.1,12.8,270.1,11.5,269.1,11.5z M285.2,27.9c3-0.3,5.2-0.7,7.9,1c2.6,1.6,4.3,3.9,5.6,6.6c0.3,0.7,1.6,0.3,1.3-0.7
	c-1.3-3-3.3-5.6-6.2-7.2c-2.6-2-5.9-1.6-8.9-1C284.2,26.9,284.5,27.9,285.2,27.9L285.2,27.9z M299,34.8c-5.2,1.3-10.2-4.6-13.5-7.9
	c-0.7-0.7-1.3,0.3-1,1c3.3,3.6,8.9,9.8,14.4,8.2C299.9,35.4,299.6,34.5,299,34.8L299,34.8z M151,27.2c-4.6-2.3-7.9-5.6-10.5-9.8
	c-1.6-2.6-2.6-10.2,3-7.5c2.6,1.3,3.6,4.6,5.2,6.6c0.7,1,2,0,1.3-1c-2-3.3-3.9-6.9-7.9-8.2c-2.3-0.7-4.6,1-4.9,3.3
	c-0.7,6.9,6.6,15.4,13.1,17.1C151.3,28.5,151.6,27.6,151,27.2L151,27.2z M150.7,16.7c0.3-3.3,2.6-5.2,5.6-6.6
	c1.6-0.7,3.9-1.3,4.9,0.7c1,1.3,0,3.3-0.7,4.6c-2.3,4.6-6.6,8.9-10.8,11.5c-1,0.7,0,2,1,1.6c3.3-2.3,6.2-5.2,8.5-8.2
	c2-2.6,4.6-5.9,3.6-9.5c-2-6.9-16.1,1-13.1,6.6C150,17.7,150.7,17.4,150.7,16.7L150.7,16.7z"/>
</svg>
