<?xml version="1.0" encoding="utf-8"?>
<!-- Generator: Adobe Illustrator 23.0.3, SVG Export Plug-In . SVG Version: 6.00 Build 0)  -->
<svg version="1.1" id="Layer_1" xmlns="http://www.w3.org/2000/svg" xmlns:xlink="http://www.w3.org/1999/xlink" x="0px" y="0px"
	 viewBox="0 0 300 18.3" style="enable-background:new 0 0 300 18.3;" xml:space="preserve">
<style type="text/css">
	.st0{fill:#002B6E;}
</style>
<path class="st0" d="M157.6,9.1c0,0-2.7,0-5.4,2.4s-2.4,6.8-2.4,6.8l0,0c0,0,0.3-4.4-2.4-6.8s-5.4-2.4-5.4-2.4l0,0
	c0,0,2.7,0,5.4-2.4s2.4-6.8,2.4-6.8l0,0c0,0-0.3,4.4,2.4,6.8S157.6,9.1,157.6,9.1L157.6,9.1z M153.9,9.1c0,0-1.4,0-2.7,1
	c-1.4,1-1.4,3.4-1.4,3.4l0,0c0,0,0.3-2.4-1.4-3.4c-1.4-1-2.7-1-2.7-1l0,0c0,0,1.4,0,2.7-1c1.4-1,1.4-3.4,1.4-3.4l0,0
	c0,0-0.3,2.4,1.4,3.4C152.5,9.1,153.9,9.1,153.9,9.1L153.9,9.1z M164,12.2c2.7-0.3,3.4-1.4,6.8-1.7c2.4-0.3,3,0,5.4,0
	c1.7,0,3.7,0.3,5.7,0.7c5.1,0.7,7.1,0.7,8.1-0.3c1.4-1,1.4-1.4,1.4-1.4h-32.8l0,0C158.6,9.1,159.6,12.9,164,12.2z M164,6.1
	c2.7,0.3,3.4,1.4,6.8,1.7c2.4,0.3,3,0,5.4,0c1.7,0,3.7-0.3,5.7-0.7c5.1-0.7,7.1-0.7,8.1,0.3c1.4,1,1.4,1.4,1.4,1.4h-32.8l0,0
	C158.6,9.1,159.6,5.7,164,6.1z M193.5,9.1c0,1,1,2,2,2s2-1,2-2s-1-2-2-2C194.1,7.4,193.5,8.1,193.5,9.1z M199.2,9.5
	c0,0.3,3,0.7,6.8,0.7s6.8-0.3,6.8-0.7c0-0.3-3-0.7-6.8-0.7S199.2,9.1,199.2,9.5z M214.4,9.5c0,0,1,0,2,1c1,1,1,2.7,1,2.7l0,0
	c0,0,0-1.7,1-2.7c1-0.7,2-1,2-1l0,0c0,0-1,0-2-0.7c-1-1-1-2.7-1-2.7l0,0c0,0,0,1.7-1,2.7C215.4,9.5,214.4,9.5,214.4,9.5L214.4,9.5z
	 M221.9,9.1h32.5v0.7h-32.5V9.1z M253.7,9.5c0,1,1,2,2,2c1,0,2-1,2-2s-1-2-2-2C254.3,7.4,253.7,8.5,253.7,9.5z M258.7,12.2
	L258.7,12.2c0.3,0-2-1.4,12.9-2C286.1,9.5,300,9.5,300,9.5l0,0c0,0-13.9,0-28.4-0.7c-14.9-0.7-12.9-2-12.9-2h-0.3L258.7,12.2
	L258.7,12.2z M136,12.2c-2.7-0.3-3.4-1.4-6.8-1.7c-2.4-0.3-3,0-5.4,0c-1.7,0-3.7,0.3-5.7,0.7c-5.1,0.7-7.1,0.7-8.1-0.3
	c-1.4-1-1.4-1.4-1.4-1.4H141l0,0C141,9.1,140.4,12.9,136,12.2z M136,6.1c-2.7,0.3-3.4,1.4-6.8,1.7c-2.4,0.3-3,0-5.4,0
	c-1.7,0-3.7-0.3-5.7-0.7c-5.1-0.7-7.1-0.7-8.1,0.3c-1.4,1-1.4,1.4-1.4,1.4H141l0,0C141,9.1,140.4,5.7,136,6.1z M104.8,7.1
	c1,0,2,1,2,2s-1,2-2,2c-1,0-2-1-2-2S103.8,7.1,104.8,7.1z M100.8,9.5c0,0.3-3,0.7-6.8,0.7s-6.8-0.3-6.8-0.7c0-0.3,3-0.7,6.8-0.7
	C97.4,8.8,100.8,9.1,100.8,9.5z M85.6,9.5c0,0-1,0-2,1c-1,1-1,2.7-1,2.7l0,0c0,0,0-1.7-1-2.7c-1-0.7-2-1-2-1l0,0c0,0,1,0,2-0.7
	c1-1,1-2.7,1-2.7l0,0c0,0,0,1.7,1,2.7C84.6,9.5,85.6,9.5,85.6,9.5L85.6,9.5z M45.7,9.1h32.5v0.7H45.7V9.1z M46.3,9.5c0,1-1,2-2,2
	s-2-1-2-2s1-2,2-2C45.7,7.4,46.3,8.5,46.3,9.5z M41.3,12.2L41.3,12.2c-0.3,0,2-1.4-12.9-2C13.9,9.5,0,9.5,0,9.5l0,0
	c0,0,13.9,0,28.4-0.7c14.9-0.7,12.9-2,12.9-2h0.3v5.4H41.3z"/>
</svg>
