<?xml version="1.0" encoding="utf-8"?>
<!-- Generator: Adobe Illustrator 22.1.0, SVG Export Plug-In . SVG Version: 6.00 Build 0)  -->
<svg version="1.1" id="Layer_1" xmlns="http://www.w3.org/2000/svg" xmlns:xlink="http://www.w3.org/1999/xlink" x="0px" y="0px"
	 viewBox="0 0 435.7 20" style="enable-background:new 0 0 435.7 20;" xml:space="preserve">
<style type="text/css">
	.st0{fill:#4BAE4F;}
</style>
<path class="st0" d="M413.5,18.9c0,0.1,0.1,0.3,0.1,0.4s-0.1,0.2-0.2,0.4c-0.1-0.2-0.2-0.3-0.2-0.3C413.3,19.1,413.4,19,413.5,18.9z
	 M410.9,19.3c0.1,0,0.1,0.1,0.2,0.1s0.2-0.1,0.3-0.1c-0.1,0-0.1-0.1-0.2-0.1C411,19.2,410.9,19.3,410.9,19.3z M357.5,16.7
	c0.1,0.1,0.1,0.2,0.2,0.2s0.2,0,0.4-0.1c-0.2-0.1-0.3-0.1-0.3-0.1C357.7,16.7,357.6,16.7,357.5,16.7z M414.6,14.8
	c-0.2-0.1-0.4-0.2-0.5-0.3c0,0,0.1-0.2,0.1-0.3c-0.2,0.1-0.4,0.2-0.6,0.3c0.1,0.1,0.8,1,0.8,1c0.1,0,0.1,0,0.2,0
	C414.8,15.3,414.8,15,414.6,14.8z M414.6,19.7l0.1,0.1c0.1,0,0.2,0,0.3-0.1c-0.1-0.1-0.1-0.2-0.1-0.2
	C414.8,19.7,414.7,19.7,414.6,19.7z M414.7,16.6c0-0.1,0.1-0.1,0.2-0.2c-0.1-0.1-0.1-0.1-0.2-0.2c0,0.1-0.1,0.1-0.1,0.2
	S414.7,16.5,414.7,16.6z M413.4,16.9c0.1,0.1,0.4-0.1,0.5-0.3c0.2-0.2,0.5-0.4,0.1-0.7c-0.1,0-0.1-0.2,0-0.3s0.3-0.3-0.1-0.3
	c-0.2,0-0.3-0.3-0.5-0.4c-0.1-0.1-0.1-0.1-0.2-0.2c0,0.1-0.1,0.2-0.1,0.3c0.1,0.3,0.2,0.7,0.3,1c0,0.1,0,0.2,0,0.3
	C413.4,16.5,413.1,16.7,413.4,16.9z M415.9,16.3c0.2-0.3,0-0.4-0.3-0.4c0-0.1,0.1-0.3,0.1-0.4c0-0.1-0.1-0.2-0.1-0.3
	c-0.3,0.3-0.5,0.6-0.8,0.9c0.1,0,0.2,0.1,0.2,0.1c0.1,0,0.2,0.1,0.3,0.1C415.5,16.3,415.9,16.4,415.9,16.3z M168.3,2.3
	c-0.1,0-0.1-0.1-0.2-0.1c-0.1,0-0.2,0.1-0.3,0.1c0.1,0.1,0.1,0.1,0.2,0.2C168.2,2.4,168.2,2.4,168.3,2.3z M418.7,10.6
	c-0.1-0.1-0.1-0.2-0.1-0.2c-0.1,0-0.2,0.1-0.3,0.1l0.1,0.1C418.4,10.7,418.5,10.6,418.7,10.6z M435.4,12.1c-0.1,0-0.2-0.1-0.3-0.1
	c-0.1,0-0.2,0.1-0.3,0.2c0.1,0,0.2,0.1,0.4,0.1C435.2,12.2,435.3,12.1,435.4,12.1z M411.1,11.3c0.2,0,0.4,0.1,0.4-0.2
	c0-0.4-0.3-0.3-0.5-0.3C411.1,11,411.1,11.2,411.1,11.3z M417.9,11.3c0.1-0.1,0.3-0.2,0.3-0.3c-0.1-0.2-0.2-0.4-0.3-0.5
	c-0.1,0.1-0.1,0.2-0.1,0.2c0,0.3,0,0.4,0,0.5S417.9,11.4,417.9,11.3z M190.5,2.2c-0.1,0-0.1-0.1-0.2-0.1c-0.1,0-0.2,0.1-0.3,0.1
	c0.1,0.1,0.1,0.1,0.2,0.2C190.3,2.3,190.4,2.2,190.5,2.2z M305,2.6c0.1,0,0.2-0.1,0.3-0.1c-0.1,0-0.1-0.1-0.2-0.1s-0.1,0.1-0.2,0.2
	C305,2.6,305,2.6,305,2.6z M406.1,9.9c0-0.1-0.1-0.2-0.2-0.3c-0.1,0.1-0.2,0.1-0.3,0.2c0,0.1,0.1,0.2,0.2,0.3
	C406,10,406.1,9.9,406.1,9.9z M408,10c0-0.1,0-0.2-0.1-0.3c-0.1,0-0.1,0-0.1,0c0,0.1,0,0.2,0.1,0.5C407.9,10.1,408,10,408,10z
	 M112,2L112,2C111.9,2,111.9,2,112,2L112,2C112.1,2.1,112.1,2.1,112,2z M173.4,2.3L173.4,2.3c0-0.1,0-0.1-0.1-0.1h-0.2
	c0,0,0,0,0,0.1C173.2,2.3,173.3,2.3,173.4,2.3z M422,12.8c0,0.1-0.7,0.5-0.9,0.4c-0.4-0.2-0.6,0-0.9,0.2c-0.2,0.2-0.2,0-0.2-0.1
	c0-0.4-0.1-0.5-0.5-0.4c-0.2,0-0.4,0-0.5-0.1c-0.2-0.1-0.4-0.1-0.5,0.1c-0.1,0.4-0.5,0-0.6,0.3s-0.1,0.6-0.2,0.8
	c0,0.1-0.1,0.2-0.1,0.3c-0.1-0.1-0.1-0.3-0.2-0.3c-0.1-0.1-0.3-0.2-0.4-0.2l0.1-0.1c0.5,0,0.3-0.3,0.3-0.6c0-0.4-0.1-0.3-0.4-0.2
	c-0.1,0-0.3-0.2-0.5-0.3c-0.1,0.4-0.4-0.3-0.6,0.1c-0.1,0.3-0.4-0.1-0.5-0.1c-0.2,0-0.4,0.1-0.6,0.2c-0.3,0.1-0.6,0.3-0.9,0.4
	c-0.3,0.1-0.5,0.2-0.7,0c-0.3-0.2-0.4-0.1-0.4,0.2c0,0.1-0.1,0.3-0.1,0.4c0-0.1-0.1-0.2-0.1-0.3v-0.1c-0.1-0.4-0.1-0.5-0.2-0.4
	c-0.1,0.2-0.7,0-0.4,0.6c0.2,0.3,0.1,0.7-0.1,0.9c-0.3,0.3-0.4,0.6-0.3,1.2l0,0c0.2,0,0.4,0.1,0.6,0.3c0,0,0,0.2-0.1,0.2
	c-0.2,0-0.6-0.1-0.5,0.4c-0.4,0.2-0.7,0.3-1,0c-0.2-0.2-0.4-0.3-0.6-0.2c-0.1,0-0.1,0.1-0.2,0.1c0,0.1,0.1,0.1,0.1,0.2
	c0.2,0.2,0.7,0.2,0.6,0.8c0,0.2,0.2,0.1,0.2-0.1v-0.1c0.3-0.4,0.5,0.3,0.8,0.1c0.2-0.2,0.3-0.6,0.5-0.7s0.6-0.1,0.9-0.1
	c0,0.1-0.1,0.3-0.1,0.3c0.2,0.2,0.4,0.4,0.6,0.5c0.1,0.1,0.3,0.1,0.4,0.2c0.3,0.2,0.5,0.7,0.4,0.8c-0.3,0.1-0.5-0.2-0.6-0.4
	c-0.1-0.3-0.3-0.2-0.4-0.3c-0.1,0-0.2-0.1-0.3-0.1c0,0.1,0,0.2,0,0.3c0,0.1,0.2,0.2,0.2,0.2c-0.2,0.2-0.3,0.4-0.5,0.6s0.4,0.3,0,0.5
	c-0.1,0.1-0.1,0.3-0.3,0c-0.3-0.4,0-0.7,0.2-1c0.1-0.1,0-0.2,0.1-0.2c-0.1,0-0.2,0-0.2,0c-0.2,0.1-0.3,0.3-0.5,0.2
	c-0.3-0.1,0.1-0.3,0-0.4s-0.2-0.1-0.3,0c-0.1,0.1-0.3,0.3-0.3,0.3c0.3,0.7-0.6,0.7-0.7,1.2c-0.1,0-0.2,0-0.2,0
	c0-0.5-0.1-0.9-0.1-1.4c-0.1-0.8-0.3,0.1-0.5-0.1c0-0.3-0.3-0.2-0.6-0.2c0,0,0.1,0,0.2,0c-0.1-0.1-0.2-0.3-0.3-0.4
	c-0.1,0.1-0.2,0.1-0.1,0.2c0,0.1,0.1,0.2,0.3,0.2c0.2,0.3,0.5,0.2,0.6,0.2c-0.5,0.4-0.5,0.4-1.1,0.3c-0.1,0-0.3,0.1-0.4,0.1
	c0.1,0.1,0.3,0.4,0.3,0.4c0.4-0.3,0.8,0.6,1.1,0c0.1,0.1,0.2,0.1,0.2,0.2c0,0.2-0.1,0.5-0.2,0.7c0,0.1-0.2,0.2-0.3,0.2
	c-0.2,0.1-0.4,0-0.4-0.3c0-0.5-0.1-0.4-0.5-0.3c-0.4,0.2-0.9,0.6-1.5,0.2c-0.2-0.1-0.4,0.5-0.6,0c-0.6,0.1-1.3,0-1.7-0.2
	c0,0,0-0.1,0-0.2c0.2-0.3-0.2-0.5-0.2-0.7c-0.2,0.2-0.3,0.3-0.5,0.5c0,0,0,0.1,0,0.2c0.1,0.2,0.4,0.4,0,0.4c-0.1,0-0.3,0.1-0.4,0.1
	c-0.5-0.1-0.8,0.5-1.2,0.2c-0.4-0.2-0.8,0-1.2-0.1c-0.3-0.1-0.5-0.2-0.5-0.5c0,0-0.2-0.1-0.3-0.1c-0.1,0-0.2,0.2-0.2,0.2
	c0,0.4,0,0.7-0.5,0.3c-0.1,0-0.1-0.1-0.2-0.1c-0.2,0-0.5,0-0.7,0c-0.1,0-0.2-0.2-0.4-0.3c0.1,0.1,0.1,0.2,0.1,0.3
	c-0.1,0-0.2,0-0.2,0c-0.3-0.1-0.6-0.2-0.9,0.1c0,0-0.1,0-0.2,0c0-0.6-0.3-0.1-0.5-0.1h-0.1c-0.1-0.1-0.2-0.1-0.3-0.2l0.1-0.2
	c0.1-0.1,0.2-0.1,0.3-0.1v-0.2c0,0-0.1-0.1-0.2-0.1c-0.2,0.1-0.5,0.2-0.5,0.4c-0.1,0.5-0.3,0.2-0.4,0.1c-0.2-0.4-0.4,0.1-0.6-0.1
	c-0.1-0.2-0.2-0.4-0.4-0.5c0,0-0.3,0-0.3,0.1c-0.2,0.3-0.7-0.2-0.7,0.3c0,0.6-0.3,0.4-0.6,0.2c-0.1-0.1-0.3-0.2-0.5-0.2
	s-0.5,0-0.2,0.3c0.1,0,0,0.2,0,0.3c-0.1,0.1-0.2,0.1-0.3,0.1c-0.2-0.2-0.4-0.2-0.7,0c-0.2,0.2-0.5,0-0.9-0.5
	c-0.3-0.4-0.7-0.4-0.8,0.1c-0.1,0.5-0.3,0.1-0.4,0.2c-0.3,0.1-0.5,0.3-0.7,0.5c-0.5,0.3-0.5,0.3-0.9,0c-0.2-0.1-0.3-0.3-0.2-0.6l0,0
	c0.1,0,0.2-0.1,0.3-0.1c-0.1,0-0.1-0.1-0.3,0c0-0.1,0,0-0.1,0l0,0c-0.5,0.4-0.7,0.8-1.4,0.4c-0.3-0.2-0.9,0.1-1.4-0.1
	c-0.2,0.3-0.3,0.1-0.4,0c-0.2-0.2-0.4-0.2-0.7-0.1c-0.3,0.2-0.7,0-1.1,0c-0.4-0.6-0.7-0.1-1.1,0c-0.1,0-0.1,0.1-0.2,0.2
	c-0.3-0.4-0.5,0.2-0.7,0c-0.1-0.1-0.3-0.1-0.3-0.2c0.1-0.6-0.6-0.5-0.8-0.8c-0.2-0.2-0.1,0.1-0.2,0.2c-0.1,0.2-0.5,0.2-0.5,0.6
	c-0.2,0-0.4,0.1-0.5,0.1c-0.5-0.3-0.9-0.3-1.3,0.1c-0.3,0.2-0.5-0.1-0.8-0.1c-0.1,0-0.6-0.5-0.5,0.2c0,0-0.1,0-0.2,0
	c0-0.5-0.4-0.3-0.6-0.3c-0.3,0-0.8,0.3-0.9-0.4c-0.3,0-0.7-0.3-0.9,0.3c0,0.1-0.2,0.2-0.3,0.1c-0.3-0.2-0.8-0.1-0.9-0.7
	c0,0-0.1-0.1-0.2-0.1c0,0.1,0,0.2,0,0.2c-0.2,0.3-0.6,0.2-0.9,0.1c-0.1,0-0.4-0.1-0.4-0.1c-0.3,0.4-0.5,0.1-0.8,0
	c-0.2-0.1-0.3-0.3-0.5-0.4s-0.5,0.1-0.6-0.1c-0.3-0.2-0.3-0.1-0.3,0.2c0,0-0.1,0.1-0.2,0.1c0-0.4-0.3-0.4-0.5-0.3
	c-0.5,0.1-0.9-0.1-1.3-0.4c-0.1-0.1-0.4-0.2-0.4-0.2c-0.4,0.6-0.7,0-1.1,0c-0.3,0-0.6-0.1-0.9-0.1c-0.1,0-0.3-0.1-0.3-0.1
	c0-1.1-0.6-0.3-0.9-0.3c-0.2,0-0.4-0.4-0.6,0c-0.2,0.2-0.4-0.3-0.6-0.3c-0.4-0.1-0.8,0-1.1,0c-0.4,0-0.8,0.2-1.2-0.3
	c0,0-0.2,0.1-0.3,0.1c-0.1,0-0.3,0-0.4-0.1s-0.1-0.2-0.1-0.3c-0.1,0.2-0.3,0.2-0.5,0c-0.1,0.2-0.2,0.3-0.3,0.5
	c-0.6,0-1.2,0.1-1.7,0.1c-0.4-0.5-1.1,0.1-1.5-0.4c0-0.1-0.3,0-0.3,0c-0.5,0.5-1.1-0.2-1.7,0.1c0-0.1-0.1-0.2-0.1-0.2
	c0.1-0.1,0.2-0.1,0.3-0.2c-0.1,0-0.2-0.1-0.3-0.1c-0.3,0-0.6,0-0.8,0.1c-0.4,0.3-0.2-0.1-0.3-0.2c0-0.1-0.2-0.1-0.3-0.1
	c-0.1,0-0.2,0.1-0.2,0.2c0,0.3,0.1,0.7-0.5,0.4c-0.4-0.2-1.1-0.1-1.3-0.7h-0.2c0,0.1-0.1,0.3,0,0.4c0,0.1,0.1,0.2,0.1,0.2
	c-0.1,0-0.1,0.1-0.2,0.1c-0.1-0.1-0.2-0.1-0.4-0.2c-0.2-0.1-0.4-0.2-0.6-0.2s-0.5,0.2-0.5,0.3c-0.2,0.4-0.5-0.3-0.6,0.1
	c-0.3-0.2-0.7-0.1-1-0.1c-0.1,0-0.3-0.1-0.3-0.2c0-0.6-0.2-0.4-0.4-0.1c-0.1,0.1-0.3,0.3-0.5,0.4s-0.3,0.1-0.4-0.1
	c0-0.1-0.1-0.2-0.2-0.2c-0.2,0-0.6,0.3-0.7,0.2c-0.3-0.2-0.5-0.1-0.7,0.1h-0.2c-0.3-0.7-1-0.3-1.5-0.6c-0.3-0.3-0.3-0.1-0.3,0.2
	c0,0-0.1,0-0.2,0.1c-0.1-0.7-0.5-0.1-0.8-0.2c-0.4-0.1-0.8,0-1.1-0.2c-0.3-0.1-0.6,0.2-0.9-0.3c-0.1-0.2-0.4-0.1-0.7,0.1
	s-0.4,0.1-0.4-0.2c-0.1-0.2-0.3-0.2-0.4,0c-0.1,0.1-0.1,0.2-0.1,0.3c-0.1-0.2-0.5-0.3-0.5-0.6c0-0.1,0-0.2,0-0.2
	c-0.1,0-0.3,0.1-0.3,0.1c0,0.5-0.4,0.5-0.6,0.4c-0.5-0.2-0.9-0.4-1.4-0.1c-0.2,0.1-0.8-0.5-0.9-0.8c0-0.1-0.1-0.2-0.1-0.3
	c0,0.1-0.1,0.2-0.1,0.3c0,0.3-0.1,0.4-0.4,0.4c-0.4,0.1-0.9,0.5-1.3-0.1c-0.1-0.2-0.4,0.3-0.6-0.1c-0.5,0.7-1.1-0.2-1.7,0
	c0,0-0.2-0.3-0.3-0.3c-0.5,0.2-1.6,0.3-2.1,0.2c-0.4-0.1-0.8-0.3-1.2-0.3c-0.2,0-0.7-0.2-0.6,0.4l-0.1,0.1c-0.5-0.2-1-0.3-1.4,0.1
	c-0.5-0.2-0.9-0.4-1.4-0.5c-0.2-0.1-0.4-0.4-0.6-0.1c-0.2,0.3-0.4,0.4-0.7,0.1c-0.1-0.1-0.3-0.2-0.4-0.1c-0.5,0.4-1.2,0.2-1.8,0.3
	c-0.4,0.1-0.5-0.1-0.4-0.4c0-0.2-0.1-0.3-0.2-0.1c-0.3,0.3-0.5,0.6-0.9,0.2c-0.6,0.4-1.2-0.2-1.8-0.2c-0.3,0-0.5-0.1-0.7,0
	c-0.6,0.2-1.4-0.2-1.9,0.4c-0.3-0.4-0.7,0-0.9-0.2c-0.4-0.3-0.9-0.1-1.3-0.1c-0.2,0-0.4,0.2-0.6-0.1c-0.2-0.2-0.4-0.2-0.6,0
	c0,0-0.2,0-0.2-0.1c-0.3-0.1-0.5-0.3-0.8-0.4c-0.1,0-0.3,0-0.4,0.1c-0.5,0.5-1.1,0.7-1.8,0.6c-0.1,0-0.2-0.1-0.3-0.1
	c-0.5-0.1-0.9,0.2-1.3,0.3s-0.8-0.4-1.2,0h-0.2c-0.2-0.3-0.6-0.3-0.9-0.3c-0.6,0.1-1.3,0-1.9,0.2c-0.4,0.1-0.9-0.1-1.3-0.2
	c-0.2,0-0.5-0.2-0.6-0.1c-0.4,0.3-0.7,0-1.1,0s-0.8,0.2-1.2-0.1h-0.2c-0.4,0.5-0.9,0.2-1.3,0.1c-0.5-0.1-1,0-1.4-0.3
	c-0.1-0.1-0.3,0-0.4,0c-0.6,0.4-1.4,0.3-2,0.7c-0.1,0.1-0.3-0.1-0.5-0.1c-0.1,0-0.3-0.1-0.4-0.1c-0.5,0.4-1,0.1-1.5-0.1
	c-0.3-0.2-0.4,0.4-0.8,0.1c-0.1-0.1-0.5,0-0.8,0s-0.7,0-0.9,0.1c-0.3,0.3-0.7-0.4-0.9,0.2h-0.2c-0.4-0.6-0.8-0.2-1.2-0.2
	c-0.6,0-1.1,0.2-1.7,0c-0.2-0.1-0.6,0.4-0.8-0.1c0,0.1-0.1,0.1-0.1,0.2c-0.1,0.1-0.2,0.3-0.2,0.3c-0.7-0.5-1.2,0.2-1.8,0.3
	c-0.3,0-0.6,0.2-0.7,0.1c-0.4-0.3-0.7,0.2-1.1,0.1c-0.2,0-0.4,0.4-0.6,0.6c-0.1-0.3-0.2-0.6-0.6-0.6s-0.8,0.1-1.1,0
	c-0.4-0.1-0.6,0-1,0.1c-0.8,0.1-1.6,0.1-2.4,0.2c-0.3,0-0.7,0-0.9,0.3c-0.2,0.1-0.4,0.3-0.7,0.1c-0.3-0.2-0.7,0.3-1,0.2
	c-0.3,0-0.7-0.3-1-0.4c-0.3-0.1-0.6,0-0.9-0.1c-0.2-0.1-0.5,0.3-0.8,0.3c-0.2,0-0.5-0.1-0.8-0.1c-0.7,0-1.5,0.1-2.2,0.1
	c-0.3,0-0.5-0.2-0.7,0.2c-0.1,0.2-0.2,0.1-0.2-0.1c-0.1-0.5-0.1-0.4-0.6-0.2s-1,0.6-1.7,0.1c-0.1-0.1-0.6-0.2-0.5,0.3
	c0,0-0.3,0.2-0.3,0.1c-0.6-0.3-1.3-0.4-1.9-0.3c-0.4,0.1-0.8-0.5-1.1-0.1c-0.3,0.4-0.7-0.3-0.9,0.2c-0.4-0.1-0.8-0.4-1.2,0.1h-0.2
	c-0.5-0.5-1.2-0.2-1.8-0.4c-0.4-0.2-0.7,0.4-1,0.1c-0.4-0.4-0.7,0-0.9,0c-0.3-0.1-0.2-0.1-0.3,0.2c-0.1,0.3-0.4,0.3-0.7,0
	c-0.1-0.1-0.2-0.3-0.3-0.2c-1.2,0.1-2.5-0.2-3.7,0c-0.5,0.1-1,0.2-1.5-0.1c-0.2-0.1-0.5,0.1-0.7,0.1s-0.4,0.1-0.6,0.1
	c-0.4,0-0.1-0.1-0.1-0.3c0-0.3-0.3-0.4-0.6-0.2c-0.1,0-0.3,0.1-0.4,0.1c-0.2-0.1-0.5-0.4-0.6-0.3c-0.2,0.1-0.4,0.2-0.7,0.2
	c-0.5,0-1,0-1.5,0.1c-0.4,0.1-0.8-0.3-1.2,0.1c-0.3-0.3-0.6-0.3-0.9,0c-0.1,0.1-0.3,0.1-0.4,0c-0.3-0.3-0.5-0.2-0.6,0.1
	c-0.2,0.3-0.3,0.2-0.5,0c-0.1-0.1-0.2-0.2-0.2-0.1c-0.3,0.2-0.6,0.5-0.8,0c-0.2-0.4-0.7,0.1-0.9-0.4c0-0.1-0.2-0.2-0.4-0.1
	c-0.5,0.2-1.1,0.5-1.6,0.4c-0.5-0.2-1-0.1-1.5-0.1c-0.6,0.1-1.2-0.2-1.7,0.3c-0.3-0.3-0.5-0.2-0.7,0c-0.1,0.1-0.5-0.1-0.7-0.2
	c-0.4-0.1-0.9-0.2-1.1-0.1c-0.3,0.2-0.8-0.4-0.9,0.2c-0.2-0.1-0.4-0.1-0.5-0.2c-0.3-0.2-0.5-0.3-0.8-0.1s-0.7,0.6-1.1,0.3
	c-0.3-0.2-0.7,0.4-0.9-0.1c0-0.1-0.5,0.1-0.6,0c-0.5-0.5-0.8-0.4-1.2,0.1c0,0-0.2,0.1-0.2,0c-0.3-0.5-0.6,0-0.9,0.1
	c-0.3,0.1-0.5,0.3-0.8,0.2c-0.6-0.1-1.1-0.2-1.7-0.4c-0.2-0.1-0.4-0.2-0.6,0c-0.2,0.2-0.5,0.3-0.9,0.3c-0.1,0-0.1,0-0.2,0.1
	c-0.1-0.6-0.5-0.4-0.9-0.3c-0.3,0-0.7,0.3-0.9,0.2c-0.3-0.2-0.6-0.2-0.9-0.1c-0.4,0-0.7,0-1.1,0.3c-0.1,0.1-0.5,0.2-0.6-0.3
	c0-0.2-0.5-0.2-0.7,0c-0.3,0.5-0.7,0.4-1.1,0.2c-0.3-0.2-0.6-0.2-1-0.2c-0.2,0-0.4,0-0.7-0.1c-0.3,0-0.6,0-0.9,0.1
	c-0.6,0.3-1,0.4-1.7,0.3c-0.2,0-0.4,0-0.6,0.1c-0.1,0-0.2,0.3-0.3,0.1c-0.3-0.4-0.7-0.3-1.2-0.3c-0.8,0-1.6,0.2-2.3-0.2
	c-0.3-0.2-0.4,0.4-0.7,0c-0.2-0.3-0.5-0.1-0.8,0.1h-0.1c-0.4-0.1-0.9-0.3-1.3-0.1c-0.4,0.2-0.7,0.3-1.1,0.1c-0.1,0-0.8,0.1-0.9,0.1
	c0,0.1-0.1,0.2-0.1,0.3c0-0.1-0.1-0.2-0.1-0.3c-0.1-0.2-0.1-0.4-0.3-0.5c-0.1-0.1-0.3-0.2-0.5-0.1c-0.4,0.1,0.1,0.2,0,0.3
	c-0.1,0.3-0.4,0.5-0.7,0.4s-0.5-0.3-0.7,0.1c-0.2-0.3-0.5-0.2-0.7-0.2c-0.6,0.2-1.1,0-1.6-0.2c-0.4-0.2-0.5-0.1-0.7,0.2
	c-0.2,0.2-0.5,0.3-0.7,0.4c-0.3,0-0.7-0.1-0.8-0.3c-0.3-0.4-0.5-0.5-0.8-0.2c-0.4,0.4-0.9,0-1.2,0.4c0,0-0.1,0-0.2-0.1
	c-0.3-0.3-0.3-0.3-0.6,0c-0.3,0.3-0.8,0.3-0.9,0.2c-0.2-0.4-0.4-0.5-0.7-0.1c-0.1,0.1-0.4,0-0.5-0.1c-0.3-0.2-0.5-0.2-0.5,0.2
	l-0.1,0.1c-0.5-0.4-1.2,0.2-1.7-0.3c-0.4,0.3-0.8,0-1.2,0s-0.8-0.2-1.1-0.2c-0.1,0-0.2,0-0.2,0c-0.3,0.1-0.7,0.4-0.7,0.4
	c-0.4-0.3-0.6,0.2-0.9,0.1c-0.3-0.1-0.6,0-0.9,0c-0.2,0-0.4,0-0.5-0.1c-0.3-0.3-0.6-0.4-1-0.1c-0.2,0.1-0.7,0-1-0.2
	c-0.3-0.2-0.4-0.3-0.5,0.2c-0.1,0.4-0.2,0.4-0.7,0.1c-0.1-0.1-0.3-0.1-0.4,0c-0.4,0.3-0.4,0.3-0.8-0.1c-0.1-0.1-0.3-0.2-0.4-0.1
	c-0.3,0.1-0.6,0.3-0.9,0.4c-0.2,0.1-0.5,0.1-0.6-0.1c-0.3-0.4-0.8-0.1-1.2-0.3c-0.4-0.2-0.7,0-0.9,0.2c-0.2,0.1-0.3,0.2-0.5,0
	c-0.5-0.3-1-0.3-1.5-0.3c-0.6,0.1-1.2,0.1-1.8,0.1c-0.3,0-0.6,0.2-0.7-0.3c0,0-0.2-0.1-0.3-0.1s-0.3,0.1-0.4,0.2
	c-0.7,0.3-1.1,0.4-1.7,0.1c-0.4-0.2-0.7-0.4-0.8,0.2c-0.1,0-0.2,0-0.2,0c-0.1-0.4-0.6-0.3-0.8-0.7c0-0.1-0.3-0.1-0.3,0
	c-0.3,0.5-0.7,0-1-0.1c-0.2-0.1-0.3,0-0.4,0.1c-0.1,0.1-0.2,0.3-0.4,0.1c-0.4-0.3-0.8,0.3-1.3,0c-0.4-0.4-1,0-1.4-0.1
	c-0.3,0-0.6,0.3-1,0.1c-0.3-0.1-0.7,0-1.1-0.2c-0.3-0.2-0.7,0.3-1.1,0l-0.1,0.1c0,0.1-0.1,0.2-0.1,0.3c0-0.1-0.1-0.2-0.1-0.3
	c-0.1-0.1-0.2-0.3-0.3-0.3s-0.3,0-0.4,0c0.1,0.6-0.5,0-0.6,0.4c-0.1,0.1-0.4,0.3-0.8,0.1c-0.4-0.1-0.9-0.1-1.3-0.2
	c-0.4-0.1-0.9,0.2-1.3-0.1c-0.3,0.4-0.7,0-1.1,0c-0.4,0-0.8,0-1.2,0.1c-0.3,0-0.5,0.1-0.8,0.2c-0.4,0.2-0.9,0.3-1.3-0.2
	c-0.1-0.1-0.3-0.1-0.5-0.1c-0.3,0.1-0.7-0.1-1,0.2c-0.1,0.1-0.4-0.2-0.7,0.1c-0.2,0.2-0.7,0.2-1.1,0c-0.2-0.1-0.6-0.2-0.9,0
	c-0.5,0.3-0.9,0.3-1.3-0.1c0-0.1-0.2,0-0.3,0c-0.4,0.3-0.9,0.3-1.3,0.1c-0.2-0.1-0.5,0-0.8,0.1c-0.2,0-0.4,0.1-0.5,0.2
	c-0.3,0.2-0.5-0.3-0.8,0c-0.2,0.2-0.6,0.1-0.9,0.1c-0.4,0-0.8-0.2-1.2-0.1c-0.5,0-1.1-0.1-1.5,0.3c-0.1,0.1-0.2,0-0.3,0
	c-0.5,0.1-1-0.1-1.5-0.1c-0.5-0.1-1.1,0.3-1.5-0.1h-0.2c-0.3-0.3-0.5,0.4-0.9,0.1c-0.2-0.1-0.7-0.1-0.9,0c-0.3,0.2-0.6,0.2-0.9,0.3
	c-0.1,0-0.1,0.2-0.2,0.2c0,0.1-0.1,0.1-0.2,0.2c-0.3-0.8-1.3-0.2-1.7-0.9h-0.2c-0.2,0-0.4,0.1-0.6,0.2c-0.4,0.1-0.8,0.3-1.2,0.3
	c-0.4-0.1-0.8-0.1-1.2-0.2c-0.3,0-0.4,0.4-0.8,0.1c-0.2-0.1-0.5-0.2-0.7-0.2c-0.3,0-0.7,0-0.9,0.1c-0.3,0.1-0.7-0.5-1,0
	c-0.7,0-1.3,0.3-2,0c-0.1,0-0.2-0.1-0.3,0c-0.8,0.4-1.6,0.3-2.4,0.2c-0.1,0-0.2,0-0.2,0c-0.4,0.2-0.8,0.2-1.2,0
	c-0.4-0.1-0.9-0.1-1.3,0.1c-0.3,0.2-0.8,0.3-1,0.1c-0.4-0.3-0.8,0-1.1-0.1c-0.4-0.1-0.9-0.2-1.3,0.2c-0.4-0.6-0.7,0.2-1.1,0.1
	c-0.3-0.1-0.7,0-1-0.2c-0.3-0.1-0.4,0.4-0.8,0c-0.1-0.1-0.5,0-0.9,0.1l0,0L96,17.1c-0.3-0.1-0.5-0.2-0.7,0.1c-0.3-0.2-0.5-0.1-0.7,0
	c-0.1,0.1-0.4,0.1-0.5,0c-0.2-0.2-0.4-0.3-0.7,0c-0.1,0.1-0.5,0.2-0.6,0.1c-0.4-0.2-0.7-0.5-1,0.1c-0.2-0.5-0.5,0-0.8,0
	s-0.6,0-0.9-0.1c-0.5-0.1-0.9,0.3-1.3,0.1c-0.4-0.2-0.7-0.4-1.1-0.6c0,0.1,0.1,0.2,0,0.4c0,0.1-0.1,0.2-0.1,0.2
	c-1.1-0.4-2.3,0.1-3.4-0.1c0,0-0.1-0.1-0.1-0.2c0.1,0,0.2,0,0.2,0c0.1,0,0.1-0.1,0.2-0.1c-0.1,0-0.1-0.1-0.2-0.1s-0.1,0-0.3,0
	c0,0,0-0.1,0.1-0.1c-0.1,0-0.1-0.1-0.2-0.1s-0.2,0.1-0.3,0.1c0.1,0,0.1,0.1,0.3,0.1c0.1,0,0.1,0.1,0.1,0.2c-0.4,0-0.8,0.2-0.7-0.5
	l-0.1-0.1l-0.1,0.1c0,0.1,0,0.1,0,0.2c0,0.2,0,0.4,0,0.6c-0.2-0.1-0.5,0.1-0.6,0.1c-0.3-0.3-0.6,0-0.9,0.1s-0.6-0.1-0.8-0.2
	c-0.3-0.1-0.7,0.2-1-0.1c-0.1-0.1-0.3,0-0.4,0c-0.5-0.1-0.8,0.5-1.3,0.1c0,0.3-0.6,0.1-0.5,0.5c0,0-0.1,0.1-0.2,0.1
	c0-0.6-0.6-0.2-0.8-0.5c-0.3-0.2-0.7,0-1,0.2c-0.2,0.1-0.7-0.2-0.9-0.1c0.2,0.4-0.1,0.4-0.4,0.4s-0.6-0.1-0.8,0.1
	c-0.4,0.2-0.6,0.2-0.7-0.2c-0.1-0.1-0.1-0.3-0.2-0.1c-0.3,0.4-0.6,0.4-1,0.4c-0.2,0-0.5,0-0.7,0c-0.3,0-0.3,0-0.7-0.5
	c0-0.1-0.1-0.1-0.1-0.1c-0.3,0-0.7,0.2-1,0.1c-0.4,0-0.9,0.5-1.3,0c0,0-0.2,0-0.3,0.1c-0.3,0.3-0.7,0.2-1,0.2s-0.5-0.4-0.8-0.4
	c-0.2,0-0.5,0.4-0.7,0c-0.5,0.3-1.1,0.2-1.5,0.5c-0.1,0.1-0.3,0.1-0.4,0c-0.8-0.5-1.6-0.5-2.4,0.1c-0.1,0.1-0.4,0.2-0.5,0.1
	c-0.3-0.2-0.6-0.3-0.9,0c-0.3-0.2-0.5-0.4-0.8-0.5c-0.2-0.1-0.5,0-0.8,0.1c-1.2,0.5-1.2,0.5-2.5,0.3c-0.2,0-0.5,0.2-0.8,0.1
	c-0.3,0-0.5-0.2-0.8-0.3c-0.2,0-0.5,0-0.7,0c-0.6,0.1-1.3,0.1-1.7-0.2c-0.5-0.3-0.7-0.3-1.2,0.1c-0.2,0.2-0.3,0.3-0.6,0.1
	c-0.2-0.2-0.5-0.3-0.7-0.4c0,0-0.1,0-0.2,0c-0.3,0.2-0.4-0.2-0.7-0.1c-0.3,0.2-0.6,0.2-0.9,0.4c-0.2,0.2-0.3,0.2-0.6,0
	c-0.2-0.1-1.4,0-1.7,0c-0.5,0.1-1.1,0-1.6,0c-0.4,0-0.7,0.3-1,0.1c-0.5-0.3-1-0.1-1.5-0.1c-0.4,0-0.7,0-1,0.4
	c-0.1,0.1-0.4,0.2-0.5,0.1c-0.3-0.2-0.6-0.2-0.9-0.2c-0.1,0-0.2-0.1-0.3-0.3c-0.1-0.3-0.2-0.1-0.3,0S37.2,18,37.2,18
	c-0.2-0.7-0.6-0.5-1-0.2c0,0-0.2,0-0.3-0.1c-0.3-0.3-0.8,0.1-1-0.3c-0.3,0.6-0.7-0.1-1,0.1c-0.7,0.4-1.3-0.1-2,0.1
	c-0.3,0.1-0.6,0-1,0.2c-0.5,0.3-1-0.1-1.5-0.2c-0.2,0-0.4-0.2-0.6-0.3c-0.1,0-0.3,0-0.4,0.1c-0.3,0.3-0.6,0.6-1,0.2
	C26.9,18,26,18.1,25,18.1c-0.3,0.4-0.6-0.3-0.9,0c-0.5-0.4-0.9-0.2-1.3,0c-0.3,0.1-0.8-0.1-0.9,0.4c-0.4-0.4-0.7,0-1.1,0
	c-0.2,0-0.5-0.4-0.7-0.6c-0.2-0.3-0.4-0.4-0.7-0.4c-0.3,0-0.6-0.1-0.8-0.2c-0.2,0.5-0.5,0.1-0.8,0.1s-0.5-0.1-0.8,0
	c-0.5,0.1-1.1,0.2-1.6,0.3c-0.2,0-0.4,0.1-0.6,0c-0.5-0.1-0.8-0.5-1.5-0.2c-0.4,0.2-1.1,0.1-1.6,0.1c-0.2,0-0.5,0-0.4,0.4
	c0,0-0.2,0.1-0.3,0.1c-0.3,0-0.1-0.6-0.5-0.4c-0.2,0.1-0.3,0.3-0.7,0.1c-0.6-0.2-1.3-0.3-1.9-0.5c-0.1,0-0.3,0.1-0.4,0.1
	c0.5,0.4,0.1,0.3-0.2,0.4c-0.6,0-1.2,0.1-1.8-0.3c-0.2-0.2-0.6-0.1-0.9-0.2c-0.2,0-0.4-0.1-0.6-0.1c-0.3,0-0.6-0.2-0.6,0.3
	c-0.1,0-0.2,0-0.2,0c0-0.4-0.2-0.3-0.4-0.3c-0.5,0-1,0-1.3-0.5c-0.1-0.2-0.7-0.1-0.8-0.5c-0.4,0.1-0.3-0.3-0.5-0.5S0,15.3,0.4,15.3
	c0.1,0,0.1-0.1,0.1-0.1c-0.1-0.1-0.3-0.1-0.4-0.2c0.1-0.1,0.3-0.1,0.4-0.2c-0.1-0.1-0.3-0.2-0.3-0.4C0,14.2,0,14,0,13.8
	c0.1-0.4,0.3-0.8,0.4-1.2c0.1-0.3,0.4-0.7-0.2-0.7v-0.2c0.2-0.2,0.1-0.3-0.1-0.5s-0.2-0.4,0-0.4c0.3-0.1,0.4-0.2,0.3-0.4
	c-0.2-0.3,0.5-0.4,0-0.6C0.6,9.3,0,9.1,0.2,8.6C0.3,8.4,0.1,8,0.3,7.7s-0.2-0.6-0.1-1c0.2-0.5,0.4-1,0.8-1.6
	c0.2-0.2-0.1-0.2-0.2-0.2c-0.2-0.1-0.2-0.2,0-0.2c0.1,0,0.4,0,0.1-0.2c0-0.1-0.2-0.2-0.3-0.2c0.1,0,0.2-0.1,0.3-0.1
	C1,4.1,1.2,4.1,1.2,4c0-0.2-0.1-0.5-0.1-0.5c-0.2,0-0.4-0.1-0.3-0.3C0.8,3.1,1,3.1,1.1,3c0.1,0,0.1-0.1,0.2-0.2
	c0.3-0.3,0-0.2-0.2-0.3H1c0-0.1,0-0.2,0-0.2c0.7,0.1,0.1-0.7,0.6-0.7c0.1,0,0.2,0,0.3,0c0.2,0,0.4-0.1,0.5-0.1
	C2.2,1.5,2,1.4,1.8,1.4c-0.1,0-0.2-0.1-0.3-0.1C1.6,1.2,1.7,1.1,1.8,1c0.4-0.6,0.5-0.7,1.3-1h0.2c0.3,0.5,0.8,0.3,1.3,0.3
	c0.4,0,0.9,0,0.9,0.6C5.5,1,5.7,1,5.8,1.1c0-0.1,0.1-0.3,0.1-0.4S5.8,0.5,5.7,0.5c0.1,0,0.3-0.1,0.3,0c0.3,0.4,0.7,0.1,1.1,0.1
	c0.5,0,1-0.1,1.2,0.5c0,0,0.1,0.1,0.2,0.1C8.6,1.1,8.7,1,8.7,0.8C8.8,0.9,8.9,1.1,9,1.2c0.5,0.4,1,0.1,1.3-0.1
	C10.7,0.8,11,1,11.1,1.3c0.1,0.5,0.5,0.3,0.6,0.3c0.3-0.4,0.7-0.1,1-0.4c0.1,0,0.2-0.1,0.2-0.1c0.3,0.4,0.7,0.3,1.1,0.3
	c0.2,0,0.6-0.1,0.6,0.3c0,0,0.1,0.1,0.2,0c0.2-0.1,0.4-0.3,0.6-0.4c0.2-0.1,0.4,0.1,0.5,0.1c0.3-0.2,0.5-0.3,0.5,0.2
	c0.1,0,0.2,0,0.2,0c-0.1-0.6,0.6-0.2,0.7-0.5c0,0,0.4,0,0.5,0.1c0.5,0.3,1,0.7,1.6,0.2h0.1c0.5,0.4,1,0,1.5,0.1
	c0.2,0,0.4,0.1,0.6,0.2c0.1,0,0.2,0.2,0.3,0.3c0.1,0,0.4,0,0.4,0c0.2-0.5,0.8-0.1,1.1-0.4c0.2-0.2,0.8,0,1.1,0.1
	c0.2,0,0.4,0.2,0.4,0.3c0,0.5,0.4,0.3,0.6,0.3c0.1,0,0.1-0.2,0.4-0.1c0.4,0.1,1-0.1,1.3,0.1c0.4,0.2,0.7-0.1,1.1-0.1
	s0.9,0.2,1.3-0.2c0.1-0.1,0.4-0.1,0.6-0.1c0.4,0,0.9-0.1,1.3,0.2c0.3-0.5,0.7-0.2,1.1-0.1c0.3,0.1,0.6,0,0.8-0.3s0.6,0.1,0.8-0.2
	c0,0,0.2,0,0.2,0.1c0,0.6,0.5,0.2,0.7,0.3c0.5,0.2,1.1,0.2,1.6,0.2c0.3,0,0.4,0.6,0.8,0.3C37.7,2,38.1,2,38.4,2.1
	c0.4,0.1,0.8,0.4,1.3,0.2c0.1,0,0.2,0.5,0.6,0.4c0.3-0.1,0.5,0,0.5,0.3C40.9,3,41,2.9,41,2.9c-0.1-0.7,0.2-0.4,0.6-0.4
	c0.6,0.1,1.4,0.3,1.9-0.4c0,0,0.1-0.1,0.2-0.1c0.6,0.1,1.2,0.6,1.8,0.1c0.1,0.1,0.2,0.3,0.3,0.4c0.2-0.3,0.4-0.2,0.7-0.1
	c0.3,0.1,0.7,0.5,1,0.1c0.2-0.2,0.6,0.2,0.8-0.3c0.1-0.3,0.5-0.2,0.8,0c0.2,0.2,0.3,0.2,0.5,0s0.5-0.2,0.8-0.1c0.4,0.1,0.9,0,1.4,0
	c0.4,0,0.7,0.4,1.1-0.1c0.1,0.1,0.2,0.2,0.3,0.3s0.3,0.2,0.3,0.2c0.2-0.1-0.1-0.2-0.1-0.3s0-0.2,0-0.3c0.1,0,0.2,0.1,0.3,0.1
	c0.3,0.2,0.6,0.3,1,0.4c0.1,0,0.2,0,0.2,0c0.3-0.1,0,0.7,0.4,0.3c0.1-0.1,0.4,0.3,0.5-0.1c0.1,0,0.1,0,0.2,0.1
	c-0.2,0.2-0.4,0.5,0,0.3s0.8-0.2,1.4,0.1v0.1c0,0.2,0,0.4,0.3,0.3c0.1,0,0.1-0.1,0-0.3c0.1,0,0,0,0-0.1c-0.2-0.2-0.1-0.4,0-0.5H58
	c0.1,0.5,0.4,0.5,0.7,0.1c0.7,0,1.4-0.6,2.2-0.2c0.3,0.2,0.9,0.1,1.2-0.1c0.3-0.1,0.5-0.4,0.6,0.2c0.4,0.1,0.8,0.1,1.2-0.1
	c0.4-0.2,0.8-0.1,1.2-0.2c0,0,0.1,0.2,0.2,0.3c0,0,0.1,0.1,0.2,0.1c0.1-0.2,0-0.4,0.3-0.4c0.3,0.1,0.7,0.1,0.9,0.3
	c0.3,0.2,0.4,0.3,0.7,0.1c0.2-0.1,0.5,0.1,0.7,0.1s0.5,0.1,0.6,0C69,2.6,69.2,2.5,69.2,3c0,0,0.1,0,0.2,0c0.6-0.2,1.2-0.5,1.4,0.4
	c0.1,0,0.2-0.1,0.2-0.1c0-0.5,0-0.6,0.6-0.4C72.2,3.1,73,3,73.7,3c0.6,0,1.1,0.1,1.6,0.1c0.6,0-0.1,0.4,0.2,0.5c0.2,0,0.5,0.1,0.7,0
	s0.3-0.2,0.5,0c0.2,0.1,0.4-0.1,0.3-0.3c-0.1-0.4,0.2-0.4,0.5-0.4c0.1,0,0.3,0.3,0.4,0.4C78,3,78.2,2.9,78.4,3.1
	c0.3,0.2,0.6,0.5,0.8,0.5c0.3,0,0.5-0.4,0.8-0.6c0.1-0.1,0.4-0.2,0.5-0.1C80.9,3.2,81.3,3,81.7,3c0.2,0,0.3,0.1,0.5,0.2
	c0.1,0,0.3,0.1,0.3,0.1c0.2-0.4,0.8,0.3,1-0.3c0.1-0.3,0.4-0.6,0.8-0.2c0.4-0.2,0.8,0.3,1.2-0.1c0,0,0.2,0,0.3,0.1
	c0.3,0.2,0.7,0.4,1-0.1c0-0.1,0.3-0.1,0.3-0.1c0.3,0.4,0.5,0.1,0.8,0c0.2-0.1,0.6-0.3,0.8,0.2l0,0l0,0c0,0.1,0,0.2,0,0.2s0,0,0.1,0
	c0.3,0.3,0.7,0.3,1-0.1c0.3-0.3,0.5-0.4,0.7,0c0.3,0.4,0.5-0.2,0.7-0.1C91.1,3,91.3,3,91.4,3c-0.1,0-0.2,0.1-0.3,0.1
	C91,3.3,91,3.4,90.9,3.5c0.1,0,0.2,0,0.2-0.1c0.1,0,0.2-0.1,0.2-0.1c0.4,0.3,0.7,0,1.1-0.1c0.4,0,0.7-0.2,1.1-0.1
	c0.3,0.1,0.7-0.3,1-0.2C95.4,3,96.4,3,97.2,3.4c0.3,0.1,0.3,0.2,0.4-0.2c0-0.1,0.4-0.1,0.6-0.1c0.6-0.1,1.2,0,1.7-0.5
	c0.1-0.1,0.5-0.1,0.6-0.1c0.3,0.3,0.9-0.1,1.2,0.3c0,0.1,0.3-0.1,0.5-0.1c0.3-0.1,0.7-0.2,0.8-0.1c0.5,0.3,0.8,0,1.2-0.1
	c0.3-0.1,0.6-0.5,1-0.1c0.2-0.4,0.9-0.1,1-0.7c0,0,0.4,0.3,0.4-0.2c0-0.2,0.3,0.2,0.5,0.2c0.2,0.1,0.4,0.2,0.6,0.3
	c0.1,0,0.2-0.1,0.3-0.2c0.1-0.1,0.1-0.2,0.1-0.2c0,0.1,0.1,0.1,0.1,0.2c0,0.3,0,0.5,0.4,0.5c0.4-0.1,0.8-0.1,1.3-0.1
	c0.4-0.8,1.1-0.3,1.7-0.3c0.1,0,0.2,0,0.4,0.1l0,0c0,0.2,0,0.4,0.3,0.3c0.1,0,0.1-0.1,0-0.3c0.1,0,0,0-0.1-0.1c-0.1-0.2,0-0.3,0-0.3
	c0.4,0.1,0.8,0.2,1.3,0.3c0.1,0,0.1,0,0.2,0c0.5-0.2,0.7-0.3,1.3,0c0.8,0.3,1.5,0.3,2.3,0c0.2-0.1,0.7-0.4,0.9,0.3
	c0,0.1,0.4,0.1,0.5,0.1c0.4-0.1,1,0.3,1.1-0.4c0.3,0,0.5,0.1,0.8,0.1c0.2-0.1,0.4-0.3,0.6-0.5c0,0,0.1,0.1,0.2,0.2s0.1,0.2,0.2,0.2
	c0.8-0.4,1.5-0.3,2.2,0.1c0,0,0.1,0,0.2,0c0-0.1,0-0.2,0-0.2c0-0.1,0.1-0.1,0.2-0.1c0,0.5,0.2,0.2,0.4,0.1c0.1-0.1,0.3-0.1,0.4,0
	c0.4,0.3,0.8,0.1,1.3,0c0.3,0,0.8-0.2,0.9,0.3c0,0.1,0.1,0.2,0.2,0.2c0.5,0.5,0.6,0.5,0.9-0.2c0-0.1,0-0.2,0.1-0.2
	c0.1-0.1,0.4-0.3,0.4-0.3c0.3,0.1-0.1,0.2-0.1,0.4c0,0.1,0.1,0.2,0.1,0.2c0.1-0.4,0.4,0.1,0.5-0.1c0-0.1,0-0.2,0-0.2
	c0.1-0.1,0.2-0.1,0.3-0.1c0.7,0.1,1.3-0.4,2-0.2c0.3,0.1,0.6,0.3,0.7-0.2c0-0.2,0.7-0.3,0.9-0.1c0.1,0.1-0.4,0.4,0.1,0.4
	c0.3,0,0.5,0,0.4-0.4c0.3-0.1,0.7-0.3,1-0.1c0.5,0.2,0.9,0.1,1.3,0.1c0.1,0,0.2,0,0.3,0c0.3,0.1,0.4,0.6,0.7,0.4
	c0.2-0.2,0.5-0.2,0.7-0.2c0.3,0,0.6,0.1,0.8-0.2c0.1,0.1,0.1,0.1,0.2,0.2c0.1,0.1,0.1,0.1,0.2,0.2c0.1-0.2,0-0.7,0.4-0.4
	c0.3,0.2,0.4,0.1,0.7-0.1c0.2-0.1,0.5-0.1,0.8-0.1c0.4,0,0.1,0.2,0.1,0.3l0.2,0.1c0.3-0.3,0.8-0.3,1.2-0.3c0.2,0,0.4,0.1,0.5,0.2
	c0.3,0.6,0.7-0.3,1,0.2c0.5-0.5,0.9-0.1,1.3,0.2c-0.1,0-0.1-0.1-0.2-0.1c-0.1,0-0.2,0-0.3,0.1c0,0.1,0,0.1,0,0.1
	c0.1,0,0.2,0,0.4-0.1s0.5-0.1,0.6-0.2c0.3-0.3,0.4,0.3,0.7,0.1c0.1-0.1,0.4,0.1,0.6,0.1c0.2,0,0.3-0.1,0.5-0.2s0.5,0,0.7-0.3
	c0,0,0.4,0.1,0.5,0.3c0.2,0.2,0.4,0.2,0.6-0.1c0.1-0.2,0.3-0.4,0.5-0.5s0.6,0,0.6,0.1c0.1,0.5,0.2,0.3,0.4,0.1
	c0.2-0.3,0.4,0,0.5-0.1c0.5-0.2,1,0.5,1.4,0c0,0,0.2,0.1,0.3,0.1c0.2,0.1,0.3,0.4,0.6,0.1c0.1-0.1,0.4,0.1,0.5,0.1s0.2,0,0.2,0
	c0,0.1,0,0.2,0,0.4l0,0c0.1-0.1,0.4,0,0.4-0.3c0-0.4,0.3-0.3,0.5-0.3c0.1,0,0.2,0.2,0.2,0.3c0.2,0.6,0.3,0.7,0.8,0.5
	c0.4-0.1,0.7-0.1,1.1,0c0.3,0,0.6-0.2,0.9-0.2c0.1,0,0.2,0,0.3,0.1c0.6,0.2,1.2,0.4,1.9,0c0.4-0.2,0.8,0,1.2,0.2
	c0.3,0.2,0.6,0.3,0.9,0c0.1-0.1,0.5,0.1,0.5,0.1c0.1-0.6,0.6-0.1,0.9-0.2c0.3-0.3,0.7,0.4,1,0c0.1,0.1,0.2,0.3,0.3,0.4
	c0.5-0.5,1,0.2,1.5,0.2c0.3,0,0.5,0.3,0.8,0.2c0.1,0,0.4,0.1,0.5,0.2c0.4,0.4,0.5,0,0.6-0.3c0.5,0.1,0.2,0.5,0.3,0.7
	c0,0.1,0.2,0.2,0.2,0.2c0.1,0,0.2-0.1,0.2-0.2c0-0.3,0-0.5,0.3-0.7c0.1,0,0.2-0.1,0.2-0.1c0.6,0.3,1-0.3,1.5-0.3
	c0.1,0,0.1,0.1,0.2,0.1c0.3,0.1,0.5,0.3,0.8,0c0.1-0.1,0.3,0,0.4,0c0.3,0.3,0.4,0.1,0.8,0c0,0.2,0,0.3,0.1,0.5c0,0,0.2,0,0.3,0
	c0,0,0.1-0.1-0.1-0.4c0.1,0.1,0.1,0,0-0.1c-0.1-0.6,0.3-0.3,0.6-0.4c0.1,0,0.4,0.2,0.4,0.1c0.6-0.7,1.2,0.1,1.8-0.1
	c0.1,0,0.3,0.1,0.4,0.2c0.2,0.1,0.2,0.1,0.4,0c0.4-0.2,1,0.1,1.5-0.4c0,0,0.2,0.2,0.4,0.2c0.4,0,0.7,0.3,1.1,0.2l0,0l0,0l0,0
	c0.1,0.1,0.1,0.1,0.2,0.2c0.1-0.1,0.2-0.1,0.2-0.2l0,0l0,0l0,0c0.1-0.1,0.4-0.2,0.4-0.1c0.3,0.3,0.6,0.5,0.9,0.1
	c0.4,0.2,0.7,0.3,0.7-0.3c0,0,0.1-0.1,0.2-0.1c0.3,0,0.6,0.6,1,0.1h0.1c0.2,0.2,0.4,0.4,0.8,0.2c0.1-0.1,0.5,0.4,0.7,0
	c0.1,0.1,0.1,0.1,0.2,0.2c0,0.1,0.1,0.1,0.1,0.2c0.3-0.4,0.5-0.1,0.8,0c0.3,0,0.6,0,0.9,0c0.9-0.1,1.8-0.1,2.7,0.3
	c0.1,0.1,0.5,0.1,0.5-0.2c0.5,0,1,0,1.5-0.1c0.7-0.1,1.4,0,2.1,0.3c0.2,0.1,0.6,0.2,0.6-0.3c0,0,0.5-0.2,0.6-0.1
	c0.4,0.3,0.8,0.2,1.1,0.1c0.3-0.1,0.5-0.4,0.8,0c0.1,0.1,0.3-0.1,0.5-0.1c0.2-0.1,0.5-0.1,0.7-0.2c0.2,0,0.2,0,0.1,0.3l0.1,0.2
	c0.3,0,0.6,0.1,0.8-0.2c0.2,0.2,0.5,0.1,0.8,0.2c0.3,0,0.6-0.1,1,0.1c0.3,0.1,0.7-0.1,1-0.2c0.3,0,0.6-0.1,0.9-0.3
	c0.2-0.1,0.6,0,0.9,0.2c0.5,0.2,0.9,0.2,1.4,0.1c0.3,0,0.5-0.1,0.6,0.3c0,0.2,0.4,0.2,0.4-0.1s0.1-0.3,0.4-0.2
	c0.5,0.2,0.8,0.6,1.4,0.6c0.8,0.1,1.5,0.2,2.3,0.3c0.1,0,0.3-0.1,0.4-0.2c0.1,0,0.3-0.1,0.4,0c0.6,0.4,0.7,0.5,1,0.1
	c0.5-0.5,1-0.4,1.6-0.2c0.4,0.1,0.6,0.1,1.3,0c0.1,0,0.4-0.1,0.4,0c0.3,0.3,0.6,0.1,0.9,0.1c0.5,0.1,0.8-0.5,1.4-0.2
	c0.4,0.2,0.9,0.1,1.4-0.1c0.1-0.1,0.4,0.2,0.6,0.4c0.2,0.2,0.3,0.1,0.4,0c0.3-0.3,1.2-0.5,1.5-0.4c0.2,0,0.4,0,0.6,0
	c0.2,0,0.4-0.1,0.5-0.1c0.2,0,0.4,0.1,0.5,0.1c0.4-0.4,0.9-0.3,1.3-0.3c0.4,0,0.9-0.3,1.3,0.1c0.4-0.1,0.9-0.2,1.2-0.4
	c0.4-0.2,0.8-0.1,1.2-0.2c0.1,0,0.1,0.1,0.2,0.2c0.2,0.3,0.5,0.4,0.9,0.4c1-0.1,2.1-0.1,3.1-0.2c0.1,0,0.3-0.1,0.4-0.2
	c0.2-0.2,0.3-0.1,0.5,0c0.3,0.4,0.8,0.4,1.1,0.1c0.5-0.4,0.6,0.3,0.8,0.2c0.3,0,0.4-0.6,0.8-0.4c0.1,0,0.2,0.2,0.3,0.3
	c0.2,0.2,0.4,0.2,0.4-0.1c0.1-0.4,0.4-0.3,0.5-0.3c0.4,0.3,1,0.1,1.2,0.7c0,0.1,0.4,0.1,0.6,0.2c0.1-0.8,0.6-0.3,0.7-0.2
	c0.3,0.3,0.5-0.1,0.8-0.1c0.2,0.1,0.4,0.2,0.7,0.3c0.1,0,0.2-0.1,0.3-0.2c0.3-0.3,0.5-0.7,1-0.3c0,0,0.1,0,0.2,0c0.4,0,0.8,0,1.1,0
	c0,0.4,0.5,0.4,0.7,0.6s0.4,0.3,0.7,0c0-0.1,0.3,0,0.4,0c0.1,0,0.2,0.1,0.3,0.1c0.6-0.3,1.2-0.1,1.8,0.1c0.1,0,0.3,0,0.3,0
	c0.2-0.2,0.3-0.4,0.4,0.1c0,0,0.2,0.1,0.3,0.1c0.3,0.1,0.6,0,1,0.1s1-0.1,1.4-0.3c0.1-0.1,0.6,0,0.5-0.5c0-0.1,0.3-0.2,0.4-0.3
	c0.1-0.1,0.3-0.2,0.3,0.1c0,0.4,0.6,0.1,0.5,0.6c0,0.1,0.3,0.1,0.4-0.1c0.2-0.4,0.4-0.2,0.7-0.2c0.5,0,0.9,0.5,1.5,0.2
	c0.1,0.3,0.5,0.4,0.8,0.6c0.1,0.1,0.3,0.2,0.4,0.2c0.4-0.4,0.9-0.1,1.4-0.4c0.1-0.1,0.2-0.1,0.3-0.1c0.3,0,0.3,0.5,0.7,0.3
	c0.2-0.2,0.5-0.2,0.7,0c0.1,0.1,0.3,0.1,0.3,0c0.3-0.4,0.9,0.3,1.2-0.3c0.3,0.1,0.4-0.5,0.7-0.2c0.2,0.4,0.3-0.3,0.6,0
	c0.3,0.3,0.9-0.2,1.4,0.2c0.4-0.2,0.8,0.3,1.2,0c0.3,0.3,0.5,0.3,0.6-0.2c0-0.3,0.3-0.2,0.6-0.2c0.2,0,0.3-0.5,0.6-0.4
	c0.4,0.1,0.7-0.2,1-0.4c0.4-0.4,0.4,0.1,0.6,0.2c0.3,0.2-0.2,0.5,0,0.5s0.5-0.1,0.7-0.2c0.2-0.1,0-0.6,0.5-0.5
	c0.3,0.1,0.6,0.1,0.8,0.3c0.6,0.4,0.6,0.4,1.1,0c0.2-0.2,0.2-0.2,0.3,0.1c0.1,0.1,0.3,0.3,0.5,0.3c0.3,0.1,0.1-0.3,0.2-0.3
	c0.4-0.1,0.8-0.1,1.2-0.1c0.2,0,0.3,0.5,0.5,0.6s0.7-0.2,0.7-0.1c0.2,0.4,0.5-0.4,0.6,0.1c0.1-0.1,0.3-0.2,0.3-0.1
	c0.6,0.5,0.9,0.2,1.3-0.3c0-0.1,0.2-0.1,0.3-0.1c0.6,0.2,0.9,0.2,1.5,0.1c0.5-0.1,1.1,0.1,1.6-0.3c0.3,0.2,0.5,0.2,0.5-0.2
	c0.2,0.1,0.6,0.2,0.7,0.1c0.3-0.2,0.6-0.1,0.8-0.3c0.4-0.3,0.7-0.1,0.9,0.1c0.4,0.3,0.7,0.4,1.2,0.6c0.4,0.1,0.7,0,0.9-0.2
	c0.4-0.5,1.1-0.4,1.6-0.7c0.3-0.1,0.8-0.1,1.1-0.1c0.3,0,0.6-0.4,1-0.1h0.1c0.4,0,0.6-0.5,1-0.2c0.3,0.2,0.5-0.3,0.9-0.1
	c0.2,0.1,0.3,0.1,0.4,0.3c0,0.1,0.1,0.2,0.2,0.2c0.3,0,0.5,0,0.8,0c0.6-0.1,0.7-0.1,0.9,0.4c0,0.1,0.1,0.1,0.2,0.2
	c0.1-0.1,0.2-0.2,0.3-0.3c0-0.1-0.1-0.2-0.1-0.3c0.1,0,0.2,0,0.3,0l1.4,0.2c0.1-0.2,0.3-0.2,0.5,0c0.2,0.3,0.8-0.2,0.7,0.4
	c0.3-0.1,0.6-0.2,0.8-0.2c0.8,0.3,1.7,0.3,2.3,0.9c0.3,0.4,0.7,0.3,0.9,0c0.3-0.4,0.7,0,1-0.2l0.1,0.1c0.1,0.6,0.7,0.2,0.9,0.4
	c0.2-0.3,0.3-0.2,0.6,0c0.2,0.1,0.3,0.1,0.4-0.2c0.1-0.4,0.3-0.5,0.7-0.3c0.1,0,0.3-0.2,0.5-0.2c0.1,0.4,0.5,0.2,0.6,0.2
	c0.3-0.1,0.6-0.2,1-0.1c0.3,0.2,0.9-0.2,1.1,0.4c0.1,0,0.3,0,0.3-0.1c0.1-0.3,0.5,0.3,0.6-0.1c0.1,0.1,0.2,0.2,0.3,0.2
	c0.4,0.1,0.7,0.7,1.1,0.1c0.1-0.1,0.3,0,0.3,0.3l0.1,0.1c0.2,0-0.1-0.5,0.3-0.3c0.2,0.1,0.3,0.3,0.5,0.3c0.2,0.1,0.4,0,0.6-0.2
	c0,0,0.3,0.2,0.5,0.2s0.4,0,0.4,0.3c0,0,0.2,0.1,0.2,0c0.5-0.4,0.5-0.4,0.9-0.3c0.3,0.1,0.6,0.4,0.7-0.3c0.1-0.3,0.8-0.2,1.1,0.1
	c0.2,0.3,0.6,0.5,0.8,0.9h0.2c0-0.2,0-0.4,0.3-0.4c0.1,0,0.1,0.2,0.2,0.3c0.2,0.2,0.3,0.2,0.4,0c0.1-0.1,0.1-0.2,0.1-0.3
	c0.1,0.1,0.1,0.2,0.1,0.2c0.2,0.3,0.6,0.2,0.6,0.1c0.3-0.8,0.9-0.3,1.3-0.4c0,0,0.1,0.2,0.1,0.3c0.1,0.1,0.3,0.2,0.4,0.1
	s0.2-0.3,0.2-0.4c0.1,0.1,0.1,0.3,0.2,0.4c0.5-0.4,0.8,0.3,1.2,0.2c0.1,0,0.2,0,0.3,0.1c0.5,0.2,0.7,0.2,1.3,0.1
	c0.2,0,0.5-0.3,0.6,0.2c-0.2,0-0.3,0-0.4,0s-0.1,0.1-0.2,0.2c0.1,0.1,0.3,0.3,0.3,0.2c0.1,0,0.2-0.2,0.3-0.3c-0.1,0-0.1-0.1-0.1-0.1
	c0.5-0.2,0.9,0.3,1.1,0.1c0.3-0.3,0.7-0.1,1-0.3c0.3-0.2,0.6,0,0.8,0.3c0.2,0.2,0.4,0.3,0.6,0.2c0.4-0.4,0.8-0.1,1.2,0.1
	c0.1,0,0.2,0.1,0.3,0.1c0.3,0,0.6-0.3,0.8-0.2c0.3,0.1,0.5,0.2,0.8-0.1l0.1-0.1c0.6,0.7,1.2-0.1,1.8,0.1c0.2,0,0.3,0,0.4,0.2
	c0.1,0.3,0.2,0.3,0.4-0.1c0-0.1,0.1-0.1,0.1-0.2c0,0.1,0.1,0.2,0.1,0.3c0,0.1,0.1,0.1,0.1,0.2c0.3-0.3,0.6-0.4,1-0.4
	c0,0,0.1-0.2,0.1-0.3c0.1,0.1,0.2,0.2,0.1,0.2c0,0.4,0.3,0.5,0.5,0.7s0.2,0.1,0.2-0.2c0-0.2,0.4-0.3,0.5-0.2c0.1,0.5,0.5,0,0.8,0.2
	c0.2,0.2,0.6,0.1,0.8,0.3c0.3,0.3,0.7,0.1,1,0.1s0.4,0,0.6,0.3c0.1,0.2,0.6,0.3,0.9,0.5c0.3,0.1,0.4,0,0.4-0.3
	c0-0.2-0.1-0.5,0.3-0.2c0.3,0.2,0.5-0.1,0.8-0.2c0.2-0.1,0.5-0.1,0.5,0.3c0,0.5,0.2,0.1,0.4,0.1c0.1,0,0.3,0.1,0.3,0.2
	c0,0.3,0.2,0.2,0.4,0.3c0.3,0.1,0.6-0.3,1-0.1c0.3,0.2,0.6-0.4,1,0c0.5-0.6,1.2,0.3,1.7-0.3h0.1c0.3,0.2,0.6,0.7,1,0.3
	c0.4-0.4,0.6,0.2,0.9,0c0.2-0.1,0.5,0,0.6-0.1c0.4-0.5,0.8-0.1,1.2,0c0.4,0,0.7,0.3,1.1,0.4c0.2,0.1,0.3,0.1,0.5,0.1
	c0.6,0,0.8-0.1,1,0.2c0.3,0.3,1,0,1,0.6c0.3,0,0.6,0,0.9-0.1c0.5-0.2,1-0.4,1.5,0.2c0,0.1,0.3,0,0.4,0c-0.1-0.1-0.1-0.2-0.2-0.3
	c0-0.2,0-0.4,0-0.5c0.3,0.3,0.6-0.1,0.8-0.1c0.5-0.1,0.5,0.2,0.5,0.5c0,0.1,0.3,0.2,0.3,0.1c0.7-0.4,1.6-0.6,2.3-0.3
	c0.2,0.1,0.3,0.1,0.5,0c0.4-0.2,0.9,0.1,1.3,0.2c0.1,0.1,0.3,0.1,0.4,0.1c0.4-0.5,0.5-0.5,0.6,0.2c0,0.1,0.2,0.4,0.5,0.1
	c0.2-0.2,0.4-0.3,0.7-0.3c0.2,0,0.4,0.3,0.7,0c0,0,0.3,0.1,0.4,0.2c0.3,0.2,0.2,0.1,0.8-0.1c0.3-0.1,0.6-0.1,0.8,0
	c0.9,0.5,1.8,0.6,2.8,0.8c0.3,0.1,0.5,0.1,0.6,0.4c0.2-0.1,0.3-0.2,0.5,0c0.1,0.1,0.4-0.2,0.6-0.2c0.1,0,0.3,0.3,0.4,0.4
	c0,0,0.3-0.1,0.3-0.2c0.1-0.4,0.3-0.3,0.5-0.2c0.1,0.1,0.2,0.3,0.3,0.4c0.1,0.1,0.3-0.1,0.4,0s0.2,0.3,0.3,0.4
	c0.2,0.2,0.3,0.3,0.5-0.1c0.2-0.3,0.3-0.3,0.8-0.1c-0.1,0-0.2,0.1-0.3,0.2c0.1,0.1,0.1,0.2,0.2,0.3c0.1,0,0.2-0.1,0.3-0.3
	c0.1-0.2,0.3-0.3,0.4-0.3c0.3-0.1,0.5-0.3,0.7,0.2c0.2,0.4,0.6,0.3,0.9,0c0.1-0.1,0.2-0.3,0.3-0.3c0.1,0,0.2,0,0.3,0.1
	c-0.3,0.4,0.1,0.5,0.3,0.7c0.3,0.4,0.5,0.4,0.5-0.2c0-0.2,0.9-0.6,1.2-0.5c0.4,0.2,0.8,0.4,1.2,0.7c0.1,0,0,0.3,0,0.4
	c0,0.1,0,0.2,0,0.2c0.1-0.1,0.2-0.1,0.3-0.2v-0.1c-0.1-0.5,0-0.7,0.6-0.7c0.1,0,0.3,0,0.3-0.1c0.3-0.6,0.7-0.2,1.1-0.1l0.1,0.1
	c0.3,0,0.7,0,0.8,0.1c0.2,0.2,0.3,0.3,0.5,0.4c0.2,0.2,0.4,0.1,0.6-0.1c0.2-0.2,0.1-0.3-0.1-0.3c0,0-0.1-0.1-0.1-0.2
	c0.3,0.1,0.3-0.4,0.6-0.2c0.2,0.1,0.5,0.2,0.7,0.2c0.1,0,0.2-0.4,0.3-0.3c0.2,0.1,0.4,0.2,0.5,0.3c0.2-0.4,0.3,0.1,0.5,0
	c0.2,0,0.5-0.1,0.6,0c0.2,0.1,0.2,0.1,0.3,0c0.1-0.1,0.4,0,0.4,0c0.1,0.6,0.5,0.3,0.7,0.2c0.1-0.1,0.3-0.1,0.4-0.2
	c0.2-0.2,0.3-0.2,0.3,0.1l1.1,0.8c0.5,0.2,0.6,0.1,0.8-0.3c0.2-0.5,0.2-0.6,0.6-0.4c0.3,0.2,0.4,0,0.7-0.1c0.1-0.1,0.5,0.1,0.5,0.1
	c0.2-0.2,0.5,0.3,0.6-0.1c0-0.1,0.4-0.3,0.5-0.2c0.3,0.3,0.7,0,0.9,0.3c0.1,0.1,0.4,0.1,0.6,0.2l0.1-0.2c0-0.1,0.1-0.1,0.1-0.2
	c0.2,0.2,0.4,0.3,0.7,0c0.1-0.1,0.4,0.1,0.6,0.1c0.4,0.1,0.7,0.3,1-0.2c0.1-0.1,0.5-0.1,0.6,0c0.3,0.2,0.8-0.1,0.8,0.5
	c0,0,0.2,0,0.3,0c0.1,0,0.3-0.1,0.3-0.1c0.4,0.4,0.9,0.1,1.3,0c0.8-0.1,0.8-0.2,1.3,0.4l0,0c0.4,0.2,0.5-0.5,0.9-0.2
	c0.2,0.2,0.5,0.3,0.5,0.7c0,0,0.2,0.1,0.3,0.1c0.1,0,0.1-0.1,0.2-0.2c0-0.1,0-0.3,0-0.5c0.4,0,0.7-0.3,1-0.5c0.1,0,0.1,0,0.2,0
	c0,0.1,0,0.2,0,0.2c-0.1,0.3-0.2,0.7,0.2,0.9c0.2,0.1,0.4,0.1,0.6,0.2c-0.1-0.2-0.1-0.4-0.2-0.5c-0.1,0-0.1,0-0.1-0.1
	c0.3-0.2,0.7,0.6,1-0.1c0.1,0.1,0.2,0.2,0.3,0.3c-0.1,0.1-0.1,0.1-0.2,0.2c-0.1,0-0.1,0.1-0.2,0.1l0.1,0.1c0.2,0,0.4,0,0.8,0.1l0,0
	c0,0.2,0,0.4,0.3,0.3c0.1,0,0.1-0.1,0-0.3c0.1,0,0,0-0.1-0.1s-0.1-0.2-0.1-0.2c0.3-0.3,0.7,0.3,1-0.1c0,0.1,0.1,0.3,0.1,0.4
	c-0.1,0.1-0.1,0.1-0.2,0.2c0.1,0.1,0.2,0.2,0.2,0.3s0,0.3,0.1,0.4c0.2,0.2,0.4,0.3,0.7,0.4c0.1,0,0.3,0.1,0.4,0
	c0.1-0.2,0.1-0.4-0.2-0.4c-0.1,0-0.1,0-0.2-0.1c0.1-0.1,0.1-0.1,0.2-0.2c0.3-0.2,0.3-0.2-0.1-0.4c-0.2-0.1-0.2-0.3-0.1-0.2
	c0.2,0.1,0.5-0.7,0.6,0.1l0.1,0.1c0.4-0.4,1-0.1,1.5-0.3c0.3-0.1,0.3-0.1,0.2,0.2c0,0.1-0.3,0.2,0,0.3s0.7-0.1,1,0.2
	c0,0,0.3-0.2,0.4-0.3s0-0.1-0.3-0.2c-0.1,0-0.2,0-0.2,0c0-0.1-0.1-0.2-0.1-0.3c0,0,0.1-0.1,0.2-0.1c0.5,0,0.9,0.4,1,1
	c0,0.1,0.1,0.2,0.1,0.3c0-0.1,0-0.2,0.1-0.3s0.2-0.1,0.4-0.2c0,0.1-0.1,0.2-0.1,0.3s0,0.2,0.1,0.4c-0.1,0-0.2-0.1-0.3-0.1
	c-0.1,0-0.1,0.1-0.2,0.1c0.1,0.1,0.2,0.2,0.3,0.3c0-0.1,0.1-0.1,0.2-0.4c0.1,0.1,0.2,0.2,0.3,0.4c0.2-0.3,0.3,0,0.5,0
	s0.4-0.1,0.1-0.3c-0.1-0.1,0-0.2-0.1-0.3c0.1,0,0.3,0,0.3,0.1c0.1,0.4,0.3,0.5,0.6,0.2c0,0,0.2,0,0.2,0.1c0,0.2,0,0.4,0.3,0.3
	c0.7-0.1,1.3-0.2,2-0.2c0.1,0,0.2,0,0.2,0C421.6,12.4,422,12.4,422,12.8z M1.1,15.8c0-0.1,0-0.2,0-0.2c-0.1,0-0.2,0-0.3,0v0.1
	C0.9,15.8,1,15.8,1.1,15.8z M2.2,11.6c-0.1-0.1-0.1-0.2-0.1-0.3c-0.1,0.1-0.3,0.2-0.4,0.3c0.1,0,0.1,0.1,0.2,0.1
	C2,11.8,2.1,11.7,2.2,11.6z M3.1,16.6c-0.1,0-0.2,0-0.3,0l-0.1,0.1c0.1,0,0.2,0.1,0.3,0.1C3,16.8,3,16.7,3.1,16.6z M13.7,7.1
	c-0.1,0-0.1-0.1-0.2-0.1c-0.1,0-0.2,0.1-0.3,0.1c0.1,0,0.1,0.1,0.2,0.1C13.5,7.2,13.6,7.1,13.7,7.1z M23,4.6c0-0.1-0.1-0.2-0.1-0.3
	c-0.1,0.1-0.1,0.2-0.1,0.2c0,0.1,0.1,0.2,0.1,0.3C22.9,4.7,23,4.7,23,4.6z M41.4,3.9c-0.1,0-0.1-0.1-0.2-0.1c-0.1,0-0.1,0.1-0.2,0.1
	c0,0.1,0.1,0.2,0.1,0.2C41.3,3.9,41.3,3.9,41.4,3.9z M42.5,3.1c-0.1,0-0.1,0-0.3-0.1c0,0,0,0.1-0.1,0.2c0.1,0,0.1,0.1,0.2,0.1
	C42.4,3.2,42.5,3.1,42.5,3.1z M54.3,2.8c-0.1,0-0.1,0-0.3-0.1c0,0,0,0.1-0.1,0.2C54,3,54,3,54.1,3C54.2,3,54.2,2.9,54.3,2.8z
	 M63.4,4.2c0-0.1,0-0.2-0.1-0.3s-0.2,0-0.3,0S62.8,4,62.8,4c0.1,0,0.2,0.1,0.3,0.1S63.2,4.2,63.4,4.2C63.3,4.2,63.3,4.2,63.4,4.2z
	 M66.4,3.7c0-0.2-0.1-0.4-0.1-0.5c-0.1,0-0.2,0-0.2,0L66,3.3C66.1,3.5,66.2,3.7,66.4,3.7C66.3,3.9,66.4,3.8,66.4,3.7z M69.6,3.2
	c0,0.1,0.1,0.2,0.1,0.3l0.1-0.1C69.8,3.3,69.8,3.2,69.6,3.2C69.7,3.1,69.6,3.1,69.6,3.2z M69.9,17c-0.1-0.1-0.3-0.1-0.4-0.2
	c-0.2,0.1-0.3,0.1-0.4,0.2c0.1,0.1,0.2,0.3,0.3,0.3C69.6,17.3,69.7,17.2,69.9,17z M71,15.8c0-0.1-0.1-0.1-0.1-0.2
	c0,0.1-0.1,0.2-0.1,0.3c0.1,0.1,0.1,0.1,0.1,0.2C71,16,71,15.9,71,15.8z M71.6,4.1c0.1,0,0.2,0,0.3-0.1c-0.1-0.1-0.1-0.2-0.1-0.2
	c-0.1,0-0.2,0.1-0.3,0.1C71.6,4,71.6,4.1,71.6,4.1z M71.6,13.4c0.1,0.1,0.3,0.2,0.4,0.3c0-0.1,0.1-0.1,0.1-0.2
	c-0.1-0.1-0.1-0.2-0.2-0.3C71.7,13.4,71.6,13.4,71.6,13.4z M72.5,14.4c-0.3-0.1-0.4-0.2-0.4-0.1c-0.1,0.1-0.2,0.2-0.2,0.3
	c0.1,0,0.1,0.1,0.2,0.1C72.2,14.6,72.3,14.5,72.5,14.4z M72.6,12.8c0,0,0.1-0.1,0.1-0.2c-0.1,0-0.2,0-0.3,0l-0.1,0.1
	C72.4,12.8,72.5,12.8,72.6,12.8z M72.8,14.3c0,0-0.1-0.1-0.2-0.1c0,0-0.1,0.1-0.1,0.2c0,0.1,0.1,0.1,0.2,0.2
	C72.8,14.5,72.8,14.5,72.8,14.3z M73,4.6c-0.1-0.3-0.1-0.4-0.2-0.5c0,0.1-0.1,0.1-0.1,0.2s0.1,0.3,0.1,0.4C72.9,4.6,72.9,4.6,73,4.6
	z M74.4,17.7c-0.1-0.1-0.3-0.2-0.4-0.3c0,0.1-0.1,0.2-0.1,0.2c0.1,0.1,0.2,0.2,0.3,0.2C74.2,17.8,74.3,17.7,74.4,17.7z M74.7,11.9
	c-0.1,0-0.2-0.1-0.3-0.1c-0.1,0-0.1,0.1-0.2,0.1c0.1,0,0.2,0.1,0.3,0.1C74.6,12,74.7,11.9,74.7,11.9z M76.2,5.8
	c-0.1,0-0.1-0.1-0.2-0.1s-0.1,0.1-0.2,0.1c0,0.1,0.1,0.2,0.1,0.2C76.1,5.9,76.1,5.8,76.2,5.8z M78.1,4.7c0,0-0.1,0-0.2-0.1
	c0,0.1-0.1,0.1-0.1,0.2S77.9,4.9,78,5C78,5,78,4.9,78.1,4.7z M78.4,3.9c0.1,0,0.2-0.1,0.4-0.2c-0.2-0.1-0.3-0.3-0.3-0.3
	c-0.1,0-0.2,0.1-0.3,0.2C78.2,3.7,78.3,3.9,78.4,3.9z M78.9,5.2c-0.1-0.1-0.2-0.2-0.3-0.4c0,0.1-0.1,0.1-0.1,0.2s0.1,0.2,0.2,0.3
	C78.8,5.2,78.9,5.2,78.9,5.2z M79.9,17.1c0-0.1,0-0.2-0.1-0.3c-0.1,0.1-0.2,0.1-0.2,0.1c0,0.1,0.1,0.2,0.1,0.3
	C79.8,17.2,79.9,17.1,79.9,17.1z M81.1,6.1c-0.1,0-0.2,0-0.3,0l-0.1,0.1c0.1,0,0.2,0.1,0.3,0.1C81,6.3,81,6.2,81.1,6.1z M84.2,3.7
	c0-0.1,0-0.2-0.1-0.3L84,3.5C84,3.6,84.1,3.7,84.2,3.7C84.1,3.7,84.2,3.7,84.2,3.7z M87.2,7.9L87.2,7.9C87,7.9,87,8,87,8.1
	c0,0,0.1,0.1,0.2,0.1C87.2,8.1,87.2,8,87.2,7.9z M88.2,16.8c0-0.2,0.1-0.5-0.3-0.4c-0.1,0-0.2,0.2-0.2,0.2c0.1,0.2,0.2,0.3,0.5,0.6
	C88.2,16.9,88.2,16.8,88.2,16.8z M89.3,11c-0.1-0.1-0.2-0.1-0.2-0.1c-0.1,0-0.2,0.1-0.3,0.1c0.1,0,0.1,0.1,0.2,0.1
	S89.2,11.1,89.3,11z M90,3.6c0-0.1,0-0.2-0.1-0.3c-0.1,0.1-0.2,0.1-0.2,0.1c0,0.1,0.1,0.2,0.1,0.3C89.9,3.6,90,3.6,90,3.6z
	 M94.2,16.7c0-0.1-0.1-0.2-0.1-0.3c0,0.1-0.1,0.1-0.1,0.2s0.1,0.2,0.1,0.3C94.1,16.8,94.2,16.8,94.2,16.7z M94.4,4.3
	c-0.1,0-0.1-0.1-0.2-0.1S94.1,4.3,94,4.3c0,0.1,0.1,0.2,0.1,0.2C94.3,4.4,94.3,4.3,94.4,4.3z M96.1,17C96,16.9,96,16.8,96,16.8
	c-0.1,0-0.2,0.1-0.3,0.1l0.1,0.1C95.8,17,95.9,17,96.1,17z M96.8,17.1c0-0.1,0-0.2-0.1-0.3h-0.1c0,0.1,0,0.2,0.1,0.4
	C96.7,17.2,96.8,17.1,96.8,17.1z M98.6,4.1c-0.1-0.1-0.1-0.2-0.1-0.2c-0.1,0-0.2,0.1-0.3,0.1l0.1,0.1C98.3,4.1,98.4,4.1,98.6,4.1z
	 M103.9,12.5c-0.1,0-0.1,0-0.3-0.1c0,0,0,0.1-0.1,0.2c0.1,0,0.1,0.1,0.2,0.1C103.7,12.6,103.8,12.5,103.9,12.5z M106.8,10.8
	C106.8,10.9,106.8,10.9,106.8,10.8c0-0.1,0.1-0.2,0.1-0.4C106.9,10.7,106.8,10.8,106.8,10.8z M106.7,11.1L106.7,11.1
	c-0.2,0-0.4,0-0.4,0.3c0,0.1,0.1,0.1,0.1,0.2C106.6,11.4,106.6,11.4,106.7,11.1z M107,10.9c0-0.1,0-0.1-0.1,0.1
	C107,11,107,10.9,107,10.9z M110.3,3.2c-0.1,0-0.1-0.1-0.2-0.1s-0.1,0.1-0.2,0.1c0,0.1,0.1,0.2,0.1,0.2
	C110.1,3.2,110.2,3.2,110.3,3.2z M110.9,2.4c-0.1,0-0.2-0.1-0.3-0.1c-0.1,0.1-0.1,0.1-0.2,0.1c0.1,0,0.2,0.1,0.3,0.1
	C110.8,2.5,110.9,2.4,110.9,2.4z M111.9,14.8c0,0-0.1-0.1-0.2-0.1c0,0-0.1,0.1-0.1,0.2c0,0.1,0.1,0.1,0.2,0.2
	C111.9,15.1,111.9,15,111.9,14.8z M113.6,12.3c-0.1,0-0.2,0-0.3,0l-0.1,0.1c0.1,0,0.2,0.1,0.3,0.1C113.5,12.5,113.5,12.4,113.6,12.3
	z M116.1,3.5c-0.1,0-0.2-0.1-0.2-0.1c-0.1,0.1-0.2,0.1-0.3,0.2c0,0,0.1,0.1,0.2,0.2C115.9,3.7,116,3.6,116.1,3.5z M121.8,2.2
	c-0.1,0-0.2-0.1-0.3-0.1c-0.1,0.1-0.1,0.1-0.2,0.1c0.1,0,0.2,0.1,0.3,0.1C121.7,2.3,121.7,2.3,121.8,2.2z M130.5,4.9
	c-0.1,0-0.1,0-0.3-0.1c0,0,0,0.1-0.1,0.2c0.1,0,0.1,0.1,0.2,0.1C130.4,5.1,130.4,5,130.5,4.9z M135.2,2.5c0-0.1,0-0.2,0-0.2
	c-0.1,0-0.2,0-0.3,0v0.1C134.9,2.5,135,2.5,135.2,2.5z M139,7.5c0-0.1-0.1-0.1-0.1-0.2c-0.1,0.1-0.2,0.3-0.3,0.4
	c0.1,0,0.1,0,0.3,0.1C138.9,7.8,139,7.6,139,7.5z M141.9,2.2c0-0.1,0-0.2-0.1-0.3C141.7,2,141.6,2,141.6,2c0,0.1,0.1,0.2,0.1,0.3
	C141.8,2.3,141.9,2.2,141.9,2.2z M142.6,2c0,0-0.1-0.1-0.3-0.3c-0.1,0.2-0.1,0.3-0.1,0.4c0,0.1,0.2,0.2,0.2,0.2
	C142.5,2.2,142.6,2.1,142.6,2z M144.8,2.8c-0.1,0-0.2-0.1-0.3-0.1s-0.1,0.1-0.2,0.1c0.1,0.1,0.3,0.2,0.4,0.3
	C144.7,3,144.7,2.9,144.8,2.8z M145.8,5.1c-0.1-0.1-0.1-0.2-0.1-0.2c-0.1,0-0.2,0.1-0.3,0.1l0.1,0.1C145.5,5.1,145.6,5.1,145.8,5.1z
	 M146,4.5c-0.1,0-0.2,0-0.3,0l-0.1,0.1c0.1,0,0.2,0.1,0.3,0.1C145.9,4.6,145.9,4.5,146,4.5z M154.2,1.7c0,0-0.1,0-0.1-0.1
	c0,0.1-0.1,0.1-0.1,0.2s0.1,0.2,0.1,0.3C154.1,2,154.1,1.9,154.2,1.7z M163.7,15.8c-0.1,0-0.1-0.1-0.2-0.1c-0.1,0-0.1,0.1-0.2,0.1
	c0,0.1,0.1,0.2,0.1,0.2C163.6,15.9,163.6,15.8,163.7,15.8z M166.5,15.8c-0.1,0-0.2,0-0.3,0l-0.1,0.1c0.1,0,0.2,0.1,0.3,0.1
	C166.4,15.9,166.5,15.8,166.5,15.8z M166.7,3c-0.1-0.2-0.2-0.3-0.3-0.5c-0.1,0.1-0.1,0.2-0.1,0.2c0.1,0.2,0.2,0.3,0.4,0.5
	C166.6,3.2,166.7,3.1,166.7,3z M171.4,3.2c-0.1-0.1-0.1-0.2-0.2-0.2c-0.1,0.1-0.2,0.3-0.3,0.4c0.1,0,0.2,0.1,0.2,0.1
	C171.2,3.4,171.3,3.3,171.4,3.2z M172.1,5.4c-0.1,0-0.1-0.1-0.2-0.1c-0.1,0-0.1,0.1-0.2,0.1c0,0.1,0.1,0.2,0.1,0.2
	C172,5.4,172.1,5.4,172.1,5.4z M177.8,15.2c-0.1,0-0.1-0.1-0.2-0.1c-0.1,0-0.2,0.1-0.3,0.1c0.1,0,0.1,0.1,0.2,0.1
	C177.6,15.3,177.7,15.2,177.8,15.2z M179,16c-0.1,0-0.1,0-0.3-0.1c0,0,0,0.1-0.1,0.2c0.1,0,0.1,0.1,0.2,0.1
	C178.9,16.1,178.9,16,179,16z M182.3,4.5c0,0-0.1-0.1-0.2-0.1c0,0-0.1,0.1-0.1,0.2s0.1,0.1,0.2,0.2C182.2,4.8,182.3,4.7,182.3,4.5z
	 M184.3,4c0-0.1,0-0.2,0-0.2c-0.1,0-0.2,0-0.3,0v0.1C184,4,184.1,4,184.3,4z M186.6,15.4c-0.1-0.1-0.1-0.2-0.1-0.2
	c-0.1,0-0.2,0.1-0.3,0.1c0,0.1,0.1,0.1,0.1,0.1C186.4,15.5,186.5,15.5,186.6,15.4z M187.5,14.6l-0.1-0.1c0,0.1-0.1,0.2-0.1,0.3
	c0,0,0.1,0.1,0.2,0.1C187.5,14.8,187.5,14.7,187.5,14.6z M188.6,2.5c0-0.1-0.2-0.1-0.3-0.1c-0.3,0.1-0.1,0.2,0,0.3
	c0,0,0.1,0.1,0.1,0.2c0,0.1,0.1,0.1,0.2,0.2c0-0.1,0-0.1,0.1-0.2C188.7,2.8,188.7,2.6,188.6,2.5z M190.2,15.8
	c-0.2-0.1-0.3-0.2-0.4-0.2c-0.1,0-0.1,0.1-0.2,0.2c0.1,0.1,0.2,0.2,0.3,0.3C189.9,16,190,15.9,190.2,15.8z M192.3,15
	c-0.1,0-0.2-0.1-0.2-0.1c-0.1,0.1-0.2,0.2-0.3,0.2c0.1,0.1,0.1,0.2,0.2,0.2C192.1,15.3,192.2,15.1,192.3,15z M194.6,12.7
	c0,0,0.1-0.1,0.2-0.1c-0.1-0.1-0.3-0.2-0.4-0.3c0,0.1-0.1,0.2-0.1,0.2C194.4,12.6,194.5,12.6,194.6,12.7z M195,13.2
	c-0.1,0-0.1,0-0.3-0.1c0,0,0,0.1-0.1,0.2c0.1,0,0.1,0.1,0.2,0.1C194.9,13.4,194.9,13.3,195,13.2z M197.7,12.1c0-0.1,0-0.2,0-0.2
	c-0.1,0-0.2,0-0.3,0V12C197.5,12.1,197.6,12,197.7,12.1z M199.4,8.4l-0.1-0.1c0,0.1-0.1,0.2-0.1,0.3c0,0,0.1,0.1,0.2,0.1
	C199.4,8.6,199.4,8.5,199.4,8.4z M200.7,15.5c0-0.1,0-0.2-0.1-0.3c-0.1,0.1-0.2,0.1-0.2,0.1c0,0.1,0.1,0.2,0.1,0.3
	C200.6,15.5,200.7,15.5,200.7,15.5z M207.3,14.4c-0.1,0-0.1-0.1-0.2-0.1c-0.1,0-0.1,0.1-0.2,0.1c0,0.1,0.1,0.2,0.1,0.2
	C207.2,14.5,207.3,14.5,207.3,14.4z M212.4,5.6c-0.1,0-0.1-0.1-0.2-0.1c-0.1,0-0.1,0.1-0.2,0.1c0,0.1,0.1,0.2,0.1,0.2
	C212.2,5.6,212.3,5.6,212.4,5.6z M216.8,3.4c-0.2-0.1-0.3-0.2-0.4-0.2c-0.1,0-0.1,0.1-0.2,0.2c0.1,0.1,0.2,0.2,0.3,0.3
	C216.5,3.6,216.6,3.5,216.8,3.4z M225.9,8.4c-0.1,0-0.1,0-0.3-0.1c0,0-0.1,0.1-0.1,0.2c0,0,0.1,0.1,0.2,0.1
	C225.8,8.6,225.9,8.5,225.9,8.4z M230.5,2.7c-0.1,0-0.1-0.1-0.2-0.1c-0.1,0-0.1,0.1-0.2,0.1c0,0.1,0.1,0.2,0.1,0.2
	C230.3,2.8,230.4,2.7,230.5,2.7z M265,4.6c-0.1,0-0.1,0-0.3-0.1c0,0-0.1,0.1-0.1,0.2c0,0,0.1,0.1,0.2,0.1
	C264.9,4.7,264.9,4.6,265,4.6z M275.2,12.8c-0.1,0-0.1-0.1-0.2-0.1s-0.1,0.1-0.2,0.1c0,0.1,0.1,0.2,0.1,0.2
	C275.1,12.9,275.1,12.9,275.2,12.8z M276.5,7.1c-0.1,0-0.2,0-0.3,0l-0.1,0.1c0.1,0,0.2,0.1,0.3,0.1C276.4,7.3,276.5,7.2,276.5,7.1z
	 M279.4,13.3c-0.1,0-0.1-0.1-0.2-0.1s-0.1,0.1-0.2,0.1c0,0.1,0.1,0.2,0.1,0.2C279.3,13.3,279.3,13.3,279.4,13.3z M279.5,9.1
	c-0.1-0.2-0.1-0.2-0.1-0.3c0,0.1-0.1,0.1-0.1,0.2c0,0.1,0.1,0.1,0.1,0.2C279.3,9.1,279.4,9.1,279.5,9.1z M285.5,6.8
	c0-0.1-0.1-0.2-0.1-0.3c-0.1,0.1-0.1,0.2-0.1,0.2c0,0.1,0.1,0.2,0.1,0.3C285.5,6.9,285.5,6.9,285.5,6.8z M292.7,2.6
	c-0.1-0.1-0.1-0.1-0.1-0.2c0,0.1-0.1,0.2-0.1,0.3s0.1,0.1,0.1,0.2C292.6,2.8,292.7,2.7,292.7,2.6z M307.3,3.1
	C307.2,3,307.1,3,307.1,3c-0.1,0-0.2,0.1-0.3,0.1c0.1,0,0.1,0.1,0.2,0.1C307.1,3.2,307.2,3.1,307.3,3.1z M311.5,4.3
	c-0.1-0.1-0.2-0.2-0.3-0.4c0,0.1-0.1,0.1-0.1,0.2s0.1,0.2,0.2,0.3C311.3,4.3,311.4,4.3,311.5,4.3z M316.8,7.6c0-0.1-0.1-0.2-0.1-0.3
	c-0.1,0.1-0.1,0.2-0.2,0.3c0.1,0.2,0.1,0.3,0.1,0.3C316.7,7.8,316.8,7.7,316.8,7.6z M329.1,7.9C329,7.7,329,7.6,329,7.5
	c0,0.1-0.1,0.2-0.1,0.3c0,0.1,0.1,0.2,0.1,0.3C329,8.1,329,8,329.1,7.9z M341.4,13.6c-0.1,0-0.1-0.1-0.2-0.1s-0.2,0.1-0.3,0.1
	c0.1,0,0.1,0.1,0.2,0.1C341.2,13.7,341.3,13.6,341.4,13.6z M344.6,13c-0.1-0.1-0.1-0.3-0.2-0.4c0,0.1-0.1,0.2-0.1,0.3
	s0.1,0.3,0.1,0.4C344.5,13.2,344.6,13.1,344.6,13z M348.8,14.3l-0.1-0.1c0,0.1-0.1,0.2-0.1,0.3c0,0,0.1,0.1,0.2,0.1
	C348.8,14.5,348.8,14.4,348.8,14.3z M349,12c-0.1-0.1-0.3-0.2-0.4-0.3c0,0.1-0.1,0.2-0.1,0.2c0.1,0.1,0.2,0.2,0.3,0.2
	C348.8,12.1,348.9,12.1,349,12z M351.4,9.3c0,0-0.1-0.1-0.2-0.1c0,0-0.1,0.1-0.1,0.2c0,0.1,0.1,0.1,0.2,0.2
	C351.3,9.6,351.3,9.5,351.4,9.3z M352.6,7.9c0-0.1,0-0.3-0.1-0.5c-0.2,0.2-0.3,0.4-0.4,0.5c0,0.1,0.1,0.2,0.2,0.3
	C352.5,8.1,352.6,8,352.6,7.9z M353.1,11.3c0-0.1,0-0.3,0-0.5c0,0-0.1-0.1-0.2-0.1c0,0.3,0,0.6,0,0.8c0.1,0,0.1,0,0.1-0.1
	C353.1,11.5,353.1,11.4,353.1,11.3z M353.7,13.8c0-0.1,0-0.2-0.1-0.3c-0.1,0.1-0.2,0.1-0.2,0.1c0,0.1,0.1,0.2,0.1,0.3
	C353.6,13.9,353.7,13.8,353.7,13.8z M358,12.7c0-0.1,0-0.2,0-0.2c0.1-0.3-0.2-0.5-0.4-0.6h-0.2c-0.3,0.3,0.1,0.4,0.1,0.6
	c0,0.1,0,0.3,0.1,0.4c0,0,0.1,0.1,0.2,0.1s0.2,0,0.2-0.1C358,12.8,358,12.7,358,12.7z M359.6,13.7c-0.1,0-0.1,0-0.3-0.1
	c0,0-0.1,0.1-0.1,0.2c0,0,0.1,0.1,0.2,0.1C359.5,13.8,359.6,13.7,359.6,13.7z M360.6,13.8c0-0.1-0.1-0.2-0.1-0.3
	c0,0.1-0.1,0.1-0.1,0.2c0,0.1,0.1,0.2,0.1,0.3C360.5,13.9,360.6,13.9,360.6,13.8z M360.7,11.1c0,0.2,0.1,0.4,0.1,0.6
	c0,0,0.1,0,0.2,0c0,0,0.1,0,0.1-0.1c-0.1-0.2-0.2-0.4-0.3-0.5C360.9,11,360.8,11.1,360.7,11.1z M361.2,12.3c0,0-0.1-0.2-0.2-0.3
	c-0.1,0.2-0.2,0.3-0.2,0.4c0,0.1,0.1,0.1,0.2,0.2C361,12.5,361.1,12.4,361.2,12.3z M361.7,13.6c-0.1,0-0.1-0.1-0.2-0.1
	s-0.1,0.1-0.2,0.1c0,0.1,0.1,0.2,0.1,0.2C361.6,13.7,361.6,13.7,361.7,13.6z M362.3,15.1c-0.1-0.1-0.1-0.2-0.2-0.3
	c0,0.1-0.1,0.2-0.1,0.3s0.1,0.2,0.2,0.3C362.3,15.4,362.3,15.3,362.3,15.1z M363.9,10.8c-0.1-0.1-0.2-0.2-0.3-0.2
	c0,0.1-0.1,0.1-0.1,0.2c0,0.1,0.1,0.3,0.2,0.5C363.9,10.9,363.9,10.8,363.9,10.8z M364.5,11.5c-0.2-0.1-0.3-0.2-0.4-0.2
	s-0.1,0.1-0.2,0.2c0.1,0.1,0.2,0.2,0.3,0.3C364.2,11.7,364.3,11.6,364.5,11.5z M366.1,8.5c0.1,0,0.1,0.1,0.2,0.1s0.2-0.1,0.3-0.1
	c-0.1,0-0.1-0.1-0.2-0.1S366.2,8.4,366.1,8.5z M366.6,16c-0.2-0.1-0.3-0.3-0.3-0.3c-0.1,0-0.2,0.1-0.3,0.2c0,0,0.1,0.2,0.2,0.2
	C366.3,16.2,366.4,16.1,366.6,16z M367.4,8.1c-0.1,0-0.1,0-0.3-0.1c0,0-0.1,0.1-0.1,0.2c0,0,0.1,0.1,0.2,0.1
	C367.3,8.3,367.3,8.2,367.4,8.1z M367.9,15.5c0-0.1,0-0.2-0.1-0.3c-0.1,0.1-0.2,0.1-0.2,0.1c0,0.1,0.1,0.2,0.1,0.3
	C367.8,15.6,367.9,15.6,367.9,15.5z M368.6,12.2c-0.1-0.1-0.1-0.2-0.1-0.3c-0.1,0.1-0.2,0.2-0.4,0.3c0.1,0,0.1,0.1,0.2,0.1
	C368.4,12.4,368.5,12.3,368.6,12.2z M370.5,10c-0.1-0.1-0.1-0.2-0.2-0.3c-0.1,0.1-0.2,0.1-0.2,0.2c0.1,0.1,0.3,0.2,0.4,0.3
	C370.5,10.1,370.6,10,370.5,10z M373.3,14.6c0-0.1,0-0.2,0-0.2c-0.1,0-0.2,0-0.3,0v0.1C373.1,14.6,373.2,14.6,373.3,14.6z M375,11.1
	c0-0.1-0.1-0.2-0.1-0.3c0,0.1-0.1,0.1-0.1,0.2c0,0.1,0.1,0.2,0.1,0.3C374.9,11.3,375,11.2,375,11.1z M376.5,18c-0.1,0-0.1,0-0.3-0.1
	c0,0-0.1,0.1-0.1,0.2c0,0,0.1,0.1,0.2,0.1C376.4,18.1,376.5,18.1,376.5,18z M378.4,18.3c-0.1-0.2-0.2-0.4-0.3-0.6
	c0,0-0.1-0.1-0.2-0.1l-0.1,0.1c0,0.3,0,0.5,0.3,0.7c0.1,0,0.1,0,0.2,0.1C378.4,18.4,378.4,18.3,378.4,18.3z M380.1,14.2
	c-0.1-0.1-0.2-0.1-0.2-0.1c-0.1,0-0.2,0.1-0.3,0.1c0.1,0,0.1,0.1,0.2,0.1C379.9,14.3,380,14.2,380.1,14.2z M380.8,11.2l0.2,0.2
	c0.2-0.1,0.3-0.2,0.5-0.4c-0.1,0-0.2-0.1-0.4-0.1C381,11,380.9,11.1,380.8,11.2z M380.6,15c0.1,0,0.1,0.1,0.2,0.1s0.2-0.1,0.3-0.1
	c-0.1-0.1-0.2-0.1-0.2-0.1C380.7,14.9,380.6,15,380.6,15z M381.5,16.6C381.6,16.6,381.5,16.6,381.5,16.6c-0.3-0.3-0.4,0-0.6,0.1
	s-0.4,0-0.7,0.1l-0.1,0.1c0,0.1,0.1,0.1,0.1,0.1c0.1,0,0.2,0,0.3,0c0.1,0,0.2,0,0.2,0C381.2,17,381.4,16.9,381.5,16.6z M382.3,17
	l-0.1-0.1c0,0.1-0.1,0.2-0.1,0.3c0,0,0.1,0.1,0.2,0.1C382.3,17.2,382.3,17.1,382.3,17z M382.6,18.3c0-0.1-0.1-0.2-0.1-0.3
	c-0.1,0.1-0.1,0.2-0.1,0.2c0,0.1,0.1,0.2,0.1,0.3C382.5,18.5,382.6,18.4,382.6,18.3z M382.3,10.3c-0.1-0.1-0.1-0.2-0.2-0.4
	c0-0.1-0.1-0.1-0.1-0.1c0,0.1-0.1,0.1-0.1,0.2c0,0.1,0,0.1,0,0.2v0.1c-0.1,0.5,0.4,0.3,0.5,0.5h0.1
	C382.7,10.5,382.5,10.4,382.3,10.3z M383.4,14.1c0.1,0,0.2-0.1,0.4-0.2c-0.2-0.1-0.3-0.3-0.3-0.3c-0.1,0.1-0.2,0.1-0.3,0.2
	C383.3,13.9,383.4,14.1,383.4,14.1z M384.3,16.5c-0.1,0-0.1-0.1-0.2-0.1s-0.3,0.1-0.4,0.1c0,0.1,0.1,0.2,0.1,0.2
	C384,16.6,384.2,16.5,384.3,16.5z M388.8,17.9c-0.1-0.1-0.2-0.2-0.2-0.3c-0.1,0.1-0.2,0.1-0.2,0.2c0.1,0.1,0.3,0.2,0.4,0.3
	C388.8,18,388.8,18,388.8,17.9z M390.4,13.8c-0.1-0.1-0.2-0.1-0.3-0.2c-0.2,0.1-0.3,0.1-0.3,0.1c0.1,0,0.2,0.1,0.3,0.1
	C390.2,13.9,390.3,13.9,390.4,13.8z M393.4,12.7c0,0,0.1,0,0.1-0.1C393.5,12.6,393.5,12.6,393.4,12.7z M393.1,12.7l0.1,0.1
	c0,0,0,0,0.1,0c0-0.1,0-0.1,0.1-0.2C393.3,12.6,393.2,12.7,393.1,12.7z M391.7,15.8c-0.1-0.1-0.2-0.1-0.2-0.1
	c-0.1,0-0.2,0.1-0.3,0.1c0.1,0,0.1,0.1,0.2,0.1C391.5,15.9,391.6,15.8,391.7,15.8z M392.1,14.6c-0.1,0-0.2-0.1-0.3-0.1
	c-0.1,0-0.2,0.1-0.3,0.1c0.1,0.1,0.2,0.1,0.3,0.2C391.9,14.7,392,14.7,392.1,14.6z M392.3,17.4c0,0-0.1-0.1-0.2-0.1
	c0,0-0.1,0.1-0.1,0.2s0.1,0.1,0.2,0.2C392.2,17.6,392.2,17.6,392.3,17.4z M392.4,15.2c0.1-0.1,0.1-0.1,0.2-0.2
	c-0.1,0-0.1-0.1-0.2-0.1s-0.2,0.1-0.3,0.1C392.2,15.1,392.2,15.1,392.4,15.2z M392.6,15.4L392.6,15.4c0.1,0.1,0.2,0.2,0.3,0.4
	c0,0,0.1,0,0.2,0C393,15.8,393.1,15.7,392.6,15.4z M393.1,15.6c-0.1-0.1-0.3-0.3-0.4-0.5h-0.1c0,0.1,0,0.1,0,0.2
	C392.7,15.4,392.9,15.5,393.1,15.6z M393.2,13.1c-0.1-0.1-0.1-0.2-0.2-0.3c0,0.1-0.1,0.2-0.1,0.3s0.1,0.3,0.1,0.4
	C393.1,13.4,393.1,13.3,393.2,13.1z M394.1,17.7c-0.1,0-0.2-0.1-0.4-0.1c-0.1,0.1-0.2,0.1-0.3,0.2c0.1,0,0.2,0.1,0.3,0.1
	C393.9,17.8,394,17.8,394.1,17.7z M393.7,16.5c0-0.1,0.1-0.1,0.1-0.2s-0.1-0.2-0.1-0.3c0,0.1-0.1,0.1-0.1,0.2S393.7,16.4,393.7,16.5
	z M394.2,10.3c-0.1-0.1-0.2-0.3-0.3-0.3c-0.2,0-0.4-0.1-0.4,0.2c0,0.1,0.1,0.2,0.2,0.4C393.9,10.4,394,10.4,394.2,10.3z M395.8,10.7
	c0,0,0.1,0.1,0.2,0.1c0-0.1,0-0.2,0-0.3l-0.1-0.1C395.8,10.5,395.8,10.6,395.8,10.7z M395.4,14.6l0.1,0.1c0.1,0,0.2,0,0.3-0.1
	c-0.1-0.1-0.1-0.2-0.1-0.2C395.6,14.5,395.5,14.6,395.4,14.6z M395.1,14.4c0.1-0.2,0.2-0.3,0.2-0.4c-0.1-0.1-0.2-0.1-0.3-0.2
	c-0.1,0.1-0.2,0.2-0.1,0.2C394.9,14.2,395,14.3,395.1,14.4z M395.5,16c0.2-0.2,0.2-0.3,0-0.4c-0.1,0-0.1-0.1-0.2-0.1
	c0,0.1-0.1,0.3-0.1,0.3c0,0.1,0,0.2,0,0.2c0,0.1,0.1,0.3,0.1,0.4C395.4,16.3,395.4,16.1,395.5,16z M396.1,17.2
	c-0.2-0.1-0.3-0.2-0.4-0.2c-0.1,0.1-0.2,0.2-0.2,0.3c0.1,0.1,0.2,0.2,0.2,0.2C395.8,17.5,395.9,17.4,396.1,17.2z M396.5,10.2
	l-0.1-0.1c0,0.1-0.1,0.2-0.1,0.3c0,0,0.1,0.1,0.2,0.1C396.4,10.4,396.5,10.3,396.5,10.2z M398.1,10.8c0.2-0.2,0.4-0.4,0.4-0.4
	c-0.1-0.2-0.3-0.4-0.6-0.3c-0.1,0-0.2,0.1-0.3,0.2C397.8,10.4,397.9,10.5,398.1,10.8z M398.6,19.1c-0.1,0-0.1-0.1-0.2-0.1
	s-0.2,0.1-0.3,0.1c0.1,0,0.1,0.1,0.3,0.1l0,0C398.5,19.2,398.5,19.1,398.6,19.1z M398.8,14.5c-0.2-0.1-0.4-0.3-0.5-0.4h-0.1
	l-0.1,0.1c0.2,0.2,0.4,0.3,0.6,0.5C398.7,14.7,398.8,14.7,398.8,14.5z M400.5,12.2c0,0.1,0.1,0.2,0.1,0.2c0.2-0.1,0.2-0.1,0.3-0.1
	c-0.1,0-0.1-0.1-0.2-0.1C400.7,12.1,400.6,12.2,400.5,12.2z M399.9,10.3c0.1-0.1,0.2-0.2,0.4-0.3c-0.1-0.2-0.2-0.3-0.3-0.3
	c-0.3-0.1-0.3,0.1-0.3,0.3C399.7,10.1,399.8,10.2,399.9,10.3z M400.6,14.4c-0.1,0-0.2-0.1-0.3-0.1c-0.2,0-0.5-0.1-0.4,0.3
	c0,0.2,0,0.5,0.2,0.4C400.4,14.9,400.5,14.6,400.6,14.4z M401,16.3c-0.1,0-0.2,0-0.3,0l-0.1,0.1c0.1,0,0.2,0.1,0.3,0.1
	C400.9,16.5,400.9,16.4,401,16.3z M402.2,16.1c0,0-0.1-0.1-0.2-0.1c0,0-0.1,0.1-0.1,0.2s0.1,0.1,0.2,0.2
	C402.1,16.4,402.1,16.3,402.2,16.1z M405.5,14.8c0,0,0.1,0,0.1,0.1c0.1-0.1,0.1-0.1,0.2-0.2C405.7,14.6,405.6,14.7,405.5,14.8z
	 M405.5,14.9c0,0-0.2,0-0.2,0.1C405.3,15,405.3,15.1,405.5,14.9L405.5,14.9z M405.1,11.6c0.1,0.1,0.2,0.2,0.3,0.2
	c0,0,0.1-0.1,0.3-0.3c-0.2-0.1-0.3-0.1-0.4-0.1C405.2,11.4,405.1,11.6,405.1,11.6z M404.4,11.6c0.1,0,0.1,0.1,0.2,0.1
	s0.2-0.1,0.3-0.1c-0.1,0-0.1-0.1-0.2-0.1C404.6,11.5,404.5,11.5,404.4,11.6z M404.8,13.8c-0.1-0.1-0.2-0.2-0.3-0.2
	c0,0.1-0.1,0.1-0.1,0.2c0,0.1,0.1,0.2,0.2,0.5C404.7,13.9,404.8,13.8,404.8,13.8z M404.3,15.9c0,0.1-0.1,0.2-0.1,0.2
	c0.1,0.1,0.1,0.2,0.2,0.3c0,0,0.1-0.1,0.2-0.2C404.5,16.1,404.4,16,404.3,15.9z M403.3,9.9c0.1,0.1,0.3,0.1,0.3,0.2
	c0.1,0.1,0.1,0.3,0.1,0.6c0.2-0.3,0.4-0.5,0.6-0.7c-0.2-0.1-0.5-0.1-0.7-0.2C403.6,9.9,403.4,9.9,403.3,9.9z M403.6,12.4
	c0,0-0.1,0.1-0.1,0.2c0,0,0.1,0.1,0.2,0.1s0.1-0.1,0.2-0.2C403.9,12.5,403.8,12.5,403.6,12.4z M403.1,10.9c0.1,0.1,0.3,0.2,0.5,0.3
	c0,0,0.1-0.2,0.2-0.5l0,0c0,0-0.1-0.1-0.2-0.2C403.5,10.5,403,10.9,403.1,10.9z M403.8,18.5c-0.2-0.2-0.3-0.3-0.5-0.4
	c0,0.1-0.1,0.2-0.1,0.3c-0.1,0.2-0.2,0.3-0.2,0.5c0,0.1,0.1,0.2,0.1,0.3c0-0.1,0.1-0.2,0.1-0.3C403.3,18.7,403.5,18.6,403.8,18.5z
	 M404.7,17.7c-0.3-0.1-0.1-0.5-0.5-0.5c-0.3,0-0.6,0.3-0.6,0.4c0.1,0.3,0.4,0.4,0.9,0.2C404.5,17.9,404.6,17.8,404.7,17.7z
	 M404.9,17c-0.1-0.1-0.2-0.2-0.3-0.2c0,0.1-0.1,0.1-0.1,0.2s0.1,0.3,0.2,0.5C404.9,17.1,405,17,404.9,17z M405.1,15.5
	c-0.1-0.2-0.1-0.2-0.1-0.3c0,0.1-0.1,0.1-0.1,0.2c0,0.1,0.1,0.1,0.1,0.2C405,15.5,405.1,15.5,405.1,15.5z M405.7,18.4
	c-0.1,0-0.2,0-0.3,0l-0.1,0.1c0.1,0,0.2,0.1,0.3,0.1C405.6,18.6,405.7,18.5,405.7,18.4z M405.6,15c-0.1,0.1-0.2,0.2-0.3,0.3
	c0,0.2,0,0.3,0.1,0.5c0,0,0.1,0.1,0.2,0.1s0.2,0,0.2-0.1C405.8,15.6,405.8,15.2,405.6,15z M406.2,14.7c-0.1,0-0.1,0-0.4,0.1
	C405.9,14.8,406.1,14.7,406.2,14.7z M409.5,11.5c0.1,0,0.1,0.1,0.2,0.1s0.2-0.1,0.3-0.1c-0.1,0-0.1-0.1-0.2-0.1
	C409.7,11.4,409.6,11.5,409.5,11.5z M409.2,15.9c0-0.1,0.1-0.1,0-0.1C409.2,15.7,409.2,15.7,409.2,15.9z M408.8,11.1
	c0.1,0.1,0.2,0.2,0.3,0.4c0-0.1,0.1-0.1,0.1-0.3c-0.1-0.1-0.2-0.1-0.3-0.2C408.9,11,408.9,11,408.8,11.1z M408.6,11.8
	c0.1,0,0.2,0.1,0.3,0.1c0,0,0.1-0.1,0.1-0.2c-0.1,0-0.2,0-0.3,0C408.7,11.7,408.6,11.8,408.6,11.8z M409,15.5
	c-0.1,0.2-0.2,0.3-0.1,0.3c0.1,0.1,0.1,0.1,0.2,0.1C409,15.8,409,15.7,409,15.5z M408.3,13.9c0,0,0.1,0.1,0.2,0.1s0.1-0.1,0.2-0.2
	c-0.1,0-0.1,0-0.3-0.1C408.3,13.8,408.3,13.9,408.3,13.9z M407.4,15.7c0,0.1,0.1,0.1,0.1,0.2c0-0.1,0.1-0.2,0.1-0.3
	c-0.1-0.1-0.1-0.1-0.1-0.2C407.5,15.6,407.4,15.6,407.4,15.7z M406.4,13.6c0.3,0,0.6,0,0.8,0c0-0.1,0-0.1-0.1-0.1s-0.1,0-0.2,0
	c-0.2,0-0.3,0-0.5,0C406.4,13.4,406.4,13.5,406.4,13.6z M406.7,15.7c-0.1-0.1-0.1-0.2-0.1-0.2c-0.1,0-0.2,0.1-0.3,0.1l0.1,0.1
	C406.5,15.7,406.6,15.7,406.7,15.7z M407.4,18.6c-0.1,0-0.2-0.1-0.3-0.1c0,0-0.1,0.1-0.2,0.1c0.1,0.1,0.3,0.2,0.4,0.3
	C407.3,18.8,407.3,18.8,407.4,18.6z M408,16.4c-0.3-0.1-0.5-0.2-0.7-0.3c0,0.1-0.1,0.2-0.1,0.3c0.1,0.3,0.3,0.2,0.4,0.2
	C407.8,16.6,407.8,16.5,408,16.4z M408.4,17.4c0-0.1,0-0.3,0-0.4l-0.1-0.1c-0.1,0-0.1,0.1-0.1,0.1c0,0.2,0,0.4-0.1,0.5
	c-0.2,0.3,0,0.3,0.1,0.3C408.6,17.7,408.5,17.7,408.4,17.4z M409,16.5c-0.2,0-0.2-0.2-0.2-0.3c0.1-0.5-0.3-0.3-0.5-0.3
	c-0.1,0-0.2,0.1-0.2,0.2c0.2,0.3,0.4,0.5,0.6,0.7C408.9,16.8,409,16.8,409,16.5z M410.1,15c-0.1,0-0.2-0.1-0.3-0.1
	c-0.1,0.1-0.3,0.1-0.4,0.2c0.1,0.1,0.2,0.3,0.3,0.3C409.9,15.2,410,15.1,410.1,15z M410.8,13.9c0,0.1,0,0.2,0,0.2
	c0,0.6,0.4-0.3,0.5,0.1c0,0,0.2,0,0.2-0.2c0-0.1,0-0.1,0-0.4c0-0.1,0-0.2-0.1-0.4l-0.1-0.1c0,0.1-0.1,0.1-0.1,0.2c0,0.1,0,0.1,0,0.2
	c-0.1,0-0.2,0-0.2-0.1c-0.2-0.2-0.4-0.5-0.6-0.7c-0.1-0.1-0.4,0-0.4,0.2s-0.1,0.5,0.3,0.4C410.7,13.4,410.8,13.6,410.8,13.9z
	 M411,14.9c-0.1,0.1-0.3,0.1-0.3,0.2c-0.1,0.3,0.3,1,0.6,1.1c0.1,0,0.2-0.1,0.3-0.3C411.4,15.6,411.2,15.2,411,14.9z M413.9,11.7
	c-0.1-0.2-0.2-0.3-0.3-0.4c-0.1,0.1-0.1,0.2-0.2,0.2c0,0.1-0.1,0.1-0.1,0.2c-0.1,0.1-0.2,0.1-0.3,0.1c0.1,0.1,0.2,0.1,0.2,0.1
	c0.2,0,0.3,0,0.4,0C413.7,11.8,413.9,11.7,413.9,11.7z M416,11.7c-0.1-0.1-0.1-0.2-0.2-0.2c-0.2,0-0.3,0.1-0.1,0.2l0.1,0.1
	c-0.1,0.1-0.3,0.3,0.1,0.3c0.1,0,0.1-0.2,0.2-0.3C416,11.8,416,11.7,416,11.7z M411.8,15.4c0,0,0.1,0.1,0.2,0.1s0.1-0.1,0.2-0.2
	c-0.1,0-0.1,0-0.3-0.1C411.9,15.2,411.8,15.3,411.8,15.4z M180.3,2.2L180.3,2.2c-0.1-0.1-0.1-0.1-0.2-0.2c-0.1,0.1-0.2,0.1-0.2,0.2
	l0,0C180,2.2,180.2,2.2,180.3,2.2z M387.5,19.1C387.6,19.1,387.6,19.1,387.5,19.1C387.6,19.1,387.6,19.1,387.5,19.1
	C387.6,19,387.6,19.1,387.5,19.1z M88.6,3.1c0.1,0,0.1,0,0.2,0C88.9,3.1,88.9,3,89,3c-0.1,0-0.1-0.1-0.2-0.1s-0.1,0-0.2,0
	C88.6,2.9,88.6,3,88.6,3.1L88.6,3.1z M57.7,3.2L57.7,3.2C57.6,3.1,57.6,3.1,57.7,3.2c-0.1-0.1-0.1-0.1-0.2-0.1l0,0
	C57.5,3.1,57.6,3.1,57.7,3.2L57.7,3.2z M416.6,18.9c0.1,0.1,0.1,0.2,0.2,0.2s0.2,0,0.4-0.1c-0.2-0.1-0.3-0.1-0.4-0.1
	C416.8,18.8,416.7,18.9,416.6,18.9z M415.5,18.8c0,0.1,0.2,0.4,0.4,0.6c0.3-0.3,0.5-0.5,0.6-0.7c0-0.1-0.3-0.4-0.4-0.5
	C415.9,18.4,415.7,18.6,415.5,18.8z M417.8,15.7c0,0,0.1,0.1,0.2,0.1c0-0.1,0-0.2,0-0.3l-0.1-0.1C417.9,15.5,417.8,15.6,417.8,15.7z
	 M417,17.6c0,0,0.1,0.1,0.2,0.1c0-0.1,0-0.2,0-0.3l-0.1-0.1C417,17.4,417,17.5,417,17.6z M416.9,15.2c-0.1,0-0.2,0-0.3,0l-0.1,0.1
	c0.1,0,0.2,0.1,0.3,0.1C416.8,15.4,416.8,15.3,416.9,15.2z M375.3,9.4L375.3,9.4c0,0,0.1,0.1,0.2,0.1C375.4,9.5,375.4,9.4,375.3,9.4
	z M423.2,12.7c-0.1,0-0.2,0.2-0.2,0.3c0,0,0.1,0.1,0.3,0.3c0.1-0.2,0.3-0.4,0.4-0.5C423.5,12.7,423.3,12.7,423.2,12.7z M435.7,13.7
	c-0.1,0.4-0.3,0.7-0.1,1.1c0.1,0.2,0,0.4-0.3,0.4c-0.4,0-1-0.2-1.6-0.5c-0.5-0.2-1.1-0.4-1.6-0.2c-0.4,0.1-0.7-0.1-1,0
	c-0.6,0.1,0.3-0.5-0.2-0.4c-0.4,0.1-0.9-0.1-1.3,0.3c-0.1,0.1-0.3,0.1-0.4,0.1l-0.1-0.1c0,0,0-0.1,0.1-0.1c0.1-0.1,0.2-0.1,0.3-0.2
	c-0.1,0-0.2-0.1-0.3-0.1c-0.3,0.2-0.5-0.6-0.8-0.1c-0.2,0.3-0.4-0.2-0.6,0.1s-0.5-0.1-0.6-0.3c-0.1-0.5-0.2-0.1-0.4-0.1
	c-0.5,0.2-0.8-0.2-1.3-0.2c-0.2,0-0.5-0.1-0.7-0.2c-0.1,0-0.1-0.1-0.2-0.1c0.2-0.2,0.3-0.4,0.5-0.5c0.1-0.1,0.3-0.1,0.4,0
	c0.6,0.3,1.3,0.1,2,0.4c0.6,0.3,1.3,0.3,2,0.4c0.3,0,0.5,0.1,0.7,0.3c0.1,0.1,0.3,0.2,0.4,0.1c0.4-0.1,0.8,0.1,1.2,0.2
	c0.4,0,0.7,0,1.1,0.2c0.3,0.1,0.4-0.1,0.4-0.4c0-0.2-0.5-0.3-0.1-0.5l-0.1-0.2c-0.2-0.1-0.3-0.1-0.5-0.1c0.1-0.1,0.3-0.1,0.4-0.2
	c0.2-0.1,0.4-0.3,0.6-0.4C434,12,434,12,434,12.6c0,0.2,0,0.3,0,0.5c0,0.1,0.2,0.1,0.3,0.1c0.1,0,0.2-0.1,0.2-0.2
	c0-0.5,0-0.5,0.5-0.5c0,0,0.4,0,0.4,0.1C435.6,13,435.8,13.4,435.7,13.7z M434.8,14c0-0.1,0-0.2-0.1-0.3c-0.1,0.1-0.2,0.1-0.2,0.1
	c0,0.1,0.1,0.2,0.1,0.3C434.7,14.1,434.8,14,434.8,14z M410.2,10.8L410.2,10.8c-0.1,0-0.1-0.1-0.1-0.1s0,0-0.1,0l-0.1,0.1
	C410,10.8,410.1,10.8,410.2,10.8L410.2,10.8z"/>
</svg>
