<?xml version="1.0" encoding="utf-8"?>
<!-- Generator: Adobe Illustrator 23.0.3, SVG Export Plug-In . SVG Version: 6.00 Build 0)  -->
<svg version="1.1" id="Layer_1" xmlns="http://www.w3.org/2000/svg" xmlns:xlink="http://www.w3.org/1999/xlink" x="0px" y="0px"
	 viewBox="0 0 300 29.3" style="enable-background:new 0 0 300 29.3;" xml:space="preserve">
<style type="text/css">
	.st0{fill:#3E50B4;}
</style>
<path class="st0" d="M14.9,15c40.9,0.3,81.9,0.7,122.8,0.7c1,0,1-1.3,0-1.3c-40.9,0-81.9-0.7-122.8-0.7C14.2,13.6,14.2,15,14.9,15
	L14.9,15z M73.5,14c-3.3-0.3-6.7-2-9.6-3c-4.7-1.7-9-4-13.3-6.7c-1-0.7-1.7,0.7-0.7,1.3c4.3,2.7,9,5,13.6,6.7c3.3,1.3,6.7,3,10.3,3
	C74.5,15.3,74.5,14,73.5,14L73.5,14z M44.5,14c-3.7-2-8-3.3-11.3-5.7c-0.7-0.7-1.3,0.7-0.7,1.3c3.3,2.3,7.7,4.3,11.6,5.7
	C44.5,15.3,45.2,14.3,44.5,14L44.5,14z M24.9,14c-2-2.7-4.3-4.3-7.7-4c-2,0.3-4.3,1.3-6.3,1.7c-3.3,0.7-7,1.7-10.3,2.3
	c-1,0.3-0.7,1.7,0.3,1.3c3.7-0.7,7-1.7,10.6-2.3c4.7-1,8.7-2.7,12.3,1.7C24.2,15,25.2,14.3,24.9,14L24.9,14z M24.2,14.3
	c-0.7,0.7-1.3,1.7-2,2.3c-2.7,2.7-5.7,1.3-9,0.3c-4-1.3-8.3-2.3-12.3-3.3c-1,0-1.3,1.3-0.3,1.7c3,0.7,6,1.3,9,2.3
	c2.7,0.7,5.3,2,8,2.3c3.7,0.3,5.7-2,7.7-4.7C25.6,14.6,24.6,14,24.2,14.3L24.2,14.3z M49.2,3.3c-0.3,1-1,1.3-2,1.3s-1.7-1-1.3-2
	c0.7-2.3,4.3,0,3.3,1.3c-0.3,0.7,0.3,1.3,1,1c1.7-1,0-3.3-1-4c-1.7-1-3.7-1-4.7,1c-1.7,4.7,6.3,5.3,6,1.7
	C50.2,2.7,49.2,2.7,49.2,3.3L49.2,3.3z M73.5,14.3c-3.7,0.3-7,2-10.3,3c-4.7,1.7-9.3,4-13.6,6.7c-1,0.7,0,2,0.7,1.3
	c4.3-2.7,8.7-5,13.3-6.7c3.3-1.3,6.3-2.7,9.6-3C74.5,15.3,74.5,14,73.5,14.3L73.5,14.3z M44.5,14.3c-4.3,1.3-8.7,3.3-12,5.7
	c-0.7,0.7,0,1.7,0.7,1.3c3.7-2.7,8-4,12-6C45.5,15,45.2,14,44.5,14.3L44.5,14.3z M50.2,25.9c0-4-8-3-6,1.7c0.7,2,2.7,2,4.3,1
	c1-0.7,3-3,1-4c-0.7-0.3-1.3,0.3-1,1c0.7,1.3-2.3,3.3-3.3,1.3c-0.3-1,0.3-2,1.3-2c1-0.3,2,0.3,2.3,1.3
	C49.2,26.9,50.2,26.6,50.2,25.9L50.2,25.9z M32.2,21.6c0,2.3-3.3,2.3-3.7,0C28.2,19.3,31.9,19.3,32.2,21.6c0,1,1.7,1,1.7,0
	c0-2-1.3-3.3-3.3-3.3s-3.3,1.7-3.3,3.3c0,2,1.7,3.3,3.3,3.3c2,0,3.3-1.7,3.3-3.3C33.5,20.6,32.2,20.6,32.2,21.6z M32.5,7
	c0,2.3-3.3,2.3-3.7,0S32.2,5,32.5,7c0,1,1.7,1,1.7,0c0-2-1.3-3.3-3.3-3.3S27.6,5.3,27.6,7c0,2,1.7,3.3,3.3,3.3c2,0,3.3-1.7,3.3-3.3
	C33.9,6,32.5,6,32.5,7z M148,7c-2,2-3,5-3.3,7.7c-0.3,3.7,1.7,5.7,3.7,8.3c0.3,0.3,1,0.3,1.3,0c3.3-5.7,3.7-10.6-0.3-16
	c-0.7-0.7-2,0-1.3,0.7c1.3,1.7,2.3,3.7,3,5.7c1,3-1,6-2.3,8.7c0.3,0,1,0,1.3,0c-1.3-2.3-3.3-4-3.3-6.7s1.3-5.7,3-8
	C149.7,7,148.7,6.3,148,7L148,7z M285.1,13.6c-40.9-0.3-81.9,0.3-122.8,0.7c-1,0-1,1.3,0,1.3c40.9,0,81.9-0.3,122.8-0.7
	C286.1,15,286.1,13.6,285.1,13.6L285.1,13.6z M226.5,15.3c3.7-0.3,7-2,10.3-3c4.7-1.7,9.3-4,13.6-6.7c1-0.7,0-2-0.7-1.3
	c-4.3,2.7-8.7,5-13.3,6.7c-3.3,1.3-6.3,2.7-9.6,3C225.5,14,225.5,15.3,226.5,15.3L226.5,15.3z M256.1,15c4-1.3,8.3-3,11.6-5.7
	c0.7-0.7,0-1.7-0.7-1.3c-3.3,2.7-7.7,3.7-11.3,5.7C255.1,14.3,255.5,15.3,256.1,15L256.1,15z M276.1,14.6c3-3.7,6.3-3.3,10.6-2
	c4,1.3,8.3,2,12.3,3c1,0.3,1.3-1.3,0.3-1.3c-3-0.7-6-1.3-9-2c-2.7-0.7-5.3-2-8-2.3c-3.3-0.3-5.7,1.3-7.7,4
	C274.8,14.3,275.8,15,276.1,14.6L276.1,14.6z M274.8,15c1.3,1.7,3.7,5,6.3,5c6-0.7,12.3-3.3,18.3-4.7c1-0.3,0.7-1.7-0.3-1.3
	c-4.3,1-8.3,2-12.3,3.3c-2.3,0.7-4.7,2.3-7.3,1c-1.3-0.7-2.7-2.3-3.7-3.7C275.4,14,274.4,14.6,274.8,15L274.8,15z M249.8,3.3
	c0,4,8,3,6-1.7c-0.7-2-2.7-2-4.3-1c-1,0.7-3,3-1,4c0.7,0.3,1.3-0.3,1-1c-0.7-1.3,2.3-3.3,3.3-1.3c0.3,1-0.3,2-1.3,2
	c-1,0.3-2-0.3-2.3-1.3C250.8,2.7,249.8,2.7,249.8,3.3L249.8,3.3z M226.5,15.6c3.3,0.3,6.7,2,9.6,3c4.7,1.7,9,4,13.3,6.7
	c1,0.7,1.7-0.7,0.7-1.3c-4.3-2.7-9-5-13.6-6.7c-3.3-1.3-6.7-3-10.3-3C225.5,14,225.5,15.3,226.5,15.6L226.5,15.6z M255.1,15.3
	c4,2,8.3,3.3,12,6c0.7,0.7,1.3-0.7,0.7-1.3c-3.7-2.7-8-4.3-12-5.7C254.8,14,254.5,15,255.1,15.3L255.1,15.3z M251.2,26.3
	c0.3-1,1-1.3,2-1.3c1,0,1.7,1,1.3,2c-0.7,2.3-4.3,0-3.3-1.3c0.3-0.7-0.3-1.3-1-1c-1.7,1,0,3.3,1,4c1.7,1,3.7,1,4.7-1
	c1.7-4.7-6.3-5.3-6-1.7C249.8,26.6,250.8,26.9,251.2,26.3L251.2,26.3z M266.5,21.6c0,2,1.3,3.3,3.3,3.3c2,0,3.3-1.7,3.3-3.3
	c0-2-1.7-3.3-3.3-3.3C267.8,18.3,266.5,20,266.5,21.6c0,1,1.3,1,1.7,0c0-2.3,3.3-2.3,3.7,0c0,2.3-3.3,2.3-3.7,0
	C268.1,20.6,266.5,20.6,266.5,21.6z M266.1,7c0,2,1.3,3.3,3.3,3.3s3.3-1.7,3.3-3.3c0-2-1.7-3.3-3.3-3.3C267.5,3.7,266.1,5.3,266.1,7
	c0,1,1.3,1,1.7,0c0-2.3,3.3-2.3,3.7,0c0,2.3-3.3,2.3-3.7,0C267.5,6,266.1,6,266.1,7z"/>
</svg>
