<?xml version="1.0" encoding="utf-8"?>
<!-- Generator: Adobe Illustrator 23.0.3, SVG Export Plug-In . SVG Version: 6.00 Build 0)  -->
<svg version="1.1" id="Layer_1" xmlns="http://www.w3.org/2000/svg" xmlns:xlink="http://www.w3.org/1999/xlink" x="0px" y="0px"
	 viewBox="0 0 300 35.7" style="enable-background:new 0 0 300 35.7;" xml:space="preserve">
<style type="text/css">
	.st0{fill:#3E50B4;}
</style>
<path class="st0" d="M136,34.9c-5-16.7-23.7-24.1-39.4-25.7c-6.7-0.7-35.1,3.7-29.1,15.4c2.3,4.7,8.7,1,10.7-1.7
	c4-5-4-10.4-7.7-11.7c-8.4-3.7-18.7,1.7-25.7,5.7c-6.7,3.7-13,6.4-20.7,7c-4.7,0.3-9.4-1.3-13.4-4c-5-3-14.7-12.4-5-18.4
	c0.7-0.7,0-1.7-0.7-1.3c-11.4,7-1,17.7,7,22.4c13.7,8,28.1-2,40.1-7.7c5.7-2.7,11.7-4,17.7-2.3c5.3,1.3,7.7,4.7,6.4,10.4
	c-4.3,5.3-9-2.3-4.3-6c6-4.3,13.4-6.4,20.7-6.7c16.7-0.3,36.8,8,42.4,24.7C135,35.9,136.4,35.6,136,34.9L136,34.9z M164.8,35.3
	c6-17,25.7-24.4,42.4-24.7c7,0,13,2.3,19.1,5.7c1.3,0.7,2.7,1.7,4,3c-1,2-2.3,4-3.3,6c-4.7-1.3-5.3-4.3-2.3-9.4
	c5.7-6.7,16.4-3.7,23.4-1c13.4,5.7,25.1,14.7,40.1,7.7c8.7-4,17.7-15.7,7-22.4c-0.7-0.7-1.7,0.7-0.7,1.3c15,9.4-9.7,21.4-15.7,22.4
	c-7.4,1-14.7-2.3-21.1-5.7c-8.7-4.7-17.7-9.7-27.7-7c-5,1.3-10.7,6.4-8,11.7c2,4,7.7,5,10.7,2c4-4-2.3-8-5-9.7
	c-6.7-4.3-14-6-21.7-5.7c-16.4,0.3-36.4,9-41.8,25.7C163.4,35.6,164.8,35.9,164.8,35.3L164.8,35.3z"/>
</svg>
