<?xml version="1.0" encoding="utf-8"?>
<!-- Generator: Adobe Illustrator 23.0.3, SVG Export Plug-In . SVG Version: 6.00 Build 0)  -->
<svg version="1.1" id="Layer_1" xmlns="http://www.w3.org/2000/svg" xmlns:xlink="http://www.w3.org/1999/xlink" x="0px" y="0px"
	 viewBox="0 0 300 37.2" style="enable-background:new 0 0 300 37.2;" xml:space="preserve">
<style type="text/css">
	.st0{fill:#3E50B4;}
</style>
<path class="st0" d="M181.8,22.9c-14.4-17.3-33.9-5.2-30.4,5.9c2.9,9.1,13.1,10.4,18.6,5.9c5.5-4.9,2.6-11.8-5.2-11.4
	c-7.8,0.3-6.9,7.2-6.9,7.2c-3.6-9.8,7.2-14,15-9.5c7.8,4.2,8.5,14,8.5,14L300,30C255,30.4,181.8,22.9,181.8,22.9z M166.2,24.5
	c2.6,0,4.6,1.6,4.6,3.6s-2,3.6-4.6,3.6s-4.6-1.6-4.6-3.6S163.5,24.5,166.2,24.5z M166.5,25.8c1.3,0,2.3,1,2.3,2s-1,2-2.3,2
	s-2.3-1-2.3-2S165.2,25.8,166.5,25.8z M0,30l118.8,3.9c0,0,0.7-9.5,8.5-14c7.8-4.2,18.9-0.3,15,9.5c0,0,0.7-6.5-6.9-7.2
	c-7.8-0.3-10.8,6.5-5.2,11.4s15.7,3.3,18.6-5.9c3.3-10.8-16-22.9-30.4-5.9C118.2,22.9,45,30.4,0,30z M138.4,28.1c0,2-2,3.6-4.6,3.6
	c-2.6,0-4.6-1.6-4.6-3.6s2-3.6,4.6-3.6S138.4,26.1,138.4,28.1z M133.5,25.8c1.3,0,2.3,1,2.3,2s-1,2-2.3,2s-2.3-1-2.3-2
	S132.2,25.8,133.5,25.8z M159.6,12.4C159,7.8,151.5,1.3,150.2,0l0,0l0,0l0,0l0,0c-1.3,1-8.8,7.8-9.5,12.4c0,0,5.5,1.3,9.5,5.9v0.3
	l0,0l0,0v-0.3C154.1,13.7,159.6,12.4,159.6,12.4z"/>
</svg>
