<?xml version="1.0" encoding="utf-8"?>
<!-- Generator: Adobe Illustrator 22.1.0, SVG Export Plug-In . SVG Version: 6.00 Build 0)  -->
<svg version="1.1" id="Layer_1" xmlns="http://www.w3.org/2000/svg" xmlns:xlink="http://www.w3.org/1999/xlink" x="0px" y="0px"
	 viewBox="0 0 176.2 20" style="enable-background:new 0 0 176.2 20;" xml:space="preserve">
<style type="text/css">
	.st0{fill:#4BAE4F;}
</style>
<path class="st0" d="M175.9,1.3c-15.1-1.1-30.4-0.8-45.5-1C116,0.2,101.5,0,87.1,0C72.9,0,58.8,0.4,44.7,0.5
	C30,0.6,15.1,0.2,0.4,1.2c-0.5,0-0.6,0.9,0,0.9C13.1,3,25.8,2.8,38.6,2.9c-2.6,1.9-4,5.3-2.8,8.4c1.6,4.3,5.7,5.7,10,5.8
	c11.6,0.5,19.7-9.8,30.4-12c2.7-0.6,6.2-1,8.6,0.5c1.1,0.7,1.7,1.6,2,2.7c-0.1,0.8-0.1,1.7,0,2.6c-0.2,1.3-0.9,2.6-1.7,3.6
	c-2.5,3.1-7.5,5.1-10.8,1.8c-1-0.9-1.9-2.3-1.8-3.7c0-0.9,0.2-1.7,0.7-2.4c1.7-2.1,3.4-1.7,4.9,1c0,0.5,0.7,0.5,0.8,0.1
	c1.3-4-3.9-4.6-6.4-2.8c-3,2.2-2.1,7.2,0.5,9.3c3.1,2.5,7.8,3.1,11.2,0.7c1.4-1,2.8-2.5,3.9-4.3c1,1.7,2.4,3.2,3.9,4.3
	c3.4,2.5,8.1,1.9,11.2-0.7c2.6-2.1,3.5-7.1,0.5-9.3c-2.5-1.8-7.6-1.2-6.4,2.8c0.1,0.4,0.8,0.4,0.8-0.1c1.6-2.7,3.2-3.1,4.9-1
	c0.5,0.7,0.8,1.5,0.7,2.4c0.1,1.4-0.9,2.7-1.8,3.7c-3.3,3.2-8.4,1.2-10.8-1.8c-0.8-1-1.4-2.3-1.7-3.6c0.2-0.8,0.2-1.7,0-2.5
	c0.3-1,0.9-2,2-2.7c2.5-1.6,5.9-1.1,8.6-0.5c10.7,2.3,18.9,12.5,30.4,12c4.3-0.2,8.4-1.5,10-5.8c1.2-3.1-0.2-6.5-2.7-8.4
	c12.8-0.2,25.6,0,38.2-1C176.3,2,176.4,1.4,175.9,1.3z M43.3,14.2c-2.5-0.6-5.1-1.9-5.2-4.8c0-1.3,0.2-2.7,1.2-3.6
	c1.4-1.3,3.5-2,5.3-1.2c1.3,1.7,0.9,2.5-1.1,2.4c-0.5,0-1,0.1-1.6,0.2c-1,0.2-1,1.7-0.1,2c1.7,0.4,4.3,0.7,5.6-1
	c0.9-1.1,1.7-2.6,1-4c-0.3-0.5-0.6-0.9-1-1.3C56.1,3,64.8,3.2,73.6,3.3c-4.1,1.3-8,3.5-11.7,5.7C56.4,12,49.8,15.7,43.3,14.2z
	 M88.1,5.3c-0.7-0.8-1.5-1.5-2.4-2c1.2,0,2.3,0,3.5,0c0.4,0,0.8,0,1.2,0C89.6,3.9,88.8,4.5,88.1,5.3z M138.1,9.4
	c-0.1,3-2.7,4.3-5.2,4.8c-6.4,1.5-13.1-2.2-18.5-5.3c-3.7-2.1-7.5-4.3-11.5-5.6c8.6-0.1,17.2-0.2,25.9-0.3c-0.4,0.3-0.7,0.7-0.9,1.2
	c-0.7,1.4,0.1,2.9,1,4c1.3,1.6,3.8,1.4,5.6,1c1-0.2,1-1.8-0.1-2c-0.5-0.1-1.1-0.2-1.6-0.3c-2,0.1-2.3-0.7-1.1-2.4
	c1.8-0.7,3.9,0,5.3,1.2C137.9,6.7,138.1,8.1,138.1,9.4z"/>
</svg>
