<?xml version="1.0" encoding="utf-8"?>
<!-- Generator: Adobe Illustrator 23.0.3, SVG Export Plug-In . SVG Version: 6.00 Build 0)  -->
<svg version="1.1" id="Layer_1" xmlns="http://www.w3.org/2000/svg" xmlns:xlink="http://www.w3.org/1999/xlink" x="0px" y="0px"
	 viewBox="0 0 300 33.3" style="enable-background:new 0 0 300 33.3;" xml:space="preserve">
<style type="text/css">
	.st0{fill:#3E50B4;}
</style>
<path class="st0" d="M284.5,31.7c-0.7,0-1.6,0-2.3-0.3c-4.9-1.3-8.2-3.6-9.2-6.2c-0.7-1.6-0.3-3.3,1-5.2c1-1.6,2.3-2.3,3.6-2.3
	s2.3,0.7,2.6,1c0.3,0.3,0.3,0.7,0.3,0.7c-2.3,1.3-2.9,3.6-2.3,5.6c0.7,2.6,3.6,5.2,7.8,5.2c5.9,0,9.5-2.9,11.8-9.5
	c0.3-1,0.7-2.3,0.3-3.6c0,0.3,0,0.7,0,0.7c0.7,3.6-1,6.5-2.6,8.2C292.7,29.7,288.4,31.7,284.5,31.7z M203.4,22.9l46.1-2.3l0.3-1
	c0,0,0.3-0.3,0.7-1c-1,2.3-1.6,4.2-2,5.6L203.4,22.9z M277.6,19.6L277.6,19.6c-1.3,1.6-1.6,3.9-1,5.9c0.3,0.7,0.7,1.6,1,2.3
	c-1.6-1-2.6-2-2.9-2.9c0-0.3-0.7-1.6,0.7-3.9C276,19.9,276.7,19.6,277.6,19.6 M247.2,22.6L247.2,22.6h-1.6H247.2 M275.4,0
	c-0.3,0-0.7,0-1,0c-16.7,0.3-25.8,19-25.8,19L161,23.2l88.9,2.6c0,0,3.3-19.6,22.9-22.9c2-0.3,3.6-0.3,5.6-0.3
	c15.4,0,19.3,12.7,17.7,17.7c-2,5.6-4.9,8.2-10.1,8.2s-8.5-5.2-4.9-7.5c2.6-1.6-0.3-4.9-3.6-4.9c-1.6,0-3.6,0.7-4.9,2.9
	c-4.2,6.9,1.6,11.8,9.5,13.7c1,0.3,1.6,0.3,2.6,0.3c7.5,0,16.7-6.9,15.4-15.7C298.2,8.5,291.4,0,275.4,0L275.4,0z M15.5,31.7
	c-3.9,0-8.2-2.3-11.1-5.2c-1.6-1.6-3.3-4.6-2.6-8.2c0-0.3,0-0.7,0-0.7c0,1.3,0,2.6,0.3,3.6c2.3,6.5,5.9,9.5,11.8,9.5
	c4.2,0,7.2-2.6,7.8-5.2c0.7-2-0.3-4.2-2.3-5.2c-0.3-0.3-0.3-0.3,0-0.7c0.3-0.7,1.3-1,2.6-1c1.3,0,2.6,0.7,3.6,2.3
	c1.3,2,1.6,3.6,1,5.2c-1,2.6-4.6,4.9-9.2,6.2C16.8,31.7,16.1,31.7,15.5,31.7z M51.1,24.2c-0.3-1.3-1-3.3-2-5.6c0.3,0.7,0.7,1,0.7,1
	l0.3,1l46.1,2.3L51.1,24.2z M22.4,19.6c0.7,0,1.6,0.7,2.3,1.6c1.3,2.3,1,3.3,0.7,3.9c-0.3,1-1.3,2-2.9,2.9c0.7-0.7,1-1.3,1-2.3
	c0.7-2.3,0-4.2-1.3-5.9C22,19.6,22.4,19.6,22.4,19.6 M52.4,22.6h1.6H52.4L52.4,22.6 M24.6,0C8.6,0,1.8,8.2,0.1,17.7
	C-1.2,26.2,8,33.3,15.5,33.3c1,0,1.6,0,2.6-0.3c7.8-2,13.7-6.9,9.5-13.7c-1.3-2.3-3.3-2.9-4.9-2.9c-3.3,0-6.2,3.3-3.6,4.9
	c3.9,2.3,0.7,7.5-4.9,7.5S6,25.8,3.7,20.3C2.1,15,6,2.6,21.4,2.6c1.6,0,3.6,0,5.6,0.3c19.9,3.3,22.9,22.9,22.9,22.9l88.9-2.6
	l-87.3-3.9c0,0-9.2-18.6-25.8-19C25.3,0,25,0,24.6,0L24.6,0z M143,25.5c-2.6-0.7-3.9-1.6-3.9-2c0-0.3,1.3-1.3,3.9-2
	c-0.7,0.7-1,1.3-1,2C142,24.2,142.3,24.8,143,25.5z M156.7,25.2c0.7-0.7,1-1.3,1-2c0-0.7-0.3-1.6-1-2c2.6,0.7,3.9,1.6,3.9,2
	S159,24.5,156.7,25.2z M149.8,18.6c-6.9,0-12.4,2-12.4,4.6s5.6,4.6,12.4,4.6s12.4-2,12.4-4.6S156.7,18.6,149.8,18.6L149.8,18.6z
	 M149.8,25.8c-3.3,0-6.2-1-6.2-2.3c0-1.3,2.6-2.3,6.2-2.3c3.3,0,6.2,1,6.2,2.3C156,24.8,153.1,25.8,149.8,25.8L149.8,25.8z"/>
</svg>
