<?xml version="1.0" encoding="utf-8"?>
<!-- Generator: Adobe Illustrator 23.0.3, SVG Export Plug-In . SVG Version: 6.00 Build 0)  -->
<svg version="1.1" id="Layer_1" xmlns="http://www.w3.org/2000/svg" xmlns:xlink="http://www.w3.org/1999/xlink" x="0px" y="0px"
	 viewBox="0 0 300 25.1" style="enable-background:new 0 0 300 25.1;" xml:space="preserve">
<style type="text/css">
	.st0{fill:#3E50B4;}
</style>
<path class="st0" d="M0,18.3l103.7,2c0,0,0.7,3.3,7.5,4.9c0,0-2.6-11.4,7.8-13.4s30.7,5.5,30.7,5.5v-2.9c0,0-31.3-14-45.7,1L0,18.3z
	 M119,22.8c12.4,3.6,31-3.3,31-3.3V17C113.2,6.8,106.6,19.2,119,22.8z M117.4,18.6c0-7.2,25.1,0,25.1,0S117.1,24.1,117.4,18.6z
	 M300,18.3l-103.7,2c0,0-0.7,3.3-7.5,4.9c0,0,2.6-11.4-7.8-13.4s-30.7,5.5-30.7,5.5v-2.9c0,0,31.3-14,45.7,1L300,18.3z M150,17v2.6
	c0,0,18.6,6.8,31,3.3C193.4,19.2,186.8,6.8,150,17z M157.5,18.6c0,0,25.1-7.2,25.1,0C182.9,24.1,157.5,18.6,157.5,18.6z M150,11.7
	c0,0-7.5,0.3-11.1-5.9C139.2,5.9,146.7,5.5,150,11.7z M150.7,11.7c0,0,7.5,0.3,11.1-5.9C161.7,5.9,153.9,5.5,150.7,11.7z M150,10.1
	c0,0-5.5-5.9,0-10.1V10.1z M150.7,10.1c0,0,5.5-5.9,0-10.1V10.1z"/>
</svg>
