<?xml version="1.0" encoding="utf-8"?>
<!-- Generator: Adobe Illustrator 22.1.0, SVG Export Plug-In . SVG Version: 6.00 Build 0)  -->
<svg version="1.1" id="Layer_1" xmlns="http://www.w3.org/2000/svg" xmlns:xlink="http://www.w3.org/1999/xlink" x="0px" y="0px"
	 viewBox="0 0 365.5 32.6" style="enable-background:new 0 0 365.5 32.6;" xml:space="preserve">
<style type="text/css">
	.st0{fill:#4BAE4F;}
</style>
<path class="st0" d="M16.1,25.6l3.6,5.8l-0.4,0.3l-3.4-5.6h-7v-0.5H16.1L16.1,25.6L16.1,25.6z M365.5,16.8l-0.4-0.2l-3.3,6.3h0.1
	h-0.1l3.3,5.9l0.4-0.2l-3.2-5.6L365.5,16.8z M359.3,22.9l5.1,8.7l-1.7,1l-5.1-8.7H348l1.2,2.2h6.8v0.1h0.1l3.6,5.8l-0.4,0.3
	l-3.4-5.6h-6.3l1.1,1.9l-0.4,0.2l-2.8-4.8h-0.1v-0.1l-0.5-0.9l0,0h-0.1l3.3-6.3h0.1l-1-1.7l-4.8,8l5.1,8.7l-1.7,1l-5.1-8.7h-9.6
	l1.2,2.2h6.8v0.1h0.1l3.6,5.8l-0.4,0.3l-3.4-5.6h-6.3l1.1,1.9l-0.4,0.2l-2.8-4.8h-0.1V24l-0.5-0.9l0,0h-0.1l3.3-6.3h0.1l-1-1.7
	l-4.8,8l5.1,8.7l-1.7,1l-5.1-8.7h-9.6l1.2,2.2h6.8v0.1h0.1l3.6,5.8l-0.4,0.3l-3.4-5.6h-6.3l1.1,1.9l-0.4,0.2l-2.8-4.8h-0.1v-0.1
	l-0.5-0.9l0,0H317l3.3-6.3h0.1l-1-1.7l-4.8,8l5.1,8.7l-1.7,1l-5.1-8.7h-9.6l1.2,2.2h6.8v0.1h0.1l3.6,5.8l-0.4,0.3l-3.4-5.6h-6.3
	l1.1,1.9l-0.4,0.2l-2.8-4.8h-0.1v-0.1l-0.5-0.9h0.1h-0.1l3.3-6.3h0.1l-1-1.7l-4.8,8l5.1,8.7l-1.7,1l-5.1-8.7h-9.6l1.2,2.2h6.8V26
	h0.1l3.6,5.8l-0.4,0.3l-3.4-5.6h-6.3l1.1,1.9l-0.4,0.2l-2.8-4.8h-0.1v-0.1l-0.5-0.9l0,0h-0.1l3.3-6.3h0.1l-1-1.7l-4.8,8l5.1,8.7
	l-1.7,1l-5.1-8.7h-9.3l1.2,2.2h6.5l0,0h0.1l3.6,5.8l-0.4,0.3l-3.4-5.6h-6l1.1,2l-0.4,0.2l-1.3-2.2h-0.2v-0.4l-1.3-2.3h-0.3v-0.6
	l-0.2-0.4l0,0h-0.1l0.2-0.4v-0.6h0.3l1.3-2.5v-0.1l0,0l1.3-2.5l-1-1.6l-4.6,7.8l5.1,8.7l-1.7,1l-5.1-8.7H259l1.2,2.2h6.8V26h0.1
	l3.6,5.8l-0.4,0.3l-3.4-5.6h-6.3l1.1,1.9l-0.4,0.2l-2.8-4.8h-0.1v-0.1l-0.5-0.9l0,0h-0.1l3.3-6.3h0.1l-1-1.7l-4.8,8l5.1,8.7l-1.7,1
	l-5.1-8.7h-9.6l1.2,2.2h6.8l0,0h0.1l3.6,5.8l-0.4,0.3l-3.4-5.6h-6.3l1.1,1.9l-0.4,0.2l-2.8-4.8h-0.1v-0.1l-0.5-0.9h0.1H243l3.3-6.3
	h0.1l-1-1.7l-4.8,8l5.1,8.7l-1.7,1l-5.1-8.7h-9.6l1.2,2.2h6.8l0,0h0.1l3.6,5.8V32l-3.4-5.6h-6.3l1.1,1.9l-0.4,0.2l-2.8-4.8h-0.1
	v-0.1l-0.5-0.9l0,0h-0.1l3.3-6.3h0.1l-1-1.7l-4.8,8l5.1,8.7l-1.7,1l-5.1-8.7h-9.6l1.2,2.2h6.8V26h0.1l3.6,5.8l-0.4,0.3l-3.4-5.6
	h-6.3l1.1,1.9l-0.4,0.2l-2.8-4.8h-0.1v-0.1l-0.5-0.9l0,0h-0.1l3.3-6.3h0.1l-1-1.7l-4.8,8l5.1,8.7l-1.7,1l-5.1-8.7h-9.6l1.2,2.2h6.8
	v0.1h0.1l3.6,5.8l-0.4,0.3l-3.4-5.6h-6.3l1.1,1.9l-0.4,0.2l-2.8-4.8h-0.1v-0.1l-0.5-0.9l0,0h-0.1l3.3-6.3h0.1l-1-1.7l-4.8,8l5.1,8.7
	l-1.7,1l-5.1-8.7h-9.3l1.2,2.2h6.5v0.1h0.1l3.6,5.8l-0.4,0.3l-3.4-5.6h-6l1.1,2l-0.4,0.2l-1.3-2.2h-0.2V26l-1.3-2.3h-0.3v-0.6
	l-0.2-0.4l0,0h-0.1l0.2-0.4v-0.6h0.3l1.3-2.5v-0.1l0,0l1.3-2.5l-1-1.6l-4.6,7.8l5.1,8.7l-1.7,1l-5.1-8.7h-9.6l1.2,2.2h6.8v0.1h0.1
	l3.6,5.8L182,32l-3.4-5.6h-6.3l1.1,1.9l-0.4,0.2l-2.8-4.8h-0.1v-0.1l-0.5-0.9l0,0h-0.1l3.3-6.3h0.1l-1-1.7l-4.8,8l5.1,8.7l-1.7,1
	l-5.1-8.7h-9.6l1.2,2.2h6.8V26h0.1l3.6,5.8l-0.4,0.3l-3.4-5.6h-6.3l1.1,1.9l-0.4,0.2l-2.8-4.8h-0.1v-0.1l-0.5-0.9l0,0h-0.1l3.3-6.3
	h0.1l-1-1.7l-4.8,8l5.1,8.7l-1.7,1l-5.1-8.7h-9.6l1.2,2.2h6.8v0.1h0.1l3.6,5.8l-0.4,0.3l-3.4-5.6h-6.3l1.1,1.9l-0.4,0.2l-2.8-4.8
	h-0.1v-0.1l-0.5-0.9l0,0h-0.1l3.3-6.3h0.1l-1-1.7l-4.8,8l5.1,8.7l-1.7,1l-5.1-8.7H126l1.2,2.2h6.8v0.1h0.1l3.6,5.8l-0.4,0.3
	l-3.4-5.6h-6.3l1.1,1.9l-0.4,0.2l-2.8-4.8h-0.1v-0.1l-0.5-0.9h0.1h-0.1l3.3-6.3h0.1l-1-1.7l-4.8,8l5.1,8.7l-1.7,1l-5.1-8.7h-9.6
	l1.2,2.2h6.8v0.1h0.1l3.6,5.8l-0.4,0.3l-3.4-5.6h-6.3l1.1,1.9l-0.4,0.2l-2.8-4.8h-0.1V24l-0.5-0.9h0.1h-0.1l3.3-6.3h0.1l-1-1.7
	l-4.8,8l5.1,8.7l-1.7,1l-5.1-8.7h-9.3l1.2,2.2h6.5v0.1h0.1l3.6,5.8l-0.4,0.3l-3.4-5.6h-6l1.1,2L99,29.1l-1.3-2.2h-0.2v-0.4l-1.3-2.3
	h-0.3V23l-0.2-0.4l0,0h-0.1l0.2-0.4v-0.6h0.3l1.3-2.5V19l0,0l1.3-2.5l-1-1.6l-4.6,7.8l5.1,8.7l-1.7,1l-5.1-8.7h-9.6l1.2,2.2h6.8V26
	h0.1l3.6,5.8l-0.4,0.3l-3.4-5.6h-6.3l1.1,1.9l-0.4,0.2l-2.8-4.8h-0.1v-0.1l-0.5-0.9l0,0h-0.1l3.3-6.3H84l-1-1.7l-4.8,8l5.1,8.7
	l-1.7,1l-5.1-8.7h-9.6l1.2,2.2h6.8v0.1H75l3.6,5.8l-0.4,0.3l-3.4-5.6h-6.3l1.1,1.9l-0.4,0.2l-2.8-4.8h-0.1v-0.1l-0.5-0.9l0,0h-0.1
	l3.3-6.3h0.1l-1-1.7l-4.8,8l5.1,8.7l-1.7,1L62,23.5h-9.6l1.2,2.2h6.8v0.1h0.1l3.6,5.8l-0.4,0.3l-3.4-5.6H54l1.1,1.9l-0.4,0.2
	l-2.8-4.8h-0.1v-0.1l-0.5-0.9l0,0h-0.1l3.3-6.3h0.1l-1-1.7l-4.8,8l5.1,8.7l-1.7,1l-5.1-8.7h-9.6l1.2,2.2h6.8v0.1h0.1l3.6,5.8
	L48.8,32l-3.4-5.6h-6.3l1.1,1.9l-0.4,0.2l-2.8-5l0,0v-0.1l-0.5-0.9l0,0h-0.1l3.3-6.3h0.1l-1-1.7l-4.8,8l5.1,8.7l-1.7,1l-5.1-8.7
	h-9.6l1.2,2.2h6.8v0.1h0.1l3.6,5.8L34,31.8l-3.4-5.6h-6.3l1.1,1.9L25,28.3l-2.8-4.8h-0.1v-0.1l-0.5-0.9l0,0h-0.1l3.3-6.3h0.1l-1-1.7
	l-4.8,8l5.1,8.7l-1.7,1l-5.1-8.7H7.3v-2h10.2l4.9-8.1h-3l0.3,0.2L16.9,18l0.2,0.3l-0.6,0.3L16,19.3h-0.1l0,0h-7v-0.5h2.9l-3.4-5.6
	H1.6v-0.5h7v0.1h0.1l3.6,5.8L12,18.8h3.1l-4.9-8.2H0v-2h10.2L15.3,0L17,1l-5.1,8.6l4.7,7.9l1.3-2.2l-0.3,0.2l-2.8-4.8h-0.1v-0.1
	l-0.5-0.9l0,0h-0.1l3.3-6.3l0.4,0.2L16.7,6h6.5l3.4-5.6L27,0.7l-3.6,5.9h-0.1l0,0h-7l0,0l-1.1,2.1H25L30.2,0l1.7,1l-5.1,8.6l4.7,7.9
	l1.3-2.2l-0.3,0.2l-2.8-4.8h-0.1v-0.1l-0.5-0.9l0,0H29l3.3-6.3l0.4,0.2l-1.3,2.5h6.5l3.4-5.6L42,0.7l-3.6,5.9h-0.1l0,0h-7l-1.1,2.1
	h9.7L45,0.1l1.7,1l-5.1,8.6l4.7,7.9l1.3-2.2l-0.3,0.2l-2.8-4.8h-0.1v-0.1l-0.4-1l0,0h-0.1l3.3-6.3l0.4,0.2l-1.3,2.5h6.6l3.4-5.6
	l0.4,0.3l-3.6,5.9H53l0,0h-7l0,0l-1,2h9.7l5.1-8.6l1.7,1l-5.1,8.6l4.7,7.9l1.3-2.2l-0.3,0.2l-2.8-4.8h-0.1v-0.1l-0.5-0.9l0,0h-0.1
	l3.3-6.3l0.4,0.2L61,6.2h6.6L71,0.6l0.4,0.3L68,6.6h-0.1l0,0h-7l0,0l-1.1,2.1h9.7l5.1-8.6l1.7,1l-5.1,8.6l4.7,7.9l1.3-2.2l-0.3,0.2
	l-2.8-4.8H74v-0.1l-0.5-0.9l0,0h-0.1l3.3-6.3l0.4,0.2L76,6.2h6.5L86,0.5l0.4,0.3l-3.6,5.9h-0.1l0,0h-7l-1.1,2.1h9.7l5.1-8.6l1.7,1
	L86,9.8l4.7,7.9l1.3-2.2l-0.3,0.2l-1.3-2.2h-0.2V13L89,10.7h-0.3v-0.6l-0.2-0.4l0,0h-0.1l0.2-0.4V8.7H89l1.3-2.5V6.1l0,0l1.4-2.7
	l0.4,0.2l-1.3,2.5H97l3.4-5.6l0.4,0.3l-3.6,5.9h-0.1l0,0h-6.7l-1.1,2.1h9.3l5.1-8.6l1.7,1l-5.1,8.6l4.7,7.9l1.3-2.2l-0.3,0.2
	l-2.8-4.8h-0.1v-0.1L103,9.7l0,0h-0.1l3.3-6.3l0.4,0.2l-1.3,2.5h6.6l3.4-5.6l0.4,0.3l-3.6,5.9H112l0,0h-7l0,0l-1,2h9.7l5.1-8.6
	l1.7,1l-5.1,8.6l4.7,7.9l1.3-2.2l-0.3,0.2l-2.8-4.8h-0.1v-0.1l-0.5-0.9l0,0h-0.1l3.3-6.3l0.4,0.2L120,6.2h6.5l3.4-5.6l0.4,0.3
	L127,6.7h-0.1l0,0h-7l0,0l-1.1,2.1h9.7l5.1-8.6l1.7,1l-5.1,8.6l4.7,7.9l1.3-2.2l-0.3,0.2l-2.8-4.8H133v-0.1l-0.5-0.9h0.1h-0.1
	l3.3-6.3l0.4,0.2L135,6.2h6.6l3.4-5.6l0.4,0.3l-3.6,5.9h-0.1l0,0h-7l0,0l-1.1,2.1h9.7l5.1-8.6l1.7,1L145,9.8l4.7,7.9l1.3-2.2
	l-0.3,0.2l-2.8-4.8h0.1v-0.1l-0.5-0.9l0,0h-0.1l3.3-6.3l0.4,0.2l-1.3,2.5h6.6l3.4-5.6l0.4,0.3l-3.6,5.9h-0.1l0,0h-7l0,0L148.4,9h9.7
	l5.1-8.6l1.7,1l-5.1,8.6l4.7,7.9l1.3-2.2l-0.3,0.2l-2.8-4.8h-0.1V11l-0.5-0.9h0.1h-0.1l3.3-6.3l0.4,0.2l-1.3,2.5h6.5l3.4-5.6
	l0.4,0.3l-3.6,5.9h-0.1l0,0h-7L163,9.2h9.7l5.1-8.6l1.7,1l-5.1,8.6l4.7,7.9l1.3-2.2l-0.3,0.2l-1.3-2.2h-0.2v-0.4l-1.3-2.3H177v-0.6
	l-0.2-0.4l0,0h-0.1l0.2-0.4v-1h0.3l1.3-2.5V6.2l0,0l1.4-2.7l0.4,0.2L179,6.2h6.2l3.4-5.6l0.4,0.3l-3,5.8h-0.1l0,0h-6.7l-1.1,2.1h9.3
	l5.1-8.6l1.7,1l-5.1,8.6l4.7,7.9l1.3-2.2l-0.3,0.2l-2.8-4.8h-0.1v-0.1l-0.5-0.9l0,0h-0.1l3.3-6.3l0.4,0.2l-1,2.5h6.5l3.4-5.6
	l0.4,0.3l-3.6,5.9h-0.1l0,0h-7l0,0L192.5,9h9.7l5.1-8.6l1.7,1l-5,8.4l4.7,7.9l1.3-2.2l-0.3,0.2l-2.8-4.8h0.1v-0.1l-0.5-0.9l0,0h-0.1
	l3.3-6.3l0.4,0.2l-1.3,2.5h6.6l3.4-5.6l0.4,0.3l-3.6,5.9h-0.1l0,0h-7L207.4,9h9.7l5.1-8.6l1.7,1l-5.1,8.6l4.7,7.9l1.3-2.2l-0.3,0.2
	l-2.8-4.8h-0.1V11l-0.5-0.9l0,0H221l3.3-6.3l0.4,0.2l-1.3,2.5h6.6l3.4-5.6l0.4,0.3l-3.6,5.9h-0.1l0,0h-7l0,0L222,9.2h9.7l5.1-8.6
	l1.7,1l-5.1,8.6l4.7,7.9l1.3-2.2l-0.3,0.2l-2.8-4.8h-0.1v-0.1l-0.5-0.9l0,0h-0.1l3.3-6.3l0.4,0.2L238,6.7h6.6l3.4-5.6l0.4,0.3
	l-3.6,5.9h-0.1l0,0h-7l0,0l-1.1,2.1h9.7l5.1-8.6l1.7,1l-5.1,8.6l4.7,7.9l1.3-2.2l-0.3,0.2l-2.8-4.8h-0.1v-0.1l-0.5-0.9l0,0h-0.1
	l3.3-6.3l0.4,0.2l-1.3,2.5h6.5l3.4-5.6l0.4,0.3l-3.6,5.9h-0.1l0,0h-7l0,0L252,9h9.7l5.1-8.6l1.7,1l-5.1,8.6l4.7,7.9l1.3-2.2
	l-0.3,0.2l-1.3-2.2h-0.2v-0.4l-1.3-2.3H266v-0.6l-0.2-0.4l0,0h-0.1l0.2-0.4V8.9h0.3l1.3-2.5V6.3l0,0l1.4-2.7l0.4,0.2L268,6.3h6.2
	l3.4-5.6L278,1l-3.6,5.9h-0.1l0,0h-6.7L266.5,9h9.3l5.1-8.6l1.7,1l-5.1,8.6l4.7,7.9l1.3-2.2l-0.3,0.2l-2.8-4.8h-0.1V11l-0.5-0.9l0,0
	h-0.1l3.3-6.3l0.4,0.2l-1.3,2.5h6.6l3.4-5.6l0.4,0.3l-3.6,5.9h-0.1l0,0h-7l0,0l-1.1,2.1h9.7l5.1-8.6l1.7,1l-5.1,8.6l4.7,7.9l1.3-2.2
	l-0.3,0.2l-2.8-4.8h-0.1v-0.1l-0.5-0.9l0,0h-0.1l3.3-6.3l0.4,0.2l-1.3,2.5h6.5l3.4-5.6l0.4,0.3l-3.6,5.9h-0.1l0,0h-7L296.1,9h9.7
	l5.1-8.6l1.7,1l-5.1,8.6l4.7,7.9l1.3-2.2l-0.3,0.2l-2.8-4.8h-0.1V11l-0.5-0.9l0,0h-0.1l3.3-6.3l0.4,0.2l-1.3,2.5h6.5l3.4-5.6
	l0.4,0.3l-3.6,5.9h-0.1l0,0h-7l0,0L311,9h9.7l5.1-8.6l1.7,1l-5.1,8.6l4.7,7.9l1.3-2.2l-0.3,0.2l-2.8-4.8h-0.1V11l-0.5-0.9l0,0h-0.1
	l3.3-6.3l0.4,0.2L327,6.5h6.6l3.4-5.6l0.4,0.3L334,6.9h-0.1l0,0h-7l0,0L325.8,9h9.7l5.1-8.6l1.7,1l-5.1,8.6l4.7,7.9l1.3-2.2
	l-0.3,0.2l-2.8-4.8H340V11l-0.5-0.9l0,0h-0.1l3.3-6.3l0.4,0.2L342,6.5h6.5l3.4-5.6l0.4,0.3L348.8,7h-0.1l0,0h-7l0,0l-1.1,2.1h9.7
	l5.1-8.6l1.7,1l-5.1,8.6l4.7,7.9l1.3-2.2l-0.3,0.2l-3.3-5.9l0,0h-0.1l3.3-6.3L358,4l-3.2,6.1l3.2,5.6l1.2-1.9l0.4,0.3l-2.7,4.5
	l0.2,0.3l-0.6,0.3l-0.4,0.7H356l0,0h-7l-1.1,2.1h9.7l5.1-8.6l1.7,1L359.3,22.9z M343.3,15.6l1.1-1.8h-2.2L343.3,15.6z M342.1,18.4
	l0.2,0.3l-0.6,0.3l-0.4,0.7h-0.1l0,0h-7l0,0l-1.1,2.1h9.7l4.9-8.1h-3l0.3,0.2L342.1,18.4z M328.5,15.5l1.1-1.8h-2.2L328.5,15.5z
	 M327.3,18.4l0.2,0.3l-0.6,0.3l-0.4,0.7h-0.1l0,0h-7l0,0l-1.1,2.1h9.7l4.9-8.1h-3l0.3,0.2L327.3,18.4z M313.6,15.5l1.1-1.8h-2.2
	L313.6,15.5z M312.5,18.3l0.2,0.3l-0.6,0.3l-0.4,0.7h-0.1l0,0h-7l-1.1,2.1h9.7l4.9-8.1h-3l0.3,0.2L312.5,18.3z M298.8,15.5l1.1-1.8
	h-2.2L298.8,15.5z M297.7,18.3l0.2,0.3l-0.6,0.3l-0.4,0.7h-0.1l0,0h-7l0,0l-1.1,2.1h9.7l4.9-8.1h-3l0.3,0.2L297.7,18.3z M284,15.5
	l1.1-1.8h-2.2L284,15.5z M269.5,15.5l1.2-1.9h-2.2L269.5,15.5z M268.3,18.3l0.2,0.3l-0.6,0.3l-0.4,0.7h-0.1l0,0h-7l0,0l-1.1,2.1h9.7
	l4.9-8.2h-3.2l0.4,0.2L268.3,18.3z M254.6,15.5l1.1-1.8h-2.2L254.6,15.5z M253.5,18.3l0.2,0.3l-0.6,0.3l-0.4,0.7h-0.1l0,0h-7l0,0
	l-1.1,2.1h9.7l4.9-8.1h-3l0.3,0.2L253.5,18.3z M239.8,15.4l1.1-1.8h-2.2L239.8,15.4z M238.7,18.3l0.2,0.3l-0.6,0.3l-0.4,0.7h-0.1
	l0,0h-7l-1.1,2.1h9.7l4.9-8.1h-3l0.3,0.2L238.7,18.3z M225,15.4l1.1-1.8h-2.2L225,15.4z M223.8,18.2l0.2,0.3l-0.6,0.3l-0.4,0.7h-0.1
	l0,0h-7l0,0l-1.1,2.1h9.7l4.9-8.1h-3l0.3,0.2L223.8,18.2z M210.1,15.4l1.1-1.8H209L210.1,15.4z M209,18.2l0.2,0.3l-0.6,0.3l-0.4,0.7
	h-0.1l0,0h-7l0,0l-1.1,2.1h9.7l4.9-8.1h-3l0.3,0.2L209,18.2z M195.3,15.3l1.1-1.8h-2.2L195.3,15.3z M180.8,15.4l1.2-1.9h-2.2
	L180.8,15.4z M179.7,18.2l0.2,0.3l-0.6,0.3l-0.4,0.7h-0.1l0,0h-7l0,0l-1.1,2.1h9.7l4.9-8.2H182l0.4,0.2L179.7,18.2z M166,15.4
	l1.1-1.8h-2.2L166,15.4z M164.8,18.2l0.2,0.3l-0.6,0.3l-0.4,0.7h-0.1l0,0h-7l0,0l-1.1,2.1h9.7l4.9-8.1h-3l0.3,0.2L164.8,18.2z
	 M151.2,15.3l1.1-1.8h-2.2L151.2,15.3z M150,18.2l0.2,0.3l-0.6,0.3l-0.4,0.7h-0.1l0,0h-7l0,0l-1.1,2.1h9.7l4.9-8.1h-3l0.3,0.2
	L150,18.2z M136.3,15.3l1.1-1.8h-2.2L136.3,15.3z M135.2,18.1l0.2,0.3l-0.6,0.3l-0.4,0.7h-0.1l0,0h-7l-1.1,2.1h9.7l4.9-8.1h-3
	l0.3,0.2L135.2,18.1z M121.5,15.3l1.1-1.8h-2.2L121.5,15.3z M120.3,18.1l0.2,0.3l-0.6,0.3l-0.4,0.7h-0.1l0,0h-7l0,0l-1.1,2.1h9.7
	l4.9-8.1h-3l0.3,0.2L120.3,18.1z M106.7,15.2l1.1-1.8h-2.2L106.7,15.2z M92.2,15.3l1.2-1.9h-2.2L92.2,15.3z M91,18.1l0.2,0.3
	l-0.6,0.3l-0.4,0.7h-0.1l0,0h-7L82,21.6h9.7l4.9-8.2h-3.2l0.4,0.2L91,18.1z M77.3,15.2l1.1-1.8h-2.2L77.3,15.2z M76.2,18.1l0.2,0.3
	l-0.6,0.3l-0.4,0.7h-0.1l0,0h-7l0,0l-1.1,2.1h9.7l4.9-8.1h-3l0.3,0.2L76.2,18.1z M62.5,15.2l1.1-1.8h-2.2L62.5,15.2z M61.4,18.1
	l0.2,0.3L61,18.7l-0.4,0.7h-0.1l0,0h-7l0,0l-1.1,2.1H62l4.9-8.1h-3l0.3,0.2L61.4,18.1z M47.7,15.2l1.1-1.8h-2.2L47.7,15.2z M46.5,18
	l0.2,0.3l-0.6,0.3l-0.4,0.7h-0.1l0,0h-7l-1.1,2.1h9.7l4.9-8.1h-3l0.3,0.2L46.5,18z M32.8,15.2l1.1-1.8h-2.2L32.8,15.2z M31.7,18
	l0.2,0.3l-0.6,0.3l-0.4,0.7h-0.1l0,0h-7l0,0l-1.1,2.1h9.7l4.9-8.1h-3l0.3,0.2L31.7,18z M19.1,13.3H17l1,1.8L19.1,13.3z M24.3,13.9
	V14l2.9,4.7l-0.3,0.2H30l-5-8.3h-9.6l1.2,2.2h6.8v0.1h0.1l0.5,0.9L24.3,13.9z M24,18.9h2.7l-1.4-2.3L24,18.9z M39.2,13.9L39.1,14
	l2.9,4.7l-0.3,0.2h3.1l-4.9-8.2h-9.5l1.2,2.2h6.8V13h0.1l0.5,0.9H39.2z M38.9,18.9h2.7l-1.4-2.3L38.9,18.9z M54,13.9L53.9,14
	l2.9,4.7l-0.3,0.2h3.1l-4.9-8.2h-9.6l1.2,2.2h6.8V13h0.1l0.5,0.9H54z M53.7,18.9h2.7L55,16.6L53.7,18.9z M68.8,13.9L68.7,14l2.9,4.7
	L71.3,19h3.1l-4.9-8.2h-9.6l1.2,2.2H68l0,0h0.1l0.5,0.9H68.8z M68.5,19h2.7l-1.4-2.3L68.5,19z M83.6,14l-0.1,0.1l2.9,4.7L86.1,19
	h3.1l-4.9-8.2h-9.6l1.2,2.2h6.8l0,0h0.1l0.5,0.9L83.6,14z M83.3,19H86l-1.4-2.3L83.3,19z M98.5,14l-0.2,0.3l2.7,4.4l-0.3,0.2h3.1
	l-4.9-8.2h-9.3l1.2,2.2h6.5V13h0.1l0.4,0.7L98.5,14z M98.2,18.9h2.3l-1.2-2L98.2,18.9z M96.8,21.5h9.3l4.9-8.1h-3l0.3,0.2l-2.7,4.5
	l0.2,0.3l-0.6,0.3l-0.4,0.7h-0.1l0,0H98L96.8,21.5z M113,14l-0.1,0.1l2.9,4.7l-0.3,0.2h3.1l-4.9-8.2h-9.6l1.2,2.2h6.8l0,0h0.1
	l0.5,0.9L113,14z M112.7,19h2.7l-1.4-2.3L112.7,19z M127.8,14l-0.1,0.1l2.9,4.7l-0.3,0.2h3.1l-4.9-8.2h-9.6l1.2,2.2h6.8l0,0h0.1
	l0.5,0.9L127.8,14z M127.5,19h2.7l-1.4-2.3L127.5,19z M142.6,14l-0.1,0.1l2.9,4.7l-0.3,0.2h3.1l-4.9-8.2h-9.6L135,13h6.8l0,0h0.1
	l0.5,0.9L142.6,14z M142.3,19h2.7l-1.4-2.3L142.3,19z M157.5,14.1l-0.1,0.1l2.9,4.7l-0.3,0.2h3.1l-4.9-8.2h-9.6l1.2,2.2h6.8v0.1h0.1
	l0.5,0.9L157.5,14.1z M157.2,19.1h2.7l-1.4-2.3L157.2,19.1z M172.3,14.1l-0.1,0.1l2.9,4.7l-0.3,0.2h3.1l-4.9-8.2h-9.6l1.2,2.2h6.8
	v0.1h0.1l0.5,0.9L172.3,14.1z M172,19.1h2.7l-1.4-2.3L172,19.1z M187.1,14.1l-0.2,0.3l2.7,4.4l-0.3,0.2h3.1l-4.9-8.2h-9.3l1.2,2.2
	h6.5v0.1h0.1l0.4,0.7L187.1,14.1z M186.9,19.1h2.3l-1.2-2L186.9,19.1z M185.5,21.6h9.3l4.9-8.1h-3l0.3,0.2l-2.8,4.5l0.2,0.3
	l-0.6,0.3l-0.4,0.7h-0.1l0,0h-6.7L185.5,21.6z M201.6,14.1l-0.1,0.1l2.9,4.7l-0.3,0.2h3.1l-4.9-8.2h-9.6L194,13h6.8v0.1h0.1l0.5,0.9
	L201.6,14.1z M201.3,19.1h2.7l-1.4-2.3L201.3,19.1z M216.5,14.1l-0.1,0.1l2.9,4.7l-0.3,0.2h3.1l-4.9-8.2h-9.6l1.2,2.2h6.8v0.1h0.1
	l0.5,0.9L216.5,14.1z M216.2,19.1h2.7l-1.4-2.3L216.2,19.1z M231.3,14.1l-0.1,0.1l2.9,4.7l-0.3,0.2h3.1l-4.9-8.2h-9.6l1.2,2.2h6.8
	v0.1h0.1l0.5,0.9L231.3,14.1z M231,19.1h2.7l-1.4-2.3L231,19.1z M246.1,14.2l-0.1,0.1l2.9,4.7l-0.3,0.2h3.1l-4.9-8.2h-9.6l1.2,2.2
	h6.8v0.1h0.1l0.5,0.9L246.1,14.2z M245.8,19.2h2.7l-1.4-2.3L245.8,19.2z M261,14.2l-0.1,0.1l2.9,4.7l-0.3,0.2h3.1l-4.9-8.2h-9.6
	l1.2,2.2h6.8v0.1h0.1l0.5,0.9L261,14.2z M260.6,19.2h2.7l-1.4-2.3L260.6,19.2z M275.8,14.2l-0.2,0.3l2.7,4.4l-0.3,0.2h3.1l-4.9-8.2
	h-9.3l1.2,2.2h6.5v0.1h0.1l0.4,0.7L275.8,14.2z M275.5,19.2h2.3l-1.2-2L275.5,19.2z M274.1,21.7h9.3l4.9-8.1h-3l0.3,0.2l-2.7,4.5
	l0.2,0.3l-0.6,0.3l-0.4,0.7H282l0,0h-6.7L274.1,21.7z M290.3,14.2l-0.1,0.1l2.9,4.7l-0.3,0.2h3.1L291,11h-9.6l1.2,2.2h6.8v0.1h0.1
	l0.5,0.9H290.3z M290,19.2h2.7l-1.4-2.3L290,19.2z M305.1,14.2l-0.1,0.1l2.9,4.7l-0.3,0.2h3.1l-4.9-8.2h-9.6l1.2,2.2h6.8v0.1h0.1
	l0.5,0.9L305.1,14.2z M304.8,19.2h2.7l-1.4-2.3L304.8,19.2z M320,14.2l-0.1,0.1l2.9,4.7l-0.3,0.2h3.1l-4.9-8.2h-9.6l1.2,2.2h6.8v0.1
	h0.1l0.5,0.9L320,14.2z M319.6,19.3h2.7l-1.4-2.3L319.6,19.3z M334.8,14.3l-0.1,0.1l2.9,4.7l-0.3,0.2h3.1l-4.9-8.2h-9.6l1.2,2.2h6.8
	v0.1h0.1l0.5,0.9L334.8,14.3z M334.5,19.3h2.7l-1.4-2.3L334.5,19.3z M349.6,14.3l-0.1,0.1l2.9,4.7l-0.3,0.2h3.1l-4.9-8.2h-9.6
	l1.2,2.2h6.8v0.1h0.1l0.5,0.9L349.6,14.3z M349.3,19.3h2.7l-1.4-2.3L349.3,19.3z M8.7,6.5L8.7,6.5l3.6-5.8l-0.4-0.3L8.5,6H1.6v0.5
	H8.7L8.7,6.5z"/>
</svg>
