<?xml version="1.0" encoding="utf-8"?>
<!-- Generator: Adobe Illustrator 23.0.3, SVG Export Plug-In . SVG Version: 6.00 Build 0)  -->
<svg version="1.1" id="Layer_1" xmlns="http://www.w3.org/2000/svg" xmlns:xlink="http://www.w3.org/1999/xlink" x="0px" y="0px"
	 viewBox="0 0 300 12.7" style="enable-background:new 0 0 300 12.7;" xml:space="preserve">
<style type="text/css">
	.st0{fill:#1A8FFF;}
</style>
<path class="st0" d="M147.2,12.6C147.2,12.6,146.9,12.6,147.2,12.6c-0.6,0-4.6,0-7.1-4.9c-0.9-1.5-2.2-3.1-3.1-3.7h-0.3
	c-1.2-0.9-3.1-1.5-4.6-0.9s-2.8,1.5-3.1,3.1v0.3c-0.3,1.2,0,2.2,0.9,3.1c0.9,1.2,2.5,1.8,3.7,1.5c1.2-0.3,2.2-1.2,2.5-2.5
	c0-0.6,0-1.2-0.3-1.8c-0.6-0.9-1.5-1.2-2.2-0.9c-0.6,0.3-1.2,0.6-1.5,1.5c0,0.6,0.3,1.5,0.9,1.5l-0.3,0.9c-1.2-0.3-2.2-1.5-1.8-2.8
	s1.2-2.2,2.2-2.5c1.2-0.3,2.5,0.3,3.4,1.5c0.6,0.9,0.9,1.8,0.6,2.8c-0.3,1.5-1.5,3.1-3.1,3.4c-1.8,0.3-3.7-0.3-4.9-2.2
	c-0.9-1.2-1.2-2.8-0.9-4V5.8c0.6-1.8,1.8-3.4,3.7-4c1.8-0.6,4-0.3,5.5,0.9l0,0c1.2,0.9,2.5,2.5,3.4,4c2.5,4.3,5.8,4.3,5.8,4.3l0,0
	l0,0c0.6,0,1.2,0,1.5-0.6c0.6-0.3,0.9-0.9,0.9-1.5c0-0.9-0.6-1.8-1.5-1.8c-0.3,0-0.6,0-0.9,0.3s-0.6,0.9-0.3,1.2
	c0,0.3,0.3,0.6,0.9,0.6v0.9c-0.9,0-1.5-0.6-1.8-1.2c-0.3-0.9,0-1.8,0.6-2.5c0.6-0.6,1.2-0.6,1.8-0.6c1.5,0,2.8,1.5,2.5,3.1
	c0,0.9-0.6,1.8-1.2,2.5C148.8,12.3,147.8,12.6,147.2,12.6z M152.8,12.6c-0.9,0-1.5-0.3-2.2-0.9c-0.6-0.6-1.2-1.5-1.2-2.5
	c0-1.5,0.9-3.1,2.5-3.1c0.6,0,1.2,0.3,1.8,0.6c0.6,0.6,0.9,1.5,0.6,2.5c-0.3,0.6-0.9,1.2-1.8,1.2V9.5c0.3,0,0.6-0.3,0.9-0.6
	c0-0.3,0-0.9-0.3-1.2c-0.3-0.3-0.6-0.3-0.9-0.3c-0.9,0-1.5,0.9-1.5,1.8c0,0.6,0.3,1.2,0.9,1.5c0.6,0.3,0.9,0.6,1.5,0.6l0,0l0,0
	c0,0,3.7,0,5.8-4.3c0.9-1.8,2.2-3.4,3.4-4l0,0c1.5-1.2,3.7-1.8,5.5-0.9c1.8,0.6,3.4,2.2,3.7,4v0.3c0.3,1.5,0,2.8-0.9,4
	c-1.2,1.8-3.1,2.5-4.9,2.2c-1.5-0.3-2.8-1.8-3.1-3.4c-0.3-0.9,0-1.8,0.6-2.8c0.9-1.2,2.2-1.8,3.4-1.5c1.2,0.3,1.8,1.2,2.2,2.5
	s-0.6,2.8-1.8,2.8l-0.3-0.9c0.6,0,1.2-0.9,0.9-1.5c0-0.6-0.6-1.2-1.5-1.5c-0.9-0.3-1.5,0.3-2.2,0.9c-0.3,0.6-0.6,1.2-0.3,1.8
	c0.3,1.2,1.2,2.2,2.5,2.5s2.8-0.3,3.7-1.5c0.6-0.9,0.9-2.2,0.9-3.1V6.5c-0.3-1.5-1.5-2.8-3.1-3.1c-1.5-0.6-3.4-0.3-4.6,0.9l0,0
	c-0.9,0.9-2.2,2.2-3.1,3.7C157.4,12.6,153.4,12.6,152.8,12.6C153.1,12.6,153.1,12.6,152.8,12.6z M150,6.8c-0.9,0-1.5-0.6-1.8-1.5
	l0,0c-0.3-1.8,1.2-4.6,1.2-4.6l0.3-0.6l0.3,0.6c0,0,1.5,2.8,1.2,4.6C151.5,6.1,150.9,6.8,150,6.8z M149.4,5.2c0,0.3,0.3,0.6,0.6,0.6
	c0.3,0,0.6,0,0.6-0.6c0.3-0.9-0.3-2.2-0.6-3.1C149.7,2.8,149.1,4,149.4,5.2L149.4,5.2z M295.4,8c-0.3,0-0.3,0-0.6,0
	c-0.9-0.3-1.5-0.9-1.5-1.8s0.6-1.5,1.5-1.8l0,0c1.8-0.3,4.3,1.2,4.6,1.2l0.6,0.3l-0.6,0.3C299.1,6.8,297.2,8,295.4,8z M295.1,5.5
	c-0.3,0-0.6,0.3-0.6,0.6s0,0.6,0.6,0.6c0.9,0.3,2.2-0.3,3.1-0.6C297.2,5.8,296,5.5,295.1,5.5L295.1,5.5z M291.4,6.8L291.4,6.8
	C291.1,6.8,291.1,6.8,291.4,6.8c-0.6,0-2.5,0-3.7-2.5c-0.3-0.6-0.9-1.5-1.5-1.8l0,0c-0.6-0.6-1.2-0.6-2.2-0.3
	c-0.6,0.3-1.2,0.6-1.2,1.5c0,0,0,0,0,0.3c0,0.6,0,0.9,0.3,1.2c0.3,0.6,0.9,0.9,1.5,0.6c0.6,0,0.9-0.6,0.9-0.9c0-0.3,0-0.6-0.3-0.6
	c-0.3-0.3-0.6-0.6-0.9-0.3c-0.3,0-0.3,0.3-0.6,0.6c0,0.3,0,0.3,0.3,0.6l-0.3,0.9c-0.9-0.3-1.2-0.9-1.2-1.8c0-0.6,0.6-1.2,1.2-1.2
	c0.6-0.3,1.5,0,1.8,0.9c0.3,0.3,0.6,0.9,0.3,1.5c-0.3,0.9-0.9,1.5-1.8,1.8c-0.9,0.3-1.8-0.3-2.8-1.2c0.3-1.2,0-1.8,0.3-2.8V3.1
	c0.3-0.9,0.9-1.8,2.2-2.2c0.9-0.3,2.2,0,3.1,0.6l0,0c0.6,0.3,1.2,1.2,1.8,2.2c0.6,1.2,1.8,1.8,2.2,1.8c-0.3,0-0.3-0.3-0.6-0.6
	c-0.3-0.6,0-0.9,0.3-1.5c0.3-0.3,0.6-0.3,1.2-0.3c0.9,0,1.5,0.9,1.5,1.8c0,0.6-0.3,0.9-0.6,1.2C292.3,6.8,291.7,6.8,291.4,6.8z
	 M291.7,4.3C291.7,4.3,291.4,4.3,291.7,4.3C291.4,4.6,291.4,4.6,291.7,4.3C291.4,4.6,291.4,4.6,291.7,4.3v1.2c0.3,0,0.3,0,0.6-0.3
	c0.3-0.3,0.3-0.3,0.3-0.6C292.3,4.6,292,4.3,291.7,4.3L291.7,4.3z M284.6,11.7c-0.3,0-0.6,0-0.9-0.3c-0.9-0.3-1.8-1.2-2.2-2.2V8.9
	c0-0.6,0-1.5,0.6-2.2c0.6-0.9,1.8-1.2,2.8-1.2c0.9,0.3,1.5,0.9,1.8,1.8c0,0.6,0,1.2-0.3,1.5c-0.6,0.6-1.2,0.9-1.8,0.9
	s-1.2-0.6-1.2-1.2c0-0.9,0.3-1.5,1.2-1.8l0.3,0.9c-0.3,0-0.3,0.3-0.3,0.6c0,0.3,0.3,0.3,0.6,0.6c0.3,0,0.6,0,0.9-0.3
	c0.3-0.3,0.3-0.6,0.3-0.6c0-0.6-0.6-0.9-0.9-0.9c-0.6,0-1.2,0-1.5,0.6c-0.3,0.3-0.3,0.9-0.3,1.2c0,0,0,0,0,0.3
	c0.3,0.6,0.6,1.2,1.2,1.5s1.5,0,2.2-0.3l0,0c0.6-0.3,0.9-0.9,1.5-1.8c1.2-2.5,3.4-2.5,3.7-2.5c0.6,0,0.9,0,1.2,0.3s0.6,0.9,0.6,1.2
	c0,0.9-0.6,1.8-1.5,1.8c-0.3,0-0.9,0-1.2-0.3s-0.6-0.9-0.3-1.5c0-0.3,0.3-0.6,0.6-0.6c-0.6,0-1.5,0.6-2.2,1.8
	c-0.6,0.9-1.2,1.5-1.8,2.2l0,0C286.2,11.4,285.2,11.7,284.6,11.7z M291.4,6.8v0.9c0,0,0,0-0.3,0V8h0.3c0.3,0,0.6-0.3,0.6-0.6
	C292,7.1,292,6.8,291.4,6.8C291.7,7.1,291.7,6.8,291.4,6.8z M171.5,5.8H284v0.9H171.5V5.8z M4.6,8c-1.8,0-3.7-1.2-4-1.2L0,6.5
	l0.6-0.3c0,0,2.5-1.5,4.6-1.2l0,0c0.9,0.3,1.5,0.9,1.5,1.8S6.1,8.3,5.2,8.6C4.9,8,4.6,8,4.6,8z M2.2,6.5c0.9,0.3,2.2,0.9,3.1,0.6
	c0.3,0,0.6-0.3,0.6-0.6s0-0.6-0.6-0.6l0,0C4,5.5,2.8,5.8,2.2,6.5z M8.6,6.8c-0.3,0-0.9-0.3-1.2-0.6C7.1,5.8,6.8,5.2,6.8,4.9
	c0-0.9,0.6-1.8,1.5-1.8c0.3,0,0.9,0,1.2,0.3s0.6,0.9,0.3,1.5c0,0.3-0.3,0.6-0.6,0.6c0.6,0,1.5-0.6,2.2-1.8c0.6-0.9,1.2-1.5,1.8-2.2
	l0,0c0.9-0.6,2.2-0.9,3.1-0.6c0.9,0.3,1.8,1.2,2.2,2.2v0.3c0,0.6,0,1.5-0.6,2.2c-0.6,0.9-1.8,1.2-2.8,1.2c-0.9-0.3-1.5-0.9-1.8-1.8
	c0-0.6,0-1.2,0.3-1.5c0.6-0.6,1.2-0.9,1.8-0.9s1.2,0.6,1.2,1.2c0,0.9-0.3,1.5-1.2,1.8l-0.3-0.9c0.3,0,0.3-0.3,0.3-0.6
	s-0.3-0.3-0.6-0.6c-0.3,0-0.6,0-0.9,0.3c-0.3,0.3-0.3,0.6-0.3,0.6c0,0.6,0.6,0.9,0.9,0.9c0.6,0,1.2,0,1.5-0.6
	c0.3-0.3,0.3-0.9,0.3-1.2c0,0,0,0,0-0.3c-0.3-0.6-0.6-1.2-1.2-1.5s-1.5,0-2.2,0.3l0,0c-0.6,0.3-0.9,0.9-1.5,1.8
	C11.1,6.8,9.2,6.8,8.6,6.8L8.6,6.8z M8.3,4.3L8.3,4.3C8,4.3,7.7,4.6,7.7,4.9c0,0.3,0,0.6,0.3,0.6c0,0,0.3,0.3,0.6,0.3V4.9
	c0,0,0,0,0.3,0C8.6,4.6,8.6,4.6,8.3,4.3C8.6,4.3,8.3,4.3,8.3,4.3z M15.4,11.7c-0.6,0-1.5-0.3-2.2-0.6l0,0c-0.6-0.3-1.2-1.2-1.8-2.2
	c-0.6-1.2-1.8-1.8-2.2-1.8c0.3,0,0.3,0.3,0.6,0.6c0.3,0.6,0,0.9-0.3,1.5C9.2,9.5,8.9,9.5,8.3,9.5c-0.9,0-1.5-0.9-1.5-1.8
	c0-0.6,0.3-0.9,0.6-1.2c0.3-0.3,0.9-0.6,1.2-0.3l0,0c0.3,0,2.5,0,3.7,2.5c0.3,0.6,0.9,1.5,1.5,1.8l0,0c0.6,0.6,1.2,0.6,2.2,0.3
	c0.6-0.3,1.2-0.9,1.2-1.5c0,0,0,0,0-0.3c0-0.6,0-0.9-0.3-1.2c-0.3-0.6-0.9-0.9-1.5-0.6c-0.6,0-0.9,0.6-0.9,0.9s0,0.6,0.3,0.6
	c0.3,0.3,0.6,0.6,0.9,0.3c0.3,0,0.3-0.3,0.6-0.6c0-0.3,0-0.3-0.3-0.6l0.3-0.9c0.9,0.3,1.2,0.9,1.2,1.8c0,0.6-0.6,1.2-1.2,1.2
	c-0.6,0.3-1.5,0-1.8-0.9c-0.3-0.3-0.6-0.9-0.3-1.5c0.3-0.9,0.9-1.5,1.8-1.8c0.9-0.3,1.8,0.3,2.8,1.2c0.6,0.6,0.6,1.5,0.6,2.2v0.3
	c-1.2,1.2-2.2,2.2-3.1,2.5C16,11.7,15.7,11.7,15.4,11.7z M8.6,6.8c-0.3,0-0.3,0-0.6,0.3c0,0-0.3,0.3-0.3,0.6S8,8.3,8.3,8.3h0.3
	c0,0,0.3-0.3,0-0.3c0,0,0,0-0.3,0L8.6,6.8z M16,5.8h112.5v0.9H16V5.8z"/>
</svg>
