<?xml version="1.0" encoding="utf-8"?>
<!-- Generator: Adobe Illustrator 23.0.3, SVG Export Plug-In . SVG Version: 6.00 Build 0)  -->
<svg version="1.1" id="Layer_1" xmlns="http://www.w3.org/2000/svg" xmlns:xlink="http://www.w3.org/1999/xlink" x="0px" y="0px"
	 viewBox="0 0 300 43.5" style="enable-background:new 0 0 300 43.5;" xml:space="preserve">
<style type="text/css">
	.st0{fill:#3E50B4;}
</style>
<path class="st0" d="M138.2,41.1c1,1.3-0.6,2.6-2.3,2.3C94.7,32.1,16,37.6,9.3,38.2c-0.3,0-0.6,0-1,0L1.2,36c-1.6-0.6-1.6-2.6,0-3.2
	l7.1-2.3c0.3,0,0.6,0,1,0c6.8,1,76.4,11,126.4-4.8c1.9-0.6,3.5,1,2.6,2.3c-1,1.6-1.9,3.5-2.3,6.1c0,0,0,0.3,0,0.6
	C136.3,37.3,137.3,39.5,138.2,41.1z M298.8,32.8l-7.1-2.3c-0.3,0-0.6,0-1,0c-6.8,1.3-76.4,11-126.4-4.8c-1.9-0.6-3.5,1-2.6,2.3
	c1,1.6,1.9,3.5,2.3,6.1c0,0,0,0.3,0,0.6c-0.3,2.6-1.3,4.8-2.3,6.4c-1,1.3,0.6,2.6,2.3,2.3c41.3-11.3,119.9-5.8,126.7-5.2
	c0.3,0,0.6,0,1,0l7.1-2.3C300.4,35.3,300.4,33.4,298.8,32.8z M192.7,7.9c4.8,5.2,2.3,13.9-2.6,15.8c-4.8,1.9-10.3-1.3-8.4-3.2
	c1.9-2.3,0.3-3.9-1.3-4.2c-1.6-0.3-6.4,1.9-5.2,7.1c1.6,5.2,8.7,7.7,15.5,4.5c6.8-3.2,11.6-11,6.1-19c-5.5-8.1-16.4-11.9-29.7-6.1
	c-14.2,6.4-16.1,17.1-14.8,24.8c-0.6-0.3-1.3-0.3-2.3-0.3c-1,0-1.6,0-2.6,0.3c1-7.7-0.6-18.4-14.8-24.8c-13.2-5.8-24.2-1.9-29.7,6.1
	s-0.6,15.8,6.1,19c6.8,3.2,13.9,0.6,15.5-4.5c1.3-5.2-3.5-7.4-5.2-7.1c-1.6,0.3-3.2,1.9-1.3,4.2c1.9,1.9-3.5,5.2-8.4,3.2
	s-7.4-10.6-2.6-15.8c4.8-5.2,20-8.7,31.9,1.6c6.1,5.5,7.4,12.9,7.1,18.7c-2.6,1-4.5,3.5-4.5,6.1c0,3.9,3.9,7.1,8.4,7.1
	s8.4-3.2,8.4-7.1c0-2.9-2.3-5.5-5.2-6.4c-0.3-5.5,1-12.9,7.4-18.4C172.7-0.8,187.9,2.8,192.7,7.9z"/>
</svg>
