<?xml version="1.0" encoding="utf-8"?>
<!-- Generator: Adobe Illustrator 23.0.3, SVG Export Plug-In . SVG Version: 6.00 Build 0)  -->
<svg version="1.1" id="Layer_1" xmlns="http://www.w3.org/2000/svg" xmlns:xlink="http://www.w3.org/1999/xlink" x="0px" y="0px"
	 viewBox="0 0 300 21.6" style="enable-background:new 0 0 300 21.6;" xml:space="preserve">
<style type="text/css">
	.st0{fill:#3E50B4;}
</style>
<path class="st0" d="M132.1,10.8c1-7.7,6.6-10.8,6.6-10.8C106.6,13.6,11.8,7,11.8,7L0,10.8l11.8,3.8c0,0,94.8-6.3,126.8,7
	C138.7,21.6,132.8,18.8,132.1,10.8z M167.9,10.8c-1-7.7-6.6-10.8-6.6-10.8c32.1,13.6,126.8,7,126.8,7l11.8,3.8l-11.8,3.8
	c0,0-94.8-6.3-126.8,7C161.3,21.6,167.2,18.8,167.9,10.8z M160.6,8.4c-0.7-0.7-1-1.4-1-2.4c0-1.7-1.7-3.5-4.2-3.5
	c-1,0-2.1-0.3-2.8-1c-1.7-1.4-4.2-1.4-5.6,0c-0.7,0.7-1.7,1-2.8,1c-2.1,0-4.2,1.4-4.2,3.5c0,1-0.3,1.7-1,2.4c-1.7,1.4-1.7,3.5,0,4.9
	c0.7,0.7,1,1.4,1,2.4c0,1.7,1.7,3.5,4.2,3.5c1,0,2.1,0.3,2.8,1c1.7,1.4,4.2,1.4,5.6,0c0.7-0.7,1.7-1,2.8-1c2.1,0,4.2-1.4,4.2-3.5
	c0-1,0.3-1.7,1-2.4C162.4,11.8,162.4,9.8,160.6,8.4z M149.8,14.3c-2.4,0-4.2-1.7-4.2-3.5c0-2.1,2.1-3.5,4.2-3.5
	c2.4,0,4.2,1.7,4.2,3.5C154,12.9,152.3,14.3,149.8,14.3z"/>
</svg>
