<?xml version="1.0" encoding="utf-8"?>
<!-- Generator: Adobe Illustrator 22.1.0, SVG Export Plug-In . SVG Version: 6.00 Build 0)  -->
<svg version="1.1" id="Layer_1" xmlns="http://www.w3.org/2000/svg" xmlns:xlink="http://www.w3.org/1999/xlink" x="0px" y="0px"
	 viewBox="0 0 156.4 20" style="enable-background:new 0 0 156.4 20;" xml:space="preserve">
<style type="text/css">
	.st0{fill:#4BAE4F;}
</style>
<path class="st0" d="M72.9,9.3H24c0.6-1,1.1-1.2,1.2-2c0.2-0.9,0-1.7-0.5-2.4c-0.6-0.8-1.4-1.3-2.6-1.5c-0.2,0-0.4,0.1-0.5,0.3
	c0,0.2,0.1,0.4,0.3,0.5c0.9,0.2,1.6,0.6,2.1,1.2c0.4,0.5,0.5,1.1,0.4,1.8c-0.2,1-1,2.1-2.4,2.1h-0.9c-0.1,0-0.2,0.1-0.3,0
	c-2-0.4-3.7-1.1-5.4-2.1c-0.6-0.7-0.7-1.4-0.7-1.9c0.1-0.9,0.5-1.6,0.9-1.9C16,3.1,16.4,3,16.8,3.1s0.8,0.3,1.1,0.7
	c0.7,0.9,0,1.5-0.1,1.6c-0.2,0.1-0.2,0.4-0.1,0.6s0.4,0.2,0.6,0.1c0.5-0.4,1.1-1.4,0.2-2.7c-0.4-0.5-1-0.9-1.6-1
	c-0.6-0.1-1.3,0.1-1.8,0.5C14.5,3.3,14,4.3,14,5.3c0,0.4,0,0.8,0.1,1.1c-1-0.7-1.9-1.4-2.9-2.2C8.7,2.3,6.4,0.5,3.9,0.1
	c-2.2-0.4-3.5,1-3.8,1.8C0,2.1,0.1,2.3,0.3,2.4c0.2,0.1,0.4,0,0.5-0.2c0-0.1,0.8-1.8,2.9-1.4C6,1.2,8.2,3,10.6,4.8
	C10.8,5,11,5.1,11.2,5.3C11.9,6,12,6.8,12,7.3c-0.1,0.9-0.5,1.5-0.9,1.8c-0.2,0.2-0.4,0.2-0.6,0.2H9.8c-0.4,0-0.7-0.2-0.9-0.5
	C8.2,7.9,8.9,7.3,9,7.2c0.1-0.1,0.1-0.3,0-0.5s-0.4-0.2-0.6,0C7.9,7,7.3,8,8.2,9.3c0,0.1,0.1,0.1,0.1,0.1H3.5
	c-0.2,0-0.4,0.3-0.4,0.5s0.2,0.5,0.4,0.5h5c-0.1,0-0.2,0.2-0.3,0.3C7.3,12,7.9,13,8.4,13.4c0.2,0.1,0.4,0.1,0.6-0.1
	c0.1-0.2,0.1-0.4-0.1-0.6c-0.1-0.1-0.7-0.7-0.1-1.6c0.2-0.3,0.6-0.6,1.1-0.7c0.4-0.1,0.8,0.1,1.2,0.3c0.4,0.3,0.8,1,0.9,1.9
	c0,0.5-0.1,1.3-0.7,2c-0.2,0.2-0.4,0.3-0.6,0.5c-2.4,1.8-4.6,3.6-6.9,4c-2.1,0.4-2.9-1.3-2.9-1.4c-0.1-0.2-0.3-0.3-0.5-0.2
	c-0.2,0.1-0.3,0.3-0.2,0.5c0.3,0.7,1.3,1.9,3,1.9c0.2,0,0.5,0,0.8-0.1c2.5-0.5,4.8-2.3,7.3-4.1c0.9-0.7,1.9-1.5,2.9-2.2
	C14,14,13.9,14.3,14,14.7c0.1,1,0.5,2,1.2,2.5c0.4,0.3,0.9,0.5,1.4,0.5c0.1,0,0.2,0,0.3,0c0.6-0.1,1.2-0.5,1.6-1
	c0.9-1.3,0.3-2.3-0.2-2.7c-0.2-0.1-0.4-0.1-0.6,0.1c-0.1,0.2-0.1,0.4,0.1,0.6c0.1,0.1,0.7,0.7,0.1,1.6c-0.2,0.3-0.6,0.6-1.1,0.7
	c-0.4,0.1-0.8-0.1-1.2-0.3c-0.4-0.3-0.8-1-0.9-1.9c0-0.5,0.1-1.3,0.7-2c1.6-1,3.4-1.8,5.4-2.2c2.1-0.4,3.4,0.8,3.6,2.1
	c0.1,0.7,0,1.3-0.4,1.9c-0.4,0.6-1.1,1-2.1,1.2c-0.2,0-0.4,0.3-0.3,0.5c0,0.2,0.3,0.4,0.5,0.3c2.6-0.5,3.4-2.4,3.1-4
	c-0.2-0.9-0.7-2.2-1.4-2.2h49.1c0.2,0,0.4-0.3,0.4-0.5C73.3,9.6,73.1,9.3,72.9,9.3z M12.8,7.3c0-0.3,0-0.6-0.1-0.9
	c0.7,0.5,1.4,1,2.2,1.5H15c1,0.6,2,1.5,3.1,1.5h-6.2C12.4,8.3,12.7,8.1,12.8,7.3z M15,12c0,0-0.1,0-0.1,0.1c-0.8,0.5-1.5,1-2.2,1.5
	c0.1-0.3,0.1-0.6,0.1-0.9c-0.1-0.9-0.5-2.3-1-2.3h6.8C17.3,10.3,16.1,11.4,15,12z M156.1,17.6c-0.2-0.1-0.4,0-0.5,0.2
	c0,0.1-0.8,1.8-2.9,1.4c-2.3-0.4-4.5-2.2-6.9-4c-0.2-0.2-0.4-0.3-0.6-0.5c-0.6-0.7-0.7-1.4-0.7-2c0.1-0.9,0.5-1.7,0.9-2
	c0.2-0.2,0.4-0.4,0.6-0.4h0.7c0.4,0,0.7,0.4,0.9,0.7c0.7,0.9,0,1.6-0.1,1.6c-0.2,0.1-0.2,0.4-0.1,0.6c0.1,0.2,0.4,0.2,0.6,0.1
	c0.5-0.4,1.1-1.5,0.2-2.8c0-0.1-0.1-0.2-0.1-0.2h4.8c0.2,0,0.4-0.3,0.4-0.5s-0.2-0.5-0.4-0.5h-5c0.1,0,0.2,0,0.3-0.2
	c0.9-1.3,0.3-2.2-0.2-2.6c-0.2-0.1-0.4-0.1-0.6,0.1c-0.1,0.2-0.1,0.4,0.1,0.6c0.1,0.1,0.7,0.7,0.1,1.6c-0.2,0.3-0.6,0.6-1.1,0.7
	c-0.4,0.1-0.8,0-1.2-0.3s-0.8-1-0.9-1.9c0-0.5,0.1-1.3,0.7-2c0.2-0.2,0.4-0.3,0.6-0.5c2.4-1.8,4.6-3.6,6.9-4
	c2.1-0.4,2.9,1.3,2.9,1.4c0.1,0.2,0.3,0.3,0.5,0.2s0.3-0.3,0.2-0.5C156,1.2,155,0,153.3,0c-0.2,0-0.5,0-0.8,0.1
	c-2.5,0.5-4.8,2.3-7.3,4.1c-0.9,0.7-1.9,1.5-2.9,2.2c0.1-0.4,0.1-0.7,0.1-1.1c-0.1-1-0.5-2-1.2-2.5c-0.4-0.3-0.9-0.5-1.4-0.5
	c-0.1,0-0.2,0-0.3,0c-0.6,0.1-1.2,0.5-1.6,1c-0.9,1.3-0.3,2.3,0.2,2.7c0.2,0.1,0.4,0.1,0.6-0.1s0.1-0.4-0.1-0.6
	c-0.1-0.1-0.7-0.7-0.1-1.6c0.2-0.3,0.6-0.6,1.1-0.7c0.4-0.1,0.8,0.1,1.2,0.3c0.4,0.3,0.8,1,0.9,1.9c0,0.5-0.1,1.3-0.7,2
	c-1.6,1-3.4,1.8-5.4,2.2c-2.1,0.4-3.4-0.8-3.6-2.1c-0.1-0.7,0-1.3,0.4-1.9s1.1-1,2.1-1.2c0.2,0,0.4-0.3,0.3-0.5
	c0-0.2-0.3-0.4-0.5-0.3c-2.6,0.5-3.4,2.2-3.1,3.8c0.2,0.9,0.6,2,1.4,2H83.5c-0.2,0-0.4,0.3-0.4,0.5s0.2,0.5,0.4,0.5h48.9
	c-0.6,1-1.1,1.3-1.2,2.1c-0.2,0.9,0,1.8,0.5,2.5c0.6,0.8,1.4,1.3,2.6,1.6c0.2,0,0.4-0.1,0.5-0.3c0-0.2-0.1-0.4-0.3-0.5
	c-0.9-0.2-1.6-0.6-2.1-1.2c-0.4-0.5-0.5-1.3-0.4-1.9c0.2-1,1-2.3,2.4-2.3h0.9c0.1,0,0.2,0.1,0.3,0.1c2,0.4,3.7,1.2,5.4,2.2
	c0.6,0.7,0.7,1.4,0.7,2c-0.1,0.9-0.5,1.6-0.9,1.9c-0.4,0.3-0.8,0.4-1.2,0.3s-0.8-0.3-1.1-0.7c-0.7-0.9,0-1.5,0.1-1.6
	c0.2-0.1,0.2-0.4,0.1-0.6c-0.1-0.2-0.4-0.2-0.6-0.1c-0.5,0.4-1.1,1.4-0.2,2.7c0.4,0.5,1,0.9,1.6,1s1.3-0.1,1.8-0.5
	c0.7-0.5,1.1-1.5,1.2-2.5c0-0.4,0-0.8-0.1-1.1c1,0.7,1.9,1.4,2.9,2.2c2.5,1.9,4.8,3.7,7.3,4.1c2.2,0.4,3.5-1,3.8-1.8
	C156.4,17.9,156.3,17.7,156.1,17.6z M141.4,7.8h0.1c0.8-0.5,1.5-0.9,2.2-1.5c-0.1,0.3-0.1,0.5-0.1,0.8c0.1,0.9,0.5,2.2,1,2.2h-6.8
	C139.1,9.3,140.3,8.5,141.4,7.8z M141.5,12.1l-0.1-0.1c-1-0.6-2-1.6-3.1-1.6h6.2c-0.5,1-0.8,1.4-0.9,2.2c0,0.3,0,0.7,0.1,1
	C143,13,142.3,12.5,141.5,12.1z M0,9.8c0-0.3,0.2-0.5,0.5-0.5S1,9.5,1,9.8s-0.2,0.5-0.5,0.5S0,10.1,0,9.8z M1.9,10.3
	c-0.3,0-0.5-0.2-0.5-0.5s0.2-0.5,0.5-0.5s0.5,0.2,0.5,0.5S2.2,10.3,1.9,10.3z M78.2,9.6c0.3,0,0.5,0.2,0.5,0.5s-0.2,0.5-0.5,0.5
	s-0.5-0.2-0.5-0.5S77.9,9.6,78.2,9.6z M82.2,10c0,0.3-0.2,0.5-0.5,0.5s-0.5-0.2-0.5-0.5s0.2-0.5,0.5-0.5C82,9.6,82.2,9.8,82.2,10z
	 M75.1,10c0,0.3-0.2,0.5-0.5,0.5s-0.5-0.2-0.5-0.5s0.2-0.5,0.5-0.5C74.9,9.6,75.1,9.8,75.1,10z M78.4,7.7c-0.2-0.2-0.4-0.2-0.6,0
	l-2,2c-0.1,0.1-0.1,0.2-0.1,0.3s0,0.2,0.1,0.3l2,2c0.1,0.1,0.2,0.1,0.3,0.1c0.1,0,0.2,0,0.3-0.1l2-2c0.2-0.2,0.2-0.4,0-0.6L78.4,7.7
	z M78.1,11.5L76.6,10l1.5-1.5l1.5,1.5L78.1,11.5z M156.4,10c0,0.3-0.2,0.5-0.5,0.5s-0.5-0.2-0.5-0.5s0.2-0.5,0.5-0.5
	S156.4,9.7,156.4,10z M154.5,9.5c0.3,0,0.5,0.2,0.5,0.5s-0.2,0.5-0.5,0.5S154,10.3,154,10S154.2,9.5,154.5,9.5z"/>
</svg>
