<?xml version="1.0" encoding="utf-8"?>
<!-- Generator: Adobe Illustrator 22.1.0, SVG Export Plug-In . SVG Version: 6.00 Build 0)  -->
<svg version="1.1" id="Layer_1" xmlns="http://www.w3.org/2000/svg" xmlns:xlink="http://www.w3.org/1999/xlink" x="0px" y="0px"
	 viewBox="0 0 77.1 20" style="enable-background:new 0 0 77.1 20;" xml:space="preserve">
<style type="text/css">
	.st0{fill:#4BAE4F;}
</style>
<path class="st0" d="M37,14.2c-2.4-1-3.3-1.8-3.4-3.4c0-0.7-0.4-1-0.5-1.3c-0.3-1.1,2-1.8,2-1.8C34.7,9.1,35,10,35,10
	s-0.7,0.1-0.6,0.7c0.1,0.5,0.5,0.6,0.5,0.6C35.2,12.9,37,14.2,37,14.2z M38.8,13c-1.2,0.3-1,1.4-1,1.4c2.2,0.6,3.3-0.6,3.3-0.6
	l-0.5-0.1C39.3,13.5,39.3,12.9,38.8,13z M43.9,11c0,0-0.4,0.5-0.8,0.5c0,0-0.4,0.9-0.8,1.2c-0.4,0.3-0.5,0.5-0.5,0.5
	s-0.4,0.7-0.6,0.6l0.3,0.1c0,0,0.7,0,0.8-0.4s-0.2-0.3,0-0.5s0.9,0,1.2-0.2C43.7,12.5,44.1,12.1,43.9,11z M38.7,12.8
	c0.9,0,0.6,0.4,1.7,0.7c0,0,1-0.8,1-1.8c0-0.7-0.5-0.8-0.8-0.8c-0.2,0-0.6,0.1-1.7,0.1c-0.4,0-0.4,0.2-0.5,0.4S38,12,37.3,11.9
	s-1-0.2-1.3-0.3c-0.6-0.2-0.9-0.9-1-1.3c-0.3,0.1-0.5,0.2-0.4,0.5c0.1,0.2,0.3,0.4,0.5,0.4c0.2,0.6,0.9,2.2,2.3,3
	C37.4,14.1,37.6,12.9,38.7,12.8z M35.9,11.2c0,0,0.3-0.2,0.4-0.2c0,0-0.1-0.7-0.1-1c0,0-0.5-0.3-0.4-1s0.8-0.5,0.8-0.5
	s0.2-0.2,0.3-0.3c0,0,0.5-1,1.2-1.5c0,0-0.6-0.1-1.1,0c-0.5,0-0.5,0.3-0.7,0.3c-0.1,0-0.5-0.2-0.7,0.1c0,0-1,1.8-0.2,3.6
	C35.5,10.7,35.7,11.1,35.9,11.2z M37.2,8.1C37.5,7.9,37.8,8,37.8,8c0.9-0.9,2.1-0.7,2.1-0.7c0,0.2,0.5,0.6,0.5,0.6S41,8,41.2,8.6
	c0.2,0.5-0.4,1-0.4,1l0.2,1.1c0.8,0.2,0.6,1.2,0.6,1.2c0.9-1.6,0.7-3.4,0.4-4.1s-1.2-1-1.5-1.1c-0.4-0.1-0.4-0.2-1.1-0.3
	C38.5,6.3,37.2,8.1,37.2,8.1z M42.5,10c-0.3,2.5-1.8,3.5-1.8,3.5l0.3,0.1c0.5-0.3,0.6-0.7,1-1c0.7-0.6,1-1.4,1-1.4
	c0.5-0.1,0.6-0.3,1-0.8s0.5-1.3,0.3-1.7s-0.6-0.3-0.8-1S43,6.8,42.3,6.6s-1.5,0.1-1.5,0.1C41.8,6.9,42.8,7.5,42.5,10z M40.9,9.2
	C41,9,41.1,8.5,40.6,8.1c0,0,0.1,0.4,0.1,0.7s0,0.5-0.2,0.8c-0.1,0.1-0.3,0.4-0.5,0.5c-0.1,0.2-0.2,0.4-0.4,0.6c0,0,0.9,0,1.1-0.1
	l-0.1-1.1C40.6,9.6,40.8,9.4,40.9,9.2z M37.8,11.5c0.5-0.1,0.4-0.5,0.6-0.7c0.1-0.2,0.3,0,0.7-0.2c0.4-0.1,0.6-0.5,0.6-0.5
	c-0.4,0.2-1.7,0.6-2.5,0.8s-1,0.4-1,0.4C36.8,11.4,37.4,11.6,37.8,11.5z M36,9c0,0.5,0.3,0.7,0.4,0.8l0.2,1.1c0,0,0.1-0.1,1.3-0.3
	c0,0-0.7-0.3-1.1-0.6c-0.1-0.1-0.1-0.1-0.1-0.4c-0.5-0.3-0.2-1-0.2-1S36,8.6,36,9z M36.6,9c0,0.4,0.2,0.6,0.2,0.6v0.3l0.3,0.2
	c0,0,0-0.3,0-0.9c0.1-0.7,0.6-1,0.6-1c-0.2,0-0.5,0-0.8,0.1C36.7,8.4,36.6,8.6,36.6,9z M40.3,9.4c0.1-0.3,0.3-1.1-0.1-1.4
	c-0.4-0.3-0.4-0.5-0.4-0.5S38.7,7.3,38,8.2c0,0,0.6-0.2,1.3,0.3C39.9,9,40,9.4,39.7,10C39.7,10,40.2,9.7,40.3,9.4z M39.5,10l0.1-0.2
	c0,0-0.2-0.1-0.5,0s-0.5,0.1-0.6,0s-0.2-0.1-0.3,0.1c-0.2,0.1-0.6,0.2-0.8,0.2c0,0,0.6,0.3,0.8,0.3C38.1,10.5,38.3,10.5,39.5,10z
	 M37.4,9.1v0.2c0,0,0.2,0,0.3,0C37.9,9.2,38,9,38.1,8.9s0.4-0.2,0.6,0C38.8,9,38.8,9,39.1,9c0.2,0,0.2,0.2,0.2,0.2l0.3,0.4
	c0,0,0.1-0.2,0.1-0.3c-0.1-0.2-0.3-0.6-0.5-0.7c-0.2-0.1-0.5-0.2-0.7-0.2C37.7,8.3,37.4,9.1,37.4,9.1z M37.8,9.4
	c-0.2,0.2-0.5,0.1-0.5,0.1c0,0.1,0,0.5,0,0.5s0.5,0,0.8-0.2c0.1-0.1,0.3-0.2,0.5-0.1c0.2,0.1,0.6-0.1,0.6-0.1S39.1,9.3,39,9.4
	c-0.1,0.1-0.5,0.2-0.7,0.1c-0.2-0.1-0.1-0.4-0.1-0.4C38.1,9.1,37.9,9.3,37.8,9.4z M38.4,6.5c0.4-0.1,0.5-0.3,0.8-0.3
	s0.6,0.1,0.7,0.1c0,0-0.4-0.4-1.4-0.7c-1-0.2-0.8,0.5-1.1,0.7C37.3,6.4,37.9,6.4,38.4,6.5z M45.4,4.5c1.1-1.3,2.8,0.3,1.9,1.2
	c0.1-0.2,0.1-0.8-0.2-1c-0.1,0.7-0.8,0.8-1.2,1C46,5.9,46.1,6,46.2,6.2c0.4-0.3,0.9-0.3,1.3,0c-0.4,0-0.7,0.2-0.8,0.5
	C46.9,6.8,47,7,47.2,7.1c0.1-0.1,0.4-0.1,0.6,0c-0.1,0.1-0.2,0.2-0.3,0.4c0.2,0.1,0.5,0.2,0.7,0.4c0.7,0.1,1.6-0.1,2.4-0.5
	c0.2-0.2,0.5-0.6,0.7-1.5c0.2-0.8,0.7-0.6,0.8-0.3c0,0.2,0.3,0.1,0.6-0.2c0.1-0.2,0.2-0.4,0.2-0.5c-0.2,0.8-0.7,1.6-1.5,2.3
	c-0.8,0.6-1.7,1-2.5,1c1.1,0.4,2.3,0.6,3.7,0.7C55,8,56.9,5.6,56.9,3.2c0-1.9-1-2.4-1.6-2.5c-0.1,0-0.2,0-0.4,0
	c-0.4,0-0.8,0.2-1,0.4s-0.4,0.5-0.4,0.8c0,0.2,0.1,1,0.8,1.1c0.1,0,0.2,0,0.2,0s0.2,0,0.2,0.1s-0.2,0.1-0.2,0.1s-0.2,0-0.5,0
	c-0.4-0.1-1-0.3-1-1.3c0-0.5,0.2-1,0.6-1.3c0.5-0.4,1-0.6,1.5-0.6c0.1,0,0.2,0,0.3,0c0.5,0.1,2,0.6,2,3.1c0,1.4-0.7,3-1.8,4.2
	c-0.6,0.7-1.2,1.2-2,1.5h0.1c4,0,7.3-1.6,8-3.5c-0.1,0.8-0.6,1.5-1.5,2.1c1-0.2,2.3,0.2,2.1,1.3c-0.1,0.9-1.3,0.7-1.2,0
	c0-0.1,0.1-0.7-0.3-1.1c0.2,0.3,0.2,0.6,0,0.8c-0.1-0.7-0.8-0.7-1.4-0.6C58,8.6,56,9.1,53.7,9.2c-0.3,0-0.6,0-0.9,0
	c-0.6,0.2-1.3,0.3-2,0.3s-1.3,0-1.9-0.1c-0.3-0.1-0.6-0.1-0.9-0.2C46,8.5,43.9,6.3,45.4,4.5z M47.5,7.7c0,0.6,0.9,1,1.7,1.2
	C49.7,9,50.2,9,50.8,9c0.2,0,0.4,0,0.6,0C50,8.8,48.6,8.4,47.5,7.7z M46.7,8c0-0.3,0.1-0.5,0.3-0.7c-0.2-0.1-0.3-0.2-0.4-0.4
	C46.3,7.3,46.4,7.8,46.7,8z M45.6,7c0.1-0.3,0.2-0.5,0.4-0.7c-0.1-0.2-0.2-0.4-0.3-0.5C45.4,5.9,45.1,6.2,45.6,7z M47.2,9.1
	c0.1,0,0.2,0,0.3,0c-2.1-0.5-3.6-2.6-3.2-4.8c0.2-1.1,0.7-2,1.5-2.6c-0.9,0.6-1.6,1.6-1.8,2.8C43.5,6.8,45,8.8,47.2,9.1z M60.5,6.4
	c-0.4,0.3-0.9,0.3-0.9,0S59,5.6,58.5,6.5c-0.8,1.5-1.7,1.7-1.7,1.7C59,7.9,60.5,6.4,60.5,6.4z M62.4,11.3c0.1,1.1-1.1,1.5-2.1,1.3
	c0.8,0.6,1.3,1.3,1.5,2.1c-0.7-2-4-3.5-8-3.5h-0.1c0.7,0.4,1.4,0.8,1.9,1.4c1.1,1.2,1.8,2.8,1.8,4.2c0,2.5-1.5,3-2,3.1
	c-0.1,0-0.2,0-0.3,0c-0.5,0-1-0.2-1.4-0.5c-0.4-0.4-0.6-0.8-0.6-1.3c0-1,0.6-1.3,1-1.3c0.3,0,0.5,0,0.5,0s0.2,0,0.2,0.1
	S54.6,17,54.6,17c-0.1,0-0.2,0-0.2,0c-0.7,0.1-0.8,0.9-0.8,1.1c0,0.3,0.1,0.6,0.4,0.8c0.3,0.3,0.6,0.4,1,0.4c0.1,0,0.2,0,0.4,0
	c0.6-0.1,1.6-0.6,1.6-2.5c0-2.4-1.9-4.8-4.3-5.6c-1.4,0.1-2.6,0.3-3.7,0.7c0.8,0,1.7,0.4,2.5,1c0.8,0.7,1.4,1.5,1.5,2.3
	c-0.1-0.2-0.1-0.4-0.2-0.5c-0.2-0.3-0.5-0.4-0.6-0.2s-0.6,0.5-0.8-0.3c-0.2-0.9-0.5-1.3-0.7-1.5c-0.8-0.5-1.7-0.6-2.4-0.5
	c-0.2,0.1-0.5,0.2-0.7,0.4c0,0.1,0.1,0.2,0.3,0.4c-0.3,0.1-0.5,0.1-0.7-0.1c-0.2,0.1-0.3,0.3-0.5,0.4c0.2,0.3,0.5,0.5,0.8,0.5
	c-0.5,0.4-1,0.3-1.3,0c-0.1,0.2-0.2,0.3-0.3,0.5c0.5,0.2,1.2,0.3,1.2,1c0.4-0.1,0.3-0.7,0.2-1c0.9,0.9-0.7,2.5-1.9,1.2
	c-1.6-1.8,0.5-4,2.7-4.6c0.2-0.1,0.5-0.2,0.9-0.2c0.6-0.1,1.2-0.2,1.9-0.1c0.7,0,1.3,0.1,2,0.3c0.3,0,0.6,0,0.9,0
	c2.3,0,4.3,0.5,5.8,1.3c0.6,0.2,1.3,0.1,1.4-0.6c0.2,0.2,0.2,0.5,0,0.8c0.4-0.4,0.3-0.9,0.3-1.1C61.1,10.7,62.3,10.5,62.4,11.3z
	 M46,13.7c-0.2-0.2-0.3-0.4-0.4-0.7c-0.5,0.8-0.3,1,0.1,1.2C45.8,14,45.9,13.8,46,13.7z M46.9,12.7c-0.2-0.2-0.3-0.5-0.3-0.7
	c-0.3,0.2-0.3,0.7-0.2,1.1C46.6,12.9,46.8,12.8,46.9,12.7z M51.5,11c-0.2,0-0.4,0-0.6,0c-0.6,0-1.1,0-1.6,0.1
	c-0.9,0.2-1.7,0.6-1.7,1.2C48.6,11.6,50,11.2,51.5,11z M47.5,10.8c-0.1,0-0.2,0-0.3,0c-2.2,0.3-3.7,2.4-3.3,4.5
	c0.2,1.2,0.9,2.2,1.8,2.8c-0.8-0.6-1.3-1.5-1.5-2.6C43.9,13.4,45.3,11.3,47.5,10.8z M58.5,13.5c0.5,0.9,1.1,0.4,1.1,0.1
	c0-0.3,0.5-0.3,0.9,0c0,0-1.6-1.5-3.7-1.8C56.9,11.8,57.7,12,58.5,13.5z M15.3,8.6c-0.1-1.1,1.1-1.5,2.1-1.3c-0.7-0.5-1.2-1.3-1.4-2
	c0.7,2,4,3.5,8,3.5c-0.7-0.4-1.4-0.8-1.9-1.4c-1.1-1.2-1.8-2.8-1.8-4.2c0-2.5,1.5-3,2-3.1c0.1,0,0.2,0,0.3,0c0.5,0,1,0.2,1.4,0.5
	c0.4,0.4,0.6,0.8,0.6,1.3c0,1-0.6,1.3-1,1.3c-0.3,0-0.5,0-0.5,0s-0.2,0-0.2-0.1C22.9,3,23.1,3,23.1,3c0.1,0,0.2,0,0.2,0
	c0.7-0.1,0.8-0.9,0.8-1.1c0-0.3-0.1-0.6-0.4-0.8c-0.3-0.3-0.6-0.4-1-0.4c-0.1,0-0.2,0-0.4,0c-0.6,0.1-1.6,0.6-1.6,2.5
	c0,2.4,1.9,4.8,4.3,5.6c1.4-0.1,2.7-0.3,3.8-0.7c-0.8,0-1.7-0.4-2.5-1c-0.8-0.7-1.4-1.5-1.5-2.3C24.9,5,24.9,5.2,25,5.3
	c0.2,0.3,0.5,0.4,0.6,0.2c0.1-0.2,0.6-0.5,0.8,0.3c0.2,0.9,0.5,1.3,0.7,1.5c0.8,0.5,1.7,0.6,2.4,0.5c0.2-0.1,0.5-0.2,0.7-0.4
	c0-0.1-0.1-0.2-0.3-0.4c0.3,0,0.5,0,0.7,0.2C30.8,7,31,6.9,31.1,6.8c-0.2-0.3-0.5-0.5-0.8-0.5c0.5-0.4,1-0.3,1.3,0
	c0.1-0.2,0.2-0.3,0.3-0.5c-0.5-0.2-1.2-0.3-1.2-1c-0.4,0.1-0.3,0.7-0.2,1c-0.9-0.9,0.7-2.5,1.9-1.2c1.6,1.9-0.8,4.2-3,4.7
	c-0.2,0.1-0.4,0.1-0.6,0.1c-0.6,0.1-1.2,0.2-1.9,0.1c-0.7,0-1.3-0.1-2-0.3c-0.3,0-0.5,0-0.8,0c-2.3,0-4.3-0.5-5.8-1.3
	c-0.6-0.2-1.3-0.1-1.4,0.6c-0.2-0.2-0.2-0.5,0-0.8c-0.4,0.4-0.3,0.9-0.3,1.1C16.7,9.3,15.5,9.5,15.3,8.6z M31.7,6.3
	C31.9,6.5,32,6.7,32.1,7c0.5-0.8,0.3-1-0.1-1.2C31.9,6,31.9,6.2,31.7,6.3z M30.8,7.3C31,7.5,31.1,7.8,31.1,8
	c0.3-0.2,0.3-0.7,0.2-1.1C31.1,7.1,31,7.2,30.8,7.3z M26.2,9c0.2,0,0.4,0,0.6,0c0.7,0,1.3,0,1.9-0.1c0.8-0.2,1.6-0.6,1.6-1.2
	C29.2,8.4,27.8,8.8,26.2,9z M30.3,9.2c0.1,0,0.2,0,0.3,0c2.2-0.3,3.7-2.4,3.3-4.5c-0.2-1.2-0.9-2.2-1.8-2.8c0.8,0.6,1.3,1.5,1.5,2.6
	C33.9,6.6,32.4,8.7,30.3,9.2z M19.2,6.5c-0.5-0.9-1.1-0.4-1.1-0.1s-0.5,0.3-0.9,0c0,0,1.6,1.5,3.7,1.8C20.9,8.2,20.1,8,19.2,6.5z
	 M32.3,15.5c-1.1,1.3-2.8-0.3-1.9-1.2c-0.1,0.2-0.1,0.8,0.2,1c0.1-0.7,0.8-0.8,1.2-1c-0.1-0.2-0.2-0.3-0.3-0.5
	c-0.4,0.3-0.9,0.3-1.3,0c0.4,0,0.7-0.2,0.8-0.5c-0.2-0.1-0.3-0.3-0.5-0.4C30.3,13,30,13.1,29.8,13c0.1-0.1,0.2-0.2,0.3-0.4
	c-0.2-0.1-0.5-0.2-0.7-0.4c-0.7-0.1-1.6,0.1-2.4,0.5c-0.2,0.2-0.5,0.6-0.7,1.5c-0.2,0.8-0.7,0.6-0.8,0.3c0-0.2-0.3-0.1-0.6,0.2
	c-0.1,0.2-0.2,0.4-0.2,0.5c0.2-0.8,0.7-1.6,1.5-2.3c0.8-0.6,1.7-1,2.5-1c-1.1-0.4-2.4-0.7-3.8-0.7c-2.4,0.8-4.3,3.2-4.3,5.6
	c0,1.9,1,2.4,1.6,2.5c0.1,0,0.2,0,0.4,0c0.4,0,0.8-0.2,1-0.4c0.2-0.2,0.4-0.5,0.4-0.8c0-0.2-0.1-1-0.8-1.1c-0.1,0-0.2,0-0.2,0
	s-0.2,0-0.2-0.1s0.2-0.1,0.2-0.1s0.2,0,0.5,0c0.4,0.1,1,0.3,1,1.3c0,0.5-0.2,1-0.6,1.3C23.5,19.8,23,20,22.5,20c-0.1,0-0.2,0-0.3,0
	c-0.5-0.1-2-0.6-2-3.1c0-1.4,0.7-3,1.8-4.2c0.6-0.6,1.2-1.1,1.9-1.4c-4,0-7.3,1.6-8,3.5c0.1-0.8,0.6-1.5,1.5-2.1
	c-1,0.2-2.3-0.2-2.1-1.3c0.1-0.9,1.3-0.7,1.2,0c0,0.1-0.1,0.7,0.3,1.1c-0.2-0.3-0.2-0.6,0-0.8c0.1,0.7,0.8,0.7,1.4,0.6
	c1.5-0.8,3.5-1.3,5.8-1.3c0.3,0,0.5,0,0.8,0c0.6-0.2,1.3-0.3,2-0.3s1.3,0,1.9,0.1c0.2,0,0.4,0.1,0.6,0.1
	C31.5,11.2,34,13.6,32.3,15.5z M30.2,12.3c0-0.6-0.8-1-1.6-1.2C28,11,27.4,10.9,26.7,11c-0.2,0-0.4,0-0.6,0
	C27.8,11.2,29.2,11.6,30.2,12.3z M31.1,12c0,0.3-0.1,0.5-0.3,0.7c0.2,0.1,0.3,0.2,0.4,0.4C31.4,12.7,31.4,12.2,31.1,12z M32.1,13
	c-0.1,0.3-0.2,0.5-0.4,0.7c0.1,0.2,0.2,0.4,0.3,0.5C32.4,14.1,32.6,13.8,32.1,13z M30.5,10.9c-0.1,0-0.2,0-0.3,0
	c2.1,0.5,3.6,2.6,3.2,4.8c-0.2,1.1-0.7,1.9-1.5,2.6c0.9-0.6,1.6-1.6,1.8-2.8C34.2,13.2,32.7,11.2,30.5,10.9z M17.2,13.6
	c0.4-0.3,0.9-0.3,0.9,0s0.6,0.8,1.1-0.1c0.8-1.5,1.7-1.7,1.7-1.7C18.8,12.1,17.2,13.6,17.2,13.6z M75.3,9.9H45v0.4h30.3l1.7-0.2
	L75.3,9.9z M32.1,9.9H1.7L0,10.1l1.7,0.2H32L32.1,9.9L32.1,9.9z"/>
</svg>
