<?xml version="1.0" encoding="utf-8"?>
<!-- Generator: Adobe Illustrator 23.0.3, SVG Export Plug-In . SVG Version: 6.00 Build 0)  -->
<svg version="1.1" id="Layer_1" xmlns="http://www.w3.org/2000/svg" xmlns:xlink="http://www.w3.org/1999/xlink" x="0px" y="0px"
	 viewBox="0 0 300 27" style="enable-background:new 0 0 300 27;" xml:space="preserve">
<style type="text/css">
	.st0{fill:#3E50B4;}
</style>
<path class="st0" d="M246.4,1c0.7,0,1.4-0.3,1.7,0C247.8,1,247.1,1,246.4,1z M256.4,2.1c-0.3-0.3-0.7,0-1,0
	C255.3,2.4,256.4,2.4,256.4,2.1z M3.8,19.9c-0.3-0.3-0.7,0-0.7,0c-0.7-0.3-1.4,0-2.1-0.3c-0.3,0.3,0.7,0.3,0.7,0.3
	c-0.3,0.3-0.7,0-1,0.3c-0.3,0,0.3-0.3-0.3-0.3c0,0-0.3,0-0.3,0.3c0.7,0,0,1,0.7,0.3c0.7,0,1.4,0,2.4,0c0.3-0.3,0.3-0.3,0.7,0
	C3.8,20.3,3.8,20.3,3.8,19.9c0,0,0,0.3,0.3,0.3c0-0.3,0.3-0.3,0.7-0.7C4.5,19.6,4.1,19.9,3.8,19.9z M43.3,1.7c-0.3,0-0.7,0-1,0
	C42.6,2.1,43,2.1,43.3,1.7z M29.2,2.7C29.2,2.7,29.6,2.7,29.2,2.7c0.3,0.3,0.7,0,0.7,0C29.6,2.7,29.2,2.7,29.2,2.7
	C28.9,2.7,29.2,2.7,29.2,2.7z M162.2,1.7c0,0-0.3-0.3-0.7,0C161.9,2.1,161.9,1.7,162.2,1.7z M245.7,1C245.7,1,245.4,1,245.7,1
	c-0.7-0.3-0.3,0-0.7-0.3C244.7,1,245.4,1,245.7,1z M121.3,0.7L121.3,0.7C121.3,0.7,121.3,0.3,121.3,0.7C121,0.7,121,0.7,121.3,0.7z
	 M5.2,20.6c0.3,0.3,0.7,0.3,0.7,0C5.5,21,5.2,20.6,5.2,20.6z M118.6,0.7c0.3-0.3-0.3-0.3,0-0.7c-0.3,0-0.3,0-0.7,0
	c0.3,0.3,0.3,0,0,0.3C118.2,0.7,118.6,0.7,118.6,0.7z M134.7,1.4C135.1,1.4,134.7,1.4,134.7,1.4c-0.7,0-1-0.3-1.4,0
	C134,1.7,134.4,1,134.7,1.4z M144.3,1.4c-0.3,0-0.7,0-1,0S144.3,1.7,144.3,1.4z M118.6,1L118.6,1c0.3,0.3,0.7,0,1,0.3
	c0.3-0.7,1-0.3,1.4-0.3c0.3,0-0.3-0.3,0.3-0.3c-0.7,0-1,0-1.7,0c-0.3,0,0-0.3-0.3-0.3C119.2,1,118.6,1,118.6,1
	C118.2,1,118.2,1.4,118.6,1z M21,25.8c0.3,0,0.7,0,0.7,0C21.6,25.4,21.3,25.4,21,25.8z M18.6,25.4c0.3,0,0.3,0.3,0.7,0.3
	C19.2,25.8,19.2,25.4,18.6,25.4C18.9,25.4,18.6,25.4,18.6,25.4z M23.7,25.1C23.7,25.4,23.7,25.4,23.7,25.1c-0.3,0.3-0.3,0.3-0.7,0
	c-0.3,0-0.3,0-0.7,0c-0.3,0-0.3,0.3-0.3,0.3h0.3c0.3,0,0.3-0.3,0.3-0.3C23,25.4,23,25.4,23.7,25.1c0,0,0.3,0,1-0.3
	C24.4,25.4,24.1,25.4,23.7,25.1z M40.9,26.8c0.3,0,0.7,0.3,1,0C41.6,26.8,41.2,26.8,40.9,26.8z M30.2,26.5c-0.3,0-0.3,0-0.7,0
	C29.9,26.8,30.6,26.8,30.2,26.5z M17.5,25.4C17.5,25.4,17.9,25.4,17.5,25.4c0.3,0,0.7,0.3,0.7,0C17.9,25.4,17.5,25.4,17.5,25.4z
	 M8.2,20.6C7.9,21,8.2,21,8.2,20.6C8.2,21,8.2,21,8.2,20.6L8.2,20.6z M7.2,19.9C7.2,19.9,7.2,20.3,7.2,19.9
	c-0.3,0.3,0.3,0.3,0.7,0.3C7.6,19.9,7.6,20.3,7.2,19.9z M48.1,26.8c-0.7,0-1.4,0-1.7,0C46.4,26.8,47.4,26.8,48.1,26.8z M12.7,21.3
	c0,0.3,0.7,0.3,0.7,0C13.1,21,13.1,21.3,12.7,21.3z M10.3,21.3c0,0.3-0.7,0.3-1,0.3C9.6,21.6,10.3,21.6,10.3,21.3
	C10.3,21.6,10.3,21.6,10.3,21.3z M14.1,21.3C14.1,21.3,14.4,21.3,14.1,21.3c0.3,0.3,0.3,0,0.7,0C14.8,21.3,14.1,21,14.1,21.3z
	 M5.5,20.3c0.3,0,0.7,0.3,0.7,0C6.2,19.9,5.8,19.9,5.5,20.3z M86.6,1c0.3,0.3,0,0.3-0.7,0.3c0.7,0.3,2.1,0.3,2.7,0
	c-0.3-0.3-0.7,0-1-0.3C87.6,1.4,86.9,1,86.6,1C86.6,1,87.3,1,86.6,1z M86.9,0.7C87.3,0.3,86.6,0.7,86.9,0.7c-0.7,0-0.7,0-1,0
	C85.9,1,86.6,0.7,86.9,0.7z M91.1,1.7c-0.3-0.7-1.4-0.3-2.1,0C89.7,1.7,90.4,1.7,91.1,1.7z M85.6,1c-0.3,0-0.7,0-0.7,0.3
	C85.2,1.7,85.6,1.4,85.6,1z M98.6,1c-0.3-0.3-0.7,0.3-0.7,0c-0.3,0-0.3,0.3-0.3,0.3s0.3,0,0.3,0.3C98.3,1.4,98.3,1.4,98.6,1z
	 M95.2,1.4C95.5,1.7,94.8,1.4,95.2,1.4c0,0.3,0.3,0.3,0.3,0C95.2,1.4,95.2,1.4,95.2,1.4c0.3-0.7,0.7,0,1-0.3c-0.3,0-0.3,0-0.7-0.3
	c-0.3,0.3-1,0.3-1.4,0c0,0.3,0.3,0.3,0,0.7C94.5,1.7,94.5,1,95.2,1.4z M74.2,1.7c0-0.3,0.7-0.3,1.4-0.3C75.6,1.4,74.2,1,74.2,1.7
	c-0.3-0.7-0.7-0.7-1-0.3C73.2,1.7,73.9,1.7,74.2,1.7z M77,0.7c-1,0-2.1,0.3-2.7-0.3C74.2,1,76.3,1,77,0.7z M99.7,1
	C99.7,1,99.3,1,99.7,1c-0.3,0-0.3,0-0.7,0c0,0.3,0,0-0.3,0.3c0.3,0,0,0.3,0.3,0.3C99,1.4,99.3,1.4,99.7,1z M64.3,2.7L64.3,2.7
	c0-0.3,0-0.3,0.3-0.3s-0.3,0-0.3-0.3c0,0.3,0,0-0.3,0.3C64.3,2.4,63.6,2.7,64.3,2.7z M78.4,2.1C78.4,2.1,78.7,2.1,78.4,2.1
	c1-0.3,2.1,0,3.1-0.3c-1-0.3-1.7,0-2.7,0c0,0,0,0,0.3,0.3C79,2.1,78.7,2.1,78.4,2.1z M81.1,1c0.3,0,0.7,0,1,0C82.1,1,81.4,1,81.1,1z
	 M75.6,1.4C75.6,1.4,75.9,1.7,75.6,1.4c0,0.3-0.3,0.3-0.3,0.3c0.3,0,1-0.3,1.4,0c0-0.7,1.4,0,2.1-0.3c0,0-0.3-0.3,0-0.3
	c-0.3,0-0.7,0.3-1.4,0C77,1.7,76.3,1.4,75.6,1.4z M102.7,1.4C103.1,1.4,102.7,1.4,102.7,1.4c-0.3-0.3-0.3-0.3-0.7,0
	C102.4,1.4,102.4,1.7,102.7,1.4C102.7,1.7,102.7,1.4,102.7,1.4z M108.9,1.4c-0.3-0.3-0.3,0-0.7-0.3c-0.3,0-0.3,0.3,0,0.3
	S108.6,1.4,108.9,1.4z M110.7,1.4L110.7,1.4C110.3,1,110,1,109.6,1C110,1.7,110.3,1,110.7,1.4z M99,1.7c0.3,0,0.7,0,1,0
	c0,0-0.3,0-0.3-0.3C99.7,1.7,99.3,1.7,99,1.7z M111.7,1.4C111.7,1.4,111.3,1.4,111.7,1.4C111.3,1,111,1,111,1.4
	C111.3,1.4,111.7,1.4,111.7,1.4z M114.1,0.7c0.3,0,0.3,0,0.7,0C114.8,0.3,114.4,0.3,114.1,0.7C113.7,0.7,114.1,0.7,114.1,0.7z
	 M116.2,1.7c0.7-0.3,1,0,1.7,0c0.3-0.3-0.7-0.3-1-0.7C116.8,1.4,116.8,1.4,116.2,1.7c-0.3-0.3,0-0.7-0.7-0.7
	C115.5,1.4,115.5,1.4,116.2,1.7z M113.7,1C113.4,1,113.4,1.4,113.7,1c-0.3,0.3-0.7,0-0.7,0.3C113.4,1.4,113.7,1.4,113.7,1
	C114.1,1.4,113.4,1.4,113.7,1z M102.4,1.4C102.4,1.4,102.1,1.4,102.4,1.4C101.7,1.4,101.7,1.4,102.4,1.4
	C102.1,1.7,102.1,1.7,102.4,1.4z M100.7,1.7c0.3-0.3,0.7,0,1-0.3c-0.3,0-0.7,0-1-0.3C100,1.7,100.3,1.7,100.7,1.7z M103.8,1
	c-0.3,0-0.7-0.3-1-0.3C102.7,1,103.4,1.4,103.8,1z M117.5,1c0,0-0.7-0.3-1,0C116.5,1,117.2,1,117.5,1z M104.8,1
	C105.2,1,104.5,1,104.8,1c-0.7-0.3-0.7,0-1,0C104.1,1.4,104.1,1,104.8,1z M48.8,23.7c-0.3-0.3-0.3,0.3-0.7,0c0,0-0.3,0.3-0.3,0
	c0,0.3,0.3,0,0.3,0.3C47.8,23.7,48.5,24.1,48.8,23.7z M34.7,23.4L34.7,23.4c0.3,0,0.7,0.3,0.7,0C35.1,23.4,35.1,23.7,34.7,23.4z
	 M56.4,24.4c0.3,0.3,0.7-0.3,1.4,0c0.3-0.3-0.3,0,0-0.3C57,24.4,56.7,24.1,56.4,24.4z M28.2,22.7L28.2,22.7c-0.3,0.3-1,0-0.7,0.3
	C27.8,23,27.8,22.7,28.2,22.7z M36.8,23.7C36.8,23.7,37.1,23.7,36.8,23.7C37.1,23.7,36.8,23.7,36.8,23.7c-0.3,0-0.3,0-0.3,0.3
	C36.8,23.7,36.8,23.7,36.8,23.7z M35.1,24.7c0,0.3,0.7,0,0.7,0S35.1,25.1,35.1,24.7z M38.8,26.5h0.3H38.8z M34,26.5
	c0,0.3-1.4,0-1.7,0.3c1,0,2.1,0,3.1,0c0-0.3-0.3,0-0.3-0.3C35.1,26.8,34.7,26.8,34,26.5z M58.4,23.7C58.1,23.7,58.1,23.7,58.4,23.7
	c-0.3,0-0.3,0-0.7,0s-1,0-1.4,0c0,0.3,1,0,1.4,0.3C58.1,23.7,58.4,24.1,58.4,23.7c0.7,0.3,0.7,0,1.4,0c-0.3,0-0.3,0-0.7,0
	s0,0.3,0,0.3L58.4,23.7C58.4,24.1,58.8,23.7,58.4,23.7z M39.2,26.5L39.2,26.5L39.2,26.5z M40.2,24.1c0.3-0.3-0.3-0.3-0.3-0.3
	c-0.3,0,0.3-0.3,0.3-0.3c0-0.3-0.3,0-0.3,0c-0.3,0,0,0.3-0.3,0.3C39.5,24.1,39.9,24.1,40.2,24.1z M49.5,23.7c0,0.3-0.3,0-0.7,0.3
	c0.7,0,0.7,0.7,1,0.3C49.5,24.1,50.2,23.7,49.5,23.7z M47.4,24.1c-0.7,0-1.4-0.7-1.7,0H46C46.4,23.7,47.1,24.1,47.4,24.1z
	 M54.3,24.4c0.3,0,0.3-0.3,0.7,0C55.3,24.1,54.6,24.4,54.3,24.4c0-0.3,0.7-0.3,0.7-0.7c-0.3,0-0.3,0.3-0.7,0
	C54.3,24.1,54,24.1,54.3,24.4z M45,24.1c0-0.3-0.3,0-0.7-0.3c-0.3,0,0,0.3,0,0.3C44.7,24.1,45,24.1,45,24.1z M40.5,23.7
	c0,0.3,0.7,0,1,0.3C41.9,23.7,40.9,23.7,40.5,23.7z M41.6,24.7c0,0.3-0.3,0.3-0.3,0.3C41.6,25.4,41.6,24.7,41.6,24.7s0,0.3,0.3,0.3
	c0.3-0.3,1-0.3,1.4-0.3v-0.3C43,24.7,42.3,24.7,41.6,24.7z M44,24.1c0-0.3-0.7-0.3-0.7-0.3C43.3,24.1,44,24.4,44,24.1z M294.8,10.7
	c-0.7,1-3.1,0.3-3.8,0.7c-1-0.3-2.7-0.3-3.4,0c0.3,0,1,0,0.7,0.3c-0.7,0-1.4,0-2.1,0c-0.7,0-1.7-0.3-2.1,0c-0.3,0,0,0,0-0.3
	c-0.3,0-1,0.3-1.7,0c0.3,0,0.7,0,0.7,0c-0.3,0-1.4-0.3-1,0c-0.7-0.3-1.7-0.3-2.7-0.3c0,0,0,0,0.3,0c-0.3,0-0.3,0-0.7,0.3
	c0-0.3,0-0.3-0.3,0l0,0c-0.3,0-0.3,0.3-0.7,0.3l0,0h-0.3c-0.3,0-0.7,0-1,0c0,0.3,0,0.3,0,0.7c0.3,0,0.3,0,0.7,0c0-0.3,0-0.3,0.3-0.3
	c0.7,0,1,0.3,1.7,0v0.3c0.3-0.3,0.3,0,0.7,0c0,0,0,0,0-0.3l0.3,0.3c-0.3,0-1.4,0.3-1.4,0.7c0.7,0,1.4-0.3,2.1,0c0.3,0-0.3,0.3,0,0.3
	c0.3,0,1,0,1.4,0.3c-0.3,0-0.7,0.3-0.3,0.3c0.3,0.3,0.7,0,1,0.3c0,0,0,0,0.3-0.3c0.3,0.3,1,0.3,1.4,0.3c0.3,0.3,1,0.3,1.4,0.7
	c-2.4,0.3-4.5,0-6.9,0.7H279h-0.3l0,0c-0.3,0-1,0-1.4,0.3c0,0-0.3-0.3-0.7-0.3h-0.3c-0.3,0-0.7,0.3-1,0.3c0.7,0,1.4-0.3,1.7-0.3
	c-1,0.3-2.1,0.7-2.7,0.3l0,0c0.3,0,0.7,0,1,0l0.3,0.3c0,0.3,0,0.3,0,0.3c0.3,0,0.3,0,0.7,0c0,0,0.3,0,0.7,0c2.1-0.3,4.1,0,5.8,0
	c-1,0.3-1,0.3-1.7,0.7c0.7,0,1,0,1.7,0c0.3,0,0.3,0.3,0.3,0.3c0.3-0.3,0.7,0.3,1.4,0c0.3,0.3,0.3,0,0.7,0.3c-0.3,0-0.3,0-0.7,0
	c0,0.3,0,0.3,0.3,0.3c-1,0.3-2.1,0.7-3.4,1c0,0,0,0,0.3,0c-0.3,0-0.3,0.3,0,0.3c0.3-0.3,1.4,0.3,2.1,0c0,0-0.3-0.3-0.7-0.3
	c0.3-0.3,1,0,1.7,0c0.3,0.3-0.3,0-0.7,0.3c0.3,0.3,0.7,0,0.7,0.3v0.3c-0.3,0-0.3,0-0.3,0.3h0.3c0.7-0.3,0.7-0.3,1.4-0.3
	c-0.3-0.3-0.7,0-1-0.3c0.3-0.3,0.3,0,0.7-0.3c-0.3,0.3,0.7,0.3,1,0.3c0,0,0,0,0-0.3c0.3-0.3,0.3,0,0.7-0.3l-0.3,0.3
	c0.7,0.3,1.4,0,1.7,0.3c0,0.3-0.3,0-0.7,0l0,0c0.3,0,0.7,0,1,0.3c0,0.3-0.3,0.3-0.7,0c-0.3,0,0.3,0.3-0.3,0.3
	c0.3,0.3,0.7,0.3,0.3,0.7c-0.3,0-0.3,0,0-0.3h-0.3c-0.3,0,0-0.3-0.3-0.3c-0.7,0-1,0-1.7-0.3c-0.7,0.7-1.4,0-2.1,0c0,0.3,1,0.3,1,0.7
	c-1-0.3-1.7,0-2.7-0.3c-0.3,0.3-0.7,0.3-1,0c-0.3,0.3-0.3,0.7,0,0.7c-0.3,0-0.3,0-0.3,0c0.3-0.3-0.3-0.3,0-0.7
	c-0.7,0.3-1.4-0.3-1.7,0c0.7,0.3,1.4,0.7,1.4,0.7c-0.3,0.7-1,0-1.7,0c0,0.3-0.7,0.3-1,0c0,0,0,0,0-0.3h-0.3v0.3
	c-0.7,0-1.4-0.3-2.1-0.3l0,0c0.7,0,1,0.3,1.7,0.7c-0.7,0.3-1.4,0-2.1,0c0-0.3,0.3,0,0.3-0.3c0,0-0.3,0-0.3-0.3
	c-0.3,0-0.3,0.3-0.7,0.3c0,0,0-0.3-0.3-0.3c0,0,0,0,0.3,0c0.3,0,0.3-0.7,0.3-0.3c0.7-0.3,0-0.3-0.3-0.3c0.3,0.3-0.7,0.3-0.3,0.3
	c-0.3,0-0.3-0.3-0.7-0.3c0,1,0.7,1,0.7,1c0.3,0-0.3,0.3,0,0.3c-0.3,0-0.7,0-1,0c0,0.3,0.3,0.3,0.3,0.3c-0.3,0.3-0.7,0-1,0
	c0-0.3,0.3,0,0.7-0.3c-0.3,0-0.7,0-0.7,0c0.3-0.3,0.3-0.3,0.3-0.7h-0.3c-0.3,0,0,0.3-0.3,0.3c-0.3-0.3-2.4-0.3-2.4,0.3
	c-0.3-0.3-0.7,0-0.3-0.3c-0.3,0-0.3,0.3-0.7,0.3c0.3,0,0.7,0.3,1.4,0c-0.3,0.3-1.4,0.3-2.1,0c-0.3,0,0,0.3-0.3,0.3
	c-0.3-0.3-0.7-0.3-1.4,0c0-0.3-0.3-0.3,0-0.7c-0.3,0.3-0.7,0-1,0c0.3-0.3-0.7-0.3-0.7-0.3c-0.7,0,0.3,0.3-0.3,0.7
	c-0.3-0.3-0.3-0.3-0.7-0.3V22c1,0.3,1.7,0,2.4,0.3c-0.3,0.3-0.3,0-0.7,0c-1-0.7-2.4,0.3-3.4-0.3c-1.4,0.7-3.1-0.3-3.8,0.3
	c-0.3,0-0.7,0-1,0c0-0.3-0.7,0-1-0.3v0.3c0-0.3-0.7-0.3-0.7,0c-1-0.3-2.1,0-2.7-0.3c0.3,0,0-0.3-0.3-0.3c-0.3,0,0.3,0.3,0.3,0.3
	c-1,0.3-1.7,0-2.4-0.3c0,0.3-1,0.3-1,0c-0.3,0.3-0.3,0-0.7,0.3l-0.3-0.3c-0.3,0.3-1.4,0-1.4,0.7l0,0c0.3,0.3,0,0-0.3,0.3
	c0.7,0,1.4-0.3,2.1,0c-0.3,0.3-0.7,0-1,0c-0.3,0,0,0.3,0.3,0.3c-0.7,0-0.3-0.3-1.4-0.3c0.3-0.3,0.3,0,0.3-0.3c-2.1-1-5.2,0.3-6.9,0
	c0,0-0.3,0-0.3,0.3c0.3,0,0.7,0,1.4,0l-0.3,0.3h0.3c0,0,0,0.3-0.3,0.3c0.3,0.3,0.7,0.3,1.4,0.7c0.3,0,0.3,0,0.3-0.3
	c0.3,0,0.7,0.7,1,0.3c0.3,0-0.3-0.3-0.3-0.3c0.3,0,0.3,0,0.3,0.3c0.3,0.3,0.7-0.3,0.7,0c0,0,0-0.3,0.3-0.3c0.3,0.3,1.7,0.7,1.7,0.3
	c0.3,0,0.7,0,1,0.3c0.7-0.3,1,0,1.4-0.3c0.3,0.7,1.7-0.3,2.4,0.3c0.7,0,1.4,0,2.1,0c0.3,0-0.3,0,0-0.3c1,0.7,2.4,0,3.4,0.3H256
	c0,0,0,0,0,0.3c0.7,0,1-0.3,1.7-0.3c0,0,0,0-0.3,0c-0.3,0.3,0.3,0,0.3,0.3c0,0,0-0.3,0.3-0.3c0.3,0.7,1.4,0,2.1,0.3
	c0.3,0,0.3-0.3,0-0.3c0.3-0.3,0.3,0,0.7,0l-0.3,0.3c0.3,0.3,0.3,0.3,0.7,0.3v-0.3c0.7,0.3,1.4,0,1.7,0c0,0,0-0.3,0.3-0.3
	c0.3,0.7,2.1,0.3,2.7,0.7c0.3-0.3,1,0,0.3-0.3c0.3,0,0.3,0,0.3,0.3c0.3,0,0.7-0.7,1-0.3c-0.3,0.3-0.3,0-0.7,0c0,0,0,0,0,0.3
	c1,0,1.7-0.3,2.7,0.3c0-0.3,0-0.3,0.3-0.7c0.3,0.3,0,0.3-0.3,0.3c0.3,0.3,1-0.3,1.4,0.3c0.7-0.3,0-0.3,0.3-0.7c0.3,0.3,0,0.3,0,0.7
	c0.3,0.3,0.3-0.3,0.7,0c0,0,0-0.3-0.3-0.3c0.3,0,0.7,0,0.7,0.3c0.7-0.3,0.7,0,1-0.3c0.7,0.3,0.7,0.3,1.4,0c0,0-0.3,0.3,0,0.3
	l-0.3,0.3c-0.3,0,0-0.3-0.7,0c0,0,0,0,0-0.3c-0.7,0-2.1-0.3-2.1,0.3c-0.3,0-0.3-0.3-0.3-0.3c-0.3,0.3,0,0.3,0,0.7
	c-0.3,0-1,0-0.7-0.3c-0.3,0-0.7,0-1-0.3c-0.3,0,0.3,0.3,0.3,0.3c-0.3,0.3-1-0.3-1,0.3c-0.3,0-0.3-0.3,0-0.3c-0.3,0-0.7,0-1,0v-0.3
	c-0.3,0-0.3,0-0.7,0v0.3c-0.7-0.3-1.4-0.3-2.4-0.3c-0.3,0,0.3,0,0.3,0.3c-0.3,0-0.3,0-0.7,0c-0.3-0.3-0.7,0.3-1,0c0.3,0,0.3,0,0.7,0
	c-0.3-0.3-0.3,0-0.7-0.3c-0.3,0,0,0.3,0,0.3h-0.3c0-0.3-1.7-0.3-2.4,0l0,0c-1,0-2.1,0-3.1,0c0,0,0,0.3,0.3,0.3
	c-0.3,0.3-0.7,0-0.7-0.3c-0.3,0,0,0.3-0.7,0.3c-0.3,0,0.3-0.3,0-0.3c-0.7,0-1.4-0.3-2.1,0c-0.3-0.3-0.7-0.3-1-0.3
	c-0.3,0,0,0.3-0.3,0.3c-0.3-0.3-1-0.3-1.7-0.3c0,0.3,0.3,0,0.7,0.3c-0.3,0.3-1,0-1.4-0.3c-0.3,0,0,0.3-0.3,0.3
	c0.3,0.3,0.7,0,0.7,0.3c-1,0-1.7-0.3-2.7-0.7c-0.7,0,0.3,0.3,0,0.7c-1,0-1.7-0.3-2.7,0c-0.3-0.3-0.7,0-1,0v-0.3
	c-0.7,0.3-2.1-0.3-2.4,0.3c-1,0-2.7,0.3-3.4,0c-0.7,0.3-1,0-1.7,0.3c-0.3-0.3-0.7,0-1-0.3c-0.3,0,0,0.3-0.3,0.3
	c-2.1,0-4.1-0.3-6.2,0c0,0-0.3-0.3,0-0.3c-1.7,0-3.4,0.3-5.2,0c-0.3,0-0.7,0.3-1.4,0.3c0,0,0,0,0-0.3c-0.7,0-1.4,0.3-2.1,0
	c-0.3,0-0.3,0.3-0.7,0.3c-1.7-0.3-3.4,0-5.2,0c0,0,0,0,0-0.3c-3.1,0.3-6.2,0-9.3,0c-0.3-0.3-2.4,0-3.8,0c-0.7,0-1.4-0.3-1.7,0
	c0,0-0.3,0-0.3-0.3c-0.3,0.3-1,0-1.7,0.3c-1.4-0.3-3.4,0-5.2-0.3c0,0-0.3,0-0.3,0.3c-2.1-0.3-4.5,0-6.5-0.3c-1,0.3-2.1-0.3-3.1,0
	c-0.7-0.3-1,0-1.7-0.3c-1.7,0.3-3.1,0-4.8,0c-3.4,0-7.2-0.3-10.7,0c0,0-0.3,0-0.3-0.3c0,0,0,0,0,0.3c-2.1-0.3-3.4,0-5.2-0.3
	c0,0-0.3,0-0.3,0.3c-0.3,0,0-0.3-0.7-0.3c0,0,0,0,0.3,0c-0.3,0-0.7,0-0.7,0c-2.7,0-5.5,0-8.2,0s-5.5,0-8.2,0c0,0.3-0.3,0.3-0.7,0
	h0.3c-0.7-0.3-0.3,0.3-0.7,0.3c0,0-0.3,0-0.3-0.3c-2.1,0.3-3.4,0-5.2,0.3v-0.3c0,0-0.3,0-0.3,0.3c-3.4,0-7.2,0.3-10.7,0
	c-1.7,0-3.1,0.3-4.8,0c-0.7,0.3-1,0-1.7,0.3c-1-0.3-2.1,0.3-3.1,0c-2.1,0.3-4.5,0-6.5,0.3c0,0-0.3,0-0.3-0.3c-1.7,0.3-3.8,0-5.2,0.3
	c-0.7-0.3-1.4,0.3-1.7-0.3c0,0-0.3,0-0.3,0.3c-0.7-0.3-1,0-1.7,0c-1.4,0-3.4-0.3-3.8,0c-3.1,0-6.2,0.3-9.3,0c0,0,0,0,0,0.3
	c-1.7,0-3.4-0.3-5.2,0c-0.3,0-0.3-0.3-0.7-0.3c-0.7,0.3-1.4,0-2.1,0c0,0,0,0,0,0.3c-0.3,0-0.7-0.3-1.4-0.3c-1.7,0.3-3.4,0-5.2,0
	c0.3,0,0,0,0,0.3c-2.1-0.3-4.1,0-6.2,0c-0.3,0,0-0.3-0.3-0.3c-0.3,0.3-0.7,0-1,0.3c-0.7-0.3-1,0-1.7-0.3c-0.7,0.3-2.4,0-3.4,0
	c-0.3-0.7-1.7,0-2.4-0.3c-0.3,0,0,0.3,0,0.3c-0.3,0-0.7-0.3-1,0c-1-0.3-2.1-0.3-2.7,0c-0.3,0,0.3-0.3,0-0.7c-1,0.3-1.7,0.7-2.7,0.7
	c0-0.3,0.3,0,0.7-0.3c-0.3,0,0-0.3-0.3-0.3c-0.3,0.3-1,0.3-1.4,0.3c0,0,0.7,0,0.7-0.3c-0.7,0-1,0-1.7,0.3c-0.3,0,0-0.3-0.3-0.3
	s-0.7,0-1,0.3c-0.7-0.3-1.4,0-2.1,0c-0.3,0,0.7,0.3,0,0.3c-0.7,0,0-0.7-0.7-0.3c0,0.3,0,0.7-0.7,0.3l0.3-0.3c-1,0-2.1,0-3.1,0l0,0
	c-0.7,0-2.4-0.3-2.4,0c-0.3,0-0.3,0-0.3,0s0.3-0.3,0-0.3c-0.3,0.3-0.3,0-0.7,0.3c0.3,0,0.3,0,0.7,0c-0.3,0.3-0.7-0.3-1,0
	c-0.3-0.3-0.7,0-0.7,0c0-0.3,0.7,0,0.3-0.3c-0.7,0-1.4,0-2.4,0.3v-0.3c-0.3,0-0.3,0-0.7,0v0.3c-0.3,0-0.7,0-1,0v0.3
	c0-0.7-0.7,0-1-0.3l0.3-0.3c-0.3,0.3-0.7,0-1,0.3c0.3,0.3-0.3,0.3-0.7,0.3c0.3,0,0.3-0.3,0-0.7l-0.3,0.3c0.3-0.7-1.4-0.3-2.1-0.3
	c0,0,0.3,0,0,0.3c-0.3-0.3-0.3,0-0.7,0l-0.3-0.3c0.3-0.3,0-0.3,0-0.3c0.7,0,0.7,0.3,1.4,0c0.7,0.3,0.3,0,1,0.3
	c-0.3-0.3,0.3-0.3,0.7-0.3l-0.3,0.3c0,0,0.3,0.3,0.7,0c0-0.3,0-0.3,0-0.7c0.3,0.3-0.3,0.3,0.3,0.7c0.3-0.3,1,0.3,1.4-0.3
	c-0.3,0-0.7-0.3-0.3-0.3c0.3,0.3,0.3,0.3,0.3,0.7c0.7-0.7,1.7-0.3,2.7-0.3c0,0,0,0,0-0.3c-0.3,0-0.3,0-0.7,0c0.3-0.3,0.7,0.3,1,0.3
	c0-0.3,0-0.3,0.3-0.3c-0.3,0.3,0.3,0.3,0.3,0.3c0.7-0.3,2.4,0,2.7-0.7c0.3,0,0,0.3,0.3,0.3c0.7,0,1.4,0,1.7,0
	c-2.1,0.3-2.1,0.3-2.1,0.7c0.3,0,0.3,0,0.7-0.3l-0.3-0.3c0.3,0,0.3,0,0.7,0c-0.3,0-0.3,0.3,0,0.3c0.7-0.3,1.7,0.3,2.1-0.3
	c0.3,0,0.3,0,0.3,0.3c0-0.3,0.7,0,0.3-0.3h-0.3c0.7,0,1,0.3,1.7,0.3c0,0,0,0,0-0.3h-0.3c1-0.3,2.4,0.3,3.4-0.3c0.3,0.3-0.3,0,0,0.3
	c0.7,0.3,1.4,0,2.1,0c0.7-0.7,2.1,0.3,2.4-0.3c0.3,0.3,1,0,1.4,0.3c0.3-0.3,0.7,0,1-0.3c0,0.3,1.4,0.3,1.7-0.3c0.3,0,0,0.3,0.3,0.3
	c0.3-0.3,0.7,0.3,0.7,0c0,0,0-0.3,0.3-0.3c0,0-0.7,0.3-0.3,0.3c0.3,0.3,0.7-0.3,1-0.3c0,0.3,0,0.3,0.3,0.3c0.3-0.3,0.7-0.3,1.4-0.7
	c-0.3,0-0.3,0-0.3-0.3h0.3L58.8,23c0.7,0.3,0.7,0,1.4,0c0,0-0.3,0-0.3-0.3c-1.7,0.3-4.8-1-6.9,0c0.3,0,0.3,0,0.3,0.3
	c-0.7,0-0.7,0.7-1.4,0.3c0.3,0,0.3-0.3,0.3-0.3c-0.3,0-0.7,0.3-1,0c0.7-0.3,1.4,0,2.1,0c0-0.3-0.7,0-0.3-0.3l0,0
	c0-0.7-1-0.3-1.4-0.7c-0.3,0-0.3,0-0.3,0.3c-0.3,0-0.3,0-0.7-0.3c0,0.3-1,0.3-1,0c-0.7,0-1.7,0.3-2.4,0.3l0.3-0.3
	c0,0-0.7,0.3-0.3,0.3c-1,0.3-2.1-0.3-2.7,0.3c0-0.3-0.7-0.3-0.7,0c-0.3,0,0-0.3,0-0.3c-0.3,0-1,0-1,0.3c-0.3,0-0.7,0-1,0
	c-0.7-0.7-2.7,0-3.8-0.3c-1,0.7-2.4-0.3-3.4,0.3c-0.3-0.3-0.3,0-0.7,0c0.7-0.3,1.7,0,2.4-0.3V22c-0.3,0-0.7,0-0.7,0.3
	c-0.3,0,0.3-0.3-0.3-0.7c0,0.3-1,0-0.7,0.3c-0.7-0.3-0.7,0.3-1,0c0.3,0.3,0,0.3,0,0.7c-0.7-0.3-1,0-1.4,0s0-0.3-0.3-0.3
	c-0.7,0-1.7,0-2.1,0c0.3,0,0.7,0,1.4,0c-0.3,0,0-0.3-0.7-0.3c0,0.3-0.3,0-0.3,0.3c0-0.3-2.1-0.7-2.4-0.3c-0.3,0,0-0.3-0.3-0.3h-0.3
	c0,0.3-0.3,0.3,0.3,0.7c-0.3,0-0.7,0-0.7,0c0.3,0.3,0.7,0,0.7,0.3c-0.3-0.3-0.7,0.3-1,0c0-0.3,0.3-0.3,0.3-0.3c-0.3,0-0.7,0-1,0
	c0.3,0-0.3-0.3,0-0.3c0.3,0,0.7-0.3,0.7-0.3c-0.3,0-0.3,0.3-0.7,0.3c0.3-0.3-0.7-0.3-0.3-0.3c-0.3,0-1,0-0.3,0.3c0-0.3,0,0,0.3,0.3
	c0,0,0,0,0.3,0c0,0,0,0.3-0.3,0.3c-0.3-0.7,0-1-0.3-1c0,0-0.3,0-0.3,0.3c0,0,0.7,0,0.3,0.3c-0.7,0-1.4,0-2.1,0
	c0.7-0.3,1-0.3,1.7-0.7l0,0c-0.7,0-1.4,0.3-2.1,0.3c-0.3,0,0-0.3,0-0.3s0,0-0.3,0c0,0,0,0,0,0.3c-0.3,0-1,0.3-1,0
	c-0.7,0-1.4,0.7-1.7,0.3c0.3,0,0.7-0.3,1.4-0.7c-0.7,0-1,0.3-1.7,0c0.3,0,0,0.3,0,0.7h-0.3c0.3,0,0.3-0.3,0-0.7c-0.7,0-0.7,0-1-0.3
	c-1,0.7-1.7,0-2.7,0.3c0-0.3,1-0.3,1-0.7c-0.7,0-1.4,0.3-2.1,0c-0.3,0.3-1,0.3-1.7,0.3c-0.3,0,0,0.3-0.3,0.3h-0.3
	c0.3,0,0.3,0.3,0,0.3c-0.7-0.3,0-0.3,0.3-0.7C11,21.3,12,21,11.3,21c0,0.3-0.3,0.3-0.7,0c0.3,0,0.7-0.3,1-0.3l0,0
	c-0.3,0-0.7,0.3-0.7,0c0.7-0.3,1.4,0,1.7-0.3l-0.3-0.3c0.3,0.3,0.3,0,0.7,0.3c0,0-0.3,0.3,0,0.3s1-0.3,1-0.3c0.3,0.3,0.3,0,0.7,0.3
	c-0.3,0.3-0.7,0-1,0.3c0.7,0,0.7,0,1.4,0.3h0.3c0-0.3,0,0-0.3-0.3v-0.3c0.3-0.3,0.7,0,0.7-0.3c-0.3-0.3-0.7,0-0.7-0.3
	c0.3,0,1.4,0,1.7,0c-0.3,0-0.3,0-0.7,0.3c0.7,0.3,1.7,0,2.1,0v-0.3c0,0,0,0,0.3,0c-1.4-0.3-2.4-0.7-3.4-1c0.3,0,0.3-0.3,0.3-0.3
	c-0.3,0-0.3,0-0.7,0c0.3,0,0.7,0,0.7-0.3c0.7,0.3,1-0.3,1.4,0c0.3,0,0.3-0.3,0.3-0.3c0.7,0,1,0,1.7,0c-0.7-0.3-0.7-0.3-1.7-0.7
	c1.7,0,3.8,0,5.8,0c0,0,0.3,0,0.7,0c0.3,0,0.3,0,0.7,0c0,0,0,0,0-0.3c0.3,0,0.3-0.3,0.3-0.3c0.3,0,0.7,0,1,0l0,0
	c-0.7,0.3-1.7,0-2.7-0.3c0.3-0.3,1,0,1.7,0.3c-0.3-0.3-0.7-0.3-1-0.3h-0.3c-0.3,0-0.3,0-0.7,0.3c-0.3,0-1-0.3-1.4-0.3l0,0H21h-0.3
	c-2.4-0.7-4.5,0-6.9-0.7c0.3-0.3,1-0.3,1.4-0.7c0.7,0,1,0,1.4-0.3c0.3,0,0,0,0.3,0.3c0.3-0.3,0.7,0,1-0.3c0,0,0-0.3-0.3-0.3
	c0.3-0.3,1,0,1.4-0.3c0.3-0.3-0.3-0.3,0-0.3c0.7-0.3,1,0,2.1,0c0-0.3-1-0.3-1.4-0.7c0,0,0.3,0,0.3-0.3c0,0,0,0,0,0.3
	c0.3,0,0.7,0,0.7,0v-0.3c0.7,0,1.4,0,1.7,0c0.3,0,0.3,0.3,0.3,0.3c0.3,0,0.3,0,0.7,0c0-0.3,0-0.3,0-0.7c-0.3,0-0.7,0-1,0
	C22,12,22,12,22,12l0,0c-0.3,0-0.7-0.3-0.7-0.3l0,0c-0.3-0.3-0.3-0.3-0.3,0c-0.3-0.3-0.7,0-0.7-0.3c0,0,0,0,0.3,0
	c-1,0-1.7,0-2.7,0.3c0-0.3-0.7-0.3-1,0c0,0.3,0.3,0,0.7,0c-0.3,0.3-1,0-1.7,0c-0.3,0.3,0.3,0.3,0,0.3c-0.3-0.3-1.4-0.3-2.1,0
	c-0.7-0.3-1.4,0-2.1,0c-0.3-0.3,0.7,0,0.7-0.3c-0.7,0-2.4-0.3-3.4,0c-1-0.3-3.4,0.3-3.8-0.7c-0.7,0.3-1-0.3-1.4,0
	c0,0.3,0.3,0,0.3,0.3C2.4,11,1,10.7,0.3,10c0.3-0.3,0.7-0.7,0.3-1c0.7-0.3,2.1-0.3,1.7-1c0.7,0,1.4,0,1.7,0.3H3.8c0,0.3,0,0,0.3,0.3
	c0-0.3,0.3-0.7,0.3-0.7c0.3,0,0-0.3-0.3-0.3c0.3,0,0.3,0,0.7,0c0.3-0.3,1.7-0.3,2.7,0c0.7-0.7,2.1,0,3.4,0.3l0,0
	c-0.7-0.7-1.7-0.3-2.4-0.7c0-0.3,0.3,0,0.3-0.3c0.7,0.3,1.4,0.3,1.7,0.3l0,0l0,0c0.3,0,0.7,0,1,0s0.3,0,0.7-0.3
	c-0.3,0-0.7-0.3-1-0.3c0.3-0.3,0.3,0,0.7-0.3c0,0.3,0.3,0.3,0.7,0c0,0,0,0.3,0.3,0.3l0,0c0,0,0.3,0,0.3-0.3c0.3,0.3,0.7,0.3,1,0V5.8
	c0.3,0.3,1,0,1.4-0.3c0.3,0,0,0.3,0.3,0.3c0.3-0.3,1-0.3,1.4,0c0,0.3-0.3-0.3-0.7,0c0.3,0,0.3,0.3,0.3,0.3c0.3,0,0.3,0,0.7,0
	c0.3,0,0.3,0,0,0c0,0,0,0,0.3,0c0,0,0.3,0,0.3-0.3c-0.3,0-0.3,0-0.7,0c0.3-0.3,0.3-0.3-0.3-0.7c0.3,0,0.3,0,0.7,0
	c0-0.3,0.3,0,0.3-0.3c0.7,0.3,1,0.3,1.7,0c0-0.3-0.7-0.3-0.7,0l0,0c0,0,0,0-0.3,0c0.3-0.3,0.7,0,1,0c0-0.3-0.3-0.3,0-0.7
	c0.3,0.3,0.3,0,0.7,0.3c0.3-0.3,0-0.3,0.3-0.3c0.3,0,0.3,0.3,0.3,0.3c0.3,0,0-0.3,0.3-0.3c0.7,0,1,0,1.7,0c0-0.3-0.3,0-0.7-0.3
	c0.3-0.3,0.7,0,0.7,0s0.3,0,0.3,0.3c1.4-0.3,2.7,0,4.1-0.3c0,0,0,0,0,0.3c0.3,0,0.7,0.3,0.7,0.3c0-1,1.7,0,2.4-0.3
	c-0.3-0.7-1.4-0.3-2.4-0.7c0.3-0.3,1,0,1-0.3c0.3,0,0.3,0.3,0.7,0.3c0.3,0,0-0.3,0-0.3c-0.3,0-0.7-0.3-0.7,0c0-0.3-0.3,0-0.3-0.3
	s0.3,0,0.7,0c0-0.3,0.7-0.3,1-0.3l-0.3,0.3c0.3,0.3,1,0.7,1.4,0.7c0.3-0.3,0-0.3,0-0.3c0.3-0.3,0.7,0,1-0.3c0,0,0,0.3,0.7,0.3
	c0,0-0.3,0-0.3,0.3c0.3,0,0.7,0,1,0s0.7,0.3,1,0.3c0-0.3-0.3-0.3,0.3-0.3c0.3,0,0-0.3,0-0.3c-0.3,0-0.7,0-0.7-0.3
	c-0.3,0.3-1.4,0-1.4-0.3c0,0,0.7,0,0.3,0c-0.3,0-0.3,0-0.7,0c0,0,0.3,0,0,0.3c-0.3,0-0.7,0-1,0c1-0.3,0.7-1,1.7-0.7
	c0.3-0.3,1,0,1.4-0.3c0.3,0,0.3,0.3,0.7,0.3c0,0-0.7,0-0.3,0.3c0.7,0,2.1,0,2.4-0.3c0.3,0,0,0.3,0.3,0.3l0,0c0.3-0.3,1,0,1.4,0
	c-0.3,0-0.3,0-0.7,0.3c0,0,0,0-0.3,0c0,0,0,0.3,0.3,0c0,0,0,0,0,0.3c0.3,0,0.3,0,0.7,0c0,0,0,0,0.3-0.3c0-0.3-0.7,0-0.3-0.3h0.3
	c-0.3,0-0.7-0.3-1-0.3c0-0.3,0.7,0,1,0.3l0,0h0.3c0,0,0.7,0,0.3-0.3h0.3c0,0,0.3-0.3,0.7-0.3c0,0.3-0.3,0.3-0.3,0.3l0,0
	c0.7,0,1,0,1.7,0c0,0,0,0,0.3,0c0.3,0,0.7-0.3,1.4,0H45c0,0.3-0.3,0.3-0.3,0.7c0.3,0,0.3,0,0.7,0C45,2.4,45.7,2.4,46,2.4l0,0
	c-0.3,0-0.3,0-0.7,0c0.3,0,0.7,0,1,0l0,0l0,0c0.3,0,0.3,0,0,0.3c0.3,0,0.3,0,0.7,0s0.3-0.3,0.7-0.3c-0.3,0-0.3,0.3,0,0.3
	c0.7,0.3,1-0.3,1.4-0.7v0.3c0,0-0.3,0-0.3,0.3c0.3,0,0.3,0,0.7,0c0,0,0.3-0.3,0.7-0.3c0.3,0,0,0.3,0.3,0.3l0.3-0.3
	c-0.3,0-0.7,0-0.7,0c0.3,0,0.7,0,1,0c-1,0-2.1,0-3.4-0.3c0.7-0.3,2.7,0.3,3.1-0.3c0.3-0.3,0.7,0,0.7,0s-0.3,0,0,0.3
	c0.7,0,1.4,0.3,1.7,0.3c0,0-0.3,0,0,0.3c0.3-0.3,0.7,0,0.7,0c-0.3,0-0.3,0-0.7,0c0.7-0.3,1-0.3,1.4-0.7c0.7,0.3,0.3-0.3,1,0
	c0.3-0.3,2.1,0,2.7,0c0,0-0.3,0,0,0.3h0.3c0-0.3,0.3-0.3,0.7-0.3c0,0,0,0,0,0.3c0.3,0,0-0.3,0.3-0.3c0.3,0,0,0.3,0,0.3
	c0.3,0,0-0.3,0.3-0.3c0.7,0,1.7,0.3,1.7,0c0.3,0-0.3,0.3,0,0.3c1-0.7,1.7-0.3,2.4,0c0,0-0.3,0,0,0c-0.3,0-0.7,0.3-0.7,0.7h0.3
	c0,0,0-0.3,0.7,0c0,0-0.3-0.3,0-0.3s0,0.3,0,0.7c0.3,0,0.3,0.3,0.7,0C66,2.7,67.4,3.1,68,2.7c-0.3,0-0.3,0.3-0.3,0.3
	c0.7,0,0.7,0,0.7-0.3c0.7,0.3,0-0.3,0.7,0c-0.3,0.3-0.3,0.3-0.3,0.7h0.3c0,0,0-0.3,0.3-0.3c0.3,0.3,0.7,0,0.7,0
	c1.7,0.3,3.4-0.3,4.5,0.3c0.3-0.3,0.7,0,1-0.3c0.7,0.3,0.7,0,1,0c0.7,0,1,0.3,1,0c0.7,0-0.3,0.3,0,0.3c0.3,0.3,0.7,0,0.7,0.3
	c0.3-0.3,0.3-0.3,0.7,0c0,0-0.3,0,0,0.3c1.7-0.3,4.1,0,5.5-0.3c-0.3,0-1.4,0-1.7,0h0.3c-0.3,0-0.7-0.3-0.7,0c-0.7,0-0.3-0.3,0-0.7
	c0.7,0.3,1.7,0.7,1.7,0c0.3,0.3,0.3,0,0.7,0c0,0.3-0.7,0-0.3,0.3c0.3,0.3,0.7,0,0.7,0s-0.3,0,0-0.3c0.3,0.3,0.3,0.3,0,0.7
	c-0.3,0-0.3-0.3-0.7,0c0.7,0.3,0,0.3,0.3,0.7c0.3,0,0.3,0,0.7,0c0.3-0.7,1.4-1,2.1-1C87.3,3.8,88,3.8,88,3.8c0-0.3,1,0,1.4,0L89,4.1
	c0.3,0,0.7-0.3,1-0.3c0,0.3,0.3,0,0.7,0c-0.3,0,0.3,0.3,0.3,0.3s0.3,0,0.3-0.3c-0.3,0-0.7,0-0.3-0.3c0.3,0,1,0.3,0.7-0.3
	c0.3,0-0.3,0.3,0.3,0.3c0.3-0.3,0.3,0,0.7,0s0-0.3,0-0.3c0,0.3-0.7,0-1,0c0.3,0,0-0.3,0-0.3c0.3,0,0.7,0,0.7,0
	c0-0.3-0.3-0.3-0.7-0.3c0.7,0,1,0.3,1.4,0.7c0.3-0.3,1,0.3,1.4,0.3c0,0.3-0.3,0.3-0.3,0.7c0.3,0,1,0,1.4,0c0,0,0-0.3,0.3-0.3
	c0,0.3-0.3,0,0,0.3c0.3-0.3,0.3,0,0.7,0V3.8c0,0-0.7,0-0.3-0.3c0.3,0,0.3,0.3,0.7,0c0-0.3-0.7,0-0.3-0.3c0,0,0.3,0,0.3-0.3
	c0.3,0,0.3,0.3,0.3,0.3c0.3,0,0.3,0,0.7,0c0.3,0.3,0.3,0.7,0.7,0.3S98.3,3.1,99,2.7c0.3,0.3-0.3,0.3,0,0.7c0.7,0,1.4,0,2.1-0.3
	c0,0.3,0.7,0,0.7,0c0.3,0,0.3,0.3,0.7,0.3c0.3-0.3,0.7-0.7,1-0.7c0,0,0.3,0.3,0.7,0.3c0,0.3-0.7,0-0.3,0.3c0.3,0,1.4,0,1.4-0.3
	c-0.3,0-0.7,0-0.7-0.3c0.7-0.3,2.1,0.3,2.4,0c1,0.3,1.7,0.7,2.1,0.3c0.3,0,0.3,0.3,0.7,0.3c0,0,0-0.3-0.3-0.3c0.3,0,0.3-0.3,0.7-0.3
	c0,0.7,1.4,0,1.4,0.3c-0.3,0-0.3,0-0.3,0.3c0.3,0,0.7,0.3,1,0c-0.3-0.3,0.3,0,0.7-0.3c0.3,0-0.3,0.3,0.3,0.3h0.3c0,0.3-1,0-0.7,0.7
	c0.3-0.3,1,0,1.4,0l0,0c0,0,0,0,0.3,0l0,0l0,0c0.3,0,0.7,0,1,0h-0.3c0.3,0,0.3,0,0.3,0c-0.3-0.3-0.3,0.3-0.7,0c0.7-0.3,1,0,1.7-0.7
	c0.3,0.3,0,0.3,0,0.7c-0.3-0.3-0.7,0-0.7,0.3c0.3,0,0.7,0,1,0h0.3c0,0,0-0.3-0.3-0.3c0.3-0.3,0.7,0,1-0.3c0.3,0,0,0.3,0.3,0.3
	c0.7-0.3,2.1,0,2.4-0.3c0,0.3,0,0.3,0,0.7c0.7,0,0.3-0.3,0.7-0.3c0,0-0.3,0,0,0.3c0.3,0,0.7-0.3,0.7-0.3c-0.3,0-0.7,0-0.7,0
	s0-0.3-0.3-0.3c0.7,0,1.4,0,1.7,0c0.7-0.3,0.3-0.3,0.3-0.7c0.7,0.3,0,0.3,0.7,0.3c-0.7,0.3-1,0.3-1.7,0.3c0.3,0,0.3,0.3,0.7,0.3
	c0,0.3-0.3,0.3-0.3,0.7c0,0-0.3,0-0.7,0c0.3,0,0.3,0,0.7,0V4.5c0.3,0.3,1,0,1,0c-0.3-0.3-0.3,0-0.7,0c0,0,0,0-0.3-0.3
	c1.4-0.3,4.1,0.7,4.1-0.3h-0.3h0.7c-0.3,0-1,0-1.4,0.3c-0.3-0.3-0.7,0-1-0.3c0.3-0.3,0.3,0,0.7,0V3.4c0.3,0,0.3-0.3,0.7,0
	c0,0.3-0.7,0.3-0.3,0.7c0.3-0.3,1-0.3,0.7-0.7c0-0.3-0.7,0-0.7-0.3h0.3c0.3,0.3,1,0,1,0.7c0.3-0.3,1.7-0.7,2.1-0.3c0,0,0,0,0-0.3
	h0.3v0.3c-0.3,0-1,0-1.4,0c0,0-0.3,0.3,0,0.3c0.3-0.3,1.4,0,2.1-0.3c-0.3,0-0.3,0-0.3-0.3c0.7,0,1.7,0.3,1.7-0.3
	c0,0.3,0.3,0.7,0.7,0.3c0.3,0,0,0.3,0.3,0.3c-0.3,0.3-0.3,0-0.7,0c0.7,0.3-0.3,0,0,0.3s0.3,0,0.7,0c-0.3-0.3,0.3-0.3,0-0.7
	c0,0.3,1,0.7,1,0c0,0,0.3,0,0.3,0.3c0.3,0.3-1,0.3-0.7,0.7c-1.4-0.3-2.1,0-3.1,0c0.3,0.3,1-0.3,1,0.3c0.3,0,0.3-0.3,0.3-0.3
	c0.7,0.3,0.3,0,0.3,0.3c0.3,0,0.7,0,0.3-0.3c0.7,0,0,0.3,0,0.7c0.3-0.3,0.7,0.3,1.4,0V4.5c-0.3,0.3-0.3,0-0.7,0s-0.3-0.3,0-0.3
	c-0.3,0-0.3,0.3,0,0.3s0.3-0.3,0.3-0.3c0.3,0,1,0.3,1,0c-0.3-0.3-0.7,0-1,0c0.3-0.3,0.7,0,0.7-0.3c0.3,0.7,1.7,0.3,1.7,0
	c0.3,0,0.3,0.3,0.7,0.3V3.8c0.3,0.3,0.3,0,0.3,0c0.3,0,0.7,0.3,1,0.3c-0.7,0.3-1.4,0.7-1.7,1c0.3,0,0.3-0.3,0.3-0.3
	c0.3,0.3,0.3,0,0.7,0l0,0c0.3,0,1,0.3,1.4,0c0,0-0.3,0,0-0.3s1,0,1.4-0.3c0.3,0,0,0.3,0,0.3c0.3,0,1,0,1.4-0.3c0.7,0.3,1,0,1.7,0
	c0,0,0.3,0.3,0.3,0c0.3,0,0,0.3,0.3,0.3c0.3-0.3,1,0,1.4-0.3v0.3c0.3,0,0.3-0.3,0.3,0v0.3c0.3-0.3,0.3,0,0.3,0l0,0V4.5
	c0.7,0,1.4-0.3,1.7,0c0,0,0,0,0,0.3l0,0l0,0c0.3-0.3,0.7-0.3,0.7,0h0.3l0,0c0.3,0,0.3,0,0.7-0.3l0.3,0.3c0.3,0,0.3,0,0.7,0h0.3h0.3
	c0.3,0,0.3,0,0.7,0c0,0,0.3,0,0.3-0.3c0,0.3,0.3,0.3,0.7,0.3l0,0h0.3c0-0.3,0.3-0.3,0.7,0l0,0l0,0c0,0,0,0,0-0.3
	c0.7-0.3,1.4,0.3,1.7,0v0.3l0,0c0,0,0.3-0.3,0.3,0V4.5c0.3,0,0,0.3,0.3,0c0.3,0,0.3-0.3,0-0.3c0.3,0,1.4-0.3,1.4,0.3
	c0.3,0,0-0.3,0.3-0.3c0,0.3,0.3,0,0.3,0c0.7,0,1,0.3,1.7,0c0,0.3,1,0,1.4,0.3V4.1c0.3,0.3,0.7,0,1.4,0.3c0,0,0,0,0,0.3
	c0.3,0.3,1,0,1.4,0l0,0c0.3,0,0.3,0,0.7,0c0,0,0,0.3,0.3,0.3c-0.3-0.3-1-0.7-1.7-1c0.3,0,0.7-0.3,1-0.3c0,0,0.3,0.3,0.3,0v0.3
	c0.3,0,0.3,0,0.7-0.3c0,0.3,1.7,0.7,1.7,0c0,0.3,0.3,0,0.7,0.3c-0.3,0.3-0.7,0-1,0c0,0.3,0.7,0,1,0c0,0,0,0.3,0.3,0.3
	c0.3,0,0.3-0.3,0-0.3c0.3,0,0.3,0.3,0,0.3c-0.3,0-0.3,0-0.7,0v0.3c0.3,0,0.7-0.3,1.4,0c0-0.3-0.7-0.7,0-0.7c0,0.3,0,0,0.3,0.3
	c0-0.3-0.3,0,0.3-0.3c0,0.3,0,0.3,0.3,0.3c0-0.3,0.7,0,1-0.3c-1,0-2.1-0.3-3.1,0c0.3-0.3-0.7,0-0.7-0.7c0,0,0.3,0,0.3-0.3
	c0.3,0.3,1,0,1,0c-0.3,0.3,0.3,0.3,0,0.7c0.3,0,0.3,0,0.7,0c0.3-0.3-0.7,0,0-0.3c-0.3-0.3-0.3,0-0.7,0c0.3,0,0-0.3,0.3-0.3
	c0.7,0.3,0.7,0,0.7-0.3c0,0.3,1,0,1.7,0.3c0.3,0.3,0,0-0.3,0.3c0.7,0.3,1.7,0,2.1,0.3c0.3,0,0-0.3,0-0.3c-0.3,0-1,0-1.4,0
	c0,0-0.3-0.3,0-0.3h0.3c0,0,0,0,0,0.3c0.3-0.3,2.1,0,2.1,0.3c-0.3-0.7,0.7-0.3,1-0.7h0.3c0.3,0.3-0.3,0-0.7,0.3
	c0,0.3,0.3,0.3,0.7,0.7c0.3-0.3-0.3-0.3-0.3-0.7c0.3-0.3,0.3,0,0.7,0v0.3c0.3,0,0.3-0.3,0.7,0c-0.3,0.3-0.7-0.3-1,0.3
	c-0.3-0.3-1-0.3-1.4-0.3c0,0,0.3,0,0.7,0c0,0.3-0.3,0.3-0.3,0c0,1,2.7,0,4.1,0.3c0,0-0.3,0-0.3,0.3c-0.3,0.3-0.3-0.3-0.7,0
	c0,0,0.7,0.3,1,0v0.3c0.3,0,0.3,0,0.7,0c-0.3,0-0.3,0-0.7,0c0-0.3-0.3-0.3-0.3-0.7c0.3,0,0.3-0.3,0.7-0.3c-0.7,0-1,0-1.7-0.3
	c0.3-0.3,0-0.3,0.7-0.3c0,0.3-0.3,0.3,0.3,0.7c0.7,0,1.4,0,1.7,0c-0.3,0-0.3,0.3-0.3,0.3c-0.3,0-0.7,0-0.7,0s0.3,0.3,0.7,0.3
	s0,0,0-0.3c0.7,0,0,0.3,0.7,0.3c0-0.3-0.3-0.3,0-0.7c0.7,0.3,2.1,0,2.4,0.3c0,0,0-0.3,0.3-0.3s0.7,0,1,0.3c-0.3,0-0.3,0.3-0.3,0.3
	h0.3c0.3,0,0.7,0,1,0c0-0.3-0.3-0.3-0.7-0.3c0.3-0.3,0-0.3,0-0.7c0.3,0.3,0.7,0.3,1.7,0.7c-0.3,0.3-0.3,0-0.7,0c0,0.3,0.3,0,0.3,0
	h-0.3c0.3,0,0.7,0,1,0l0,0l0,0h0.3l0,0c0.3,0,1-0.3,1.4,0c0.3-0.3-0.7-0.3-0.7-0.7h0.3c0.3,0-0.3-0.3,0.3-0.3c0.3,0.3,0.7,0,0.7,0.3
	c0.3,0.3,0.7,0,1,0c0,0,0-0.3-0.3-0.3c0-0.3,1,0.3,1.4-0.3c0.3,0,0.3,0.3,0.7,0.3c-0.3,0-0.3,0.3-0.3,0.3c0.3,0,0.3,0,0.7-0.3
	c0.7,0.3,1,0,2.1-0.3c0.7,0.3,1.7,0,2.4,0c0,0.3-0.3,0-0.7,0.3c0,0.3,1,0.3,1.4,0.3c0-0.3-0.7,0-0.3-0.3c0.3,0,0.7-0.3,0.7-0.3
	c0.3,0,0.7,0.3,1,0.7c0.3,0,0.3-0.3,0.7-0.3c0.3,0,1,0.3,0.7,0c0.7,0.3,1.4,0.3,2.1,0.3c0.3-0.3-0.3-0.3,0-0.7
	c0.7,0.3-0.3,0.3,0.3,0.7c0.3,0.3,0.3-0.3,0.7-0.3c0.3,0,0.3,0,0.7,0c0,0,0-0.3,0.3-0.3c0,0,0,0.3,0.3,0.3c0.3,0-0.3,0-0.3,0.3
	c0.3,0.3,0.3,0,0.7,0c0.3,0-0.3,0.3-0.3,0.3v0.3c0.3,0,0.3-0.3,0.7,0c0.3-0.3,0-0.3,0-0.3c0.3,0,0.3,0,0.3,0.3c0.3,0,1,0,1.4,0
	c0-0.3-0.3-0.3-0.3-0.7c0.3,0,0.7-0.7,1.4-0.3c0.3-0.3,0.3-0.7,1.4-0.7c-0.3,0-0.7,0-0.7,0.3c0.3,0,0.7,0,0.7,0c0.3,0,0,0.3,0,0.3
	c-0.3,0-1,0.3-1,0v0.3c0.3,0,0.3-0.3,0.7,0c0.3,0-0.3-0.3,0.3-0.3c0,0.3,0.3,0.3,0.7,0.3c0.3,0.3,0,0.3-0.3,0.3c0,0,0.3,0,0.3,0.3
	c0,0,0.7-0.3,0.3-0.3c0,0,0.7,0.3,0.7,0c0.3,0,0.3,0.7,1,0.3c0,0,0-0.3-0.3-0.3c0.3,0,1.4-0.3,1.4,0c0,0,0.7,0,0.3-0.3
	c0.7,0,1.7,0.3,2.1,1c0.3,0,0.3,0,0.7,0c0.3-0.3-0.3-0.3,0.3-0.7c-0.3-0.3-0.3,0-0.7,0c-0.3-0.3-0.3-0.3,0-0.7c0,0,0,0,0,0.3
	c0.3,0,0.7,0.3,0.7,0c0.3,0-0.3,0-0.3-0.3c0.3-0.3,0.3,0,0.7,0c0,0.7,1,0.3,1.7,0c0.3,0.3,0.3,0.7,0,0.7c0.3-0.3-0.3-0.3-0.7,0
	c0,0,0,0,0.3,0c-0.3,0.3-1,0-1.7,0c1.4,0.3,3.8,0,5.5,0.3c0,0,0,0,0-0.3c0.3,0,0.3,0,0.7,0c0.3-0.3,0.3,0,0.7-0.3
	c0.3,0-0.7-0.3,0-0.3c0.3,0.3,0.3,0,1,0c0.3,0.3,0.7,0.3,1,0c0.3,0.3,0.7,0,1,0.3c1-0.7,2.7,0,4.5-0.3c0,0.3,0.3,0.3,0.7,0
	c0.3,0,0.3,0.3,0.3,0.3h0.3c0-0.3,0-0.3-0.3-0.7c0.7-0.3,0,0.3,0.7,0c0,0.3,0.3,0.3,0.7,0.3c0.3,0,0-0.3-0.3-0.3
	c0.7,0.3,2.1,0,2.7,0.7c0.3,0,0.3,0,0.7,0c0.3,0-0.3-0.3,0-0.7c0.3,0,0.3,0.3,0,0.3c0.3,0,0.3,0,0.7,0c0,0,0,0,0.3,0
	c0-0.3-0.3-0.7-0.7-0.7c0.3,0,0-0.3,0,0c0.7-0.3,1.7-0.7,2.4,0c0.3,0-0.3-0.3,0-0.3c0.3,0.3,1.4,0,1.7,0c0,0,0,0.3,0.3,0.3V2.1
	c0.3,0,0,0,0.3,0.3c0,0,0,0,0-0.3c0.3-0.3,0.7,0,0.7,0.3h0.3c0,0,0,0,0-0.3c1,0,2.4-0.3,2.7,0c1-0.3,0.7,0,1,0
	c0.3,0.3,0.7,0.3,1.4,0.7c-0.3,0-0.3,0-0.7,0c0.3,0.3,0.7,0,0.7,0s0,0,0-0.3c0.7,0,1.4-0.3,1.7-0.3c0,0,0,0,0-0.3c0.3,0,0.7,0,0.7,0
	c0.3,0.7,2.1,0,3.1,0.3c-1,0-2.1,0-3.4,0.3c0.3,0,0.7,0,1,0c0,0.3-0.3,0-0.7,0l0.3,0.3c0.3,0,0-0.3,0.3-0.3c0.3,0,0.3,0.3,0.7,0.3
	c0.3,0,0.3,0,0.7,0c0,0-0.3,0-0.3-0.3c0,0,0.3-0.3,0-0.3c0,0,0.3,0.7,1.4,0.7V2.4c0.3,0,0.3,0,0.7,0.3c0.3,0,0.3,0,0.7,0
	c0,0,0,0,0-0.3l0,0l0,0c0.3,0,0.7,0,1,0c-0.3,0-0.3,0-0.7,0l0,0c0,0,0.7,0,0.7,0.3c0.3,0,0.3,0,0.7,0c0,0-0.3-0.3-0.3-0.7H255
	c0.3-0.3,1,0,1.4,0c0,0,0,0,0.3,0c0.7,0,1,0,1.7,0l0,0c0,0-0.3,0-0.3-0.3c0.3,0,0.3,0,0.7,0.3h0.3c-0.3,0.3,0,0.3,0.3,0.3
	c0,0,0,0,0.3,0l0,0c0.3-0.3,1.4-0.7,1-0.3c-0.3,0-0.7,0.3-1,0.3c0,0,0.3,0.3,0.3,0c0.3,0.3-0.3,0-0.3,0.3c0,0,0,0,0.3,0.3
	c0.3,0,0.3,0,0.7,0c0,0,0,0,0-0.3c0.3,0,0.3,0,0.3,0h-0.3c-0.3,0-0.3-0.3-0.7-0.3c0.3,0,1-0.3,1.4,0l0,0c0.3,0,0-0.3,0.3-0.3
	c0.3,0.3,1.4,0.3,2.4,0.3c0.3-0.3-0.3,0-0.3-0.3c0.3,0,0.3-0.3,0.7-0.3c0.3,0.3,1,0,1.4,0.3c0.7-0.3,0.7,0,1.7,0.7
	c-0.3,0-0.7-0.3-1,0c-0.3,0,0,0,0-0.3c-0.3,0-0.3,0-0.7,0c-0.3,0,0.3,0,0.3,0c0,0.3-1,0.7-1.4,0.3c0,0-0.3,0.3-0.7,0.3
	c0,0-0.3,0.3,0,0.3c0.7,0,0.3,0,0.3,0.3c0.3,0,0.7-0.3,1-0.3c0.3,0.3,0.7,0.3,1,0c0-0.3-0.3,0-0.3-0.3c0.3,0,0.7-0.3,0.7-0.3
	c0.3,0,0.7,0,1,0.3c-0.3,0-0.3,0.3,0,0.3c0.3-0.3,1-0.7,1.4-0.7c0,0-0.3,0-0.3-0.3c0.3,0,1,0,1,0.3c0.3,0,0.7-0.3,0.7,0
	s-0.3,0-0.3,0.3c-0.3,0-0.7,0-0.7,0v0.3c0.3,0,0.3-0.3,0.7-0.3c0,0.3,0.7,0,1,0.3c-0.7,0.3-1.7,0-2.4,0.7c0.7,0.3,2.4-0.7,2.4,0.3
	c0.3,0,0.3,0,0.7-0.3c0,0-0.3-0.3,0-0.3c1.4,0.3,2.7,0,4.1,0.3c0,0,0-0.3,0.3-0.3c0.3,0.3,0.7,0,0.7,0c-1.4,0.7-1.7,0.3-1.7,0.7
	c0.7,0,1,0,1.7,0c0.3,0,0,0.3,0.3,0.3c0,0,0-0.3,0.3-0.3c0,0,0,0.3,0.3,0.3c0.3,0,0.3,0,0.7-0.3c0,0.3-0.3,0.3,0,0.7
	c0.3,0,0.7-0.3,1,0c0,0,0,0-0.3,0l0,0c0-0.3-0.7-0.3-0.7,0c0.7,0,1,0,1.7,0c0,0.3,0.3,0,0.3,0.3c0,0,0.3-0.3,0.7,0
	c-0.3,0.3-0.7,0.3-0.3,0.7c-0.3,0-0.3,0-0.7,0c0,0,0.3,0,0.3,0.3c0,0,0,0,0.3,0l0,0c0.3,0,0.3,0,0.7,0l0.3-0.3
	c-0.3-0.3-0.3,0.3-0.7,0c0-0.3,1-0.3,1.4,0c0.3,0,0-0.3,0.3-0.3c0.3,0.3,1.4,0.7,1.4,0.3c0.3,0,0,0,0,0.3c0.3,0,0.7,0,1,0
	c0,0.3,0.3,0,0.3,0.3l0,0l0.3-0.3c0.3,0.3,0.7,0,0.7,0c0.3,0.3,0.3,0,0.7,0.3c-0.3,0-0.7,0.3-1,0.3c0.3,0,0.3,0,0.7,0.3
	c0.3,0,0.7,0,1,0l0,0l0,0c0.7,0,1,0,1.7-0.3c0,0.3,0.3,0,0.3,0.3c-0.7,0.3-1.7,0.3-2.4,0.7l0,0c1-0.3,2.4-1,3.4-0.3
	c1,0,2.4-0.3,2.7,0c0,0,0.3-0.3,0.7,0c-0.3,0-0.3,0.3-0.3,0.3c0.3,0,0.3,0,0.7,0.3c0.3,0,0.3,0,0.3-0.3h-0.3c0.3-0.3,0.7,0,1.4-0.3
	c0,0.7,1.4,0.7,1.7,1c-0.3,0.3,0.3,0.7,0.7,0.7c-0.3,0.7-2.1,1.4-3.8,1.4c0-0.3,0.3,0,0.3-0.3C295.9,10.7,295.5,11,294.8,10.7z
	 M268.4,3.1C268.7,3.1,268.7,3.1,268.4,3.1C268.7,3.1,268.7,3.1,268.4,3.1z M264.9,2.7c0.3,0,0.3,0,1,0c0-0.3-0.3-0.3-0.3-0.3
	c0,0.3-0.3,0-0.3,0C264.6,2.7,264.9,2.7,264.9,2.7z M34.7,2.4C35.1,2.7,34.4,2.7,34.7,2.4C34,2.4,34,2.7,34,2.7
	C34.7,2.7,34.4,2.7,34.7,2.4C35.1,2.7,35.1,2.7,34.7,2.4z M31.3,3.1L31.3,3.1L31.3,3.1z M7.6,10.3L6.9,10
	C6.9,10.3,7.2,10.3,7.6,10.3z M14.1,20.6c0-0.3-0.7-0.3-1,0C13.4,21,13.7,20.6,14.1,20.6L14.1,20.6z M50.5,26.5c-0.3,0-0.7-0.3-1,0
	C50.2,26.5,50.5,26.5,50.5,26.5z M59.5,26.5c-0.3-0.3-0.3,0-0.7,0.3C59.1,26.8,59.8,26.5,59.5,26.5z M249.1,26.5c0,0.3,0.7,0.3,1,0
	C249.8,26.1,249.5,26.1,249.1,26.5z M240.9,26.5c-0.3,0-0.3-0.3-0.7-0.3C240.2,26.5,240.9,26.8,240.9,26.5z M285.6,20.6
	C285.9,20.6,285.9,20.6,285.6,20.6c0.7,0,0.7,0.3,1,0C286.6,20.3,285.9,20.3,285.6,20.6z M272.5,16.8
	C272.2,17.2,272.5,17.2,272.5,16.8c0.3,0.3,0.3,0.3,0.7,0.3l0,0l0,0l0,0v-0.3c0,0,0.3,0,0.3,0.3h0.3l0,0c0,0,0,0,0-0.3
	c-0.3,0-0.3,0-0.7-0.3C273.2,17.2,272.9,16.8,272.5,16.8z M230.2,24.1L230.2,24.1C229.9,24.1,230.2,24.4,230.2,24.1L230.2,24.1
	C230.6,24.4,230.6,24.1,230.2,24.1z M160.8,22.7C161.2,22.3,160.8,22.3,160.8,22.7C160.5,22.7,160.8,22.7,160.8,22.7L160.8,22.7z
	 M139.2,22.7L139.2,22.7C139.2,22.3,138.8,22.7,139.2,22.7L139.2,22.7z M69.1,24.4C68.7,24.4,68.7,24.4,69.1,24.4
	C68.7,24.4,69.1,24.4,69.1,24.4L69.1,24.4z M26.5,16.8c0,0-0.3,0-0.7,0.3c0,0,0,0,0,0.3l0,0h0.3C26.5,17.2,26.5,17.2,26.5,16.8
	c0.3,0.3,0,0.3,0.3,0.3l0,0l0,0l0,0c0-0.3,0.3-0.3,0.3-0.3s0.3,0,0-0.3C27.1,16.8,26.8,17.2,26.5,16.8z M36.4,4.1
	C36.4,4.1,36.8,4.1,36.4,4.1c0.3,0,0.3-0.3,0.3-0.3C36.4,3.8,36.4,3.8,36.4,4.1C36.1,4.1,36.4,4.1,36.4,4.1z M37.1,4.1
	c0.7,0.3,1.4,0.7,2.4,0.3c-0.3-0.3-0.7,0-1.4-0.3c0.3-0.3,0.7,0,1-0.3C38.5,4.1,37.8,3.8,37.1,4.1z M44,5.2c0,0.3,1,0.3,1,0.3
	C44.7,5.2,44.3,5.2,44,5.2z M50.9,3.8L50.9,3.8L50.9,3.8C51.2,3.8,50.9,3.8,50.9,3.8c-0.3,0-0.7,0-0.7,0s0,0,0,0.3h0.3l0,0l0,0
	C50.5,3.8,50.5,3.8,50.9,3.8z M52.2,3.4c-0.3-0.3-0.7,0-1,0l0,0l0,0l0,0C51.5,3.4,51.9,3.1,52.2,3.4c0,0.3-0.7,0.3-0.7,0.3
	C51.9,3.8,51.9,3.8,52.2,3.4C52.2,3.4,51.9,3.4,52.2,3.4z M106.2,3.4C105.8,3.4,105.8,3.4,106.2,3.4C105.8,3.8,106.2,3.8,106.2,3.4
	C106.2,3.8,106.2,3.8,106.2,3.4C106.2,3.8,105.8,3.4,106.2,3.4C105.8,3.4,105.8,3.4,106.2,3.4L106.2,3.4z M124.1,3.1L124.1,3.1
	c0.3,0,0.3,0,0.7,0C124.4,2.7,124.1,2.7,124.1,3.1C123.7,2.7,123.7,3.1,124.1,3.1z M139.2,2.4L139.2,2.4L139.2,2.4L139.2,2.4
	C139.5,2.4,139.2,2.4,139.2,2.4L139.2,2.4z M148.1,2.7L148.1,2.7L148.1,2.7C148.5,2.7,148.5,2.7,148.1,2.7L148.1,2.7
	C148.1,2.7,147.8,2.7,148.1,2.7C147.8,2.7,147.8,2.7,148.1,2.7L148.1,2.7C147.8,2.7,147.8,2.7,148.1,2.7z M151.9,2.7
	C151.5,2.7,151.2,2.7,151.9,2.7C151.5,2.7,151.5,2.7,151.9,2.7C151.5,2.7,151.5,2.7,151.9,2.7L151.9,2.7
	C151.9,3.1,152.2,3.1,151.9,2.7C152.2,2.7,152.2,2.7,151.9,2.7C152.2,2.7,152.2,2.7,151.9,2.7L151.9,2.7z M160.8,2.4L160.8,2.4
	L160.8,2.4C160.5,2.7,160.5,2.7,160.8,2.4C160.5,2.7,160.8,2.7,160.8,2.4L160.8,2.4z M175.3,2.7C175.6,2.7,175.6,3.1,175.3,2.7
	c0.3,0,0.3,0,0.7,0h0.3C175.9,2.7,175.6,2.7,175.3,2.7z M193.8,3.8C194.2,3.8,194.2,3.8,193.8,3.8C194.2,3.4,194.2,3.1,193.8,3.8
	L193.8,3.8L193.8,3.8C194.2,3.4,193.8,3.8,193.8,3.8L193.8,3.8z M211,3.1C211.3,3.1,211.3,3.1,211,3.1C211.3,3.1,211,3.1,211,3.1
	L211,3.1z M234.7,4.5C235.1,4.5,235.1,4.5,234.7,4.5C235.1,4.5,235.1,4.5,234.7,4.5L234.7,4.5z M247.4,3.4c0.3,0,0.7,0.3,1,0
	c0,0-0.7,0-0.3-0.3c0,0,0.3,0,0.7,0l0,0l0,0l0,0C248.5,3.1,248.1,3.1,247.4,3.4C247.8,3.4,247.8,3.4,247.4,3.4z M249.1,3.1
	C249.1,3.4,248.8,3.4,249.1,3.1C249.1,3.4,249.1,3.4,249.1,3.1c0.3,0.3,0.3,0.3,0.7,0C249.5,3.4,249.5,3.1,249.1,3.1z M249.8,3.8
	c-0.3,0-0.3,0-0.7,0c0,0-0.3,0.3,0,0.3C249.1,4.1,249.1,4.1,249.8,3.8c-0.3,0.3-0.3,0.3-0.7,0.3C249.1,3.8,249.1,3.8,249.8,3.8
	C249.5,3.8,249.5,3.8,249.8,3.8C249.5,3.8,249.5,3.8,249.8,3.8C249.5,3.8,249.5,3.8,249.8,3.8C249.5,3.8,249.5,3.8,249.8,3.8z
	 M255,5.5c0.3,0,1,0,1-0.3C255.7,5.2,255.3,5.2,255,5.5z M261.5,4.5c-0.3,0-0.7,0-1.4,0.3c0.7,0,1.7,0,2.4-0.3
	c-0.3-0.3-1.4-0.3-2.1,0C260.8,4.5,261.2,4.1,261.5,4.5z M275.9,12L275.9,12L275.9,12c-0.3,0-0.7,0.3-0.7,0.3s0,0.3,0.3,0.3
	C275.6,12.4,275.9,12.4,275.9,12C275.9,12.4,275.9,12.4,275.9,12C275.9,12.4,275.9,12.4,275.9,12L275.9,12z M228.9,24.4
	C228.5,24.4,228.5,24.4,228.9,24.4C228.5,24.4,228.5,24.4,228.9,24.4L228.9,24.4C228.5,24.7,228.5,24.7,228.9,24.4L228.9,24.4z
	 M228.2,24.4C228.2,24.4,227.8,24.4,228.2,24.4C227.8,24.1,227.8,24.1,228.2,24.4c-0.3,0-0.7,0-1,0h0.3
	C227.8,24.4,227.8,24.4,228.2,24.4z M229.6,23.7C229.2,23.7,229.2,23.7,229.6,23.7C229.2,23.7,229.6,23.7,229.6,23.7L229.6,23.7z
	 M237.1,4.8c0.3,0.3,0.7,0,1.4,0l-0.3-0.3C237.8,4.8,237.5,4.5,237.1,4.8z M247.4,4.8L247.4,4.8L247.4,4.8z M239.2,4.8
	c-0.3,0-0.3-0.3-0.7,0c0,0,0,0,0.3,0.3C238.8,4.8,239.2,4.8,239.2,4.8z M211.3,3.4C211.3,3.4,211.7,3.4,211.3,3.4
	C211.7,3.4,211.3,3.4,211.3,3.4z M207.9,4.5L207.9,4.5C208.2,4.5,208.2,4.5,207.9,4.5C208.2,4.5,208.2,4.5,207.9,4.5
	C208.2,4.5,208.2,4.5,207.9,4.5z M207.2,4.5C207.2,4.5,207.6,4.5,207.2,4.5L207.2,4.5z M271.8,17.5L271.8,17.5L271.8,17.5
	c-0.7,0-1,0.3-0.7,0.3C271.1,17.9,271.5,17.5,271.8,17.5z M270.8,17.2C271.1,17.2,271.1,17.2,270.8,17.2
	C271.1,17.2,271.1,17.2,270.8,17.2z M270.4,16.8C270.4,16.5,270.4,16.5,270.4,16.8L270.4,16.8L270.4,16.8z M269.1,16.8L269.1,16.8
	h0.7c0,0,0,0,0-0.3C269.8,16.5,269.4,16.5,269.1,16.8z M277.3,7.2L277.3,7.2L277.3,7.2L277.3,7.2z M280.8,7.2
	C280.8,6.9,280.8,6.9,280.8,7.2C280.4,7.2,280.4,7.2,280.8,7.2C280.4,7.2,280.4,7.2,280.8,7.2z M280.4,6.9
	C280.1,6.9,279.7,6.9,280.4,6.9C280.1,6.9,280.1,6.9,280.4,6.9L280.4,6.9z M274.9,6.9L274.9,6.9C274.6,6.9,274.9,6.9,274.9,6.9
	C275.3,6.9,275.3,6.9,274.9,6.9z M263.6,3.8L263.6,3.8C263.2,3.8,263.2,3.8,263.6,3.8l0.3,0.3C263.6,4.1,263.6,4.1,263.6,3.8z
	 M262.5,4.5c0.3,0.3,0.7,0,1,0c-0.3,0-0.3-0.3-0.3-0.3s0,0-0.3,0C263.2,4.5,262.9,4.8,262.5,4.5z M248.5,4.5c-0.3,0-0.3,0-0.3-0.3
	c-0.3,0-0.3,0-0.7,0c0,0,0,0-0.3,0c0,0.3,0,0.3,0,0.3l0,0l0,0l0,0c0.3,0,0.7,0,0.7,0l0,0l0,0l0,0l0,0C248.1,4.5,248.1,4.8,248.5,4.5
	L248.5,4.5z M248.1,4.1L248.1,4.1L248.1,4.1z M248.8,3.4L248.8,3.4L248.8,3.4z M246.7,4.5C246.7,4.5,246.4,4.5,246.7,4.5L246.7,4.5
	L246.7,4.5L246.7,4.5z M244.3,4.8C244,4.8,244,4.8,244.3,4.8C244,4.8,244,4.8,244.3,4.8C244,4.8,244,4.8,244.3,4.8z M240.2,4.8
	L240.2,4.8c0-0.3-0.3-0.3-0.7-0.3c-0.3,0-0.3,0-0.3,0.3l0,0h0.3C239.9,4.8,239.9,4.8,240.2,4.8L240.2,4.8z M240.9,4.1
	c0.3,0.3,0.3,0,0.7,0C241.2,3.8,240.9,4.1,240.9,4.1z M238.1,3.8C238.1,3.8,238.1,4.1,238.1,3.8C238.8,4.1,238.5,3.8,238.1,3.8z
	 M235.4,4.8L235.4,4.8C235.4,4.5,235.4,4.5,235.4,4.8C235.1,4.5,235.1,4.8,235.4,4.8C235.1,4.8,235.1,4.8,235.4,4.8z M234,4.8
	L234,4.8L234,4.8L234,4.8z M233.7,5.2C233.7,5.2,233.3,5.2,233.7,5.2C233.3,5.2,233.3,5.2,233.7,5.2C233.3,5.2,233.7,5.2,233.7,5.2z
	 M233.7,3.8c-0.3,0-0.3-0.3-0.7-0.3v0.3C233.3,3.8,233.3,3.8,233.7,3.8z M232.6,4.8L232.6,4.8L232.6,4.8L232.6,4.8z M207.2,2.7
	c-0.3,0-0.7-0.3-1,0C206.5,2.7,206.9,2.7,207.2,2.7z M168.4,22.3C168.4,22.7,168.4,22.7,168.4,22.3c0,0.3,0.3,0,0.7,0.3
	c0,0,0,0,0-0.3C168.7,22.3,168.7,22.3,168.4,22.3z M167.4,22.3L167.4,22.3L167.4,22.3C167,22.7,167,22.7,167.4,22.3L167.4,22.3z
	 M166.3,22.3C166.3,22.3,166.3,22.7,166.3,22.3C166.3,22.7,166.3,22.3,166.3,22.3L166.3,22.3z M164.9,22.7
	C165.3,22.7,165.3,22.7,164.9,22.7C165.3,22.3,165.3,22.3,164.9,22.7C165.3,22.3,165.3,22.7,164.9,22.7z M164.6,22.3
	C164.6,22.3,164.6,22.7,164.6,22.3C164.6,22.7,164.6,22.7,164.6,22.3C164.9,22.7,164.9,22.7,164.6,22.3L164.6,22.3z M159.5,22.3
	c-0.3,0-0.3,0-0.7,0c0,0,0,0-0.3,0C158.8,22.7,158.8,22.3,159.5,22.3C159.5,22.7,159.1,22.3,159.5,22.3L159.5,22.3z M156.4,22.3
	c-0.3,0-0.3,0-0.7,0c-0.3,0-0.3,0-0.7,0C155,22.7,156,22.3,156.4,22.3L156.4,22.3z M144.3,22.3c-0.3,0-0.3,0-0.7,0l0,0
	c0.3,0,1.4,0.3,1.4,0C144.7,22.3,144.7,22.3,144.3,22.3z M141.2,2.7c0.3,0.3,0.7,0,0.7-0.3C141.6,2.7,141.6,2.4,141.2,2.7
	C141.9,2.7,141.2,2.7,141.2,2.7z M148.8,3.1L148.8,3.1C148.5,3.1,148.5,3.1,148.8,3.1C148.5,3.1,148.5,3.1,148.8,3.1z M149.8,3.4
	L149.8,3.4C150.2,3.1,150.2,3.1,149.8,3.4L149.8,3.4C149.8,3.1,149.8,3.1,149.8,3.4z M151.5,3.1L151.5,3.1
	C151.2,3.1,151.2,3.1,151.5,3.1C151.2,3.1,151.5,3.1,151.5,3.1z M158.4,2.7C158.1,2.4,158.4,2.7,158.4,2.7
	C158.1,2.7,158.4,3.1,158.4,2.7C158.8,2.7,158.1,2.7,158.4,2.7z M155,2.7C155,2.7,154.6,2.7,155,2.7C154.6,3.1,155,3.1,155,2.7
	C155.3,3.1,155.3,3.1,155,2.7c0.3,0.3,0.7,0.3,0.7,0C155.3,2.7,155,2.7,155,2.7z M153.3,2.7L153.3,2.7L153.3,2.7L153.3,2.7z
	 M149.8,2.4C149.8,2.4,149.5,2.4,149.8,2.4L149.8,2.4C149.8,2.7,149.8,2.7,149.8,2.4C149.8,2.7,150.2,2.7,149.8,2.4L149.8,2.4
	C150.2,2.7,150.2,2.7,149.8,2.4z M146.4,2.7L146.4,2.7C146.7,2.7,146.7,2.7,146.4,2.7L146.4,2.7z M145,2.7c-0.3,0-0.3,0-0.7,0
	c0,0,0,0,0.3,0.3C144.7,3.1,144.7,3.1,145,2.7C145,3.1,145,3.1,145,2.7L145,2.7z M140.5,22.3L140.5,22.3
	C140.5,22.3,140.5,22.7,140.5,22.3c0.3,0,0.7,0.3,1,0c0,0,0,0-0.3,0S140.9,22.3,140.5,22.3z M135.4,22.3
	C135.4,22.3,135.1,22.3,135.4,22.3C135.1,22.7,135.1,22.7,135.4,22.3C135.4,22.7,135.4,22.7,135.4,22.3
	C135.4,22.7,135.4,22.3,135.4,22.3z M134.7,22.3C134.7,22.7,134.7,22.7,134.7,22.3C134.7,22.7,134.7,22.3,134.7,22.3L134.7,22.3z
	 M133.7,22.3C133.7,22.3,133.7,22.7,133.7,22.3C133.7,22.7,133.7,22.3,133.7,22.3L133.7,22.3z M132.6,22.3L132.6,22.3
	c0,0.3,0.3,0.3,0.7,0l0,0C133,22.3,133,22.3,132.6,22.3z M130.9,22.3C130.9,22.7,130.9,22.7,130.9,22.3c0.3,0,0.7,0.3,0.7,0l0,0
	C131.3,22.3,130.9,22.3,130.9,22.3z M71.5,24.7C71.5,24.4,71.5,24.4,71.5,24.7C71.5,24.4,71.5,24.4,71.5,24.7c0-0.3,0-0.3-0.3,0
	C71.1,24.4,71.1,24.4,71.5,24.7C71.1,24.7,71.5,24.7,71.5,24.7z M72.9,24.1c-0.3,0-0.7,0-0.7,0l0,0l0,0
	C72.2,24.1,72.5,24.1,72.9,24.1C72.5,24.4,72.9,24.4,72.9,24.1z M70.4,23.7L70.4,23.7L70.4,23.7C70.8,23.7,70.4,23.7,70.4,23.7z
	 M24.7,12.7C25.1,12.7,25.1,12.4,24.7,12.7c0-0.3-0.3-0.7-0.3-0.7l0,0l0,0l0,0L24.7,12.7l-0.7-0.3C24.4,12.4,24.7,12.4,24.7,12.7z
	 M22.7,7.2L22.7,7.2L22.7,7.2L22.7,7.2z M30.6,16.8c-0.3,0-0.7-0.3-1,0c0,0,0,0,0,0.3h0.3C30.2,16.8,30.6,16.8,30.6,16.8z
	 M29.6,16.8L29.6,16.8L29.6,16.8C29.6,16.5,29.6,16.5,29.6,16.8z M28.5,17.2C28.9,17.2,28.9,17.2,28.5,17.2
	C28.9,17.2,28.9,17.2,28.5,17.2z M28.2,17.5c0.3,0,0.7,0.3,0.7,0.3C28.9,17.5,28.9,17.5,28.2,17.5L28.2,17.5L28.2,17.5z M88.7,3.4
	C88.3,3.4,88.3,3.4,88.7,3.4C88.3,3.4,88.7,3.4,88.7,3.4z M61.5,4.8c-0.3-0.3-0.3,0-0.7,0C60.8,4.8,61.2,4.8,61.5,4.8
	C61.2,4.8,61.5,4.8,61.5,4.8z M92.8,4.5C92.8,4.5,92.4,4.5,92.8,4.5C92.4,4.5,92.4,4.5,92.8,4.5z M91.8,4.5L91.8,4.5L91.8,4.5
	L91.8,4.5L91.8,4.5z M61.5,5.2c0.3,0,1,0,1.4,0c-0.3-0.3-0.7,0-1,0C61.9,4.8,61.5,4.8,61.5,5.2z M52.6,4.8L52.6,4.8L52.6,4.8z
	 M93.5,2.4c-0.3,0-0.7,0-1,0C92.8,2.7,93.1,2.7,93.5,2.4z M89,3.1C88.7,3.1,88.7,3.1,89,3.1C88.7,3.1,88.7,3.1,89,3.1L89,3.1z
	 M67.4,4.8L67.4,4.8L67.4,4.8L67.4,4.8z M67,3.4c-0.3,0-0.3,0-0.7,0.3h0.3C67,3.8,66.7,3.8,67,3.4z M66.3,5.2L66.3,5.2
	C66.7,5.2,66.7,5.2,66.3,5.2C66.7,5.2,66.3,5.2,66.3,5.2z M66,4.8h-0.3l0,0C65.6,5.2,66,4.8,66,4.8z M64.9,4.5L64.9,4.5L64.9,4.5
	C65.3,4.5,65.3,4.5,64.9,4.5z M64.6,4.8C64.6,4.8,64.9,4.8,64.6,4.8C64.9,4.8,64.9,4.5,64.6,4.8C64.6,4.5,64.6,4.5,64.6,4.8
	L64.6,4.8z M61.5,3.8c-0.3,0-0.3,0.3-0.3,0.3C61.5,4.5,61.5,4.1,61.5,3.8z M58.4,3.8c0.3,0,0.7,0.3,0.7,0
	C58.8,4.1,58.8,3.8,58.4,3.8z M59.5,4.8C59.8,4.8,59.8,4.8,59.5,4.8c0.3,0,0.3,0,0.3,0h0.3l0,0c0-0.3,0-0.3-0.3-0.3
	C59.8,4.5,59.8,4.5,59.5,4.8L59.5,4.8z M56,4.8L56,4.8C56,4.8,55.7,4.8,56,4.8C55.7,4.8,56,4.8,56,4.8z M53.3,4.5
	C52.9,4.5,52.9,4.5,53.3,4.5L53.3,4.5L53.3,4.5C53.6,4.5,53.3,4.5,53.3,4.5z M51.2,3.4L51.2,3.4L51.2,3.4z M50.2,3.4
	c0.3,0,0.3,0,0.7,0h0.3c0.3-0.3,0-0.3-0.3-0.3C50.5,3.1,50.2,3.4,50.2,3.4z M51.5,4.1C51.9,4.1,51.9,4.1,51.5,4.1
	C51.9,4.1,51.9,4.1,51.5,4.1z M51.5,4.8c0.3,0,0.3-0.3,0.7-0.3l0,0l0,0l0,0l0,0c0.3,0,0.7,0.3,0.7,0l0,0l0,0l0,0c-0.3,0-0.3,0,0-0.3
	c0,0,0,0-0.3,0s-0.3,0-0.7,0C51.9,4.5,51.9,4.5,51.5,4.8C51.2,4.5,51.5,4.5,51.5,4.8z M36.8,4.1C36.8,4.1,36.4,4.5,36.8,4.1
	c0,0.3-0.3,0.3-0.3,0.3c0.3,0,0.7,0.3,1,0C36.8,4.8,36.8,4.5,36.8,4.1z M24.7,6.9L24.7,6.9C24.7,7.2,25.1,6.9,24.7,6.9
	C25.1,6.9,25.1,6.9,24.7,6.9z M19.6,6.9L19.6,6.9C19.9,6.9,19.9,6.9,19.6,6.9C20.3,6.9,19.9,6.9,19.6,6.9z M19.6,6.9
	C19.2,6.9,19.2,6.9,19.6,6.9C19.2,7.2,19.6,7.2,19.6,6.9L19.6,6.9z M23.4,13.1c0,0,0.3,0.3,0.7,0C23.7,13.1,23.7,12.7,23.4,13.1z
	 M27.8,16.5C27.5,16.5,27.8,16.5,27.8,16.5c0,0.3,0.3,0.3,0.7,0.3C28.2,16.8,28.2,16.8,27.8,16.5c0.3,0,0.7,0.3,0.7,0.3s0,0,0-0.3
	h0.3c0.3,0,0,0.3,0,0.3l0,0l0,0c0.3,0,0.3,0,0.3,0s-0.3-0.3-0.7-0.3H27.8C28.9,16.8,28.2,16.5,27.8,16.5z M27.5,17.2L27.5,17.2
	C27.5,17.2,27.8,17.2,27.5,17.2C27.8,17.2,27.5,17.2,27.5,17.2z M69.8,23.7h0.3H69.8L69.8,23.7z M69.8,24.4L69.8,24.4
	C69.4,24.4,70.1,24.1,69.8,24.4L69.8,24.4C69.4,24.1,69.4,24.4,69.8,24.4z M70.1,24.1C70.1,24.1,70.4,24.1,70.1,24.1
	C70.4,24.1,70.4,24.1,70.1,24.1L70.1,24.1z M70.4,24.4C70.8,24.4,70.8,24.4,70.4,24.4C70.4,24.1,70.4,24.1,70.4,24.4
	C70.4,24.1,70.4,24.4,70.4,24.4z M149.8,22.7c1.4,0,3.1-0.3,4.5,0l0.3-0.3C153.3,22.3,151.5,22.3,149.8,22.7
	c-1.7-0.3-3.1-0.3-4.8-0.3c0,0,0,0.3,0.3,0.3C147.1,22.3,148.5,22.3,149.8,22.7z M229.2,24.4C229.6,24.4,229.6,24.1,229.2,24.4
	C229.6,24.1,229.2,24.1,229.2,24.4L229.2,24.4z M229.6,24.1L229.6,24.1L229.6,24.1L229.6,24.1z M230.9,24.4L230.9,24.4
	C231.3,24.4,231.3,24.4,230.9,24.4L230.9,24.4z M230.2,23.7L230.2,23.7C230.2,23.4,229.9,23.7,230.2,23.7
	C229.9,23.7,229.9,23.7,230.2,23.7z M272.2,17.2L272.2,17.2L272.2,17.2L272.2,17.2z M272.2,16.8C272.2,16.5,272.2,16.5,272.2,16.8
	c-0.3-0.3-1.4,0-1-0.3h-0.3c0,0.3-0.3,0.3-0.7,0.3h0.3l0,0l0,0c0,0-0.3-0.3,0-0.3h0.3c0,0,0,0,0,0.3c0,0,0.3-0.3,0.3,0
	c0,0-0.3,0-0.3,0.3C271.8,16.8,272.2,16.8,272.2,16.8z M276.6,13.1c-0.3-0.3-0.3,0-0.7,0C275.9,13.4,276.3,13.1,276.6,13.1z
	 M282.5,6.9L282.5,6.9L282.5,6.9C282.8,7.2,282.8,7.2,282.5,6.9L282.5,6.9C282.8,6.9,282.8,6.9,282.5,6.9
	C282.5,6.5,282.5,6.5,282.5,6.9z M282.1,6.9L282.1,6.9L282.1,6.9L282.1,6.9z M280.1,6.2L280.1,6.2L280.1,6.2L280.1,6.2z M278.7,6.2
	c-0.3,0-0.3,0.3-0.7,0.3c0.3,0,0.3,0,1,0l0,0C279,6.5,278.7,6.5,278.7,6.2z M277.7,6.2c0,0.3,1,0,0.7,0C278.4,6.2,278,6.2,277.7,6.2
	C278,6.2,278,6.2,277.7,6.2z M277.3,6.5L277.3,6.5L277.3,6.5z M275.6,6.9L275.6,6.9C275.9,6.9,275.9,6.9,275.6,6.9L275.6,6.9z
	 M275.3,6.9L275.3,6.9L275.3,6.9z M273.2,6.2L273.2,6.2L273.2,6.2z M260.8,3.4c0.3,0.3,1,0.3,1.4,0.3c0.7-0.3,1-0.3,1.4-0.7
	c-0.3,0-0.7,0-1,0c0,0,0,0-0.3,0c0,0-0.3,0.3-0.7,0.3c0.3,0,0.3-0.3,0.3-0.3l0,0C261.9,3.4,261.5,3.4,260.8,3.4z M261.5,3.1
	c0.3,0,0.3,0,0.7,0c0,0,0,0,0-0.3c0,0,0,0,0,0.3C261.9,3.1,261.5,3.1,261.5,3.1z M258.4,3.1L258.4,3.1L258.4,3.1L258.4,3.1
	C258.8,2.7,258.4,2.7,258.4,3.1z M257,3.1c0.3,0,1,0,0.7-0.3C257.4,2.7,256.7,3.1,257,3.1z M256.7,2.7L256.7,2.7
	C257,2.7,257,2.7,256.7,2.7L256.7,2.7z M252.9,3.8L252.9,3.8c-0.7,0-0.3,0.3-0.7,0.3c-0.7-0.3-1.7,0-2.7,0c0,0,0,0-0.3,0
	c-0.3,0.3-0.7,0.3-0.7,0.7c0.3,0.3,1-0.3,1.7-0.3l0.3,0.3c0.3,0,0.3,0,0.7,0l0,0c0-0.3,1-0.3,1-0.3c-0.3,0-0.7,0-0.3,0.3
	c0.3-0.3,0.7,0,0.7,0s0.3-0.3,0-0.3c0.7,0,0.7,0,1.4-0.3c0.3,0.3,0.7,0.3,1,0c-0.3,0-0.3,0-0.3-0.3c0.3,0,0.7,0.3,1.4,0
	c0,0,0,0-0.3,0.3c0,0,0,0,0.3,0c0.3,0,0.3,0,0.3-0.3c0.3,0,0,0.3,0,0.3h0.3c-0.3,0.3-0.3,0.7-1,1c1,0,2.4,0.3,3.4-0.7
	c0.3,0,0.7,0,0.7,0V4.1c0,0,0,0-0.3,0c-0.3,0-0.7,0-1,0c0.3,0-0.3,0.3-0.3,0.3V4.1c-0.7,0-1,0.7-2.1,0.7c0.3-0.3,1.7-1,2.4-1
	c0,0-0.7,0.3-0.3,0.3c0.3,0,0.7-0.3,1-0.3c0,0,0,0-0.3,0h0.3c0,0,0,0,0.3,0l0,0l0,0c0,0,0.3,0,0.3-0.3c-0.3,0-1,0-1.4,0
	c0,0.3-1,0-0.7,0.3c0,0-0.3,0-0.7-0.3c0.3,0,0.3,0,0.3,0l0,0H257l0,0c-0.3,0.3-0.3,0-0.7,0.3c0,0,0,0,0-0.3c-0.3,0-0.3,0.3-0.7,0
	c0,0-0.3,0.3-0.3,0c-0.3,0,0.3,0.3,0,0.3C255.3,3.8,253.6,3.8,252.9,3.8C252.9,4.1,253.3,3.8,252.9,3.8z M252.2,3.1c0,0,0.3,0,0.7,0
	l0,0C252.6,3.1,252.2,3.1,252.2,3.1z M250.5,3.4L250.5,3.4L250.5,3.4c0.3,0.3,0.3,0.3,0.7,0.3C250.9,3.4,250.5,3.4,250.5,3.4z
	 M248.8,2.4c0.7,0,0.3,0.3,0.7,0.7c0.3-0.3,0.3,0,0.7-0.3C249.8,2.7,249.5,2.1,248.8,2.4z M248.1,2.7c0.3,0,0.3,0,0.7,0
	c0-0.3,0-0.3,0-0.7C248.5,2.4,248.5,2.7,248.1,2.7z M247.1,3.1c0.3,0,0.7,0,0.7,0C247.8,2.4,247.1,2.7,247.1,3.1z M245.7,3.8
	L245.7,3.8L245.7,3.8z M245.4,3.4L245.4,3.4L245.4,3.4z M245,4.1C245,4.1,245.4,4.1,245,4.1c0,0.3-0.3,0.3-0.7,0.3l0,0l0,0
	c-0.3,0-0.7,0-1,0.3c-0.7-0.3-1.4,0-2.1-0.3c-0.3,0.3,0,0.3,0.3,0.3h0.3l0,0c0.3,0,0.7,0,1,0c0,0,0,0,0.3,0l0,0l0,0
	c-0.3,0-0.7,0-1,0c-0.3,0-0.3,0-0.3,0.3h0.3l0,0h0.3c0.7,0,1-0.3,1-0.3s0,0,0,0.3c0.3,0,0.3,0,0.3,0s0-0.3-0.3,0l0.3-0.3
	c0.3,0,0.3,0,0.7,0l0,0h0.3C245,4.8,245,4.5,245,4.1c0.3,1,1,0.3,1.4,0.3l0,0c0.3,0,0.3,0,0.7-0.3c-0.3,0-0.7,0-1-0.3l0,0
	C245.7,4.1,245.4,4.1,245,4.1C245.7,3.8,245.7,3.8,245,4.1C245.4,3.8,245.4,3.8,245,4.1z M243.6,3.4C243.6,3.1,243.6,3.4,243.6,3.4
	c0.7,0,0.7-0.3,1,0c0,0.3-0.7,0-0.3,0.3c0.3,0,0.7,0,0.7-0.3C244.7,3.1,243.6,3.1,243.6,3.4z M242.3,3.4L242.3,3.4
	c0.3,0.3,0.7,0.3,0.7,0C242.6,3.1,242.3,3.1,242.3,3.4z M241.2,2.1c0.3,0,1,0,1.4,0C242.3,2.1,241.9,2.1,241.2,2.1z M238.5,3.1
	c0.3,0.3,1,0.3,1.4,0c0-0.3-0.7,0-0.7-0.7c-0.7,0,0.3,0.3,0,0.3C238.8,3.1,238.8,2.7,238.5,3.1z M237.1,4.5L237.1,4.5
	c0.3,0,0.3,0,0.7,0C237.8,4.5,237.5,4.5,237.1,4.5z M236.8,3.8c0.3,0,0.3-0.3,0.3-0.7l0,0l0,0l0,0C236.4,3.1,236.4,3.4,236.8,3.8z
	 M234.7,3.1c0.3,0,0.7,0,0.7,0.3c0.3-0.3,0.3,0,1-0.3c-0.3-0.3-0.7,0-1-0.3C235.1,3.1,234.7,3.1,234.7,3.1z M232.3,3.4
	c0.7-0.3,1.7,0.3,2.1-0.3C234,3.1,232.3,2.7,232.3,3.4z M229.2,3.4c0.3,0,0.3,0.3,0.7,0V3.1C229.6,3.4,229.6,3.1,229.2,3.4z
	 M224.4,3.4c0.3,0.3,1,0.3,1.4,0.3c-0.3,0-0.3-0.3-0.7-0.3C225.1,3.8,224.7,3.4,224.4,3.4z M223,3.4c0.3,0.3,0.7,0.3,1,0.3
	C223.7,3.8,223.4,3.4,223,3.4z M221.6,3.8c0.3,0,1.4,0.3,1.4,0C222.7,3.8,222.3,3.8,221.6,3.8z M221,3.8c0,0.3,0.3,0.3,0.7,0
	C221.3,3.4,221.3,3.8,221,3.8z M216.8,4.1c0.3,0.3,0.3,0.3,0.7,0C217.2,4.1,217.2,3.8,216.8,4.1z M213.7,2.4c0.3-0.3,0.3,0,0.7,0
	c0.3,0,0.3-0.3,0.3-0.3c-0.3,0.3-0.7-0.3-1-0.3C213.1,2.1,213.4,2.1,213.7,2.4z M211.7,2.1c0.3,0.3,0.3,0,0.7,0.3
	c-0.3,0-0.3,0-0.3,0.3c0.3,0,1,0,1-0.3C212.7,2.1,212.4,1.7,211.7,2.1z M210.7,2.4C211,2.4,211,2.4,210.7,2.4c0.3,0,1,0.3,1,0
	C211.3,2.4,211,2.1,210.7,2.4z M208.9,2.4c0.7,0,1,0,1.7,0c0,0-0.3,0-0.3-0.3C210,2.4,209.3,2.4,208.9,2.4z M207.9,2.7
	c0.3,0,0.3,0,0.7,0C208.6,2.4,208.2,2.1,207.9,2.7C208.2,2.4,207.9,2.4,207.9,2.7z M206.5,2.4C206.9,2.4,206.5,1.7,206.5,2.4
	c0.3-0.3,0.3,0,0.7,0c0.3-0.3,0-0.3,0-0.7c-0.3,0-1-0.3-1.4,0C206.2,1.7,206.2,2.1,206.5,2.4z M205.2,2.4
	C205.2,2.4,205.2,2.7,205.2,2.4c0.7,0,0.7,0.3,1,0c0,0,0,0-0.3,0C205.8,2.7,205.5,2.4,205.2,2.4z M195.2,2.7c0.3,0.3,0.7,0,0.7,0
	S195.5,2.4,195.2,2.7z M195.2,3.1c0.3,0.3,0.7,0,1,0C195.5,3.1,195.5,2.7,195.2,3.1z M193.5,2.7c0.3,0,1,0.3,1.4,0.3
	c-0.7-0.3,0-1.4-1-1c0,0,0.3,0.3,0.3,0.7C194.2,2.7,193.8,2.7,193.5,2.7z M192.4,3.1c0.3,0,0.3,0.3,0.7,0
	C193.1,3.1,192.8,2.7,192.4,3.1z M184.9,2.7C185.2,2.7,185.2,2.7,184.9,2.7C185.2,2.7,185.2,2.7,184.9,2.7
	C185.2,2.7,185.2,2.7,184.9,2.7z M173.2,2.1c0.3,0.3,1,0,1.4,0C174.2,2.1,173.5,1.7,173.2,2.1z M172.9,2.7
	C172.5,2.4,172.5,2.4,172.9,2.7c-0.3-0.3-1,0-0.7,0c0.3,0,1,0,1.4,0.3c0,0,0,0,0-0.3c0.3,0.3,0.3,0,0.7,0.3c0,0,0,0,0-0.3
	c0.3,0,1.4,0.3,1.4,0c-0.3-0.3-1.4-0.3-1.4,0C173.5,2.1,173.2,2.4,172.9,2.7c0.3-0.3,0-0.7,0-0.7C172.2,2.1,173.2,2.4,172.9,2.7z
	 M171.1,2.1c0.3-0.3,0.7,0,0.7,0C172.2,1.7,171.8,1.7,171.1,2.1C171.5,1.7,171.1,2.1,171.1,2.1z M170.8,1.4L170.8,1.4
	c-0.7-0.3-0.7,0-0.7,0C170.4,1.4,170.4,1.4,170.8,1.4L170.8,1.4z M169.1,2.7c0.3,0,1,0,0.7-0.3C169.4,2.7,169.4,2.4,169.1,2.7z
	 M165.6,2.7c0.3,0,0.3,0,0.7,0c0.3,0,0.7,0,1,0c-0.3,0-0.3-0.3-0.7-0.3c0,0-0.3,0-0.3,0.3V2.4C165.3,2.4,165.3,2.4,165.6,2.7z
	 M163.2,2.7c0.3,0,0.3,0,0.7,0l0,0C163.9,2.7,163.6,2.4,163.2,2.7z M161.9,2.4L161.9,2.4L161.9,2.4C161.5,2.4,161.5,2.4,161.9,2.4
	C161.5,2.4,161.9,2.4,161.9,2.4z M159.8,2.4c0.3,0,0.3,0,0.7,0l0,0c0.3,0,0.3,0,0.7,0c0,0,0,0,0-0.3C160.8,2.4,160.1,2.1,159.8,2.4z
	 M158.8,2.1C158.8,2.1,158.8,2.4,158.8,2.1c0.3,0,0.3,0,0.7,0C159.1,2.1,158.8,2.1,158.8,2.1z M158.4,2.4L158.4,2.4L158.4,2.4z
	 M156.4,2.1L156.4,2.1C156.4,2.4,156.4,2.4,156.4,2.1C156.4,2.4,156.4,2.4,156.4,2.1C156.4,2.4,156.4,2.4,156.4,2.1
	C156.4,2.4,156.7,2.1,156.4,2.1L156.4,2.1c0.3,0.3,0.3,0.3,0.7,0.3C157,2.4,157,2.4,156.4,2.1c0.3,0,0.3,0,0.7,0
	C156.7,2.1,156.7,2.1,156.4,2.1C156.7,2.1,156.7,2.1,156.4,2.1L156.4,2.1z M143,2.4L143,2.4L143,2.4L143,2.4L143,2.4
	c0.3,0,0.3,0,0.7,0.3c0,0,0,0,0.3,0l0,0c0,0,0,0,0.3,0c0,0,0,0-0.3,0c0,0,0,0,0,0.3C143.3,2.1,143.3,2.1,143,2.4
	C143,2.1,143,2.1,143,2.4z M141.6,2.4L141.6,2.4L141.6,2.4z M140.5,2.4c0.3,0,0.3,0,0.7,0l0,0C140.9,2.1,140.9,2.1,140.5,2.4z
	 M138.5,2.1C138.5,2.1,138.5,2.4,138.5,2.1c0.3,0.3,0.3,0.3,0.7,0.3l0,0c0.3,0,0.3,0,0.7,0C139.9,2.1,139.2,2.4,138.5,2.1z
	 M138.1,2.4L138.1,2.4C137.8,2.4,137.8,2.4,138.1,2.4C138.1,2.4,138.5,2.4,138.1,2.4L138.1,2.4z M135.7,2.7
	C136.1,2.7,135.7,2.7,135.7,2.7c0.3,0,0.3,0,0.7,0C136.4,2.4,136.1,2.7,135.7,2.7z M132.6,2.7c0.3,0,0.7,0,1,0c0.3,0,0.3,0,0.7,0
	c0.3-0.3,0-0.7-0.3-0.3v0.3c0,0-0.3,0-0.3-0.3C133.3,2.4,133.3,2.4,132.6,2.7z M130.9,2.7c-0.3-0.3-0.3,0-0.7-0.3
	C129.9,2.7,130.6,2.7,130.9,2.7z M128.9,1.4C129.2,1.4,129.2,1.4,128.9,1.4c0.3,0,0.7,0,0.7,0V1C129.2,1.4,129.2,1.4,128.9,1.4z
	 M127.8,2.1c0.3-0.3,0.3-0.3,0.7,0c0,0,0-0.3-0.3-0.3C128.2,1.7,127.5,1.7,127.8,2.1z M125.4,2.1c0.3,0,1,0,1.4,0
	C126.5,1.7,125.8,2.1,125.4,2.1z M124.7,2.4c0,0.3,1,0,1.4,0c0,0.3,0,0.3,0,0.3c0.3-0.3,0.3,0,0.7-0.3c0,0,0,0,0,0.3
	c0.3,0,1-0.3,1.4-0.3c0,0-0.3-0.3-0.7-0.3c-0.3,0-0.3,0.3-0.3,0.3c-0.3-0.3,0.7-0.3,0-0.7c0,0.3-0.7,0.3-0.3,0.7
	c-0.3,0-0.3-0.3-0.7,0C126.1,2.4,125.1,2.4,124.7,2.4z M114.8,2.7L114.8,2.7L114.8,2.7L114.8,2.7z M106.5,3.1c0.3,0.3,0.3,0,0.7,0
	C107.2,2.7,106.9,3.1,106.5,3.1z M104.8,3.1c0.3,0.3,1,0,1.4-0.3c-0.3,0-0.3-0.3-0.7-0.3c0-0.3,0.3-0.3,0.3-0.7
	C105.2,2.1,105.5,2.7,104.8,3.1z M103.8,3.1c0.3,0,0.7,0.3,1,0C104.5,2.7,104.1,3.1,103.8,3.1z M103.8,2.7c0,0.3,0.7,0.3,0.7,0
	S104.1,2.7,103.8,2.7z M93.8,2.4L93.8,2.4c0,0.3,0.3,0,0.7,0.3c0.3,0,0.3-0.3,0.3-0.3C94.5,2.4,94.2,2.7,93.8,2.4z M92.8,2.1
	C93.1,2.1,92.8,1.7,92.8,2.1c0.7-0.3,0.3,0,0.7,0c0.3,0,0.3-0.3,0.7-0.3C93.8,1.4,93.1,1.7,92.8,2.1C92.4,1.7,92.4,2.1,92.8,2.1z
	 M91.1,2.4c0.3,0.3,0.3,0,0.7,0c0,0-0.3-0.3,0-0.3C91.4,2.1,91.4,2.4,91.1,2.4z M89.3,2.4c0.7,0,1,0,1.7,0C90.7,2.4,90,2.4,89.3,2.4
	C89.7,2.4,89.3,2.4,89.3,2.4z M88.3,2.4c0,0.3,0.7,0.3,0.7,0.3s0,0,0-0.3C89,2.1,88.7,2.4,88.3,2.4z M86.9,2.1c0,0.3,0.7,0.3,1,0.3
	c0.3-0.3,0,0-0.3-0.3c0.3-0.3,0.3,0,0.7-0.3C87.6,1.7,87.3,2.1,86.9,2.1z M85.6,2.4c0.3,0,0.3-0.3,0.7,0c0-0.3,0.7-0.3,0.3-0.7
	C86.3,1.7,85.9,2.4,85.6,2.4C85.2,2.4,85.6,2.4,85.6,2.4z M82.5,4.1c0.3,0,0.3,0,0.7,0C82.8,3.8,82.5,4.1,82.5,4.1z M78.4,3.8
	c0.3,0.3,0.7,0,0.7,0C78.7,3.8,78.4,3.4,78.4,3.8z M76.6,3.8c0,0.3,1,0,1.4,0C77.7,3.8,77.3,3.8,76.6,3.8z M75.9,3.8
	c0.3,0.3,0.7,0,1-0.3C76.3,3.4,76.3,3.8,75.9,3.8z M74.2,3.8c0.3,0,1,0,1.4-0.3c-0.3-0.3-0.7,0-0.7,0C74.6,3.4,74.2,3.8,74.2,3.8z
	 M70.1,3.4c0.3,0,0.3,0,0.7,0C70.4,3.1,70.4,3.4,70.1,3.4L70.1,3.4z M65.6,3.1c0.3,0.3,1.4,0,2.1,0.3C67.4,2.7,66,3.1,65.6,3.1z
	 M63.6,3.1c0.3,0.3,0.7,0,1,0.3c0.3-0.3,0.3,0,0.7-0.3h-0.3C64.6,3.1,63.9,3.1,63.6,3.1z M63.2,3.1L63.2,3.1L63.2,3.1L63.2,3.1
	c-0.3,0.3-0.3,0.3,0,0.7C63.6,3.4,63.6,3.1,63.2,3.1z M62.2,4.5c0.3,0,0.3,0,0.7,0l0,0C62.5,4.5,62.2,4.5,62.2,4.5z M60.1,3.1
	c0.3,0,1,0,1.4,0c-0.3-0.3-0.3,0-0.7,0s0.7-0.3,0-0.3C60.5,2.7,60.1,2.7,60.1,3.1z M57.4,2.1c0.3,0,1,0,1.4,0
	C58.1,2.1,57.7,2.1,57.4,2.1z M57,3.4c0.3,0,0.3,0.3,0.7,0.3c0,0,0,0,0-0.3C57.4,3.1,57.4,3.1,57,3.4z M54.6,3.4
	C55,3.8,55,3.8,55.3,3.8C55.7,3.4,55,3.4,55,3.4c0.3-0.3,0.7,0,1,0c0,0,0-0.3,0.3-0.3C56,3.1,55.3,3.1,54.6,3.4z M54.6,3.4L54.6,3.4
	L54.6,3.4z M54.3,3.8L54.3,3.8L54.3,3.8z M53.3,4.1c0.3,0,0.3,0.3,0.7,0.3l0,0c0.7,0,1.4,0.7,1,0c0,0,0,0.3,0.3,0.3h0.3l0,0
	c0.3,0,0.3,0,0.7,0l0.3,0.3c-0.3-0.3-0.3,0-0.3,0h0.3c0,0,0.3-0.3,0-0.3c0,0,0.7,0.3,1,0.3c0,0,0,0,0.3,0l0,0h0.3l-0.3-0.3
	c-0.3,0-0.7,0-1,0l0,0l0,0c0,0,0,0,0.3,0s0.7,0,1,0l0,0h0.3c0.3,0,0.3,0,0.3-0.3c-0.7,0-1.4-0.3-2.1,0.3c-0.3-0.3-0.7-0.3-1-0.3l0,0
	l0,0c-0.3,0-0.7,0-1-0.3c0,0,0.3,0,0.3-0.3C55,3.8,55,3.4,55,3.4s-0.3,0.3,0,0.3h-0.3l0,0C54,4.1,53.6,4.1,53.3,4.1z M51.9,2.7
	c0.3,0,0.7,0.3,0.7,0C52.9,2.7,51.9,2.4,51.9,2.7z M51.2,3.1c0.3,0,0.3,0,0.7,0C51.5,3.1,51.5,2.7,51.2,3.1
	C50.9,2.4,51.2,2.7,51.2,3.1z M49.5,2.7c0.3,0.3,0.7,0,0.7,0.3c0.3-0.3,0-0.3,0.7-0.7C50.5,2.1,50.2,2.7,49.5,2.7z M48.8,3.8
	c0.3,0,0.7,0,0.7-0.3l0,0l0,0C49.1,3.4,49.1,3.4,48.8,3.8z M47.1,3.4c0.3,0,0.7,0,0.7,0C47.8,3.1,47.4,3.1,47.1,3.4
	C47.1,3.1,47.1,3.1,47.1,3.4z M43,2.7L43,2.7c0.3,0,0.3,0,0.3,0C43,2.7,43,2.7,43,2.7z M42.3,2.7c0,0.3,0.7,0.3,0.7,0.3
	S42.3,2.7,42.3,2.7z M41.6,3.1h-0.3l0,0C41.2,3.1,41.2,3.1,41.6,3.1L41.6,3.1z M39.2,3.4C39.2,3.4,39.2,3.8,39.2,3.4
	C39.5,3.8,39.5,3.8,39.2,3.4C39.5,3.8,39.5,3.8,39.2,3.4c0.3,0.3,0.3,0.3,0.7,0.3h0.3c0,0,0,0-0.3,0c0.3,0,0.7,0.3,1,0.3
	c0.3-0.3-0.3-0.3-0.3-0.3c0.7,0,2.1,0.7,2.4,1c-0.7,0.3-1.4-0.7-2.1-0.7v0.3c-0.3,0-0.7-0.3-0.3-0.3c-0.3,0.3-0.7,0-1,0
	c0,0,0,0-0.3,0l0.3,0.3c0.3,0,0.7,0,0.7,0c0.7,0.7,2.1,0.7,3.4,0.7c-0.3-0.3-0.7-0.7-1-1c0.3,0,0.3,0,0.3,0s-0.3-0.3,0-0.3
	c0,0.3,0.3,0.3,0.3,0.3s0,0,0.3,0c-0.3,0-0.3,0-0.3-0.3c0.3,0.3,1,0,1.4,0c0,0,0,0.3-0.3,0.3c0.3,0,0.7,0,1,0c1,0.3,0.7,0,1.4,0.3
	c-0.3,0,0,0.3,0,0.3c0.3,0,0.3,0,0.7,0c0.3-0.3-0.3-0.3-0.3-0.3c0-0.3,1,0,1,0.3l0,0c0.3,0,0.3,0,0.7,0c0,0,0.3,0,0.3-0.3
	c0.3,0,1.4,0.3,1.7,0.3c0.3-0.3-0.3-0.7-0.7-0.7c0,0,0,0-0.3,0c-1,0-2.1-0.3-2.7,0c-0.3,0,0-0.3-0.7-0.3H46c-0.3,0,0,0.3-0.3,0.3
	c-0.3-0.3-2.1-0.3-2.4,0c-0.3,0,0.3-0.3,0-0.3H43c-0.3,0.3-0.3,0-0.7,0c0,0,0,0,0,0.3c-0.3-0.3-0.3,0-0.7-0.3l0,0h-0.3l0,0
	c0.3,0,0.3,0,0.3,0c-0.3,0-0.7,0-0.7,0.3c0.3-0.3-0.7,0-0.7-0.3C40.2,3.4,39.5,3.4,39.2,3.4z M37.8,3.1c0.3,0,0.3,0,0.7,0
	C38.1,3.1,38.1,3.1,37.8,3.1C37.8,3.1,38.1,3.1,37.8,3.1C37.8,2.7,37.8,3.1,37.8,3.1z M37.5,3.1L37.5,3.1c0.3,0,0.3,0.3,0.3,0.3
	S37.5,3.4,37.5,3.1c-0.3,0-0.3,0-0.3,0c-0.3,0-0.7,0-1,0c0.3,0.3,0.7,0.3,1.4,0.7c0.3,0,1-0.3,1.4-0.3C38.5,3.4,38.1,3.4,37.5,3.1z
	 M26.5,6.2L26.5,6.2L26.5,6.2z M24.4,6.9C24.4,6.9,24.7,6.9,24.4,6.9C24.7,6.9,24.4,6.9,24.4,6.9z M24.1,6.9L24.1,6.9
	C24.4,6.9,24.4,6.9,24.1,6.9L24.1,6.9z M22.3,6.5L22.3,6.5L22.3,6.5z M22.3,6.2C22,6.2,22,6.2,22.3,6.2c-0.3,0-0.7,0-0.7,0
	C21.3,6.2,22,6.5,22.3,6.2z M21.3,6.2C21.3,6.5,21,6.5,21.3,6.2L21.3,6.2c0,0,0.3,0,0.7,0C21.6,6.5,21.3,6.5,21.3,6.2z M19.9,6.2
	L19.9,6.2L19.9,6.2L19.9,6.2z M17.9,6.9L17.9,6.9L17.9,6.9L17.9,6.9z M17.2,6.5C17.2,6.9,16.8,6.9,17.2,6.5
	C16.8,6.9,16.8,6.9,17.2,6.5C17.2,7.2,17.2,6.9,17.2,6.5C17.5,6.9,17.5,6.9,17.2,6.5C17.5,6.9,17.5,6.9,17.2,6.5
	C17.5,6.5,17.2,6.5,17.2,6.5z M13.7,6.9L13.7,6.9L13.7,6.9L13.7,6.9h-0.7c0,0-0.3,0-0.3,0.3C12.7,6.9,13.1,6.9,13.7,6.9
	C13.7,6.9,13.4,6.9,13.7,6.9z M26.5,16.5c0.3,0,0.7,0,0.7,0.3c-0.7-0.3-1-0.7-1.7-0.7C25.8,16.2,26.1,16.5,26.5,16.5z M25.4,16.8
	c0.3-0.3,0.7,0,1,0C26.1,16.5,26.1,16.5,25.4,16.8C25.8,16.5,25.4,16.5,25.4,16.8z M23,18.2c0.3,0,0.3,0,0.7-0.3
	c-0.3,0-0.3,0-0.7-0.3C22.7,17.9,23,17.9,23,18.2z M27.1,21.3c0,0-0.3-0.3-0.7,0C26.5,21.6,26.8,21.3,27.1,21.3z M39.5,22.7
	c-0.3,0-0.7-0.3-1,0C39.2,23,39.5,23,39.5,22.7z M42.3,22.7c-0.3-0.3-0.7,0-1-0.3C41.2,22.7,41.9,22.7,42.3,22.7z M46.7,23
	c-0.3,0-0.7-0.3-1,0C46,23,46.4,23,46.7,23z M49.1,22.3c-0.3,0-0.7,0-0.7,0.3C48.8,22.7,49.1,22.7,49.1,22.3z M61.9,24.4
	c-0.3-0.3-0.3,0-0.7,0c0.3,0,0-0.3,0-0.3l0,0c0,0,0,0-0.3,0l0,0c-0.3,0-1,0-0.3,0.3c-0.3,0.3-1,0-0.7,0.3c0.3,0,0.7,0,1,0.3
	C61.2,24.4,61.5,24.7,61.9,24.4z M62.2,24.1L62.2,24.1C62.2,24.1,61.9,24.1,62.2,24.1c-0.3,0-0.3,0-0.3,0S62.2,24.4,62.2,24.1z
	 M63.2,24.4c-0.3,0-0.3,0-0.7,0C62.9,24.7,62.9,24.4,63.2,24.4z M67,24.4L67,24.4c-0.3,0-0.3,0-0.7,0l0,0
	C66.7,24.7,66.7,24.7,67,24.4z M70.1,25.1L70.1,25.1c0-0.3-0.3-0.3-0.3-0.3S69.8,25.1,70.1,25.1z M75.9,24.4c-0.3,0-0.3,0-0.7,0
	C75.3,24.4,75.6,24.4,75.9,24.4z M80.4,24.4L80.4,24.4c-0.3,0-0.7,0-1,0l0,0C79.7,24.7,80.1,24.7,80.4,24.4z M220.6,24.4L220.6,24.4
	c-0.3,0-0.7,0-1,0l0,0C219.9,24.7,220.3,24.7,220.6,24.4z M224.7,24.4c-0.3,0-0.3,0-0.7,0C224.4,24.4,224.4,24.4,224.7,24.4z
	 M230.6,24.7c-0.3,0-0.3,0-0.7,0l0,0C230.2,25.1,230.2,24.7,230.6,24.7z M233.7,24.7C233.7,24.4,233.3,24.4,233.7,24.7
	C233.3,24.4,233.3,24.4,233.7,24.7c-0.3-0.3-0.3-0.3-0.7-0.3C233,24.7,233.3,24.7,233.7,24.7z M237.5,24.4c-0.3-0.3-0.3-0.3-0.7,0
	C237.1,24.4,237.1,24.7,237.5,24.4z M238.1,24.1L238.1,24.1L238.1,24.1L238.1,24.1C237.8,24.4,237.8,24.1,238.1,24.1z M238.5,24.1
	C238.8,24.1,238.8,24.1,238.5,24.1C238.8,24.1,238.8,24.1,238.5,24.1L238.5,24.1C238.5,24.1,238.1,24.4,238.5,24.1
	c-0.3,0.3-0.3,0.3-0.7,0.3c0.3,0.3,0.7,0,0.7,0.3c0.3-0.3,0.7,0,1-0.3c0-0.3-0.7,0-0.7-0.3C239.5,24.1,238.8,24.1,238.5,24.1z
	 M251.5,22.7c0-0.3-0.3-0.3-0.7-0.3C250.5,22.7,251.2,22.7,251.5,22.7z M254.3,23c-0.3-0.3-0.7,0-1,0C253.6,23,254,23,254.3,23z
	 M258.8,22.3c-0.3,0-0.7,0-1,0.3C258.1,22.7,258.8,22.7,258.8,22.3z M261.2,22.7c-0.3-0.3-0.7,0-1,0C260.1,23,260.8,23,261.2,22.7z
	 M273.5,21.3c-0.3-0.3-0.7,0-0.7,0C273.2,21.3,273.2,21.6,273.5,21.3z M277,17.5c-0.3,0.3-0.3,0-0.7,0.3c0,0.3,0.3,0,0.7,0.3
	C277,17.9,277.3,17.9,277,17.5z M274.2,16.5c0,0-0.3,0-0.7,0C273.5,16.8,274.2,16.5,274.2,16.5C274.6,16.5,274.2,16.5,274.2,16.5z
	 M274.2,16.2c-0.7,0-1,0.3-1.7,0.7c0.3,0,0.3,0,0.7-0.3C273.9,16.5,274.2,16.2,274.2,16.2z M287.3,6.9L287.3,6.9c-0.3,0-0.3,0-0.7,0
	l0,0l0,0c-0.3,0-0.3,0-0.3,0s0,0,0,0.3C286.6,6.9,286.9,6.9,287.3,6.9z M293.1,10c-0.3-0.3-0.7,0-0.7,0.3
	C292.8,10.3,293.1,10.3,293.1,10z M15.5,19.6c-0.3,0-0.7,0-0.7,0.3C15.1,19.6,15.1,19.6,15.5,19.6z M18.2,19.6c-0.3,0-0.7,0-1,0
	C17.5,19.6,18.2,19.9,18.2,19.6z M217.9,1c0.3,0,0.7,0,1,0C218.6,1,217.9,1,217.9,1z M215.1,1.4c-0.3,0-0.7-0.3-0.7-0.3
	C214.1,1.4,214.4,1.7,215.1,1.4z M221.3,2.4C221.3,2.1,221.6,2.1,221.3,2.4c0,0-0.3-0.3-0.7-0.3c0,0,0.3,0,0.3-0.3
	c-0.7,0-1.7,0-2.7,0C219.2,2.1,220.6,1.7,221.3,2.4z M214.1,0.7c-0.3,0-0.3,0-0.7-0.3c0,0.3-0.7,0-0.3,0.3
	C213.4,0.7,214.1,1,214.1,0.7z M166.7,1.4c-0.3-0.3-0.7,0-1.4-0.3l-0.3,0.3C165.6,1,166,1.7,166.7,1.4z M223.4,1.7
	c0.3-0.3,1,0,1.4,0c-0.3-0.3-0.7,0-0.7-0.3l0.3-0.3c-0.7,0-1,0-1.7,0c-0.3,0.3-0.7,0-1.4,0v0.3C221.6,2.1,223,1.4,223.4,1.7z
	 M179,1.4c0.3,0,1-0.3,1.4,0.3c0.3-0.3,0.7,0,1,0c0,0-0.3-0.3,0-0.3c0,0,0.3,0,0,0c-0.3,0-0.7,0-0.7-0.3c-0.3,0,0,0.3-0.3,0.3
	C179.7,1,179.4,1.4,179,1.4C179.4,1,178.7,1,179,1.4z M178.7,0.7C178.7,0.7,179,0.7,178.7,0.7c0-0.3,0-0.3,0-0.7
	C178.4,0.7,178.7,0.7,178.7,0.7z M225.8,0.7C225.1,1.4,224.1,1,223,1C223.4,1,225.8,1,225.8,0.7z M299.3,19.9
	C299,19.9,299.3,20.3,299.3,19.9c-0.7,0-1,0.3-1.4,0c0,0,1,0,0.7-0.3c-0.3,0.3-1,0-2.1,0.3c-0.3,0-0.3-0.3-0.7,0
	c-0.3,0-0.7-0.3-1-0.3c0.3,0.3,0.7,0.3,0.7,0.7c0.3,0,0.3-0.3,0.7-0.3c0,0,0,0,0,0.3c0.3-0.3,0.3-0.3,0.7,0
	C297.6,19.9,298.6,20.3,299.3,19.9c0.7,1-0.3,0,0.7,0C299.7,19.9,299.3,19.9,299.3,19.9z M257.4,2.1c-0.3-0.3-0.7,0-1,0
	C256.7,2.1,257,2.1,257.4,2.1z M181.4,0.7C181.4,0.7,181.8,0.7,181.4,0.7c0-0.7,0-0.3,0.3-0.7c-0.3,0-0.3,0-0.7,0
	C181.4,0.3,181.1,0.7,181.4,0.7z M156.7,1.4c-0.3,0-0.7,0-1,0C155.7,1.7,156.7,1.4,156.7,1.4z M224.4,1.4c0.3,0,1,0,1.4,0.3
	c0.3-0.3,1,0,1.4-0.3c-0.3,0-0.7,0-1,0C225.8,1,224.4,1.4,224.4,1.4z M270.4,2.7C270.4,2.7,270.8,2.7,270.4,2.7
	C270.8,2.7,271.1,2.7,270.4,2.7C270.4,2.4,270.4,2.4,270.4,2.7L270.4,2.7z M235.4,2.7C235.7,2.7,235.7,2.7,235.4,2.7
	c0.7,0,0.3,0,0.7-0.3c-0.3,0-0.3,0-0.3-0.3C235.7,2.4,235.1,2.1,235.4,2.7C235.7,2.4,235.7,2.4,235.4,2.7z M201.7,1.4
	C201.7,1.4,202.1,1.4,201.7,1.4c0.3-0.3,0.3-0.7,0-0.7c0.3,0.3-0.3,0-0.7,0C201.4,1.4,201.4,1.4,201.7,1.4z M196.9,1.4
	C197.3,1.4,197.3,1.7,196.9,1.4c0.3,0,0.3,0,0.7,0C197.6,1.4,197.3,1.4,196.9,1.4C197.3,1.4,196.9,1.4,196.9,1.4z M199.7,1.4
	c-0.3,0.3-0.7,0-1.4,0.3c0.3,0.3,0.7,0,1,0.3C199.3,1.7,199.7,1.7,199.7,1.4z M197.9,1.7C198.3,1.7,198.3,1.4,197.9,1.7L197.9,1.7
	L197.9,1.7z M200.7,1.7c-0.3-0.3-0.3,0-0.7-0.3c0,0-0.3,0-0.3,0.3C200.3,1.7,200.7,1.7,200.7,1.7z M213.7,1.4c-0.3,0-0.7,0-0.7-0.3
	c-0.7,0,0,0.3-0.3,0.3c-0.3-0.3-1,0.3-1-0.3c-0.3,0.3-0.7,0-1,0.3C211.7,1.4,213.1,1.4,213.7,1.4z M270.1,26.8c-0.3,0-0.3,0-0.7,0
	C269.4,26.8,269.8,26.8,270.1,26.8z M204.8,1C204.8,1,204.8,1.4,204.8,1c-0.3,0.7,0,0.7,0.3,0.7C205.2,1.4,204.8,1.7,204.8,1
	c0.3,0,0.3,0.7,0.7,0.3c-0.3-0.3,0-0.3,0-0.7c-0.3,0.3-0.7,0.3-1.4,0c-0.3,0.3-0.3,0-0.7,0.3C204.1,1.4,204.5,0.7,204.8,1z M201,1.4
	C200.7,1,200.7,1.4,201,1.4C200.7,1,200.7,1,201,1.4c-0.3-0.3-0.7-0.3-0.7,0C200.7,1.4,200.7,1.4,201,1.4L201,1.4z M189,1.4
	C189,1.4,188.7,1.4,189,1.4c-0.3-0.3-0.7-0.3-0.7,0C188.3,1.4,188.7,1.4,189,1.4z M185.9,1.7c0.3,0,0.7,0,1,0
	C186.6,1.4,186.6,1.7,185.9,1.7C186.3,1.7,186.3,1.4,185.9,1.7C186.6,1.4,185.6,1.4,185.9,1.7z M185.9,0.7
	C185.6,0.7,185.9,0.3,185.9,0.7c-0.3-0.3-0.7-0.3-0.7,0C185.6,0.7,185.6,1,185.9,0.7z M183.8,1.7c0.3-0.3,0.7-0.3,0.7-0.7
	C183.8,1,183.8,1.4,183.8,1.7c-0.7-0.3-0.7-0.3-0.7-0.7c-0.3,0.3-1.4,0.3-1,0.7C182.8,1.7,183.2,1.4,183.8,1.7z M183.8,1
	c-0.3-0.3-1,0-1,0S183.2,1,183.8,1z M190.4,1c-0.3,0-0.7-0.3-1,0c0,0,0,0,0.3,0.3C189.7,1,190,1.7,190.4,1z M196.2,1.4
	c-0.3,0-0.3-0.3-0.7-0.3c0,0-0.7,0-0.3,0.3C195.5,1,195.5,1.4,196.2,1.4z M196.9,1c-0.3,0-0.7,0-1,0.3C196.2,1.4,197.3,1,196.9,1z
	 M191.8,1.4C192.1,1.4,192.1,1,191.8,1.4c-0.3,0-0.3-0.3-0.7,0C191.4,1.4,191.4,1.4,191.8,1.4z M210.7,1.4c-0.7,0-1.7-0.7-2.1,0
	C209.6,1.7,210,1.7,210.7,1.4z M294.5,20.3c-0.3-0.3-0.7,0-0.7,0S294.2,19.9,294.5,20.3z M289.7,21.3
	C289.3,21.6,289.7,21.6,289.7,21.3c0,0.3,0.7,0.7,1,0.3C290.4,21.6,289.7,22,289.7,21.3z M291.4,21c0.3,0,0.3,0.3,0.7,0
	C292.1,21,292.1,20.6,291.4,21C291.8,20.6,291.4,20.6,291.4,21z M294.2,20.6c0.3,0,0.3,0.3,0.7,0C294.8,20.6,294.5,21,294.2,20.6z
	 M292.8,19.9c-0.3,0.3-0.3,0-0.7,0.3C292.1,20.3,292.8,20.3,292.8,19.9C292.8,20.3,292.8,19.9,292.8,19.9z M44.3,2.4
	c-0.3,0-0.7-0.3-1,0C43.6,2.4,44.7,2.4,44.3,2.4z M264.3,26.8c1,0,2.1,0,3.1,0c-0.3-0.3-1.4,0.3-1.7-0.3
	C265.3,26.8,264.9,26.8,264.3,26.8C264.6,26.8,264.3,26.5,264.3,26.8z M260.8,26.5C260.8,26.5,260.5,26.5,260.8,26.5
	C260.5,26.5,260.5,26.5,260.8,26.5z M260.8,26.5L260.8,26.5L260.8,26.5z M285.2,21.3C285.6,21.3,285.6,21.6,285.2,21.3
	c0.3,0,0.3,0,0.7,0C285.9,21,285.2,21.3,285.2,21.3z M277,25.4C276.6,25.4,276.6,25.4,277,25.4c-0.7,0-0.7,0-0.7,0
	c-0.3,0.3-0.7,0-0.7,0c0.3,0.3,1,0,1,0.7C276.6,25.8,277,25.8,277,25.4c0.3,0.3,0.7,0.7,0.7,0.7s0,0,0.3,0c0,0,0-0.3-0.3-0.3
	C277.3,25.4,277,25.4,277,25.4z M253.6,26.8c-0.7,0-1.4,0-1.7,0C252.2,26.8,253.3,26.8,253.6,26.8z M258.1,26.8c0.3,0.3,0.7,0,1,0
	C258.4,26.8,258.1,26.8,258.1,26.8z M138.5,1.7c-0.3-0.3-0.7,0-0.7,0S138.1,2.1,138.5,1.7z M281.8,25.4
	C281.8,25.8,282.1,25.4,281.8,25.4c0.3,0.3,0.7,0.3,0.7,0C282.5,25.4,282.1,25.4,281.8,25.4z M280.8,25.8c0.3,0,0.3-0.3,0.7-0.3
	c0,0-0.3,0-0.3-0.3C280.8,25.4,280.8,25.8,280.8,25.8z M53.3,1c-0.7,0-1.4-0.3-1.7,0C52.2,1,52.9,1,53.3,1z M286.3,21.3
	c0,0.3,0.7,0.3,0.7,0C286.9,21.3,286.6,21,286.3,21.3z M278,25.4c0.3,0,0.7,0.3,0.7,0C278.7,25.4,278.4,25.4,278,25.4z M254.3,24.1
	c-0.3-0.7-1,0-1.7,0C252.9,24.1,253.6,23.7,254.3,24.1C254,24.1,254,24.1,254.3,24.1z M255.3,23.7c-0.3,0.3-0.7,0-0.7,0.3
	C255,24.1,255.3,24.1,255.3,23.7C255.3,23.7,255.7,23.7,255.3,23.7z M259.1,23.7c-0.3,0-1,0-1,0.3C258.4,23.7,259.1,24.1,259.1,23.7
	z M252.2,24.1C251.9,24.1,251.9,23.7,252.2,24.1c-0.7,0-0.7-0.3-1,0c0.3,0.3,0.7,0,0.7,0.3C251.9,24.1,252.2,24.1,252.2,24.1z
	 M242.3,23.7C241.9,23.7,241.9,24.1,242.3,23.7c-0.3,0-0.3,0-0.7,0s0,0.3-0.3,0.3h-0.3c0,0,0.3-0.3,0-0.3c-0.3,0-0.3,0-0.7,0
	c0.3,0.3,0.3,0.3,1,0.3C241.6,23.7,241.9,23.7,242.3,23.7c0.3,0,1.4,0.3,1.4,0C243.3,23.7,242.6,24.1,242.3,23.7z M256,24.1
	c0.3,0.3,0.7,0,0.7-0.3C256.4,23.4,256,23.7,256,24.1z M242.6,24.4c0.3-0.3,0.7,0,1.4,0C243.3,24.1,243,24.4,242.6,24.4
	C242.6,24.4,242.3,24.1,242.6,24.4z M249.8,24.4c0.3,0.3,0.7-0.3,1-0.3c-0.3-0.3-0.7,0-0.7-0.3C249.8,23.7,250.5,24.1,249.8,24.4z
	 M244.7,24.4c0.3,0,0.3,0,0.7,0c0.3-0.3,0-0.3,0-0.7c-0.3,0.3-0.3,0-0.7,0C244.7,24.1,245,23.7,244.7,24.4
	C245,24.4,244.7,24.1,244.7,24.4z M282.5,19.6c-0.3-0.3-0.7,0-1,0C281.8,19.9,282.1,19.6,282.5,19.6z M272.2,22.3L272.2,22.3
	C272.2,22.3,272.2,22.7,272.2,22.3C272.5,22.7,272.2,22.7,272.2,22.3z M265.3,24.1C265.6,24.1,265.6,23.7,265.3,24.1
	c-0.3,0-0.3-0.3-0.7-0.3C264.6,24.1,264.9,23.7,265.3,24.1z M55,1C55,1,55,0.7,55,1c-0.3,0-0.7,0-0.7,0C54.6,1,55.3,1,55,1z
	 M284.5,19.6c0.3,0.3,0.3,0.3,0.7,0.3C285.2,19.2,284.9,19.2,284.5,19.6z M264.3,25.1c0.3,0,0.7,0.3,0.7,0
	C264.9,25.1,264.3,24.7,264.3,25.1z M258.1,25.1C258.4,25.1,258.1,24.7,258.1,25.1c0.3-0.3,0.3,0,0.7,0
	C258.8,24.7,258.4,25.1,258.1,25.1c-0.3-0.3-1-0.3-1.4-0.3v0.3C257,24.7,257.7,24.7,258.1,25.1z M259.8,24.1c0.3,0,0.3,0,0.7-0.3
	c0,0,0-0.3-0.3-0.3c0,0.3-0.7,0-0.3,0C259.8,23.4,260.5,23.4,259.8,24.1C260.1,24.1,259.5,24.1,259.8,24.1z M262.9,23.7L262.9,23.7
	c0.3,0,0.3,0,0.7,0C263.6,23.7,263.6,23.4,262.9,23.7C262.9,23.7,262.5,23.7,262.9,23.7z"/>
</svg>
