<?xml version="1.0" encoding="utf-8"?>
<!-- Generator: Adobe Illustrator 23.0.3, SVG Export Plug-In . SVG Version: 6.00 Build 0)  -->
<svg version="1.1" id="Layer_1" xmlns="http://www.w3.org/2000/svg" xmlns:xlink="http://www.w3.org/1999/xlink" x="0px" y="0px"
	 viewBox="0 0 300 27.1" style="enable-background:new 0 0 300 27.1;" xml:space="preserve">
<style type="text/css">
	.st0{fill:#3E50B4;}
</style>
<path class="st0" d="M139.2,15.7c-38.1-12-78.1-2.3-117.2-4.2c-0.7,0-0.7,1,0,1.3c39.1,2.3,78.8-7.2,117.2,4.2
	C139.5,17,139.5,15.7,139.2,15.7L139.2,15.7z M132.4,13.8c-16.6,1-32.5,7.5-49.1,9.1c-0.7,0-0.7,1.3,0,1.3
	c16.9-0.7,32.5-7.8,49.1-9.1C133,14.8,133,13.8,132.4,13.8L132.4,13.8z M115.1,10.5c-10.1,0.3-27,2-32.2,12.4
	c-0.3,0.7,0.7,1.3,1,0.7c4.9-9.8,21.5-11.1,31.2-11.7C115.8,11.5,115.8,10.5,115.1,10.5L115.1,10.5z M127.5,12.2
	C120-0.5,101.1,1.7,89.1,0.1c-1,0-0.7,1.3,0,1.3c12,1.6,29.6-0.7,37.4,11.4C127.1,13.5,127.8,12.8,127.5,12.2L127.5,12.2z M87.4,9.5
	c-5.2,0.7-10.1,3.3-15,5.5C65,19,57.8,22.2,49.7,24.5c-1,0.3-0.7,1.6,0.3,1.3c6.2-1.6,12-3.9,17.9-6.8c6.5-3.3,12.7-7.2,19.9-8.1
	C88.1,10.9,87.8,9.5,87.4,9.5L87.4,9.5z M70.2,10.5c-8.5,2.3-16.3,7.2-21.2,14.6c-0.7,0.7,0.7,1.3,1.3,0.7c4.6-7.2,12-11.7,20.2-14
	C71.2,11.5,71.2,10.2,70.2,10.5L70.2,10.5z M94.6,9.9c-9.8-5.5-21.2-9.8-32.5-9.1c-1,0-1,1.3,0,1.3C73.4,1.7,83.9,6,93.9,10.9
	C94.6,10.9,95.6,10.2,94.6,9.9L94.6,9.9z M83.9,9.5c-8.1-0.3-13.3-9.1-21.5-9.1c-0.7,0-0.7,1,0,1c8.1,1,13.3,8.8,21.5,9.1
	C84.2,10.9,84.2,9.5,83.9,9.5L83.9,9.5z M67.6,10.5c-5.9-2-10.7-6.2-16.3-8.1c-5.5-2-10.4-2.3-15.6-2c-0.7,0-0.7,1.3,0,1.3
	c6.8,0,12.7,0.7,18.9,3.6c4.2,2,8.1,4.9,12.7,6.5C67.9,11.8,67.9,10.9,67.6,10.5L67.6,10.5z M56.5,11.2C48.7,9.5,42.9,3.7,35.7,0.4
	c-0.7-0.3-1.3,0.7-0.7,1c6.8,3.9,13.3,9.1,21.2,10.7C56.8,12.2,57.2,11.2,56.5,11.2L56.5,11.2z M49,12.2
	c-6.5,5.9-14.3,8.8-22.8,10.7c-0.3,0.3-0.3,1.3,0.7,1c8.5-1.6,16.9-5.2,23.1-11.1C50.3,12.5,49.7,11.8,49,12.2L49,12.2z M43.2,11.5
	C36,11.8,30.5,18,26.3,22.9c-0.3,1,0,1.6,1,1c4.2-5.2,9.1-10.4,16.3-11.4C43.5,12.5,43.5,11.5,43.2,11.5L43.2,11.5z M38.9,11.5
	c-6.8-1-13-4.9-19.9-5.9C12.6,4.7,6.4,6,0.5,8.2c-0.7,0.3-0.3,1.6,0.3,1.3c7.5-2.6,15-3.6,22.8-1.6c5.2,1.3,10.1,4.2,15.6,4.9
	C39.3,12.8,39.9,11.8,38.9,11.5L38.9,11.5z M0.5,9.5c6.8,0.3,13.3,2.9,20.5,2.9c0.7,0,0.7-1,0-1C13.9,11.2,7.4,8.9,0.2,8.6
	C-0.1,8.2-0.1,9.2,0.5,9.5L0.5,9.5z M90.4,1.4c5.5,0.7,10.4,3.6,15.3,5.9c3.9,2,8.1,3.3,12,4.9c0.7,0.3,1-0.7,0.3-1
	c-4.9-2-9.8-3.9-14.6-6.2C99.2,3,94.9,0.8,90,0.4C89.4,0.4,89.4,1.4,90.4,1.4L90.4,1.4z M151.6,17c-0.3-0.3-1-0.3-1.3-0.7
	c-0.3-0.3-1-0.7-1.6-0.7c-0.3,0-0.7,0.7-0.3,1c0.3,0.3,1,0.3,1.3,0.7c0.3,0,1,0.3,1.3,0.3C151.2,17.7,151.2,17.4,151.6,17
	C151.6,17.4,151.6,17.4,151.6,17L151.6,17z M148,16.7c-0.3,2,2.9,2.9,3.6,1c0-0.7-0.7-1-1-0.3c-0.3,0.3-0.3,0.3-0.7,0.3
	c-0.3,0-0.7-0.3-0.7-1C149.3,16.1,148.3,16.1,148,16.7L148,16.7z M152.2,8.6c-2.3,0-4.2,0.7-6.2,1.6c-2.3,1-4.6,2-6.2,3.6
	c-0.3,0.7,0.3,1.3,0.7,0.7c3.3-2.6,7.5-4.9,11.7-5.2C152.9,9.5,152.9,8.6,152.2,8.6L152.2,8.6z M154.2,7.9c-1.6-3.3-6.5-2.9-9.4-2
	c-3.9,1-7.5,4.9-6.2,9.1c0.3,0.7,1.3,0.3,1-0.3c-1-3.9,2.3-6.8,5.9-7.8c2.3-0.7,6.2-1,7.8,1.6C153.8,8.9,154.5,8.6,154.2,7.9
	L154.2,7.9z M138.5,15.1c0,3.6-1.3,6.8,2,9.8c2.6,2,6.5,2.9,9.4,1.6c0.7-0.3,0.3-1.3-0.3-1c-2.9,1-6.2,0.3-8.8-2
	c-2.6-2-1.3-5.5-1.3-8.5C139.8,14.4,138.5,14.4,138.5,15.1L138.5,15.1z M153.8,8.6c2.3,1,4.6,1.3,5.5,4.2c1,2,0,4.6-1.3,6.2
	c-0.3,0.3,0,1.3,0.7,1c2.3-1.6,2.3-4.6,2-6.8c-0.3-1.3-1.3-2.6-2.3-3.6c-1.3-1.3-2.9-1.3-4.6-1.6C153.5,7.6,153.2,8.6,153.8,8.6
	L153.8,8.6z M158.4,19.3c1,2.3,0,4.2-2,5.5c-2,1.3-5.2,1-7.5,0.3c-0.7-0.3-1,1-0.3,1.3c2.6,0.7,6.5,1,8.8-1c2-1.6,2.9-4.2,1.6-6.5
	C159,18.3,158.4,19,158.4,19.3L158.4,19.3z M153.8,11.5c-4.2-1.6-9.1,3.6-11.4,6.2c-0.3,0.7,0.3,1.3,0.7,0.7
	c2.6-2.3,5.9-6.8,10.1-5.9C154.2,12.5,154.5,11.5,153.8,11.5L153.8,11.5z M146.3,10.5c-1,2.6-2,4.9-3.6,7.2c-0.3,0.7,0.3,1,1,0.7
	c2-2,2.9-4.9,3.9-7.2C147.7,10.2,146.7,9.9,146.3,10.5L146.3,10.5z M151.6,9.5c2.6,2.3,4.6,6.5,4.2,9.8c0,0.7,1,1,1.3,0.3
	c0.3-2-0.3-3.9-1-5.9c-0.7-1.6-2-4.2-3.6-5.2C151.6,8.6,150.9,9.2,151.6,9.5L151.6,9.5z M153.5,17.7c-2,1-5.5,1.6-6.5-1
	c-0.3-0.7-1.3-0.3-1,0.3c1.3,3.3,5.9,3.3,8.1,1.6C154.5,18.3,154.2,17.4,153.5,17.7L153.5,17.7z M138.9,15.1
	c2.6,2.6,5.9,4.2,9.1,6.2c2.3,1.6,6.2,4.9,8.8,4.9c0.7,0,0.7-1.3,0-1.3c-2.6,0-6.2-3.3-8.1-4.6c-2.9-2-6.2-3.6-8.8-5.9
	C139.2,13.8,138.5,14.8,138.9,15.1L138.9,15.1z M159.4,18c-3.3,1.6-6.8,2.3-10.4,2.9c-0.7,0-0.3,1.3,0.3,1c3.3-0.7,7.8-1,10.7-2.9
	C160.3,18.3,159.7,17.7,159.4,18L159.4,18z M149.9,12.8c0.7,0.7,1.3,1.6,2,2.6c1,1.3,1.6,2.9,2,4.6c0,0.7,1.3,0.7,1.3,0
	c0-2.3-1.3-3.9-2.3-5.9c-0.3-0.7-1.6-2.9-2.6-2.3C149.6,12.5,149.6,12.8,149.9,12.8L149.9,12.8z M151.9,14.1c-1.3,0-2.3,0.7-3.6,1.3
	c-1.6,1-3.3,1.3-5.2,2c-0.7,0.3-0.3,1.3,0.3,1c1.3-0.7,2.9-1,4.2-1.6c1.3-0.7,2.6-1.3,3.9-1.6C152.5,15.1,152.5,14.1,151.9,14.1
	L151.9,14.1z M139.8,16.1c2,4.2,6.5,8.5,11.4,7.8c1,0,0.3-1.3-0.3-1.3c-4.6,0.7-8.1-3.3-10.1-6.8C140.5,15.1,139.5,15.4,139.8,16.1
	L139.8,16.1z M161.3,16.7c38.4-11.4,77.8-2,117.2-4.2c0.7,0,0.7-1.3,0-1.3c-39.1,2.3-79.1-7.5-117.2,4.2
	C160.3,15.7,160.7,17,161.3,16.7L161.3,16.7z M167.5,14.8c16.6,1.3,32.5,8.5,49.1,9.1c0.7,0,0.7-1,0-1.3
	c-16.6-1.6-32.5-8.1-49.1-9.1C166.9,13.8,166.9,14.8,167.5,14.8L167.5,14.8z M185.1,11.5c9.8,0.7,26,2,31.2,11.7
	c0.3,0.7,1.6,0,1-0.7c-5.2-10.1-22.1-12-32.2-12.4C184.4,10.5,184.4,11.5,185.1,11.5L185.1,11.5z M173.4,12.8
	c7.8-12,25.4-9.8,37.4-11.4c0.7,0,1-1.3,0-1.3c-12,1.6-30.9-0.3-38.4,12C172.1,12.8,173,13.5,173.4,12.8L173.4,12.8z M212.4,10.9
	c6.5,1,12.4,4.2,18.2,7.2c6.2,3.3,12.7,5.9,19.5,7.8c1,0.3,1.3-1,0.3-1.3c-7.5-2-14.3-4.9-20.8-8.5c-5.2-2.9-10.7-5.5-16.6-6.5
	C211.8,9.5,211.4,10.9,212.4,10.9L212.4,10.9z M229.3,11.8c8.1,2,15.6,6.8,20.2,14c0.3,0.7,1.6,0,1.3-0.7
	c-4.9-7.5-12.7-12.4-21.2-14.6C228.7,10.2,228.4,11.5,229.3,11.8L229.3,11.8z M205.6,10.5c10.1-4.9,20.5-9.1,31.9-8.8
	c1,0,1-1.3,0-1.3c-11.4-0.7-22.8,3.9-32.5,9.1C204.3,10.2,205.3,10.9,205.6,10.5L205.6,10.5z M215.7,10.5c8.1-0.3,13.7-8.1,21.5-9.1
	c0.7,0,0.7-1,0-1c-8.1,0-13.3,8.5-21.5,9.1C215.3,9.5,215.3,10.9,215.7,10.5L215.7,10.5z M232.6,11.5c4.6-1.6,8.5-4.2,12.7-6.5
	c6.2-3.3,12-3.6,18.9-3.6c0.7,0,0.7-1,0-1.3c-5.5-0.3-10.4,0-15.6,2c-5.9,2-10.4,6.2-16.3,8.1C231.6,10.9,231.9,11.8,232.6,11.5
	L232.6,11.5z M243.3,12.2c7.8-1.6,14.3-6.8,21.2-10.7c0.7-0.3,0-1.3-0.7-1c-7.2,3.3-13,9.1-20.8,10.7
	C242.7,11.2,242.7,12.2,243.3,12.2L243.3,12.2z M249.8,13.1c6.5,5.9,14.6,9.4,23.1,11.1c0.7,0,1-1,0.3-1c-8.5-2-16.3-5.2-22.8-10.7
	C249.8,11.8,249.5,12.5,249.8,13.1L249.8,13.1z M256.4,12.5c7.2,1,11.7,6.2,16.3,11.4c0.7,0.7,1.6-0.3,1.3-1
	c-4.2-5.2-9.8-11.4-16.9-11.4C256.4,11.5,256,12.5,256.4,12.5L256.4,12.5z M260.9,12.5c5.5-0.7,10.4-3.3,15.6-4.9
	c7.5-2.3,15.6-0.7,22.8,1.6c0.7,0.3,1-1,0.3-1.3c-6.2-2.3-12-2.9-18.6-2.6c-7.2,0.7-13.3,4.9-20.2,5.9
	C260.3,11.8,260.3,12.8,260.9,12.5L260.9,12.5z M299.3,8.6c-7.2,0.3-13.7,2.6-20.8,2.9c-0.7,0-0.7,1,0,1c7.2-0.3,13.7-2.6,20.8-2.9
	C300,9.2,300,8.2,299.3,8.6L299.3,8.6z M209.8,0.4c-4.2,0.3-8.1,2-12,3.9c-5.2,2.6-10.7,4.6-15.9,6.8c-0.7,0.3-0.3,1.3,0.3,1
	c3.6-1.3,7.2-2.6,10.7-4.2c5.5-2.3,10.7-5.9,16.9-6.5C210.5,1.4,210.5,0.4,209.8,0.4L209.8,0.4z"/>
</svg>
