<?xml version="1.0" encoding="utf-8"?>
<!-- Generator: Adobe Illustrator 22.1.0, SVG Export Plug-In . SVG Version: 6.00 Build 0)  -->
<svg version="1.1" id="Layer_1" xmlns="http://www.w3.org/2000/svg" xmlns:xlink="http://www.w3.org/1999/xlink" x="0px" y="0px"
	 viewBox="0 0 77.3 20" style="enable-background:new 0 0 77.3 20;" xml:space="preserve">
<style type="text/css">
	.st0{fill:#4BAE4F;}
</style>
<path class="st0" d="M76.3,8.3c-0.8-0.6-1.6-0.8-2.6-0.8c-1.4,0-2.7,0.6-4,1.1c-0.7,0.3-1.4,0.5-2.2,0.8h-0.1c0.1,0,0.1,0,0.2-0.1
	c2.5-0.9,4.5-2.7,4-5.6c-0.4-2.3-2.5-3.6-4.6-3.8c-1.8-0.1-4.8,1.6-3.1,3.6l0,0c0.3,0.3,0.8,0,0.8-0.4c0-0.1,0.1-0.2,0.1-0.3
	c0-0.2-0.2-0.3-0.3-0.4l0,0c-0.3-1.2,1.9-1.6,2.6-1.6c1,0,2,0.5,2.7,1.2c1.3,1.3,1.2,3.4-0.1,4.6c-1.3,1.2-3.3,1.8-4.9,2.1
	C63.9,8.9,62.9,9,62,9c-0.5,0-0.9,0-1.4,0.1c-4.6,0-9.3,0-13.9,0c-10.2,0-20.4,0.1-30.6,0.2c-0.7-0.2-1.4-0.2-2.1-0.2
	c-1.1,0-2.1-0.1-3-0.2C9.3,8.6,7.3,8,6,6.8C4.8,5.6,4.6,3.5,6,2.2C6.7,1.5,7.6,1,8.7,1c0.7,0,2.9,0.3,2.6,1.6l0,0
	C11.1,2.6,11,2.8,11,3c0,0.1,0,0.2,0.1,0.3c-0.1,0.4,0.5,0.6,0.8,0.4l0,0c1.6-2-1.3-3.7-3.1-3.6C6.5,0.2,4.4,1.5,4,3.8
	C3.8,5.4,4.3,6.7,5.2,7.6C4.7,7.5,4.1,7.4,3.6,7.4c-1,0-1.8,0.2-2.6,0.8c-0.7,0.5-1.3,1.7-0.9,2.6c0.8,1.6,2.8,2,4.4,1.6
	c0.3-0.1,0.7-0.2,1-0.3c-1.2,1-1.9,2.4-1.6,4.2c0.4,2.3,2.5,3.6,4.6,3.8c1.8,0.1,4.8-1.6,3.1-3.6l0,0c-0.3-0.3-0.8,0-0.8,0.4
	c0,0.1-0.1,0.2-0.1,0.3c0,0.2,0.2,0.4,0.3,0.4l0,0c0.3,1.2-1.9,1.6-2.6,1.6c-1,0-2-0.5-2.7-1.2c-1.3-1.3-1.2-3.4,0.1-4.6
	s3.3-1.8,4.9-2.1c0.9-0.2,1.9-0.3,2.8-0.3c0.7-0.1,1.5,0,2.1-0.2C26.4,10.9,37.2,11,48,11c3.9,0,7.8,0,11.8,0
	c0.6,0.1,1.2,0.1,1.8,0.1c0.9,0.1,1.9,0.2,2.8,0.3c1.7,0.3,3.7,0.8,4.9,2.1c1.2,1.2,1.4,3.3,0.1,4.6c-0.7,0.7-1.7,1.2-2.7,1.2
	c-0.7,0-2.9-0.3-2.6-1.6l0,0c0.2,0,0.3-0.2,0.3-0.4c0-0.1,0-0.2-0.1-0.3c0.1-0.4-0.5-0.6-0.8-0.4l0,0c-1.6,2,1.3,3.7,3.1,3.6
	c2.2-0.1,4.3-1.5,4.6-3.8c0.5-2.7-1.3-4.4-3.5-5.4c0.4,0.1,0.8,0.2,1.1,0.3c1.1,0.5,2.2,1,3.5,1.3c1.7,0.4,3.6,0.1,4.4-1.6
	C77.6,10,77,8.8,76.3,8.3z M3.4,11.3c-0.5,0-1.2,0-1.6-0.3c-0.9-0.6-0.9-1.7,0-2.3C2.9,8,4.2,8.1,5.4,8.4c0.5,0.1,1,0.3,1.4,0.4
	C7.2,9,7.6,9.2,8,9.3c0.2,0.1,0.5,0.2,0.7,0.2C8.5,9.7,8.2,9.7,7.9,9.8C6.5,10.4,4.9,11.3,3.4,11.3z M65.6,10L65.6,10L65.6,10
	L65.6,10z M75.6,11.2c-0.5,0.3-1.1,0.3-1.6,0.3c-1.6,0-3.1-1-4.6-1.5c-0.3-0.1-0.7-0.3-1.1-0.4c1.2-0.4,2.4-0.8,3.6-1.1
	s2.5-0.4,3.6,0.3C76.5,9.5,76.5,10.6,75.6,11.2z"/>
</svg>
