<?xml version="1.0" encoding="utf-8"?>
<!-- Generator: Adobe Illustrator 23.0.3, SVG Export Plug-In . SVG Version: 6.00 Build 0)  -->
<svg version="1.1" id="Layer_1" xmlns="http://www.w3.org/2000/svg" xmlns:xlink="http://www.w3.org/1999/xlink" x="0px" y="0px"
	 viewBox="0 0 300 21.3" style="enable-background:new 0 0 300 21.3;" xml:space="preserve">
<style type="text/css">
	.st0{fill:#008184;}
</style>
<path class="st0" d="M201.4,10.6L201.4,10.6L201.4,10.6z M156.5,10.6c0,5.3,10.5,12.7,22.6,9.6c11.5-2.8,21.1-9.3,22.3-9.9
	c-1.2-0.6-10.5-6.5-22.3-9.6C167-2.4,156.5,5.4,156.5,10.6z M174.8,3.5c9,2.5,15.8,6.8,16.7,7.4l0,0l0,0c-0.9,0.3-8.1,5.3-16.7,7.4
	c-9,2.2-17-3.4-17-7.4C157.7,6.6,165.5,0.7,174.8,3.5z M202.7,10.6c0,0,1.9,0,3.7,1.5c1.9,1.5,1.5,4.6,1.5,4.6l0,0
	c0,0-0.3-3.1,1.5-4.6s3.7-1.5,3.7-1.5l0,0c0,0-1.9,0-3.7-1.5S208,4.4,208,4.4l0,0c0,0,0.3,3.1-1.5,4.6
	C204.5,10.6,202.7,10.6,202.7,10.6L202.7,10.6z M245.1,10.6c0,0,0,0-0.6,0.6s-1.5,0.6-3.7,0.3c-0.9,0-1.9-0.3-2.8-0.3
	c-1.2,0-2.2,0-3.1,0c-1.2,0-2.2,0.3-3.4,0.6s-1.5,0.9-1.5,0.9l0,0l0,0l0,0l0,0c0,0-0.3-0.3-1.5-0.9c-1.2-0.3-2.2-0.6-3.4-0.6
	c-1.2,0-2.2,0-3.1,0s-1.9,0.3-2.8,0.3c-2.5,0.3-3.4,0.3-4-0.3c-0.6-0.6-0.6-0.6-0.6-0.6H230l0,0H245.1z M214.2,10.6c0,0,0,0,0.6-0.6
	s1.5-0.6,4-0.3c0.9,0,1.9,0.3,2.8,0.3c1.2,0,2.2,0,3.1,0c1.2,0,2.2-0.3,3.4-0.6c1.2-0.3,1.5-0.9,1.5-0.9l0,0l0,0l0,0l0,0
	c0,0,0.3,0.3,1.5,0.9c1.2,0.3,2.2,0.6,3.4,0.6s2.2,0,3.1,0c0.9,0,1.9-0.3,2.8-0.3c2.5-0.3,3.4-0.3,4,0.3c0.6,0.6,0.6,0.6,0.6,0.6
	h-15.5l0,0H214.2z M246.4,10.6L246.4,10.6L246.4,10.6z M260,10.6c0-1.5-3.1-3.7-6.8-2.8c-3.4,0.9-6.2,2.8-6.8,2.8
	c0.3,0,3.1,1.9,6.8,2.8C256.6,14.3,260,12.2,260,10.6z M254.4,12.8c-2.8-0.6-4.6-2.2-5-2.2l0,0l0,0c0.3,0,2.5-1.5,5-2.2
	c2.8-0.6,5,0.9,5,2.2S257.2,13.4,254.4,12.8z M261.3,10.6h31.3v0.3L261.3,10.6L261.3,10.6z M296.6,7.8c0,0,0,0.9-0.9,1.9
	c-0.9,0.9-2.5,0.9-2.5,0.9l0,0c0,0,1.5,0,2.5,0.9c0.6,0.9,0.9,1.9,0.9,1.9l0,0c0,0,0-0.9,0.9-1.9c0.9-0.9,2.5-0.9,2.5-0.9l0,0
	c0,0-1.5,0-2.5-0.9C296.6,8.8,296.6,7.8,296.6,7.8L296.6,7.8z M98.6,10.6L98.6,10.6L98.6,10.6z M121.2,1
	c-11.8,3.4-21.1,9.3-22.3,9.6c1.2,0.3,10.8,6.8,22.3,9.9c12.1,3.1,22.6-4.3,22.6-9.6C143.5,5.4,133-2.4,121.2,1z M142.3,10.6
	c0,4-7.7,9.6-17,7.4c-8.7-2.2-15.8-7.1-16.7-7.4l0,0l0,0c0.9-0.3,8.1-4.6,16.7-7.4C134.5,0.7,142.3,6.6,142.3,10.6z M144.7,10.3
	c0,2.8,2.5,5.3,5.3,5.3s5.3-2.5,5.3-5.3S152.8,5,150,5S144.7,7.5,144.7,10.3z M97.3,10.6c0,0-1.9,0-3.7,1.5S92,16.8,92,16.8l0,0
	c0,0,0.3-3.1-1.5-4.6s-3.7-1.5-3.7-1.5l0,0c0,0,1.9,0,3.7-1.5S92,4.4,92,4.4l0,0c0,0-0.3,3.1,1.5,4.6C95.5,10.6,97.3,10.6,97.3,10.6
	L97.3,10.6z M54.9,10.6c0,0,0,0,0.6,0.6c0.6,0.6,1.5,0.6,4,0.3c0.9,0,1.9-0.3,2.8-0.3c1.2,0,2.2,0,3.1,0c1.2,0,2.2,0.3,3.4,0.6
	s1.5,0.9,1.5,0.9l0,0l0,0l0,0l0,0c0,0,0.3-0.3,1.5-0.9c1.2-0.3,2.2-0.6,3.4-0.6c1.2,0,2.2,0,3.1,0c0.9,0,1.9,0.3,2.8,0.3
	c2.5,0.3,3.4,0.3,4-0.3c0.6-0.6,0.6-0.6,0.6-0.6H70.4l0,0C70.4,10.6,54.9,10.6,54.9,10.6z M85.8,10.6c0,0,0,0-0.6-0.6
	c-0.6-0.6-1.5-0.6-4-0.3c-0.9,0-1.9,0.3-2.8,0.3c-1.2,0-2.2,0-3.1,0c-1.2,0-2.2-0.3-3.4-0.6c-1.2-0.6-1.5-0.9-1.5-0.9l0,0l0,0l0,0
	l0,0c0,0-0.3,0.3-1.5,0.9c-1.2,0.3-2.2,0.6-3.4,0.6s-2.2,0-3.1,0s-1.9-0.3-2.8-0.3c-2.5-0.3-3.4-0.3-4,0.3c-0.6,0.6-0.6,0.6-0.6,0.6
	h15.5l0,0H85.8z M53.6,10.6L53.6,10.6L53.6,10.6z M46.8,13.4c3.4-0.9,6.2-2.8,6.8-2.8c-0.3,0-3.1-2.2-6.8-2.8
	C43.1,6.9,40,9.1,40,10.6S43.4,14.3,46.8,13.4z M40.6,10.6c0-1.2,2.5-2.8,5-2.2s4.6,2.2,5,2.2l0,0l0,0c-0.3,0-2.5,1.5-5,2.2
	C42.8,13.4,40.6,11.9,40.6,10.6z M7.4,10.6h31.3v0.3L7.4,10.6L7.4,10.6z M3.4,7.8c0,0,0,0.9,0.9,1.9c0.9,0.9,2.5,0.9,2.5,0.9l0,0
	c0,0-1.5,0-2.5,0.9c-0.6,0.9-0.9,1.9-0.9,1.9l0,0c0,0,0-0.9-0.9-1.9C1.5,10.6,0,10.6,0,10.6l0,0c0,0,1.5,0,2.5-0.9
	C3.4,8.8,3.4,7.8,3.4,7.8L3.4,7.8z"/>
</svg>
