<?xml version="1.0" encoding="utf-8"?>
<!-- Generator: Adobe Illustrator 22.1.0, SVG Export Plug-In . SVG Version: 6.00 Build 0)  -->
<svg version="1.1" id="Layer_1" xmlns="http://www.w3.org/2000/svg" xmlns:xlink="http://www.w3.org/1999/xlink" x="0px" y="0px"
	 viewBox="0 0 173.3 20" style="enable-background:new 0 0 173.3 20;" xml:space="preserve">
<style type="text/css">
	.st0{fill:#4BAE4F;}
</style>
<path class="st0" d="M167,7.4c-0.3-0.1-0.4-0.3-0.3-0.4c0.1-0.1,0-0.3-0.2-0.4c0,0,0,0-0.1,0c-0.6,0.1-1-0.3-1.4-0.6
	c-0.6-0.3-1.1-0.6-1.8-0.7c-0.2,0-0.2,0-0.2,0c-0.2-0.2-0.8-0.3-1.4-0.4c0,0,0,0-0.5-0.2c-0.5-0.3-1-0.4-1.5-0.4
	c-0.3,0-0.5-0.1-0.8-0.1c-0.6-0.1-1.1-0.3-1.7-0.4c-0.8-0.1-1.5-0.3-2.3-0.2c-0.2,0-0.2,0-0.2,0c-0.2,0-0.4-0.1-0.4-0.1
	s0.3-0.1,0.4-0.1c0.1,0,0.2-0.1,0.2-0.1s-0.5-0.1-0.7-0.1s0.7-0.1,1-0.2s0.6,0.1,0.5,0.2c0,0.1,0.2,0.2,0.2,0.2
	c0.1,0,0.2-0.2,0.2-0.3s0.2-0.1,0.4-0.1c0,0,0,0,0.2,0.1c0.7,0.3,1.4,0.5,2.2,0.4c0.5,0,1-0.1,1.5,0.2c0.5,0.2,0.9,0.1,1.4,0.2
	c0.5,0,0.5,0,0.5,0c0.6,0,2.5,0.2,3,0.4s1.1,0.1,1.1,0c0.1-0.1-0.2-0.2-0.3-0.2s-0.5-0.3-1-0.7c0,0,0,0-0.6-0.1c-0.4,0-0.4,0-0.4,0
	c-0.5-0.3-1-0.5-1-0.4c0,0-0.3-0.2-0.4-0.3c-0.1-0.1-0.4-0.2-0.8-0.4c0,0,0,0-0.3,0C160.2,2,160.2,2,160.2,2
	c-1.5-0.2-3.1-0.5-3.7-0.5c0,0,0,0-0.5,0s-1.1,0-1.6-0.1c-0.9-0.2-1.8-0.3-2.8-0.2c-0.2,0-0.3-0.1-0.5-0.1C150.6,1,150.6,1,150.6,1
	c-1.2,0.2-1.9,0.3-1.5,0.3c0,0,0,0,0.2,0s0.2,0,0.2,0c0.3,0-0.2,0.1-0.9,0.2c0,0,0,0-0.7-0.1c-1-0.4-1-0.4-1-0.4
	c-1.1,0-4-0.1-4.9-0.1c-0.8,0-4.7-0.1-5.9-0.1S128.9,1,127,1s-8.3,0.2-10.2,0.2c-1.9,0-4.2,0-5.2,0c0,0,0,0-0.9,0
	c-0.1,0-0.1,0-0.1,0c-0.2,0-0.1,0.3-0.1,0.3c0.1,0,2,0,4.3,0c0,0,0.8,0,3.2,0c2.5,0,3.2,0,3.2,0c2.3,0,6.9,0.1,8,0
	c1-0.1,4.6-0.1,5.6-0.1s4.5,0.2,5.6,0.1c1,0,2.9,0.1,4.2,0.2c0,0,0,0,1.2-0.1c0.9-0.1,0.9-0.1,0.9-0.1c1.1,0.1,1.5,0.3,0.7,0.5
	c0,0,0,0-0.6,0.1c-0.1,0-0.1,0-0.1,0c-0.2,0-0.6-0.1-1.1-0.2c0,0,0,0-0.4,0c-0.8,0-1.6,0.1-2.4-0.1l0,0c-0.1,0-0.1,0.2-0.1,0.2
	s0.2,0.2,0.3,0.2s0.1,0.1,0.1,0.1s-0.4,0-0.6-0.1c-0.2,0-0.6,0.1-0.9,0.2c0,0,0,0-0.4-0.2c-0.1-0.1-0.3-0.1-0.4-0.1
	c-0.4,0.4-0.8,0.1-1.2,0c-0.3,0-0.3,0-0.3,0c-0.4,0.1-1.1,0.3-1.2,0.3s-1.3-0.3-1.7-0.2c-0.3,0.1-0.7,0.2-0.9,0.2c0,0,0,0-0.2,0.1
	s-0.4,0.1-0.6,0.1c-1.3,0.2-1.3,0.2-1.3,0.2c-1.4-0.2-2.6-0.3-2.7-0.3c0,0,0,0-0.1,0c-0.8-0.3-0.8-0.3-0.8-0.3
	c-0.9,0.2-1.2,0.4-1,0.4s0.3,0.1,0.3,0.1s-0.2,0.1-0.5,0.1c0,0,0,0-0.3,0c-1,0-2,0-3.1,0.1c-1,0-1,0-1,0c-1.1,0-2.9,0-4,0
	c0,0,0,0-1,0c-0.3,0-0.6,0.1-0.9,0c-0.3,0-0.3,0-0.3,0C117.7,3,117.2,3,116.9,3c0,0,0,0-0.3,0c-3.2,0.1-6.4,0.1-9.6,0.2
	c-0.5,0-0.9,0-1.4,0s-1,0-1.5,0s-0.9,0-1.4,0s-1-0.1-1.5,0.1C101,3.4,101,3.4,101,3.4c-0.4-0.1-1.4,0-1.7,0c-0.3,0-1.5,0.1-2.7,0.1
	c0,0,0,0-1.1,0s-2.3,0-3.4,0.1c-1.2,0-2.3,0-3.5,0.1c-1.1,0-2.3,0.1-3.4,0.1s-1.1,0-1.1,0C82.9,4,80,4.2,77.7,4.2
	c0,0-10.3,0.2-17.6,0.4c-0.7,0-1.4,0-2.1,0.1c-0.2,0-0.2,0-0.2,0c-0.1,0.1-1,0.1-1.1,0c-0.2,0-2.3,0-4.6,0.1c0,0-6.1,0.1-11.3,0.3
	c-0.5,0-1-0.1-1.5,0.2c-0.1,0-0.1,0-0.1,0C39.1,5.3,38.3,5,38,5s-2.4,0.1-4.7,0.2L19,5.4c-2.3,0-4.6,0.1-4.9,0.1c0,0,0,0-0.4-0.2
	c-0.4-0.1-0.9,0-1.3,0.1c-0.1,0-0.1,0-0.1,0c-0.1,0.1-0.1-0.3,0-0.4c0-0.1-0.3-0.2-0.9-0.2c0,0,0,0-0.4,0.3C10.3,5.7,9.5,5.9,8.8,6
	C7.3,6.1,7.3,6.1,7.3,6.1C5.7,6.2,4.1,6.3,3.9,6.3c0,0,0,0-0.2,0c-0.4,0-0.4,0-0.4,0C2.9,6.5,2.7,6.9,2.8,7c0.1,0,1.6-0.1,2.1-0.1
	S5.3,7,5.1,7C4.9,7,4.8,7.2,4.8,7.3c0,0.1,0.3,0,0.7-0.1c0,0,0,0,0.3,0c0.4,0,0.4,0,0.4,0c0.4,0,0.9,0,1,0s0.1,0,0.1,0.1
	c0,0-0.2,0.1-0.3,0.1c-0.1,0-0.1,0-0.1,0S6.4,7.8,6.2,7.6c-0.2-0.1-0.7,0-0.9,0c-0.2,0-2,0.1-2.6,0.2C2.1,7.9,1.6,8.1,1.6,8.1
	S2.5,7.9,2.8,8s1.5,0,1.8,0C5,7.9,4.9,8,4.7,8c-0.1,0-0.1,0.2,0,0.2c0,0-0.7,0.2-0.8,0.3C3.7,8.7,3.8,8.8,4,8.8
	c0.1,0-0.1,0.1-0.5,0.3c0,0,0,0-0.3,0.1c-0.1,0-0.1,0-0.1,0c0,0.2,0.4,0.3,0.5,0.3C3.8,9.5,4,9.7,4,9.8s0.4,0.1,0.6,0.1
	c0.1,0,0.5-0.1,0.7-0.1c0.1,0,0.2,0,0.2,0.1c0,0-0.3,0.1-0.4,0.1s-0.2,0-0.2,0s0,0.1,0,0.2l0,0c-0.5,0.1-1.1,0.2-1.6,0.3
	c-0.2,0-0.2,0-0.2,0c-0.2,0.1-0.1,0.3,0.1,0.3c0,0,0,0,0.2,0s0.4-0.2,0.5-0.1c0.7,0.4,0.7,0.4,0.7,0.4c0.7-0.3,2.3-0.6,2.6-0.6
	c0.4,0,0,0.1-0.3,0.1s-0.4,0.1-0.4,0.1s-0.2,0.1-0.3,0.2c-0.1,0,0.4,0.1,0.5,0.2S6.5,11,5.9,11.2c0,0,0,0-0.4,0s-0.4,0-0.4,0
	c-0.4,0-1.1,0.2-1.2,0.3c-0.1,0.1-0.6-0.1-0.8-0.1c-0.2,0-0.3,0.3-0.3,0.4S3.7,12.2,4,12c0.3-0.1,0.5,0,0.4,0c0,0,0.5,0.1,0.6,0.1
	c0.2,0,0.3,0.1,0.3,0.1s-0.8,0.1-1,0.1S4,12.4,4,12.5s-0.2,0.1-0.3,0.1s0.2,0,0.7,0c0,0,0,0,0.4-0.1c0.1,0,0.1,0,0.1,0
	c0.1,0,0,0.3,0,0.3c0,0.1,0.3,0.3,0.4,0.3c0.1,0.1,0.5-0.1,0.6-0.2c0.1-0.1,1,0,1.4,0C7.7,13,7,13.3,6.7,13.3S6.1,13.6,6,13.7
	c0,0.1,0.2,0.1,0.2,0.1c0.1,0,0.2-0.1,0.2-0.1h0.1l-0.1,0.1H6.3c0,0,0.1,0.2,0.2,0.2s0.8-0.1,1-0.1s0.7,0.1,1,0.2c0,0,0,0,0.4-0.2
	c0.3-0.1,0.8-0.1,1.3-0.1c0.1,0,0.1,0,0.1,0c0.2,0-0.3,0.6-0.6,0.6S9,14.5,9,14.6s0,0.5,0,0.7c0,0.1,0.5,0.3,1.1,0.3
	c0,0,0,0,0.4-0.2s0.4-0.2,0.4-0.2c0.5,0,0.9,0,1,0.1c0,0-0.3,0.1-0.4,0.2c-0.1,0,0.2,0.2,0.3,0.2s0.8,0.2,0.9,0.1
	c0.2-0.1,1.4-0.3,1.8-0.3c0.4,0,1.2,0.2,1.3,0.3s-0.9,0.8-1.4,0.9s-0.3,0.1,0.4,0c0,0,0,0,0.6-0.1c0.6-0.1,0.6-0.1,0.6-0.1
	c0.7-0.1,0.7,0.1,0.5,0.2s-0.3,0.2-0.3,0.3c0,0,0.8-0.1,1.1-0.1c0.3-0.1,0.7-0.2,0.8-0.2c0.1,0,0.1,0,0.1,0.1c0,0-0.2,0.1-0.3,0.1
	c-0.1,0-0.1,0-0.1,0s0,0.1,0.1,0.2l0,0c0.6,0,1.1,0.1,1.7-0.1c0.5-0.2,0.5-0.2,0.5-0.2c0.7-0.1,2.2-0.1,2.5-0.1c0.4,0,0.7,0,0.8,0
	l0.1,0.2c0,0.1,0.2,0.1,0.3,0.1c0,0,0,0,0.1,0c0.7-0.3,0.7-0.3,0.7-0.3c0.9-0.1,2.6-0.1,2.9-0.1c0.4,0,1-0.1,1.2-0.1
	c0.1,0,0.3,0,0.4,0.1c0,0,0,0,0.1,0c0.5,0.1,1-0.1,1.5,0.2c0.1,0.1,0.3,0.1,0.4,0c0.3-0.3,0.3-0.3,0.3-0.3c0.4,0.1,1.8,0.1,3.2,0.1
	c0,0,0,0,1.3,0c0.6,0,0.6,0,0.6,0c0.7,0,1.3-0.1,1.3-0.1s-0.3-0.1-0.4-0.1c-0.1,0,0.8-0.1,2-0.2c0,0,0,0,1.1,0
	c0.7,0,1.5-0.2,2.3,0.1c0.2,0.1,0.6,0.1,0.8,0C44,16,44,16,44,16c0.5,0,3,0.1,3.8,0.1s2.1,0,2.9,0c0,0,0,0,0.7,0c0.2,0,0.2,0,0.2,0
	c0.1-0.1,0.8-0.1,1-0.1s5.9-0.1,8-0.1s4.4-0.1,4.6,0c0.2,0,1.2,0.1,2.1,0.2c0,0,0,0,0.8-0.2c0.7-0.2,0.7-0.2,0.7-0.2
	c0.7,0.1,0.5,0.3,0.1,0.4s-0.3,0.2-0.3,0.2c0.1,0,2,0,4.3-0.1l5-0.1c2.3-0.1,4.8-0.3,5.6-0.5c0,0,0,0,0.7,0.2s1.3,0.1,1.9,0.1
	c2.2,0,4.4-0.1,6.6-0.1c0.3,0,0.3,0,0.3,0c0.4,0.1,0.9,0.1,1.1,0c0,0,0,0,0.3-0.1c0.1,0,0.1,0,0.1,0c0.1,0-0.1-0.3-0.2-0.4
	c-0.1-0.1-0.4-0.1-0.7-0.1c0,0,0,0-0.2,0s-0.2,0-0.2,0c-0.2,0-0.4-0.1-0.4-0.1s1.1-0.1,1.5-0.1s0.6,0.1,0.6,0.2c0,0,0.1,0.2,0.3,0.3
	c0,0,0,0,0.2,0.1c0.4,0.1,0.4,0.1,0.4,0.1c0.4,0,1.4,0.1,1.6,0.1s1.3,0.1,2.4,0.1c0,0,0,0,1-0.1s1-0.1,1-0.1c1.1-0.1,3.5-0.4,4-0.4
	c0.6,0,5.5-0.1,7.2-0.2c1.7,0,3.5,0,3.6,0s1.7-0.2,2.2-0.2s1,0.3,1,0.3s2.9,0.1,3.9,0.1c1.1,0,4.8,0,5.9,0c1.1,0,2.1,0.1,2.1,0.1
	l0.1,0.2c0,0-0.3,0.1-0.4,0.2c-0.1,0-0.2,0.2-0.2,0.2c0,0.1,0.6,0.1,0.8,0.1s0,0.5-0.1,0.6s-0.1,0.5-0.1,0.5s-0.4,0.2-0.5,0.2
	s0,0.1,0.4,0.1c0,0,0,0,0.3,0s0.3,0,0.3,0c0.3,0,1,0.1,1.1,0.1s0.5-0.1,0.8-0.2c0,0,0,0,0.1,0.1c0.3,0.3,0.4-0.1,0.6,0
	c0.2,0.2,0.2,0.2,0.2,0.2c0.3,0,5.3,0,7.2,0c1.8,0,4.3,0.1,4.6,0.3c0.3,0.1,1.3-0.1,1.6,0c0.3,0,0.5,0,0.5-0.1c0,0-0.7-0.1-0.9-0.2
	s-0.4-0.4-0.4-0.5s-0.4,0.1-0.5,0.1c-0.1,0.1-0.6,0.1-1.1,0c0,0,0,0-0.4,0s-0.8-0.3-1.3-0.2h-0.1c-0.8,0.4-0.8,0.4-0.8,0.4
	c-0.9-0.1-0.9-0.5-0.6-0.5c0.3,0,0.8-0.1,0.9-0.2c0.1-0.1-2.3,0-3.2,0s-1.7-0.2-1.7-0.2c0-0.1,0.8-0.1,1-0.1c0.3,0,0.9-0.2,1-0.1
	c0.1,0,0.5,0,0.8,0c0,0,0,0,0-0.4c0-0.1,0-0.1,0-0.1c0.4-0.2,0.4-0.4,0.3-0.4c-0.1,0-0.1-0.2-0.1-0.3s0.7,0,0.8,0
	c0.2,0.1,0.4,0,0.4-0.1s1.4,0,1.9,0s1,0.2,1,0.3c0,0-0.2,0.2-0.3,0.2s0.4,0.2,1,0.4c0,0,0,0,0.6-0.1c0.4,0,0.4,0,0.4,0
	c0.4,0.1,1.5,0.4,1.8,0.4s0.7-0.2,1.1-0.4c0,0,0,0,0.3-0.1c0.2-0.1,0.2-0.1,0.2-0.1c0.3-0.1,0.4-0.1,0.4-0.1s0.3,0.3,0.4,0.3
	c0.1,0.1,0.5,0,0.6-0.1c0.1,0,0.2-0.2,0.2-0.2s-0.3-0.1-0.4-0.2c-0.1,0,0.2-0.3,0.4-0.3s0.8,0.2,1.4,0.3c0,0,0,0,0.5-0.4l0,0
	c0,0,0.3,0.2,0.3,0.3c0.1,0.1,0.4,0,0.4-0.1c0.1-0.1,0.7-0.2,0.9-0.3s0.4,0.3,0.4,0.4c0,0.2,0.4,0.1,0.5,0.1s0.4,0.1,0.5,0.1
	s0,0.2,0,0.3c0,0,0.4,0.1,0.5,0.1s0.4-0.2,0.5-0.3s-0.3-0.2-0.5-0.2c-0.1,0-0.4-0.3-0.5-0.4c-0.1-0.1,1.2,0.2,1.7,0.3
	c0.5,0,1-0.2,1-0.2l-0.1-0.3c-0.1-0.1-0.7-0.1-1-0.1c-0.2,0-0.5-0.2-0.5-0.3s-0.3-0.1-0.4-0.1c-0.1,0-0.2-0.2-0.2-0.2
	S157.3,14,157,14s-0.5,0.2-0.6,0.2c0,0.1-0.6,0.1-0.8,0.1s-0.8-0.2-0.9-0.3c-0.2-0.1,0-0.5,0.1-0.6s0.1-0.3,0-0.4
	c-0.1-0.1,0.2-0.2,0.4-0.2c0.1,0-0.4-0.2-0.6-0.1c-0.2,0.1-0.5,0.1-0.6,0c-0.1,0-0.4,0.1-0.5,0.2c-0.1,0.1-0.5,0.1-0.9,0
	c0,0,0,0-0.3,0s-0.3,0-0.3,0c-0.3,0-1.1,0-1.2,0c-0.2,0,0.2-0.3,0.4-0.4c0.2-0.1,0.1-0.2-0.2-0.3c0,0,0,0-0.3-0.1
	c-0.1,0-0.1,0-0.1,0c-0.1-0.2,0.5-0.3,0.7-0.3s0.9,0.2,1.1,0.3c0.2,0.1,0,0.2-0.1,0.2s-0.2,0.2-0.2,0.2s1,0.2,1.3,0.1
	c0.3-0.1,1.5-0.5,1.9-0.6s0.9,0.1,0.9,0.2c0.1,0.1,0.6,0.2,1.3,0.2c0,0,0,0,0.5-0.1c0.3-0.1,0.6-0.2,1-0.2l0,0
	c0,0.1-0.3,0.2-0.4,0.2s-0.2,0.2-0.2,0.2s0.3,0.3,0.4,0.3c0.1,0,0.4,0.1,0.5,0.1s0.9,0.4,1.3,0.4c0.3,0,0.5-0.1,0.4-0.2
	c0,0,0,0-0.1-0.1s-0.1-0.1-0.1-0.1c-0.2-0.1,0.4-0.3,0.7-0.3c0.2,0,0.4-0.4,0.4-0.5s0.5-0.3,0.6-0.3c0.2,0,0.1-0.4,0-0.5
	s-0.5,0-0.7,0.2s-0.6,0.2-0.9,0.2c0,0,0,0-0.2,0.1c-0.3,0.2-0.5-0.1-0.8,0c-0.5,0.1-1.2-0.1-1.7,0.1c-0.6,0.2-0.6,0.2-0.6,0.2
	c-0.6,0-1.2-0.4-1.2-0.5c-0.1-0.1,0.2-0.4,0.3-0.4s0.1-0.2,0.1-0.2c-0.1-0.1-0.6-0.1-1.1,0c0,0,0,0-0.3,0.3l0,0c-0.1,0,0-0.4,0-0.5
	c0.1-0.1,0.6-0.3,0.8-0.3s0.3-0.3,0.3-0.4c0-0.1,0.3,0.2,0.5,0.3s0.6,0.2,1,0.4c0,0,0,0,0.3,0.1C159,11,159,11,159,11
	c0.4,0.1,0.4,0.4,0.3,0.4c-0.1,0.1,1.1,0.1,1.5,0.1s0.9-0.6,0.7-0.7c-0.2-0.1,0.4-0.2,0.7-0.2s0.7,0,1,0c0,0,0,0,0.3-0.1
	c0.1,0,0.2-0.1,0.3-0.2l0,0c0-0.1,0-0.2-0.1-0.2c0,0,0-0.2,0.1-0.3s-0.7,0-0.9,0s-0.8-0.2-0.9-0.2c-0.1-0.1-0.3-0.3-0.3-0.4
	c0-0.1-0.6-0.4-0.8-0.4c-0.2-0.1-1.5,0.2-1.9,0s-0.3-0.5-0.2-0.6s-0.8-0.5-1.1-0.6c-0.4-0.1-0.6-0.3-0.6-0.4c0,0-1.2-0.4-1.6-0.5
	c-0.5-0.1-0.4-0.3,0.1-0.4c0,0,0,0,0.5,0.2c0.6,0.2,1.2,0.5,1.9,0.4l0,0c0.1,0.1,0.1,0.3,0,0.4s0.4,0.3,0.6,0.4
	c0.2,0.1,0.6-0.1,0.7-0.2c0.1-0.1,0.4,0.1,0.5,0.1c0.1,0.1-0.2,0.2-0.3,0.2s0.2,0.2,0.3,0.2s1-0.2,1.2-0.1c0.3,0,1,0.4,1.1,0.5
	c0.2,0.1,0.4,0.2,0.4,0.1c0,0,0.3,0,0.6,0.1c0,0,0,0,0.2,0.1c0.1,0,0.1,0,0.1,0c0.1,0.1-0.3,0.6-0.6,0.7c-0.2,0.2,0.4,0.2,1.3,0
	c0,0,0,0,0.8-0.1c0.1,0,0.1-0.1,0.1-0.1l0,0L164.9,9c0,0,0.1-0.1,0.4-0.1c0,0,0,0,0.2-0.1s0.2-0.1,0.2-0.1c0.2-0.1,0.5-0.1,0.5-0.1
	c0.1,0,0.6-0.8,1-0.8C167.7,7.6,167.3,7.4,167,7.4z M160.7,2.5c0.1,0,0.1,0.1,0.1,0.1s0,0.1-0.1,0.1s-0.2,0-0.2-0.1
	C160.5,2.6,160.6,2.6,160.7,2.5z M160,2.4c0.1,0,0.3,0,0.3,0.1C160.2,2.5,160,2.5,160,2.4c-0.1,0.1-0.1,0.1-0.1,0
	C159.8,2.4,159.9,2.4,160,2.4z M159.1,2.2c0.1,0,0.2,0,0.2,0.1l-0.2,0.1c-0.1,0-0.1-0.1-0.1-0.1C159,2.2,159.1,2.2,159.1,2.2z
	 M158.4,2L158.4,2v0.2C158.4,2.2,158.4,2.2,158.4,2L158.4,2z M156,1.9c0.1,0,0.1,0.1,0.1,0.1s0,0.1-0.1,0.1s-0.2,0-0.2-0.1
	C155.8,2,156,1.9,156,1.9z M6.5,6.8c-0.1,0-0.3-0.1-0.3-0.1s0.1-0.1,0.3-0.1c0.1,0,0.5,0,0.5,0.1C7,6.7,6.6,6.8,6.5,6.8z M4.6,8.6
	c0.1,0,0.4,0,0.4,0.1S4.7,8.7,4.6,8.6C4.5,8.7,4.4,8.7,4.4,8.7C4.4,8.6,4.5,8.6,4.6,8.6z M4.7,9.5c-0.2,0-0.6,0-0.6-0.1
	C4.1,9.4,4.6,9.4,4.7,9.5C4.9,9.4,5,9.4,5,9.4S4.9,9.5,4.7,9.5z M6,9.7C5.8,9.6,5.8,9.5,5.9,9.5s0.6-0.1,0.7,0
	C6.6,9.5,6.2,9.7,6,9.7z M6.4,8.4c-0.3,0.1-1.2,0-1.3-0.1c0-0.1,0.9-0.1,1.2-0.1c0.3,0,0.6,0,0.6,0.1C7,8.2,6.8,8.3,6.4,8.4z
	 M5.7,11.7c-0.1,0-0.4,0-0.4-0.1c0,0,0.3-0.1,0.4-0.1s0.2,0.1,0.2,0.1C5.9,11.7,5.8,11.7,5.7,11.7z M6.2,11.7L6.2,11.7
	c0-0.1,0-0.2,0-0.2C6.2,11.6,6.3,11.7,6.2,11.7C6.3,11.7,6.2,11.7,6.2,11.7z M12.4,15.1c0.3,0,0.7,0,1,0
	C13.1,15.3,12.7,15.2,12.4,15.1z M17,15.8c-0.2,0,0.2-0.1,0.3-0.1c0,0,0,0,0.1,0C17.2,15.8,17,15.8,17,15.8z M21.1,15.6
	c0.6-0.2,1.2-0.2,1.8,0C22.3,15.5,21.7,15.6,21.1,15.6z M86.7,14.2c0.3,0,0.6,0,0.6,0.1c0,0-0.2,0.1-0.4,0.1c-0.2,0-1,0.1-1.1,0
	c-0.1,0-0.1-0.1-0.1-0.1C85.6,14.3,86.4,14.2,86.7,14.2z M84.2,14.3c0.1,0,0.5,0,0.5,0.1s-0.4,0.1-0.5,0.1s-0.3-0.1-0.3-0.1
	C83.9,14.3,84.1,14.3,84.2,14.3z M81.7,13.9V14v0.1c0,0,0,0,0-0.1C81.6,14,81.7,13.9,81.7,13.9z M29,15.7c0.1,0.1-0.3,0.1-0.4,0.1
	s-0.4-0.2-0.5-0.2c-0.1-0.1-1-0.1-1.4-0.1c-0.3,0-0.6,0-0.6-0.1l0,0l0,0c0,0,1.4-0.1,2-0.1c0.5,0,0.9,0,0.9,0.1
	C29,15.4,29,15.6,29,15.7z M29.9,16c-0.1,0-0.4,0-0.4-0.1c0,0,0.3-0.1,0.4-0.1s0.2,0.1,0.2,0.1S30,15.9,29.9,16z M29.8,15.3
	c0,0,0.7-0.1,1-0.2c0.2,0,1.1,0.1,1.6,0.2l0,0C31.7,15.3,29.8,15.3,29.8,15.3z M33.3,15.9c-0.1,0-0.1,0-0.1-0.1
	C33.1,15.8,33.2,15.8,33.3,15.9c0.1-0.1,0.3-0.1,0.3,0C33.5,15.8,33.3,15.9,33.3,15.9z M36.6,16c-0.1,0-0.5,0-0.5-0.1
	c0,0,0.4-0.1,0.5-0.1s0.3,0.1,0.3,0.1S36.8,16,36.6,16z M38.9,15.2c-0.5,0-1.9,0-1.9,0C36.9,15.1,38.3,15.1,38.9,15.2
	c0.5-0.1,1-0.1,1-0.1C39.8,15.2,39.4,15.2,38.9,15.2z M32,6c-2.3,0-4.2,0.1-4.2,0l0,0l0,0C27.8,6,29.8,5.9,32,6l12.2-0.4
	c2.3,0,4.2,0,4.2,0s-1.9,0.1-4.2,0.1L32,6z M62,14.9c0,0,0,0-0.2,0c-1.5,0-3,0.1-4.4,0.1c-0.2,0-0.2,0-0.2,0c-0.3,0.1-0.7-0.1-0.9,0
	c-0.2,0-2.2,0.1-4.5,0.1c0,0-1.6,0-4.5,0.1c-0.5,0-0.5,0-0.5,0c-0.5,0-1.3,0.1-1.7,0.1c0,0,0,0-0.4-0.3c-0.2-0.1-0.6-0.1-0.8,0
	c-0.7,0.4-0.7,0.4-0.7,0.4c-0.8-0.1-1.5-0.3-1.4-0.3c0,0,1.5-0.2,2-0.2s2.4-0.1,2.9-0.1s2.3-0.1,2.9-0.1c0.5,0,1.1,0.1,1.2,0.2
	c0.1,0.1,5.7,0,7.8,0s3.8,0,3.8,0C62.3,14.8,62.1,14.9,62,14.9z M72.2,14.9c0-0.1-3.9,0-5.3,0S64.2,15,64.2,15s-0.8-0.1-1.1-0.1
	s0-0.1,0.7-0.1c0,0,0,0,0.5-0.1c0.5-0.2,0.5-0.2,0.5-0.2c0.5,0.1,1.3,0.1,1.8,0c0,0,0,0,0.5,0s0.5,0,0.5,0c0.5,0.1,1.3,0.1,1.8,0.1
	s3.1-0.1,3.5-0.1c0.5,0.1,0.2,0.3-0.1,0.4C72.5,14.9,72.2,14.9,72.2,14.9z M73.2,15.4c-0.4,0-0.7-0.1-0.7-0.1s0.3-0.1,0.7-0.1
	c0.4,0,1.3,0.1,1.3,0.1C74.5,15.4,73.6,15.4,73.2,15.4z M77.5,15.3c-0.3,0-0.4,0-0.2-0.1c0.1-0.1,0.8-0.1,0.9,0S77.8,15.3,77.5,15.3
	z M79,14.7c-0.1,0-0.2,0-0.2-0.1C78.8,14.6,78.9,14.6,79,14.7c0.1-0.1,0.4-0.1,0.4,0C79.5,14.7,79.2,14.7,79,14.7z M83,15.2
	c-1.4,0-2.6,0-2.6-0.1l0,0c1-0.1,1-0.1,1-0.1c1.1-0.1,3.3-0.2,3.9-0.2c0.5,0,1.3-0.1,1.7-0.1c0,0,0,0,0.3,0.3l0,0
	C86.1,15,84,15.2,83,15.2z M87.6,14.9c0.2-0.1,0.4-0.1,0.4,0C88,14.9,87.8,14.9,87.6,14.9z M89.7,15c-0.1,0.1-0.2,0.1-0.2,0
	c0,0,0.2-0.3,0.3-0.3c0.1,0,0.3,0,0.3,0S89.8,14.9,89.7,15z M87.4,14.3c0.8-0.2,2.7-0.3,4.3-0.1C90.3,14.3,88.9,14.3,87.4,14.3z
	 M94.2,14.2C94.1,14.2,94.1,14.2,94.2,14.2c0-0.1,0-0.2,0-0.2S94.2,14.1,94.2,14.2L94.2,14.2z M95.2,14.1
	C95.2,14.1,95.1,14.1,95.2,14.1C95.1,14.1,95.2,14.1,95.2,14.1C95.2,14,95.3,14.1,95.2,14.1C95.3,14.1,95.2,14.1,95.2,14.1z
	 M95.7,14.1c0.3-0.3,0.7,0,1,0C96.5,14.1,96.1,14.1,95.7,14.1z M97.4,15.1c-0.1,0-0.3-0.1-0.3-0.1s0.1-0.1,0.3-0.1
	c0.1,0,0.5,0,0.5,0.1S97.5,15.1,97.4,15.1z M98.4,14.1C98.3,14.1,98.3,14,98.4,14.1C98.3,14,98.3,14,98.4,14.1
	C98.4,14,98.5,14.1,98.4,14.1C98.5,14,98.4,14.1,98.4,14.1z M132.8,17.2L132.8,17.2c0-0.1,0-0.2,0-0.2S132.8,17.1,132.8,17.2
	L132.8,17.2z M140.1,15.2c-0.4,0.1-2.1,0.8-2.9,0.8c0,0,0,0-0.8,0s-0.8,0-0.8,0c-0.8,0-1.5-0.1-1.5-0.1s0.7-0.1,1-0.1
	s0.5-0.2,0.5-0.3s-0.3-0.1-0.4-0.1c-0.1,0-0.2-0.1-0.1-0.2l0,0c0.5,0,0.9-0.3,1.4-0.2c0.4,0.1,0.9,0,1.4,0c1,0,1,0,1,0
	C139.9,14.9,140.5,15,140.1,15.2z M140.3,2.8c-0.1,0-0.1-0.1-0.1-0.1s0-0.1,0.1-0.1s0.2,0,0.2,0.1C140.5,2.7,140.4,2.7,140.3,2.8z
	 M150,2c-0.3,0-0.7,0-1,0C149.4,1.8,149.7,1.8,150,2z M146.2,2.8c-0.3,0-0.7,0-1,0C145.6,2.6,145.9,2.7,146.2,2.8z M143.9,2.2
	L143.9,2.2C143.9,2.2,143.9,2.3,143.9,2.2c0,0.1-0.1,0-0.1,0C143.7,2.2,143.8,2.2,143.9,2.2z M144.2,3c-0.2,0-0.4-0.1-0.4-0.2
	s0.2-0.1,0.4-0.1S144.4,3,144.2,3z M144.9,14.2c0.7-0.2,1.4-0.2,2,0C146.3,14.2,145.6,14.2,144.9,14.2z M146.9,15.3
	c-0.1,0-0.2,0-0.2-0.1l0.2-0.1c0.1,0,0.1,0.1,0.1,0.1C147,15.3,147,15.3,146.9,15.3z M146.9,2.8c-0.1,0-0.1-0.1-0.1-0.1
	s0-0.1,0.1-0.1s0.2,0,0.2,0.1C147.1,2.7,146.9,2.8,146.9,2.8z M148.4,15.1c0,0,0,0-0.2,0s-0.2,0-0.2,0c-0.2,0.1-0.5,0.2-0.5,0.1
	v-0.1c0,0,0-0.2,0-0.3c0,0,0-0.1,0.1-0.2c0,0,0,0,0.1,0c0.4,0.1,0.4,0.1,0.4,0.1c0.4,0.1,0.8,0.3,0.8,0.4
	C148.9,15.3,148.7,15.2,148.4,15.1z M149,12.6c-0.1,0-0.1,0-0.1-0.1C148.9,12.5,148.9,12.5,149,12.6c0.1-0.1,0.3-0.1,0.3,0
	C149.3,12.6,149.1,12.6,149,12.6z M150.5,12c-0.1-0.1-0.2-0.1-0.5-0.2C150.5,11.7,150.5,11.7,150.5,12z M150.7,2.9c0,0,0,0-0.5,0
	c-0.6,0-0.6,0-0.6,0c-0.6-0.1-1.1-0.3-1.1-0.3s0.5-0.1,1.2-0.2c0,0,0,0,0.6,0.3C150.6,2.9,150.6,2.9,150.7,2.9
	C151.3,2.8,151.3,2.9,150.7,2.9z M162.1,10L162.1,10L162.1,10c0,0.1-0.1,0-0.1,0S162,10,162.1,10z M158,7.9c0.1,0,0.2,0.1,0.2,0.1
	s-0.1,0.1-0.2,0.1c-0.1,0-0.4,0-0.4-0.1C157.7,8,157.9,7.9,158,7.9z M160.9,6.6C160.8,6.6,160.8,6.6,160.9,6.6
	C160.8,6.6,160.8,6.6,160.9,6.6c0-0.1,0.1,0,0.1,0H160.9z M129.2,16.7l0.1,0.1c0,0-0.6,0.2-1.3,0.3c-0.7,0-3.1,0.1-3.7,0.2
	s-2.8,0.1-3.4,0.1s-3.1-0.1-4.1-0.2c0,0,0,0-0.9,0.1s-1.8,0.1-2.6,0.1c-0.4,0-0.8-0.2-1.1-0.1c-0.4,0.2-0.4,0.2-0.4,0.2
	c-0.5,0-1.6,0-1.9,0s-0.6-0.1-0.7-0.1c-0.1-0.1-0.4-0.2-0.5-0.2s-1,0.1-1.6,0.2c-0.7,0.1-2.7,0.1-3,0.2s-1.2-0.1-1.3-0.1
	c-0.1,0-0.8,0.1-1.4,0.1s-2.2,0-2,0c0.1-0.1,0.5-0.3,0.5-0.3s-0.1-0.1-0.1-0.2c0,0,2-0.1,4.3-0.1c0,0,3-0.1,6.7-0.1
	c0.2,0,0.2,0,0.2,0c0.3,0.1,0.5,0.1,0.6,0.2c0.1,0,0.6-0.1,0.9-0.2c0,0,0,0,0.3,0s0.6,0.2,0.9,0.1c0.4,0,0.6,0.1,1,0.2
	c0.5,0.1,0.9-0.2,1.4-0.2c0.9,0,0.9,0,0.9,0c0.9,0,2.1,0.1,2.6,0.1s2-0.3,2.3-0.3s1.6,0.1,2.1,0.2c0,0,0,0,0.5-0.1
	c0.9-0.2,1.4-0.2,2.5,0c0.2,0,0.4,0,0.6,0C128,16.7,128.6,16.7,129.2,16.7L129.2,16.7z M65.8,2.7L65.8,2.7c0-0.1,0.4-0.2,0.8-0.2
	c0,0,0,0,0.4,0c0.8,0,0.8,0,0.8,0c0.9,0,3-0.1,4.5-0.2c1.6-0.1,7.6-0.2,10-0.3c0,0,1.6,0,4.5-0.1s4.4-0.1,4.4-0.1
	c2.3-0.1,4.7-0.2,5.2-0.3c0,0,0,0,0.5,0c0.2,0,0.2,0,0.2,0c0.3,0.1,0.6,0.1,0.7,0.1s2.3-0.1,4.6-0.2c0,0,3.5-0.1,7.3-0.2l0,0
	l0.1,0.1c0,0-1.2,0.3-2.6,0.3c0,0,0,0-1.3,0c-0.4,0-0.7,0-1.1,0.2c-0.4,0.1-0.9,0.2-1.4-0.1c-0.2-0.1-0.4,0-0.6,0
	c-1.6,0-3.2,0.1-4.8,0.1c-0.3,0-0.3,0-0.3,0c-0.3,0.1-0.9,0.1-1.5,0.1c0,0,0,0-0.5,0c-0.1,0-0.2-0.1-0.3-0.1c0,0-0.3,0.2-0.7,0.2
	S94,1.8,93.6,1.9c-0.1,0-0.1,0-0.1,0c-0.1,0.1-0.9,0.1-1.8,0c0,0,0,0-0.8,0.1c-0.6,0.1-0.6,0.1-0.6,0.1c-0.7,0-1.4,0-1.5,0
	c-0.2,0-1.4,0-2.5,0c-1,0-4.5,0.2-5.3,0.4c0,0,0,0-0.8,0s-1.6,0-2.4,0s-1.6,0-2.3,0c-0.8,0-1.6,0-2.4,0.1c-0.8,0-0.8,0-0.8,0
	c-0.9,0-2.3,0.1-3.2,0.1C68.3,2.7,65.9,2.8,65.8,2.7C65.8,2.8,65.8,2.8,65.8,2.7z M4.5,4.1c0,0,0.7-0.1,1.5-0.2s4.5-0.2,6.3-0.2
	c0,0,0,0,1.7-0.1c0.5,0,1,0.1,1.4-0.2l0,0c0.1,0,1.5,0,3.1,0c0,0,0,0,1.5,0.1c0.1,0,0.1,0,0.1,0c0.1,0,0.2,0.1,0.2,0.1v0.2
	c0,0-2,0.1-4.4,0.2c0,0-0.1,0-2.2,0c-0.9,0-0.9,0-0.9,0c-1,0.2-2.1,0.5-2.2,0.7c-0.2,0.2-0.9,0.6-0.9,0.4c0.1-0.2,0.2-0.7,0.1-0.8
	C9.6,4.2,9.2,4.1,9,4.2C8.9,4.3,8.2,4.4,8,4.3S6.5,4.1,6.1,4.2C5.6,4.2,4.5,4.1,4.5,4.1z M24,3.6c0,0,1.6-0.3,3.3-0.4
	c0,0,0,0,1.6,0.1c0.7,0,1.5,0.1,2.2,0.1c0.5,0,0.9,0,1.4-0.2C33.1,3,33.1,3,33.1,3c0.7,0.3,1.3,0.5,1.3,0.4s0.4-0.3,0.7-0.4
	c0.3-0.1,1.4,0.2,1.7,0.2c0.3-0.1,1.1-0.1,1.2,0c0.1,0.1,0.5,0.3,0.7,0.3s0.9-0.1,0.7-0.1c-0.1-0.1-0.4-0.2-0.2-0.2
	c0.1,0,0.5,0.1,0.5,0.1c0,0.1,0,0.3-0.1,0.3c0,0-1.5,0.1-3.2,0.1s-6.8,0.1-7.6,0c0,0,0,0-0.8,0c-0.7,0-0.7,0-0.7,0
	c-0.8,0.1-2.4,0.2-2.8,0.1S23.9,3.6,24,3.6z M163.2,2.3c-0.1,0-0.4-0.1-0.4-0.1s0-0.2,0.1-0.3l0,0c0.9,0.2,0.9,0.2,0.9,0.2
	c1,0.2,2.3,0.6,2.9,1c0,0,0,0,0.6,0.2c0.3,0.1,0.3,0.1,0.3,0.1c0.5,0.1,1,0.3,1.1,0.4c0.1,0.1-0.5,0.4-0.8,0.3s-0.7-0.2-0.9-0.2
	c-0.1,0-0.6-0.1-0.6-0.2c-0.1-0.1-0.7-0.4-1.2-0.6c-0.5-0.1-1.9-0.6-1.9-0.7C163.3,2.5,163.3,2.3,163.2,2.3z M66.4,1.9
	c0.7-0.1,3.3-0.3,4.4-0.5c0,0,0,0,1.1,0s1.1,0,1.1,0c1.2,0,2.2,0,2.3,0c0.1,0.1,0.2,0.2,0.1,0.3l0,0c-0.1,0-0.3,0-0.4,0
	c-1,0-1,0-1,0c-1.1,0-2.4,0.1-2.9,0.1S68.7,2,68.2,2S66.1,2.1,66,2C65.7,2.1,65.7,2,66.4,1.9z M151.4,0.2c0.4-0.1,1.4,0.2,1.4,0.2
	l0,0c0.9-0.2,0.9-0.2,0.9-0.2c1,0.2,3.6,0.2,4.3,0.3s1.3,0.2,1.4,0.2c0.1,0.1,0.4,0.2,0.4,0.2s-0.9,0.1-1.9,0.2c0,0,0,0-0.8-0.1
	c-1.3-0.2-2.6,0.1-3.9-0.4c-0.2-0.1-0.4,0-0.6,0C152,0.7,152,0.7,152,0.7C151.2,0.5,151,0.3,151.4,0.2z M161.5,16.8
	c0,0-0.2,0.1-0.5,0.2s-0.9,0.3-0.8,0.4c0,0,0,0,0.1,0.1l0,0c0,0.1-0.1,0.2-0.2,0.2c-0.1,0-0.4,0-0.4-0.1s-0.2-0.2-0.4-0.2
	c-0.1,0-0.6,0.1-0.7,0c-0.1-0.1-0.3-0.4-0.3-0.4s0,0,0.1,0c0.3,0.1,0.3,0.1,0.3,0.1c0.4,0.1,0.7,0.1,0.6-0.1
	c-0.1-0.1-0.3-0.5-0.2-0.5s0.3-0.2,0.2-0.2s-0.3-0.3-0.2-0.4c0.1-0.1,0.5-0.4,0.6-0.4s0.5,0.1,0.5,0.2c0,0.1-0.1,0.4,0,0.5
	c0.1,0,0.3,0.2,0.3,0.3c0,0.1-0.2,0.4-0.2,0.4s-0.1-0.1-0.2-0.1c-0.1,0-0.4,0.1-0.4,0.1s0.3,0.1,0.4,0c0.1,0,0.4-0.1,0.6-0.1
	C160.8,16.8,161.5,16.8,161.5,16.8z M105.2,0.4c0-0.1,4.4-0.3,6.1-0.4c1.7,0,3,0,2.9,0c-0.1,0.1-1,0.3-1.9,0.3s-4,0-4.8-0.1
	c0,0,0,0-0.7,0c-0.4,0-0.8,0-1.2,0.2c-0.1,0.1-0.1,0.1-0.1,0.1C105.3,0.5,105.2,0.4,105.2,0.4z M92.9,1c-0.6-0.2-1.1-0.3-1-0.4
	c0,0,1.9-0.2,4.1-0.5c0,0,0,0,2.1,0.1c0.2,0,0.2,0,0.2,0c0.3,0,0.5,0.1,0.5,0.1s0.2-0.1,0.4,0c0.1,0.1,0.4,0.2,0.4,0.3
	c0,0-0.4,0-0.9,0.1c0,0,0,0-0.5,0c-0.8,0-0.8,0-0.8,0c-0.9,0-2.3,0.1-3.2,0.2c0,0,0,0-0.8,0.1C92.9,1,92.9,1,92.9,1z M52.9,3.1
	C52.9,3,53,3,53.1,3s2.1-0.1,4.2-0.1c0,0,0,0,1.9-0.1c0.4,0,0.9,0.1,1.3-0.2c0.1-0.1,0.1-0.1,0.1-0.1c0.3,0.1,0.9,0.2,1.4,0.2
	c0,0,0,0,1-0.2c0.5-0.1,0.5-0.1,0.5-0.1c0.6,0,1.1,0.1,1.1,0.2c0,0.1-1.8,0.2-3.9,0.3C58.5,3,52.9,3.1,52.9,3.1z M172.9,6
	c-0.1,0.1-0.4,0.2-0.6,0.2c-0.2,0-1-0.4-1.5-0.6c-0.4-0.2-1.4-1.2-1.3-1.2c0.1-0.1,0.5,0,0.9,0.2s1.7,0.7,1.7,0.8
	c0,0.1,0.3,0.3,0.4,0.4C172.8,5.8,173,6,172.9,6z M169.5,5.9c0.1,0.2,0.1,0.4-0.1,0.4c-0.2,0.1-0.8,0.2-0.9,0.1S168,6.2,168,6.2
	s0-0.3-0.1-0.5c-0.2-0.2-0.5-0.7-0.5-0.7c0.1-0.1,0.4-0.1,0.6,0C168.3,5.1,169.3,5.7,169.5,5.9z M164.6,12.9
	c0.2,0.1,0.8,0.3,0.8,0.3s-0.3,0.1-0.7,0.1s-1.4-0.2-1.4-0.2c0,0.1-0.3,0.2-0.5,0.3c-0.2,0-0.8-0.1-0.7-0.3s0.8-0.1,0.9-0.2
	c0-0.1,0.6-0.3,0.8-0.3C164,12.7,164.3,12.8,164.6,12.9z M55,2.4L55,2.4c0.6-0.1,1.7-0.1,1.7-0.1c2.3,0,3.9,0.1,3.6,0.1
	c0,0,0,0-0.3,0c-1.5-0.1-2.9,0.4-4.3,0.3c-0.2,0-0.2,0-0.2,0C55.1,2.7,55,2.6,55,2.4z M155.4,17.8c0.2,0,0.8,0.1,0.8,0.1
	s-0.1,0.2-0.3,0.3c-0.2,0-0.8,0.2-0.9,0.1l-0.2-0.2c0,0-0.3-0.2-0.8-0.1s-2,0.1-2,0.1c0-0.1,0.3-0.3,0.8-0.2
	c0.4,0.1,2.1-0.3,2.4-0.3c0.3,0,0.4,0,0.3,0.1C155.4,17.6,155.2,17.8,155.4,17.8z M155.9,16.1c0,0.1,0,0.4-0.1,0.6S155,17,154.9,17
	c-0.1-0.1-0.3-0.4-0.3-0.4c0-0.1,0.1-0.3-0.1-0.3c-0.1,0-0.3-0.2,0.1-0.2s1.5-0.1,1.5-0.1S156.1,16.1,155.9,16.1
	C156,15.9,155.8,16,155.9,16.1z M77.4,1.7c-0.2-0.1-0.2-0.2-0.3-0.2c0.7-0.1,1.7-0.3,2-0.2c0.4,0,1.6-0.2,1.9-0.3c0,0,0,0,0.3,0.1
	c0.2,0.1,0.2,0.1,0.2,0.1c0.4,0,0.6,0.1,0.4,0.1c0,0,0,0-0.1,0c-1,0-2,0-3.1,0.1c-0.4,0-0.8-0.1-1.1,0.2C77.7,1.7,77.5,1.7,77.4,1.7
	z M76.7,1.5c-0.5,0-0.4-0.1,0.2-0.1c0,0,0,0,0.1,0.1C77,1.5,76.8,1.5,76.7,1.5z M144.3,16.4c0.1-0.1,0.7-0.4,1.3-0.4
	c0.5,0,2.1,0,2.1,0.1s-0.1,0.3-0.4,0.3c-0.3,0-2.1,0.2-2.5,0.2C144.4,16.6,144.2,16.5,144.3,16.4z M157.8,13.3c0,0,0,0,0-0.1
	s0-0.1,0-0.1c0.1-0.1,0.8-0.2,1-0.2s0.5,0.1,0.5,0.1c0.1,0.1,0.2,0.3,0.2,0.4c0,0.1-0.2,0.3-0.6,0.2
	C158.7,13.5,157.8,13.5,157.8,13.3z M26.9,18.1c-0.2,0-0.3,0-0.5,0c-1.2,0-4.3,0.1-4.3,0c0,0,0.1-0.1,0.3-0.1c0.2,0,0.8-0.1,1-0.2
	C23.4,17.8,25.9,18.1,26.9,18.1z M26.9,18.1C27.6,18.1,27.6,18.1,26.9,18.1L26.9,18.1z M173.3,2.5c0,0,0,0-0.3-0.1
	c-0.8-0.2-1.5-0.6-2.3-0.7c-0.1,0-0.1,0-0.1,0c-0.2-0.2,0.2-0.2,0.8-0.1C172,1.8,173.5,2.4,173.3,2.5z M159.4,19L159.4,19
	c-0.5,0.2-0.5,0.2-0.5,0.2c-0.6,0.1-1.1-0.3-0.9-0.2c0.2,0,0.3,0,0.2,0c-0.1-0.1-0.3-0.3,0-0.3s0.9,0.1,1,0.1
	C159.3,18.7,159.4,18.9,159.4,19z M80.8,3.4c0,0.1,0,0.2,0,0.2s-1.5,0.1-2.1,0.1s-0.5,0,0-0.1C79.3,3.5,80.8,3.3,80.8,3.4z
	 M24.4,17.3c-0.5,0.2-1,0.3-1,0.2c0,0,0.5-0.3,1-0.6c0.6-0.2,2.3-0.2,2.2-0.1C26.6,16.8,25,17.1,24.4,17.3z M152.4,19.4
	c0,0.1-0.3,0.2-0.5,0.2s-0.8,0-0.8-0.1s0.1-0.2,0.2-0.3c0.2,0,0.7-0.1,0.5-0.1c-0.1,0-0.4-0.2-0.4-0.2c0-0.1,0.2-0.2,0.4-0.1
	C152.2,18.8,152.5,19.3,152.4,19.4z M155,19.7c0,0.1-0.2,0.2-0.4,0.3c-0.2,0.1-1.2,0-1.3-0.1s0.1-0.2,0.4-0.2
	C154.1,19.6,155,19.6,155,19.7z M164.4,12.2c0.2,0.1-0.3,0.6-0.6,0.5c-0.4-0.1-0.5-0.3-0.4-0.4C163.5,12.2,164.2,12.1,164.4,12.2z
	 M166,12.9c-0.2,0.1-0.4,0.2-0.3,0.1c0-0.1,0.1-0.3,0-0.4c-0.1-0.1-0.1-0.2,0.1-0.2C165.9,12.5,166.2,12.8,166,12.9z M144.3,15.6
	c-0.2,0.1-0.3-0.2-0.1-0.3c0.3-0.1,0.5-0.1,0.5-0.1S144.5,15.4,144.3,15.6z M83.8,1.3c0-0.1,0.5-0.3,0.7-0.3s0.2,0.1,0,0.1
	C84.3,1.2,83.8,1.3,83.8,1.3z M157.8,12.7c0,0.1-0.2,0.1-0.5,0.1s-1,0-1,0s0.2-0.1,0.5-0.2C157,12.6,157.8,12.6,157.8,12.7z
	 M150.3,19.4c0,0.1-0.4,0.4-0.6,0.3c-0.1-0.1-0.1-0.2,0-0.3C149.9,19.4,150.3,19.3,150.3,19.4z M7.2,16c-0.8,0.3-0.8,0.3-1.3,0.3
	C6.2,15.9,6.2,15.9,7.2,16z M157.9,11.1c0.1,0.1,0.2,0.2,0.1,0.3c-0.1,0-0.2,0.1-0.3,0.1c0,0-0.2-0.1-0.2,0c0,0-0.2,0.1-0.2,0
	C157.3,11.2,157.8,11,157.9,11.1z M51.6,2.7c0-0.1,0.2-0.3,0.4-0.3s0.2,0.4,0,0.4C51.8,2.8,51.6,2.7,51.6,2.7z M164.3,11.5
	c0-0.1,0-0.3,0.2-0.3s0.8,0,0.8,0s-0.1,0.1-0.3,0.1C164.9,11.4,164.3,11.6,164.3,11.5z M11.8,2.1c-0.2,0-0.2-0.1-0.2-0.1
	c0.1-0.1,0.3-0.2,0.5-0.2c0.1,0,0.5,0,0.5,0s0,0.1-0.1,0.1S12.2,2,12.2,2S11.9,2.1,11.8,2.1z M164.2,15.5c0,0.1-0.1,0.3-0.3,0.2
	c-0.2,0-0.7-0.2-0.7-0.2s0.1-0.1,0.3-0.1C163.6,15.4,164.2,15.4,164.2,15.5z M153.3,16.1c-0.1,0-0.5,0-0.5-0.1s0.4-0.2,0.5-0.2
	s0.3,0.1,0.3,0.1s0,0,0,0.1l0,0C153.6,16.1,153.5,16.1,153.3,16.1z M163.7,16.1c0.1,0.5,0,0.5-0.8,0.5
	C163.2,16.5,163.3,16.1,163.7,16.1z M145.5,17.8c0,0,0,0-0.3,0s-0.3,0-0.3,0c-0.3,0-0.5-0.1-0.5-0.1s0.2-0.1,0.5-0.1
	C145.2,17.7,145.9,17.7,145.5,17.8z M147.6,19.2c0.2,0,0.6,0.1,0.6,0.2s-0.1,0.1-0.3,0.1s-0.6,0-0.6-0.1
	C147.4,19.4,147.4,19.2,147.6,19.2z M155.3,15.6c0.1,0,0,0.1-0.3,0.1s-1,0-1,0s0.1-0.1,0.3-0.1S155.2,15.6,155.3,15.6z M2.4,9.2
	c0.1,0,0,0.2-0.2,0.2s-0.3,0-0.3,0C2,9.3,2.2,9.2,2.4,9.2z M162.8,4.7c0.2,0,0.3,0.2,0.2,0.2s-0.3,0-0.3-0.1
	C162.5,4.8,162.6,4.7,162.8,4.7z M3.4,8.4C3.2,8.5,2.7,8.6,2.7,8.6s0.1-0.2,0.2-0.3c0,0,0,0,0.2,0S3.3,8.3,3.4,8.4
	c0.1-0.1,0.3,0,0.3,0C3.7,8.3,3.5,8.3,3.4,8.4z M158,18.1c-0.1,0-0.5-0.1-0.5-0.2s0.1-0.1,0.2-0.1c0.1,0,0.4,0,0.4,0.1
	C158.1,17.9,158.1,18.1,158,18.1z M137.8,20c-0.2-0.1-0.3-0.1-0.3-0.2s0.1-0.2,0.2-0.2C137.7,19.6,137.9,20.1,137.8,20z M162.1,18.3
	c0,0.1-0.1,0.3-0.3,0.3c-0.1,0-0.2-0.2,0-0.3S162.1,18.2,162.1,18.3z M170.3,2.9c-0.1-0.1,0-0.1,0.2-0.1s0.6,0,0.5,0.1
	C170.8,2.9,170.4,2.9,170.3,2.9z M163.3,15.9c-0.1,0.1-0.2,0.2-0.3,0.1c-0.1,0,0.2-0.4,0.2-0.3C163.3,15.8,163.3,15.9,163.3,15.9z
	 M149.4,17c-0.2,0-0.7,0-0.6-0.1c0.1-0.1,0.5-0.1,0.7,0C149.6,16.9,149.6,17,149.4,17z M152.6,16.5c0,0,0.2,0,0.4,0s0.7,0,0.7,0
	s-0.2,0.1-0.4,0.1C153.1,16.5,152.6,16.5,152.6,16.5z M7.8,14.6c0.1,0,0.5,0,0.5,0s-0.1,0.1-0.2,0.1c-0.1,0-0.5,0-0.5-0.1
	C7.5,14.6,7.6,14.6,7.8,14.6z M29.4,19.5c0,0-0.1,0.3-0.3,0.3s-0.2,0-0.1-0.1C29.1,19.6,29.3,19.4,29.4,19.5z M169.1,1.9
	c-0.1,0-0.4,0-0.4-0.1c0,0,0.1,0,0.2-0.1c0,0,0,0,0.1,0s0.1,0,0.1,0c0.1-0.1,0.2-0.1,0.2-0.1C169.3,1.7,169.3,1.9,169.1,1.9z
	 M157.1,19.8c0,0-0.1,0.1-0.2,0.1c-0.1,0-0.5,0-0.5-0.1c0,0,0.1-0.1,0.3-0.1C156.7,19.7,157.1,19.7,157.1,19.8z M85.5,1.2V1.1
	C85.6,1,85.8,0.9,85.8,1s0,0.3,0,0.3C85.7,1.3,85.5,1.3,85.5,1.2z M167.4,11.2c0,0-0.1,0.1-0.2,0.1c-0.1,0-0.4,0-0.4,0
	s0.1-0.1,0.2-0.1C167.2,11.1,167.4,11.2,167.4,11.2z M161.1,18.2c0,0.1-0.2,0.1-0.3,0c0-0.1,0-0.1,0-0.1
	C160.9,18.1,161.1,18.2,161.1,18.2z M143.3,18.9c0,0-0.1,0.1-0.2,0.1c-0.1,0-0.4,0-0.4-0.1c0,0,0.1-0.1,0.2-0.1
	C143,18.9,143.3,18.9,143.3,18.9z M165.6,9.8c0,0-0.1-0.1-0.1-0.2c0-0.1,0-0.3,0-0.3s0.1,0.1,0.1,0.2C165.7,9.5,165.7,9.8,165.6,9.8
	z M158.9,18.1c0,0-0.1,0-0.1-0.1s0-0.2,0-0.2s0.1,0,0.1,0.1V18.1z M142.2,17.9c0,0.1,0,0.3-0.1,0.3v-0.1c0-0.1,0-0.3,0-0.3
	C142.1,17.7,142.2,17.8,142.2,17.9z M3.6,11.2c-0.1,0-0.2,0-0.2,0s0-0.1,0.1-0.1S3.7,11.1,3.6,11.2C3.7,11.2,3.7,11.2,3.6,11.2z
	 M2.8,11.2c0,0,0-0.1,0.1-0.1s0.2,0,0.2,0s0,0.1-0.1,0.1S2.8,11.2,2.8,11.2z M0.1,11.2c0.1,0,0.2,0,0.2,0s0,0.1-0.1,0.1
	S0,11.3,0.1,11.2C0,11.2,0,11.2,0.1,11.2z M158.4,18.2c0-0.1,0-0.2,0.1-0.2c0,0,0.1,0,0.1,0.1C158.5,18.1,158.5,18.3,158.4,18.2
	C158.5,18.3,158.4,18.3,158.4,18.2z M158.5,11.3L158.5,11.3c0.1,0.1,0.1,0.2,0,0.2s-0.2-0.1-0.1-0.1
	C158.4,11.3,158.4,11.3,158.5,11.3z M3.4,13.7c0.1,0,0.2,0,0.2,0s0,0.1-0.1,0.1S3.3,13.8,3.4,13.7C3.2,13.8,3.3,13.7,3.4,13.7z
	 M167.8,8.8c0,0.1,0,0.3-0.1,0.3V9c0-0.1,0-0.3,0-0.3C167.7,8.6,167.8,8.7,167.8,8.8z M5.8,14.8c-0.1,0-0.2,0-0.2,0s0-0.1,0.1-0.1
	S5.9,14.7,5.8,14.8C5.9,14.7,5.9,14.8,5.8,14.8z M162.9,8.7C162.9,8.7,162.9,8.8,162.9,8.7c0,0.1,0,0.2,0,0.2S162.9,8.9,162.9,8.7
	C162.8,8.8,162.9,8.7,162.9,8.7z M169.4,8C169.4,8,169.4,8.1,169.4,8c0,0.1,0,0.2,0,0.2S169.4,8.2,169.4,8
	C169.4,8.1,169.4,8,169.4,8z M0.9,11.5H1C1,11.6,1,11.6,0.9,11.5C0.9,11.6,0.8,11.6,0.9,11.5C0.8,11.6,0.8,11.5,0.9,11.5z M6.1,13.4
	L6,13.3C6,13.3,6.1,13.3,6.1,13.4C6.1,13.4,6.2,13.5,6.1,13.4C6.1,13.5,6.1,13.5,6.1,13.4z M4.2,13.3C4.2,13.4,4.2,13.4,4.2,13.3
	c0,0.1-0.1,0.2-0.2,0.2c0,0,0,0,0-0.1S4.2,13.3,4.2,13.3z M0.5,12.6C0.5,12.6,0.6,12.7,0.5,12.6c0,0.1,0,0.2,0,0.2
	S0.5,12.8,0.5,12.6L0.5,12.6z M168.8,7.5L168.8,7.5c0,0.1,0,0.2,0,0.2S168.8,7.7,168.8,7.5C168.7,7.6,168.7,7.5,168.8,7.5z
	 M11.4,2.3C11.4,2.3,11.4,2.2,11.4,2.3c0-0.1,0.1-0.2,0.2-0.2c0,0,0,0,0,0.1S11.4,2.3,11.4,2.3z M166.1,10.8l0.1-0.1c0,0,0,0,0,0.1
	C166.1,10.9,166.1,10.9,166.1,10.8C166,10.9,166,10.9,166.1,10.8z M166.3,10.6C166.3,10.6,166.4,10.7,166.3,10.6
	c0,0.1-0.1,0.2-0.2,0.2c0,0,0,0,0-0.1C166.2,10.7,166.3,10.6,166.3,10.6z M3.9,13.6L4,13.5C4,13.5,4,13.5,3.9,13.6
	C4,13.6,3.9,13.7,3.9,13.6L3.9,13.6z M162.8,12.2v0.1C162.7,12.4,162.7,12.3,162.8,12.2C162.7,12.3,162.7,12.2,162.8,12.2
	L162.8,12.2z M6.8,14.6v0.1C6.7,14.8,6.7,14.7,6.8,14.6C6.7,14.7,6.7,14.6,6.8,14.6C6.7,14.6,6.8,14.6,6.8,14.6z M4,14.6
	C4,14.6,4,14.7,4,14.6c0,0.1,0,0.2,0,0.2S4,14.8,4,14.6C3.9,14.7,4,14.6,4,14.6z"/>
</svg>
