<?xml version="1.0" encoding="utf-8"?>
<!-- Generator: Adobe Illustrator 22.1.0, SVG Export Plug-In . SVG Version: 6.00 Build 0)  -->
<svg version="1.1" id="Layer_1" xmlns="http://www.w3.org/2000/svg" xmlns:xlink="http://www.w3.org/1999/xlink" x="0px" y="0px"
	 viewBox="0 0 45.6 20" style="enable-background:new 0 0 45.6 20;" xml:space="preserve">
<style type="text/css">
	.st0{fill:#4BAE4F;}
</style>
<path class="st0" d="M44.8,6.9c-1-1.2-3.1-1.6-4.6-1.8c-2-0.2-4.1,0.2-6,0.8c-3.5,1.1-6.7,3-9.9,4.6c-1-0.3-1.9-0.6-2.8-0.9
	c-1.6-0.6-3.2-1.2-4.9-1.9l0,0c3.6-2.3,7.1-4.9,10.4-7.5C27.2,0.1,27.1,0,27,0c-3.9,2.3-7.4,5.1-11.3,7.4C13.5,6.5,11.3,5.6,9,5
	C6.8,4.5,1,3.5,0.2,6.5c-1,3.4,2.6,4.8,5.3,4.8c3.3,0,6.5-1,9.4-2.6c0.3,0.1,0.7,0.3,1,0.4c2.1,0.9,4.2,1.7,6.4,2.4
	c-1.5,0.7-3.1,1.4-4.7,1.9c-1.2-0.4-2.3-0.8-3.6-1c-1.1-0.2-3.3-0.1-3.5,1.4c-0.5,3.6,5.2,1.6,7,1.1c0.1,0,0.2-0.1,0.3-0.1
	c1.2,0.5,2.5,1,3.7,1.5c-1.9,0.8-3.6,1.8-5.2,2.8c-0.4,0.3-0.1,0.8,0.3,0.6c2.3-0.9,4.5-2,6.8-2.9c2,0.5,4.1,0.7,6.3,0.6
	c1.3,0,2.6-0.1,4-0.2c0.4,0,0.8-0.6,0.7-1c-0.2-1.8-2.5-1.9-3.9-1.9c-2.4-0.2-4.8,0.3-7.1,1.1c-1.3-0.4-2.5-0.9-3.7-1.4
	c1.6-0.6,3.1-1.3,4.6-2.1c1.4,0.4,2.7,0.7,4.1,1c4.1,0.8,8.3,0.8,12.3-0.3C43.2,12.3,47.3,9.9,44.8,6.9z M8.1,10.1
	c-1.3,0.2-2.6,0.2-3.8,0C3,9.9,0.2,8.1,2,6.6c0.8-0.8,3-0.5,4-0.5c1.2,0.1,2.3,0.4,3.5,0.7c1.5,0.4,3,1,4.4,1.6
	C12,9.3,10.1,9.8,8.1,10.1z M13,14.6c-0.3,0-0.6,0.1-1,0.1c0.1-0.7,0.4-0.9,1-0.8c0.6,0,1.3,0.1,1.9,0.2c0.2,0,0.3,0.1,0.5,0.1
	C14.6,14.3,13.8,14.5,13,14.6z M28.9,15.9c0.3,0,2.9,0.1,3.8,0.4c-2.1,0.2-4.3,0.3-6.4,0.1c-0.1,0-0.3,0-0.4,0
	C26.9,16.1,27.9,15.9,28.9,15.9z M44.1,9.2c-0.3,1-1.6,1.6-2.4,1.9c-2.2,0.9-4.6,1.1-6.9,1.2c-2.8,0.1-5.7-0.4-8.5-1.1
	c0.7-0.4,1.4-0.8,2.2-1.1c3.9-2,8.5-4.4,13-3.3C42.4,6.9,44.6,7.7,44.1,9.2z"/>
</svg>
