<?xml version="1.0" encoding="utf-8"?>
<!-- Generator: Adobe Illustrator 23.0.3, SVG Export Plug-In . SVG Version: 6.00 Build 0)  -->
<svg version="1.1" id="Layer_1" xmlns="http://www.w3.org/2000/svg" xmlns:xlink="http://www.w3.org/1999/xlink" x="0px" y="0px"
	 viewBox="0 0 300 17.4" style="enable-background:new 0 0 300 17.4;" xml:space="preserve">
<style type="text/css">
	.st0{fill:#3E50B4;}
</style>
<path class="st0" d="M169.5,11c-2.2,1.6-4.7,0-6-0.9c-1.6-1.3-3.5-1.9-5.3-1.9c-6.6-0.3-7.5,7.5-7.5,7.5s4.4-7.2,9.4-4.7
	c0,0,3.5,1.6,4.1,6.3c0,0,1.3-2.2-0.3-4.4C165.4,13.2,167.6,13.8,169.5,11z M128.9,11c2.2,1.6,4.7,0,6-0.9c1.6-1.3,3.5-1.9,5.3-1.9
	c6.6-0.3,7.5,7.5,7.5,7.5s-4.4-7.2-9.4-4.7c0,0-3.5,1.6-4.1,6.3c0,0-1.3-2.2,0.3-4.4C133,13.2,130.8,13.8,128.9,11z M155.7,6.3
	c-2.5-0.3-4.7,2.5-6,4.7c-0.3,0.3-0.3,0.6-0.3,0.9c0-0.3-0.3-0.6-0.3-0.9c-1.3-2.5-3.5-5.3-6-4.7c1.9-2.8,4.7-1.3,6.3,3.5
	C150.6,5,153.8,3.5,155.7,6.3z M148.4,3.5c-0.3-1.6,0.9-3.5,0.9-3.5s1.3,1.9,0.9,3.5C150,4.7,148.4,4.7,148.4,3.5z M169.5,15.7
	c13.5,1.9,27.7,2.2,41.5,0.9c5.7-0.3,11-0.9,16.7-2.2c6-1.3,11.3-2.8,17-4.7c9.7-3.1,19.8-5.3,29.9-5c3.5,0,7.5,0.3,10.7,2.2
	c0.6,0.3,0.9-0.6,0.3-0.6c-2.5-1.3-5.3-1.6-8.2-1.9c-8.8-0.9-17.6,0.3-26.1,2.5c-6,1.6-11.9,3.8-17.9,5.3
	c-5.7,1.3-11.3,2.2-17.3,2.8c-10.1,1.3-20.4,1.3-30.5,0.9c-5.3-0.3-10.7-0.6-16-1.3C169.2,14.8,168.9,15.4,169.5,15.7L169.5,15.7z
	 M129.9,14.8c-13.8,1.9-28.6,2.2-42.5,0.9c-5.7-0.6-11.6-1.3-17.3-2.5c-6-1.3-11.6-3.1-17.3-5C43.7,5.3,34,3.5,24.5,4.1
	c-3.5,0.3-7.2,0.6-10.4,2.2c-0.6,0.3,0,0.9,0.3,0.6C17,5.7,20.1,5.3,23,5C32.1,4.1,41.5,6,50.6,8.5c6,1.6,11.6,3.8,17.6,5.3
	c5.3,1.3,11,2.2,16.7,2.5C95,17.3,105,17.6,115.1,17c5-0.3,10.1-0.6,15.1-1.3C130.8,15.4,130.5,14.8,129.9,14.8L129.9,14.8z
	 M6.3,1.3c-0.3,2.5,2.5,4.4,5,6c0.3,0.3,0.6,0.3,0.9,0.3c-0.6,0-0.9,0.3-1.3,0.3c-2.5,1.3-5.3,3.5-5,6c-2.8-1.9-1.3-4.7,3.5-6.3
	C4.7,6,3.5,3.1,6.3,1.3z M3.5,8.5C1.9,8.8,0,7.5,0,7.5s1.9-1.3,3.5-0.9C4.4,6.9,4.4,8.2,3.5,8.5z M293.7,1.3c0.3,2.5-2.5,4.4-5,6
	c-0.3,0.3-0.6,0.3-0.9,0.3c0.3,0,0.6,0.3,0.9,0.3c2.5,1.3,5.3,3.5,5,6c2.8-1.9,1.3-4.7-3.5-6.3C295,6,296.5,3.1,293.7,1.3z
	 M296.5,8.5c1.6,0.3,3.5-0.9,3.5-0.9s-1.9-1.3-3.5-0.9C295.3,6.9,295.3,8.2,296.5,8.5z"/>
</svg>
