<?xml version="1.0" encoding="utf-8"?>
<!-- Generator: Adobe Illustrator 23.0.3, SVG Export Plug-In . SVG Version: 6.00 Build 0)  -->
<svg version="1.1" id="Layer_1" xmlns="http://www.w3.org/2000/svg" xmlns:xlink="http://www.w3.org/1999/xlink" x="0px" y="0px"
	 viewBox="0 0 300 28" style="enable-background:new 0 0 300 28;" xml:space="preserve">
<style type="text/css">
	.st0{fill:#3E50B4;}
</style>
<path class="st0" d="M135.8,19.8c-9.3-13.4-33.2-22-48.9-19.2c-5.4,1-20.8,3.8-21.4,11.5c-0.3,5.4,7,6.1,10.5,3.5
	c3.8-2.6,1.3-9.3-1.6-11.2C65.8-1.9,54.3,2.9,46.7,8s-15.3,10.5-24,14.7c-5.4,2.6-17.9,7.3-21.1-1c-1-2.2,0-5.1,1.3-7
	c1.6-2.6,10.2-4.2,8.3,0.6c-0.3,0.6,1,1,1.3,0.3c1-2.9-0.6-4.5-3.2-5.1c-4.2-1.3-7.3,2.2-8.6,5.8c-1.6,4.2-0.3,8.6,3.8,10.5
	c5.8,3.2,14.1-0.6,19.2-2.9c8-3.5,15.3-8.6,22.4-13.7c4.2-2.9,8.6-5.4,13.4-6.7c5.4-1.6,12.5-0.6,16,4.2c2.2,3.2,1,6.1-3.5,8.3
	c-4.8-3.8-4.8-6.7-1.3-8.6c17.6-12.8,51.8-4.2,64.2,13.1C135.2,20.7,136.1,20.4,135.8,19.8L135.8,19.8z M43.5,10.5
	c-6.1-0.6-14.7-3.8-18.9,2.2c-0.6,1,0,2.9,1.3,3.5c1.9,0.6,4.2,0,6.1-1c0.6-0.3,0-1.3-0.6-1c-1.3,0.6-2.6,1-3.8,1
	c-1-1.9-0.6-3.2,0.6-3.5c1.3-1,2.9-1,4.5-1.3c3.5-0.3,7.3,1,10.9,1.3C44.4,11.5,44.1,10.5,43.5,10.5L43.5,10.5z M97.8,6.4
	c2.2-0.6,6.1,2.2,2.9,3.2c-1,0.3-2.2,0.3-3.2,0c-2.9-0.6-5.4-2.9-7.3-4.8c-1.9-2.2-5.1-4.2-8-3.2c-0.6,0.3-0.6,1.3,0.3,1.3
	c4.8-0.6,7.3,4.2,10.9,6.4c2.6,1.6,5.4,2.6,8.6,1.6c4.8-1.3-1-7-4.5-5.4C96.5,5.4,97.2,6.7,97.8,6.4L97.8,6.4z M135.2,19.5
	c-1.6-0.3-3.2,1-2.6,2.9c0.6,1.3,1.9,2.2,3.5,1.6c1-0.3,1.9-1.3,1.9-2.6C138.1,20.1,136.5,19.1,135.2,19.5c-0.6,0-0.6,1-0.3,1.3
	c0.3,0.3,1.3,0.3,1.3,0.6s-0.3,1-0.6,1.3s-1,0.3-1.3,0c-1-1-0.3-1.9,0.6-1.9C136.1,20.4,136.1,19.5,135.2,19.5L135.2,19.5z
	 M165.5,20.4C179,1.9,209-2.6,228.2,6.7c0.3,0.3,1,0.6,1.3,0.6c3.8,1.9,3.5,4.8-1,8.6c-4.5-2.2-5.8-5.1-3.5-8.3
	c1.6-2.2,3.8-3.8,6.4-4.2c7.7-2.6,16,1.9,22,6.4c7,4.8,13.7,9.6,21.4,13.4c7.3,3.8,27.8,9.6,24.9-5.8c-1-4.5-4.5-7-8.6-7
	c-2.9,0.3-4.2,2.9-3.2,5.1c0.3,0.6,1.6,0.3,1.3-0.3c-1.6-4.2,5.1-3.5,7-2.2c1.9,1.6,2.6,4.2,2.9,6.7c0.6,9.6-12.8,6.1-17.9,4.2
	c-9.6-3.5-18.2-9.9-26.5-15.7c-8-5.4-17.9-9.6-27.5-4.8c-4.2,2.2-6.1,8.3-2.9,12.1c2.2,2.6,11.2,1.9,10.9-2.6
	c-0.6-8.3-12.8-10.9-18.9-12.1c-16.6-3.8-41.9,4.5-51.8,18.9C164.3,20.4,165.2,20.7,165.5,20.4L165.5,20.4z M256.9,11.5
	c3.5-0.3,7.3-1.3,10.9-1.3c1.9,0,3.8,0.6,5.4,1.6c1,2.9,0.6,3.8-1.6,3.2c-1-0.3-1.6-0.6-2.6-1c-0.6-0.3-1.3,0.6-0.6,1.3
	c1.9,1,4.2,1.6,6.1,1c1.3-0.3,1.9-2.2,1.3-3.5c-4.2-6.1-12.8-2.9-18.9-2.2C256.3,10.5,256.3,11.5,256.9,11.5L256.9,11.5z M203.2,5.1
	c-3.5-1.6-9.3,4.2-4.5,5.4c2.9,1,5.1,0.3,7.7-1c4.2-2.2,6.4-7.7,11.8-7c0.6,0,1-1.3,0.3-1.3c-3.2-0.6-6.1,1.3-8,3.2
	c-1.6,1.6-3.5,3.2-5.8,4.2c-1.3,0.6-2.2,0.6-3.5,0.6c-4.2,0-1.9-4.5,1.9-3.2C203.2,6.7,203.9,5.4,203.2,5.1L203.2,5.1z M165.2,20.4
	c1.3,0,1.6,1,0.6,1.9c-0.3,0.3-1,0.3-1.3,0c-0.3-0.3-0.6-0.6-0.6-1.3C163.9,20.7,164.9,20.7,165.2,20.4c0.6-0.3,0.6-1.3,0-1.3
	c-1.3-0.3-2.6,0.6-2.6,1.9c0,1,0.6,2.2,1.6,2.6c1.3,0.6,2.9-0.3,3.5-1.6c1-1.9-1-3.2-2.6-2.9C164.6,19.5,164.6,20.4,165.2,20.4
	L165.2,20.4z"/>
</svg>
