<?xml version="1.0" encoding="utf-8"?>
<!-- Generator: Adobe Illustrator 22.1.0, SVG Export Plug-In . SVG Version: 6.00 Build 0)  -->
<svg version="1.1" id="Layer_1" xmlns="http://www.w3.org/2000/svg" xmlns:xlink="http://www.w3.org/1999/xlink" x="0px" y="0px"
	 viewBox="0 0 232.2 20" style="enable-background:new 0 0 232.2 20;" xml:space="preserve">
<style type="text/css">
	.st0{fill:#4BAE4F;}
</style>
<path class="st0" d="M119,12.9C119,12.9,119.1,12.9,119,12.9C119.1,12.9,119,12.9,119,12.9S119,12.8,119,12.9z M120.8,8.4L120.8,8.4
	C120.8,8.4,120.7,8.4,120.8,8.4C120.7,8.4,120.7,8.4,120.8,8.4L120.8,8.4z M232.1,7.7h0.1V7.6C232.1,7.6,232.1,7.6,232.1,7.7
	C232,7.7,232,7.7,232.1,7.7z M115,15.9L115,15.9L115,15.9C114.9,15.9,115,15.9,115,15.9z M165,8.7L165,8.7L165,8.7L165,8.7z
	 M116.9,9.1L116.9,9.1c-0.1,0-0.1,0-0.2,0.1C116.8,9.1,116.8,9.1,116.9,9.1L116.9,9.1z M227.2,10.2c0,0,0,0.1,0.1,0.1
	c0,0,0.1,0,0.2,0c-0.1,0-0.1-0.1-0.2-0.1C227.2,10.2,227.2,10.2,227.2,10.2z M139.2,12L139.2,12L139.2,12L139.2,12z M125.9,15.4
	L125.9,15.4L125.9,15.4L125.9,15.4z M120.2,8.3C120.2,8.3,120.2,8.2,120.2,8.3L120.2,8.3L120.2,8.3L120.2,8.3z M111.2,13.6
	L111.2,13.6L111.2,13.6L111.2,13.6L111.2,13.6z M103,10.2L103,10.2L103,10.2L103,10.2L103,10.2L103,10.2L103,10.2z M226.4,10.3
	C226.3,10.3,226.3,10.3,226.4,10.3c-0.1,0.1-0.1,0.2,0,0.3C226.4,10.5,226.4,10.4,226.4,10.3L226.4,10.3L226.4,10.3L226.4,10.3z
	 M101,8.7C101,8.6,101,8.6,101,8.7c0-0.1,0-0.1,0-0.1s0,0-0.1,0C100.9,8.6,100.9,8.6,101,8.7C100.9,8.7,101,8.7,101,8.7z M224.1,5.4
	C224.1,5.4,224.2,5.4,224.1,5.4C224.2,5.4,224.2,5.4,224.1,5.4C224.2,5.4,224.2,5.4,224.1,5.4L224.1,5.4L224.1,5.4z M109.2,14.1
	L109.2,14.1C109.1,14.1,109.1,14.1,109.2,14.1L109.2,14.1C109.1,14.1,109.1,14.1,109.2,14.1L109.2,14.1z M94.4,9.8L94.4,9.8
	L94.4,9.8C94.3,9.8,94.3,9.8,94.4,9.8C94.3,9.8,94.4,9.8,94.4,9.8L94.4,9.8z M232,7.7c0,0.1,0.2,0.2,0,0.3c-0.1,0.1-0.2,0.1-0.2-0.1
	c0,0,0-0.1-0.1-0.1c0,0,0,0.1-0.1,0.1c0,0.1,0,0.1,0,0.2c0.1,0.4-0.1,0.6-0.5,0.7c-0.2,0.1-0.5,0.2-0.7,0.3c-0.1,0.1-0.3,0.2-0.4,0
	c0,0-0.1,0-0.2,0c-0.1,0.1-0.2,0.1-0.3,0h-0.2c0,0.3-0.2,0.3-0.4,0.3c-0.3-0.1-0.2,0.3-0.4,0.3c-0.1,0-0.1,0.2-0.3,0.2
	c-0.3,0-0.6,0.2-0.9,0.1c-0.2-0.1-0.2,0.1-0.2,0.2c-0.2,0-0.4,0-0.5,0.2c-0.1,0.1-0.2-0.1-0.2,0l0,0l0,0l-0.1-0.1
	c-0.1,0-0.2,0.1-0.3,0.1c-0.3-0.1-0.6-0.2-0.9-0.2c-0.1,0-0.2-0.3-0.4-0.1c-0.3-0.4-0.8-0.2-1.3-0.4c-0.1,0-0.2,0-0.2-0.1
	c-0.1-0.1-0.3-0.2-0.9-0.1c-0.2,0-0.2,0.1-0.3,0.2c-0.1,0.1-0.1,0.3-0.2,0.3c-0.1,0.1-0.2,0.4-0.5,0.2c0,0,0,0-0.1,0s0,0.3-0.2,0.2
	s-0.2,0.1-0.2,0.1c-0.1,0.1-0.2,0.1-0.3,0.2c0,0,0,0.2-0.1,0.2s-0.2,0-0.4,0c0.1,0.1,0,0.2-0.1,0.3s-0.2,0.1-0.3,0.2
	s-0.3,0.1-0.3,0.2c-0.2,0.4-0.5,0.5-0.9,0.7l-0.1,0.1c-0.3,0.5-0.5,0.6-1.1,1l-0.1,0.1c-0.1,0.3-0.4,0.4-0.7,0.5
	c-0.1,0.1-0.4,0-0.3,0.3c-0.1,0.1-0.3,0.3-0.4,0.4c-0.2,0.1-0.3,0-0.1,0.2l-0.1,0.1c-0.4,0-0.7,0.2-0.9,0.4c-0.1,0.1-0.2,0.1-0.2,0
	c-0.1,0.1-0.1,0.2-0.2,0.2c-0.2,0.1-0.3,0.2-0.4,0.4c0,0.1-0.1,0-0.1,0c-0.1-0.1-0.1-0.2-0.2,0c-0.1,0.1-0.2,0.2-0.3,0.2
	s-0.2-0.1-0.3,0c-0.3,0.1-0.6,0-0.9,0.1l-0.2-0.1c-0.1,0-0.3,0-0.3-0.1c0,0-0.2,0.1-0.3,0.1c-0.2,0.1-0.6,0.1-0.9,0
	c-0.2,0-0.4-0.3-0.6,0l-0.4-0.1c-0.3-0.1-0.5-0.3-0.8-0.4c-0.1-0.1-0.2-0.1-0.2-0.2c0-0.1-0.1-0.1-0.2-0.1c-0.4,0-0.6-0.2-0.8-0.4
	c-0.2-0.1-0.4-0.2-0.4-0.5c0-0.1-0.1-0.2-0.2-0.2c-0.3-0.1-0.5-0.4-0.8-0.5c-0.1,0-0.1-0.1-0.1-0.2c0-0.2,0-0.5-0.4-0.5
	c-0.1,0-0.2-0.1-0.2-0.3c0-0.1-0.1-0.2-0.2-0.3c-0.1-0.1-0.2,0.2-0.3,0c0-0.1,0.1-0.2-0.1-0.3c-0.1,0-0.1-0.2-0.2-0.3l0,0
	c-0.3-0.3-0.4-0.3-0.6,0.1c0,0.1-0.1,0.1-0.1,0.2c0,0.1,0,0.1-0.1,0s-0.2-0.1-0.3-0.2c-0.1,0-0.2-0.1-0.3-0.1
	c-0.5,0.2-0.9,0.3-1.4,0.4c-0.1,0-0.1,0-0.1,0c-0.1,0.3-0.3,0.3-0.6,0.3h-0.1c-0.1,0.1-0.1,0.2-0.2,0.2h-0.2
	c-0.1,0.1-0.1,0.2-0.2,0.3c-0.1,0.2-0.3,0.4-0.5,0.5c-0.1,0-0.2,0.2-0.3,0h-0.1c-0.1,0.3-0.3,0.3-0.5,0.3c-0.1,0-0.2,0-0.3,0.1
	s-0.3,0.2-0.5,0.2c-0.1,0-0.4,0-0.4,0c-0.1,0.2-0.4,0.2-0.5,0.5c-0.1,0.2-0.2,0.2-0.4,0.3c-0.2,0-0.4,0.1-0.5,0.3
	c-0.2,0-0.4,0.4-0.7,0.2c-0.1-0.1-0.5,0.1-0.8,0.3c-0.1,0-0.2,0-0.3,0s-0.3-0.2-0.4,0h-0.1c-0.2-0.1-0.3-0.2-0.6-0.1
	c-0.1,0.1-0.3-0.1-0.4-0.1l-0.1-0.1c-0.1,0-0.2,0.1-0.3,0.1s-0.3-0.1-0.3-0.1c-0.2,0.2-0.3,0-0.4-0.1c-0.2-0.2-0.4-0.2-0.6-0.3
	c-0.3-0.2-0.4-0.2-0.7-0.5l-0.1-0.1c-0.1,0-0.1,0-0.2-0.1c-0.1-0.1-0.1-0.2-0.2-0.2c-0.1,0,0.1-0.3-0.2-0.1l-0.1-0.1
	c-0.1-0.1-0.2-0.3-0.4-0.3h-0.1c0-0.3-0.4-0.3-0.5-0.6c-0.1-0.1-0.2-0.2-0.3-0.3c-0.1,0-0.2-0.1-0.2-0.2c-0.1-0.1-0.2-0.2-0.3-0.2
	c-0.2,0.1,0-0.3-0.3-0.2c-0.1,0.1-0.1-0.2-0.2-0.3c-0.1-0.1-0.2-0.2-0.2-0.4c0-0.1-0.1-0.2-0.2-0.2c-0.2,0-0.3-0.1-0.3-0.2
	c-0.1-0.3-0.4-0.4-0.6-0.4c-0.1,0-0.3-0.1-0.5-0.1c-0.1,0-0.3-0.1-0.4-0.1c-0.2,0.1-0.3-0.2-0.4,0c0,0-0.2-0.1-0.3-0.2
	c-0.3-0.2-0.9,0-1.1,0.3c0.1,0.3-0.2,0.3-0.3,0.4c-0.1,0.1-0.2,0.3-0.3,0.4c-0.1,0.1-0.3,0.1-0.4,0c-0.1-0.1-0.2,0-0.2,0.1
	c0.1,0.3-0.3,0.3-0.3,0.6l-0.1,0.1c-0.3-0.1-0.6,0.2-0.8,0.2c-0.1,0-0.2,0.1-0.2,0.1c-0.2,0-0.3,0-0.4,0.2c0,0,0,0.1-0.1,0.1
	c-0.3,0-0.5,0.4-0.7,0.5c0,0-0.1,0-0.1,0.1c-0.1,0.1-0.3-0.3-0.3,0c-0.1,0.2-0.2,0.2-0.3,0.2c-0.2,0-0.3,0.1-0.4,0.2
	c-0.1,0.1-0.2,0-0.2,0.1c-0.1,0-0.2,0-0.2,0.1c-0.2,0.1-0.4,0.3-0.6,0.2c-0.1,0-0.2,0-0.2,0c-0.2,0.3-0.5,0.1-0.7,0.3
	c0,0-0.2,0-0.2-0.1s0-0.2-0.2-0.2c-0.4,0-0.8,0.1-1.1-0.1c0,0,0,0-0.1,0c-0.3,0.2-0.5,0-0.7-0.2c-0.1-0.1-0.2-0.1-0.3-0.2
	c-0.2-0.1-0.3-0.2-0.4-0.4c-0.1-0.2-0.2-0.2-0.4-0.2s-0.3,0-0.4-0.2c-0.1-0.2-0.2-0.3-0.4-0.3c-0.1,0-0.1-0.1-0.2-0.1
	c-0.1-0.1-0.3-0.3-0.4-0.3c-0.2,0-0.3-0.2-0.5-0.2c-0.3,0-0.3-0.2-0.4-0.4c0,0-0.1-0.1-0.2-0.1c-0.1-0.1-0.2-0.1-0.2-0.3
	s-0.1-0.4-0.2-0.5c-0.3-0.5-0.4-0.5-0.9-0.8c-0.1-0.1-0.2-0.2-0.2-0.3c0-0.2-0.2-0.3-0.3-0.4c-0.3,0.1-0.3-0.2-0.5-0.3
	s-0.4-0.3-0.5-0.4c-0.1-0.1-0.2-0.2-0.3-0.2c-0.2,0-0.4-0.1-0.5-0.3l0,0c-0.4-0.1-0.8-0.1-1.2,0c-0.1,0-0.2,0.1-0.3,0.2
	c-0.2,0-0.1,0.2-0.2,0.4c-0.1,0.1-0.2,0.1-0.2,0h0.1c0,0,0,0,0-0.1c0,0,0,0-0.1,0.1c-0.2,0-0.3-0.2-0.6-0.1
	c-0.3,0.1-0.4,0.3-0.5,0.5c-0.1,0.1-0.2,0.2-0.3,0.3c-0.3,0.3-0.6,0.6-1,0.8c-0.2,0.2-0.4,0.4-0.7,0.4c-0.2,0.1-0.4,0.4-0.4,0.6
	c0,0.1-0.1,0.3-0.1,0.3c-0.3,0-0.4,0.3-0.6,0.4c-0.1,0.1-0.2,0.2-0.4,0.3c-0.1,0.1,0,0.3-0.1,0.3c-0.2-0.1-0.2,0-0.2,0.1
	c-0.1,0.1-0.2,0.2-0.4,0.2c-0.2,0.1-0.3,0.2-0.4,0.4c-0.2,0.2-0.5,0.4-0.7,0.5l0,0c-0.3,0-0.3,0-0.2,0.2s0.1,0.2-0.1,0.2
	c-0.1,0.2-0.2,0.3-0.4,0.4c-0.2,0.1-0.3,0.3-0.5,0.4c-0.1,0.1-0.2,0.1-0.3,0.2c-0.1,0.1-0.1,0.2-0.2,0.2v0.1
	c0.1,0.2-0.1,0.2-0.3,0.2s-0.2,0.1-0.1,0.2l0,0c-0.2,0.1-0.3,0.2-0.5,0.4c-0.1,0.1-0.2,0.3-0.3,0.4s-0.1,0.1-0.2,0.1
	c-0.1,0.1-0.3,0-0.4,0.3c0,0.1-0.1,0.1-0.2,0.1c0,0-0.1,0-0.1,0.1c0,0.4-0.3,0.3-0.5,0.3s-0.3,0-0.5,0.2c-0.1,0.1-0.3,0.2-0.5,0.1
	s-0.5,0-0.8,0l-0.1,0.1c0,0.2-0.2,0.1-0.2,0.1c-0.4-0.3-0.8-0.3-1.3-0.1c-0.1,0-0.4,0-0.4-0.1c-0.2-0.2-0.4-0.2-0.6-0.2
	c-0.2,0-0.4,0.1-0.5-0.2l0,0c-0.2,0-0.4,0-0.6,0c0-0.2-0.2-0.2-0.4-0.3c-0.1,0-0.2-0.1-0.3-0.2s-0.2-0.1-0.2-0.1
	c-0.1,0.1-0.1,0.1-0.1-0.1c0-0.1-0.1-0.1-0.2-0.1c0,0-0.1,0-0.1-0.1c-0.1-0.2-0.2-0.2-0.4-0.4c-0.1-0.1-0.3-0.2-0.4-0.4
	c-0.1-0.2-0.2-0.3-0.3-0.4c-0.1-0.1-0.3-0.2-0.4-0.3c-0.1-0.1-0.2-0.2-0.4-0.3c-0.1-0.1-0.2-0.3-0.4-0.4c-0.2-0.1-0.2-0.3-0.4-0.4
	c-0.2,0.1-0.2-0.2-0.4-0.2h-0.1c0-0.5-0.6-0.6-0.7-1c0-0.1-0.3,0-0.3-0.1c-0.1-0.2-0.2-0.3-0.5-0.2c-0.1,0-0.3,0-0.4-0.1
	c-0.1-0.1-0.1-0.2-0.2-0.2c-0.2,0-0.3-0.1-0.5-0.1c-0.1,0-0.2,0-0.3,0s-0.2-0.2-0.3-0.2c-0.2,0-0.3,0.1-0.5,0.2
	c-0.1,0-0.1,0.1-0.2,0.1c-0.2,0-0.4,0-0.6,0c-0.2,0-0.4,0.1-0.6,0.1V12c0,0,0,0-0.1,0c0,0,0,0,0.1,0.1c-0.1,0.1-0.4,0.2-0.3,0.5
	c0,0-0.1,0.1-0.1,0c-0.2-0.1-0.2,0.3-0.4,0.1c0,0-0.1,0-0.2-0.1c0,0.1,0,0.1,0.1,0.2c0,0-0.1,0-0.1,0.1c-0.1,0-0.2,0.1-0.3,0.1
	c-0.1,0.2-0.4,0.4-0.5,0.6c-0.1,0.1-0.2,0.3-0.4,0.3h-0.1c-0.1,0.2-0.2,0.4-0.4,0.4s-0.3,0.3-0.5,0.2c0,0-0.1,0-0.1,0.1
	c-0.1,0.4-0.5,0.5-0.9,0.6c-0.3,0.1-0.5,0.4-0.8,0.5c0.1,0.4-0.2,0.2-0.4,0.3c-0.1,0-0.4,0.1-0.4,0.2c0,0.3-0.2,0.1-0.3,0.2
	c-0.5,0.1-0.9,0.4-1.4,0.3h-0.1c-0.2,0-0.4,0.4-0.7,0.1c-0.2-0.1-0.5,0.1-0.7-0.1c-0.2,0.2-0.4,0.1-0.6,0.1c-0.3-0.1-0.5,0-0.8-0.1
	s-0.6-0.1-0.8-0.3c-0.1-0.1-0.2-0.3-0.4-0.1c0,0-0.1,0-0.2-0.1s-0.2-0.1-0.3-0.1c-0.1,0-0.1-0.1-0.2-0.2c-0.2,0.2-0.2-0.1-0.3-0.1
	c-0.1,0-0.2,0-0.3,0c-0.2,0-0.4,0-0.5-0.2h0.1c0,0,0,0,0-0.1c0,0,0,0-0.1,0.1c-0.3,0.1-0.5-0.1-0.6-0.2c-0.1-0.1-0.3-0.2-0.4-0.3
	s-0.2-0.2-0.3-0.4c-0.1-0.1-0.1-0.2-0.3-0.2c-0.2,0-0.4,0.1-0.5-0.1c-0.1-0.1-0.3-0.2-0.5-0.3c-0.1-0.1-0.3-0.1-0.4-0.3
	s-0.3-0.1-0.5-0.2c-0.2-0.1-0.4-0.1-0.5-0.3c-0.1-0.1-0.2-0.1-0.3-0.1c0,0-0.1,0-0.1-0.1c-0.1-0.3-0.1-0.3-0.2-0.2
	c-0.2,0.2-0.2-0.1-0.3,0c-0.1,0.1-0.1,0.1-0.2,0h-0.2c-0.1,0.2-0.2,0-0.3-0.1c-0.1-0.1-0.1-0.1-0.1-0.2c0,0,0,0-0.1,0l0,0
	c0.2,0.3-0.1,0.4-0.3,0.5c-0.2,0.1-0.4,0.1-0.6-0.1c0,0,0,0,0.1,0c0,0,0,0,0-0.1c0,0,0,0-0.1,0.1l-0.1-0.1l-0.1-0.1l-0.1,0.1
	c0.1,0.3-0.2,0.4-0.3,0.6c-0.1,0.1-0.2,0.1-0.3,0.3c0,0.1-0.2-0.1-0.2,0c-0.1,0-0.2,0.3-0.4,0.1c-0.2,0.3-0.6,0.3-0.7,0.7
	c-0.1,0.2-0.3,0.3-0.6,0.3c0,0-0.1,0-0.2,0.1c0.1,0,0.1,0,0.1,0s0,0.1,0,0.2c-0.2,0-0.3,0.3-0.5,0.1c-0.1-0.1-0.2,0-0.2,0.1
	s0.1,0.3-0.2,0.4c0,0.2-0.1,0.2-0.3,0.2c-0.1,0-0.1,0.1-0.2,0.2c0,0,0,0,0-0.1c0,0,0,0-0.1,0c0,0,0,0,0.1,0.1
	c-0.1,0.2-0.2,0.4-0.4,0.6c-0.1,0.1-0.2,0.3-0.4,0.1c-0.1,0.1-0.3,0.2-0.4,0.3c-0.1,0.2-0.2,0.3-0.5,0.4c-0.1,0-0.4,0.1-0.4,0.3
	l-0.1,0.1c-0.3,0-0.3,0.3-0.6,0.4c-0.2,0-0.4,0.2-0.6,0.3c-0.2,0.1-0.3,0.1-0.6,0.1c-0.1,0-0.2,0-0.3,0.1c-0.2,0.2-0.4,0.2-0.7,0.2
	c-0.2,0-0.4,0.3-0.6,0c-0.2,0.1-0.4,0.1-0.6,0.2c-0.1,0-0.2,0-0.2,0c-0.1-0.2-0.3-0.2-0.4-0.2c-0.3,0.1-0.7-0.1-1-0.1
	c-0.1,0-0.3,0-0.1-0.3c0.1-0.1,0-0.3-0.2-0.2h-0.1c-0.1-0.2-0.5-0.1-0.6-0.5c0,0-0.2,0-0.3,0c-0.2,0,0.1-0.1,0-0.2s-0.2-0.2-0.2-0.2
	c-0.2-0.2-0.4-0.4-0.6-0.6c-0.1-0.2-0.3-0.3-0.4-0.4c-0.2-0.2-0.5,0-0.6-0.4c0-0.3-0.5-0.3-0.5-0.7c-0.3,0-0.4-0.4-0.7-0.4h-0.1
	c-0.3-0.4-0.9-0.6-1.1-1.1c0,0-0.1-0.1-0.2-0.1c-0.2-0.1-0.3-0.2-0.5-0.3c-0.1-0.1-0.2-0.2-0.4-0.2c-0.3,0-0.5-0.4-0.8-0.2
	c-0.1,0-0.2,0-0.4,0l0,0l0,0c0,0,0,0,0-0.1c0,0,0,0.1-0.1,0.1s-0.1,0-0.2,0c-0.2,0-0.2-0.3-0.4-0.1c-0.1,0.1-0.3-0.2-0.5,0
	c-0.3-0.2-0.6,0-0.8,0.2c-0.2,0.1-0.4,0.2-0.7,0.3c-0.1,0-0.1,0-0.2,0.1C96.4,14,96.4,14,96,14.1c-0.2,0.1-0.4,0.1-0.5,0.3
	s-0.3,0.4-0.5,0.5s-0.4,0.1-0.5,0.3c0,0-0.1,0-0.1,0.1c-0.1,0.1-0.1,0.3-0.3,0.4C94,15.7,94,16,93.8,16c0,0.2-0.2,0.3-0.3,0.4
	c-0.1-0.1-0.3,0.2-0.4,0l0,0c0,0.3-0.4,0.3-0.5,0.5s-0.5,0.2-0.6,0.4c0,0-0.1,0.1-0.2,0.1c-0.2,0-0.3,0.2-0.4,0.3
	c-0.2,0.6-0.2,0.6-0.6,0.8c-0.3,0.1-0.5,0.2-0.7,0.5c0,0.1-0.2,0.2-0.3,0.2c-0.4,0-0.5,0.3-0.7,0.6C89,20,88.9,20,88.7,20
	c-0.3,0-0.5,0.1-0.7,0.2h-0.1c-0.1,0.1-0.5,0.3-0.6,0.2c-0.2,0-0.3,0.2-0.5,0.1c-0.1-0.1-0.4,0.1-0.5-0.1l0,0
	c-0.3,0.3-0.5,0.1-0.8,0.1c-0.1,0,0-0.1,0-0.1l-0.1-0.1c-0.1,0-0.2,0.1-0.2,0.1c-0.1-0.2-0.3,0-0.4,0s-0.2-0.1-0.3-0.1
	c-0.1-0.1-0.2-0.1-0.3-0.1c-0.1,0-0.1-0.2-0.2-0.2c0,0-0.1-0.1-0.2-0.1c-0.2-0.1-0.4-0.2-0.4-0.5l0,0c-0.3,0-0.5-0.2-0.7-0.4
	c-0.1-0.1-0.2-0.3-0.4-0.2l-0.1-0.1c0-0.2-0.2-0.2-0.3-0.3c-0.3-0.1-0.4-0.4-0.6-0.7c0,0,0-0.1,0-0.2v-0.1c-0.2,0.2-0.4,0-0.6-0.1
	c-0.1-0.1-0.4-0.1-0.3-0.4c-0.3-0.1-0.4-0.4-0.7-0.5c-0.2-0.1-0.4-0.1-0.4-0.4c0,0,0-0.1-0.1-0.1c-0.1-0.1-0.3,0-0.4-0.3
	c0-0.1-0.2-0.2-0.4-0.3c-0.1,0-0.1-0.1-0.2-0.1c-0.2,0-0.3,0-0.4-0.2l-0.1-0.1c-0.1-0.2-0.4,0-0.5-0.3c-0.2,0-0.4-0.2-0.5-0.3
	s-0.3-0.3-0.5-0.1h-0.1c-0.2-0.2-0.3-0.3-0.5-0.1c-0.2,0.1-0.2,0-0.2-0.1c-0.1-0.1-0.1-0.3-0.3-0.3c-0.1,0,0.1-0.2,0-0.3
	c0,0,0-0.2-0.1-0.1c-0.1,0-0.1,0.1,0,0.2c0.1,0.1,0.1,0.2-0.1,0.3S74.5,14,74.3,14c-0.1,0-0.2,0-0.2,0c-0.2,0.2-0.5,0.1-0.7,0
	c-0.1,0-0.4-0.1-0.1,0.2v0.1c-0.2,0-0.3,0.2-0.5,0.1c-0.1,0-0.2-0.1-0.2,0c-0.1,0.2-0.4,0.3-0.5,0.5c0,0.1-0.2,0.1-0.2,0.1
	c-0.1-0.1-0.2,0-0.4,0c-0.2,0-0.2,0.1-0.2,0.2c0,0.2-0.2,0.2-0.2,0.2c0-0.1-0.1-0.2-0.2-0.1c-0.1,0-0.2,0.1-0.2,0.3l0.1,0.1
	c-0.1,0.1-0.3,0.2-0.4,0.2v-0.1v-0.1c0,0-0.1,0-0.1,0.1C70.2,16,70.1,16.1,70,16c-0.2-0.2-0.4,0-0.6,0c-0.1,0-0.3-0.1-0.4-0.1
	s-0.2,0.1-0.3,0.2c-0.1,0-0.2,0-0.3,0C68.2,16,67.9,16,67.7,16l-0.1-0.1c0,0-0.1-0.1-0.2-0.1c-0.5,0.3-0.9-0.1-1.3-0.3
	c0-0.2-0.4-0.1-0.3-0.4L65.7,15c-0.1,0-0.1,0-0.2,0c-0.4,0-0.4,0-0.6-0.4c0,0,0.1-0.3-0.2-0.1c0,0-0.1-0.1-0.2-0.1
	c-0.1-0.1-0.1-0.2-0.2-0.3s-0.2-0.2-0.2-0.3c0.1-0.6-0.1-0.7-0.1-0.8c-0.1-0.1-0.1-0.3-0.3-0.3c0,0,0-0.1-0.1-0.2
	c-0.1-0.1-0.1-0.4-0.4-0.4c0,0,0-0.1-0.1-0.1c0-0.1,0-0.1-0.1-0.2c-0.1-0.1-0.2-0.1-0.3-0.2c0-0.1,0.1-0.1,0-0.2
	c-0.1-0.1-0.1-0.3-0.3-0.4c0-0.2-0.2-0.1-0.3-0.3c-0.1-0.1-0.1-0.2-0.2-0.3c-0.1-0.1-0.2-0.2-0.4-0.2l-0.1-0.1
	c-0.1-0.2-0.1-0.4-0.2-0.4C61.1,9.6,61,9.4,61,9.1L60.9,9c-0.3-0.1-0.6-0.2-0.6-0.5l-0.1-0.1c-0.2,0-0.3-0.1-0.3-0.2
	c0-0.2,0-0.2-0.2-0.3c-0.1,0-0.1-0.2-0.2-0.3c-0.1-0.1-0.2-0.2-0.3-0.3c-0.1-0.1-0.2-0.2-0.3-0.1c-0.2,0-0.4-0.1-0.5-0.1
	c-0.3-0.2-0.5-0.2-0.7-0.2c-0.3,0-0.5-0.1-0.8-0.1c-0.1,0-0.2,0.1-0.3,0.1c-0.1,0.1-0.1,0.2-0.2,0.2c-0.1,0-0.2,0-0.2,0
	c-0.1,0-0.2,0-0.2,0.1c-0.2,0.4-0.5,0.6-0.8,0.9c-0.2,0.2-0.4,0.4-0.6,0.5c-0.3,0.3-0.7,0.4-0.9,0.8c0,0.1-0.1,0.2-0.1,0.2
	c0,0.1-0.1,0.1-0.1,0.1c-0.2,0-0.3,0.1-0.4,0.2c-0.1,0.1,0,0.2-0.2,0.2c0,0,0,0.2-0.1,0.2c-0.1,0.1-0.2,0.1-0.2,0.2
	c0,0.3-0.2,0.4-0.5,0.4c-0.2,0-0.3,0.2-0.4,0.3c0,0.2-0.1,0.3-0.3,0.3c-0.3,0.2-0.5,0.4-0.8,0.6c-0.1,0.1,0.2,0.2,0,0.2
	c-0.1,0-0.2,0.1-0.3,0.1s-0.1,0.1-0.2,0.2c-0.1,0.1-0.1,0.1-0.2,0.2c-0.3,0.2-0.4,0.6-0.8,0.7c-0.1,0-0.1,0.1-0.1,0.2
	c0,0.2,0,0.1-0.2,0.1c-0.1-0.1-0.3,0-0.4,0.1c0,0.2-0.2,0.2-0.3,0.3c-0.2,0-0.3,0.1-0.4,0.3c-0.2-0.1-0.3,0.1-0.5,0
	c-0.3-0.2-0.6-0.1-0.8,0.1c-0.1,0.2-0.4,0.1-0.6,0c-0.1-0.1-0.2-0.1-0.3-0.1s-0.2,0.2-0.4,0c-0.1-0.1-0.3-0.1-0.4-0.1
	c-0.1,0-0.4,0.1-0.4-0.2c0,0,0,0-0.1,0c-0.1,0.4-0.2,0-0.3,0c-0.2-0.1-0.4-0.2-0.6-0.4c0,0-0.1-0.1-0.1-0.2c0-0.1-0.1-0.1-0.2-0.1
	c-0.1,0-0.2,0-0.3-0.1c-0.3-0.1-0.5-0.4-0.9-0.5c-0.1-0.3-0.4-0.4-0.6-0.5c-0.1-0.1-0.1-0.3-0.4-0.4c-0.2,0-0.3-0.2-0.4-0.3
	c-0.3-0.1-0.5-0.4-0.7-0.6c-0.3-0.3-0.7-0.6-1.1-0.7c-0.2-0.1-0.3-0.3-0.5-0.3s-0.3-0.2-0.4-0.3c-0.4-0.1-0.6-0.3-0.9-0.4
	c-0.2,0-0.4,0-0.4-0.3L36.3,9c-0.3,0-0.6-0.1-0.9,0.1c0,0-0.1,0-0.2,0c-0.1-0.1-0.4,0.1-0.5-0.2C34.6,9,34.5,9,34.4,9
	c-0.2,0.1-0.3,0.1-0.5,0.1S33.5,9,33.5,9.3c-0.2,0-0.4,0.1-0.6,0.2C33,10,32.8,9.9,32.6,10c-0.1,0-0.3,0-0.3,0.2
	c0,0.1-0.2,0.1-0.2,0.2L32,10.5c-0.1,0-0.1,0.1-0.2,0.1c-0.6,0.1-1.1,0.4-1.6,0.8c-0.1,0.1-0.3,0.3-0.5,0.1h-0.1
	c-0.1,0.2-0.4,0.2-0.5,0.5c-0.3,0.1-0.6,0.2-0.8,0.3c-0.1,0-0.2,0-0.2-0.1c0,0-0.1,0-0.2-0.1c0,0.1,0,0.1,0,0.2c0,0.1,0.1,0.1,0,0.1
	s-0.1,0-0.2,0c-0.2,0-0.2,0-0.1,0.2l-0.1,0.1c-0.1,0.1-0.4,0-0.3,0.2c0,0-0.1,0-0.2,0s-0.3,0-0.4,0s-0.3,0-0.4,0.1
	c-0.2,0.1-0.4-0.3-0.6,0c0,0,0-0.1-0.1-0.1l-0.1-0.1c-0.1,0.1-0.3,0.2-0.4,0c-0.1-0.1-0.2-0.1-0.4-0.2l-0.1-0.1c0-0.1,0.2-0.1,0-0.2
	c-0.1,0-0.2,0-0.3,0c-0.1,0-0.2,0-0.2-0.1c-0.3-0.2-0.5-0.4-0.8-0.6c-0.2-0.1-0.2-0.4-0.5-0.4c-0.2,0-0.4-0.2-0.5-0.3
	c0.2-0.2-0.1-0.1-0.1-0.2c-0.1-0.1-0.3,0-0.3-0.3c-0.2-0.1-0.4-0.4-0.7-0.4c-0.1,0-0.1,0-0.2-0.1s-0.1-0.4-0.4-0.4
	c0-0.2-0.2-0.3-0.4-0.3c0-0.3-0.4-0.3-0.5-0.5c-0.1-0.1-0.2-0.2-0.3,0c0,0-0.1,0-0.1-0.1c0-0.2,0-0.2-0.2-0.2S18.7,8.1,18.5,8
	S18.2,7.8,18,7.6c-0.1-0.1-0.1-0.1-0.2,0s-0.2,0-0.2-0.1c0-0.2-0.1-0.2-0.2-0.3c-0.3-0.3-0.7-0.5-1-0.8c-0.1,0-0.2-0.1-0.2-0.1
	c-0.1,0-0.2,0-0.2-0.2c-0.1-0.2-0.4-0.3-0.7-0.4S15,5.6,14.8,5.3l-0.1-0.1c-0.3,0-0.6,0-0.8-0.1s-0.3-0.1-0.4,0
	c-0.1,0.1-0.1,0-0.3-0.1c-0.1-0.1-0.2-0.1-0.3-0.1s-0.2,0-0.3-0.1s-0.2-0.2-0.4,0h-0.1c-0.2-0.2-0.4-0.1-0.6-0.1
	c-0.3,0-0.6,0.2-0.8-0.1c0,0-0.2,0-0.3,0s-0.2,0.1-0.3,0.1c-0.2,0-0.4,0.1-0.6,0.2C9.1,5.2,9,5.5,8.7,5.3C8.4,5.6,8,5.6,7.8,6
	c0,0.1-0.1,0.3-0.2,0.3C7.5,6.4,7.4,6.5,7.3,6.6c0,0.1-0.2,0.1-0.3,0.1c0,0-0.1,0-0.1,0.1c0.3,0.3-0.1,0.3-0.2,0.3
	c0,0.2-0.2,0.3-0.4,0.4c-0.1,0-0.1,0.1-0.1,0.2v0.1c-0.3,0-0.4,0.3-0.7,0.3c-0.1,0-0.2,0-0.2,0.1c-0.1,0.1-0.4,0-0.4,0.3
	c0,0.1-0.2,0.1-0.3,0.1c-0.1,0-0.1,0-0.2,0C4.1,8.8,3.6,8.7,3.2,8.8C3.1,8.8,3,9,2.8,9S2.4,9.2,2.2,9.2c-0.4,0-0.7,0.2-1.1,0.2
	c-0.1,0-0.1,0-0.2,0c0.1-0.1-0.2,0-0.2-0.1c0-0.5-0.3-0.9-0.4-1.3c0-0.1,0-0.1,0-0.2s-0.1-0.2,0-0.3c0.1-0.2,0-0.2-0.1-0.3
	C0.2,7.1,0.1,7,0.1,7c0-0.3-0.1-0.6,0.1-0.8c0.1-0.1,0-0.3-0.1-0.4c-0.2-0.3,0-0.4,0.1-0.6c0.2,0,0.2-0.3,0.4-0.2C0.6,4.5,1,5,1,4.6
	c0.2-0.1,0.3-0.1,0.5-0.2c0.1,0,0.3-0.1,0.4-0.1C2,4.2,2.1,4.1,2.2,4.1c0.2-0.1,0.5,0,0.6-0.3l0,0c0.3,0.2,0.4,0,0.6-0.1h0.1
	C3.7,3.8,3.9,3.8,4,3.6c0.1-0.1,0.4,0,0.5-0.2C4.8,3.3,4.9,3.1,5,3c0-0.1,0.1-0.1,0.2-0.2c0.1,0,0.2-0.1,0.2-0.1s0-0.1,0.1-0.2
	c0,0,0.1,0,0.2,0c0-0.1,0-0.2,0-0.2C5.8,2,6.2,1.8,6.5,1.6C6.7,1.4,7,1.4,7.2,1.3c0.1-0.1,0.4-0.1,0.3-0.4C7.6,0.7,7.8,0.6,8,0.5
	c0.3-0.1,0.5-0.1,0.8-0.3c0,0,0.2,0,0.3,0c0.2,0,0.3,0.1,0.5,0c0,0,0,0,0.1,0c0.2-0.1,0.2,0.3,0.4,0.1c0.1-0.1,0.3-0.2,0.4-0.3
	c0.1-0.1,0.2,0,0.3,0.1s0.3,0.2,0.3,0.1c0.1-0.1,0.3-0.1,0.5-0.1l0.1,0.1c0.1,0.2,0.2,0.2,0.4,0.2c0.1,0,0.3,0,0.4,0
	c0.1,0,0.1,0,0.2,0.1c0.2,0.2,0.2,0.2,0.4,0c0.1-0.1,0.2-0.2,0.2,0s0.1,0.3,0.3,0.2l0,0c0.2,0.1,0.5,0.3,0.7,0.4s0.5,0.2,0.7,0.4
	c0.1,0,0.1,0.1,0.2,0.1c0.2,0,0.4,0.1,0.5,0.3c0.2,0.2,0.4,0.3,0.6,0.3c0.4-0.1,0.4,0.2,0.5,0.4c0,0.1,0,0.2,0.1,0.2
	C17,2.7,17.2,2.9,17.3,3c0.2,0.2,0.4,0.3,0.6,0.3c0.4,0.1,0.6,0.4,0.9,0.6C18.9,4,19,4.2,19.2,4.2c0.2,0.1,0.3,0.2,0.4,0.3
	c0,0,0,0,0.1,0.1c0,0.4,0,0.4,0.2,0.5c0.3,0.1,0.6,0.1,0.7,0.4c0.1,0.1,0.3-0.1,0.3,0.2c0,0.1,0.2,0.1,0.3,0.2
	c0.2,0,0.3,0.1,0.4,0.1c0.3,0.2,0.7,0.4,0.8,0.8c0,0.1,0.2,0.2,0.3,0.2c0.3,0,0.5,0.2,0.7,0.5S24,7.8,24.3,8c0.3-0.2,0.5,0,0.8,0
	s0.5,0.1,0.8,0.2H26c0-0.1,0-0.1,0-0.2c0.2,0,0.3,0,0.5,0c0-0.2,0.1-0.1,0.2-0.2s0.3-0.1,0.4-0.1l0.1-0.1c0.1-0.1,0.2-0.2,0.3-0.2
	c0.1,0,0.4,0,0.1-0.3c0.1,0,0.1-0.2,0.2-0.1s0.3,0,0.4-0.1c0.3-0.2,0.7-0.3,1-0.5c0.2-0.1,0.5-0.1,0.8-0.2c0.1,0,0.2,0,0.3,0
	c0-0.1,0-0.2,0-0.2c0.1-0.1,0.2-0.1,0.3-0.1c0.1,0.1,0.2,0.1,0.2,0c0.1-0.1,0-0.3,0.1-0.3c0.1-0.1,0.3,0,0.3-0.1
	c0.1-0.1,0.2-0.1,0.3-0.1c0.1,0,0.2,0,0.2-0.1c0.1-0.1,0.2-0.2,0.3-0.1c0.1,0.1,0.2-0.2,0.4,0c0,0,0.1,0,0.1-0.1
	C32.4,5,32.5,5,32.6,5s0.1,0.2,0.1,0c0-0.3,0.2-0.4,0.4-0.3c0.1,0,0.2-0.2,0.3,0c0.1,0.1,0.2-0.1,0.3-0.1s0.2,0,0.3,0
	c0.2,0.1,0.3,0.1,0.5,0s0.5,0,0.7-0.2l0.1,0.1c0.2,0,0.5,0.2,0.7,0.1c0.2,0,0.3,0,0.4,0.2C36.4,5,36.5,5,36.7,5s0.4,0,0.6,0
	c0,0,0,0,0.1,0.1h-0.1c-0.1,0-0.1,0.1-0.1,0.2s0.1,0.1,0.2,0.1c0.1,0,0.2,0,0.4-0.1c0.2,0,0.4,0,0.5,0.2c0.1,0.4,0.4,0.4,0.6,0.4
	C39,6,39,6.2,39.1,6.2c0.2,0,0.3,0.1,0.4,0.2c0.1,0.1,0.3,0,0.3,0.3c0,0.1,0.2,0.2,0.3,0.3c0.1,0.1,0.2,0.1,0.3,0h0.1
	c0.2,0.2,0.3,0.3,0.5,0.5c0.1,0.1,0.2,0.3,0.4,0.3s0.3,0.2,0.4,0.3c0,0,0,0.1,0.1,0.1s0.3,0.1,0.4,0.1c0.1,0,0,0.3,0.3,0.3
	c0.1,0,0.2,0.2,0.3,0c0.1,0.1,0.3,0.2,0.4,0.3c0,0.2,0.1,0.3,0.2,0.3c0.2,0,0.2,0.2,0.3,0.3s0.3,0,0.4,0.2c0.1,0.1,0.1,0.3,0.3,0.1
	c0.1-0.1,0.2,0.3,0.4,0.1H45c0.3,0.2,0.6,0,0.8,0.1c0,0,0,0.1,0.1,0.1l0.1,0.1c0.1-0.1,0-0.1,0-0.1l0.1-0.1c0.1,0,0.2,0,0.3,0
	s0.1,0,0.2,0c0.2-0.3,0.5-0.3,0.8-0.4c0.1,0,0.3-0.1,0.3-0.3c0,0,0.1-0.1,0.2-0.1C48,9.2,47.9,9,48,9c0.1-0.1,0.2-0.1,0.3-0.1
	c0.1-0.1,0.2-0.1,0.2-0.2c0-0.1,0-0.1,0.1-0.2c0,0,0-0.1,0.1-0.1s0.3-0.1,0.4-0.1c0.2,0,0-0.3,0.2-0.4c0.1-0.1,0.2-0.1,0.3-0.2
	s0.1-0.1,0.1-0.2c0-0.3,0.2-0.2,0.4-0.3C50.2,7,50.4,7,50.6,6.9c0,0,0.1,0,0.1-0.1c0-0.2,0.1-0.3,0.2-0.3c0-0.2,0-0.3,0.3-0.3
	c0.2,0,0.2-0.1,0.3-0.2c0.1-0.2,0.2-0.5,0.4-0.5L52,5.4C52.2,5,52.3,5,52.6,4.8c0.2-0.2,0.6-0.3,0.5-0.7L53.2,4
	c0.1-0.1,0.3-0.2,0.4-0.3c0.2,0.1,0.2-0.2,0.3-0.2s0.2-0.1,0.2-0.1c0.1-0.3,0.5-0.3,0.6-0.5c0.3,0,0.4-0.2,0.6-0.4
	c0.2-0.1,0.5-0.2,0.5-0.5c0.1,0,0.3-0.1,0.4,0c0.3,0.2,0.5,0.1,0.8,0c0.1,0,0.2,0,0.2,0c0.1,0.1,0.2,0.1,0.3,0.2
	c0.1,0.1,0.2,0.1,0.3,0S58,2,58,2.2c0.3,0.1,0.5,0.3,0.8,0.4c0.4,0,0.5,0.4,0.8,0.5v0.1c0,0.2,0.1,0.1,0.2,0.1
	c0.1-0.1,0.2,0,0.3,0.1c0.1,0.2,0.4,0.3,0.4,0.5s0.2,0.2,0.3,0.4c0,0.1,0.1,0.3,0.2,0.4c0.1,0.1,0.2,0.1,0.2,0.3c0,0,0,0.1,0.1,0.1
	c0.2-0.1,0.4-0.1,0.5,0s0.1,0.2,0.3,0.3c0.2,0.1,0.3,0.3,0.4,0.5c0.1,0.2,0.2,0.4,0.5,0.5v0.1c-0.1,0.1-0.1,0.1-0.1,0.1
	c0.2,0,0.2,0.1,0.2,0.3c0,0.1,0.4,0.7,0.6,0.8c0.1,0.1,0.2,0.1,0.2,0.2c0.1,0.2,0.2,0.3,0.3,0.5c0,0.1,0.1,0.1,0.1,0.2
	c0,0.2,0.2,0.4,0.3,0.4c0.3,0,0.5,0.3,0.7,0.4c0.1,0,0.3,0.1,0.1,0.2c0.1,0.1,0.1,0.1,0.2,0.2c0.2,0.1,0.5,0.1,0.4,0.5l0.1,0.1
	c0.4,0.2,0.8,0.5,1.2,0.6c0.1,0,0.2,0,0.2,0h0.1c0.4,0.3,0.7,0,1.1,0c0.3,0,0.4-0.1,0.5-0.4c0-0.3,0.2,0,0.2-0.1
	c0-0.2,0.1-0.1,0.3-0.1c0,0,0.1,0,0.2,0c0.3-0.1,0.6-0.3,0.9-0.3c0,0,0.1,0,0.1-0.1c0.1-0.1,0.3-0.2,0.3-0.3c0-0.2,0.2-0.1,0.3-0.2
	c0.1-0.2,0.2-0.3,0.4-0.2c0.3,0,0.5,0,0.7-0.3l0.1-0.1c0.3,0,0.6-0.1,0.9-0.1c0.1,0.2,0.2,0,0.3,0c0.1,0,0.2-0.2,0.3-0.2
	c0.1,0,0.2,0.2,0.3,0c0.3,0.2,0.6,0.1,0.9,0.1c0.1,0,0.3,0,0.4,0.1S76,9,76.1,9c0.4,0,0.6,0,0.8,0.1c0,0.3,0.3,0.2,0.4,0.3
	s0.2,0.1,0.3,0.2c0.2,0.2,0.2,0.2,0.6,0.3c0.2,0,0.5,0.2,0.7,0.3s0.3,0.3,0.5,0.4c-0.1,0.4,0.2,0.3,0.3,0.3c0.2,0.1,0.4,0.2,0.5,0.3
	l0.1,0.1c0.1,0.2,0.3,0.6,0.4,0.7c0.1,0.1,0.2,0.2,0.2,0.2c0,0.2,0.2,0.3,0.3,0.3c0.2,0,0.4,0,0.4,0.3c0.1,0.1,0.3,0.3,0.4,0.3
	c0.3,0,0.4,0.2,0.5,0.4c0.2,0.3,0.4,0.5,0.7,0.6c0.1,0,0.2,0.1,0.2,0.1l0.1,0.1c-0.1,0.1-0.2,0.2,0,0.3c0,0,0.2-0.1,0.3-0.1l0.1,0.1
	c0.2,0.3,0.4,0.4,0.7,0.5c0,0,0.1,0,0.2,0c0.2-0.2,0.4,0,0.6,0s0.3,0.1,0.5,0s0.4,0,0.7,0c0.2,0,0.5,0,0.5-0.1
	c0.1-0.1,0.1-0.2,0.2-0.2s0.2,0.1,0.2,0h0.1c0.1-0.1,0.2-0.2,0.3-0.3c0.1,0.2,0.2,0,0.4,0c0.2,0,0.2-0.3,0.4-0.4c0,0,0-0.1,0.1-0.1
	s0.2,0,0.3,0c0.1,0,0-0.2,0.2-0.2c0.3,0.1,0.4-0.2,0.6-0.3c0.1-0.1,0.2-0.3,0.5-0.2h0.1c0-0.3,0.4-0.2,0.4-0.5
	c0-0.1,0.1-0.1,0.1-0.2c0.3-0.1,0.5-0.2,0.6-0.5c0-0.1,0.2-0.2,0.3-0.2c0.1,0,0.3-0.1,0.3-0.3l0.1-0.1c0.2,0,0.3-0.1,0.4-0.2
	c0.1-0.1,0.3-0.1,0.1-0.3l0.1-0.1c0.3-0.1,0.5-0.3,0.7-0.5s0.5-0.3,0.7-0.5l0,0c0,0,0.1,0,0.1-0.1l0,0c-0.1-0.1-0.1-0.2,0-0.2
	c0.3,0,0.4-0.1,0.6-0.3c0.1-0.1,0.3-0.2,0.4-0.3c0.2-0.1,0.3-0.1,0.4-0.1h0.1V8.8c-0.1-0.1-0.2-0.2,0.1-0.3c0.1,0,0.2-0.1,0.3-0.1
	c0.1-0.1,0.3-0.2,0.4-0.3c0.1-0.3,0.3,0,0.4,0C97.2,8,97.3,8,97.3,7.9c0.4-0.2,0.8-0.2,1.2-0.1L99.1,8l0.1-0.1c0-0.1,0.1-0.1,0.1,0
	C99.4,8,99.5,8.2,99.6,8c0.1,0.1,0.3,0.1,0.4,0.2c0.1,0.1,0.2-0.1,0.4,0c0.1,0,0.2,0,0.3,0.1c0.1,0-0.2,0.1,0,0.2
	c0.1,0,0.1,0.1,0.1,0.2l0,0c0,0,0,0.1,0.1,0.1l0,0c0.2,0,0.5,0.2,0.7,0.4c0.2,0.1,0.3,0.1,0.4,0.3s0.2,0,0.2,0c0.2,0,0.3,0,0.2,0.2
	c-0.1,0.2-0.1,0.2,0.1,0.2s0.4,0.2,0.4,0.5l0,0c0,0.1,0,0.2,0,0.3l0.1-0.1v-0.1c0.3,0.1,0.5,0.2,0.7,0.4s0.4,0.4,0.7,0.3
	c0.1,0,0.2,0,0.2,0.1c0.1,0.1,0.2,0.3,0.1,0.5c0.3,0,0.4,0.2,0.5,0.3s0.2,0.3,0.4,0.5c0.1,0.2,0.2,0.3,0.4,0.5l0,0
	c0,0.1,0,0.2,0,0.3h0.1c0.1,0,0.2,0,0.3,0.1c0.1,0.1,0.3,0.1,0.4,0.2c0.3,0.2,0.6,0.4,0.8,0.7c0.1,0.1,0.3,0,0.4,0.1
	c0.2-0.2,0.3,0,0.5,0c0.1,0,0.1,0.1,0.1,0.2v0.1c0,0,0-0.1,0.1-0.1c0-0.1,0.1-0.1,0.2-0.1c0,0,0,0.1,0.1,0.1c0,0,0.1,0,0.1-0.1l0,0
	l0,0l0,0c-0.1-0.2,0.1-0.1,0.2-0.1c0.2,0,0.4,0,0.6-0.2h0.1c0.2,0,0.4,0,0.5-0.1s0.2,0.1,0.3,0c0-0.1,0.1-0.1,0.3-0.1l0,0
	c0,0,0,0,0.1,0c0,0,0,0,0-0.1l0,0l0,0l0,0c0-0.2,0.2-0.1,0.3-0.1c0.1,0,0.1,0,0.2,0c0-0.1-0.1-0.1-0.1-0.1c0.1-0.1,0.1-0.3,0.3-0.3
	c0.1,0,0.3-0.1,0.4-0.1c0,0.1,0.1,0.1,0.2,0.1c0.1-0.1,0.1-0.2-0.1-0.2l0,0l0,0l0,0v-0.1c0,0,0,0.1-0.1,0.1l0,0l0,0l0,0l-0.1-0.1
	c0.1-0.2,0.2-0.1,0.3-0.1l0.1,0.1c0,0.1,0.1,0.2,0.1,0.3c0,0,0,0,0.1,0v-0.1c0-0.1,0-0.1,0-0.2c-0.2-0.2-0.2-0.3,0.1-0.4
	c0-0.2,0.1-0.3,0.2-0.5c0.1-0.1,0.2-0.1,0.2,0.1v0.1h0.1c0,0,0.1,0,0.1-0.1c-0.2-0.1,0-0.2,0.1-0.3c0-0.1,0-0.2,0.1-0.3h0.1v0.1
	c-0.1,0.1,0,0.2,0.1,0.1c0.1,0,0.2-0.1,0.2-0.3c-0.1-0.2,0.1-0.3,0.2-0.4c0.1-0.1,0.2-0.1,0.4,0c0,0,0.2,0,0.1-0.2
	c0-0.1-0.1-0.1-0.1-0.2c0-0.1,0.1-0.1,0.1-0.1c0.2,0,0.4-0.2,0.6-0.2s0.4-0.1,0.6-0.1c0,0,0,0,0.1-0.1H116c-0.1-0.1-0.2-0.1-0.3-0.2
	c-0.1-0.1-0.1-0.1,0-0.2c0.2-0.1,0.3-0.4,0.7-0.3c0,0,0.1-0.1,0.2-0.2c0.1-0.1,0.2-0.1,0.3-0.1c0.2,0,0.1-0.1,0-0.2
	c0.1-0.1,0.2-0.1,0.3-0.2c0.2,0,0.2-0.1,0.2-0.2c0-0.2,0.2-0.2,0.4-0.1c0.1,0,0.2,0.1,0.2,0.1c0.1,0.1,0.1,0.1,0.1,0s0-0.1,0-0.2
	c0-0.1,0.1-0.1,0.1,0c0.1,0.2,0.2,0.2,0.2,0c0,0,0-0.1,0.1-0.1l0.1-0.1v0.1c0,0.1,0,0.1,0,0.2c0-0.1,0-0.1,0.1-0.2
	c0.1,0,0.2,0,0.2-0.1c0.1-0.1,0.1-0.1,0.3,0c0.2,0.1,0.1-0.1,0.2-0.2l0.1,0.1c0,0.1,0,0.1,0,0.2c0.2-0.2,0.3,0.3,0.5,0.1l0.1-0.1
	c0-0.1,0-0.2,0.1-0.2s0.1,0.1,0.1,0.2c0,0.2,0,0.2,0.2,0c0.1,0,0.2,0,0.3,0c0.1,0.1,0.2,0.1,0.2,0c0,0,0.1-0.1,0.1,0l0.1,0.1V8.5
	h0.1c0,0.1,0.1,0.1,0.1,0.2c0.1,0,0.1-0.1,0.1-0.1c0.1,0.1,0.1,0.2,0.2,0.3c0.1,0,0.2-0.1,0.3-0.1c0.1,0,0.1,0,0.2,0.2
	s0.4,0.3,0.3,0.6c0,0.1,0.1,0.1,0.2,0.1s0.2,0.1,0.2-0.1c0-0.1,0-0.1,0.1-0.2c0,0,0,0.1,0.1,0.1c0,0.3,0.2,0.3,0.5,0.3h0.1
	c0,0-0.1,0-0.1,0.1c0,0-0.1,0.1,0,0.1c0.1,0.2,0.2,0.4,0.2,0.6c0,0,0.1,0.1,0.2,0.1s0.2,0,0.4-0.1c0.1,0,0.1,0.1,0.2,0.1
	c0,0,0-0.1-0.1-0.2l0,0c-0.1-0.2,0-0.3,0.1-0.2s0.1,0.2,0.2,0.2s0.3,0,0.4,0c0.1,0.1,0.1,0.2,0.2,0.4h0.1c0,0,0.1-0.1,0.1-0.2
	c0.1,0.1,0.2,0.2,0.2,0.3h-0.1c-0.2,0.1-0.1,0.4,0,0.4c0,0,0.1,0,0.1-0.1s0.1-0.1,0.1-0.2c0-0.2,0.1-0.1,0.2,0
	c0.2,0.2,0.3,0.2,0.5,0.3c0.2,0,0.4,0.3,0.7,0.2c0.2-0.1,0,0.3,0.2,0.2s0.2,0,0.3,0.1c0.1,0,0.1,0.2,0.2,0.2c0.1,0,0.3,0,0.4,0
	c0.2,0,0.3,0.1,0.5,0.2c0.2,0.1,0.4,0.2,0.6,0c0.1-0.1,0.2-0.2,0.4-0.1c0.3,0.1,0.5,0.1,0.8,0c0.3-0.2,0.6-0.1,0.9,0
	c0.1,0,0.3,0.1,0.3-0.1L132,12c0.4-0.1,0.7-0.4,1-0.7c0.4,0,0.6-0.5,1.1-0.5c0.1,0,0.4-0.1,0.4-0.3l0.1-0.1c0.2,0,0.3-0.1,0.3-0.2
	c0-0.1,0.1-0.1,0.1-0.2c0.1-0.1,0.2-0.2,0.4-0.4c0.1-0.1,0.3-0.2,0.4-0.3c0.3-0.2,0.6-0.4,0.8-0.7c0,0,0.1,0,0.1-0.1
	c0.2-0.1,0.3-0.4,0.7-0.3c0.2-0.2,0.5-0.3,0.7-0.5s0.3-0.3,0.6-0.3c0.1,0,0.1,0,0.2-0.1c0.2-0.2,0.4-0.2,0.6-0.1
	c0.1,0,0.1,0.1,0.1,0.1c0.1,0,0.2-0.2,0.3-0.2c0.1,0.1,0.3,0.1,0.3,0c0.1-0.2,0.4,0.2,0.5-0.2h0.1c0.2,0.1,0.4,0.2,0.6,0.3h0.1
	c0,0.1,0,0.2,0.1,0.3c0.1,0.2,0.1-0.1,0.2,0c0.1,0,0.2,0.1,0.2,0.1c0.1-0.1,0.2,0,0.3,0.1c0,0.2,0.1,0.2,0.3,0.2
	c0.1,0,0.2,0,0.2,0.1c0.2,0.3,0.6,0.4,0.8,0.8l0.1,0.1c0.3,0,0.4,0.1,0.5,0.3c0.1,0.1,0.3,0.2,0.5,0.3c-0.1,0.1,0,0.2,0.1,0.3
	S145,10,145,10c0.2,0.2,0.3,0.4,0.4,0.6c0,0.1,0.1,0.2,0.2,0.3c0.2,0.2,0.4,0.5,0.6,0.7c0.1,0.1,0.2,0.2,0.2,0.2
	c0.3-0.1,0.3,0.2,0.3,0.3c0.1,0.2,0.2,0.2,0.4,0.1c0.1,0,0.1-0.1,0.1,0c0,0.2,0.1,0.3,0.3,0.3c0.1,0,0.1,0.1,0.2,0.1
	c0.2,0.1,0.3,0.2,0.5,0.2c0.1,0,0.2,0.1,0.2,0.1c0,0.2,0,0.3,0.2,0.2c0.2,0.2,0.5,0.2,0.8,0.3c0.1,0,0.2,0.1,0.2,0.1
	c0.1,0.1,0.2,0.2,0.3,0l0.1,0.1c0,0,0.1,0.1,0.2,0c0.1-0.1,0.2-0.2,0.4-0.1c0.1,0.1,0.3,0.1,0.5-0.1h0.1c0.2,0.2,0.4-0.2,0.5,0.1
	c0,0.1,0.4,0,0.4-0.1c0.1-0.1,0.2-0.2,0.3-0.2c0.3,0,0.4-0.1,0.6-0.2c0.2-0.1,0.4-0.1,0.6-0.3c0.1-0.1,0.1-0.1,0.2,0h0.1
	c0.2-0.2,0.4-0.4,0.6-0.4c0.1,0,0.3-0.2,0.3-0.3c0.1-0.1,0-0.3,0.1-0.4c0.1-0.1,0.3-0.1,0.4-0.2h0.1c0.2-0.5,0.6-0.7,1-0.9
	c0.2-0.1,0.4-0.2,0.5-0.5c0.1-0.2,0.4-0.2,0.5-0.5c0.1-0.2,0.4-0.3,0.5-0.6l0.1-0.1c0.3,0,0.4-0.3,0.5-0.5c0.1-0.1,0.3-0.2,0.4-0.4
	c0-0.2,0.2-0.3,0.4-0.4c0.1-0.1,0.1-0.2,0.1-0.3c0-0.1,0.1-0.2,0.1-0.3c0-0.1,0.1-0.2,0.2-0.1c0.5,0.1,0.7-0.3,1-0.4
	c0,0,0-0.1,0.1-0.1c0-0.1,0.1-0.2,0.1-0.2c0.1-0.1,0.2,0,0.2,0c0.1-0.2,0.4-0.2,0.4-0.5c0-0.1,0.1-0.3,0.3-0.2
	c0.2-0.1,0.4-0.2,0.6-0.4c0.1-0.1,0.1-0.1,0.2-0.1c0.2,0,0.4,0,0.5-0.2s0.3-0.3,0.6-0.4c0.1-0.4,0.4-0.2,0.7-0.2
	c0.1,0.2,0.2,0.1,0.4,0c0.3,0.1,0.7-0.2,1,0c0,0,0.1-0.1,0.2,0c0.1,0.1,0.2,0.2,0.4,0.1c0,0,0.2,0.1,0.3,0.2s0.2,0.2,0.3,0.2
	c0.2,0,0.4-0.1,0.5,0.1c0.1,0.1,0.3,0.2,0.5,0.3c0.1,0.1,0.3,0.2,0.4,0.3c0,0.2,0.2,0.2,0.3,0.3c0.2,0.2,0.5,0.4,0.6,0.7
	c0.1,0.3,0.3,0.3,0.6,0.3c0.2,0.1,0.2,0.1,0.1,0.3c-0.1,0.1-0.2,0.2,0,0.2c0.1,0,0.3,0.2,0.1,0.3c0,0,0,0.1,0.1,0.1
	c0.2,0.2,0.5,0.3,0.6,0.6c0.1,0.3,0.5,0.4,0.6,0.7h0.1c0.2,0.1,0.4,0.2,0.5,0.4l0.1,0.1c0.1,0.2,0.5,0.1,0.5,0.4
	c0,0.3,0.3,0.3,0.5,0.4c0.1,0.1,0.4,0.2,0.6,0.2c0.3,0,0.5,0.1,0.5,0.3c0,0,0,0,0,0.1c0,0,0,0,0.1,0l0,0l0,0l0,0l0,0
	c0.2,0,0.3-0.1,0.4,0c0.2,0.1,0.2-0.1,0.4-0.1c0.1,0,0.3,0,0.4,0c0.3,0,0.4,0,0.7-0.2c0.2-0.1,0.4-0.2,0.7-0.3
	c0.4-0.1,0.6-0.2,0.8-0.5h0.1c0.3,0,0.4,0,0.6-0.2h0.2c0.2-0.2,0.6,0,0.6-0.4c0.4,0,0.5-0.2,0.5-0.5l0,0c0.4-0.2,0.7-0.4,1.1-0.6
	c0.2-0.1,0.4,0,0.4-0.3c0.4,0,0.5-0.5,0.9-0.5c0.1,0,0.1-0.1,0.2-0.2c0.1-0.1,0.2-0.2,0.4-0.2h0.1c0.6-0.4,1.2-0.2,1.8-0.2
	c0.4,0,0.8,0.1,1.1,0.4c0,0,0.1,0.1,0.2,0.1c0.2,0,0.2,0.1,0.3,0.2s0.1,0.2,0.2,0.2c0.2,0,0.3,0.1,0.4,0.2c0.1,0.1,0.1,0.1,0.2,0.1
	c0.1,0,0.2,0,0.2,0.1c0,0.2,0.2,0.4,0.3,0.5c0.3,0.4,0.7,0.7,1,1.2c0.1,0.1,0.1,0,0.2,0c0.2,0,0.3,0.2,0.4,0.3c0,0.1,0,0.2,0.1,0.2
	c0.2,0.1,0.3,0.3,0.4,0.4c0,0,0.1-0.1,0.1,0c0.1,0.1,0.3,0,0.3,0.2c0,0.3,0,0.4,0.3,0.3c0.1,0,0.3,0.1,0.4,0.2
	c0.1,0.1,0.2,0.1,0.3,0.2c0.1,0,0.2,0,0.2,0.2c0,0,0.2,0.1,0.3,0.1c0.2,0,0.4,0.2,0.4-0.1h0.1c0.1,0.2,0.3-0.2,0.3,0
	c0.1,0.3,0.4,0.1,0.6,0.2c0.1,0.1,0.3,0,0.5-0.1c0.1,0,0.1-0.1,0.2-0.1c0.3,0,0.7-0.1,1-0.1c0.1,0,0.3-0.1,0.4-0.2
	c0.3-0.3,0.7-0.4,1.2-0.5c0.2,0,0.3-0.2,0.5-0.3s0.4-0.2,0.5-0.4c0.1-0.3,0.5-0.3,0.8-0.3h0.1c0-0.4,0.4-0.5,0.7-0.6
	c0.1,0,0.2-0.1,0.3-0.2c0.1-0.1,0.3-0.3,0.5-0.3c0.1,0,0.1-0.1,0.2-0.1c0.1,0,0.1-0.1,0.2,0c0.1,0.1,0.2,0.1,0.2-0.1
	c0-0.1,0-0.2,0.2-0.2c0.1,0,0.3-0.1,0.4-0.1c0.1,0-0.2-0.2,0-0.2c0.1,0,0.3,0,0.4,0c0.1,0,0.2-0.1,0.3-0.1s0.2,0.1,0.3,0.1
	s0.2-0.2,0.2-0.2c0.1,0,0.2-0.1,0.3-0.1c0.2,0,0.4,0.1,0.6,0.1c0.3,0.1,0.5,0.3,0.9,0.3c0.2,0,0.3,0.2,0.4,0.3
	c0.2,0.4,0.5,0.6,0.9,0.7c0.1,0,0.3,0.1,0.3,0.3s0.3,0.3,0.4,0.3c0.4-0.1,0.5,0.2,0.6,0.4s0.3,0.1,0.3,0.3h0.1
	c0.1-0.1,0.1-0.1,0.1,0c0.1,0.3,0.2,0.4,0.5,0.5c0.1,0,0.2,0.1,0.3,0.1s0.1,0.2,0.2,0.2c0.1,0.1,0.4,0.1,0.5,0.3
	c0.4-0.1,0.6,0.4,0.9,0.2c0.2,0.1,0.4,0.1,0.6,0.1c0.2,0,0.4-0.1,0.5-0.1c0.2,0,0.4,0,0.6-0.1c0.1,0,0.2-0.1,0.4-0.2
	c0.1-0.1,0.2-0.2,0.3-0.2c0.2,0,0.3,0.1,0.5,0c0.2,0,0.3-0.2,0.5-0.2s0.3-0.1,0.5-0.1s0.3-0.3,0.5-0.1c0,0,0.2-0.1,0.3-0.2
	c0.1-0.1,0.1-0.2,0.2-0.2c0.3-0.1,0.6-0.2,0.8-0.5c0.1-0.2,0.3-0.4,0.6-0.3c0.2,0,0.3-0.1,0.4-0.3c0.1-0.3,0.4-0.4,0.7-0.6
	c0,0,0.1,0,0.2,0c0.1,0,0.2-0.1,0.2-0.1c0-0.1,0-0.2,0.1-0.2s0.2-0.1,0.2-0.1c0-0.2,0.3-0.2,0.4-0.4c0.1-0.4,0.4-0.6,0.7-0.7
	s0.6-0.4,0.9-0.6c0.1-0.1,0.2-0.2,0.3-0.2l0.1-0.1c0-0.1,0-0.2,0.1-0.3c0.1-0.1,0.2,0.1,0.2,0c0.2-0.2,0.6-0.3,0.7-0.6
	c0-0.1,0.2-0.1,0.3-0.2c0.1,0,0.2-0.1,0.2-0.2c0-0.2,0.4-0.2,0.6-0.2c0.3,0,0.6,0.2,0.9,0h0.1c0.1,0.2,0.3,0.2,0.5,0.1
	c0.1-0.1,0.2-0.1,0.3-0.1c0.1,0.1,0.1,0.2,0.2,0.4c0,0,0,0,0,0.1l0,0c0,0,0,0,0,0.1c0,0,0,0,0.1,0l0,0l0,0c0.1,0,0.2,0.1,0.3,0.2
	c0.1,0,0.1,0.1,0.2,0.1c0.2,0,0.4,0.1,0.5,0.2c0.1,0,0.4,0.2,0.4,0.1c0.2-0.2,0.3,0.1,0.4,0l0.1-0.1V5.7l0.1,0.1
	c0.1,0.1,0.2,0.1,0.4,0.1c0.1,0,0.2,0,0.2,0c0.2,0.3,0.5,0.1,0.7,0.2s0.5,0.1,0.7,0.1s0.3,0.1,0.5,0s0.4,0,0.6-0.1
	c0.2-0.1,0.4,0,0.6-0.1c0.1,0,0.1-0.1,0.2,0c0.4,0.2,0.4,0.2,0.9,0c0.1,0,0.1-0.1,0.2,0c0.1,0.1,0.1,0.3,0.3,0.3
	c0.1,0,0.3,0.2,0.3,0.3c-0.1,0.3,0.2,0.4,0.3,0.5c0.1,0.2,0.2,0.2-0.1,0.3v0.1C231.9,7.7,231.9,7.7,232,7.7z M1.2,5.1
	C1.2,5.1,1.2,5,1.2,5.1C1.1,5,1.1,5,1.2,5.1C1.1,5.1,1.1,5.1,1.2,5.1L1.2,5.1z M16.3,2.6L16.3,2.6c-0.1-0.1-0.1-0.1-0.1,0
	C16.2,2.7,16.2,2.7,16.3,2.6C16.3,2.7,16.3,2.7,16.3,2.6z M16.4,2.4C16.4,2.4,16.4,2.3,16.4,2.4c-0.1,0-0.1,0-0.1,0H16.4L16.4,2.4z
	 M17.4,3.5C17.4,3.5,17.4,3.4,17.4,3.5C17.3,3.4,17.3,3.4,17.4,3.5C17.3,3.5,17.3,3.5,17.4,3.5L17.4,3.5z M24.3,9.6
	C24.2,9.6,24.2,9.6,24.3,9.6c-0.1,0-0.1,0-0.1,0C24.2,9.6,24.2,9.6,24.3,9.6C24.2,9.6,24.3,9.6,24.3,9.6z M25,12.6
	C25,12.6,25,12.5,25,12.6L25,12.6L25,12.6L25,12.6z M26.1,12.3C26.1,12.2,26.1,12.2,26.1,12.3c-0.1,0-0.1,0-0.1,0
	C26.1,12.3,26.1,12.3,26.1,12.3L26.1,12.3z M26.9,9.2C26.9,9.2,26.9,9.1,26.9,9.2c-0.1-0.1-0.1,0-0.1,0s0,0.1,0.1,0.1V9.2z
	 M29.7,6.6l-0.1-0.1c0,0-0.1,0-0.1,0.1C29.5,6.6,29.5,6.6,29.7,6.6C29.6,6.7,29.7,6.6,29.7,6.6z M31.5,10.4
	C31.5,10.4,31.5,10.3,31.5,10.4c-0.1,0-0.1,0-0.1,0C31.5,10.4,31.5,10.4,31.5,10.4L31.5,10.4z M31.6,9.3C31.6,9.2,31.6,9.2,31.6,9.3
	c-0.1,0-0.1,0-0.1,0C31.6,9.3,31.6,9.3,31.6,9.3L31.6,9.3z M32.5,7.9L32.5,7.9C32.5,7.9,32.4,7.9,32.5,7.9C32.4,8,32.4,8,32.5,7.9z
	 M32.5,7.9L32.5,7.9L32.5,7.9C32.5,8,32.5,7.9,32.5,7.9z M32.6,7.8L32.6,7.8L32.6,7.8C32.5,7.9,32.5,7.9,32.6,7.8
	C32.6,7.9,32.6,7.9,32.6,7.8z M33.3,9.5C33.3,9.5,33.3,9.4,33.3,9.5C33.2,9.5,33.2,9.5,33.3,9.5C33.2,9.5,33.2,9.5,33.3,9.5
	L33.3,9.5z M35,5C35,4.9,35,4.9,35,5C34.9,5,34.9,5,35,5L35,5L35,5z M38,6.2L38,6.2C38,6.2,38,6.1,38,6.2C38,6.1,38,6.1,38,6.2
	C37.9,6.2,38,6.2,38,6.2z M38,6.2C38,6.2,38,6.3,38,6.2C38.1,6.3,38.1,6.3,38,6.2C38.1,6.3,38.1,6.3,38,6.2z M38.1,6.3
	C38.1,6.3,38.1,6.2,38.1,6.3C38.1,6.2,38.1,6.2,38.1,6.3C38.1,6.2,38.1,6.3,38.1,6.3z M40.4,10.3c0,0-0.1,0-0.1-0.1
	c0,0-0.1,0-0.1,0.1C40.2,10.4,40.2,10.4,40.4,10.3C40.3,10.4,40.3,10.4,40.4,10.3z M41.8,12.3L41.8,12.3
	C41.7,12.3,41.7,12.3,41.8,12.3C41.7,12.3,41.7,12.3,41.8,12.3C41.8,12.4,41.8,12.3,41.8,12.3z M55.5,2.8
	C55.5,2.8,55.5,2.7,55.5,2.8c-0.1-0.1-0.1,0-0.2,0C55.4,2.8,55.5,2.8,55.5,2.8L55.5,2.8z M56.1,2.9L56.1,2.9C56,2.9,56,2.9,56.1,2.9
	C56,2.9,56,2.9,56.1,2.9C56,2.9,56.1,2.9,56.1,2.9z M58.4,3C58.4,2.9,58.4,2.9,58.4,3C58.3,3,58.3,3,58.4,3C58.3,3,58.3,3,58.4,3z
	 M58.4,3L58.4,3L58.4,3L58.4,3z M58.5,2.9L58.5,2.9C58.5,2.8,58.4,2.9,58.5,2.9C58.4,2.9,58.4,2.9,58.5,2.9
	C58.4,2.9,58.5,2.9,58.5,2.9z M59.8,3.7C59.8,3.6,59.8,3.6,59.8,3.7C59.8,3.6,59.8,3.6,59.8,3.7L59.8,3.7L59.8,3.7z M60.2,3.6
	L60.2,3.6C60.1,3.6,60.1,3.6,60.2,3.6C60.1,3.7,60.1,3.7,60.2,3.6C60.1,3.7,60.2,3.7,60.2,3.6z M60.3,4.2
	C60.3,4.2,60.2,4.2,60.3,4.2C60.2,4.2,60.2,4.2,60.3,4.2C60.2,4.2,60.2,4.2,60.3,4.2C60.2,4.2,60.3,4.2,60.3,4.2z M64.9,11.8
	C64.9,11.8,64.9,11.7,64.9,11.8L64.9,11.8L64.9,11.8L64.9,11.8z M65.6,11.6C65.6,11.6,65.6,11.5,65.6,11.6c-0.1-0.1-0.2-0.1-0.2-0.1
	v0.1C65.5,11.6,65.5,11.6,65.6,11.6z M69.7,14.8C69.7,14.7,69.7,14.7,69.7,14.8C69.6,14.7,69.6,14.7,69.7,14.8
	C69.6,14.8,69.6,14.8,69.7,14.8L69.7,14.8z M71.2,14C71.2,14,71.2,13.9,71.2,14C71.2,13.9,71.2,13.9,71.2,14L71.2,14L71.2,14z
	 M72.9,13.5L72.9,13.5C72.8,13.5,72.8,13.5,72.9,13.5C72.8,13.5,72.8,13.6,72.9,13.5C72.8,13.6,72.9,13.5,72.9,13.5z M75.7,8.8
	C75.7,8.8,75.7,8.7,75.7,8.8C75.7,8.7,75.6,8.7,75.7,8.8L75.7,8.8L75.7,8.8z M77.6,13.8l-0.1-0.1l-0.1,0.1c0,0.1,0.1,0.1,0.1,0.2
	C77.6,13.9,77.6,13.8,77.6,13.8z M80.4,12.4L80.4,12.4C80.4,12.4,80.5,12.4,80.4,12.4C80.5,12.4,80.4,12.4,80.4,12.4L80.4,12.4z
	 M80.5,14.6C80.5,14.6,80.4,14.5,80.5,14.6c-0.1-0.1-0.2-0.1-0.3,0c0.1,0.1,0.1,0.1,0.1,0.1C80.4,14.7,80.5,14.7,80.5,14.6z
	 M82.7,17.6v-0.1h-0.1C82.6,17.5,82.6,17.5,82.7,17.6C82.6,17.6,82.7,17.6,82.7,17.6z M82.9,14.3C82.9,14.2,82.9,14.2,82.9,14.3
	C82.8,14.3,82.8,14.3,82.9,14.3L82.9,14.3L82.9,14.3z M83.9,18.8L83.9,18.8c-0.1-0.1-0.1-0.1-0.2,0H83.9
	C83.8,18.8,83.8,18.8,83.9,18.8z M84.1,18.9C84.1,18.9,84.1,18.8,84.1,18.9L84.1,18.9L84.1,18.9L84.1,18.9z M85.5,18.8
	C85.4,18.8,85.4,18.7,85.5,18.8C85.4,18.8,85.4,18.8,85.5,18.8C85.4,18.8,85.4,18.8,85.5,18.8C85.4,18.8,85.5,18.8,85.5,18.8z
	 M86.2,19.7C86.2,19.6,86.2,19.6,86.2,19.7C86.2,19.6,86.2,19.6,86.2,19.7L86.2,19.7L86.2,19.7z M90.1,13.5
	C90.1,13.4,90,13.4,90.1,13.5C90,13.5,90,13.5,90.1,13.5C90,13.5,90,13.5,90.1,13.5C90,13.5,90.1,13.5,90.1,13.5z M95.3,9.6
	C95.3,9.6,95.3,9.5,95.3,9.6L95.3,9.6L95.3,9.6L95.3,9.6z M96.7,12.1C96.7,12.1,96.6,12.1,96.7,12.1C96.6,12.1,96.6,12.1,96.7,12.1
	C96.6,12.1,96.6,12.1,96.7,12.1C96.7,12.2,96.7,12.1,96.7,12.1z M96.8,8.8L96.8,8.8C96.7,8.8,96.7,8.8,96.8,8.8
	C96.7,8.8,96.7,8.8,96.8,8.8C96.7,8.8,96.8,8.8,96.8,8.8z M96.9,12.9C96.9,12.9,96.9,12.8,96.9,12.9C96.8,12.9,96.8,12.9,96.9,12.9
	C96.8,12.9,96.8,12.9,96.9,12.9L96.9,12.9z M97.1,12.8C97.1,12.8,97.1,12.7,97.1,12.8C97,12.8,97,12.8,97.1,12.8
	C97,12.8,97,12.8,97.1,12.8L97.1,12.8z M98.1,7.9L98.1,7.9C98,7.9,98,8,98.1,7.9C98,8,98,8.1,98.1,8.1C98.1,8,98.1,8,98.1,7.9z
	 M106,15.3C105.9,15.3,105.9,15.2,106,15.3C105.9,15.3,105.9,15.3,106,15.3C105.9,15.3,105.9,15.3,106,15.3
	C105.9,15.3,105.9,15.3,106,15.3z M106.6,17.4C106.6,17.4,106.6,17.3,106.6,17.4C106.5,17.4,106.5,17.4,106.6,17.4
	C106.5,17.4,106.5,17.4,106.6,17.4L106.6,17.4z M107,17.4C107,17.4,107,17.3,107,17.4C107,17.3,107,17.3,107,17.4L107,17.4L107,17.4
	z M109.7,15.6L109.7,15.6C109.6,15.6,109.6,15.6,109.7,15.6C109.6,15.6,109.6,15.6,109.7,15.6L109.7,15.6z M110,16.8L110,16.8
	C109.9,16.8,109.9,16.8,110,16.8L110,16.8L110,16.8z M110.1,14.2C110.1,14.1,110.1,14.1,110.1,14.2C110,14.2,110,14.2,110.1,14.2
	L110.1,14.2L110.1,14.2z M111.8,14.5c0,0,0.1-0.1,0-0.1c0,0-0.1-0.1-0.2-0.1c0,0,0,0,0,0.1C111.8,14.4,111.8,14.5,111.8,14.5z
	 M111.9,17.9L111.9,17.9C111.8,17.9,111.8,17.9,111.9,17.9c-0.1,0-0.1,0.1,0,0.1C111.9,18,111.9,18,111.9,17.9z M112.2,13.3
	C112.3,13.3,112.3,13.3,112.2,13.3C112.3,13.3,112.3,13.3,112.2,13.3C112.3,13.3,112.3,13.2,112.2,13.3
	C112.3,13.2,112.2,13.3,112.2,13.3z M112.3,13.6L112.3,13.6C112.2,13.6,112.2,13.6,112.3,13.6C112.2,13.6,112.3,13.6,112.3,13.6
	L112.3,13.6z M112.6,15.5C112.5,15.5,112.5,15.4,112.6,15.5C112.5,15.4,112.5,15.4,112.6,15.5C112.5,15.5,112.5,15.5,112.6,15.5
	C112.5,15.5,112.5,15.5,112.6,15.5z M112.9,13.5L112.9,13.5C113,13.5,113,13.5,112.9,13.5C113,13.5,113,13.5,112.9,13.5
	C112.9,13.4,112.9,13.5,112.9,13.5z M112.8,17.1L112.8,17.1C112.8,17.2,112.8,17.2,112.8,17.1z M112.9,17.2L112.9,17.2
	c0,0,0,0.1-0.1,0.2C112.9,17.3,112.9,17.2,112.9,17.2z M113.1,17L113.1,17C113,16.9,113,16.9,113.1,17L113.1,17
	C113,17.1,113.1,17.1,113.1,17z M113.2,13.3C113.2,13.2,113.1,13.2,113.2,13.3c-0.1,0-0.2,0-0.2,0S113.1,13.3,113.2,13.3L113.2,13.3
	z M113.3,12.3L113.3,12.3c-0.1,0-0.1,0.1-0.1,0.1s0,0,0.1,0.1C113.3,12.4,113.3,12.3,113.3,12.3z M113.4,13.1
	C113.4,13,113.4,13,113.4,13.1c-0.1,0-0.1,0.1-0.1,0.1s0,0,0.1,0.1C113.4,13.1,113.4,13.1,113.4,13.1z M113.7,12.7
	C113.7,12.7,113.6,12.7,113.7,12.7C113.6,12.7,113.6,12.7,113.7,12.7c-0.1,0-0.1,0.1,0,0.1C113.6,12.8,113.6,12.8,113.7,12.7z
	 M114.1,12.2C114.1,12.2,114,12.1,114.1,12.2c-0.1-0.1-0.2,0-0.2,0v0.1C114,12.2,114.1,12.2,114.1,12.2z M114.2,12.3
	C114.2,12.3,114.3,12.3,114.2,12.3c0.1,0.1,0.1,0.1,0.2,0c0,0,0-0.1-0.1-0.1C114.3,12.2,114.3,12.2,114.2,12.3z M114.4,13.2
	C114.4,13.2,114.4,13.3,114.4,13.2c0,0.1,0,0.1,0,0.1S114.4,13.3,114.4,13.2L114.4,13.2z M114.3,15.6
	C114.3,15.6,114.3,15.5,114.3,15.6C114.2,15.6,114.2,15.6,114.3,15.6C114.2,15.6,114.2,15.6,114.3,15.6L114.3,15.6z M114.4,14
	c0-0.1,0-0.1-0.1-0.2c0,0,0,0.1-0.1,0.1c0,0.1,0.1,0.1,0.1,0.2C114.4,14,114.4,14,114.4,14z M114.8,11.5
	C114.8,11.5,114.9,11.5,114.8,11.5c0-0.1,0-0.2-0.1-0.2s-0.1,0-0.2,0l0,0C114.6,11.5,114.7,11.5,114.8,11.5z M114.9,12.9
	C114.8,12.9,114.8,12.9,114.9,12.9C114.8,12.9,114.8,12.9,114.9,12.9C114.8,12.9,114.8,13,114.9,12.9
	C114.8,13,114.9,12.9,114.9,12.9z M115,15.1C115,15.1,114.9,15.1,115,15.1C114.9,15.1,114.9,15.1,115,15.1
	C114.9,15.2,114.9,15.2,115,15.1C115,15.2,115,15.1,115,15.1z M115.2,11.8L115.2,11.8C115.1,11.8,115.1,11.8,115.2,11.8
	C115.1,11.8,115.1,11.9,115.2,11.8C115.2,11.9,115.2,11.9,115.2,11.8z M115.3,11c0-0.1-0.1-0.1-0.1-0.2c0,0,0,0.1-0.1,0.1
	c0,0.1,0,0.1,0.1,0.2C115.2,11.1,115.3,11,115.3,11z M115.4,11.3C115.4,11.3,115.4,11.2,115.4,11.3
	C115.4,11.2,115.3,11.3,115.4,11.3C115.3,11.3,115.4,11.3,115.4,11.3L115.4,11.3z M115.5,10.9C115.5,10.8,115.5,10.8,115.5,10.9
	C115.4,10.9,115.4,10.9,115.5,10.9c-0.1,0-0.1,0.1,0,0.1V10.9z M116,14.7C116,14.7,115.9,14.7,116,14.7
	C115.9,14.7,115.9,14.7,116,14.7C115.9,14.7,115.9,14.7,116,14.7L116,14.7z M116.2,10.1L116.2,10.1c-0.1-0.1-0.1-0.1-0.1-0.1
	C116.1,10.2,116.1,10.2,116.2,10.1C116.1,10.2,116.2,10.2,116.2,10.1z M116.1,11.1C116.1,11.2,116.1,11.2,116.1,11.1
	C116.1,11.2,116.2,11.2,116.1,11.1C116.2,11.2,116.1,11.1,116.1,11.1L116.1,11.1z M116.2,13.7L116.2,13.7
	C116.1,13.7,116.1,13.7,116.2,13.7c-0.1,0-0.1,0.1,0,0.1C116.2,13.8,116.2,13.8,116.2,13.7z M116.3,12.7
	C116.3,12.7,116.2,12.7,116.3,12.7c-0.1,0-0.2,0-0.2,0C116.1,12.7,116.2,12.8,116.3,12.7C116.3,12.8,116.3,12.7,116.3,12.7z
	 M116.8,13.8C116.7,13.8,116.7,13.8,116.8,13.8c-0.1-0.1-0.2,0-0.2,0C116.6,13.8,116.6,13.8,116.8,13.8
	C116.7,13.8,116.7,13.8,116.8,13.8z M116.5,10.8c0,0,0.1,0,0.1,0.1L116.5,10.8C116.7,10.8,116.7,10.8,116.5,10.8
	C116.6,10.8,116.6,10.8,116.5,10.8z M116.9,14l-0.1-0.1c0,0.1,0,0.1-0.1,0.1s-0.2,0.1-0.3,0.1c0.1,0.1,0.1,0.1,0.2,0.1l0.1-0.1V14
	C116.8,14.1,116.8,14,116.9,14z M117.4,13.6L117.4,13.6C117.3,13.6,117.3,13.6,117.4,13.6C117.3,13.6,117.3,13.6,117.4,13.6
	L117.4,13.6z M117.4,9.6c0-0.1,0-0.1-0.1-0.2c-0.1,0-0.1,0.1-0.1,0.1c0,0.1,0.1,0.1,0.1,0.2C117.4,9.7,117.4,9.7,117.4,9.6z
	 M117.6,13v-0.1V13c-0.1,0.1-0.1,0.1,0,0.2C117.6,13.1,117.6,13.1,117.6,13z M117.7,9.2C117.7,9.2,117.8,9.2,117.7,9.2
	c0.1,0,0.1-0.1,0.1-0.1s0,0-0.1,0C117.8,9.1,117.7,9.1,117.7,9.2z M117.8,13.4C117.8,13.4,117.8,13.3,117.8,13.4
	c-0.1-0.1-0.2,0-0.2,0v0.1C117.8,13.4,117.8,13.4,117.8,13.4z M118.1,13.4C118,13.3,118,13.3,118.1,13.4
	C118,13.4,118,13.4,118.1,13.4C118,13.4,118,13.4,118.1,13.4C118,13.4,118.1,13.4,118.1,13.4z M118.3,12.9
	C118.2,12.9,118.2,12.9,118.3,12.9c-0.1-0.1-0.2,0-0.2,0V13C118.2,13,118.2,13,118.3,12.9z M118.5,9.2
	C118.5,9.1,118.5,9.1,118.5,9.2C118.4,9.1,118.4,9.2,118.5,9.2C118.4,9.2,118.4,9.2,118.5,9.2L118.5,9.2z M119.1,8.9
	c0,0,0.1,0,0.1,0.1L119.1,8.9C119.2,8.8,119.2,8.8,119.1,8.9C119.1,8.8,119.1,8.8,119.1,8.9z M119,9.2C119.1,9.2,119.1,9.2,119,9.2
	c0.1,0,0.2,0,0.2,0l-0.1-0.1C119.1,9.1,119.1,9.2,119,9.2z M119.1,12.1c0,0,0.1,0,0.1-0.1c0,0-0.1,0-0.1-0.1
	C119.1,12,119.1,12,119.1,12.1L119.1,12.1z M119.3,12.5C119.3,12.5,119.2,12.5,119.3,12.5C119.2,12.5,119.2,12.5,119.3,12.5
	c-0.1,0-0.1,0.1,0,0.1C119.3,12.6,119.3,12.6,119.3,12.5z M119.4,11.7C119.4,11.7,119.3,11.7,119.4,11.7
	C119.3,11.7,119.3,11.7,119.4,11.7C119.3,11.7,119.3,11.7,119.4,11.7L119.4,11.7z M119.6,8.8C119.6,8.8,119.6,8.9,119.6,8.8
	C119.7,8.8,119.7,8.8,119.6,8.8C119.7,8.8,119.7,8.8,119.6,8.8L119.6,8.8z M119.6,9.3L119.6,9.3L119.6,9.3L119.6,9.3z M119.5,9.3
	L119.5,9.3C119.6,9.2,119.6,9.2,119.5,9.3C119.5,9.2,119.5,9.3,119.5,9.3z M119.6,12.8L119.6,12.8C119.5,12.8,119.5,12.8,119.6,12.8
	L119.6,12.8L119.6,12.8z M119.7,12.6L119.7,12.6C119.7,12.5,119.6,12.6,119.7,12.6C119.6,12.6,119.7,12.6,119.7,12.6L119.7,12.6z
	 M119.8,9.2c0-0.1,0-0.2-0.1-0.2c0,0-0.1,0.1-0.1,0.2C119.7,9.2,119.7,9.3,119.8,9.2C119.7,9.3,119.8,9.3,119.8,9.2z M120,9.4
	L120,9.4C120,9.3,120,9.4,120,9.4L120,9.4L120,9.4z M120.3,11.1C120.3,11.2,120.3,11.2,120.3,11.1C120.4,11.2,120.4,11.1,120.3,11.1
	L120.3,11.1z M120.4,11.2C120.4,11.3,120.4,11.3,120.4,11.2C120.5,11.3,120.5,11.3,120.4,11.2z M120.6,11.3c-0.1,0-0.1-0.1-0.2-0.1
	c0,0,0,0-0.1,0C120.5,11.2,120.5,11.2,120.6,11.3z M120.7,11v-0.1h-0.1C120.6,11,120.6,11,120.7,11C120.7,11.1,120.7,11,120.7,11z
	 M120.8,9.1c0-0.1,0-0.1,0-0.2h-0.1C120.7,9.1,120.7,9.1,120.8,9.1C120.8,9.2,120.8,9.1,120.8,9.1z M120.9,12L120.9,12
	c-0.1,0-0.1,0.1-0.1,0.1s0,0,0.1,0.1C120.9,12.1,120.9,12.1,120.9,12z M121,9.1C121,9.1,120.9,9.1,121,9.1c-0.1,0-0.1,0.1-0.1,0.2
	h0.1C121,9.2,121,9.2,121,9.1z M121.4,11.6C121.3,11.6,121.3,11.6,121.4,11.6C121.3,11.5,121.3,11.6,121.4,11.6
	C121.3,11.6,121.3,11.6,121.4,11.6C121.3,11.6,121.4,11.6,121.4,11.6z M121.4,10.8C121.4,10.8,121.3,10.8,121.4,10.8
	c-0.1,0-0.1,0.1-0.1,0.1s0,0,0.1,0.1C121.4,10.9,121.4,10.9,121.4,10.8z M121.5,11.9L121.5,11.9C121.4,11.9,121.4,11.9,121.5,11.9
	C121.4,11.9,121.4,12,121.5,11.9C121.4,11.9,121.5,11.9,121.5,11.9z M121.8,11.2C121.8,11.1,121.8,11.1,121.8,11.2
	c-0.1-0.1-0.2-0.1-0.2,0v0.1C121.7,11.2,121.7,11.2,121.8,11.2z M122,11L122,11L122,11C122,11.1,122,11.1,122,11
	C122,11.1,122,11,122,11z M122.2,12.1L122.2,12.1C122.1,12.2,122.2,12.2,122.2,12.1z M122.3,12.2C122.3,12.2,122.3,12.1,122.3,12.2
	c0,0,0,0.1-0.1,0.2C122.2,12.3,122.2,12.2,122.3,12.2z M122.3,12L122.3,12L122.3,12C122.3,12.1,122.3,12.1,122.3,12z M122.9,12.3
	L122.9,12.3C122.8,12.3,122.8,12.3,122.9,12.3C122.8,12.4,122.9,12.4,122.9,12.3C122.9,12.4,122.9,12.4,122.9,12.3z M123.6,13.3
	C123.6,13.2,123.6,13.2,123.6,13.3c-0.2,0-0.3,0-0.5,0.1v0.1l0.1,0.1C123.4,13.5,123.5,13.4,123.6,13.3z M123.7,10
	C123.7,9.9,123.7,9.9,123.7,10c-0.3-0.1-0.2,0.1-0.3,0.1l0,0c0,0,0,0.1,0.1,0.1C123.6,10.1,123.6,10,123.7,10z M125.5,11.4
	L125.5,11.4c0.1-0.1,0.1-0.1,0.1-0.2h-0.1C125.5,11.3,125.5,11.3,125.5,11.4z M125.3,10.9c0,0,0,0.1,0,0.2
	C125.3,11.1,125.4,11.1,125.3,10.9C125.4,11,125.4,10.9,125.3,10.9C125.4,10.9,125.3,10.9,125.3,10.9z M125.1,10.6
	C125,10.6,125,10.7,125.1,10.6C125.1,10.7,125.1,10.7,125.1,10.6C125.1,10.7,125.1,10.7,125.1,10.6z M124.9,10.6L124.9,10.6
	C125,10.6,125,10.6,124.9,10.6C125,10.6,125,10.6,124.9,10.6C125,10.5,124.9,10.6,124.9,10.6z M125,10.7L125,10.7
	C125.1,10.7,125.1,10.7,125,10.7L125,10.7z M125.1,14L125.1,14C125.1,14,125,14,125.1,14C125,14,125.1,14,125.1,14L125.1,14z
	 M125.1,11.5C125.1,11.5,125.1,11.4,125.1,11.5C125,11.5,125,11.5,125.1,11.5C125,11.5,125,11.5,125.1,11.5L125.1,11.5z M125.2,13.8
	L125.2,13.8C125.1,13.8,125.1,13.8,125.2,13.8L125.2,13.8L125.2,13.8z M125.3,14.6L125.3,14.6C125.3,14.6,125.3,14.7,125.3,14.6
	C125.3,14.7,125.3,14.7,125.3,14.6C125.3,14.7,125.3,14.7,125.3,14.6z M125.7,11.9c0-0.1-0.1-0.1-0.2-0.1s-0.1-0.2-0.2,0
	c0,0-0.1,0.1,0,0.1S125.5,11.9,125.7,11.9C125.6,11.9,125.7,11.9,125.7,11.9z M126.4,13.8C126.4,13.8,126.4,13.7,126.4,13.8
	C126.4,13.7,126.4,13.7,126.4,13.8L126.4,13.8L126.4,13.8z M126.5,15.1L126.5,15.1L126.5,15.1L126.5,15.1L126.5,15.1z M129.8,13.8
	C129.7,13.7,129.7,13.7,129.8,13.8c-0.1,0-0.1,0-0.1,0S129.7,13.8,129.8,13.8C129.7,13.8,129.7,13.8,129.8,13.8z M136.7,13.8
	C136.7,13.8,136.6,13.8,136.7,13.8c-0.1,0-0.2,0-0.2,0C136.5,13.9,136.6,13.9,136.7,13.8C136.7,13.9,136.7,13.9,136.7,13.8z
	 M138.8,12.2C138.8,12.2,138.7,12.1,138.8,12.2C138.7,12.2,138.7,12.2,138.8,12.2C138.7,12.2,138.7,12.2,138.8,12.2
	C138.7,12.2,138.8,12.2,138.8,12.2z M140.1,8.5c0,0-0.1-0.1-0.2-0.1c0,0,0,0,0,0.1c0.1,0.1,0.1,0.1,0.2,0.2
	C140.1,8.6,140.1,8.5,140.1,8.5z M151.8,14.1L151.8,14.1c-0.1,0-0.1,0-0.1,0S151.7,14.1,151.8,14.1
	C151.8,14.2,151.8,14.1,151.8,14.1z M152,13.6C152,13.6,152,13.5,152,13.6c-0.1,0-0.1,0-0.1,0S151.9,13.6,152,13.6L152,13.6z
	 M153.4,13.2L153.4,13.2c-0.1,0-0.1,0-0.1,0C153.4,13.2,153.4,13.3,153.4,13.2C153.4,13.3,153.4,13.2,153.4,13.2z M172.3,9
	C172.3,9,172.2,9,172.3,9c-0.1,0-0.1,0-0.1,0S172.2,9,172.3,9L172.3,9z M174.8,13.4C174.8,13.4,174.8,13.3,174.8,13.4
	C174.8,13.3,174.8,13.4,174.8,13.4L174.8,13.4L174.8,13.4z M190,13.8C190,13.8,190,13.7,190,13.8C190,13.7,190,13.7,190,13.8
	L190,13.8L190,13.8z M190.1,10.6C190.1,10.6,190.1,10.5,190.1,10.6c-0.1,0-0.1,0-0.1,0C190.1,10.6,190.1,10.6,190.1,10.6L190.1,10.6
	z M190.5,13.7c0,0,0-0.1-0.1-0.1c0,0,0,0.1-0.1,0.1C190.4,13.7,190.4,13.8,190.5,13.7C190.5,13.8,190.5,13.8,190.5,13.7z M191.5,14
	L191.5,14c-0.1-0.1-0.1-0.1-0.1,0S191.4,14.1,191.5,14C191.4,14.1,191.5,14.1,191.5,14z M192.1,14.2L192.1,14.2c-0.1,0-0.1,0-0.1,0
	C192.1,14.2,192.1,14.2,192.1,14.2L192.1,14.2z M194.2,14.1C194.2,14.1,194.2,14,194.2,14.1c-0.1,0-0.1,0-0.1,0
	C194.1,14.1,194.1,14.1,194.2,14.1L194.2,14.1z M195.3,15.2L195.3,15.2c-0.1,0-0.1,0-0.1,0H195.3L195.3,15.2z M196.1,14
	C196.1,14,196.1,13.9,196.1,14c-0.1,0-0.1,0-0.1,0S196,14,196.1,14L196.1,14z M196.8,12.5C196.8,12.5,196.7,12.5,196.8,12.5
	c-0.1,0-0.1,0-0.1,0S196.7,12.6,196.8,12.5C196.7,12.6,196.7,12.5,196.8,12.5z M197.5,10.8C197.5,10.8,197.5,10.7,197.5,10.8
	C197.5,10.7,197.5,10.7,197.5,10.8C197.4,10.8,197.5,10.8,197.5,10.8L197.5,10.8z M198.1,13.5C198.1,13.5,198,13.5,198.1,13.5
	c-0.1,0-0.1,0-0.1,0S198,13.5,198.1,13.5L198.1,13.5z M198.3,13.7L198.3,13.7C198.2,13.7,198.2,13.7,198.3,13.7
	C198.2,13.8,198.2,13.8,198.3,13.7C198.3,13.8,198.3,13.7,198.3,13.7z M198.8,9.2C198.9,9.2,198.9,9.3,198.8,9.2c0.1,0,0.1,0,0.1,0
	C198.9,9.2,198.9,9.2,198.8,9.2C198.9,9.2,198.9,9.2,198.8,9.2z M199,12.9c0,0,0-0.1-0.1-0.1c0,0,0,0.1-0.1,0.1
	C198.9,12.9,198.9,13,199,12.9C198.9,13,199,13,199,12.9z M199.9,9.2L199.9,9.2L199.9,9.2L199.9,9.2C199.9,9.3,199.9,9.2,199.9,9.2z
	 M200.6,9.4L200.6,9.4C200.5,9.4,200.5,9.4,200.6,9.4C200.5,9.4,200.5,9.5,200.6,9.4C200.6,9.5,200.6,9.5,200.6,9.4z M204.6,11.6
	L204.6,11.6c-0.1,0-0.1,0-0.1,0S204.5,11.6,204.6,11.6C204.5,11.6,204.6,11.6,204.6,11.6z M207.5,14.1C207.5,14,207.5,14,207.5,14.1
	C207.5,14,207.5,14,207.5,14.1C207.5,14,207.5,14.1,207.5,14.1L207.5,14.1z M226,9.3c0-0.1,0-0.1-0.1-0.2c0,0,0,0.1-0.1,0.1
	c0,0.1,0.1,0.1,0.1,0.2C225.9,9.3,226,9.3,226,9.3z M226.6,10L226.6,10c-0.1,0-0.1,0-0.1,0S226.5,10,226.6,10L226.6,10z M227,10
	C226.9,10,226.9,10,227,10c-0.1,0-0.1,0-0.1,0S226.9,10,227,10C226.9,10,226.9,10,227,10z M227.9,9.9C227.9,9.9,227.9,9.8,227.9,9.9
	c-0.1,0-0.1,0-0.1,0C227.8,9.9,227.9,9.9,227.9,9.9L227.9,9.9z M228.9,8L228.9,8c-0.1,0-0.1,0-0.1,0C228.8,8,228.8,8,228.9,8
	L228.9,8z M174.6,10.2L174.6,10.2C174.6,10.1,174.6,10.1,174.6,10.2L174.6,10.2L174.6,10.2z M124.7,10.4
	C124.7,10.4,124.6,10.4,124.7,10.4C124.6,10.4,124.6,10.4,124.7,10.4L124.7,10.4C124.6,10.5,124.6,10.5,124.7,10.4
	C124.7,10.5,124.7,10.5,124.7,10.4z M99.5,12.7L99.5,12.7c-0.1,0-0.1,0.1-0.1,0.1v0.1l0.1-0.1C99.6,12.8,99.6,12.8,99.5,12.7
	L99.5,12.7L99.5,12.7z M112.3,12.9L112.3,12.9V13V12.9L112.3,12.9C112.4,12.9,112.4,12.9,112.3,12.9z"/>
</svg>
