<?xml version="1.0" encoding="utf-8"?>
<!-- Generator: Adobe Illustrator 23.0.3, SVG Export Plug-In . SVG Version: 6.00 Build 0)  -->
<svg version="1.1" id="Layer_1" xmlns="http://www.w3.org/2000/svg" xmlns:xlink="http://www.w3.org/1999/xlink" x="0px" y="0px"
	 viewBox="0 0 300 12.6" style="enable-background:new 0 0 300 12.6;" xml:space="preserve">
<style type="text/css">
	.st0{fill:#3E50B4;}
</style>
<path class="st0" d="M157.2,12.6c-2.1,0-4.6,0-6.7-1.1c-2.1-0.7-4.2-2.5-4.2-5.3c0-2.5,2.5-4.2,4.2-5.3c2.1-1.1,4.2-1.1,6.7-1.1
	c-2.1,0.4-4.2,0.7-6.3,1.8c-1.8,1.1-3.9,2.5-3.9,4.6s1.8,3.5,3.9,4.6C152.6,11.9,154.7,12.3,157.2,12.6z M157.2,12.6
	c-2.1,0-4.6,0-6.7-1.1c-2.1-0.7-4.2-2.5-4.2-5.3c0-2.5,2.5-4.2,4.2-5.3c2.1-1.1,4.2-1.1,6.7-1.1c-2.1,0.4-4.2,0.7-6.3,1.8
	c-1.8,1.1-3.9,2.5-3.9,4.6s1.8,3.5,3.9,4.6C152.6,11.9,154.7,12.3,157.2,12.6z M142.8,12.6c2.1-0.4,4.2-0.7,6.3-1.8
	c1.8-1.1,3.9-2.5,3.9-4.6s-1.8-3.5-3.9-4.6c-1.8-1.1-4.2-1.4-6.3-1.8c2.1,0,4.6,0,6.7,1.1c2.1,0.7,4.2,2.5,4.2,5.3
	c0,2.5-2.5,4.2-4.2,5.3C147.4,12.6,145.3,12.6,142.8,12.6z M146.7,6H25.9V7h120.8V6z M135.8,10.9c1.4-0.4,3.2-0.7,4.6-1.4
	c1.4-0.7,2.5-1.8,2.5-3.2s-1.4-2.5-2.5-3.2c-1.4-0.7-2.8-1.1-4.6-1.4c1.4,0,3.2,0,4.6,0.7c1.4,0.7,3.2,1.8,3.2,3.9s-1.8,3.2-3.2,3.9
	C139,10.9,137.6,10.9,135.8,10.9z M130.9,9.5c1.1,0,2.1-0.4,2.8-1.1c0.7-0.4,1.8-1.1,1.8-2.1c0-0.7-0.7-1.4-1.8-2.1
	c-0.7-0.4-1.8-0.7-2.8-1.1c1.1,0,2.1,0,3.2,0.4s2.1,1.1,2.1,2.5s-1.1,2.1-2.1,2.5C133,9.5,132,9.5,130.9,9.5z M29.1,2.5l-3.5,3.9
	l3.5,3.5 M25.6,2.5l-3.5,3.9l3.5,3.5 M16.8,1.4C11.6,5.6,0,6.3,0,6.3S11.6,7,16.8,11.2c0,0,2.1-2.8,5.3-4.2c0.7-0.4,0.7-1.4,0-1.4
	C18.9,4.2,16.8,1.4,16.8,1.4z M42,6.3c0,1.4-1.1,2.5-2.5,2.5s-2.5-1.1-2.5-2.5s1.1-2.5,2.5-2.5C41,3.5,42,4.9,42,6.3z M34.3,6.3
	c0,1.1-0.7,1.8-1.8,1.8c-1.1,0-1.8-0.7-1.8-1.8s0.7-1.8,1.8-1.8C33.6,4.6,34.3,5.3,34.3,6.3z M46.2,4.6c1.1,0,1.8,0.7,1.8,1.8
	s-0.7,1.8-1.8,1.8s-1.8-0.7-1.8-1.8S45.2,4.6,46.2,4.6z M274.1,6H153.3V7h120.8V6z M164.2,1.8c-1.4,0.4-3.2,0.7-4.6,1.4
	s-2.5,1.8-2.5,3.2s1.4,2.5,2.5,3.2c1.4,0.7,2.8,1.1,4.6,1.4c-1.4,0-3.2,0-4.6-0.7c-1.4-0.7-3.2-1.8-3.2-3.9s1.8-3.2,3.2-3.9
	C161,1.8,162.4,1.8,164.2,1.8z M169.1,3.2c-1.1,0-2.1,0.4-2.8,1.1c-0.7,0.4-1.8,1.1-1.8,2.1c0,0.7,0.7,1.4,1.8,2.1
	c0.7,0.4,1.8,0.7,2.8,1.1c-1.1,0-2.1,0-3.2-0.4c-1.1-0.4-2.1-1.1-2.1-2.5s1.1-2.1,2.1-2.5C167,3.2,168,3.2,169.1,3.2z M270.9,9.8
	l3.5-3.5l-3.5-3.9 M274.4,9.8l3.5-3.5l-3.5-3.9 M283.2,11.6c5.3-4.2,16.8-4.9,16.8-4.9s-11.2-1.1-16.8-5.3c0,0-2.1,2.8-5.3,4.2
	c-0.7,0.4-0.7,1.4,0,1.4C281.1,8.8,283.2,11.6,283.2,11.6z M258,6.3c0-1.4,1.1-2.5,2.5-2.5c1.4,0,2.5,1.1,2.5,2.5s-1.1,2.5-2.5,2.5
	C259,8.8,258,7.7,258,6.3z M265.7,6.3c0-1.1,0.7-1.8,1.8-1.8c1.1,0,1.8,0.7,1.8,1.8s-0.7,1.8-1.8,1.8C266.4,8.1,265.7,7,265.7,6.3z
	 M253.8,4.6c1.1,0,1.8,0.7,1.8,1.8s-0.7,1.8-1.8,1.8S252,7.4,252,6.3S252.7,4.6,253.8,4.6z"/>
</svg>
