<?xml version="1.0" encoding="utf-8"?>
<!-- Generator: Adobe Illustrator 23.0.3, SVG Export Plug-In . SVG Version: 6.00 Build 0)  -->
<svg version="1.1" id="Layer_1" xmlns="http://www.w3.org/2000/svg" xmlns:xlink="http://www.w3.org/1999/xlink" x="0px" y="0px"
	 viewBox="0 0 300 15.5" style="enable-background:new 0 0 300 15.5;" xml:space="preserve">
<style type="text/css">
	.st0{fill:#2E3192;}
</style>
<path class="st0" d="M153.8,3.8L150,7.9l-3.8-4.1L150,0L153.8,3.8z M153.8,11.7l-3.8,3.8l-3.8-3.8l3.8-3.8L153.8,11.7z M161.7,3.8
	l-4.1,4.1l-3.8-4.1l3.8-3.8L161.7,3.8z M161.7,11.7l-4.1,3.8l-3.8-3.8l3.8-3.8L161.7,11.7z M146.2,3.8l-3.8,4.1l-3.8-4.1l3.8-3.8
	L146.2,3.8z M146.2,11.7l-3.8,3.8l-3.8-3.8l3.8-3.8L146.2,11.7z M5.7,8.2c2.5,0,5.1,0,7.6,0c6.9,0,13.9,0,21.2,0
	c10.4,0,20.5,0,30.9,0c12.6,0,25.3,0,37.9,0c13.9,0,27.8,0,41.7,0s27.8,0,41.7,0c12.9,0,26.2,0,39.2,0c11.1,0,22.1,0,33.2,0
	c7.9,0,15.8,0,23.7,0c3.8,0,7.6,0,11.4,0c0.3,0,0.3,0,0.6,0c0.6,0,0.6-0.9,0-0.9c-2.5,0-5.1,0-7.6,0c-6.9,0-13.9,0-21.2,0
	c-10.4,0-20.5,0-30.9,0c-12.6,0-25.3,0-37.9,0c-13.9,0-27.8,0-41.7,0c-13.9,0-27.8,0-41.7,0c-12.9,0-26.2,0-39.2,0
	c-11.1,0-22.1,0-33.2,0c-7.9,0-15.8,0-23.7,0c-3.8,0-7.6,0-11.4,0c-0.3,0-0.3,0-0.6,0C5.1,7.3,5.1,8.2,5.7,8.2L5.7,8.2z M296.8,6
	l-1.9,1.9L293.1,6l1.9-1.9L296.8,6z M296.8,9.5l-1.9,1.9l-1.9-1.9l1.9-1.6L296.8,9.5z M300,7.9l-1.6,1.3l-1.3-1.3l1.3-1.6L300,7.9z
	 M3.5,6l1.9,1.9L7.3,6L5.4,4.1L3.5,6z M3.5,9.5l1.9,1.9l1.9-1.9L5.4,7.9L3.5,9.5z M0,7.9l1.6,1.3l1.6-1.3L1.6,6.3L0,7.9z M119.1,5.7
	l2.2,2.2l-2.2,1.9l-1.9-1.9L119.1,5.7z M123.2,5.7l2.2,2.2l-2.2,1.9l-1.9-1.9L123.2,5.7z M95.1,6l1.9,1.9l-1.9,1.6l-1.6-1.6L95.1,6z
	 M98.5,6l1.6,1.9l-1.6,1.6l-1.6-1.6L98.5,6z M70.7,6l1.6,1.9l-1.6,1.6l-1.6-1.6L70.7,6z M74.2,6l1.6,1.9l-1.6,1.6l-1.9-1.6L74.2,6z
	 M46.4,6L48,7.9l-1.6,1.6l-1.9-1.6L46.4,6z M49.6,6l1.9,1.9l-1.9,1.6L48,7.9L49.6,6z M21.8,6l1.9,1.9l-1.9,1.6l-1.6-1.6L21.8,6z
	 M25.3,6l1.6,1.9l-1.6,1.6l-1.6-1.6L25.3,6z M273.8,5.7l2.2,2.2l-2.2,1.9l-1.9-1.9L273.8,5.7z M277.9,5.7l2.2,2.2l-2.2,1.9L276,7.9
	L277.9,5.7z M249.8,6l1.6,1.9l-1.6,1.6l-1.6-1.6L249.8,6z M253.3,6l1.6,1.9l-1.6,1.6l-1.9-1.6L253.3,6z M225.5,6l1.6,1.9l-1.6,1.6
	l-1.9-1.6L225.5,6z M228.6,6l1.9,1.9l-1.9,1.6l-1.6-1.6L228.6,6z M200.8,6l1.9,1.9l-1.9,1.6l-1.6-1.6L200.8,6z M204.3,6l1.6,1.9
	l-1.6,1.6l-1.6-1.6L204.3,6z M176.5,6l1.6,1.9l-1.6,1.6l-1.6-1.6L176.5,6z M180,6l1.6,1.9L180,9.5l-1.9-1.6L180,6z"/>
</svg>
