<?xml version="1.0" encoding="utf-8"?>
<!-- Generator: Adobe Illustrator 22.1.0, SVG Export Plug-In . SVG Version: 6.00 Build 0)  -->
<svg version="1.1" id="Layer_1" xmlns="http://www.w3.org/2000/svg" xmlns:xlink="http://www.w3.org/1999/xlink" x="0px" y="0px"
	 viewBox="0 0 31.4 20" style="enable-background:new 0 0 31.4 20;" xml:space="preserve">
<style type="text/css">
	.st0{fill:#4BAE4F;}
</style>
<path class="st0" d="M31.3,10.4c-0.2,0-0.5,0.1-0.7,0.1l0,0c0,0,0,0-0.1,0c-6.6,0.8-13.3,0.9-19.9,1.2c-1.9,0.1-4,0-5.7,0.9
	c-1.2,0.6-2.6,2-2.4,3.6c0.3,1.6,2.2,2.5,3.7,2.4c0.7,0,1.4-0.2,2.1-0.6c1-0.6,0.9-1.4-0.3-2.5c-0.7-0.1-1.1-0.3-1,0.6
	c0,0.7-1,0.8-1.1,0.1c-0.1-0.6,0-1,0.2-1.5c0.1-0.2,0.3-0.3,0.4-0.3c1.6-0.1,3.1,0.2,3.7,1.8s-1.6,3.1-2.9,3.5
	c-3.1,1-7.8-0.9-6.6-4.9c1.6-5,7.1-4.7,11.5-4.7C7.8,9.9,1.7,10.3,0.2,5C-1,1,3.8-0.8,6.9,0.3c1.2,0.4,3.4,2,2.8,3.6
	C9,5.5,7.5,5.8,5.9,5.6c-0.2,0-0.4-0.2-0.4-0.4C5.3,4.7,5.3,4.3,5.3,3.8C5.4,3.1,6.5,3.3,6.4,4c-0.1,0.9,0.3,0.7,1,0.6
	c1.2-1,1.3-1.9,0.3-2.5c-0.6-0.4-1.3-0.7-2-0.7C4.2,1.3,2.3,2.1,2,3.7c-0.4,1.5,1,3,2.2,3.6c1.7,1,3.8,0.9,5.7,1.1
	c6.3,0.5,12.8,0.7,19.1,1.7c0.8,0,1.5,0.1,2.3,0.1C31.4,10.2,31.4,10.4,31.3,10.4z"/>
</svg>
