<?xml version="1.0" encoding="utf-8"?>
<!-- Generator: Adobe Illustrator 23.0.3, SVG Export Plug-In . SVG Version: 6.00 Build 0)  -->
<svg version="1.1" id="Layer_1" xmlns="http://www.w3.org/2000/svg" xmlns:xlink="http://www.w3.org/1999/xlink" x="0px" y="0px"
	 viewBox="0 0 300 14.2" style="enable-background:new 0 0 300 14.2;" xml:space="preserve">
<style type="text/css">
	.st0{fill:#CD3DC3;}
</style>
<path class="st0" d="M2.7,6.5h292.4v1H2.7V6.5z M150.8,3.2L148.9,0l-1.9,3.2c-0.3,0.6-0.3,1.6,0.3,1.9l1.9,1.9l1.9-1.9
	C151.1,4.5,151.5,3.9,150.8,3.2z M146.9,11l1.9,3.2l1.9-3.2c0.3-0.6,0.3-1.6-0.3-1.9l-1.9-1.9l-1.9,1.9
	C146.6,9.7,146.3,10.4,146.9,11z M141.4,3.9l-2.9,2.9l-1.6-1.6c-0.3-0.3-1-0.3-1.3,0c-0.6,0.6,0,1.9,1,1.9c-1,0-1.6,1-1,1.9l0,0
	c0.3,0.3,0.6,0.3,1.3,0l1.6-1.6l2.9,2.9c0.6,0.6,1.9,1,2.9,0.3l4.5-3.6l-4.5-3.6C143.4,2.9,142.4,2.9,141.4,3.9z M160.8,7.1
	c1,0,1.6-1.3,0.6-1.9c-0.3-0.3-1-0.3-1.3,0l-1.3,1.6l-3.2-3.2c-0.6-0.6-1.9-1-2.9-0.3l-4.5,3.6l4.5,3.6c1,0.6,1.9,0.6,2.9-0.3
	l3.2-3.2l1.3,1.6c0.3,0.3,0.6,0.3,1.3,0C162.5,8.4,161.8,7.1,160.8,7.1z M187.4,5.2l-1-1.6l-1,1.6c-0.3,0.3-0.3,0.6,0,1l1,1l1-1
	C187.7,5.8,187.7,5.5,187.4,5.2z M185.4,9.1l1,1.6l1-1.6c0.3-0.3,0.3-0.6,0-1l-1-1l-1,1C185.1,8.4,185.1,8.7,185.4,9.1z M189.9,5.5
	c-0.3-0.3-1-0.3-1.3,0l-2.3,1.6l2.3,1.6c0.3,0.3,1,0.3,1.3,0l1.6-1.6L189.9,5.5z M182.8,5.5l-1.6,1.6l1.6,1.6c0.3,0.3,1,0.3,1.3,0
	l2.3-1.6l-2.3-1.6C183.8,5.2,183.2,5.2,182.8,5.5z M112.3,5.2l-1-1.6l-1,1.6c-0.3,0.3-0.3,0.6,0,1l1,1l1-1
	C112.6,5.8,112.6,5.5,112.3,5.2z M110.4,9.1l1,1.6l1-1.6c0.3-0.3,0.3-0.6,0-1l-1-1l-1,1C110.4,8.4,110.1,8.7,110.4,9.1z M113.6,5.5
	l-2.3,1.6l2.3,1.6c0.3,0.3,1,0.3,1.3,0l1.6-1.6l-1.6-1.6C114.6,5.2,113.9,5.2,113.6,5.5z M107.8,5.5l-1.6,1.6l1.6,1.6
	c0.3,0.3,1,0.3,1.3,0l2.3-1.6l-2.3-1.6C108.8,5.2,108.1,5.2,107.8,5.5z M293.8,7.1l2.9-3.9c0.6-1,1.6-1,2.6-0.3l0,0
	c1.6,1.6,0.3,4.2-1.6,4.2H293.8z M293.8,7.1l2.9,3.9c0.6,1,1.6,1,2.6,0.3l0,0c1.6-1.6,0.3-4.2-1.6-4.2H293.8z M6.2,7.1L3.3,3.2
	c-0.6-1-1.6-1-2.6-0.3l0,0c-1.6,1.6-0.3,4.2,1.6,4.2C2.3,7.1,6.2,7.1,6.2,7.1z M6.2,7.1L3.6,11C3,12,2,12,1.1,11.3l0,0
	c-1.6-1.6-0.3-4.2,1.6-4.2H6.2z"/>
</svg>
