<?xml version="1.0" encoding="utf-8"?>
<!-- Generator: Adobe Illustrator 22.1.0, SVG Export Plug-In . SVG Version: 6.00 Build 0)  -->
<svg version="1.1" id="Layer_1" xmlns="http://www.w3.org/2000/svg" xmlns:xlink="http://www.w3.org/1999/xlink" x="0px" y="0px"
	 viewBox="0 0 153.4 20" style="enable-background:new 0 0 153.4 20;" xml:space="preserve">
<style type="text/css">
	.st0{fill:#4BAE4F;}
</style>
<path class="st0" d="M152.2,8.1c-1.6,1.9-2.9,3.2-5.3,3.9c-1.5,0.4-3.1,0.4-4.6,0.1c0.6-1,1-2.2,1.2-3.3c0.5-3.1-2.3-6.9-5.6-6.4
	c-3.8,0.6-4.8,5.4-2.7,8.2c0.9,1.1,1.9,1.9,3.1,2.6c-0.4,0.3-0.7,0.6-1,0.9c-4.6,3.7-11.1,5-16.1,1.4c-5.3-3.8-3.8-12.9,3.2-13.3
	c1.2-0.1,1.1-1.9-0.1-1.9c-0.4,0-0.9,0-1.3,0c-3.5,0.1-7,0.1-10.5,0.2c-4.4-0.1-8.8-0.1-13.1-0.2C92.1,0.2,84.8,0,77.6,0
	c-7.1,0-14.2,0.3-21.4,0.4C51,0.5,45.7,0.3,40.4,0.5c-3.4,0-6.7-0.1-10.1-0.2c-0.4,0-0.8-0.1-1.3,0c-1.2,0-1.3,1.8-0.1,1.9
	c7,0.4,8.4,9.5,3.2,13.3c-5,3.6-11.5,2.3-16.1-1.4c-0.3-0.3-0.7-0.6-1-0.9c1.2-0.6,2.3-1.5,3.1-2.6c2.2-2.8,1.2-7.6-2.7-8.2
	C12,1.9,9.3,5.7,9.8,8.8c0.2,1.2,0.6,2.3,1.2,3.3c-1.4,0.3-3,0.3-4.5-0.1C4,11.4,2.8,10,1.2,8.1C0.7,7.6,0,8,0,8.7
	C0.1,12,3.8,14,6.7,14.4c1.9,0.3,4,0.2,5.9-0.3c2.1,2.4,5.1,4.2,7.9,5c4.3,1.4,9.3,1.3,13-1.7c3.4-2.8,5.2-6.8,3.8-11.1
	c-0.6-1.7-1.7-3.2-3.1-4.3c0.4,0,0.8,0,1.3,0C42,2.6,48.7,2.4,55.3,2.5c7.8,0.1,15.6,0.4,23.4,0.4c7.3,0,14.5-0.1,21.8-0.3
	c6.2-0.2,12.4,0,18.5-0.5c-1.3,1.1-2.4,2.5-2.9,4.1c-1.5,4.3,0.4,8.3,3.8,11.1c3.7,3,8.7,3.1,13,1.7c2.8-0.9,5.8-2.7,7.9-5
	c1.9,0.5,4,0.6,5.9,0.3c2.9-0.5,6.6-2.4,6.7-5.7C153.4,7.9,152.6,7.5,152.2,8.1z M13.4,11.4c-1.5-2-2.3-4.3-0.1-6.1
	c1.8-1.4,4-0.2,3.7,2.1c-0.2,1.7-1.4,2.9-2.9,3.7C13.9,11.2,13.7,11.3,13.4,11.4z M139.9,11.3c-0.3-0.1-0.5-0.2-0.8-0.3
	c-1.5-0.7-2.7-2-2.9-3.7c-0.3-2.3,2-3.5,3.7-2.1C142.2,7,141.4,9.3,139.9,11.3z"/>
</svg>
