<?xml version="1.0" encoding="utf-8"?>
<!-- Generator: Adobe Illustrator 23.0.3, SVG Export Plug-In . SVG Version: 6.00 Build 0)  -->
<svg version="1.1" id="Layer_1" xmlns="http://www.w3.org/2000/svg" xmlns:xlink="http://www.w3.org/1999/xlink" x="0px" y="0px"
	 viewBox="0 0 512 512" style="enable-background:new 0 0 512 512;" xml:space="preserve">
<style type="text/css">
	.st0{fill:#5B452E;}
	.st1{fill:#89643B;}
	.st2{fill:#B94B00;}
	.st3{fill:#D8962B;}
	.st4{fill:#EDB311;}
	.st5{fill:#BC7A19;}
	.st6{fill:#006571;}
	.st7{fill:#CC5200;}
</style>
<path class="st0" d="M467.5,445.2V111.7h43.2c0.9,3.4,1.3,7,1.3,10.8v311.7c0,3.8-0.5,7.6-1.4,11.1h-43.1V445.2z M44.5,445.2V111.7
	H1.3c-0.9,3.4-1.3,7-1.3,10.8v311.7c0,3.8,0.5,7.6,1.4,11.1h43.1V445.2z"/>
<path class="st1" d="M512,122.4L512,122.4H0l0,0c0-24.6,19.9-44.5,44.5-44.5h423C492.1,77.9,512,97.8,512,122.4z M44.5,478.6h423
	c24.6,0,44.5-19.9,44.5-44.5H0C0,458.7,19.9,478.6,44.5,478.6z"/>
<path class="st2" d="M333.9,44.5v33.4c0,6.1-5,11.1-11.1,11.1s-11.1-5-11.1-11.1V44.5c0-12.3-10-22.3-22.3-22.3h-66.8
	c-12.3,0-22.3,10-22.3,22.3v33.4c0,6.1-5,11.1-11.1,11.1s-11.1-5-11.1-11.1V44.5c0-24.5,20-44.5,44.5-44.5h66.8
	C313.9,0,333.9,20,333.9,44.5z"/>
<path class="st3" d="M434.1,233.7v244.9c0,18.4-14.9,33.4-33.4,33.4H111.3c-18.4,0-33.4-14.9-33.4-33.4V233.7
	c0-98.4,79.7-178.1,178.1-178.1l0,0C354.4,55.7,434.1,135.4,434.1,233.7z"/>
<path class="st4" d="M389.6,232v280H122.4V232c0-73.8,59.8-133.6,133.6-133.6l0,0C329.8,98.4,389.6,158.2,389.6,232z"/>
<path class="st2" d="M333.9,133.9v44.5c0,6.1-5,11.1-11.1,11.1s-11.1-5-11.1-11.1v-44.5c0-6.1,5-11.1,11.1-11.1
	S333.9,127.7,333.9,133.9z"/>
<path class="st5" d="M389.6,232v280h-22.3V233.7c0-61.5-49.8-111.3-111.3-111.3l0,0c-61.5,0-111.3,49.8-111.3,111.3V512h-22.3V232
	c0-73.8,59.8-133.6,133.6-133.6l0,0C329.8,98.4,389.6,158.2,389.6,232z"/>
<path class="st6" d="M434.1,345v133.6c0,18.4-14.9,33.4-33.4,33.4H111.3c-18.4,0-33.4-14.9-33.4-33.4V345H434.1z"/>
<path class="st4" d="M389.5,345v44.5c0,6.1-5,11.1-11.1,11.1s-11.1-5-11.1-11.1V345c0-6.1,5-11.1,11.1-11.1S389.5,338.9,389.5,345z"
	/>
<path class="st7" d="M434.1,356.2H77.9v-22.3h356.2V356.2z"/>
</svg>
