<?xml version="1.0" encoding="utf-8"?>
<!-- Generator: Adobe Illustrator 23.0.3, SVG Export Plug-In . SVG Version: 6.00 Build 0)  -->
<svg version="1.1" id="Layer_1" xmlns="http://www.w3.org/2000/svg" xmlns:xlink="http://www.w3.org/1999/xlink" x="0px" y="0px"
	 viewBox="0 0 512 512.1" style="enable-background:new 0 0 512 512.1;" xml:space="preserve">
<style type="text/css">
	.st0{fill:#71B84F;}
	.st1{fill:#63A147;}
	.st2{fill:#F7840A;}
	.st3{fill:#E1730A;}
	.st4{fill:#FFFFFF;}
	.st5{fill:#663333;}
	.st6{fill:#FFC823;}
</style>
<circle class="st0" cx="256" cy="256" r="256"/>
<path class="st1" d="M512,257.4l-95.2-95.2l-45.2,30.4L303,124l-84.9,2.5l-5,41.5L96.9,372l139.3,139.3c6.5,0.5,13.1,0.8,19.8,0.8
	C396.8,512,511.1,398.1,512,257.4z"/>
<path class="st2" d="M116.3,151.8h279.5c14.7,0,26.5,11.9,26.5,26.5v175.4c0,14.7-11.9,26.5-26.5,26.5H116.3
	c-14.7,0-26.5-11.9-26.5-26.5V178.4C89.7,163.7,101.6,151.8,116.3,151.8z"/>
<path class="st3" d="M117.3,164.8h271.4c3.8,0,7.2,1.6,9.7,4.1l0,0c2.5,2.5,4.1,5.9,4.1,9.7v176c0,3.8-1.6,7.2-4.1,9.7l0,0
	c-2.5,2.5-5.9,4.1-9.7,4.1H117.3c-3.8,0-7.2-1.6-9.7-4.1l0,0c-2.5-2.5-4.1-5.9-4.1-9.7v-176c0-3.8,1.6-7.2,4.1-9.7l0,0
	C110,166.4,113.4,164.8,117.3,164.8z M388.6,167.9H117.3c-3,0-5.6,1.2-7.6,3.2l0,0c-2,2-3.2,4.6-3.2,7.6v176c0,3,1.2,5.6,3.2,7.6
	l0,0c2,2,4.6,3.2,7.6,3.2h271.4c3,0,5.6-1.2,7.6-3.2l0,0c2-2,3.2-4.6,3.2-7.6v-176c0-3-1.2-5.6-3.2-7.6l0,0
	C394.2,169.1,391.6,167.9,388.6,167.9z"/>
<path class="st4" d="M207.8,151.5c-1.3,1.2-2.7,2.4-4,3.8c-3.2,3.2-6.1,6.8-8.3,10.3c-2.1,3.4-3.5,6.6-3.6,9.2
	c-0.1,1.7,0.4,3.1,1.7,4c3.4,2.4,9.8-1.3,15.8-7c3.6-3.4,6.8-7.6,9.2-11.7c2.3-3.9,3.7-7.7,3.7-10.6c0-0.7-0.1-1.3-0.4-1.8v-6.6
	c3.7,1.5,5.2,4.5,5.3,8.3s-1.6,8.5-4.3,13.1c-2.6,4.5-6.2,9-10.1,12.8c-7.5,7.3-16.3,11.5-22.1,7.5c-2.9-2-4-4.9-3.8-8.3
	c0.2-3.5,1.9-7.6,4.3-11.6c2.4-3.9,5.6-7.8,9-11.2c2.4-2.5,5-4.7,7.5-6.5L207.8,151.5L207.8,151.5L207.8,151.5z"/>
<path class="st5" d="M151.7,380.4H195v6.4c0,3.5-2.9,6.4-6.4,6.4H158c-3.5,0-6.4-2.9-6.4-6.4L151.7,380.4z M317,380.4v6.4
	c0,3.5,2.9,6.4,6.4,6.4H354c3.5,0,6.4-2.9,6.4-6.4v-6.4H317L317,380.4z M293.9,118.9H218c0,0,0,0-0.1,0c-5.7,0-10.3,4.4-10.3,9.7
	v23.3h14.1V136c0-2.4,2.1-4.3,4.6-4.3h59.1c2.6,0,4.6,1.9,4.6,4.3v15.9h14.1v-23.3C304.2,123.2,299.6,118.9,293.9,118.9z
	 M125.6,380.3h22.7V151.8h-22.7C125.6,151.8,125.6,380.3,125.6,380.3z M363.7,151.8v228.5h22.7V151.8H363.7z"/>
<path class="st6" d="M213.6,179v67c0,2.1-1.7,3.7-3.7,3.7h-28.5c-2.1,0-3.7-1.7-3.7-3.7v-67c0-2.1,1.7-3.7,3.7-3.7h23.9
	c-2.2,1.7-4.3,3-6.2,3.7c-0.9-0.9-2.1-1.5-3.5-1.5c-2.6,0-4.7,2.1-4.7,4.7s2.1,4.7,4.7,4.7c2.1,0,3.8-1.3,4.4-3.1
	c3.9-1.3,8.1-4.1,12-7.7C213,176.7,213.6,177.8,213.6,179z M146,229.7h-18.2c-6.4,0-11.6,4.3-11.6,9.6V261c0,5.3,5.2,9.6,11.6,9.6
	H146c6.4,0,11.6-4.3,11.6-9.6v-21.7C157.6,234,152.4,229.7,146,229.7z M384.1,229.7h-18.2c-6.4,0-11.6,4.3-11.6,9.6V261
	c0,5.3,5.2,9.6,11.6,9.6h18.2c6.4,0,11.6-4.3,11.6-9.6v-21.7C395.7,234,390.5,229.7,384.1,229.7z"/>
</svg>
