<?xml version="1.0" encoding="utf-8"?>
<!-- Generator: Adobe Illustrator 23.0.3, SVG Export Plug-In . SVG Version: 6.00 Build 0)  -->
<svg version="1.1" id="Layer_1" xmlns="http://www.w3.org/2000/svg" xmlns:xlink="http://www.w3.org/1999/xlink" x="0px" y="0px"
	 viewBox="0 0 280 280" style="enable-background:new 0 0 280 280;" xml:space="preserve">
<style type="text/css">
	.st0{fill:#3E50B4;}
</style>
<path class="st0" d="M109.6,109.6C164.3,54.9,222.2,24.2,239,41s-13.9,74.7-68.6,129.4S57.8,255.8,41,239S54.9,164.3,109.6,109.6z
	 M70,70c54.7-54.7,130.3-67.7,169-29C184.3-13.7,95.7-13.7,41,41s-54.7,143.3,0,198C2.3,200.3,15.3,124.7,70,70z M239,41
	c38.7,38.7,25.7,114.3-29,169S79.7,277.7,41,239c54.7,54.7,143.3,54.7,198,0S293.7,95.7,239,41z"/>
</svg>
