<?xml version="1.0" encoding="utf-8"?>
<!-- Generator: Adobe Illustrator 23.0.3, SVG Export Plug-In . SVG Version: 6.00 Build 0)  -->
<svg version="1.1" id="Layer_1" xmlns="http://www.w3.org/2000/svg" xmlns:xlink="http://www.w3.org/1999/xlink" x="0px" y="0px"
	 viewBox="0 0 504.1 490.9" style="enable-background:new 0 0 504.1 490.9;" xml:space="preserve">
<style type="text/css">
	.st0{fill:#B2A47D;}
	.st1{fill:#9E906C;}
	.st2{fill:#935116;}
	.st3{fill:#7C400F;}
	.st4{fill:#A85E22;}
	.st5{fill:#C47337;}
	.st6{fill:#B26328;}
	.st7{fill:#D17F47;}
	.st8{fill:#C6BA95;}
</style>
<path class="st0" d="M377.7,217.2H126.4c-20.5,0-37.2-16.7-37.2-37.2V37.2C89.2,16.7,105.9,0,126.4,0h251.3
	c20.5,0,37.2,16.7,37.2,37.2v142.7C414.9,200.5,398.2,217.2,377.7,217.2z M126.4,37.2v142.7h251.3V37.2
	C377.7,37.2,126.4,37.2,126.4,37.2z"/>
<path class="st1" d="M377.7,32.6H126.4c-20.5,0-37.2,16.7-37.2,37.2v110.1c0,20.5,16.7,37.2,37.2,37.2h251.3
	c20.5,0,37.2-16.7,37.2-37.2V69.8C414.9,49.3,398.2,32.6,377.7,32.6z M377.7,212.5H126.4v-32.6V69.8V37.2h251.3v142.7l0,0V212.5z"/>
<path class="st2" d="M465,472.3c0,10.3-8.4,18.6-18.6,18.6H57.8c-10.3,0-18.6-8.3-18.6-18.6L1.9,195.4c0-10.3,8.3-18.6,18.6-18.6
	h463c10.3,0,18.6,8.3,18.6,18.6L465,472.3z"/>
<path class="st3" d="M1.9,195.4c0-10.3,8.3-18.6,18.6-18.6h463c10.3,0,18.6,8.3,18.6,18.6L465,472.3c0,10.3-8.4,18.6-18.6,18.6"/>
<path class="st4" d="M504.1,161.3c0,10.3-8.4,18.6-18.6,18.6H18.6C8.3,179.9,0,171.6,0,161.3v-20.2c0-10.3,8.4-18.6,18.6-18.6h466.9
	c10.3,0,18.6,8.3,18.6,18.6V161.3L504.1,161.3z"/>
<g>
	<path class="st5" d="M0,141.2c0-10.3,8.4-18.6,18.6-18.6h466.9c10.3,0,18.6,8.3,18.6,18.6"/>
</g>
<path class="st6" d="M48.5,228c0,3.8-3,6.8-6.8,6.8H14.6c-3.8,0-6.8-3-6.8-6.8l0,0c0-3.8,3-6.8,6.8-6.8h27.1
	C45.4,221.2,48.5,224.3,48.5,228L48.5,228z M112.5,228c0,3.8-3,6.8-6.8,6.8H78.5c-3.8,0-6.8-3-6.8-6.8l0,0c0-3.8,3-6.8,6.8-6.8h27.1
	C109.4,221.2,112.5,224.3,112.5,228L112.5,228z M176.4,228c0,3.8-3,6.8-6.8,6.8h-27.1c-3.8,0-6.8-3-6.8-6.8l0,0c0-3.8,3-6.8,6.8-6.8
	h27.1C173.4,221.2,176.4,224.3,176.4,228L176.4,228z M240.4,228c0,3.8-3,6.8-6.8,6.8h-27.1c-3.7,0-6.8-3-6.8-6.8l0,0
	c0-3.8,3-6.8,6.8-6.8h27.1C237.4,221.2,240.4,224.3,240.4,228L240.4,228z M304.4,228c0,3.8-3,6.8-6.8,6.8h-27.1
	c-3.7,0-6.8-3-6.8-6.8l0,0c0-3.8,3-6.8,6.8-6.8h27.1C301.4,221.2,304.4,224.3,304.4,228L304.4,228z M368.4,228c0,3.8-3,6.8-6.8,6.8
	h-27.1c-3.8,0-6.8-3-6.8-6.8l0,0c0-3.8,3-6.8,6.8-6.8h27.1C365.4,221.2,368.4,224.3,368.4,228L368.4,228z M432.4,228
	c0,3.8-3,6.8-6.8,6.8h-27.1c-3.8,0-6.8-3-6.8-6.8l0,0c0-3.8,3-6.8,6.8-6.8h27.1C429.3,221.2,432.4,224.3,432.4,228L432.4,228z
	 M496.4,228c0,3.8-3,6.8-6.8,6.8h-27.1c-3.8,0-6.8-3-6.8-6.8l0,0c0-3.8,3-6.8,6.8-6.8h27.1C493.3,221.2,496.4,224.3,496.4,228
	L496.4,228z M80.5,265.2c0,3.8-3,6.8-6.8,6.8H46.5c-3.7,0-6.8-3-6.8-6.8l0,0c0-3.8,3-6.8,6.8-6.8h27.1
	C77.4,258.5,80.5,261.5,80.5,265.2L80.5,265.2z M144.4,265.2c0,3.8-3,6.8-6.8,6.8h-27.1c-3.7,0-6.8-3-6.8-6.8l0,0
	c0-3.8,3-6.8,6.8-6.8h27.1C141.4,258.5,144.4,261.5,144.4,265.2L144.4,265.2z M208.4,265.2c0,3.8-3,6.8-6.8,6.8h-27.1
	c-3.8,0-6.8-3-6.8-6.8l0,0c0-3.8,3-6.8,6.8-6.8h27.1C205.4,258.5,208.4,261.5,208.4,265.2L208.4,265.2z M272.4,265.2
	c0,3.8-3,6.8-6.8,6.8h-27.1c-3.8,0-6.8-3-6.8-6.8l0,0c0-3.8,3-6.8,6.8-6.8h27.1C269.4,258.5,272.4,261.5,272.4,265.2L272.4,265.2z
	 M336.4,265.2c0,3.8-3,6.8-6.8,6.8h-27.1c-3.8,0-6.8-3-6.8-6.8l0,0c0-3.8,3-6.8,6.8-6.8h27.1C333.4,258.5,336.4,261.5,336.4,265.2
	L336.4,265.2z M400.4,265.2c0,3.8-3,6.8-6.8,6.8h-27.1c-3.8,0-6.8-3-6.8-6.8l0,0c0-3.8,3-6.8,6.8-6.8h27.1
	C397.3,258.5,400.4,261.5,400.4,265.2L400.4,265.2z M464.4,265.2c0,3.8-3,6.8-6.8,6.8h-27.1c-3.8,0-6.8-3-6.8-6.8l0,0
	c0-3.8,3-6.8,6.8-6.8h27.1C461.3,258.5,464.4,261.5,464.4,265.2L464.4,265.2z M112.5,302.5c0,3.8-3,6.8-6.8,6.8H78.5
	c-3.8,0-6.8-3-6.8-6.8l0,0c0-3.7,3-6.8,6.8-6.8h27.1C109.4,295.7,112.5,298.7,112.5,302.5L112.5,302.5z M176.4,302.5
	c0,3.8-3,6.8-6.8,6.8h-27.1c-3.8,0-6.8-3-6.8-6.8l0,0c0-3.7,3-6.8,6.8-6.8h27.1C173.4,295.7,176.4,298.7,176.4,302.5L176.4,302.5z
	 M240.4,302.5c0,3.8-3,6.8-6.8,6.8h-27.1c-3.7,0-6.8-3-6.8-6.8l0,0c0-3.7,3-6.8,6.8-6.8h27.1C237.4,295.7,240.4,298.7,240.4,302.5
	L240.4,302.5z M304.4,302.5c0,3.8-3,6.8-6.8,6.8h-27.1c-3.7,0-6.8-3-6.8-6.8l0,0c0-3.7,3-6.8,6.8-6.8h27.1
	C301.4,295.7,304.4,298.7,304.4,302.5L304.4,302.5z M368.4,302.5c0,3.8-3,6.8-6.8,6.8h-27.1c-3.8,0-6.8-3-6.8-6.8l0,0
	c0-3.7,3-6.8,6.8-6.8h27.1C365.4,295.7,368.4,298.7,368.4,302.5L368.4,302.5z M432.4,302.5c0,3.8-3,6.8-6.8,6.8h-27.1
	c-3.8,0-6.8-3-6.8-6.8l0,0c0-3.7,3-6.8,6.8-6.8h27.1C429.3,295.7,432.4,298.7,432.4,302.5L432.4,302.5z M144.4,339.7
	c0,3.8-3,6.8-6.8,6.8h-27.1c-3.7,0-6.8-3-6.8-6.8l0,0c0-3.7,3-6.8,6.8-6.8h27.1C141.4,332.9,144.4,335.9,144.4,339.7L144.4,339.7z
	 M208.4,339.7c0,3.8-3,6.8-6.8,6.8h-27.1c-3.8,0-6.8-3-6.8-6.8l0,0c0-3.7,3-6.8,6.8-6.8h27.1C205.4,332.9,208.4,335.9,208.4,339.7
	L208.4,339.7z M272.4,339.7c0,3.8-3,6.8-6.8,6.8h-27.1c-3.8,0-6.8-3-6.8-6.8l0,0c0-3.7,3-6.8,6.8-6.8h27.1
	C269.4,332.9,272.4,335.9,272.4,339.7L272.4,339.7z M336.4,339.7c0,3.8-3,6.8-6.8,6.8h-27.1c-3.8,0-6.8-3-6.8-6.8l0,0
	c0-3.7,3-6.8,6.8-6.8h27.1C333.4,332.9,336.4,335.9,336.4,339.7L336.4,339.7z M400.4,339.7c0,3.8-3,6.8-6.8,6.8h-27.1
	c-3.8,0-6.8-3-6.8-6.8l0,0c0-3.7,3-6.8,6.8-6.8h27.1C397.3,332.9,400.4,335.9,400.4,339.7L400.4,339.7z M176.4,376.9
	c0,3.8-3,6.8-6.8,6.8h-27.1c-3.8,0-6.8-3-6.8-6.8l0,0c0-3.8,3-6.8,6.8-6.8h27.1C173.4,370.1,176.4,373.2,176.4,376.9L176.4,376.9z
	 M240.4,376.9c0,3.8-3,6.8-6.8,6.8h-27.1c-3.7,0-6.8-3-6.8-6.8l0,0c0-3.8,3-6.8,6.8-6.8h27.1C237.4,370.1,240.4,373.2,240.4,376.9
	L240.4,376.9z M304.4,376.9c0,3.8-3,6.8-6.8,6.8h-27.1c-3.7,0-6.8-3-6.8-6.8l0,0c0-3.8,3-6.8,6.8-6.8h27.1
	C301.4,370.1,304.4,373.2,304.4,376.9L304.4,376.9z M368.4,376.9c0,3.8-3,6.8-6.8,6.8h-27.1c-3.8,0-6.8-3-6.8-6.8l0,0
	c0-3.8,3-6.8,6.8-6.8h27.1C365.4,370.1,368.4,373.2,368.4,376.9L368.4,376.9z M208.4,414.1c0,3.8-3,6.8-6.8,6.8h-27.1
	c-3.8,0-6.8-3-6.8-6.8l0,0c0-3.8,3-6.8,6.8-6.8h27.1C205.4,407.4,208.4,410.4,208.4,414.1L208.4,414.1z M272.4,414.1
	c0,3.8-3,6.8-6.8,6.8h-27.1c-3.8,0-6.8-3-6.8-6.8l0,0c0-3.8,3-6.8,6.8-6.8h27.1C269.4,407.4,272.4,410.4,272.4,414.1L272.4,414.1z
	 M336.4,414.1c0,3.8-3,6.8-6.8,6.8h-27.1c-3.8,0-6.8-3-6.8-6.8l0,0c0-3.8,3-6.8,6.8-6.8h27.1C333.4,407.4,336.4,410.4,336.4,414.1
	L336.4,414.1z M240.4,451.4c0,3.8-3,6.8-6.8,6.8h-27.1c-3.7,0-6.8-3-6.8-6.8l0,0c0-3.7,3-6.8,6.8-6.8h27.1
	C237.4,444.6,240.4,447.6,240.4,451.4L240.4,451.4z M304.4,451.4c0,3.8-3,6.8-6.8,6.8h-27.1c-3.7,0-6.8-3-6.8-6.8l0,0
	c0-3.7,3-6.8,6.8-6.8h27.1C301.4,444.6,304.4,447.6,304.4,451.4L304.4,451.4z"/>
<path class="st5" d="M305.6,251.9c0,11.6-9.4,21.1-21.1,21.1h-65c-11.6,0-21.1-9.4-21.1-21.1v-77.3c0-11.6,9.4-21.1,21.1-21.1h65
	c11.6,0,21.1,9.4,21.1,21.1V251.9z"/>
<path class="st7" d="M284.6,153.6h-65c-11.6,0-21.1,9.4-21.1,21.1v47.8c0,11.6,9.4,21.1,21.1,21.1h65c11.6,0,21.1-9.4,21.1-21.1
	v-47.8C305.6,163,296.2,153.6,284.6,153.6z"/>
<circle class="st8" cx="252.1" cy="195.4" r="24.4"/>
<path class="st0" d="M234.8,178.2c9.5-9.6,25-9.6,34.5,0c9.5,9.5,9.5,25,0,34.5"/>
<path class="st7" d="M29.1,165.2c0,0.9-0.7,1.6-1.5,1.6l0,0c-0.9,0-1.5-0.7-1.5-1.6v-27.9c0-0.8,0.7-1.5,1.5-1.5l0,0
	c0.9,0,1.5,0.7,1.5,1.5V165.2z M41.5,165.2c0,0.9-0.7,1.6-1.6,1.6l0,0c-0.8,0-1.6-0.7-1.6-1.6v-27.9c0-0.8,0.7-1.5,1.6-1.5l0,0
	c0.9,0,1.6,0.7,1.6,1.5V165.2z M53.9,165.2c0,0.9-0.7,1.6-1.5,1.6l0,0c-0.9,0-1.5-0.7-1.5-1.6v-27.9c0-0.8,0.7-1.5,1.5-1.5l0,0
	c0.9,0,1.5,0.7,1.5,1.5V165.2z M66.3,165.2c0,0.9-0.7,1.6-1.5,1.6l0,0c-0.9,0-1.6-0.7-1.6-1.6v-27.9c0-0.8,0.7-1.5,1.6-1.5l0,0
	c0.8,0,1.5,0.7,1.5,1.5V165.2z M78.7,165.2c0,0.9-0.7,1.6-1.5,1.6l0,0c-0.9,0-1.5-0.7-1.5-1.6v-27.9c0-0.8,0.7-1.5,1.5-1.5l0,0
	c0.8,0,1.5,0.7,1.5,1.5V165.2z M91.1,165.2c0,0.9-0.7,1.6-1.5,1.6l0,0c-0.8,0-1.6-0.7-1.6-1.6v-27.9c0-0.8,0.7-1.5,1.6-1.5l0,0
	c0.8,0,1.5,0.7,1.5,1.5V165.2z M103.5,165.2c0,0.9-0.7,1.6-1.5,1.6l0,0c-0.9,0-1.6-0.7-1.6-1.6v-27.9c0-0.8,0.7-1.5,1.6-1.5l0,0
	c0.9,0,1.5,0.7,1.5,1.5V165.2z M115.9,165.2c0,0.9-0.7,1.6-1.5,1.6l0,0c-0.9,0-1.6-0.7-1.6-1.6v-27.9c0-0.8,0.7-1.5,1.6-1.5l0,0
	c0.8,0,1.5,0.7,1.5,1.5V165.2z M128.3,165.2c0,0.9-0.7,1.6-1.5,1.6l0,0c-0.9,0-1.5-0.7-1.5-1.6v-27.9c0-0.8,0.7-1.5,1.5-1.5l0,0
	c0.9,0,1.5,0.7,1.5,1.5V165.2z M140.8,165.2c0,0.9-0.7,1.6-1.5,1.6l0,0c-0.9,0-1.6-0.7-1.6-1.6v-27.9c0-0.8,0.7-1.5,1.6-1.5l0,0
	c0.9,0,1.5,0.7,1.5,1.5V165.2z M153.2,165.2c0,0.9-0.7,1.6-1.5,1.6l0,0c-0.9,0-1.5-0.7-1.5-1.6v-27.9c0-0.8,0.7-1.5,1.5-1.5l0,0
	c0.9,0,1.5,0.7,1.5,1.5V165.2z M165.6,165.2c0,0.9-0.7,1.6-1.5,1.6l0,0c-0.9,0-1.6-0.7-1.6-1.6v-27.9c0-0.8,0.7-1.5,1.6-1.5l0,0
	c0.9,0,1.5,0.7,1.5,1.5V165.2z M178,165.2c0,0.9-0.7,1.6-1.5,1.6l0,0c-0.9,0-1.5-0.7-1.5-1.6v-27.9c0-0.8,0.7-1.5,1.5-1.5l0,0
	c0.9,0,1.5,0.7,1.5,1.5V165.2z M329.2,165.2c0,0.9-0.7,1.6-1.5,1.6l0,0c-0.9,0-1.6-0.7-1.6-1.6v-27.9c0-0.8,0.7-1.5,1.6-1.5l0,0
	c0.8,0,1.5,0.7,1.5,1.5V165.2z M341.7,165.2c0,0.9-0.7,1.6-1.5,1.6l0,0c-0.9,0-1.6-0.7-1.6-1.6v-27.9c0-0.8,0.7-1.5,1.6-1.5l0,0
	c0.9,0,1.5,0.7,1.5,1.5V165.2z M354.1,165.2c0,0.9-0.7,1.6-1.6,1.6l0,0c-0.8,0-1.5-0.7-1.5-1.6v-27.9c0-0.8,0.7-1.5,1.5-1.5l0,0
	c0.9,0,1.6,0.7,1.6,1.5V165.2z M366.5,165.2c0,0.9-0.7,1.6-1.5,1.6l0,0c-0.9,0-1.6-0.7-1.6-1.6v-27.9c0-0.8,0.7-1.5,1.6-1.5l0,0
	c0.9,0,1.5,0.7,1.5,1.5V165.2z M378.9,165.2c0,0.9-0.7,1.6-1.5,1.6l0,0c-0.8,0-1.5-0.7-1.5-1.6v-27.9c0-0.8,0.7-1.5,1.5-1.5l0,0
	c0.9,0,1.5,0.7,1.5,1.5V165.2z M391.3,165.2c0,0.9-0.7,1.6-1.5,1.6l0,0c-0.9,0-1.6-0.7-1.6-1.6v-27.9c0-0.8,0.7-1.5,1.6-1.5l0,0
	c0.9,0,1.5,0.7,1.5,1.5V165.2z M403.7,165.2c0,0.9-0.7,1.6-1.5,1.6l0,0c-0.9,0-1.5-0.7-1.5-1.6v-27.9c0-0.8,0.7-1.5,1.5-1.5l0,0
	c0.9,0,1.5,0.7,1.5,1.5V165.2z M416.1,165.2c0,0.9-0.7,1.6-1.5,1.6l0,0c-0.9,0-1.6-0.7-1.6-1.6v-27.9c0-0.8,0.7-1.5,1.6-1.5l0,0
	c0.9,0,1.5,0.7,1.5,1.5V165.2z M428.5,165.2c0,0.9-0.7,1.6-1.5,1.6l0,0c-0.9,0-1.5-0.7-1.5-1.6v-27.9c0-0.8,0.7-1.5,1.5-1.5l0,0
	c0.9,0,1.5,0.7,1.5,1.5V165.2z M440.9,165.2c0,0.9-0.7,1.6-1.5,1.6l0,0c-0.9,0-1.6-0.7-1.6-1.6v-27.9c0-0.8,0.7-1.5,1.6-1.5l0,0
	c0.9,0,1.5,0.7,1.5,1.5V165.2z M453.3,165.2c0,0.9-0.7,1.6-1.5,1.6l0,0c-0.9,0-1.5-0.7-1.5-1.6v-27.9c0-0.8,0.7-1.5,1.5-1.5l0,0
	c0.9,0,1.5,0.7,1.5,1.5V165.2z M465.7,165.2c0,0.9-0.7,1.6-1.6,1.6l0,0c-0.8,0-1.6-0.7-1.6-1.6v-27.9c0-0.8,0.7-1.5,1.6-1.5l0,0
	c0.9,0,1.6,0.7,1.6,1.5V165.2z M478.1,165.2c0,0.9-0.7,1.6-1.5,1.6l0,0c-0.9,0-1.5-0.7-1.5-1.6v-27.9c0-0.8,0.7-1.5,1.5-1.5l0,0
	c0.9,0,1.5,0.7,1.5,1.5V165.2z"/>
</svg>
