<?xml version="1.0" encoding="iso-8859-1"?>
<!-- Generator: Adobe Illustrator 19.0.0, SVG Export Plug-In . SVG Version: 6.00 Build 0)  -->
<svg version="1.1" id="Layer_1" xmlns="http://www.w3.org/2000/svg" xmlns:xlink="http://www.w3.org/1999/xlink" x="0px" y="0px" width="100px" height="100px"
	 viewBox="0 0 512 512" style="enable-background:new 0 0 512 512;" xml:space="preserve">
<circle style="fill:#31BAFD;" cx="256" cy="256" r="256"/>
<path style="fill:#2B9ED8;" d="M512,256c0-1.208-0.029-2.412-0.047-3.617l-158.43-158.43L188.194,207.731l-102.86,81.27
	l116.222,116.222l-43.079,30.063l75.786,75.786C241.431,511.676,248.677,512,256,512C397.384,512,512,397.384,512,256z"/>
<polygon style="fill:#E6F3FF;" points="158.477,93.953 85.333,289.001 134.096,313.382 182.856,191.476 "/>
<polygon style="fill:#B8C9D9;" points="353.523,93.953 426.667,289.001 377.904,313.382 329.144,191.476 "/>
<polygon style="fill:#B5F1F4;" points="207.238,93.953 304.762,93.953 256,191.476 "/>
<polygon style="fill:#4CDBC4;" points="304.762,93.953 255.426,93.953 255.426,190.328 256,191.476 "/>
<polygon style="fill:#FFFFFF;" points="207.238,93.953 280.381,191.476 280.381,435.286 158.477,435.286 158.477,93.953 "/>
<polygon style="fill:#E6F3FF;" points="304.762,93.953 231.619,191.476 231.619,435.286 353.523,435.286 353.523,93.953 "/>
<polygon style="fill:#CFDBE6;" points="353.523,93.953 304.762,93.953 255.426,159.734 255.426,435.286 353.523,435.286 "/>
<rect x="158.479" y="240.243" style="fill:#B5F1F4;" width="195.043" height="24.376"/>
<rect x="255.431" y="240.243" style="fill:#4CDBC4;" width="98.097" height="24.376"/>
<rect x="256" y="240.243" style="fill:#3FC4AB;" width="24.376" height="73.145"/>
<g>
</g>
<g>
</g>
<g>
</g>
<g>
</g>
<g>
</g>
<g>
</g>
<g>
</g>
<g>
</g>
<g>
</g>
<g>
</g>
<g>
</g>
<g>
</g>
<g>
</g>
<g>
</g>
<g>
</g>
</svg>
