<?xml version="1.0" encoding="utf-8"?>
<!-- Generator: Adobe Illustrator 23.0.3, SVG Export Plug-In . SVG Version: 6.00 Build 0)  -->
<svg version="1.1" id="Layer_1" xmlns="http://www.w3.org/2000/svg" xmlns:xlink="http://www.w3.org/1999/xlink" x="0px" y="0px"
	 viewBox="0 0 403.1 495" style="enable-background:new 0 0 403.1 495;" xml:space="preserve">
<style type="text/css">
	.st0{fill:#830018;}
	.st1{fill:#A5001E;}
	.st2{fill:#D80027;}
	.st3{fill:#EBE5DD;}
</style>
<g>
	<rect x="181.5" class="st0" width="40" height="50.5"/>
	<path class="st1" d="M361,170.3c-23.4-30.3-55.5-53.6-91.3-66.5V50.5h-68.2v143.2h20v65.1l56.4-32.6l20,34.6l-56.4,32.6l56.4,32.6
		l-20,34.6l-56.4-32.6v65.1h-20V495c111.1,0,201.5-90.4,201.5-201.5C403.1,248.4,388.5,205.9,361,170.3z"/>
	<path class="st2" d="M181.5,393.2v-65.1l-56.4,32.6l-20-34.6l56.4-32.6l-56.4-32.6l20-34.6l56.4,32.6v-65.1h20V50.5h-68.2v53.4
		C97.5,116.8,65.4,140,42,170.3C14.5,205.8,0,248.4,0,293.5C0,404.6,90.4,495,201.5,495V393.2H181.5z"/>
	<polygon class="st3" points="181.5,258.8 125.1,226.3 105.1,260.9 161.5,293.5 105.1,326 125.1,360.7 181.5,328.1 181.5,393.2 
		221.5,393.2 221.5,328.1 277.9,360.7 297.9,326 241.5,293.5 297.9,260.9 277.9,226.3 221.5,258.8 221.5,193.7 181.5,193.7 	"/>
</g>
</svg>
