<?xml version="1.0" encoding="utf-8"?>
<!-- Generator: Adobe Illustrator 23.0.3, SVG Export Plug-In . SVG Version: 6.00 Build 0)  -->
<svg version="1.1" id="Layer_1" xmlns="http://www.w3.org/2000/svg" xmlns:xlink="http://www.w3.org/1999/xlink" x="0px" y="0px"
	 viewBox="0 0 390.2 390.2" style="enable-background:new 0 0 390.2 390.2;" xml:space="preserve">
<style type="text/css">
	.st0{fill:#FFC10D;}
	.st1{fill:#56ACE0;}
	.st2{fill:#194F82;}
</style>
<path class="st0" d="M208.1,66.7c-1.6-4.8-4.3-9.2-7.6-13c9.8-7.6,28.8-18.4,54.8-21.1c40.7,15.1,74.8,45.5,94.3,84
	C291.6,78,239.5,68.3,208.1,66.7z M145.3,118.7C75.4,222.8,90.5,317,94.8,336.5c28.2,20,62.8,32,100.3,32c26.6,0,52-5.9,74.3-16.8
	c-8.7-94.8-83.5-205.4-101.4-230.9C160.4,121.9,152.8,120.8,145.3,118.7z"/>
<path class="st1" d="M126.3,107.8c-57.4,85.7-60.7,164.8-56.9,206.5c-29.3-30.8-47.7-73.1-47.7-119.2c0-13.6,1.6-27.1,4.3-39.6
	c8.1-8.1,49.9-52,89.4-63.4C118.1,98.1,121.4,103.5,126.3,107.8z M363.6,153.3c-63.4-50.9-120.9-62.8-155-65
	c-2.7,10.3-9.8,18.9-18.9,25c22.8,33,87.8,133.9,100.3,227.1c47.1-30.9,78.6-84.6,78.6-145.3C368.5,180.5,366.9,166.9,363.6,153.3z"
	/>
<path class="st2" d="M195.1,0C87.3,0,0,87.3,0,195.1s87.3,195.1,195.1,195.1s195.1-87.3,195.1-195.1S302.9,0,195.1,0z M289.9,340.4
	c-12.5-93.2-77.5-194-100.3-227.1c9.2-5.9,16.3-14.6,18.9-25c33.6,2.2,91,14.1,155,65c3.2,13.6,4.8,27.1,4.8,41.8
	C368.5,255.8,337.1,309.5,289.9,340.4z M195.1,368.5c-37.4,0-72.1-11.9-100.3-32c-4.3-19.5-19.5-113.8,50.4-217.9
	c7.6,2.2,15.2,3.2,23.3,2.2c17.9,25.5,92.1,136,101.4,230.9C247.1,362.6,221.7,368.5,195.1,368.5z M93.7,54.8
	c4.3-0.5,15.2-1.6,27.7,1.1c-3.2,4.3-5.4,9.2-6.5,14.1c-25,5.9-50.4,22.8-69.4,38.5C57.5,87.3,73.7,68.8,93.7,54.8z M210.8,22.2
	c-13,5.9-22.8,13-28.2,17.9c-6.5-2.7-13.6-4.3-20.6-4.3c-6.5,0-13,1.1-18.9,3.8c-5.4-1.6-10.3-3.2-14.6-4.3
	c20.6-8.7,43.4-13.6,66.6-13.6C200.5,21.7,205.4,22.2,210.8,22.2z M349.5,116.5C291,78,239.5,68.3,208.1,66.7
	c-1.6-4.8-4.3-9.2-7.6-13c9.8-7.6,28.7-18.4,54.8-21.1C295.9,47.7,330.1,78,349.5,116.5z M162.1,99.2L162.1,99.2
	c-14.6,0-26.6-9.2-26.6-20.6s11.9-20.6,26.6-21.1c14.6,0,26.6,9.2,26.6,20.6C188.6,90,176.7,99.2,162.1,99.2z M26,155.5
	c7.6-8.7,49.8-52,89.4-63.9c2.2,5.9,5.9,11.4,10.9,15.7c-57.5,86.2-60.7,165.3-56.9,207.1c-29.8-30.9-47.7-73.2-47.7-119.3
	C21.7,181.5,23.3,168.5,26,155.5z"/>
</svg>
