<?xml version="1.0" encoding="utf-8"?>
<!-- Generator: Adobe Illustrator 23.0.3, SVG Export Plug-In . SVG Version: 6.00 Build 0)  -->
<svg version="1.1" id="Layer_1" xmlns="http://www.w3.org/2000/svg" xmlns:xlink="http://www.w3.org/1999/xlink" x="0px" y="0px"
	 viewBox="0 0 512 512" style="enable-background:new 0 0 512 512;" xml:space="preserve">
<style type="text/css">
	.st0{fill:#EB86BF;}
	.st1{fill:#D670AD;}
	.st2{fill:#F4F6F9;}
</style>
<path class="st0" d="M512,256c0,141.4-114.6,256-256,256C114.6,512,0,397.4,0,256C0,114.6,114.6,0,256,0C397.4,0,512,114.6,512,256z
	"/>
<path class="st1" d="M512,256c0-14.2-1.2-28.1-3.4-41.7c-0.1-0.1-0.1-0.1-0.2-0.2c-0.3-0.3-104.4-104.2-104.6-104.4
	c-0.2-0.3-0.4-0.6-0.6-0.9c-2.2-2.2-5.4-2.8-8.2-1.6l-26.8,11.5c-0.1-0.1-36.9-37-37.5-37.4c-0.4-0.6-0.9-1.1-1.5-1.5
	c-1.5-2.1-4-3.3-6.6-3c-3.2,0.3-5.9,2.6-6.6,5.8l-21.1,91.6c-26.3-1.2-57.8,11.9-83.2,37.4c-25.4,25.5-38.5,57-37.3,83.2l-91.6,21.1
	c-3.1,0.7-5.5,3.4-5.8,6.6c-0.2,2.6,1,5.1,3,6.6c0.4,0.6,38.8,38.8,38.9,39l-11.5,26.8c-1.2,2.8-0.6,6.1,1.6,8.2
	c0.3,0.3,0.6,0.4,0.9,0.6c0.2,0.3,0.4,0.6,0.6,0.8c0.3,0.3,0.6,0.4,0.9,0.6c0.2,0.3,102.7,102.9,102.9,103.2
	c0.1,0.1,0.1,0.1,0.2,0.1c13.6,2.2,27.5,3.4,41.7,3.4C397.4,512,512,397.4,512,256z"/>
<path class="st2" d="M430.7,181.9l-45.4-19.5l19.5-45.4c1.2-2.8,0.6-6.1-1.6-8.2c-2.2-2.2-5.4-2.8-8.2-1.6l-45.4,19.5l-19.5-45.4
	c-1.3-3-4.4-4.8-7.5-4.5c-3.2,0.3-5.9,2.6-6.6,5.8l-21.1,91.6c-26.3-1.2-57.8,11.9-83.2,37.4c-25.4,25.5-38.5,57-37.3,83.2
	l-91.6,21.1c-3.1,0.7-5.5,3.4-5.8,6.6s1.5,6.3,4.5,7.5l45.4,19.5l-19.5,45.4c-1.2,2.8-0.6,6.1,1.6,8.2c2.2,2.2,5.4,2.8,8.2,1.6
	l45.4-19.5l19.5,45.4c1.2,2.8,3.9,4.5,6.9,4.5c0.1,0,0.2,0,0.3,0c3.1-0.1,5.8-2.2,6.8-5.1l28.3-84.8c1.3,0.1,2.5,0.2,3.8,0.2
	c25.5,0,55.5-13.1,79.9-37.5c25.6-25.6,38.7-57.4,37.3-83.7l84.9-28.3c2.9-1,5-3.7,5.1-6.8C435.3,186,433.5,183.2,430.7,181.9z
	 M187.9,406.7l-14.7-34.2c-1.6-3.8-6-5.6-9.8-3.9l-35.1,15l15-35.1c1.6-3.8-0.1-8.2-3.9-9.8l-31.3-13.4l68.4-15.8
	c2.4,8,6.3,15.2,12.2,21.1c5.7,5.7,12.7,9.7,20.5,12L187.9,406.7z M297.3,297.3c-33.3,33.3-77.3,43.5-98,22.8
	c-20.7-20.7-10.5-64.7,22.7-97.9c21.6-21.6,47.7-33.5,69.1-33.5c11.5,0,21.6,3.5,28.9,10.7C340.8,220.1,330.6,264.1,297.3,297.3z
	 M342.6,209.3c-2.4-7.8-6.3-14.8-12-20.5c0,0,0,0,0,0c-5.9-5.9-13.1-9.8-21.1-12.2l15.8-68.4l13.4,31.3c1.6,3.8,6,5.6,9.8,3.9
	l35.1-15l-15,35.1c-1.6,3.8,0.1,8.2,3.9,9.8l34.2,14.7L342.6,209.3z"/>
</svg>
