<?xml version="1.0" encoding="utf-8"?>
<!-- Generator: Adobe Illustrator 23.0.3, SVG Export Plug-In . SVG Version: 6.00 Build 0)  -->
<svg version="1.1" id="Layer_1" xmlns="http://www.w3.org/2000/svg" xmlns:xlink="http://www.w3.org/1999/xlink" x="0px" y="0px"
	 viewBox="0 0 343.1 512" style="enable-background:new 0 0 343.1 512;" xml:space="preserve">
<style type="text/css">
	.st0{fill:#3E50B4;}
</style>
<path class="st0" d="M301.6,56.5c-0.1-0.2-8.9-9.4-9.8-10.2C260.8,16.5,220.1,0.1,176.9,0c-0.1,0-0.3,0-0.4,0
	C132.3,0,90.9,17.1,59.7,48.2l-0.5,0.5L37.8,70.2c-18.2,18.2-18.2,47.9,0,66.2c9.1,9.1,21.1,13.7,33.1,13.7s24-4.6,33.1-13.7
	l0.6-0.6c0,0,22.1-22.1,22.7-22.7l0,0c3.8-3.8,9.9-7.8,17-12c10.5-5.3,21.9-7.8,33.4-7.7c13.6,0.5,25.2,4.4,25.2,4.8
	c9.2,3.5,17.9,9,25.3,16.5c0.8,0.8,11.9,15.7,14.8,22.1c8.2,21,7.7,40.3-0.2,60c-3.4,7.4-8.2,14.3-14.3,20.4l-215,215
	c-18.2,18.2-18.2,47.9,0,66.2c9.1,9.1,21.1,13.7,33.1,13.7s24-4.6,33.1-13.7l215-215C356.8,221.3,359,121.7,301.6,56.5z M110.3,98.8
	l-0.5,0.5L89,120.2c-9.6,9.6-25.3,9.5-34.9-0.1c-4.7-4.7-7.3-10.9-7.3-17.5s2.5-12.8,7.2-17.4l20.8-20.8
	c11.6-11.6,24.8-20.9,39.3-27.9l11.1,50.3C119.9,90.2,115,94.2,110.3,98.8z M145.5,76.7l-10.7-48.6c7-2.1,14.2-3.7,21.5-4.7
	L167,71.9C159.7,72.6,152.5,74.2,145.5,76.7z M320.7,155.8l-49,7.3c-0.2-7.3-1.3-14.6-3.3-21.8l49-7.3
	C319,141.2,320.1,148.5,320.7,155.8z M283.5,69.3c0.6,0.7,1.2,1.4,1.8,2.1c0.1,0.1,0.2,0.2,0.3,0.3c10.6,12.2,19.1,26.1,25,41
	l-50.7,7.6c-1.7-3-3.5-6-5.5-8.8L283.5,69.3C283.4,69.3,283.5,69.3,283.5,69.3z M199.9,74.2c-3.4-0.8-6.8-1.5-10.2-1.9l-11.1-50
	c17.3,0.2,34.4,3.5,50.4,9.7L199.9,74.2z M239.2,94.7c-5.7-4.9-11.7-9.1-18.1-12.5l28-40.8c6.3,3.7,12.4,7.8,18.1,12.5L239.2,94.7z
	 M30.9,481.1c-6.5-6.5-8.7-15.8-6.4-24.1L55,487.5C46.7,489.8,37.4,487.6,30.9,481.1z M72.8,474.2l-35-35l15.6-15.6l35,35
	L72.8,474.2z M104,443.1l-35-35l22.6-22.6l35,35L104,443.1z M142.1,404.9l-35-35l15.6-15.6l35,35L142.1,404.9z M173.3,373.8l-35-35
	l22.6-22.6l35,35L173.3,373.8z M211.4,335.6l-35-35L192,285l35,35L211.4,335.6z M242.5,304.5l-35-35L228,249l39,31L242.5,304.5z
	 M282.6,264.3l-39-31l0.6-0.6c5.1-5.1,9.5-10.7,13.2-16.6l39,31C292.3,253.1,287.7,258.9,282.6,264.3z M307.3,227.7l-40.3-32
	c1.1-3.3,2-6.6,2.7-10l50.7-7.6C319,195.3,314.6,212.1,307.3,227.7z"/>
</svg>
