<?xml version="1.0" encoding="utf-8"?>
<!-- Generator: Adobe Illustrator 23.0.3, SVG Export Plug-In . SVG Version: 6.00 Build 0)  -->
<svg version="1.1" id="Layer_1" xmlns="http://www.w3.org/2000/svg" xmlns:xlink="http://www.w3.org/1999/xlink" x="0px" y="0px"
	 viewBox="0 0 249.8 201.7" style="enable-background:new 0 0 249.8 201.7;" xml:space="preserve">
<style type="text/css">
	.st0{fill:#FFF266;}
	.st1{fill:#33B4AE;}
	.st2{fill:#1D1D1B;}
</style>
<g>
	<path class="st0" d="M238.3,94.5C213.1,34.1,156.9-10.7,89,8.8c-2.1,0.6-4.2,1.3-6.2,2C143,22.4,176.2,73,197.2,127.6
		c15.3-8.8,29.4-19.5,41.8-32.2C238.7,95.1,238.4,94.9,238.3,94.5z M159.1,13.5c-3.3-1.6-6.6-2.6-10.2-3c-0.8-0.1-0.8-1.2,0-1.2
		c3.9-0.1,7.6,1,10.9,3.1C160.5,12.8,159.8,13.9,159.1,13.5z M170.4,46.9c-1.5-2.1-3.5-3.9-5.8-5.2c-0.8-0.4-0.1-1.6,0.7-1.2
		c2.8,1.3,4.8,3.1,6.2,5.9C171.8,47,170.9,47.5,170.4,46.9z M182.8,84.6c-2-3.5-4.3-6.6-7.6-8.9c-0.7-0.5-0.1-1.6,0.7-1.2
		c3.6,2.3,6.6,5.5,8.2,9.6C184.4,84.9,183.2,85.3,182.8,84.6z M187.9,84.1c-1.4-2.4-2.7-4.7-4.5-6.9c-0.6-0.8,0.4-1.8,1.1-1.1
		c2,2.2,3.7,4.5,4.7,7.4C189.5,84.4,188.3,84.8,187.9,84.1z M224.5,89.2c-1.4-2.6-2.4-5.3-3.2-8.2c-0.2-1,1.2-1.3,1.5-0.4
		c0.8,2.7,2,5.2,3.2,7.8C226.5,89.3,225,90.2,224.5,89.2z M227.9,85.5c-1.1-3.8-2.5-7.4-5.1-10.4c-0.6-0.7,0.4-1.6,1-1
		c3.1,3.1,5.3,6.8,5.7,11.2C229.5,86.1,228.2,86.3,227.9,85.5z M75.5,15.5C36,54.9,28.2,108,45.2,160.8c23.2,0.9,47.1-0.4,70.5-4.5
		C98.3,139.5,90.2,114.5,83.4,92C76,67.1,71.6,41.2,75.5,15.5z M40.3,124.6c-0.8-3.5-1.4-7.1-1.4-10.7c0-0.7,1-0.7,1.1,0
		c0.4,3.5,0.8,7,1.3,10.4C41.3,125,40.4,125.2,40.3,124.6z M42.1,118.4c-0.2-3-0.5-6-0.6-9c0-1,1.5-1,1.6,0c0.3,3,0.4,6,0.5,9
		C43.7,119.4,42.2,119.4,42.1,118.4z"/>
	<path class="st1" d="M240.3,100c-28.3,29-63.2,44.7-102.2,54.9c-42.2,11.1-87.8,15.8-130.5,5c40.4,22.2,91.8,39.8,138.1,37.5
		C198.1,194.7,264.5,162.3,240.3,100z M85.4,167.8c-0.8-0.2-0.4-1.3,0.3-1.2c3.6,0.7,7.1,0.5,10.7-0.2c0.9-0.2,1.3,1.2,0.4,1.4
		C93,169,89.2,168.8,85.4,167.8z M101.6,171.9c-2.9,0.2-5.7,0.3-8.5,0.4c-0.9,0-0.8-1.2,0-1.3c2.8-0.3,5.7-0.5,8.5-0.6
		C102.6,170.4,102.6,171.9,101.6,171.9z M175.4,169.2c-2.3,3.8-6,6-10.4,6.6c-1.1,0.1-1.3-1.8-0.2-2c3.6-0.7,6.8-2.7,9-5.6
		C174.4,167.2,176,168,175.4,169.2z M235.6,142c-0.6,1.1-2.2,0.1-1.7-1c1.9-4.3,2.8-8.8,2.5-13.6c-0.1-1.1,1.6-1,1.7,0
		C238.7,132.5,237.9,137.5,235.6,142z M239,134.5c0.4-3.9,1.4-7.6,1.5-11.5c0-1,1.6-1,1.6,0c0,3.9-0.1,8.2-1.7,11.9
		C240.1,135.6,238.9,135.2,239,134.5z M119,155.6c26.3-4.9,51.8-13.4,74.7-26C182.6,102.4,170,75.1,150,53.1
		C130,31,106.8,20.2,78.9,12.2c-0.1,0-0.1,0-0.2,0.1c-0.2,0.2-0.4,0.4-0.6,0.6c-3.5,48.7,9.1,104.2,40.5,142.3
		C118.8,155.3,118.9,155.4,119,155.6z M175.1,131.3c2.8-1.3,5.5-3,7.9-4.9c0.8-0.6,1.8,0.3,1.1,1.1c-2.4,2.5-5.1,4.2-8.4,5.3
		C174.8,133.2,174.2,131.7,175.1,131.3z M127.3,75.3c3.4,0.4,6.3,2.3,7.7,5.5c0.5,1-1,1.9-1.5,0.9c-1.2-2.6-3.5-4.4-6.3-4.9
		C126.2,76.6,126.4,75.2,127.3,75.3z M108.5,26.9c4.3,1.5,8.6,4,11.3,7.8c0.4,0.6-0.4,1.4-0.9,1c-3.6-2.7-6.9-5.3-11.1-7.1
		C106.9,28.1,107.5,26.5,108.5,26.9z M111.2,136c-3.3-3.2-5.8-7-7.8-11.1c-0.4-0.8,0.8-1.4,1.2-0.7c2.1,3.9,4.8,7.4,7.8,10.7
		C112.9,135.7,111.9,136.7,111.2,136z M115.9,136.1c-3.3-2.2-5.7-5.1-7.4-8.7c-0.4-0.7,0.7-1.4,1.1-0.6c1.8,3.3,4.3,5.9,7.2,8.3
		C117.3,135.5,116.5,136.5,115.9,136.1z M110.8,33.7c-0.8-0.5-0.1-1.8,0.8-1.3c3.7,2.2,6.8,4.8,9.3,8.3c0.5,0.6-0.6,1.4-1.1,0.8
		C117.1,38.5,114.1,35.8,110.8,33.7z M71.5,15.4C17.3,40.1-2.3,98.2,6.6,157.1c11.4,1.8,23.1,2.9,35,3.5
		C25.6,111,29.9,50.6,71.5,15.4z M36.6,60.7c0.6-0.9,2-0.1,1.5,0.9c-1.4,2.9-2.3,5.7-3.1,8.8c-0.2,0.8-1.4,0.6-1.4-0.2
		C33.6,66.9,34.8,63.4,36.6,60.7z M9,151.2c-1.3-3.7-2-7.6-1.4-11.5c0.2-1,1.7-0.7,1.7,0.2c0.1,3.7,0.2,7.2,1.1,10.8
		C10.8,151.8,9.4,152.2,9,151.2z M12.3,146.5c0,0.8-1.1,0.8-1.2,0c-0.2-2.9-0.2-5.7-0.1-8.5c0-0.8,1.3-0.8,1.3,0
		C12.5,140.8,12.5,143.7,12.3,146.5z"/>
	<path class="st2" d="M243.9,97.7c-0.2-0.4-0.5-0.8-0.8-1c0.2-0.8,0-1.6-0.6-2.1c0.1-0.4,0.2-0.8,0-1.3
		C217,30.3,157.7-15.3,87.9,4.8c-66.3,19.1-100,87.6-84,153.4c0,0.1,0.1,0.2,0.2,0.3c-0.8,0.4-1,1.6-0.1,2.2
		c47.3,31,114.9,49.5,170.7,37.1C223.1,187.1,265.6,151,243.9,97.7z M89,8.8c67.9-19.5,124.1,25.3,149.3,85.7
		c0.2,0.4,0.4,0.6,0.6,0.9c-12.3,12.8-26.4,23.5-41.8,32.2C176.2,73,142.9,22.4,82.8,10.8C84.8,10.1,86.9,9.4,89,8.8z M78.2,12.8
		c0.2-0.2,0.4-0.4,0.6-0.6c0.1,0,0.1,0,0.2-0.1c27.9,8,51.1,18.8,71.1,40.9c20,22,32.6,49.2,43.7,76.5c-22.9,12.6-48.4,21.1-74.7,26
		c0-0.2-0.2-0.3-0.3-0.5C87.2,117,74.7,61.5,78.2,12.8z M83.4,91.9c6.8,22.6,14.9,47.5,32.3,64.3c-23.3,4.1-47.3,5.5-70.5,4.5
		C28.2,108,36,54.9,75.5,15.5C71.6,41.2,75.9,67.1,83.4,91.9z M71.5,15.4C29.9,50.6,25.6,111,41.6,160.6c-11.9-0.6-23.6-1.7-35-3.5
		C-2.3,98.2,17.3,40.1,71.5,15.4z M145.6,197.3c-46.3,2.3-97.7-15.2-138.1-37.5c42.7,10.8,88.3,6.1,130.5-5
		c39-10.2,73.9-25.9,102.2-54.9C264.5,162.3,198.1,194.7,145.6,197.3z M240.4,134.8c-0.3,0.7-1.5,0.4-1.4-0.4
		c0.4-3.9,1.4-7.6,1.5-11.5c0-1,1.6-1,1.6,0C242.1,126.9,242,131.2,240.4,134.8z M238.1,127.5c0.6,5.1-0.2,10-2.5,14.6
		c-0.6,1.1-2.2,0.1-1.7-1c1.9-4.3,2.8-8.8,2.5-13.6C236.3,126.4,238,126.4,238.1,127.5z M222.8,75.1c-0.6-0.7,0.4-1.6,1-1
		c3.1,3.1,5.3,6.8,5.7,11.2c0.1,0.9-1.3,1-1.5,0.2C226.8,81.7,225.4,78.1,222.8,75.1z M221.3,81c-0.2-1,1.2-1.3,1.5-0.4
		c0.8,2.7,2,5.2,3.2,7.8c0.5,1-1,1.8-1.5,0.9C223.1,86.6,222.1,83.9,221.3,81z M183.4,77.3c-0.6-0.8,0.4-1.8,1.1-1.1
		c2,2.2,3.7,4.5,4.7,7.4c0.3,0.8-0.9,1.2-1.3,0.6C186.5,81.8,185.2,79.4,183.4,77.3z M175.1,131.3c2.8-1.3,5.5-3,7.9-4.9
		c0.8-0.6,1.8,0.3,1.1,1.1c-2.4,2.5-5.1,4.2-8.4,5.3C174.8,133.2,174.2,131.7,175.1,131.3z M175.2,75.7c-0.7-0.5-0.1-1.6,0.7-1.2
		c3.6,2.3,6.6,5.5,8.2,9.6c0.3,0.8-0.9,1.2-1.3,0.5C180.9,81.1,178.5,78,175.2,75.7z M175.4,169.2c-2.3,3.8-6,6-10.4,6.6
		c-1.1,0.1-1.3-1.8-0.2-2c3.6-0.7,6.8-2.7,9-5.6C174.4,167.2,176,168,175.4,169.2z M165.3,40.4c2.8,1.3,4.8,3.1,6.2,5.9
		c0.4,0.7-0.6,1.2-1.1,0.6c-1.5-2.1-3.5-3.9-5.8-5.2C163.7,41.2,164.5,40,165.3,40.4z M148.8,9.3c3.9-0.1,7.6,1,10.9,3.1
		c0.7,0.4,0.1,1.5-0.7,1.2c-3.3-1.6-6.6-2.6-10.2-3C148,10.4,148,9.3,148.8,9.3z M127.3,75.3c3.4,0.4,6.3,2.3,7.7,5.5
		c0.5,1-1,1.9-1.5,0.9c-1.2-2.6-3.5-4.4-6.3-4.9C126.2,76.6,126.4,75.2,127.3,75.3z M119.8,41.5c-2.6-3-5.6-5.7-9-7.8
		c-0.8-0.5-0.1-1.8,0.8-1.3c3.7,2.2,6.8,4.8,9.3,8.3C121.3,41.3,120.3,42.1,119.8,41.5z M108.5,26.9c4.3,1.5,8.6,4,11.3,7.8
		c0.4,0.6-0.4,1.4-0.9,1c-3.6-2.7-6.9-5.3-11.1-7.1C106.9,28.1,107.5,26.5,108.5,26.9z M116.7,135c0.6,0.5-0.2,1.5-0.9,1.1
		c-3.3-2.2-5.7-5.1-7.4-8.7c-0.4-0.7,0.7-1.4,1.1-0.6C111.4,129.9,113.8,132.6,116.7,135z M112.3,134.9c0.6,0.8-0.4,1.8-1.1,1.1
		c-3.3-3.2-5.8-7-7.8-11.1c-0.4-0.8,0.8-1.4,1.2-0.7C106.7,128.1,109.3,131.6,112.3,134.9z M101.6,171.9c-2.9,0.2-5.7,0.3-8.5,0.4
		c-0.9,0-0.8-1.2,0-1.3c2.8-0.3,5.7-0.5,8.5-0.6C102.6,170.4,102.6,171.9,101.6,171.9z M96.8,167.8c-3.8,1.2-7.6,1-11.4,0
		c-0.8-0.2-0.4-1.3,0.3-1.2c3.6,0.7,7.1,0.5,10.7-0.2C97.3,166.2,97.7,167.5,96.8,167.8z M43.1,109.4c0.3,3,0.4,6,0.5,9
		c0,1-1.5,1-1.6,0c-0.2-3-0.5-6-0.6-9C41.5,108.3,43,108.4,43.1,109.4z M39.9,113.9c0.4,3.5,0.8,7,1.3,10.4c0.1,0.6-0.8,0.9-1,0.3
		c-0.8-3.5-1.4-7.1-1.4-10.7C38.8,113.1,39.9,113.2,39.9,113.9z M33.6,70.2c0-3.3,1.2-6.8,3.1-9.5c0.6-0.9,2-0.1,1.5,0.9
		c-1.4,2.9-2.3,5.7-3.1,8.8C34.7,71.2,33.5,71,33.6,70.2z M12.4,138c0.1,2.8,0.1,5.7-0.1,8.5c0,0.8-1.1,0.8-1.2,0
		c-0.2-2.9-0.2-5.7-0.1-8.5C11.1,137.2,12.3,137.2,12.4,138z M10.5,150.8c0.3,1-1.1,1.3-1.4,0.4c-1.3-3.7-2-7.6-1.4-11.5
		c0.2-1,1.7-0.7,1.7,0.2C9.5,143.7,9.6,147.2,10.5,150.8z"/>
</g>
</svg>
