<?xml version="1.0" encoding="utf-8"?>
<!-- Generator: Adobe Illustrator 16.0.0, SVG Export Plug-In . SVG Version: 6.00 Build 0)  -->
<!DOCTYPE svg PUBLIC "-//W3C//DTD SVG 1.1//EN" "http://www.w3.org/Graphics/SVG/1.1/DTD/svg11.dtd">
<svg version="1.1" id="Layer_1" xmlns="http://www.w3.org/2000/svg" xmlns:xlink="http://www.w3.org/1999/xlink" x="0px" y="0px"
	 width="100.5px" height="100px" viewBox="0 0 100.5 100" enable-background="new 0 0 100.5 100" xml:space="preserve">
<g>
	<g>
		<g>
			<defs>
				<rect id="SVGID_1_" x="29.33" y="83.849" width="0.266" height="0.613"/>
			</defs>
			<clipPath id="SVGID_2_">
				<use xlink:href="#SVGID_1_"  overflow="visible"/>
			</clipPath>
			<path clip-path="url(#SVGID_2_)" fill="#EEB26F" d="M29.592,84.063c-0.002-0.073-0.031-0.216-0.13-0.215
				c-0.1,0-0.126,0.143-0.128,0.217c-0.001,0.06-0.002,0.118-0.004,0.177c-0.001,0.075,0.038,0.222,0.137,0.221
				c0.102-0.003,0.13-0.15,0.128-0.227C29.594,84.18,29.593,84.122,29.592,84.063"/>
		</g>
		<g>
			<defs>
				<rect id="SVGID_3_" x="87.212" y="80.983" width="0.538" height="0.741"/>
			</defs>
			<clipPath id="SVGID_4_">
				<use xlink:href="#SVGID_3_"  overflow="visible"/>
			</clipPath>
			<path clip-path="url(#SVGID_4_)" fill="#EEB26F" d="M87.621,80.985c-0.096,0.016-0.189,0.049-0.282,0.077
				c-0.185,0.057-0.131,0.352-0.073,0.476c0.079,0.17,0.294,0.294,0.373,0.054c0.03-0.094,0.068-0.185,0.1-0.278
				C87.763,81.24,87.763,80.963,87.621,80.985"/>
		</g>
		<g>
			<defs>
				<rect id="SVGID_5_" x="93.479" y="79.826" width="0.629" height="0.51"/>
			</defs>
			<clipPath id="SVGID_6_">
				<use xlink:href="#SVGID_5_"  overflow="visible"/>
			</clipPath>
			<path clip-path="url(#SVGID_6_)" fill="#EEB26F" d="M93.928,79.828c-0.132,0.023-0.241,0.094-0.367,0.135
				c-0.08,0.026-0.122,0.212-0.025,0.241c0.134,0.042,0.257,0.106,0.397,0.13C94.196,80.376,94.138,79.789,93.928,79.828"/>
		</g>
		<g>
			<defs>
				<rect id="SVGID_7_" x="85.85" y="75.507" width="1.752" height="1.134"/>
			</defs>
			<clipPath id="SVGID_8_">
				<use xlink:href="#SVGID_7_"  overflow="visible"/>
			</clipPath>
			<path clip-path="url(#SVGID_8_)" fill="#EEB26F" d="M86.59,75.507c-0.295,0.004-0.524,0.11-0.687,0.318
				c-0.129,0.201-0.005,0.423,0.16,0.555c0.235,0.188,0.56,0.268,0.856,0.261c0.146-0.002,0.284-0.03,0.417-0.083
				c0.109-0.042,0.197-0.11,0.265-0.205C87.378,75.805,87.04,75.522,86.59,75.507"/>
		</g>
		<g>
			<defs>
				<rect id="SVGID_9_" x="92.983" y="75.266" width="0.64" height="0.448"/>
			</defs>
			<clipPath id="SVGID_10_">
				<use xlink:href="#SVGID_9_"  overflow="visible"/>
			</clipPath>
			<path clip-path="url(#SVGID_10_)" fill="#EEB26F" d="M93.58,75.392c-0.157-0.046-0.302-0.104-0.465-0.125
				c-0.179-0.023-0.174,0.475,0.01,0.446c0.063-0.01,0.129-0.016,0.19-0.04c0.077-0.032,0.153-0.062,0.234-0.086
				C93.613,75.567,93.66,75.416,93.58,75.392"/>
		</g>
		<rect x="21.041" y="68.927" fill="#3A2920" width="73.719" height="10.282"/>
		<path fill="#FFBE2E" d="M17.814,77.568c0,0-1.148-2.353-0.984-5.196c0.164-2.843,4.485-15.969,4.485-15.969
			s0.273-1.805,2.898-2.789c0,0,2.57-0.93,3.445-2.516s4.375-11.32,4.375-11.32s0.127-2.534-1.987-3.153
			c0,0-0.401-0.438,0.073-0.693c0.474-0.255,2.588-1.058,4.557-1.13c0,0,1.896-1.167,3.609-1.531c1.714-0.365,31.865,0,31.865,0
			s2.57,0.272,3.773,2.132l-2.598,1.067c0,0-1.394,0.301-0.875,2.133c0.52,1.832,4.02,13.426,4.02,13.426s1.642,2.188,5.688,1.531
			l16.79,7.93c0,0,1.366,0.547,1.366,2.352v13.071c0,0,0.328,2.788-5.031,3.391c0,0-0.746-9.771-7.874-9.771
			c-9.206,0-9.407,9.771-9.407,9.771H39.963c0,0-0.219-9.79-8.367-9.79s-9.023,9.79-9.023,9.79S20.768,80.794,17.814,77.568"/>
		<polygon fill="#FFF474" points="88.453,58.755 26.126,58.755 26.965,55.802 82.072,55.802 		"/>
		<path fill="#FFFFFB" d="M30.297,36.713l-7.041,17.349c0,0,3.567-1.275,4.274-2.756c0.708-1.481,4.502-11.527,4.502-11.527
			S32.171,37.257,30.297,36.713"/>
		<path fill="#FFFFFB" d="M33.619,52.849h12.305c0,0,1.34-0.082,1.367-1.53c0.027-1.45-0.656-13.235-0.656-13.235
			s-0.027-0.93-1.067-0.93h-6.945c0,0-2.27,0.027-3.5,3.364c-1.23,3.335-3.445,10.472-3.445,10.472S31.021,52.849,33.619,52.849"/>
		<path fill="#FFFFFB" d="M48.658,38.028l1.422,13.535c0,0,0,1.285,1.667,1.285h20.59l-5.14-15.695H49.424
			C49.424,37.153,48.588,37.362,48.658,38.028"/>
		<path fill="#FFFFFB" d="M73.924,35.402l6.234,18.157c0,0-3.636,0.903-5.688-1.531l-4.02-13.426c0,0-0.515-1.171,0.385-1.884
			C71.736,36.005,73.924,35.402,73.924,35.402"/>
		<path fill="#A54143" d="M21.314,56.403c0,0-1.294-0.2-1.695,0.675c-0.401,0.874-2.479,7.983-2.479,7.983s-0.12,1.077,1.161,1.077
			c1.282,0,1.646-0.857,1.646-0.857l2.479-7.985C22.426,57.296,22.458,56.264,21.314,56.403"/>
		<path fill="#739191" d="M93.02,80.096c0,0,1.121-2.783,3.526-2.966c2.407-0.182,2.954,0.802,2.954,0.802s-0.073,3.026-1.186,3.902
			C97.203,82.709,92.228,82.586,93.02,80.096"/>
		<path fill="#739191" d="M16.812,73.266c0,0-1.531,0.272-1.641,1.749c-0.109,1.478,0.11,3.172,0.11,3.172s0,0.931,1.476,0.985
			c1.477,0.055,3.063,0.108,3.063,0.108s1.75-0.272,1.914-1.694c0.165-1.422-0.273-2.734-0.273-2.734l-4.54-0.328L16.812,73.266z"/>
		
			<line fill="none" stroke="#F48011" stroke-width="6" stroke-linecap="round" stroke-miterlimit="10" x1="26.291" y1="60.177" x2="89.4" y2="60.177"/>
		<path fill="none" stroke="#F48011" stroke-miterlimit="10" d="M48.932,60.25l-0.365,18.594c0,0,26.177,0.365,26.177,0v-18.74
			l-1.239-7.291l-5.614-16.845H47.474L48.932,60.25z"/>
		<path fill="#739191" d="M69.495,52.155c0,2.095-0.556,3.792-1.24,3.792s-1.239-1.697-1.239-3.792c0-2.094,0.555-3.791,1.239-3.791
			S69.495,50.062,69.495,52.155"/>
		<path fill="#3F3832" d="M38.869,79.755c0,4.108-3.33,7.438-7.438,7.438s-7.438-3.329-7.438-7.438c0-4.107,3.33-7.438,7.438-7.438
			S38.869,75.647,38.869,79.755"/>
		<path fill="#D7C8CB" d="M36.627,79.755c0,2.87-2.326,5.196-5.196,5.196c-2.869,0-5.195-2.326-5.195-5.196
			c0-2.869,2.326-5.194,5.195-5.194C34.301,74.561,36.627,76.886,36.627,79.755"/>
		<path fill="#739191" d="M34.494,79.755c0,1.692-1.371,3.063-3.063,3.063s-3.063-1.37-3.063-3.063c0-1.69,1.371-3.063,3.063-3.063
			S34.494,78.064,34.494,79.755"/>
		<path fill="#D7C8CB" d="M90.003,79.755c0,2.87-2.326,5.196-5.196,5.196c-2.869,0-5.194-2.326-5.194-5.196
			c0-2.869,2.325-5.194,5.194-5.194C87.677,74.561,90.003,76.886,90.003,79.755"/>
		<path fill="#739191" d="M87.869,79.755c0,1.692-1.37,3.063-3.063,3.063c-1.69,0-3.063-1.37-3.063-3.063
			c0-1.69,1.372-3.063,3.063-3.063C86.499,76.692,87.869,78.064,87.869,79.755"/>
		<g>
			<defs>
				<rect id="SVGID_11_" x="15.308" y="73.706" width="6.176" height="3.535"/>
			</defs>
			<clipPath id="SVGID_12_">
				<use xlink:href="#SVGID_11_"  overflow="visible"/>
			</clipPath>
			<path clip-path="url(#SVGID_12_)" fill="#EDEBEB" d="M16.718,73.985c-0.012-0.067-0.025-0.139-0.068-0.192
				c-0.073-0.093-0.215-0.107-0.324-0.062c-0.109,0.045-0.192,0.137-0.266,0.229c-0.452,0.564-0.718,1.273-0.75,1.995
				c-0.004,0.099-0.004,0.202,0.04,0.291c0.06,0.122,0.187,0.194,0.309,0.255c1.419,0.702,3.066,0.866,4.635,0.653
				c0.401-0.055,0.845-0.163,1.056-0.508c0.147-0.24,0.144-0.541,0.125-0.822c-0.009-0.133-0.022-0.271-0.086-0.388
				c-0.154-0.285-0.531-0.346-0.854-0.373l-3.412-0.291c-0.101-0.008-0.216-0.025-0.27-0.111c-0.022-0.036-0.03-0.078-0.037-0.119
				C16.782,74.357,16.75,74.171,16.718,73.985"/>
		</g>
		<g>
			<defs>
				<rect id="SVGID_13_" x="93.419" y="77.475" width="5.509" height="3.609"/>
			</defs>
			<clipPath id="SVGID_14_">
				<use xlink:href="#SVGID_13_"  overflow="visible"/>
			</clipPath>
			<path clip-path="url(#SVGID_14_)" fill="#EDEBEB" d="M98.724,78.281c0.085-0.045,0.179-0.1,0.201-0.194
				c0.032-0.145-0.124-0.257-0.261-0.315c-1.117-0.479-2.467-0.374-3.495,0.275c-1.027,0.649-1.704,1.822-1.75,3.037
				C95.188,80.149,96.955,79.216,98.724,78.281"/>
		</g>
		<g>
			<defs>
				<rect id="SVGID_15_" x="82.248" y="77.337" width="5.115" height="3.228"/>
			</defs>
			<clipPath id="SVGID_16_">
				<use xlink:href="#SVGID_15_"  overflow="visible"/>
			</clipPath>
			<path clip-path="url(#SVGID_16_)" fill="#EDEBEB" d="M87.146,78.619c-0.315-0.541-0.82-0.974-1.415-1.168
				c-0.594-0.195-1.272-0.142-1.813,0.175c-0.254,0.148-0.474,0.352-0.676,0.566c-0.531,0.567-0.96,1.277-0.995,2.054
				c0.302-0.18,0.684-0.157,1.021-0.064c0.34,0.093,0.659,0.249,1.001,0.326c0.688,0.152,1.404-0.029,2.077-0.239
				c0.382-0.119,0.804-0.287,0.958-0.655C87.439,79.292,87.321,78.921,87.146,78.619"/>
		</g>
		<g>
			<defs>
				<rect id="SVGID_17_" x="28.902" y="77.384" width="5.027" height="3.098"/>
			</defs>
			<clipPath id="SVGID_18_">
				<use xlink:href="#SVGID_17_"  overflow="visible"/>
			</clipPath>
			<path clip-path="url(#SVGID_18_)" fill="#EDEBEB" d="M31.806,77.387c-0.799-0.041-1.608,0.296-2.151,0.884
				c-0.544,0.588-0.816,1.414-0.741,2.211c0.32-0.499,1.012-0.614,1.594-0.51c0.583,0.104,1.126,0.375,1.71,0.47
				s1.276-0.049,1.57-0.562c0.18-0.313,0.172-0.709,0.059-1.052C33.569,77.987,32.69,77.433,31.806,77.387"/>
		</g>
		<polygon fill="#FFFFFB" points="6.177,27.684 1.653,28.47 1.561,28.974 6.03,29.354 		"/>
		<polygon fill="#D83939" points="4.962,27.363 64.791,19.27 65.229,21.239 67.854,20.801 68.182,22.771 69.604,22.771 
			69.713,26.38 67.307,26.817 67.307,29.005 5.181,29.771 		"/>
		<polygon fill="#FFFFFF" points="5.181,29.114 67.307,26.817 67.307,29.005 		"/>
		<polygon fill="#FFFFFF" points="5.036,28.239 67.854,20.801 68.182,22.771 		"/>
		<path fill="#FFF46A" d="M24.868,29.891c-0.436,0.006-0.563,0.599-0.167,0.781c2.175,1.005,6.786,2.649,13.585,2.599
			c9.285-0.069,40.954-0.204,47.462-3.784c0.28-0.153,0.165-0.581-0.154-0.575L24.868,29.891z"/>
		<path fill="#FFF46A" d="M75.619,29.206c0,0,1.421-3.17,3.475-3.957c0,0-1.116,1.37-1.471,4.084L75.619,29.206z"/>
		<rect x="40.182" y="23.28" fill="#70AE97" width="24.72" height="6.271"/>
		<rect x="44.484" y="17.666" fill="#E58656" width="17.427" height="5.906"/>
		<polygon fill="#FFFFFB" points="69.713,24.629 97.932,25.066 97.823,26.052 69.495,25.505 		"/>
		
			<line fill="none" stroke="#AA4B22" stroke-width="0.994" stroke-linejoin="round" stroke-miterlimit="10" x1="44.557" y1="20.638" x2="61.906" y2="20.638"/>
		<rect x="47.418" y="20.108" fill="#FCC1A7" width="1.914" height="1.094"/>
		<rect x="56.606" y="20.108" fill="#FCC1A7" width="1.914" height="1.094"/>
		<path fill="#FCC1A7" d="M50.554,20.691c0,0-0.055,1.076,0.456,1.076h4.029c0,0,0.51,0,0.51-1.13h-0.911
			c0,0-0.019,0.711-0.292,0.729c-0.274,0.019-2.771,0-2.771,0s-0.329-0.036-0.329-0.675H50.554z"/>
		<rect x="40.182" y="23.28" fill="#89CEB2" width="4.43" height="6.271"/>
		<line fill="none" stroke="#36755B" stroke-miterlimit="10" x1="40.237" y1="26.543" x2="64.847" y2="26.543"/>
		<rect x="47.756" y="25.942" fill="#36755B" width="3.363" height="1.176"/>
		<rect x="58.912" y="25.942" fill="#36755B" width="3.364" height="1.176"/>
		<path fill="#89CEB2" d="M52.386,26.462c0,0-0.055,1.076,0.456,1.076h4.029c0,0,0.51,0,0.51-1.131H56.47
			c0,0-0.018,0.711-0.292,0.729c-0.273,0.019-2.771,0-2.771,0s-0.328-0.036-0.328-0.674H52.386z"/>
		<path fill="#FFF46A" d="M78.5,29.296c0,0,2.041-4.557,4.995-5.688c0,0-1.604,1.969-2.115,5.871L78.5,29.296z"/>
	</g>
</g>
</svg>
