<?xml version="1.0" encoding="utf-8"?>
<!-- Generator: Adobe Illustrator 23.0.3, SVG Export Plug-In . SVG Version: 6.00 Build 0)  -->
<svg version="1.1" id="Layer_1" xmlns="http://www.w3.org/2000/svg" xmlns:xlink="http://www.w3.org/1999/xlink" x="0px" y="0px"
	 viewBox="0 0 512 512" style="enable-background:new 0 0 512 512;" xml:space="preserve">
<style type="text/css">
	.st0{fill:#FFB655;}
	.st1{fill:#D8143A;}
	.st2{fill:#806749;}
	.st3{fill:#830018;}
	.st4{fill:#B8002B;}
	.st5{fill:#EE8700;}
</style>
<path class="st0" d="M294.6,124.1h39c12.9,0,23.3,10.4,23.3,23.3V205v24.5v8.9V256v77.5c0,1.9,0,3.8-0.1,5.7
	c-0.3,8.1-1.1,16.1-2.4,24c-1.4,8.2-3.3,16.2-5.8,24C440,379.6,512,302.8,512,209.5V23.3C512,10.4,501.6,0,488.7,0H333.6H178.4
	c-12.9,0-23.3,10.4-23.3,23.3v100.8h23.3h23.3h39.6L294.6,124.1"/>
<path class="st1" d="M333.6,124.1h-39h-53.2h-39.6h-23.3h-23.3H23.3C10.4,124.1,0,134.5,0,147.4v186.2C0,432,80,512,178.4,512
	c79.7,0,147.3-52.5,170.2-124.8c2.5-7.8,4.4-15.8,5.8-24c1.3-7.8,2.1-15.8,2.4-24c0.1-1.9,0.1-3.8,0.1-5.7V256v-17.6v-8.9V205v-57.6
	C356.8,134.5,346.4,124.1,333.6,124.1z"/>
<path class="st2" d="M425.3,138.3c-4.5,4.5-10.5,6.8-16.5,6.8s-11.9-2.3-16.5-6.8l-11-11c-9.1-9.1-9.1-23.8,0-32.9s23.8-9.1,32.9,0
	l11,11C434.4,114.5,434.4,129.2,425.3,138.3z M259,94.4l-11,11c-5.1,5.1-7.4,12-6.7,18.7h53.2c6.3-9.1,5.4-21.6-2.7-29.7
	C282.8,85.3,268.1,85.3,259,94.4z M356.8,205v24.5v8.9V256c4.1,3.1,7.7,7,10.3,11.6c4.3,7.5,12.1,11.6,20.2,11.6c4,0,8-1,11.6-3.1
	c11.1-6.4,14.9-20.7,8.5-31.8C396.2,224.9,377.9,211,356.8,205z"/>
<path class="st3" d="M93.1,240.5c0-12.9,10.4-23.3,23.3-23.3h15.5c12.9,0,23.3,10.4,23.3,23.3c0,12.9-10.4,23.3-23.3,23.3h-15.5
	C103.5,263.8,93.1,253.3,93.1,240.5z M240.5,310.3h-62.1h-62.1c-12.9,0-23.3,10.4-23.3,23.3c0,47.1,38.3,85.3,85.3,85.3
	s85.3-38.3,85.3-85.3C263.8,320.7,253.3,310.3,240.5,310.3z M225,263.8h15.5c6.3,0,12.1-2.5,16.3-6.7c4.3-4.2,7-10.1,7-16.6
	c0-12.9-10.4-23.3-23.3-23.3h-12.2H225c-12.9,0-23.3,10.4-23.3,23.3C201.7,253.3,212.1,263.8,225,263.8z"/>
<path class="st4" d="M93.1,333.6c0-12.9,10.4-23.3,23.3-23.3h62.1V124.1h-23.3H23.3C10.4,124.1,0,134.5,0,147.4v186.2
	C0,432,80,512,178.4,512v-93.1C131.4,418.9,93.1,380.6,93.1,333.6z M116.4,217.2h15.5c12.9,0,23.3,10.4,23.3,23.3
	s-10.4,23.3-23.3,23.3h-15.5c-12.9,0-23.3-10.4-23.3-23.3C93.1,227.6,103.5,217.2,116.4,217.2z"/>
<path class="st5" d="M178.4,0c-12.9,0-23.3,10.4-23.3,23.3v100.8h23.3h23.3h39.6c-0.7-6.7,1.6-13.6,6.7-18.7l11-11
	c9.1-9.1,23.8-9.1,32.9,0c8.1,8.1,9,20.6,2.7,29.7h39V0H178.4z"/>
</svg>
