<?xml version="1.0" encoding="utf-8"?>
<!-- Generator: Adobe Illustrator 23.0.3, SVG Export Plug-In . SVG Version: 6.00 Build 0)  -->
<svg version="1.1" id="Layer_1" xmlns="http://www.w3.org/2000/svg" xmlns:xlink="http://www.w3.org/1999/xlink" x="0px" y="0px"
	 viewBox="0 0 480.9 512" style="enable-background:new 0 0 480.9 512;" xml:space="preserve">
<style type="text/css">
	.st0{fill:#DEDEE0;}
	.st1{fill:#D8143A;}
	.st2{fill:#D6D5D8;}
	.st3{fill:#B8002B;}
</style>
<path class="st0" d="M457.6,0H318H178.4c-12.8,0-23.3,10.4-23.3,23.3v108.6c0,12.8,10.4,23.3,23.3,23.3h7.5h23.3h23.3H318h85.3h23.3
	h23.3h7.8c12.8,0,23.3-10.4,23.3-23.3V23.3C480.9,10.4,470.5,0,457.6,0z"/>
<path class="st1" d="M426.6,155.1h-23.3H318h-85.6h-23.3h-23.3V248l-53.9,0C59.2,248,0,307.2,0,380c0,72.8,59.2,132,132,132
	c0,0,0,0,0,0l185.9-0.1c0,0,0.1,0,0.1,0c72.7-0.1,131.8-59.3,131.8-132V155.1H426.6z"/>
<path class="st2" d="M232.5,155.1H318V0H178.4c-12.8,0-23.3,10.4-23.3,23.3v108.6c0,12.8,10.4,23.3,23.3,23.3h7.5h23.3L232.5,155.1
	L232.5,155.1z"/>
<path class="st3" d="M132,512C132,512,132,512,132,512l185.9-0.1c0,0,0.1,0,0.1,0V155.1h-85.6h-23.3h-23.3V248l-53.9,0
	C59.2,248,0,307.2,0,380C0,452.8,59.2,512,132,512z"/>
</svg>
