<?xml version="1.0" encoding="utf-8"?>
<!-- Generator: Adobe Illustrator 23.0.3, SVG Export Plug-In . SVG Version: 6.00 Build 0)  -->
<svg version="1.1" id="Layer_1" xmlns="http://www.w3.org/2000/svg" xmlns:xlink="http://www.w3.org/1999/xlink" x="0px" y="0px"
	 viewBox="0 0 512.5 520.7" style="enable-background:new 0 0 512.5 520.7;" xml:space="preserve">
<style type="text/css">
	.st0{fill:#FFCE54;}
	.st1{fill:#434A54;}
	.st2{fill:#AC92EB;}
	.st3{fill:#967ADC;}
	.st4{fill:#F6BB42;}
	.st5{fill:#E6E9ED;}
	.st6{fill:#DA4453;}
</style>
<rect x="0.3" y="474.7" class="st0" width="511.4" height="46"/>
<path class="st1" d="M106.7,426.7v42.7c0,5.9-4.8,10.7-10.7,10.7c-5.9,0-10.7-4.8-10.7-10.7v-42.7c0-5.9,4.8-10.7,10.7-10.7
	S106.7,420.8,106.7,426.7z M373.3,416c-5.9,0-10.7,4.8-10.7,10.7v42.7c0,5.9,4.8,10.7,10.7,10.7c5.9,0,10.7-4.8,10.7-10.7v-42.7
	C384,420.8,379.2,416,373.3,416z M245.3,0c-5.9,0-10.7,4.8-10.7,10.7v361.8c0,5.9,4.8,10.7,10.7,10.7s10.7-4.8,10.7-10.7V10.7
	C256,4.8,251.2,0,245.3,0z"/>
<path class="st2" d="M501.6,252.1c-5.9-5.4-13.6-8.4-21.6-8.4c-9,0-17.6,3.8-23.6,10.4L357,362.7H74.7c-17.6,0-32,14.3-32,32
	c0,17.6,14.4,32,32,32h305.9c3,0,5.8-1.3,7.9-3.5l115.2-125.9C515.5,284.3,514.6,264,501.6,252.1z"/>
<path class="st3" d="M352,362.7c0,5.9-4.8,10.7-10.7,10.7c-5.9,0-10.7-4.8-10.7-10.7H352z M298.6,373.3c5.9,0,10.7-4.8,10.7-10.7
	H288C288,368.5,292.8,373.3,298.6,373.3z M256,373.3c5.9,0,10.7-4.8,10.7-10.7h-21.3C245.3,368.5,250.1,373.3,256,373.3z
	 M213.3,373.3c5.9,0,10.7-4.8,10.7-10.7h-21.3C202.7,368.5,207.4,373.3,213.3,373.3z M170.7,373.3c5.9,0,10.7-4.8,10.7-10.7H160
	C160,368.5,164.8,373.3,170.7,373.3z M128,373.3c5.9,0,10.7-4.8,10.7-10.7h-21.3C117.3,368.5,122.1,373.3,128,373.3z"/>
<path class="st4" d="M341.3,490.7c-1.7,0-3.3-0.4-4.8-1.1l-16.6-8.3l-16.6,8.3c-3,1.5-6.5,1.5-9.5,0l-16.6-8.3l-16.6,8.3
	c-3,1.5-6.5,1.5-9.5,0l-16.6-8.3l-16.6,8.3c-3,1.5-6.5,1.5-9.5,0l-16.6-8.3l-16.6,8.3c-3,1.5-6.5,1.5-9.5,0l-16.6-8.3l-16.6,8.3
	c-3,1.5-6.5,1.5-9.5,0l-16.6-8.3l-16.6,8.3c-3,1.5-6.5,1.5-9.5,0L64,481.2l-16.6,8.3c-2.5,1.3-5.5,1.5-8.1,0.6l-32-10.7
	c-5.6-1.9-8.6-7.9-6.8-13.5c1.9-5.6,7.9-8.6,13.5-6.7l27.8,9.3l17.4-8.7c3-1.5,6.5-1.5,9.5,0l16.6,8.3l16.6-8.3c3-1.5,6.5-1.5,9.5,0
	l16.6,8.3l16.6-8.3c3-1.5,6.5-1.5,9.5,0l16.6,8.3l16.6-8.3c3-1.5,6.5-1.5,9.5,0l16.6,8.3l16.6-8.3c3-1.5,6.5-1.5,9.5,0l16.6,8.3
	l16.6-8.3c3-1.5,6.5-1.5,9.5,0l16.6,8.3l16.6-8.3c3-1.5,6.5-1.5,9.6,0l16.6,8.3l16.6-8.3c3-1.5,6.5-1.5,9.5,0l16.6,8.3l16.6-8.3
	c3-1.5,6.5-1.5,9.5,0l16.6,8.3l16.6-8.3c3-1.5,6.5-1.5,9.6,0l17.4,8.7l27.8-9.3c5.6-1.9,11.6,1.2,13.5,6.7
	c1.9,5.6-1.2,11.6-6.8,13.5l-32,10.7c-2.7,0.9-5.6,0.7-8.1-0.6l-16.6-8.3l-16.6,8.3c-3,1.5-6.5,1.5-9.5,0l-16.6-8.3l-16.6,8.3
	c-3,1.5-6.5,1.5-9.6,0l-16.6-8.3l-16.6,8.3C344.6,490.3,343,490.7,341.3,490.7z"/>
<path class="st5" d="M388.6,80.7c-38.3-38.3-89.2-59.4-143.3-59.4S140.3,42.4,102,80.7S42.7,169.9,42.7,224c0,4.4,2.5,8.6,6.6,10.2
	c4,1.6,8.4,0.8,11.4-2.3c1.2-0.9,11.1-7.8,35.4-7.8c24.2,0,34.2,6.9,35.4,7.8c2.1,2.2,4.4,3.6,7.4,3.5s5.2-1.2,7.1-3.5
	c1.8-1.2,13.3-7.8,46.1-7.8c32.7,0,44.3-0.7,46.1,0.4c2,2.3,7.2,3.5,7.3,3.5c3.1,0,5.8-0.6,7.8-3c1.8-1.2,12.9-0.9,45.6-0.9
	s44.2,6.6,46,7.8c1.8,2.1,3.9,3.2,6.7,3.4c2.9,0.3,5.2-1,7.4-2.9c1-0.8,12.3-8.3,36.8-8.3c23.6,0,33.4,6.9,34.5,7.8
	c3,3.1,7.4,3.9,11.4,2.3c4.1-1.6,6.5-5.8,6.5-10.2C448,169.9,426.9,119,388.6,80.7z"/>
<path class="st6" d="M345.2,123.3c-9.3-23.8-22.4-44.6-38.8-62c-28.2-29.9-56.7-39.1-57.9-39.5c-1.1-0.3-2.1-0.5-3.2-0.5
	s-2.2,0.2-3.2,0.5c-1.2,0.4-29.6,9.6-57.9,39.5c-16.4,17.4-29.5,38.2-38.8,62C133.9,152.7,128,186.6,128,224c0,4.5,2.5,9,6.8,10.5
	c1.3,0.5,2.6,0.7,3.9,0.7c2.8,0,5.4-1.1,7.4-3.4c1.8-1.2,13.2-7.8,46-7.8s44.2,6.6,46,7.8c1.9,2.3,4.5,3.4,7.3,3.4l0,0
	c2.8,0,5.4-1.1,7.3-3.4c1.8-1.2,13.3-7.8,46-7.8s44.2,6.6,46,7.8c1.9,2.3,4.6,3.4,7.4,3.4c1.3,0,2.6-0.2,3.9-0.7
	c4.3-1.5,6.7-6,6.7-10.5C362.6,186.6,356.8,152.7,345.2,123.3z"/>
</svg>
