<?xml version="1.0" encoding="utf-8"?>
<!-- Generator: Adobe Illustrator 23.0.3, SVG Export Plug-In . SVG Version: 6.00 Build 0)  -->
<svg version="1.1" id="Layer_1" xmlns="http://www.w3.org/2000/svg" xmlns:xlink="http://www.w3.org/1999/xlink" x="0px" y="0px"
	 viewBox="0 0 512 512" style="enable-background:new 0 0 512 512;" xml:space="preserve">
<style type="text/css">
	.st0{fill:#00C6C1;}
	.st1{fill:#007784;}
	.st2{fill:#00A3A4;}
	.st3{fill:#A5DDD3;}
</style>
<path class="st0" d="M246.2,333.8c0,5.8-4.7,10.5-10.5,10.5h-83.9c-5.8,0-10.5-4.7-10.5-10.5s4.7-10.5,10.5-10.5h83.9
	C241.5,323.3,246.2,328,246.2,333.8z M486.1,312.8h2.6c12.9,0,23.3-9.4,23.3-21s-10.4-21-23.3-21h-70c-12.9,0-23.3,9.4-23.3,21
	s10.4,21,23.3,21h2.6c-14.3,0-25.9,9.4-25.9,21s11.6,21,25.9,21h64.8c14.3,0,25.9-9.4,25.9-21C512,322.2,500.4,312.8,486.1,312.8z
	 M289.4,89H89c-49.1,0-89,39.9-89,89s39.9,89,89,89h44.5c14.8,0,28-10,32.1-24.2l9.7-34.1c1.3-4.6,5.2-8,9.7-8.4
	c5.3-0.5,10.2,2.8,11.6,7.9l9.9,34.6c4.1,14.3,17.3,24.2,32.1,24.2h50.7c49.1,0,89-39.9,89-89S338.5,89,289.4,89z"/>
<path class="st1" d="M175.4,208.8c1.3-4.6,5.2-8,9.7-8.4c5.3-0.5,10.2,2.8,11.6,7.9l9.9,34.6c4.1,14.3,17.3,24.2,32.1,24.2h50.7
	c49.1,0,89-39.9,89-89s-39.9-89-89-89H89c-49.1,0-89,39.9-89,89s39.9,89,89,89h44.5c14.8,0,28-10,32.1-24.2L175.4,208.8z M154,202.7
	l-9.7,34.1c-1.4,4.8-5.8,8.1-10.7,8.1H89c-36.8,0-66.8-30-66.8-66.8s30-66.8,66.8-66.8h200.3c36.8,0,66.8,30,66.8,66.8
	s-30,66.8-66.8,66.8h-50.7c-4.9,0-9.3-3.3-10.7-8.1l-9.9-34.6c-4.1-14.4-17.3-24.1-32-24.1c-1,0-2.1,0-3.1,0.1
	C169.5,179.5,157.8,189.3,154,202.7z M486.4,31.5v239.4l-0.1,83.9C483.5,442.1,411.9,512,323.9,512c-89.8,0-162.5-72.8-162.5-162.5
	v-15.7h62.9v15.7c0,55,44.6,99.6,99.6,99.6c53.3,0,96.7-41.8,99.5-94.4h0.1v-83.9V31.5C423.5,14.1,437.6,0,455,0
	C472.3,0,486.4,14.1,486.4,31.5z"/>
<path class="st2" d="M438.9,31.5v323.3c0,1.3-0.1,2.6-0.3,3.9C433.9,422.1,381,471.4,317,471.4c-67.2,0-121.9-54.7-121.9-121.9
	v-15.7h29.1v15.7c0,55,44.6,99.6,99.6,99.6l0,0c53.3,0,96.8-41.8,99.5-94.4h0.1v-83.9V31.5c0-17.4,14.1-31.5,31.5-31.5
	c5.5,0,10.6,1.4,15.1,3.8c-1.8,10.5-10.9,18.4-21.9,18.4C443,22.3,438.9,26.4,438.9,31.5z"/>
<path class="st3" d="M269.2,267.1h-30.5c-14.8,0-28-10-32.1-24.2l-9.9-34.6c-1.5-5.1-6.3-8.4-11.6-7.9c-4.5,0.4-8.3,3.8-9.7,8.4
	l-9.7,34.1c-4.1,14.3-17.3,24.2-32.1,24.2H89c-6.8,0-13.4-0.8-19.7-2.2l40-175.9h180.1c6.8,0,13.4,0.8,19.7,2.2L269.2,267.1z
	 M512,291.8H395.4c0-11.6,10.4-21,23.3-21h70C501.6,270.8,512,280.2,512,291.8z M486.1,312.8h-64.8c-14.3,0-25.9,9.4-25.9,21
	c0,0.1,0,0.1,0,0.2H512c0-0.1,0-0.1,0-0.2C512,322.2,500.4,312.8,486.1,312.8z"/>
</svg>
