<?xml version="1.0" encoding="utf-8"?>
<!-- Generator: Adobe Illustrator 23.0.3, SVG Export Plug-In . SVG Version: 6.00 Build 0)  -->
<svg version="1.1" id="Layer_1" xmlns="http://www.w3.org/2000/svg" xmlns:xlink="http://www.w3.org/1999/xlink" x="0px" y="0px"
	 viewBox="0 0 512 512" style="enable-background:new 0 0 512 512;" xml:space="preserve">
<style type="text/css">
	.st0{fill:#386895;}
	.st1{fill:#273B7A;}
	.st2{fill:#FFFFFF;}
	.st3{fill:#D0D1D3;}
	.st4{fill:#FF314F;}
	.st5{fill:#A30F44;}
</style>
<circle class="st0" cx="256" cy="256" r="256"/>
<path class="st1" d="M282.4,510.6c112.5-11.5,203.4-95.9,224.8-205.1L310.7,110.3l-14.3-0.6l-73.3,5l-44.7,76.7l116.8,116.8
	L185.5,413.8L282.4,510.6z"/>
<path class="st2" d="M178.4,258.4v136.2c0,16.3,13.2,29.5,29.5,29.5h96.1c16.3,0,29.5-13.2,29.5-29.5V165.1
	c0-42.6-34.6-77.2-77.2-77.2h-0.8c-42.6,0-77.2,34.6-77.2,77.2v26.3h36v-16.5c0-22.9,18.6-41.5,41.5-41.5l0,0
	c22.9,0,41.5,18.6,41.5,41.5v33.7l-104.4,30.2C184.4,241.3,178.4,249.3,178.4,258.4z"/>
<path class="st3" d="M256.4,87.9H256v45.4c22.9,0,41.5,18.6,41.5,41.5v33.7l-41.5,12v203.5h48.1c16.3,0,29.5-13.2,29.5-29.5V165.1
	C333.6,122.5,299,87.9,256.4,87.9z"/>
<path class="st4" d="M215.3,315.3c0-14.1,9.1-20.4,20.4-20.4S256,304,256,315.3c0-11.3,9.1-20.4,20.4-20.4s20.4,8.7,20.4,20.4
	c0,28.5-40.7,44.1-40.7,44.1S215.3,344,215.3,315.3z"/>
<path class="st5" d="M256,315.3c0-11.3,9.1-20.4,20.4-20.4s20.4,8.7,20.4,20.4c0,28.5-40.7,44.1-40.7,44.1L256,315.3L256,315.3z"/>
</svg>
