<?xml version="1.0" encoding="utf-8"?>
<!-- Generator: Adobe Illustrator 22.0.1, SVG Export Plug-In . SVG Version: 6.00 Build 0)  -->
<svg version="1.1" id="Layer_1" xmlns="http://www.w3.org/2000/svg" xmlns:xlink="http://www.w3.org/1999/xlink" x="0px" y="0px"
	 viewBox="0 0 49 49" style="enable-background:new 0 0 49 49;" xml:space="preserve">
<style type="text/css">
	.st0{fill:#D1D1D1;}
</style>
<path class="st0" d="M48.6,28.8c-0.1,0.5-0.2,1-0.3,1.5c-0.5,1.9-1.1,3.7-2,5.4C42.2,43.6,34,49,24.5,49C11,49,0,38,0,24.5
	c0-5.6,1.9-10.8,5.1-14.9C6,8.5,6.9,7.4,7.9,6.5C12.3,2.5,18.1,0,24.5,0C30.8,0,36.6,2.4,41,6.4c0.4,0.4,0.8,0.7,1.1,1.1
	c0.1,0.1,0.3,0.3,0.4,0.4c1.9,2.1,3.5,4.5,4.6,7.1c0,0,0,0,0,0l0.1,0.1l0.1,0.4h0c0.8,2.1,1.4,4.3,1.6,6.7c0.1,0.7,0.1,1.4,0.1,2.1
	c0,0.1,0,0.2,0,0.3C49,26,48.9,27.4,48.6,28.8z M11.3,7.5L11.3,7.5l0,0.4h1.1l0,0h-1.1V7.5z M40.8,9.1l0,1.1l0,0L40.8,9.1
	C40.8,9.1,40.8,9.1,40.8,9.1z M40,11l-0.1-0.3l0,0L40,11l1.5,0l0,0L40,11z M45,15.4l-0.2,0l-0.4,0.1v0l0.4-0.1L45,15.4
	C45,15.4,45,15.4,45,15.4z M45.5,16.4l-1.2,0l-0.6-0.6l-0.1-1L43,15.1l-0.3,1.3l-0.9-0.9l0-0.9l-0.8-0.7l-0.3-0.3h-1l0.3,0.9
	l1.2,0.7l0.2,0.2l-0.3,0.1l0,0.7l-0.6,0.2L40,16.2l-0.3-0.4l0.8,0l0.2-0.3L39,14.3l-0.1-0.5l-0.7,0.6l-0.7-0.1l-1.1,1.4l-0.2,0.6
	l-0.7,0.1l-1,0l-0.6-0.3l-0.2-1.2l0.2-0.6l1.1-0.2l1.2,0.2l0.1-0.6l-0.5-0.1l0.2-1l1.2-0.2l0.8-1.1l0.8-0.1l0.8,0.1h0.3l-0.2-1.1
	l-0.9,0.4l-0.3-0.8l-0.5-0.1L37.6,9L38,8.5l1-0.4l0.3-0.5C35.4,4.1,30.2,2,24.5,2C19.6,2,15,3.6,11.3,6.3l1.1,0l0.5,0.3l1,0.2
	L14,7.2l1.5,0.1l-0.2-0.5l-1.3,0l0.3-0.3l-0.1-0.4h-1.2l1.3-1h1.3l0.6,0.8l1,0.1l0.6-0.6l0.4,0.2l-0.8,0.8c0,0-1.1,0-1.1,0
	c0.1,0,0.1,0.8,0.1,0.8l1.4,0l0.1-0.4l1-0.1l0.1-0.6l-0.6-0.1l0.2-0.5L19,5.4l1.5,0.1l-0.8,0.7l0.1,0.6L20.6,7l-0.1-1l0.8-0.4
	l1.5-0.2L25,6.3v0.8l0.7,0.2l-0.3,0.6h-1l-0.3,0.7l-2.2-0.5l1.7-0.9L23,6.6l-1.5,0.2l-0.1,0.1l0,0l0,0l-0.4,0.4l-0.7,0.1l0.1,0.3
	l0.2,0.1l0,0.1l-0.6,0.1l0,0.3l-0.5,0l-0.1-0.7l-1,0.3l-2,1.2l0.2,0.8l0.6,0.4l1.1,0.2v1.3l0.5-0.1l0.5-1l1.2-0.4V8.9L21,8.4
	l1.6,0.4l-0.1,1h0.4l1.2-0.6l0.1,1.3l0.9,0.5l0,0.8l-0.8,0.3l0.1,0.3l1,0.5l0,0.5l-0.3,0c0,0,0,0,0,0L23.6,13l-0.1-0.4h0l0.4-0.3V12
	l-0.4-0.1l-0.1,0.3l-0.7,0.1l-0.1,0v0l-0.2,0L22.3,12L22,11.9h-0.5l-0.2,0.2v0.4l0.4,0.1l0.4,0.1l-0.1,0l-0.4,0.4l-0.2-0.2l-0.4-0.1
	l-1,0.9l0.1,0.1l-1.5,0.8l-1.4,1.4l-0.1,0.6L16,17.7l-0.7,0.7l0.1,1.4l-1-0.4l0-0.8l-2.7,0l-1.4,0.7l-0.6,1.1l-0.2,0.9L9.9,22
	l1.1,0.1l1.7-1.1l0.1,0.6l-0.5,1l1.3,0.2l0.1,2l1.8,0.3l1.1-1.3l1.4,0.3l0.5,0.7l1.3-0.1l0-0.4l0.7,0.4l0.8,1.3l1.4,0l0.5,0.9
	l0.1,1.1l1.6,0.6l2,0l0.6,1l0.9,0.3l-0.2,0.8l-1,1.2l-0.3,2.7l-0.9,0.7l-1.3,0l-0.4,0.7l0.3,1.4l-1.4,1.8L23,40l-1.3,0.6l-0.9,0.1
	l0,0.4l0.6,0.2l-0.1,0.4l-0.6,0.5l0.3,0.4l0.7,0l0,0.5l-0.2,0.5l-0.1,0.4l1,0.8l-0.1,0.4l-1.3,0l-1.3-1.2l-1-1.8l0.1-1.8l-0.8-1
	l0.3-1.8l-0.5-0.1v-3.8c0,0-1.3-1-1.4-1c-0.1,0-0.7-0.2-0.7-0.2l-0.1-0.7l-1.7-2.1l0.2-0.8l0.1-1.3l1.2-0.8l-0.2-1.4l-1.7-0.1
	l-1.3-1.5l-1-0.3l-0.6-0.1l0.1-0.6l-0.8-0.1v0.3l-2-0.5l-0.8-1.2l0.3-0.6L6.2,19l-0.2-1.3H5.4L5.6,19l0.9,1.3l-0.1,0.5l-0.7-0.1
	l-0.9-1.5v-1.8L3.8,17v-1.3c0.2-0.6,0.5-1.1,0.8-1.7l0.9-1.1l0-0.4c0,0,0,0,0,0l0,0.4L4.6,14c0,0,0,0,0,0c-0.3,0.5-0.6,1.1-0.8,1.7
	C2.7,18.4,2,21.4,2,24.5C2,36.9,12.1,47,24.5,47c7,0,13.3-3.2,17.4-8.3h-0.7v-1.5L40.3,36v-1.8l-0.7-0.7l-0.1-0.7l0.8-1.6l-1.6-2.8
	l0.2-1.9l-1.4-0.1l-0.5-0.5h-1l-0.5,0.4H34l-0.1,0.1H33L30.9,24l0-1.9l0.4-0.1l0.1-0.7h-0.5l-0.2-0.8l2.5-1.8v-1.3l1.2-0.7l0.5,0h1
	l0.8-0.4l2.5-0.2v1.3l2,0.5l0.4,0.3h0.4v-0.7l1.1-0.1l1.1,0.8h1.8l0.1-0.1C45.9,17.6,45.7,17,45.5,16.4z M13.4,11.1l0.4,0.7l0,0
	L13.4,11.1z M16.3,12.6v0.3h0L16.3,12.6l-0.9,0L15,12.7l0.4-0.2H16.3z M15.9,15.1h0.7l0.3-0.3v0l-0.3,0.3L15.9,15.1L15.9,15.1z
	 M17.3,14L17.3,14l0.9,0.3L17.3,14z M18.1,13.6l-0.3-0.2h0L18.1,13.6z M34.7,10.5l0.4,0.2l0,0.5l-0.9,0.7h-0.5v-0.5l0.4-0.7
	L34.7,10.5z M35.7,11.3l0-0.4l-0.5-0.3l-0.4-0.2V10L35,9.7l0.7-0.2l0.2,0.9l0.4,0.6l0.3,0.3l0.5,0.2l-0.4,0.5l-0.9,0.1h-0.7l0.1-0.8
	L35.7,11.3z M22.7,13.6l-0.1,0.3l-0.2,0.2l-0.4,0c0-0.1,0-0.2,0-0.2h-0.2v-0.3h0.6l0.1-0.3l0.3,0l0.3,0.1l-0.1,0.3L22.7,13.6z
	 M20.9,14.2l0-0.3l0.2-0.3l0.3,0.2l0,0.3L20.9,14.2z"/>
</svg>
