<?xml version="1.0" encoding="utf-8"?>
<!-- Generator: Adobe Illustrator 23.0.3, SVG Export Plug-In . SVG Version: 6.00 Build 0)  -->
<svg version="1.1" id="Layer_1" xmlns="http://www.w3.org/2000/svg" xmlns:xlink="http://www.w3.org/1999/xlink" x="0px" y="0px"
	 viewBox="0 0 386.2 251.2" style="enable-background:new 0 0 386.2 251.2;" xml:space="preserve">
<style type="text/css">
	.st0{fill:#37495E;}
	.st1{fill:#3E81C8;}
	.st2{fill:#EFEFEF;}
</style>
<g>
	<path class="st0" d="M383.7,127.6L258.4,2.3c-2.3-2.3-5.7-3-8.7-1.7s-4.9,4.2-4.9,7.4v49.6c0,3.7,2.5,7.1,6.1,8
		c5.2,1.2,9.9-2.8,9.9-7.8V27.3l97.9,97.9H27.3l97.9-97.9l0,30.2c0,3.7,2.5,7.1,6.1,8c5.2,1.2,9.9-2.8,9.9-7.8V8
		c0-3.2-2-6.2-4.9-7.4s-6.4-0.5-8.7,1.7L2.3,127.6c-1.4,1.5-2.3,3.5-2.3,5.7v48.3c0,38.4,31.2,69.6,69.6,69.6h61.2
		c25,0,45.3-20.3,45.3-45.3v-19.8h34v19.8c0,25,20.3,45.3,45.3,45.3h61.2c38.4,0,69.6-31.2,69.6-69.6v-48.4
		C386,131,385.1,129,383.7,127.6z M210,170.2h-34v-29h34V170.2z"/>
	<path class="st1" d="M370,169.2v12.4c0,29.5-24,53.6-53.6,53.6h-61.2c-16.1,0-29.3-13.1-29.3-29.3v-36.8L370,169.2L370,169.2z
		 M16,181.6c0,29.5,24,53.6,53.6,53.6h61.2c16.1,0,29.3-13.1,29.3-29.3v-36.8H16V181.6z"/>
	<path class="st2" d="M370,141.2v12H226v-12H370z M16,153.2h144v-12H16V153.2z"/>
</g>
</svg>
