<?xml version="1.0" encoding="utf-8"?>
<!-- Generator: Adobe Illustrator 23.0.3, SVG Export Plug-In . SVG Version: 6.00 Build 0)  -->
<svg version="1.1" id="Layer_1" xmlns="http://www.w3.org/2000/svg" xmlns:xlink="http://www.w3.org/1999/xlink" x="0px" y="0px"
	 viewBox="0 0 512 512" style="enable-background:new 0 0 512 512;" xml:space="preserve">
<style type="text/css">
	.st0{fill:#FFF48B;}
	.st1{fill:#00CEA6;}
	.st2{fill:#00A384;}
	.st3{fill:#006571;}
	.st4{fill:#D8BF77;}
	.st5{fill:#C92B00;}
	.st6{fill:#FF4800;}
	.st7{fill:#FF7443;}
	.st8{fill:#3A2C1F;}
	.st9{fill:#F7DB4F;}
	.st10{fill:#EA7C18;}
</style>
<path class="st0" d="M445.2,489.7H66.8c-24.6,0-44.5-19.9-44.5-44.5V66.8c0-24.6,19.9-44.5,44.5-44.5h378.4
	c24.6,0,44.5,19.9,44.5,44.5v378.4C489.7,469.8,469.8,489.7,445.2,489.7z"/>
<path class="st1" d="M512,222.9v61.3c0,24.6-19.9,44.5-44.5,44.5h-423C19.9,328.7,0,308.8,0,284.2v-61.3
	c16.3,17.7,39.2,27.9,63.8,27.9c24.7,0,47.8-10.3,64.1-28.2c16.3,17.9,39.4,28.2,64.1,28.2s47.8-10.3,64.1-28.2
	c16.3,17.9,39.4,28.2,64.1,28.2s47.8-10.3,64.1-28.2c16.3,17.9,39.4,28.2,64.1,28.2C472.8,250.8,495.7,240.6,512,222.9z"/>
<path class="st2" d="M512,310.8c0,0.7,0,1.4-0.1,2c0,0,0,0,0.1-0.1v33.1c0,24.6-19.9,44.5-44.5,44.5h-423
	C19.9,390.3,0,370.4,0,345.8v-33.1c0,0,0,0,0.1,0.1c0-0.7-0.1-1.3-0.1-2v-33.1c16.3,17.7,39.2,27.9,63.8,27.9
	c24.7,0,47.8-10.3,64.1-28.2c16.3,17.9,39.4,28.2,64.1,28.2s47.8-10.3,64.1-28.2c16.3,17.9,39.4,28.2,64.1,28.2s47.8-10.3,64.1-28.2
	c16.3,17.9,39.4,28.2,64.1,28.2c24.6,0,47.5-10.2,63.8-27.9L512,310.8L512,310.8z"/>
<path class="st3" d="M0,411.8v-80.7C16.3,348.8,39.2,359,63.8,359c24.7,0,47.8-10.3,64.1-28.2c16.3,17.9,39.4,28.2,64.1,28.2
	s47.8-10.3,64.1-28.2c16.3,17.9,39.4,28.2,64.1,28.2s47.8-10.3,64.1-28.2c16.3,17.9,39.4,28.2,64.1,28.2c24.6,0,47.5-10.2,63.8-27.9
	v80.7c0,6.1-5,11.1-11.1,11.1H11.1C5,423,0,418,0,411.8z"/>
<path class="st4" d="M512,411.8v89H0v-89H512z"/>
<path class="st5" d="M378.4,434.1H203.5c-100.1,0-181.3-81.1-181.3-181.3V77.9L378.4,434.1z"/>
<path class="st6" d="M356.2,411.8H203.1c-87.6,0-158.6-71-158.6-158.6V100.2L356.2,411.8z"/>
<path class="st7" d="M300.5,356.2h-96.9c-55.5,0-100.4-45-100.4-100.4v-96.9L300.5,356.2z"/>
<path class="st0" d="M125.2,284.4c2.8,5.5,0.6,12.2-4.9,15c-1.6,0.8-3.3,1.2-5,1.2c-4.1,0-8-2.2-9.9-6.1C94.5,273,89,249.9,89,225.7
	v-69.9c0-6.1,5-11.1,11.1-11.1s11.1,5,11.1,11.1v69.9C111.3,246.3,116,266.1,125.2,284.4z M167,332.6c-1.5-1-3-2.1-4.4-3.2
	c-4.9-3.7-11.9-2.8-15.6,2.1c-3.7,4.9-2.8,11.9,2.1,15.6c1.7,1.3,3.4,2.5,5.1,3.8c1.9,1.4,4.2,2,6.4,2c3.5,0,7-1.7,9.1-4.7
	C173.2,343.1,172,336.2,167,332.6z"/>
<path class="st8" d="M500.9,489.7h-51L19,58.9c-4.3-4.3-11.4-4.3-15.7,0c-4.3,4.3-4.3,11.4,0,15.7l237.2,237.2L73.1,489.7h-62
	c-6.1,0-11.1,5-11.1,11.1C0,507,5,512,11.1,512h489.7c6.1,0,11.1-5,11.1-11.1C512,494.7,507,489.7,500.9,489.7z M256.2,327.6
	l162.1,162.1H103.7L256.2,327.6z"/>
<path class="st9" d="M473,89c0,27.7-22.4,50.1-50.1,50.1s-50.1-22.4-50.1-50.1S395.3,39,423,39S473,61.4,473,89z"/>
<path class="st10" d="M500.9,77.9h-23.4c-1.4-7.1-4.3-13.7-8.1-19.5l16.6-16.6c4.3-4.3,4.3-11.4,0-15.7c-4.3-4.3-11.4-4.3-15.7,0
	l-16.6,16.6c-5.8-3.9-12.4-6.7-19.5-8.1V11.1C434.1,5,429.1,0,423,0s-11.1,5-11.1,11.1v23.4c-7.1,1.4-13.7,4.3-19.5,8.1l-16.6-16.6
	c-4.3-4.3-11.4-4.3-15.7,0c-4.3,4.3-4.3,11.4,0,15.7l16.6,16.6c-3.9,5.8-6.7,12.4-8.1,19.5H345c-6.1,0-11.1,5-11.1,11.1
	s5,11.1,11.1,11.1h23.4c1.4,7.1,4.3,13.7,8.1,19.5L360,136.3c-4.3,4.3-4.3,11.4,0,15.7c2.2,2.2,5,3.3,7.9,3.3s5.7-1.1,7.9-3.3
	l16.6-16.6c5.8,3.9,12.4,6.7,19.5,8.1V167c0,6.1,5,11.1,11.1,11.1s11.1-5,11.1-11.1v-23.4c7.1-1.4,13.7-4.3,19.5-8.1l16.6,16.6
	c2.2,2.2,5,3.3,7.9,3.3s5.7-1.1,7.9-3.3c4.3-4.3,4.3-11.4,0-15.7l-16.6-16.6c3.9-5.8,6.7-12.4,8.1-19.5h23.4c6.1,0,11.1-5,11.1-11.1
	C512,82.9,507,77.9,500.9,77.9z M423,122.4c-18.4,0-33.4-15-33.4-33.4s15-33.4,33.4-33.4s33.4,15,33.4,33.4S441.4,122.4,423,122.4z"
	/>
</svg>
