<?xml version="1.0" encoding="utf-8"?>
<!-- Generator: Adobe Illustrator 23.0.3, SVG Export Plug-In . SVG Version: 6.00 Build 0)  -->
<svg version="1.1" id="Capa_1" xmlns="http://www.w3.org/2000/svg" xmlns:xlink="http://www.w3.org/1999/xlink" x="0px" y="0px"
	 viewBox="0 0 45.3 57.7" style="enable-background:new 0 0 45.3 57.7;" xml:space="preserve">
<style type="text/css">
	.st0{fill:#D1D4D1;}
	.st1{fill:#7D6599;}
	.st2{fill:#FFFFFF;}
</style>
<path class="st0" d="M3.7,57.7c-0.4,0-0.9-0.1-1.2-0.1c-1.1-0.2-1.9-1-2.3-2c-0.4-1.1-0.2-2.3,0.5-3.2c2.4-3.1,6.6-3.9,9.3-4.1
	c0-0.2,0-0.4-0.1-0.6c-0.3-1.8-0.6-3.2-1-4.2l1.8-0.8c0.5,1.1,0.9,2.7,1.2,4.6c0,0.3,0.1,0.6,0.1,0.9c0.2,0,0.4,0,0.4,0
	c3.8,0.2,7.6,0.6,11,1c6.9,0.8,12.8,1.5,15.1-0.8c1-1,1.4-2.8,1.1-5.3l2-0.2c0.4,3.2-0.2,5.5-1.7,7c-3,3-9.1,2.3-16.8,1.3
	c-3.3-0.4-7.1-0.8-10.9-1c0,0-0.2,0-0.4,0c-0.3,2-1.3,3.8-2.9,5.2C6.9,57.1,5.1,57.7,3.7,57.7z M9.8,50.2c-2.3,0.2-5.7,0.9-7.5,3.3
	c-0.3,0.4-0.4,0.9-0.2,1.3C2.2,55,2.4,55.4,3,55.6c1.5,0.3,3.1-0.3,4.8-1.8C8.8,52.9,9.5,51.6,9.8,50.2z"/>
<path class="st1" d="M45.3,41.8L45.3,41.8c-12.4,7.7-28.1,7.7-40.5,0l0,0L25,0L45.3,41.8z"/>
<path class="st2" d="M32.6,36.2l2,4.3L30,39.4l-3.5,3.2L26,38l-4.1-2.3l4.4-1.9l0.9-4.7l3.1,3.6l4.7-0.6L32.6,36.2z M16.5,18
	L16,18.5l-4.9,10.1l2.3-0.4l3.4,3.4l0.6-4.7l4.2-2.2l-4.3-2L16.5,18z M27.2,20.3l3.5-3.3l3,0.6L29,7.9l-1.1-1.3l-1.1,4.7l-4.3,1.9
	l4.2,2.3L27.2,20.3z"/>
</svg>
