<?xml version="1.0" encoding="utf-8"?>
<!-- Generator: Adobe Illustrator 23.0.3, SVG Export Plug-In . SVG Version: 6.00 Build 0)  -->
<svg version="1.1" id="Layer_1" xmlns="http://www.w3.org/2000/svg" xmlns:xlink="http://www.w3.org/1999/xlink" x="0px" y="0px"
	 viewBox="0 0 24.4 44.1" style="enable-background:new 0 0 24.4 44.1;" xml:space="preserve">
<style type="text/css">
	.st0{fill:#E9B44C;}
	.st1{fill:#EFC99F;}
	.st2{fill:#F3452A;}
	.st3{fill:#FEC717;}
	.st4{fill:#51D3E8;}
	.st5{fill:#D4F4F9;}
	.st6{fill:#FFF2C9;}
	.st7{fill:#FDDED9;}
</style>
<polygon class="st0" points="21.9,15.8 12.6,16.1 3.3,15.8 12.6,44.1 "/>
<path class="st1" d="M18.2,18.5l1.4-2.7l-1.1,0l-0.9,1.7l-1.2-1.7L14.9,16l-1,1.9L12.5,16L11,16l-1.1,2l-1.4-2.1l-1.3,0L7.2,16
	L6,18.2L4.5,16l-1.1,0.1l2.1,3.1l-0.7,1.2l0.4,1.3l0.9-1.6l1.4,2.2l-1.3,2.4l1.2,3.7L7.8,29l-0.1,0.2l0.4,1.2l0.3-0.6l1.6,2.3
	l-0.8,1.6L9.6,35l1.1-2l1.5,2.1L10.6,38l0.4,1.3l1.8-3.2l1.6,2.3l0.4-1.2l-1.5-2.1l1.3-2.3l1.1,1.7l0.4-1.2l-1-1.4l1.3-2.4l0.4,0.6
	l0.5-1L17,28.5l1.6-2.9l1.6-5L20,21.1L18.2,18.5z M15.7,16.5l1.4,2.1l-1.2,2.3l-1.5-2.1L15.7,16.5z M13.9,19.8l1.5,2.1l-1.2,2.4
	l-1.5-2.2L13.9,19.8z M13.6,25.3l-1.3,2.4l-1.5-2.3l1.3-2.3L13.6,25.3z M11.8,16.7l1.5,2.2L12,21.2L10.5,19L11.8,16.7z M10,20
	l1.5,2.2l-1.3,2.3l-1.5-2.2L10,20z M6.6,19.2l1.2-2.3L9.3,19l-1.2,2.3L6.6,19.2z M8.3,28l-1.6-2.2l1.4-2.6l1.5,2.2L8.3,28z
	 M10.5,31.1l-1.6-2.2l1.4-2.5l1.5,2.3L10.5,31.1z M12.7,34.2L11.2,32l1.3-2.4l1.5,2.3L12.7,34.2z M14.5,30.9L13,28.6l1.3-2.4
	l1.6,2.4L14.5,30.9z M16.4,27.6l-1.6-2.4l1.3-2.4l1.7,2.4L16.4,27.6z M18.2,24.3l-1.7-2.5l1.2-2.3l1.8,2.5L18.2,24.3z"/>
<path class="st2" d="M15,13.2c0,3.9-3.4,7.1-7.5,7.1S0,17.1,0,13.2s3.4-7.1,7.5-7.1C11.6,6,15,9.2,15,13.2z"/>
<path class="st3" d="M18.4,6.6c0,3.6-3.1,6.6-6.9,6.6s-6.9-2.9-6.9-6.6C4.6,3,7.7,0,11.5,0S18.4,3,18.4,6.6z"/>
<path class="st4" d="M24.4,12.2c0,3.6-3.1,6.6-6.9,6.6s-6.9-2.9-6.9-6.6s3.1-6.6,6.9-6.6S24.4,8.6,24.4,12.2z"/>
<path class="st5" d="M17.5,10.2c0,1.5-1.2,2.7-2.7,2.7s-2.7-1.2-2.7-2.7s1.2-2.7,2.7-2.7S17.5,8.7,17.5,10.2z"/>
<path class="st6" d="M12.1,4.4c0,1.5-1.2,2.7-2.7,2.7S6.7,5.9,6.7,4.4s1.2-2.7,2.7-2.7C10.9,1.8,12.1,2.9,12.1,4.4z"/>
<path class="st7" d="M6.3,12.4c0,1.5-1.2,2.7-2.7,2.7s-2.7-1.2-2.7-2.7s1.2-2.7,2.7-2.7S6.3,10.9,6.3,12.4z"/>
</svg>
