<?xml version="1.0" encoding="utf-8"?>
<!-- Generator: Adobe Illustrator 23.0.3, SVG Export Plug-In . SVG Version: 6.00 Build 0)  -->
<svg version="1.1" id="Layer_1" xmlns="http://www.w3.org/2000/svg" xmlns:xlink="http://www.w3.org/1999/xlink" x="0px" y="0px"
	 viewBox="0 0 63 26.4" style="enable-background:new 0 0 63 26.4;" xml:space="preserve">
<style type="text/css">
	.st0{fill:#3E50B4;}
</style>
<path class="st0" d="M61,1.5c-3.6-1-7,0.5-9.9,2.6c-3.6,2.7-6.7,5.7-9.8,8.9c-0.2-0.1-0.4-0.1-0.6-0.2c-2.3-0.7-4.8-1.2-7.3-1.2
	c-2.9-0.1-5.4,0.6-8.2,1.3c-1.4,0.4-3.1-0.5-4.7-0.4c-0.6,0-1.1,0.2-1.7,0.3c-0.9,0.1-1.8-0.1-2.7-0.3c-2.9-0.7-6-0.9-9.1-0.7
	c1.5-1.4,2.8-2.9,4.3-4.2c2-1.8,4.5-3.8,7.3-3.8c1.6,0,3.7,0.7,5.2-0.3c1.2-0.8,1.1-2-0.1-2.6c-3.8-2-8.2-0.2-11.5,2
	C8,5.8,4.1,9.4,0.5,13l-0.1,0.1c0,0,0,0.1-0.1,0.1C0,13.9-0.1,14.9,0,15.7c0.1,0.7,0.5,0.7,1,1.1c0.9,0.6,0.7,2.1,0.9,3
	s0.5,1.9,0.9,2.7c1.4,3.3,4.6,3.9,7.9,3.7c1.6-0.1,3.4-0.3,4.9-1c1.5-0.6,2.3-2,2.6-3.6c0.2-1,0.4-2,0.5-3c0.1-0.4,0.1-0.9,0.2-1.3
	c0.2-0.9,1.1-0.9,1.9-1c0.5,0,1.2,0,1.7,0.2c0.8,0.3,0.9,0.9,0.9,1.6c0.1,0.9,0.2,1.9,0.4,2.8c0.3,1.7,1.1,3,2.6,3.9
	s3.3,1.5,5.1,1.6c2.5,0.2,5.9-0.4,7.2-2.8c0.7-1.3,1-2.9,1.5-4.2c0.3-0.8,0.6-1.4,1.3-1.9c0.3-0.2,0.6-0.4,0.8-0.7
	c0,0,0.1,0,0.1-0.1c2.8-2.5,5.3-5.2,8-7.7c1.3-1.2,2.8-2.7,4.4-3.6c1.7-1,3.8-0.3,5.6-0.4c1,0,2.4-0.5,2.5-1.7
	C63.4,2.2,61.9,1.7,61,1.5z M23,1.3c0.5,0.2,1.3,0.4,0.8,1.3c-0.3,0.5-1.2,0.5-1.8,0.5c-0.8,0-1.6-0.1-2.4-0.1
	c-1.8-0.1-3.4,0.3-5,1.2c-3.4,2-5.9,5-8.7,7.6l-0.1,0.1c-1.2,0.1-2.4,0.3-3.5,0.6c3-2.9,6.1-5.7,9.4-8.2C15,1.9,18.9-0.2,23,1.3z
	 M40.7,17.5c-0.8,1-1.2,2.5-1.6,3.7c-0.5,1.5-0.9,2.9-2.5,3.7c-1.3,0.7-2.8,0.9-4.2,0.9c-1.6,0-3.1-0.5-4.5-1.1
	c-2.1-1-2.9-2.6-3.2-4.9c-0.1-1,0.2-3.1-0.9-3.7c-1.2-0.7-3.4-0.7-4.6-0.1c-0.4,0.2-0.6,0.4-0.8,0.8c-0.3,0.9-0.2,2-0.4,3
	c-0.4,2.1-0.6,4.2-2.9,5c-2.9,1-7.8,1.6-10.2-0.8c-1.5-1.5-2-4-2.3-6c-0.1-0.6-0.2-1.3-0.8-1.7c-0.4-0.3-0.7-0.4-0.8-1
	c-0.1-0.5,0-1.1,0.2-1.6c4.2-1.1,8.7-1.3,13-0.6c1,0.2,2,0.5,3,0.6c0.9,0.2,1.7,0,2.7-0.2c1.3-0.2,2.5,0.1,3.7,0.3
	c1,0.2,1.7-0.1,2.6-0.4c4.7-1.5,9.7-1.3,14.4,0.3c0.4,0.1,1.2,0.2,1.4,0.6c0.2,0.3,0.1,1,0.1,1.4C42.1,16.6,41.3,16.8,40.7,17.5z
	 M62.2,3.7c-0.3,0.6-1.4,0.5-1.9,0.5c-1.7,0-3.4-0.4-5,0.3s-3,2.2-4.2,3.3c-2.8,2.4-5.2,5.1-7.9,7.6c0-0.6,0-1.3-0.2-1.7
	c-0.1-0.2-0.4-0.4-0.7-0.5c3-3,6.1-6,9.6-8.6C53.8,3.2,56,2,58.4,1.9c1,0,2.1,0.1,3,0.5C61.8,2.6,62.8,2.8,62.2,3.7z M17.2,15.4
	c-0.4-0.6-1.1-0.9-1.8-1.1c-1.8-0.6-3.8-0.9-5.7-0.8c-1,0-2,0.1-3,0.2c-0.4,0.1-0.8,0.1-1.2,0.3c-0.7,0.4-1.2,1.1-1.3,1.9
	c-0.2,0.8-0.1,1.6,0,2.4c0.2,1.8,0.6,3.8,2,4.9c0.3,0.3,0.7,0.4,1,0.6c1.5,0.7,3.2,1,4.8,0.8c1.9-0.2,3.8-1.1,4.6-2.8
	c0.5-1.1,0.5-2.3,0.7-3.4C17.4,17.4,17.7,16.2,17.2,15.4z M5.7,17c0.5-0.5,0.9-0.9,1.5-1.3c0.3-0.2,0.7,0.2,0.4,0.4
	c-0.5,0.4-1,0.9-1.5,1.3C5.9,17.8,5.5,17.3,5.7,17z M10.6,16.1c-1.6,1-3,2.1-4.3,3.4c-0.3,0.3-0.7-0.2-0.4-0.4
	c1.4-1.3,2.8-2.5,4.4-3.5C10.6,15.3,10.9,15.9,10.6,16.1z M38.9,16.1c-0.1-0.8-0.6-1.5-1.2-1.9c-0.4-0.2-0.8-0.3-1.2-0.4
	c-1-0.2-2-0.3-3-0.4c-1.9-0.1-3.9,0.1-5.7,0.6c-0.7,0.2-1.4,0.4-1.8,1c-0.6,0.8-0.3,2-0.2,3c0.2,1.2,0.1,2.4,0.5,3.4
	c0.7,1.7,2.6,2.7,4.5,2.9c1.6,0.2,3.3,0,4.8-0.6c0.4-0.2,0.7-0.3,1.1-0.6c1.5-1.1,1.9-3,2.2-4.8C39,17.7,39.1,16.9,38.9,16.1z
	 M28,16.7c0.3-0.2,0.5-0.3,0.8-0.5s0.6,0.3,0.3,0.5s-0.5,0.3-0.8,0.5C28,17.5,27.7,16.9,28,16.7z M33.9,15.9
	c-2.1,1.2-4.1,2.6-5.9,4.2c-0.3,0.3-0.7-0.2-0.4-0.4c1.9-1.6,3.9-3.1,6.1-4.3C33.9,15.2,34.2,15.7,33.9,15.9z"/>
</svg>
