<?xml version="1.0" encoding="utf-8"?>
<!-- Generator: Adobe Illustrator 23.0.3, SVG Export Plug-In . SVG Version: 6.00 Build 0)  -->
<svg version="1.1" id="Layer_1" xmlns="http://www.w3.org/2000/svg" xmlns:xlink="http://www.w3.org/1999/xlink" x="0px" y="0px"
	 viewBox="0 0 46.6 54.6" style="enable-background:new 0 0 46.6 54.6;" xml:space="preserve">
<style type="text/css">
	.st0{fill:#3E50B4;}
</style>
<path class="st0" d="M5.7,10.4c0,0-3.9-3.3-4.5-1.5S5.7,10.4,5.7,10.4z M6,10.1c0,0-0.4-5.1-2.1-4.3C2.2,6.7,6,10.1,6,10.1z
	 M7.9,5.6C6.1,5,6.4,10.2,6.4,10.2S9.6,6.2,7.9,5.6z M10.9,8.2c-0.8-1.7-4.2,2.1-4.2,2.1S11.7,9.9,10.9,8.2z M4.5,15.6
	C6.3,16.2,6,11,6,11S2.7,15,4.5,15.6z M5.7,10.8c0,0-5.1,0.4-4.2,2.1C2.3,14.7,5.7,10.8,5.7,10.8z M16.3,53.5c0,0-0.8-10.1-0.3-13.8
	c1.9-0.1,3.4-0.5,4.6-1c0-0.3,0-0.6-0.1-0.9c-1.5,0.7-3.6,1.1-6.4,1.1c-17,0-5.3-15-5.3-20.2c0-2.1-0.7-4.4-1.3-5.8
	c0.3,0.7,0.7,1.3,1,1.9c0.4,1.3,0.7,2.8,0.7,4.3c0,4.9-11.4,19.3,4.9,19.3c2.9,0,4.9-0.4,6.4-1.2c-0.4-6.3-1-13.9-2.2-22.5h-7.5
	c0.5-0.6,0.9-1.4,1.2-2.2c0.1-0.3,0.2-0.7,0.2-1h5.6c0-0.2-0.1-0.4-0.1-0.7h-5.4c0.2-2.7-1.5-5.4-4.2-6.3c-3.2-1.1-6.7,0.7-7.8,4
	s0.6,6.9,3.8,8c1.3,0.4,2.7,0.6,3.9,0c0.4-0.2-0.4-2.3-1.1-3.9c0.7,1.5,1.6,3.7,1.6,5.8c0,5.3-11.6,20.4,4.2,21.2
	c0.5,3.7-0.3,13.8-0.3,13.8S12,54,6.7,54v0.2h6.5H21c0-0.1,0-0.1,0-0.2C16.6,54,16.3,53.5,16.3,53.5z M7.4,27.2
	c0.6-1.8,1.6-3,2.1-2.8s0.5,1.8-0.1,3.5c-0.6,1.8-1.6,3-2.1,2.8C6.7,30.6,6.8,29,7.4,27.2z M16.5,37.9c0,0-2.6,0.5-5.9-0.1
	C7.8,37.4,6.4,35,6.4,35C11.6,38.3,16.5,37.9,16.5,37.9z M6.8,10.9H6.2c-0.1-0.2-0.1-0.3-0.1-0.3s0,0.1,0,0.3H5.9
	c0,0,0.2,0.3,0.5,0.9c0.5,1.5,1.6,4,1.4,4.1c-1.1,0.4-2.3,0.4-3.5,0c-2.9-1-4.4-4.1-3.4-7s4.1-4.5,7-3.5c2.4,0.8,3.8,3.2,3.7,5.6
	H9.4c-1.3-0.2-2.8-0.1-2.8-0.1S6.7,10.8,6.8,10.9z M7,11.6h0.7c1.2,0.9,3,1.9,3.4,0.7c0.1-0.3,0-0.5-0.1-0.7h0.6
	c0,0.3-0.1,0.5-0.2,0.8c-0.3,1-0.9,1.8-1.6,2.4H9c-0.4-0.6-1.1-1.7-1.6-2.7C7.1,11.8,7,11.6,7,11.6z M13.4,53.8
	C13.2,54,11.1,54,11.1,54s1.2-0.2,1.4-0.4s0.5-9.7,0.5-9.7S13.5,53.6,13.4,53.8z M15.4,53.7C14.6,51.5,15.2,40,15.2,40
	s-2-0.2-2.3-0.3c0.3,0.1,2.9,0,2.9,0.1c0,0-0.1,1.2-0.1,3.1c0,2.5,0.1,8.7,0.5,10.7c0.2,0.2,1.2,0.4,1.2,0.4S15.5,53.9,15.4,53.7z
	 M18.4,4.5c0.3-0.1,0.6-0.1,0.8,0L33.1,2l-12-2l9.8,2l-3.8,0.7l-6-2.7l-3.2,3.2C18.1,3.7,18.3,4.2,18.4,4.5z M21.1,0l-3.8,2.2
	l0.1,0.1L21.1,0z M17.5,4.8c-0.1-0.2-0.2-0.5-0.3-0.8l-0.6,0.6l-4,0.7l3.9-2.4l-0.1-0.1l-5.9,3.3l6.8-1.2
	C17.3,4.8,17.4,4.8,17.5,4.8z M45.4,2.5c-2-2.7-5.9-3.3-8.7-1.2C34.8,2.7,34,4.9,34.2,7c-3.7,0-8.3,0-11.5,0l-0.5-2.7l-0.4,0.1
	L22.3,7c-0.5,0-0.9,0-1.3,0c0,0.4-0.1,0.7-0.3,1c0.5,0,1.1,0,1.8,0l1,5.4c-1.4,0-2.3,0-2.5,0c2.8,21.8,2.3,38.9,2.3,38.9h12.6
	c0,0-0.5-17.1,2.3-38.9c-0.5,0-9.5,0-14.3,0l-1-5.4c3.2,0,7.9,0,11.5,0c0.2,0.7,0.5,1.4,1,2c0.8,1.1,1.9,2,3.2,2.2
	c0.3,0.1,0.8-1.5,1.1-3c-3.8,25.2-3.1,43.9-3.1,43.9h-14c0,0,0.7-18.8-3.1-44.1c-0.1,0-0.2,0.1-0.3,0.1s-0.2,0-0.3,0
	c4.1,26.5,3.4,45.5,3.4,45.5H37c0,0-0.6-17.9,3.1-43.1c0,0.5,0.1,0.8,0.2,0.8c1.3,0.1,2.7-0.4,3.9-1.3C46.8,9.1,47.4,5.2,45.4,2.5z
	 M24.9,16.2L26.1,51h-1.3l-2.1-34.8H24.9z M22.6,54.4l-0.1-1l0.6,0.5l11.3,0.5H22.6z M38.7,11.5c-1.1-0.3-2.1-1-2.8-2
	c-0.4-0.5-0.6-1-0.8-1.6c0.5,0,1.1,0,1.5,0c-0.6,0.4-0.9,0.9-0.5,1.4c0.7,0.9,1.9-0.3,2.8-1.4c0.5,0,0.8,0,0.9,0
	C39.3,9.5,38.9,11.6,38.7,11.5z M43.6,10.6c-1,0.8-2.2,1.1-3.4,1.1c-0.1,0,0-1.1,0-2.4c0.1-0.8,0.2-1.6,0.4-2.4c0,0-0.1,0-0.2,0
	c0-0.1,0-0.1,0-0.2c0,0.1,0,0.1,0,0.2c-0.1,0-0.2,0-0.3,0c0.1-0.5,0.2-0.8,0.2-0.8c-0.1,0-0.2,0.3-0.3,0.8c-0.1,0-0.3,0-0.4,0
	c0.2-0.3,0.3-0.5,0.3-0.5s-0.6,0.2-1.4,0.5c-1,0-2.3,0-3.7,0C34.6,5,35.4,3,37,1.7c2.5-1.8,5.9-1.4,7.7,1.1
	C46.6,5.3,46,8.8,43.6,10.6z M37.2,2C35.7,3.1,40,5.8,40,5.8S38.7,0.9,37.2,2z M41.1,1c-1.9-0.3-0.7,4.7-0.7,4.7S43,1.3,41.1,1z
	 M44.6,3.1C43.5,1.6,40.8,6,40.8,6S45.7,4.6,44.6,3.1z M40.8,6.3c0,0,4.4,2.5,4.7,0.6C45.8,5.1,40.8,6.3,40.8,6.3z M40.6,6.6
	c0,0,1.3,4.9,2.8,3.8C44.9,9.3,40.6,6.6,40.6,6.6z M35.1,5.5c-0.3,1.9,4.7,0.6,4.7,0.6S35.4,3.6,35.1,5.5z M18,5.1L18,5.1
	c-1.3,0.1-1.8,1.2-1.5,2.3s1.4,1.7,2.4,1.4c1.1-0.3,1.7-1.4,1.4-2.5C20.1,5.3,19.3,4.5,18,5.1c-0.1-0.7-0.6-3.2-3.8-5
	c0,0-0.1,0.1,0,0.2C17.1,1.8,17.9,4.4,18,5.1z M19.4,5.1c0.1,0,0.2,0.1,0.2,0.2s-0.2,0.1-0.3,0.1s-0.2-0.1-0.2-0.2
	S19.2,5.1,19.4,5.1z M20,7.8c-0.5,0.9-1.7,1.1-2.5,0.6c-0.9-0.5-1.1-1.6-0.6-2.5c0,1.1,0.3,1.5,0.9,1.9C18.6,8.4,19.2,8.1,20,7.8z
	 M18.1,5.2C18.1,5.2,18.1,5.3,18.1,5.2C18.1,5.3,18.1,5.2,18.1,5.2c0.2,0,0.3,0,0.3,0s-0.3,0.4-0.7,0.1C17.6,5.2,17.8,5.2,18.1,5.2z
	"/>
</svg>
