<?xml version="1.0" encoding="utf-8"?>
<!-- Generator: Adobe Illustrator 23.0.3, SVG Export Plug-In . SVG Version: 6.00 Build 0)  -->
<svg version="1.1" id="Layer_1" xmlns="http://www.w3.org/2000/svg" xmlns:xlink="http://www.w3.org/1999/xlink" x="0px" y="0px"
	 viewBox="0 0 73.2 72.9" style="enable-background:new 0 0 73.2 72.9;" xml:space="preserve">
<style type="text/css">
	.st0{fill:#F0C419;}
	.st1{fill:#00B0D0;}
</style>
<g>
	<g>
		<path class="st0" d="M26.1,38.6l5.3-2.8L26.1,33l3.2-5.1l-6,0.2l0.2-6l-5.1,3.2L15.6,20l-2.8,5.3l-5.1-3.2l0.2,6l-6-0.2L5.1,33
			L0,35.8l5.3,2.8l-3.2,5.1l6-0.2l-0.2,6l5.1-3.2l2.8,5.3l2.8-5.3l5.1,3.2l-0.2-6l6,0.2L26.1,38.6z M15.7,43.7
			c-4.3,0-7.8-3.5-7.8-7.8s3.5-7.8,7.8-7.8s7.8,3.5,7.8,7.8S20,43.7,15.7,43.7z"/>
	</g>
</g>
<g>
	<path class="st1" d="M65.7,66.9c-1.4,1-2.5,1.7-4.9,1.7c-2.4,0-3.4-0.7-4.9-1.7c-1.6-1.1-3.6-2.5-7.3-2.5c-3.7,0-5.7,1.4-7.3,2.5
		c-1.4,1-2.5,1.7-4.9,1.7c-2.4,0-3.3-0.7-4.8-1.7c-1.6-1.1-3.6-2.5-7.3-2.5s-5.7,1.4-7.3,2.5c-1.4,1-2.5,1.7-4.9,1.7
		c-2.4,0-3.3-0.7-4.8-1.7c-1.6-1.1-3.6-2.5-7.3-2.5v4.3c2.4,0,3.4,0.7,4.9,1.7c1.6,1.1,3.6,2.5,7.3,2.5s5.7-1.4,7.3-2.5
		c1.4-1,2.5-1.7,4.9-1.7c2.4,0,3.4,0.7,4.9,1.7c1.6,1.1,3.6,2.5,7.3,2.5c3.7,0,5.7-1.4,7.3-2.5c1.4-1,2.5-1.7,4.9-1.7
		c2.4,0,3.4,0.7,4.9,1.7c1.6,1.1,3.6,2.5,7.3,2.5s5.7-1.4,7.3-2.5c1.4-1,2.5-1.7,4.9-1.7v-4.3C69.3,64.3,67.3,65.7,65.7,66.9z"/>
	<path class="st1" d="M12.1,64.4c1,0,1.1-0.1,2.4-1c1.8-1.2,4.7-3.3,9.8-3.3c5.1,0,8,2.1,9.8,3.3c1.3,0.9,1.4,1,2.4,1s1.1-0.1,2.4-1
		c1.8-1.2,4.7-3.3,9.8-3.3c5.1,0,8,2.1,9.8,3.3c1.3,0.9,1.4,1,2.4,1s1.1-0.1,2.4-1c0.9-0.6,2.1-1.5,3.7-2.1
		c-3.5-2.1-7.3-3.9-11.2-5.2c-4.5-1.6-9.3-2.6-14.1-3l9.5-26.2c1.7,0.8,3.4,1.9,4.9,3.2l0.4,0.4l0.6,0.1c4,0.7,7.8,2.1,11.4,4.1
		l2.2,1.2l0.9-2.4c2.1-5.9,1.8-12.2-0.8-17.9c-2.4-5-6.3-9-11.3-11.3l1-2.8l-4-1.5l-1,2.8C43.9-0.3,31.6,6,27.4,17.5l-0.9,2.4
		l2.5,0.5c4,0.7,7.8,2.1,11.4,4.1l0.5,0.3h0.6c0.1,0,0.1,0,0.2,0c1.9,0,3.8,0.2,5.6,0.7l-10,27.4c-0.3,0-0.5,0-0.8,0
		c-6.6,0-13.1,1.1-19.3,3.2c-3.9,1.3-7.6,3.1-11.2,5.2c1.6,0.7,2.8,1.5,3.7,2.1C11,64.3,11.1,64.4,12.1,64.4z"/>
</g>
</svg>
