<?xml version="1.0" encoding="utf-8"?>
<!-- Generator: Adobe Illustrator 23.0.3, SVG Export Plug-In . SVG Version: 6.00 Build 0)  -->
<svg version="1.1" id="Layer_1" xmlns="http://www.w3.org/2000/svg" xmlns:xlink="http://www.w3.org/1999/xlink" x="0px" y="0px"
	 viewBox="0 0 56.6 62.3" style="enable-background:new 0 0 56.6 62.3;" xml:space="preserve">
<style type="text/css">
	.st0{fill:#3E50B4;}
</style>
<path class="st0" d="M7.3,38.9c0.5,3.2,1,6.3,1.5,9.5c0.1,0.7,1.2,0.4,1.1-0.3c-0.5-3.2-0.9-6.3-1.5-9.5C8.3,37.8,7.2,38.1,7.3,38.9
	z M11,42.1c0.1,0.8,0.2,1.5,0.3,2.3c0.1,0.7,1.3,0.8,1.2,0s-0.2-1.5-0.3-2.3C12.1,41.3,10.9,41.3,11,42.1z M47.2,37.8
	c-0.9,3.9-2.2,7.6-3.9,11.2c-0.3,0.7,0.7,1.3,1,0.6c1.7-3.7,3-7.5,4-11.5C48.5,37.4,47.3,37,47.2,37.8z M43.1,42.5
	c-0.3-0.1-0.6,0.1-0.7,0.4c-0.2,0.6-0.5,1.2-0.7,1.8c-0.1,0.3,0.1,0.6,0.4,0.7c0.3,0.1,0.6-0.1,0.7-0.4c0.2-0.6,0.5-1.2,0.7-1.8
	C43.6,43,43.3,42.6,43.1,42.5z M56.4,18.9c-2.5-3-5.2-5.9-7.9-8.8c-1.2-1.3-2.5-2.7-3.7-4c-0.8-0.9-1.7-2.4-2.8-3
	c0.3-0.8,0.6-1.6,0.9-2.4c0.3-0.7-0.9-1-1.1-0.3c-0.3,0.8-0.6,1.6-0.9,2.4c-0.5,0-0.9,0.1-1.4,0.2c-2,0.3-4.1,0.7-6.1,1
	c-4.1,0.7-8.2,1.3-12.2,2c-0.7,0.1-0.4,1.3,0.3,1.1c0.6-0.1,1.3-0.2,1.9-0.3l0,0c2.8,0.7,5.2,2.7,6.1,5.4l0,0
	c-0.4,0.3-0.9,0.6-1.3,0.9c-0.6,0.4,0,1.4,0.6,1c0.5-0.4,1-0.7,1.6-1.1c0.1,0,0.1,0,0.2,0.1c2.2,0.2,4.2,0.5,6.1,1.2
	c-0.6,2-1.2,4-1.8,6c-3.8,0.6-7.6,0.6-11.4,0.2c-1.1-0.1-2.1-0.2-3.1-0.3c-0.5-3.1-1.5-6-2.7-8.9c-0.6-1.5-1.2-3-1.8-4.5
	c-0.3-0.7-0.6-2.1-1.2-2.6c-1.1-0.9-3.2-0.2-4.4,0.1C7,5,3.7,5.8,0.4,6.6C0.1,6.7-0.1,7,0,7.3c0.3,0.9,0.7,1.8,1,2.6
	c0.2,0.5,0.7,0.5,1,0.3c1.9-0.7,3.7-1.3,5.6-1.9c0.8-0.2,2-0.7,2.9-0.8c0.7-0.5,1.1-0.4,1.4,0.3c0.4,0.4,0.6,0.9,0.8,1.4
	c1.5,3.2,2.4,6.9,3.2,10.3l0,0c-1.1-0.2-2-0.5-2.9,0.1c-1.6,0.9-3,2.5-4.4,3.7c-1.7,1.4-3.5,2.8-5.1,4.4c-1.1,1.1-2.7,2.5-2.8,4.2
	c-0.1,1.9,0.6,4,1,5.9c1.4,7,3.1,13.9,4.8,20.8c0,0.2,0.1,0.4,0.3,0.5C6.9,59.2,7,59.2,7,59.2c5.2,2.6,10.8,3.1,16.6,3.1
	c5.5,0,11,0.1,16.5-0.4c1.5-0.1,3.6-0.1,4.8-1.2c1.5-1.3,2.2-4.5,2.8-6.3c2.3-6.6,4.6-13.4,5.5-20.2c0.4-3.2,0.2-4.7-2.3-6.5
	c-3.8-2.6-7.6-5-10.9-8.3c-0.2-0.2-0.5-0.3-0.8-0.2c-1,0.3-1.9,0.5-2.9,0.7c0.5-1.8,1.1-3.6,1.6-5.4c1.7,0.7,3.4,1.5,5,2.7
	c0.2,0.7,0.3,1.5,0.5,2.2s1.3,0.4,1.1-0.3c-0.1-0.6-0.3-1.2-0.4-1.8c3.5-1,7-0.7,10.2,0.9c0.1,0,0.2,0.1,0.2,0.1
	c0.4,0.4,0.7,0.8,1.1,1.2C56.1,20.3,56.9,19.4,56.4,18.9z M14.9,12.5c-0.4-1.2-0.8-2.4-1.3-3.5c-0.3-0.7-0.6-2-1.2-2.5
	c-0.8-0.6-1.9-0.1-2.9,0.1C6.8,7.3,4.2,8.1,1.7,9.1C1.5,8.6,1.3,8.2,1.2,7.7c2.3-0.5,4.6-1.1,6.9-1.6c1-0.2,1.9-0.4,2.9-0.6
	c2-0.4,2.6-0.1,3.7,1.8c2.1,3.8,3.6,8.6,4.4,12.9c-0.7-0.1-1.4-0.2-2.1-0.3C16.4,17.3,15.7,14.9,14.9,12.5z M51.3,35.8
	c-0.9,5.6-3.1,10.8-4.6,16.3c-0.6,2.3-1.4,4.6-2.5,6.7c-0.9,1.7-3,1.5-4.7,1.7c-3.3,0.3-6.7,0.3-10,0.3c0-0.3,0.1-0.6,0.1-1
	c0-0.3-0.3-0.6-0.6-0.6s-0.6,0.3-0.6,0.6s-0.1,0.6-0.1,1c-0.3,0-0.6,0-0.9,0c0.1-1.7,0.1-3.3-0.1-5c-0.1-0.7-1.3-0.8-1.2,0
	c0.2,1.7,0.2,3.3,0.1,5c-0.4,0-0.8,0-1.3,0c-0.1,0-0.1,0-0.2,0c0-0.5,0-0.9,0-1.4c0-0.8-1.2-0.8-1.2,0c0,0.5,0,0.9,0,1.4
	c-5.4,0-10.8-0.4-15.7-2.8c-1.5-6-2.9-12.1-4.2-18.2c-0.5-2.2-0.9-4.4-1.3-6.6c7.8,1.9,16.1,2.9,24.1,2.9c8.7,0,17.1-2,25.3-5
	C52,32.6,51.5,34.6,51.3,35.8z M38.6,21.1c1.1,0.1,1.8,1.1,2.7,1.8c2.2,1.9,4.6,3.5,7,5.1c0.8,0.5,1.9,1.1,2.6,1.8
	c-7.9,2.8-16,4.8-24.5,4.8c-8,0-16.3-1-24.1-2.9c0.5-1.8,2.4-3.2,3.9-4.5c1.4-1.2,2.8-2.4,4.3-3.6c0.8-0.7,1.6-1.3,2.4-2
	c0.3-0.2,0.5-0.5,0.8-0.7l0,0l0,0c4.1,0.1,8.2,1.3,12.3,1.4c2.4,0,4.8,0.2,7.1,0c1-0.1,2.1-0.3,3.1-0.5
	C36.9,21.6,37.9,21.1,38.6,21.1z M25.7,6.4c2-0.3,3.9-0.6,5.9-1c1.7-0.3,3.4-0.6,5.1-0.8c0.8-0.1,1.7-0.4,2.5-0.4c0.3,0,0.6,0,0.9,0
	c-3.1,2.6-6.3,5.1-9.7,7.4C29.6,9.3,27.9,7.5,25.7,6.4z M31.9,12.1C35,9.9,38.1,7.5,41,5c0.4,3.6,0.9,7.2,1.6,10.7
	C39.1,13.7,35.8,12.5,31.9,12.1z M43.8,16.4c-0.8-3.8-1.3-7.7-1.7-11.5C42.2,5,42.3,5,42.3,5.1c2.3,1.9,4.3,4.7,6.3,6.9
	c1.4,1.5,2.8,3.1,4.2,4.6C49.9,15.6,46.8,15.5,43.8,16.4z"/>
</svg>
