<?xml version="1.0" encoding="utf-8"?>
<!-- Generator: Adobe Illustrator 23.0.3, SVG Export Plug-In . SVG Version: 6.00 Build 0)  -->
<svg version="1.1" id="Layer_1" xmlns="http://www.w3.org/2000/svg" xmlns:xlink="http://www.w3.org/1999/xlink" x="0px" y="0px"
	 viewBox="0 0 32 64.7" style="enable-background:new 0 0 32 64.7;" xml:space="preserve">
<style type="text/css">
	.st0{fill:#3E50B4;}
</style>
<path class="st0" d="M31.7,60.4c-0.3-1.1-0.7-2.1-1.1-3.2c-1.1-3.1-2.2-6.2-3-9.4c-0.4-1.4-0.6-2.7-0.6-4.1c0-1,0.1-1.7-1-1.9
	c-1.3-0.3-2.7-0.1-3.9-0.1c-1.7,0-3.4,0-5.1,0c-3.4,0-6.8,0-10.2,0.2c-0.6,0-1.5-0.1-2,0.2c-1,0.5-0.3,2.6-0.5,3.4
	C3,49.6,2.1,53.9,1,58c-0.3,1.3-0.8,2.6-1,3.8c-0.2,1.5,1.4,1.5,2.5,1.7c1.9,0.3,3.7,0.6,5.6,0.8c1,0.1,2,0.2,3,0.3
	c0.7,0,1.6,0.3,2.2,0c0.6-0.3,0.7-0.8,0.8-1.4c0.2-1,0.4-2,0.6-2.9c0.3-1.5,0.7-3.1,1-4.6c0.6,2.6,1,5.2,1.9,7.6
	c0.2,0.5,0.3,1.1,0.9,1.2s1.4-0.1,2-0.1c2.3-0.3,4.6-0.7,6.9-1.2c1-0.2,2.1-0.5,3.1-0.8c0.4-0.1,1.2-0.2,1.4-0.6
	C32.1,61.4,31.8,60.8,31.7,60.4z M23.2,46c0.7,2.1,2.5,4.2,4.6,4.8c0.1,0.2,0.1,0.3,0.2,0.5c-2.6-0.6-4.3-3-5.4-5.3
	C22.8,46,23,46,23.2,46z M27.6,50.2c-1.8-0.7-3.3-2.5-3.9-4.3c0.9,0,1.9,0,2.8-0.1l0,0c0,0.1,0,0.1,0,0.2
	C26.8,47.5,27.2,48.9,27.6,50.2z M3.2,51.6c1.1-0.5,2.3-1,3.2-1.8c1-0.9,1.5-2.2,1.9-3.5l0,0c0.2,0,0.3,0,0.5,0
	c-0.7,2.9-2.8,5.1-5.7,5.8C3.1,52,3.1,51.8,3.2,51.6z M6,49.5c-0.8,0.7-1.7,1.2-2.7,1.6c0.4-1.7,0.9-3.4,1.5-5.1c1,0.1,2,0.2,3,0.3
	C7.4,47.4,7,48.6,6,49.5z M12.3,64c-0.5,0.1-1.2-0.1-1.7-0.1c-2.2-0.2-4.5-0.4-6.7-0.8C3.1,63,0.7,63,0.6,61.9
	c2.1,0.3,4.2,0.7,6.3,1s4.2,0.1,6.3,0.5C13.1,63.7,12.9,63.9,12.3,64z M15.2,53.9c-0.3,2-0.8,4-1.2,6c-0.2,1-0.4,2-0.6,2.9v0.1
	c-2.1-0.3-4.2-0.1-6.3-0.5c-2.1-0.3-4.3-0.7-6.4-1c0.1-0.5,0.4-1.1,0.5-1.6C1.8,57.4,2.4,55,3,52.6c3.2-0.7,5.6-3.1,6.3-6.3
	c0.2,0,0.5,0,0.7,0c0.3,0,0.3-0.5,0-0.5c-1.7,0.1-3.4-0.2-5-0.4c0.1-0.4,0.1-0.8,0-1.2c0-0.3-0.2-1.4,0.1-1.6
	c0.3-0.2,1.4-0.1,1.8-0.1c2.6-0.1,5.2-0.1,7.7-0.1c2.9,0,5.8-0.1,8.7-0.1c0.6,0,1.2,0,1.8,0c0.3,0,0.7,0,0.9,0.1
	c0.3,0.2,0.2,0.2,0.3,0.5c0.1,0.8,0.1,1.6,0.2,2.4c-2,0-4.1,0.1-6.1,0.1c-0.3,0-0.3,0.5,0,0.5c0.6,0,1.1,0,1.7,0l0,0
	c1.1,2.5,3.1,5.3,6,5.8h0.1c0.3,0.9,0.6,1.8,0.9,2.7c0.6,1.9,1.4,3.8,1.9,5.7c-4.3,1-8.6,1.8-13,2.4c-1-2.8-1.4-5.8-2.1-8.7
	C15.8,53.6,15.3,53.6,15.2,53.9z M30.8,61.5c-0.7,0.3-1.5,0.4-2.2,0.6c-2.1,0.5-4.3,0.9-6.4,1.3c-1,0.2-1.9,0.3-2.9,0.4
	c-0.8,0.1-0.8,0.1-1.1-0.6c4.4-0.6,8.7-1.4,13-2.4v0.1C31.3,61.4,31.4,61.3,30.8,61.5z M17.9,51.2c-0.8-0.9-1.4-2.2-1.7-3.3
	c-0.3-0.8-0.5-1.5-0.6-2.3c0.5,0.8,1.1,1.4,1.8,1.9c0.8,0.5,2.1,0.7,2.4-0.5c0.2-1-0.4-2.2-1.3-2.8c-1-0.7-2.2-0.7-3.3-0.1L15.1,44
	c-1-0.3-2.2-0.7-3.1-0.1c-0.8,0.5-1.3,1.7-1.1,2.6c0.1,0.9,0.9,1.2,1.6,0.7c0.5-0.3,0.9-0.8,1.3-1.2c0.3-0.3,0.6-0.6,0.9-0.8
	c-0.4,1-0.7,1.9-0.9,3c-0.1,0.6-0.4,1.2-0.7,1.8c-0.2,0.6-0.2,1.1-0.2,1.7c0,0.3,0.5,0.3,0.5,0c0-0.7,0.1-1.3,0.3-2
	c0.2-0.5,0.4-0.9,0.5-1.4c0.2-1,0.5-1.9,0.8-2.8c0,1,0.4,1.8,0.7,2.9c0.4,1.1,0.9,2.4,1.7,3.2C17.8,51.8,18.2,51.4,17.9,51.2z
	 M19.4,46.2c0.2,1.1-0.8,1.3-1.6,0.8c-0.3-0.2-0.6-0.4-0.8-0.6c-0.6-0.6-1-1.2-1.4-2C17.2,43.7,19.1,44.5,19.4,46.2z M13.5,45.6
	c-0.4,0.4-1.6,2.1-2.1,0.6c-0.2-0.8,0.6-1.9,1.3-2.1c0.7-0.2,1.5,0,2.1,0.2C14.4,44.8,13.9,45.2,13.5,45.6z M22.4,60.4
	c0.4,0.6,1.3,0.2,1.8,0.1c1.2-0.2,2.5-0.6,3.7-1c0.7-0.3,0.5-0.6,0.4-1.3c-0.1-0.6-0.1-2-0.7-2.4c-0.4-0.3-1.2-0.1-1.7,0.1
	c-1.1,0.3-2.3,0.5-3.3,0.9c-0.5,0.2-0.7,0.4-0.7,1c0,0.4,0.1,0.9,0.2,1.3C22.2,59.5,22.1,60.1,22.4,60.4z M22.8,57.3
	c0.4-0.3,1.2-0.3,1.7-0.4c0.6-0.2,1.1-0.3,1.7-0.4c0,0,0,0,0.1,0c0.6-0.2,1.1-0.3,1.4,0.3c0.1,0.3,0.5,2,0.4,2.3
	c-0.2,0.3-1.4,0.4-1.7,0.6c-0.6,0.2-1.3,0.4-2,0.5c-0.3,0.1-1.2,0.3-1.5,0c-0.1-0.1-0.1-0.6-0.1-0.7C22.6,58.7,22.2,57.7,22.8,57.3z
	 M23.6,58.2c0.5-0.2,1-0.3,1.5-0.4s1-0.3,1.5-0.3c0.3,0,0.3-0.5,0-0.5c-0.6,0-1.1,0.2-1.6,0.3c-0.6,0.1-1.1,0.2-1.7,0.5
	C23,57.9,23.3,58.3,23.6,58.2z M25.1,58.6c-0.4,0.2-0.9,0.1-1.3,0.3c-0.3,0.2,0,0.6,0.2,0.4c0.3-0.2,0.8-0.1,1.2-0.3
	c0.5-0.2,1-0.3,1.5-0.3c0.3,0,0.3-0.5,0-0.5C26.2,58.3,25.6,58.4,25.1,58.6z M28.8,3.3C28.6,3,28.2,3,28,2.9
	c-0.4-0.1-1.3-0.4-1.7-0.2c-0.4,0.2-0.4,0.6-0.5,1c-0.2,0.8-0.4,1.5-0.6,2.3c-0.2,0.6-0.4,1.3-0.6,1.9c-1.3,2.2-3.8,3.1-6.3,2.3
	c-1.2-0.4-2.4-1-3.1-2c-0.8-1-0.9-2.2-1.1-3.4c0.1-1.4,0.2-2.7,0.1-4.1c0-0.1-0.1-0.2-0.2-0.3c-0.7-0.4-2.3-0.7-2.8,0.3
	c-0.2,0.4,0,1.4-0.1,1.9c-0.1,0.8-0.2,1.7-0.3,2.5c-0.2,1.4-0.5,2.9-1,4.2c-0.6,1.4-1.6,2.3-2.8,3.2c-0.1,0-0.1,0.1-0.2,0.2
	c-1.6,7-2.1,14.2-4,21.2c0,0.2,0.1,0.4,0.2,0.4c5.9,1.8,12.1,2.3,18,3.8c0.7,0.2,1.3,0.3,2,0.5c0.4,0.1,1,0.4,1.4,0.3
	c1-0.3,0.8-2.1,0.9-2.8c0.4-3.5,0.8-6.9,1.3-10.4c0.2-1.5,0.4-3,0.5-4.6c0.1-0.8,0.2-1.6,0.3-2.5c0.1-0.8-0.5-1.3-0.7-2.1
	c-1-3.3,0.3-6.7,1.2-9.8c0.2-0.7,0.4-1.3,0.5-2C28.8,4.3,29,3.7,28.8,3.3z M18.6,10.8c2,0.5,4,0,5.4-1.3c-0.2,0.4-0.4,0.9-0.7,1.3
	c-0.9,1.5-2.2,3-3.9,3.6c-2,0.7-3.9-0.4-4.8-2.2c-0.9-1.7-0.8-3.7-0.6-5.5c0.2,0.7,0.4,1.3,0.9,1.8C15.7,9.6,17.2,10.4,18.6,10.8z
	 M26.2,24.6c-1.8-0.7-3.7-1.2-5.3-1.6c-3.2-0.7-6.6-1.3-9.8-1.9l-4.9-0.9c0.1-0.8,0.3-1.6,0.4-2.4c2.6,0.8,5.4,1.3,8.1,1.7
	c1.7,0.3,3.4,0.5,5.1,0.9c2.3,0.5,4.6,1.2,6.7,1.9c0,0.1,0,0.3,0,0.4C26.4,23.3,26.3,24,26.2,24.6z M25,34.7c-0.1,0.7,0,3.3-0.9,3.4
	c-0.4,0-1.1-0.3-1.4-0.4c-0.5-0.1-1-0.3-1.5-0.4c-2-0.5-4-0.9-6-1.3c-3.8-0.7-7.7-1.3-11.5-2.4c0.9-3.4,1.5-7,2-10.5
	c2.7,0.2,5.2,0.8,7.9,1.4l0.5,0.1c2.1,0.5,4.3,1,6.4,1.5l5.3,1.3C25.6,29.9,25.3,32.3,25,34.7z M28.2,4c0,1-0.6,2.2-0.9,3.2
	c-0.5,1.7-1.1,3.3-1.3,5.1c-0.2,1.6-0.1,3.3,0.4,4.8c0.3,0.8,0.5,1.4,0.4,2.2c-1.5-0.7-3.2-1-4.9-1.2c-0.5-0.1-1-0.1-1.5-0.2
	c-1.5-0.3-3-0.6-4.5-1c-0.5-0.1-1.1-0.3-1.6-0.4c-2.4-0.6-4.8-1-7.2-1.4c0.2-0.8,0.3-1.5,0.5-2.3c0.9-0.7,1.8-1.4,2.4-2.3
	c0.7-1.1,1-2.5,1.3-3.8c0.3-1.5,0.6-3.1,0.6-4.7c0-0.3-0.1-0.9,0-1.1c0.3-0.5,1.4-0.4,1.6,0.1c0.2,0.4,0,1.3,0,1.7
	c0,0.6,0,1.1-0.1,1.7c-0.2,3.1-1,6.9,1.4,9.4c2.2,2.3,5.2,1.4,7.2-0.6c2.5-2.4,3.5-5.9,4.2-9.2c0.2-0.7,0.3-0.7,1-0.6
	c0.1,0,0.5,0.1,0.6,0.1C28.3,3.8,28.1,3.7,28.2,4z M7,30.6C6.2,31,5.5,31.4,4.8,32c-0.2,0.2,0.1,0.6,0.3,0.3c0.6-0.5,1.3-1,2.1-1.3
	C7.5,30.9,7.3,30.5,7,30.6z M7.1,31.8c-0.3,0.2-0.6,0.5-1,0.7c-0.3,0.2,0,0.6,0.2,0.4c0.3-0.2,0.6-0.5,1-0.7
	C7.6,32,7.3,31.6,7.1,31.8z M17.5,13.1c0.2,0.1,0.4,0.1,0.7,0.1c0.2,0.1,0.4,0.2,0.6,0.2c0.4,0,0.4-0.2,0.5-0.5
	c0.1-0.4,0.2-0.8,0.3-1.2c0-0.4-0.2-0.4-0.6-0.5c-0.7-0.2-1.4-0.3-2-0.5c-0.1,0-0.2,0-0.2,0l-0.1,0.1c-0.1,0.4-0.2,0.8-0.3,1.2
	c-0.1,0.2-0.2,0.6,0,0.8S17.2,13.1,17.5,13.1z M19.1,11.7c0,0.2-0.1,0.4-0.1,0.5s0,0.5-0.1,0.6c-0.1,0.2-0.3,0-0.5,0
	c-0.3,0-0.5-0.1-0.7-0.1c-0.2-0.1-0.5-0.1-0.7-0.2c0,0-0.1,0-0.2,0c0,0,0-0.1,0-0.2c0.1-0.3,0.2-0.7,0.3-1c0.3,0.1,0.6,0.2,0.9,0.2
	C18.3,11.6,18.8,11.6,19.1,11.7z"/>
</svg>
