<?xml version="1.0" encoding="utf-8"?>
<!-- Generator: Adobe Illustrator 23.0.3, SVG Export Plug-In . SVG Version: 6.00 Build 0)  -->
<svg version="1.1" id="Layer_1" xmlns="http://www.w3.org/2000/svg" xmlns:xlink="http://www.w3.org/1999/xlink" x="0px" y="0px"
	 viewBox="0 0 65.3 64.7" style="enable-background:new 0 0 65.3 64.7;" xml:space="preserve">
<style type="text/css">
	.st0{fill:#51545B;}
	.st1{fill:#878E98;}
	.st2{fill:#E39919;}
	.st3{fill:#FFC112;}
	.st4{fill:#3E3B42;}
	.st5{fill:#B76716;}
	.st6{fill:#767C85;}
	.st7{fill:#89C2F8;}
	.st8{opacity:0.5;fill:#707099;enable-background:new    ;}
	.st9{fill:#ADB6C0;}
	.st10{fill:#4782D1;}
	.st11{fill:#5CB899;}
	.st12{fill:#92E0B7;}
	.st13{fill:#489484;}
</style>
<polygon class="st0" points="23.4,26.5 21.1,26.5 21.2,24.2 23.4,25 "/>
<path class="st1" d="M9,16.6L9.2,5.9H8.3L8,18.9c-0.1,4.6,3.1,8.4,7.1,8.5l6.2,0.1l-0.1-3.3l-6,0.8c-1.2,0-2.4-0.6-3.2-1.6
	C10.1,21.9,8.9,19.4,9,16.6z"/>
<path class="st0" d="M10.7,6H9.2L9,16.7c-0.1,2.8,1.1,5.3,3,6.8c-1-1.1-1.6-2.7-1.6-4.5L10.7,6z"/>
<path class="st2" d="M33.3,31.1l-10.8-4.3c2.7,11,1.9,24.7-1.1,35.6L33,62.3C37.3,51.4,37.3,42.1,33.3,31.1z"/>
<path class="st3" d="M22.5,26.9L4,29.6c-5,11.6-5.2,22.6-0.7,32.9h18.2C24.5,51.5,25.2,37.9,22.5,26.9z"/>
<polygon class="st4" points="15.9,64.5 3.3,62.5 22.1,60.4 33,62.3 "/>
<path class="st2" d="M4.7,31.4l15.5-2.3c0.9,4.6,1.3,9.2,1.2,13.8l-19.7,3C1.9,40.9,2.8,35.9,4.7,31.4z"/>
<path class="st5" d="M24.8,29.7l7.7,2.7c1.8,4.3,2.5,8.7,2.5,13.1l-8.9-2.4C26.2,38.4,25.8,34.2,24.8,29.7z"/>
<polygon class="st4" points="15.8,64.7 5.9,63.7 21.2,62 30,63.6 "/>
<polygon class="st1" points="21.9,62.1 6,63.7 6.1,62.8 21.9,60.8 "/>
<polygon class="st6" points="30,62.6 21.9,60.8 21.9,62.1 30,63.6 "/>
<path class="st7" d="M16.1,33c-1.5,2.8-2.5,7.3-2.8,11.3l-4.2,0.6l-7.2-1.1c0.3-4.3,1.2-8.5,2.8-12.3L8,31L16.1,33z M18.4,33.6
	c-1.3,3.2-2.1,6.7-2.5,10.3l5.5-0.8c0.1-3.4-0.1-6.6-0.5-9.9L18.4,33.6z M32.8,33.2c-0.1-0.3-0.2-0.5-0.3-0.8l-1.8-0.6l-5.3,0.8
	c0.6,3.5,0.8,6.9,0.7,10.5l5,1.3l2.5-0.4C33.7,40.4,33.4,36.8,32.8,33.2z"/>
<path class="st8" d="M4.6,31.8C2.8,36.2,2,41.1,1.7,46l19.7-3c0-0.4,0-0.8,0-1.2C18,36,11,33.4,4.6,31.8z"/>
<path class="st8" d="M24.8,30c1,4.4,1.4,8.6,1.2,13.1l8.5,2.3C33.5,39,29.3,33.7,24.8,30z"/>
<path class="st3" d="M7.9,47l-0.5-0.3c0-4.9,0.7-10.7,2.1-17.2l0.7,0.1L7.9,47z"/>
<path class="st3" d="M15.8,47.7l-0.4,0.2l-0.8-19.1l0.7-0.1C16,33.8,16.2,39.8,15.8,47.7z"/>
<polygon class="st5" points="36.2,48.4 24.1,45 24.2,44.2 36.3,47.5 "/>
<path class="st2" d="M24.2,44.2L16,45.3c0-0.5,0-1,0-1.5l-0.8,0.1c0,0.5,0,1,0,1.5l-7.2,1c0-0.5,0-1,0-1.4l-0.9,0.1
	c0,0.5,0,0.9,0,1.4l-7.2,1l0.1,0.8l7.1-1c0,4,0.5,8.9,1.5,13.8l0.4,0l0,0l6.4-0.9c0.4-5.4,0.6-10,0.6-14.1l8-1.1L24.2,44.2z
	 M14.7,59.5l-5.3,0.7c-0.9-4.6-1.4-9.2-1.4-13l7.2-1C15.3,50.1,15.1,54.4,14.7,59.5z"/>
<polygon class="st1" points="4,29.6 4,29 22.4,26 22.5,26.9 "/>
<polygon class="st0" points="33.3,31.1 22.5,26.9 22.4,26 33.3,30.5 "/>
<rect x="8.8" y="2.1" transform="matrix(2.060189e-02 -0.9998 0.9998 2.060189e-02 3.0852 15.7468)" class="st1" width="1.6" height="8.4"/>
<rect x="6.2" y="4.9" transform="matrix(2.059990e-02 -0.9998 0.9998 2.059990e-02 -0.4775 13.107)" class="st0" width="0.6" height="3.7"/>
<rect x="11.2" y="4.5" transform="matrix(2.060151e-02 -0.9998 0.9998 2.060151e-02 4.3731 18.1553)" class="st0" width="0.6" height="4.6"/>
<polygon class="st1" points="16.3,8.4 8.5,4.4 9,3.3 10.5,3.6 12.1,3.5 15,5 15.8,6.3 16.9,7.3 "/>
<path class="st1" d="M5.8,6c0,0.9-0.7,1.6-1.6,1.5c-0.9,0-1.6-0.7-1.5-1.6c0-0.9,0.7-1.6,1.6-1.5C5.2,4.4,5.9,5.1,5.8,6z"/>
<polygon class="st9" points="10.6,4.5 15.2,6.9 14.5,5.4 12.2,4.2 "/>
<path class="st10" d="M56.7,16.8c-18.8,0-42.2-5.6-53.2-16.1C3.1,0.3,3.6-0.3,4,0.1c12,11.5,39.3,17.4,58.6,16.1v0.4
	C60.7,16.7,58.7,16.8,56.7,16.8z"/>
<polygon class="st0" points="56,25.7 54.4,25.7 54.4,24.2 56,24.6 "/>
<path class="st1" d="M45.9,19.3L45.8,12h-0.6l0.1,8.9c0,3.1,2.3,5.7,5,5.6l4.2-0.1l-0.2-2.2l-4.1,0.7c-0.8,0-1.6-0.4-2.2-1
	C46.8,22.9,46,21.2,45.9,19.3z"/>
<path class="st0" d="M46.8,12.2h-1l0.1,7.3c0,1.9,0.9,3.6,2.2,4.6c-0.7-0.7-1.2-1.8-1.2-3L46.8,12.2z"/>
<path class="st11" d="M62.9,28.6l-7.5-2.7c2.1,7.5,2,16.8,0.2,24.4l7.8-0.3C66.1,42.3,65.9,36,62.9,28.6z"/>
<path class="st12" d="M55.4,25.9l-12.6,2.3c-3.1,8.1-3.1,15.6,0.3,22.5l12.5-0.4C57.3,42.7,57.5,33.4,55.4,25.9z"/>
<polygon class="st4" points="51.8,51.8 43.1,50.7 55.9,48.8 63.4,50 "/>
<path class="st13" d="M43.3,29.5l10.6-1.9c0.7,3.1,1.1,6.3,1.1,9.4l-13.4,2.5C41.7,36,42.2,32.6,43.3,29.5z"/>
<path class="st2" d="M57,27.8l5.3,1.7c1.3,2.9,1.9,5.9,2,8.9L58.2,37C58.2,33.7,57.8,30.9,57,27.8z"/>
<polygon class="st4" points="51.7,52 45,51.5 55.4,49.9 61.4,50.9 "/>
<polygon class="st1" points="55.8,50 45,51.5 45.1,50.8 55.8,49.2 "/>
<polygon class="st6" points="61.4,50.2 55.8,49.2 55.8,50 61.4,50.9 "/>
<path class="st13" d="M61.7,37.7l2.7,0.6c-0.1-2.8-0.7-5.6-1.8-8.3c0.5,2.4,0.8,4.9,0.8,7.4L61.7,37.7z"/>
<path class="st13" d="M57,27.8c0.2,0.7,0.3,1.3,0.5,2l3.6-0.7L57,27.8z"/>
<g>
	<path class="st7" d="M43.3,29.5c-1,2.6-1.5,5.5-1.6,8.5l5,0.6l2.9-0.6c0-2.8,0.6-5.8,1.5-7.7l-5.6-1.2L43.3,29.5z"/>
	<path class="st7" d="M52.7,30.6c-0.8,2.2-1.3,4.6-1.5,7.1l3.7-0.7c0.1-2.2-0.1-4.5-0.5-6.7L52.7,30.6z"/>
	<path class="st7" d="M62.6,30c-0.1-0.2-0.1-0.4-0.2-0.5l-1.3-0.4l-3.6,0.7c0.5,2.4,0.7,4.7,0.7,7.2l3.5,0.7l1.7-0.3
		C63.3,34.9,63.1,32.5,62.6,30z"/>
</g>
<path class="st8" d="M43.3,29.7c-1.1,3-1.6,6.4-1.6,9.8L55,37c0-0.3,0-0.5,0-0.8C52.5,32.3,47.7,30.7,43.3,29.7z"/>
<path class="st8" d="M57.1,28c0.8,3,1.1,5.8,1.2,8.9l5.9,1.3C63.2,34,60.2,30.5,57.1,28z"/>
<path class="st12" d="M45.3,39.9c-0.1-3.4,0.2-7.3,1.1-11.8l0.8,0.1c-0.8,4.4-1.2,8.4-1.1,11.7H45.3z"/>
<path class="st12" d="M51.5,40.3h-0.8c0.1-5.3-0.2-9.4-0.8-12.8l0.8-0.1C51.3,30.8,51.5,34.9,51.5,40.3z"/>
<polygon class="st13" points="65.3,40.3 56.9,38.4 56.9,37.8 65.3,39.7 "/>
<path class="st11" d="M56.9,37.8l-5.4,1c0-0.4,0-0.7-0.1-1.1l-0.5,0.1c0,0.3,0,0.7,0.1,1.1l-5.1,0.9c0-0.3,0-0.6,0-0.9l-0.5,0.1
	c0,0.3,0,0.6,0,0.9l-4.9,0.9l0.1,0.5l4.8-0.8c0.1,2.8,0.5,6.1,1.4,9.4l0.5-0.1c0,0,0,0,0,0l4.1-0.7c0.2-3.7,0.2-6.9,0.1-9.7l5.4-0.9
	V37.8z M50.9,48.5l-3.7,0.6c-0.8-3.1-1.2-6.2-1.3-8.9l5.1-0.9C51.1,42,51.1,45,50.9,48.5z"/>
<polygon class="st1" points="42.8,28.2 42.8,27.8 55.3,25.3 55.4,25.9 "/>
<polygon class="st0" points="62.9,28.6 55.4,25.9 55.3,25.3 62.9,28.2 "/>
<rect x="43.2" y="11.6" transform="matrix(0.9999 -1.385273e-02 1.385273e-02 0.9999 -0.1639 0.6398)" class="st1" width="5.8" height="1.1"/>
<rect x="42.7" y="12.3" transform="matrix(0.9999 -1.384901e-02 1.384901e-02 0.9999 -0.1689 0.6105)" class="st0" width="2.6" height="0.4"/>
<rect x="45.9" y="12.3" transform="matrix(0.9999 -1.385641e-02 1.385641e-02 0.9999 -0.1686 0.6587)" class="st6" width="3.1" height="0.4"/>
<polygon class="st1" points="50.7,13.5 45.3,10.9 45.6,10.2 46.6,10.4 47.7,10.2 49.7,11.2 50.3,12 51.1,12.7 "/>
<path class="st1" d="M43.5,12.1c0,0.6-0.5,1.1-1.1,1.1s-1.1-0.5-1.1-1.1s0.5-1.1,1.1-1.1S43.5,11.5,43.5,12.1z"/>
<polygon class="st9" points="46.7,10.9 49.9,12.5 49.4,11.5 47.8,10.7 "/>
<path class="st10" d="M62.5,16.6c-11.7-0.9-22.4-6.7-29.3-16c-0.3-0.4,0.3-0.9,0.6-0.5c6.8,9.1,17.3,15.2,28.8,16
	C62.9,16.3,62.9,16.6,62.5,16.6z"/>
</svg>
