<?xml version="1.0" encoding="utf-8"?>
<!-- Generator: Adobe Illustrator 23.0.3, SVG Export Plug-In . SVG Version: 6.00 Build 0)  -->
<svg version="1.1" id="Layer_1" xmlns="http://www.w3.org/2000/svg" xmlns:xlink="http://www.w3.org/1999/xlink" x="0px" y="0px"
	 viewBox="0 0 65.6 58.5" style="enable-background:new 0 0 65.6 58.5;" xml:space="preserve">
<style type="text/css">
	.st0{fill:#3E50B4;}
</style>
<path class="st0" d="M27.4,28.6c2.4,0.2,4.8,0.9,7.2,1.2c3.3,0.4,6.8,0.6,9.4-1.8c3-2.9,2.9-6.5,1.7-10.3c-3-9.2-15.4-9.1-23.2-8
	c-7.3,1.2-16.1,4-18.8,11.6c-1.1,3.1-1.3,7.2,0.2,10.2c1.6,3,4,3.7,7.3,3.2c3.6-0.5,6.5-2.7,9.7-4.4C22.9,29.1,25,28.4,27.4,28.6z
	 M6.7,32.9c-2.9-2-3-6.7-2.2-9.8c1.9-8.2,11-11.1,18.3-12.3c6.4-0.9,17-1.4,20.8,5.2c0.9,1.6,1.3,3.4,1.6,5.2
	c0.4,2.5-0.5,4.7-2.6,6.2c-3,2.3-7.4,1.3-10.8,0.6c-2.8-0.6-5.5-1.1-8.4-0.3c-2.6,0.8-4.9,2.4-7.2,3.7C13.7,32.8,9.3,34.7,6.7,32.9z
	 M29.3,35.9c1.2-1.4,2.1-2.8,3.4-4c0.2,0,0.3,0.1,0.5,0.1c2.4,0.5,4.9,0.9,7.4,0.5c3.7-0.5,7.2-2.6,8.4-6.3c1.3-4-0.1-8.6-1.8-12.2
	C44.9,9.3,41,7.5,36,6.8S25.7,6.3,20.8,7.2C12.6,8.8,4,11.5,0.9,20.1C-1.7,27.5,1.4,38.7,11,37.5c2.2-0.3,4.3-1.2,6.2-2.4l0,0
	c2.5,0.1,3.7,1.7,5.8,2.6c1.2,0.5,2,0.4,3.3,0.1C27.6,37.5,28.4,36.9,29.3,35.9z M4.9,34.7c-3.7-2.9-4.4-8-3.4-12.4
	C3.6,12.9,12.7,10,21,8.4c3.6-0.7,7.4-0.9,11.1-0.7c4.1,0.2,9.2,0.7,12,3.9c2.5,2.9,4.1,7.7,4,11.5C48,28,44.2,31,39.5,31.3
	c-4.4,0.3-8.4-1.6-12.7-1.8c-3.8-0.2-6.3,1.9-9.3,3.9C13.9,35.8,8.9,37.7,4.9,34.7z M25.6,36.7c-1.8,0.3-3-0.7-4.3-1.6
	c-0.8-0.6-1.6-0.9-2.4-1.1c1.6-1.2,3.2-2.5,5.2-3c2.4-0.7,4.8-0.1,7.2,0.5c-0.8,0.8-1.4,1.5-2.1,2.5C28.2,35.4,27.2,36.3,25.6,36.7z
	 M21.8,32.6c-0.3,0.3-0.7,0.6-1,1c-0.4,0.4,0.3,1.1,0.7,0.7c0.3-0.3,0.7-0.7,1-1C22.9,32.8,22.2,32.1,21.8,32.6z M24.9,31.4
	c-1,0.9-1.8,2-2.7,2.9c-0.4,0.4,0.2,1.1,0.7,0.7c0.9-1,1.7-2,2.7-2.9C26.1,31.6,25.4,31,24.9,31.4z M27.2,31.5
	c-1.2,1.3-2.4,2.5-3.5,3.8c-0.4,0.4,0.3,1.1,0.7,0.7c1.2-1.3,2.4-2.5,3.5-3.8C28.3,31.7,27.7,31,27.2,31.5z M28,33.1
	c-0.4,0.5-0.8,0.9-1.2,1.4c-0.2,0.2-0.2,0.5,0,0.7s0.5,0.2,0.7,0c0.4-0.5,0.8-1,1.2-1.4C29.1,33.3,28.5,32.7,28,33.1z M10.2,27
	c-1,0.9-1.8,1.9-2.6,2.9c-0.4,0.5,0.5,1,0.8,0.5c0.7-1,1.5-1.9,2.4-2.7C11.3,27.3,10.6,26.6,10.2,27z M11.6,28.5
	c-0.3,0.3-0.7,0.6-1,0.8c-0.2,0.2-0.2,0.5,0,0.7s0.5,0.2,0.7,0c0.3-0.3,0.7-0.6,1-0.8c0.2-0.2,0.2-0.5,0-0.7S11.8,28.4,11.6,28.5z
	 M65.1,0.6C63.3,0.2,61.5,0,59.7,0c-0.2,0-0.6,0.2-0.6,0.5c-1.5,10.7-2.8,21.5-4.6,32.1c-0.4,2.7-0.9,5.4-1.4,8
	c-0.5,2.5-0.9,5.1-1.9,7.4c-2.2,5-10.7,4.9-11.3-0.9c1.9-1,4.3-3.9,3.1-5.9c-0.7-1.2-1.8-1.4-3-0.8c-1.6,0.7-2.1,2.3-4.1,2.4
	c-2.3,0.1-6.1-3.4-7.3,0.1c-0.9,2.7,2.7,4.2,5,4.6c0,3.6,2.3,8.1,5.6,9.6c4,1.7,9.7,2.1,13.3-0.6c4.4-3.3,6.4-9,7.3-14.1
	c0.6-3.2,0.8-6.4,1.3-9.6c0.5-3.3,1.1-6.6,1.6-10c0.9-7.2,2.3-14.3,2.9-21.5C65.6,1,65.4,0.7,65.1,0.6z M60.2,1.3
	c1.4,0,2.7,0.2,4,0.4c-0.4,4.2-1.1,8.4-1.8,12.6c-1.3-0.1-2.6-0.2-4-0.4C59.1,9.7,59.7,5.5,60.2,1.3z M59.8,32.8
	c-0.5,3.4-0.8,6.9-1.5,10.2c-1.3,6.3-4.7,14-12.1,14.1c-2.5,0-5.9-0.3-7.9-2c-2.1-1.8-3.6-5.4-3.4-8.1c0-0.3-0.2-0.5-0.4-0.6
	c-0.1,0-0.1,0-0.2,0c-1.3-0.1-2.9-0.5-3.8-1.4c-0.8-0.7-0.9-2.2,0.4-2.2c0.4,0,1,0.4,1.4,0.5c1.4,0.6,2.8,1.1,4.4,0.9
	c1.5-0.2,2.1-0.9,3.2-1.9c1.1-1,2.6-0.6,2,1c-0.4,1.1-1.6,2.5-2.7,2.9c0,0,0,0-0.1,0c-0.2,0.1-0.4,0.3-0.4,0.6
	c0.2,4.2,3.6,6.8,7.8,6.1c1.8-0.3,3.9-1.2,5-2.6c1.9-2.2,2.2-5.8,2.8-8.5c1.8-8.9,3.1-17.9,4.3-26.9c1.3,0.2,2.6,0.4,3.9,0.4
	c-0.3,1.8-0.5,3.7-0.8,5.5C61.1,24.8,60.4,28.8,59.8,32.8z"/>
</svg>
