<?xml version="1.0" encoding="utf-8"?>
<!-- Generator: Adobe Illustrator 23.0.3, SVG Export Plug-In . SVG Version: 6.00 Build 0)  -->
<svg version="1.1" id="Layer_1" xmlns="http://www.w3.org/2000/svg" xmlns:xlink="http://www.w3.org/1999/xlink" x="0px" y="0px"
	 viewBox="0 0 48.8 84.6" style="enable-background:new 0 0 48.8 84.6;" xml:space="preserve">
<style type="text/css">
	.st0{fill:none;stroke:#2D2B2A;stroke-width:5;stroke-linecap:round;stroke-linejoin:round;stroke-miterlimit:10;}
	.st1{fill:none;}
	.st2{fill:#3E3939;}
	.st3{fill:#505050;}
	.st4{fill:#D2CFCF;}
	.st5{fill:#FF3A2C;}
	.st6{fill:#F0B0B0;}
	.st7{fill:#DB1F1F;}
</style>
<path class="st0" d="M41.8,51.9h-0.2v-0.3h-0.4l-0.1-0.8h0.4L41.4,50H41l-0.2-0.8h0.4l-0.1-0.8h-0.4l-0.1-0.8H41l-0.1-0.8h-0.4
	L40.4,46h0.4l-0.1-0.8h-0.4l-0.1-1h0.4l-0.1-0.9h-0.4L40,42.5h0.4l-0.1-0.8h-0.4l-0.1-0.8h0.4l-0.1-0.8h-0.4l-0.1-0.8H40l-0.1-0.8
	h-0.4l-0.1-0.8h0.4l-0.1-0.8h-0.4l-0.1-0.8h0.4l-0.1-0.8h-0.4L39,34.5h0.4l-0.1-0.8h-0.4l-0.1-0.8h0.4l-0.1-0.8h-0.4l-0.1-0.6
	c0-0.1,0-0.2,0-0.2l0.4-0.1c-0.1-0.3-0.2-0.6-0.3-0.9l-0.4,0.2c-0.1-0.2-0.3-0.5-0.5-0.7l0.3-0.3c-0.2-0.2-0.5-0.4-0.8-0.5l-0.2,0.4
	c-0.2-0.1-0.5-0.2-0.8-0.3l0.1-0.4c-0.3,0-0.6-0.1-0.9,0l0,0v0.4l-0.8,0.1v-0.4l-0.8,0.1v0.4l-0.8-0.1v-0.4l-0.8,0.1v0.4l-0.8,0.1
	V29l-0.8,0.1v0.4l-0.8,0.1v-0.4h-0.2v-0.1c0-0.1-0.1-0.2-0.1-0.3c0,0,0-0.1-0.1-0.1l0,0c0,0,0,0-0.1-0.1l0,0l-0.1-0.1l0,0
	c0,0-0.1,0-0.1-0.1l0,0h-0.1l0,0c0,0,0,0-0.1,0L26.5,7.1c0.1,0.1,0.1,0.1,0.1,0.2c0.4-0.1,0.7-0.6,0.7-1V6.1c0-0.1,0-0.2-0.1-0.3
	l0,0c0,0,0-0.1-0.1-0.1l0,0c0,0,0-0.1-0.1-0.1l0,0c0,0-0.1,0-0.1-0.1c0,0,0,0-0.1,0h-0.1h-0.1h-0.1h-0.1c0,0,0,0-0.1,0s-0.1,0-0.2,0
	L11.8,7.2c-0.5,0.1-0.9,0.5-0.8,1.1v0.2c0,0.1,0,0.1,0,0.2v0.1l0,0c0,0.1,0.1,0.2,0.2,0.3l0,0l0,0c0.2,0.2,0.4,0.3,0.6,0.3
	c0-0.1,0-0.2,0.1-0.2l2.5,21.3c-0.4,0.1-0.7,0.5-0.6,0.9l0.1,0.5L13.4,32v-0.4l-0.9-0.4v0.4l-0.8,0.1v-0.4l-0.8,0.1v0.4l-0.8,0.1
	v-0.4l-0.8,0.1V32l-0.8,0.1v-0.4l0,0l0,0c-0.3,0-0.6,0.1-0.9,0.2l0.2,0.4c0,0-0.1,0-0.1,0.1c0,0,0,0-0.1,0s-0.1,0.1-0.2,0.1l0,0
	c0,0,0,0-0.1,0l0,0l0,0c-0.1,0-0.1,0.1-0.2,0.1l-0.3-0.3c-0.2,0.2-0.5,0.4-0.6,0.7l0.4,0.2l0,0l0,0c0,0,0,0,0,0.1l0,0l0,0
	c0,0.1-0.1,0.1-0.1,0.2v0.1c0,0.1-0.1,0.2-0.1,0.3l0,0c0,0,0,0,0,0.1L6,33.9c-0.5,0.4-0.5,0.7-0.5,1.1h0.4c0,0.1,0,0.2,0,0.2L6,35.8
	H5.6l0.1,0.8h0.4l0.1,0.8H5.8l0.1,0.8h0.4L6.4,39H6l0.1,0.8h0.4l0.1,0.8H6.2l0.1,0.8h0.4l0.1,0.8H6.4l0.1,1h0.4L7,44H6.6l0.1,0.8
	h0.4l0.1,0.8H6.8l0.1,0.8h0.4l0.1,0.8H7L7.1,48h0.4l0.1,0.8H7.2l0.1,0.8h0.4l0.1,0.8H7.4l0.1,0.8h0.4L8,52H7.6l0.1,0.8h0.4l0.1,0.8
	H7.8l0.1,0.8h0.4l0.1,0.8H8v0.3H7.7L8,56.8l0.5-0.2l2.2,18.1c0.2,1.5,1.6,2.6,3.1,2.4l0.6-0.1c-0.1,0.2-0.2,0.5-0.2,0.9
	c0.1,0.8,0.8,1.3,1.5,1.2c0.6-0.1,1.1-0.6,1.2-1.2l0,0l0,0c0,0,0,0,0-0.1s0-0.2,0-0.2c0-0.3-0.2-0.6-0.4-0.8L38,74.2
	c-0.1,0.2-0.2,0.5-0.2,0.8c0.1,0.8,0.8,1.3,1.5,1.2c0.6-0.1,1.1-0.6,1.2-1.2l0,0l0,0c0,0,0,0,0-0.1s0-0.2,0-0.2
	c0-0.3-0.2-0.6-0.4-0.8l0.8-0.1c0.1,0,0.2,0,0.3-0.1h0.1c0.1,0,0.1,0,0.2-0.1h0.1c0.1,0,0.1-0.1,0.2-0.1h0.1c0.1,0,0.2-0.1,0.2-0.1
	l0,0c0.1-0.1,0.2-0.1,0.3-0.2l0,0c0.1-0.1,0.1-0.1,0.2-0.2l0,0l0,0l0,0c0.1-0.1,0.1-0.1,0.2-0.2l0,0c0.1-0.1,0.1-0.2,0.2-0.3l0,0
	l0,0c0,0,0-0.1,0.1-0.1l0,0c0-0.1,0.1-0.2,0.1-0.3c0,0,0,0,0-0.1s0.1-0.2,0.1-0.3c0,0,0,0,0-0.1s0-0.2,0-0.3v-0.1c0-0.1,0-0.2,0-0.4
	l-2-17.6h0.5C41.8,53.2,41.8,51.9,41.8,51.9z M12.6,8.4c0.5-0.1,0.9,0.1,0.9,0.4L14,8.7c0-0.3,0.3-0.6,0.8-0.6
	c0.5-0.1,0.9,0.1,0.9,0.4l0.5-0.1c0-0.3,0.3-0.6,0.8-0.6c0.5-0.1,0.9,0.1,0.9,0.4l0.5-0.1c0-0.3,0.3-0.6,0.8-0.6
	c0.5-0.1,0.9,0.1,0.9,0.4l0.5-0.1c0-0.3,0.3-0.6,0.8-0.6c0.5-0.1,0.9,0.1,0.9,0.4l0.5-0.1c0-0.3,0.3-0.6,0.8-0.6
	c0.5-0.1,0.9,0.1,0.9,0.4L25,7.2c0-0.3,0.3-0.6,0.8-0.6c0.1,0,0.2,0,0.3,0l2.6,21.6l-13.5,1.6L12.6,8.2C12.4,8.4,12.5,8.4,12.6,8.4z
	"/>
<path class="st1" d="M15.4,76.8c-0.8,0.1-1.3,0.7-1.2,1.5c0.1,0.8,0.7,1.3,1.5,1.2c0.8-0.1,1.3-0.7,1.2-1.5
	C16.8,77.3,16.1,76.7,15.4,76.8z M15.7,79c-0.4,0.1-0.9-0.3-0.9-0.7c-0.1-0.4,0.3-0.8,0.7-0.9c0.4-0.1,0.8,0.2,0.9,0.7
	C16.5,78.5,16.1,78.9,15.7,79z M39.1,74c-0.8,0.1-1.3,0.7-1.2,1.5c0.1,0.8,0.7,1.3,1.5,1.2c0.8-0.1,1.3-0.7,1.2-1.5
	C40.5,74.4,39.8,73.9,39.1,74z M39.3,76.2c-0.4,0.1-0.8-0.3-0.9-0.7c-0.1-0.4,0.3-0.8,0.7-0.9c0.5-0.1,0.9,0.2,0.9,0.7
	C40.1,75.7,39.7,76.1,39.3,76.2z M16.9,78c0,0.1,0,0.2,0,0.3l-2.5-0.8c0.2-0.4,0.6-0.6,1-0.7C16.1,76.7,16.8,77.2,16.9,78z M39.1,74
	c-0.4,0.1-0.8,0.3-1,0.7l2.5,0.8c0-0.1,0-0.2,0-0.3C40.5,74.4,39.8,73.9,39.1,74z"/>
<path class="st1" d="M8,55.5l0.8-0.1l0,0.4L8,55.9L8,55.5z M8.7,54.7l-0.8,0.1L7.8,54l0.8-0.1L8.7,54.7z M41.4,50.8l-0.8,0.1
	L40.5,50l0.8-0.1L41.4,50.8z M8.5,53l-0.8,0.1l-0.1-0.8l0.8-0.1L8.5,53z M41.2,49.1l-0.8,0.1l-0.1-0.8l0.8-0.1L41.2,49.1z M8.3,51.4
	l-0.8,0.1l-0.1-0.8l0.8-0.1L8.3,51.4z M41,47.5l-0.8,0.1l-0.1-0.8l0.8-0.1L41,47.5z M8.1,49.7l-0.8,0.1L7.2,49L8,48.9L8.1,49.7z
	 M40.8,45.8L40,45.9l-0.1-0.8l0.8-0.1L40.8,45.8z M7.9,48.1l-0.8,0.1L7,47.4l0.8-0.1L7.9,48.1z M40.6,44.2l-0.8,0.1l-0.1-0.8
	l0.8-0.1L40.6,44.2z M7.7,46.4l-0.8,0.1l-0.1-0.8l0.8-0.1L7.7,46.4z M40.4,42.5l-0.8,0.1l-0.1-0.8l0.8-0.1L40.4,42.5z M7.5,44.8
	l-0.8,0.1l-0.1-0.8L7.4,44L7.5,44.8z M40.2,40.9L39.4,41l-0.1-0.8l0.8-0.1L40.2,40.9z M7.3,43.1l-0.8,0.1l-0.1-0.8l0.8-0.1L7.3,43.1
	z M40,39.2l-0.8,0.1l-0.1-0.8l0.8-0.1L40,39.2z M7.1,41.5l-0.8,0.1l-0.1-0.8L7,40.7L7.1,41.5z M39.9,37.6l-0.8,0.1L39,36.9l0.8-0.1
	L39.9,37.6z M6.9,39.8l-0.8,0.1L6,39.1L6.8,39L6.9,39.8z M39.7,35.9L38.9,36l-0.2-0.8l0.8-0.1L39.7,35.9z M6.7,38.2l-0.8,0.1
	l-0.1-0.8l0.8-0.1L6.7,38.2z M39.5,34.3l-0.8,0.1l-0.2-0.8l0.8-0.1L39.5,34.3z M6.5,36.6l-0.8,0.1l-0.1-0.8l0.8-0.1L6.5,36.6z
	 M39.3,32.6l-0.8,0.1l-0.1-0.8l0.8-0.1L39.3,32.6z M6.4,34.9H5.6c0-0.3,0-0.6,0.1-0.9l0.8,0.2C6.4,34.5,6.3,34.7,6.4,34.9z
	 M38.2,31.1c0-0.2-0.1-0.5-0.2-0.7l0.7-0.4c0.2,0.3,0.3,0.6,0.3,0.9L38.2,31.1z M6.7,33.6L6,33.2c0.2-0.3,0.4-0.5,0.6-0.7l0.5,0.6
	C7,33.2,6.8,33.4,6.7,33.6z M37.6,29.9c-0.2-0.2-0.4-0.3-0.6-0.4l0.4-0.7c0.3,0.1,0.5,0.3,0.8,0.5L37.6,29.9z M7.8,32.7l-0.3-0.8
	c0.3-0.1,0.6-0.2,0.9-0.2l0,0l0,0l0.1,0.8l0,0C8.2,32.5,8,32.6,7.8,32.7z M36.3,29.3c-0.2,0-0.4,0-0.7,0l0,0l-0.1-0.8l0,0
	c0.3,0,0.6,0,0.9,0L36.3,29.3z M34.8,29.4L34,29.5l-0.1-0.8l0.8-0.1L34.8,29.4z M33.2,29.6l-0.8,0.1l-0.1-0.8l0.8-0.1L33.2,29.6z
	 M31.5,29.8l-0.8,0.1l-0.1-0.8l0.8-0.1L31.5,29.8z M29.9,30l-0.8,0.1l-0.2-0.9l0.8-0.1L29.9,30z M28.2,30.2l-0.8,0.1l-0.1-0.8
	l0.8-0.1L28.2,30.2z M26.6,30.4l-0.8,0.1l-0.1-0.8l0.8-0.1L26.6,30.4z M24.9,30.6l-0.8,0.1L24,29.9l0.8-0.1L24.9,30.6z M23.3,30.8
	h-0.8L22.4,30l0.8-0.1L23.3,30.8z M21.6,30.9L20.8,31l-0.1-0.8l0.8-0.1L21.6,30.9z M20,31.1l-0.8,0.1l-0.1-0.8l0.8-0.1L20,31.1z
	 M18.3,31.3l-0.8,0.1l-0.1-0.8l0.8-0.1L18.3,31.3z M16.7,31.5l-0.8,0.1l-0.1-0.8l0.8-0.1L16.7,31.5z M15,31.7l-0.8,0.1L14.1,31
	l0.8-0.1L15,31.7z M13.4,31.9L12.6,32l-0.1-0.8l0.8-0.1L13.4,31.9z M11.7,32.1l-0.8,0.1l-0.1-0.8l0.8-0.1L11.7,32.1z M10.1,32.3
	l-0.8,0.1l-0.1-0.8l0.8-0.1L10.1,32.3z M40.7,51.6l0.8-0.1l0,0.4L40.7,52L40.7,51.6z"/>
<polygon class="st2" points="9.7,55.8 7.7,55.9 8,57.2 9.5,56.8 "/>
<polygon class="st2" points="39.8,52.2 41.8,51.9 41.8,53.2 40.3,53.1 "/>
<path class="st3" d="M29.9,31.2c0.1,0.5-0.3,0.9-0.7,0.9L15,33.8c-0.5,0.1-0.9-0.3-0.9-0.7L13.8,31c-0.1-0.5,0.3-0.9,0.7-0.9
	l14.2-1.7c0.5-0.1,0.9,0.3,0.9,0.7L29.9,31.2z"/>
<path class="st4" d="M29,28.7c0.2,0,0.4,0,0.5,0.1c-0.2-0.3-0.4-0.4-0.7-0.4L26.3,6.6c0.3,0.1,0.4,0.2,0.4,0.4
	c0.4-0.1,0.7-0.6,0.7-1V5.8C27,5.5,26.5,5.1,26,5.2L11.7,6.9C11.2,7,10.8,7.4,10.9,8v0.2c0,0.2,0.1,0.4,0.3,0.6c0,0,0-0.1-0.1-0.1
	C11.3,8.9,11.5,9,11.8,9c0,0,0-0.1,0-0.1L14.4,30c-0.4,0.1-0.7,0.5-0.6,0.9l0.3,2.1c0,0.3,0.2,0.5,0.4,0.6c-0.1,0-0.1-0.1-0.1-0.2
	l-0.3-2.1c-0.1-0.3,0.1-0.6,0.3-0.8l0.4,3c0.1,0.1,0.2,0.2,0.3,0.2c0.1-0.1,0.2-0.2,0.2-0.3l-0.4-3l13.4-1.6l0.4,3
	c0.1,0.1,0.2,0.2,0.3,0.2c0.1-0.1,0.2-0.2,0.2-0.3l-0.3-3L29,28.7z M14.9,30L12.3,8.4c0.1,0,0.2,0,0.3,0c0.5-0.1,0.9,0.1,0.9,0.4
	L14,8.7c0-0.3,0.3-0.6,0.8-0.6c0.5-0.1,0.9,0.1,0.9,0.4l0.5-0.1c0-0.3,0.3-0.6,0.8-0.6c0.5-0.1,0.9,0.1,0.9,0.4l0.5-0.1
	c0-0.3,0.3-0.6,0.8-0.6c0.5-0.1,0.9,0.1,0.9,0.4l0.5-0.1c0-0.3,0.3-0.6,0.8-0.6c0.5-0.1,0.9,0.1,0.9,0.4l0.5-0.1
	c0-0.3,0.3-0.6,0.8-0.6c0.5-0.1,0.9,0.1,0.9,0.4L25,7.2c0-0.3,0.3-0.6,0.7-0.6l2.6,21.8L14.9,30z"/>
<path class="st5" d="M43.5,71.2c0.2,1.5-0.9,2.9-2.4,3.1l-27.2,3.3c-1.5,0.2-2.9-0.9-3.1-2.4L6,35.2c-0.2-1.5,0.9-2.9,2.4-3.1
	l27.2-3.2c1.5-0.2,2.9,0.9,3.1,2.4L43.5,71.2z"/>
<path class="st6" d="M43.5,71.4l-4.8-40c-0.2-1.6-1.6-2.7-3.1-2.5L8.4,32.1c-0.7,0.1-1.4,0.4-1.8,1c-0.5,0.6-0.7,1.3-0.6,2.1l4.8,40
	c0.2,1.5,1.6,2.6,3.1,2.4l27.2-3.3c0.5-0.1,0.9-0.2,1.3-0.5c0,0.1-0.1,0.1-0.1,0.2C43.1,73.4,43.7,72.4,43.5,71.4z M41.9,73.4
	l-27.2,3.2c-1.5,0.2-2.9-0.9-3.1-2.4l-4.8-40c-0.1-0.3,0-0.7,0.1-1c0.2-0.1,0.4-0.1,0.6-0.1l27.2-3.2c1.5-0.2,2.9,0.9,3.1,2.4
	l4.8,40c0,0.3,0,0.6,0,0.9C42.3,73.3,42.1,73.3,41.9,73.4z"/>
<path class="st7" d="M14.4,74.7c0,0.2-0.1,0.4-0.2,0.5c-0.1,0.1-0.2,0.2-0.5,0.3c-0.3,0-0.6-0.2-0.6-0.5L8.3,34.5
	c0-0.2,0.1-0.5,0.3-0.6c0.1-0.1,0.2-0.2,0.4-0.2c0.3,0,0.6,0.2,0.6,0.5L14.4,74.7z M12,33.4c-0.1,0-0.2,0.1-0.3,0.1
	c-0.2,0.1-0.4,0.3-0.4,0.6l4.8,40.5c0,0.3,0.3,0.5,0.6,0.5c0.1,0,0.2-0.1,0.3-0.1c0.2-0.1,0.4-0.3,0.4-0.6l-4.8-40.5
	C12.6,33.6,12.3,33.4,12,33.4z M14.9,33.1c-0.1,0-0.2,0.1-0.3,0.1c-0.2,0.1-0.4,0.3-0.4,0.6L19,74.3c0,0.3,0.3,0.5,0.6,0.5
	c0.1,0,0.2-0.1,0.3-0.2c0.2-0.1,0.4-0.4,0.4-0.5l-4.8-40.5C15.5,33.3,15.2,33.1,14.9,33.1z M17.9,32.7c-0.1,0-0.2,0.1-0.3,0.1
	c-0.2,0.1-0.4,0.3-0.4,0.6L22,73.9c0,0.3,0.3,0.5,0.6,0.5c0.1,0,0.2-0.1,0.3-0.1c0.2-0.1,0.4-0.3,0.4-0.6l-4.8-40.5
	C18.5,32.9,18.2,32.7,17.9,32.7z M20.8,32.3c-0.2,0-0.3,0.1-0.4,0.2c-0.2,0.1-0.3,0.3-0.3,0.6l4.8,40.5c0,0.3,0.3,0.5,0.6,0.5
	c0.2-0.1,0.3-0.2,0.4-0.3c0.2-0.1,0.3-0.3,0.3-0.5l-4.8-40.5C21.4,32.5,21.1,32.3,20.8,32.3z M24.3,32.5c0-0.3-0.3-0.5-0.6-0.5
	c-0.2,0-0.3,0.1-0.4,0.2c-0.1,0.1-0.2,0.3-0.2,0.5l4.8,40.5c0,0.3,0.3,0.5,0.6,0.5c0.1,0,0.2-0.1,0.3-0.2c0.2-0.1,0.3-0.3,0.3-0.5
	L24.3,32.5z M27.2,32.1c0-0.3-0.3-0.5-0.6-0.5c-0.2,0-0.4,0.2-0.5,0.4C26,32.1,26,32.3,26,32.4l4.8,40.5c0,0.3,0.3,0.5,0.6,0.5
	c0.2-0.1,0.3-0.2,0.4-0.3c0.2-0.1,0.2-0.3,0.2-0.5L27.2,32.1z M30.2,31.8c0-0.3-0.3-0.5-0.6-0.5c-0.2,0-0.3,0.1-0.4,0.2
	C29.1,31.6,29,31.8,29,32l4.8,40.5c0,0.3,0.3,0.5,0.6,0.5c0.1,0,0.2-0.1,0.3-0.2c0.2-0.1,0.3-0.3,0.3-0.5L30.2,31.8z M32.6,30.9
	c-0.2,0-0.3,0.1-0.4,0.2c-0.2,0.1-0.3,0.3-0.3,0.6l4.8,40.5c0,0.3,0.3,0.5,0.6,0.5c0.2-0.1,0.3-0.1,0.4-0.2c0.2-0.1,0.3-0.3,0.3-0.6
	l-4.8-40.5C33.2,31.1,32.9,30.9,32.6,30.9z M40.9,71.6l-4.8-40.5c0-0.3-0.3-0.5-0.6-0.5c-0.2,0-0.3,0.1-0.4,0.2
	c-0.1,0.1-0.2,0.3-0.2,0.5l4.8,40.5c0,0.3,0.3,0.5,0.6,0.5c0.1,0,0.2-0.1,0.3-0.2C40.8,72,41,71.8,40.9,71.6z"/>
</svg>
