<?xml version="1.0" encoding="utf-8"?>
<!-- Generator: Adobe Illustrator 23.0.3, SVG Export Plug-In . SVG Version: 6.00 Build 0)  -->
<svg version="1.1" id="Layer_1" xmlns="http://www.w3.org/2000/svg" xmlns:xlink="http://www.w3.org/1999/xlink" x="0px" y="0px"
	 viewBox="0 0 52.5 69.8" style="enable-background:new 0 0 52.5 69.8;" xml:space="preserve">
<style type="text/css">
	.st0{fill:#3E50B4;}
</style>
<path class="st0" d="M33.9,25.6c2.6-2.7,5.2-5.4,7.9-8.1c3.5-3.6,7-7.2,10.5-10.8c0.4-0.4,0.1-1.2-0.5-1.2C39.2,5.5,26.6,5.4,14,5.4
	c-1.6-1.7-3.2-3.5-4.8-5.2C8.7-0.3,8,0.5,8.4,1c1.4,1.5,2.8,3,4.1,4.4c-3.9,0-7.9,0-11.8,0C0,5.4-0.2,6.2,0.2,6.6
	c7.3,8.6,15.2,16.7,23.7,24c0.4,9.1,0.5,18.1,0.5,27.2c0,1.4,0,2.7,0,4.1c0,0.5,0,1,0,1.5c0,0.3-0.1,0.4-0.1,0.5
	c-0.8,0.5-2.5,0.4-3.3,0.5c-1.8,0.2-3.5,0.3-5.3,0.5c-1.5,0.2-5.3,0.1-6.2,1.8c-0.7,1.2,0.7,1.8,1.7,2c5.4,1.5,11.7,1.1,17.2,1
	c3.1,0,6.3-0.1,9.4-0.4c1.7-0.1,4-0.1,5.5-1c1.4-0.8,0.8-2.2-0.4-2.9c-2.9-1.7-7.5-1.4-10.7-1.5c-1,0-2.1,0.3-2.6-0.8
	c-0.2-0.4-0.1-1.5-0.1-2c-0.1-1.9-0.2-3.9-0.3-5.8c-0.2-4.1-0.3-8.3-0.4-12.4c-0.1-3.3-0.2-6.6-0.2-9.9c0-0.7,0-1.5,0-2.2
	c0,0,0.1-0.1,0.2-0.1C30.8,29.3,32.4,27.2,33.9,25.6z M11.1,67.3L11.1,67.3C11.2,67.4,10.8,67.3,11.1,67.3z M31.2,65.3
	c2,0.1,4,0.1,6,0.3c1.8,0.2,3.8,0.3,5.4,1.2c0.6,0.3,0.5,0.2,0.4,0.3c-0.2,0.2-0.8,0.2-1,0.3c-2.3,0.6-4.8,0.6-7.2,0.7
	c-6.3,0.3-12.6,0.3-18.9-0.3c-1.4-0.1-3.1-0.2-4.5-0.7c0.2-0.1,0.3-0.1,0.5-0.2c0.5-0.2,1.1-0.3,1.7-0.4c1.7-0.3,3.4-0.4,5.2-0.6
	c1.5-0.1,6.1,0.1,7.1-1.4c0.8-1.1,0.1-4.2,0.1-5.4c-0.1-9.6-0.1-19.2-0.6-28.8c0.1-0.2,0-0.4-0.2-0.6c-8.2-7-15.8-14.8-22.9-23
	c3.9,0,7.7,0,11.6,0c1,1.1,2.1,2.3,3.1,3.4c-2.7-0.1-5.3-0.2-8-0.3c-0.1,0-0.2,0-0.3,0C8.5,9.9,8.4,10,8.4,10.2l0,0l0,0
	c0,0.1,0,0.2,0.1,0.3l0,0l0,0c3,3.4,6.2,6.6,9.3,9.8c1.3,1.4,2.8,2.8,4.2,4c1.1,0.9,2.5,2.3,3.9,2.5c1.3,0.2,2.4-0.8,3.3-1.5
	c1.7-1.2,3.1-2.6,4.5-4.1c3.2-3.5,6-7.3,9.6-10.5c0.3-0.3,0.1-0.9-0.4-0.9c-5.4,0-10.8,0.5-16.1,0.5c-2.8,0-5.6-0.2-8.3-0.3
	c-1-1.2-2.1-2.3-3.1-3.5c11.6,0,23.2,0.1,34.8,0.1c-6.7,7-13.2,13.8-19.8,20.5c-0.8,0.8-2.2,1.8-2.7,2.8c-0.5,0.9-0.2,2.3-0.2,3.3
	c0.1,7.2,0.3,14.3,0.6,21.5c0.1,1.7,0.1,3.4,0.2,5.1c0.1,1.3-0.1,3.1,0.3,4.3C29,65.3,30.1,65.2,31.2,65.3z M26.8,16.4
	c-0.5-0.3-0.9-0.6-1.3-1c-0.5-0.5-0.6-1,0.1-0.9c0.6,0,0.9,0.6,1,1C26.8,15.8,26.8,16.1,26.8,16.4z M26.5,17.4
	c-0.6,1.1-1.8,2-2.9,2.4c-2.2,0.7-4.5-0.7-3.6-3.2c0.6-1.7,2.2-2.3,3.8-2.4C23.7,15.7,25.5,16.8,26.5,17.4z M18.8,18.3
	c0.6,3.3,4.3,3.3,6.6,1.8c0.9,1,1.7,2.1,2.6,3.1c0.4,0.5,1.2-0.2,0.8-0.8c-0.8-1-1.7-2-2.5-3c1.9-1.8,2.6-4.8-0.2-6
	c-0.3-0.1-0.6-0.2-0.9-0.2c-0.1,0-0.1-0.1-0.2-0.1c-1.1-0.1-2.3,0.2-3.4,0.6l0,0c-0.7-0.8-1.4-1.6-2-2.4c2.5,0.1,4.9,0.2,7.4,0.2
	c4.9,0,9.8-0.3,14.8-0.4c-2.5,2.4-4.6,5-6.8,7.6c-2.1,2.4-6.4,8.4-10,6.6c-2.9-1.5-5.4-4.6-7.6-6.9c-2.3-2.5-4.8-4.9-7.2-7.4
	c2.7,0,5.3,0.2,8,0.3c0.9,1,1.7,2,2.6,3C19.3,15.1,18.5,16.5,18.8,18.3z"/>
</svg>
