<?xml version="1.0" encoding="utf-8"?>
<!-- Generator: Adobe Illustrator 23.0.3, SVG Export Plug-In . SVG Version: 6.00 Build 0)  -->
<svg version="1.1" id="Layer_1" xmlns="http://www.w3.org/2000/svg" xmlns:xlink="http://www.w3.org/1999/xlink" x="0px" y="0px"
	 viewBox="0 0 45 43" style="enable-background:new 0 0 45 43;" xml:space="preserve">
<style type="text/css">
	.st0{fill:#FF3C45;}
</style>
<path class="st0" d="M43,11c0,0-0.8,4.8-2.1,7.3c0,0-14.4-2.1-21.2-3.3c1-2,1.9-4.1,2.8-6.3C29.4,9.1,36.2,9.9,43,11z M11.5,24.2
	c5.9,1.1,21.7,4,23.7,3.8c1.5-1.6,2.5-3,2.8-4.4c-7.4-0.8-14.9-1.9-22.3-3.2L11.5,24.2z M2.1,29.7l25.1,5.2l4.1-2.5
	c-8-1.4-17.9-2.6-25.6-5L2.1,29.7z"/>
<path d="M39.1,39.1c-1,0-1,1.6,0,1.6C40.1,40.6,40.1,39.1,39.1,39.1z M42.3,36.8C42.4,36.7,42.4,36.7,42.3,36.8
	c0.1-0.6-0.5-1.1-1-1.1s-1.1,0.4-1,1c0,0,0,0,0,0.1c0.1,0.5,0.4,1,1,1C41.9,37.7,42.3,37.3,42.3,36.8z M43.1,39.3L43.1,39.3
	c-0.7-0.5-1.5,0.1-1.5,0.8s0.9,1.3,1.5,0.9c0,0,0,0,0.1,0C43.7,40.5,43.7,39.7,43.1,39.3z M43.8,4.2C44.7,2,45.1,0.7,45,0.7
	c-0.1-0.1-0.8,1.1-1.9,3.2c-5.8-0.3-10.6-0.5-13.8-0.6c-2.2-0.1-3.7-0.1-4.5-0.1C25.7,1.3,26.2,0.1,26,0c-0.4-0.2-3.8,5.1-7.7,11.8
	c-0.2,0.3-0.3,0.6-0.5,0.8c-0.8-0.1-4.2,0.6-8.2,1.7c-4.5,1.3-8.1,2.7-8,3.1c0.1,0.2,1.3,0.1,3.2-0.3C4.9,17.4,5,17.7,5.1,18
	c0.4,0.7,0.9,1.7,1.4,2.9s1,2.2,1.5,3c0.4,0.6,0.7,1,0.9,1c-0.2,0.1-0.4,0.3-0.7,0.4c-2,1.3-4.2,2.5-6.6,3.7L0,29.8l1.7,0.5
	C3,30.7,4.3,31,5.6,31.4c-0.6,0.8-1.5,2.3-2.4,4c-1.4,2.7-2.2,5.1-1.8,5.3s1.8-1.9,3.2-4.6c0.9-1.9,1.6-3.6,1.8-4.5
	c1.9,0.5,3.9,0.9,5.9,1.4c3.7,0.8,7.5,1.5,11.4,2.2c0.5,0.1,1.1,0.2,1.6,0.3l0.6,0.1c-0.2,0.4-0.4,0.8-0.6,1.1
	c-2.1,3.8-3.4,6.2-3.2,6.3c0.2,0.1,1.8-2.1,4.2-5.7c0.3-0.5,0.7-1.1,1-1.6l0,0c1.7-0.8,3.2-1.8,4.5-2.9c1.3-1.1,2.5-2.3,3.6-3.6
	c0,0.6,0.1,1.6,0.5,2.6c0.5,1.8,1.3,3.1,1.7,3s0.3-1.6-0.2-3.4c-0.4-1.4-1-2.5-1.4-2.9c0.4-0.5,0.7-0.9,1.1-1.4
	c0.5-0.7,0.9-1.4,1.3-2.1c0.9-1.4,1.5-2.8,2.2-4.2c1.2-2.9,2.1-5.7,2.6-8.5s0.6-5.4,0.6-7.8L43.8,4.2z M42.2,10.3
	c-0.3-0.1-0.6-0.2-1-0.3c0.5-1,0.9-1.9,1.2-2.8c0-0.1,0-0.1,0.1-0.2C42.5,8.2,42.4,9.2,42.2,10.3z M29.5,3.8c3.2,0.3,7.6,0.7,13,1.2
	c-0.3,0.6-0.6,1.2-1,1.9c-0.5,0.9-1,1.9-1.5,2.9c-1.8-0.4-4.4-0.8-7.2-1c-4.7-0.4-8.6-0.4-9.9-0.1c0.4-1.1,0.6-2.1,0.9-2.8
	c0.1-0.4,0.2-0.8,0.3-1.1V4.7c0.2-0.5,0.5-0.9,0.7-1.3C25.4,3.3,27.1,3.5,29.5,3.8z M33.3,22.5c-0.8-0.1-1.7-0.3-2.7-0.5l0.1-0.1
	c1.8-1.1,3.3-2.2,4.5-3.1c-0.5,1-1,1.9-1.6,2.9C33.5,22,33.4,22.2,33.3,22.5z M30.9,26.9c-0.8-0.2-1.7-0.3-2.6-0.5
	c-0.3-1.1-0.8-2-1.1-2.3c0.5-0.3,1-0.5,1.5-0.8c1.5,0.2,2.8,0.3,4,0.4C32,24.8,31.4,25.9,30.9,26.9z M30.2,28.1
	c-0.5,0.9-1,1.8-1.5,2.6c0-0.8,0-1.8-0.2-2.8C29.1,28,29.7,28,30.2,28.1z M20,15.3c1.1,0.5,5.2,1.4,10.2,2.2
	c1.5,0.2,2.9,0.4,4.3,0.6c-1.2,0.7-2.8,1.6-4.5,2.6c-0.5,0.3-1.1,0.7-1.6,1c-0.5-0.1-0.9-0.1-1.4-0.2c-4.7-0.7-8.7-1.2-10.4-1.2
	c0.8-0.9,1.5-1.9,2.1-2.8C19.2,16.7,19.6,16,20,15.3z M16.2,20.7c1.3,0.5,5.4,1.5,10.3,2.2c-1.8,1.3-3,2.3-3,2.6
	c-5-0.9-9.3-1.4-11.1-1.5c0.8-0.6,1.6-1.2,2.3-1.9C15.2,21.7,15.7,21.2,16.2,20.7z M26.6,24.4c0,0.4,0,1,0.1,1.8
	c-0.9-0.2-1.9-0.3-2.9-0.5C24.4,25.5,25.4,25,26.6,24.4z M36.2,16.9c-1.7-0.3-3.7-0.7-5.9-1c-4.7-0.7-8.8-1.1-10.2-1
	c0.4-0.7,0.7-1.4,1-2.1c0.6-1.4,1.1-2.7,1.5-3.8c1.1,0.4,5.1,0.9,9.9,1.3c2.6,0.2,5,0.4,6.8,0.5C38.5,12.7,37.4,14.7,36.2,16.9z
	 M19.6,12.5c1.3-2.1,2.4-4.1,3.3-5.9c-0.6,1.5-1.3,3.5-2.5,5.7c-0.7,1.4-1.6,2.9-2.6,4.5c-1,1.5-2.3,3-3.9,4.4
	C15.5,19.1,17.5,16,19.6,12.5z M9.1,23.4c-0.2-0.8-0.6-2-1.1-3.2c-0.6-1.2-1.3-2.3-1.9-2.9c-0.2-0.2-0.3-0.3-0.4-0.4
	c1.3-0.3,2.8-0.7,4.4-1.1c3.4-1,6.3-2,7.5-2.6c-2.5,4.2-4.6,7.8-5.5,9.7c-0.9,0.6-1.8,1.3-2.7,1.9C9.3,24.5,9.2,24,9.1,23.4z
	 M9,26.4c1-0.6,1.9-1.3,2.8-2C13,25,17.6,26.1,23.2,27c1.3,0.2,2.6,0.4,3.7,0.6c0,0.2,0.1,0.3,0.1,0.5c0.2,1.3,0.5,2.4,0.7,3.1
	c-0.3-0.1-0.6-0.1-1-0.2c-2.2-0.5-5.3-1-8.7-1.6s-6.5-1.1-8.7-1.6c-0.8-0.1-1.5-0.3-2-0.4C7.9,27.1,8.5,26.8,9,26.4z M26.9,34.1
	L26.5,34l-0.8-0.1c-0.5-0.1-1.1-0.2-1.6-0.3c-3.9-0.7-7.7-1.4-11.4-2.1c-3-0.6-6-1.3-8.8-2c0.9-0.5,1.8-1,2.6-1.5
	c0.6,0.3,1.5,0.6,2.6,1c2.2,0.7,5.3,1.4,8.7,2s6.5,1,8.8,1.2c0.5,0,0.9,0.1,1.3,0.1C27.6,32.9,27.2,33.5,26.9,34.1L26.9,34.1z
	 M29.4,32.3c0.2,0,0.4,0,0.5,0c-0.3,0.2-0.6,0.4-0.9,0.6C29.2,32.7,29.3,32.5,29.4,32.3z M31,31.5c-0.2,0.2-0.5,0.4-0.7,0.6
	c-0.1-0.1-0.3-0.2-0.5-0.2c0.7-1.1,1.4-2.3,2.1-3.6c1,0.1,1.8,0.1,2.4,0.1C33.3,29.4,32.2,30.5,31,31.5z M35.9,26.2
	c-0.4,0.5-0.8,1.1-1.3,1.6c-0.1,0-0.2-0.1-0.3-0.1c-0.5-0.1-1.1-0.3-1.9-0.4c0.6-1.1,1.3-2.3,1.9-3.5c1.4,0.1,2.5,0.1,3.1,0.1
	c-0.1,0.1-0.1,0.2-0.2,0.4C36.8,24.9,36.4,25.5,35.9,26.2z M37.7,23.4c-0.5-0.2-1.5-0.4-2.8-0.7c0-0.1,0.1-0.2,0.1-0.2
	c0.8-1.4,1.5-2.8,2.2-4.2c1.2,0.1,2.2,0.2,2.8,0.1c-0.2,0.6-0.5,1.1-0.7,1.7C38.8,21.3,38.3,22.4,37.7,23.4z M40.2,17.9
	c-0.5-0.2-1.4-0.4-2.5-0.7c1.2-2.3,2.2-4.4,3.1-6.4c0.5,0,0.9,0,1.3,0c-0.1,0.4-0.1,0.8-0.2,1.1C41.5,14,41,15.9,40.2,17.9z
	 M7.9,36.4c-1,0-1,1.6,0,1.6C8.9,37.9,8.9,36.4,7.9,36.4z M11.8,35.5c-0.9,0-0.9,1.3,0,1.3C12.7,36.9,12.7,35.5,11.8,35.5z
	 M10.9,37.7c-1.1,0-1.1,1.7,0,1.7S12,37.7,10.9,37.7z"/>
</svg>
