<?xml version="1.0" encoding="utf-8"?>
<!-- Generator: Adobe Illustrator 23.0.3, SVG Export Plug-In . SVG Version: 6.00 Build 0)  -->
<svg version="1.1" id="Capa_1" xmlns="http://www.w3.org/2000/svg" xmlns:xlink="http://www.w3.org/1999/xlink" x="0px" y="0px"
	 viewBox="0 0 490 365.2" style="enable-background:new 0 0 490 365.2;" xml:space="preserve">
<style type="text/css">
	.st0{fill:#3E50B4;}
</style>
<path class="st0" d="M440.3,43.5h-19.9V20.9C420.4,9.3,411,0,399.5,0h-134c-11.5,0-20.9,9.4-20.9,20.9v22.5H147V27.7
	c0-3.9-3.2-7.1-7.1-7.1H97.3c-3.9,0-7.1,3.2-7.1,7.1v15.8H49.7C22.3,43.5,0,65.7,0,93.2c0,2.6,2.1,4.6,4.6,4.6h480.8
	c2.6,0,4.6-2.1,4.6-4.6C490,65.7,467.7,43.5,440.3,43.5z M332.5,180c-34,0-61.5,27.5-61.5,61.5s27.5,61.5,61.5,61.5
	s61.5-27.5,61.5-61.5S366.5,180,332.5,180z M311.4,225.8c-3.4,3.1-5.7,7.1-6.4,11.6c-0.4,2.4-0.4,4.8,0.1,7.2c0.6,3-1.4,6-4.4,6.6
	c-0.4,0.1-0.7,0.1-1.1,0.1c-2.6,0-5-1.9-5.5-4.5c-0.7-3.7-0.8-7.4-0.1-11.2c1.2-7,4.8-13.4,10.1-18.1c2.3-2,5.8-1.8,7.9,0.5
	C313.9,220.2,313.7,223.7,311.4,225.8z M485.4,118.6H4.6c-2.6,0-4.6,2.1-4.6,4.6v192.3c0,27.4,22.3,49.7,49.7,49.7h390.6
	c27.4,0,49.7-22.3,49.7-49.7V123.2C490,120.6,487.9,118.6,485.4,118.6z M118.6,183.3c-9.5,0-17.1-7.7-17.1-17.1
	c0-9.5,7.7-17.1,17.1-17.1s17.1,7.7,17.1,17.1S128,183.3,118.6,183.3z M332.5,334c-51.1,0-92.5-41.4-92.5-92.5s41.4-92.5,92.5-92.5
	s92.5,41.4,92.5,92.5S383.6,334,332.5,334z"/>
</svg>
