<?xml version="1.0" encoding="utf-8"?>
<!-- Generator: Adobe Illustrator 23.0.3, SVG Export Plug-In . SVG Version: 6.00 Build 0)  -->
<svg version="1.1" id="Layer_1" xmlns="http://www.w3.org/2000/svg" xmlns:xlink="http://www.w3.org/1999/xlink" x="0px" y="0px"
	 viewBox="0 0 63 75.6" style="enable-background:new 0 0 63 75.6;" xml:space="preserve">
<style type="text/css">
	.st0{fill:#F3D55B;}
	.st1{fill:#F0C419;}
	.st2{fill:#F29C1F;}
	.st3{fill:#E57E25;}
	.st4{fill:#FF5364;}
	.st5{fill:#FB7B76;}
	.st6{fill:#804537;}
	.st7{fill:#955BA5;}
	.st8{fill:#24AE5F;}
</style>
<path class="st0" d="M60.1,49.3c-0.3,2.1-0.9,4.2-1.7,6.3H3.3c-0.8-2-1.4-4.1-1.7-6.3H60.1z"/>
<path class="st1" d="M58.4,55.6c-0.9,2.2-2,4.3-3.4,6.3H6.7c-1.4-1.9-2.5-4-3.4-6.3H58.4z"/>
<path class="st2" d="M55,61.8c-1.7,2.4-3.7,4.5-6,6.3H12.7c-2.3-1.8-4.3-3.9-6-6.3H55z"/>
<path class="st3" d="M49.1,68.1c-10.7,8.4-25.7,8.4-36.4,0H49.1z"/>
<path class="st4" d="M60.5,44.8c0,1.5-0.1,3-0.3,4.5H1.7c-1.7-11,2.9-22,11.9-28.5s20.9-7.4,30.8-2.4C54.3,23.5,60.5,33.7,60.5,44.8
	z"/>
<path class="st5" d="M30.9,75.6c-17,0-30.8-13.7-30.8-30.7c0-5.9,1.7-11.8,5-16.7c0.2-0.3,0.4-0.5,0.5-0.8l0.2-0.3
	c0.3-0.4,0.7-0.6,1.1-0.5c0.4,0,0.8,0.3,1,0.7c0.2,0.4,0.2,0.9-0.1,1.3l-0.2,0.3c-0.2,0.2-0.3,0.5-0.5,0.7c-3,4.6-4.6,9.9-4.6,15.4
	c0,15.6,12.7,28.3,28.3,28.3S59.1,60.6,59.1,45c0-3-0.5-5.9-1.4-8.7c-0.2-0.7,0.1-1.4,0.8-1.6c0.7-0.2,1.4,0.1,1.6,0.8
	c1,3.1,1.5,6.3,1.5,9.5C61.6,61.9,47.9,75.6,30.9,75.6z"/>
<path class="st6" d="M23.9,50.4L23.9,50.4c-0.4,0-0.7-0.2-1-0.4c-0.2-0.3-0.3-0.6-0.3-0.9c0-0.1,1.2-13.6-2.4-22
	c-1.2-3-2.3-5.2-3.2-7c-1.9-3.8-3.1-6.2-3.1-9.9c0-0.7,0.6-1.3,1.3-1.3s1.3,0.6,1.3,1.3c0,3.1,1,5.1,2.9,8.8
	c0.9,1.8,2.1,4.1,3.3,7.1c3.9,9,2.7,22.7,2.6,23.3C25.1,50,24.6,50.4,23.9,50.4z"/>
<path class="st7" d="M48.6,49.2c0.3-0.8,0.5-1.7,0.5-2.5c0-3.5-2.8-6.3-6.3-6.3s-6.3,2.8-6.3,6.3c0,0.9,0.2,1.7,0.5,2.5"/>
<path class="st8" d="M29.8,7.8c0.5,0.5,0.6,1.2,0.1,1.8c-0.4,0.5-1.2,0.6-1.7,0.2c0,0-3.9-3.3-7.5-2.6c-1,0.2-1.9,0.7-2.7,1.4
	c6,0.1,9.6,5.5,10.8,8.7c0.1,0.4,0.1,0.8-0.1,1.2c-0.2,0.3-0.6,0.5-1,0.5c-0.5,0-1-0.3-1.2-0.8c-0.1-0.4-3.5-8.8-10.9-6.8
	c-0.2,0.1-0.3,0.1-0.5,0.1c-1.5,0.4-7.7,2.3-8.7,11.4C6.2,23.5,5.7,24,5.1,24H5c-0.7-0.1-1.2-0.7-1.1-1.4c0.9-7.6,4.9-11,7.9-12.6
	c-1.5-0.5-2.9-0.6-4.1-0.1c-3,1.3-4,5.6-4,5.6c-0.1,0.6-0.6,1-1.2,1c-0.1,0-0.2,0-0.3,0c-0.7-0.2-1.1-0.8-1-1.5
	c0.1-0.2,1.3-5.6,5.5-7.4c0.8-0.4,1.7-0.5,2.6-0.5C5.6,5.9,2,7.4,1.8,7.5C1.4,7.7,0.9,7.6,0.5,7.4C0.2,7.1,0,6.7,0,6.2
	c0.1-0.5,0.3-0.8,0.8-1c2.5-1,7.1-1.8,11.2,0.4c-2.2-2.9-5.5-3-5.7-3C5.6,2.6,5,2,5,1.3S5.6,0,6.3,0c3.4,0.2,6.4,2,8.3,4.8
	c1-2.2,2.8-3.9,5.1-4.7c0.6-0.3,1.4,0.1,1.6,0.7c0.2,0.6-0.1,1.4-0.7,1.6c-1.8,0.7-3.2,2.1-3.9,3.8c1-0.7,2.2-1.3,3.5-1.6
	C25,3.8,29.6,7.6,29.8,7.8z M62.6,20.2c-2-1.8-6.2-4.2-10.8-3.3c3.1-2.1,6.2-1.1,6.4-1c0.7,0.2,1.4-0.1,1.6-0.8s-0.1-1.4-0.8-1.6
	c-3.3-1-6.7-0.3-9.4,1.8c-0.2-2.4-1.4-4.6-3.3-6.1c-0.4-0.3-0.9-0.4-1.3-0.3c-0.4,0.2-0.7,0.5-0.8,1s0.1,0.9,0.5,1.2
	c1.6,1.3,2.5,3.2,2.5,5.2c-0.7-1.1-1.7-2.1-2.9-2.8c-4.3-2.4-9.9-0.2-10.1-0.1c-0.6,0.3-0.8,1-0.6,1.6c0.3,0.6,1,0.9,1.6,0.7
	c0.1-0.1,4.7-1.9,8-0.1c0.9,0.6,1.6,1.3,2.1,2.1c-5.7-1.9-10.9,2-13.1,4.8c-0.3,0.3-0.4,0.9-0.2,1.3c0.2,0.4,0.6,0.7,1.1,0.7
	c0.3,0,0.7-0.2,1-0.4c0.3-0.3,6.2-7.3,12.7-2.8c0.3,0.2,7,3.8,4.8,13.8c-0.1,0.7,0.3,1.3,1,1.5c0.1,0,0.2,0,0.3,0
	c0.6,0,1.1-0.4,1.2-1c1.7-7.7-1.2-12.3-3.6-14.7c1.7,0,3,0.4,4,1.3c2.4,2.1,2,6.6,2,6.6c-0.1,0.7,0.4,1.3,1.2,1.4
	c0.6,0,1.2-0.4,1.3-1.1c0-0.3,0.6-5.8-2.8-8.8c-0.5-0.4-1-0.8-1.6-1c3.5,0.3,6.1,2.6,6.3,2.7c0.2,0.2,0.5,0.3,0.8,0.3
	c0.6,0,1-0.3,1.2-0.7C63.1,21.1,63,20.5,62.6,20.2z"/>
<path class="st6" d="M28,50.4c-0.4,0-0.8-0.2-1-0.5s-0.3-0.8-0.2-1.1c1.6-4.9,4.4-11.6,8.5-16c2.2-2.4,4-4.2,5.5-5.6
	c2.9-2.9,4.5-4.5,5.5-7.4c0.1-0.4,0.5-0.7,0.9-0.8c0.4-0.1,0.9,0.1,1.2,0.4s0.4,0.8,0.2,1.2c-1.2,3.5-3.2,5.4-6.2,8.4
	c-1.4,1.4-3.2,3.2-5.4,5.5c-3.7,4.1-6.4,10.5-7.9,15.2C29,50.1,28.5,50.4,28,50.4z"/>
</svg>
