<?xml version="1.0" encoding="utf-8"?>
<!-- Generator: Adobe Illustrator 23.0.3, SVG Export Plug-In . SVG Version: 6.00 Build 0)  -->
<svg version="1.1" id="Layer_1" xmlns="http://www.w3.org/2000/svg" xmlns:xlink="http://www.w3.org/1999/xlink" x="0px" y="0px"
	 viewBox="0 0 72.8 47.4" style="enable-background:new 0 0 72.8 47.4;" xml:space="preserve">
<style type="text/css">
	.st0{fill:#3E50B4;}
</style>
<path class="st0" d="M72,26.4c-1.6-4.5-6.5-7.1-10.8-8.5c-5-1.7-10.5-1.9-15.7-1.7c-4.8,0.1-9.6,0.3-14,2.3c1.1-1.9,2.2-3.8,2.8-5.9
	C35.6,8.4,34,4,30.2,1.7c-3.7-2.2-8.6-2.2-12.5-0.6c-3.4,1.4-5.1,3.8-5.8,7.1l0,0c-1.9,1.1-4,1.5-6.2,1.6c-1.4,0-2.8-0.2-4.2,0
	c-1.8,0.2-1.9,1.7-0.9,3c1.3,1.9,3.7,3.6,5.8,4.5s5.6,1.4,7.8,0.6l0,0c0.1,0.2,0.3,0.3,0.5,0.5c1.4,1.4,3.9,2.5,4.2,4.6
	s-0.3,4.4-0.7,6.5c-0.7,4.1-0.4,7.9,2.3,11.3c1.8,2.2,4.3,3.4,6.9,4.3c7.1,2.3,15,2.5,22.3,2.2c7.1-0.4,15.7-1.5,20.4-7.7
	C72.9,35.7,73.5,30.7,72,26.4z M7.5,16.5c-2-0.6-4.2-2.2-5.6-3.8c-0.8-0.9-1.3-1.6,0-1.9c1-0.2,2.2,0,3.2,0c2.3,0,4.4-0.4,6.5-1.4
	c-0.4,2.8,0.2,5.3,1.8,7.4C11.6,17.4,9.2,17,7.5,16.5z M66.1,41.6c-6.5,4.3-14.7,4.6-22.2,4.5C40,46,36,45.7,32.2,45
	c-3-0.6-6.1-1.3-8.7-3c-3.9-2.6-5-7.4-4.3-11.8c0.4-2.5,1.9-6.8,0.2-9.1c-1.2-1.7-3.3-2.7-4.6-4.3c-1.5-1.8-2.1-3.7-2-6
	c0.1-1.9,0.5-4.1,1.5-5.7c1.3-2,3.8-3.1,6.1-3.7c5.2-1.3,12.3,0.9,13.4,6.8c0.6,3.1-1.1,6.1-2.6,8.7c-0.5,0.9-0.9,1.7-1.4,2.6v0.1
	c-0.5,1-0.9,2.1-1.2,3.2c-0.4,1.4-0.8,3.2-0.4,4.6c0.5,1.7,2.1,3,3.6,3.8c3.6,2,8.5,2.2,12.5,2.1c2.3,0,4.6-0.3,6.9-0.7
	c2.2-0.4,5.8-0.6,7.6-2.3c0.6-0.6,0.7-1.4,0.3-2.2c-1-1.7-3.7-1.7-5.4-1.9c-5.4-0.7-11-0.9-16.4,0.1c-2,0.4-5.4,1.2-5.7,3.6
	c-1.6-1-2.6-2.4-2.5-4.4s0.8-3.8,1.6-5.5c4.8-2.7,10.1-2.8,15.4-2.9c4.8-0.1,9.7,0.1,14.3,1.5c4.9,1.5,9.9,4.3,11.1,9.7
	C72.5,33.5,70.4,38.7,66.1,41.6z M43.5,26.9c2.6-0.1,5.3,0,7.9,0.2c1.6,0.2,3.3,0.3,4.8,0.6c0.6,0.2,1.4,0.3,1.7,0.9
	c0.5,1-1.1,1.5-1.8,1.7c-4.5,1.7-10,2-14.8,1.8c-2.2-0.1-6-0.4-8.8-1.7C32,27,41.6,27,43.5,26.9z M23.4,6.7c-1-1.9-3.9-2.6-5.7-1.6
	c-2.1,1.1-2.4,3.8-1.1,5.6C19.3,14.6,25.5,10.9,23.4,6.7z M18.2,11.2c0.4,0.1,0.8,0.2,1.3,0c0.9-0.4,1.6-1.5,1.6-2.5
	c-0.1-1-0.9-1.9-1.9-2.2s-1.8,0.2-2.4,1C17,6.8,17.4,6.2,18,5.8c1.5-0.9,4.1-0.3,4.8,1.3C23.9,10.1,20.4,12.6,18.2,11.2z M18.5,7.8
	C18.6,7.8,18.6,7.8,18.5,7.8c0.3-0.3,0.6-0.3,0.8-0.1s0.2,0.6,0,0.8c0,0,0,0-0.1,0.1c-0.2,0.2-0.6,0.2-0.8,0
	C18.3,8.4,18.3,8,18.5,7.8z M62.5,33.5c-1,1.4-1.9,2.9-2.5,4.5c-0.2,0.5,0.6,0.7,0.8,0.2c0.6-1.5,1.5-3,2.4-4.3
	C63.6,33.5,62.9,33.1,62.5,33.5z M63.4,36.6c-0.5,0.7-0.9,1.3-1.4,2c-0.3,0.4,0.4,0.8,0.7,0.4c0.5-0.7,0.9-1.3,1.4-2
	C64.4,36.6,63.7,36.2,63.4,36.6z"/>
</svg>
