<svg 
 xmlns="http://www.w3.org/2000/svg"
 xmlns:xlink="http://www.w3.org/1999/xlink"
 width="1627px" height="660px">
<path fill-rule="evenodd"  fill="rgb(60, 33, 33)"
 d="M1616.320,602.870 C1610.492,611.056 1602.844,613.057 1591.918,613.784 C1580.991,614.512 1579.732,603.650 1577.713,594.138 C1575.164,582.133 1559.978,589.027 1561.811,595.642 C1564.635,605.829 1561.648,619.926 1548.940,608.326 C1543.659,603.507 1536.192,603.415 1537.103,613.056 C1538.013,622.697 1534.190,631.428 1527.451,626.881 C1520.713,622.333 1515.432,624.698 1514.886,628.518 C1514.340,632.338 1521.077,653.803 1507.237,653.984 C1493.397,654.167 1499.953,637.613 1500.864,630.337 C1501.773,623.061 1497.586,616.876 1490.119,614.875 C1482.652,612.874 1481.014,609.418 1479.557,603.233 C1478.100,597.048 1474.822,595.229 1469.541,600.868 C1464.260,606.508 1459.525,604.689 1455.701,604.871 C1451.876,605.052 1448.963,606.144 1449.145,610.509 C1449.327,614.875 1451.092,626.130 1442.926,624.122 C1438.331,622.993 1438.218,620.515 1438.036,616.331 C1437.847,611.989 1434.242,611.984 1432.209,616.512 C1428.973,623.718 1428.021,635.249 1418.551,633.793 C1418.551,633.793 1410.994,632.975 1413.361,619.059 C1414.644,611.519 1406.696,611.395 1406.076,616.431 C1403.876,634.286 1407.176,646.648 1399.751,647.747 C1395.651,648.353 1391.564,639.203 1393.426,622.475 C1394.190,615.608 1393.007,606.777 1385.176,610.388 C1374.451,615.333 1374.209,604.945 1372.250,600.498 C1369.225,593.631 1362.963,593.001 1362.007,602.142 C1361.051,611.283 1358.202,609.797 1353.012,612.935 C1347.822,616.072 1341.851,618.947 1343.217,626.041 C1344.583,633.135 1345.440,640.657 1336.336,639.587 C1330.035,638.847 1326.842,632.139 1329.149,624.813 C1332.973,612.671 1317.642,613.965 1318.177,622.189 C1320.030,650.692 1307.297,653.324 1303.724,644.399 C1300.018,635.145 1313.384,601.869 1304.507,602.005 C1295.629,602.142 1290.712,608.691 1285.932,595.866 C1282.434,586.483 1271.748,585.622 1267.766,594.093 C1260.391,609.782 1250.352,614.536 1245.367,598.595 C1242.073,588.060 1242.943,582.247 1235.535,580.729 C1230.209,579.638 1222.149,589.318 1222.149,589.318 C1222.149,589.318 1218.051,592.864 1214.227,602.870 C1210.640,612.254 1206.032,618.240 1189.641,616.604 C1178.745,615.515 1177.639,603.651 1175.619,594.139 C1173.070,582.133 1157.884,589.027 1159.718,595.642 C1162.541,605.829 1159.554,619.927 1146.846,608.326 C1141.565,603.507 1134.098,603.415 1135.009,613.056 C1135.920,622.697 1132.096,631.428 1125.358,626.881 C1118.619,622.333 1113.339,624.698 1112.792,628.518 C1112.246,632.338 1118.983,653.803 1105.143,653.984 C1091.303,654.166 1097.859,637.613 1098.770,630.337 C1099.680,623.061 1095.492,616.876 1088.026,614.875 C1080.559,612.874 1078.920,609.419 1077.463,603.233 C1076.006,597.048 1072.729,595.229 1067.447,600.868 C1062.166,606.508 1057.431,604.689 1053.607,604.871 C1049.783,605.052 1046.870,606.144 1047.052,610.509 C1047.233,614.875 1048.998,626.130 1040.833,624.122 C1036.238,622.993 1036.125,620.515 1035.943,616.331 C1035.754,611.990 1032.149,611.985 1030.115,616.512 C1026.880,623.718 1025.928,635.249 1016.458,633.793 C1016.458,633.793 1008.900,632.975 1011.268,619.059 C1012.550,611.519 1004.603,611.395 1003.983,616.431 C1001.782,634.286 1005.083,646.648 997.657,647.747 C993.558,648.353 989.470,639.203 991.332,622.475 C992.096,615.608 990.913,606.777 983.082,610.388 C972.357,615.333 972.115,604.945 970.157,600.498 C967.132,593.631 960.869,593.001 959.913,602.142 C958.958,611.283 956.109,609.797 950.919,612.935 C945.729,616.072 937.128,620.020 941.123,626.041 C945.997,633.386 946.786,642.669 937.681,641.600 C931.380,640.859 928.006,632.640 927.056,624.813 C925.522,612.177 912.115,614.965 916.084,622.189 C928.765,645.270 912.389,654.457 905.884,645.070 C900.205,636.875 911.291,601.869 902.413,602.005 C893.535,602.142 888.618,608.691 883.838,595.866 C880.340,586.483 869.655,585.622 865.673,594.093 C858.297,609.782 848.258,614.536 843.274,598.595 C839.979,588.060 840.849,582.247 833.441,580.729 C828.116,579.638 820.055,589.318 820.055,589.318 C820.055,589.318 816.820,593.887 813.657,594.346 C813.649,594.347 813.640,594.348 813.632,594.349 C813.565,594.358 813.498,594.366 813.430,594.372 C813.386,594.376 813.341,594.378 813.296,594.380 C813.251,594.382 813.205,594.383 813.160,594.383 C813.115,594.383 813.070,594.382 813.025,594.380 C812.980,594.378 812.935,594.376 812.890,594.372 C812.823,594.366 812.756,594.358 812.688,594.349 C812.680,594.348 812.672,594.347 812.664,594.346 C809.501,593.887 806.266,589.318 806.266,589.318 C806.266,589.318 798.205,579.638 792.879,580.729 C785.472,582.247 786.342,588.060 783.047,598.595 C778.063,614.536 768.023,609.782 760.648,594.093 C756.666,585.622 745.980,586.483 742.482,595.866 C737.703,608.691 732.786,602.142 723.908,602.005 C715.030,601.869 728.396,635.145 724.691,644.399 C721.117,653.324 708.384,650.692 710.237,622.189 C710.772,613.965 695.441,612.671 699.265,624.813 C701.572,632.139 702.784,639.556 696.483,640.297 C687.378,641.366 683.832,633.135 685.197,626.041 C686.563,618.947 680.592,616.072 675.401,612.935 C670.212,609.797 667.363,611.283 666.407,602.142 C665.451,593.001 659.189,593.631 656.164,600.498 C654.205,604.945 653.963,615.333 643.239,610.388 C635.408,606.777 634.225,615.608 634.988,622.475 C636.850,639.203 632.763,648.353 628.663,647.747 C621.238,646.648 624.539,634.286 622.338,616.431 C621.718,611.395 613.770,611.519 615.053,619.059 C617.420,632.975 609.863,633.793 609.863,633.793 C600.393,635.249 599.441,623.718 596.205,616.512 C594.172,611.985 590.567,611.990 590.378,616.331 C590.196,620.515 590.083,622.993 585.488,624.122 C577.323,626.130 579.087,614.875 579.269,610.509 C579.450,606.144 576.538,605.052 572.713,604.871 C568.890,604.689 564.154,606.508 558.873,600.868 C553.592,595.229 550.314,597.048 548.857,603.233 C547.400,609.419 545.762,612.874 538.295,614.875 C530.829,616.876 526.641,623.061 527.551,630.337 C528.461,637.613 535.017,654.166 521.178,653.984 C507.338,653.803 514.075,632.338 513.529,628.518 C512.982,624.698 507.701,622.333 500.963,626.881 C494.225,631.428 490.401,622.697 491.311,613.056 C492.223,603.415 484.756,603.507 479.474,608.326 C466.766,619.927 463.780,605.829 466.603,595.642 C468.437,589.027 453.250,582.133 450.701,594.139 C448.682,603.651 447.575,615.515 436.679,616.604 C420.289,618.240 415.681,612.254 412.094,602.870 C408.270,592.864 404.172,589.318 404.172,589.318 C404.172,589.318 396.112,579.638 390.785,580.729 C383.378,582.247 384.248,588.060 380.954,598.595 C375.969,614.536 365.930,609.782 358.555,594.093 C354.572,585.622 343.887,586.483 340.389,595.866 C335.609,608.691 330.692,602.142 321.814,602.005 C312.936,601.869 326.303,635.145 322.597,644.399 C319.023,653.324 306.291,650.692 308.144,622.189 C308.678,613.965 293.347,612.671 297.172,624.813 C299.479,632.139 296.285,638.847 289.985,639.587 C280.880,640.657 281.738,633.135 283.104,626.041 C284.470,618.947 278.498,616.072 273.308,612.935 C268.118,609.797 265.270,611.283 264.314,602.142 C263.358,593.001 257.095,593.631 254.070,600.498 C252.112,604.945 251.870,615.333 241.145,610.388 C233.314,606.777 232.131,615.608 232.895,622.475 C234.757,639.203 230.670,648.353 226.570,647.747 C219.145,646.648 222.445,634.286 220.245,616.431 C219.624,611.395 211.677,611.519 212.960,619.059 C215.327,632.975 207.770,633.793 207.770,633.793 C198.300,635.249 197.348,623.718 194.112,616.512 C192.079,611.984 188.473,611.989 188.284,616.331 C188.102,620.515 187.990,622.993 183.394,624.122 C175.229,626.130 176.993,614.875 177.176,610.509 C177.358,606.144 174.444,605.052 170.620,604.871 C166.796,604.689 162.061,606.508 156.780,600.868 C151.498,595.229 148.221,597.048 146.764,603.233 C145.307,609.418 143.668,612.874 136.202,614.875 C128.735,616.876 124.547,623.061 125.457,630.337 C126.368,637.613 132.924,654.167 119.084,653.984 C105.244,653.803 111.981,632.338 111.435,628.518 C110.888,624.698 105.608,622.333 98.869,626.881 C92.131,631.428 88.307,622.697 89.218,613.056 C90.129,603.415 82.662,603.507 77.381,608.326 C64.673,619.926 61.686,605.829 64.509,595.642 C66.343,589.027 51.157,582.133 48.608,594.138 C46.588,603.650 45.330,614.512 34.403,613.784 C23.477,613.057 15.829,611.056 10.001,602.870 C4.173,594.684 5.630,583.951 5.630,583.951 L5.630,5.172 L407.724,5.172 L416.465,5.172 L813.160,5.172 L1209.856,5.172 L1218.597,5.172 L1620.690,5.172 L1620.690,583.951 C1620.690,583.951 1622.147,594.684 1616.320,602.870 Z"/>
</svg>