<?xml version="1.0" encoding="utf-8"?>
<!-- Generator: Adobe Illustrator 23.0.3, SVG Export Plug-In . SVG Version: 6.00 Build 0)  -->
<svg version="1.1" id="Capa_1" xmlns="http://www.w3.org/2000/svg" xmlns:xlink="http://www.w3.org/1999/xlink" x="0px" y="0px"
	 viewBox="0 0 200 200" style="enable-background:new 0 0 200 200;" xml:space="preserve">
<style type="text/css">
	.st0{fill:#EB5C5C;}
	.st1{opacity:0.2;fill:#525765;enable-background:new    ;}
	.st2{fill:#FFD599;}
	.st3{opacity:0.1;enable-background:new    ;}
</style>
<g>
	<rect class="st0" width="200" height="200"/>
	<g>
		<g>
			<g>
				<ellipse class="st1" cx="99.6" cy="135.9" rx="26.2" ry="9.9"/>
				<g>
					<path class="st2" d="M99.6,37.5C80.5,37.5,65,53,65,72.1c0,19.1,34.6,63.8,34.6,63.8s34.6-44.7,34.6-63.8
						C134.2,53,118.7,37.5,99.6,37.5z M99.6,90.5c-10.1,0-18.4-8.2-18.4-18.4s8.2-18.4,18.4-18.4c10.2,0,18.4,8.2,18.4,18.4
						S109.8,90.5,99.6,90.5z"/>
				</g>
			</g>
			<path class="st3" d="M106.6,126.4c10.1-14.2,27.6-40.7,27.6-54.3c0-19.1-15.5-34.6-34.6-34.6c-0.1,0-0.2,0-0.3,0v16.2
				c0.1,0,0.2,0,0.3,0c10.2,0,18.4,8.2,18.4,18.4s-8.2,18.4-18.4,18.4c-0.1,0-0.2,0-0.3,0v55.3c0.1,0,0.2,0,0.3,0
				c14.5,0,26.2-4.4,26.2-9.9C125.8,131.3,117.7,127.5,106.6,126.4z"/>
		</g>
	</g>
</g>
</svg>
