<?xml version="1.0" encoding="utf-8"?>
<!-- Generator: Adobe Illustrator 23.0.3, SVG Export Plug-In . SVG Version: 6.00 Build 0)  -->
<svg version="1.1" id="Layer_1" xmlns="http://www.w3.org/2000/svg" xmlns:xlink="http://www.w3.org/1999/xlink" x="0px" y="0px"
	 viewBox="0 0 390.3 390.1" style="enable-background:new 0 0 390.3 390.1;" xml:space="preserve">
<style type="text/css">
	.st0{fill:#56ACE0;}
	.st1{fill:#FFC10D;}
	.st2{fill:#194F82;}
</style>
<path class="st0" d="M87.2,196.1l100.3,76.4l159.4-159.4c4.3-4.3,4.3-10.9,0-15.2l-73.2-73.1c-4.3-4.3-11.4-4.3-15.2,0L87.2,196.1z"
	/>
<path class="st1" d="M368.5,173.3v184.2l-120.9-92.1L368.5,173.3z M21.6,234.5h33.6c5.9,0,10.9,4.8,10.9,10.9
	c0,5.9-4.8,10.9-10.9,10.9H21.6v21.6h11.9c5.9,0,10.9,4.8,10.9,10.9c0,5.9-4.8,10.8-10.8,10.8h-12v58l120.9-92.1L21.6,173.3V234.5z"
	/>
<path class="st2" d="M149,210.1l5.9-5.9l-3.2-7.6l10.3-10.3l7.6,3.2l5.9-5.9l-36.3-14.1l-5.4,5.4L149,210.1z M155,183.1l-5.9,6.5
	l-4.3-10.3L155,183.1z M178.7,180.3L153.4,155l5.8-5.8l25.3,25.3L178.7,180.3z M196.2,162.4l-8.1-8.1l3.8-3.8l13.6,2.7l7-7
	l-15.2-2.7c2.2-4.3,1.1-8.7-3.2-12.5c-5.4-5.4-11.4-5.4-19.5,2.7l-9.2,9.2l25,25L196.2,162.4z M183.7,150l-7.6-7.6l4.3-4.3
	c4.8-4.8,7-2.7,8.7-1.1c1.6,1.6,3.8,3.8-1.1,8.7L183.7,150z M164.8,227.5l58-58c4.3-4.3,10.9-4.3,15.2,0s4.3,10.9,0,15.2l-58,58
	c-3.8,4.3-10.9,4.3-15.2,0C160.4,238.3,160.4,231.8,164.8,227.5z M234.6,121.3c-3.3-5.4-1.6-12,3.2-15.2l25-15.7V55.6
	c0-6,4.9-10.9,10.9-10.9s10.9,4.9,10.9,10.9v93.3c0,4.8-2.7,8.7-7,10.3c-7,2.7-14.6,5.4-16.8,5.4c-4.3,0-8.7-2.7-10.3-7
	c-2.1-5.9,1.1-11.9,6.5-14.1l5.9-2.2v-25.5l-13.6,8.7C243.3,128.3,237.4,125.6,234.6,121.3z M385.9,142.4l-21.7-16.8
	c10.3-13,9.8-31.4-2.2-43.4L288.8,9.6c-12.5-12.5-33-12.5-46.1,0l-13.6,13.6L201.5,2c-3.8-2.7-9.2-2.7-13,0L4.3,142.4
	c-2.7,2.2-4.3,5.4-4.3,8.7v228.1c0,5.9,4.8,10.9,10.9,10.9h368.5c5.9,0,10.9-4.8,10.9-10.9V151.1
	C390.2,147.8,388.6,144.5,385.9,142.4z M258.5,24.8c3.8-4.4,10.9-4.4,15.2,0L346.9,98c4.3,4.3,4.3,10.9,0,15.2L187.5,272.5
	L87.3,196.1L258.5,24.8z M361.5,151.6l-93.8,71.6l81.3-81.3L361.5,151.6z M195.1,24.2L214,38.8L69.9,182.5l-41.2-31.4L195.1,24.2z
	 M21.7,299.6h11.9c5.9,0,10.9-4.8,10.9-10.9c0-5.9-4.8-10.8-10.8-10.8h-12v-21.7h33.6c5.9,0,10.9-4.8,10.9-10.9
	c0-5.9-4.8-10.9-10.9-10.9H21.7v-61.2l120.9,92.1L21.7,357.5V299.6z M42.8,368.4L160.4,279l28.2,21.7c4.3,2.7,8.7,2.7,13,0
	l28.2-21.7l117.1,89.4H42.8z M368.5,357.5l-120.9-92.1l120.9-92.1V357.5z"/>
</svg>
