<?xml version="1.0" encoding="utf-8"?>
<!-- Generator: Adobe Illustrator 23.0.3, SVG Export Plug-In . SVG Version: 6.00 Build 0)  -->
<svg version="1.1" id="Layer_1" xmlns="http://www.w3.org/2000/svg" xmlns:xlink="http://www.w3.org/1999/xlink" x="0px" y="0px"
	 viewBox="0 0 512 437.2" style="enable-background:new 0 0 512 437.2;" xml:space="preserve">
<style type="text/css">
	.st0{fill:#DA4453;}
	.st1{opacity:0.1;fill:#080808;enable-background:new    ;}
	.st2{fill:#ED5564;}
	.st3{fill:#F5F7FA;}
	.st4{fill:#FFCE54;}
	.st5{opacity:0.2;enable-background:new    ;}
</style>
<path class="st0" d="M93.1,437.2L93.1,437.2c-11.4,0-22-6.1-27.7-15.9L34,367.5c-1-1.6-1.5-3.5-1.5-5.4V235.5H21.2
	c-4.8,0-9-3.2-10.3-7.9c-1.3-4.7,0.8-9.6,4.9-12l362-211.2c4.9-2.9,10.5-4.4,16.1-4.4c11.3,0,22,6.1,27.7,15.9l86,147.4
	c8.9,15.2,3.7,34.9-11.5,43.8L109.2,432.8C104.3,435.7,98.7,437.2,93.1,437.2z"/>
<path class="st1" d="M480,181.2H74.8l-59,34.4c-4.2,2.4-6.2,7.3-4.9,12c1.3,4.6,5.5,7.9,10.3,7.9h11.4v126.6c0,1.9,0.5,3.8,1.5,5.4
	l28.2,48.4h76l357.9-208.8c4.7-2.7,8.4-6.5,11-10.8C501.5,187.2,491.4,181.2,480,181.2z"/>
<path class="st2" d="M480,202.5H32c-17.6,0-32,14.4-32,32v170.7c0,17.6,14.4,32,32,32h448c17.7,0,32-14.4,32-32V234.5
	C512,216.9,497.6,202.5,480,202.5z"/>
<path class="st3" d="M167,262.6c-4.2-4.2-10.9-4.2-15.1,0l-26.1,26.1L56,274.8c-5.8-1.2-11.4,2.6-12.6,8.4
	c-1.1,5.8,2.6,11.4,8.4,12.5l55.9,11.2l-28,28H53.9c-5.9,0-10.7,4.8-10.7,10.7c0,5.9,4.8,10.7,10.7,10.7h19.5v19.5
	c0,5.9,4.8,10.7,10.7,10.7s10.7-4.8,10.7-10.7v-25.7l28-28L134,378c1,5.1,5.5,8.6,10.4,8.6c0.7,0,1.4-0.1,2.1-0.2
	c5.8-1.2,9.5-6.8,8.4-12.5l-14-69.8L167,278C171.2,273.6,171.2,266.8,167,262.6z M121.8,292.8L121.8,292.8
	C121.7,292.8,121.7,292.8,121.8,292.8z"/>
<path class="st4" d="M451.4,172.7c-1.7,1-3.5,1.5-5.4,1.5c-3.7,0-7.2-1.9-9.2-5.3l-54.3-93.1c-3-5.1-1.3-11.6,3.8-14.6
	s11.6-1.3,14.6,3.8l54.3,93.1C458.2,163.2,456.5,169.7,451.4,172.7z M458.6,255.8c-5.9,0-10.7,4.8-10.7,10.7v107.8
	c0,5.9,4.8,10.7,10.7,10.7c5.9,0,10.7-4.8,10.7-10.7V266.5C469.3,260.6,464.5,255.8,458.6,255.8z"/>
<path class="st5" d="M339.1,80c1.5-5.7,7.3-9.1,13-7.6s9.1,7.3,7.6,13s-7.3,9.1-13,7.6C341.1,91.5,337.6,85.7,339.1,80z
	 M373.7,109.2c-5.7-1.5-11.5,1.9-13,7.6c-1.5,5.7,1.9,11.5,7.6,13s11.5-1.9,13-7.6C382.8,116.6,379.4,110.7,373.7,109.2z
	 M395.2,146.1c-5.7-1.5-11.5,1.9-13,7.6s1.9,11.5,7.6,13s11.5-1.9,13-7.6C404.3,153.4,400.9,147.6,395.2,146.1z M411.2,203.6
	c5.7,1.5,11.5-1.9,13-7.6s-1.9-11.5-7.6-13s-11.5,1.9-13,7.6S405.5,202.1,411.2,203.6z M408.5,248.3c-4.2,4.2-4.2,10.9,0,15.1
	s10.9,4.2,15.1,0s4.2-10.9,0-15.1S412.6,244.1,408.5,248.3z M408.5,291c-4.2,4.2-4.2,10.9,0,15.1s10.9,4.2,15.1,0s4.2-10.9,0-15.1
	C419.4,286.8,412.6,286.8,408.5,291z M408.5,333.6c-4.2,4.2-4.2,10.9,0,15.1s10.9,4.2,15.1,0s4.2-10.9,0-15.1
	C419.4,329.5,412.6,329.5,408.5,333.6z M408.5,376.3c-4.2,4.2-4.2,10.9,0,15.1s10.9,4.2,15.1,0s4.2-10.9,0-15.1
	S412.6,372.1,408.5,376.3z M362.6,266.5H213.3c-5.9,0-10.7,4.8-10.7,10.7c0,5.9,4.8,10.7,10.7,10.7h149.3c5.9,0,10.7-4.8,10.7-10.7
	C373.3,271.3,368.5,266.5,362.6,266.5z M362.6,309.2H213.3c-5.9,0-10.7,4.8-10.7,10.7c0,5.9,4.8,10.7,10.7,10.7h149.3
	c5.9,0,10.7-4.8,10.7-10.7C373.3,314,368.5,309.2,362.6,309.2z M298.6,351.8h-85.3c-5.9,0-10.7,4.8-10.7,10.7
	c0,5.9,4.8,10.7,10.7,10.7h85.3c5.9,0,10.7-4.8,10.7-10.7S304.6,351.8,298.6,351.8z"/>
</svg>
