<?xml version="1.0" encoding="utf-8"?>
<!-- Generator: Adobe Illustrator 23.0.3, SVG Export Plug-In . SVG Version: 6.00 Build 0)  -->
<svg version="1.1" id="Layer_1" xmlns="http://www.w3.org/2000/svg" xmlns:xlink="http://www.w3.org/1999/xlink" x="0px" y="0px"
	 viewBox="0 0 511.9 511.9" style="enable-background:new 0 0 511.9 511.9;" xml:space="preserve">
<style type="text/css">
	.st0{fill:#C0AB91;}
	.st1{fill:#806749;}
	.st2{fill:#DB380E;}
	.st3{fill:#A78966;}
	.st4{fill:#AF2E08;}
	.st5{fill:#D8143A;}
	.st6{fill:#B8002B;}
</style>
<path class="st0" d="M442.2,155.2h-69.8h-46.5h-46.5h-27.2h-19.3h-46.5h-46.5H69.8c-12.9,0-23.3,10.4-23.3,23.3s10.4,23.3,23.3,23.3
	h46.5v139.6c0,58.3,36,108.4,86.9,129.3c-1-4.1-1.6-8.5-1.6-12.9s0.5-8.6,1.5-12.7c1.9-7.8,5.4-14.9,10.2-21
	c0.6-0.8,1.2-1.5,1.9-2.2c0.2-0.3,0.5-0.5,0.7-0.7c0.4-0.5,0.8-0.9,1.3-1.4c0.3-0.3,0.6-0.6,0.9-0.9c0.4-0.4,0.8-0.8,1.2-1.1
	c0.3-0.3,0.7-0.6,1-0.9c0.4-0.3,0.7-0.6,1.1-1c0.4-0.3,0.8-0.6,1.2-0.9s0.7-0.6,1.1-0.8c0.4-0.3,0.9-0.6,1.3-0.9
	c0.3-0.2,0.7-0.5,1-0.7c0.5-0.3,1-0.6,1.4-0.9c0.3-0.2,0.6-0.4,0.9-0.6c0.5-0.3,1.1-0.6,1.6-0.9c0.3-0.2,0.6-0.3,0.8-0.4
	c0.6-0.3,1.2-0.6,1.8-0.9c0.2-0.1,0.4-0.2,0.7-0.3c0.7-0.3,1.3-0.6,2-0.9c0.1-0.1,0.3-0.1,0.4-0.1c5.1-2.1,10.6-3.4,16.4-3.8
	c0.5,0,1-0.1,1.5-0.1c0.8,0,1.6-0.1,2.5-0.1c17.2,0,32.6,8.1,42.6,20.7c4.8,6.1,8.3,13.2,10.2,21c1,4.1,1.5,8.3,1.5,12.7
	c0,4.5-0.5,8.8-1.6,12.9c50.9-20.8,86.9-70.9,86.9-129.3V201.7h46.5c12.9,0,23.3-10.4,23.3-23.3C465.5,165.6,455,155.2,442.2,155.2z
	"/>
<path class="st1" d="M232.7,23.3v62v69.8h-46.5v-46.5h-69.8H23.3C10.4,108.6,0,98.2,0,85.3v-62C0,10.4,10.4,0,23.3,0
	s23.3,10.4,23.3,23.3v38.8h46.5V23.3C93.1,10.4,103.5,0,116.4,0s23.3,10.4,23.3,23.3v38.8h46.5V23.3c0-12.9,10.4-23.3,23.3-23.3
	C222.3,0,232.7,10.4,232.7,23.3z M488.7,0c-12.9,0-23.3,10.4-23.3,23.3v38.8h-46.5V23.3c0-12.9-10.4-23.3-23.3-23.3
	s-23.3,10.4-23.3,23.3v38.8h-46.5V23.3c0-12.9-10.4-23.3-23.3-23.3s-23.3,10.4-23.3,23.3v62.1v69.8h46.5v-46.5l0,0h69.8h93.1
	c12.9,0,23.3-10.4,23.3-23.3v-62C512,10.4,501.6,0,488.7,0z"/>
<path class="st2" d="M253.5,403.5c-0.5,0-1,0.1-1.5,0.1l0,0C252.5,403.5,253,403.5,253.5,403.5z"/>
<path class="st3" d="M139.6,155.2H69.8c-12.9,0-23.3,10.4-23.3,23.3s10.4,23.3,23.3,23.3h46.5v139.6c0,58.3,36,108.4,86.9,129.3
	c-1-4.1-1.6-8.5-1.6-12.9s0.5-8.6,1.5-12.7c1.9-7.8,5.4-14.9,10.2-21c0.6-0.8,1.2-1.5,1.9-2.2c0.2-0.3,0.5-0.5,0.7-0.7
	c0.4-0.5,0.8-0.9,1.3-1.4c0.3-0.3,0.6-0.6,0.9-0.9c0.4-0.4,0.8-0.8,1.2-1.1c0.3-0.3,0.7-0.6,1-0.9c0.4-0.3,0.7-0.6,1.1-1
	c0.4-0.3,0.8-0.6,1.2-0.9s0.7-0.6,1.1-0.8c0.4-0.3,0.9-0.6,1.3-0.9c0.3-0.2,0.7-0.5,1-0.7c0.5-0.3,1-0.6,1.4-0.9
	c0.3-0.2,0.6-0.4,0.9-0.6c0.5-0.3,1.1-0.6,1.6-0.9c0.3-0.2,0.6-0.3,0.8-0.4c0.6-0.3,1.2-0.6,1.8-0.9c0.2-0.1,0.4-0.2,0.7-0.3
	c0.7-0.3,1.3-0.6,2-0.9c0.1-0.1,0.3-0.1,0.4-0.1c5.1-2.1,10.6-3.4,16.4-3.8V155.2h-19.3h-46.5H139.6z"/>
<g>
	<path class="st4" d="M219.3,417.7c0.3-0.3,0.7-0.6,1-0.9C220,417.1,219.6,417.4,219.3,417.7z"/>
	<path class="st4" d="M221.5,415.9c0.4-0.3,0.8-0.6,1.2-0.9C222.2,415.2,221.8,415.5,221.5,415.9z"/>
	<path class="st4" d="M217.2,419.7c0.3-0.3,0.6-0.6,0.9-0.9C217.8,419.2,217.5,419.4,217.2,419.7z"/>
	<path class="st4" d="M215.3,421.9c0.2-0.3,0.5-0.5,0.7-0.7C215.7,421.4,215.5,421.6,215.3,421.9z"/>
	<path class="st4" d="M230.8,409.6c0.6-0.3,1.2-0.6,1.8-0.9C232,409,231.4,409.3,230.8,409.6z"/>
	<path class="st4" d="M233.3,408.4c0.7-0.3,1.3-0.6,2-0.9C234.6,407.8,233.9,408.1,233.3,408.4z"/>
	<path class="st4" d="M226,412.5c0.5-0.3,1-0.6,1.4-0.9C227,411.9,226.5,412.2,226,412.5z"/>
	<path class="st4" d="M252.1,403.6c-5.8,0.4-11.3,1.7-16.4,3.8C240.8,405.3,246.3,404,252.1,403.6L252.1,403.6z"/>
	<path class="st4" d="M228.4,411c0.5-0.3,1.1-0.6,1.6-0.9C229.5,410.4,228.9,410.7,228.4,411z"/>
	<path class="st4" d="M223.7,414.1c0.4-0.3,0.9-0.6,1.3-0.9C224.6,413.5,224.1,413.8,223.7,414.1z"/>
</g>
<path class="st5" d="M308.8,445c-1.9-7.8-5.4-14.9-10.2-21c-10-12.6-25.3-20.7-42.6-20.7c-0.8,0-1.6,0-2.5,0.1c-0.5,0-1,0.1-1.5,0.1
	c-5.8,0.4-11.3,1.7-16.4,3.8c-0.1,0.1-0.3,0.1-0.4,0.1c-0.7,0.3-1.4,0.6-2,0.9c-0.2,0.1-0.4,0.2-0.7,0.3c-0.6,0.3-1.2,0.6-1.8,0.9
	c-0.3,0.1-0.6,0.3-0.8,0.4c-0.5,0.3-1.1,0.6-1.6,0.9c-0.3,0.2-0.6,0.4-0.9,0.6c-0.5,0.3-1,0.6-1.4,0.9c-0.3,0.2-0.7,0.5-1,0.7
	c-0.4,0.3-0.9,0.6-1.3,0.9c-0.4,0.3-0.7,0.5-1.1,0.8c-0.4,0.3-0.8,0.6-1.2,0.9s-0.7,0.6-1.1,1c-0.4,0.3-0.7,0.6-1,0.9
	c-0.4,0.4-0.8,0.7-1.2,1.1c-0.3,0.3-0.6,0.6-0.9,0.9c-0.4,0.4-0.9,0.9-1.3,1.4c-0.2,0.3-0.5,0.5-0.7,0.7c-0.6,0.7-1.3,1.5-1.9,2.2
	c-4.8,6.1-8.3,13.2-10.2,21c-1,4.1-1.5,8.3-1.5,12.7c0,4.5,0.5,8.8,1.6,12.9c5.8,23.7,27.2,41.4,52.7,41.4s46.9-17.7,52.7-41.4
	c1-4.1,1.6-8.5,1.6-12.9C310.3,453.3,309.8,449.1,308.8,445z"/>
<path class="st6" d="M253.5,403.5c-0.5,0-1,0.1-1.5,0.1c-5.8,0.4-11.3,1.7-16.4,3.8c-0.1,0.1-0.3,0.1-0.4,0.1
	c-0.7,0.3-1.4,0.6-2,0.9c-0.2,0.1-0.4,0.2-0.7,0.3c-0.6,0.3-1.2,0.6-1.8,0.9c-0.3,0.1-0.6,0.3-0.8,0.4c-0.5,0.3-1.1,0.6-1.6,0.9
	c-0.3,0.2-0.6,0.4-0.9,0.6c-0.5,0.3-1,0.6-1.4,0.9c-0.3,0.2-0.7,0.5-1,0.7c-0.4,0.3-0.9,0.6-1.3,0.9c-0.4,0.3-0.7,0.5-1.1,0.8
	c-0.4,0.3-0.8,0.6-1.2,0.9s-0.7,0.6-1.1,1c-0.4,0.3-0.7,0.6-1,0.9c-0.4,0.4-0.8,0.7-1.2,1.1c-0.3,0.3-0.6,0.6-0.9,0.9
	c-0.4,0.4-0.9,0.9-1.3,1.4c-0.2,0.3-0.5,0.5-0.7,0.7c-0.6,0.7-1.3,1.5-1.9,2.2c-4.8,6.1-8.3,13.2-10.2,21c-1,4.1-1.5,8.3-1.5,12.7
	c0,4.5,0.5,8.8,1.6,12.9c5.8,23.7,27.2,41.4,52.7,41.4V403.4C255.2,403.4,254.4,403.4,253.5,403.5z"/>
</svg>
