<?xml version="1.0" encoding="utf-8"?>
<!-- Generator: Adobe Illustrator 23.0.3, SVG Export Plug-In . SVG Version: 6.00 Build 0)  -->
<svg version="1.1" id="Layer_1" xmlns="http://www.w3.org/2000/svg" xmlns:xlink="http://www.w3.org/1999/xlink" x="0px" y="0px"
	 viewBox="0 0 435.8 512" style="enable-background:new 0 0 435.8 512;" xml:space="preserve">
<style type="text/css">
	.st0{fill:#A7A9AC;}
	.st1{fill:#FFD248;}
	.st2{fill:#F4661E;}
	.st3{fill:#31C0D8;}
	.st4{fill:#231F20;}
</style>
<path class="st0" d="M351,108.8l-65.5,65.5l-0.2,0.2c-5.3-5.7-11.8-10.6-18.9-14.2c0.3-2.6,0.4-5.2,0.4-7.8c0-5.7-0.5-11.1-1.6-16.4
	l1.6,0.1l57.1-54.4l-23-23.1l42.3-47.8l81.7,81.7l-47,43.1L351,108.8z"/>
<path class="st1" d="M266.5,160.4c7.1,3.6,13.5,8.5,18.9,14.2c7.3,7.6,12.9,16.8,16.1,27H33c-0.2-1.9-0.3-3.6-0.3-5.4
	c0-39.1,31.7-70.8,70.8-70.8c1.5,0,3.2,0.1,4.7,0.2c11.1-31.8,41.4-54.7,77-54.7c39.4,0,72.4,28,80.1,65.3
	c1.1,5.3,1.6,10.8,1.6,16.4C266.9,155.1,266.8,157.7,266.5,160.4z"/>
<path class="st2" d="M38.2,250.6v38.1v168.9v21.8c0,12,9.8,21.8,21.8,21.8h228.8c12,0,21.8-9.8,21.8-21.8V288.7v-38.1H38.2
	L38.2,250.6z"/>
<path class="st3" d="M337.7,201.5v38.1c0,6-4.9,10.9-10.9,10.9h-16.3H38.2H21.8c-6,0-10.9-4.9-10.9-10.9v-38.1H33h268.4H337.7
	L337.7,201.5z"/>
<path class="st4" d="M147.1,114.4h21.8v21.8h-21.8V114.4z M179.8,168.9h21.8v-21.8h-21.8V168.9z M125.3,168.9h21.8v-21.8h-21.8
	V168.9z M81.7,179.7h21.8V158H81.7V179.7z M223.3,179.7h21.8V158h-21.8V179.7z M435.8,92.8c-0.1,3-1.3,5.8-3.5,7.8l-46.9,43.1
	c-4.3,3.9-10.9,3.8-15.1-0.3l-19.2-19.2l-50.9,50.9c3.5,4.8,6.5,10,8.9,15.5h28.8c6,0,10.9,4.9,10.9,10.9v38.1
	c0,12-9.8,21.8-21.8,21.8h-5.4v217.9c0,18-14.7,32.7-32.7,32.7h-229c-18,0-32.7-14.7-32.7-32.7V261.4h-5.4c-12,0-21.8-9.8-21.8-21.8
	v-38.1c0-6,4.9-10.9,10.9-10.9H22c2.8-41.6,36.9-74.8,78.9-76.2c14.8-32.9,47.8-54.5,84.3-54.5c37.9,0,71.6,23.3,85.7,57.4
	l37.5-35.7l-15.2-15.2c-4.1-4.1-4.3-10.6-0.5-14.9L335,3.7c2-2.3,4.8-3.6,7.8-3.7c3-0.1,5.9,1.1,8,3.2l81.7,81.7
	C434.7,87,435.8,89.9,435.8,92.8z M43.8,190.6h240.5c-2-3-4.3-5.9-6.8-8.6c-4.6-4.9-10.1-9-15.9-12c-4.1-2.1-6.5-6.5-5.9-11.1
	c0.2-1.9,0.4-4,0.4-6.5c0-5-0.5-9.6-1.4-14.3c-6.7-32.8-35.9-56.6-69.4-56.6c-30,0-56.8,19-66.7,47.4c-1.6,4.6-6.2,7.6-11.1,7.3
	c-1.3-0.1-2.7-0.2-3.9-0.2C72.3,136.2,46.6,160.1,43.8,190.6z M299.6,261.4H49v185.2h217.9v21.8H49v10.9c0,6,4.9,10.9,10.9,10.9
	h228.8c6,0,10.9-4.9,10.9-10.9V261.4L299.6,261.4z M33,212.4H21.8v27.2h305v-27.2h-25.4H33z M409.1,92.3l-65.5-65.5l-27.7,31.5
	l15.9,15.8c2.1,2.1,3.2,4.9,3.2,7.8s-1.3,5.7-3.4,7.8l-54.4,51.8c0.4,3.6,0.7,7.3,0.7,11c0,0.6,0,1.2,0,1.8c2.5,1.6,4.9,3.3,7.2,5.2
	l58.3-58.3c4.3-4.3,11.2-4.3,15.4,0l19.5,19.5L409.1,92.3z M76.3,354c0,24,19.5,43.6,43.6,43.6h108.9c24,0,43.6-19.5,43.6-43.6
	v-54.5h10.9v-21.8h-43.6v21.8h10.9V354c0,12-9.8,21.8-21.8,21.8H119.9c-12,0-21.8-9.8-21.8-21.8v-54.5H109v-21.8H65.4v21.8h10.9V354
	z M374.1,101.2l15.4-15.4l-38.6-38.6l-15.4,15.4L374.1,101.2z M190.7,125.3h21.8v-21.8h-21.8V125.3z"/>
</svg>
