<?xml version="1.0" encoding="utf-8"?>
<!-- Generator: Adobe Illustrator 23.0.3, SVG Export Plug-In . SVG Version: 6.00 Build 0)  -->
<svg version="1.1" id="Layer_1" xmlns="http://www.w3.org/2000/svg" xmlns:xlink="http://www.w3.org/1999/xlink" x="0px" y="0px"
	 viewBox="0 0 263.1 223.3" style="enable-background:new 0 0 263.1 223.3;" xml:space="preserve">
<style type="text/css">
	.st0{fill:#CA9E67;}
	.st1{fill:#1D1D1B;}
</style>
<path class="st0" d="M258.2,187.7c-1.4-5-6.5-7.4-11.3-6c-2.7,0.8-4.9,2.7-6.9,4.6c1.1,1.3,2,2.8,2.5,4.2s-1.6,2.2-2.4,1
	c-1.2-1.8-2.6-3.5-4.5-4.6c-1.8-1.1-3.9-1.3-5.8-2.1c-1.2-0.5-1.5-2.5,0-2.9c1.4-0.3,2.8-0.2,4.1,0.2c-2.4-3.6-5.5-6.1-10.5-6.6
	c-3.2-0.3-7.6,0.8-10.6,2c-7.1,2.8-11.9,12.6-13.4,19.8c-0.1,0.4-0.3,0.5-0.5,0.6c-0.3,1.4-2.6,2-3.2,0.5c-2.1-4.5-4.6-8.6-10-9.2
	c-5.7-0.6-8.5,3.1-12,6.8c-0.2,0.2-0.4,0.2-0.6,0.2c-0.1,0.5-0.2,1-0.4,1.5c-0.5,1.2-2.3,1.5-2.7,0c-1.4-6.1-7.4-9-13.3-7.4
	c-4.3,1.2-6.5,4.2-8.4,7.8c1,0.4,1.9,0.8,2.5,1.5c1,1.2,0,2.9-1.5,2.6s-2.8-1.2-4.3-1.5c-1.6-0.4-3.1-0.2-4.7-0.1
	c-1.6,0.1-1.6-2.1-0.4-2.6c1-0.4,2.3-0.6,3.6-0.6c-3-5.7-6.4-10.3-13.6-10.9c-6.9-0.5-12.5,3.5-16.8,8.5c-0.4,0.5-1,0.5-1.5,0.3
	c-0.4,0-0.9-0.1-1.3-0.4c-6.3-5.6-15-4.5-17.2,4.3c-0.4,1.5-2.1,1.7-3.2,0.8c-5.7-4.2-9.8-3.2-12.2,2.8c0.7,0.3,1.3,0.6,1.8,1.1
	c0.9,0.9,0.2,2.3-1,2.4l0,0c-1.6,0.2-3.1-0.6-4.7-1c-1.8-0.5-3.6-0.7-5.4-0.9s-1.9-2.9,0-2.9c1.6,0,3.3,0.1,4.9,0.4
	c-1.4-6.5-2.5-12.5-9.8-15.4c-6.1-2.4-12.6-0.3-17.3,4c0,0.1,0,0.3,0,0.4c-0.1,1-1.3,1.7-2.1,1.4c-0.8,0-1.5-0.8-1.1-1.6
	c-1.1-2.3-2.7-4.3-5.5-4.3c-3.4,0.1-5.5,3.5-5.5,6.5c0,0.1,0,0.1,0,0.2c0.6,0.4,1.2,0.8,1.7,1.3c0.8,0.9,0,2.8-1.3,2.3
	c-2.9-1.2-5.1-2.5-8.2-2.5c-1.6,0-1.6-2.3,0-2.5c1.3-0.2,2.8-0.1,4.2,0.2c-2.1-11.5-18.9-20.5-24.1-6.1c-1.1,3.1-1.3,6.4-1,9.7
	c5.3,15.6,13.7,21.8,31.4,23.9c12.6,1.4,25.3-1.6,37.6-3.7c2.4-0.4,4.8-0.8,7.2-1l0,0c15.5-1.7,30.9-0.5,46.5,0.3
	c20.1,1.1,40.1,2.2,60.1,3.2c24.7,1.3,50.2,5.1,69.4-13.8C258,199.5,259.6,192.5,258.2,187.7z M11.2,184.6c-0.6,0-0.8-1-0.2-1
	c2.6-0.4,5.1-0.3,7.6,0.8c0.7,0.3,0.2,1.6-0.6,1.3C15.8,184.9,13.6,184.4,11.2,184.6z M25.8,214.4c-3-0.3-5.4-1.6-7.6-3.6
	c-0.8-0.7,0.4-1.8,1.1-1.1c2,1.6,4.3,2.6,6.7,3.3C26.7,213.2,26.6,214.5,25.8,214.4z M28.8,211.3c-2.5,0-4.7-1.1-6.6-2.6
	c-0.6-0.5,0.2-1.6,0.9-1.1c1.8,1.3,3.8,1.9,5.9,2.4C29.7,210.2,29.6,211.3,28.8,211.3z M60.7,190.2c1.2,0.8,2.3,1.6,3.5,2.5
	c0.4,0.3,0,1-0.4,0.7c-1.2-0.8-2.4-1.7-3.5-2.5C59.8,190.6,60.2,189.9,60.7,190.2z M63.8,199.3c-0.4-1.8-1.4-3.2-3.1-3.9
	c-0.4-0.2-0.1-0.9,0.3-0.8c2.1,0.7,3.5,2.2,3.8,4.4C65,199.7,64,200,63.8,199.3z M207.7,209.7c-1.5,1.8-3.6,2.7-5.9,3.2
	c-0.9,0.2-1.3-1.2-0.4-1.4c2-0.5,3.6-1.5,5.2-2.8C207.3,208.1,208.2,209,207.7,209.7z M209.1,185.4c-1.5,0.7-2.5,2.6-1.8,4.3
	c0.5,1.1-1.1,2.1-1.6,1c-1.4-2.7-0.2-5.9,2.8-6.7C209.3,183.8,209.9,185,209.1,185.4z M236.5,206.3c1.7-0.5,2.7-1.6,3.5-3.1
	c0.4-0.9,1.8-0.3,1.6,0.6c-0.6,2.3-2.4,3.7-4.6,4.2C235.8,208.3,235.4,206.6,236.5,206.3z M237.9,212.7c-0.8,0.3-1.2-1-0.4-1.3
	c2.5-0.8,3.9-2.9,4.3-5.4c0.1-0.6,1-0.4,1,0.1C242.7,209.2,240.8,211.7,237.9,212.7z M197.5,39.1c-0.6-11.1-1.1-22.5-0.4-33.6
	c0,0,0,0-0.1,0c-2.1,0.4-4.3,0-6.4-0.1c-1.7-0.1-3.5-0.1-5.1-0.2c-0.2,3.9-0.4,7.8-1.1,11.6c1.2,1,0.7,3.4-1.3,3.6
	c-3.7,0.3-7.5,0.4-11.2,0.4c-2,0-3.8-0.2-4.8-2.1c-1.2-2.2-0.6-5.5-0.5-7.8c0-2.1,0.1-4.1,0.4-6.2c-2.1,0.3-4.2,0.2-6.3,0.1
	c-2,0-5.7-0.9-7.5-0.2c-0.9-0.1-0.9,0-0.1,0.4l-0.2,1.9c-0.1,1.1-0.2,2.2-0.3,3.3c-0.3,2.3-0.5,4.6-0.9,6.9c-0.2,1-1.1,1.2-1.8,0.8
	c-0.2,0.2-0.5,0.4-0.8,0.5c-3.1,0.9-6.6,0.8-9.7,0.8c-1.9,0-4.9,0.6-6.4-0.9c-1.5-1.6-0.8-4.9-0.8-6.8c0-2.1,0.1-4.3,0.2-6.5
	c-0.2,0.1-0.5,0.2-0.8,0.2c-3.4,0-6.9-0.2-10.3-0.2c-1.4,0-2.9,0-4.3,0.2V7c0,1.2-0.1,2.5-0.1,3.7c-0.1,2.5-0.2,5-0.4,7.5
	c0,0.9-0.7,1.3-1.4,1.3c-0.2,0.9-0.8,1.7-2,1.8c-4.7,0.3-9.4,0.6-14,0.8c-1.2,0.1-2.1-1-2.1-2.1c0-4.6,0-9.3,0.5-13.9
	c-0.1,0-0.2,0.1-0.4,0.1c-5.5,0.7-11,0.8-16.5,0.3c-0.1,3.9-0.3,7.8-0.6,11.8c-0.1,1-0.9,1.5-1.7,1.4c-0.2,0.3-0.5,0.5-0.8,0.7
	c-2.5,0.9-5.4,0.6-8.1,0.5c-3,0-5.9-0.2-8.9-0.4c-1.1-0.1-2-0.9-2-2c0.1-4.6,0.2-9.2,0.4-13.7C53.2,5,47,4.6,41.2,3.9
	c0,0.1,0.1,0.2,0.1,0.4c0.3,11.9,0.4,24-1.3,35.8C91.4,35.1,145.3,38.2,197.5,39.1z M192.8,26.8c0-0.9,1.4-0.9,1.4,0
	c0.1,1.7,0.2,3.4,0,5.1c-0.1,0.8-1.2,0.8-1.4,0C192.7,30.2,192.7,28.5,192.8,26.8z M188.8,30.1c0.4-1.8,0.8-3.4,1.4-5.1
	c0.4-1,1.8-0.6,1.6,0.4c-0.4,1.7-0.8,3.4-1.4,5.1C190,31.6,188.6,31.2,188.8,30.1z M163.8,18.6c0.1-0.7,1.3-0.5,1.3,0.2
	c-0.1,1,0.8,1.8,1.8,1.7c0.8,0,0.9,1.1,0.2,1.3C165,22.4,163.4,20.6,163.8,18.6z M162.8,21.9c1.5,1.3,3.2,2,5.2,2.3
	c0.7,0.1,0.7,1.2,0,1.1c-2.4,0-4.4-0.8-6.1-2.5C161.2,22.3,162.1,21.4,162.8,21.9z M122.6,12.7c0.1-0.8,1.2-0.8,1.3,0
	c0.1,1.5,0,3,0,4.5c0,0.8-1.2,0.8-1.2,0C122.5,15.7,122.5,14.3,122.6,12.7z M118.3,12.7c0.1-0.5,0.9-0.4,0.9,0.1c0,2-0.3,4-0.5,6
	c0,0.6-1,0.7-1,0C117.8,16.7,117.9,14.7,118.3,12.7z M105.1,30.8c2,0.1,3.9-0.1,5.9-0.4c0.7-0.2,1,0.8,0.3,1
	c-2.1,0.6-4.1,0.7-6.2,0.6C104.5,31.8,104.4,30.8,105.1,30.8z M101.7,32.9c1.8,0.1,3.6,0,5.4-0.4c0.6-0.1,0.8,0.6,0.2,0.8
	c-1.9,0.6-3.7,0.7-5.6,0.5C101.1,33.7,101.1,32.9,101.7,32.9z M72.5,22.8c2,0,4-0.3,5.9-1c0.7-0.3,1,0.8,0.3,1.1c-2,0.8-4,1.1-6.2,1
	C71.8,23.8,71.8,22.7,72.5,22.8z M45.8,24.8c0.1-0.6,1-0.6,1.1,0c0.1,1.5,0.2,3,0.1,4.5c0,0.8-1.3,0.8-1.3,0
	C45.7,27.8,45.7,26.3,45.8,24.8z M42.6,23.3c0.1-1,1.5-1,1.5,0c0,3.3,0.1,6.7,0.5,10c0.1,0.9-1.4,1.1-1.6,0.2
	C42.4,30.1,42.1,26.8,42.6,23.3z M52.5,42.5c0.1,46.8-0.6,93.6,0.6,140.4c3.7-1.3,7.8-1.4,11.7,0c5.6,2,11.3,8.1,12.4,14.4
	c2.9-3.2,8.4-3.4,12.9-1.2c1.1-2.7,3.1-4.9,5.4-6.5c-2-14.5-0.6-29.5-0.3-44.2c0.2-10.5-1.2-23.1,2.9-33.2
	c7.2-17.7,26.6-19.8,43.1-15.5c0.7,0.2,1,0.7,1.1,1.2c7.9,2.5,11.7,10.4,13.8,19.4c5.2,22,4.5,46.8,4,69.3
	c4.3,0.1,10.6,2.5,12.6,6.6c2-4.9,8.2-7.8,13.3-7.5c1.2,0.1,2.3,0.3,3.5,0.7c-2.8-46.9-6.1-96.8,0.1-143.5
	C144,42.8,97.9,44.4,52.5,42.5z M55.2,171.5c-0.2-2.5-0.4-5-0.5-7.5c0-0.8,1.3-1,1.4-0.2c0.4,2.6,0.6,5.1,0.7,7.7
	C56.8,172.5,55.2,172.5,55.2,171.5z M55.7,90.3c-0.6-2.8-0.9-5.6-0.4-8.4c0.1-0.8,1.4-0.6,1.4,0.2c0,2.6-0.1,5.2,0.4,7.8
	C57.2,90.8,55.9,91.2,55.7,90.3z M59.2,171.7c-0.2,0.8-1.5,0.4-1.3-0.4c0.6-2.3,0.9-4.6,1-6.9c0-0.8,1.1-0.8,1.2,0
	C60.2,167,59.9,169.3,59.2,171.7z M59.5,88.3c-0.2,0.7-1.2,0.4-1.1-0.3c0.8-3.9,1.2-7.9,1.2-11.9c0-1,1.5-1,1.5,0
	C61.4,80.2,60.9,84.3,59.5,88.3z M85.3,50.3c-1.2,0.2-1.8-1.6-0.5-1.9c2.4-0.5,4.7-1,7.1-1.3c1.1-0.2,1.6,1.4,0.5,1.7
	C90,49.4,87.7,49.9,85.3,50.3z M95.3,80.5c-1.1,2-2,4.1-2.6,6.3c-0.2,1-1.7,0.6-1.6-0.4c0.5-2.5,1.4-4.8,2.9-6.8
	C94.7,78.8,95.7,79.8,95.3,80.5z M102.4,79.5c-1.4,1-2.9,2.1-4.5,3.1c-0.8,0.5-1.5-0.7-0.7-1.2c1.5-1,3-2,4.5-3
	C102.5,78,103.1,79,102.4,79.5z M150.4,97.1c-2-1.9-4.5-3.1-7.3-2.6c-1,0.2-1.5-1.3-0.4-1.6c3.3-0.9,7.1,0.2,8.8,3.4
	C151.8,97,151,97.7,150.4,97.1z M153.8,95.2c-2-1.8-4.3-2.8-7-2.7c-0.9,0-0.8-1.2,0-1.4c3.1-0.3,5.9,0.7,8,3
	C155.4,94.9,154.5,95.8,153.8,95.2z M180.7,71.7c-0.6-3.1-0.8-6.1-1.2-9.2c-0.1-1.2,1.7-1.2,1.8,0c0.4,3,0.9,6,0.9,9
	C182.4,72.4,180.9,72.6,180.7,71.7z M182.9,168.5c0,1.1-1.7,1.1-1.7,0c0-1.8-0.1-3.7-0.1-5.5c0-1.2,1.8-1.2,1.9,0
	C183,164.8,182.9,166.6,182.9,168.5z M182.6,66.5c-0.3-2.3-0.4-4.7-0.6-7c-0.1-1.2,1.7-1.2,1.8,0c0.2,2.3,0.4,4.7,0.5,7
	C184.5,67.7,182.8,67.6,182.6,66.5z M184.8,167.4c0,1-1.4,1-1.5,0c-0.1-2.8-0.2-5.7,0-8.5c0.1-1,1.5-1,1.6,0
	C185,161.8,184.8,164.6,184.8,167.4z M98.8,145.3c0.2-6.5-0.4-14.2,0.6-20.7c4-25.2,19.3-28.2,38.3-25.5
	c24.2,8.3,18.4,67.5,18.3,87.9c-4.3,1.2-8,4.2-9.7,8.2c-1.4-6.4-8.2-11.2-14.4-12.1c-7.8-1.2-15,2.8-19.8,8.7
	c-4.2-5.1-10.6-5.5-15.7-2.8C99.1,174.8,98.5,159.9,98.8,145.3z"/>
<path class="st1" d="M260.4,181.9c-5.4-7.3-16.4-6.3-22-0.1c-5.2-9.9-14-11.9-24.9-8.8c-8.7,2.5-14.5,11.3-15.9,20.1
	c-1-1.9-2.6-3.6-4.4-4.9v-0.1c-2.1-48.3,0.8-97.1-1.9-145.4c2.1,0,4.3,0,6.4,0c1,0,1.6-0.8,1.7-1.6c0.2-0.2,0.4-0.4,0.4-0.8
	c1.4-11.7,2.2-24.4,1-36.2c-0.2-1.7-1.9-2.2-2.9-1.4c-0.2-0.3-0.5-0.6-0.8-0.7c-3.9-1.6-9.4-1-13.5-1c-1.1,0-2,0.9-2,2
	c-0.1,4.3-0.4,8.8,0,13.1c-1.9,0-3.8,0-5.7,0.1c-1.1,0-2.3,0.2-3.3,0.1c-1.9-0.2-1.6,0-1.8-2c-0.5-4.3-0.1-8.5-1.3-12.7
	c-0.1-0.6-0.7-0.8-1.2-0.7c-0.1,0-0.2-0.2-0.3-0.2c-3.2-0.7-6.7-0.5-10-0.5c-2.1,0-5.7-0.8-7.6,0.5C148.8,1.9,149,4.3,149,6
	c-0.1,2.8-0.2,5.7-0.2,8.5c-0.1,0-0.2,0-0.3-0.1c-2.3-0.2-4.7,0.3-7,0.4c-1.3,0.1-2.5,0.1-3.8,0.1c-0.4,0-0.7,0-1.1,0
	c-0.3,0-0.5-0.1-0.7-0.1c-0.4-1.8-0.1-4.1-0.3-5.8c-0.2-2.3-0.4-4.7-0.9-7c-0.2-0.8-1.2-1-1.8-0.6c-0.4-0.4-0.8-0.6-1.5-0.6
	c-3.4,0-6.8,0-10.1,0c-2,0-5.7-0.8-7.4,0.8c-1.6,1.4-1,3.9-1,5.8c0.1,3.1,0.3,6.3,0.5,9.4c-0.2,0-0.4-0.1-0.6-0.1
	c-4,0.2-7.9,0.4-11.9,0.7c0-4.8-0.1-9.7-1-14.4c-0.2-0.7-1-1-1.6-0.8c-0.3-0.4-0.8-0.6-1.5-0.6c-6.2,0.8-12.3,0.8-18.5,0.1
	c-1.1-0.1-2.1,1.1-2.1,2.1c0.1,4.3,0.2,8.6,0.5,12.9c-2.4-0.6-5.1-0.2-7.6-0.3c-2.3,0-4.6-0.2-6.9-0.3c0-4.7-0.2-9.4-1-14.1
	c-0.1-0.5-0.4-0.7-0.8-0.8c-0.3-0.3-0.7-0.6-1.2-0.6c-6.1-0.8-12.9-0.7-19.1,0c-0.7,0.1-1.2,0.8-1.3,1.4c-0.9,0.1-1.7,0.7-1.7,1.8
	c0.2,12-0.3,24.2,0.4,36.2c0,0.4,0.4,0.7,0.7,0.9c0.1,0.3,0.3,0.6,0.8,0.6c3.5,0.2,7.1,0.4,10.6,0.5c-2.5,47.2-1.6,94.9,0.2,142.1
	c-1.4,0.9-2.8,1.9-3.9,3.2c-1.6-3-5.6-4.9-8.9-4.4c-2.7,0.4-4.9,2.3-6,4.5c-2-9.3-12.3-17-21.9-13c-14.6,6-8,25.2-4.9,36
	c0.2,0.9,1.5,0.9,1.9,0.2c3,5.3,7.9,9.1,15.6,10.8c28.1,6.1,57.4-5.3,85.6-4.1c30.1,1.4,60.1,3.3,90.2,5
	c21.8,1.2,45.8,2.5,60.8-16.2c0.4-0.4,0.5-0.9,0.4-1.4C263.7,199.4,264.7,187.7,260.4,181.9z M39.4,40c1.7-11.8,1.6-23.9,1.3-35.8
	c0-0.2-0.1-0.3-0.1-0.4c5.7,0.8,11.9,1.1,17.7,0.9c-0.3,4.5-0.4,9.1-0.4,13.7c0,1.1,0.9,1.9,2,2c3,0.2,5.9,0.4,8.9,0.4
	c2.7,0,5.5,0.4,8.1-0.5c0.4-0.2,0.7-0.4,0.8-0.7c0.8,0.1,1.6-0.3,1.7-1.4c0.3-3.9,0.5-7.9,0.6-11.8c5.5,0.4,11,0.4,16.5-0.3
	c0.2,0,0.3-0.1,0.4-0.1c-0.5,4.6-0.4,9.4-0.5,13.9c0,1.1,1,2.2,2.1,2.1c4.7-0.2,9.4-0.5,14-0.8c1.2-0.1,1.8-0.9,2-1.8
	c0.7,0,1.4-0.4,1.4-1.3c0.2-2.5,0.4-5,0.4-7.5c0-1.2,0.1-2.5,0.1-3.7V5.1c1.4-0.1,2.9-0.2,4.3-0.2c3.5,0,6.9,0.2,10.3,0.2
	c0.3,0,0.6,0,0.8-0.2c-0.2,2.2-0.2,4.3-0.2,6.5c0,2-0.7,5.2,0.8,6.8s4.5,1,6.4,0.9c3.1,0,6.6,0,9.7-0.8c0.3-0.1,0.6-0.3,0.8-0.5
	c0.7,0.3,1.6,0.2,1.8-0.8c0.4-2.3,0.6-4.6,0.9-6.9c0.1-1.1,0.2-2.2,0.3-3.3l0.2-1.9c-0.8-0.4-0.8-0.6,0.1-0.4
	c1.8-0.7,5.5,0.2,7.5,0.2c2.1,0,4.2,0.2,6.3-0.1c-0.3,2-0.3,4.1-0.4,6.2c0,2.4-0.6,5.6,0.5,7.8c1,1.9,2.8,2.2,4.8,2.1
	c3.7,0,7.5,0,11.2-0.4c2-0.2,2.5-2.5,1.3-3.6c0.7-3.8,0.9-7.7,1.1-11.6c1.7,0,3.4,0,5.1,0.2c2.2,0.1,4.3,0.5,6.4,0.1c0,0,0,0,0.1,0
	c-0.6,11.1-0.2,22.5,0.4,33.6C145.3,38.2,91.4,35.1,39.4,40z M189.5,186.3c-1.2-0.4-2.3-0.6-3.5-0.7c-5.1-0.3-11.3,2.6-13.3,7.5
	c-1.9-4-8.3-6.4-12.6-6.5c0.6-22.5,1.2-47.3-4-69.3c-2.1-9-5.9-16.8-13.8-19.4c0-0.5-0.4-1-1.1-1.2c-16.5-4.3-35.9-2.2-43.1,15.5
	c-4.1,10.1-2.7,22.7-2.9,33.2c-0.4,14.7-1.8,29.7,0.3,44.2c-2.3,1.5-4.3,3.7-5.4,6.5c-4.5-2.2-10-1.9-12.9,1.2
	c-1.1-6.3-6.8-12.4-12.4-14.4c-3.9-1.4-8-1.2-11.7,0c-1.2-46.8-0.6-93.6-0.6-140.4c45.5,1.9,91.6,0.3,137.1,0.2
	C183.3,89.4,186.6,139.3,189.5,186.3z M99.4,124.6c4-25.2,19.3-28.2,38.3-25.5c24.2,8.3,18.4,67.5,18.3,87.9c-4.3,1.2-8,4.2-9.7,8.2
	c-1.4-6.4-8.2-11.2-14.4-12.1c-7.8-1.2-15,2.8-19.8,8.7c-4.2-5.1-10.6-5.5-15.7-2.8c2.7-14.3,2-29.2,2.4-43.7
	C99,138.8,98.4,131.2,99.4,124.6z M255.4,204.3c-19.2,18.9-44.7,15.2-69.4,13.8c-20-1-40-2.1-60.1-3.2c-15.6-0.8-31.1-2-46.5-0.3
	c-2.4,0.3-4.8,0.6-7.2,1c-12.3,2.1-25,5.2-37.6,3.7c-17.7-2.1-26.1-8.3-31.2-23.8c-0.3-3.3-0.2-6.6,1-9.7c5.2-14.4,22-5.3,24.1,6.1
	c-1.4-0.2-2.9-0.3-4.2-0.2c-1.6,0.2-1.6,2.5,0,2.5c3.2,0,5.4,1.2,8.2,2.5c1.3,0.5,2.1-1.4,1.3-2.3c-0.5-0.5-1.1-0.9-1.7-1.3
	c0,0,0-0.1,0-0.2c-0.1-3.1,2.1-6.5,5.5-6.6c2.9-0.1,4.4,2,5.5,4.3c-0.4,0.8,0.3,1.6,1.1,1.6c0.8,0.4,2-0.4,2.1-1.4
	c0-0.1,0-0.3,0-0.4c4.7-4.3,11.1-6.3,17.3-4c7.3,2.8,8.4,8.8,9.8,15.4c-1.6-0.3-3.3-0.4-4.9-0.4c-1.9,0-1.8,2.6,0,2.9
	c1.8,0.2,3.6,0.4,5.4,0.9c1.5,0.4,3.1,1.2,4.7,1c1.1-0.1,1.9-1.4,1-2.4c-0.5-0.5-1.2-0.8-1.8-1.1c2.4-6,6.5-7,12.2-2.8
	c1.1,0.8,2.8,0.6,3.2-0.8c2.2-8.8,10.9-9.9,17.2-4.3c0.4,0.3,0.9,0.4,1.3,0.4c0.5,0.2,1.1,0.2,1.5-0.3c4.3-5,9.9-9,16.8-8.5
	c7.2,0.5,10.6,5.1,13.6,10.9c-1.3,0.1-2.5,0.3-3.6,0.6c-1.3,0.4-1.2,2.7,0.4,2.6c1.6-0.1,3.2-0.2,4.7,0.1s2.8,1.2,4.3,1.5
	s2.5-1.4,1.5-2.6c-0.6-0.7-1.6-1.2-2.5-1.5c1.9-3.6,4.1-6.6,8.4-7.8c5.9-1.6,11.9,1.4,13.3,7.4c0.4,1.5,2.2,1.2,2.7,0
	c0.2-0.5,0.3-1,0.4-1.5c0.2,0,0.5-0.1,0.6-0.2c3.5-3.7,6.3-7.3,12-6.8c5.4,0.5,7.9,4.7,10,9.2c0.6,1.4,2.9,0.9,3.2-0.5
	c0.2-0.1,0.4-0.3,0.5-0.6c1.4-7.2,6.3-17,13.4-19.8c3-1.2,7.4-2.3,10.6-2c5,0.5,8.1,3,10.5,6.6c-1.3-0.4-2.7-0.6-4.1-0.2
	c-1.5,0.4-1.2,2.4,0,2.9c2,0.8,4,1,5.8,2.1c1.9,1.2,3.3,2.8,4.5,4.6c0.8,1.2,2.9,0.4,2.4-1s-1.4-2.9-2.5-4.2c2-1.9,4.1-3.8,6.9-4.6
	c4.9-1.4,9.9,1,11.3,6C259.6,192.5,258,199.5,255.4,204.3z M242.9,206.1c-0.1,3.1-2,5.5-4.9,6.6c-0.8,0.3-1.2-1-0.4-1.3
	c2.5-0.8,3.9-2.9,4.3-5.4C241.9,205.4,242.9,205.6,242.9,206.1z M237,208.1c-1.2,0.2-1.6-1.4-0.5-1.8c1.7-0.5,2.7-1.6,3.5-3.1
	c0.4-0.9,1.8-0.3,1.6,0.6C241,206.1,239.2,207.6,237,208.1z M209.1,185.4c-1.5,0.7-2.5,2.6-1.8,4.3c0.5,1.1-1.1,2.1-1.6,1
	c-1.4-2.7-0.2-5.9,2.8-6.7C209.3,183.8,209.9,185,209.1,185.4z M207.7,209.7c-1.5,1.8-3.6,2.7-5.9,3.2c-0.9,0.2-1.3-1.2-0.4-1.4
	c2-0.5,3.6-1.5,5.2-2.8C207.3,208.1,208.2,209,207.7,209.7z M192.9,31.9c-0.2-1.7-0.2-3.4,0-5.1c0-0.9,1.4-0.9,1.4,0
	c0.1,1.7,0.2,3.4,0,5.1C194.1,32.7,193,32.7,192.9,31.9z M188.8,30.1c0.4-1.8,0.8-3.4,1.4-5.1c0.4-1,1.8-0.6,1.6,0.4
	c-0.4,1.7-0.8,3.4-1.4,5.1C190,31.6,188.6,31.2,188.8,30.1z M184.8,158.9c0.2,2.9,0,5.7,0,8.5c0,1-1.4,1-1.5,0
	c-0.1-2.8-0.2-5.7,0-8.5C183.3,157.9,184.7,157.9,184.8,158.9z M182.6,66.5c-0.3-2.3-0.4-4.7-0.6-7c-0.1-1.2,1.7-1.2,1.8,0
	c0.2,2.3,0.4,4.7,0.5,7C184.5,67.7,182.8,67.6,182.6,66.5z M182.9,162.9c0,1.8,0,3.7-0.1,5.5c0,1.1-1.7,1.1-1.7,0
	c0-1.8-0.1-3.7-0.1-5.5C181.1,161.7,182.9,161.7,182.9,162.9z M180.7,71.7c-0.6-3.1-0.8-6.1-1.2-9.2c-0.1-1.2,1.7-1.2,1.8,0
	c0.4,3,0.9,6,0.9,9C182.4,72.4,180.9,72.6,180.7,71.7z M161.9,22.9c-0.6-0.6,0.3-1.4,0.9-0.9c1.5,1.3,3.2,2,5.2,2.3
	c0.7,0.1,0.7,1.2,0,1.1C165.6,25.3,163.6,24.5,161.9,22.9z M163.8,18.6c0.1-0.7,1.3-0.5,1.3,0.2c-0.1,1,0.8,1.8,1.8,1.7
	c0.8,0,0.9,1.1,0.2,1.3C165,22.4,163.4,20.6,163.8,18.6z M154.8,94.2c0.6,0.7-0.3,1.6-1,1c-2-1.8-4.3-2.8-7-2.7
	c-0.9,0-0.8-1.2,0-1.4C149.9,90.9,152.8,91.9,154.8,94.2z M151.4,96.3c0.4,0.7-0.5,1.4-1.1,0.8c-2-1.9-4.5-3.1-7.3-2.6
	c-1,0.2-1.5-1.3-0.4-1.6C146,92,149.8,93.1,151.4,96.3z M122.6,17.3c-0.1-1.5-0.2-3,0-4.5c0.1-0.8,1.2-0.8,1.3,0c0.1,1.5,0,3,0,4.5
	C123.8,18.1,122.6,18.1,122.6,17.3z M117.7,18.8c0.1-2,0.2-4.1,0.6-6.1c0.1-0.5,0.9-0.4,0.9,0.1c0,2-0.3,4-0.5,6
	C118.6,19.4,117.6,19.4,117.7,18.8z M105.1,30.8c2,0.1,3.9-0.1,5.9-0.4c0.7-0.2,1,0.8,0.3,1c-2.1,0.6-4.1,0.7-6.2,0.6
	C104.5,31.8,104.4,30.8,105.1,30.8z M107.3,33.3c-1.9,0.6-3.7,0.7-5.6,0.5c-0.6,0-0.6-0.9,0-0.8c1.8,0.1,3.6,0,5.4-0.4
	C107.6,32.3,107.8,33.1,107.3,33.3z M102.4,79.5c-1.4,1-2.9,2.1-4.5,3.1c-0.8,0.5-1.5-0.7-0.7-1.2c1.5-1,3-2,4.5-3
	C102.5,78,103.1,79,102.4,79.5z M95.3,80.5c-1.1,2-2,4.1-2.6,6.3c-0.2,1-1.7,0.6-1.6-0.4c0.5-2.5,1.4-4.8,2.9-6.8
	C94.7,78.8,95.7,79.8,95.3,80.5z M92.3,48.9c-2.3,0.6-4.7,1-7,1.4c-1.2,0.2-1.8-1.6-0.5-1.9c2.4-0.5,4.7-1,7.1-1.3
	C93,47,93.5,48.6,92.3,48.9z M78.7,22.9c-2,0.8-4,1.1-6.2,1c-0.7,0-0.7-1.1,0-1c2.1,0,4-0.3,5.9-1C79.1,21.5,79.3,22.6,78.7,22.9z
	 M64.9,199c0.1,0.7-1,1-1.1,0.3c-0.4-1.8-1.4-3.2-3.1-3.9c-0.4-0.2-0.1-0.9,0.3-0.8C63.2,195.3,64.6,196.7,64.9,199z M63.8,193.4
	c-1.2-0.8-2.4-1.7-3.5-2.5c-0.4-0.3,0-1,0.4-0.7c1.2,0.8,2.3,1.6,3.5,2.5C64.6,193,64.2,193.8,63.8,193.4z M61.2,76.1
	c0.2,4.2-0.3,8.2-1.6,12.2c-0.2,0.7-1.2,0.4-1.1-0.3c0.8-3.9,1.2-7.9,1.2-11.9C59.7,75.1,61.1,75.1,61.2,76.1z M60,164.5
	c0.2,2.5-0.2,4.8-0.8,7.2c-0.2,0.8-1.5,0.4-1.3-0.4c0.6-2.3,0.9-4.6,1-6.9C58.9,163.7,60,163.7,60,164.5z M57,89.9
	c0.1,0.9-1.2,1.3-1.4,0.4c-0.6-2.8-0.9-5.6-0.4-8.4c0.1-0.8,1.4-0.6,1.4,0.2C56.6,84.7,56.6,87.3,57,89.9z M56.1,163.7
	c0.4,2.6,0.6,5.1,0.7,7.7c0.1,1.1-1.5,1-1.6,0c-0.2-2.5-0.4-5-0.5-7.5C54.7,163.2,56,163,56.1,163.7z M46.9,24.8
	c0.1,1.5,0.2,3,0.1,4.5c0,0.8-1.3,0.8-1.3,0c0-1.5,0-3,0.1-4.5C45.9,24.1,46.8,24.1,46.9,24.8z M44.1,23.3c0,3.3,0.1,6.7,0.5,10
	c0.1,0.9-1.4,1.1-1.6,0.2c-0.6-3.4-0.9-6.8-0.4-10.2C42.7,22.3,44.1,22.3,44.1,23.3z M28.8,211.3c-2.5,0-4.7-1.1-6.6-2.6
	c-0.6-0.5,0.2-1.6,0.9-1.1c1.8,1.3,3.8,1.9,5.9,2.4C29.7,210.2,29.6,211.3,28.8,211.3z M25.8,214.4c-3-0.3-5.4-1.6-7.6-3.6
	c-0.8-0.7,0.4-1.8,1.1-1.1c2,1.6,4.3,2.6,6.7,3.3C26.7,213.2,26.6,214.5,25.8,214.4z M18.1,185.7c-2.3-0.8-4.4-1.3-6.8-1.1
	c-0.6,0-0.8-1-0.2-1c2.6-0.4,5.1-0.3,7.6,0.8C19.4,184.7,18.8,186,18.1,185.7z"/>
</svg>
