<?xml version="1.0" encoding="utf-8"?>
<!-- Generator: Adobe Illustrator 23.0.3, SVG Export Plug-In . SVG Version: 6.00 Build 0)  -->
<svg version="1.1" id="Layer_1" xmlns="http://www.w3.org/2000/svg" xmlns:xlink="http://www.w3.org/1999/xlink" x="0px" y="0px"
	 viewBox="0 0 428.2 512" style="enable-background:new 0 0 428.2 512;" xml:space="preserve">
<style type="text/css">
	.st0{fill:#314E55;}
	.st1{fill:#E65F58;}
	.st2{fill:#E4AD40;}
</style>
<path class="st0" d="M372.4,0c-30.8,0-55.9,25.1-55.9,55.9c0,6.1,1,12,2.9,17.5c-0.2,0-0.5,0-0.7,0.1
	c-110.3,28-141.7,117.1-146.1,131.7c-85.1,6.7-153,107.1-153.9,230.1C7.5,442.8,0,455.6,0,470.1C0,493.2,18.8,512,41.9,512h279.3
	c23.1,0,41.9-18.8,41.9-41.9c0-14.5-7.4-27.3-18.7-34.8c-0.5-73.1-24.7-138.2-62.1-180.4c-2.3-10.5-15-83.3,45.3-165.7
	c10.2,13.7,26.4,22.6,44.7,22.6c30.8,0,55.9-25.1,55.9-55.9S403.2,0,372.4,0z M321.2,446.8c12.8,0,23.3,10.4,23.3,23.3
	c-0.1,12.8-10.5,23.3-23.3,23.3H41.9c-12.8,0-23.3-10.4-23.3-23.3c0-12.9,10.4-23.3,23.3-23.3H321.2z"/>
<path class="st1" d="M325.7,428.2h-4.5H41.9h-4.5c3.3-113.8,66.7-204.8,144.2-204.8S322.4,314.5,325.7,428.2z M298.2,99.5
	c-71.8,28.1-98.9,86.5-106.1,105.9c24.9,2.3,48.3,12.6,68.9,29.2C259.6,205.5,263.8,155.8,298.2,99.5z"/>
<path class="st2" d="M372.4,93.1c-20.5,0-37.2-16.7-37.2-37.2s16.7-37.2,37.2-37.2s37.2,16.7,37.2,37.2S392.9,93.1,372.4,93.1z"/>
</svg>
