<?xml version="1.0" encoding="utf-8"?>
<!-- Generator: Adobe Illustrator 23.0.3, SVG Export Plug-In . SVG Version: 6.00 Build 0)  -->
<svg version="1.1" id="Layer_1" xmlns="http://www.w3.org/2000/svg" xmlns:xlink="http://www.w3.org/1999/xlink" x="0px" y="0px"
	 viewBox="0 0 274.8 269.8" style="enable-background:new 0 0 274.8 269.8;" xml:space="preserve">
<style type="text/css">
	.st0{fill:#E94B59;}
	.st1{fill:#F4A5AC;}
	.st2{fill:#1D1D1B;}
</style>
<path class="st0" d="M198.6,91.4c23.8,2,47.9,3.4,71.7,2.9c-9.1,19.8-29,33.8-44.6,48.2c-7.4,6.8-17.5,13.9-19.9,23.7
	c-0.9-0.2-2,0.6-1.8,1.8c2.4,13.1,8,24.9,13.7,36.8c1.4,2.9,22.8,50.7,15.6,56c-0.2-0.2-0.4-0.4-0.8-0.5
	c-21.3-7.4-40.7-21.8-60-33.2c-11.1-6.5-22.8-17.1-36-15.9c-0.5-0.8-1.4-1.3-2.5-0.6c-13.5,9.5-26.8,19.4-40.1,29.1
	c-6.2,4.6-12.4,9.2-18.6,13.7c-2,1.4-24.8,20.9-28,8c6.9-24.1,14.7-47.7,22.6-71.5c3.2-9.8,6.7-20.4,0-27.9c0.6-0.9,0.7-2.3-0.4-3.1
	c-10.6-8.1-21.3-16.2-31.9-24.3c-8.2-6.3-40.6-24-32-39.1c0.2,0,0.5,0,0.8-0.2c10.1-6.2,29.9-4.3,41.6-5c11-0.6,22.5-0.2,33.4-1.8
	c5.3-0.8,9.8-2.2,13.2-4.6c0.4,0.4,1,0.6,1.5,0c16.8-24.8,20.1-58.2,40.3-80.7c15.1,1.1,22.3,37.5,26.4,48.3
	c4.6,12.2,9.7,24.1,17.1,34.8c0.3,0.5,0.8,0.7,1.2,0.7C184.1,91.7,193.4,90.9,198.6,91.4z M260.4,101.9c0.2-0.8-1-1.4-1.4-0.6
	c-1.5,3.5-3.4,6.4-6.7,8.4c-0.7,0.4-0.1,1.5,0.7,1.1C256.6,109.2,259.7,106,260.4,101.9z M253.2,105.8c0.5-0.6-0.3-1.5-1-0.9
	c-2,1.8-3.7,3.9-5.6,5.9c-0.6,0.7,0.4,1.7,1,1C249.5,109.9,251.5,108,253.2,105.8z M215.3,248.1c0.6,0.1,1.2-0.8,0.5-1.2
	c-2.7-1.4-5.1-2.3-7.4-4.5c-0.6-0.6-1.4,0.3-0.8,0.8c1,1.1,2.2,2.1,3.5,3c-2.9-0.7-5.3-2.2-7.2-4.3c-0.6-0.6-1.6,0.2-1.1,0.9
	c1.9,2.9,4.9,4.5,8.3,4.6c0.5,0,0.7-0.6,0.4-0.9C212.6,247.3,213.9,247.9,215.3,248.1z M211.7,116.9c2.3-1,3.5-3.3,2.7-5.7
	c-0.2-0.7-1.2-0.4-1.1,0.3c0.2,1.8-0.6,3.5-2.2,4.3C210.4,116.2,211.1,117.2,211.7,116.9z M208.4,113.2c3.8-0.9,6.3-5.9,4.7-9.4
	c-1.3-3-6.6-4.3-8.8-1.6c-2.4,1-4.1,3.5-3.7,6.3C201.4,111.8,205.2,114,208.4,113.2z M194.9,221.1c6.8,0.3,12.2-5.7,12.1-12.3
	c-0.1-6.4-5.3-10.4-11.1-9.6c-5.9-1-11.6,3.2-12.3,9.6C182.9,215.3,188.4,220.8,194.9,221.1z M204.1,179.5c0.5,0.6,1.2-0.2,0.8-0.8
	c-1.6-2-2.1-4.5-1.5-7c0.2-0.7-0.9-1-1.1-0.3C201.3,174.3,202,177.2,204.1,179.5z M201.9,184.6c0.6,0.5,1.6-0.4,1-1
	c-2.4-2.3-4.1-5-5-8.2c-0.2-0.8-1.4-0.4-1.2,0.3C197.5,179.3,199.2,182.3,201.9,184.6z M184.1,131.8c8.1-2.6,12.5-11.9,9.7-19.9
	c-2.3-6.3-10-10.6-16.1-7.5c-7.2,1.3-12.2,8.2-11.3,15.8C167.5,128.7,175.8,134.5,184.1,131.8z M182.8,187.1c4-2.4,5.3-8,2.3-11.7
	c-2.5-3.2-7.9-3.4-10.3-0.1c-2.6,1.3-4.2,4.4-3.3,7.5C172.9,187.7,178.5,189.6,182.8,187.1z M182.5,202c0.5-0.4,0.2-1.3-0.4-1
	c-2.7,1-3.8,3.7-2.9,6.4c0.3,1,1.8,0.6,1.5-0.4C180.1,205.1,180.9,203.2,182.5,202z M177.8,198.8c0.6-0.6-0.2-1.6-0.9-1.2
	c-2.4,1.5-3.7,3.8-4,6.6c-0.1,1,1.5,1.2,1.6,0.2C174.9,202.2,176.1,200.3,177.8,198.8z M177.1,171.7c0.8,0.2,1.2-0.8,0.5-1.2
	c-2.6-1.6-5.7-1.6-8.6-0.6c-0.8,0.2-0.4,1.4,0.4,1.2C172.1,170.5,174.5,170.9,177.1,171.7z M170,99.6c0.9,0.4,1.4-1.1,0.6-1.5
	c-3.1-1.7-6.7-1.4-9.5,0.8c-0.8,0.6-0.1,1.9,0.8,1.4C164.4,98.6,167.3,98.5,170,99.6z M168.6,102.9c0.7-0.4,0.2-1.5-0.6-1.3
	c-1.8,0.4-3.1,1.6-4.1,3.2c-0.6,0.8,0.8,1.6,1.3,0.8C166.2,104.4,167.3,103.7,168.6,102.9z M147.7,22.5c0.2,0.6,1.1,0.4,0.9-0.2
	c-0.8-2.3-1.7-4.7-2.7-7c-0.2-0.4-0.8-0.3-0.7,0.2C146.1,17.8,146.9,20.2,147.7,22.5z M147.1,24.5c0.2,0.8,1.4,0.4,1.1-0.3
	c-0.7-2.4-1.7-4.6-3.1-6.7c-0.4-0.6-1.3,0-1,0.6C145.4,20.2,146.3,22.3,147.1,24.5z M137.1,90.8c6.4-1,11-7.4,10.2-13.9
	c-0.8-6.8-8.2-12.7-15.1-10.7c-0.4,0.1-0.6,0.4-0.7,0.6c-5.8,1.5-9.9,6.8-9.1,13.3C123.3,87.2,130.2,91.9,137.1,90.8z M146.1,48.1
	c0.4-2.9-1.4-5.9-4.3-6.4c-0.1-0.1-0.1-0.2-0.2-0.2c-1.5-0.7-3.1,0.1-4.5,0.8c-1.4,0.8-2.3,2.3-2.6,3.8c-0.7,3.3,1.9,6.2,5.1,6.6
	C142.7,53.1,145.7,51.3,146.1,48.1z M144.1,154.6c0.2-0.6-0.7-1-1-0.4c-0.6,1.2-1,2.5-1.4,3.7c-0.2,0.7,0.8,0.9,1.1,0.3
	C143.2,157,143.7,155.9,144.1,154.6z M140,156.2c2-1.5,3.5-4.1,3.1-6.7c0-0.6-0.9-0.8-1.1-0.2c-0.6,2.3-1.3,4.1-2.8,6
	C138.9,155.8,139.6,156.5,140,156.2z M140.1,99.2c0.6-0.6-0.3-1.5-1-1c-2,1.6-4.4,2.7-7,2.9c-0.9,0-0.9,1.3,0,1.3
	C135.1,102.4,137.9,101.4,140.1,99.2z M132.7,157.8c5.1-0.4,7.2-6.3,6.1-10.7c-0.9-3.7-4.6-6.5-8.2-5.2c0,0-0.1,0-0.2,0
	c-4.1,0.4-7.2,4.2-6.9,8.4C124.1,154.6,128.4,158.2,132.7,157.8z M138,97.2c0.6-0.5-0.2-1.5-0.8-1.1c-2,1.3-4.4,1.4-6.4,0.1
	c-0.6-0.4-1.4,0.6-0.8,1C132.5,99.2,135.6,99.2,138,97.2z M137.3,39.1c0.7-0.3,0.4-1.4-0.3-1.1c-2.1,0.7-3.5,2.2-3.9,4.4
	c-0.1,0.5,0.6,0.7,0.8,0.2C134.5,40.9,135.6,39.7,137.3,39.1z M118.2,172.4c2.7-0.5,4.7-2.9,3.9-5.7c-0.6-2.1-4.3-5.2-6.4-3.1
	c-1.9,0.8-3.3,2.6-3.1,4.9C112.8,171.3,115.6,172.9,118.2,172.4z M103.2,196.7c0-0.7-1.2-1-1.3-0.2c-0.5,3.4-1.7,6.5-3.9,9.2
	c-0.5,0.6,0.3,1.5,0.9,0.9C101.6,204,103.2,200.5,103.2,196.7z M97.3,206c1.4-2,2.3-4.3,2.2-6.8c0-0.6-0.9-0.8-1.1-0.1
	c-0.6,2.2-1.1,4.4-1.9,6.6C96.2,206.1,97,206.4,97.3,206z M99.3,88.6c0.6-0.5-0.2-1.4-0.8-1c-2.6,1.7-5.1,3.4-7.9,4.8
	c-0.8,0.4-0.1,1.5,0.7,1.2C94.2,92.2,97,90.7,99.3,88.6z M96.4,87.2c0.6-0.6-0.3-1.5-1-1c-2.1,1.9-4.7,2.9-7.6,2.8
	c-0.9,0-0.8,1.2,0,1.4C91.1,90.7,94.3,89.7,96.4,87.2z M91.9,147c7.6-5.2,8.6-16.3,3-23.3c-4.5-5.6-14.7-9.6-19.7-2.5c0,0,0,0,0,0.1
	c-5.8,3.3-7.4,13.3-5.1,19C73.4,149,84.2,152.3,91.9,147z M94.9,203.1c1.6-5.7-1.9-14.1-8.3-15.1c-0.3,0-0.6,0.1-0.8,0.4
	c-13.4-4.4-19.2,20.1-4.5,23.3C87.1,212.9,93.3,208.8,94.9,203.1z M88.7,225.8c2.3-1.7,2.6-5,0.2-6.8c-1.7-1.3-5.9-1.8-6.5,0.9
	c0,0.1,0,0.2,0,0.2c-0.8,1.2-1.1,2.9-0.5,4.3C83.1,227.2,86.4,227.5,88.7,225.8z M70.4,249.3c0.5-0.7-0.6-1.4-1.1-0.9
	c-2.5,2.5-5.2,4.5-8.4,5.9c-0.8,0.4-0.2,1.7,0.6,1.4C65.1,254.5,68.2,252.4,70.4,249.3z M68,254.6c0.3-0.2-0.1-0.6-0.4-0.4
	c-1.7,1.3-3.3,2.7-5,4.1c-0.2,0.2,0.1,0.5,0.3,0.3C64.6,257.3,66.3,256,68,254.6z M67.4,129.6c0.3-0.9-1-1.2-1.3-0.4
	c-0.6,1.6-1,3.1-1,4.7c0,0.9,1.2,0.8,1.3,0C66.6,132.4,67,131,67.4,129.6z M61.4,114.2c3.2-0.6,5.7-3.3,5.1-6.6
	c-0.5-3.1-3.7-5.7-6.8-4.7c-0.2-0.2-0.5-0.4-0.9-0.4c0,0-0.1,0-0.2,0c-3,0.5-4.6,4.4-4.1,7.1C54.9,112.9,58.1,114.8,61.4,114.2z
	 M62.8,138.7c0.4,0.7,1.4,0.1,1.1-0.6c-1.4-2.7-1.6-5.7-0.4-8.5c0.3-0.6-0.6-1.2-1-0.5C61,132.1,61,135.7,62.8,138.7z M29.7,123
	c0.8,0.4,1.6-0.8,0.7-1.2c-2.7-1.5-5.1-3.4-7-5.8c-0.6-0.7-1.7,0.2-1.2,0.9C24.3,119.5,26.6,121.6,29.7,123z M23.7,122.8
	c0.7,0.6,1.6-0.4,1-1c-1.9-2-3.5-4.2-5.4-6.2c-0.5-0.5-1.2,0.1-1,0.7C19.5,118.8,21.6,120.9,23.7,122.8z"/>
<path class="st1" d="M207.6,111c-2,0.4-4.5-1-4.9-3.1c-0.3-1.7,0.6-3.4,1.9-4.4c0.1,0.1,0.3,0.2,0.4,0.2c2.1,0.1,4.9-1.6,6,1.3
	C212,107.2,210,110.5,207.6,111z M194.2,202c-0.7,0.2-1.2-0.2-1.3-0.7c-7.9,2.8-8.3,16,2,16.5C206.4,218.3,206.7,198.3,194.2,202z
	 M182.5,129.1c14.4-3.6,10.4-27.7-5.6-22.1c-0.2,0.1-0.4,0-0.6-0.1c-4.1,2.1-7.2,5.9-7.2,11.1C169.2,125,175.3,131,182.5,129.1z
	 M179.2,175.2c0,0.3-0.1,0.6-0.5,0.6c-3.3,0.4-6,4-4.1,7.1c1.6,2.6,5,3,7.3,1c2-1.7,2.7-4.7,1.1-7
	C182.1,175.5,180.6,175,179.2,175.2z M132.7,68.7c-0.1,0-0.2-0.1-0.3-0.1c-4.7,2.1-8.3,6.2-7.2,11.9c1,5.1,6.4,8.6,11.5,7.6
	s8.6-6.6,7.6-11.6C143.2,70.6,137.9,68.7,132.7,68.7z M140.3,49.9c4.3,0.4,4.2-5.1,1.2-6.8l0,0c-1,0.3-1.9,0.1-2.7,0.9
	c-0.6,0.7-1.3,1.6-1.4,2.6C137,48.4,138.5,49.7,140.3,49.9z M130.2,143.7c-0.1,0-0.2,0-0.3-0.1c-3.9,2.9-5.2,9.2,0.6,11.1
	C137.7,156.8,138.4,142.4,130.2,143.7z M116,165c-1.8,1.8-1.5,5.6,1.8,5.1c1.6-0.2,2.7-1.6,2-3.2C119,165.1,117.5,165.4,116,165z
	 M79.2,121.4L79.2,121.4C79.1,121.4,79.1,121.4,79.2,121.4c-0.7,0.4-1.2,0.9-1.8,1.5c-0.3,0.3-0.6,0.4-1,0.4
	c-4.3,4-5.6,11.8-3.1,16.8c3.2,6.2,11,8,16.7,4.1c5.5-3.7,6.6-11.5,3.3-17C90.7,122.9,84,118.6,79.2,121.4z M86.1,189.6
	c-13.6-2.4-14.3,22-1,19.1c4.6-1,7.6-5.2,7.2-9.8C91.9,194.5,89,192.3,86.1,189.6z M86.6,220.1c-1-0.4-1.8,0-2.6,0.4
	c-1.2,2.3,1,5.7,3.5,3.2C88.8,222.5,88.3,220.7,86.6,220.1z M59.9,103.9c-0.1,0.2-0.2,0.4-0.5,0.6c-1.6,1.1-2.7,2.4-2.3,4.5
	c0.4,1.7,2,2.6,3.7,2.3c1.9-0.3,3.3-1.8,3-3.8C63.4,105.6,61.7,104.3,59.9,103.9z"/>
<path class="st2" d="M272.9,91.8c-0.2-0.7-0.8-1.2-1.7-1.3c-13.8-0.6-27.7-0.7-41.6-1.4c-6.6-0.3-45.6,0.8-47.9-6.4
	c-0.1-0.4-0.4-0.5-0.7-0.5c-11-20.1-17.4-41.7-26.2-62.8c-3.3-7.9-8.1-22.6-17.8-18.7c-0.5-0.7-1.6-1.1-2.4-0.2
	c-16.9,18.3-24.6,45.9-34.3,69.6c-0.1,0.1-0.2,0.2-0.3,0.4C94,91,51,86.1,34.3,87.2c-10,0.7-21.8-1-30,5.5c-0.3,0.2-0.4,0.5-0.5,0.8
	c-8.4,5.1-1.2,17.8,4.6,23.1C26,133,46.7,147.2,66,161.4c9,15.2-4.3,39.6-9.5,54.9c-5,14.8-10.1,29.7-12.4,45.2
	c-0.1,0.6,0.2,1.2,0.6,1.5c0.2,5.4,7.7,7.8,13.6,6.4c11.8-2.9,25.2-16.9,35-24.1c14.2-10.4,28.6-20.7,42.6-31.3
	c0.2-0.1,0.3-0.3,0.4-0.4c19.5,2.5,41.1,21,57.5,30.7c12.2,7.2,24,15.8,37.9,19.5c0.4,0.1,0.8,0,1.1-0.1c9.1,1.8,4.7-17.7,3.8-21.7
	c-5.6-25.2-20.6-47.3-28.7-71.8c5.1-17.5,29-32.5,41.4-44c10.4-9.5,20.1-18.7,25.4-31.9C275.1,93.1,274,92.1,272.9,91.8z
	 M225.6,142.4c-7.4,6.8-17.5,13.9-19.9,23.7c-0.9-0.2-2,0.6-1.8,1.8c2.4,13.1,8,24.9,13.7,36.9c1.4,2.9,22.8,50.7,15.6,56
	c-0.2-0.2-0.4-0.4-0.8-0.5c-21.3-7.4-40.7-21.8-60-33.2c-11.1-6.5-22.8-17.1-36-15.9c-0.5-0.8-1.4-1.3-2.5-0.6
	c-13.5,9.5-26.8,19.4-40.1,29.1c-6.2,4.6-12.4,9.2-18.6,13.7c-2,1.4-24.8,20.9-28,8c6.9-24.1,14.7-47.7,22.6-71.5
	c3.2-9.8,6.7-20.4,0-27.9c0.6-0.9,0.7-2.3-0.4-3.1c-10.6-8.1-21.3-16.2-31.9-24.3c-8.2-6.3-40.6-24-32-39.1c0.2,0,0.5,0,0.8-0.2
	c10.1-6.2,29.9-4.3,41.6-5c11-0.6,22.5-0.2,33.4-1.8c5.3-0.8,9.8-2.2,13.2-4.6c0.4,0.4,1,0.6,1.5,0c16.8-24.8,20.1-58.2,40.3-80.7
	c15.1,1.1,22.3,37.5,26.4,48.3c4.6,12.2,9.7,24.1,17.1,34.8c0.3,0.5,0.8,0.7,1.2,0.7c3,4.6,12.3,3.8,17.4,4.3
	c23.8,2,47.9,3.4,71.7,2.9C261.2,114,241.2,128,225.6,142.4z M260.4,101.9c-0.7,4.1-3.8,7.2-7.4,9c-0.8,0.4-1.4-0.7-0.7-1.1
	c3.3-2,5.2-5,6.7-8.4C259.4,100.5,260.5,101.2,260.4,101.9z M253.2,105.8c-1.7,2.2-3.7,4.1-5.5,6c-0.6,0.7-1.6-0.3-1-1
	c1.8-2,3.6-4.1,5.6-5.9C252.9,104.3,253.7,105.2,253.2,105.8z M207.5,243.3c-0.6-0.6,0.3-1.4,0.8-0.8c2.3,2.1,4.7,3.1,7.4,4.5
	c0.7,0.4,0.2,1.3-0.5,1.2c-1.4-0.2-2.7-0.8-3.9-1.5c-0.1-0.1-0.2-0.2-0.4-0.2C209.7,245.4,208.5,244.4,207.5,243.3z M214.5,111.1
	c0.7,2.4-0.5,4.7-2.7,5.7c-0.7,0.3-1.3-0.7-0.6-1c1.6-0.8,2.5-2.5,2.2-4.3C213.2,110.7,214.2,110.4,214.5,111.1z M213.2,103.8
	c-1.3-3-6.5-4.3-8.8-1.6c-2.4,1-4.1,3.5-3.7,6.3c0.6,3.4,4.4,5.6,7.7,4.8C212.2,112.3,214.8,107.3,213.2,103.8z M207.6,111
	c-2,0.4-4.5-1-4.9-3.1c-0.3-1.7,0.6-3.4,1.9-4.4c0.1,0.1,0.3,0.2,0.4,0.2c2.1,0.1,4.9-1.6,6,1.3C212,107.2,210,110.5,207.6,111z
	 M211.4,246.6c0.2,0.3,0,0.9-0.4,0.9c-3.4-0.1-6.4-1.7-8.3-4.6c-0.5-0.7,0.6-1.4,1.1-0.9c2,2.2,4.4,3.7,7.2,4.3
	C211.1,246.4,211.3,246.5,211.4,246.6z M195.9,199.2c-5.9-1-11.6,3.2-12.3,9.6c-0.7,6.5,4.8,12.1,11.3,12.3
	c6.8,0.3,12.2-5.7,12.1-12.3C206.9,202.4,201.7,198.3,195.9,199.2z M194.9,217.7c-10.3-0.5-9.8-13.7-2-16.5c0.1,0.5,0.6,0.9,1.3,0.7
	C206.7,198.3,206.4,218.3,194.9,217.7z M204.8,178.7c0.4,0.5-0.3,1.3-0.8,0.8c-2.1-2.3-2.7-5.1-1.9-8.1c0.2-0.7,1.3-0.4,1.1,0.3
	C202.7,174.2,203.3,176.7,204.8,178.7z M196.7,175.8c-0.2-0.8,1-1.1,1.2-0.3c0.8,3.2,2.6,5.9,5,8.2c0.6,0.6-0.3,1.5-1,1
	C199.2,182.3,197.5,179.3,196.7,175.8z M184.1,131.8c8.1-2.6,12.5-11.9,9.7-19.9c-2.3-6.3-10-10.6-16.1-7.5
	c-7.2,1.3-12.2,8.2-11.3,15.8C167.5,128.7,175.8,134.5,184.1,131.8z M176.3,107c0.2,0.1,0.4,0.2,0.6,0.1c16-5.6,20,18.5,5.6,22.1
	c-7.2,1.8-13.3-4.1-13.4-11.1C169.1,112.9,172.2,109.1,176.3,107z M185.1,175.4c-2.5-3.2-7.9-3.4-10.3-0.1c-2.6,1.3-4.2,4.4-3.3,7.5
	c1.4,4.9,7.1,6.8,11.3,4.3C186.8,184.7,188.1,179.1,185.1,175.4z M181.9,184c-2.3,1.9-5.7,1.6-7.3-1c-1.9-3.1,0.8-6.7,4.1-7.1
	c0.4,0,0.5-0.3,0.5-0.6c1.4-0.2,2.9,0.2,3.8,1.7C184.6,179.2,184,182.3,181.9,184z M182.5,202c-1.6,1.1-2.5,3.1-1.8,4.9
	c0.3,1-1.2,1.4-1.5,0.4c-0.9-2.7,0.2-5.4,2.9-6.4C182.7,200.8,183,201.7,182.5,202z M177.8,198.7c-1.7,1.5-2.9,3.4-3.3,5.7
	c-0.2,0.9-1.8,0.7-1.6-0.2c0.3-2.8,1.6-5.1,4-6.6C177.6,197.1,178.5,198.2,177.8,198.7z M169.4,171.1c-0.8,0.2-1.1-1-0.4-1.2
	c2.9-0.9,6-0.9,8.6,0.6c0.7,0.4,0.2,1.4-0.5,1.2C174.5,170.9,172.1,170.5,169.4,171.1z M162,100.2c-0.9,0.6-1.6-0.8-0.8-1.4
	c2.8-2.2,6.4-2.5,9.5-0.8c0.8,0.4,0.2,1.9-0.6,1.5C167.3,98.5,164.4,98.6,162,100.2z M168.6,102.9c-1.3,0.7-2.5,1.4-3.3,2.7
	c-0.6,0.8-1.9,0.1-1.3-0.8c1-1.6,2.2-2.8,4.1-3.2C168.9,101.4,169.3,102.5,168.6,102.9z M148.7,22.3c0.2,0.6-0.7,0.8-0.9,0.2
	c-0.8-2.3-1.6-4.7-2.4-7c-0.1-0.5,0.5-0.6,0.7-0.2C146.9,17.6,147.8,19.9,148.7,22.3z M148.2,24.3c0.2,0.7-0.9,1-1.1,0.3
	c-0.8-2.2-1.7-4.4-2.9-6.4c-0.3-0.6,0.6-1.1,1-0.6C146.5,19.7,147.5,21.9,148.2,24.3z M132.3,66.3c-0.4,0.1-0.6,0.4-0.7,0.6
	c-5.8,1.5-9.9,6.8-9.1,13.3c0.8,7,7.8,11.7,14.6,10.6c6.4-1,11-7.4,10.2-13.9C146.6,70.2,139.1,64.2,132.3,66.3z M136.8,88
	c-5.1,1-10.5-2.5-11.5-7.6c-1.1-5.6,2.5-9.8,7.2-11.9c0.1,0,0.2,0.1,0.3,0.1c5.2,0,10.5,1.9,11.7,7.7C145.3,81.4,141.9,87,136.8,88z
	 M134.5,46c-0.7,3.3,1.9,6.2,5.1,6.6c3,0.4,6-1.4,6.5-4.5c0.4-2.9-1.4-5.9-4.3-6.4c-0.1-0.1-0.1-0.2-0.2-0.2
	c-1.5-0.7-3.1,0.1-4.5,0.8C135.8,43,134.9,44.5,134.5,46z M137.3,46.6c0.1-1,0.8-1.8,1.4-2.6c0.8-0.8,1.6-0.6,2.7-0.9l0,0
	c3,1.6,3.1,7.2-1.2,6.8C138.5,49.7,137,48.4,137.3,46.6z M144.1,154.6c-0.4,1.2-0.9,2.4-1.4,3.6c-0.3,0.6-1.3,0.4-1.1-0.3
	c0.5-1.2,0.9-2.5,1.4-3.7C143.4,153.7,144.3,154.1,144.1,154.6z M140,156.2c-0.4,0.3-1.1-0.4-0.8-0.8c1.5-1.9,2.1-3.7,2.8-6
	c0.2-0.7,1.1-0.4,1.1,0.2C143.5,152,142,154.6,140,156.2z M132.1,101.1c2.6-0.2,4.9-1.3,7-2.9c0.7-0.6,1.6,0.3,1,1
	c-2.2,2.2-5,3.2-8,3.3C131.2,102.5,131.2,101.2,132.1,101.1z M130.7,141.8c0,0-0.1,0-0.2,0c-4.1,0.4-7.2,4.2-6.9,8.4
	c0.4,4.5,4.7,8,9.1,7.6c5.1-0.4,7.2-6.3,6.1-10.7C138,143.4,134.3,140.6,130.7,141.8z M130.5,154.6c-5.8-1.8-4.5-8.2-0.6-11.1
	c0.1,0,0.2,0.1,0.3,0.1C138.4,142.5,137.7,156.8,130.5,154.6z M138,97.2c-2.4,2-5.5,2-8,0c-0.6-0.5,0.2-1.4,0.8-1
	c2,1.3,4.4,1.2,6.4-0.1C137.9,95.7,138.6,96.7,138,97.2z M133.1,42.3c0.4-2.2,1.8-3.7,3.9-4.4c0.7-0.2,1,0.8,0.3,1.1
	c-1.6,0.6-2.8,1.8-3.4,3.5C133.7,43.1,133,42.9,133.1,42.3z M115.7,163.6c-1.9,0.8-3.3,2.6-3.1,4.9c0.2,2.8,3,4.4,5.6,3.9
	c2.7-0.5,4.7-2.9,3.9-5.7C121.6,164.6,117.8,161.5,115.7,163.6z M117.8,170.1c-3.3,0.5-3.7-3.3-1.8-5.1c1.5,0.4,3,0.1,3.8,1.9
	C120.5,168.5,119.4,169.9,117.8,170.1z M103.2,196.7c0,3.8-1.6,7.3-4.3,10c-0.6,0.6-1.4-0.3-0.9-0.9c2.2-2.7,3.4-5.8,3.9-9.2
	C102,195.7,103.2,196,103.2,196.7z M97.3,206c-0.3,0.4-1,0.2-0.8-0.4c0.8-2.2,1.3-4.3,1.9-6.5c0.2-0.6,1-0.5,1.1,0.1
	C99.6,201.6,98.7,204,97.3,206z M90.6,92.3c2.8-1.4,5.3-3.1,7.9-4.8c0.6-0.4,1.4,0.6,0.8,1c-2.3,2.1-5.1,3.6-8,4.9
	C90.5,93.8,89.9,92.7,90.6,92.3z M87.9,89c2.9,0.2,5.4-0.9,7.6-2.8c0.7-0.6,1.5,0.3,1,1c-2.1,2.5-5.3,3.5-8.5,3.2
	C87,90.3,87,89,87.9,89z M91.9,147c7.6-5.2,8.6-16.3,3-23.3c-4.5-5.6-14.7-9.6-19.7-2.5c0,0,0,0,0,0.1c-5.8,3.3-7.4,13.3-5.1,19
	C73.4,149,84.2,152.3,91.9,147z M76.4,123.3c0.3,0,0.7-0.1,1-0.4c0.5-0.6,1.1-1,1.7-1.4c0,0,0,0,0.1,0l0,0
	c4.8-2.8,11.5,1.5,14.1,5.8c3.3,5.5,2.2,13.3-3.3,17c-5.7,3.8-13.5,2.1-16.7-4.1C70.9,135.1,72.2,127.3,76.4,123.3z M86.6,187.9
	c-0.3,0-0.6,0.1-0.8,0.4c-13.4-4.4-19.2,20.1-4.5,23.3c5.9,1.3,12.1-2.9,13.6-8.5C96.5,197.4,93,188.9,86.6,187.9z M85,208.7
	c-13.2,2.9-12.6-21.5,1-19.1c2.9,2.7,5.8,4.9,6.2,9.2C92.7,203.5,89.6,207.7,85,208.7z M88.9,219c-1.7-1.3-5.9-1.8-6.5,0.9
	c0,0.1,0,0.2,0,0.2c-0.8,1.2-1.1,2.9-0.5,4.3c1.2,2.8,4.5,3.1,6.8,1.4C90.9,224.1,91.2,220.8,88.9,219z M87.5,223.8
	c-2.5,2.5-4.7-0.9-3.5-3.2c0.8-0.4,1.5-0.8,2.6-0.4C88.3,220.7,88.8,222.5,87.5,223.8z M70.4,249.3c-2.3,3.1-5.3,5.2-9,6.4
	c-0.8,0.3-1.4-1-0.6-1.4c3.3-1.4,5.9-3.4,8.4-5.9C69.8,247.9,70.9,248.6,70.4,249.3z M68,254.6c-1.7,1.3-3.4,2.7-5.1,4
	c-0.2,0.2-0.5-0.1-0.3-0.3c1.6-1.4,3.3-2.7,5-4.1C67.8,254,68.2,254.4,68,254.6z M67.4,129.6c-0.5,1.4-0.8,2.9-1,4.3
	c-0.1,0.8-1.3,0.9-1.3,0c0-1.6,0.4-3.1,1-4.7C66.4,128.4,67.8,128.7,67.4,129.6z M66.4,107.6c-0.5-3.1-3.7-5.7-6.8-4.7
	c-0.2-0.2-0.5-0.4-0.9-0.4c0,0-0.1,0-0.2,0c-3,0.5-4.6,4.4-4.1,7.1c0.6,3.3,3.7,5.2,7,4.7C64.5,113.6,67,110.9,66.4,107.6z
	 M60.8,111.3c-1.7,0.2-3.3-0.6-3.7-2.3c-0.5-2.1,0.7-3.4,2.3-4.5c0.2-0.2,0.4-0.4,0.5-0.6c1.8,0.4,3.5,1.8,3.9,3.7
	C64.1,109.5,62.7,111.1,60.8,111.3z M63.9,138.1c0.4,0.7-0.7,1.3-1.1,0.6c-1.8-3-1.8-6.5-0.2-9.6c0.4-0.6,1.2-0.1,1,0.5
	C62.3,132.4,62.5,135.4,63.9,138.1z M29.7,123c-3.1-1.4-5.5-3.4-7.4-6.1c-0.5-0.7,0.6-1.6,1.2-0.9c1.9,2.4,4.3,4.3,7,5.8
	C31.3,122.2,30.6,123.3,29.7,123z M24.7,121.8c0.6,0.6-0.3,1.6-1,1c-2-1.8-4.2-3.9-5.4-6.5c-0.3-0.6,0.4-1.2,1-0.7
	C21.1,117.5,22.7,119.8,24.7,121.8z"/>
</svg>
