<?xml version="1.0" encoding="utf-8"?>
<!-- Generator: Adobe Illustrator 23.0.3, SVG Export Plug-In . SVG Version: 6.00 Build 0)  -->
<svg version="1.1" id="Layer_1" xmlns="http://www.w3.org/2000/svg" xmlns:xlink="http://www.w3.org/1999/xlink" x="0px" y="0px"
	 viewBox="0 0 512 512" style="enable-background:new 0 0 512 512;" xml:space="preserve">
<style type="text/css">
	.st0{fill:#FFB65B;}
	.st1{fill:#FFA828;}
	.st2{fill:#FFDE51;}
	.st3{fill:#FFD400;}
</style>
<g>
	<path class="st0" d="M499.1,235.2l-87.4-43.7l30.9-92.7c2.8-8.4,0.6-17.6-5.6-23.8c-6.2-6.2-15.5-8.4-23.8-5.6l-92.7,30.9
		l-43.7-87.4C272.9,5,264.8,0,256,0c-8.8,0-16.9,5-20.8,12.9l-43.7,87.4L98.8,69.4C90.4,66.6,81.2,68.7,75,75
		c-6.2,6.2-8.4,15.5-5.6,23.8l30.9,92.7l-87.4,43.7C5,239.1,0,247.2,0,256c0,8.8,5,16.9,12.9,20.8l87.4,43.7l-30.9,92.7
		c-2.8,8.4-0.6,17.6,5.6,23.8c6.2,6.2,15.5,8.4,23.8,5.6l92.7-30.9l43.7,87.4c3.9,7.9,12,12.9,20.8,12.9c8.8,0,16.9-5,20.8-12.9
		l43.7-87.4l92.7,30.9c8.4,2.8,17.6,0.6,23.8-5.6c6.2-6.2,8.4-15.5,5.6-23.8l-30.9-92.7l87.4-43.7c7.9-3.9,12.9-12,12.9-20.8
		C512,247.2,507,239.1,499.1,235.2z"/>
	<path class="st1" d="M499.1,235.2l-87.4-43.7l30.9-92.7c2.8-8.4,0.6-17.6-5.6-23.8c-6.2-6.2-15.5-8.4-23.8-5.6l-92.7,30.9
		l-43.7-87.4C272.9,5,264.8,0,256,0v116.4v279.3V512c8.8,0,16.9-5,20.8-12.9l43.7-87.4l92.7,30.9c8.4,2.8,17.6,0.6,23.8-5.6
		c6.2-6.2,8.4-15.5,5.6-23.8l-30.9-92.7l87.4-43.7c7.9-3.9,12.9-12,12.9-20.8C512,247.2,507,239.1,499.1,235.2z"/>
	<path class="st2" d="M256,116.4c-77,0-139.6,62.6-139.6,139.6S179,395.6,256,395.6S395.6,333,395.6,256S333,116.4,256,116.4z"/>
	<path class="st3" d="M256,116.4v279.3c77,0,139.6-62.6,139.6-139.6C395.6,179,333,116.4,256,116.4z"/>
</g>
</svg>
