<?xml version="1.0" encoding="utf-8"?>
<!-- Generator: Adobe Illustrator 23.0.3, SVG Export Plug-In . SVG Version: 6.00 Build 0)  -->
<svg version="1.1" id="Layer_1" xmlns="http://www.w3.org/2000/svg" xmlns:xlink="http://www.w3.org/1999/xlink" x="0px" y="0px"
	 viewBox="0 0 512 256" style="enable-background:new 0 0 512 256;" xml:space="preserve">
<style type="text/css">
	.st0{fill:#007784;}
	.st1{fill:#004555;}
	.st2{fill:#00CEA6;}
	.st3{fill:#934DAA;}
	.st4{fill:#3C117F;}
	.st5{fill:#D9FCF5;}
</style>
<path class="st0" d="M289.4,116.9c0,6.1-5,11.1-11.1,11.1h-44.5c-6.1,0-11.1-5-11.1-11.1s5-11.1,11.1-11.1h44.5
	C284.4,105.7,289.4,110.7,289.4,116.9z"/>
<path class="st1" d="M512,244.9c0,6.1-5,11.1-11.1,11.1s-11.1-5-11.1-11.1c0-12.3-10-22.3-22.3-22.3h-55.7c-6.1,0-11.1-5-11.1-11.1
	s5-11.1,11.1-11.1h55.7C492,200.3,512,220.3,512,244.9z M100.2,200.3H44.5C20,200.3,0,220.3,0,244.9C0,251,5,256,11.1,256
	s11.1-5,11.1-11.1c0-12.3,10-22.3,22.3-22.3h55.7c6.1,0,11.1-5,11.1-11.1C111.3,205.3,106.3,200.3,100.2,200.3z M315,175.3H197
	c-6.1,0-11.1,5-11.1,11.1s5,11.1,11.1,11.1h118c6.1,0,11.1-5,11.1-11.1S321.1,175.3,315,175.3z"/>
<path class="st2" d="M233.7,89v55.7c0,49.2-39.9,89-89,89H89c-49.2,0-89-39.9-89-89V89C0,39.8,39.9,0,89,0h55.7
	C193.9,0,233.7,39.9,233.7,89z M423,0h-55.7c-49.2,0-89,39.9-89,89v55.7c0,49.2,39.9,89,89,89H423c49.2,0,89-39.9,89-89V89
	C512,39.9,472.1,0,423,0z"/>
<path class="st3" d="M211.5,89v55.7c0,36.9-29.9,66.8-66.8,66.8H89c-36.9,0-66.8-29.9-66.8-66.8V89c0-36.9,29.9-66.8,66.8-66.8h55.7
	C181.6,22.3,211.5,52.2,211.5,89z M423,22.3h-55.7c-36.9,0-66.8,29.9-66.8,66.8v55.7c0,36.9,29.9,66.8,66.8,66.8H423
	c36.9,0,66.8-29.9,66.8-66.8V89C489.7,52.2,459.8,22.3,423,22.3z"/>
<path class="st4" d="M211.5,89v55.7c0,36.9-29.9,66.8-66.8,66.8H89c-36.9,0-66.8-29.9-66.8-66.8V89c0,36.9,29.9,66.8,66.8,66.8h55.7
	C181.6,155.8,211.5,125.9,211.5,89z M423,155.8h-55.7c-36.9,0-66.8-29.9-66.8-66.8v55.7c0,36.9,29.9,66.8,66.8,66.8H423
	c36.9,0,66.8-29.9,66.8-66.8V89C489.7,125.9,459.8,155.8,423,155.8z"/>
<path class="st5" d="M439.7,68.5v-2.2c0-6.1,5-11.1,11.1-11.1s11.1,5,11.1,11.1v2.2c0,6.1-5,11.1-11.1,11.1
	C444.6,79.6,439.7,74.6,439.7,68.5z M172.5,99.6c-6.1,0-11.1,5-11.1,11.1c0,24.6-20,44.5-44.5,44.5s-44.5-20-44.5-44.5
	c0-6.1-5-11.1-11.1-11.1s-11.1,5-11.1,11.1c0,36.8,30,66.8,66.8,66.8s66.8-30,66.8-66.8C183.7,104.6,178.7,99.6,172.5,99.6z
	 M172.5,52.9c-6.1,0-11.1,5-11.1,11.1v2.2c0,6.1,5,11.1,11.1,11.1s11.1-5,11.1-11.1V64C183.7,57.9,178.7,52.9,172.5,52.9z
	 M450.8,99.6c-6.1,0-11.1,5-11.1,11.1c0,24.5-20,44.5-44.5,44.5s-44.5-20-44.5-44.5c0-6.1-5-11.1-11.1-11.1s-11.1,5-11.1,11.1
	c0,36.8,30,66.8,66.8,66.8s66.8-30,66.8-66.8C461.9,104.6,456.9,99.6,450.8,99.6z"/>
</svg>
