<?xml version="1.0" encoding="utf-8"?>
<!-- Generator: Adobe Illustrator 23.0.3, SVG Export Plug-In . SVG Version: 6.00 Build 0)  -->
<svg version="1.1" id="Layer_1" xmlns="http://www.w3.org/2000/svg" xmlns:xlink="http://www.w3.org/1999/xlink" x="0px" y="0px"
	 viewBox="0 0 504.1 460.8" style="enable-background:new 0 0 504.1 460.8;" xml:space="preserve">
<style type="text/css">
	.st0{fill:#997A59;}
	.st1{fill:#A2B9BC;}
	.st2{fill:#FFA300;}
	.st3{fill:#FFC200;}
	.st4{fill:#65930C;}
	.st5{fill:#FF4800;}
	.st6{fill:#B5440B;}
	.st7{fill:#7A300B;}
</style>
<path class="st0" d="M74.4,276.1L26.3,447.9c-0.4,1.6-2.5,2.4-4.6,1.8s-3.5-2.3-3-3.9L66.8,274c0.4-1.6,2.5-2.4,4.6-1.8
	C73.5,272.8,74.8,274.5,74.4,276.1z M486.6,445.7l-48.1-171.8c-0.4-1.6-2.5-2.4-4.6-1.8s-3.4,2.3-3,3.9L479,447.9
	c0.5,1.6,2.5,2.4,4.6,1.8C485.7,449,487,447.3,486.6,445.7z"/>
<path class="st1" d="M261.8,168c0,5.1-4.1,9.2-9.2,9.2l0,0c-5.1,0-9.2-4.1-9.2-9.2V9.2c0-5.1,4.1-9.2,9.2-9.2l0,0
	c5.1,0,9.2,4.1,9.2,9.2V168z"/>
<path class="st2" d="M443.7,452.9V289.2c0-14.6-7.8-28-20.4-35.3L273,167.1c-12.6-7.3-28.2-7.3-40.8,0L82,253.8
	c-12.6,7.3-20.4,20.8-20.4,35.3v163.7h382.1V452.9z"/>
<path class="st3" d="M441.4,349.8l2.2,2.2v35.6l-14,14l-17.2-17.2l-17.2,17.2L378,384.5l-17.2,17.2l-17.2-17.2l-17.2,17.2
	l-17.2-17.2L292,401.7l-17.2-17.2l-17.2,17.2l-17.2-17.2L223,401.7l-17.2-17.2l-17.2,17.2l-17.2-17.2l-17.2,17.2L137,384.5
	l-17.2,17.2l-17.2-17.2l-17.2,17.2l-17.2-17.2l-6.5,6.5v-40.1l1.1-1.1L80,367l17.2-17.2l17.2,17.2l17.2-17.2l17.2,17.2l17.2-17.2
	l17.2,17.2l17.2-17.2l17.2,17.2l17.2-17.2L252,367l17.2-17.2l17.2,17.2l17.2-17.2l17.2,17.2l17.2-17.2l17.2,17.2l17.2-17.2
	l17.2,17.2l17.2-17.2L424,367L441.4,349.8z M423.3,253.8L273,167.1c-12.6-7.3-28.2-7.3-40.8,0L82,253.8
	c-12.6,7.3-20.4,20.8-20.4,35.3h382C443.7,274.6,435.9,261.2,423.3,253.8z"/>
<polygon class="st4" points="475.9,432.5 458.7,449.7 441.4,432.5 424.2,449.7 407,432.5 389.8,449.7 372.6,432.5 355.4,449.7 
	338.2,432.5 320.9,449.7 303.7,432.5 286.5,449.7 269.3,432.5 252.1,449.7 234.8,432.5 217.6,449.7 200.4,432.5 183.2,449.7 
	166,432.5 148.8,449.7 131.6,432.5 114.3,449.7 97.1,432.5 79.9,449.7 62.7,432.5 45.5,449.7 28.2,432.5 0,460.8 34.4,460.8 
	56.5,460.8 68.9,460.8 90.9,460.8 103.3,460.8 125.4,460.8 137.7,460.8 159.8,460.8 172.2,460.8 194.2,460.8 206.6,460.8 
	228.6,460.8 241,460.8 263.1,460.8 275.5,460.8 297.5,460.8 309.9,460.8 332,460.8 344.3,460.8 366.4,460.8 378.8,460.8 
	400.8,460.8 413.2,460.8 435.3,460.8 447.6,460.8 469.7,460.8 504.1,460.8 "/>
<polygon class="st5" points="256.8,11.7 256.8,94.9 364.8,53.3 "/>
<polygon class="st6" points="320.6,451.6 252.6,299.3 184.7,451.6 "/>
<polygon class="st7" points="250.5,451.6 252.6,299.3 184.7,451.6 "/>
</svg>
