<?xml version="1.0" encoding="utf-8"?>
<!-- Generator: Adobe Illustrator 23.0.3, SVG Export Plug-In . SVG Version: 6.00 Build 0)  -->
<svg version="1.1" id="Layer_1" xmlns="http://www.w3.org/2000/svg" xmlns:xlink="http://www.w3.org/1999/xlink" x="0px" y="0px"
	 viewBox="0 0 58.4 14.8" style="enable-background:new 0 0 58.4 14.8;" xml:space="preserve">
<style type="text/css">
	.st0{fill:#0998BA;}
	.st1{fill:#064F5B;}
	.st2{fill:#EDEDED;}
	.st3{fill:#FFFFFF;}
	.st4{font-family:'RobotoSlab-Bold';}
	.st5{font-size:4.6119px;}
</style>
<polygon id="XMLID_252_" class="st0" points="52.5,14.8 0,14.8 5.9,0 58.4,0 "/>
<polygon id="XMLID_251_" class="st1" points="22.6,0 16.7,14.8 13.3,14.8 19.2,0 "/>
<polygon id="XMLID_250_" class="st2" points="20.8,0 14.9,14.8 0,14.8 5.9,0 "/>
<g id="XMLID_133_">
	<g id="XMLID_136_">
		<path id="XMLID_137_" class="st0" d="M9.8,9.3c-1.1,0-2-0.9-2-2C7.8,7,7.9,6.7,8,6.4c0.1-0.2,0.4-0.3,0.6-0.2
			c0.2,0.1,0.3,0.4,0.2,0.6C8.7,7,8.7,7.1,8.7,7.3c0,0.6,0.5,1.1,1.1,1.1s1.1-0.5,1.1-1.1c0-0.2,0-0.3-0.1-0.5s0-0.5,0.2-0.6
			s0.5,0,0.6,0.2c0.1,0.3,0.2,0.6,0.2,0.9C11.8,8.4,10.9,9.3,9.8,9.3z"/>
	</g>
	<g id="XMLID_134_">
		<path id="XMLID_135_" class="st0" d="M9.8,7.1c-0.2,0-0.4-0.2-0.4-0.4v-1c0-0.2,0.2-0.4,0.4-0.4s0.4,0.2,0.4,0.4v1
			C10.3,6.9,10.1,7.1,9.8,7.1z"/>
	</g>
</g>
<text transform="matrix(1 0 0 1 23.5563 9.6008)" class="st3 st4 st5">ACTIVATE</text>
</svg>
