<?xml version="1.0" encoding="utf-8"?>
<!-- Generator: Adobe Illustrator 23.0.3, SVG Export Plug-In . SVG Version: 6.00 Build 0)  -->
<svg version="1.1" id="Layer_1" xmlns="http://www.w3.org/2000/svg" xmlns:xlink="http://www.w3.org/1999/xlink" x="0px" y="0px"
	 viewBox="0 0 72.4 20" style="enable-background:new 0 0 72.4 20;" xml:space="preserve">
<style type="text/css">
	.st0{fill:#F2F2F2;}
	.st1{fill:#FF5192;}
	.st2{fill:#FF005C;}
	.st3{font-family:'Quicksand-Regular';}
	.st4{font-size:6.5214px;}
	.st5{fill:#FFFFFF;}
</style>
<path class="st0" d="M72.4,9.9c0-5.5-4.5-9.9-10-9.9H10C4.5,0,0.1,4.4,0,9.9c0,0,0,0,0,0.1c0,5.5,4.5,10,10,10h52.5
	C67.9,19.9,72.4,15.4,72.4,9.9L72.4,9.9z"/>
<path class="st1" d="M20.8,9.4l-3.1-1.7c-0.9-3-3.8-5.2-7.1-5.2c-4.1,0-7.4,3.3-7.5,7.4h18.1C21.1,9.6,20.8,9.4,20.8,9.4z"/>
<path class="st2" d="M3.1,9.8C3.1,9.9,3.1,9.9,3.1,9.8c0,4.2,3.3,7.5,7.5,7.5c3.2,0,5.9-2,7-4.9l3.3-2c0.4-0.3,0.5-0.5,0.4-0.7H3.1
	V9.8z"/>
<text transform="matrix(1 0 0 1 23.448 12.1861)" class="st1 st3 st4">ADD TO CARD</text>
<path class="st5" d="M13.5,9.1h-2.6V6.6c0-0.4-0.3-0.7-0.7-0.7S9.5,6.2,9.5,6.6v2.5H6.9c-0.4,0-0.7,0.3-0.7,0.7s0.3,0.7,0.7,0.7h2.6
	v2.4c0,0.4,0.3,0.7,0.7,0.7s0.7-0.3,0.7-0.7v-2.6h2.6c0.4,0,0.7-0.3,0.7-0.7C14.1,9.4,13.8,9.1,13.5,9.1z"/>
</svg>
