<?xml version="1.0" encoding="utf-8"?>
<!-- Generator: Adobe Illustrator 23.0.3, SVG Export Plug-In . SVG Version: 6.00 Build 0)  -->
<svg version="1.1" id="Layer_1" xmlns="http://www.w3.org/2000/svg" xmlns:xlink="http://www.w3.org/1999/xlink" x="0px" y="0px"
	 viewBox="0 0 191.5 44" style="enable-background:new 0 0 191.5 44;" xml:space="preserve">
<style type="text/css">
	.st0{fill:#00AEEF;}
	.st1{fill:#FFFFFF;}
	.st2{font-family:'FredokaOne-Regular';}
	.st3{font-size:18px;}
</style>
<path class="st0" d="M191.5,22l-17.8,22h-35.5V0h35.5L191.5,22z M0,43.9h138.2V0H0V43.9z"/>
<text transform="matrix(1 0 0 1 21.3816 26.8945)" class="st1 st2 st3">BOOK NOW</text>
<g>
	<path class="st1" d="M160.9,23.1l-9.8,9.8c-0.6,0.6-1.6,0.6-2.2,0c-0.6-0.6-0.6-1.6,0-2.2l8.6-8.6l-8.6-8.6c-0.6-0.6-0.6-1.6,0-2.2
		c0.6-0.6,1.6-0.6,2.2,0l9.8,9.8c0.3,0.3,0.5,0.7,0.5,1.1C161.4,22.4,161.2,22.8,160.9,23.1z"/>
</g>
</svg>
