<?xml version="1.0" encoding="utf-8"?>
<!-- Generator: Adobe Illustrator 23.0.3, SVG Export Plug-In . SVG Version: 6.00 Build 0)  -->
<svg version="1.1" id="Layer_1" xmlns="http://www.w3.org/2000/svg" xmlns:xlink="http://www.w3.org/1999/xlink" x="0px" y="0px"
	 viewBox="0 0 117.7 49.5" style="enable-background:new 0 0 117.7 49.5;" xml:space="preserve">
<style type="text/css">
	.st0{fill:#7172B5;}
	.st1{fill:#FFFFFF;}
	.st2{font-family:'RobotoSlab-Bold';}
	.st3{font-size:10px;}
</style>
<path class="st0" d="M103.7,10.5H39.5L32.1,3c-4-4-10.6-4-14.6,0L3,17.5c-4,4-4,10.6,0,14.6l14.4,14.4c4,4,10.6,4,14.6,0l7.8-7.8
	h63.8c7.8,0,14.1-6.3,14.1-14.1l0,0C117.8,16.8,111.5,10.5,103.7,10.5z"/>
<path class="st1" d="M17.3,39.4l-7.1-7.1c-4-4-4-10.6,0-14.6l7.1-7.1c4-4,10.6-4,14.6,0l7.1,7.1c4,4,4,10.6,0,14.6l-7.1,7.1
	C27.9,43.4,21.3,43.4,17.3,39.4z"/>
<text transform="matrix(1 0 0 1 55.3823 28.4865)" class="st1 st2 st3">CALL US</text>
<path class="st0" d="M23.3,33.5c0.3-0.7,0.8-1.6,1.1-2.3c0.2-0.6-0.3-1.4-1.3-1.8L22,28.9l4-8.5l1,0.4c1.1,0.5,2.2,0.4,2.5-0.2
	l0.9-2c0.2-0.5-0.3-1.3-1.2-1.7l0,0c-0.6-0.3-1.2-0.4-1.8-0.4h-0.7c-1.7,0.1-3.3,1-4.1,2.4c-0.1,0.1-0.1,0.2-0.2,0.3L18.8,27
	c0,0.1-0.1,0.2-0.1,0.3c-0.6,1.8-0.3,3.8,0.9,5.3l0.6,0.7c0.2,0.3,0.5,0.5,0.8,0.7l0.1,0.1C22.2,34.7,23,34.2,23.3,33.5z"/>
</svg>
