<?xml version="1.0" encoding="utf-8"?>
<!-- Generator: Adobe Illustrator 23.0.3, SVG Export Plug-In . SVG Version: 6.00 Build 0)  -->
<svg version="1.1" id="Layer_1" xmlns="http://www.w3.org/2000/svg" xmlns:xlink="http://www.w3.org/1999/xlink" x="0px" y="0px"
	 viewBox="0 0 62.1 20" style="enable-background:new 0 0 62.1 20;" xml:space="preserve">
<style type="text/css">
	.st0{fill:#B9D1EF;}
	.st1{font-family:'Poppins-Regular';}
	.st2{font-size:5.8186px;}
	.st3{fill:#EDEFEF;}
	.st4{fill:#3D3D3D;}
	.st5{fill:#00979B;}
	.st6{fill:#FDFEFF;}
</style>
<text transform="matrix(1 0 0 1 10.5552 14.0752)" class="st0 st1 st2">Cancel</text>
<path class="st0" d="M61.3,17.5"/>
<path class="st3" d="M52.2,20H9.9C4.4,20,0,15.5,0,10.1V10c0-5.5,4.5-9.9,9.9-9.9h42.2c5.5,0,10,4.5,10,10l0,0
	C62.2,15.5,57.7,20,52.2,20z"/>
<text transform="matrix(1 0 0 1 9.3589 12.0234)" class="st4 st1 st2">Cancel</text>
<path class="st5" d="M52.3,0H29.7l12.8,20h9.7c5.5,0,9.9-4.6,9.9-10.1l0,0C62.2,4.4,57.8,0,52.3,0z"/>
<g>
	<path class="st6" d="M51.2,7.3l-0.7-0.7l-2.8,2.8l-2.8-2.8l-0.7,0.7l2.8,2.8l-2.8,2.8l0.7,0.7l2.8-2.8l2.8,2.8l0.7-0.7l-2.8-2.8
		L51.2,7.3z"/>
</g>
</svg>
