<?xml version="1.0" encoding="utf-8"?>
<!-- Generator: Adobe Illustrator 23.0.3, SVG Export Plug-In . SVG Version: 6.00 Build 0)  -->
<svg version="1.1" id="Layer_1" xmlns="http://www.w3.org/2000/svg" xmlns:xlink="http://www.w3.org/1999/xlink" x="0px" y="0px"
	 viewBox="0 0 161.1 48.2" style="enable-background:new 0 0 161.1 48.2;" xml:space="preserve">
<style type="text/css">
	.st0{fill:#FFFFFF;}
	.st1{fill:none;stroke:#436FB6;stroke-width:6;stroke-miterlimit:10;}
	.st2{fill:#426FB6;}
	.st3{font-family:'Montserrat-Regular';}
	.st4{font-size:11.5516px;}
</style>
<path class="st0" d="M137,48.2H24.1C10.8,48.2,0,37.3,0,24.1l0,0C0,10.8,10.8,0,24.1,0H137c13.2,0,24.1,10.8,24.1,24.1l0,0
	C161.1,37.3,150.3,48.2,137,48.2z"/>
<path class="st1" d="M137.2,43.7H23.9c-10.8,0-19.6-8.8-19.6-19.6l0,0c0-10.8,8.8-19.6,19.6-19.6h113.3c10.8,0,19.6,8.8,19.6,19.6
	l0,0C156.8,34.9,148,43.7,137.2,43.7z"/>
<text transform="matrix(1 0 0 1 57.5959 27.3672)" class="st2 st3 st4">CONTACT US</text>
<path class="st2" d="M28.6,13.5c-5.6-0.2-10.3,4.3-10.5,9.9c-0.1,2.3,0.7,4.5,1.9,6.2l-1.6,4.2l4-1.8c1.6,1.1,3.5,1.8,5.5,1.8
	c5.6,0.2,10.3-4.3,10.5-9.9C38.7,18.3,34.2,13.6,28.6,13.5z M34.5,29.5c-1,1-4.6-0.1-8.1-3.8C22.8,22,22,18.3,23,17.3
	c0.9-0.8,2-2.3,3.5-0.3c1.5,2,0.7,2.5-0.2,3.3c-0.6,0.6,0.6,2.2,1.9,3.6c1.3,1.4,2.8,2.7,3.4,2.1c0.9-0.9,1.5-1.6,3.4,0
	C36.9,27.6,35.4,28.6,34.5,29.5z"/>
</svg>
