<?xml version="1.0" encoding="utf-8"?>
<!-- Generator: Adobe Illustrator 23.0.3, SVG Export Plug-In . SVG Version: 6.00 Build 0)  -->
<svg version="1.1" id="Layer_1" xmlns="http://www.w3.org/2000/svg" xmlns:xlink="http://www.w3.org/1999/xlink" x="0px" y="0px"
	 viewBox="0 0 47.7 17.8" style="enable-background:new 0 0 47.7 17.8;" xml:space="preserve">
<style type="text/css">
	.st0{fill:#F5AC00;}
	.st1{fill:#FFFFFF;}
	.st2{font-family:'Poppins-Regular';}
	.st3{font-size:4.7851px;}
	.st4{fill-rule:evenodd;clip-rule:evenodd;fill:#FFBB00;}
</style>
<path class="st0" d="M40.3,17.2H3c-1.7,0-3-1.3-3-3V3.8c0-1.7,1.3-3,3-3h37.2c1.7,0,3,1.3,3,3v10.3C43.3,15.8,41.9,17.2,40.3,17.2z"
	/>
<text transform="matrix(1 0 0 1 5.5352 10.7969)" class="st1 st2 st3">Contact</text>
<g>
	<path class="st4" d="M29.9,8.9c0,4.9,4,8.9,8.9,8.9s8.9-4,8.9-8.9S43.7,0,38.8,0C33.9-0.1,29.9,3.9,29.9,8.9z"/>
	<path id="XMLID_374_" class="st1" d="M40.7,5.4H37c0,0-0.1,0-0.1,0.1v6.7c0,0.1,0,0.1,0.1,0.1h3.7c0,0,0.1,0,0.1-0.1L40.7,5.4
		C40.8,5.4,40.8,5.4,40.7,5.4z M38.8,12.1c-0.2,0-0.3-0.1-0.3-0.3s0.1-0.3,0.3-0.3s0.3,0.1,0.3,0.3C39.1,11.9,39,12.1,38.8,12.1z
		 M40.5,11.2C40.5,11.2,40.5,11.3,40.5,11.2l-3.3,0.1c0,0-0.1,0-0.1-0.1V5.8c0,0,0-0.1,0.1-0.1h3.3c0,0,0.1,0,0.1,0.1L40.5,11.2
		L40.5,11.2z"/>
</g>
</svg>
