<?xml version="1.0" encoding="utf-8"?>
<!-- Generator: Adobe Illustrator 23.0.3, SVG Export Plug-In . SVG Version: 6.00 Build 0)  -->
<svg version="1.1" id="Layer_1" xmlns="http://www.w3.org/2000/svg" xmlns:xlink="http://www.w3.org/1999/xlink" x="0px" y="0px"
	 viewBox="0 0 85 19" style="enable-background:new 0 0 85 19;" xml:space="preserve">
<style type="text/css">
	.st0{fill:#008FA4;}
	.st1{fill:#FFFFFF;}
	.st2{font-family:'Calibri';}
	.st3{font-size:7px;}
</style>
<path class="st0" d="M62.8,0v19H5.5c-3,0-5.5-2.5-5.5-5.5v-8C0,2.5,2.5,0,5.5,0H62.8z M85,5.5v8c0,3.1-2.5,5.5-5.5,5.5H63V0h16.5
	C82.5,0,85,2.5,85,5.5z M80,9.5c0-1.3-0.8-2.5-2-3.4c0.9,0.7,1.4,1.7,1.4,2.7c0,0.9-0.4,1.8-1.2,2.5l0.2,1.8l-2.1-0.7
	c-0.8,0.3-1.7,0.5-2.6,0.5c-3.1,0-5.7-1.8-5.7-4.1c0-1.7,1.4-3.1,3.3-3.7C68.8,5.7,67,7.5,67,9.5c0,2.6,2.9,4.7,6.5,4.7
	c1.2,0,2.2-0.2,3.2-0.6l2.3,0.8l-0.3-2.1C79.5,11.5,80,10.5,80,9.5z"/>
<text transform="matrix(1 0 0 1 7.1667 11.663)" class="st1 st2 st3">Customer Support</text>
<g id="Layer_3">
</g>
<g id="Layer_4">
</g>
</svg>
