<?xml version="1.0" encoding="utf-8"?>
<!-- Generator: Adobe Illustrator 23.0.3, SVG Export Plug-In . SVG Version: 6.00 Build 0)  -->
<svg version="1.1" id="Layer_1" xmlns="http://www.w3.org/2000/svg" xmlns:xlink="http://www.w3.org/1999/xlink" x="0px" y="0px"
	 viewBox="0 0 60.9 17.8" style="enable-background:new 0 0 60.9 17.8;" xml:space="preserve">
<style type="text/css">
	.st0{fill:#F2F2F2;}
	.st1{fill:#3D3D3D;}
	.st2{font-family:'Poppins-Regular';}
	.st3{font-size:5.2119px;}
	.st4{fill:#F76D59;}
	.st5{fill:#FDFEFF;}
</style>
<path class="st0" d="M52,17.8H9c-5,0-9-4-9-8.9l0,0C0,4,4,0,8.9,0h43c4.9,0,8.9,4,8.9,8.9l0,0C60.9,13.8,56.9,17.8,52,17.8z"/>
<text transform="matrix(1 0 0 1 7.9482 10.8333)" class="st1 st2 st3">Delete</text>
<path class="st4" d="M52,0h-8.8v17.8H52c4.9,0,8.9-4,8.9-8.9l0,0C60.9,4,56.9,0,52,0z"/>
<path class="st5" d="M49.1,12.3c0,0.2,0.2,0.4,0.4,0.4h3.6c0.2,0,0.4-0.2,0.4-0.4l0.3-5.4h-4.9L49.1,12.3z M52.1,8.2
	c0-0.1,0.1-0.2,0.2-0.2h0.3c0.1,0,0.2,0.1,0.2,0.2v3.1c0,0.1-0.1,0.2-0.2,0.2h-0.3c-0.1,0-0.2-0.1-0.2-0.2V8.2z M51,8.2
	C51,8.1,51.1,8,51.2,8h0.3c0.1,0,0.2,0.1,0.2,0.2v3.1c0,0.1-0.1,0.2-0.2,0.2h-0.3c-0.1,0-0.2-0.1-0.2-0.2V8.2z M49.9,8.2
	C49.9,8.1,50,8,50.1,8h0.3c0.1,0,0.2,0.1,0.2,0.2v3.1c0,0.1-0.1,0.2-0.2,0.2h-0.3c-0.1,0-0.2-0.1-0.2-0.2
	C49.9,11.3,49.9,8.2,49.9,8.2z M53.9,5.4h-1.7h-1.9h-1.7c-0.1,0-0.2,0.1-0.2,0.2v0.8h5.7V5.6C54.2,5.5,54,5.4,53.9,5.4L53.9,5.4z"/>
</svg>
