<?xml version="1.0" encoding="utf-8"?>
<!-- Generator: Adobe Illustrator 23.0.3, SVG Export Plug-In . SVG Version: 6.00 Build 0)  -->
<svg version="1.1" id="Layer_1" xmlns="http://www.w3.org/2000/svg" xmlns:xlink="http://www.w3.org/1999/xlink" x="0px" y="0px"
	 viewBox="0 0 160.5 41.6" style="enable-background:new 0 0 160.5 41.6;" xml:space="preserve">
<style type="text/css">
	.st0{fill:#22CC05;}
	.st1{fill:none;}
	.st2{fill:#F5F5F5;}
	.st3{font-family:'OpenSans-Bold';}
	.st4{font-size:13.2398px;}
	.st5{fill:#1CA300;}
</style>
<path class="st0" d="M156.5,0h-36.1H4C1.8,0,0,1.8,0,4v1.5v30.6c0,2.2,1.8,4,4,4h116.4h36.1c2.2,0,4-1.8,4-4V5.5V4
	C160.5,1.8,158.7,0,156.5,0z"/>
<rect y="13" class="st1" width="120.4" height="24.1"/>
<text transform="matrix(1 0 0 1 19.7447 23.0345)" class="st2 st3 st4">DOWNLOAD</text>
<path class="st5" d="M156.5,40.1h-36.1H4c-2.2,0-4-1.8-4-4v1.5c0,2.2,1.8,4,4,4h116.4h36.1c2.2,0,4-1.8,4-4v-1.5
	C160.5,38.3,158.7,40.1,156.5,40.1z M140.4,9.5c5.8,0,10.5,4.7,10.5,10.5s-4.7,10.5-10.5,10.5s-10.5-4.7-10.5-10.5
	S134.6,9.5,140.4,9.5z"/>
<polygon class="st1" points="141.6,15.3 129.5,15.3 135.5,20.8 "/>
<rect x="119.7" class="st2" width="0.7" height="41.6"/>
<polygon class="st2" points="140.4,26 146,20.3 141.8,20.3 141.8,14.7 139,14.7 139,20.3 134.8,20.3 "/>
</svg>
