<?xml version="1.0" encoding="utf-8"?>
<!-- Generator: Adobe Illustrator 23.0.3, SVG Export Plug-In . SVG Version: 6.00 Build 0)  -->
<svg version="1.1" id="Layer_1" xmlns="http://www.w3.org/2000/svg" xmlns:xlink="http://www.w3.org/1999/xlink" x="0px" y="0px"
	 viewBox="0 0 200 47.2" style="enable-background:new 0 0 200 47.2;" xml:space="preserve">
<style type="text/css">
	.st0{fill:#C7C6C6;}
	.st1{fill:url(#SVGID_1_);}
	.st2{fill:#F5F6F6;}
	.st3{fill:none;}
	.st4{fill:#B4D33A;}
	.st5{font-family:'OpenSans-Bold';}
	.st6{font-size:16.4999px;}
	.st7{fill:url(#SVGID_2_);}
	.st8{fill:url(#SVGID_3_);}
	.st9{fill:#B3D33A;}
</style>
<g>
	<path class="st0" d="M200,37.2c0,5.5-4.5,10-10,10H10c-5.5,0-10-4.5-10-10v-7.5c0-5.5,4.5-10,10-10h180c5.5,0,10,4.5,10,10V37.2z"
		/>
</g>
<linearGradient id="SVGID_1_" gradientUnits="userSpaceOnUse" x1="20.943" y1="46.316" x2="20.943" y2="-0.1994" gradientTransform="matrix(1 0 0 -1 0 46.316)">
	<stop  offset="0" style="stop-color:#F5F6F6"/>
	<stop  offset="1" style="stop-color:#E8E8E8"/>
</linearGradient>
<path class="st1" d="M4.2,0C1.9,0,0,1.9,0,4.2v35.3c0,2.3,1.9,4.2,4.2,4.2h37.7V0H4.2z"/>
<path class="st2" d="M195.8,0.6H41.9v43.7h153.9c2.3,0,4.2-1.9,4.2-4.2V4.8C200,2.5,198.1,0.6,195.8,0.6z"/>
<rect x="45.9" y="15.5" class="st3" width="150" height="13.8"/>
<text transform="matrix(1 0 0 1 70.561 28.0301)" class="st4 st5 st6">DOWNLOAD</text>
<linearGradient id="SVGID_2_" gradientUnits="userSpaceOnUse" x1="42.518" y1="44.704" x2="42.518" y2="-1.6763" gradientTransform="matrix(1 0 0 -1 0 46.316)">
	<stop  offset="0" style="stop-color:#F5F6F6"/>
	<stop  offset="1" style="stop-color:#E8E8E8"/>
</linearGradient>
<rect x="41.9" y="1.6" class="st7" width="1.3" height="43.6"/>
<linearGradient id="SVGID_3_" gradientUnits="userSpaceOnUse" x1="42.834" y1="44.704" x2="42.834" y2="-1.6763" gradientTransform="matrix(1 0 0 -1 0 46.316)">
	<stop  offset="0" style="stop-color:#F5F6F6"/>
	<stop  offset="1" style="stop-color:#E8E8E8"/>
</linearGradient>
<rect x="42.5" y="1.6" class="st8" width="0.6" height="43.6"/>
<g>
	<g>
		<path class="st9" d="M28.3,18.8h-4v-5.3h-2.7v5.3h-4l5.3,5.3L28.3,18.8z M12.3,24.1v5.3l10.6,4l10.6-4v-5.3l-5.8-2.2l-1.5,1.5
			l5.4,2L23,28.7l-8.7-3.3l5.4-2l-1.5-1.5L12.3,24.1z"/>
	</g>
</g>
</svg>
