<?xml version="1.0" encoding="utf-8"?>
<!-- Generator: Adobe Illustrator 23.0.3, SVG Export Plug-In . SVG Version: 6.00 Build 0)  -->
<svg version="1.1" id="Layer_1" xmlns="http://www.w3.org/2000/svg" xmlns:xlink="http://www.w3.org/1999/xlink" x="0px" y="0px"
	 viewBox="0 0 65.1 19.1" style="enable-background:new 0 0 65.1 19.1;" xml:space="preserve">
<style type="text/css">
	.st0{fill:#B967EB;}
	.st1{fill:#FFFFFF;}
	.st2{font-family:'JosefinSans-Bold';}
	.st3{font-size:5.4724px;}
</style>
<path class="st0" d="M65.1,7.5c-2.6,2.2-5.1,4.5-7.7,6.8c-1.9,1.7-3.9,1.6-5.6-0.3c-1.2-1.3-2.4-2.7-3.6-4.1
	c-1.7-1.9-1.6-3.8,0.3-5.5c1.7-1.5,3.3-2.9,5-4.4H2.2C1,0,0,1,0,2.2v14.7c0,1.2,1,2.2,2.2,2.2h60.7c1.2,0,2.2-1,2.2-2.2V7.5
	L65.1,7.5z M55.5,12.5l3.7-4.6c0.6-0.7,0.1-1.8-0.9-1.8H51c-1,0-1.5,1.1-0.9,1.8l3.7,4.6C54.1,13.1,55,13.1,55.5,12.5z"/>
<text transform="matrix(1 0 0 1 6.5971 11.4398)" class="st1 st2 st3">DROPDOWN</text>
</svg>
