<?xml version="1.0" encoding="utf-8"?>
<!-- Generator: Adobe Illustrator 23.0.3, SVG Export Plug-In . SVG Version: 6.00 Build 0)  -->
<svg version="1.1" id="Layer_1" xmlns="http://www.w3.org/2000/svg" xmlns:xlink="http://www.w3.org/1999/xlink" x="0px" y="0px"
	 viewBox="0 0 59.9 59.4" style="enable-background:new 0 0 59.9 59.4;" xml:space="preserve">
<style type="text/css">
	.st0{fill:#FFB829;}
</style>
<path class="st0" d="M7.4,43c2.3,2.3,5,4.1,8,5.4c3.1,1.3,6.4,2,9.8,2c2.9,0,5.8-0.5,8.5-1.5l-0.5,5.3l7.7-5.8l4.5,11l9.5-3.8
	l-4.5-11l9.5-1.2l-11-9.7c1-2.7,1.5-5.6,1.5-8.5c0-3.4-0.7-6.7-2-9.8c-1.3-3-3.1-5.7-5.4-8S38,3.3,35,2c-3.1-1.3-6.4-2-9.8-2
	s-6.7,0.7-9.8,2c-3,1.3-5.7,3.1-8,5.4s-4.1,5-5.4,8c-1.3,3.1-2,6.4-2,9.8s0.7,6.7,2,9.8C3.2,38,5.1,40.7,7.4,43z M44.8,41.3
	l4.9,12.1l-2.1,0.9L43,42.9l-0.3-0.8L38,45.7l0.4-4.3l0.9-10.8l4.6,4l3.3,2.9l3.5,3.1L44.8,41.3z M10.4,10.4
	c3.9-3.9,9.2-6.1,14.8-6.1S36,6.5,40,10.4c3.9,3.9,6.1,9.2,6.1,14.8c0,1.8-0.2,3.7-0.7,5.4L36,22.4l-1.8,21.7c-2.8,1.3-5.8,2-8.9,2
	c-5.6,0-10.8-2.2-14.8-6.1c-3.9-3.9-6.1-9.2-6.1-14.8C4.3,19.6,6.5,14.4,10.4,10.4z M25.2,13.8c3,0,5.5,2.5,5.5,5.5
	s-2.5,5.5-5.5,5.5H23v8.3h4.3v-4.3c4.4-1,7.6-4.9,7.6-9.5c0-5.4-4.4-9.8-9.8-9.8c-2,0-4,0.6-5.6,1.8c-1.6,1.1-2.8,2.7-3.5,4.6l4,1.5
	C20.8,15.2,22.9,13.8,25.2,13.8z M23.1,35.5h4.1v4.1h-4.1V35.5z"/>
</svg>
