<?xml version="1.0" encoding="utf-8"?>
<!-- Generator: Adobe Illustrator 23.0.3, SVG Export Plug-In . SVG Version: 6.00 Build 0)  -->
<svg version="1.1" id="Layer_1" xmlns="http://www.w3.org/2000/svg" xmlns:xlink="http://www.w3.org/1999/xlink" x="0px" y="0px"
	 viewBox="0 0 200 50" style="enable-background:new 0 0 200 50;" xml:space="preserve">
<style type="text/css">
	.st0{fill:#CC1D1D;}
	.st1{fill:#FFFFFF;}
	.st2{font-family:'Swiss721BT-Black';}
	.st3{font-size:22px;}
</style>
<path class="st0" d="M200,25c0,13.8-11.2,25-25,25H25C11.2,50,0,38.8,0,25l0,0C0,11.2,11.2,0,25,0h150C188.8,0,200,11.2,200,25
	L200,25z"/>
<circle class="st1" cx="26.3" cy="25" r="20.9"/>
<path class="st0" d="M16.1,36.6c0,0,0,0.6,0.6,0.6c0.8,0,6.9,0,6.9,0v-5.7c0,0-0.1-0.9,0.8-0.9h2.9c1.1,0,1,0.9,1,0.9v5.7h6.8
	c0.8,0,0.7-0.8,0.7-0.8V25.9l-9.6-8.5L16,25.9L16.1,36.6L16.1,36.6z M12.4,25.1c0,0,0.9,1.6,2.7,0l11.3-9.5L37,25.1c2.2,1.6,3,0,3,0
	L26.4,12.8L12.4,25.1z M36.7,15.6H34v3.3l2.7,2.3V15.6z"/>
<text transform="matrix(1 0 0 1 73.25 31.9954)" class="st1 st2 st3">Home</text>
</svg>
