<?xml version="1.0" encoding="utf-8"?>
<!-- Generator: Adobe Illustrator 23.0.3, SVG Export Plug-In . SVG Version: 6.00 Build 0)  -->
<svg version="1.1" id="Layer_1" xmlns="http://www.w3.org/2000/svg" xmlns:xlink="http://www.w3.org/1999/xlink" x="0px" y="0px"
	 viewBox="0 0 70 18" style="enable-background:new 0 0 70 18;" xml:space="preserve">
<style type="text/css">
	.st0{fill:#00BDDF;}
	.st1{fill:#49E6EA;}
	.st2{fill:#FFFFFF;}
	.st3{font-family:'MyriadPro-Regular';}
	.st4{font-size:7px;}
</style>
<path class="st0" d="M61,18H9c-4.9,0-9-4-9-9l0,0c0-4.9,4-9,9-9h52c4.9,0,9,4,9,9l0,0C70,14,65.9,18,61,18z"/>
<path class="st1" d="M55.7,15.7L55.7,15.7c-3.6,0-6.5-2.9-6.5-6.5l0,0c0-3.6,2.9-6.5,6.5-6.5l0,0c3.6,0,6.5,2.9,6.5,6.5l0,0
	C62.2,12.7,59.3,15.7,55.7,15.7z"/>
<g>
	<path class="st2" d="M55.3,11c-0.1,0-0.3,0-0.4-0.1l-1.8-1.8c-0.2-0.2-0.2-0.5,0-0.7s0.5-0.2,0.7,0l1.4,1.4l2.2-2.2
		c0.2-0.2,0.5-0.2,0.7,0s0.2,0.5,0,0.7l-2.6,2.6C55.6,11,55.4,11,55.3,11z"/>
</g>
<text transform="matrix(1 0 0 1 11.6781 11.226)" class="st2 st3 st4">Learn More</text>
</svg>
