<?xml version="1.0" encoding="utf-8"?>
<!-- Generator: Adobe Illustrator 23.0.3, SVG Export Plug-In . SVG Version: 6.00 Build 0)  -->
<svg version="1.1" id="Layer_1" xmlns="http://www.w3.org/2000/svg" xmlns:xlink="http://www.w3.org/1999/xlink" x="0px" y="0px"
	 viewBox="0 0 45.2 18" style="enable-background:new 0 0 45.2 18;" xml:space="preserve">
<style type="text/css">
	.st0{fill-rule:evenodd;clip-rule:evenodd;fill:#302B63;}
	.st1{fill:#FFFFFF;}
	.st2{font-family:'MyriadPro-Regular';}
	.st3{font-size:5.7219px;}
	.st4{fill:#302B63;}
</style>
<path class="st0" d="M43,4c-1.2-1.1-2.9-1.6-4.5-1.6H15.1C13.5,0.9,11.4,0,9,0C4,0,0,4,0,9s4,9,9,9c2.5,0,4.7-1,6.3-2.6h23
	c2.5,0,4.9-1.2,6.1-3.4C45.9,9.4,45.4,6.1,43,4z M9,15.8c-3.8,0-6.8-3-6.8-6.8s3-6.8,6.8-6.8s6.8,3,6.8,6.8
	C15.8,12.7,12.8,15.8,9,15.8z"/>
<text transform="matrix(1 0 0 1 22.6011 10.7697)" class="st1 st2 st3">LOAD</text>
<path class="st4" d="M7.1,9.2C7.2,9.1,7.2,9,7,9H6.5c0-1.1,0.9-2,2-2c0.6,0,1.1,0.2,1.4,0.6l0.7-0.7C10,6.4,9.3,6,8.5,6
	C6.9,6,5.6,7.3,5.6,8.9H5.1C5,8.9,4.9,9,5,9.1l0.4,0.4l0.4,0.4c0.1,0.1,0.3,0.1,0.4,0l0.4-0.4L7.1,9.2z M11.9,8.8l-0.4-0.4L11.1,8
	c-0.1-0.1-0.3-0.1-0.4,0l-0.4,0.4L9.9,8.8C9.8,8.9,9.8,9,10,9h0.5c0,1.1-0.9,2-2,2c-0.6,0-1.1-0.2-1.4-0.6l-0.7,0.7
	c0.5,0.5,1.3,0.8,2.1,0.8c1.6,0,2.9-1.3,2.9-2.9h0.5C12,9,12,8.9,11.9,8.8L11.9,8.8z"/>
</svg>
