<?xml version="1.0" encoding="utf-8"?>
<!-- Generator: Adobe Illustrator 23.0.3, SVG Export Plug-In . SVG Version: 6.00 Build 0)  -->
<svg version="1.1" id="Layer_1" xmlns="http://www.w3.org/2000/svg" xmlns:xlink="http://www.w3.org/1999/xlink" x="0px" y="0px"
	 viewBox="0 0 123.9 35.4" style="enable-background:new 0 0 123.9 35.4;" xml:space="preserve">
<style type="text/css">
	.st0{fill:#9FC54D;}
	.st1{fill:#76A54E;}
	.st2{fill:#373942;}
	.st3{fill:#FFFFFF;}
	.st4{font-family:'Arial-Black';}
	.st5{font-size:14.0224px;}
</style>
<path class="st0" d="M123.8,17L113.3,3.5c-0.2-0.2-0.4-0.3-0.6-0.3H27.8C24.9,1.2,21.5,0,17.7,0C7.9,0,0,7.9,0,17.7
	s7.9,17.7,17.7,17.7c4,0,7.7-1.4,10.7-3.6h84.3c0.2,0,0.5-0.1,0.6-0.3L123.8,18C124,17.7,124,17.3,123.8,17z"/>
<circle class="st1" cx="17.7" cy="17.7" r="13.4"/>
<circle class="st2" cx="17.7" cy="17.7" r="12.4"/>
<g id="XMLID_9_">
	<path id="XMLID_2_" class="st3" d="M19.5,18.5c0.2-0.2,0.2-0.5,0-0.7L18,16.4c-0.2-0.2-0.5-0.2-0.7,0s-0.2,0.5,0,0.7l0.6,0.6h-5.6
		c-0.3,0-0.5,0.2-0.5,0.5s0.2,0.5,0.5,0.5H18l-0.6,0.6c-0.2,0.2-0.2,0.5,0,0.7c0.1,0.1,0.2,0.1,0.3,0.1c0.1,0,0.2,0,0.3-0.1
		L19.5,18.5z"/>
	<path id="XMLID_11_" class="st3" d="M18.6,14.3c-1.3,0-2.5,0.6-3.3,1.7c-0.1,0.2-0.1,0.5,0.1,0.7c0.2,0.1,0.5,0.1,0.7-0.1
		c0.6-0.8,1.5-1.3,2.5-1.3c1.6,0,3,1.3,3,3c0,1.6-1.3,3-3,3c-1,0-1.9-0.5-2.5-1.3c-0.1-0.2-0.4-0.3-0.7-0.1
		c-0.2,0.1-0.3,0.4-0.1,0.7c0.7,1.1,1.9,1.7,3.3,1.7c2.2,0,3.9-1.8,3.9-3.9S20.7,14.3,18.6,14.3z"/>
</g>
<text transform="matrix(1 0 0 1 48.7168 20.8221)" class="st3 st4 st5">Login</text>
</svg>
