<?xml version="1.0" encoding="utf-8"?>
<!-- Generator: Adobe Illustrator 23.0.3, SVG Export Plug-In . SVG Version: 6.00 Build 0)  -->
<svg version="1.1" id="Layer_1" xmlns="http://www.w3.org/2000/svg" xmlns:xlink="http://www.w3.org/1999/xlink" x="0px" y="0px"
	 viewBox="0 0 181.9 43.9" style="enable-background:new 0 0 181.9 43.9;" xml:space="preserve">
<style type="text/css">
	.st0{fill:#2A3CE8;}
	.st1{fill:none;stroke:#FFFFFF;stroke-miterlimit:10;}
	.st2{fill:#FFFFFF;}
	.st3{font-family:'RobotoSlab-Bold';}
	.st4{font-size:20px;}
</style>
<path class="st0" d="M181.9,22c0,12.1-9.8,22-22,22H22c-12.1,0-22-9.8-22-22l0,0C0,9.8,9.8,0,22,0h138C172.1,0,181.9,9.8,181.9,22
	L181.9,22z"/>
<path class="st1" d="M180,22.2c0,10.9-8.9,19.6-19.8,19.6H21.8c-10.9,0-19.8-8.7-19.8-19.6l0-0.2C1.9,11,10.8,2.1,21.8,2.1h138.4
	C171.1,2.1,180,11,180,22L180,22.2z"/>
<text transform="matrix(1 0 0 1 60.3328 27.5156)" class="st2 st3 st4">LOGIN</text>
</svg>
