<?xml version="1.0" encoding="utf-8"?>
<!-- Generator: Adobe Illustrator 23.0.3, SVG Export Plug-In . SVG Version: 6.00 Build 0)  -->
<svg version="1.1" id="Layer_1" xmlns="http://www.w3.org/2000/svg" xmlns:xlink="http://www.w3.org/1999/xlink" x="0px" y="0px"
	 viewBox="0 0 161 49.6" style="enable-background:new 0 0 161 49.6;" xml:space="preserve">
<style type="text/css">
	.st0{fill:#D81A61;}
	.st1{fill:#F4F4F4;}
	.st2{fill:#FFFFFF;}
	.st3{font-family:'Raleway-Bold';}
	.st4{font-size:15px;}
</style>
<g>
	<path class="st0" d="M5,0C2.3,0,0,2.3,0,5v39.4c0,2.8,2.3,5,5,5h109.5V0H5z"/>
</g>
<path class="st1" d="M155.9,0.2h-41.4v49.5h41.4c2.8,0,5-2.3,5-5V5.2C161,2.4,158.7,0.2,155.9,0.2z"/>
<g>
	<text transform="matrix(1 0 0 1 25.1143 30.402)" class="st2 st3 st4">Mail Us</text>
</g>
<path class="st0" d="M143.8,12.6h-18.9v13.5h2.9v4.2l4.2-4.2h11.8V12.6L143.8,12.6z M145.2,21.3v6.2H135v5.1h9.8l3.5,3.5v-3.5h2.4
	V21.3H145.2z"/>
</svg>
