<?xml version="1.0" encoding="utf-8"?>
<!-- Generator: Adobe Illustrator 23.0.3, SVG Export Plug-In . SVG Version: 6.00 Build 0)  -->
<svg version="1.1" id="Layer_1" xmlns="http://www.w3.org/2000/svg" xmlns:xlink="http://www.w3.org/1999/xlink" x="0px" y="0px"
	 viewBox="0 0 52.8 15" style="enable-background:new 0 0 52.8 15;" xml:space="preserve">
<style type="text/css">
	.st0{fill:#5691C8;}
	.st1{fill:#FFFFFF;}
	.st2{font-family:'Quicksand-Regular';}
	.st3{font-size:7px;}
	.st4{fill:#64A6DD;}
	.st5{fill-rule:evenodd;clip-rule:evenodd;fill:#FFFFFF;}
</style>
<path class="st0" d="M50.8,0h-33v8v7h33c1.1,0,2-1.2,2-2.7V8V2.7C52.8,1.2,51.9,0,50.8,0z"/>
<text transform="matrix(1 0 0 1 26.2004 10.0255)" class="st1 st2 st3">MAIL</text>
<path class="st4" d="M2.7,0C1.2,0,0,1.2,0,2.7V8v4.3C0,13.8,1.2,15,2.7,15H18V8V0H2.7z"/>
<path class="st5" d="M8.8,10.4c-1.2,0-2.5,0-3.7,0c-0.2,0-0.3,0-0.3-0.3c0-1.7,0-3.3,0-5c0-0.2,0-0.3,0.3-0.3c2.5,0,5,0,7.5,0
	c0.2,0,0.3,0,0.3,0.3c0,1.7,0,3.3,0,5c0,0.3,0,0.3-0.3,0.3C11.3,10.4,10,10.4,8.8,10.4L8.8,10.4z M12.2,5.2c-2.3,0-4.6,0-6.9,0
	c1.2,1.1,2.3,2.1,3.4,3.2C9.9,7.3,11.1,6.3,12.2,5.2z M5.4,10.1c2.3,0,4.6,0,6.8,0c-0.8-0.8-1.5-1.5-2.3-2.3c-0.3,0.3-0.6,0.6-1,0.9
	c-0.2,0.1-0.2,0.1-0.4,0c-0.3-0.3-0.6-0.6-1-0.9C6.9,8.5,6.1,9.3,5.4,10.1z M12.5,9.8c0-1.5,0-2.9,0-4.4c-0.8,0.7-1.5,1.4-2.3,2.1
	C11,8.3,11.7,9,12.5,9.8z M5.1,5.4c0,1.5,0,2.9,0,4.4c0.7-0.7,1.5-1.5,2.3-2.3C6.6,6.8,5.9,6.1,5.1,5.4z"/>
</svg>
