<?xml version="1.0" encoding="utf-8"?>
<!-- Generator: Adobe Illustrator 23.0.3, SVG Export Plug-In . SVG Version: 6.00 Build 0)  -->
<svg version="1.1" id="Layer_1" xmlns="http://www.w3.org/2000/svg" xmlns:xlink="http://www.w3.org/1999/xlink" x="0px" y="0px"
	 viewBox="0 0 75.2 15.8" style="enable-background:new 0 0 75.2 15.8;" xml:space="preserve">
<style type="text/css">
	.st0{fill:#AA53D5;}
	.st1{fill:#B967EB;}
	.st2{fill:#FFFFFF;}
	.st3{font-family:'Quicksand-Regular';}
	.st4{font-size:7.2125px;}
</style>
<path class="st0" d="M54.7,0H6.8C2.5,0,0,3.4,0,7.7v0.1c0,4.3,2.5,7.8,6.8,7.8h47.9V0z"/>
<path class="st1" d="M75.2,7.8c-0.1-4.3-2.7-7.7-7-7.7H54.5v15.7h13.7c4.3,0,7-3.5,7-7.8C75.2,7.9,75.2,7.8,75.2,7.8z"/>
<text transform="matrix(1 0 0 1 19.0789 10.2318)" class="st2 st3 st4">MENU</text>
<path class="st2" d="M63.7,11.6c-0.7,0-1.5,0-2.2,0c-1.1,0-1.9-0.8-1.9-1.9c0-1.2,0-2.4,0-3.6c0-0.9,0.6-1.7,1.6-1.8
	c0.1,0,0.2,0,0.3,0c1.5,0,2.9,0,4.4,0c1,0,1.7,0.6,1.9,1.6c0,0.2,0,0.5,0,0.7c0,1.1,0,2.1,0,3.2c0,0.7-0.3,1.3-0.9,1.6
	c-0.3,0.2-0.6,0.2-1,0.2C65.2,11.6,64.5,11.6,63.7,11.6z M63.7,4.9c-0.7,0-1.4,0-2.2,0c-0.7,0-1.2,0.5-1.2,1.2c0,1.2,0,2.4,0,3.6
	c0,0.5,0.4,1,0.9,1.1c0.2,0,0.4,0,0.6,0c1.3,0,2.7,0,4,0c0.7,0,1.2-0.5,1.2-1.1c0-1.2,0-2.4,0-3.7c0-0.1,0-0.2,0-0.3
	c-0.1-0.5-0.6-0.8-1.1-0.8C65.2,4.9,64.5,4.9,63.7,4.9z M63.7,9.7c-0.7,0-1.5,0-2.2,0c-0.3,0-0.4-0.2-0.4-0.5c0-0.2,0.2-0.3,0.4-0.3
	c0.7,0,1.4,0,2.1,0s1.5,0,2.2,0c0.2,0,0.3,0.1,0.4,0.3s-0.1,0.5-0.4,0.5c-0.4,0-0.9,0-1.3,0C64.3,9.7,64,9.7,63.7,9.7L63.7,9.7z
	 M63.7,6c0.7,0,1.5,0,2.2,0c0.3,0,0.4,0.2,0.4,0.4s-0.2,0.3-0.4,0.3c-0.6,0-1.2,0-1.8,0c-0.9,0-1.7,0-2.6,0c-0.1,0-0.2,0-0.3-0.1
	s-0.1-0.2-0.1-0.4C61.2,6.1,61.3,6,61.4,6c0.6,0,1.1,0,1.7,0C63.4,6,63.6,6,63.7,6L63.7,6z M63.8,8.2c-0.7,0-1.5,0-2.2,0
	c-0.1,0-0.3-0.1-0.3-0.2c-0.1-0.1-0.1-0.3,0-0.4s0.2-0.2,0.3-0.2c0.8,0,1.6,0,2.4,0c0.7,0,1.3,0,2,0c0.3,0,0.4,0.1,0.4,0.4
	c0,0.2-0.2,0.4-0.4,0.4C65.2,8.2,64.5,8.2,63.8,8.2z"/>
</svg>
