<?xml version="1.0" encoding="utf-8"?>
<!-- Generator: Adobe Illustrator 23.0.3, SVG Export Plug-In . SVG Version: 6.00 Build 0)  -->
<svg version="1.1" id="Layer_1" xmlns="http://www.w3.org/2000/svg" xmlns:xlink="http://www.w3.org/1999/xlink" x="0px" y="0px"
	 viewBox="0 0 54.7 16" style="enable-background:new 0 0 54.7 16;" xml:space="preserve">
<style type="text/css">
	.st0{fill:#00D2FF;}
	.st1{fill:#FFFFFF;}
	.st2{font-family:'Poppins-Regular';}
	.st3{font-size:4.6744px;}
</style>
<path class="st0" d="M53.1,3.1c-0.9,1.5-1.4,3.2-1.4,5.1c0,1.8,0.4,3.4,1.2,4.9c1.1-1.4,1.8-3.2,1.8-5.1C54.8,6.1,54.2,4.4,53.1,3.1
	z M37.7,15.2c-1.9,0-3.8-0.7-5.1-2.1c-2.3-2.3-2.7-5.8-1-8.5c1.3-2.2,3.7-3.4,6.2-3.4h13.4C50,0.4,48.5,0,46.9,0H8C3.6,0,0,3.6,0,8
	s3.6,8,8,8h38.8c1.3,0,2.5-0.3,3.5-0.8H37.7z M46.1,5.3h-7.5l3.7,2.9L46.1,5.3z M42.3,8.9l-4-3.2v4.9h8.1V5.7L42.3,8.9z"/>
<text transform="matrix(1 0 0 1 5.3493 9.6826)" class="st1 st2 st3">Message</text>
</svg>
