<?xml version="1.0" encoding="utf-8"?>
<!-- Generator: Adobe Illustrator 23.0.3, SVG Export Plug-In . SVG Version: 6.00 Build 0)  -->
<svg version="1.1" id="Layer_1" xmlns="http://www.w3.org/2000/svg" xmlns:xlink="http://www.w3.org/1999/xlink" x="0px" y="0px"
	 viewBox="0 0 62.5 19.6" style="enable-background:new 0 0 62.5 19.6;" xml:space="preserve">
<style type="text/css">
	.st0{fill-rule:evenodd;clip-rule:evenodd;fill:#FF9B21;}
	.st1{fill-rule:evenodd;clip-rule:evenodd;fill:#302B63;}
	.st2{fill:#FFFFFF;}
	.st3{font-family:'Quicksand-Regular';}
	.st4{font-size:6.5px;}
</style>
<g>
	<path class="st0" d="M62.5,9.8c0,5.4-4.4,9.8-9.8,9.8s-9.8-4.4-9.8-9.8S47.3,0,52.7,0C58.2,0,62.5,4.4,62.5,9.8z"/>
	<g>
		<path class="st1" d="M1.1,6.3c1.2-1.9,3.3-3,5.6-3h37C42.1,5,41,7.4,41,10s1,4.9,2.7,6.7h-37c-2.7,0-5.1-1.6-6.1-4
			C-0.3,10.6-0.2,8.2,1.1,6.3z"/>
		<text transform="matrix(1 0 0 1 12.7526 12.1403)" class="st2 st3 st4">OPEN</text>
	</g>
</g>
<path class="st2" d="M49.1,8h8.6C57.9,8,58,7.9,58,7.7s-0.1-0.3-0.3-0.3h-8.6c-0.2,0-0.3,0.1-0.3,0.3S48.9,8,49.1,8L49.1,8z
	 M57.7,9.5h-8.6c-0.2,0-0.3,0.1-0.3,0.3s0.1,0.3,0.3,0.3h8.6c0.2,0,0.3-0.1,0.3-0.3C58,9.6,57.9,9.5,57.7,9.5L57.7,9.5z M57.7,11.5
	h-5.8c-0.2,0-0.3,0.1-0.3,0.3s0.1,0.3,0.3,0.3h5.8c0.2,0,0.3-0.1,0.3-0.3S57.9,11.5,57.7,11.5L57.7,11.5z"/>
</svg>
