<?xml version="1.0" encoding="utf-8"?>
<!-- Generator: Adobe Illustrator 23.0.3, SVG Export Plug-In . SVG Version: 6.00 Build 0)  -->
<svg version="1.1" id="Layer_1" xmlns="http://www.w3.org/2000/svg" xmlns:xlink="http://www.w3.org/1999/xlink" x="0px" y="0px"
	 viewBox="0 0 86.3 86.3" style="enable-background:new 0 0 86.3 86.3;" xml:space="preserve">
<style type="text/css">
	.st0{fill:#FECE62;}
	.st1{opacity:0.1;fill:#333333;enable-background:new    ;}
	.st2{opacity:0.2;fill:#333333;enable-background:new    ;}
	.st3{fill:#FFFFFF;}
</style>
<circle class="st0" cx="43.2" cy="43.2" r="43.2"/>
<path class="st1" d="M65.8,43.7L65.8,43.7C65.9,43.6,65.8,43.6,65.8,43.7C65.8,43.7,65.8,43.7,65.8,43.7z"/>
<path class="st2" d="M29.8,22.5c0,4.7,0,9.4,0,14.2c0,7.6,0,15.2,0,22.7c0,1.8,0,3.6,0,5.5l0.3,0.3l3.5,3.5l0,0h0l4.8,4.8v0l0,0
	l0.6,0.6v0l0,0l0.3,0.3l0,0l0,0l6.7,6.7l0,0c0,0,0,0,0,0l1,1l0,0l0,0l2.6,2.6l0,0c0,0,0,0,0,0l0.3,0.3l0,0l0,0l0.3,0.3l0,0l0,0
	l0.4,0.4c10-1.7,18.7-6.9,25.1-14.2c2.7-3.1,5-6.6,6.7-10.4c0.2-0.3,0.3-0.7,0.4-1L82.8,60l0,0l0,0l-0.6-0.6l0,0l0,0l-2.6-2.6l0,0
	l0,0L78,55.2l0,0l0,0l-0.6-0.6l0,0l0,0l-1-1l0,0l0,0L74.8,52l0,0l0,0l-4.2-4.2l0,0l0,0L70,47.2l0,0l0,0l-0.6-0.6l0,0l0,0l-0.6-0.6
	l0,0l0,0l-1.3-1.3l0,0l0,0l-1-1l-0.1,0.1c0,0,0,0-0.1,0c0,0,0.1,0,0.1-0.1c-4.1-2.4-8.2-4.7-12.3-7.1c-6.6-3.8-13.1-7.6-19.7-11.4
	C32.9,24.3,31.3,23.4,29.8,22.5z"/>
<polygon class="st3" points="29.2,22.4 65.9,43.6 29.2,64.8 "/>
</svg>
