<?xml version="1.0" encoding="utf-8"?>
<!-- Generator: Adobe Illustrator 23.0.3, SVG Export Plug-In . SVG Version: 6.00 Build 0)  -->
<svg version="1.1" id="Layer_1" xmlns="http://www.w3.org/2000/svg" xmlns:xlink="http://www.w3.org/1999/xlink" x="0px" y="0px"
	 viewBox="0 0 41.4 41.4" style="enable-background:new 0 0 41.4 41.4;" xml:space="preserve">
<style type="text/css">
	.st0{fill:#00B4DB;}
	.st1{fill:#FFFFFF;}
</style>
<circle class="st0" cx="20.7" cy="20.7" r="20.7"/>
<path class="st1" d="M24.2,13.6c0,0-1-0.5-1,0.6s1,1.9,1,1.8c1.8,1.2,3,3.2,3,5.6c0,3.6-2.9,6.6-6.5,6.7c-3.6-0.1-6.5-3.1-6.5-6.7
	c0-2.4,1.2-4.4,3-5.6c0,0,1-0.7,1-1.8s-1-0.6-1-0.6C14.1,15,12,18.1,12,21.7c0,4.8,3.9,8.8,8.7,8.9c4.9-0.1,8.8-4.1,8.8-8.9
	C29.4,18.1,27.3,15,24.2,13.6z M20.8,10.8c-1,0-1.3,0.7-1.3,1v4.4v4.4c0,0.3,0.3,1,1.3,1s1.2-0.7,1.2-1v-4.4v-4.4
	C22,11.5,21.7,10.8,20.8,10.8z"/>
</svg>
