<?xml version="1.0" encoding="utf-8"?>
<!-- Generator: Adobe Illustrator 23.0.3, SVG Export Plug-In . SVG Version: 6.00 Build 0)  -->
<svg version="1.1" id="Layer_1" xmlns="http://www.w3.org/2000/svg" xmlns:xlink="http://www.w3.org/1999/xlink" x="0px" y="0px"
	 viewBox="0 0 92.5 24.5" style="enable-background:new 0 0 92.5 24.5;" xml:space="preserve">
<style type="text/css">
	.st0{fill:#FFFFFF;stroke:#0054A0;stroke-width:0.5;stroke-miterlimit:10;}
	.st1{fill:#0054A0;}
	.st2{font-family:'Nunito-Regular';}
	.st3{font-size:12px;}
</style>
<path class="st0" d="M80.3,24.3h-68c-6.6,0-12-5.4-12-12l0,0c0-6.6,5.4-12,12-12h68c6.6,0,12,5.4,12,12l0,0
	C92.3,18.8,86.8,24.3,80.3,24.3z"/>
<path class="st1" d="M80.4,0.3c-6.6,0-12,5.4-12,12s5.4,12,12,12s12-5.4,12-12S87.1,0.3,80.4,0.3z M83.8,16.4
	c-2.1,0.6-4.3,0.6-6.6,0v-1.9c0-1.3,0.7-2.5,1.9-3c-0.4-0.4-0.6-0.9-0.6-1.5c0-1.2,1-2.2,2.2-2.2s2.2,1,2.2,2.2
	c0,0.6-0.3,1.2-0.7,1.6c1,0.6,1.7,1.6,1.7,2.9L83.8,16.4L83.8,16.4z"/>
<text transform="matrix(1 0 0 1 20.0765 15.7224)" class="st1 st2 st3">Profile</text>
</svg>
