<?xml version="1.0" encoding="utf-8"?>
<!-- Generator: Adobe Illustrator 23.0.3, SVG Export Plug-In . SVG Version: 6.00 Build 0)  -->
<svg version="1.1" id="Layer_1" xmlns="http://www.w3.org/2000/svg" xmlns:xlink="http://www.w3.org/1999/xlink" x="0px" y="0px"
	 viewBox="0 0 56.8 17.2" style="enable-background:new 0 0 56.8 17.2;" xml:space="preserve">
<style type="text/css">
	.st0{fill-rule:evenodd;clip-rule:evenodd;fill:#2B2B2B;}
	.st1{fill-rule:evenodd;clip-rule:evenodd;fill:#FFBB00;}
	.st2{fill:#2B2B2B;}
	.st3{font-family:'Montserrat-SemiBold';}
	.st4{font-size:7.2181px;}
</style>
<path class="st0" d="M56.3,10.9c0.8-1.8,0.6-3.9-0.5-5.6s-2.9-2.7-4.9-2.7h-41C6.7,2.6,4,5.2,4,8.5c0,3.2,2.6,5.9,5.9,5.9H51
	C53.3,14.5,55.4,13.1,56.3,10.9z"/>
<path class="st1" d="M0,8.6c0,4.7,3.8,8.6,8.6,8.6c4.7,0,8.6-3.8,8.6-8.6c0-4.7-3.8-8.6-8.6-8.6S0,3.8,0,8.6z M24,10.5l-1.4-0.7
	l-1.5,0.7l0.3-1.6l-1.1-1.1l1.5-0.3l0.8-1.4l0.7,1.4l1.6,0.3l-1.1,1.1L24,10.5z M31,10.5l-1.4-0.7l-1.5,0.7l0.3-1.6l-1.1-1.1
	l1.5-0.3l0.8-1.4l0.7,1.4l1.6,0.3l-1.1,1.1L31,10.5z M38,10.5l-1.4-0.7l-1.4,0.7l0.2-1.6l-1.1-1.1l1.6-0.3l0.7-1.4l0.7,1.4l1.6,0.3
	l-1.1,1.1L38,10.5z M45,10.5l-1.4-0.7l-1.4,0.7l0.2-1.6l-1.1-1.1l1.6-0.3l0.7-1.4l0.7,1.4l1.6,0.3l-1.1,1.1L45,10.5z M52,10.5
	l-1.4-0.7l-1.4,0.7l0.2-1.6l-1.1-1.1l1.6-0.3l0.7-1.4l0.8,1.4l1.5,0.3l-1.1,1.1L52,10.5z"/>
<text transform="matrix(1 0 0 1 3.5945 10.9704)" class="st2 st3 st4">5.0</text>
</svg>
