<?xml version="1.0" encoding="utf-8"?>
<!-- Generator: Adobe Illustrator 23.0.3, SVG Export Plug-In . SVG Version: 6.00 Build 0)  -->
<svg version="1.1" id="Layer_1" xmlns="http://www.w3.org/2000/svg" xmlns:xlink="http://www.w3.org/1999/xlink" x="0px" y="0px"
	 viewBox="0 0 99.3 99.3" style="enable-background:new 0 0 99.3 99.3;" xml:space="preserve">
<style type="text/css">
	.st0{fill:#0068FF;}
	.st1{fill:#043268;}
	.st2{fill:#FFFFFF;}
	.st3{fill:#E6F3FF;}
</style>
<circle class="st0" cx="49.6" cy="49.6" r="49.6"/>
<path class="st1" d="M99,54.9L64.5,20.5l-1.1,11.8h-17L32.2,46.4l3.9,28.9l23,23C80.3,94.2,96.7,76.7,99,54.9z"/>
<path class="st2" d="M64.5,20.5L57.7,24l3.5,6.8c-3.6-1.3-7.5-1.8-11.4-1.3c-6.9,0.7-13.1,4.1-17.4,9.5c-9,11.1-7.3,27.4,3.8,36.4
	l4.8-6c-7.8-6.3-9-17.8-2.7-25.6c3.1-3.8,7.4-6.1,12.2-6.7c2.9-0.3,5.7,0.1,8.3,1.1l-7,3.6l3.5,6.8L74,39.1L64.5,20.5z"/>
<path class="st3" d="M32.3,38.9c-9,11.1-7.3,27.4,3.8,36.4l4.8-6c-7.7-6.3-9-17.6-2.8-25.4l-5.7-5.2C32.5,38.8,32.4,38.8,32.3,38.9z
	"/>
</svg>
