<?xml version="1.0" encoding="utf-8"?>
<!-- Generator: Adobe Illustrator 23.0.3, SVG Export Plug-In . SVG Version: 6.00 Build 0)  -->
<svg version="1.1" id="Layer_1" xmlns="http://www.w3.org/2000/svg" xmlns:xlink="http://www.w3.org/1999/xlink" x="0px" y="0px"
	 viewBox="0 0 182.6 45.7" style="enable-background:new 0 0 182.6 45.7;" xml:space="preserve">
<style type="text/css">
	.st0{fill:#DF1F56;}
	.st1{fill:#FFFFFF;}
	.st2{font-family:'OpenSansHebrew-Regular';}
	.st3{font-size:16.7108px;}
</style>
<path class="st0" d="M180.5,2c-1.3-1.3-3.1-2-4.9-2H7C3.1,0,0,3.1,0,7v31.7c0,3.8,3.1,7,7,7h168.6c3.8,0,7-3.1,7-7V7
	C182.5,5.1,181.8,3.4,180.5,2z M178,38.7c0,1.3-1.1,2.4-2.4,2.4h-36.4V4.5h36.4c0.7,0,1.3,0.3,1.7,0.7c0.5,0.5,0.7,1.1,0.7,1.7V38.7
	z"/>
<text transform="matrix(1 0 0 1 36.3889 29.3127)" class="st1 st2 st3">Save As</text>
<path class="st0" d="M170.4,25.1v6.3c0,0.8-0.6,1.4-1.4,1.4h-17.8c-0.8,0-1.4-0.6-1.4-1.4v-6.3h2.9V30h14.9v-4.8
	C167.6,25.2,170.5,25.2,170.4,25.1z M159.9,24.7c0,0,0.4,0.4,0.6,0c0.5-0.5,4-5.1,4-5.1s0.6-0.6-0.2-0.6s-2.1,0-2.1,0s0-0.4,0-0.9
	c0-1.7,0-4.9,0-6.2c0,0,0-0.3-0.4-0.3c-0.3,0-2.7,0-3.2,0s-0.4,0.4-0.4,0.4c0,1.3,0,4.5,0,6.2c0,0.6,0,1,0,1s-1.6,0-2.3,0
	c-0.7,0-0.1,0.6-0.1,0.6L159.9,24.7z"/>
</svg>
