<?xml version="1.0" encoding="utf-8"?>
<!-- Generator: Adobe Illustrator 23.0.3, SVG Export Plug-In . SVG Version: 6.00 Build 0)  -->
<svg version="1.1" id="Layer_1" xmlns="http://www.w3.org/2000/svg" xmlns:xlink="http://www.w3.org/1999/xlink" x="0px" y="0px"
	 viewBox="0 0 52.6 9.6" style="enable-background:new 0 0 52.6 9.6;" xml:space="preserve">
<style type="text/css">
	.st0{fill:#EFEFEF;}
	.st1{fill:#FFA91F;}
	.st2{fill:#949494;}
	.st3{font-family:'Roboto-Regular';}
	.st4{font-size:2.7891px;}
	.st5{fill:#FFFFFF;}
</style>
<path class="st0" d="M52.6,4.8c0,2.6-2.2,4.8-4.9,4.8H4.9C2.2,9.6,0,7.4,0,4.8S2.2,0,4.9,0h42.8C50.4,0,52.6,2.1,52.6,4.8z"/>
<path class="st1" d="M11.4,9.6H4.9C2.2,9.6,0,7.4,0,4.8S2.2,0,4.9,0h6.4L11.4,9.6z"/>
<text transform="matrix(1 0 0 1 14.6678 5.7958)" class="st2 st3 st4">Search...</text>
<path class="st5" d="M7.6,6L6.7,5.1c0.1-0.2,0.2-0.4,0.2-0.7c0-0.7-0.6-1.3-1.3-1.3c-0.7,0-1.3,0.6-1.3,1.3c0,0.7,0.6,1.3,1.3,1.3
	c0.2,0,0.5-0.1,0.7-0.2l0.9,0.9c0.1,0.1,0.3,0.1,0.4,0C7.7,6.3,7.7,6.1,7.6,6z M4.7,4.4c0-0.5,0.4-0.9,0.9-0.9s0.9,0.4,0.9,0.9
	S6.2,5.3,5.6,5.3S4.7,4.9,4.7,4.4z"/>
</svg>
