<?xml version="1.0" encoding="utf-8"?>
<!-- Generator: Adobe Illustrator 23.0.3, SVG Export Plug-In . SVG Version: 6.00 Build 0)  -->
<svg version="1.1" id="Layer_1" xmlns="http://www.w3.org/2000/svg" xmlns:xlink="http://www.w3.org/1999/xlink" x="0px" y="0px"
	 viewBox="0 0 49.2 15.5" style="enable-background:new 0 0 49.2 15.5;" xml:space="preserve">
<style type="text/css">
	.st0{fill:#302B63;}
	.st1{fill:none;}
	.st2{fill:#FFFFFF;}
	.st3{font-family:'Montserrat-Regular';}
	.st4{font-size:5.5px;}
	.st5{fill:#EFEFEF;}
</style>
<path id="XMLID_40_" class="st0" d="M46.2,15.5h-43c-1.7,0-3-1.4-3-3V3c0-1.7,1.4-3,3-3h43c1.7,0,3,1.4,3,3v9.5
	C49.2,14.1,47.8,15.5,46.2,15.5z"/>
<rect id="XMLID_3_" x="19.4" y="6.3" class="st1" width="25.2" height="9.2"/>
<text id="XMLID_32_" transform="matrix(1 0 0 1 19.414 9.2908)" class="st2 st3 st4">Security</text>
<path class="st5" d="M11.2,0l5.9,5.3l-3.7,10.2H2.9c0,0-2.5-0.1-2.9-2.8V3c0,0,0-1.1,0.8-2c0,0,0.7-1,2.3-1H11.2z"/>
<path id="XMLID_394_" class="st0" d="M9.5,7.4L9.5,7.4c0-1-0.7-1.7-1.6-1.7C7,5.7,6.3,6.4,6.3,7.3v0.1H6.1v3.1h3.6V7.4
	C9.7,7.4,9.5,7.4,9.5,7.4z M6.8,7.3c0-0.6,0.5-1.1,1.1-1.1S9,6.7,9,7.3v0.1L6.8,7.3L6.8,7.3z M8.4,9.7H7.5l0.2-0.8
	C7.6,8.8,7.5,8.7,7.5,8.6l0,0c0-0.2,0.1-0.4,0.3-0.4h0.1H8c0.2,0.1,0.3,0.2,0.3,0.4l0,0c0,0.1-0.1,0.3-0.2,0.3L8.4,9.7z"/>
</svg>
