<?xml version="1.0" encoding="utf-8"?>
<!-- Generator: Adobe Illustrator 23.0.3, SVG Export Plug-In . SVG Version: 6.00 Build 0)  -->
<svg version="1.1" id="Layer_1" xmlns="http://www.w3.org/2000/svg" xmlns:xlink="http://www.w3.org/1999/xlink" x="0px" y="0px"
	 viewBox="0 0 65 17" style="enable-background:new 0 0 65 17;" xml:space="preserve">
<style type="text/css">
	.st0{fill:#EB3349;}
	.st1{fill:#FFFFFF;}
	.st2{font-family:'Nunito-Bold';}
	.st3{font-size:8px;}
	.st4{fill-rule:evenodd;clip-rule:evenodd;fill:#FFFFFF;}
</style>
<path class="st0" d="M56.5,0h-5.8c-4,0.7-7.1,4.2-7.1,8.4c0,4.7,3.8,8.5,8.5,8.5h-20c4.7,0,8.5-3.8,8.5-8.5c0-4.2-3.1-7.7-7.1-8.4
	h-25C3.8,0,0,3.8,0,8.5S3.8,17,8.5,17h48c4.7,0,8.5-3.8,8.5-8.5S61.1,0,56.5,0z"/>
<text transform="matrix(1 0 0 1 6.725 11.0765)" class="st1 st2 st3">Setting</text>
<g>
	<path class="st4" d="M57.2,10.5c-0.1,0-0.3-0.1-0.4-0.1c-0.2,0-0.3,0-0.4,0.1s-0.2,0.2-0.3,0.3C56,10.9,56,11,56,11.1
		c0,0.2,0.1,0.3,0.1,0.5c0,0.1,0,0.2-0.1,0.3c-0.2,0.1-0.4,0.2-0.6,0.3c-0.1,0.1-0.2,0-0.3-0.1s-0.2-0.3-0.3-0.4
		c-0.1-0.1-0.2-0.2-0.3-0.1c-0.1,0-0.3,0-0.4,0s-0.2,0.1-0.3,0.2c-0.1,0.1-0.2,0.3-0.2,0.4c-0.1,0.1-0.2,0.2-0.3,0.1
		c-0.2-0.1-0.4-0.1-0.6-0.2c-0.2-0.1-0.2-0.2-0.2-0.3s0.1-0.3,0.1-0.4c0-0.2,0-0.3-0.1-0.4c-0.1-0.1-0.2-0.2-0.2-0.2
		c-0.1-0.1-0.2-0.2-0.4-0.1c-0.1,0-0.3,0.1-0.4,0.1c-0.2,0-0.3,0-0.4-0.2s-0.2-0.4-0.2-0.5c-0.1-0.2,0-0.3,0.1-0.4
		c0.1-0.1,0.2-0.2,0.4-0.2c0.1-0.1,0.2-0.2,0.1-0.3c0-0.1,0-0.3,0-0.4c0-0.1-0.1-0.2-0.2-0.3s-0.2-0.1-0.4-0.2
		c-0.2-0.1-0.2-0.2-0.1-0.4s0.1-0.4,0.2-0.6c0.1-0.2,0.2-0.2,0.3-0.2s0.3,0.1,0.5,0.1c0.1,0,0.2,0,0.3-0.1s0.2-0.2,0.3-0.3
		c0.1-0.1,0.1-0.2,0.1-0.3s-0.1-0.3-0.1-0.4c0-0.2,0-0.3,0.2-0.4s0.4-0.2,0.5-0.2c0.2-0.1,0.3,0,0.4,0.1s0.2,0.3,0.3,0.4
		s0.2,0.1,0.3,0.1s0.3,0,0.4,0s0.2,0,0.3-0.2C54.9,5.8,55,5.6,55,5.5c0.1-0.1,0.2-0.2,0.3-0.1c0.2,0.1,0.4,0.1,0.6,0.2
		c0.1,0.1,0.2,0.2,0.2,0.3S56,6.2,56,6.3c0,0.1,0,0.2,0.1,0.3s0.2,0.2,0.3,0.3C56.5,7,56.6,7,56.7,7c0.1,0,0.3-0.1,0.4-0.1
		s0.2,0,0.3,0.1c0.1,0.2,0.2,0.4,0.3,0.6c0.1,0.1,0,0.2-0.1,0.3c-0.1,0.1-0.3,0.2-0.4,0.3S57,8.4,57.1,8.5c0,0.1,0,0.3,0,0.4
		c0,0.1,0.1,0.2,0.2,0.3s0.3,0.1,0.4,0.2c0.1,0.1,0.2,0.2,0.1,0.3c-0.1,0.2-0.1,0.4-0.2,0.6C57.5,10.5,57.4,10.5,57.2,10.5z
		 M55.7,8.8c0-0.8-0.7-1.5-1.5-1.5S52.7,8,52.7,8.8s0.7,1.5,1.5,1.5C55.1,10.3,55.7,9.6,55.7,8.8z"/>
</g>
</svg>
