<?xml version="1.0" encoding="utf-8"?>
<!-- Generator: Adobe Illustrator 23.0.3, SVG Export Plug-In . SVG Version: 6.00 Build 0)  -->
<svg version="1.1" id="Layer_1" xmlns="http://www.w3.org/2000/svg" xmlns:xlink="http://www.w3.org/1999/xlink" x="0px" y="0px"
	 viewBox="0 0 167.5 46.6" style="enable-background:new 0 0 167.5 46.6;" xml:space="preserve">
<style type="text/css">
	.st0{fill:#CB952B;}
	.st1{fill:#FCB72C;}
	.st2{fill:#3C3A3B;}
	.st3{fill:#E1E1E1;}
	.st4{fill:#FFFFFF;}
	.st5{font-family:'Montserrat-SemiBold';}
	.st6{font-size:18px;}
</style>
<path class="st0" d="M11.4,0.8h144.7c6.3,0,11.4,5.1,11.4,11.4v22.2c0,6.3-5.1,11.4-11.4,11.4H11.4C5.1,45.8,0,40.7,0,34.4V12.2
	C0,5.9,5.1,0.8,11.4,0.8L11.4,0.8z"/>
<path class="st1" d="M11.4,0h144.7c6.3,0,11.4,5.1,11.4,11.4v22.2c0,6.3-5.1,11.4-11.4,11.4H11.4C5.1,45,0,39.9,0,33.6V11.4
	C0,5.1,5.1,0,11.4,0L11.4,0z"/>
<path class="st2" d="M11.4,3.5h16.3c4.6,0,8.4,3.8,8.4,8.4v21.2c0,4.6-3.8,8.4-8.4,8.4H11.4c-4.6,0-8.4-3.8-8.4-8.4V11.9
	C3,7.3,6.8,3.5,11.4,3.5L11.4,3.5z"/>
<path class="st3" d="M28.4,16.3c-0.1-0.3-0.1-0.5-0.2-0.8l0.4-0.4c0.1-0.1,0.1-0.4,0-0.5L28,13.9c-0.1-0.2-0.4-0.2-0.5-0.1L27,14.2
	c-0.2-0.2-0.5-0.3-0.7-0.4v-0.6c0-0.2-0.2-0.4-0.4-0.4L25,12.7c-0.2,0-0.4,0.1-0.4,0.3l-0.1,0.6c-0.3,0.1-0.6,0.1-0.8,0.3l-0.4-0.4
	c-0.1-0.1-0.4-0.1-0.5,0L22,14c-0.1,0.1-0.2,0.4-0.1,0.5l0.3,0.5c-0.2,0.2-0.3,0.5-0.4,0.8h-0.5c-0.2,0-0.4,0.2-0.4,0.4L20.8,17
	c0,0.2,0.1,0.4,0.3,0.4l0.5,0.1c0.1,0.3,0.1,0.6,0.2,0.8l-0.4,0.4c-0.1,0.1-0.1,0.4,0,0.5l0.6,0.7c0.1,0.1,0.4,0.2,0.5,0.1l0.4-0.3
	c0.2,0.2,0.5,0.3,0.8,0.4v0.5c0,0.2,0.2,0.4,0.4,0.4l0.9,0.1c0.2,0,0.4-0.1,0.4-0.3l0.1-0.5c0.3-0.1,0.6-0.1,0.9-0.3l0.4,0.4
	c0.1,0.1,0.4,0.1,0.5,0l0.7-0.6c0.1-0.1,0.2-0.4,0.1-0.5l-0.3-0.5c0.2-0.2,0.3-0.5,0.4-0.8h0.6c0.2,0,0.4-0.1,0.4-0.3l0.1-0.9
	c0-0.2-0.1-0.4-0.3-0.4L28.4,16.3z M22.5,25.8c0-0.4,0-0.9-0.1-1.3l0.8-0.5c0.3-0.2,0.4-0.5,0.3-0.8l-0.7-1.4
	c-0.1-0.3-0.5-0.4-0.8-0.3l-1,0.3c-0.3-0.4-0.6-0.7-1-0.9l0.2-1c0.1-0.3-0.1-0.6-0.4-0.8l-1.4-0.5c-0.3-0.1-0.7,0-0.8,0.3l-0.4,0.9
	c-0.5-0.1-1,0-1.5,0L15.3,19c-0.2-0.3-0.5-0.4-0.8-0.2l-1.4,0.6c-0.3,0.1-0.4,0.5-0.3,0.8l0.3,0.9c-0.4,0.3-0.7,0.7-1,1.1L11.2,22
	c-0.3-0.1-0.6,0.1-0.7,0.4L10,23.7c-0.1,0.3,0,0.7,0.3,0.8l0.8,0.4c0,0.5,0,1,0.1,1.4l-0.8,0.5c-0.3,0.2-0.4,0.5-0.2,0.8l0.6,1.4
	c0.1,0.3,0.5,0.4,0.8,0.3l0.8-0.3c0.3,0.4,0.7,0.7,1.1,1l-0.2,0.8c-0.1,0.3,0.1,0.6,0.4,0.8l1.4,0.5c0.3,0.1,0.6,0,0.8-0.3l0.4-0.8
	c0.5,0.1,1,0,1.5-0.1l0.5,0.8c0.2,0.3,0.5,0.4,0.8,0.2l1.4-0.6c0.3-0.1,0.4-0.5,0.3-0.8l-0.3-0.9c0.4-0.3,0.7-0.7,1-1.1l0.9,0.2
	c0.3,0.1,0.6-0.1,0.8-0.4l0.5-1.4c0.1-0.3,0-0.7-0.3-0.8L22.5,25.8z M15.9,27.8L15.9,27.8c-1.3-0.5-2-1.9-1.5-3.2
	c0.5-1.3,1.9-2,3.2-1.5c1.3,0.5,2,1.9,1.5,3.2S17.2,28.2,15.9,27.8L15.9,27.8z M24.9,18.5L24.9,18.5c-0.8-0.1-1.4-0.8-1.4-1.6
	c0.1-0.8,0.8-1.4,1.6-1.4c0.8,0.1,1.4,0.8,1.4,1.6C26.4,18,25.7,18.6,24.9,18.5L24.9,18.5z"/>
<text transform="matrix(1 0 0 1 60.991 28.8)" class="st4 st5 st6">Setting</text>
</svg>
