<?xml version="1.0" encoding="utf-8"?>
<!-- Generator: Adobe Illustrator 23.0.3, SVG Export Plug-In . SVG Version: 6.00 Build 0)  -->
<svg version="1.1" id="Layer_1" xmlns="http://www.w3.org/2000/svg" xmlns:xlink="http://www.w3.org/1999/xlink" x="0px" y="0px"
	 viewBox="0 0 144.8 41" style="enable-background:new 0 0 144.8 41;" xml:space="preserve">
<style type="text/css">
	.st0{fill:#2D2B2C;}
	.st1{fill:#444344;}
	.st2{fill:#FFFFFF;}
	.st3{font-family:'Montserrat-Bold';}
	.st4{font-size:13px;}
</style>
<polygon class="st0" points="144.8,38.9 144.8,41 36.2,41 0,41 0,38.9 9,38.9 36.2,38.9 63.4,38.9 "/>
<rect class="st1" width="144.8" height="39.6"/>
<path class="st2" d="M27.9,13.5c0-0.3-0.1-0.5-0.2-0.8l0.4-0.5c0.1-0.1,0.1-0.4,0-0.5L27.5,11c-0.1-0.2-0.4-0.2-0.5-0.1l-0.5,0.3
	c-0.2-0.2-0.5-0.3-0.8-0.4v-0.6c0-0.2-0.2-0.4-0.4-0.4l-0.9-0.1C24.2,9.7,24,9.8,24,10l-0.1,0.6c-0.3,0-0.6,0.1-0.9,0.3l-0.4-0.4
	c-0.2-0.1-0.4-0.1-0.5,0l-0.7,0.6c-0.2,0.1-0.2,0.4-0.1,0.5l0.3,0.5c-0.2,0.2-0.3,0.5-0.4,0.8h-0.6c-0.2,0-0.4,0.2-0.4,0.4l-0.1,0.9
	c0,0.2,0.1,0.4,0.3,0.4l0.5,0.1c0,0.3,0.1,0.6,0.3,0.8L20.8,16c-0.1,0.1-0.2,0.4,0,0.5l0.6,0.7c0.1,0.2,0.4,0.2,0.5,0.1l0.4-0.3
	c0.3,0.2,0.5,0.3,0.8,0.4v0.5c0,0.2,0.2,0.4,0.4,0.4l0.9,0.1c0.2,0,0.4-0.1,0.4-0.3l0.1-0.5c0.3-0.1,0.6-0.2,0.9-0.3l0.4,0.4
	c0.2,0.1,0.4,0.1,0.5,0l0.7-0.6c0.2-0.1,0.2-0.4,0.1-0.5l-0.3-0.5c0.2-0.2,0.3-0.5,0.4-0.8h0.6c0.2,0,0.4-0.2,0.4-0.4l0.1-0.9
	c0-0.2-0.1-0.4-0.3-0.4L27.9,13.5z M21.8,23.2c0-0.4,0-0.9-0.1-1.4l0.9-0.5c0.3-0.2,0.4-0.5,0.3-0.8l-0.7-1.4
	c-0.1-0.3-0.5-0.4-0.8-0.3l-1,0.3c-0.3-0.4-0.7-0.7-1-1l0.2-1c0.1-0.3-0.1-0.7-0.4-0.8l-1.5-0.5c-0.3-0.1-0.7,0-0.8,0.3L16.5,17
	c-0.5-0.1-1,0-1.5,0l-0.5-0.8c-0.2-0.3-0.5-0.4-0.8-0.3l-1.4,0.7c-0.3,0.1-0.5,0.5-0.4,0.8l0.3,0.9c-0.4,0.3-0.7,0.7-1,1.1l-0.9-0.2
	c-0.3-0.1-0.7,0.1-0.8,0.4L9,21.1c-0.1,0.3,0,0.7,0.3,0.8l0.8,0.4c0,0.5,0,1,0,1.5l-0.8,0.5C9,24.5,8.9,24.8,9,25.1l0.7,1.4
	c0.1,0.3,0.5,0.5,0.8,0.4l0.8-0.3c0.3,0.4,0.7,0.8,1.1,1.1l-0.2,0.9c-0.1,0.3,0.1,0.7,0.4,0.8l1.5,0.5c0.3,0.1,0.7,0,0.8-0.3
	l0.4-0.8c0.5,0,1.1,0,1.6-0.1l0.5,0.8c0.2,0.3,0.5,0.4,0.8,0.3l1.4-0.7c0.3-0.1,0.5-0.5,0.4-0.8l-0.3-0.9c0.4-0.3,0.7-0.7,1-1.1
	l0.9,0.2c0.3,0.1,0.7-0.1,0.8-0.4l0.5-1.5c0.1-0.3,0-0.7-0.3-0.8L21.8,23.2z M15.1,25.2L15.1,25.2c-1.3-0.5-2-2-1.5-3.3s2-2,3.3-1.5
	s2,2,1.5,3.3S16.4,25.7,15.1,25.2L15.1,25.2z M24.3,15.7L24.3,15.7c-0.9-0.1-1.5-0.8-1.4-1.7s0.8-1.5,1.7-1.4
	c0.9,0.1,1.5,0.8,1.4,1.7S25.1,15.8,24.3,15.7L24.3,15.7z M135,13.5c0-0.3-0.1-0.5-0.2-0.8l0.4-0.5c0.1-0.1,0.1-0.4,0-0.5l-0.6-0.7
	c-0.1-0.2-0.4-0.2-0.5-0.1l-0.5,0.3c-0.2-0.2-0.5-0.3-0.8-0.4v-0.6c0-0.2-0.2-0.4-0.4-0.4l-0.9-0.1c-0.2,0-0.4,0.1-0.4,0.3l-0.1,0.6
	c-0.3,0-0.6,0.1-0.9,0.3l-0.4-0.4c-0.2-0.1-0.4-0.1-0.5,0l-0.7,0.6c-0.2,0.1-0.2,0.4-0.1,0.5l0.3,0.5c-0.2,0.2-0.3,0.5-0.4,0.8h-0.5
	c-0.2,0-0.4,0.2-0.4,0.4l-0.1,0.9c0,0.2,0.1,0.4,0.3,0.4l0.5,0.1c0,0.3,0.1,0.6,0.3,0.8l-0.4,0.4c-0.1,0.1-0.1,0.4,0,0.5l0.6,0.7
	c0.1,0.2,0.4,0.2,0.5,0.1l0.4-0.3c0.3,0.2,0.5,0.3,0.8,0.4v0.5c0,0.2,0.2,0.4,0.4,0.4l0.9,0.1c0.2,0,0.4-0.1,0.4-0.3l0.1-0.5
	c0.3-0.1,0.6-0.2,0.9-0.3l0.4,0.4c0.2,0.1,0.4,0.1,0.5,0l0.7-0.6c0.1-0.1,0.2-0.4,0.1-0.5l-0.3-0.5c0.2-0.2,0.3-0.5,0.4-0.8h0.6
	c0.2,0,0.4-0.2,0.4-0.4l0.1-0.9c0-0.2-0.1-0.4-0.3-0.4L135,13.5z M128.9,23.2c0-0.4,0-0.9-0.1-1.4l0.9-0.5c0.3-0.2,0.4-0.5,0.3-0.8
	l-0.7-1.4c-0.1-0.3-0.5-0.4-0.8-0.3l-1,0.3c-0.3-0.4-0.7-0.7-1-1l0.2-1c0.1-0.3-0.1-0.7-0.4-0.8l-1.5-0.5c-0.3-0.1-0.7,0-0.8,0.3
	l-0.5,0.9c-0.5-0.1-1,0-1.5,0l-0.5-0.8c-0.2-0.3-0.5-0.4-0.8-0.3l-1.4,0.7c-0.3,0.1-0.5,0.5-0.4,0.8l0.3,0.9c-0.4,0.3-0.7,0.7-1,1.1
	l-0.9-0.2c-0.3-0.1-0.7,0.1-0.8,0.4l-0.5,1.5c-0.1,0.3,0,0.7,0.3,0.8l0.8,0.4c0,0.5,0,1,0,1.5l-0.8,0.5c-0.3,0.2-0.4,0.5-0.3,0.8
	l0.7,1.4c0.1,0.3,0.5,0.5,0.8,0.4l0.8-0.3c0.3,0.4,0.7,0.8,1.1,1.1l-0.2,0.9c-0.1,0.3,0.1,0.7,0.4,0.8l1.5,0.5
	c0.3,0.1,0.7,0,0.8-0.3l0.4-0.8c0.5,0,1.1,0,1.6-0.1l0.5,0.8c0.2,0.3,0.5,0.4,0.8,0.3l1.4-0.7c0.3-0.1,0.5-0.5,0.4-0.8l-0.3-0.9
	c0.4-0.3,0.7-0.7,1-1.1l0.9,0.2c0.3,0.1,0.7-0.1,0.8-0.4l0.5-1.5c0.1-0.3,0-0.7-0.3-0.8L128.9,23.2z M122.2,25.2L122.2,25.2
	c-1.3-0.5-2-2-1.5-3.3s2-2,3.3-1.5s2,2,1.5,3.3S123.5,25.7,122.2,25.2L122.2,25.2z M131.4,15.7L131.4,15.7c-0.9-0.1-1.5-0.8-1.4-1.7
	s0.8-1.5,1.7-1.4s1.5,0.8,1.4,1.7C133,15.2,132.2,15.8,131.4,15.7L131.4,15.7z"/>
<text transform="matrix(1 0 0 1 42.6689 24.917)" class="st2 st3 st4">SETTING</text>
</svg>
