<?xml version="1.0" encoding="utf-8"?>
<!-- Generator: Adobe Illustrator 23.0.3, SVG Export Plug-In . SVG Version: 6.00 Build 0)  -->
<svg version="1.1" id="Layer_1" xmlns="http://www.w3.org/2000/svg" xmlns:xlink="http://www.w3.org/1999/xlink" x="0px" y="0px"
	 viewBox="0 0 169 46.2" style="enable-background:new 0 0 169 46.2;" xml:space="preserve">
<style type="text/css">
	.st0{fill:#F3B61B;}
	.st1{fill:#454445;}
	.st2{fill:#E7E4E3;}
	.st3{font-family:'Comfortaa-Bold';}
	.st4{font-size:15.3223px;}
</style>
<path class="st0" d="M23.1,0h122.8C158.6,0,169,10.4,169,23.1l0,0c0,12.7-10.4,23.1-23.1,23.1H23.1C10.4,46.2,0,35.8,0,23.1l0,0
	C0,10.4,10.4,0,23.1,0L23.1,0z"/>
<path class="st1" d="M12.8,10.6l0.1-0.1c7.2-7.2,19-7.2,26.2,0l13.3,13.3L39.1,37c-7.2,7.2-19,7.2-26.2,0l-0.2-0.2
	C5.6,29.6,5.6,17.8,12.8,10.6L12.8,10.6z"/>
<path class="st2" d="M36.5,17.4c-0.1-0.3-0.2-0.6-0.3-0.9l0.5-0.5c0.2-0.2,0.2-0.4,0-0.6L36,14.5c-0.2-0.2-0.4-0.2-0.6-0.1l-0.6,0.4
	c-0.3-0.2-0.6-0.3-0.9-0.5v-0.7c0-0.2-0.2-0.4-0.4-0.4L32.4,13c-0.2,0-0.4,0.1-0.5,0.4l-0.1,0.7c-0.4,0.1-0.7,0.2-1,0.3l-0.5-0.5
	c-0.2-0.2-0.4-0.2-0.6,0l-0.8,0.7c-0.2,0.2-0.2,0.4-0.1,0.6l0.4,0.6c-0.2,0.3-0.4,0.6-0.5,0.9H28c-0.3,0-0.4,0.2-0.5,0.4l-0.1,1.1
	c0,0.2,0.1,0.4,0.4,0.5l0.6,0.1c0.1,0.3,0.2,0.7,0.3,1l-0.4,0.5c-0.2,0.2-0.2,0.4,0,0.6l0.7,0.8c0.2,0.2,0.4,0.2,0.6,0.1l0.5-0.3
	c0.3,0.2,0.6,0.4,1,0.5v0.6c0,0.2,0.2,0.4,0.4,0.5l1.1,0.1c0.2,0,0.4-0.1,0.5-0.4l0.1-0.6c0.4-0.1,0.7-0.2,1.1-0.3l0.5,0.4
	c0.2,0.2,0.4,0.2,0.6,0l0.8-0.7c0.2-0.1,0.2-0.4,0.1-0.6l-0.4-0.6c0.2-0.3,0.4-0.6,0.5-0.9h0.7c0.3,0,0.4-0.2,0.5-0.4l0.1-1.1
	c0-0.2-0.1-0.4-0.4-0.5L36.5,17.4z M29.4,28.7c0-0.5,0-1.1-0.1-1.6l1-0.6c0.3-0.2,0.4-0.6,0.3-1l-0.7-1.7c-0.2-0.4-0.6-0.5-0.9-0.4
	l-1.1,0.4c-0.4-0.4-0.7-0.8-1.2-1.1l0.3-1.2c0.1-0.4-0.1-0.8-0.5-0.9L24.7,20c-0.4-0.1-0.8,0-1,0.4l-0.5,1c-0.6-0.1-1.2,0-1.8,0.1
	l-0.6-1c-0.2-0.3-0.6-0.4-1-0.3L18.2,21c-0.4,0.2-0.5,0.6-0.4,0.9l0.3,1.1c-0.4,0.4-0.8,0.8-1.2,1.3l-1-0.3
	c-0.4-0.1-0.8,0.1-0.9,0.5l-0.6,1.7c-0.1,0.4,0,0.8,0.4,0.9l0.9,0.5c-0.1,0.6,0,1.1,0.1,1.7l-0.9,0.6c-0.3,0.2-0.5,0.6-0.3,1
	l0.8,1.6c0.2,0.4,0.6,0.5,0.9,0.4l1-0.3c0.4,0.5,0.8,0.9,1.3,1.2l-0.2,1c-0.1,0.4,0.1,0.8,0.5,0.9l1.7,0.6c0.4,0.1,0.8,0,0.9-0.4
	L22,35c0.6,0.1,1.2,0,1.8-0.1l0.6,0.9c0.2,0.3,0.6,0.5,1,0.3l1.6-0.8c0.4-0.2,0.5-0.6,0.4-0.9l-0.4-1c0.4-0.4,0.8-0.8,1.2-1.3
	l1.1,0.2c0.4,0.1,0.8-0.1,0.9-0.5l0.6-1.7c0.1-0.4,0-0.8-0.4-1L29.4,28.7z M21.5,31.1L21.5,31.1c-1.5-0.6-2.3-2.3-1.8-3.9
	c0.6-1.5,2.3-2.3,3.9-1.8c1.5,0.6,2.3,2.3,1.8,3.9C24.8,30.8,23.1,31.6,21.5,31.1L21.5,31.1z M32.3,20L32.3,20c-1-0.1-1.7-1-1.6-2
	s1-1.7,2-1.6c1,0.1,1.7,1,1.6,2S33.3,20,32.3,20L32.3,20z"/>
<text transform="matrix(1 0 0 1 65.8621 28.1816)" class="st1 st3 st4">SETTING</text>
</svg>
