<?xml version="1.0" encoding="utf-8"?>
<!-- Generator: Adobe Illustrator 23.0.3, SVG Export Plug-In . SVG Version: 6.00 Build 0)  -->
<svg version="1.1" id="Layer_1" xmlns="http://www.w3.org/2000/svg" xmlns:xlink="http://www.w3.org/1999/xlink" x="0px" y="0px"
	 viewBox="0 0 55.4 23.4" style="enable-background:new 0 0 55.4 23.4;" xml:space="preserve">
<style type="text/css">
	.st0{fill:#2BA6F9;}
	.st1{fill:#FFFFFF;}
	.st2{font-family:'RobotoSlab-Bold';}
	.st3{font-size:4.71px;}
</style>
<path class="st0" d="M48.9,4.9H18.6l-3.5-3.5c-1.9-1.9-5-1.9-6.9,0L1.4,8.2c-1.9,1.9-1.9,5,0,6.9l6.8,6.8c1.9,1.9,5,1.9,6.9,0
	l3.7-3.7h30c3.7,0,6.6-3,6.6-6.6l0,0C55.5,7.9,52.5,4.9,48.9,4.9z"/>
<path class="st1" d="M7.8,18.5l-3.3-3.3c-1.9-1.9-1.9-5,0-6.9L7.8,5c1.9-1.9,5-1.9,6.9,0L18,8.3c1.9,1.9,1.9,5,0,6.9l-3.3,3.3
	C12.8,20.4,9.7,20.4,7.8,18.5z"/>
<text transform="matrix(1 0 0 1 26.7543 13.4104)" class="st1 st2 st3">SHARE</text>
<path class="st0" d="M12.9,13.8c-0.3,0-0.6,0.1-0.9,0.4c-0.1,0.1-0.1,0.1-0.2,0.2L9.7,13c0.1-0.1,0.1-0.3,0.1-0.5s0-0.3-0.1-0.5
	l2.1-1.3c0.2,0.3,0.6,0.6,1,0.6c0.7,0,1.2-0.5,1.2-1.2s-0.5-1.2-1.2-1.2s-1.2,0.5-1.2,1.2c0,0.2,0,0.3,0.1,0.4l-2.1,1.4
	c-0.2-0.3-0.6-0.6-1-0.6c-0.7,0-1.2,0.5-1.2,1.2s0.5,1.2,1.2,1.2c0.4,0,0.8-0.2,1-0.6l2.1,1.3c0,0.3,0,0.4,0,0.6
	c0,0.3,0.1,0.6,0.4,0.9c0.2,0.2,0.5,0.4,0.9,0.4c0.3,0,0.6-0.1,0.9-0.4s0.4-0.5,0.4-0.9c0-0.3-0.1-0.6-0.4-0.9
	C13.6,13.9,13.2,13.8,12.9,13.8z"/>
</svg>
