<?xml version="1.0" encoding="utf-8"?>
<!-- Generator: Adobe Illustrator 23.0.3, SVG Export Plug-In . SVG Version: 6.00 Build 0)  -->
<svg version="1.1" id="Layer_1" xmlns="http://www.w3.org/2000/svg" xmlns:xlink="http://www.w3.org/1999/xlink" x="0px" y="0px"
	 viewBox="0 0 100 100" style="enable-background:new 0 0 100 100;" xml:space="preserve">
<style type="text/css">
	.st0{fill:#FF153C;}
	.st1{fill:#FFFFFF;}
</style>
<path class="st0" d="M100,90c0,5.5-4.5,10-10,10H10c-5.5,0-10-4.5-10-10V10C0,4.5,4.5,0,10,0h80c5.5,0,10,4.5,10,10V90z"/>
<g>
	<g>
		<path class="st1" d="M66,57.3c-2.4,0-4.5,1-6,2.6l-17.7-8.7c0.1-0.4,0.1-0.8,0.1-1.2c0-0.4,0-0.8-0.1-1.2l17.7-8.6
			c1.5,1.6,3.7,2.6,6.1,2.6c4.6,0,8.3-3.7,8.3-8.3c0-4.6-3.7-8.3-8.3-8.3c-4.6,0-8.3,3.7-8.3,8.3c0,0.4,0,0.8,0.1,1.2l-17.7,8.6
			c-1.5-1.6-3.7-2.6-6.1-2.6c-4.6,0-8.3,3.7-8.3,8.3c0,4.6,3.7,8.3,8.3,8.3c2.4,0,4.5-1,6-2.6l17.7,8.7c-0.1,0.4-0.1,0.8-0.1,1.2
			c0,4.6,3.7,8.3,8.3,8.3s8.3-3.7,8.3-8.3C74.3,61,70.6,57.3,66,57.3z"/>
	</g>
</g>
</svg>
