<?xml version="1.0" encoding="utf-8"?>
<!-- Generator: Adobe Illustrator 23.0.3, SVG Export Plug-In . SVG Version: 6.00 Build 0)  -->
<svg version="1.1" id="Layer_1" xmlns="http://www.w3.org/2000/svg" xmlns:xlink="http://www.w3.org/1999/xlink" x="0px" y="0px"
	 viewBox="0 0 144.3 35.5" style="enable-background:new 0 0 144.3 35.5;" xml:space="preserve">
<style type="text/css">
	.st0{fill:#78A548;}
	.st1{fill:#2B2A2F;}
	.st2{fill:#9FC54D;}
	.st3{fill:#373942;}
	.st4{fill:#FFFFFF;}
	.st5{font-family:'Swiss721BT-Black';}
	.st6{font-size:15.9889px;}
</style>
<g>
	<path class="st0" d="M144.1,18.1L131.8,2.3c-0.2-0.2-0.4-0.4-0.7-0.4H35.6v33.6h95.5c0.3,0,0.6-0.1,0.7-0.4L144,19.2
		C144.3,18.9,144.3,18.5,144.1,18.1z"/>
	<path class="st1" d="M7.4,1.9C3.3,1.9,0,5.3,0,9.3V28c0,4.1,3.3,7.4,7.4,7.4h28.2V1.9H7.4z"/>
</g>
<g>
	<path class="st2" d="M143.1,16.2L130.8,0.4c-0.2-0.2-0.5-0.4-0.7-0.4H35.6v33.6h94.5c0.3,0,0.6-0.1,0.7-0.4L143,17.4
		C143.3,17,143.3,16.5,143.1,16.2z"/>
	<path class="st3" d="M7.4,0C3.3,0,0,3.3,0,7.4v18.7c0,4.1,3.3,7.4,7.4,7.4h28.2V0H7.4z"/>
</g>
<g>
	<text transform="matrix(1 0 0 1 55.5444 21.6426)" class="st4 st5 st6">Sign In</text>
</g>
<g>
	<g>
		<path class="st4" d="M19.8,22.4c0-1.4,0.8-2.6,1.9-3.2c-0.7-0.2-1.5-0.4-2.3-0.5c1.7-0.9,2.9-2.8,2.9-4.9c0-3.1-2.5-5.6-5.6-5.6
			s-5.6,2.5-5.6,5.6c0,2.1,1.2,3.9,2.9,4.9c-4.2,0.7-7.3,2.8-7.3,5.3h13.4C19.9,23.5,19.8,23,19.8,22.4z"/>
	</g>
	<path class="st4" d="M23.6,19.5c-1.6,0-2.9,1.3-2.9,2.9s1.3,2.9,2.9,2.9s2.9-1.3,2.9-2.9S25.2,19.5,23.6,19.5z M25.5,22.9h-1.4v1.4
		h-1v-1.4h-1.4v-1H23v-1.4h1v1.4h1.4C25.5,21.9,25.5,22.9,25.5,22.9z"/>
</g>
</svg>
