<?xml version="1.0" encoding="utf-8"?>
<!-- Generator: Adobe Illustrator 23.0.3, SVG Export Plug-In . SVG Version: 6.00 Build 0)  -->
<svg version="1.1" id="Layer_1" xmlns="http://www.w3.org/2000/svg" xmlns:xlink="http://www.w3.org/1999/xlink" x="0px" y="0px"
	 viewBox="0 0 45.8 16" style="enable-background:new 0 0 45.8 16;" xml:space="preserve">
<style type="text/css">
	.st0{fill:#F5AC00;}
	.st1{fill-rule:evenodd;clip-rule:evenodd;fill:#2B2B2B;}
	.st2{fill:#FFFFFF;}
	.st3{font-family:'Poppins-Regular';}
	.st4{font-size:4.6336px;}
</style>
<g>
	<path class="st0" d="M34,16H3c-1.7,0-3-1.3-3-3V3c0-1.7,1.3-3,3-3h31c1.7,0,3,1.3,3,3v10C37,14.7,35.7,16,34,16z"/>
	<path class="st1" d="M37.7,0H23.6c2,2.1,3.2,4.9,3.2,8s-1.2,5.9-3.2,8h14c2.5,0,4.9-1,6.4-2.9c2.9-3.5,2.3-8.7-1.4-11.5
		C41.3,0.5,39.5,0,37.7,0z"/>
</g>
<g>
	<path class="st2" d="M35,8.4c0.9,0,1.6-0.7,1.6-1.6c0-0.9-0.7-1.6-1.6-1.6s-1.6,0.7-1.6,1.6C33.4,7.6,34.1,8.4,35,8.4L35,8.4z
		 M35,5.6c0.7,0,1.2,0.5,1.2,1.2S35.7,8,35,8s-1.2-0.5-1.2-1.2S34.3,5.6,35,5.6L35,5.6z"/>
	<path class="st2" d="M32.2,10.9h5.6c0.1,0,0.2-0.1,0.2-0.2c0-1.1-0.9-2-2-2h-2c-1.1,0-2,0.9-2,2C32,10.8,32.1,10.9,32.2,10.9
		L32.2,10.9z M34,9.1h2c0.8,0,1.5,0.6,1.6,1.4h-5.1C32.5,9.7,33.2,9.1,34,9.1L34,9.1z"/>
</g>
<text transform="matrix(1 0 0 1 4.9834 9.8057)" class="st2 st3 st4">Sign up</text>
</svg>
