<?xml version="1.0" encoding="utf-8"?>
<!-- Generator: Adobe Illustrator 23.0.3, SVG Export Plug-In . SVG Version: 6.00 Build 0)  -->
<svg version="1.1" id="Layer_1" xmlns="http://www.w3.org/2000/svg" xmlns:xlink="http://www.w3.org/1999/xlink" x="0px" y="0px"
	 viewBox="0 0 45 15" style="enable-background:new 0 0 45 15;" xml:space="preserve">
<style type="text/css">
	.st0{fill:#FFFFFF;}
	.st1{fill:#6748A3;}
	.st2{fill-rule:evenodd;clip-rule:evenodd;fill:#6748A3;}
	.st3{font-family:'Quicksand-Regular';}
	.st4{font-size:7px;}
</style>
<path class="st0" d="M36.9,3.2l-3.6,3.4c-0.4,0.4-0.4,1,0,1.5l1.6,1.7l1.8,1.9c0.4,0.4,1,0.4,1.5,0l3.6-3.4c0.4-0.4,0.4-1,0-1.5
	L40,5l-1.6-1.7C37.9,2.9,37.3,2.8,36.9,3.2z"/>
<path class="st1" d="M38.8,0H2.2C1,0,0,1,0,2.2v8.7C0,13.2,1.8,15,4.1,15h38.7c1.2,0,2.2-1,2.2-2.2V6.3C45,2.8,42.2,0,38.8,0z
	 M42.3,9l-3,3.2c-0.9,1-2.3,1-3.2,0.1l-1.7-1.6l-1.5-1.4C32,8.4,32,7,32.8,6.1l3-3.2C36.7,2,38.1,2,39,2.8l1.5,1.4l1.7,1.6
	C43.1,6.7,43.1,8.1,42.3,9z"/>
<g>
	<path class="st2" d="M40.2,8.6c-0.3,0.1-0.7,0.2-1,0.2c0,0-0.1,0-0.1-0.1c-0.1-0.5-0.4-0.8-0.9-0.9c0.1-0.1,0.2-0.1,0.3-0.1
		s0.1-0.1,0.1-0.2s-0.1-0.1-0.1-0.2c-0.2-0.2-0.2-0.5-0.1-0.8s0.4-0.4,0.7-0.4s0.5,0.3,0.5,0.6s0,0.5-0.2,0.7
		c-0.1,0.1-0.1,0.2-0.1,0.2c0.1,0,0.3,0.1,0.4,0.1C40,7.8,40.2,8,40.3,8.3v0.1C40.2,8.5,40.2,8.6,40.2,8.6z"/>
	<path class="st2" d="M37.1,8c0-0.1-0.1-0.2-0.1-0.3c-0.2-0.2-0.2-0.4-0.2-0.7c0-0.4,0.3-0.7,0.7-0.7s0.6,0.3,0.7,0.7
		c0,0.3-0.1,0.5-0.2,0.7c-0.1,0.1-0.1,0.2-0.1,0.2C38.1,8,38.2,8,38.4,8.1c0.4,0.1,0.5,0.4,0.5,0.8c0,0.1,0,0.1-0.1,0.1
		c-0.5,0.2-1,0.2-1.4,0.2s-0.7-0.1-1.1-0.1c-0.1,0-0.1-0.1-0.1-0.2c0.1-0.4,0.2-0.6,0.6-0.8C36.8,8.1,37,8,37.1,8z"/>
	<path class="st2" d="M36.8,7.8c-0.5,0.1-0.8,0.5-0.9,1c-0.4,0-0.7,0-1.1-0.2c0,0-0.1-0.1-0.1-0.2c0.1-0.4,0.2-0.6,0.6-0.7
		c0.1,0,0.2-0.1,0.3-0.1c0-0.1-0.1-0.2-0.1-0.2c-0.2-0.2-0.3-0.5-0.2-0.8s0.3-0.5,0.6-0.5s0.5,0.2,0.6,0.5s0,0.5-0.1,0.7
		c0,0.1-0.1,0.1-0.1,0.2s0,0.1,0.1,0.2C36.6,7.7,36.7,7.8,36.8,7.8z"/>
</g>
<text transform="matrix(1 0 0 1 6.5 9.8454)" class="st0 st3 st4">TEAM</text>
</svg>
