<?xml version="1.0" encoding="utf-8"?>
<!-- Generator: Adobe Illustrator 23.0.3, SVG Export Plug-In . SVG Version: 6.00 Build 0)  -->
<svg version="1.1" id="Layer_1" xmlns="http://www.w3.org/2000/svg" xmlns:xlink="http://www.w3.org/1999/xlink" x="0px" y="0px"
	 viewBox="0 0 51.1 14.2" style="enable-background:new 0 0 51.1 14.2;" xml:space="preserve">
<style type="text/css">
	.st0{fill:#EDEDED;}
	.st1{fill:#FDC830;}
	.st2{fill:#FFFFFF;}
	.st3{font-family:'Poppins-Regular';}
	.st4{font-size:4.8142px;}
	.st5{opacity:0.29;}
	.st6{fill-rule:evenodd;clip-rule:evenodd;fill:#EDEDED;}
	.st7{fill-rule:evenodd;clip-rule:evenodd;fill:#FFFFFF;}
</style>
<g>
	<path class="st0" d="M44.6,14.2H14.5c-3.6,0-6.5-2.9-6.5-6.5l0,0c0-3.6,2.9-6.5,6.5-6.5h30.1c3.6,0,6.5,2.9,6.5,6.5l0,0
		C51.1,11.3,48.2,14.2,44.6,14.2z"/>
</g>
<g>
	<path class="st1" d="M43.5,13h-37C2.9,13,0,10.1,0,6.5l0,0C0,2.9,2.9,0,6.5,0h37C47.1,0,50,2.9,50,6.5l0,0C50,10.1,47.1,13,43.5,13
		z"/>
</g>
<text transform="matrix(1.083 0 0 1 8 8.0975)" class="st2 st3 st4">UPLOAD</text>
<g class="st5">
	<path class="st6" d="M35.1,8.4c0.1-0.2,0.1-0.3,0.2-0.5c0.2-0.4,0.5-0.7,0.9-0.7c0.2,0,0.2-0.1,0.3-0.3c0.2-0.8,0.8-1.3,1.5-1.3
		c0.1,0,0.2,0,0.3,0c0.3,0.1,0.4,0,0.6-0.2c1.1-1.1,2.8-0.7,3.5,0.8c0.1,0.2,0.2,0.3,0.5,0.4c0.7,0.1,1.2,0.5,1.4,1.1
		c0.2,0.7,0.2,1.4-0.3,2c-0.2,0.2-0.5,0.3-0.7,0.4c-0.7,0-1.5,0-2.2,0c0-0.4,0-0.8,0-1.3c0.3,0,0.5,0,0.8,0c0,0,0,0,0-0.1
		c-0.7-0.8-1.3-1.6-2-2.4c-0.7,0.8-1.3,1.6-2,2.4c0.3,0,0.6,0,0.9,0c0,0.4,0,0.9,0,1.3c-0.5,0-0.9,0-1.4,0c-0.3,0-0.7,0-1,0
		c-0.7-0.1-1.1-0.4-1.2-1.1c0,0,0-0.1-0.1-0.1C35.1,8.7,35.1,8.6,35.1,8.4z"/>
</g>
<path class="st7" d="M34.1,7.4c0.1-0.2,0.1-0.3,0.2-0.5c0.2-0.4,0.5-0.7,0.9-0.7c0.2,0,0.2-0.1,0.3-0.3c0.2-0.8,0.8-1.3,1.5-1.3
	c0.1,0,0.2,0,0.3,0c0.3,0.1,0.4,0,0.6-0.2c1.1-1.1,2.8-0.7,3.5,0.8c0.1,0.2,0.2,0.3,0.5,0.4c0.7,0.1,1.2,0.5,1.4,1.1
	c0.2,0.7,0.2,1.4-0.3,2c-0.2,0.2-0.5,0.3-0.7,0.4c-0.7,0-1.5,0-2.2,0c0-0.4,0-0.8,0-1.3c0.3,0,0.5,0,0.8,0c0,0,0,0,0-0.1
	c-0.7-0.8-1.3-1.6-2-2.4c-0.7,0.8-1.3,1.6-2,2.4c0.3,0,0.6,0,0.9,0c0,0.4,0,0.9,0,1.3c-0.5,0-0.9,0-1.4,0c-0.3,0-0.7,0-1,0
	c-0.7-0.1-1.1-0.4-1.2-1.1c0,0,0-0.1-0.1-0.1C34.1,7.7,34.1,7.6,34.1,7.4z"/>
</svg>
