<?xml version="1.0" encoding="utf-8"?>
<!-- Generator: Adobe Illustrator 23.0.3, SVG Export Plug-In . SVG Version: 6.00 Build 0)  -->
<svg version="1.1" id="Layer_1" xmlns="http://www.w3.org/2000/svg" xmlns:xlink="http://www.w3.org/1999/xlink" x="0px" y="0px"
	 viewBox="0 0 56 12" style="enable-background:new 0 0 56 12;" xml:space="preserve">
<style type="text/css">
	.st0{fill:#26A0DA;}
	.st1{fill:#FFFFFF;}
	.st2{font-family:'Quicksand-Regular';}
	.st3{font-size:7px;}
</style>
<g>
	<rect x="47.2" y="4.5" class="st0" width="1.2" height="3"/>
	<polygon class="st0" points="50.8,3.2 48.7,4.5 48.7,7.5 50.8,8.8 50.8,6.8 51.3,6.8 51.3,5.2 50.8,5.2 	"/>
	<path class="st0" d="M50,0H6C2.7,0,0,2.7,0,6s2.7,6,6,6h44c3.3,0,6-2.7,6-6S53.3,0,50,0z M51,10.1c-1.8,0.8-3.8,0.4-5.1-1l-2.3-0.3
		c-0.3,0-0.4-0.2-0.4-0.3s0.1-0.3,0.1-0.3l1.3-1.8c-0.2-1.9,0.8-3.8,2.6-4.7c2.3-1,4.9,0,6,2.2C54.3,6.4,53.3,9.1,51,10.1z"/>
</g>
<text transform="matrix(1 0 0 1 9.5 8.3236)" class="st1 st2 st3">Volume</text>
</svg>
