<?xml version="1.0" encoding="utf-8"?>
<!-- Generator: Adobe Illustrator 23.0.3, SVG Export Plug-In . SVG Version: 6.00 Build 0)  -->
<svg version="1.1" id="Layer_1" xmlns="http://www.w3.org/2000/svg" xmlns:xlink="http://www.w3.org/1999/xlink" x="0px" y="0px"
	 viewBox="0 0 164.5 41.5" style="enable-background:new 0 0 164.5 41.5;" xml:space="preserve">
<style type="text/css">
	.st0{fill:#82C250;}
	.st1{fill:#99D468;}
	.st2{fill:#F5F5F5;}
	.st3{fill:none;}
	.st4{font-family:'OpenSans-Bold';}
	.st5{font-size:14.1818px;}
	.st6{fill:#C7CBD4;}
</style>
<g>
	<g>
		<path class="st0" d="M164.5,36.5c0,2.8-2.3,5-5,5H5c-2.8,0-5-2.3-5-5V5.4c0-2.8,2.3-5,5-5h154.5c2.8,0,5,2.3,5,5V36.5z"/>
	</g>
	<g>
		<path class="st1" d="M164.5,32c0,2.8-2.3,5-5,5H5c-2.8,0-5-2.3-5-5V5c0-2.7,2.3-5,5-5h154.5c2.8,0,5,2.3,5,5V32z"/>
	</g>
</g>
<circle class="st2" cx="142.3" cy="18.6" r="15.1"/>
<rect y="13.8" class="st3" width="127.2" height="9.6"/>
<text transform="matrix(1 0 0 1 22.6641 22.9492)" class="st2 st4 st5">Button Text</text>
<path class="st6" d="M140.6,13l-3.1,2.3h-2.8c-0.5,0-0.8,0.4-0.8,0.8V22c0,0.5,0.4,0.8,0.8,0.8h2.8l3.1,2.3c0.6,0.4,1.3,0,1.3-0.7
	V13.7C142,13,141.2,12.6,140.6,13L140.6,13z M144.8,14.4c-0.4-0.4-1-0.4-1.4,0s-0.4,1,0,1.4c1.8,1.8,1.8,4.8,0,6.6
	c-0.4,0.4-0.4,1,0,1.4c0.2,0.2,0.4,0.3,0.7,0.3c0.2,0,0.5-0.1,0.7-0.3C147.4,21.2,147.4,17,144.8,14.4L144.8,14.4z M145.9,12.2
	c-0.4,0.4-0.4,1,0,1.4c1.5,1.5,2.3,3.4,2.3,5.5s-0.8,4-2.3,5.5c-0.4,0.4-0.4,1,0,1.4c0.2,0.2,0.4,0.3,0.7,0.3s0.5-0.1,0.7-0.3
	c1.8-1.8,2.9-4.3,2.9-6.9s-1-5.1-2.9-6.9C146.9,11.8,146.3,11.8,145.9,12.2L145.9,12.2z"/>
</svg>
