<?xml version="1.0" encoding="utf-8"?>
<!-- Generator: Adobe Illustrator 22.0.1, SVG Export Plug-In . SVG Version: 6.00 Build 0)  -->
<svg version="1.1" id="Layer_1" xmlns="http://www.w3.org/2000/svg" xmlns:xlink="http://www.w3.org/1999/xlink" x="0px" y="0px"
	 viewBox="0 0 86.8 21.3" style="enable-background:new 0 0 86.8 21.3;" xml:space="preserve">
<style type="text/css">
	.st0{fill:#ED116B;}
	.st1{fill:#D60B5E;}
	.st2{fill:#FF1268;}
</style>
<path class="st0" d="M20.3,10.8c-6.9,0.9-13.4,0.9-20.3,0c1.3-1.9,1.9-2.9,3.2-4.9C1.9,3.6,1.3,2.4,0,0c6.9,0.9,13.4,0.9,20.3,0
	V10.8z M66.9,10.8c6.8,0.9,13.1,0.9,19.9,0c-1.2-1.9-1.9-2.9-3.1-4.9c1.2-2.3,1.9-3.5,3.1-5.9C80,0.9,73.7,0.9,66.9,0V10.8z"/>
<path class="st1" d="M8.4,3.6c0,0,4-0.5,6.5-1.2C17.8,1.6,20.3,0,20.3,0v7.4L8.4,3.6z M78.4,3.6c0,0-3.9-0.5-6.2-1.2
	C69.5,1.5,66.9,0,66.9,0v7.4L78.4,3.6z"/>
<path class="st2" d="M8.4,3.6c23.5,6.4,46.5,6.4,70,0v12.9c-23.5,6.4-46.5,6.4-70,0C8.4,16.5,8.4,3.6,8.4,3.6z"/>
</svg>
