<?xml version="1.0" encoding="utf-8"?>
<!-- Generator: Adobe Illustrator 22.0.1, SVG Export Plug-In . SVG Version: 6.00 Build 0)  -->
<svg version="1.1" id="Layer_1" xmlns="http://www.w3.org/2000/svg" xmlns:xlink="http://www.w3.org/1999/xlink" x="0px" y="0px"
	 viewBox="0 0 90 77.8" style="enable-background:new 0 0 90 77.8;" xml:space="preserve">
<style type="text/css">
	.st0{fill:#010101;}
	.st1{fill:#B71C1C;}
	.st2{fill:#FFFFFF;}
</style>
<path class="st0" d="M7.7,72.5c-0.1,0-0.1,0-0.2-0.1s-0.1-0.1-0.1-0.2L6.3,0.3c0-0.1,0-0.2,0.1-0.2C6.4,0,6.5,0,6.6,0l70.3,12.1
	c0.1,0,0.2,0.1,0.2,0.2l7.8,54.9c0,0.1,0,0.2-0.1,0.2c-0.1,0.1-0.1,0.1-0.2,0.1L7.7,72.5C7.8,72.5,7.8,72.5,7.7,72.5z M6.9,0.6
	L8,71.8L84.3,67l-7.7-54.3L6.9,0.6z M13.4,6.9c0-0.2-0.1-0.3-0.3-0.3H9.3C9.2,6.6,9,6.8,9,6.9s0.1,0.3,0.3,0.3H13
	C13.2,7.2,13.4,7.1,13.4,6.9z M11.5,8.8V5c0-0.2-0.1-0.3-0.3-0.3S10.9,4.8,10.9,5v3.7C10.9,8.9,11,9,11.2,9
	C11.4,9.1,11.5,9,11.5,8.8z M2.4,20.8c-1.3,0-2.4-1.1-2.4-2.4S1.1,16,2.4,16s2.4,1.1,2.4,2.4C4.9,19.7,3.8,20.8,2.4,20.8z M2.4,16.5
	c-1,0-1.9,0.8-1.9,1.9s0.8,1.9,1.9,1.9s1.9-0.8,1.9-1.9S3.5,16.5,2.4,16.5z M52.6,74c0-0.2-0.1-0.3-0.3-0.3h-3.7
	c-0.2,0-0.3,0.1-0.3,0.3c0,0.2,0.1,0.3,0.3,0.3h3.7C52.4,74.3,52.6,74.2,52.6,74z M50.7,75.9v-3.7c0-0.2-0.1-0.3-0.3-0.3
	s-0.3,0.1-0.3,0.3v3.7c0,0.2,0.1,0.3,0.3,0.3S50.7,76.1,50.7,75.9z M90,28.3c0-0.2-0.1-0.3-0.3-0.3H86c-0.2,0-0.3,0.1-0.3,0.3
	s0.1,0.3,0.3,0.3h3.7C89.9,28.6,90,28.5,90,28.3z M88.1,30.2v-3.7c0-0.2-0.1-0.3-0.3-0.3c-0.2,0-0.3,0.1-0.3,0.3v3.7
	c0,0.2,0.1,0.3,0.3,0.3S88.1,30.3,88.1,30.2z M38.4,77.8c-1.3,0-2.4-1.1-2.4-2.4s1.1-2.4,2.4-2.4c1.3,0,2.4,1.1,2.4,2.4
	C40.9,76.7,39.8,77.8,38.4,77.8z M38.4,73.5c-1,0-1.9,0.8-1.9,1.9c0,1,0.8,1.9,1.9,1.9c1,0,1.9-0.8,1.9-1.9
	C40.3,74.4,39.5,73.5,38.4,73.5z M54.2,0.4c0-0.2-0.1-0.3-0.3-0.3H40.2c-0.2,0-0.3,0.1-0.3,0.3s0.1,0.3,0.3,0.3H54
	C54.1,0.7,54.2,0.6,54.2,0.4z M57.7,3.5c0-0.2-0.1-0.3-0.3-0.3h-8.9c-0.2,0-0.3,0.1-0.3,0.3s0.1,0.3,0.3,0.3h8.9
	C57.6,3.8,57.7,3.7,57.7,3.5z"/>
<polygon class="st1" points="85.6,7.1 75.3,72.5 0.9,61.5 14.9,8.9 "/>
<polygon class="st2" points="9.6,44.4 84.7,37.7 80.4,61.7 15.4,68.1 "/>
</svg>
