<?xml version="1.0" encoding="utf-8"?>
<!-- Generator: Adobe Illustrator 23.0.3, SVG Export Plug-In . SVG Version: 6.00 Build 0)  -->
<svg version="1.1" id="Layer_1" xmlns="http://www.w3.org/2000/svg" xmlns:xlink="http://www.w3.org/1999/xlink" x="0px" y="0px"
	 viewBox="0 0 47.9 44" style="enable-background:new 0 0 47.9 44;" xml:space="preserve">
<style type="text/css">
	.st0{fill:#00D09E;}
	.st1{fill:url(#SVGID_1_);}
	.st2{fill:#FFFFFF;}
	.st3{fill:url(#SVGID_2_);}
	.st4{fill:url(#SVGID_3_);}
	.st5{fill:url(#SVGID_4_);}
	.st6{fill:url(#SVGID_5_);}
	.st7{fill:url(#SVGID_6_);}
	.st8{fill:url(#SVGID_7_);}
	.st9{fill:url(#SVGID_8_);}
	.st10{fill:url(#SVGID_9_);}
	.st11{fill:url(#SVGID_10_);}
	.st12{fill:url(#SVGID_11_);}
</style>
<polygon class="st0" points="36.6,40.6 23.2,37 10,41.4 9.2,27.5 0.9,16.3 13.9,11.3 22,0 30.8,10.8 44,15 36.5,26.6 "/>
<linearGradient id="SVGID_1_" gradientUnits="userSpaceOnUse" x1="19.3974" y1="1084.5815" x2="21.8974" y2="1044.0815" gradientTransform="matrix(1 0 0 1 0 -1037.4)">
	<stop  offset="0" style="stop-color:#000000"/>
	<stop  offset="0.2031" style="stop-color:#040404"/>
	<stop  offset="0.4238" style="stop-color:#111111"/>
	<stop  offset="0.6526" style="stop-color:#272727"/>
	<stop  offset="0.8856" style="stop-color:#454545"/>
	<stop  offset="1" style="stop-color:#575757"/>
</linearGradient>
<polygon class="st1" points="39.8,37.4 25.9,36.4 13.8,43.2 10.5,29.6 0.3,20.2 12.1,12.8 18,0.2 28.6,9.2 42.4,10.9 37.2,23.8 "/>
<g>
	<path class="st2" d="M11.5,42.6l-2-13.1l-8.9-9.8l11.8-6L19,2.2l9.4,9.4l13,2.7l-6.1,11.8l1.4,13.2l-13.1-2.1L11.5,42.6z M0.8,19.8
		l8.8,9.7l0,0l2,12.9l11.9-5.3l0,0l12.9,2.1l-1.4-13l0,0l6-11.6l-12.8-2.7L19,2.6l-6.5,11.3l0,0L0.8,19.8z"/>
</g>
<g>
	<polygon class="st0" points="34.3,4.5 33.1,4.4 32.2,5.3 32,4.1 30.9,3.6 32,3 32.1,1.8 33,2.6 34.2,2.4 33.7,3.5 	"/>
	<polygon class="st0" points="5.1,33.5 5.6,34.5 6.7,34.6 5.9,35.4 6.1,36.5 5.1,36 4.1,36.5 4.3,35.4 3.5,34.6 4.6,34.5 	"/>
	<polygon class="st0" points="27.5,42.2 26.6,42.5 26.3,43.5 25.7,42.7 24.6,42.7 25.2,41.9 24.9,40.9 25.9,41.2 26.7,40.6 
		26.7,41.6 	"/>
	<polygon class="st0" points="44.1,21.7 43.6,21.1 42.9,21.2 43.3,20.5 42.9,19.8 43.7,20 44.2,19.5 44.3,20.2 45,20.6 44.3,20.9 	
		"/>
	<polygon class="st0" points="9.5,9.9 8.6,9.8 8.1,10.5 7.9,9.6 7.1,9.3 7.8,8.9 7.9,8 8.5,8.6 9.4,8.4 9,9.2 	"/>
	
		<linearGradient id="SVGID_2_" gradientUnits="userSpaceOnUse" x1="39.2887" y1="1043.8961" x2="39.6501" y2="1041.9603" gradientTransform="matrix(1 0 0 1 0 -1037.4)">
		<stop  offset="0" style="stop-color:#000000"/>
		<stop  offset="0.2031" style="stop-color:#040404"/>
		<stop  offset="0.4238" style="stop-color:#111111"/>
		<stop  offset="0.6526" style="stop-color:#272727"/>
		<stop  offset="0.8856" style="stop-color:#454545"/>
		<stop  offset="1" style="stop-color:#575757"/>
	</linearGradient>
	<circle class="st3" cx="39.4" cy="5.9" r="0.6"/>
	
		<linearGradient id="SVGID_3_" gradientUnits="userSpaceOnUse" x1="0.7289" y1="1064.9167" x2="1.3011" y2="1061.8516" gradientTransform="matrix(1 0 0 1 0 -1037.4)">
		<stop  offset="0" style="stop-color:#000000"/>
		<stop  offset="0.2031" style="stop-color:#040404"/>
		<stop  offset="0.4238" style="stop-color:#111111"/>
		<stop  offset="0.6526" style="stop-color:#272727"/>
		<stop  offset="0.8856" style="stop-color:#454545"/>
		<stop  offset="1" style="stop-color:#575757"/>
	</linearGradient>
	<circle class="st4" cx="0.9" cy="26.6" r="0.9"/>
	
		<linearGradient id="SVGID_4_" gradientUnits="userSpaceOnUse" x1="7.2027" y1="1066.7211" x2="7.5339" y2="1064.9467" gradientTransform="matrix(1 0 0 1 0 -1037.4)">
		<stop  offset="0" style="stop-color:#000000"/>
		<stop  offset="0.2031" style="stop-color:#040404"/>
		<stop  offset="0.4238" style="stop-color:#111111"/>
		<stop  offset="0.6526" style="stop-color:#272727"/>
		<stop  offset="0.8856" style="stop-color:#454545"/>
		<stop  offset="1" style="stop-color:#575757"/>
	</linearGradient>
	<circle class="st5" cx="7.3" cy="28.8" r="0.6"/>
	
		<linearGradient id="SVGID_5_" gradientUnits="userSpaceOnUse" x1="2.8682" y1="1049.9063" x2="3.2897" y2="1047.6477" gradientTransform="matrix(1 0 0 1 0 -1037.4)">
		<stop  offset="0" style="stop-color:#000000"/>
		<stop  offset="0.2031" style="stop-color:#040404"/>
		<stop  offset="0.4238" style="stop-color:#111111"/>
		<stop  offset="0.6526" style="stop-color:#272727"/>
		<stop  offset="0.8856" style="stop-color:#454545"/>
		<stop  offset="1" style="stop-color:#575757"/>
	</linearGradient>
	<circle class="st6" cx="3" cy="11.8" r="0.7"/>
	
		<linearGradient id="SVGID_6_" gradientUnits="userSpaceOnUse" x1="11.6323" y1="1039.6624" x2="11.8431" y2="1038.5332" gradientTransform="matrix(1 0 0 1 0 -1037.4)">
		<stop  offset="0" style="stop-color:#000000"/>
		<stop  offset="0.2031" style="stop-color:#040404"/>
		<stop  offset="0.4238" style="stop-color:#111111"/>
		<stop  offset="0.6526" style="stop-color:#272727"/>
		<stop  offset="0.8856" style="stop-color:#454545"/>
		<stop  offset="1" style="stop-color:#575757"/>
	</linearGradient>
	<circle class="st7" cx="11.7" cy="1.9" r="0.3"/>
	
		<linearGradient id="SVGID_7_" gradientUnits="userSpaceOnUse" x1="42.2786" y1="1067.9503" x2="42.67" y2="1065.8531" gradientTransform="matrix(1 0 0 1 0 -1037.4)">
		<stop  offset="0" style="stop-color:#000000"/>
		<stop  offset="0.2031" style="stop-color:#040404"/>
		<stop  offset="0.4238" style="stop-color:#111111"/>
		<stop  offset="0.6526" style="stop-color:#272727"/>
		<stop  offset="0.8856" style="stop-color:#454545"/>
		<stop  offset="1" style="stop-color:#575757"/>
	</linearGradient>
	<circle class="st8" cx="42.4" cy="29.9" r="0.6"/>
	
		<linearGradient id="SVGID_8_" gradientUnits="userSpaceOnUse" x1="32.1017" y1="1080.8267" x2="32.4329" y2="1079.0522" gradientTransform="matrix(1 0 0 1 0 -1037.4)">
		<stop  offset="0" style="stop-color:#000000"/>
		<stop  offset="0.2031" style="stop-color:#040404"/>
		<stop  offset="0.4238" style="stop-color:#111111"/>
		<stop  offset="0.6526" style="stop-color:#272727"/>
		<stop  offset="0.8856" style="stop-color:#454545"/>
		<stop  offset="1" style="stop-color:#575757"/>
	</linearGradient>
	<circle class="st9" cx="32.2" cy="42.9" r="0.6"/>
	
		<linearGradient id="SVGID_9_" gradientUnits="userSpaceOnUse" x1="11.6094" y1="1081.485" x2="11.8805" y2="1080.0332" gradientTransform="matrix(1 0 0 1 0 -1037.4)">
		<stop  offset="0" style="stop-color:#000000"/>
		<stop  offset="0.2031" style="stop-color:#040404"/>
		<stop  offset="0.4238" style="stop-color:#111111"/>
		<stop  offset="0.6526" style="stop-color:#272727"/>
		<stop  offset="0.8856" style="stop-color:#454545"/>
		<stop  offset="1" style="stop-color:#575757"/>
	</linearGradient>
	<circle class="st10" cx="11.7" cy="43.6" r="0.4"/>
	
		<linearGradient id="SVGID_10_" gradientUnits="userSpaceOnUse" x1="44.6322" y1="1050.9629" x2="44.8732" y2="1049.6724" gradientTransform="matrix(1 0 0 1 0 -1037.4)">
		<stop  offset="0" style="stop-color:#000000"/>
		<stop  offset="0.2031" style="stop-color:#040404"/>
		<stop  offset="0.4238" style="stop-color:#111111"/>
		<stop  offset="0.6526" style="stop-color:#272727"/>
		<stop  offset="0.8856" style="stop-color:#454545"/>
		<stop  offset="1" style="stop-color:#575757"/>
	</linearGradient>
	<circle class="st11" cx="44.7" cy="13.2" r="0.4"/>
	
		<linearGradient id="SVGID_11_" gradientUnits="userSpaceOnUse" x1="46.9488" y1="1064.7098" x2="47.4306" y2="1062.1287" gradientTransform="matrix(1 0 0 1 0 -1037.4)">
		<stop  offset="0" style="stop-color:#000000"/>
		<stop  offset="0.2031" style="stop-color:#040404"/>
		<stop  offset="0.4238" style="stop-color:#111111"/>
		<stop  offset="0.6526" style="stop-color:#272727"/>
		<stop  offset="0.8856" style="stop-color:#454545"/>
		<stop  offset="1" style="stop-color:#575757"/>
	</linearGradient>
	<circle class="st12" cx="47.1" cy="26.5" r="0.8"/>
</g>
</svg>
