<?xml version="1.0" encoding="utf-8"?>
<!-- Generator: Adobe Illustrator 23.0.3, SVG Export Plug-In . SVG Version: 6.00 Build 0)  -->
<svg version="1.1" id="Capa_1" xmlns="http://www.w3.org/2000/svg" xmlns:xlink="http://www.w3.org/1999/xlink" x="0px" y="0px"
	 viewBox="0 0 285 235.5" style="enable-background:new 0 0 285 235.5;" xml:space="preserve">
<style type="text/css">
	.st0{fill:#DD2A2A;}
	.st1{fill:#FFFFFF;}
	.st2{font-family:'ArialMT';}
	.st3{font-size:39.613px;}
</style>
<g>
	<g>
		<polygon class="st0" points="42.8,158.1 42.8,175.9 69.2,192.2 84.3,219.9 115.5,219.9 142.5,235.5 169.5,219.9 200.7,219.9 
			215.8,192.2 242.2,175.9 242.2,158.1 223.3,158.1 223.3,165.6 202.1,178.5 190.3,200.9 164.7,200.9 142.5,213.7 120.3,200.9 
			94.7,200.9 82.9,178.5 61.8,165.6 61.8,158.1 		"/>
		<polygon class="st0" points="242.2,82.1 242.2,59.5 215.8,43.3 200.7,15.6 169.5,15.6 142.5,0 115.5,15.6 84.3,15.6 69.2,43.3 
			42.8,59.5 42.8,82.1 61.8,82.1 61.8,69.9 82.9,57 94.7,34.6 120.3,34.6 142.5,21.8 164.7,34.6 190.3,34.6 202.1,57 223.3,69.9 
			223.3,82.1 		"/>
		<polygon class="st0" points="184.8,44.1 162.2,44.1 142.5,32.8 122.8,44.1 100.2,44.1 89.9,63.9 71.3,75.4 71.3,82.1 213.8,82.1 
			213.8,75.4 195.1,63.9 		"/>
		<polygon class="st0" points="100.2,191.4 122.8,191.4 142.5,202.7 162.2,191.4 184.8,191.4 195.1,171.6 213.8,160.1 213.8,158.1 
			71.3,158.1 71.3,160.1 89.9,171.6 		"/>
		<polygon class="st0" points="42.8,153.4 61.8,153.4 66.5,153.4 71.3,153.4 213.8,153.4 218.5,153.4 223.3,153.4 242.2,153.4 
			285,153.4 270,118.3 285,86.9 242.2,86.9 223.3,86.9 218.5,86.9 213.8,86.9 71.3,86.9 66.5,86.9 61.8,86.9 42.8,86.9 0,86.9 
			15,120.7 0,153.4 		"/>
	</g>
</g>
<text transform="matrix(1 0 0 1 60.3315 135.4189)" class="st1 st2 st3">BIG SALE</text>
</svg>
