<?xml version="1.0" encoding="utf-8"?>
<!-- Generator: Adobe Illustrator 23.0.3, SVG Export Plug-In . SVG Version: 6.00 Build 0)  -->
<svg version="1.1" id="Layer_1" xmlns="http://www.w3.org/2000/svg" xmlns:xlink="http://www.w3.org/1999/xlink" x="0px" y="0px"
	 viewBox="0 0 58 54.4" style="enable-background:new 0 0 58 54.4;" xml:space="preserve">
<style type="text/css">
	.st0{fill:#E2A600;}
	.st1{fill:#EF1B7B;}
	.st2{fill:#BE116C;}
	.st3{fill:#FFC507;}
	.st4{fill:#00A599;}
</style>
<polygon class="st0" points="15.1,30 4.5,27.5 14.3,25.5 "/>
<path class="st1" d="M31.7,6.4c12.9,0,23.4,10.5,23.4,23.4S44.6,53.2,31.7,53.2S8.3,42.7,8.3,29.8S18.8,6.4,31.7,6.4z M49.9,3.1
	l-1.5-1.8L49.9,0V3.1z"/>
<path class="st2" d="M47.7,7c0.4,0,0.7,0.3,0.7,0.7s-0.3,0.7-0.7,0.7S47,8.1,47,7.7S47.3,7,47.7,7z M12.4,51.2H8.9l0.6,2.4
	L12.4,51.2z"/>
<path class="st3" d="M49.2,6l7.6-2.3l1.2,4L49.2,6z M14,49.3c0.3,0,0.5,0.2,0.5,0.5s-0.2,0.5-0.5,0.5s-0.5-0.2-0.5-0.5
	S13.7,49.3,14,49.3z M4.5,27.5L0,16.3l35.7-7.1l0.6,11.9L4.5,27.5z"/>
<path class="st4" d="M43.9,5.1l0.6-3.9h2.2L43.9,5.1z M15.4,51.7l-1.9,1.9l1.9,0.8V51.7z M48.9,36.8c3.7,0,6.7,3,6.7,6.7
	s-3,6.7-6.7,6.7s-6.7-3-6.7-6.7S45.2,36.8,48.9,36.8z"/>
</svg>
