<?xml version="1.0" encoding="utf-8"?>
<!-- Generator: Adobe Illustrator 23.0.3, SVG Export Plug-In . SVG Version: 6.00 Build 0)  -->
<svg version="1.1" id="Layer_1" xmlns="http://www.w3.org/2000/svg" xmlns:xlink="http://www.w3.org/1999/xlink" x="0px" y="0px"
	 viewBox="0 0 48.1 18.7" style="enable-background:new 0 0 48.1 18.7;" xml:space="preserve">
<style type="text/css">
	.st0{opacity:0.8;}
	.st1{fill-rule:evenodd;clip-rule:evenodd;fill:#FFBC27;}
	.st2{fill:#474747;}
	.st3{fill:#292929;}
	.st4{font-family:'Roboto-BlackItalic';}
	.st5{font-size:12.0335px;}
	.st6{font-family:'Lato-BlackItalic';}
	.st7{font-size:3.0084px;}
</style>
<g class="st0">
	<polygon class="st1" points="0,3.2 2.1,17.5 43.3,17.7 48.1,0 	"/>
</g>
<g>
	<polygon class="st2" points="18.8,1.6 18.8,2.2 44.3,3.9 42.7,14 10.1,17.2 10.1,17.8 43.2,14.5 45,3.3 	"/>
</g>
<g>
	<path class="st3" d="M18.8,2.2V1.6l-15.4-1L1.8,18.7l8.3-0.8v-0.6l-7.6,0.8L4,1.2L18.8,2.2z"/>
</g>
<text transform="matrix(0.9912 -0.1324 0.1324 0.9912 4.912 15.4002)" class="st4 st5">NEW</text>
<text transform="matrix(0.9978 -6.654000e-02 6.654000e-02 0.9978 32.1857 7.8546)" class="st6 st7">SHOP </text>
<text transform="matrix(0.9978 -6.654000e-02 6.654000e-02 0.9978 32.4252 11.4467)" class="st6 st7">NOW</text>
</svg>
