<?xml version="1.0" encoding="utf-8"?>
<!-- Generator: Adobe Illustrator 23.0.3, SVG Export Plug-In . SVG Version: 6.00 Build 0)  -->
<svg version="1.1" id="Layer_1" xmlns="http://www.w3.org/2000/svg" xmlns:xlink="http://www.w3.org/1999/xlink" x="0px" y="0px"
	 viewBox="0 0 35.9 32.1" style="enable-background:new 0 0 35.9 32.1;" xml:space="preserve">
<style type="text/css">
	.st0{opacity:0.8;fill:#E92325;enable-background:new    ;}
	.st1{opacity:0.8;fill:#F5A001;enable-background:new    ;}
	.st2{fill:#FFFFFF;}
	.st3{font-family:'ArialMT';}
	.st4{font-size:10px;}
</style>
<path class="st0" d="M23.3,0.3L5.8,5.5c-4.2,1.3-6.7,5.7-5.5,9.9l3,10.8c1.4,4.8,6.8,7.3,11.3,5.1l16.8-8.2c3.6-1.7,5.3-5.8,4.2-9.6
	l-2.4-7.8C32,1.5,27.5-0.9,23.3,0.3z"/>
<path class="st1" d="M28.3,3.1L10.1,1.8C5.7,1.5,1.9,4.7,1.5,9.1l-1,11.2c-0.4,5,3.8,9.2,8.8,8.7L28,27.3c3.9-0.4,7-3.5,7.3-7.5
	l0.5-8.1C36,7.3,32.7,3.5,28.3,3.1z"/>
<text transform="matrix(1 0 0 1 6.6627 18.9272)" class="st2 st3 st4">Offer</text>
</svg>
