<?xml version="1.0" encoding="utf-8"?>
<!-- Generator: Adobe Illustrator 23.0.3, SVG Export Plug-In . SVG Version: 6.00 Build 0)  -->
<svg version="1.1" id="Layer_1" xmlns="http://www.w3.org/2000/svg" xmlns:xlink="http://www.w3.org/1999/xlink" x="0px" y="0px"
	 viewBox="0 0 35.6 35.8" style="enable-background:new 0 0 35.6 35.8;" xml:space="preserve">
<style type="text/css">
	.st0{fill:#FFD13F;}
	.st1{fill:#E8A87C;}
	.st2{fill:#3B465C;}
	.st3{fill:#FFFFFF;}
	.st4{fill:#FEC495;}
	.st5{fill:#253140;}
	.st6{fill:#232323;}
	.st7{fill:#FF4848;}
	.st8{fill:#E89435;}
	.st9{fill:#B5423C;}
</style>
<path class="st0" d="M35.6,17.9c0,9.9-8,17.9-17.9,17.9c-2.4,0-4.6-0.5-6.7-1.3c-0.6-0.2-1.1-0.5-1.6-0.8l0,0
	c-0.4-0.2-0.7-0.4-1.1-0.6C8.2,33,8,32.9,7.9,32.8c-0.4-0.2-0.7-0.5-1-0.7c-0.8-0.6-1.6-1.4-2.3-2.2c-1.8-2-3.2-4.3-3.9-7
	C0.2,21.3,0,19.6,0,17.8C-0.2,8,7.8,0,17.7,0S35.6,8,35.6,17.9z"/>
<path class="st1" d="M33.4,12c0,1.3-1.1,2.4-2.4,2.4s-2.4-1.1-2.4-2.4s1.1-2.4,2.4-2.4S33.4,10.7,33.4,12z M17,9.6
	c-1.3,0-2.4,1.1-2.4,2.4s1.1,2.4,2.4,2.4s2.4-1.1,2.4-2.4S18.3,9.6,17,9.6z"/>
<path class="st2" d="M35.4,20.5c-0.8,5.1-3.7,9.5-7.8,12.3c-2.1,1.4-4.6,2.4-7.2,2.8c-0.9,0.1-1.8,0.2-2.7,0.2
	c-1.7,0-3.3-0.2-4.8-0.7V20.5H35.4z"/>
<path class="st3" d="M25.1,3.5c-0.2-1.2-1.9-1.2-2.2,0l-4.1,22.6l1.6-1.7v11.2c0.4-0.1,0.8-0.1,1.1-0.2c1.6-0.4,3.2-1,4.7-1.8
	c0.5-0.2,0.9-0.5,1.4-0.8v-8.4l1.6,1.7L25.1,3.5z M22.3,22.3l1.7-1.8l1.7,1.8H22.3z"/>
<path class="st4" d="M24,20.6L24,20.6c-3.9,0-7-3.1-7-7v-9h14.1v9C31.1,17.4,27.9,20.6,24,20.6z"/>
<path class="st1" d="M25,20.5c-0.3,0-0.7,0.1-1,0.1c-3.9,0-7-3.1-7-7v-9h2v9C19,17.1,21.6,20,25,20.5z"/>
<path class="st2" d="M35.6,0.1H23.3c-3.8,0-7,3.1-7,7h12.2c0.4,0,0.7,0,1.1-0.1v2.9c0,1.2,1,2.2,2.2,2.2V6.3
	C34.1,5.1,35.6,2.8,35.6,0.1z"/>
<path class="st5" d="M23.3,0.1c-3.9,0-7,3.2-7,7v5c1.2,0,2.2-1,2.2-2.2V7.1h1.1c0-3.9,3.1-7,7-7H23.3z"/>
<path class="st6" d="M22.3,11.3c0-0.7-0.6-1.3-1.3-1.3s-1.3,0.6-1.3,1.3 M28.3,11.3c0-0.7-0.6-1.3-1.3-1.3s-1.3,0.6-1.3,1.3"/>
<path class="st3" d="M20.7,14.6c0,1.8,1.5,3.3,3.3,3.3s3.3-1.5,3.3-3.3"/>
<path class="st7" d="M21.3,23.2l2.7-2.7l2.7,2.7L24,25.9L21.3,23.2z M26.2,33.7c-1.5,0.8-3.1,1.4-4.7,1.8L24,22.4l0.1-0.5l0.1,0.5
	L26.2,33.7z"/>
<path class="st8" d="M11,27.7v6.8c-0.6-0.2-1.1-0.5-1.6-0.8l0,0c-0.4-0.2-0.7-0.4-1.1-0.6v-5.4L11,27.7L11,27.7z"/>
<path class="st9" d="M18.7,19.3v8.9c0,1-0.8,1.8-1.8,1.8H4.5c-1.8-2-3.2-4.3-3.9-7v-3.7c0-1,0.8-1.8,1.8-1.8H17
	C17.9,17.5,18.7,18.3,18.7,19.3z"/>
<path class="st3" d="M15.6,24.9C15.6,24.9,15.6,24.9,15.6,24.9C15.6,24.9,15.6,24.9,15.6,24.9z M4.7,23.2c-0.3-0.1-0.5-0.2-0.5-0.4
	s0.1-0.3,0.4-0.3c0.2,0,0.3,0.1,0.4,0.1s0.1,0.1,0.2,0.1c0.2,0,0.4-0.2,0.4-0.4c0-0.5-0.9-0.5-1-0.5c-0.6,0-1.2,0.3-1.2,1.1
	c0,0.7,0.5,0.9,1,1.1C4.8,24.2,5,24.3,5,24.5c0,0.3-0.2,0.3-0.4,0.3c-0.3,0-0.4-0.1-0.5-0.2c-0.1-0.1-0.2-0.2-0.3-0.2
	c-0.2,0-0.4,0.2-0.4,0.4c0,0.3,0.5,0.7,1.2,0.7c0.8,0,1.2-0.4,1.2-1.2C5.7,23.6,5.1,23.4,4.7,23.2z M12.1,24.8H11v-2.7
	c0-0.2-0.2-0.3-0.4-0.3c-0.2,0-0.4,0.1-0.4,0.3v3.1c0,0.2,0.2,0.3,0.4,0.3h1.5c0.2,0,0.3-0.2,0.3-0.4C12.4,25,12.2,24.8,12.1,24.8z
	 M8.3,22l1,3v0.1c0,0.3-0.3,0.4-0.5,0.4c-0.1,0-0.3-0.1-0.3-0.2l-0.2-0.6H7.4l-0.2,0.6c0,0-0.1,0.2-0.3,0.2c-0.3,0-0.5-0.2-0.5-0.4
	V25l0.9-3c0.1-0.2,0.3-0.3,0.5-0.3C8.1,21.7,8.2,21.8,8.3,22z M8.2,24.1l-0.3-0.9l-0.3,0.9H8.2z M15.3,24.8h-1.2V24h0.6
	c0.2,0,0.3-0.2,0.3-0.4s-0.1-0.4-0.3-0.4h-0.6v-0.8h1.2c0.2,0,0.3-0.2,0.3-0.4s-0.1-0.4-0.3-0.4h-1.7c-0.2,0-0.4,0.1-0.4,0.3V25
	c0,0.2,0.2,0.3,0.4,0.3h1.7c0.2,0,0.3-0.2,0.3-0.4C15.6,24.9,15.4,24.8,15.3,24.8z"/>
<path class="st1" d="M25.1,12.5h-2.2c-0.4,0-0.7,0.3-0.7,0.7c0,0.4,0.3,0.7,0.7,0.7h2.2c0.4,0,0.7-0.3,0.7-0.7
	C25.8,12.8,25.5,12.5,25.1,12.5z"/>
</svg>
