<?xml version="1.0" encoding="utf-8"?>
<!-- Generator: Adobe Illustrator 23.0.3, SVG Export Plug-In . SVG Version: 6.00 Build 0)  -->
<svg version="1.1" id="Layer_1" xmlns="http://www.w3.org/2000/svg" xmlns:xlink="http://www.w3.org/1999/xlink" x="0px" y="0px"
	 viewBox="0 0 63.8 39.1" style="enable-background:new 0 0 63.8 39.1;" xml:space="preserve">
<style type="text/css">
	.st0{fill:#812005;}
	.st1{fill:#F3AC1E;}
	.st2{fill:#103754;}
	.st3{fill:#DE3F18;}
</style>
<path class="st0" d="M0,11.7l22.1,7.2l5.3-11.2L0,11.7z M4.6,24.8l13.7,3.6L32,20.8L4.6,24.8z"/>
<path class="st1" d="M17.6,29L49,25.3c0.1-0.9,0.2-1.8,0.2-2.7c0-9.1-7.4-16.5-16.5-16.5s-16.5,7.4-16.5,16.5s7.4,16.5,16.5,16.5
	c6.9,0,12.8-4.3,15.3-10.3L17.6,29z"/>
<path class="st2" d="M52.8,26.6c-0.8,0-1.6,0.6-1.9,1.4s0.1,1.4,0.9,1.4s1.6-0.6,1.9-1.4C54,27.2,53.6,26.6,52.8,26.6z M52.1,28.5
	c-0.3,0-0.5-0.2-0.4-0.6c0.1-0.3,0.4-0.6,0.8-0.6c0.3,0,0.5,0.2,0.4,0.6C52.7,28.3,52.4,28.5,52.1,28.5z M56.9,26.6
	c-0.8,0-1.6,0.6-1.9,1.4s0.1,1.4,0.9,1.4s1.6-0.6,1.9-1.4C58.1,27.2,57.7,26.6,56.9,26.6z M56.2,28.5c-0.3,0-0.5-0.2-0.4-0.6
	c0.1-0.3,0.4-0.6,0.8-0.6c0.3,0,0.5,0.2,0.4,0.6S56.5,28.5,56.2,28.5z M63.6,17.5H53.2l0.1-0.9l0,0l0,0l0,0l0,0l0,0l0,0l0,0l0,0l0,0
	l0,0l0,0l0,0l0,0l0,0h-1.4c-0.2,0-0.5,0.2-0.6,0.4s0,0.4,0.3,0.4h1.1L52.3,18c0,0,0,0,0,0.1l0,0c0,0,0,0,0,0.1l0,0l0,0l0,0l0,0l0,0
	l0,0l0,0l0,0l0,0c0,0,0,0,0.1,0l0,0h10.7c0.2,0,0.5-0.2,0.6-0.4C63.9,17.7,63.8,17.5,63.6,17.5z M63,19c0-0.1-0.1-0.2-0.3-0.2h-10
	c-0.1,0-0.3,0.1-0.4,0.2c-0.1,0.1-0.2,0.2-0.2,0.3l-0.5,4l0,0v0.1l-0.3,2.2c0,0.2,0.1,0.3,0.3,0.3h7.2c0.2,0,0.4-0.1,0.5-0.3
	l3.7-6.3C63,19.2,63,19.1,63,19z M57.6,19.7h1.9l-0.7,1.5h-1.2h-0.5L57.6,19.7z M60.7,21.7L59.9,23h-1.5l0.6-1.3h0.2H60.7z
	 M56.8,21.7h0.5h1.2L57.9,23h-1h-0.5L56.8,21.7z M52.9,19.7h1.8l-0.4,1.5h-1.7L52.9,19.7z M52.6,21.7h1.6L53.9,23h-1.5L52.6,21.7z
	 M52.1,25.1l0.2-1.5h1.4l-0.4,1.5H52.1z M55.1,25.1H54l0.4-1.5h1.3L55.1,25.1z M55.8,23h-1.3l0.3-1.3h1.5L55.8,23z M56.5,21.2h-1.6
	l0.4-1.5h1.8L56.5,21.2z M55.6,25.1l0.6-1.5h0.5h0.9l-0.7,1.5H55.6z M58.7,25.1L58.7,25.1h-1.3l0.7-1.5h1.4L58.7,25.1l2.3-4h-1.5
	h-0.1l0.7-1.5h1.8L58.7,25.1z M51.8,29.4H4.1L50.9,28L51.8,29.4z"/>
<path class="st3" d="M46.3,24.8H4.6L7.1,13h41.8L46.3,24.8z M41.7,11.7H0L2.5,0h41.8L41.7,11.7z"/>
</svg>
