<?xml version="1.0" encoding="utf-8"?>
<!-- Generator: Adobe Illustrator 23.0.3, SVG Export Plug-In . SVG Version: 6.00 Build 0)  -->
<svg version="1.1" id="Layer_1" xmlns="http://www.w3.org/2000/svg" xmlns:xlink="http://www.w3.org/1999/xlink" x="0px" y="0px"
	 viewBox="0 0 42 42" style="enable-background:new 0 0 42 42;" xml:space="preserve">
<style type="text/css">
	.st0{fill:#CDDF63;}
	.st1{fill:#A3CE4C;}
	.st2{fill:#D9506F;}
	.st3{fill:#B52241;}
	.st4{fill:#F77693;}
	.st5{fill:#FFFFFF;}
</style>
<circle class="st0" cx="21" cy="21" r="21"/>
<path class="st1" d="M35,18.3l-3-3l0,0H10.1v3H5.9l2.3,4.2l-2.3,4.2L21.2,42c10.5-0.1,19.2-7.9,20.6-18.1l-5.7-5.7l0,0L35,18.3
	L35,18.3z"/>
<polygon class="st2" points="27.7,26.7 36.1,26.7 33.8,22.5 36.1,18.3 27.7,18.3 "/>
<polygon class="st3" points="31.9,23.7 27.7,26.7 27.7,23.7 "/>
<polygon class="st2" points="14.3,26.7 5.9,26.7 8.2,22.5 5.9,18.3 14.3,18.3 "/>
<rect x="10.1" y="15.2" class="st4" width="21.8" height="8.4"/>
<g>
	<path class="st5" d="M16.1,18.3c-0.2-0.2-0.7-0.5-1.3-0.5c-0.4,0-0.8,0.1-0.8,0.5s0.5,0.5,1.1,0.7c0.9,0.2,1.5,0.5,1.5,1.4
		c0,1-0.8,1.4-1.8,1.4c-0.7,0-1.4-0.2-2-0.6l0.4-0.8c0.1,0.1,0.8,0.6,1.6,0.6c0.5,0,0.8-0.2,0.8-0.5s-0.4-0.5-0.7-0.6
		c-1-0.3-1.9-0.4-1.9-1.4s0.8-1.5,1.7-1.5c0.6,0,1.2,0.2,1.7,0.5L16.1,18.3z"/>
	<path class="st5" d="M18.6,17.1h0.8l1.8,4.8h-1l-0.4-1.2h-1.7l-0.4,1.2h-1L18.6,17.1z M19.7,20L19,18.1L18.3,20H19.7z"/>
	<path class="st5" d="M21.8,21.9v-4.8h0.9v4h2.4v0.8H21.8L21.8,21.9z"/>
	<path class="st5" d="M29,21v0.8h-3.3V17h3.2v0.8h-2.3v1.1h2v0.8h-2V21H29z"/>
</g>
<polygon class="st3" points="10.1,23.7 14.3,26.7 14.3,23.7 "/>
</svg>
