<?xml version="1.0" encoding="utf-8"?>
<!-- Generator: Adobe Illustrator 23.0.3, SVG Export Plug-In . SVG Version: 6.00 Build 0)  -->
<svg version="1.1" id="Layer_1" xmlns="http://www.w3.org/2000/svg" xmlns:xlink="http://www.w3.org/1999/xlink" x="0px" y="0px"
	 viewBox="0 0 31.2 33.7" style="enable-background:new 0 0 31.2 33.7;" xml:space="preserve">
<style type="text/css">
	.st0{fill:#E2A612;}
	.st1{fill:#231F20;}
	.st2{font-family:'Teko-SemiBold';}
	.st3{font-size:8.5672px;}
	.st4{fill:#FFCA05;}
	.st5{font-family:'TitilliumWeb-BoldItalic';}
</style>
<path class="st0" d="M1.8,19.5l8.5,14.2L0,27.3L1.8,19.5z M2.3,17.8l16.4,9.5l1.8-7.8L4,10L2.3,17.8z M4.6,8.2l20,9.6l1.8-7.8
	L6.3,0.4L4.6,8.2z"/>
<polygon id="XMLID_85_" class="st1" points="24.6,17.8 2.3,17.8 4,10 26.4,10 "/>
<g id="XMLID_80_">
	<text transform="matrix(1 0 0 1 8.2539 7.0078)" class="st0 st2 st3">FLASH</text>
</g>
<path class="st4" d="M29.4,8.3H4.5l1.7-7.8h24.9L29.4,8.3z M18.6,27.3H-0.1l1.8-7.8h18.7L18.6,27.3z"/>
<text id="XMLID_79_" transform="matrix(1 0 0 1 7.8496 7.0078)" class="st1 st2 st3">FLASH</text>
<text id="XMLID_78_" transform="matrix(1 0 0 1 5.7666 16.707)" class="st4 st2 st3">SALE</text>
<g id="XMLID_73_">
	<text transform="matrix(1 0 0 1 1.7939 26.3877)" class="st0 st5 st3">70%</text>
</g>
<g id="XMLID_41_">
	<text transform="matrix(1 0 0 1 2.2979 26.1875)" class="st1 st5 st3">70%</text>
</g>
</svg>
