<?xml version="1.0" encoding="utf-8"?>
<!-- Generator: Adobe Illustrator 23.0.3, SVG Export Plug-In . SVG Version: 6.00 Build 0)  -->
<svg version="1.1" id="Layer_1" xmlns="http://www.w3.org/2000/svg" xmlns:xlink="http://www.w3.org/1999/xlink" x="0px" y="0px"
	 viewBox="0 0 48.3 48.6" style="enable-background:new 0 0 48.3 48.6;" xml:space="preserve">
<style type="text/css">
	.st0{opacity:0.8;fill:#E92325;enable-background:new    ;}
	.st1{opacity:0.8;fill:#F5A001;enable-background:new    ;}
	.st2{fill:#03B9DB;}
</style>
<path class="st0" d="M41.8,6.1l6,21.3c1.1,3.9-0.7,7.9-4.3,9.7l-21,10.6c-4.8,2.4-10.5-0.2-11.9-5.3L4,17.5
	C2.9,13.2,5.3,8.8,9.5,7.4l21.5-7C35.7-1,40.6,1.6,41.8,6.1z"/>
<path class="st1" d="M48.1,16.6l-5.4,21.5c-1,3.9-4.6,6.5-8.6,6.3l-23.5-1.3c-5.3-0.3-9-5.4-7.6-10.5L9.7,7.7c1.2-4.3,5.5-6.9,9.8-6
	l22.1,4.6C46.3,7.3,49.2,12,48.1,16.6z"/>
<path class="st2" d="M3.7,21.3l36,3c2,0.2,3.3,2,2.9,3.9l-1.2,6c-0.3,1.7-1.9,2.8-3.6,2.6L2.9,33c-1.7-0.2-3-1.7-2.9-3.4l0.2-5.2
	C0.3,22.6,1.9,21.1,3.7,21.3z"/>
</svg>
