<?xml version="1.0" encoding="utf-8"?>
<!-- Generator: Adobe Illustrator 23.0.3, SVG Export Plug-In . SVG Version: 6.00 Build 0)  -->
<svg version="1.1" id="Layer_1" xmlns="http://www.w3.org/2000/svg" xmlns:xlink="http://www.w3.org/1999/xlink" x="0px" y="0px"
	 viewBox="0 0 69.1 23" style="enable-background:new 0 0 69.1 23;" xml:space="preserve">
<style type="text/css">
	.st0{fill:#F81E01;}
</style>
<g>
	<path class="st0" d="M68.9,9.4c0.2-0.4,0.2-0.8,0-1.2s-0.6-0.6-1-0.6h-7.4V1.2C60.5,0.5,60,0,59.3,0H9.8C9.1,0,8.6,0.5,8.6,1.2v6.4
		H1.2c-0.4,0-0.8,0.2-1,0.6c-0.2,0.4-0.2,0.8,0,1.2l3.1,5.9l-3.1,5.9c-0.2,0.4-0.2,0.8,0,1.2s0.6,0.6,1,0.6h14.4
		c0.7,0,1.2-0.5,1.2-1.2v-6.4h35.6v6.4c0,0.7,0.5,1.2,1.2,1.2h14.4c0.4,0,0.8-0.2,1-0.6c0.2-0.4,0.2-0.8,0-1.2l-3.1-5.9L68.9,9.4z
		 M15.4,21.7l-6.8-6.3h6.8V21.7z M53.5,21.7v-6.3h6.8L53.5,21.7z"/>
</g>
</svg>
