<?xml version="1.0" encoding="utf-8"?>
<!-- Generator: Adobe Illustrator 23.0.3, SVG Export Plug-In . SVG Version: 6.00 Build 0)  -->
<svg version="1.1" id="Layer_1" xmlns="http://www.w3.org/2000/svg" xmlns:xlink="http://www.w3.org/1999/xlink" x="0px" y="0px"
	 viewBox="0 0 34.9 33.3" style="enable-background:new 0 0 34.9 33.3;" xml:space="preserve">
<style type="text/css">
	.st0{opacity:0.8;fill:#03B9DB;enable-background:new    ;}
	.st1{opacity:0.8;fill:#CD2A8F;enable-background:new    ;}
	.st2{fill:#F5A001;}
	.st3{fill:#FFFFFF;}
</style>
<path class="st0" d="M30.1,27.7l-12,5c-3.7,1.5-7.9,0.1-9.8-3.4L2.6,18.9C0.5,15.1,2,10.2,5.8,8.2L20,0.9c4.4-2.3,9.7,0.1,11,4.8
	l3.5,12.7C35.7,22.2,33.8,26.2,30.1,27.7z"/>
<path class="st1" d="M23.1,31.9l-12.9-1.6c-3.9-0.5-6.9-3.8-6.8-7.8l0.1-11.8C3.6,6.3,7.2,2.9,11.6,3l15.9,0.6
	c4.9,0.2,8.4,4.9,7.2,9.6L31.5,26C30.7,29.8,27,32.3,23.1,31.9z"/>
<path class="st2" d="M2.3,18.3l22.3-0.2c1.4,0,2.5,1.2,2.3,2.6l-0.7,4.8c-0.2,1-0.9,1.8-1.9,1.9L2.9,31c-1.4,0.2-2.6-0.8-2.7-2.2
	L0,20.6C0,19.4,1,18.3,2.3,18.3z"/>
<g>
	<g>
		<path class="st3" d="M10.8,7.8h1v7h-1V7.8z M11.4,13.9h1.9c0.5,0,0.9-0.1,1.1-0.3c0.2-0.2,0.3-0.5,0.3-0.8l0,0
			c0-0.2,0-0.4-0.1-0.6c-0.1-0.2-0.2-0.3-0.4-0.4c-0.2-0.1-0.4-0.1-0.7-0.1h-2.1v-0.9h2.1c0.4,0,0.6-0.1,0.8-0.3s0.3-0.4,0.3-0.8
			c0-0.3-0.1-0.6-0.3-0.8s-0.5-0.3-0.9-0.3h-2V7.7h2.2c0.5,0,0.8,0.1,1.1,0.2c0.3,0.2,0.5,0.4,0.7,0.7s0.2,0.6,0.2,1
			c0,0.2,0,0.5-0.1,0.7s-0.2,0.4-0.4,0.5s-0.4,0.3-0.7,0.3c0.3,0,0.5,0.1,0.7,0.3s0.4,0.4,0.5,0.6c0.1,0.2,0.2,0.5,0.2,0.8l0,0
			c0,0.4-0.1,0.7-0.3,1s-0.4,0.5-0.7,0.7s-0.7,0.2-1.1,0.2h-2.3V13.9z"/>
		<path class="st3" d="M18.4,14.9c0,0-0.2-0.1-0.5-0.3s-0.6-0.4-0.8-0.8s-0.3-0.7-0.3-1.2V12c0-0.5,0.1-0.9,0.2-1.3
			c0.2-0.4,0.4-0.6,0.7-0.8s0.7-0.3,1.1-0.3c0.4,0,0.8,0.1,1.1,0.3s0.5,0.5,0.7,0.9s0.2,0.9,0.2,1.4v0.3h-3.4v-0.8h2.4
			c0-0.4-0.1-0.7-0.3-1s-0.4-0.3-0.7-0.3c-0.4,0-0.7,0.1-0.9,0.4c-0.2,0.2-0.3,0.6-0.3,1v0.6c0,0.4,0.1,0.7,0.3,1
			c0.2,0.2,0.5,0.3,0.9,0.3c0.2,0,0.4,0,0.6-0.1c0.2-0.1,0.4-0.2,0.5-0.3l0.6,0.6c-0.2,0.2-0.5,0.4-0.8,0.6s-0.6,0.2-0.9,0.2
			C18.7,14.9,18.4,14.9,18.4,14.9z"/>
		<path class="st3" d="M23.7,14.9c0,0-0.1,0-0.4-0.1s-0.5-0.1-0.7-0.3c-0.2-0.1-0.4-0.3-0.6-0.4l0.6-0.7c0.3,0.2,0.5,0.4,0.8,0.5
			s0.5,0.2,0.8,0.2c0.4,0,0.7-0.1,0.9-0.2c0.2-0.1,0.3-0.3,0.3-0.5s-0.1-0.3-0.2-0.4c-0.1-0.1-0.2-0.1-0.4-0.2s-0.4-0.1-0.7-0.1H24
			h-0.1l0,0l0,0c-0.3,0-0.6-0.1-0.8-0.1c-0.2-0.1-0.4-0.2-0.6-0.4c-0.1-0.2-0.2-0.5-0.2-0.8s0.1-0.6,0.2-0.9
			c0.1-0.2,0.4-0.4,0.6-0.5s0.6-0.2,1.1-0.2c0.3,0,0.5,0,0.7,0.1c0.2,0,0.5,0.1,0.7,0.2c0.2,0.1,0.4,0.2,0.6,0.4l-0.6,0.7
			c-0.3-0.2-0.5-0.3-0.7-0.4c-0.2-0.1-0.5-0.1-0.7-0.1c-0.3,0-0.6,0.1-0.8,0.2c-0.2,0.1-0.3,0.3-0.3,0.5c0,0.1,0,0.2,0.1,0.3
			s0.2,0.1,0.4,0.1s0.4,0,0.6,0.1c0,0,0,0,0.1,0s0,0,0.1,0l0,0l0,0c0.4,0,0.6,0.1,0.9,0.1s0.5,0.2,0.6,0.4s0.3,0.5,0.3,0.9
			S26.1,14,26,14.2s-0.4,0.4-0.7,0.5s-0.7,0.2-1.2,0.2C23.9,14.9,23.7,14.9,23.7,14.9z"/>
		<path class="st3" d="M27.1,9.8h2.3v0.9h-2.3V9.8z M27.9,14.5c-0.2-0.2-0.3-0.6-0.3-1V8.3h1v5.2c0,0.1,0,0.2,0.1,0.3
			c0,0.1,0.1,0.1,0.2,0.1h0.5v0.9h-0.6C28.4,14.9,28.1,14.7,27.9,14.5z"/>
	</g>
</g>
<g>
	<g>
		<path class="st3" d="M6.3,25.3c-0.2-0.1-0.3-0.2-0.4-0.4c-0.1-0.2-0.2-0.4-0.2-0.6l0,0h0.6l0,0c0,0.2,0.1,0.3,0.2,0.4
			c0.1,0.1,0.2,0.1,0.4,0.1s0.3-0.1,0.5-0.2c0.1-0.1,0.2-0.3,0.2-0.6v-0.4c0-0.2-0.1-0.4-0.2-0.6s-0.3-0.2-0.5-0.2
			c-0.1,0-0.2,0-0.3,0.1S6.4,23,6.3,23.2H5.7v-2.3h2.2v0.6H6.3v1c0.1-0.1,0.2-0.1,0.3-0.1s0.2-0.1,0.3-0.1c0.3,0,0.5,0.1,0.6,0.2
			s0.3,0.3,0.4,0.5C8,23.2,8,23.4,8,23.7v0.4c0,0.3,0,0.5-0.1,0.7s-0.2,0.4-0.4,0.5s-0.4,0.2-0.7,0.2C6.6,25.4,6.4,25.4,6.3,25.3z"
			/>
		<path class="st3" d="M9.3,25.1C9.1,24.9,9,24.6,9,24.2v-2c0-0.4,0.1-0.7,0.3-0.9S9.8,21,10.2,21s0.7,0.1,0.9,0.3s0.3,0.5,0.3,0.9
			v2c0,0.4-0.1,0.7-0.3,0.9s-0.5,0.3-0.9,0.3S9.5,25.3,9.3,25.1z M10.7,24.7c0.1-0.1,0.2-0.3,0.2-0.5v-2c0-0.2-0.1-0.4-0.2-0.5
			c-0.1-0.1-0.3-0.2-0.5-0.2s-0.4,0.1-0.5,0.2c-0.1,0.1-0.2,0.3-0.2,0.5v2c0,0.2,0.1,0.4,0.2,0.5s0.3,0.2,0.5,0.2
			C10.4,24.9,10.6,24.8,10.7,24.7z"/>
		<path class="st3" d="M12.4,22.7c-0.1-0.1-0.2-0.3-0.2-0.6v-0.4c0-0.2,0.1-0.4,0.2-0.6s0.3-0.2,0.5-0.2s0.4,0.1,0.5,0.2
			c0.1,0.1,0.2,0.3,0.2,0.6v0.4c0,0.2-0.1,0.4-0.2,0.6c-0.1,0.1-0.3,0.2-0.5,0.2C12.7,22.9,12.5,22.8,12.4,22.7z M15,21h0.5
			l-2.4,4.4h-0.5L15,21z M13.1,22.4c0,0,0.1-0.1,0.1-0.2v-0.4c0-0.1,0-0.1-0.1-0.2c0,0-0.1-0.1-0.2-0.1c-0.1,0-0.1,0-0.2,0.1
			c0,0-0.1,0.1-0.1,0.2v0.4c0,0.1,0,0.2,0.1,0.2s0.1,0.1,0.2,0.1C13,22.4,13.1,22.4,13.1,22.4z M14.6,25.2c-0.1-0.1-0.2-0.3-0.2-0.6
			v-0.3c0-0.2,0.1-0.4,0.2-0.6c0.1-0.1,0.3-0.2,0.5-0.2s0.4,0.1,0.5,0.2s0.2,0.3,0.2,0.6v0.4c0,0.2-0.1,0.4-0.2,0.6
			c-0.1,0.1-0.3,0.2-0.5,0.2C14.9,25.4,14.7,25.4,14.6,25.2z M15.3,24.9c0,0,0.1-0.1,0.1-0.2v-0.4c0-0.1,0-0.1-0.1-0.2
			c0,0-0.1-0.1-0.2-0.1c-0.1,0-0.1,0-0.2,0.1s-0.1,0.1-0.1,0.2v0.4c0,0.1,0,0.2,0.1,0.2c0,0,0.1,0.1,0.2,0.1S15.3,24.9,15.3,24.9z"
			/>
		<path class="st3" d="M18.2,25.3c-0.2-0.1-0.3-0.3-0.4-0.5s-0.2-0.4-0.2-0.7v-0.5c0-0.3,0.1-0.5,0.2-0.7c0.1-0.2,0.2-0.4,0.4-0.5
			s0.4-0.2,0.7-0.2s0.5,0.1,0.7,0.2c0.2,0.1,0.3,0.3,0.4,0.5c0.1,0.2,0.2,0.4,0.2,0.7v0.5c0,0.3-0.1,0.5-0.2,0.7s-0.2,0.4-0.4,0.5
			s-0.4,0.2-0.7,0.2S18.4,25.4,18.2,25.3z M19.4,24.7c0.1-0.1,0.2-0.3,0.2-0.6v-0.5c0-0.2-0.1-0.4-0.2-0.6c-0.1-0.1-0.3-0.2-0.5-0.2
			s-0.4,0.1-0.5,0.2c-0.1,0.1-0.2,0.3-0.2,0.6v0.5c0,0.2,0.1,0.4,0.2,0.6c0.1,0.1,0.3,0.2,0.5,0.2S19.3,24.8,19.4,24.7z"/>
		<path class="st3" d="M20.8,22.3h1.6v0.5h-1.6V22.3z M21.2,21.9c0-0.3,0.1-0.5,0.2-0.6c0.1-0.1,0.3-0.2,0.6-0.2h0.5v0.6H22
			c-0.1,0-0.1,0-0.1,0.1c0,0,0,0.1,0,0.2v3.6h-0.6v-3.7H21.2z"/>
		<path class="st3" d="M22.8,22.3h1.6v0.5h-1.6V22.3z M23.1,21.9c0-0.3,0.1-0.5,0.2-0.6c0.1-0.1,0.3-0.2,0.6-0.2h0.5v0.6H24
			c-0.1,0-0.1,0-0.1,0.1c0,0,0,0.1,0,0.2v3.6h-0.6v-3.7H23.1z"/>
	</g>
</g>
</svg>
