<?xml version="1.0" encoding="utf-8"?>
<!-- Generator: Adobe Illustrator 23.0.3, SVG Export Plug-In . SVG Version: 6.00 Build 0)  -->
<svg version="1.1" id="Layer_1" xmlns="http://www.w3.org/2000/svg" xmlns:xlink="http://www.w3.org/1999/xlink" x="0px" y="0px"
	 viewBox="0 0 29.9 37.7" style="enable-background:new 0 0 29.9 37.7;" xml:space="preserve">
<style type="text/css">
	.st0{fill:#DE3F18;}
	.st1{fill:#2EAEB7;}
	.st2{fill:#103754;}
	.st3{fill:#F3AC1E;}
	.st4{fill:#FFFFFF;}
</style>
<path class="st0" d="M29.1,18.5c-0.2-0.4-0.6-0.6-1-0.6c-0.2,0-0.5,0.1-0.7,0.2V18c0-1-0.9-1.5-1.5-1.7c0-0.2-0.1-0.4-0.2-0.5
	c-0.2-0.3-0.6-0.6-1.1-0.6c-0.6,0-1.1,0.4-1.2,0.9c-0.1,0.1-0.1,0.3-0.1,0.4c-0.4-0.4-1-0.7-1.7-0.7c-0.9,0-1.8,0.5-2.2,1.3
	c-0.2-0.8-0.9-1.3-1.7-1.3c-0.2,0-0.4,0-0.5,0.1c-0.2-0.1-0.5-0.2-0.8-0.2c-0.6,0-1.1,0.4-1.2,0.9l-0.1,0.2c0-0.1-0.1-0.3-0.2-0.4
	c-0.2-0.3-0.6-0.5-1-0.5c-0.5,0-1,0.3-1.2,0.9c0-0.1-0.1-0.3-0.2-0.4c-0.2-0.3-0.6-0.5-1-0.5c-0.5,0-1,0.3-1.1,0.9L10.1,18
	c-0.2-0.6-0.7-1.1-1-1.5L9,16.4c0,0,0,0,0-0.1c0.2,0.2,0.5,0.4,0.8,0.4c0.4,0,0.7-0.2,0.9-0.5c0.2-0.3,0.3-0.7,0.2-1.1
	c-0.3-0.9-1.2-1.6-2.3-1.6c-1.2,0-2.2,0.7-2.5,1.7C6,15.4,6,15.7,6,15.9c0,0.9,0.6,1.6,1.1,2.2l0.1,0.1c0.4,0.4,0.6,0.7,0.6,1
	c0,0.4-0.4,0.6-0.6,0.6s-0.3-0.1-0.4-0.1c-0.1-0.1-0.1-0.1-0.1-0.3c0-0.5-0.1-0.8-0.3-1C6.2,18.2,5.9,18,5.5,18
	c-0.6,0-1.2,0.4-1.3,1.3c0,0.7,0.2,1.4,0.7,1.9c0.6,0.6,1.4,0.9,2.3,0.9c-1,0.1-1.9,0.2-2.8,0.3c-1.8,0.3-3.1,0.6-3.9,1.2
	C0.3,23.8,0.1,24,0,24.3c-0.1,0.3,0,0.6,0.2,0.8c0.2,0.3,0.5,0.5,0.9,0.5c0.2,0,0.4-0.1,0.6-0.2c0.5-0.3,1.6-0.7,3-0.9
	c1-0.2,2.1-0.2,3.5-0.3v13.5l8.6-3.5l8.5,3.5V24c2.6-0.2,4.2-0.9,4.5-3.2C29.9,19.7,29.3,18.8,29.1,18.5z M19.5,21.3
	c0.3,0.3,0.8,0.5,1.4,0.6H18C18.6,21.8,19,21.6,19.5,21.3z M12.5,21.5c0.1,0.2,0.3,0.3,0.5,0.3c-0.3,0-0.6,0-1,0
	C12.2,21.7,12.3,21.6,12.5,21.5z M8.7,16c-0.1-0.1-0.1-0.2-0.1-0.2S8.7,15.8,8.7,16z M9.6,21c0.2,0.4,0.5,0.8,1,1
	c-0.4,0-0.7,0-1.1,0c-0.7,0-1.4,0-2.1,0.1C8.3,22,9.1,21.6,9.6,21z M22.8,21.9H22c1.1-0.1,1.9-0.7,2.5-1.5c0.1,0.6,0.5,1.2,1.1,1.4
	C24.7,21.9,23.6,21.9,22.8,21.9z M11.5,9.5c-0.1-0.1,0-0.2,0.2-0.2l0.6,3.5h-0.1c-0.1,0-0.2,0-0.2-0.1L11.5,9.5z M17.1,12.6
	l-0.7-4.5c0-0.2,0.1-0.3,0.3-0.3l0.7,5h-0.1C17.2,12.8,17.1,12.7,17.1,12.6z"/>
<polygon class="st1" points="16.5,12 16,8.8 16,8.3 12,9.4 12.5,12.6 16.6,12.5 "/>
<path class="st2" d="M12.4,13.7c0.1,0.1,0,0.1,0,0.2l-0.2,0.2c-0.1,0.1-0.1,0.1-0.2,0l-1.2-1.2l-0.2,0c-0.3,0.1-0.8-0.6-0.9-1.5
	c-0.2-0.9,0-1.6,0.4-1.7l1.4-0.3l0.5,3.3l-0.5,0.1L12.4,13.7z M16.1,8.3l0.6,4.1c0,0.1,0.1,0.2,0.2,0.2H17l-0.6-4.5
	C16.2,8.1,16.1,8.2,16.1,8.3z M17.4,9.6l0.2,1.1c0.3-0.1,0.6-0.3,0.5-0.6C18.1,9.8,17.8,9.6,17.4,9.6z M23.8,9.6h-3.4
	c-0.2,0-0.4,0.1-0.4,0.3c0,0.2,0.2,0.3,0.4,0.3h3.4c0.2,0,0.4-0.1,0.4-0.3C24.2,9.8,24,9.6,23.8,9.6z M20.3,8.4l3-1.4
	c0.2-0.1,0.3-0.3,0.2-0.4c-0.1-0.1-0.3-0.2-0.5-0.1l-3,1.4c-0.2,0.1-0.3,0.3-0.2,0.4C19.9,8.4,20.1,8.5,20.3,8.4z M23.4,12.7
	l-3.1-1.4c-0.2-0.1-0.4,0-0.5,0.1c-0.1,0.1,0,0.3,0.2,0.4l3.1,1.4c0.2,0.1,0.4,0.1,0.5-0.1C23.7,13,23.6,12.8,23.4,12.7z"/>
<path class="st3" d="M17.5,1.2L16.9,0l-0.6,1.2l-1.4,0.2l1,1l-0.3,1.4l1.3-0.6l1.3,0.6l-0.3-1.4l1-1L17.5,1.2z M12.6,4.2l-0.4-0.8
	l-0.4,0.8l-0.9,0.1L11.5,5l-0.1,0.8l0.8-0.4l0.7,0.4L12.8,5l0.6-0.7L12.6,4.2z M22.9,4.3L22,4.2l-0.4-0.8l-0.4,0.8l-0.9,0.1L21,5
	l-0.2,0.8l0.8-0.4l0.8,0.4L22.3,5L22.9,4.3z"/>
<path class="st4" d="M10.4,15.2c0.3,0.9-0.8,1.2-1.1,0.5c-0.1-0.3-0.3-0.5-0.6-0.5c-0.2,0-0.6,0.2-0.6,0.5s0.3,0.7,0.6,1l0.1,0.1
	c0.5,0.6,1.1,1.2,1.1,2.1c0,1.3-1.2,2.4-2.6,2.4c-1.3,0-2.5-0.9-2.5-2.2c0-1,1.5-1,1.3,0.1c0,0.6,0.5,1,1.1,1s1.2-0.4,1.2-1.1
	c0-0.5-0.4-0.9-0.8-1.4c-0.5-0.6-1-1.1-1-1.9c0-0.2,0-0.3,0.1-0.5C7,14.4,7.8,14,8.7,14C9.5,14,10.2,14.5,10.4,15.2z M16.2,19.1
	c-0.6,1.8-1.5,2.3-2.4,2.3c-0.5,0-1-0.2-1.2-0.6c-0.3,0.3-0.8,0.6-1.3,0.6c-0.7,0-1.3-0.5-1.3-1.2c0-0.1,0-0.3,0.1-0.5l1.1-2.9
	c0.3-0.9,1.5-0.4,1.2,0.4l-1,2.7c0,0.1,0,0.2,0,0.2c0,0.1,0.1,0.2,0.2,0.2c0.3,0,0.8-0.4,1-0.9l0.9-2.7c0.3-0.9,1.5-0.5,1.2,0.3
	l-1,2.9V20c0,0.1,0.1,0.2,0.3,0.2c0.4,0,0.9-0.4,1.3-1.5C15.4,18.2,16.4,18.5,16.2,19.1z M20.6,19.1c-0.6,1.6-1.8,2.3-3.5,2.3
	c-0.2,0-0.4,0-0.7,0s-0.6-0.1-0.8-0.3c-0.2,0.6-0.5,1.4-0.7,2c-0.2,0.8-1.6,0.6-1.2-0.4l2.1-6c0.2-0.8,1.3-0.5,1.3-0.1
	c0.2-0.2,0.5-0.2,0.7-0.2c0.7,0,1.2,0.6,1.2,1.3c0,0.2,0,0.3-0.1,0.4c-0.2,0.7-0.5,1.4-0.7,2c0,0.1,0,0.1-0.1,0.2
	c0.6-0.2,1.1-0.7,1.4-1.4C19.8,18.1,20.8,18.4,20.6,19.1z M16.1,19.7c-0.1,0.4,0.1,0.6,0.4,0.6c0.2,0,0.5-0.2,0.6-0.4
	c0.2-0.7,0.4-1,0.6-1.7c0.1-0.3,0-0.6-0.3-0.6c-0.2,0-0.5,0.2-0.7,0.5l0,0L16.1,19.7z M24.6,19.1c-0.6,1.6-1.9,2.2-3.1,2.2
	c-1.3,0-2.2-0.7-2.2-1.7c0-0.2,0-0.4,0.1-0.6l0.5-1.5c0.3-0.9,1-1.3,1.8-1.3c1,0,1.6,0.6,1.6,1.4c0,0.1,0,0.3-0.1,0.5
	c-0.2,0.8-0.9,1.3-1.7,1.3c-0.3,0-0.7-0.1-0.9-0.3l-0.1,0.2c0,0.1,0,0.2,0,0.2c0,0.4,0.4,0.7,1,0.7c0.7,0,1.6-0.4,2-1.4
	C23.8,18.3,24.9,18.5,24.6,19.1z M21.2,17.8L21,18.3c0.3,0.2,0.9,0.2,1-0.3c0-0.1,0-0.1,0-0.2c0-0.2-0.2-0.4-0.4-0.4
	C21.5,17.3,21.3,17.5,21.2,17.8z M0.8,23.9C1.6,23.4,3,23,4.5,22.8s3.3-0.3,5-0.4c3.5-0.1,4.3,0,5.6,0h6.8c3.1,0,6.7,0.1,6.2-2.2
	l0,0c-0.5,0.7-1.1,1.2-1.7,1.2c-0.7,0-1.3-0.5-1.3-1.2c0-0.2,0-0.4,0.1-0.5l0.4-1c0.1-0.4-0.2-0.5-0.5-0.6l-0.5,1.3
	c-0.2,0.6-1.3,0.5-1-0.2l0.6-1.7c-0.1-0.2-0.2-0.4-0.2-0.6c0-0.1,0-0.3,0.1-0.4c0.1-0.3,0.4-0.5,0.7-0.5c0.5,0,0.9,0.5,0.7,0.9
	C26,17,27,17.4,27,18.2c0,0.1,0,0.3-0.1,0.5l-0.5,1.4c0,0.1,0,0.1,0,0.2s0.1,0.2,0.2,0.2c0.4,0,0.8-0.6,1.1-1.5l0,0
	c0.2-0.5,0.9-0.4,1.1,0c0.2,0.3,0.7,1.1,0.6,1.9c-0.3,2.4-2.4,2.8-7.2,2.8h-7c-1.4,0-2.2-0.1-5.6,0c-1.7,0.1-3.4,0.2-4.9,0.4
	S2.1,24.6,1.4,25c-0.2,0.2-0.6,0.1-0.7-0.2C0.5,24.4,0.6,24,0.8,23.9z M10.5,29.7l0.5-0.6c0.3,0.3,0.7,0.5,1.1,0.5
	c0.3,0,0.5-0.1,0.5-0.4l0,0c0-0.2-0.1-0.3-0.8-0.5c-0.8-0.2-1.2-0.4-1.2-1.1l0,0c0-0.7,0.5-1.1,1.3-1.1c0.5,0,1,0.2,1.4,0.5
	l-0.4,0.6c-0.3-0.2-0.7-0.4-1-0.4s-0.5,0.1-0.5,0.3l0,0c0,0.2,0.2,0.3,0.8,0.5c0.8,0.2,1.2,0.5,1.2,1.1l0,0c0,0.7-0.6,1.2-1.4,1.2
	C11.5,30.3,10.9,30.1,10.5,29.7z M15,26.5h0.8l1.6,3.8h-0.9l-0.3-0.8h-1.6l-0.3,0.8h-0.8L15,26.5z M15.9,28.7l-0.5-1.2l-0.5,1.2
	H15.9z M17.7,26.6h0.8v3h1.9v0.7h-2.7C17.7,30.3,17.7,26.6,17.7,26.6z M20.7,26.6h2.8v0.7h-2V28h1.8v0.7h-1.8v0.8h2v0.7h-2.8V26.6z"
	/>
</svg>
