<?xml version="1.0" encoding="utf-8"?>
<!-- Generator: Adobe Illustrator 23.0.3, SVG Export Plug-In . SVG Version: 6.00 Build 0)  -->
<svg version="1.1" id="Layer_1" xmlns="http://www.w3.org/2000/svg" xmlns:xlink="http://www.w3.org/1999/xlink" x="0px" y="0px"
	 viewBox="0 0 51 35.5" style="enable-background:new 0 0 51 35.5;" xml:space="preserve">
<style type="text/css">
	.st0{fill:#00C9B6;}
	.st1{fill:#595959;}
	.st2{fill:#722387;}
	.st3{fill:#FFFFFF;}
</style>
<path class="st0" d="M35.4,31.5l-19.7,1.9l0.9-11l25.6-2.5L41.8,25C41.6,28.3,38.7,31.2,35.4,31.5z"/>
<g>
	<path class="st1" d="M36.7,23.5l-31.8,3l0.8-10.1c0.4-5,4.9-9.5,10-10l22.6-2.2L36.7,23.5z"/>
</g>
<path class="st2" d="M39.2,23.3L4.9,26.6l1-11.7c0.4-5,4.9-9.5,10-10L41,2.5L39.2,23.3z"/>
<g>
	<path d="M23.1,2.6C23.1,2.6,23,2.5,23.1,2.6c-0.1-0.1-0.1-0.2,0-0.2L47.3,0c0,0,0.1,0,0.1,0.1c0,0,0,0.1-0.1,0.1L23.1,2.6L23.1,2.6
		z"/>
</g>
<g>
	<path d="M0.1,29.3C0,29.3,0,29.3,0.1,29.3c-0.1-0.1-0.1-0.2,0-0.2l13.7-1.4c0,0,0.1,0,0.1,0.1c0,0,0,0.1-0.1,0.1L0.1,29.3L0.1,29.3
		z"/>
</g>
<g>
	<path d="M11.1,35.5C11.1,35.5,11.1,35.4,11.1,35.5c-0.1-0.1-0.1-0.2,0-0.2l18.5-1.7c0,0,0.1,0,0.1,0.1c0,0,0,0.1-0.1,0.1L11.1,35.5
		L11.1,35.5z"/>
</g>
<g>
	<path d="M41.8,8.5C41.7,8.5,41.7,8.5,41.8,8.5c-0.1-0.1-0.1-0.2,0-0.2L50.9,7c0,0,0.1,0,0.1,0.1c0,0,0,0.1-0.1,0.1L41.8,8.5
		L41.8,8.5z"/>
</g>
<g>
	<rect x="40.7" y="22.4" transform="matrix(0.9934 -0.1143 0.1143 0.9934 -2.2874 5.1024)" class="st3" width="5.3" height="0.2"/>
</g>
<g>
	<rect x="6.3" y="31.7" transform="matrix(0.9949 -0.1006 0.1006 0.9949 -3.1362 1.4038)" class="st3" width="12.1" height="0.2"/>
</g>
<g>
	<rect x="36.1" y="4.5" transform="matrix(0.9925 -0.1221 0.1221 0.9925 -0.2572 4.9977)" class="st3" width="9.1" height="0.2"/>
</g>
</svg>
