<?xml version="1.0" encoding="utf-8"?>
<!-- Generator: Adobe Illustrator 23.0.3, SVG Export Plug-In . SVG Version: 6.00 Build 0)  -->
<svg version="1.1" id="Layer_1" xmlns="http://www.w3.org/2000/svg" xmlns:xlink="http://www.w3.org/1999/xlink" x="0px" y="0px"
	 viewBox="0 0 67.9 59.8" style="enable-background:new 0 0 67.9 59.8;" xml:space="preserve">
<style type="text/css">
	.st0{fill:none;stroke:#F1C731;stroke-width:0.25;stroke-linecap:round;stroke-linejoin:round;}
	.st1{fill:none;stroke:#68ABB4;stroke-width:2;stroke-linecap:round;stroke-linejoin:round;}
	.st2{fill:#00809E;}
	.st3{font-family:'Lato-Black';}
	.st4{font-size:19.0093px;}
	.st5{font-family:'Lato-Light';}
	.st6{font-size:4.2771px;}
</style>
<polyline class="st0" points="20.5,5.9 25.2,3.2 18.1,7.9 29,1.6 16.2,9.7 30.4,1.5 15.9,10.3 31.7,1.2 14.9,11.6 33.3,1 14.2,12.6 
	34.4,0.9 12.6,14.3 36.1,0.7 12,15.4 38.3,0.2 11.1,16.6 39.6,0.1 11.5,16.9 40.1,0.4 9.9,18.7 41.7,0.4 10.4,19 41.8,0.8 10,20.1 
	43.3,0.8 10.1,20.7 44.3,1 9.5,21.6 44.8,1.2 8.9,22.6 45.2,1.7 9,23.1 46.7,1.3 8.5,23.8 46.4,2 8.8,24.4 48.1,1.7 9,25 47.7,2.7 
	8.8,25.7 48.9,2.6 8.8,26.6 49.9,2.9 8.6,27.4 51,3 8.7,28 51.1,3.5 8.7,28.6 52.4,3.4 8.9,29.3 52.4,4.3 7.6,30.7 53.6,4.1 
	7.7,31.4 52.9,5.3 8,31.7 53.9,5.2 8.4,32.1 54.2,5.7 8.8,32.5 55.3,5.6 8.7,33.3 55,6.6 8.7,34.1 56.2,6.7 8.5,34.8 56.1,7.3 
	8.7,35.1 56.3,7.6 9,35.8 57.4,7.9 8.6,37 58.7,8.1 8.7,37.5 58.9,8.5 9.7,37.7 59.4,9 9.5,38.7 59.3,9.9 9.9,39.1 59.4,10.5 
	10.4,39.5 60.3,10.7 9.7,40.7 61.2,11 10.8,40.9 60.9,12 11,41.7 61.6,12.5 11.6,42 62.2,12.8 12,42.5 61.8,13.7 11.5,43.6 62.7,14 
	11.7,44.1 63.8,14.1 12.1,44.4 63.5,14.8 11.9,45.3 63.6,15.4 13.2,45.1 64,15.7 13,45.9 64.5,16.2 13.6,46.3 63.8,17.4 14.1,46.6 
	65.1,17.2 13.8,47.5 64.8,18.1 14.7,48 65.2,18.9 15.6,48.3 66.1,19.1 15.9,49 66,20.1 16.3,49.3 65.6,20.8 16.6,49.8 66.1,21.2 
	16.6,50.7 66,22.2 17.8,50.9 67,22.5 17.5,52 66.2,23.9 17.9,52.6 67,24.3 18.3,52.9 66.8,24.9 19.8,52.9 67.2,25.5 19.7,53.6 
	67.1,26.2 21.2,53.5 67.1,27 21.8,54.1 67.2,27.9 22.5,54.7 67.1,28.9 22.9,55 67.4,29.3 23.5,55.4 67.5,29.9 23.2,56.4 67.8,30.6 
	24.1,56.5 67.7,31.4 25.9,56.2 67.3,32.3 26.3,56.7 66.6,33.4 26,57.7 67.1,34 28.3,57.3 66.6,35.2 28.9,57.6 66.2,36.1 29.4,58 
	67,36.3 30.2,58.1 66.2,37.3 31.3,58.3 66.3,38.1 31.6,58.6 66.3,38.5 32.1,58.8 66.1,39.2 32.8,59.3 65.3,40.6 34.7,58.9 
	65.4,41.2 34.3,59.7 65.4,41.8 36.4,59.3 64.4,43.1 37.7,59.4 64.2,44.1 39.3,59.2 62.5,45.8 39.8,59.5 62.1,46.6 40.5,59.6 
	62.3,47.1 43,58.8 60,49 44,59 59.6,50 47.1,58.1 56.6,52.6 "/>
<polygon class="st1" points="47.2,54.3 17.7,56.5 1,32 13.9,5.3 43.5,3.1 60.1,27.7 "/>
<text transform="matrix(0.9904 -0.1381 0.1381 0.9904 12.7234 36.9397)" class="st2 st3 st4">SALE</text>
<text transform="matrix(0.9923 -0.1242 0.1242 0.9923 17.1718 41.6108)" class="st5 st6">OFFER DISCOUNT</text>
</svg>
