<?xml version="1.0" encoding="utf-8"?>
<!-- Generator: Adobe Illustrator 23.0.3, SVG Export Plug-In . SVG Version: 6.00 Build 0)  -->
<svg version="1.1" id="Layer_1" xmlns="http://www.w3.org/2000/svg" xmlns:xlink="http://www.w3.org/1999/xlink" x="0px" y="0px"
	 viewBox="0 0 41.7 41.4" style="enable-background:new 0 0 41.7 41.4;" xml:space="preserve">
<style type="text/css">
	.st0{fill:#103754;}
	.st1{fill:#EDB234;stroke:#CC9B46;stroke-width:0.5;stroke-miterlimit:10;}
	.st2{fill-rule:evenodd;clip-rule:evenodd;fill:#A0722A;}
	.st3{fill:#AE321A;}
	.st4{fill:#812005;}
	.st5{fill:#DE3F18;}
	.st6{fill:#FFFFFF;}
</style>
<path class="st0" d="M32.7,13l-2.1-3.5c-0.1-0.2-0.2-0.3-0.3-0.5l0,0l0,0c-0.5-0.6-1.2-1.1-2-1.3h-2.2h-1h-8.6h-1.2h-2
	c-1,0.2-1.9,0.9-2.3,1.8L8.9,13c-0.4,0.5-0.7,1.2-0.7,1.9V27v0.9v11.3c0,1.2,1,2.2,2.2,2.2H31c1.2,0,2.2-1,2.2-2.2V27.9V27V14.9
	C33.3,14.2,33.1,13.6,32.7,13z M27.3,11.8H14.4c-0.1,0-0.2-0.1-0.2-0.2s0.1-0.2,0.2-0.2h12.9c0.1,0,0.2,0.1,0.2,0.2
	S27.4,11.8,27.3,11.8z"/>
<path class="st1" d="M20.6,9.8c2.4,0,4.3-1.9,4.3-4.3S23,1.2,20.6,1.2s-4.3,1.9-4.3,4.3C16.3,7.9,18.2,9.8,20.6,9.8z"/>
<path class="st2" d="M21,5.1c-0.7-0.2-0.8-0.3-0.8-0.6s0.5-0.4,0.7-0.4c0.3,0,0.6,0.1,0.8,0.2c0.1,0,0.2,0,0.2,0l0.3-0.5
	c0-0.1,0-0.2,0-0.2c-0.3-0.2-0.6-0.3-0.9-0.3V3c0-0.1-0.1-0.2-0.2-0.2h-0.6c-0.1,0-0.2,0.1-0.2,0.2v0.4c-0.7,0.2-1.1,0.6-1.1,1.2
	c0,1.1,0.9,1.3,1.5,1.5s0.8,0.3,0.8,0.5c0,0.3-0.4,0.3-0.7,0.3s-0.7-0.1-0.9-0.4h-0.1h-0.1l-0.5,0.4c-0.1,0.1-0.1,0.2,0,0.2
	c0.3,0.3,0.7,0.5,1.1,0.6v0.4c0,0.1,0.1,0.2,0.2,0.2h0.6c0.1,0,0.2-0.1,0.2-0.2V7.8c0.7-0.1,1.2-0.6,1.2-1.2
	C22.4,5.5,21.6,5.2,21,5.1z"/>
<g>
	<path class="st3" d="M8.2,27.3L0,28.7l1.9,3L0,35.3l7-1.2L8.2,27.3z M33.5,23l8.2-1.4l-2,3.7l2,3l-7,1.1L33.5,23z"/>
	<path class="st4" d="M4.3,29.8l3.9-2.5v3.3C8.1,30.6,4.9,31.5,4.3,29.8 M37.4,24.2L33.5,23v3.3C33.5,26.3,36.8,26.1,37.4,24.2"/>
	<polygon class="st5" points="37.4,32.6 4.3,38.2 4.3,29.8 37.4,24.2 	"/>
</g>
<path class="st6" d="M10.7,16.5h3.9c1,0,1.7,0.3,2.2,0.7c0.4,0.4,0.6,0.8,0.6,1.4l0,0c0,0.9-0.5,1.5-1.1,1.8c1,0.4,1.6,0.9,1.6,2.1
	l0,0c0,1.5-1.2,2.3-3.1,2.3h-4v-8.3H10.7z M15.5,19c0-0.6-0.4-0.9-1.2-0.9h-1.8v1.8h1.7C15,19.9,15.5,19.6,15.5,19L15.5,19z
	 M14.6,21.4h-2.1v1.8h2.2c0.8,0,1.3-0.3,1.3-0.9l0,0C16,21.8,15.6,21.4,14.6,21.4z M19.4,16.5h1.8v8.4h-1.8V16.5z M23,20.7L23,20.7
	c0-2.4,1.9-4.4,4.4-4.4c1.5,0,2.4,0.4,3.3,1.1l-1.2,1.4c-0.6-0.5-1.2-0.8-2.2-0.8c-1.3,0-2.4,1.2-2.4,2.6l0,0c0,1.5,1.1,2.7,2.5,2.7
	c0.7,0,1.3-0.2,1.7-0.5v-1.2h-1.9V20h3.6v3.6c-0.9,0.7-2,1.3-3.6,1.3C24.8,25,23,23.2,23,20.7z M14,29.4c0.2,0.8-0.8,1.3-1.1,0.7
	c-0.1-0.3-0.3-0.4-0.6-0.4c-0.2,0-0.6,0.2-0.6,0.6c0,0.3,0.2,0.6,0.6,0.9l0.1,0.1c0.5,0.5,1.1,1,1.1,1.9c0,1.3-1.2,2.5-2.5,2.7
	c-1.2,0.2-2.4-0.5-2.3-1.8c0-0.9,1.4-1.2,1.3-0.1c0,0.6,0.5,0.9,1.1,0.8c0.5-0.1,1.1-0.6,1.1-1.3c0-0.5-0.3-0.8-0.7-1.2
	c-0.5-0.5-1-0.9-1-1.6c0-0.2,0-0.3,0.1-0.5c0.3-0.9,1.1-1.5,1.9-1.6C13.2,28.4,13.8,28.8,14,29.4z M19.3,32.5
	c-0.1,0.2-0.1,0.3-0.2,0.4c-0.6,1.3-1.3,1.8-2,1.9c-0.3,0-0.9,0.1-1.1-0.3c-0.3,0.3-0.7,0.5-1.1,0.6c-0.7,0.1-1.3-0.3-1.3-1
	c0-0.1,0-0.3,0.1-0.5l0.8-2.3c0.2-0.7,0.8-1.1,1.4-1.2c0.5-0.1,0.8,0,0.9,0.1c0.4-0.6,1.4-0.5,1.1,0.4L17,33.4c0,0.1,0,0.2,0,0.2
	c0,0.1,0.1,0.2,0.2,0.2c0.4-0.1,0.8-0.5,1.1-1.4C18.6,31.7,19.6,31.7,19.3,32.5z M15.9,33.1l0.3-0.9c0.3-0.8-0.1-0.9-0.1-0.9
	s-0.4-0.1-0.6,0.6l-0.4,1.3c-0.1,0.2-0.1,0.5,0.1,0.6C15.4,33.9,15.7,33.8,15.9,33.1z M23.7,31.6c-0.3,0.9-0.9,1.5-1.7,1.7
	c-0.4,0.1-0.8,0-1-0.3l-0.3,0.4c-0.5,0.7-0.8,1-1.4,1.1s-1.1-0.3-1.1-1c0-0.1,0-0.3,0-0.4l0.6-2.8c0.2-0.8,1.4-1,1.2,0.1l-0.6,2.7
	c0,0.1,0,0.2,0,0.2c0,0.3,0.4-0.3,0.6-0.5l0.5-0.8c-0.4-0.8,0.3-2.5,1.2-2.7s1,0.5,0.6,1.4c-0.2,0.4-0.3,0.6-0.5,0.9
	c0,0.1,0,0.2,0,0.2c0,0.2,0.1,0.4,0.4,0.3c0.3-0.1,0.5-0.3,0.6-0.7C22.9,30.9,23.8,30.9,23.7,31.6z M23.5,32.4
	C23.5,32.5,23.5,32.5,23.5,32.4c0,0.3,0.1,0.4,0.3,0.3c0.3-0.1,0.8-0.5,1.1-1.6c0.2-0.7,1.2-0.6,1,0c-0.6,1.8-1.5,2.4-2.3,2.6
	c-0.8,0.1-1.4-0.2-1.4-1c0-0.1,0-0.4,0.1-0.5c0.3-0.8,0.6-1.8,0.9-2.7c0.3-1,1.4-0.9,1.1,0.1L23.5,32.4z M23.9,27.5
	c0-0.4,0.3-0.7,0.7-0.8s0.7,0.2,0.7,0.6S25,28,24.6,28.1C24.2,28.1,23.9,27.9,23.9,27.5z M30.2,30.5c-0.6,1.7-1.5,2.4-2.3,2.6
	c-0.7,0.1-1.3-0.2-1.3-1c0-0.2,0-0.4,0.1-0.6l0.6-1.7c0-0.1,0-0.2,0-0.2c0-0.2-0.1-0.2-0.3-0.2s-0.5,0.3-0.7,0.7
	c-0.3,0.8-0.7,2-0.9,2.8c-0.3,0.8-1.4,1-1.2,0.1l1.4-4.1c0.1-0.5,0.9-0.6,1-0.3c0.2-0.2,0.5-0.3,0.8-0.3c0.7-0.1,1.2,0.3,1.2,0.9
	c0,0.1,0,0.3-0.1,0.5l0,0l-0.6,1.9c0,0.1,0,0.2,0,0.2c0,0.1,0.1,0.2,0.2,0.2c0.4-0.1,0.8-0.5,1.2-1.6C29.4,29.8,30.5,29.8,30.2,30.5
	z M32.2,27.8c0.3-0.7,1.4-0.6,1.1,0.1l-1.9,5.7c-0.4,1.1-1.1,1.5-1.7,1.6c-0.9,0.1-1.4-0.4-1.4-1.1s0.5-1.2,0.9-1.3s0.7,0.2,0.7,0.6
	s-0.3,0.6-0.6,0.7c0.1,0.1,0.2,0.1,0.3,0.1c0.2,0,0.4-0.2,0.5-0.5l0.4-1.1c-0.1,0.1-0.3,0.1-0.4,0.1c-0.7,0.1-1.3-0.3-1.3-1
	c0-0.2,0-0.4,0.1-0.5l0.7-2.2c0.3-0.8,0.9-1.3,1.5-1.4C31.5,27.5,31.9,27.5,32.2,27.8z M31.8,29.1L31.8,29.1c0-0.4-0.2-0.5-0.4-0.5
	S31,28.8,30.9,29l-0.8,2.3c0,0.1,0,0.1,0,0.2c0,0.2,0.1,0.2,0.3,0.2c0.3,0,0.6-0.3,0.8-0.7L31.8,29.1z"/>
</svg>
