<?xml version="1.0" encoding="utf-8"?>
<!-- Generator: Adobe Illustrator 23.0.3, SVG Export Plug-In . SVG Version: 6.00 Build 0)  -->
<svg version="1.1" id="Layer_1" xmlns="http://www.w3.org/2000/svg" xmlns:xlink="http://www.w3.org/1999/xlink" x="0px" y="0px"
	 viewBox="0 0 26.7 31.3" style="enable-background:new 0 0 26.7 31.3;" xml:space="preserve">
<style type="text/css">
	.st0{fill:#8C6B3B;}
	.st1{fill:#83D816;}
	.st2{fill:#2A8EE6;}
	.st3{fill:#ED5481;}
	.st4{fill:#FBAD4A;}
</style>
<path d="M17.3,7.9h-8C9,7.9,8.8,7.7,8.8,7.4V4.5c0-2.5,2-4.5,4.5-4.5s4.5,2,4.5,4.5v2.9C17.9,7.6,17.6,7.9,17.3,7.9z M9.9,6.8h6.9
	V4.4c0-1.9-1.6-3.5-3.5-3.5S9.8,2.5,9.8,4.4L9.9,6.8L9.9,6.8z"/>
<polygon class="st0" points="25.1,10 1.6,10 3.2,7.3 23.5,7.3 "/>
<path d="M25.1,10.5H1.6c-0.2,0-0.4-0.1-0.5-0.3S1,9.8,1.1,9.7L2.7,7C2.8,6.8,3,6.7,3.2,6.7h20.3c0.2,0,0.4,0.1,0.5,0.3l1.6,2.7
	c0.1,0.2,0.1,0.4,0,0.5C25.4,10.4,25.3,10.5,25.1,10.5z M2.5,9.5h21.6l-1-1.6H3.5L2.5,9.5z"/>
<rect x="13.9" y="4.4" transform="matrix(0.2277 -0.9737 0.9737 0.2277 5.9357 23.6918)" class="st1" width="8" height="7.5"/>
<path d="M20.6,13.4L20.6,13.4l-7.4-1.7c-0.1,0-0.3-0.1-0.3-0.2c-0.1-0.1-0.1-0.3-0.1-0.4l1.8-7.8C14.7,3,15,2.8,15.2,2.9l7.3,1.7
	c0.1,0,0.3,0.1,0.3,0.2c0.1,0.1,0.1,0.3,0.1,0.4L21.1,13C21.1,13.2,20.8,13.4,20.6,13.4z M14,10.8l6.2,1.5l1.6-6.8L15.5,4L14,10.8z"
	/>
<rect x="4.2" y="2.5" transform="matrix(0.9931 -0.1174 0.1174 0.9931 -0.797 1.0717)" class="st2" width="9" height="9.6"/>
<path d="M4.8,13.2c-0.3,0-0.5-0.2-0.5-0.5L3.2,3.1c0-0.3,0.2-0.6,0.5-0.6l8.9-1.1c0.1,0,0.3,0,0.4,0.1s0.2,0.2,0.2,0.4l1.1,9.6
	c0,0.1,0,0.3-0.1,0.4c-0.1,0.1-0.2,0.2-0.4,0.2L4.8,13.2C4.9,13.2,4.8,13.2,4.8,13.2z M4.3,3.5l1,8.5l7.9-0.9l-1-8.5L4.3,3.5z"/>
<rect x="8.6" y="6.4" transform="matrix(0.9723 -0.2338 0.2338 0.9723 -2.2263 3.3456)" class="st3" width="8.8" height="9.3"/>
<path d="M9.8,17.2c-0.2,0-0.5-0.2-0.5-0.4l-2.2-9C7,7.5,7.2,7.2,7.5,7.2l8.6-2.1c0.1,0,0.3,0,0.4,0.1c0.1,0.1,0.2,0.2,0.2,0.3l2.2,9
	c0,0.1,0,0.3-0.1,0.4c-0.1,0.1-0.2,0.2-0.3,0.2l-8.5,2C9.9,17.2,9.9,17.2,9.8,17.2z M8.3,8l1.9,8l7.6-1.8l-1.9-8L8.3,8z"/>
<polygon class="st4" points="26.1,30.8 0.5,30.8 1.6,10 25.1,10 "/>
<path d="M26.1,31.3H0.5c-0.1,0-0.3-0.1-0.4-0.2C0,31.1,0,30.9,0,30.8L1.1,10c0-0.3,0.2-0.5,0.5-0.5h23.5c0.3,0,0.5,0.2,0.5,0.5
	l1.1,20.8c0,0.1,0,0.3-0.1,0.4C26.4,31.3,26.3,31.3,26.1,31.3z M1.1,30.3h24.5l-1-19.7H2.1L1.1,30.3z"/>
<circle class="st0" cx="17.3" cy="13.2" r="1.1"/>
<path d="M17.3,14.8c-0.9,0-1.6-0.7-1.6-1.6c0-0.9,0.7-1.6,1.6-1.6c0.9,0,1.6,0.7,1.6,1.6C18.9,14.1,18.2,14.8,17.3,14.8z M17.3,12.7
	c-0.3,0-0.5,0.2-0.5,0.5s0.2,0.5,0.5,0.5s0.5-0.2,0.5-0.5C17.9,12.9,17.6,12.7,17.3,12.7z"/>
<circle class="st0" cx="9.3" cy="13.2" r="1.1"/>
<path d="M9.3,14.8c-0.9,0-1.6-0.7-1.6-1.6c0-0.9,0.7-1.6,1.6-1.6c0.9,0,1.6,0.7,1.6,1.6C10.9,14.1,10.2,14.8,9.3,14.8z M9.3,12.7
	c-0.3,0-0.5,0.2-0.5,0.5s0.2,0.5,0.5,0.5s0.5-0.2,0.5-0.5C9.9,12.9,9.6,12.7,9.3,12.7z"/>
<path d="M13.3,21.2c-2.5,0-4.5-2-4.5-4.5v-2.9c0-0.3,0.2-0.5,0.5-0.5s0.5,0.2,0.5,0.5v2.9c0,1.9,1.6,3.5,3.5,3.5s3.5-1.6,3.5-3.5V14
	c0-0.1,0-0.1,0-0.2c0-0.3,0.2-0.5,0.5-0.5l0,0c0.3,0,0.5,0.2,0.5,0.5v2.9C17.9,19.2,15.8,21.2,13.3,21.2z"/>
</svg>
