<?xml version="1.0" encoding="utf-8"?>
<!-- Generator: Adobe Illustrator 23.0.3, SVG Export Plug-In . SVG Version: 6.00 Build 0)  -->
<svg version="1.1" id="Layer_1" xmlns="http://www.w3.org/2000/svg" xmlns:xlink="http://www.w3.org/1999/xlink" x="0px" y="0px"
	 viewBox="0 0 38.8 18.1" style="enable-background:new 0 0 38.8 18.1;" xml:space="preserve">
<style type="text/css">
	.st0{fill:#FF6F00;}
	.st1{fill:#FFC000;}
	.st2{fill:#00C27D;}
	.st3{fill:#003961;}
	.st4{opacity:0.7;}
</style>
<g>
	<polygon class="st0" points="9.8,16.2 2.4,17.1 4.6,13.6 	"/>
	<polygon class="st1" points="0,12.5 9.8,16.2 10.4,11.6 	"/>
	<polygon class="st2" points="1,2.9 0,12.5 36.4,14.1 36,1 	"/>
</g>
<g>
	<path class="st0" d="M35.3,0.1l1.2,12.7l-26,0.4h-0.1v0.1l-0.2,3.2l-6.9,1.2l1.6-2.8L5,14.7l-0.2-0.1l-4.4-1.2l0.4-9.3L35.3,0.1
		 M35.5,0L0.7,4l-0.4,9.6L4.7,15L3,18.1l7.3-1.3l0.2-3.3l26.2-0.4L35.5,0L35.5,0z"/>
</g>
<g>
	<g>
		<g>
			<path class="st3" d="M26.5,16C26.5,16,26.4,15.9,26.5,16l-2-1.9V14h0.1L26.5,16C26.5,15.9,26.5,15.9,26.5,16
				C26.5,15.9,26.5,16,26.5,16z"/>
		</g>
	</g>
	<g>
		<g>
			<path class="st3" d="M27.1,16.1L27.1,16.1l-2.7-2.7v-0.1h0.1L27.1,16.1C27.2,16,27.2,16,27.1,16.1L27.1,16.1z"/>
		</g>
	</g>
	<g>
		<g>
			<path class="st3" d="M27.6,16.1L27.6,16.1l-3.3-3.2v-0.1h0.1L27.6,16.1C27.7,16,27.7,16,27.6,16.1C27.7,16.1,27.7,16.1,27.6,16.1
				z"/>
		</g>
	</g>
	<g>
		<g>
			<path class="st3" d="M28.1,16L28.1,16l-3.6-3.6v-0.1h0.1L28.1,16C28.2,15.9,28.2,16,28.1,16L28.1,16z"/>
		</g>
	</g>
	<g>
		<g>
			<path class="st3" d="M28.5,15.9L28.5,15.9L24.6,12v-0.1h0.1L28.5,15.9C28.6,15.8,28.6,15.8,28.5,15.9L28.5,15.9z"/>
		</g>
	</g>
	<g>
		<g>
			<path class="st3" d="M28.9,15.7C28.8,15.7,28.8,15.7,28.9,15.7l-4.1-4v-0.1h0.1L28.9,15.7C28.9,15.6,28.9,15.7,28.9,15.7
				L28.9,15.7z"/>
		</g>
	</g>
	<g>
		<g>
			<path class="st3" d="M29.2,15.5C29.1,15.5,29.1,15.5,29.2,15.5L25,11.4v-0.1h0.1L29.2,15.5C29.2,15.4,29.2,15.4,29.2,15.5
				L29.2,15.5z"/>
		</g>
	</g>
	<g>
		<g>
			<path class="st3" d="M29.4,15.2L29.4,15.2L25.2,11v-0.1h0.1L29.4,15.2C29.5,15.2,29.5,15.2,29.4,15.2
				C29.5,15.2,29.5,15.2,29.4,15.2z"/>
		</g>
	</g>
	<g>
		<g>
			<path class="st3" d="M29.7,15L29.7,15l-4.2-4.1v-0.1h0.1L29.7,15C29.7,14.9,29.7,14.9,29.7,15L29.7,15z"/>
		</g>
	</g>
	<g>
		<g>
			<path class="st3" d="M29.9,14.7C29.9,14.7,29.9,14.6,29.9,14.7l-4.1-4.1v-0.1h0.1L29.9,14.7C30,14.6,30,14.6,29.9,14.7
				C29.9,14.6,29.9,14.7,29.9,14.7z"/>
		</g>
	</g>
	<g>
		<g>
			<path class="st3" d="M30.1,14.3L30.1,14.3l-3.9-3.9v-0.1h0.1L30.1,14.3C30.1,14.2,30.1,14.3,30.1,14.3L30.1,14.3z"/>
		</g>
	</g>
	<g>
		<g>
			<path class="st3" d="M30.2,13.9L30.2,13.9l-3.6-3.6v-0.1h0.1L30.2,13.9C30.3,13.8,30.3,13.9,30.2,13.9L30.2,13.9z"/>
		</g>
	</g>
	<g>
		<g>
			<path class="st3" d="M30.3,13.4L30.3,13.4L27,10.1V10h0.1L30.3,13.4L30.3,13.4L30.3,13.4z"/>
		</g>
	</g>
	<g>
		<g>
			<path class="st3" d="M30.3,12.9L30.3,12.9l-2.7-2.7v-0.1h0.1L30.3,12.9L30.3,12.9L30.3,12.9z"/>
		</g>
	</g>
	<g>
		<g>
			<path class="st3" d="M30.2,12.3L30.2,12.3l-2-2v-0.1h0.1L30.2,12.3C30.2,12.2,30.2,12.3,30.2,12.3L30.2,12.3z"/>
		</g>
	</g>
</g>
<g class="st4">
	<polygon points="35.3,11.2 34.8,11 34.6,11.6 34.1,11.2 33.8,11.8 33.4,11.4 33,11.8 32.7,11.3 32.2,11.7 32,11.2 31.5,11.5 
		31.4,10.9 30.8,11.1 30.8,10.6 30.2,10.7 30.3,10.1 29.8,10.1 30,9.5 29.4,9.4 29.7,8.9 29.2,8.7 29.6,8.2 29.1,7.9 29.5,7.5 
		29.1,7.1 29.7,6.7 29.3,6.3 29.9,6 29.7,5.5 30.2,5.4 30.1,4.8 30.7,4.8 30.7,4.2 31.3,4.3 31.4,3.7 31.9,3.9 32.1,3.3 32.6,3.6 
		32.8,3 33.3,3.4 33.6,2.9 34,3.3 34.4,2.9 34.7,3.4 35.2,3.1 35.4,3.6 35.9,3.4 36,3.9 36.5,3.8 36.5,4.4 37.1,4.3 36.9,4.9 
		37.5,5 37.2,5.5 37.8,5.7 37.4,6.2 37.9,6.4 37.5,6.9 38,7.2 37.5,7.6 37.8,8 37.3,8.3 37.6,8.8 37,9 37.2,9.5 36.6,9.6 36.7,10.2 
		36.1,10.2 36,10.8 35.5,10.6 	"/>
</g>
<g>
	<polygon class="st1" points="36.2,10.9 35.7,10.6 35.4,11.2 35,10.9 34.7,11.4 34.3,11 33.9,11.4 33.6,11 33.1,11.4 32.9,10.8 
		32.3,11.1 32.2,10.6 31.7,10.8 31.7,10.2 31.1,10.3 31.2,9.7 30.6,9.7 30.8,9.1 30.3,9 30.5,8.5 30,8.3 30.4,7.8 29.9,7.5 
		30.4,7.1 30,6.7 30.5,6.4 30.2,5.9 30.7,5.7 30.5,5.2 31.1,5 31,4.5 31.6,4.4 31.5,3.8 32.1,3.9 32.2,3.3 32.7,3.5 32.9,2.9 
		33.4,3.2 33.7,2.7 34.1,3 34.5,2.5 34.8,3 35.3,2.6 35.5,3 36,2.7 36.2,3.2 36.8,3 36.8,3.6 37.4,3.4 37.3,4 37.9,4 37.8,4.5 
		38.3,4.6 38.1,5.1 38.6,5.3 38.3,5.8 38.8,6.1 38.4,6.5 38.8,6.9 38.3,7.2 38.7,7.7 38.1,8 38.4,8.4 37.8,8.6 38,9.2 37.4,9.3 
		37.5,9.8 36.9,9.8 36.9,10.4 36.3,10.3 	"/>
</g>
</svg>
