<?xml version="1.0" encoding="utf-8"?>
<!-- Generator: Adobe Illustrator 23.0.3, SVG Export Plug-In . SVG Version: 6.00 Build 0)  -->
<svg version="1.1" id="Layer_1" xmlns="http://www.w3.org/2000/svg" xmlns:xlink="http://www.w3.org/1999/xlink" x="0px" y="0px"
	 viewBox="0 0 56.2 57.5" style="enable-background:new 0 0 56.2 57.5;" xml:space="preserve">
<style type="text/css">
	.st0{fill:none;stroke:#F1C731;stroke-width:0.25;stroke-linecap:round;stroke-linejoin:round;}
	
		.st1{opacity:0.47;fill:none;stroke:#68ABB4;stroke-width:2;stroke-linecap:round;stroke-linejoin:round;enable-background:new    ;}
	.st2{font-family:'Roboto-Black';}
	.st3{font-size:10.107px;}
	.st4{opacity:0.43;enable-background:new    ;}
	.st5{font-family:'Roboto-ThinItalic';}
	.st6{font-size:6.0642px;}
</style>
<path class="st0" d="M13.1,17.1l4.2-4.2c0.1,0.1-7.1,8.7-7,8.8s11.3-11.6,11.5-11.5c0.1,0.1-12.5,13.9-12.3,14.1
	C9.7,24.5,24.7,8.7,24.9,8.9c0.3,0.3-16.4,17.9-16.3,18S27.3,8,27.4,8.1c0.2,0.2-19,20.4-18.8,20.6C8.9,29,29.2,7.8,29.4,7.9
	c0.3,0.3-21,22.5-20.9,22.6C8.8,30.8,30.9,7.6,31.2,7.8c0.3,0.3-22.9,24-22.6,24.3S32.8,7.3,33.1,7.6C33.4,7.9,8.3,33.8,8.4,34
	c0.1,0.1,25.8-26.3,26-26C34.8,8.4,8.3,35,8.7,35.4C8.8,35.6,35.8,7.7,36.1,7.9C36.5,8.3,8.3,36.6,8.7,37
	C8.9,37.2,37.2,7.8,37.5,8.2C37.7,8.4,8.9,38.1,9.1,38.3C9.3,38.5,38.3,8.5,38.5,8.8C38.9,9.2,9.3,38.9,9.7,39.3
	C10,39.6,39.6,8.8,39.9,9.1C40.1,9.3,9.5,40.8,9.7,41c0.5,0.5,31.1-31.9,31.5-31.5S10.1,41.7,10.5,42C11,42.5,42.2,9.5,42.6,9.9
	c0.2,0.2-31.7,33-31.5,33.2c0.5,0.5,32.1-32.9,32.5-32.5c0.3,0.3-32.2,33.4-31.9,33.6c0.3,0.3,33-33.4,33.2-33.2
	c0.3,0.3-32.9,33.8-32.5,34.2c0.4,0.4,33.1-33.6,33.4-33.4c0.3,0.3-32.9,33.8-32.5,34.2c0.4,0.4,33.3-33.8,33.5-33.5
	c0.2,0.2-32.9,34.1-32.7,34.4c0.4,0.4,33.2-34.2,33.7-33.7c0.4,0.4-33.2,34.4-32.9,34.6c0.4,0.4,33.4-34.1,33.7-33.7
	c0.3,0.3-33.5,34.8-33.3,35c0.2,0.2,33.9-34.2,34.1-34.1c0.4,0.6-33.6,34.8-33.3,35c0.4,0.4,33.6-34.3,34-34
	c0.3,0.3-33.2,34-32.7,34.4c0.3,0.3,33.2-34.2,33.7-33.7c0.2,0.2-33,34.1-32.7,34.4c0.4,0.4,33.1-34,33.5-33.5
	C52.3,18,19,51.9,19.1,52.1c0.3,0.3,32.8-33.3,33.1-33.1c0.2,0.2-32.2,33-31.7,33.5c0.3,0.5,32.3-33,32.7-32.6
	c0.3,0.3-31.9,32.8-31.5,33.2c0.5,0.5,31.5-32.4,32-32c0.2,0.2-31.3,32.5-31,32.7C23,54.1,54,22.1,54.2,22.3
	c0.4,0.4-30.9,31.8-30.5,32.2c0.4,0.4,30.8-31.5,31.1-31.1c0.4,0.4-29.7,31-29.5,31.2c0.2,0.2,29.6-30,29.8-29.8
	C55.3,25,26.4,54.9,26.6,55c0.4,0.4,28.9-29.3,29.1-29.1c0.3,0.3-28.1,29-27.7,29.4c0.3,0.3,27.3-28.1,27.7-27.7
	c0.2,0.2-26.6,27.8-26.4,28c0.2,0.2,26.3-27,26.7-26.7c0.4,0.4-25.1,26.5-24.9,26.7c0.2,0.3,24.7-25.1,24.9-24.8
	c0.3,0.3-23.2,24.6-23,24.8s22.9-23.3,23.1-23.1s-22,23-21.7,23.3c0.1,0.1,21.4-22,21.7-21.7c0.1,0.1-19.7,20.8-19.4,21.1
	c0.1,0.1,18.8-19.4,19.1-19.1c0.2,0.2-17.4,18.6-17.2,18.8C38.7,55,55,38.2,55.1,38.4c0.2,0.2-13.8,15.3-13.7,15.4
	c0.2,0.2,12.8-13.1,13-13c0.1,0.1-9.4,11-9.3,11c0.1,0.1,7.2-7.3,7.3-7.3"/>
<polygon class="st1" points="45.4,1 49,28.8 52.7,56.5 26.8,45.8 1,35.1 23.2,18.1 "/>
<text transform="matrix(1 0 0 1 10.1047 30.9229)" class="st2 st3">SUMMER</text>
<text transform="matrix(1 0 0 1 10.8176 31.4941)" class="st4 st2 st3">SUMMER</text>
<text transform="matrix(1 0 0 1 12.427 37.8057)" class="st5 st6">BIG DISCOUNT</text>
</svg>
