<?xml version="1.0" encoding="utf-8"?>
<!-- Generator: Adobe Illustrator 23.0.3, SVG Export Plug-In . SVG Version: 6.00 Build 0)  -->
<svg version="1.1" id="Layer_1" xmlns="http://www.w3.org/2000/svg" xmlns:xlink="http://www.w3.org/1999/xlink" x="0px" y="0px"
	 viewBox="0 0 41.9 42" style="enable-background:new 0 0 41.9 42;" xml:space="preserve">
<style type="text/css">
	.st0{fill:#451746;}
	.st1{fill:#FF0051;}
	.st2{fill:#E6E6E6;}
	.st3{fill:#020202;}
	.st4{fill:#FFFFFF;}
</style>
<path class="st0" d="M30.6,17.1c0.1,0,0.2,0.1,0.3,0.1L41.7,6.4c0-0.1-0.1-0.2-0.1-0.3L30.6,17.1z M29.5,16.7c0.1,0,0.2,0.1,0.3,0.1
	L41.3,5.3c0-0.1-0.1-0.2-0.1-0.3L29.5,16.7z M31.7,17.4c0.1,0,0.2,0,0.4,0.1l9.8-9.8c0-0.1,0-0.2-0.1-0.4L31.7,17.4z M28.6,16.2
	c0.1,0.1,0.2,0.1,0.3,0.2l12-12c0-0.1-0.1-0.2-0.2-0.3L28.6,16.2z M41.4,12.1l-4.9,4.8c0.3-0.1,0.5-0.2,0.8-0.4l3.7-3.7
	C41.1,12.6,41.2,12.3,41.4,12.1z M34.6,17.4c0.2,0,0.3-0.1,0.5-0.1l6.7-6.7c0-0.2,0.1-0.3,0.1-0.5L34.6,17.4z M33,17.5
	c0.1,0,0.3,0,0.4,0L41.9,9c0-0.1,0-0.3,0-0.4L33,17.5z M27.8,15.6c0.1,0.1,0.2,0.1,0.2,0.2L40.3,3.5c-0.1-0.1-0.1-0.2-0.2-0.2
	L27.8,15.6z M24.6,10.2c0,0.1,0,0.2,0.1,0.3L35,0.2c-0.1,0-0.2,0-0.3-0.1L24.6,10.2z M24.6,7.4c0,0.2,0,0.3-0.1,0.5l7.8-7.8
	c-0.2,0-0.3,0-0.5,0.1L24.6,7.4z M24.9,11.4c0,0.1,0.1,0.2,0.1,0.3L36.2,0.5c-0.1,0-0.2-0.1-0.3-0.1L24.9,11.4z M24.5,8.9
	c0,0.1,0,0.3,0,0.4L33.8,0c-0.1,0-0.3,0-0.4,0L24.5,8.9z M25.1,5.4c-0.1,0.2-0.2,0.4-0.2,0.7l5.6-5.6c-0.2,0.1-0.4,0.2-0.7,0.2
	L25.1,5.4z M25.2,12.4c0,0.1,0.1,0.2,0.1,0.3L37.2,0.9c-0.1,0-0.2-0.1-0.3-0.1L25.2,12.4z M26.3,14.2c0.1,0.1,0.1,0.2,0.2,0.2
	L38.9,2c-0.1-0.1-0.2-0.1-0.2-0.2L26.3,14.2z M25.8,13.3c0.1,0.1,0.1,0.2,0.2,0.3L38.2,1.4c-0.1-0.1-0.2-0.1-0.3-0.2L25.8,13.3z
	 M39.4,2.5L27,14.9l0,0c0.1,0.1,0.1,0.1,0.2,0.2L39.6,2.7C39.6,2.7,39.5,2.6,39.4,2.5L39.4,2.5z"/>
<path class="st1" d="M26.3,2l-12.9,8.6v10.3l25.7-2.1V8.3L26.3,2z M16.6,5.4L14.9,6L17,6.6L16.6,5.4z M10.7,14.4l1,0.1l-1-0.8V14.4z
	 M8.4,17.6l1.6,0.9l-0.1-1L8.4,17.6z M8.4,9.8L6.8,9.6l1.9,1.5L8.4,9.8z M13.6,8.1l-0.4,0.2l0.3,0.5L13.6,8.1z M11.6,4.9l1-1.1
	l-1.7,0.4L11.6,4.9z"/>
<path class="st2" d="M12.6,39.1c0.1,0,0.2,0.1,0.3,0.1l10.8-10.8c0-0.1-0.1-0.2-0.1-0.3L12.6,39.1z M11.5,38.7
	c0.1,0,0.2,0.1,0.3,0.1l11.5-11.5c0-0.1-0.1-0.2-0.1-0.3L11.5,38.7z M13.7,39.4c0.1,0,0.2,0,0.4,0.1l9.8-9.8c0-0.1,0-0.2-0.1-0.4
	L13.7,39.4z M10.6,38.2c0.1,0.1,0.2,0.1,0.3,0.2l12-12c0-0.1-0.1-0.2-0.2-0.3L10.6,38.2z M23.3,34.1l-4.8,4.8
	c0.3-0.1,0.5-0.2,0.8-0.4l3.7-3.6C23.1,34.6,23.2,34.4,23.3,34.1z M16.6,39.4c0.2,0,0.3-0.1,0.5-0.1l6.7-6.7c0-0.2,0.1-0.3,0.1-0.5
	L16.6,39.4z M15,39.5c0.1,0,0.3,0,0.4,0l8.5-8.5c0-0.1,0-0.3,0-0.4L15,39.5z M9.8,37.6c0.1,0.1,0.2,0.1,0.2,0.2l12.3-12.3
	c-0.1-0.1-0.1-0.2-0.2-0.2L9.8,37.6z M6.6,32.2c0,0.1,0,0.2,0.1,0.3L17,22.2c-0.1,0-0.2,0-0.3-0.1L6.6,32.2z M6.6,29.4
	c0,0.2,0,0.3-0.1,0.5l7.8-7.8c-0.2,0-0.3,0-0.5,0.1L6.6,29.4z M6.9,33.4c0,0.1,0.1,0.2,0.1,0.3l11.2-11.2c-0.1,0-0.2-0.1-0.3-0.1
	L6.9,33.4z M6.5,30.9c0,0.1,0,0.3,0,0.4l9.3-9.3c-0.1,0-0.3,0-0.4,0L6.5,30.9z M7.1,27.4c-0.1,0.2-0.2,0.4-0.2,0.7l5.6-5.6
	c-0.2,0.1-0.4,0.2-0.7,0.2L7.1,27.4z M7.2,34.4c0,0.1,0.1,0.2,0.1,0.3l11.9-11.8c-0.1,0-0.2-0.1-0.3-0.1L7.2,34.4z M8.3,36.2
	c0.1,0.1,0.1,0.2,0.2,0.2L20.9,24c-0.1-0.1-0.2-0.1-0.2-0.2L8.3,36.2z M7.7,35.4c0.1,0.1,0.1,0.2,0.2,0.3l12.2-12.2
	c-0.1-0.1-0.2-0.1-0.3-0.2L7.7,35.4z M21.4,24.6L9,37l0,0c0.1,0.1,0.1,0.1,0.2,0.2l12.4-12.4C21.6,24.7,21.5,24.6,21.4,24.6
	L21.4,24.6z"/>
<path class="st3" d="M10,21.9v9.5l12.8,6.3l12.9-8.5v-9.3L10,21.9z M4.4,28.4l-0.5,1.8l1.7-1.5L4.4,28.4z M10.8,38.2l0.6-0.8
	l-1.2,0.4L10.8,38.2z M14,35.9l1-0.7h-1.5L14,35.9z M15.6,36l0.5,1.5l0.5-1.9L15.6,36z M16.6,40.9L15,41.1l1.7,0.9L16.6,40.9z
	 M7.5,27.6l0.7-0.1l-0.8-0.3L7.5,27.6z M8.3,33.5L9.4,34l-0.8-1.2L8.3,33.5z M8.9,22.9l-2.1,0.2L9,24.3L8.9,22.9z M4.9,33l0.7,0.1
	L5,32.6L4.9,33z M1,32.5L0.6,31L0,32.7L1,32.5z"/>
<path class="st4" d="M20.8,8.7L22,8.5V19l-1.2,0.1V15l-1.4,0.1v4.1l-1.2,0.1V8.9l1.2-0.1V14l1.4-0.1V8.7z M26.1,8.7
	c0.3,0.3,0.5,0.7,0.5,1.2v8.7l-1.2,0.1v-4.1L24,14.7v4.1l-1.1,0.1v-8.7c0-0.5,0.2-0.9,0.5-1.3c0.3-0.4,0.8-0.6,1.2-0.6h0.3
	C25.4,8.3,25.8,8.4,26.1,8.7z M25.5,10c0-0.2-0.1-0.3-0.2-0.4c-0.1-0.1-0.2-0.1-0.4-0.1h-0.3c-0.2,0-0.3,0.1-0.4,0.2
	C24.1,9.8,24,9.9,24,10.1v3.5l1.5-0.1V10z M28.7,8l-1.2,0.1v10.5l3.5-0.3v-1.2l-2.3,0.2V8z M35.4,8.6V7.4l-3.6,0.3v10.5l1.2-0.1V14
	l1.4-0.1v-1.1L33,12.9V8.8L35.4,8.6z"/>
<path class="st4" d="M16.1,22.6l-1.9,0.3v9.5l1.1-0.1v-3.7l0.8-0.1c0.4-0.1,0.8-0.3,1.1-0.6c0.3-0.4,0.5-0.8,0.5-1.2v-2.6
	c0-0.5-0.2-0.8-0.5-1.1S16.5,22.6,16.1,22.6z M16.6,26.8c0,0.2-0.1,0.3-0.2,0.4s-0.3,0.2-0.4,0.2l-0.8,0.1v-3.7l0.8-0.1
	c0.2,0,0.3,0,0.4,0.1s0.2,0.3,0.2,0.4V26.8z M20.3,22.3l-1.8,0.1v9.5h0.9v-3.7l0.8-0.1c0.2,0,0.3,0,0.4,0.1s0.2,0.3,0.2,0.4v3.2
	l1.1-0.1v-3.2c0-0.4-0.1-0.7-0.4-1c0.3-0.3,0.4-0.7,0.4-1.1v-2.6c0-0.5-0.2-0.8-0.5-1.1C21.1,22.4,20.7,22.3,20.3,22.3z M20.9,26.4
	c0,0.2-0.1,0.3-0.2,0.4S20.4,27,20.3,27l-0.8,0.1v-3.7l0.8-0.1c0.2,0,0.3,0,0.4,0.1s0.2,0.3,0.2,0.4V26.4z M22.7,22.1l1.1-0.1v9.5
	l-1.1,0.1V22.1z M27.5,22.2c0.3,0.3,0.5,0.6,0.5,1.1v2.1l-1.1,0.1v-2.1c0-0.1-0.1-0.3-0.2-0.4s-0.2-0.1-0.4-0.1H26
	c-0.1,0-0.3,0.1-0.4,0.2s-0.2,0.2-0.2,0.4v6.3c0,0.1,0.1,0.3,0.2,0.4s0.2,0.1,0.4,0.1h0.3c0.1,0,0.3-0.1,0.4-0.2s0.2-0.2,0.2-0.4
	v-2.1l1.1-0.1v2.1c0,0.4-0.2,0.8-0.5,1.2c-0.3,0.3-0.7,0.5-1.1,0.6h-0.3c-0.4,0-0.8-0.1-1.1-0.4s-0.5-0.6-0.5-1.1v-6.3
	c0-0.4,0.2-0.8,0.5-1.2c0.3-0.3,0.7-0.5,1.1-0.6h0.3C26.8,21.8,27.2,21.9,27.5,22.2z M29.9,22.6v3.7l1.3-0.1v1.1l-1.3,0.1v2.5
	l2.1-0.2v1.1l-3.2,0.3v-9.5l3.2-0.3v1.1L29.9,22.6z"/>
<path class="st4" d="M20.7,32.7c0,0.1,0.1,0.2,0.1,0.2c0,0.1,0,0.2,0,0.3l-0.5,0.1c0-0.1,0-0.1,0-0.2V33c0,0,0-0.1-0.1-0.1l-0.1-0.1
	H20c-0.1,0-0.2,0-0.2,0.1s-0.1,0.1-0.1,0.2c0,0.1,0,0.2,0.1,0.3c0,0.1,0.1,0.1,0.2,0.2l0.4,0.3c0.1,0.1,0.1,0.1,0.2,0.2
	c0.1,0.1,0.1,0.1,0.1,0.2c0,0.1,0.1,0.2,0.1,0.2c0,0.1,0,0.2,0,0.3c0,0.2-0.1,0.4-0.2,0.6c-0.1,0.1-0.3,0.2-0.5,0.2
	c-0.6,0-0.9-0.3-0.9-0.9l0.5-0.1c0,0.4,0.1,0.6,0.4,0.6c0.1,0,0.2,0,0.2-0.1s0.1-0.1,0.1-0.2c0-0.1,0-0.2,0-0.2
	c0-0.1-0.1-0.1-0.1-0.2c0,0-0.1-0.1-0.2-0.2L19.7,34c-0.1-0.1-0.2-0.2-0.3-0.3c-0.1-0.1-0.1-0.3-0.1-0.4c0-0.2,0.1-0.4,0.2-0.6
	c0.1-0.1,0.3-0.2,0.6-0.3c0.1,0,0.2,0,0.3,0c0.1,0,0.2,0.1,0.2,0.1C20.7,32.5,20.7,32.6,20.7,32.7z M22.3,32.2l0.7,3.2h-0.5
	l-0.1-0.7h-0.6l-0.1,0.8H21l0.7-3.3H22.3z M22.2,34.4L22,33l-0.2,1.4H22.2z M23.9,32.2h-0.6v3.2l1.4-0.2v-0.4l-0.8,0.1V32.2z
	 M26.2,32.4V32l-1.3,0.1v3.2l1.3-0.1v-0.4l-0.8,0.1v-1.1H26v-0.4h-0.6v-0.9L26.2,32.4z"/>
</svg>
