<?xml version="1.0" encoding="utf-8"?>
<!-- Generator: Adobe Illustrator 23.0.3, SVG Export Plug-In . SVG Version: 6.00 Build 0)  -->
<svg version="1.1" id="Layer_1" xmlns="http://www.w3.org/2000/svg" xmlns:xlink="http://www.w3.org/1999/xlink" x="0px" y="0px"
	 viewBox="0 0 65 65" style="enable-background:new 0 0 65 65;" xml:space="preserve">
<style type="text/css">
	.st0{fill:#0082FF;}
	.st1{fill:#323131;}
	.st2{fill:#FFFFFF;}
	.st3{fill:#FFB13F;}
	.st4{fill:url(#SVGID_1_);stroke:#323131;stroke-width:0.75;stroke-miterlimit:10;}
</style>
<circle class="st0" cx="32.5" cy="32.5" r="32.5"/>
<path class="st1" d="M8.5,28.2c0,0,10.8,1.1,14.7-10.1c0,0,6.5,7.5,12.8-0.8c0,0,0,9.9,11,5.9c0,0-4.2,9.1,6.6,9.8
	c0,0-11.8,3.9,1.2,11.1c0,0-14.6-4.8-16.6,4.5c0,0-8.8-9.6-15.9,3.3c0,0-2.7-13.4-15.2-7.9C7.2,44.1,16.8,34.4,8.5,28.2z"/>
<path class="st2" d="M10.6,28.8c0,0,9.8,1,13.4-9.2c0,0,5.9,6.8,11.6-0.7c0,0,0,9,10,5.4c0,0-4.6,9.2,6,8.9c0,0-9.9,5.2,1.1,10.1
	c0,0-13.3-4.4-15.1,4.1c0,0-8.2-9.2-14.7,2.5c0,0-2-12.3-13.3-7.3C9.6,42.6,18.1,34.4,10.6,28.8z"/>
<path class="st3" d="M17.3,30.6c0,0,6.5,0.6,8.9-6.1c0,0,3.9,4.5,7.7-0.5c0,0,0,6,6.7,3.6c0,0-3,6.1,4,6c0,0-6.6,3.5,0.7,6.7
	c0,0-8.9-2.9-10.1,2.7c0,0-5.5-6.1-9.8,1.7c0,0-1.3-8.2-8.9-4.8C16.6,39.8,22.3,34.4,17.3,30.6z"/>
<g>
	<path class="st1" d="M48.1,25.1v1.7l-2.7,0.5l-1.2,6c-0.1,0.6-0.2,1.1-0.3,1.6c0-0.4-0.1-0.8-0.2-1.2l-1.1-5.8L40,28.4l-1.4,6.1
		l-0.3,1.6c-0.1-0.5-0.1-1-0.2-1.7L37.2,29l-2.9,0.5l0.4,2C33.9,31,33,30.9,32,31.1c-0.7,0.1-1.4,0.4-2,0.8l0.9-3.8l-3.1,0.6l-1.2,6
		c-0.1,0.6-0.2,1.1-0.3,1.6c0-0.4-0.1-0.8-0.2-1.2L25,29.3l-2.6,0.5L21,35.6l-0.3,1.6c-0.1-0.5-0.1-1-0.2-1.7l-0.9-5.4l-2.9,0.5
		L19,41.3l3.3-0.6l1.1-4.7c0.1-0.6,0.2-1.1,0.3-1.5c0.1,0.4,0.1,0.8,0.2,1.2l0.8,4.6l3-0.5c0.3,1,0.8,1.7,1.5,2.2
		c0.9,0.6,2,0.8,3.3,0.6c1.1-0.2,2.1-0.7,2.8-1.4c0.5-0.5,0.9-1.1,1.2-1.7l0.1,0.7l3.3-0.6l1.1-4.7c0.1-0.6,0.2-1.1,0.3-1.5
		c0.1,0.4,0.1,0.8,0.2,1.2l0.8,4.6l3.5-0.6l2.3-9.9l0.1,4l2.6-0.5l0.6-7.4L48.1,25.1z M33.8,37.4c-0.1,0.7-0.3,1.3-0.6,1.7
		s-0.7,0.7-1.1,0.8c-0.9,0.2-1.4-0.3-1.6-1.4c-0.1-0.7-0.1-1.5,0-2.2s0.3-1.3,0.6-1.8c0.3-0.4,0.7-0.7,1.1-0.8c0.4-0.1,0.7,0,1,0.2
		s0.4,0.6,0.5,1.1C33.9,35.9,33.9,36.7,33.8,37.4z"/>
	<path class="st1" d="M49.4,33.1c-0.6,0.1-1,0.4-1.3,0.7c-0.3,0.4-0.4,0.9-0.3,1.4c0.1,0.4,0.3,0.7,0.6,0.8c0.3,0.2,0.7,0.2,1.1,0.1
		c0.6-0.1,1-0.3,1.3-0.7s0.4-0.8,0.3-1.4c-0.1-0.4-0.3-0.7-0.5-0.9C50.3,33,49.9,33,49.4,33.1z"/>
</g>
<linearGradient id="SVGID_1_" gradientUnits="userSpaceOnUse" x1="-243.0226" y1="-492.4125" x2="-206.8519" y2="-492.4125" gradientTransform="matrix(0.9465 -0.3227 -0.3227 -0.9465 87.8012 -506.3023)">
	<stop  offset="0" style="stop-color:#FC0082"/>
	<stop  offset="0.1271" style="stop-color:#FC067C"/>
	<stop  offset="0.3053" style="stop-color:#FC196D"/>
	<stop  offset="0.5136" style="stop-color:#FD3753"/>
	<stop  offset="0.7447" style="stop-color:#FE602F"/>
	<stop  offset="0.9919" style="stop-color:#FF9502"/>
	<stop  offset="1" style="stop-color:#FF9700"/>
</linearGradient>
<path class="st4" d="M46.6,24.2v1.7l-2.7,0.5l-1.2,6c-0.1,0.6-0.2,1.1-0.3,1.6c0-0.4-0.1-0.8-0.2-1.2L41.1,27l-2.6,0.5l-1.4,6.1
	L36.8,35c-0.1-0.5-0.1-1-0.2-1.7l-0.9-5.4l-2.9,0.5l0.4,2c-0.7-0.3-1.6-0.4-2.6-0.2c-0.7,0.1-1.4,0.4-2,0.8l0.9-3.8l-3.1,0.6l-1.2,6
	c-0.1,0.6-0.2,1.1-0.3,1.6c0-0.4-0.1-0.8-0.2-1.2l-1.1-5.8L21,28.6l-1.4,6.1l-0.3,1.6c-0.1-0.5-0.1-1-0.2-1.7l-0.9-5.4l-2.9,0.5
	l2.3,10.7l3.3-0.6l1.1-4.7c0.1-0.6,0.2-1.1,0.3-1.5c0.1,0.4,0.1,0.8,0.2,1.2l0.8,4.6l3-0.5c0.3,1,0.8,1.7,1.5,2.2
	c0.9,0.6,2,0.8,3.3,0.6c1.1-0.2,2.1-0.7,2.8-1.4c0.5-0.5,0.9-1.1,1.2-1.7l0.1,0.7l3.3-0.6l1.1-4.7c0.1-0.6,0.2-1.1,0.3-1.5
	c0.1,0.4,0.1,0.8,0.2,1.2l0.8,4.6l3.5-0.6l2.3-9.9l0.1,4l2.6-0.5l0.6-7.4L46.6,24.2z M32.3,36.4c-0.1,0.7-0.3,1.3-0.6,1.7
	s-0.7,0.7-1.1,0.8c-0.9,0.2-1.4-0.3-1.6-1.4c-0.1-0.7-0.1-1.5,0-2.2s0.3-1.3,0.6-1.8c0.3-0.4,0.7-0.7,1.1-0.8c0.4-0.1,0.7,0,1,0.2
	s0.4,0.6,0.5,1.1C32.4,35,32.4,35.7,32.3,36.4z M49,32.3c0.3,0.2,0.5,0.5,0.5,0.9c0.1,0.6,0,1-0.3,1.4s-0.7,0.6-1.3,0.7
	c-0.5,0.1-0.8,0-1.1-0.1c-0.3-0.2-0.5-0.4-0.6-0.8c-0.1-0.5,0-1,0.3-1.4s0.7-0.6,1.3-0.7C48.4,32,48.8,32.1,49,32.3z"/>
<polygon class="st1" points="41.1,22.9 46.5,11.5 44,11 "/>
<polygon class="st1" points="49,37.4 59.7,39.9 60.4,38.2 "/>
<polygon class="st1" points="30,13.1 33.2,19.7 29.2,14 "/>
<polygon class="st2" points="56.7,24.5 57,26.2 58.5,26.9 57.1,27.7 56.9,29.4 55.6,28.2 54,28.5 54.7,27 53.9,25.5 55.6,25.8 "/>
<polygon class="st2" points="42,46.4 43,46.7 43.8,46.1 43.8,47.1 44.7,47.7 43.7,48 43.4,49 42.8,48.2 41.7,48.2 42.3,47.4 "/>
<polygon class="st2" points="50.2,19.1 50.7,19.5 51.3,19.2 51.2,19.9 51.6,20.4 50.9,20.4 50.6,20.9 50.3,20.3 49.7,20.1 
	50.2,19.7 "/>
</svg>
