<?xml version="1.0" encoding="utf-8"?>
<!-- Generator: Adobe Illustrator 23.0.3, SVG Export Plug-In . SVG Version: 6.00 Build 0)  -->
<svg version="1.1" id="Layer_1" xmlns="http://www.w3.org/2000/svg" xmlns:xlink="http://www.w3.org/1999/xlink" x="0px" y="0px"
	 viewBox="0 0 47.7 36.8" style="enable-background:new 0 0 47.7 36.8;" xml:space="preserve">
<style type="text/css">
	.st0{fill:#FDD909;}
	.st1{fill:#652E9E;}
	.st2{fill:#FFFFFF;}
</style>
<path class="st0" d="M27.6,14.7c0.1-0.2,0.1-0.3,0.2-0.5L10.4,1.1c-0.2,0.1-0.3,0.1-0.5,0.2L27.6,14.7z M27,16.2
	c0.1-0.1,0.1-0.3,0.2-0.4L8.7,1.8C8.5,1.9,8.4,1.9,8.2,2L27,16.2z M28.1,13c0-0.2,0.1-0.3,0.1-0.5l-15.8-12c-0.2,0-0.4,0.1-0.6,0.1
	L28.1,13z M26.2,17.6c0.1-0.1,0.2-0.3,0.2-0.4L7.1,2.6C7,2.7,6.8,2.8,6.7,2.8L26.2,17.6z M19.5,0.6l7.7,5.9c-0.2-0.3-0.4-0.7-0.6-1
	L20.7,1C20.3,0.8,19.9,0.7,19.5,0.6z M28.1,9.1c0-0.2-0.1-0.5-0.2-0.7L17.1,0.2c-0.3,0-0.5,0-0.8,0L28.1,9.1z M28.3,11.2
	c0-0.2,0-0.4,0-0.6L14.5,0.2c-0.2,0-0.4,0-0.7,0.1L28.3,11.2z M25.2,18.8c0.1-0.1,0.2-0.2,0.3-0.4L5.7,3.5C5.6,3.6,5.4,3.7,5.3,3.8
	L25.2,18.8z M16.5,24.2c0.2,0,0.4-0.1,0.6-0.2L0.3,11.3c0,0.2-0.1,0.3-0.1,0.5L16.5,24.2z M11.9,24.7c0.3,0,0.5,0,0.8,0L0.1,15.2
	c0,0.2,0.1,0.4,0.1,0.7L11.9,24.7z M18.4,23.6c0.2-0.1,0.3-0.1,0.5-0.2L0.8,9.7C0.7,9.8,0.7,10,0.6,10.1L18.4,23.6z M14.4,24.6
	c0.2,0,0.4-0.1,0.6-0.1L0,13.1c0,0.2,0,0.4,0,0.6L14.4,24.6z M8.7,24.2c0.3,0.1,0.7,0.2,1.1,0.2l-9.1-6.8c0.1,0.3,0.2,0.6,0.4,0.9
	L8.7,24.2z M20,22.9c0.2-0.1,0.3-0.2,0.4-0.2L1.4,8.3C1.3,8.4,1.3,8.6,1.2,8.7L20,22.9z M22.9,21.1c0.1-0.1,0.2-0.2,0.4-0.3L3.4,5.7
	C3.3,5.8,3.2,5.9,3.1,6L22.9,21.1z M21.5,22c0.1-0.1,0.3-0.2,0.4-0.3L2.4,6.9C2.3,7,2.2,7.2,2.1,7.3L21.5,22z M4.1,4.9l20,15.1l0,0
	c0.1-0.1,0.2-0.2,0.3-0.3L4.4,4.6C4.4,4.7,4.3,4.8,4.1,4.9L4.1,4.9z M43.7,5.3c1.2,0,2.2,0.9,2.2,2.1s-1,2.1-2.2,2.1
	s-2.2-0.9-2.2-2.1S42.5,5.3,43.7,5.3z M12.2,28.9c0,0.4-0.3,0.7-0.8,0.7c-0.4,0-0.8-0.3-0.8-0.7s0.3-0.7,0.8-0.7
	C11.8,28.2,12.2,28.5,12.2,28.9z M12.2,32.6c1.2,0,2.1,0.9,2.1,2s-0.9,2-2.1,2s-2.1-0.9-2.1-2S11,32.6,12.2,32.6z M30.7,1
	c0,0.5-0.5,1-1,1c-0.6,0-1-0.4-1-1c0-0.5,0.5-1,1-1C30.3,0,30.7,0.5,30.7,1z M47.7,15.8c0,0.3-0.3,0.6-0.6,0.6s-0.6-0.3-0.6-0.6
	s0.3-0.6,0.6-0.6S47.7,15.5,47.7,15.8z M41.8,14.5c0.6,0,1.1,0.5,1.1,1.1s-0.5,1.1-1.1,1.1c-0.6,0-1.1-0.5-1.1-1.1
	S41.2,14.5,41.8,14.5z M6.2,23c0,0.6-0.5,1.1-1.2,1.1S3.8,23.6,3.8,23s0.5-1.1,1.2-1.1S6.2,22.4,6.2,23z"/>
<path class="st1" d="M47,16.8c0,9.8-9.2,18.7-20.6,19.9c-11,1.1-19.9-5.3-20.5-14.5c0-0.2,0-0.4,0-0.6s0-0.3,0-0.5
	c0-0.3,0-0.6,0-0.9c0-0.2,0-0.4,0-0.5c0-0.4,0.1-0.9,0.2-1.3c0-0.2,0.1-0.3,0.1-0.5c0.1-0.4,0.2-0.8,0.3-1.2c0-0.2,0.1-0.3,0.1-0.5
	c0.1-0.4,0.2-0.7,0.4-1.1c0.1-0.1,0.1-0.3,0.2-0.4c0.1-0.4,0.3-0.7,0.5-1c0.1-0.1,0.1-0.3,0.2-0.4c0.2-0.3,0.4-0.7,0.6-1
	c0.1-0.1,0.2-0.3,0.2-0.4c0.2-0.3,0.4-0.6,0.6-0.9c0.1-0.1,0.2-0.2,0.3-0.4c0.2-0.3,0.5-0.6,0.7-0.9c0.1-0.1,0.2-0.2,0.3-0.3
	c0.2-0.3,0.5-0.6,0.8-0.8c0.1-0.1,0.2-0.2,0.3-0.3C12,8,12.2,7.8,12.5,7.5c0.1-0.1,0.2-0.2,0.4-0.3c0.3-0.3,0.6-0.5,0.9-0.7
	c0.1-0.1,0.3-0.2,0.4-0.3c0.3-0.2,0.6-0.5,1-0.7c0.1-0.1,0.3-0.2,0.4-0.3c0.3-0.2,0.7-0.4,1-0.6c0.1-0.1,0.3-0.2,0.4-0.2
	c0.4-0.2,0.7-0.4,1.1-0.6c0.2-0.1,0.3-0.1,0.5-0.2c0.4-0.2,0.8-0.4,1.2-0.5C20,3,20.1,3,20.3,2.9c0.4-0.2,0.8-0.3,1.3-0.4
	c0.2-0.1,0.4-0.1,0.5-0.2c1.4-0.4,2.8-0.7,4.3-0.8C37.8,0,47,7,47,16.8z"/>
<path class="st2" d="M20.6,9.1l0.2,9.6l-1.5,0.1l-0.1-6.6l-1.4,6.7h-1.1l-1.4-6.5L15.2,19l-1.4,0.1L14,9.5l1.9-0.1l1.4,6.6l1.5-6.8
	L20.6,9.1z M26.4,17L24,17.2V14l1.9-0.1v-1.2L24,12.8v-2.7l2.3-0.2V8.7L22.1,9v9.6l4.3-0.4C26.4,18.2,26.4,17,26.4,17z M30.2,8.5
	c-0.6,0-1,0.1-1.4,0.3c-0.4,0.1-0.7,0.4-0.9,0.7c-0.3,0.3-0.4,0.7-0.5,1.1c-0.1,0.4-0.1,0.9-0.1,1.4v3.1c0,1.1,0.2,1.9,0.6,2.4
	s1.1,0.8,2,0.7c0.8-0.1,1.3-0.5,1.7-1.3l0.1,1l1-0.1v-4.7L30,13.3v1.1l1.1-0.1v0.8c0,0.3-0.1,0.6-0.1,0.8c-0.1,0.2-0.1,0.4-0.2,0.6
	c0,0.2-0.2,0.3-0.3,0.4c-0.1,0.1-0.3,0.2-0.5,0.2c-0.4,0.1-0.7,0-0.8-0.3c-0.1-0.3-0.2-0.7-0.2-1.3v-3.9c0-0.2,0-0.3,0-0.4
	c0-0.1,0-0.2,0-0.3c0.1-0.1,0.1-0.2,0.1-0.3s0-0.2,0.1-0.3c0.1-0.1,0.1-0.1,0.2-0.2c0.1,0,0.2-0.1,0.3-0.1c0.1-0.1,0.3-0.1,0.4-0.1
	c0.2-0.1,0.4,0,0.5,0c0.1,0.1,0.2,0.1,0.3,0.2c0.1,0.1,0.2,0.2,0.2,0.3c0.1,0.1,0.1,0.3,0.1,0.4s0,0.3,0,0.5v0.5l1.7-0.1v-0.5
	c0-1-0.2-1.7-0.6-2.1C31.9,8.6,31.2,8.4,30.2,8.5z M39.6,17.4l-1.7,0.1l-0.4-2.2l-1.7,0.1l-0.4,2.2l-1.7,0.2l2-9.7L37.6,8L39.6,17.4
	z M37.3,14.2l-0.6-3.9l-0.7,4L37.3,14.2z M20,25.2c-0.2-0.2-0.4-0.3-0.6-0.5l-1.3-1c-0.3-0.2-0.5-0.4-0.6-0.6
	c-0.1-0.1-0.2-0.4-0.2-0.7c0-0.2,0.1-0.4,0.2-0.6c0.1-0.2,0.3-0.3,0.6-0.3c0.1-0.1,0.3,0,0.4,0s0.2,0.1,0.3,0.2
	c0.1,0,0.2,0.2,0.2,0.3c0.1,0.1,0.1,0.3,0.1,0.4s0,0.3,0,0.5l1.5-0.4c0-0.3,0-0.6-0.1-0.8c-0.1-0.3-0.2-0.5-0.3-0.7
	c-0.2-0.2-0.3-0.4-0.5-0.5s-0.4-0.2-0.7-0.3c-0.3-0.1-0.6-0.1-1-0.1c-0.8,0.1-1.4,0.4-1.9,0.8c-0.5,0.5-0.7,1.1-0.7,1.8
	c0,0.5,0.1,1,0.3,1.3s0.5,0.6,0.9,0.9l1.3,1c0.3,0.2,0.5,0.4,0.6,0.5s0.2,0.3,0.3,0.5c0,0.2,0.1,0.4,0.1,0.7s-0.1,0.5-0.2,0.7
	s-0.3,0.3-0.6,0.3c-0.7,0.1-1.1-0.5-1.1-1.8l-1.6,0.4c0.1,1.9,1.1,2.8,2.8,2.7c0.8,0,1.4-0.3,1.8-0.8c0.5-0.4,0.7-1,0.7-1.7
	c0-0.3,0-0.6,0.1-0.9c0-0.2-0.2-0.5-0.3-0.7C20.3,25.6,20.2,25.4,20,25.2z M25.2,19.8l2,9.4l-1.7,0.1l-0.4-2.2l-1.7,0.1L23,29.4
	l-1.7,0.2l2-9.7L25.2,19.8z M24.9,26l-0.7-3.9l-0.6,4L24.9,26z M30,19.4l-1.8,0.1v9.6l4.2-0.3v-1.2L30,27.8V19.4z M35.2,24.2
	l1.9-0.1v-1.2L35.2,23v-2.7l2.3-0.2v-1.2l-4.2,0.3v9.6l4.3-0.4v-1.2l-2.4,0.2C35.2,27.4,35.2,24.2,35.2,24.2z M21.7,32.2
	c-0.1-0.1-0.2-0.1-0.2-0.1V32c0,0,0,0,0-0.1c0.1,0,0.1,0,0.2,0.1l0.2-0.2c0,0-0.1-0.1-0.2-0.1s-0.2,0-0.3,0c-0.1,0-0.2,0-0.3,0.1
	C21,31.9,21,32,21,32.1c0,0.2,0,0.2,0.1,0.3c0,0,0.1,0.1,0.3,0.1c0.1,0.1,0.2,0.1,0.2,0.1c0.1,0,0.1,0.1,0.1,0.1v0.1c0,0,0,0-0.1,0
	s-0.3-0.1-0.4-0.2L21,32.8c0.2,0.2,0.4,0.2,0.6,0.2s0.3,0,0.4-0.1s0.1-0.2,0.1-0.3c0-0.2,0-0.2-0.1-0.3
	C21.9,32.3,21.8,32.2,21.7,32.2z M23.3,32h-0.5v-0.5h-0.3v1.3h0.3v-0.5h0.5v0.5h0.3v-1.2h-0.3V32z M25.1,31.6
	c0.1,0.1,0.2,0.3,0.2,0.5c0,0.2-0.1,0.3-0.2,0.5c-0.1,0.1-0.3,0.2-0.5,0.2s-0.4,0-0.5-0.2c-0.1-0.1-0.2-0.3-0.2-0.5
	c0-0.2,0.1-0.4,0.2-0.5s0.3-0.2,0.5-0.2C24.8,31.4,25,31.4,25.1,31.6z M25,32.1c0-0.1,0-0.2-0.1-0.3s-0.2-0.1-0.3-0.1
	c-0.1,0-0.2,0.1-0.3,0.1c-0.1,0.1-0.1,0.2-0.1,0.3s0,0.2,0.1,0.3s0.2,0.1,0.3,0.1c0.1,0,0.2-0.1,0.3-0.1C25,32.3,25,32.2,25,32.1z
	 M26.5,31.5c0.1,0.1,0.1,0.2,0.1,0.3c0,0.2,0,0.3-0.1,0.4s-0.2,0.1-0.4,0.1h-0.2v0.4h-0.3v-1.3h0.5C26.3,31.4,26.4,31.4,26.5,31.5z
	 M26.4,31.8c0-0.1,0-0.1-0.1-0.2c0,0-0.1,0-0.2,0h-0.2V32h0.2c0.1,0,0.2,0,0.2,0S26.4,31.9,26.4,31.8z M28.5,32l-0.7-0.8h-0.3v1.3
	h0.3v-0.8l0.6,0.8h0.3v-1.3h-0.2C28.5,31.2,28.5,32,28.5,32z M30.4,31.7c0.1,0.2,0,0.4-0.2,0.5c-0.1,0.1-0.3,0.2-0.5,0.2
	s-0.4,0-0.5-0.2c-0.1-0.1-0.2-0.3-0.2-0.5s0.1-0.4,0.2-0.5s0.3-0.2,0.5-0.2s0.4,0,0.5,0.2C30.3,31.3,30.4,31.5,30.4,31.7z
	 M30.1,31.7c0-0.1,0-0.2-0.1-0.3s-0.2-0.1-0.3-0.1c-0.1,0-0.2,0.1-0.3,0.1c-0.1,0.1-0.1,0.2-0.1,0.3s0,0.2,0.1,0.3
	c0.1,0.1,0.2,0.1,0.3,0.1c0.1,0,0.2-0.1,0.3-0.1S30.1,31.9,30.1,31.7z M31.8,31.7L31.6,31h-0.3l-0.2,0.8l-0.4-0.9h-0.3l0.5,1.3h0.2
	l0.3-0.9l0.3,0.9h0.2l0.5-1.3h-0.3L31.8,31.7z M33.3,31.3l0.6,0.2l-0.6,0.3v0.3l0.9-0.5v-0.3L33.3,31V31.3z"/>
</svg>
