<?xml version="1.0" encoding="utf-8"?>
<!-- Generator: Adobe Illustrator 23.0.3, SVG Export Plug-In . SVG Version: 6.00 Build 0)  -->
<svg version="1.1" id="Layer_1" xmlns="http://www.w3.org/2000/svg" xmlns:xlink="http://www.w3.org/1999/xlink" x="0px" y="0px"
	 viewBox="0 0 35 48.6" style="enable-background:new 0 0 35 48.6;" xml:space="preserve">
<style type="text/css">
	.st0{fill:#C21B23;}
	.st1{fill:#EE3840;}
</style>
<polygon class="st0" points="9.7,29.3 9.7,48.6 17.5,43.6 25.3,48.6 25.3,29.3 "/>
<polygon class="st1" points="35,17.4 32,21.3 32.6,26.2 28.1,28.1 26.2,32.6 21.4,32 17.5,34.9 13.6,32 8.7,32.6 6.9,28.1 2.3,26.2 
	3,21.3 0,17.4 3,13.6 2.3,8.7 6.9,6.8 8.7,2.3 13.6,2.9 17.5,0 21.4,2.9 26.2,2.3 28.1,6.8 32.6,8.7 32,13.6 "/>
<circle class="st0" cx="17.5" cy="17.4" r="10.7"/>
</svg>
