<?xml version="1.0" encoding="utf-8"?>
<!-- Generator: Adobe Illustrator 23.0.3, SVG Export Plug-In . SVG Version: 6.00 Build 0)  -->
<svg version="1.1" id="Layer_1" xmlns="http://www.w3.org/2000/svg" xmlns:xlink="http://www.w3.org/1999/xlink" x="0px" y="0px"
	 viewBox="0 0 59 46.3" style="enable-background:new 0 0 59 46.3;" xml:space="preserve">
<style type="text/css">
	.st0{fill:#052E49;}
	.st1{fill:#001D35;}
	.st2{fill:#103754;}
	.st3{fill:#FFFFFF;}
	.st4{fill:#DE3F18;}
	.st5{fill:#812005;}
	.st6{fill:#F3AC1E;}
</style>
<path class="st0" d="M8.4,21.6c0,0-4.5,1.4-8.4,3.4l4.6,3.1l-0.7,6.5c0,0,2-2.4,9.7-3.7L8.4,21.6z M50.6,21.6c0,0,4.5,1.4,8.4,3.4
	l-4.6,3.1l0.7,6.5c0,0-2-2.4-9.7-3.7L50.6,21.6z"/>
<path class="st1" d="M7.1,28.7l6.5,2.2v-6.4C13.6,24.5,7.7,26.5,7.1,28.7 M51.9,28.7l-6.5,2.2v-6.4C45.4,24.5,51.3,26.5,51.9,28.7"
	/>
<path class="st2" d="M4.6,18.2c5.9-1.5,14.3-2.9,24.9-2.9c10.7,0,19.1,1.3,24.9,2.9l-2.5,10.5c-5-1.3-13.2-2.5-22.4-2.5
	s-17.4,1.2-22.4,2.5L4.6,18.2z"/>
<path class="st3" d="M17.2,18.5c0.2,1.6,0.5,3.3,0.7,4.9c-0.4,0.1-0.6,0.1-1,0.1c-0.1-0.7-0.2-1-0.3-1.7c-0.9,0.1-1.4,0.2-2.3,0.4
	c0.1,0.7,0.2,1,0.3,1.7c-0.4,0.1-0.6,0.1-1,0.2c-0.3-1.6-0.7-3.2-1-4.9c0.4-0.1,0.6-0.1,1-0.2c0.2,0.9,0.3,1.4,0.4,2.4
	c0.9-0.2,1.4-0.3,2.4-0.4c-0.2-1-0.2-1.4-0.4-2.4C16.6,18.6,16.8,18.6,17.2,18.5z M22,21.5c0.5,0.5,0.8,0.8,1.3,1.4
	c-0.5,0-0.7,0.1-1.2,0.1c-0.5-0.5-0.7-0.8-1.1-1.2c-0.1,0-0.1,0-0.2,0c-0.4,0-0.6,0.1-0.9,0.1c0.1,0.5,0.1,0.8,0.1,1.3
	c-0.4,0-0.6,0.1-1,0.1c-0.2-1.6-0.4-3.3-0.6-4.9c0.9-0.1,1.4-0.2,2.3-0.3c1.1-0.2,2.1,0.4,2.2,1.6C23,20.5,22.6,21.1,22,21.5z
	 M21.7,19.9c0-0.5-0.4-1-1.2-0.9c-0.4,0-0.6,0.1-1.1,0.1c0.2,0.8,0.3,1.2,0.3,2c0.4,0,0.5-0.1,0.9-0.1
	C21.4,20.9,21.8,20.5,21.7,19.9z M23.7,17.8c0.1,1.7,0.2,3.3,0.3,5c0.4-0.1,0.6-0.1,1-0.1c-0.1-1.6-0.2-3.3-0.2-5
	C24.4,17.8,24.1,17.8,23.7,17.8z M10.8,23.8c-0.9,0.2-1.8-0.2-2-1.1C8.5,21.8,9.1,21,10,20.8c0.5-0.1,1.1,0,1.6,0.3
	c0.3-0.3,0.4-0.5,0.7-0.8c-0.7-0.4-1.6-0.6-2.4-0.4c-1.4,0.4-2.5,1.8-2.1,3.2c0.3,1.4,1.8,2.1,3.2,1.8c0.8-0.2,1.4-0.7,1.8-1.4
	c-0.3-0.2-0.5-0.3-0.9-0.5C11.7,23.4,11.2,23.8,10.8,23.8z M30.2,18.6c0.7,0,1,0,1.7,0c0,1.4-0.1,2.7-0.1,4.1c0.4,0,0.6,0,1,0
	c0.1-1.4,0.1-2.7,0.2-4.1c0.7,0,1,0.1,1.7,0.1c0-0.4,0-0.5,0-0.8c-1.5-0.1-3-0.2-4.5-0.2C30.2,18.1,30.2,18.3,30.2,18.6z M44.6,19
	c0.5,1.8,1,3.6,1.5,5.4c-0.4-0.1-0.6-0.1-1.1-0.2c0-0.4-0.1-0.7-0.2-1.1c-0.9-0.2-1.3-0.3-2.2-0.4c-0.2,0.4-0.4,0.6-0.6,0.9
	c-0.4-0.1-0.6-0.1-1.1-0.2c1-1.5,2.1-3,3.2-4.5C44.3,18.9,44.4,19,44.6,19z M44.6,22.2c-0.2-0.7-0.3-1.1-0.5-1.8
	c-0.4,0.6-0.6,0.9-1,1.5C43.7,22,44,22.1,44.6,22.2z M28.1,19.7c-0.8-0.1-1.2-0.2-1.2-0.6c0-0.4,0.3-0.6,0.8-0.6s1.1,0.1,1.6,0.3
	c0.1-0.3,0.2-0.5,0.4-0.8c-0.5-0.2-1.2-0.4-2-0.4c-0.9,0-1.9,0.6-1.9,1.6c0.1,1,1.2,1.3,2,1.4c0.7,0.1,1.1,0.3,1.1,0.6
	c0,0.4-0.3,0.6-0.9,0.6c-0.7,0-1.1,0-1.8-0.3c-0.1,0.3-0.2,0.5-0.3,0.8c0.8,0.4,1.3,0.4,2.1,0.4c0.9,0,1.9-0.5,1.9-1.5
	S28.8,19.8,28.1,19.7z M49.4,22.2c-0.7-0.3-1.1-0.6-1-0.9c0-0.3,0.4-0.4,0.9-0.3c0.5,0.1,1.1,0.4,1.5,0.7c0.2-0.3,0.3-0.4,0.6-0.7
	c-0.5-0.3-1.1-0.7-1.9-0.9s-2,0-2.2,1c-0.3,1,0.8,1.6,1.5,1.9s1,0.6,0.9,0.9c-0.1,0.3-0.5,0.4-1,0.3c-0.6-0.2-1-0.3-1.6-0.8
	c-0.2,0.3-0.3,0.4-0.5,0.7c0.7,0.5,1.1,0.7,1.9,0.9c0.9,0.2,2,0,2.3-1C51,23.1,50,22.4,49.4,22.2z M40.5,18.4
	c-0.9,0.9-1.7,1.7-2.5,2.6c-0.6-1-1.2-2-1.9-3c-0.2,0-0.3,0-0.5,0c-0.2,1.6-0.3,3.3-0.4,4.9c0.4,0,0.6,0.1,1,0.1
	c0-0.9,0.1-1.8,0.2-2.7c0.5,0.8,1,1.5,1.4,2.3c0.6-0.7,1.2-1.4,1.8-2c-0.1,0.9-0.2,1.8-0.3,2.7c0.4,0,0.6,0,1,0.1
	c0.2-1.6,0.5-3.3,0.7-4.9C40.8,18.4,40.7,18.4,40.5,18.4z"/>
<path class="st4" d="M19.8,10.3H39c0,0-0.4-8.1-5.1-9.6C29.2-0.7,22.8,0,20.6,2.3c-2.1,2.4-1.9,3.8-2.5,4.3c0,0-0.8,1-0.8,1.1
	s1.2,1.1,2.3,0.5C19.9,8,20,7.3,20,7.3S19.7,9.3,19.8,10.3z"/>
<path class="st5" d="M20.8,3.9c0,0-1,3.7-2.3,4.6c0.4,0.1,0.8,0.1,1.2-0.2C19.9,8.2,20,7.9,20,7.7l0.1-0.3l0,0l0,0
	C20.1,7.5,20.9,5.1,20.8,3.9z"/>
<path class="st6" d="M19.2,8.3c0,1.1-0.9,2-2,2s-2-0.9-2-2s0.9-2,2-2C18.3,6.2,19.2,7.1,19.2,8.3z M40,10.1
	c-0.1-0.2-0.2-0.4-0.9-0.6l0,0c-2.4-0.5-5.7-0.8-9.6-0.8S22.3,9,19.9,9.5l0,0c-0.7,0.1-0.7,0.3-0.9,0.6c-0.1,0.2,0,0.7,0,0.7
	s0.4,2.2,0.5,2.5c0,0.3,0.1,0.6,0.4,0.8c0.4,0.2,0.7,0,0.7,0l0.5-0.1l0,0c2.2-0.4,5.1-0.6,8.3-0.6s6.1,0.2,8.3,0.6l0,0l0.5,0.1
	c0,0,0.4,0.2,0.7,0c0.4-0.2,0.4-0.5,0.4-0.8s0.5-2.5,0.5-2.5S40.1,10.4,40,10.1z"/>
<path class="st4" d="M17.7,35.3l0.9-1c0.6,0.5,1.2,0.8,2,0.8c0.6,0,1-0.2,1-0.6l0,0c0-0.4-0.2-0.6-1.4-0.9c-1.3-0.4-2.2-0.8-2.2-2.1
	l0,0c0-1.2,1-2,2.4-2c1,0,1.8,0.3,2.5,0.9l-0.8,1.1c-0.6-0.4-1.2-0.7-1.7-0.7c-0.6,0-0.9,0.3-0.9,0.6l0,0c0,0.4,0.3,0.6,1.5,0.9
	c1.4,0.4,2.1,0.8,2.1,2l0,0c0,1.3-1,2.1-2.5,2.1C19.6,36.4,18.6,36,17.7,35.3z M26,29.5h1.4l2.9,6.8h-1.5l-0.7-1.5h-2.8l-0.6,1.5
	h-1.5L26,29.5z M27.5,33.5l-0.9-2.2l-0.9,2.2H27.5z M30.7,29.6h1.5V35h3.4v1.3h-4.8v-6.7C30.8,29.6,30.7,29.6,30.7,29.6z M36.1,29.6
	h5.1v1.3h-3.6v1.4h3.2v1.3h-3.2V35h3.6v1.3h-5.1V29.6z"/>
<path class="st2" d="M36.7,39H36l0,0h-0.6l0,0h-0.6l0,0h-0.6l0,0h-1l0,0h-0.6l0,0h-2l0,0h-1.1l0,0h-2l0,0h-0.6l0,0h-1l0,0h-0.6l0,0
	h-0.6l0,0h-0.6l0,0H23c-0.1,0-0.2,0.1-0.2,0.2s0.1,0.2,0.2,0.2h0.7l-0.5,0.4c-0.1,0.1-0.1,0.2,0,0.3s0.2,0.1,0.3,0l0.8-0.8h0.6
	l-0.4,0.5c0,0-0.1,0.1-0.1,0.2s0,0.1,0.1,0.2s0.2,0.1,0.3,0l0.7-0.7h1L25,41c-0.1,0.1-0.1,0.2,0,0.3c0,0,0.1,0.1,0.2,0.1h2.1
	l-0.7,0.7h-1c-0.1,0-0.2,0.1-0.2,0.2s0.1,0.2,0.2,0.2h0.6l-0.4,0.4h-1.1c-0.1,0-0.2,0.1-0.2,0.2s0.1,0.2,0.2,0.2h0.6l-0.4,0.5
	c-0.1,0.1-0.1,0.2,0,0.3s0.2,0.1,0.3,0l0.5-0.5v0.6c0,0.1,0.1,0.2,0.2,0.2s0.2-0.1,0.2-0.2v-1.1l0.4-0.4v0.6c0,0.1,0.1,0.2,0.2,0.2
	s0.2-0.1,0.2-0.2v-1l0.7-0.7v2.2c0,0.1,0.1,0.2,0.2,0.2s0.1,0,0.2-0.1l1.5-1.5v1l-0.7,0.7c-0.1,0.1-0.1,0.2,0,0.3s0.2,0.1,0.3,0
	l0.4-0.4v0.6l-0.8,0.8c0,0-0.1,0.1-0.1,0.2s0,0.1,0.1,0.2s0.2,0.1,0.3,0l0.4-0.4v0.7c0,0.1,0.1,0.2,0.2,0.2s0.2-0.1,0.2-0.2v-0.7
	l0.4,0.4c0.1,0.1,0.2,0.1,0.3,0c0,0,0.1-0.1,0.1-0.2s0-0.1-0.1-0.2l-0.8-0.8V44l0.4,0.4c0.1,0.1,0.2,0.1,0.3,0s0.1-0.2,0-0.3
	l-0.7-0.7v-1l1.5,1.5c0.1,0.1,0.2,0.1,0.3,0c0,0,0.1-0.1,0.1-0.2v-2.1l0.7,0.7v1c0,0.1,0.1,0.2,0.2,0.2c0.1,0,0.2-0.1,0.2-0.2v-0.5
	l0.4,0.4v1.1c0,0.1,0.1,0.2,0.2,0.2s0.2-0.1,0.2-0.2v-0.6l0.5,0.5c0.1,0.1,0.2,0.1,0.3,0s0.1-0.2,0-0.3l-0.5-0.5H35
	c0.1,0,0.2-0.1,0.2-0.2S35.1,43,35,43h-1.1l-0.4-0.4h0.6c0.1,0,0.2-0.1,0.2-0.2s-0.1-0.2-0.2-0.2h-1l-0.7-0.7h2.1
	c0.1,0,0.2-0.1,0.2-0.2s0-0.1-0.1-0.2l-1.5-1.5h1l0.7,0.7c0.1,0.1,0.2,0.1,0.3,0c0,0,0.1-0.1,0.1-0.2s0-0.1-0.1-0.2l-0.4-0.4h0.6
	l0.8,0.8c0.1,0.1,0.2,0.1,0.3,0s0.1-0.2,0-0.3L36,39.4h0.7c0.1,0,0.2-0.1,0.2-0.2S36.8,39,36.7,39z M27.9,40.9h-2l1.4-1.4h2
	L27.9,40.9z M29.6,41.8l-1.4,1.4v-2l1.4-1.4V41.8z M31.5,43.2l-1.4-1.4v-2l1.4,1.4V43.2z M33.9,40.9h-2l-1.4-1.4h2L33.9,40.9z"/>
</svg>
