<?xml version="1.0" encoding="utf-8"?>
<!-- Generator: Adobe Illustrator 23.0.3, SVG Export Plug-In . SVG Version: 6.00 Build 0)  -->
<svg version="1.1" id="Layer_1" xmlns="http://www.w3.org/2000/svg" xmlns:xlink="http://www.w3.org/1999/xlink" x="0px" y="0px"
	 viewBox="0 0 62.2 21.8" style="enable-background:new 0 0 62.2 21.8;" xml:space="preserve">
<style type="text/css">
	.st0{fill:#00BFC5;}
</style>
<g>
	<path class="st0" d="M6.5,17.5l4.7-3.9c-4.2,0-6.8-0.7-8.4-1.5c-1.8,0.4-2.4,1-2.6,1.4V17c0,4.8,11,4.8,11,4.8L6.5,17.5z"/>
	<path class="st0" d="M59.9,10c1.5-0.7,2.1-1.5,2.3-2.5V4.9c0-4.9-11-4.9-11-4.9l4.7,4.3l-4.7,4C55.6,8.3,58.3,9,59.9,10z"/>
	<path class="st0" d="M60.8,10.6c-1.7,0.9-4.5,1.5-8.8,2c-6.7,0.7-12.9-1.4-24.2-5.2c-1.9-0.6-3.9-1.3-6.1-2c-5.9-2-10.9-3-14.6-3
		c-6.4,0-7.1,3-7.1,3v6.7c0,0,0.1,0,0.1-0.1c0.4-0.3,0.8-0.5,1.4-0.7c0.9-0.3,2.1-0.5,3.6-0.5c5.5,0,14,2.3,25.3,6.7
		c6.6,2.6,12.6,3.9,17.7,3.9l0,0c9.3,0,13.3-4.2,13.9-5V9.6l0,0C61.8,10,61.4,10.3,60.8,10.6z"/>
</g>
</svg>
