<?xml version="1.0" encoding="utf-8"?>
<!-- Generator: Adobe Illustrator 23.0.3, SVG Export Plug-In . SVG Version: 6.00 Build 0)  -->
<svg version="1.1" id="Layer_1" xmlns="http://www.w3.org/2000/svg" xmlns:xlink="http://www.w3.org/1999/xlink" x="0px" y="0px"
	 viewBox="0 0 32.4 30.7" style="enable-background:new 0 0 32.4 30.7;" xml:space="preserve">
<style type="text/css">
	.st0{fill:#103754;}
	.st1{fill:#DE3F18;}
	.st2{fill:#F3AC1E;}
	.st3{fill:#FFFFFF;}
</style>
<g>
	<g>
		<path class="st0" d="M32.4,15.3c0,1.7-1.6,3-2.1,4.5c-0.5,1.6,0,3.6-1,4.9c-0.9,1.3-3.1,1.5-4.4,2.4s-2.1,2.9-3.7,3.4
			c-1.5,0.5-3.3-0.6-5-0.6s-3.5,1.1-5,0.6C9.6,30,8.8,28,7.5,27.1S4.1,26,3.1,24.7c-0.9-1.3-0.5-3.4-1-4.9S0,16.9,0,15.3
			c0-1.7,1.6-3,2.1-4.5c0.5-1.6,0-3.6,1-4.9C4,4.6,6.2,4.4,7.5,3.5s2.1-2.9,3.7-3.4c1.5-0.5,3.3,0.6,5,0.6s3.5-1.1,5-0.6
			c1.6,0.5,2.4,2.5,3.7,3.4s3.4,1.1,4.4,2.4c0.9,1.3,0.5,3.4,1,4.9S32.4,13.7,32.4,15.3z"/>
	</g>
</g>
<path class="st1" d="M19.6,29.1L19.6,29.1c-0.4-0.1-0.7-0.1-1-0.2c-0.1,0-0.2-0.1-0.1-0.3c0-0.1,0.1-0.2,0.3-0.1
	c0.3,0.1,0.6,0.2,0.9,0.2c0.1,0,0.2,0.1,0.2,0.2C19.8,29,19.7,29.1,19.6,29.1z M13.1,29.1c-0.1,0-0.2-0.1-0.2-0.2s0.1-0.2,0.2-0.2
	c0.3,0,0.7-0.1,0.9-0.2c0.1,0,0.2,0,0.3,0.1c0,0.1,0,0.2-0.1,0.3C13.8,29,13.4,29.1,13.1,29.1L13.1,29.1z M12.1,29.1L12.1,29.1
	c-0.1,0-0.2,0-0.3-0.1c-0.3-0.1-0.5-0.2-0.7-0.4c-0.1-0.1-0.1-0.2,0-0.3c0.1-0.1,0.2-0.1,0.3,0c0.2,0.2,0.4,0.3,0.6,0.3
	c0.1,0,0.1,0,0.2,0c0.1,0,0.2,0.1,0.2,0.2C12.3,29,12.2,29.1,12.1,29.1z M20.5,29.1c-0.1,0-0.2-0.1-0.2-0.2s0-0.2,0.2-0.2
	c0.1,0,0.1,0,0.2,0c0.2-0.1,0.4-0.2,0.6-0.3c0.1-0.1,0.2-0.1,0.3,0s0.1,0.2,0,0.3c-0.2,0.2-0.5,0.3-0.7,0.4
	C20.7,29.1,20.6,29.1,20.5,29.1C20.6,29.1,20.5,29.1,20.5,29.1z M17.7,28.6L17.7,28.6c-0.4-0.1-0.7-0.2-1-0.2
	c-0.1,0-0.2-0.1-0.2-0.2s0.1-0.2,0.2-0.2c0.3,0,0.6,0.1,1,0.2C17.8,28.2,17.9,28.3,17.7,28.6C17.9,28.6,17.8,28.6,17.7,28.6z
	 M14.9,28.6c-0.1,0-0.2-0.1-0.2-0.1c0-0.1,0-0.2,0.1-0.3c0.4-0.1,0.7-0.2,1-0.2c0.1,0,0.2,0.1,0.2,0.2s-0.1,0.2-0.2,0.2
	C15.6,28.4,15.3,28.5,14.9,28.6C15,28.6,14.9,28.6,14.9,28.6z M10.6,28c-0.1,0-0.1,0-0.2-0.1c-0.2-0.2-0.4-0.5-0.6-0.7l0,0
	c-0.1-0.1,0-0.2,0-0.3c0.1-0.1,0.2,0,0.3,0l0,0c0.2,0.2,0.4,0.5,0.6,0.7C10.8,27.7,10.8,27.8,10.6,28C10.7,28,10.6,28,10.6,28z
	 M22.1,28L22.1,28c-0.2-0.1-0.2-0.2-0.1-0.3c0.2-0.2,0.4-0.5,0.5-0.7l0,0c0.1-0.1,0.2-0.1,0.3,0s0.1,0.2,0,0.3l0,0
	C22.6,27.5,22.4,27.8,22.1,28C22.2,28,22.1,28,22.1,28z M9.4,26.5c-0.1,0-0.1,0-0.2-0.1C9,26.2,8.8,26,8.6,25.8c0,0,0,0-0.1,0
	c-0.1-0.1-0.1-0.2-0.1-0.3c0.1-0.1,0.2-0.1,0.3-0.1c0,0,0.1,0,0.1,0.1c0.2,0.2,0.4,0.4,0.7,0.6c0.1,0.1,0.1,0.2,0,0.3
	C9.5,26.5,9.4,26.5,9.4,26.5z M23.3,26.5C23.3,26.5,23.2,26.5,23.3,26.5c-0.2-0.2-0.2-0.3-0.1-0.4c0.2-0.3,0.4-0.5,0.7-0.6
	c0,0,0.1,0,0.1-0.1c0.1-0.1,0.2,0,0.3,0.1s0,0.2-0.1,0.3c0,0-0.1,0-0.1,0.1c-0.2,0.1-0.4,0.3-0.6,0.6C23.4,26.5,23.3,26.5,23.3,26.5
	z M7.8,25.4L7.8,25.4c-0.3-0.1-0.6-0.2-0.9-0.3H6.8c-0.1,0-0.2-0.2-0.1-0.3c0-0.1,0.2-0.2,0.3-0.1h0.1c0.3,0.1,0.5,0.2,0.8,0.3
	C8,25,8.1,25.2,8,25.3C8,25.4,7.9,25.4,7.8,25.4z M24.8,25.4c-0.1,0-0.2,0-0.2-0.1s0-0.2,0.1-0.3c0.3-0.1,0.5-0.2,0.8-0.3h0.1
	c0.1,0,0.2,0,0.3,0.1c0,0.1,0,0.2-0.1,0.3h-0.1C25.4,25.2,25.1,25.3,24.8,25.4C24.9,25.4,24.8,25.4,24.8,25.4z M6,24.8L6,24.8
	c-0.4-0.2-0.7-0.3-1-0.5c-0.1-0.1-0.1-0.2,0-0.3s0.2-0.1,0.3,0c0.2,0.2,0.5,0.3,0.8,0.5c0.1,0,0.2,0.2,0.1,0.3
	C6.2,24.7,6.1,24.8,6,24.8z M26.6,24.8c-0.1,0-0.2,0-0.2-0.1s0-0.2,0.1-0.3c0.3-0.1,0.6-0.3,0.8-0.5c0.1-0.1,0.2-0.1,0.3,0
	s0.1,0.2,0,0.3C27.3,24.4,27,24.6,26.6,24.8C26.7,24.8,26.6,24.8,26.6,24.8z M4.6,23.6c-0.1,0-0.1,0-0.2-0.1c-0.1-0.3-0.2-0.6-0.3-1
	c0-0.1,0.1-0.2,0.2-0.2s0.2,0.1,0.2,0.2c0,0.3,0.1,0.6,0.2,0.9C4.9,23.4,4.8,23.5,4.6,23.6C4.7,23.5,4.7,23.6,4.6,23.6z M28,23.6
	L28,23.6c-0.2-0.1-0.2-0.2-0.2-0.3c0.1-0.2,0.2-0.5,0.2-0.9c0-0.1,0.1-0.2,0.2-0.2s0.2,0.1,0.2,0.2c-0.1,0.4-0.1,0.7-0.3,1
	C28.2,23.5,28.1,23.6,28,23.6z M4.3,21.7c-0.1,0-0.2-0.1-0.2-0.2s0-0.2,0-0.3c0-0.2,0-0.4,0-0.7c0-0.1,0.1-0.2,0.2-0.2
	s0.2,0.1,0.2,0.2c0,0.2,0,0.4,0,0.7c0,0.1,0,0.2,0,0.3C4.5,21.6,4.4,21.7,4.3,21.7L4.3,21.7z M28.3,21.7L28.3,21.7
	c-0.1,0-0.2-0.1-0.2-0.2s0-0.2,0-0.3c0-0.2,0-0.5,0-0.7c0-0.1,0.1-0.2,0.2-0.2s0.2,0.1,0.2,0.2c0,0.2,0,0.4,0,0.7c0,0.1,0,0.2,0,0.3
	C28.5,21.6,28.4,21.7,28.3,21.7z M4.2,19.8c-0.1,0-0.2-0.1-0.2-0.2s0-0.2-0.1-0.3c-0.1-0.2-0.1-0.4-0.3-0.6c-0.1-0.1,0-0.2,0.1-0.3
	s0.2,0,0.3,0.1c0.1,0.2,0.2,0.4,0.3,0.6c0,0.1,0.1,0.2,0.1,0.3C4.4,19.6,4.3,19.7,4.2,19.8L4.2,19.8z M28.5,19.8
	C28.5,19.8,28.4,19.8,28.5,19.8c-0.2,0-0.2-0.1-0.2-0.2s0.1-0.2,0.1-0.3c0.1-0.2,0.2-0.4,0.3-0.6c0.1-0.1,0.2-0.1,0.3-0.1
	c0.1,0.1,0.1,0.2,0.1,0.3c-0.1,0.2-0.2,0.4-0.3,0.6c0,0.1,0,0.2-0.1,0.3C28.7,19.7,28.6,19.8,28.5,19.8z M3.3,18.1
	c-0.1,0-0.1,0-0.2-0.1L3,17.8c-0.1-0.2-0.3-0.4-0.4-0.6c-0.1-0.1,0-0.2,0.1-0.3s0.2,0,0.3,0.1c0.1,0.2,0.3,0.4,0.4,0.6l0.1,0.2
	C3.6,17.9,3.5,18,3.3,18.1C3.4,18.1,3.3,18.1,3.3,18.1z M29.3,18.1L29.3,18.1c-0.2-0.1-0.2-0.2-0.1-0.3l0.1-0.2
	c0.1-0.2,0.3-0.4,0.4-0.6c0.1-0.1,0.2-0.1,0.3-0.1c0.1,0.1,0.1,0.2,0.1,0.3c-0.1,0.2-0.3,0.4-0.4,0.6L29.6,18
	C29.5,18.1,29.4,18.1,29.3,18.1z M2.3,16.5c-0.1,0-0.2,0-0.2-0.1c-0.1-0.4-0.2-0.7-0.2-1c0-0.1,0.1-0.2,0.2-0.2l0,0
	c0.1,0,0.2,0.1,0.2,0.2c0,0.3,0.1,0.6,0.2,0.9C2.5,16.3,2.5,16.4,2.3,16.5C2.4,16.5,2.3,16.5,2.3,16.5z M30.3,16.5L30.3,16.5
	c-0.2-0.1-0.2-0.2-0.2-0.3c0.1-0.3,0.2-0.6,0.2-0.9c0-0.1,0.1-0.2,0.2-0.2l0,0c0.1,0,0.2,0.1,0.2,0.2l0,0l0,0c0,0.3-0.1,0.7-0.2,1
	C30.5,16.4,30.4,16.5,30.3,16.5z M2.3,14.6C2.3,14.6,2.2,14.6,2.3,14.6c-0.2-0.1-0.2-0.2-0.2-0.3c0.1-0.3,0.3-0.5,0.5-0.9
	c0.1-0.1,0.2-0.1,0.3-0.1C3,13.4,3,13.5,3,13.6c-0.2,0.3-0.3,0.6-0.4,0.8C2.5,14.6,2.4,14.6,2.3,14.6z M30.3,14.6
	c-0.1,0-0.2,0-0.2-0.1c-0.1-0.2-0.2-0.5-0.4-0.8c-0.1-0.1,0-0.2,0.1-0.3s0.2,0,0.3,0.1c0.2,0.3,0.4,0.6,0.5,0.9
	C30.6,14.4,30.5,14.5,30.3,14.6C30.4,14.6,30.4,14.6,30.3,14.6z M3.3,13L3.3,13c-0.2-0.1-0.2-0.2-0.2-0.3c0.2-0.3,0.4-0.5,0.5-0.8
	c0.1-0.1,0.2-0.1,0.3-0.1C4,11.9,4,12,4,12.1c-0.1,0.3-0.3,0.5-0.5,0.8C3.4,12.9,3.4,13,3.3,13z M29.3,13c-0.1,0-0.1,0-0.2-0.1
	c-0.2-0.3-0.4-0.5-0.5-0.8c-0.1-0.1,0-0.2,0.1-0.3s0.2,0,0.3,0.1c0.1,0.3,0.3,0.5,0.5,0.8C29.6,12.8,29.5,12.9,29.3,13
	C29.4,12.9,29.4,13,29.3,13z M4.2,11.3C4.2,11.3,4.1,11.3,4.2,11.3C4,11.3,4,11.2,4,11c0.1-0.3,0.1-0.5,0.1-0.9
	c0-0.1,0.1-0.2,0.2-0.2s0.2,0.1,0.2,0.2c0,0.4-0.1,0.7-0.1,1C4.3,11.2,4.3,11.3,4.2,11.3z M28.5,11.3c-0.1,0-0.2-0.1-0.2-0.2
	c-0.1-0.3-0.1-0.6-0.1-1c0-0.1,0.1-0.2,0.2-0.2s0.2,0.1,0.2,0.2c0,0.4,0.1,0.7,0.1,0.9C28.7,11.1,28.6,11.2,28.5,11.3L28.5,11.3z
	 M4.3,9.4L4.3,9.4c-0.1,0-0.2-0.1-0.2-0.2c0-0.3,0-0.6,0.1-1C4.2,8.1,4.3,8,4.4,8s0.2,0.1,0.2,0.2c0,0.3-0.1,0.6-0.1,0.9
	C4.5,9.3,4.4,9.4,4.3,9.4z M28.3,9.4c-0.1,0-0.2-0.1-0.2-0.2c0-0.3,0-0.6-0.1-0.9c0-0.1,0.1-0.2,0.2-0.2s0.2,0.1,0.2,0.2
	c0,0.3,0.1,0.7,0.1,1C28.5,9.3,28.5,9.3,28.3,9.4L28.3,9.4z M4.6,7.5L4.6,7.5C4.4,7.4,4.4,7.3,4.4,7.2c0.1-0.1,0.1-0.3,0.2-0.4
	C4.7,6.6,4.9,6.5,5,6.4s0.2-0.1,0.3,0s0.1,0.2,0,0.3S5,6.9,5,7.1C4.9,7.2,4.9,7.3,4.8,7.4C4.8,7.5,4.7,7.5,4.6,7.5z M28,7.5
	c-0.1,0-0.1,0-0.2-0.1c0-0.1-0.1-0.2-0.2-0.3c-0.1-0.1-0.2-0.3-0.4-0.4c-0.1-0.1-0.1-0.2,0-0.3s0.2-0.1,0.3,0
	c0.2,0.1,0.3,0.3,0.5,0.5c0.1,0.1,0.1,0.2,0.2,0.3C28.2,7.3,28.2,7.4,28,7.5C28.1,7.5,28,7.5,28,7.5z M6,6.3c-0.1,0-0.2,0-0.2-0.1
	s0-0.2,0.1-0.3c0.3-0.1,0.6-0.2,0.9-0.3c0.1,0,0.2,0,0.3,0.1c0,0.1,0,0.2-0.1,0.3C6.7,6,6.4,6.1,6,6.3C6.1,6.3,6.1,6.3,6,6.3z
	 M26.6,6.3C26.6,6.3,26.5,6.3,26.6,6.3c-0.4-0.1-0.7-0.2-1-0.3c-0.1,0-0.2-0.2-0.1-0.3c0-0.1,0.2-0.2,0.3-0.1
	c0.3,0.1,0.6,0.2,0.9,0.3c0.1,0,0.2,0.2,0.1,0.3C26.7,6.2,26.7,6.3,26.6,6.3z M7.8,5.6c-0.1,0-0.2,0-0.2-0.1s0-0.2,0.1-0.3
	C8,5.1,8.3,4.9,8.5,4.8c0.1-0.1,0.2,0,0.3,0.1s0,0.2-0.1,0.3C8.6,5.3,8.3,5.5,7.8,5.6C7.9,5.6,7.9,5.6,7.8,5.6z M24.8,5.6
	C24.8,5.6,24.7,5.6,24.8,5.6c-0.4-0.2-0.7-0.3-1-0.5c-0.1,0-0.1-0.2,0-0.3s0.2-0.1,0.3-0.1c0.2,0.1,0.5,0.3,0.8,0.4
	c0.1,0,0.2,0.2,0.1,0.3C25,5.6,24.9,5.6,24.8,5.6z M9.4,4.5C9.4,4.5,9.3,4.5,9.4,4.5C9.2,4.3,9.2,4.2,9.3,4.1
	c0.2-0.2,0.4-0.5,0.6-0.7c0.1-0.1,0.2-0.1,0.3,0s0.1,0.2,0,0.3C10,4,9.8,4.2,9.6,4.5C9.5,4.5,9.4,4.5,9.4,4.5z M23.2,4.5
	c-0.1,0-0.1,0-0.2-0.1c-0.2-0.2-0.4-0.5-0.6-0.8c-0.1-0.1,0-0.2,0-0.3c0.1-0.1,0.2,0,0.3,0c0.2,0.2,0.4,0.5,0.6,0.7
	c0.1,0.1,0.1,0.2,0,0.3C23.3,4.5,23.3,4.5,23.2,4.5z M10.6,3L10.6,3c-0.2-0.1-0.2-0.2-0.1-0.3C10.8,2.4,11,2.2,11.2,2
	c0.1-0.1,0.2-0.1,0.3,0c0.1,0.1,0.1,0.2,0,0.3c-0.2,0.2-0.4,0.4-0.6,0.6C10.7,3,10.6,3,10.6,3z M22.1,3C22,3,22,3,21.9,2.9
	c-0.2-0.3-0.4-0.5-0.7-0.6c-0.1-0.1-0.1-0.2,0-0.3c0.1-0.1,0.2-0.1,0.3,0c0.2,0.2,0.5,0.4,0.7,0.7C22.3,2.8,22.3,2.9,22.1,3
	C22.2,3,22.1,3,22.1,3z M16.3,2.7c-0.2,0-0.3,0-0.5,0c-0.1,0-0.2-0.1-0.2-0.2c0-0.1,0.1-0.2,0.2-0.2c0.3,0,0.6,0,0.9,0
	c0.1,0,0.2,0.1,0.2,0.2c0,0.1-0.1,0.2-0.2,0.2C16.6,2.7,16.5,2.7,16.3,2.7z M17.7,2.4c-0.1,0-0.2-0.1-0.2-0.1c0-0.1,0-0.2,0.1-0.3
	c0.2,0,0.3-0.1,0.5-0.1c0.1,0,0.3-0.1,0.4-0.1s0.2,0,0.3,0.1c0,0.1,0,0.2-0.1,0.3c-0.1,0-0.3,0.1-0.4,0.1
	C18.1,2.3,17.9,2.4,17.7,2.4C17.8,2.4,17.7,2.4,17.7,2.4z M14.9,2.4L14.9,2.4c-0.2-0.1-0.4-0.1-0.5-0.2c-0.1,0-0.3-0.1-0.4-0.1
	c-0.1,0-0.2-0.1-0.1-0.3c0-0.1,0.1-0.2,0.3-0.1c0.1,0,0.3,0.1,0.4,0.1c0.2,0,0.3,0.1,0.5,0.1c0.1,0,0.2,0.1,0.1,0.3
	C15.1,2.4,15,2.4,14.9,2.4z M12.1,2c-0.1,0-0.2-0.1-0.2-0.2s0-0.2,0.2-0.2c0.3-0.1,0.6-0.1,1,0c0.1,0,0.2,0.1,0.2,0.2S13.2,2,13.1,2
	C12.7,1.9,12.4,1.9,12.1,2C12.1,1.9,12.1,2,12.1,2z M20.5,1.9L20.5,1.9c-0.3-0.1-0.6-0.1-0.9,0c-0.1,0-0.2-0.1-0.2-0.2
	s0.1-0.2,0.2-0.2c0.4-0.1,0.7-0.1,1,0c0.1,0,0.2,0.1,0.2,0.2C20.7,1.9,20.6,1.9,20.5,1.9z"/>
<path class="st2" d="M6.5,15.6l1.1-0.2c0.7-0.1,1,0.2,1.1,0.6c0.1,0.4-0.1,0.7-0.5,0.8c0.3,0.1,0.4,0.2,0.5,0.5
	c0.1,0.5-0.3,0.9-1.1,1.1l-1.4,0.2L6.5,15.6z M7.6,17.7c0.3,0,0.5-0.2,0.5-0.4s-0.2-0.2-0.4-0.2L7,17.2l-0.1,0.7L7.6,17.7z
	 M7.7,16.6c0.3-0.1,0.5-0.2,0.5-0.4C8.2,16.1,8,16,7.8,16l-0.6,0.1l-0.1,0.6L7.7,16.6z M9.1,15.1L9.7,15l-0.3,3l-0.6,0.1L9.1,15.1z
	 M9.8,16.7c-0.1-0.4,0.1-0.9,0.3-1.3c0.3-0.4,0.7-0.6,1.2-0.7c0.6-0.1,1,0.1,1.3,0.3l-0.4,0.5c-0.2-0.2-0.4-0.3-0.8-0.2
	c-0.3,0-0.5,0.2-0.7,0.4s-0.3,0.5-0.2,0.9s0.4,0.6,0.8,0.6c0.2,0,0.4-0.1,0.5-0.2l0.1-0.5l-0.6,0.1l0.1-0.6l1.2-0.2l-0.2,1.5
	c-0.3,0.2-0.6,0.4-1,0.4C10.7,17.9,10,17.6,9.8,16.7z M13.3,16.9l0.4-0.5c0.3,0.2,0.5,0.3,0.9,0.3c0.3,0,0.4-0.2,0.4-0.4
	c0-0.1-0.1-0.2-0.5-0.3s-0.8-0.2-0.8-0.7c0-0.3,0-0.5,0.2-0.7s0.5-0.4,0.8-0.5c0.5-0.1,0.9,0,1.1,0.3l-0.4,0.5
	c-0.2-0.2-0.5-0.2-0.7-0.2c-0.3,0-0.4,0.2-0.4,0.4s0.1,0.2,0.6,0.3c0.4,0.1,0.7,0.2,0.8,0.7c0,0.3,0,0.5-0.2,0.7
	c-0.2,0.3-0.5,0.4-0.8,0.5C14.1,17.3,13.6,17.2,13.3,16.9z M16.9,13.9l0.6-0.1l0.9,2.8l-0.6,0.1l-0.2-0.6l-1.2,0.2L16.1,17l-0.7,0.1
	L16.9,13.9z M17.5,15.5l-0.3-0.9l-0.5,1L17.5,15.5z M18.8,13.6l0.6-0.1l-0.3,2.4l1.4-0.2l-0.1,0.6l-2.1,0.3L18.8,13.6z M21,13.3
	l2.1-0.3L23,13.6l-1.5,0.2l-0.1,0.6l1.3-0.2v0.5l-1.3,0.2l-0.1,0.6l1.5-0.2v0.6l-2.2,0.3L21,13.3z M23.9,15.1l0.7-0.1l-0.1,0.7
	l-0.7,0.1L23.9,15.1z M24.1,12.9L24.1,12.9l0.7-0.2v0.1l-0.4,1.9l-0.3,0.1C24.1,14.8,24.1,12.9,24.1,12.9z"/>
<path class="st3" d="M14.3,22.5c-0.5,0-0.9,0.3-0.9,0.8s0.4,0.9,0.9,0.8c0.5,0,0.9-0.3,0.9-0.8C15.2,22.9,14.8,22.5,14.3,22.5z
	 M14.3,23.8c-0.3,0-0.5-0.2-0.5-0.5c0-0.3,0.2-0.5,0.5-0.5s0.5,0.2,0.5,0.5C14.8,23.6,14.6,23.8,14.3,23.8z M15.6,23.1h0.8v0.3h-0.8
	V24h-0.4l0.1-1.5h1.2v0.3h-0.9V23.1z M16.6,22.5h1.2v0.3h-0.9v0.3h0.8v0.3h-0.8V24h-0.4L16.6,22.5z M13,14.1L7.2,15l0.3-5.2h6.7v2.1
	H9.5l-0.1,1.9c0.4-0.1,0.8-0.2,1.4-0.2C11.6,13.6,12.4,13.8,13,14.1z M10.4,20.9c-1.7,0-3-0.6-4.1-1.6l0.4-0.5l2.4-0.4
	c0.4,0.2,0.8,0.3,1.3,0.3c0.7,0,1.3-0.2,1.6-0.7l2.5-0.4C14.3,19.6,12.7,20.9,10.4,20.9z M17.8,13.4l-2.6,0.4
	c0.5-2.5,2.3-4.2,4.7-4.2c2,0,3.5,1.1,4.3,2.8l-2.5,0.4c-0.5-0.6-1.1-1-1.8-1C18.9,11.8,18.2,12.4,17.8,13.4z M24.5,16.2
	c-0.3,2.7-2.1,4.8-4.8,4.8c-2.2,0-3.8-1.4-4.5-3.4l2.5-0.4c0.4,1,1.2,1.6,2.1,1.6c1.2,0,2-1,2.3-2.3L24.5,16.2z M25.2,19.4
	c0-0.3-0.2-0.5-0.5-0.5s-0.5,0.2-0.5,0.5s0.2,0.5,0.5,0.5S25.2,19.7,25.2,19.4z M24.5,19.4c0-0.1,0-0.2,0.2-0.3
	c0.1,0,0.2,0.2,0.2,0.3c0,0.2-0.1,0.3-0.2,0.3C24.6,19.7,24.5,19.5,24.5,19.4z M25.9,20c-0.3,0-0.5,0.2-0.5,0.5s0.2,0.5,0.5,0.5
	c0.3,0,0.5-0.2,0.5-0.5S26.2,20,25.9,20z M25.9,20.8c-0.1,0-0.2-0.2-0.2-0.3c0-0.2,0.1-0.3,0.2-0.3c0.1,0,0.2,0.2,0.2,0.3
	C26.1,20.6,26.1,20.7,25.9,20.8z M25.4,20l-0.7,1h-0.3l0.8-1.1l0.7-1h0.3L25.4,20z"/>
</svg>
