<?xml version="1.0" encoding="utf-8"?>
<!-- Generator: Adobe Illustrator 23.0.3, SVG Export Plug-In . SVG Version: 6.00 Build 0)  -->
<svg version="1.1" id="Layer_1" xmlns="http://www.w3.org/2000/svg" xmlns:xlink="http://www.w3.org/1999/xlink" x="0px" y="0px"
	 viewBox="0 0 51.4 29" style="enable-background:new 0 0 51.4 29;" xml:space="preserve">
<style type="text/css">
	.st0{fill:#FF5E79;}
	.st1{fill:#CF344D;}
	.st2{fill:#FF4060;}
</style>
<path class="st0" d="M15.8,14.6c-3.6,0.4-6.9,0.6-10.5,0.5c1.2-1,1.8-1.5,3-2.6c-1.2-1.1-1.8-1.7-3-2.9c3.6,0.1,6.9,0,10.5-0.5
	C15.8,11.3,15.8,12.4,15.8,14.6z M40.8,21.1c3.6-0.4,6.9-0.6,10.5-0.5c-1.2,1-1.8,1.5-3,2.6c1.2,1.1,1.8,1.7,3,2.9
	c-3.6-0.1-6.9,0-10.5,0.5C40.8,24.4,40.8,23.3,40.8,21.1z"/>
<path class="st1" d="M15.8,17.2l20.5-8.7v6.1l-30.5,13v-6.1l6-2.5c-0.2,0-0.4,0-0.7,0c0-2.3,0-3.5,0-6c1.9-1.5,2.8-2.3,4.7-4
	C15.8,11.8,15.8,14.5,15.8,17.2z M40.7,17.1c0,3.1,0,6.3,0,9.5c1.9-1.7,2.8-2.5,4.7-4c0-2.4,0-3.6,0-6
	C43.5,16.7,42.6,16.8,40.7,17.1z"/>
<g>
	<polygon class="st2" points="4.6,1.2 4.6,0 3.5,0.6 	"/>
	<polygon class="st2" points="20.5,0.7 18.7,0.7 19.6,2.3 	"/>
	<polygon class="st2" points="50.6,14.6 51.4,15.1 51.4,14.1 	"/>
	<polygon class="st2" points="48.3,28.5 48.5,27.1 47.2,27.7 	"/>
	<polygon class="st2" points="0,22.3 1.7,22.9 1.4,21.2 	"/>
	<polygon class="st2" points="17,29 17.8,27.9 16.5,27.8 	"/>
	<path class="st2" d="M36.3,8.5C27.8,9.9,19.6,12.1,11,13c0,2.4,0,3.7,0,6.1c8.6-0.9,16.8-3.1,25.3-4.5
		C36.3,12.2,36.3,10.9,36.3,8.5z"/>
	<path class="st2" d="M5.8,27.6c13.7,0.2,26-5.1,39.7-4.9c0-2.5,0-3.7,0-6.1c-13.7-0.2-26,5.1-39.7,4.9C5.8,23.9,5.8,25.2,5.8,27.6z
		"/>
</g>
</svg>
