<?xml version="1.0" encoding="utf-8"?>
<!-- Generator: Adobe Illustrator 23.0.3, SVG Export Plug-In . SVG Version: 6.00 Build 0)  -->
<svg version="1.1" id="Layer_1" xmlns="http://www.w3.org/2000/svg" xmlns:xlink="http://www.w3.org/1999/xlink" x="0px" y="0px"
	 viewBox="0 0 38.3 21.2" style="enable-background:new 0 0 38.3 21.2;" xml:space="preserve">
<style type="text/css">
	.st0{fill:url(#SVGID_1_);}
	.st1{fill:url(#SVGID_2_);}
	.st2{fill:url(#SVGID_3_);}
	.st3{opacity:0.6;fill:url(#SVGID_4_);enable-background:new    ;}
	.st4{fill:url(#SVGID_5_);}
	.st5{fill:url(#SVGID_6_);}
	.st6{fill:#FFFFFF;}
	.st7{fill:#953CCC;}
</style>
<g>
	<g>
		
			<linearGradient id="SVGID_1_" gradientUnits="userSpaceOnUse" x1="7.853" y1="2.0936" x2="8.0712" y2="-2.003" gradientTransform="matrix(1 0 0 -1 0 20)">
			<stop  offset="0" style="stop-color:#3A0764"/>
			<stop  offset="0.3804" style="stop-color:#6F25A0"/>
			<stop  offset="1" style="stop-color:#C155FF"/>
		</linearGradient>
		<polygon class="st0" points="4.1,18.1 11.6,17.6 11.6,21.2 		"/>
		
			<linearGradient id="SVGID_2_" gradientUnits="userSpaceOnUse" x1="14.4817" y1="14.3843" x2="33.2694" y2="-10.7149" gradientTransform="matrix(1 0 0 -1 0 20)">
			<stop  offset="0" style="stop-color:#3A0764"/>
			<stop  offset="0.3804" style="stop-color:#6F25A0"/>
			<stop  offset="1" style="stop-color:#C155FF"/>
		</linearGradient>
		<polygon class="st1" points="4.7,6.2 32.4,3.2 32.9,4.1 33.5,16.9 4.1,18.1 		"/>
		
			<linearGradient id="SVGID_3_" gradientUnits="userSpaceOnUse" x1="-4130.5547" y1="-8.667" x2="-4155.1836" y2="9.0593" gradientTransform="matrix(-1 0 0 -1 -4137.0176 20)">
			<stop  offset="0" style="stop-color:#3A0764"/>
			<stop  offset="0.3804" style="stop-color:#6F25A0"/>
			<stop  offset="1" style="stop-color:#C155FF"/>
		</linearGradient>
		<polygon class="st2" points="4.5,5.8 32.4,3.2 32.5,15.6 4.1,18.1 		"/>
		
			<linearGradient id="SVGID_4_" gradientUnits="userSpaceOnUse" x1="-4148.2656" y1="25.8298" x2="-4161.8413" y2="3.6949" gradientTransform="matrix(-1 0 0 -1 -4137.0176 20)">
			<stop  offset="0" style="stop-color:#000000"/>
			<stop  offset="0.1612" style="stop-color:#020103"/>
			<stop  offset="0.2915" style="stop-color:#0A030D"/>
			<stop  offset="0.4111" style="stop-color:#16071E"/>
			<stop  offset="0.5242" style="stop-color:#280D36"/>
			<stop  offset="0.6328" style="stop-color:#3E1555"/>
			<stop  offset="0.738" style="stop-color:#5A1E7B"/>
			<stop  offset="0.8406" style="stop-color:#7B2AA8"/>
			<stop  offset="0.9383" style="stop-color:#A036DB"/>
			<stop  offset="1" style="stop-color:#BA3FFF"/>
		</linearGradient>
		<path class="st3" d="M4.4,8.4l0.1-2.7l27.8-2.6l0.2,12.4L29,15.8C23.9,8.9,13.8,5.1,4.4,8.4z"/>
		
			<linearGradient id="SVGID_5_" gradientUnits="userSpaceOnUse" x1="29.6125" y1="5.5772" x2="44.8186" y2="25.5" gradientTransform="matrix(1 0 0 -1 0 20)">
			<stop  offset="0" style="stop-color:#3A0764"/>
			<stop  offset="0.3804" style="stop-color:#6F25A0"/>
			<stop  offset="1" style="stop-color:#C155FF"/>
		</linearGradient>
		<polygon class="st4" points="33.5,16.9 32.5,15.6 32.4,3.2 32.9,4.1 		"/>
		
			<linearGradient id="SVGID_6_" gradientUnits="userSpaceOnUse" x1="21.5491" y1="14.234" x2="27.8453" y2="4.9866" gradientTransform="matrix(1 0 0 -1 0 20)">
			<stop  offset="0" style="stop-color:#000000"/>
			<stop  offset="0.1612" style="stop-color:#020103"/>
			<stop  offset="0.2915" style="stop-color:#0A030D"/>
			<stop  offset="0.4111" style="stop-color:#16071E"/>
			<stop  offset="0.5242" style="stop-color:#280D36"/>
			<stop  offset="0.6328" style="stop-color:#3E1555"/>
			<stop  offset="0.738" style="stop-color:#5A1E7B"/>
			<stop  offset="0.8406" style="stop-color:#7B2AA8"/>
			<stop  offset="0.9383" style="stop-color:#A036DB"/>
			<stop  offset="1" style="stop-color:#BA3FFF"/>
		</linearGradient>
		<polygon class="st5" points="32.4,3.2 32.3,15.4 16.6,17 32.5,15.6 		"/>
	</g>
	<g>
		<path class="st6" d="M7.4,11.3L7.5,7l0.8-0.1l0.6,3l0.6-3.1l0.8-0.1l0.1,4.3H9.8L9.7,8.1l-0.6,3H8.6L8,8.2v3L7.4,11.3z"/>
		<path class="st6" d="M11.1,11V6.7l1.8-0.2V7l-1,0.1v1.2l0.8-0.1v0.5L11.9,9v1.4l1-0.1v0.5L11.1,11z"/>
		<path class="st6" d="M14.4,10.8c-0.4,0-0.7-0.1-0.9-0.3s-0.3-0.6-0.3-1.1V8c0-0.2,0-0.5,0.1-0.6c0-0.2,0.1-0.3,0.2-0.5
			c0.1-0.1,0.2-0.3,0.4-0.3c0.2-0.1,0.4-0.1,0.6-0.2c0.4,0,0.7,0,0.9,0.2s0.3,0.5,0.3,0.9v0.2l-0.8,0.1V7.6c0-0.1,0-0.2,0-0.2
			c0-0.1,0-0.1,0-0.2c0-0.1,0-0.1-0.1-0.1L14.7,7c-0.1,0-0.1,0-0.2,0c-0.1,0-0.1,0-0.2,0c0,0-0.1,0-0.1,0.1l-0.1,0.1v0.1v0.1
			c0,0.1,0,0.1,0,0.2c0,0,0,0.1,0,0.2v1.7c0,0.3,0,0.4,0.1,0.6c0.1,0.1,0.2,0.2,0.4,0.1c0.1,0,0.2,0,0.2-0.1c0.1,0,0.1-0.1,0.1-0.2
			c0-0.1,0.1-0.2,0.1-0.3s0-0.2,0-0.3V9h-0.5V8.5l1.2-0.1v2.2h-0.5l-0.1-0.4C15,10.6,14.8,10.8,14.4,10.8z"/>
		<path class="st6" d="M16.1,10.6L17,6.2l0.8-0.1l0.9,4.2L18,10.4l-0.2-1L17,9.5l-0.2,1L16.1,10.6z M17.1,9h0.6l-0.3-1.7L17.1,9z"/>
		<path class="st6" d="M21.4,10.2c-0.8,0.1-1.2-0.3-1.2-1.2l0.7-0.2c0,0.6,0.2,0.8,0.5,0.8c0.1,0,0.2-0.1,0.3-0.1
			c0.1-0.1,0.1-0.2,0.1-0.3s0-0.2-0.1-0.3c0-0.1-0.1-0.2-0.2-0.2c-0.1-0.1-0.1-0.1-0.2-0.2L20.7,8c-0.2-0.1-0.3-0.3-0.4-0.4
			c-0.1-0.1-0.1-0.3-0.1-0.6s0.1-0.6,0.3-0.8s0.5-0.3,0.8-0.3c0.2,0,0.3,0,0.4,0C21.8,5.9,21.9,6,22,6c0.1,0.1,0.1,0.1,0.2,0.2
			c0.1,0.1,0.1,0.2,0.1,0.3s0,0.2,0.1,0.4l-0.7,0.2c0-0.1,0-0.2,0-0.2c0-0.1,0-0.1,0-0.2c0-0.1,0-0.1-0.1-0.2l-0.1-0.1
			c-0.1,0-0.1,0-0.2,0c-0.1,0-0.2,0.1-0.3,0.1c-0.1,0.1-0.1,0.2-0.1,0.3s0,0.2,0.1,0.3s0.1,0.2,0.3,0.3l0.6,0.4
			C22,7.9,22.1,8,22.1,8c0.1,0.1,0.1,0.2,0.2,0.3c0.1,0.1,0.1,0.2,0.1,0.3s0,0.2,0,0.4c0,0.3-0.1,0.6-0.3,0.8
			C22,10.1,21.7,10.2,21.4,10.2z"/>
		<path class="st6" d="M22.7,10.1l0.9-4.4l0.8-0.1l0.9,4.2l-0.7,0.1l-0.2-1L23.6,9l-0.2,1L22.7,10.1z M23.7,8.5h0.6L24,6.8L23.7,8.5
			z"/>
		<path class="st6" d="M25.7,9.8V5.5l0.8-0.1v3.7l1-0.1v0.5L25.7,9.8z"/>
		<path class="st6" d="M27.9,9.6V5.3l1.8-0.2v0.5l-1,0.1v1.2l0.8-0.1v0.5l-0.8,0.1V9l1-0.1v0.5L27.9,9.6z"/>
	</g>
	<g>
		<path class="st6" d="M8.2,14.3H7.8v-1.5H7.3v-0.3l1.4-0.1v0.3H8.2V14.3z"/>
		<path class="st6" d="M10.5,14.1h-0.4v-0.8l-0.7,0.1v0.8H9v-1.8h0.4v0.7l0.7-0.1v-0.7h0.4V14.1z"/>
		<path class="st6" d="M11.1,14.1v-1.8h0.4v1.8H11.1z"/>
		<path class="st6" d="M13.1,13.4c0,0.2-0.1,0.3-0.2,0.4c-0.1,0.1-0.3,0.2-0.5,0.2s-0.4,0-0.5-0.1v-0.4c0.1,0,0.2,0.1,0.3,0.1
			s0.2,0,0.2,0c0.1,0,0.1,0,0.2-0.1l0.1-0.1v-0.1c0,0,0,0-0.1-0.1c0,0-0.1-0.1-0.2-0.1c-0.1,0-0.2-0.1-0.2-0.1
			c-0.1,0-0.1-0.1-0.1-0.2c0-0.1,0-0.1,0-0.2c0-0.2,0.1-0.3,0.2-0.4c0.1-0.1,0.3-0.2,0.5-0.2c0.1,0,0.2,0,0.3,0s0.2,0,0.3,0.1
			l-0.1,0.3c-0.1,0-0.2-0.1-0.2-0.1c-0.1,0-0.1,0-0.2,0c-0.1,0-0.1,0-0.2,0.1l-0.1,0.1v0.1c0,0,0,0,0.1,0.1c0,0,0.1,0.1,0.2,0.1
			c0.2,0.1,0.3,0.1,0.3,0.2C13.1,13.2,13.1,13.3,13.1,13.4z"/>
		<path class="st6" d="M16.1,13.7h-0.4l-0.2-0.9c0,0,0-0.1,0-0.2c0-0.1,0-0.2,0-0.2s0,0.1,0,0.2c0,0.1,0,0.2,0,0.2l-0.2,1h-0.4
			L14.4,12h0.4l0.2,1c0,0.2,0.1,0.3,0.1,0.5c0,0,0-0.1,0-0.2c0-0.1,0-0.2,0.1-0.2l0.3-1h0.4l0.3,1c0,0,0,0.1,0,0.2
			c0,0.1,0,0.2,0,0.2c0-0.1,0-0.1,0-0.2c0-0.1,0-0.2,0-0.2l0.2-1h0.4L16.1,13.7z"/>
		<path class="st6" d="M17.9,13.6l-1,0.1v-1.8l1-0.1v0.3l-0.7,0.1v0.4h0.6v0.3h-0.6v0.5l0.7-0.1V13.6z"/>
		<path class="st6" d="M19.4,13.4l-1,0.1v-1.8l1-0.1V12h-0.6v0.4h0.6v0.3h-0.6v0.5l0.7-0.1v0.3H19.4z"/>
		<path class="st6" d="M21.4,13.3H21l-0.5-0.7l-0.2,0.1v0.6h-0.4v-1.8h0.4v0.8l0.2-0.2l0.5-0.6h0.4l-0.6,0.8L21.4,13.3z"/>
		<path class="st6" d="M24.1,12.2c0,0.3-0.1,0.5-0.2,0.7c-0.1,0.2-0.4,0.3-0.6,0.3c-0.3,0-0.5,0-0.6-0.2c-0.1-0.1-0.2-0.4-0.2-0.7
			s0.1-0.5,0.2-0.7c0.1-0.2,0.4-0.3,0.6-0.3c0.3,0,0.5,0,0.6,0.2C24,11.6,24.1,11.9,24.1,12.2z M22.8,12.3c0,0.2,0,0.3,0.1,0.4
			c0.1,0.1,0.2,0.1,0.3,0.1c0.3,0,0.5-0.2,0.5-0.6c0-0.4-0.2-0.6-0.5-0.6c-0.2,0-0.3,0.1-0.3,0.2C22.8,11.9,22.8,12.1,22.8,12.3z"/>
		<path class="st6" d="M26.2,12.9h-0.5l-0.8-1.3l0,0c0,0.2,0,0.4,0,0.5V13h-0.3v-1.8h0.5l0.8,1.3l0,0c0-0.2,0-0.4,0-0.5v-0.8h0.3
			V12.9z"/>
		<path class="st6" d="M26.8,12.9v-1.8h0.4v1.5l0.7-0.1v0.3L26.8,12.9z"/>
		<path class="st6" d="M28.9,11.6l0.4-0.8h0.4L29.1,12v0.7h-0.4V12l-0.6-1h0.4L28.9,11.6z"/>
	</g>
	<g>
		<path class="st6" d="M7.6,15.9v-0.5h0.1L7.6,15.9l0.3-0.1v0.1H7.6z"/>
		<path class="st6" d="M8.4,15.6c0,0.1,0,0.1-0.1,0.2c0,0-0.1,0.1-0.2,0.1c-0.1,0-0.1,0-0.2,0c0,0-0.1-0.1-0.1-0.2
			c0-0.1,0-0.1,0.1-0.2c0,0,0.1-0.1,0.2-0.1c0.1,0,0.1,0,0.2,0C8.4,15.5,8.4,15.6,8.4,15.6z M8.1,15.7C8.1,15.8,8.1,15.8,8.1,15.7
			C8.1,15.8,8.1,15.8,8.1,15.7c0.2,0.1,0.2,0,0.2-0.1c0-0.1,0-0.2-0.1-0.1H8.1C8.1,15.6,8.1,15.6,8.1,15.7z"/>
		<path class="st6" d="M8.6,15.7v0.2H8.5v-0.5h0.1c0.1,0,0.1,0,0.1,0v0.1v0.1C8.7,15.6,8.7,15.6,8.6,15.7c0.1,0.1,0.1,0.2,0.1,0.2
			H8.6V15.7L8.6,15.7z M8.6,15.6L8.6,15.6C8.7,15.6,8.7,15.6,8.6,15.6C8.7,15.6,8.7,15.6,8.6,15.6L8.6,15.6
			C8.7,15.5,8.7,15.5,8.6,15.6L8.6,15.6L8.6,15.6z"/>
		<path class="st6" d="M9.2,15.8H8.9v-0.5h0.3v0.1H9v0.1h0.2v0.1H9v0.1L9.2,15.8L9.2,15.8z"/>
		<path class="st6" d="M9.6,15.8l-0.1-0.4l0,0c0,0.1,0,0.1,0,0.1v0.2H9.4v-0.5h0.1l0.1,0.4l0,0l0.1-0.4h0.1v0.5H9.7v-0.2l0,0v-0.1
			l0,0L9.6,15.8L9.6,15.8z"/>
		<path class="st6" d="M10.2,15.7v-0.5h0.1L10.2,15.7L10.2,15.7z"/>
		<path class="st6" d="M10.8,15.4C10.8,15.5,10.8,15.5,10.8,15.4c0,0.1-0.1,0.1-0.1,0.2l0,0v0.2h-0.1v-0.5h0.1c0.1,0,0.1,0,0.1,0
			C10.7,15.3,10.8,15.3,10.8,15.4z M10.5,15.5L10.5,15.5C10.6,15.5,10.6,15.5,10.5,15.5C10.6,15.5,10.6,15.5,10.5,15.5
			c0.1-0.1,0.1-0.1,0.1-0.2c0,0,0,0-0.1,0l0,0V15.5z"/>
		<path class="st6" d="M11.1,15.5L11.1,15.5L11.1,15.5l-0.2,0.1v-0.1H11.1C11,15.5,11,15.5,11.1,15.5L11.1,15.5
			C11,15.6,11,15.6,11.1,15.5C11,15.5,11,15.5,11.1,15.5L11.1,15.5c-0.1,0-0.1,0-0.2,0c0,0,0,0-0.1,0l0,0c0,0,0,0,0-0.1v-0.1h0.1
			c0,0,0,0,0.1,0c0,0,0,0,0.1,0V15.5C11.1,15.4,11.1,15.4,11.1,15.5L11.1,15.5L11.1,15.5L11.1,15.5L11.1,15.5L11.1,15.5
			C11,15.4,11,15.4,11.1,15.5C11.1,15.4,11.1,15.4,11.1,15.5L11.1,15.5z"/>
		<path class="st6" d="M11.6,15.2v0.3v0.1c0,0,0,0-0.1,0.1h-0.1c-0.1,0-0.1,0-0.1,0v-0.1v-0.3h0.1v0.3v0.1c0,0,0,0,0.1,0h0.1
			c0,0,0,0,0-0.1V15.2L11.6,15.2z"/>
		<path class="st6" d="M12,15.6l-0.1-0.4l0,0c0,0.1,0,0.1,0,0.1v0.2h-0.1V15h0.1l0.1,0.4l0,0l0.1-0.4h0.1v0.5h-0.1v-0.2l0,0v-0.1
			l0,0L12,15.6L12,15.6z"/>
		<path class="st6" d="M13,15.3c0,0.1,0,0.1-0.1,0.2c0,0-0.1,0.1-0.2,0.1h-0.1v-0.5h0.1c0.1,0,0.1,0,0.2,0C13,15.2,13,15.2,13,15.3z
			 M12.9,15.3C12.9,15.2,12.9,15.2,12.9,15.3l-0.2-0.1v0.3l0,0C12.8,15.5,12.9,15.4,12.9,15.3z"/>
		<path class="st6" d="M13.5,15.2c0,0.1,0,0.1-0.1,0.2c0,0-0.1,0.1-0.2,0.1c-0.1,0-0.1,0-0.2,0c0,0-0.1-0.1-0.1-0.2
			c0-0.1,0-0.1,0.1-0.2c0,0,0.1-0.1,0.2-0.1c0.1,0,0.1,0,0.2,0C13.5,15.1,13.5,15.2,13.5,15.2z M13.2,15.3
			C13.2,15.4,13.2,15.4,13.2,15.3C13.2,15.4,13.2,15.4,13.2,15.3c0.2,0.1,0.2,0,0.2-0.1c0-0.1,0-0.2-0.1-0.1h-0.1
			C13.2,15.2,13.2,15.2,13.2,15.3z"/>
		<path class="st6" d="M13.6,15.5V15h0.1L13.6,15.5l0.3-0.1v0.1H13.6z"/>
		<path class="st6" d="M14.5,15.2c0,0.1,0,0.1-0.1,0.2c0,0-0.1,0.1-0.2,0.1c-0.1,0-0.1,0-0.2,0c0,0-0.1-0.1-0.1-0.2
			c0-0.1,0-0.1,0.1-0.2c0,0,0.1-0.1,0.2-0.1c0.1,0,0.1,0,0.2,0C14.4,15,14.5,15.1,14.5,15.2z M14.1,15.2
			C14.1,15.3,14.1,15.3,14.1,15.2C14.1,15.3,14.1,15.3,14.1,15.2c0.2,0.1,0.2,0,0.2-0.1c0-0.1,0-0.2-0.1-0.1h-0.1
			C14.1,15.1,14.1,15.1,14.1,15.2z"/>
		<path class="st6" d="M14.7,15.2v0.2h-0.1v-0.5h0.1c0.1,0,0.1,0,0.1,0V15v0.1C14.8,15.1,14.8,15.1,14.7,15.2
			c0.1,0.1,0.1,0.2,0.1,0.2h-0.1V15.2L14.7,15.2z M14.7,15.1L14.7,15.1C14.8,15.1,14.8,15.1,14.7,15.1
			C14.8,15.1,14.8,15.1,14.7,15.1L14.7,15.1C14.8,15,14.8,15,14.7,15.1L14.7,15.1L14.7,15.1z"/>
		<path class="st6" d="M15.5,15.2L15.5,15.2L15.5,15.2l-0.2,0.1v-0.1H15.5C15.4,15.2,15.4,15.2,15.5,15.2L15.5,15.2
			C15.4,15.2,15.4,15.2,15.5,15.2C15.4,15.2,15.4,15.2,15.5,15.2L15.5,15.2c-0.1,0-0.1,0-0.2,0c0,0,0,0-0.1,0l0,0c0,0,0,0,0-0.1V15
			h0.1c0,0,0,0,0.1,0c0,0,0,0,0.1,0V15.2C15.5,15.1,15.5,15.1,15.5,15.2L15.5,15.2L15.5,15.2L15.5,15.2L15.5,15.2L15.5,15.2
			C15.4,15.1,15.4,15.1,15.5,15.2C15.4,15.1,15.5,15.1,15.5,15.2C15.5,15.1,15.5,15.2,15.5,15.2z"/>
		<path class="st6" d="M15.6,15.3v-0.5h0.1L15.6,15.3L15.6,15.3z"/>
		<path class="st6" d="M16,15.3L16,15.3l-0.1-0.4h-0.1v-0.1h0.3v0.1H16C16,14.9,16,15.3,16,15.3z"/>
		<path class="st6" d="M16.7,15.2L16.7,15.2l-0.2-0.1v0.1h-0.1l0.2-0.5h0.1l0.2,0.5H16.7z M16.7,15c0-0.1,0-0.2-0.1-0.2l0,0
			c0,0,0,0.1-0.1,0.2H16.7z"/>
		<path class="st6" d="M17.1,15.2L17,14.8l0,0c0,0.1,0,0.1,0,0.1v0.2h-0.1v-0.5H17l0.1,0.4l0,0l0.1-0.4h0.1v0.5h-0.1V15l0,0v-0.1
			l0,0L17.1,15.2L17.1,15.2z"/>
		<path class="st6" d="M17.8,15.1h-0.3v-0.5h0.3v0.1h-0.2v0.1h0.2v0.1h-0.2V15L17.8,15.1L17.8,15.1z"/>
		<path class="st6" d="M18.1,15.1L18.1,15.1L18,14.7h-0.1v-0.1h0.3v0.1h-0.1C18.1,14.7,18.1,15.1,18.1,15.1z"/>
		<path class="st6" d="M18.4,15c0,0,0,0.1-0.1,0.2h-0.1C18.3,15.1,18.3,15.1,18.4,15L18.4,15L18.4,15z"/>
		<path class="st6" d="M18.9,14.7L18.9,14.7c-0.1,0.1-0.1,0.1-0.1,0.2c0,0.1,0,0.2,0.1,0.1H19l0,0h-0.1c-0.1,0-0.1,0-0.2-0.1
			c0,0-0.1-0.1-0.1-0.2v-0.1c0,0,0-0.1,0.1-0.1C18.9,14.6,18.9,14.6,18.9,14.7C18.9,14.6,19,14.6,18.9,14.7L18.9,14.7
			C19,14.7,19,14.7,18.9,14.7C19,14.7,19,14.7,18.9,14.7z"/>
		<path class="st6" d="M19.6,14.8c0,0.1,0,0.1-0.1,0.2c0,0-0.1,0.1-0.2,0.1c-0.1,0-0.1,0-0.2,0c0,0-0.1-0.1-0.1-0.2
			c0-0.1,0-0.1,0.1-0.2c0,0,0.1-0.1,0.2-0.1c0.1,0,0.1,0,0.2,0C19.6,14.6,19.6,14.7,19.6,14.8z M19.3,14.8
			C19.3,14.9,19.3,14.9,19.3,14.8C19.3,14.9,19.3,14.9,19.3,14.8c0.2,0.1,0.2,0,0.2-0.1c0-0.1,0-0.2-0.1-0.1h-0.1
			C19.3,14.7,19.3,14.7,19.3,14.8z"/>
		<path class="st6" d="M20.1,15L20.1,15l-0.3-0.3l0,0c0,0.1,0,0.1,0,0.1V15h-0.1v-0.5h0.1l0.2,0.3l0,0c0-0.1,0-0.1,0-0.1v-0.2h0.1
			V15z"/>
		<path class="st6" d="M20.6,14.8L20.6,14.8L20.6,14.8l-0.2,0.1v-0.1H20.6C20.5,14.8,20.5,14.8,20.6,14.8L20.6,14.8
			C20.5,14.8,20.5,14.8,20.6,14.8C20.5,14.8,20.5,14.8,20.6,14.8L20.6,14.8c-0.1,0-0.1,0-0.2,0c0,0,0,0-0.1,0l0,0c0,0,0,0,0-0.1
			v-0.1h0.1c0,0,0,0,0.1,0c0,0,0,0,0.1,0V14.8C20.6,14.7,20.6,14.7,20.6,14.8L20.6,14.8L20.6,14.8L20.6,14.8L20.6,14.8L20.6,14.8
			C20.5,14.7,20.5,14.7,20.6,14.8C20.5,14.7,20.5,14.7,20.6,14.8C20.6,14.7,20.6,14.8,20.6,14.8z"/>
		<path class="st6" d="M20.9,14.9h-0.3v-0.5h0.3v0.1h-0.2v0.1h0.2v0.1h-0.2v0.1L20.9,14.9L20.9,14.9z"/>
		<path class="st6" d="M21.3,14.5C21.2,14.5,21.2,14.5,21.3,14.5c-0.1,0.1-0.1,0.1-0.1,0.2c0,0.1,0,0.2,0.1,0.1h0.1v0.1h-0.1
			c-0.1,0-0.1,0-0.2,0c0,0-0.1-0.1-0.1-0.2v-0.1c0,0,0-0.1,0.1-0.1C21.2,14.4,21.2,14.4,21.3,14.5C21.3,14.4,21.4,14.4,21.3,14.5
			L21.3,14.5C21.3,14.5,21.3,14.5,21.3,14.5L21.3,14.5z"/>
		<path class="st6" d="M21.7,14.8L21.7,14.8l-0.1-0.3h-0.1v-0.1h0.3v0.1h-0.1C21.7,14.5,21.7,14.8,21.7,14.8z"/>
		<path class="st6" d="M22.2,14.8h-0.3v-0.5h0.3v0.1H22v0.1h0.2v0.1H22v0.1L22.2,14.8L22.2,14.8z"/>
		<path class="st6" d="M22.5,14.8L22.5,14.8l-0.1-0.4h-0.1v-0.1h0.3v0.1h-0.1C22.5,14.4,22.5,14.8,22.5,14.8z"/>
		<path class="st6" d="M23.1,14.3v0.3v0.1c0,0,0,0-0.1,0.1h-0.1c-0.1,0-0.1,0-0.1,0v-0.1v-0.3h0.1v0.3v0.1c0,0,0,0,0.1,0h0.1
			c0,0,0,0,0-0.1V14.3L23.1,14.3z"/>
		<path class="st6" d="M23.3,14.5v0.2h-0.1v-0.5h0.1c0.1,0,0.1,0,0.1,0v0.1v0.1C23.4,14.4,23.4,14.4,23.3,14.5
			c0.1,0.1,0.1,0.2,0.1,0.2h-0.1V14.5L23.3,14.5z M23.3,14.5L23.3,14.5C23.4,14.5,23.4,14.5,23.3,14.5
			C23.4,14.5,23.4,14.5,23.3,14.5L23.3,14.5C23.4,14.4,23.4,14.4,23.3,14.5L23.3,14.5L23.3,14.5z"/>
		<path class="st6" d="M24.1,14.6L24.1,14.6l-0.2-0.1v0.1h-0.1l0.2-0.5h0.1l0.2,0.5H24.1z M24.1,14.5c0-0.1,0-0.2-0.1-0.2l0,0
			c0,0,0,0.1-0.1,0.2H24.1z"/>
		<path class="st6" d="M24.7,14.4c0,0.1,0,0.1-0.1,0.2c0,0-0.1,0.1-0.2,0.1h-0.1v-0.5h0.1c0.1,0,0.1,0,0.2,0
			C24.7,14.2,24.7,14.3,24.7,14.4z M24.6,14.4C24.6,14.3,24.6,14.3,24.6,14.4l-0.2-0.1v0.3l0,0C24.6,14.5,24.6,14.5,24.6,14.4z"/>
		<path class="st6" d="M24.8,14.6v-0.5h0.1L24.8,14.6L24.8,14.6z"/>
		<path class="st6" d="M25.4,14.2C25.4,14.3,25.4,14.3,25.4,14.2c0,0.1-0.1,0.1-0.1,0.2l0,0v0.2h-0.1v-0.5h0.1c0.1,0,0.1,0,0.1,0
			V14.2z M25.2,14.3L25.2,14.3C25.3,14.3,25.3,14.3,25.2,14.3C25.3,14.3,25.3,14.3,25.2,14.3c0.1-0.1,0.1-0.1,0.1-0.2c0,0,0,0-0.1,0
			l0,0V14.3z"/>
		<path class="st6" d="M25.5,14.5V14h0.1L25.5,14.5L25.5,14.5z"/>
		<path class="st6" d="M26,14.4L26,14.4L26,14.4l-0.2,0.1v-0.1H26C25.9,14.4,25.9,14.4,26,14.4L26,14.4C25.9,14.4,25.9,14.4,26,14.4
			C25.9,14.4,25.9,14.4,26,14.4L26,14.4c-0.1,0-0.1,0-0.2,0c0,0,0,0-0.1,0l0,0c0,0,0,0,0-0.1v-0.1h0.1c0,0,0,0,0.1,0c0,0,0,0,0.1,0
			V14.4C26,14.3,26,14.3,26,14.4L26,14.4L26,14.4L26,14.4L26,14.4L26,14.4C25.9,14.3,25.9,14.3,26,14.4C25.9,14.3,26,14.3,26,14.4
			C26,14.3,26,14.3,26,14.4z"/>
		<path class="st6" d="M26.3,14.1L26.3,14.1c-0.1,0.1-0.1,0.1-0.1,0.2c0,0.1,0,0.2,0.1,0.1h0.1v0.1h-0.1c-0.1,0-0.1,0-0.2,0
			c0,0-0.1-0.1-0.1-0.2v-0.1c0,0,0-0.1,0.1-0.1C26.2,14,26.3,14,26.3,14.1C26.3,14,26.4,14,26.3,14.1L26.3,14.1
			C26.4,14.1,26.4,14.1,26.3,14.1C26.4,14.1,26.3,14.1,26.3,14.1z"/>
		<path class="st6" d="M26.6,14.5V14h0.1L26.6,14.5L26.6,14.5z"/>
		<path class="st6" d="M27.2,14.4L27.2,14.4l-0.3-0.3l0,0c0,0.1,0,0.1,0,0.1v0.2h-0.1V14h0.1l0.2,0.3l0,0c0-0.1,0-0.1,0-0.1V14h0.1
			V14.4z"/>
		<path class="st6" d="M27.5,14.1h0.2v0.2h-0.1h-0.1c-0.1,0-0.1,0-0.2,0c0,0-0.1-0.1-0.1-0.2c0-0.1,0-0.1,0.1-0.2
			c0,0,0.1-0.1,0.2-0.1h0.1v0.1h-0.1C27.5,14,27.5,14,27.5,14.1C27.5,14.1,27.4,14.1,27.5,14.1c-0.1,0.1-0.1,0.1-0.1,0.2h0.1
			c0,0,0,0,0.1,0L27.5,14.1L27.5,14.1L27.5,14.1z"/>
		<path class="st6" d="M28.3,14.3H28v-0.5h0.3v0.1h-0.2V14h0.2v0.1h-0.2v0.1L28.3,14.3L28.3,14.3z"/>
		<path class="st6" d="M28.4,14.3v-0.5h0.1L28.4,14.3l0.3-0.1v0.1H28.4z"/>
		<path class="st6" d="M28.8,14.3v-0.5h0.1L28.8,14.3L28.8,14.3z"/>
		<path class="st6" d="M29.3,14.2L29.3,14.2l-0.1-0.4h-0.1v-0.1h0.3v0.1h-0.1C29.3,13.8,29.3,14.2,29.3,14.2z"/>
	</g>
	<g>
		<polygon class="st7" points="1.6,20 2.2,18.3 0.5,19.6 		"/>
		<polygon class="st7" points="0,10.5 2.3,10.7 0.2,8.9 		"/>
		<polygon class="st7" points="14.4,2.5 16.1,3 14.8,1.3 		"/>
		<polygon class="st7" points="24.1,0 24.1,2 25.4,0 		"/>
		<polygon class="st7" points="36.8,15 34.8,14.5 36.5,16.4 		"/>
		<polygon class="st7" points="37.9,9.2 36.7,9.8 38.3,10 		"/>
		<polygon class="st7" points="37.3,3.8 35.3,5.2 38.2,5.2 		"/>
		<polygon class="st7" points="27.2,19.5 26.5,19 26.8,20 		"/>
		<polygon class="st7" points="16.5,20 15.5,19.4 16.1,20.7 		"/>
	</g>
</g>
</svg>
