<?xml version="1.0" encoding="utf-8"?>
<!-- Generator: Adobe Illustrator 23.0.3, SVG Export Plug-In . SVG Version: 6.00 Build 0)  -->
<svg version="1.1" id="Layer_1" xmlns="http://www.w3.org/2000/svg" xmlns:xlink="http://www.w3.org/1999/xlink" x="0px" y="0px"
	 viewBox="0 0 81.9 67" style="enable-background:new 0 0 81.9 67;" xml:space="preserve">
<style type="text/css">
	.st0{fill:#0082FF;}
	.st1{fill:#323131;}
	.st2{fill:#FFFFFF;}
</style>
<circle class="st0" cx="48.4" cy="33.5" r="33.5"/>
<g>
	<path class="st1" d="M28.9,31.6c0,0,10-1.1,11.6-12.8c0,0,7.3,5.9,11.5-3.3c0,0,1.9,9.6,11.2,3.5c0,0-2.2,9.6,7.9,8.2
		c0,0-10.1,6.2,3.2,10.5c0,0-14.3-1.7-14.3,7.7c0,0-9.8-7.5-13.9,6.4c0,0-5-12.5-15.4-4.6C30.6,47.3,37.6,35.9,28.9,31.6z"/>
	<path class="st2" d="M30.8,31.7c0,0,9.1-1,10.5-11.6c0,0,6.7,5.4,10.5-3c0,0,1.7,8.8,10.2,3.2c0,0-2.5,9.8,7.2,7.5
		c0,0-8.1,7.1,2.9,9.5c0,0-13-1.6-13,7c0,0-9.2-7.3-12.9,5.4c0,0-4.1-11.5-13.5-4.4C32.5,45.3,38.7,35.7,30.8,31.7z"/>
	<path class="st0" d="M35.6,31.6c0,0,6.5-0.7,7.5-8.5c0,0,4.8,4,7.5-2.2c0,0,1.3,6.4,7.3,2.4c0,0-1.7,7.2,5.2,5.5c0,0-5.8,5.1,2.1,7
		c0,0-9.3-1.2-9.3,5.1c0,0-6.7-5.4-9.3,3.9c0,0-3-8.5-9.8-3.2C36.9,41.5,41.3,34.5,35.6,31.6z"/>
</g>
<path class="st1" d="M27.9,20.4c0,0.4-0.1,0.7-0.1,0.9c0,0.3,0.1,0.5,0.2,0.7c0.1,0.1,0.1,0.2,0.2,0.3c0.1,0.1,0.2,0.2,0.3,0.3
	c0.2,0.2,0.5,0.4,0.7,0.6l0,0c-0.3-0.1-0.6-0.2-0.9-0.3c-0.1-0.1-0.3-0.2-0.4-0.3c-0.1-0.1-0.2-0.2-0.3-0.4c-0.2-0.3-0.2-0.7-0.2-1
	C27.6,20.9,27.7,20.6,27.9,20.4L27.9,20.4z"/>
<path class="st1" d="M21.2,34.6c-0.2,0.3-0.5,0.6-0.6,0.8c-0.2,0.3-0.2,0.5-0.3,0.8c0,0.1,0,0.3,0,0.4c0,0.1,0.1,0.3,0.1,0.5
	c0.1,0.3,0.2,0.7,0.3,1l0,0c-0.2-0.3-0.4-0.6-0.6-0.9C20,37,20,36.9,19.9,36.7c0-0.2-0.1-0.4,0-0.6c0-0.4,0.2-0.7,0.4-1
	C20.6,34.9,20.9,34.7,21.2,34.6L21.2,34.6z"/>
<path class="st1" d="M30.7,50.4C30.7,50.5,30.7,50.5,30.7,50.4v0.2c0,0.1,0,0.1,0,0.2s0,0.2,0,0.3v0.1l0,0l0,0v0.1v0.1l0,0
	c0,0,0,0,0,0.1v0.1c0,0.1,0,0.2,0.1,0.3l0,0c-0.1-0.1-0.1-0.1-0.2-0.2l-0.1-0.1c0,0,0-0.1-0.1-0.1l-0.1-0.1v-0.1c0,0,0,0,0-0.1v-0.1
	V51c0-0.2,0-0.3,0.1-0.5c0-0.1,0.1-0.1,0.1-0.2C30.5,50.6,30.5,50.5,30.7,50.4C30.6,50.5,30.6,50.4,30.7,50.4L30.7,50.4z"/>
<path class="st1" d="M22.4,41.8c0.1,0.1,0.1,0.1,0.2,0.1l0.1,0.1c0.1,0.1,0.2,0.1,0.3,0.2c0.1,0,0.1,0.1,0.2,0.1l0,0l0,0h0.1
	c0.1,0,0.3,0,0.5-0.1s0.4-0.1,0.7-0.2l0,0c-0.1,0.1-0.2,0.2-0.3,0.2c-0.1,0.1-0.2,0.1-0.3,0.2c-0.1,0.1-0.2,0.1-0.3,0.2
	c-0.1,0-0.2,0.1-0.4,0.1c-0.1,0-0.2,0-0.4-0.1c-0.1-0.1-0.2-0.2-0.3-0.2c-0.1-0.1-0.1-0.2-0.2-0.3c0-0.1,0-0.1-0.1-0.2v-0.1
	C22.4,41.8,22.4,41.8,22.4,41.8L22.4,41.8z"/>
<path class="st1" d="M62.7,45.6c0,0.1,0.1,0.1,0.1,0.2l0.1,0.2c0,0.1,0.1,0.2,0.1,0.3s0.1,0.1,0.1,0.2l0,0l0,0c0,0,0,0,0.1,0.1
	s0.3,0.1,0.4,0.2c0.2,0.1,0.4,0.1,0.6,0.2l0,0c-0.1,0-0.2,0.1-0.3,0.1s-0.2,0-0.3,0s-0.2,0-0.3,0S63.1,47,63,47
	c-0.1-0.1-0.2-0.1-0.2-0.2c-0.1-0.1-0.1-0.2-0.1-0.3s0-0.2,0-0.3s0-0.1,0-0.2V45.6C62.6,45.7,62.6,45.6,62.7,45.6L62.7,45.6z"/>
<path class="st1" d="M66.3,47.2c0.1,0,0.1,0,0.2,0.1h0.1l0,0l0,0l0,0l0,0c0,0,0.1,0,0.2,0h0.1c0,0,0.1,0,0.2,0l0,0L67,47.4l-0.1,0.1
	c-0.1,0.1-0.2,0.1-0.3,0.1h-0.1c0,0,0,0-0.1,0c0,0,0,0-0.1,0c0,0,0,0-0.1,0l-0.1-0.1C66.3,47.4,66.3,47.3,66.3,47.2L66.3,47.2z"/>
<path class="st1" d="M26.4,33.6c0-0.1-0.1-0.1-0.1-0.2l-0.1-0.1l0,0l0,0l0,0l0,0c0,0-0.1,0-0.2-0.1c0,0-0.1,0-0.1-0.1
	c-0.1,0-0.1,0-0.2-0.1l0,0h0.2c0.1,0,0.1,0,0.2,0s0.2,0,0.3,0.1c0,0,0,0,0.1,0.1c0,0,0,0,0.1,0.1v0.1v0.1c0,0.1,0,0.1,0,0.2
	C26.4,33.5,26.4,33.5,26.4,33.6L26.4,33.6z"/>
<path class="st1" d="M32.3,25.9c0.1,0,0.1,0,0.2,0h0.1l0,0l0,0l0,0l0,0c0,0,0.1,0,0.2-0.1c0,0,0.1,0,0.1-0.1l0.1-0.1l0,0l-0.1,0.1
	l-0.1,0.1c0.1,0.2,0.1,0.2,0,0.3c0,0,0,0-0.1,0c0,0,0,0-0.1,0c0,0,0,0-0.1,0c0,0,0,0-0.1,0C32.4,26.1,32.3,26.1,32.3,25.9
	C32.3,26,32.3,25.9,32.3,25.9L32.3,25.9z"/>
<g>
	<polygon class="st2" points="35.3,21.4 41,28.5 34.8,22 	"/>
	<polygon class="st2" points="33.4,22.9 41.3,29 34.2,22.2 	"/>
	<polygon class="st2" points="32.7,24.2 40.8,29.1 32.9,23.2 	"/>
</g>
<g>
	<path class="st1" d="M34.1,19.2c-0.6,0.1-1.1,0.5-1.4,1c-0.4-0.6-1.1-1-1.9-0.9c-1.1,0.2-1.8,1.2-1.7,2.4c0.1,0.9,0.8,1.6,1.6,1.8
		v0.1c0.2,1.2,1.2,2,2.3,1.8c1-0.1,1.6-1,1.7-2l0,0c1.1-0.2,1.8-1.2,1.7-2.4C36.2,19.8,35.2,19,34.1,19.2z"/>
	<path class="st2" d="M33.7,18.7c-0.6,0.1-1.1,0.5-1.4,1c-0.4-0.6-1.1-1-1.9-0.9c-1.1,0.2-1.8,1.2-1.7,2.4c0.1,0.9,0.8,1.6,1.6,1.8
		v0.1c0.2,1.2,1.2,2,2.3,1.8c1-0.1,1.6-1,1.7-2l0,0c1.1-0.2,1.8-1.2,1.7-2.4C35.8,19.3,34.8,18.5,33.7,18.7z"/>
</g>
<path class="st1" d="M60.8,55.5c0.1-0.3,0.3-0.6,0.3-0.9c0.1-0.3,0.1-0.5,0.1-0.7c0-0.1-0.1-0.2-0.1-0.4c0-0.1-0.1-0.2-0.2-0.4
	c-0.1-0.3-0.3-0.5-0.5-0.8l0,0c0.3,0.2,0.5,0.4,0.7,0.6c0.1,0.1,0.2,0.3,0.3,0.4c0.1,0.1,0.1,0.3,0.2,0.5c0.1,0.3,0,0.7-0.2,1
	C61.3,55,61.1,55.3,60.8,55.5L60.8,55.5z"/>
<path class="st1" d="M52.4,53.2c0,0.1,0,0.1,0,0.2v0.2c0,0.1,0,0.2,0,0.3s0,0.2,0,0.2l0,0l0,0c0,0,0,0,0,0.1
	c0.1,0.1,0.2,0.2,0.3,0.3s0.3,0.3,0.5,0.4l0,0c-0.1,0-0.2,0-0.3-0.1c-0.1,0-0.2-0.1-0.3-0.1s-0.2-0.1-0.3-0.2s-0.2-0.1-0.2-0.2
	C52,54.2,52,54.1,52,54s0-0.2,0-0.4c0-0.1,0.1-0.2,0.1-0.3s0-0.1,0.1-0.2L52.4,53.2C52.3,53.2,52.4,53.2,52.4,53.2L52.4,53.2z"/>
<path class="st1" d="M59.2,49.2C59.1,49.1,59.1,49.1,59.2,49.2L59,49l0,0l0,0l0,0l0,0c0,0-0.1,0-0.2,0h-0.1c0,0-0.1,0-0.2,0l0,0
	l0.1-0.1c0,0,0.1,0,0.1-0.1c0.1,0,0.2,0,0.3,0c0,0,0,0,0.1,0c0,0,0,0,0.1,0c0,0,0,0,0,0.1c0,0,0,0,0,0.1L59.2,49.2
	C59.2,49.1,59.2,49.2,59.2,49.2L59.2,49.2z"/>
<g>
	<polygon class="st2" points="53.8,51.8 50.4,40.9 54.5,51.2 	"/>
	<polygon class="st2" points="56.4,50.8 50.2,40.1 55.2,51.3 	"/>
	<polygon class="st2" points="57.7,49.6 50.8,40.2 57,50.6 	"/>
</g>
<g>
	<path class="st1" d="M54.6,54.4c0.6,0.1,1.2,0,1.6-0.4c0.2,0.7,0.8,1.3,1.5,1.5c1.1,0.2,2.1-0.5,2.3-1.7c0.2-0.9-0.2-1.8-0.9-2.2
		v-0.1c0.2-1.1-0.5-2.3-1.6-2.5c-0.9-0.2-1.9,0.3-2.2,1.3l0,0c-1.1-0.2-2.1,0.5-2.3,1.7C52.9,53,53.6,54.1,54.6,54.4z"/>
	<path class="st2" d="M54.9,55c0.6,0.1,1.2,0,1.6-0.4c0.2,0.7,0.8,1.3,1.5,1.5c1.1,0.2,2.1-0.5,2.3-1.7c0.2-0.9-0.2-1.8-0.9-2.2
		v-0.1c0.2-1.1-0.5-2.3-1.6-2.5c-0.9-0.2-1.9,0.3-2.2,1.3l0,0c-1.1-0.2-2.1,0.5-2.3,1.7C53.1,53.6,53.8,54.7,54.9,55z"/>
</g>
<polygon class="st1" points="38.5,23.5 37.3,20 38.2,18.9 "/>
<polygon class="st2" points="24.9,39.3 36.5,41 25.6,38.7 "/>
<polygon class="st2" points="26.2,37.8 36.5,41 26.7,37.2 "/>
<g>
	<path class="st1" d="M26.9,39.1c0.2,0,0.3,0,0.5-0.1c0.9-0.3,1.3-1.4,1-2.3c-0.2-0.6-0.7-1.1-1.3-1.2c0-0.2,0-0.4-0.1-0.7
		c-0.3-0.9-1.3-1.4-2.2-1.1c-0.5,0.2-0.9,0.6-1,1.1c-0.2,0-0.4,0-0.7,0.1c-0.9,0.3-1.3,1.4-1,2.3c0.1,0.4,0.3,0.7,0.6,0.9
		c-0.2,0.5-0.2,1.1,0,1.6c0.4,1.2,1.6,1.8,2.8,1.4C26.3,40.9,26.8,40.1,26.9,39.1z"/>
	<path class="st2" d="M26.1,39.2c0.2,0,0.3,0,0.5-0.1c0.9-0.3,1.3-1.4,1-2.3c-0.2-0.6-0.7-1.1-1.3-1.2c0-0.2,0-0.4-0.1-0.7
		c-0.3-0.9-1.3-1.4-2.2-1.1c-0.5,0.2-0.9,0.6-1,1.1c-0.2,0-0.4,0-0.7,0.1c-0.9,0.3-1.3,1.4-1,2.3c0.1,0.4,0.3,0.7,0.6,0.9
		c-0.2,0.5-0.2,1.1,0,1.6c0.4,1.2,1.6,1.8,2.8,1.4C25.6,41,26.1,40.1,26.1,39.2z"/>
</g>
<path class="st2" d="M33.5,50.6c0,0,5.3-9.1,5.1-8.8s-4.9,9.9-4.8,9.8C33.8,51.4,33.5,50.6,33.5,50.6z"/>
<polygon class="st2" points="38.9,41.1 34.4,51.4 34.9,51.5 "/>
<polygon class="st2" points="39.2,40.9 35,52.1 36.2,52.2 "/>
<g>
	<path class="st1" d="M32.9,53.2c0.3,0.1,0.7,0.1,1,0.1c0.2,0.4,0.6,0.8,1,0.9c0.9,0.3,1.9-0.3,2.2-1.2c0.3-1-0.2-2-1.2-2.3
		c-0.1,0-0.1,0-0.2-0.1c-0.1-0.9-0.7-1.6-1.5-1.9c-1.2-0.4-2.4,0.3-2.8,1.6C31.1,51.5,31.8,52.8,32.9,53.2z"/>
	<path class="st2" d="M32.7,53.9c0.3,0.1,0.7,0.1,1,0.1c0.2,0.4,0.6,0.8,1,0.9c0.9,0.3,1.9-0.3,2.2-1.2s-0.2-2-1.2-2.3
		c-0.1,0-0.1,0-0.2-0.1c-0.1-0.9-0.7-1.6-1.5-1.9c-1.2-0.4-2.4,0.3-2.8,1.6C30.9,52.2,31.5,53.5,32.7,53.9z"/>
</g>
<path class="st1" d="M69.1,15.4c-0.3-0.1-0.5-0.1-0.7-0.1s-0.4,0-0.5,0.1c-0.1,0-0.2,0.1-0.2,0.1c-0.1,0.1-0.2,0.1-0.2,0.2
	c-0.2,0.2-0.3,0.4-0.5,0.6l0,0c0.1-0.2,0.2-0.5,0.3-0.7c0.1-0.1,0.1-0.2,0.2-0.3s0.2-0.2,0.3-0.2C68,15,68.3,15,68.5,15
	C68.7,15.1,68.9,15.2,69.1,15.4L69.1,15.4z"/>
<path class="st1" d="M72.8,21.2C72.8,21.1,72.8,21.1,72.8,21.2V21c0-0.1,0-0.1,0.1-0.2c0-0.1,0-0.2,0.1-0.3v-0.1l0,0l0,0v-0.1v-0.1
	c0,0,0,0,0-0.1c0,0,0,0,0-0.1v-0.1c0-0.1,0-0.2,0-0.3l0,0c0,0.1,0.1,0.1,0.1,0.2v0.1V20v0.1v0.1c0,0,0,0,0,0.1v0.1v0.1
	c0,0.2-0.1,0.3-0.2,0.4C72.9,21,72.8,21,72.8,21.2L72.8,21.2L72.8,21.2L72.8,21.2z"/>
<path class="st2" d="M70,20.4c0,0-7,7.6-6.8,7.4s6.8-8.6,6.7-8.4C69.9,19.5,70,20.4,70,20.4z"/>
<polygon class="st2" points="62.8,28.4 69.3,19.4 68.9,19.2 "/>
<polygon class="st2" points="62.4,28.5 68.8,18.6 67.7,18.2 "/>
<g>
	<path class="st1" d="M71.1,18c-0.3-0.2-0.6-0.3-1-0.3c-0.1-0.5-0.4-0.9-0.8-1.1c-0.8-0.5-1.9-0.2-2.4,0.7c-0.5,0.9-0.2,2,0.7,2.5
		c0.1,0,0.1,0.1,0.2,0.1c-0.1,0.9,0.4,1.7,1.1,2.2c1.1,0.6,2.4,0.2,3-0.9C72.5,20.1,72.2,18.6,71.1,18z"/>
	<path class="st2" d="M71.5,17.3c-0.3-0.2-0.6-0.3-1-0.3c-0.1-0.5-0.4-0.9-0.8-1.1c-0.8-0.5-1.9-0.2-2.4,0.7c-0.5,0.9-0.2,2,0.7,2.5
		c0.1,0,0.1,0.1,0.2,0.1c-0.1,0.9,0.4,1.7,1.1,2.2c1.1,0.6,2.4,0.2,3-0.9C72.9,19.4,72.5,18,71.5,17.3z"/>
</g>
<polygon class="st1" points="69.2,33.3 75.4,35.3 75.9,34.2 "/>
<polygon class="st1" points="28.1,41.2 32.4,41.2 28.4,41.9 "/>
<polygon class="st1" points="62.7,43.3 60.4,40.7 62.9,42.8 "/>
<polygon class="st2" points="58.7,38.6 66.9,44.4 67.6,44 "/>
<polygon class="st2" points="58.4,38 67.9,43.6 68.2,42.6 "/>
<g>
	<path class="st1" d="M65.7,46c0.1,0.1,0.2,0.3,0.3,0.4c0.6,0.6,1.5,0.7,2.1,0.1c0.4-0.4,0.6-1,0.4-1.6c0.2-0.1,0.3-0.2,0.5-0.3
		c0.6-0.6,0.6-1.6,0.1-2.3c-0.3-0.4-0.8-0.5-1.2-0.5c-0.1-0.2-0.2-0.4-0.3-0.5c-0.6-0.6-1.5-0.7-2.1-0.1c-0.2,0.2-0.4,0.5-0.4,0.8
		c-0.5,0-0.9,0.2-1.3,0.6c-0.8,0.8-0.8,2.1-0.1,2.9C64.2,46.2,65,46.4,65.7,46z"/>
	<path class="st2" d="M66.5,45.9c0.1,0.1,0.2,0.3,0.3,0.4c0.6,0.6,1.5,0.7,2.1,0.1c0.4-0.4,0.6-1,0.4-1.6c0.2-0.1,0.3-0.2,0.5-0.3
		c0.6-0.6,0.6-1.6,0.1-2.3c-0.3-0.4-0.8-0.5-1.2-0.5c-0.1-0.2-0.2-0.4-0.3-0.5c-0.6-0.6-1.5-0.7-2.1-0.1c-0.2,0.2-0.4,0.5-0.4,0.8
		c-0.5,0-0.9,0.2-1.3,0.6c-0.8,0.8-0.8,2.1-0.1,2.9C64.9,46,65.8,46.2,66.5,45.9z"/>
</g>
<polygon class="st2" points="40,49.2 40.9,49.6 41.8,49 41.7,50.1 42.5,50.7 41.5,51 41.2,52 40.6,51.1 39.6,51.1 40.3,50.2 "/>
<polygon class="st2" points="70.3,23.7 70.9,24 71.4,23.6 71.4,24.3 71.9,24.7 71.3,24.9 71.1,25.5 70.7,24.9 70.1,24.9 70.5,24.4 
	"/>
<polygon class="st2" points="30.5,27.4 30.8,27.6 31.2,27.5 31.1,27.9 31.3,28.2 30.9,28.2 30.7,28.5 30.6,28.1 30.2,28 30.5,27.8 
	"/>
<polygon class="st2" points="5.4,21.3 5.7,21.5 6,21.4 5.9,21.7 6,21.9 5.7,21.9 5.5,22.1 5.5,21.9 5.2,21.8 5.4,21.6 "/>
<polygon class="st2" points="1.6,19.9 2.1,20.9 3.3,21.1 2.4,21.9 2.6,23 1.6,22.5 0.6,23 0.8,21.9 0,21.1 1.1,20.9 "/>
<polygon class="st2" points="24.7,26.2 26,26.8 27.2,26 27.1,27.5 28.2,28.4 26.8,28.8 26.3,30.2 25.6,28.9 24.2,28.8 25.1,27.7 "/>
</svg>
