<?xml version="1.0" encoding="utf-8"?>
<!-- Generator: Adobe Illustrator 23.0.3, SVG Export Plug-In . SVG Version: 6.00 Build 0)  -->
<svg version="1.1" id="Layer_1" xmlns="http://www.w3.org/2000/svg" xmlns:xlink="http://www.w3.org/1999/xlink" x="0px" y="0px"
	 viewBox="0 0 199.9 91.3" style="enable-background:new 0 0 199.9 91.3;" xml:space="preserve">
<style type="text/css">
	.st0{fill:#C03B2B;}
	.st1{fill:#9D3023;}
	.st2{fill:#E64D3C;}
	.st3{fill:#F2F2F2;}
	.st4{font-family:'Arial-BoldMT';}
	.st5{font-size:22.9167px;}
</style>
<path class="st0" d="M189.6,67.9l10.3,16l-33.8,2.9V53l33.8-2.9L189.6,67.9z M10.3,23.4L0,41.2l33.8-2.9V4.5L0,7.4L10.3,23.4z"/>
<path class="st1" d="M183,0v33.8L16.9,91.3V57.5L183,0z M33.8,4.5l-16.9,9.9v33.8l16.9-9.9V4.5z M166.1,86.9L183,77V43.1L166.1,53
	V86.9z"/>
<path class="st2" d="M183,0v33.8L16.9,48.2V14.4L183,0z M16.9,91.3l166.2-14.4V43.1L16.9,57.5V91.3z"/>
<text transform="matrix(1.0166 -7.700000e-02 2.350000e-02 0.9997 47.148 37.6456)" class="st3 st4 st5">SPECIAL</text>
<text transform="matrix(1.0166 -7.700000e-02 2.350000e-02 0.9997 49.3894 80.0221)" class="st3 st4 st5">OFFERS</text>
</svg>
