<?xml version="1.0" encoding="utf-8"?>
<!-- Generator: Adobe Illustrator 23.0.3, SVG Export Plug-In . SVG Version: 6.00 Build 0)  -->
<svg version="1.1" id="Layer_1" xmlns="http://www.w3.org/2000/svg" xmlns:xlink="http://www.w3.org/1999/xlink" x="0px" y="0px"
	 viewBox="0 0 181.5 143" style="enable-background:new 0 0 181.5 143;" xml:space="preserve">
<style type="text/css">
	.st0{fill:#FFFFFF;}
	.st1{fill:#F8B231;}
	.st2{fill:#D58D29;}
	.st3{font-family:'MyriadPro-Bold';}
	.st4{font-size:26px;}
</style>
<path class="st0" d="M16.5,143C6.1,128.2,0,110.2,0,90.8C0,40.6,40.6,0,90.8,0s90.8,40.6,90.8,90.8c0,19.4-6.1,37.3-16.4,52.1"/>
<path class="st1" d="M27,142.9C15.4,128.7,8.4,110.5,8.4,90.8c0-45.5,36.9-82.4,82.4-82.4s82.4,36.9,82.4,82.4
	c0,19.8-7,37.9-18.6,52.1"/>
<text transform="matrix(1 0 0 1 44.1328 76.5005)" class="st2 st3 st4">SPECIAL</text>
<text transform="matrix(1 0 0 1 30.4698 107.7005)" class="st2 st3 st4">DISCOUNT</text>
<text transform="matrix(1 0 0 1 42.6328 75.5005)" class="st0 st3 st4">SPECIAL</text>
<text transform="matrix(1 0 0 1 28.9698 106.7005)" class="st0 st3 st4">DISCOUNT</text>
</svg>
