<?xml version="1.0" encoding="utf-8"?>
<!-- Generator: Adobe Illustrator 23.0.3, SVG Export Plug-In . SVG Version: 6.00 Build 0)  -->
<svg version="1.1" id="Layer_1" xmlns="http://www.w3.org/2000/svg" xmlns:xlink="http://www.w3.org/1999/xlink" x="0px" y="0px"
	 viewBox="0 0 330 49" style="enable-background:new 0 0 330 49;" xml:space="preserve">
<style type="text/css">
	.st0{fill:#E64D3C;}
	.st1{fill:#FFFFFF;}
	.st2{fill:#F2F2F2;}
	.st3{font-family:'Arial-BoldMT';}
	.st4{font-size:28.9803px;}
</style>
<path class="st0" d="M329.2,49H0l17.4-24.5L0.8,0H74h256l-17.4,24.5L329.2,49L329.2,49z"/>
<path class="st1" d="M322,46.2h-4.9v-1h3.1l-1.7-2.5l0.8-0.6L322,46.2z M313.1,45.2h-8v1h8V45.2z M301,45.2h-8v1h8V45.2z M289,45.2
	h-8v1h8V45.2z M276.9,45.2h-8v1h8V45.2z M264.8,45.2h-8v1h8V45.2z M252.7,45.2h-8.1v1h8.1V45.2z M240.7,45.2h-8v1h8V45.2z
	 M228.6,45.2h-8v1h8V45.2z M216.5,45.2h-8v1h8V45.2z M204.4,45.2h-8v1h8V45.2z M192.4,45.2h-8v1h8V45.2z M180.3,45.2h-8v1h8V45.2z
	 M168.2,45.2h-8.1v1h8.1V45.2z M156.1,45.2h-8v1h8V45.2z M144.1,45.2h-8v1h8V45.2z M132,45.2h-8v1h8V45.2z M119.9,45.2h-8.1v1h8.1
	V45.2z M107.8,45.2h-8v1h8V45.2z M95.8,45.2h-8v1h8V45.2z M83.7,45.2h-8v1h8V45.2z M71.6,45.2h-8v1h8V45.2z M59.5,45.2h-8.1v1h8.1
	V45.2z M47.5,45.2h-8v1h8V45.2z M35.4,45.2h-8v1h8V45.2z M23.3,45.2h-8v1h8V45.2z M11.2,45.2h-3l1.7-2.4l-0.8-0.6l-2.9,4h5V45.2z
	 M17.8,31.8L17,31.2l-5.3,7.3l0.8,0.6L17.8,31.8z M22.9,24.5l-2.5-3.6l-0.8,0.6l2.1,3l-2.1,2.9l0.8,0.6L22.9,24.5z M18,17.2l-5-7.3
	l-0.8,0.6l5,7.3L18,17.2z M10.5,6.2L8.8,3.7h3.1v-1H7l2.7,4.1L10.5,6.2z M313.8,2.7h-8v1h8V2.7z M301.7,2.7h-8v1h8V2.7z M289.6,2.7
	h-8v1h8V2.7z M277.5,2.7h-8.1v1h8.1V2.7z M265.5,2.7h-8v1h8V2.7z M253.4,2.7h-8v1h8V2.7z M241.3,2.7h-8v1h8V2.7z M229.2,2.7h-8v1h8
	V2.7z M217.2,2.7h-8.1v1h8.1V2.7z M205.1,2.7h-8v1h8V2.7z M193,2.7h-8v1h8V2.7z M180.9,2.7h-8v1h8V2.7z M168.8,2.7h-8v1h8V2.7z
	 M156.8,2.7h-8v1h8V2.7z M144.7,2.7h-8v1h8V2.7z M132.6,2.7h-8.1v1h8.1V2.7z M120.5,2.7h-8v1h8V2.7z M108.5,2.7h-8.1v1h8.1V2.7z
	 M96.4,2.7h-8v1h8V2.7z M84.3,2.7h-8v1h8V2.7z M72.3,2.7h-8.1v1h8.1V2.7z M60.2,2.7h-8v1h8V2.7z M48.1,2.7H40v1h8.1V2.7z M36,2.7h-8
	v1h8V2.7z M23.9,2.7h-8v1h8V2.7z M322.8,2.7h-5v1h3l-1.8,2.5l0.8,0.6L322.8,2.7z M317.3,10.5l-0.8-0.6l-5.3,7.3l0.8,0.6L317.3,10.5z
	 M309.4,27.5l-2.1-3l2.1-3l-0.8-0.6l-2.5,3.6l2.5,3.6L309.4,27.5z M316.8,38.5l-5-7.3l-0.8,0.6l5,7.3L316.8,38.5z"/>
<text transform="matrix(1 0 0 1 58.9843 35.4619)" class="st2 st3 st4">UPTO 70% OFF</text>
</svg>
