<?xml version="1.0" encoding="utf-8"?>
<!-- Generator: Adobe Illustrator 22.1.0, SVG Export Plug-In . SVG Version: 6.00 Build 0)  -->
<svg version="1.1" id="Layer_1" xmlns="http://www.w3.org/2000/svg" xmlns:xlink="http://www.w3.org/1999/xlink" x="0px" y="0px"
	 viewBox="0 0 90 90" style="enable-background:new 0 0 90 90;" xml:space="preserve">
<style type="text/css">
	.st0{fill:#39D3C4;}
	.st1{fill:#FFFFFF;}
</style>
<path class="st0" d="M0,0h90v90H0V0z"/>
<path class="st1" d="M83.7,29.7C83.7,29.7,83.7,29.7,83.7,29.7c-0.2,0-0.3-0.2-0.3-0.3c0-0.2-0.1-0.5-0.2-0.6
	c-0.2-0.2-0.4-0.2-0.6-0.2c-0.4,0-0.8-0.1-1.1-0.4s-0.5-0.7-0.4-1.1c0-0.2-0.1-0.5-0.2-0.6c-0.2-0.2-0.4-0.2-0.6-0.2
	c-0.2,0-0.3-0.1-0.4-0.3c0-0.2,0.1-0.3,0.3-0.4c0.4,0,0.8,0.1,1.1,0.4c0.3,0.3,0.5,0.7,0.4,1.1c0,0.2,0.1,0.5,0.2,0.6
	c0.2,0.2,0.4,0.2,0.6,0.2c0.4,0,0.8,0.1,1.1,0.4c0.3,0.3,0.5,0.7,0.4,1.1C84,29.6,83.9,29.7,83.7,29.7z M81.3,53.1
	c-0.1,0.1-0.1,0.1-0.2,0.1c-0.1,0-0.1,0-0.2-0.1L79,51.4c-0.1-0.1-0.1-0.3,0-0.4c0.1-0.1,0.3-0.1,0.4,0l1.8,1.7
	C81.4,52.8,81.4,53,81.3,53.1z M75.8,73.2l1.7-2.9l-2.9-1.7l0.4-0.7l3.7,2.1l-2.1,3.7L75.8,73.2z M74.3,43.9c-0.1,0-0.2,0-0.4,0
	c-1.2-0.2-1.9-1.3-1.7-2.5c0.2-1,1.1-1.8,2.1-1.8c0.1,0,0.2,0,0.4,0c1.2,0.2,1.9,1.3,1.7,2.5C76.2,43.2,75.3,43.9,74.3,43.9z
	 M74.6,40.3c-0.1,0-0.2,0-0.3,0c-0.7,0-1.3,0.5-1.5,1.2c-0.1,0.8,0.4,1.6,1.2,1.7c0.1,0,0.2,0,0.3,0c0.7,0,1.3-0.5,1.5-1.2
	C75.9,41.2,75.4,40.4,74.6,40.3z M73.9,12.8l-0.1-0.7c0.5-0.1,1-0.3,1.3-0.7c0.3-0.4,0.5-0.9,0.4-1.4c-0.1-0.5-0.3-1-0.7-1.3
	c-0.4-0.3-0.9-0.5-1.4-0.4l-0.1-0.7c0.7-0.1,1.4,0.1,1.9,0.5c0.6,0.4,0.9,1,1,1.7c0.1,0.7-0.1,1.4-0.5,1.9
	C75.2,12.4,74.6,12.7,73.9,12.8z M64.1,81.2l-4.4,0.3c0,0,0,0,0,0c-0.3,0-0.5-0.2-0.5-0.5c0-0.3,0.2-0.5,0.5-0.5l4.4-0.3
	c0.3,0,0.5,0.2,0.5,0.5C64.5,81,64.3,81.2,64.1,81.2z M59.9,19.5L57.1,20l-0.1-0.7l3.6-0.6l0.6,3.6l-0.7,0.1L59.9,19.5z M54.9,63.4
	l-0.6-0.9c1.4-0.9,1.8-2.8,0.9-4.2c-0.9-1.4-2.8-1.8-4.2-0.9l-0.6-0.9c1.9-1.2,4.4-0.7,5.6,1.2C57.4,59.7,56.8,62.2,54.9,63.4z
	 M40.2,34.8l4.1-6.1l7.3-0.4l-4.1,6.1L40.2,34.8z M44.9,29.8l-2.5,3.8l4.5-0.3l2.5-3.8L44.9,29.8z M43.8,11.2
	c-0.4,0.1-0.7,0.2-1.1,0.2c-1.3,0-2.5-0.8-3-2.1c-0.6-1.7,0.3-3.5,1.9-4.1C41.9,5.1,42.3,5,42.7,5c1.3,0,2.5,0.8,3,2.1
	C46.3,8.8,45.4,10.6,43.8,11.2z M44.7,7.4C44.4,6.6,43.6,6,42.7,6c-0.3,0-0.5,0-0.8,0.1c-0.6,0.2-1,0.6-1.2,1.1
	c-0.2,0.5-0.3,1.1-0.1,1.7c0.3,0.9,1.1,1.5,2.1,1.5c0.3,0,0.5,0,0.8-0.1C44.6,9.8,45.2,8.6,44.7,7.4z M38.8,56.2
	c-0.6-0.5-1.5-0.8-2.3-0.7c-0.8,0.1-1.6,0.5-2.1,1.1c-1.1,1.3-0.9,3.3,0.4,4.4l-0.7,0.9c-1.8-1.5-2.1-4.2-0.6-6
	c0.7-0.9,1.7-1.4,2.9-1.5c1.1-0.1,2.2,0.2,3.1,1L38.8,56.2z M30.4,84.7c0.1,0,0.3,0,0.3,0.2L30.3,85C30.2,84.9,30.3,84.7,30.4,84.7z
	 M26.8,28.6c-0.2,0.1-0.4,0.1-0.6,0.1c-0.3,0-0.6-0.1-0.9-0.2c-0.4-0.2-0.8-0.7-0.9-1.2c-0.1-0.3-0.2-0.5-0.5-0.6
	c-0.2-0.1-0.5-0.2-0.8-0.1c-0.5,0.2-1,0.1-1.5-0.1c-0.4-0.2-0.8-0.7-0.9-1.2c-0.1-0.2,0.1-0.4,0.3-0.5c0.2,0,0.4,0.1,0.5,0.3
	c0.1,0.3,0.2,0.5,0.5,0.6c0.2,0.1,0.5,0.2,0.8,0.1c0.5-0.2,1-0.1,1.5,0.1c0.4,0.2,0.8,0.7,0.9,1.2c0.1,0.3,0.2,0.5,0.5,0.6
	c0.2,0.1,0.5,0.2,0.8,0.1c0.2-0.1,0.4,0,0.5,0.3C27.1,28.3,27,28.5,26.8,28.6z M21.8,66.4c-0.1,0-0.1,0.1-0.2,0.1
	c-0.1,0-0.2,0-0.2-0.1l-1.7-2c-0.1-0.1-0.1-0.3,0-0.4c0.1-0.1,0.3-0.1,0.4,0l1.7,2C21.9,66.1,21.9,66.3,21.8,66.4z M15.9,42.5
	l3.4,1.9l0.5,3.9l-3.4-1.9L15.9,42.5z M16.9,46.1l2.1,1.2l-0.3-2.4l-2.1-1.2L16.9,46.1z M11.1,84.5C10.5,84.8,9.9,85,9.3,85
	c-0.3,0-0.7,0-1-0.1c-1-0.3-1.8-0.9-2.2-1.8l0.9-0.5c0.4,0.6,0.9,1.1,1.7,1.3c0.7,0.2,1.5,0.1,2.1-0.2c1.3-0.7,1.8-2.4,1.1-3.8
	l0.9-0.5C13.5,81.2,12.9,83.5,11.1,84.5z M12.5,11.5l-3,0.7c0,0-0.1,0-0.1,0c-0.2,0-0.3-0.1-0.3-0.3c0-0.2,0.1-0.4,0.3-0.4l3-0.7
	c0.2,0,0.4,0.1,0.4,0.3C12.9,11.2,12.7,11.4,12.5,11.5z M45.4,74.5l-3.1,3l-0.5-4.3l3.1-3L45.4,74.5z M44.4,71.5l-1.9,1.9l0.3,2.7
	l1.9-1.9L44.4,71.5z"/>
</svg>
