<?xml version="1.0" encoding="utf-8"?>
<!-- Generator: Adobe Illustrator 22.1.0, SVG Export Plug-In . SVG Version: 6.00 Build 0)  -->
<svg version="1.1" id="Layer_1" xmlns="http://www.w3.org/2000/svg" xmlns:xlink="http://www.w3.org/1999/xlink" x="0px" y="0px"
	 viewBox="0 0 200 200" style="enable-background:new 0 0 200 200;" xml:space="preserve">
<style type="text/css">
	.st0{fill:#101015;}
	.st1{fill:#4DA2FF;}
</style>
<path class="st0" d="M0,0h200v200H0V0z"/>
<path class="st1" d="M0,200h21.4L32,179.5l0.5,0L21.9,200h56.1l-10.5-20.5l0.5,0L78.6,200h42.7l10.6-20.5l0.5,0L121.9,200h56.1
	l-10.5-20.5l0.5,0l10.6,20.5H200 M132.4,179.5L132.4,179.5h-0.5V179h0.2l-13.2-26l0.5,0l13.3,25.9h34.6l13.3-25.9l0.5,0l-13.2,26
	h0.2v0.5h-0.5h0H132.4z M32.4,179.5L32.4,179.5h-0.5V179h0.2l-13.2-26l0.5,0L32.7,179h34.6L80.6,153l0.5,0l-13.2,26h0.2v0.5h-0.5h0
	H32.4z M181.1,152.9l-13.5-26.4l0.5,0l13.5,25.9H200v0.5h-18.9V152.9z M132.4,126.5L132.4,126.5h-0.5V126h0.2l-13.2-26l0.5,0
	l13.3,25.9h34.6l13.3-25.9l0.5,0l-13.2,26h0.2v0.5h-0.5h0H132.4z M118.9,153H100H81.1v-0.1l-13.5-26.4l0.5,0l13.5,25.9H100h18.5
	l13.5-25.9l0.5,0l-13.5,26.4V153z M32.4,126.5L32.4,126.5h-0.5V126h0.2l-13.2-26l0.5,0L32.7,126h34.6L80.6,100l0.5,0l-13.2,26h0.2
	v0.5h-0.5h0H32.4z M18.9,153H0v-0.5h18.5L32,126.5l0.5,0l-13.5,26.4V153z M181.1,99.9l-13.5-26.4l0.5,0l13.5,25.9H200v0.5h-18.9
	V99.9z M132.4,73.5L132.4,73.5h-0.5V73h0.2l-13.2-26l0.5,0L132.7,73h34.6L180.6,47l0.5,0l-13.2,26h0.2v0.5h-0.5h0H132.4z M118.9,100
	H100H81.1v-0.1L67.6,73.5l0.5,0l13.5,25.9H100h18.5L132,73.5l0.5,0l-13.5,26.4V100z M32.4,73.5L32.4,73.5h-0.5V73h0.2L18.9,47l0.5,0
	L32.7,73h34.6L80.6,47l0.5,0L67.9,73h0.2v0.5h-0.5h0H32.4z M18.9,100H0v-0.5h18.5L32,73.5l0.5,0L18.9,99.9V100z M181.1,46.9
	l-13.5-26.4l0.5,0l13.5,25.9H200V47h-18.9V46.9z M178,0l-10.1,20h0.2v0.5h-0.5h0h-35.1h0h-0.5V20h0.2L122,0H78L67.9,20h0.2v0.5h-0.5
	h0H32.4h0h-0.5V20h0.2c-1.2-2.3-6.6-13-10.1-20c0,0,0,0,0,0H0 M22.4,0l10.3,20h34.6L77.6,0H22.4z M177.6,0h-55.1l10.3,20h34.6
	L177.6,0z M81.5,46.5H100h18.5L132,20.5l0.5,0l-13.5,26.4V47H100H81.1v-0.1L67.6,20.5l0.5,0L81.5,46.5z M18.9,47H0v-0.5h18.5
	L32,20.5l0.5,0L18.9,46.9V47z"/>
</svg>
