<?xml version="1.0" encoding="utf-8"?>
<!-- Generator: Adobe Illustrator 22.1.0, SVG Export Plug-In . SVG Version: 6.00 Build 0)  -->
<svg version="1.1" id="Layer_1" xmlns="http://www.w3.org/2000/svg" xmlns:xlink="http://www.w3.org/1999/xlink" x="0px" y="0px"
	 viewBox="0 0 90 90" style="enable-background:new 0 0 90 90;" xml:space="preserve">
<style type="text/css">
	.st0{fill:#FF3939;}
	.st1{fill:#FFFFFF;}
</style>
<path class="st0" d="M0,0h90v90H0V0z"/>
<path class="st1" d="M0,90v-0.7v-1.5v0V2.3v0V0h90v0.7v1.5v0v85.4v0V90H0z M87.8,75.9v-1.5v-58v-2.3c-6.3-0.4-11.5-5.6-11.9-11.9
	h-0.8h-58h-3C13.7,8.5,8.5,13.7,2.2,14.1v1.5v58v2.3c-0.2,0-0.5,0-0.7,0c0.3,0,0.5,0,0.7,0l0,0l0,0c6.3,0.4,11.5,5.6,11.9,11.9l0,0
	l0,0c0,0.2,0,0.5,0,0.7c0-0.3,0-0.5,0-0.7h0.8h58h3c0,0.2,0,0.5,0,0.7c0-0.3,0-0.5,0-0.7l0,0l0,0C76.3,81.5,81.5,76.3,87.8,75.9
	L87.8,75.9L87.8,75.9c0.2,0,0.5,0,0.7,0C88.3,75.9,88,75.9,87.8,75.9z M45,57.5c-3,0-5.8-1.1-7.9-2.8c-2.8-2.3-4.5-5.7-4.5-9.6
	c0-6.9,5.6-12.4,12.4-12.4c3,0,5.8,1.1,7.9,2.8c2.8,2.3,4.5,5.7,4.5,9.6C57.5,51.9,51.9,57.5,45,57.5z"/>
</svg>
