<?xml version="1.0" encoding="utf-8"?>
<!-- Generator: Adobe Illustrator 22.1.0, SVG Export Plug-In . SVG Version: 6.00 Build 0)  -->
<svg version="1.1" id="Layer_1" xmlns="http://www.w3.org/2000/svg" xmlns:xlink="http://www.w3.org/1999/xlink" x="0px" y="0px"
	 viewBox="0 0 90 90" style="enable-background:new 0 0 90 90;" xml:space="preserve">
<style type="text/css">
	.st0{fill:#2395AF;}
	.st1{fill:#1A8091;}
	.st2{fill:#FFFFFF;}
</style>
<path class="st0" d="M0,0h90v90H0V0z"/>
<path class="st1" d="M45,32c7.2,0,13,5.8,13,13s-5.8,13-13,13s-13-5.8-13-13S37.8,32,45,32z"/>
<path class="st2" d="M45,36c5,0,9,4,9,9s-4,9-9,9s-9-4-9-9S40,36,45,36z"/>
<path class="st2" d="M81,90c0-5,4-9,9-9v9H81z M81,0h9v9C85,9,81,5,81,0z M0,81c5,0,9,4,9,9H0V81z M0,9V0h9C9,5,5,9,0,9z"/>
</svg>
