<?xml version="1.0" encoding="utf-8"?>
<!-- Generator: Adobe Illustrator 22.1.0, SVG Export Plug-In . SVG Version: 6.00 Build 0)  -->
<svg version="1.1" id="Layer_1" xmlns="http://www.w3.org/2000/svg" xmlns:xlink="http://www.w3.org/1999/xlink" x="0px" y="0px"
	 viewBox="0 0 90 90" style="enable-background:new 0 0 90 90;" xml:space="preserve">
<style type="text/css">
	.st0{fill:#36CE65;}
</style>
<path class="st0" d="M0,0h90v90H0V0z"/>
<path d="M54.4,68c-0.6,0.8-1.1,1.4-1.5,1.7c-0.3,0.3-0.8,0.8-1.3,1.3c-0.6,0.5-1,1-1.4,1.4c-0.4,0.4-0.7,0.7-0.9,1
	c-0.6,0.7-0.9,1.8-0.9,3.1v2.3h-5.7v-3.1c0-1.3,0.2-2.3,0.5-3s1-1.5,2.1-2.6l3.7-3.7c0.8-0.8,1.2-1.9,1.2-3.1c0-1.2-0.4-2.3-1.2-3.1
	C48,59.4,47,59,45.7,59c-1.3,0-2.3,0.4-3.2,1.2c-0.9,0.8-1.3,1.8-1.5,3.1H35c0.3-3,1.5-5.3,3.5-7c2-1.7,4.5-2.5,7.4-2.5
	c3,0,5.4,0.8,7.3,2.4c1.9,1.6,2.8,3.9,2.8,6.8C56,65,55.5,66.7,54.4,68z M11.2,25.1c-0.2,0.2-0.5,0.5-0.8,0.8
	c-0.3,0.3-0.6,0.6-0.9,0.8C9.2,27,9,27.2,8.9,27.3c-0.4,0.5-0.6,1.1-0.6,1.9v1.4H4.8v-1.9c0-0.8,0.1-1.5,0.3-1.9
	c0.2-0.4,0.6-0.9,1.3-1.6L8.7,23c0.5-0.5,0.7-1.2,0.7-1.9c0-0.8-0.3-1.4-0.8-1.9c-0.5-0.5-1.1-0.8-1.9-0.8s-1.5,0.2-2,0.7
	c-0.5,0.5-0.8,1.1-0.9,2H0c0.2-1.9,0.9-3.3,2.2-4.4c1.2-1.1,2.8-1.6,4.6-1.6c1.9,0,3.4,0.5,4.5,1.5c1.2,1,1.8,2.4,1.8,4.2
	c0,1.3-0.3,2.3-1,3.1C11.7,24.5,11.4,24.9,11.2,25.1z M4.9,33.7c0.5-0.5,1-0.7,1.7-0.7c0.7,0,1.2,0.2,1.7,0.7c0.5,0.4,0.7,1,0.7,1.6
	c0,0.6-0.2,1.2-0.7,1.6c-0.5,0.5-1,0.7-1.7,0.7c-0.7,0-1.2-0.2-1.7-0.7c-0.5-0.4-0.7-1-0.7-1.6C4.2,34.7,4.4,34.1,4.9,33.7z
	 M42.8,83.5c0.8-0.7,1.7-1.1,2.7-1.1c1.1,0,2,0.4,2.7,1.1c0.8,0.7,1.2,1.6,1.2,2.6c0,1-0.4,1.9-1.1,2.6c-0.8,0.7-1.7,1.1-2.7,1.1
	c-1.1,0-2-0.4-2.7-1.1c-0.8-0.7-1.2-1.6-1.2-2.6C41.7,85.2,42.1,84.3,42.8,83.5z"/>
</svg>
