<?xml version="1.0" encoding="utf-8"?>
<!-- Generator: Adobe Illustrator 22.1.0, SVG Export Plug-In . SVG Version: 6.00 Build 0)  -->
<svg version="1.1" id="Layer_1" xmlns="http://www.w3.org/2000/svg" xmlns:xlink="http://www.w3.org/1999/xlink" x="0px" y="0px"
	 viewBox="0 0 90 90" style="enable-background:new 0 0 90 90;" xml:space="preserve">
<style type="text/css">
	.st0{fill:#050505;}
	.st1{fill:#FFFFFF;}
</style>
<path class="st0" d="M0,0h90v90H0V0z"/>
<path class="st1" d="M89.6,45.5L78.8,56.3l-0.4,0.5L67.7,67.3l-0.5,0.5L45.5,89.6L45,90l-0.4-0.5L0.4,45.5L0,45l0.4-0.4l21.8-21.8
	l0.4-0.4l10.6-10.6l0.5-0.4L44.6,0.4L45,0l0.5,0.4l44.1,44.1L90,45L89.6,45.5z M77.4,56.1L67,45.7L56.5,56.1L67,66.5L77.4,56.1z
	 M33.9,56.5L23.5,67l10.7,10.7l10.4-10.4L33.9,56.5z M45,66.7l10.7-10.7L45,45.4L34.3,56.1L45,66.7z M33.5,56.1L23,45.7L12.6,56.1
	L23,66.5L33.5,56.1z M33.9,55.7L44.6,45L34.1,34.6L23.5,45.2L33.9,55.7z M45,44.6l10.4-10.4L45,23.7L34.6,34.1L45,44.6z M45.4,45
	l10.7,10.7l10.4-10.4L55.9,34.6L45.4,45z M66.5,67L56.1,56.5L45.4,67.2l10.4,10.4L66.5,67z M55.4,78.1L45,67.6L34.6,78.1L45,88.5
	L55.4,78.1z M1.5,45l10.7,10.7l10.4-10.4L11.9,34.6L1.5,45z M12.4,34.1L23,44.8l10.7-10.7L23,23.5L12.4,34.1z M23.5,23l10.7,10.7
	l10.4-10.4L33.9,12.6L23.5,23z M45,1.5L34.3,12.2L45,22.8l10.7-10.7L45,1.5z M56.1,12.6L45.4,23.3l10.4,10.4L66.5,23L56.1,12.6z
	 M67,23.5L56.3,34.1L67,44.8l10.7-10.7L67,23.5z M78.1,34.6L67.4,45.2l10.4,10.4L88.5,45L78.1,34.6z"/>
</svg>
