<?xml version="1.0" encoding="utf-8"?><!-- Generator: Adobe Illustrator 22.1.0, SVG Export Plug-In . SVG Version: 6.00 Build 0)  --><svg version="1.1" id="Layer_1" xmlns="http://www.w3.org/2000/svg" xmlns:xlink="http://www.w3.org/1999/xlink" x="0px" y="0px" viewBox="0 0 100 100" style="enable-background:new 0 0 100 100;" xml:space="preserve"><style type="text/css">.st0{fill:#FFFFFF;}.st1{fill:#FF4040;}</style><path class="st0" d="M0,0h100v100H0V0z"/><path class="st1" d="M90,40l10,0l0,20L90,40z M100,0v10L95,0H100z M44.8,100L40,90h19l-4.7,10L44.8,100z M40,40h19l-9.5,20L40,40zM44.8,0l9.5,0l-4.7,10L44.8,0z M0,100l0-10l10,0l-5,10L0,100z M0,40l10,0L0,60L0,40z M0,0h5L0,10V0z M100,100l-5-0.1L90,90l10,0L100,100z"/><path class="st1" d="M70.8,0l9.4,0C85.1,10.4,92,25,92,25H59L70.8,0z M75.8,0L65.6,20.3c3.1-6.5,6.5-13.8,9.6-20.3l-9.6,20.3c6.3,0,13.5,0,19.8,0C82.4,13.8,78.9,6.5,75.8,0z M25.5,40L42,75H9L25.5,40z M25.5,49.3c-3.2,6.7-6.7,14.3-9.9,21c6.3,0,13.5,0,19.8,0C32.2,63.6,28.7,56,25.5,49.3z M20.8,0l9.4,0C35.1,10.4,42,25,42,25H9L20.8,0z M25.8,0L15.6,20.3c3.1-6.5,6.5-13.8,9.6-20.3l-9.6,20.3c6.3,0,13.5,0,19.8,0C32.4,13.8,28.9,6.5,25.8,0z M30.2,100l-4.2,0c0,0-0.4-0.5-0.5-0.7c-0.1,0.2-0.3,0.7-0.3,0.7l-4.4,0l4.7-9.9L30.2,100z M92,75H59l16.5-35L92,75z M85.4,70.3c-3.2-6.7-6.8-14.3-9.9-21c-3.2,6.7-6.7,14.3-9.9,21C71.9,70.3,79.1,70.3,85.4,70.3z M80.2,100l-4.2,0c0,0-0.4-0.5-0.5-0.7c-0.1,0.2-0.3,0.7-0.3,0.7l-4.4,0l4.7-9.9L80.2,100z"/></svg>
