<?xml version="1.0" encoding="utf-8"?>
<!-- Generator: Adobe Illustrator 22.1.0, SVG Export Plug-In . SVG Version: 6.00 Build 0)  -->
<svg version="1.1" id="Layer_1" xmlns="http://www.w3.org/2000/svg" xmlns:xlink="http://www.w3.org/1999/xlink" x="0px" y="0px"
	 viewBox="0 0 90 90" style="enable-background:new 0 0 90 90;" xml:space="preserve">
<style type="text/css">
	.st0{fill:#FFFFFF;}
	.st1{fill:#FF4040;}
</style>
<path class="st0" d="M0,0h90v90H0V0z"/>
<path class="st1" d="M72,0h18l-9,18L72,0z M24.3,45h18l-9,18L24.3,45z M24.3,0h18l-9,18L24.3,0z M81,63l-9-18h18L81,63z"/>
<path class="st1" d="M56.7,18l9,18h-18L56.7,18z M9,63l9,18H0L9,63z M9,18l9,18H0L9,18z M65.7,81h-18l9-18L65.7,81z"/>
</svg>
