<?xml version="1.0" encoding="utf-8"?>
<!-- Generator: Adobe Illustrator 22.1.0, SVG Export Plug-In . SVG Version: 6.00 Build 0)  -->
<svg version="1.1" id="Layer_1" xmlns="http://www.w3.org/2000/svg" xmlns:xlink="http://www.w3.org/1999/xlink" x="0px" y="0px"
	 viewBox="0 0 90 90" style="enable-background:new 0 0 90 90;" xml:space="preserve">
<style type="text/css">
	.st0{fill:#FFFFFF;}
	.st1{fill:#FF4040;}
</style>
<path class="st0" d="M0,0h90v90H0V0z"/>
<path class="st1" d="M53.4,37.5c4.4,4.4,4.4,11.5,0,15.9s-11.5,4.4-15.9,0s-4.4-11.5,0-15.9S49,33.1,53.4,37.5z"/>
<path class="st1" d="M58.4,30.2L88.7,0L90,1.3L59.8,31.6L58.4,30.2z M0,88.7l30.2-30.2l1.3,1.3L1.3,90L0,88.7z M0,1.3L1.3,0
	l30.2,30.2l-1.3,1.3L0,1.3z M90,88.7L88.7,90L58.4,59.8l1.3-1.3L90,88.7z"/>
</svg>
