<?xml version="1.0" encoding="utf-8"?>
<!-- Generator: Adobe Illustrator 22.1.0, SVG Export Plug-In . SVG Version: 6.00 Build 0)  -->
<svg version="1.1" id="Layer_1" xmlns="http://www.w3.org/2000/svg" xmlns:xlink="http://www.w3.org/1999/xlink" x="0px" y="0px"
	 viewBox="0 0 90 90" style="enable-background:new 0 0 90 90;" xml:space="preserve">
<style type="text/css">
	.st0{fill:#FF4040;}
	.st1{fill:#FFFFFF;}
</style>
<path class="st0" d="M0,0h90v90H0V0z"/>
<path class="st1" d="M67.5,88.1c-1,1.3-2.5,1.9-4.4,1.9c-1.9,0-3.3-0.7-4.3-2c-1-1.3-1.5-3.2-1.5-5.7c0-5.1,1.9-7.6,5.8-7.6
	c1.9,0,3.4,0.7,4.4,2c1,1.3,1.5,3.2,1.5,5.6C69,84.9,68.5,86.8,67.5,88.1z M63.1,78.2c-0.6,0-1,0.3-1.2,1c-0.3,0.7-0.4,1.7-0.4,3.1
	c0,1.4,0.1,2.5,0.4,3.2c0.3,0.7,0.7,1,1.2,1c1.1,0,1.6-1.4,1.6-4.2C64.8,79.6,64.2,78.2,63.1,78.2z M45.6,89.7l13.7-24.3h4
	L49.6,89.7H45.6z M45.8,80.3c-1.9,0-3.3-0.7-4.3-2c-1-1.3-1.5-3.2-1.5-5.7c0-5.1,1.9-7.6,5.8-7.6c1.9,0,3.4,0.7,4.4,2
	c1,1.3,1.5,3.2,1.5,5.6c0,2.6-0.5,4.5-1.5,5.8C49.2,79.7,47.8,80.3,45.8,80.3z M45.8,68.5c-0.6,0-1,0.3-1.2,1
	c-0.3,0.7-0.4,1.7-0.4,3.1c0,1.4,0.1,2.5,0.4,3.2c0.3,0.7,0.7,1,1.2,1c1.1,0,1.6-1.4,1.6-4.2C47.5,69.9,46.9,68.5,45.8,68.5z
	 M14.3,41c-1.2,0-2-0.4-2.7-1.3c-0.6-0.8-0.9-2.1-0.9-3.6c0-3.2,1.2-4.9,3.6-4.9c1.2,0,2.1,0.4,2.7,1.3c0.6,0.8,0.9,2,0.9,3.6
	c0,1.6-0.3,2.9-0.9,3.7C16.4,40.6,15.5,41,14.3,41z M14.4,33.5c-0.3,0-0.6,0.2-0.8,0.7c-0.2,0.4-0.2,1.1-0.2,2c0,0.9,0.1,1.6,0.2,2
	c0.2,0.4,0.4,0.7,0.8,0.7c0.7,0,1-0.9,1-2.7C15.4,34.3,15,33.5,14.4,33.5z M3.5,40.8L12,25.2h2.5L6,40.8H3.5z M3.6,34.8
	c-1.2,0-2-0.4-2.7-1.3S0,31.5,0,29.9C0,26.6,1.2,25,3.6,25c1.2,0,2.1,0.4,2.7,1.3c0.6,0.8,0.9,2,0.9,3.6c0,1.6-0.3,2.9-0.9,3.7
	C5.7,34.4,4.8,34.8,3.6,34.8z M3.6,27.2c-0.3,0-0.6,0.2-0.8,0.7c-0.2,0.4-0.2,1.1-0.2,2s0.1,1.6,0.2,2c0.2,0.4,0.4,0.7,0.8,0.7
	c0.7,0,1-0.9,1-2.7C4.6,28.1,4.3,27.2,3.6,27.2z"/>
</svg>
