<?xml version="1.0" encoding="utf-8"?>
<!-- Generator: Adobe Illustrator 22.1.0, SVG Export Plug-In . SVG Version: 6.00 Build 0)  -->
<svg version="1.1" id="Layer_1" xmlns="http://www.w3.org/2000/svg" xmlns:xlink="http://www.w3.org/1999/xlink" x="0px" y="0px"
	 viewBox="0 0 20 20" style="enable-background:new 0 0 20 20;" xml:space="preserve">
<style type="text/css">
	.st0{fill:#FF4040;}
	.st1{fill:#FFFFFF;}
</style>
<path class="st0" d="M0,0h20v20H0V0z"/>
<path class="st1" d="M14.3,16.3c-1.2-1.6-2.2-3-4.3-3s-3.1,1.4-4.3,3C4.4,18,2.9,20,0,20v-1.7c2.1,0,3.1-1.4,4.3-3
	c1.3-1.7,2.8-3.7,5.7-3.7s4.4,2,5.7,3.7c1.2,1.6,2.3,3,4.3,3V20C17.1,20,15.6,18,14.3,16.3z M14.3,6.9c-1.2-1.6-2.2-3-4.3-3
	s-3.1,1.4-4.3,3C4.4,8.7,2.9,10.6,0,10.6V8.9c2.1,0,3.1-1.4,4.3-3C5.6,4.2,7.1,2.2,10,2.2s4.4,2,5.7,3.7c1.2,1.6,2.3,3,4.3,3v1.7
	C17.1,10.6,15.6,8.7,14.3,6.9z"/>
</svg>
