<svg 
 xmlns="http://www.w3.org/2000/svg"
 xmlns:xlink="http://www.w3.org/1999/xlink"
 width="90px" height="90px" viewBox="0 0 90 90" >
<path fill-rule="evenodd"  fill="rgb(221, 26, 44)"
 d="M-0.000,-0.000 L90.000,-0.000 L90.000,90.000 L-0.000,90.000 L-0.000,-0.000 Z"/>
<path fill-rule="evenodd"  fill="rgb(255, 255, 255)"
 d="M82.678,33.339 C81.957,34.816 79.971,35.774 79.971,35.774 C79.971,35.774 77.986,34.816 77.265,33.339 C77.202,33.223 77.130,33.014 77.130,33.014 C77.052,32.781 77.007,32.538 77.007,32.284 C77.007,31.342 77.773,30.578 78.718,30.578 C79.214,30.578 79.660,30.789 79.971,31.125 C80.284,30.789 80.730,30.578 81.226,30.578 C82.170,30.578 82.936,31.342 82.936,32.284 C82.936,32.538 82.887,32.780 82.813,33.014 C82.771,33.142 82.678,33.339 82.678,33.339 ZM84.056,73.695 C84.056,74.418 83.915,75.110 83.703,75.776 C83.585,76.144 83.319,76.706 83.319,76.706 C81.261,80.923 75.592,83.658 75.592,83.658 C75.592,83.658 69.924,80.923 67.864,76.706 C67.686,76.376 67.480,75.776 67.480,75.776 C67.259,75.112 67.130,74.418 67.130,73.695 C67.130,71.005 69.315,68.824 72.012,68.824 C73.428,68.824 74.702,69.425 75.592,70.384 C76.484,69.425 77.758,68.824 79.172,68.824 C81.868,68.824 84.056,71.005 84.056,73.695 ZM71.249,7.185 C70.293,9.143 67.661,10.412 67.661,10.412 C67.661,10.412 65.030,9.143 64.073,7.185 C63.991,7.031 63.895,6.753 63.895,6.753 C63.792,6.445 63.732,6.122 63.732,5.787 C63.732,4.538 64.747,3.525 66.000,3.525 C66.657,3.525 67.248,3.804 67.661,4.249 C68.076,3.804 68.667,3.525 69.324,3.525 C70.576,3.525 71.591,4.538 71.591,5.787 C71.591,6.122 71.526,6.444 71.427,6.753 C71.372,6.924 71.249,7.185 71.249,7.185 ZM63.542,52.924 C63.444,53.227 63.223,53.693 63.223,53.693 C61.522,57.180 56.834,59.441 56.834,59.441 C56.834,59.441 53.798,57.975 51.725,55.584 C48.933,58.114 45.835,59.610 45.835,59.610 C45.835,59.610 38.963,56.295 36.466,51.182 C36.249,50.782 35.999,50.054 35.999,50.054 C35.731,49.249 35.575,48.408 35.575,47.532 C35.575,44.270 38.225,41.625 41.495,41.625 C43.212,41.625 44.756,42.354 45.835,43.516 C46.917,42.354 48.461,41.625 50.176,41.625 C53.445,41.625 56.097,44.270 56.097,47.532 C56.097,47.635 56.087,47.735 56.083,47.837 C56.358,48.017 56.612,48.225 56.834,48.465 C57.572,47.673 58.626,47.175 59.795,47.175 C62.024,47.175 63.833,48.978 63.833,51.203 C63.833,51.800 63.717,52.372 63.542,52.924 ZM48.940,20.534 C48.205,22.039 46.183,23.015 46.183,23.015 C46.183,23.015 44.161,22.039 43.425,20.534 C43.362,20.417 43.288,20.203 43.288,20.203 C43.209,19.966 43.163,19.718 43.163,19.460 C43.163,18.500 43.943,17.722 44.905,17.722 C45.411,17.722 45.865,17.937 46.183,18.278 C46.501,17.937 46.955,17.722 47.460,17.722 C48.422,17.722 49.203,18.500 49.203,19.460 C49.203,19.718 49.153,19.965 49.077,20.203 C49.035,20.334 48.940,20.534 48.940,20.534 ZM32.046,75.747 C31.081,77.722 28.424,79.004 28.424,79.004 C28.424,79.004 25.768,77.722 24.803,75.747 C24.719,75.592 24.623,75.311 24.623,75.311 C24.519,75.000 24.459,74.674 24.459,74.335 C24.459,73.075 25.483,72.053 26.747,72.053 C27.411,72.053 28.007,72.334 28.424,72.783 C28.843,72.334 29.440,72.053 30.102,72.053 C31.366,72.053 32.391,73.075 32.391,74.335 C32.391,74.674 32.325,74.998 32.226,75.311 C32.170,75.483 32.046,75.747 32.046,75.747 ZM27.373,31.120 C25.981,33.972 22.147,35.822 22.147,35.822 C22.147,35.822 18.314,33.972 16.921,31.120 C16.800,30.897 16.661,30.491 16.661,30.491 C16.512,30.042 16.424,29.573 16.424,29.084 C16.424,27.265 17.902,25.790 19.726,25.790 C20.684,25.790 21.545,26.196 22.147,26.845 C22.751,26.196 23.612,25.790 24.569,25.790 C26.391,25.790 27.871,27.265 27.871,29.084 C27.871,29.573 27.776,30.041 27.633,30.491 C27.553,30.740 27.373,31.120 27.373,31.120 ZM19.738,8.711 C18.774,10.687 16.117,11.969 16.117,11.969 C16.117,11.969 13.461,10.687 12.495,8.711 C12.412,8.556 12.315,8.275 12.315,8.275 C12.212,7.964 12.151,7.639 12.151,7.300 C12.151,6.039 13.176,5.017 14.440,5.017 C15.103,5.017 15.700,5.299 16.117,5.748 C16.536,5.299 17.132,5.017 17.795,5.017 C19.058,5.017 20.084,6.039 20.084,7.300 C20.084,7.639 20.018,7.963 19.918,8.275 C19.863,8.447 19.738,8.711 19.738,8.711 ZM13.121,56.901 C13.121,57.239 13.056,57.564 12.956,57.876 C12.901,58.048 12.776,58.312 12.776,58.312 C11.812,60.288 9.154,61.569 9.154,61.569 C9.154,61.569 6.499,60.288 5.533,58.312 C5.449,58.157 5.353,57.876 5.353,57.876 C5.249,57.565 5.189,57.239 5.189,56.901 C5.189,55.640 6.213,54.618 7.477,54.618 C8.141,54.618 8.738,54.900 9.154,55.349 C9.573,54.900 10.170,54.618 10.833,54.618 C12.096,54.618 13.121,55.640 13.121,56.901 Z"/>
</svg>