<?xml version="1.0" encoding="utf-8"?>
<!-- Generator: Adobe Illustrator 16.0.0, SVG Export Plug-In . SVG Version: 6.00 Build 0)  -->
<!DOCTYPE svg PUBLIC "-//W3C//DTD SVG 1.1//EN" "http://www.w3.org/Graphics/SVG/1.1/DTD/svg11.dtd">
<svg version="1.1" id="Layer_1" xmlns="http://www.w3.org/2000/svg" xmlns:xlink="http://www.w3.org/1999/xlink" x="0px" y="0px"
	 width="109.833px" height="100px" viewBox="0 0 109.833 100" enable-background="new 0 0 109.833 100" xml:space="preserve">
<path fill="#00B494" d="M103.994,84.574c0-39.43-38.465-71.395-49.077-71.395c-9.285,0-49.077,31.965-49.077,71.395H103.994z"/>
<g>
	<path fill="#FFFFFF" d="M28.503,50.984l8.328-6.271l8.385,6.344l8.33-6.271l8.385,6.345l8.331-6.271l8.385,6.345l10.423-7.845
		c0.316-0.239,0.577-0.522,0.787-0.833c-1.24-1.823-2.525-3.58-3.842-5.265c-0.393,0.113-0.771,0.295-1.117,0.556l-6.24,4.697
		l-8.386-6.345l-8.33,6.271l-8.385-6.344l-8.33,6.271l-8.385-6.345l-8.328,6.271l-5.136-3.886c-1.392,1.803-2.748,3.683-4.05,5.634
		L28.503,50.984z"/>
	<path fill="#FFFFFF" d="M21.448,70.932l10.674-8.037l10.747,8.133l10.676-8.038l10.746,8.132l10.677-8.038l10.749,8.132
		l12.769-9.611c0.375-0.281,0.675-0.626,0.9-1.005c-0.665-1.744-1.391-3.457-2.167-5.136c-0.974-0.236-2.042-0.051-2.904,0.6
		l-8.587,6.462l-10.75-8.131l-10.676,8.037l-10.746-8.132L42.88,62.336l-10.747-8.132L21.458,62.24l-8.658-6.55
		c-0.022-0.018-0.046-0.031-0.069-0.048c-1.013,2.146-1.941,4.35-2.765,6.601L21.448,70.932z"/>
</g>
<path fill="#ED5D51" d="M109.833,94.482c0,3.047-2.458,5.518-5.491,5.518H5.492C2.458,100,0,97.529,0,94.482V83.445
	c0-3.048,2.458-5.518,5.492-5.518h98.85c3.033,0,5.491,2.47,5.491,5.518V94.482z"/>
<path opacity="0.1" fill="#414042" enable-background="new    " d="M9.365,94.482V83.445c0-3.048,2.458-5.518,5.492-5.518h0.722
	C19.119,46.199,46.964,20.488,59.783,14.5c-1.942-0.866-3.603-1.32-4.866-1.32c-8.758,0-44.651,28.434-48.703,64.748H5.492
	C2.458,77.928,0,80.397,0,83.445v11.037C0,97.529,2.458,100,5.492,100h9.365C11.823,100,9.365,97.529,9.365,94.482z"/>
<ellipse fill="#ED5D51" cx="54.917" cy="12.18" rx="12.12" ry="12.18"/>
<path opacity="0.1" fill="#414042" enable-background="new    " d="M50.061,12.181c0-5.455,3.568-10.072,8.487-11.623
	c-1.146-0.361-2.366-0.557-3.632-0.557c-6.694,0-12.121,5.452-12.121,12.18c0,6.726,5.427,12.179,12.121,12.179
	c1.266,0,2.485-0.195,3.632-0.557C53.629,22.251,50.061,17.635,50.061,12.181z"/>
</svg>
