<?xml version="1.0" encoding="utf-8"?>
<!-- Generator: Adobe Illustrator 16.0.0, SVG Export Plug-In . SVG Version: 6.00 Build 0)  -->
<!DOCTYPE svg PUBLIC "-//W3C//DTD SVG 1.1//EN" "http://www.w3.org/Graphics/SVG/1.1/DTD/svg11.dtd">
<svg version="1.1" id="Layer_1" xmlns="http://www.w3.org/2000/svg" xmlns:xlink="http://www.w3.org/1999/xlink" x="0px" y="0px"
	 width="139.629px" height="100px" viewBox="0 0 139.629 100" enable-background="new 0 0 139.629 100" xml:space="preserve">
<g>
	<g>
		<path fill="#91DC5A" d="M137.833,9.794c-8.21-3.583-24.533-0.641-44.036,7.462c-0.292,1.539-1.048,2.978-2.25,4.059
			c-0.364,0.328-0.771,0.629-1.208,0.887c1.643,0.947,2.829,2.468,3.352,4.296c0.531,1.864,0.304,3.819-0.644,5.507
			c-1.278,2.295-3.707,3.719-6.333,3.719c-1.227,0-2.447-0.316-3.524-0.92c-0.149-0.082-0.315-0.188-0.501-0.307
			c0.015,0.218,0.024,0.419,0.024,0.583c0,3.995-3.249,7.247-7.25,7.247c-3.998,0-7.247-3.249-7.247-7.247
			c0-0.17,0.006-0.368,0.021-0.583c-0.185,0.118-0.352,0.222-0.501,0.307c-1.075,0.601-2.295,0.917-3.521,0.917
			c-0.374,0-0.726-0.091-1.087-0.146L28.779,57.57C11.25,72.698,0.312,87.371,0.001,96.91c-0.036,1.107,0.543,2.146,1.506,2.695
			s2.149,0.522,3.088-0.066l133.644-84.465c0.938-0.592,1.467-1.651,1.382-2.756C139.539,11.206,138.849,10.241,137.833,9.794z"/>
		<path fill="#91DC5A" d="M56.992,28.675c-0.021-0.723,0.037-1.455,0.24-2.177c0.519-1.831,1.707-3.352,3.349-4.299
			c-3.418-1.967-4.633-6.348-2.705-9.803c1.278-2.292,3.707-3.719,6.333-3.719c1.227,0,2.447,0.315,3.519,0.92
			c0.152,0.079,0.316,0.185,0.504,0.303c-0.015-0.218-0.021-0.416-0.021-0.586c0-2.823,1.64-5.249,4.001-6.445
			c-10.549-4.454-23.03-3.856-33.44,2.726c-8.121,5.127-13.868,13.279-15.981,22.648c-1.594,7.071-1.014,14.396,1.57,21.057
			L56.992,28.675z"/>
		<path fill="#91DC5A" d="M72.724,17.536c-2.316-2.322-5.353-4.669-6.47-5.289c-0.649-0.361-1.351-0.537-2.046-0.537
			c-1.475,0-2.908,0.777-3.679,2.159c-1.132,2.031-0.404,4.599,1.624,5.732c1.063,0.585,4.344,1.833,7.401,2.595
			c-3.06,0.765-6.342,2.01-7.401,2.599c-2.031,1.132-2.757,3.698-1.624,5.726c0.771,1.381,2.207,2.162,3.683,2.162
			c0.692,0,1.394-0.173,2.043-0.535c1.117-0.625,4.153-2.972,6.47-5.291c-0.902,3.151-1.473,6.946-1.473,8.224
			c0,2.325,1.889,4.211,4.211,4.211c2.328,0,4.214-1.886,4.214-4.211c0-1.278-0.571-5.073-1.473-8.224
			c2.316,2.322,5.353,4.669,6.47,5.294c0.649,0.361,1.351,0.534,2.046,0.534c1.476,0,2.912-0.78,3.683-2.162
			c1.133-2.028,0.407-4.596-1.627-5.726c-1.06-0.592-4.345-1.834-7.401-2.599c3.06-0.765,6.342-2.01,7.401-2.596
			c2.034-1.133,2.757-3.701,1.627-5.732c-0.771-1.381-2.207-2.159-3.683-2.159c-0.695,0-1.396,0.176-2.046,0.538
			c-1.117,0.622-4.153,2.969-6.47,5.289c0.901-3.154,1.473-6.946,1.473-8.225c0-2.325-1.886-4.21-4.214-4.21
			c-2.325,0-4.211,1.885-4.211,4.21C71.249,10.593,71.819,14.385,72.724,17.536z M79.537,19.625
			c1.427,2.253,0.756,5.231-1.494,6.655c-2.255,1.427-5.242,0.753-6.663-1.5c-1.421-2.253-0.75-5.237,1.506-6.658
			C75.14,16.701,78.113,17.372,79.537,19.625z"/>
	</g>
</g>
</svg>
