<?xml version="1.0" encoding="utf-8"?>
<!-- Generator: Adobe Illustrator 16.0.0, SVG Export Plug-In . SVG Version: 6.00 Build 0)  -->
<!DOCTYPE svg PUBLIC "-//W3C//DTD SVG 1.1//EN" "http://www.w3.org/Graphics/SVG/1.1/DTD/svg11.dtd">
<svg version="1.1" id="Layer_1" xmlns="http://www.w3.org/2000/svg" xmlns:xlink="http://www.w3.org/1999/xlink" x="0px" y="0px"
	 width="100px" height="100px" viewBox="0 0 100 100" enable-background="new 0 0 100 100" xml:space="preserve">
<circle fill="#E16B5A" cx="50" cy="50" r="50"/>
<path fill="#263740" d="M50,64.063c-16.009,0-30.805,4.373-42.811,11.777C15.948,90.319,31.842,100,50,100
	c18.158,0,34.053-9.681,42.811-24.16C80.805,68.436,66.009,64.063,50,64.063z"/>
<path fill="#1E2C33" d="M50,64.063c-10.556,0-20.578,1.912-29.627,5.33c7.823-2.433,16.274-3.768,25.098-3.768
	c14.18,0,27.198,3.853,38.593,9.361c2.752,1.332,2.017,5.815,0.771,7.405C79.435,89.273,72.27,94.701,64.021,98
	C76.166,94.458,86.4,86.436,92.811,75.841C80.805,68.436,66.009,64.063,50,64.063z"/>
<path fill="#00804E" d="M26.958,59.112c-0.679,2.047,5.172,5.637,11.876,10.101c6.705,4.465,12.274,8.477,13.901,7.061
	c1.626-1.416-1.91-8.463-9.572-13.563C35.503,57.61,27.638,57.064,26.958,59.112z"/>
<path fill="#007346" d="M43.164,62.711c-5.613-3.736-11.323-5.021-14.249-4.639c3.129,0.314,7.548,1.738,11.905,4.639
	c7.633,5.082,11.169,12.092,9.587,13.544c1.056,0.374,1.86,0.428,2.328,0.019C54.363,74.857,50.826,67.811,43.164,62.711z"/>
<path fill="#00804E" d="M50,78.906c-0.862,0-1.563-0.7-1.563-1.563V39.063c0-0.862,0.7-1.563,1.563-1.563s1.563,0.7,1.563,1.563
	v38.281C51.563,78.206,50.862,78.906,50,78.906z"/>
<g>
	<ellipse fill="#E6BF5A" cx="50" cy="30.859" rx="2.344" ry="8.203"/>
	<ellipse fill="#E6BF5A" cx="50" cy="47.266" rx="2.344" ry="8.203"/>
	<ellipse fill="#E6BF5A" cx="41.797" cy="39.063" rx="8.203" ry="2.344"/>
	<ellipse fill="#E6BF5A" cx="58.203" cy="39.063" rx="8.203" ry="2.344"/>
	
		<ellipse transform="matrix(0.7071 0.7071 -0.7071 0.7071 36.4649 -21.5247)" fill="#E6BF5A" cx="44.215" cy="33.255" rx="8.203" ry="2.344"/>
	
		<ellipse transform="matrix(0.7071 0.7071 -0.7071 0.7071 48.0635 -26.3104)" fill="#E6BF5A" cx="55.791" cy="44.863" rx="8.203" ry="2.344"/>
	
		<ellipse transform="matrix(0.7071 -0.7071 0.7071 0.7071 -18.7674 44.3842)" fill="#E6BF5A" cx="44.191" cy="44.846" rx="8.203" ry="2.344"/>
	
		<ellipse transform="matrix(0.7071 -0.7071 0.7071 0.7071 -7.1894 49.2034)" fill="#E6BF5A" cx="55.799" cy="33.28" rx="8.203" ry="2.344"/>
	
		<ellipse transform="matrix(0.3827 0.9239 -0.9239 0.3827 58.0178 -23.861)" fill="#E6BF5A" cx="46.865" cy="31.485" rx="8.203" ry="2.344"/>
	
		<ellipse transform="matrix(0.3826 0.9239 -0.9239 0.3826 75.8998 -20.2915)" fill="#E6BF5A" cx="53.133" cy="46.646" rx="8.203" ry="2.344"/>
	
		<ellipse transform="matrix(0.9239 -0.3826 0.3826 0.9239 -12.9196 19.4433)" fill="#E6BF5A" cx="42.425" cy="42.204" rx="8.203" ry="2.344"/>
	
		<ellipse transform="matrix(0.9239 -0.3826 0.3826 0.9239 -9.3666 24.7629)" fill="#E6BF5A" cx="57.574" cy="35.93" rx="8.203" ry="2.344"/>
	
		<ellipse transform="matrix(0.9239 0.3827 -0.3827 0.9239 16.9813 -13.4968)" fill="#E6BF5A" cx="42.416" cy="35.935" rx="8.203" ry="2.344"/>
	
		<ellipse transform="matrix(0.9239 0.3826 -0.3826 0.9239 20.5255 -18.8199)" fill="#E6BF5A" cx="57.581" cy="42.197" rx="8.203" ry="2.344"/>
	
		<ellipse transform="matrix(0.3828 -0.9238 0.9238 0.3828 -14.1709 72.083)" fill="#E6BF5A" cx="46.863" cy="46.647" rx="8.202" ry="2.344"/>
	
		<ellipse transform="matrix(0.3827 -0.9239 0.9239 0.3827 3.7153 68.535)" fill="#E6BF5A" cx="53.143" cy="31.487" rx="8.204" ry="2.344"/>
</g>
<g>
	<circle fill="#FFE399" cx="50" cy="29.688" r="3.906"/>
	<circle fill="#FFE399" cx="50" cy="47.656" r="3.906"/>
	<circle fill="#FFE399" cx="41.016" cy="38.672" r="3.906"/>
	<circle fill="#FFE399" cx="58.984" cy="38.672" r="3.906"/>
	<circle fill="#FFE399" cx="43.647" cy="32.32" r="3.906"/>
	<circle fill="#FFE399" cx="56.352" cy="45.025" r="3.906"/>
	<circle fill="#FFE399" cx="43.647" cy="45.025" r="3.906"/>
	<circle fill="#FFE399" cx="56.352" cy="32.32" r="3.906"/>
</g>
<circle fill="#FFD464" cx="50" cy="38.281" r="9.375"/>
<path fill="#F2C95F" d="M50,28.906c-0.263,0-0.522,0.018-0.781,0.04c4.811,0.398,8.594,4.422,8.594,9.335s-3.783,8.938-8.594,9.335
	c0.259,0.021,0.518,0.04,0.781,0.04c5.178,0,9.375-4.198,9.375-9.375S55.178,28.906,50,28.906z"/>
<circle fill="#C23527" cx="50" cy="38.281" r="4.688"/>
<path fill="#B33124" d="M50,33.594c-0.267,0-0.526,0.027-0.781,0.07c2.217,0.374,3.906,2.295,3.906,4.617s-1.689,4.245-3.906,4.617
	c0.255,0.043,0.515,0.07,0.781,0.07c2.589,0,4.688-2.1,4.688-4.688S52.589,33.594,50,33.594z"/>
<path fill="#00804E" d="M74.947,61.456c0.678,2.047-5.173,5.637-11.878,10.101c-6.704,4.465-12.274,8.478-13.9,7.061
	c-1.626-1.416,1.911-8.463,9.571-13.563C66.401,59.954,74.268,59.408,74.947,61.456z"/>
<path fill="#007346" d="M74.947,61.456c-0.293-0.884-1.928-1.28-4.301-1.041c1.067,0.14,1.774,0.493,1.957,1.041
	c0.678,2.047-5.173,5.637-11.878,10.101c-4.772,3.179-8.962,6.116-11.572,7.042c0.006,0.005,0.008,0.015,0.015,0.019
	c1.627,1.416,7.196-2.596,13.9-7.061C69.773,67.093,75.625,63.503,74.947,61.456z"/>
</svg>
