<?xml version="1.0" encoding="utf-8"?>
<!-- Generator: Adobe Illustrator 16.0.0, SVG Export Plug-In . SVG Version: 6.00 Build 0)  -->
<!DOCTYPE svg PUBLIC "-//W3C//DTD SVG 1.1//EN" "http://www.w3.org/Graphics/SVG/1.1/DTD/svg11.dtd">
<svg version="1.1" id="Layer_1" xmlns="http://www.w3.org/2000/svg" xmlns:xlink="http://www.w3.org/1999/xlink" x="0px" y="0px"
	 width="78.681px" height="100px" viewBox="0 0 78.681 100" enable-background="new 0 0 78.681 100" xml:space="preserve">
<g>
	<g>
		<path fill="#91DC5A" d="M39.561,75.245c-8.782,0-16.371-4.447-19.969-10.875c-3.788,4.05-6.075,9.261-6.075,14.96
			C13.518,92.217,25.179,100,39.561,100c14.386,0,26.043-7.787,26.043-20.669c0-5.699-2.283-10.906-6.07-14.96
			C55.936,70.798,48.347,75.245,39.561,75.245z"/>
		<path fill="#91DC5A" d="M39.561,47.918c7.403,0,13.405-6.002,13.405-13.405c0-3.128-1.121-5.975-2.919-8.258h1.225
			c1.248,0,2.278-0.967,2.278-2.151v-1.333c0-1.18-1.03-2.151-2.278-2.151h-22.83c-1.256,0-2.287,0.972-2.287,2.151v1.333
			c0,1.184,1.031,2.151,2.287,2.151h0.638c-1.794,2.283-2.92,5.13-2.92,8.258C26.16,41.912,32.162,47.918,39.561,47.918z
			 M39.651,32.307c1.383,0,2.5,1.271,2.5,2.843c0,1.568-2.5,4.393-2.5,4.393s-2.495-2.825-2.495-4.393
			C37.161,33.582,38.272,32.307,39.651,32.307z M35.186,32.307c-1.243,0-2.255-1.008-2.255-2.25c0-1.243,1.013-2.251,2.255-2.251
			c1.234,0,2.251,1.008,2.251,2.251C37.437,31.299,36.419,32.307,35.186,32.307z M41.689,30.057c0-1.243,1.017-2.251,2.251-2.251
			c1.243,0,2.255,1.008,2.255,2.251c0,1.243-1.013,2.25-2.255,2.25C42.702,32.307,41.689,31.304,41.689,30.057z M39.561,45.139
			c-4.71,0-8.529-4.741-8.529-7.214c0-2.458,3.819,4.326,8.529,4.326c4.714,0,8.528-6.784,8.528-4.326
			C48.089,40.398,44.275,45.139,39.561,45.139z"/>
		<path fill="#91DC5A" d="M72.306,41.948c2.139-2.382,4.059-4.267,4.99-4.334c0.822-0.059,1.428-0.764,1.383-1.578
			c-0.063-0.818-0.786-1.433-1.586-1.378c-2.518,0.176-5.587,3.494-10.45,9.36c0.497-2.726,0.443-5.415-1.225-6.82
			c-0.628-0.524-1.564-0.447-2.088,0.181c-0.524,0.628-0.448,1.56,0.176,2.084c1.225,1.035-0.045,6.422-1.966,10.707
			c-1.004,1.184-1.993,2.332-2.975,3.39c-0.659-3.674-2.757-6.956-5.816-9.401c-2.979,4.063-7.774,6.712-13.184,6.712
			c-5.411,0-10.206-2.648-13.189-6.712c-3.173,2.531-5.324,5.957-5.894,9.803c-1.094-1.175-2.219-2.472-3.34-3.796
			c-1.921-4.285-3.191-9.677-1.971-10.708c0.628-0.52,0.705-1.451,0.181-2.079c-0.52-0.628-1.455-0.705-2.088-0.181
			c-1.668,1.406-1.731,4.095-1.225,6.82c-4.863-5.867-7.937-9.184-10.454-9.36c-0.8-0.059-1.523,0.561-1.582,1.378
			c-0.054,0.813,0.561,1.519,1.379,1.578c0.926,0.068,2.856,1.952,4.99,4.334c-2.269,0.054-4.972,0.7-6.002,3.385
			c-0.23,0.61,0.077,1.292,0.678,1.532c0.14,0.054,0.285,0.081,0.434,0.081c0.47,0,0.922-0.289,1.103-0.764
			c0.85-2.215,4.357-1.975,5.943-1.74c1.026,1.211,2.029,2.436,2.947,3.553c3.051,3.715,6.17,7.494,9.026,10.214
			c1.265,7.955,9.306,14.084,19.051,14.084c9.957,0,18.147-6.396,19.137-14.595C61.4,55.028,64.32,51.485,67.185,48
			c0.918-1.116,1.931-2.346,2.943-3.553c1.6-0.235,5.098-0.475,5.947,1.74c0.181,0.47,0.629,0.764,1.104,0.764
			c0.135,0,0.28-0.027,0.429-0.081c0.61-0.24,0.913-0.922,0.678-1.532C77.278,42.653,74.58,42.002,72.306,41.948z"/>
		<path fill="#91DC5A" d="M45.012,10.314l5.586,0.94c-0.031,0.145-0.049,0.285-0.049,0.438c0,1.442,1.18,2.617,2.612,2.617
			c1.446,0,2.617-1.175,2.617-2.617c0-1.441-1.166-2.612-2.612-2.612c-0.782,0-1.474,0.353-1.958,0.895L39.854,0L29.97,19.76h19.765
			L45.012,10.314z"/>
	</g>
</g>
</svg>
