<?xml version="1.0" encoding="utf-8"?>
<!-- Generator: Adobe Illustrator 16.0.0, SVG Export Plug-In . SVG Version: 6.00 Build 0)  -->
<!DOCTYPE svg PUBLIC "-//W3C//DTD SVG 1.1//EN" "http://www.w3.org/Graphics/SVG/1.1/DTD/svg11.dtd">
<svg version="1.1" id="Layer_1" xmlns="http://www.w3.org/2000/svg" xmlns:xlink="http://www.w3.org/1999/xlink" x="0px" y="0px"
	 width="95.356px" height="100px" viewBox="0 0 95.356 100" enable-background="new 0 0 95.356 100" xml:space="preserve">
<g>
	
		<rect x="50.981" y="17.449" transform="matrix(0.866 -0.5 0.5 0.866 -5.9219 32.2199)" fill="#EA86A5" width="12.36" height="19.422"/>
	
		<rect x="70.864" y="5.969" transform="matrix(0.866 -0.5 0.5 0.866 2.4821 40.6236)" fill="#EA86A5" width="12.36" height="19.422"/>
</g>
<polygon fill="#D8D8D8" points="71.958,29.83 73.487,28.947 63.776,12.126 62.247,13.009 60.717,13.892 70.43,30.712 "/>
<path fill="#56B463" d="M47.678,96.469c23.281,0,42.412-10.146,44.035-22.957H3.643C5.267,86.323,24.397,96.469,47.678,96.469z"/>
<g>
	<path fill="#314E55" d="M93.59,69.98H1.766C0.791,69.98,0,70.771,0,71.746C0,87.325,21.389,100,47.678,100
		c26.289,0,47.678-12.675,47.678-28.254C95.356,70.771,94.566,69.98,93.59,69.98z M47.678,96.469
		c-23.281,0-42.412-10.146-44.035-22.957h88.07C90.09,86.323,70.959,96.469,47.678,96.469z"/>
	<path fill="#314E55" d="M54.49,41.955c0.328,0.567,0.921,0.883,1.532,0.883c0.299,0,0.604-0.076,0.881-0.236l13.763-7.946l0.001,0
		l3.059-1.766l16.822-9.712c0.405-0.234,0.701-0.621,0.822-1.073c0.121-0.452,0.059-0.935-0.176-1.34L79.715,0.885
		c-0.488-0.845-1.57-1.137-2.412-0.647L63.54,8.184l0,0L60.481,9.95l-16.823,9.712c-0.405,0.234-0.702,0.621-0.823,1.073
		c-0.121,0.452-0.058,0.935,0.176,1.34L54.49,41.955z M62.247,13.009l1.529-0.883l9.712,16.82l-1.528,0.883l-1.529,0.882
		l-9.713-16.82L62.247,13.009z M77.54,4.18L87.251,21l-10.705,6.18l-9.712-16.82L77.54,4.18z M57.659,15.658l9.712,16.82
		l-10.704,6.181l-9.712-16.821L57.659,15.658z"/>
	
		<rect x="33.186" y="24.953" transform="matrix(0.7071 -0.7071 0.7071 0.7071 -8.2902 33.4227)" fill="#314E55" width="6.028" height="3.531"/>
	
		<rect x="25.605" y="32.53" transform="matrix(0.7071 -0.7071 0.7071 0.7071 -17.1169 29.7646)" fill="#314E55" width="3.531" height="6.029"/>
	<rect x="22.957" y="41.727" fill="#314E55" width="3.531" height="5.298"/>
	
		<rect x="37.967" y="36.065" transform="matrix(0.7071 -0.7071 0.7071 0.7071 -15.9959 39.5411)" fill="#314E55" width="3.531" height="6.029"/>
	
		<rect x="36.2" y="43.125" transform="matrix(0.7071 -0.7071 0.7071 0.7071 -21.5056 40.3598)" fill="#314E55" width="3.531" height="6.029"/>
	<rect x="31.786" y="52.322" fill="#314E55" width="3.531" height="5.298"/>
	
		<rect x="48.561" y="43.126" transform="matrix(0.7072 -0.707 0.707 0.7072 -17.8858 49.0937)" fill="#314E55" width="3.531" height="6.028"/>
	
		<rect x="41.499" y="53.722" transform="matrix(0.707 -0.7072 0.7072 0.707 -27.4486 47.2242)" fill="#314E55" width="3.532" height="6.029"/>
</g>
</svg>
