<?xml version="1.0" encoding="utf-8"?>
<!-- Generator: Adobe Illustrator 16.0.0, SVG Export Plug-In . SVG Version: 6.00 Build 0)  -->
<!DOCTYPE svg PUBLIC "-//W3C//DTD SVG 1.1//EN" "http://www.w3.org/Graphics/SVG/1.1/DTD/svg11.dtd">
<svg version="1.1" id="Layer_1" xmlns="http://www.w3.org/2000/svg" xmlns:xlink="http://www.w3.org/1999/xlink" x="0px" y="0px"
	 width="100.592px" height="100px" viewBox="0 0 100.592 100" enable-background="new 0 0 100.592 100" xml:space="preserve">
<g>
	<g>
		<g>
			<path fill="#C79832" d="M30.61,8.091V5.466c0-0.606-0.169-1.205-0.484-1.723l-1.898-3.159C28.007,0.222,27.616,0,27.191,0
				c-0.424,0-0.815,0.222-1.034,0.584l-1.918,3.159c-0.313,0.521-0.502,1.116-0.502,1.723v2.625
				c1.118-0.209,2.272-0.318,3.437-0.318S29.492,7.885,30.61,8.091z"/>
			<path fill="#C79832" d="M12.049,36.431l-1.856,1.856c-0.429,0.429-0.734,0.969-0.88,1.556l-0.896,3.572
				c-0.102,0.411,0.018,0.845,0.32,1.145c0.298,0.298,0.731,0.418,1.145,0.317l3.568-0.893c0.589-0.146,1.127-0.453,1.558-0.881
				l1.856-1.855C14.974,39.951,13.34,38.318,12.049,36.431z"/>
			<path fill="#C79832" d="M1.677,27.137l3.157,1.921c0.52,0.313,1.116,0.504,1.723,0.504h2.616
				c-0.207-1.118-0.318-2.272-0.318-3.434c0-1.163,0.111-2.316,0.318-3.435H6.556c-0.607,0-1.203,0.169-1.723,0.482l-3.157,1.896
				c-0.362,0.218-0.584,0.611-0.584,1.034S1.314,26.919,1.677,27.137z"/>
			<path fill="#C79832" d="M9.313,12.366c0.146,0.589,0.451,1.127,0.88,1.556l1.856,1.854c1.292-1.885,2.925-3.519,4.815-4.811
				l-1.856-1.856c-0.431-0.429-0.971-0.733-1.558-0.88L9.877,7.335C9.466,7.233,9.032,7.354,8.734,7.653
				c-0.3,0.296-0.42,0.731-0.318,1.143L9.313,12.366z"/>
			<path fill="#C79832" d="M15.888,45.611l0.534,3.643c0.06,0.418,0.338,0.773,0.727,0.936c0.392,0.163,0.838,0.109,1.178-0.142
				l2.961-2.185c0.489-0.36,0.872-0.846,1.105-1.407l1.007-2.414c-2.276-0.48-4.399-1.386-6.28-2.626l-1.009,2.422
				C15.881,44.395,15.799,45.012,15.888,45.611z"/>
			<path fill="#C79832" d="M38.276,8.369c0.231-0.563,0.309-1.174,0.223-1.776l-0.534-3.641c-0.058-0.418-0.335-0.774-0.727-0.938
				c-0.391-0.163-0.838-0.109-1.178,0.142l-2.965,2.185c-0.489,0.36-0.872,0.847-1.103,1.407l-1.009,2.42
				c2.276,0.48,4.399,1.387,6.279,2.63L38.276,8.369z"/>
			<path fill="#C79832" d="M6.812,30.807c-0.56,0.231-1.049,0.609-1.414,1.098l-2.196,2.952c-0.253,0.338-0.309,0.787-0.149,1.176
				c0.163,0.391,0.516,0.669,0.936,0.733l3.641,0.552c0.6,0.091,1.214,0.015,1.774-0.216l2.427-0.998
				c-1.231-1.887-2.127-4.012-2.599-6.293L6.812,30.807z"/>
			<path fill="#C79832" d="M5.432,20.204c0.36,0.489,0.847,0.872,1.407,1.105l2.412,1.004c0.48-2.276,1.385-4.399,2.629-6.282
				l-2.421-1.007c-0.56-0.233-1.173-0.311-1.773-0.222L4.04,15.335c-0.416,0.06-0.774,0.336-0.934,0.727
				c-0.165,0.389-0.109,0.836,0.14,1.178L5.432,20.204z"/>
			<path fill="#C79832" d="M17.186,10.748c1.887-1.231,4.015-2.127,6.293-2.599L22.483,5.73c-0.231-0.56-0.609-1.049-1.096-1.412
				l-2.954-2.201c-0.338-0.251-0.785-0.309-1.174-0.146c-0.394,0.16-0.671,0.516-0.733,0.934l-0.551,3.641
				c-0.089,0.6-0.018,1.214,0.213,1.774L17.186,10.748z"/>
			<path fill="#C79832" d="M100.199,70.639L84.001,31.107c-1.827-4.461-6.131-7.347-10.952-7.347c-4.823,0-9.122,2.883-10.956,7.347
				l-1.191,2.912l-5.615-13.704c-1.768-4.304-5.829-7.138-10.441-7.333c0.093-0.198,0.169-0.404,0.222-0.618l0.894-3.572
				c0.103-0.411-0.018-0.845-0.318-1.145c-0.3-0.298-0.731-0.417-1.145-0.315l-3.572,0.894c-0.589,0.146-1.127,0.454-1.554,0.88
				l-1.861,1.86c1.111,0.758,2.13,1.641,3.045,2.619c-0.736,0.247-1.442,0.563-2.112,0.945c-2.91-2.83-6.877-4.572-11.256-4.572
				c-8.916,0-16.149,7.229-16.149,16.146c0,7.996,5.813,14.633,13.444,15.92L11.518,73.652c-8.24,2.933-10.892,9.452-11.167,10.19
				c-1.061,2.825,0.371,5.975,3.196,7.033c2.823,1.063,5.975-0.374,7.033-3.197c0.009-0.026,1.194-2.545,4.661-3.752
				c3.532-1.24,11.866-1.869,27.951,7.767c10.041,6.013,18.372,8.38,25.285,8.305c18.555-0.2,30.533-23.115,31.024-23.987
				C100.608,74.035,100.931,72.428,100.199,70.639z M48.806,82.322c-9.392-5.626-17.758-8.892-25.023-9.779l19.708-48.076
				c0.283-0.689,1.405-0.689,1.685,0l25.652,62.569l0.771,1.877C66.007,89.826,58.729,88.266,48.806,82.322z M81.327,83.84
				L66.683,48.119l5.521-12.867c0.282-0.689,1.405-0.689,1.689,0l15.514,37.844C88.974,74.119,84.241,81.051,81.327,83.84z"/>
		</g>
	</g>
</g>
</svg>
