<?xml version="1.0" encoding="utf-8"?>
<!-- Generator: Adobe Illustrator 16.0.0, SVG Export Plug-In . SVG Version: 6.00 Build 0)  -->
<!DOCTYPE svg PUBLIC "-//W3C//DTD SVG 1.1//EN" "http://www.w3.org/Graphics/SVG/1.1/DTD/svg11.dtd">
<svg version="1.1" id="Layer_1" xmlns="http://www.w3.org/2000/svg" xmlns:xlink="http://www.w3.org/1999/xlink" x="0px" y="0px"
	 width="229.928px" height="100px" viewBox="0 0 229.928 100" enable-background="new 0 0 229.928 100" xml:space="preserve">
<g>
	<g>
		<g>
			<path fill="#D80027" d="M39.485,0.005c-3.816,0-6.642,3.578-5.773,7.292c8.892,37.992,41.968,63.604,81.272,63.78
				c39.479-0.182,72.359-25.788,81.231-63.785c0.867-3.714-1.963-7.287-5.773-7.287H39.485L39.485,0.005z M63.184,15.468
				c-5.375,0-8.105-2.302-8.105-5.143s2.73-5.143,8.105-5.143c5.375,0,9.735,5.143,9.735,5.143S68.559,15.468,63.184,15.468z
				 M86.036,41.609c-3.8,3.801-7.358,4.098-9.367,2.095c-2.003-2.009-1.706-5.566,2.095-9.366c3.805-3.801,10.522-3.25,10.522-3.25
				S89.841,37.805,86.036,41.609z M114.958,57.108c-2.775-0.102-5.001-2.821-5.001-8.101c0-4.845,4.179-8.867,5.001-9.613
				c0.823,0.742,5.001,4.764,5.001,9.613C119.964,54.297,117.734,57.018,114.958,57.108z M153.252,43.704
				c-2.009,2.003-5.571,1.706-9.366-2.095c-3.801-3.805-3.251-10.521-3.251-10.521s6.718-0.551,10.522,3.25
				C154.958,38.138,155.261,41.695,153.252,43.704z M166.737,15.468c-5.369,0-9.734-5.143-9.734-5.143s4.355-5.143,9.734-5.143
				c5.37,0,8.101,2.307,8.101,5.143C174.847,13.172,172.118,15.468,166.737,15.468z"/>
			<g>
				<polygon fill="#D80027" points="114.943,100 114.918,100 114.908,100 				"/>
				<path fill="#D80027" d="M224.078,0.005h-11.047c-2.836,0-5.203,2.079-5.734,4.88c-8.487,45.107-44.93,75.262-92.338,75.388
					C67.555,80.146,31.103,49.992,22.624,4.88C22.099,2.079,19.737,0,16.886,0H5.844c-3.75,0-6.485,3.477-5.713,7.15
					c11.375,54.142,58.441,92.658,114.792,92.845C171.279,99.809,218.41,61.302,229.794,7.15
					C230.572,3.482,227.832,0.005,224.078,0.005z"/>
			</g>
		</g>
	</g>
</g>
</svg>
