<?xml version="1.0" encoding="utf-8"?>
<!-- Generator: Adobe Illustrator 16.0.0, SVG Export Plug-In . SVG Version: 6.00 Build 0)  -->
<!DOCTYPE svg PUBLIC "-//W3C//DTD SVG 1.1//EN" "http://www.w3.org/Graphics/SVG/1.1/DTD/svg11.dtd">
<svg version="1.1" id="Layer_1" xmlns="http://www.w3.org/2000/svg" xmlns:xlink="http://www.w3.org/1999/xlink" x="0px" y="0px"
	 width="112.963px" height="100px" viewBox="0 0 112.963 100" enable-background="new 0 0 112.963 100" xml:space="preserve">
<g>
	<path fill="#FFA22B" d="M91.033,58.272c3.043-1.316,6.123-3.115,9.02-5.569c13.151-11.138,10.415-25.47,10.415-25.47
		s-13.508-1.848-25.766,5.702c0.009-0.333,0.015-0.67,0.015-1.01c0-19.277-14.42-29.674-14.42-29.674S55.878,12.647,55.878,31.924
		c0,0.396,0.008,0.787,0.021,1.176c-12.274-7.657-20.366-6.818-20.366-6.818s-8.058,15.194,5.093,26.332
		c2.914,2.468,6.006,4.277,9.057,5.604c-11.058,5.074-13.412,15.947-13.412,15.947s9.809,5.659,21.121,0.644
		c7.688-3.407,11.409-5.193,12.905-8.818c0.037-0.002-0.031,0.003,0,0c0.032,0.024,0,0,0,0s-0.029,0.022,0,0
		c0.034,0.005-0.038-0.003,0,0c1.498,3.626,5.222,5.412,12.907,8.818c11.312,5.016,21.12-0.644,21.12-0.644
		S101.988,63.37,91.033,58.272z"/>
	<path fill="#FFA22B" d="M63.402,69.557c3.042-1.317,6.122-3.116,9.019-5.57c13.151-11.138,10.416-25.47,10.416-25.47
		s-13.508-1.848-25.766,5.702c0.009-0.334,0.014-0.67,0.014-1.01c0-19.277-14.418-29.674-14.418-29.674S28.247,23.932,28.247,43.209
		c0,0.396,0.008,0.787,0.021,1.176c-12.274-7.657-25.792-5.868-25.792-5.868s-2.631,14.243,10.52,25.381
		c2.914,2.468,6.006,4.278,9.057,5.604C10.994,74.575,8.639,85.449,8.639,85.449s9.808,5.658,21.12,0.645
		c7.69-3.408,11.409-5.193,12.906-8.818c0.037-0.004-0.032,0.002,0,0c0.032,0.023,0,0,0,0s-0.029,0.022,0,0
		c0.034,0.002-0.038-0.004,0,0c1.499,3.625,5.221,5.412,12.907,8.818c11.313,5.015,21.12-0.645,21.12-0.645
		S74.355,74.654,63.402,69.557z"/>
</g>
<path fill="#570029" d="M95.799,58.405c2.036-1.161,3.945-2.493,5.707-3.985c13.992-11.851,11.293-26.971,11.171-27.609
	c-0.182-0.949-0.947-1.676-1.904-1.807c-0.534-0.073-12.145-1.57-23.901,4.172c-0.637-9.201-4.365-16.222-7.539-20.631
	c-3.774-5.246-7.56-8.004-7.72-8.12c-0.785-0.566-1.846-0.566-2.631,0c-0.16,0.116-3.945,2.874-7.72,8.12
	c-2.564,3.563-5.488,8.832-6.854,15.576c-0.893-1.627-1.821-3.062-2.706-4.292c-3.775-5.245-7.561-8.004-7.72-8.119
	c-0.786-0.567-1.846-0.567-2.631,0c-0.16,0.115-3.945,2.873-7.72,8.119c-3.188,4.431-6.938,11.5-7.548,20.767
	c-11.763-5.823-23.37-4.379-23.904-4.309c-0.966,0.127-1.74,0.863-1.917,1.822C0.145,38.742-2.445,53.771,11.54,65.616
	c1.769,1.498,3.686,2.836,5.727,4.003C8.586,75.504,6.534,84.541,6.44,84.972c-0.207,0.956,0.227,1.936,1.074,2.426
	c0.441,0.254,10.94,6.166,23.157,0.752c4.117-1.824,7.345-3.258,9.745-4.926V97.75c0,1.243,1.007,2.25,2.25,2.25
	s2.25-1.007,2.25-2.25V83.225c2.4,1.667,5.627,3.101,9.745,4.925c3.812,1.69,7.454,2.277,10.679,2.277
	c7.108-0.001,12.175-2.855,12.478-3.029c0.848-0.49,1.282-1.47,1.074-2.426c-0.092-0.429-2.129-9.395-10.724-15.282
	c0.414-0.236,0.822-0.482,1.226-0.732c2.341,3.228,6.575,5.105,12.898,7.908c3.813,1.689,7.455,2.276,10.679,2.276
	c7.108,0,12.175-2.855,12.478-3.029c0.848-0.489,1.282-1.47,1.074-2.425C106.431,73.259,104.394,64.293,95.799,58.405z
	 M73.978,84.245c-2.998,1.226-9.836,3.187-17.494-0.208c-7.273-3.225-10.329-4.77-11.568-7.248v-5.928l18.827-12.617
	c1.033-0.692,1.309-2.09,0.617-3.122c-0.692-1.033-2.09-1.309-3.122-0.616L44.916,65.445V41.328c0-1.242-1.007-2.25-2.25-2.25
	s-2.25,1.008-2.25,2.25v24.154L24.039,54.505c-1.033-0.692-2.43-0.415-3.122,0.616c-0.692,1.032-0.416,2.43,0.616,3.122
	l18.883,12.655v5.888c-1.238,2.48-4.293,4.025-11.568,7.25c-7.66,3.396-14.5,1.433-17.494,0.208
	c1.093-3.007,4.174-9.275,11.636-12.698c0.807-0.371,1.321-1.181,1.312-2.068c-0.01-0.887-0.539-1.687-1.354-2.04
	c-3.124-1.356-5.983-3.125-8.499-5.257c-5-4.234-8.164-9.416-9.4-15.399c-0.531-2.569-0.576-4.751-0.516-6.158
	c3.909-0.155,13.647,0.121,22.544,5.671c0.704,0.439,1.593,0.455,2.313,0.042c0.719-0.414,1.153-1.19,1.127-2.02
	c-0.013-0.424-0.019-0.776-0.019-1.107c0-7.456,2.25-14.393,6.689-20.616c2.076-2.912,4.175-4.982,5.48-6.142
	c1.306,1.161,3.404,3.231,5.48,6.142c4.438,6.224,6.689,13.161,6.689,20.616c0,0.32-0.005,0.637-0.013,0.951
	c-0.022,0.825,0.41,1.597,1.126,2.009c0.716,0.412,1.6,0.399,2.303-0.034c8.905-5.484,18.658-5.696,22.543-5.52
	c0.198,3.857-0.366,13.643-9.827,21.656c-2.502,2.119-5.347,3.875-8.457,5.222c-0.813,0.353-1.345,1.149-1.356,2.034
	c-0.013,0.887,0.497,1.696,1.301,2.071C69.836,75.034,72.892,81.256,73.978,84.245z M84.116,72.752
	c-6.402-2.838-9.535-4.375-11.04-6.392c0.27-0.217,0.536-0.436,0.799-0.657c13.992-11.851,11.294-26.971,11.172-27.608
	c-0.182-0.949-0.948-1.677-1.905-1.808c-0.534-0.073-12.144-1.569-23.9,4.173c-0.172-2.489-0.572-4.817-1.124-6.979
	c0.024-0.146,0.035-0.297,0.031-0.451c-0.014-0.424-0.021-0.776-0.021-1.106c0-7.457,2.251-14.393,6.69-20.617
	c2.076-2.911,4.174-4.982,5.48-6.142c1.305,1.161,3.404,3.231,5.479,6.142c4.438,6.225,6.688,13.161,6.688,20.617
	c0,0.32-0.004,0.636-0.013,0.951c-0.022,0.825,0.41,1.596,1.126,2.009c0.716,0.412,1.6,0.399,2.303-0.034
	c8.902-5.483,18.652-5.697,22.541-5.52c0.071,1.416,0.045,3.623-0.477,6.223c-1.205,6.008-4.351,11.201-9.348,15.434
	c-2.502,2.119-5.348,3.875-8.458,5.221c-0.813,0.354-1.345,1.149-1.355,2.034c-0.014,0.888,0.496,1.697,1.3,2.071
	c7.384,3.437,10.44,9.66,11.525,12.648C98.612,74.186,91.773,76.145,84.116,72.752z"/>
</svg>
