<?xml version="1.0" encoding="utf-8"?>
<!-- Generator: Adobe Illustrator 16.0.0, SVG Export Plug-In . SVG Version: 6.00 Build 0)  -->
<!DOCTYPE svg PUBLIC "-//W3C//DTD SVG 1.1//EN" "http://www.w3.org/Graphics/SVG/1.1/DTD/svg11.dtd">
<svg version="1.1" id="Layer_1" xmlns="http://www.w3.org/2000/svg" xmlns:xlink="http://www.w3.org/1999/xlink" x="0px" y="0px"
	 width="73.894px" height="100px" viewBox="0 0 73.894 100" enable-background="new 0 0 73.894 100" xml:space="preserve">
<path fill="#F4DE3B" d="M71.461,42.057L49.765,60.403c-2.378,2.011-0.394,5.85,2.621,5.074l4.719-1.213
	c4.251-1.093,7.152,4.204,3.943,7.196L49.158,82.559c-1.656,1.545-3.577,2.749-5.648,3.566c-2.072,0.816-4.295,1.246-6.562,1.246
	c-4.533,0-8.897-1.72-12.21-4.813L12.844,71.461c-3.208-2.992-0.305-8.289,3.943-7.196l4.721,1.213
	c3.015,0.776,4.997-3.063,2.622-5.074L2.432,42.057c-6.128-5.184,0.425-14.786,7.483-10.97l6.387,3.452
	c2.633,1.422,5.265-1.882,3.291-4.13L8.505,17.789c-4.093-4.66,1.727-11.373,6.919-7.98L22.99,13.8
	c2.851,1.501,6.278-0.564,6.278-3.789V7.68c0-2.121,0.86-4.042,2.25-5.432C32.907,0.86,34.827,0,36.948,0
	c4.241,0,7.68,3.438,7.68,7.68v2.332c0,3.224,3.427,5.291,6.278,3.789l7.563-3.991c5.193-3.393,11.014,3.32,6.92,7.98L54.3,30.409
	c-1.975,2.248,0.66,5.552,3.293,4.13l6.385-3.452C71.039,27.271,77.589,36.873,71.461,42.057z"/>
<path fill="#E0C734" d="M36.948,0v87.371c-4.533,0-8.897-1.72-12.21-4.813L12.844,71.462c-3.208-2.992-0.305-8.29,3.943-7.197
	l4.722,1.213c3.015,0.776,4.997-3.063,2.621-5.074L2.432,42.057c-6.128-5.184,0.425-14.786,7.483-10.97l6.387,3.452
	c2.633,1.422,5.265-1.882,3.291-4.13L8.505,17.789c-4.093-4.66,1.727-11.373,6.919-7.98L22.99,13.8
	c2.851,1.501,6.278-0.564,6.278-3.789V7.68c0-2.121,0.86-4.042,2.25-5.432C32.907,0.86,34.827,0,36.948,0z"/>
<path fill="#B27214" d="M45.435,49.719c0.505-0.375,0.61-1.087,0.235-1.592c-0.374-0.504-1.087-0.609-1.592-0.234l-5.425,4.03
	V31.208l6.781-5.039c0.505-0.375,0.61-1.087,0.235-1.591c-0.374-0.504-1.087-0.61-1.592-0.235l-5.425,4.03V14.335
	c0-0.942-0.764-1.707-1.707-1.707c-0.942,0-1.707,0.764-1.707,1.707v14.039l-5.425-4.03c-0.504-0.375-1.217-0.27-1.592,0.235
	c-0.375,0.504-0.27,1.217,0.235,1.591l6.782,5.039v20.715l-5.425-4.031c-0.504-0.375-1.217-0.269-1.592,0.235
	c-0.375,0.504-0.27,1.217,0.235,1.592l6.782,5.038v20.594l-5.425-4.03c-0.504-0.375-1.217-0.27-1.592,0.234
	c-0.375,0.505-0.27,1.218,0.235,1.592l6.782,5.039v20.107c0,0.943,0.764,1.707,1.707,1.707c0.943,0,1.707-0.764,1.707-1.707V78.186
	l6.781-5.039c0.505-0.374,0.61-1.087,0.235-1.592c-0.374-0.504-1.087-0.609-1.592-0.234l-5.425,4.03V54.758L45.435,49.719z"/>
</svg>
