<?xml version="1.0" encoding="utf-8"?>
<!-- Generator: Adobe Illustrator 16.0.0, SVG Export Plug-In . SVG Version: 6.00 Build 0)  -->
<!DOCTYPE svg PUBLIC "-//W3C//DTD SVG 1.1//EN" "http://www.w3.org/Graphics/SVG/1.1/DTD/svg11.dtd">
<svg version="1.1" id="Layer_1" xmlns="http://www.w3.org/2000/svg" xmlns:xlink="http://www.w3.org/1999/xlink" x="0px" y="0px"
	 width="81.059px" height="100px" viewBox="184.47 168 81.059 100" enable-background="new 184.47 168 81.059 100"
	 xml:space="preserve">
<polygon fill="#F14742" points="265.529,168 184.47,168 184.47,268 225,242.501 265.529,268 "/>
<path fill="#FFD24D" d="M250.916,199.736c-0.172-0.531-0.733-1.021-1.662-1.077l-16.55-1.106l-6.166-15.398
	c-0.341-0.866-0.981-1.248-1.539-1.248s-1.198,0.382-1.538,1.248l-6.167,15.398l-16.549,1.106c-0.929,0.056-1.491,0.546-1.663,1.077
	c-0.172,0.53-0.006,1.257,0.712,1.849l12.738,10.623l-4.062,16.081c-0.234,0.9,0.06,1.587,0.51,1.914
	c0.45,0.327,1.194,0.395,1.978-0.106l14.04-8.832l14.039,8.833c0.784,0.5,1.527,0.434,1.979,0.106
	c0.451-0.328,0.744-1.015,0.51-1.914l-4.062-16.082l12.738-10.622C250.923,200.993,251.089,200.266,250.916,199.736z"/>
</svg>
