<?xml version="1.0" encoding="utf-8"?>
<!-- Generator: Adobe Illustrator 16.0.0, SVG Export Plug-In . SVG Version: 6.00 Build 0)  -->
<!DOCTYPE svg PUBLIC "-//W3C//DTD SVG 1.1//EN" "http://www.w3.org/Graphics/SVG/1.1/DTD/svg11.dtd">
<svg version="1.1" id="Layer_1" xmlns="http://www.w3.org/2000/svg" xmlns:xlink="http://www.w3.org/1999/xlink" x="0px" y="0px"
	 width="92.869px" height="100px" viewBox="0 0 92.869 100" enable-background="new 0 0 92.869 100" xml:space="preserve">
<g>
	<g>
		<path fill="#933EC5" d="M88.109,0H60.064c-1.99,0-3.77,1.278-4.435,3.152L40.043,46.799c-0.19,0.525-0.279,1.08-0.275,1.621
			l-8.771,8.771l-0.859-3.434c-0.355-1.422-1.453-2.547-2.868-2.944c-1.418-0.393-2.938,0.009-3.977,1.047
			c-1.038,1.039-1.439,2.559-1.047,3.973c0.395,1.413,1.516,2.511,2.945,2.868l3.505,0.884c-2.642,3.22-4.109,7.222-4.109,11.443
			v6.439c0,3.54-1.911,6.771-4.98,8.439l0.216-2.544c0.104-1.346-0.513-2.646-1.634-3.402c-1.117-0.759-2.552-0.854-3.761-0.247
			c-1.21,0.601-1.998,1.807-2.07,3.152c-0.072,1.349,0.587,2.631,1.724,3.357l2,1.278l-14.096,6.16
			c-1.675,0.73-2.439,2.681-1.708,4.35C0.82,99.254,2.038,100,3.313,100c0.441,0,0.893-0.09,1.322-0.281l14.405-6.291l-0.188,2.384
			c-0.107,1.346,0.52,2.646,1.638,3.403c1.119,0.757,2.557,0.853,3.768,0.244c1.208-0.596,1.998-1.806,2.072-3.147
			c0.069-1.349-0.589-2.631-1.726-3.357l-1.863-1.197c5.22-2.814,8.531-8.287,8.531-14.29v-6.441c0-2.153,0.586-4.222,1.69-6.008
			l0.48,1.935c0.357,1.423,1.453,2.553,2.868,2.945c1.416,0.395,2.937-0.009,3.977-1.045c1.042-1.045,1.438-2.563,1.044-3.977
			c-0.393-1.416-1.516-2.511-2.945-2.869l-2.282-0.573l8.337-8.335c0.541,0.004,1.086-0.085,1.614-0.272L89.719,37.24
			c1.873-0.672,3.15-2.445,3.15-4.438V4.757C92.871,2.16,90.713,0,88.109,0z"/>
	</g>
</g>
</svg>
