<?xml version="1.0" encoding="utf-8"?>
<!-- Generator: Adobe Illustrator 22.0.1, SVG Export Plug-In . SVG Version: 6.00 Build 0)  -->
<svg version="1.1" id="Layer_1" xmlns="http://www.w3.org/2000/svg" xmlns:xlink="http://www.w3.org/1999/xlink" x="0px" y="0px"
	 viewBox="0 0 111.1 100" style="enable-background:new 0 0 111.1 100;" xml:space="preserve">
<style type="text/css">
	.st0{fill:#D1D1D1;}
</style>
<path class="st0" d="M111,74.2c-0.1-3.9-0.4-7.6-0.4-7.8c0-0.3-0.1-0.6-0.1-0.9c0-0.3,0-0.6,0-0.9c0-4.6,0.1-8.9-2.5-12.3
	c-2.8-3.7-8.2-5.7-17.1-6.3l-1.6-0.1l-5.1,9.6c-0.7,1.3-2,2-3.4,2c-0.6,0-1.2-0.1-1.8-0.4c-0.9-0.5-1.6-1.3-1.9-2.3
	c-0.3-1-0.2-2,0.3-2.9l3.8-7.2l-1.6-0.4c-2.1-0.5-4.1-1.2-6-1.9L72.7,42l-4.5,8.4c-0.7,1.3-2,2-3.4,2c-0.6,0-1.2-0.2-1.8-0.4
	c-0.9-0.5-1.6-1.3-1.9-2.3c-0.3-1-0.2-2,0.3-2.9l4.4-8.3l-1-0.6c-1.6-1.1-3.1-2.2-4.5-3.5l-1.2-1.1l-4.5,8.4c-0.7,1.3-2,2-3.4,2
	c-0.6,0-1.2-0.2-1.8-0.4c-0.9-0.5-1.6-1.3-1.9-2.3c-0.3-1-0.2-2,0.3-2.9L53.8,27l-0.4-0.6c-1-1.6-2-3.3-2.8-5
	c-2.8-5.8-5.6-17-5.7-18.2c0-1.4-1.9-1.8-2.9-2c-1.2-0.2-2.9-0.5-5-0.6C33,0.2,27.7,0,22.4,0C17.1,0,12.2,0.2,8.7,0.6
	C3.3,1.1,1.4,2,1.4,3.7v59.2c0,2.1,1.5,3.8,3.4,4.2v6.8c0,2.3,1.9,4.2,4.2,4.2h4.1v4.5c-1.4-0.4-2.4-0.8-3.2-1.2
	c-3.5-1.6-7.7-0.1-9.3,3.4C-1,88.3,0.5,92.5,4,94.1c6.5,3.1,17.6,5.9,54.3,5.9c15.8,0,28.4-1.5,37.4-4.4c8.3-2.7,12-6.1,13.6-8.5
	C110.9,84.9,111.3,82.1,111,74.2z M27.2,78.1h4.3c2.3,0,4.2-1.9,4.2-4.2v-6.7c4.5,0.2,10.9,0.7,12.2,1.1c1.8,0.6,3.5,1.2,5.3,1.8
	c0.7,0.2,1.4,0.5,2.1,0.7V86c-12.5-0.1-21.5-0.5-28.1-1.1L27.2,78.1L27.2,78.1z M97,79.7c-2.2,1.5-9.2,4.9-27.7,6V74.6
	c2.1,0.3,4.2,0.5,6.3,0.5h0l21.2-1.6C97,76,97.1,78.2,97,79.7z"/>
</svg>
