<?xml version="1.0" encoding="utf-8"?>
<!-- Generator: Adobe Illustrator 16.0.0, SVG Export Plug-In . SVG Version: 6.00 Build 0)  -->
<!DOCTYPE svg PUBLIC "-//W3C//DTD SVG 1.1//EN" "http://www.w3.org/Graphics/SVG/1.1/DTD/svg11.dtd">
<svg version="1.1" id="Layer_1" xmlns="http://www.w3.org/2000/svg" xmlns:xlink="http://www.w3.org/1999/xlink" x="0px" y="0px"
	 width="101.317px" height="100px" viewBox="0 0 101.317 100" enable-background="new 0 0 101.317 100" xml:space="preserve">
<g>
	<path fill="#FFDA44" d="M96.931,46.161h-3.465l-4.479-4.438c-0.53-0.532-1.252-0.81-2.007-0.81c-0.75,0-1.472,0.267-2.003,0.799
		l-4.478,4.449H66.448c-0.364-1.275-0.878-2.487-1.522-3.617l9.95-9.939h6.331c0.755,0,1.475-0.267,2.008-0.799
		c0.53-0.532,0.83-1.238,0.83-1.99l-0.002-6.323l2.456-2.452c1.715-1.714,1.715-4.497,0-6.212c-1.717-1.715-4.5-1.754-6.217-0.038
		l-2.449,2.417h-6.336c-1.569,0-2.789,1.348-2.789,2.913v6.335l-9.935,9.944c-1.133-0.645-2.344-1.159-3.624-1.521V20.834
		l4.451-4.478c0.527-0.532,0.81-1.253,0.81-2.006s-0.273-1.474-0.805-2.006l-4.456-4.48V4.396C55.149,1.969,53.144,0,50.714,0
		c-2.428,0-4.436,1.969-4.436,4.396v3.471l-4.471,4.478c-0.53,0.532-0.826,1.253-0.826,2.006s0.293,1.474,0.823,2.006l4.474,4.478
		v14.033c-1.317,0.371-2.568,0.898-3.729,1.567l-9.997-9.979v-6.333c0-1.565-1.15-2.913-2.714-2.913h-6.336l-2.456-2.417
		c-1.719-1.719-4.502-1.679-6.216,0.038c-1.719,1.717-1.719,4.5,0,6.212l2.454,2.452l-0.002,6.323c0,0.752,0.3,1.458,0.832,1.99
		s1.253,0.799,2.006,0.799h6.331l9.981,9.973c-0.633,1.119-1.146,2.321-1.503,3.583H20.83l-4.479-4.449
		c-0.532-0.532-1.253-0.799-2.004-0.799c-0.752,0-1.474,0.278-2.006,0.81l-4.48,4.438H4.396C1.968,46.161,0,48.169,0,50.597
		c0,2.43,1.971,4.433,4.396,4.433H7.86l4.48,4.482c0.532,0.529,1.253,0.832,2.006,0.832c0.75,0,1.472-0.302,2.004-0.832l4.479-4.478
		h14.08c0.355,1.271,0.86,2.479,1.494,3.608l-9.946,9.948h-6.333c-0.757,0-1.544,0.307-2.074,0.839
		c-0.534,0.532-0.898,1.26-0.898,2.015v6.333l-1.485,1.554c-1.717,1.714-1.651,4.5,0.066,6.214c0.861,0.86,1.982,1.288,3.107,1.288
		c1.123,0,2.251-0.43,3.107-1.288l1.558-1.561h6.327c0.752,0,1.419-0.296,1.944-0.827c0.534-0.53,0.774-1.251,0.774-2.004v-6.333
		l9.994-9.977c1.161,0.671,2.415,1.196,3.729,1.565v14.035l-4.469,4.477c-0.531,0.53-0.827,1.251-0.827,2.004
		c0,0.755,0.293,1.475,0.825,2.004l4.471,4.478v2.198c0,2.427,2.009,4.396,4.436,4.396c2.431,0,4.437-1.971,4.437-4.396v-2.198
		l4.45-4.478c0.527-0.529,0.813-1.249,0.813-2.004c0-0.753-0.275-1.474-0.808-2.004l-4.455-4.475V66.397
		c1.277-0.362,2.491-0.874,3.623-1.518l9.935,9.943v6.332c0,0.755,0.276,1.474,0.806,2.008c0.53,0.53,1.233,0.828,1.981,0.828h6.327
		l1.556,1.556c0.861,0.86,1.984,1.288,3.107,1.288c1.125,0,2.251-0.426,3.107-1.284c1.715-1.717,1.75-4.504,0.035-6.216
		l-1.522-1.554v-6.333c0-0.755-0.325-1.483-0.861-2.015c-0.534-0.534-1.284-0.839-2.043-0.839h-6.331l-9.918-9.911
		c0.643-1.139,1.154-2.361,1.517-3.646H80.49l4.481,4.478c0.53,0.532,1.252,0.832,2.002,0.832c0.752,0,1.477-0.302,2.006-0.834
		l4.478-4.48h3.465c2.428,0,4.396-2.006,4.396-4.434C101.324,48.169,99.355,46.161,96.931,46.161z M43.103,50.637
		c0-4.186,3.396-7.583,7.585-7.583s7.585,3.396,7.585,7.583c0,4.19-3.396,7.587-7.585,7.587S43.103,54.83,43.103,50.637z"/>
</g>
</svg>
