<?xml version="1.0" encoding="utf-8"?>
<!-- Generator: Adobe Illustrator 16.0.0, SVG Export Plug-In . SVG Version: 6.00 Build 0)  -->
<!DOCTYPE svg PUBLIC "-//W3C//DTD SVG 1.1//EN" "http://www.w3.org/Graphics/SVG/1.1/DTD/svg11.dtd">
<svg version="1.1" id="Layer_1" xmlns="http://www.w3.org/2000/svg" xmlns:xlink="http://www.w3.org/1999/xlink" x="0px" y="0px"
	 width="207.141px" height="100px" viewBox="0 0 207.141 100" enable-background="new 0 0 207.141 100" xml:space="preserve">
<g>
	<path fill="#35495E" d="M145.156,24.925C143.852,10.607,132.234,0,117.855,0c-2.294,0-4.768,1.082-5.706,3.178
		c-1.954,4.357-5.065,7.536-8.579,7.536c-3.511,0-6.625-3.179-8.575-7.536C94.056,1.082,91.581,0,89.285,0
		C74.911,0,63.292,10.607,61.988,24.925l-4.846,44.789c30.553,7.05,62.308,7.05,92.856,0L145.156,24.925z"/>
	<path fill="#F0C419" d="M59.277,50.001l-2.132,19.712c7.64,1.763,15.35,3.083,23.1,3.965c15.5,1.76,31.154,1.76,46.658,0
		c7.745-0.882,15.458-2.202,23.099-3.965l-2.132-19.712H59.277z"/>
	<path fill="#2C3E50" d="M148.874,59.3l1.125,10.413c-30.549,7.05-62.303,7.05-92.856,0L58.271,59.3C23.774,62.778,0,70.094,0,78.57
		C0,90.406,46.371,100,103.57,100c57.202,0,103.57-9.594,103.57-21.43C207.141,70.094,183.37,62.778,148.874,59.3"/>
	<path fill="#FFFFFF" d="M103.572,67.855c-1.972,0-3.572-1.597-3.572-3.572v-3.566c0-1.977,1.6-3.572,3.572-3.572
		c1.973,0,3.57,1.596,3.57,3.572v3.566C107.143,66.258,105.543,67.855,103.572,67.855"/>
</g>
</svg>
