<?xml version="1.0" encoding="utf-8"?>
<!-- Generator: Adobe Illustrator 16.0.0, SVG Export Plug-In . SVG Version: 6.00 Build 0)  -->
<!DOCTYPE svg PUBLIC "-//W3C//DTD SVG 1.1//EN" "http://www.w3.org/Graphics/SVG/1.1/DTD/svg11.dtd">
<svg version="1.1" id="Layer_1" xmlns="http://www.w3.org/2000/svg" xmlns:xlink="http://www.w3.org/1999/xlink" x="0px" y="0px"
	 width="100px" height="100px" viewBox="0 0 100 100" enable-background="new 0 0 100 100" xml:space="preserve">
<path fill="#9345EB" d="M79.646,65.83C70.708,70.916,60.563,73.627,50,73.627c-10.563,0-20.708-2.711-29.646-7.797L14.61,79.695
	c6.962,5.094,14.881,8.59,23.302,10.302L50,86.813l12.088,3.185c8.421-1.713,16.34-5.209,23.302-10.303L79.646,65.83z"/>
<g>
	<path fill="#39494C" d="M50,100c-18.401,0-35.701-7.166-48.712-20.178c-1.717-1.717-1.717-4.5,0-6.217
		c1.717-1.716,4.5-1.717,6.216,0C18.855,84.957,33.947,91.209,50,91.209s31.145-6.252,42.496-17.604c1.717-1.717,4.5-1.717,6.217,0
		c1.716,1.717,1.717,4.5,0,6.217C85.701,92.834,68.401,100,50,100z"/>
	<path fill="#39494C" d="M50,73.627c9.806,0,19.25-2.338,27.705-6.742L50,0L22.295,66.885C30.75,71.289,40.194,73.627,50,73.627z"/>
</g>
<g>
	<path fill="#9345EB" d="M44.322,38.175c-0.909,0-1.648,0.74-1.648,1.648s0.74,1.648,1.648,1.648c0.909,0,1.648-0.74,1.648-1.648
		C45.971,38.915,45.231,38.175,44.322,38.175z"/>
	<path fill="#9345EB" d="M50.916,42.791c-0.909,0-1.648,0.74-1.648,1.648s0.739,1.648,1.648,1.648c0.908,0,1.648-0.74,1.648-1.648
		S51.824,42.791,50.916,42.791z"/>
</g>
<path fill="#FFB033" d="M50,91.209c4.107,0,8.152-0.412,12.088-1.212V67.033H37.912v22.964C41.848,90.797,45.892,91.209,50,91.209z
	 M44.505,73.627h10.989v10.988H44.505V73.627z"/>
</svg>
