<?xml version="1.0" encoding="utf-8"?>
<!-- Generator: Adobe Illustrator 16.0.0, SVG Export Plug-In . SVG Version: 6.00 Build 0)  -->
<!DOCTYPE svg PUBLIC "-//W3C//DTD SVG 1.1//EN" "http://www.w3.org/Graphics/SVG/1.1/DTD/svg11.dtd">
<svg version="1.1" id="Layer_1" xmlns="http://www.w3.org/2000/svg" xmlns:xlink="http://www.w3.org/1999/xlink" x="0px" y="0px"
	 width="104.025px" height="100px" viewBox="0 0 104.025 100" enable-background="new 0 0 104.025 100" xml:space="preserve">
<path fill="#FFF683" d="M71.425,10.207V7.853c0-0.873-0.238-1.728-0.69-2.476L68.018,0.84C67.701,0.319,67.141,0,66.535,0
	c-0.606,0-1.17,0.321-1.481,0.839l-2.707,4.54c-0.446,0.748-0.664,1.603-0.664,2.476v2.35c1.508-0.284,3.203-0.43,4.873-0.43
	C68.223,9.775,69.817,9.922,71.425,10.207z"/>
<path fill="#FFF683" d="M89.276,21.67l1.678-1.674c0.616-0.615,1.055-1.389,1.266-2.237l1.284-5.13
	c0.146-0.592-0.027-1.215-0.456-1.645c-0.429-0.43-1.053-0.602-1.646-0.454l-5.13,1.285c-0.849,0.211-1.616,0.651-2.235,1.267
	l-1.673,1.671C85.049,16.634,87.399,18.976,89.276,21.67z"/>
<path fill="#FFF683" d="M103.187,36.018l-4.539-2.729c-0.749-0.45-1.605-0.694-2.477-0.694H93.82c0.284,1.605,0.43,3.252,0.43,4.921
	c0,1.668-0.146,3.316-0.43,4.924h2.353c0.87,0,1.728-0.261,2.477-0.709l4.539-2.733c0.521-0.314,0.839-0.883,0.839-1.49
	C104.027,36.901,103.708,36.327,103.187,36.018z"/>
<path fill="#FFF683" d="M40.845,17.761c0.212,0.846,0.651,1.62,1.267,2.235l1.672,1.672c1.879-2.693,4.223-5.035,6.915-6.916
	l-1.671-1.671c-0.615-0.616-1.389-1.056-2.234-1.267l-5.133-1.282c-0.589-0.148-1.214,0.024-1.642,0.454
	c-0.43,0.431-0.603,1.054-0.455,1.645L40.845,17.761z"/>
<path fill="#FFF683" d="M92.6,58.77l-0.382-1.528c-0.211-0.849-0.648-1.621-1.266-2.236l-1.676-1.674
	c-0.602,0.864-1.252,1.69-1.944,2.481C89.211,56.588,90.981,57.583,92.6,58.77z"/>
<path fill="#FFF683" d="M82.458,12.017c0.337-0.805,0.447-1.688,0.32-2.552l-0.764-5.232c-0.089-0.601-0.484-1.113-1.048-1.347
	c-0.56-0.234-1.202-0.156-1.692,0.206l-4.26,3.14c-0.702,0.519-1.248,1.217-1.583,2.022l-0.904,2.177
	c3.264,0.718,6.304,2.016,9.021,3.774L82.458,12.017z"/>
<path fill="#FFF683" d="M89.895,22.593c1.748,2.729,3.025,5.781,3.733,9.044l2.179-0.896c0.804-0.332,1.508-0.877,2.03-1.576
	l3.16-4.244c0.36-0.489,0.44-1.129,0.211-1.691c-0.231-0.564-0.742-0.962-1.342-1.053l-5.229-0.792
	c-0.861-0.13-1.746-0.023-2.552,0.309L89.895,22.593z"/>
<path fill="#FFF683" d="M32.808,25.691c0.34-0.012,0.684-0.019,1.026-0.019c2.476,0,4.9,0.301,7.231,0.87
	c0.612-1.417,1.337-2.773,2.167-4.053l-2.179-0.909c-0.805-0.336-1.688-0.449-2.549-0.321l-5.238,0.767
	c-0.603,0.089-1.112,0.485-1.346,1.047c-0.234,0.561-0.154,1.203,0.204,1.691L32.808,25.691z"/>
<path fill="#FFF683" d="M97.799,45.978c-0.522-0.703-1.215-1.248-2.021-1.584l-2.176-0.908c-0.718,3.261-2.019,6.307-3.772,9.025
	l2.184,0.911c0.806,0.333,1.688,0.448,2.549,0.319l5.237-0.765c0.604-0.088,1.114-0.483,1.348-1.043
	c0.235-0.564,0.155-1.205-0.204-1.696L97.799,45.978z"/>
<path fill="#FFF683" d="M51.627,14.132c2.727-1.747,5.776-3.027,9.042-3.732l-0.896-2.174c-0.333-0.807-0.88-1.51-1.577-2.028
	l-4.24-3.158c-0.489-0.364-1.132-0.444-1.694-0.214c-0.563,0.232-0.961,0.742-1.053,1.341l-0.791,5.229
	c-0.13,0.862-0.022,1.745,0.31,2.552L51.627,14.132z"/>
<path fill="#FFF683" d="M66.528,14.297c-9.403,0-17.503,5.599-21.144,13.645c6.047,2.479,11.192,6.873,14.591,12.57
	c1.02-0.139,2.05-0.21,3.089-0.21c8.961,0,16.838,5.095,20.657,12.769c3.733-4.117,6.006-9.58,6.006-15.572
	C89.729,24.688,79.347,14.297,66.528,14.297z"/>
<path fill="#D3E0EF" d="M79.165,60.727c-1.307-7.735-7.983-13.633-16.092-13.633c-2.438,0-4.727,0.546-6.808,1.503
	c-3.157-9.376-11.991-16.136-22.432-16.136c-13.085,0-23.688,10.608-23.688,23.691c0,2.212,0.132,4.344,0.698,6.373
	C4.55,65.561,0,71.986,0,79.445v0.799C0,90.624,8.812,100,19.191,100h58.396c10.381,0,18.646-9.377,18.646-19.757v-0.8
	C96.234,69.62,88.774,61.566,79.165,60.727z"/>
</svg>
