<?xml version="1.0" encoding="utf-8"?>
<!-- Generator: Adobe Illustrator 16.0.0, SVG Export Plug-In . SVG Version: 6.00 Build 0)  -->
<!DOCTYPE svg PUBLIC "-//W3C//DTD SVG 1.1//EN" "http://www.w3.org/Graphics/SVG/1.1/DTD/svg11.dtd">
<svg version="1.1" id="Layer_1" xmlns="http://www.w3.org/2000/svg" xmlns:xlink="http://www.w3.org/1999/xlink" x="0px" y="0px"
	 width="47.769px" height="100px" viewBox="0 0 47.769 100" enable-background="new 0 0 47.769 100" xml:space="preserve">
<path fill="#F09846" d="M47.679,95.154c0.281,0.845-0.117,1.757-0.93,2.121C44.492,98.286,39.411,100,30.904,100
	c-10.031,0-13.578-6.483-27.929-10.021c-0.805-0.198-1.377-0.925-1.331-1.752c0.132-2.358,0.605-7.344,2.305-12.744
	c0.678-2.153,0.998-4.392,0.836-6.644C3.86,55.88,0.7,11.628,0.004,1.901c-0.073-1.032,0.78-1.889,1.811-1.812
	c2.847,0.212,8.203,0.93,11.846,3.359l0,0C13.662,1.544,15.206,0,17.11,0h16.964c1.054,0,1.861,0.938,1.705,1.98l-9.384,62.554
	c-0.45,3.005-0.231,6.065,0.633,8.978c1.507,5.082,3.992,12.812,5.6,14.419c2.879,2.88,8.526,1.689,12.016,2.609
	c1.067,0.281,1.881,1.15,2.23,2.198L47.679,95.154z"/>
<path fill="#DC8C46" d="M13.662,3.448C10.025,1.024,4.685,0.304,1.833,0.09c-1.04-0.078-1.902,0.786-1.828,1.827
	c0.697,9.76,3.855,53.97,4.78,66.921c0.161,2.252-0.159,4.491-0.837,6.645c-1.7,5.4-2.173,10.386-2.305,12.744
	c-0.046,0.827,0.525,1.554,1.33,1.752c3.108,0.767,5.688,1.673,7.958,2.619c0.34,0.143,0.663,0.286,0.989,0.43
	c0.863-10.688,1.741-22.072,1.741-24.063C13.662,64.517,13.662,16.745,13.662,3.448z"/>
<path fill="#464655" d="M2.67,89.871l2.059,8.798C4.912,99.448,5.607,100,6.408,100h2.081c0.952,0,1.724-0.772,1.724-1.725v-8.62
	L2.67,89.871z"/>
<path fill="#5B5D6E" d="M47.679,95.154l-0.534-1.602c-0.121,0.103-0.243,0.206-0.396,0.274c-2.258,1.011-7.339,2.725-15.846,2.725
	c-10.031,0-13.578-6.483-27.929-10.021c-0.498-0.122-0.885-0.46-1.113-0.886c-0.111,1.03-0.18,1.919-0.217,2.582
	c-0.046,0.827,0.526,1.554,1.331,1.752C17.326,93.517,20.873,100,30.903,100c8.508,0,13.588-1.713,15.846-2.725
	C47.561,96.911,47.96,95.999,47.679,95.154z"/>
</svg>
