<?xml version="1.0" encoding="utf-8"?>
<!-- Generator: Adobe Illustrator 16.0.0, SVG Export Plug-In . SVG Version: 6.00 Build 0)  -->
<!DOCTYPE svg PUBLIC "-//W3C//DTD SVG 1.1//EN" "http://www.w3.org/Graphics/SVG/1.1/DTD/svg11.dtd">
<svg version="1.1" id="Layer_1" xmlns="http://www.w3.org/2000/svg" xmlns:xlink="http://www.w3.org/1999/xlink" x="0px" y="0px"
	 width="100px" height="100px" viewBox="0 0 100 100" enable-background="new 0 0 100 100" xml:space="preserve">
<rect x="43.75" y="16.665" fill="#E6E9ED" width="12.5" height="28.386"/>
<path fill="#FFCE54" d="M56.25,10.417c0,3.452-2.798,6.248-6.25,6.248c-3.451,0-6.25-2.796-6.25-6.248C43.75,6.964,50,0,50,0
	S56.25,6.964,56.25,10.417z"/>
<g>
	<path fill="#E6E9ED" d="M75,37.501c0-2.292-1.874-4.168-4.166-4.168H29.169c-2.292,0-4.169,1.876-4.169,4.168v20.985
		c0,2.292,1.877,2.085,4.169,2.085h41.665c2.292,0,4.166,0.207,4.166-2.085V37.501L75,37.501z"/>
	<path fill="#E6E9ED" d="M87.5,58.334c0-2.291-1.874-4.168-4.165-4.168H16.669c-2.292,0-4.169,1.877-4.169,4.168V75
		c0,2.292,1.877,4.169,4.169,4.169h66.666c2.291,0,4.165-1.877,4.165-4.169V58.334L87.5,58.334z"/>
	<path fill="#E6E9ED" d="M100,79.163C100,76.877,98.126,75,95.831,75H4.169C1.877,75,0,76.877,0,79.163v16.668
		C0,98.126,1.877,100,4.169,100h91.662c2.295,0,4.169-1.874,4.169-4.169V79.163L100,79.163z"/>
</g>
<path fill="#D770AD" d="M95.831,79.163H4.169C1.877,79.163,0,78.955,0,81.25v5.194c2.207,1.953,5.109,3.137,8.286,3.137
	c4.33,0,8.148-2.203,10.391-5.554c2.243,3.351,6.061,5.554,10.391,5.554c4.364,0,8.207-2.24,10.443-5.627
	c2.234,3.387,6.076,5.627,10.44,5.627s8.206-2.24,10.44-5.627c2.236,3.387,6.079,5.627,10.442,5.627c4.364,0,8.207-2.24,10.44-5.627
	c2.237,3.387,6.079,5.627,10.443,5.627c3.177,0,6.079-1.184,8.282-3.137V81.25C100,78.955,98.126,79.163,95.831,79.163z"/>
<path fill="#EC87C0" d="M95.831,75H4.169C1.877,75,0,76.877,0,79.162v3.113c2.207,1.953,5.109,3.137,8.286,3.137
	c4.33,0,8.148-2.203,10.391-5.548c2.243,3.345,6.061,5.548,10.391,5.548c4.364,0,8.207-2.233,10.443-5.627
	c2.234,3.394,6.076,5.627,10.44,5.627s8.206-2.233,10.44-5.627c2.236,3.394,6.079,5.627,10.442,5.627
	c4.364,0,8.207-2.233,10.44-5.627c2.237,3.394,6.079,5.627,10.443,5.627c3.177,0,6.079-1.184,8.282-3.137v-3.112
	C100,76.877,98.126,75,95.831,75z"/>
<path fill="#D770AD" d="M29.068,47.917c4.364,0,8.206-2.24,10.443-5.627c2.234,3.388,6.076,5.627,10.44,5.627
	c4.364,0,8.206-2.24,10.44-5.627c2.236,3.388,6.079,5.627,10.442,5.627c1.462,0,2.863-0.251,4.166-0.714v-9.702H25v9.737
	C26.276,47.678,27.643,47.917,29.068,47.917z"/>
<path fill="#EC87C0" d="M25,37.501v5.569c1.276,0.439,2.643,0.678,4.068,0.678c4.364,0,8.206-2.235,10.443-5.627
	c2.234,3.392,6.076,5.627,10.44,5.627c4.364,0,8.206-2.235,10.44-5.627c2.236,3.392,6.079,5.627,10.442,5.627
	c1.462,0,2.863-0.25,4.166-0.709v-5.538c0-2.292-1.874-4.168-4.166-4.168H29.169C26.877,33.333,25,35.209,25,37.501z"/>
<path fill="#D770AD" d="M18.677,63.196c2.243,3.351,6.061,5.554,10.391,5.554c4.364,0,8.206-2.24,10.443-5.627
	c2.234,3.387,6.076,5.627,10.44,5.627c4.364,0,8.206-2.24,10.44-5.627c2.236,3.387,6.079,5.627,10.442,5.627
	c4.364,0,8.207-2.24,10.44-5.627c1.48,2.24,3.656,3.979,6.226,4.895v-9.684h-75v9.689C15.039,67.108,17.2,65.405,18.677,63.196z"/>
<path fill="#EC87C0" d="M12.5,58.334v5.521c2.539-0.91,4.7-2.619,6.177-4.822c2.243,3.345,6.061,5.548,10.391,5.548
	c4.364,0,8.206-2.233,10.443-5.627c2.234,3.394,6.076,5.627,10.44,5.627c4.364,0,8.206-2.233,10.44-5.627
	c2.236,3.394,6.079,5.627,10.442,5.627c4.364,0,8.207-2.233,10.44-5.627c1.48,2.246,3.656,3.979,6.226,4.901v-5.521
	c0-2.291-1.874-4.168-4.165-4.168H16.669C14.377,54.166,12.5,56.043,12.5,58.334z"/>
</svg>
