<?xml version="1.0" encoding="utf-8"?>
<!-- Generator: Adobe Illustrator 16.0.0, SVG Export Plug-In . SVG Version: 6.00 Build 0)  -->
<!DOCTYPE svg PUBLIC "-//W3C//DTD SVG 1.1//EN" "http://www.w3.org/Graphics/SVG/1.1/DTD/svg11.dtd">
<svg version="1.1" id="Layer_1" xmlns="http://www.w3.org/2000/svg" xmlns:xlink="http://www.w3.org/1999/xlink" x="0px" y="0px"
	 width="87.932px" height="100px" viewBox="0 0 87.932 100" enable-background="new 0 0 87.932 100" xml:space="preserve">
<g>
	<path fill="#E6E7E8" d="M37.931,32.758c-0.954,0-1.724-0.772-1.724-1.725v-5.172c0-0.952,0.771-1.724,1.724-1.724
		s1.725,0.772,1.725,1.724v5.172C39.656,31.986,38.885,32.758,37.931,32.758"/>
	<polygon fill="#556080" points="70.69,93.104 5.172,93.104 0,84.482 75.863,84.482 	"/>
	<g>
		<polygon fill="#3B445B" points="60.345,100 15.518,100 12.069,93.104 63.793,93.104 		"/>
		<path fill="#3B445B" d="M87.932,81.034c0,4.761-3.86,8.621-8.621,8.621s-8.621-3.86-8.621-8.621s3.86-8.621,8.621-8.621
			S87.932,76.273,87.932,81.034"/>
	</g>
	<path fill="#F0C419" d="M30.441,11.235L37.931,0l7.492,11.235c3.831,5.748,0.439,13.875-6.433,14.574
		c-0.348,0.035-0.702,0.053-1.059,0.053s-0.708-0.019-1.057-0.053C30,25.11,26.608,16.983,30.441,11.235"/>
	<path fill="#FAC176" d="M60.345,46.259V36.207c0-2.856-2.315-5.172-5.173-5.172H20.69c-2.857,0-5.173,2.315-5.173,5.172v3.152
		c0,3.602,2.633,6.819,6.219,7.161c4.114,0.391,7.574-2.833,7.574-6.864v8.328c0,2.8,2.097,5.313,4.895,5.459
		c2.983,0.155,5.45-2.218,5.45-5.166v10.052c0,2.8,2.096,5.312,4.895,5.458c2.983,0.155,5.45-2.217,5.45-5.165V46.552
		c0,2.948,2.468,5.32,5.45,5.165C58.249,51.57,60.345,49.059,60.345,46.259"/>
	<path fill="#FDD7AD" d="M55.451,51.716C52.468,51.873,50,49.501,50,46.551V58.62c0,2.95-2.469,5.322-5.451,5.165
		c-2.797-0.146-4.894-2.656-4.894-5.457V48.275c0,2.95-2.469,5.323-5.452,5.166c-2.796-0.146-4.893-2.657-4.893-5.457v-8.33
		c0,4.033-3.462,7.257-7.574,6.864c-1.018-0.097-1.945-0.445-2.771-0.948v38.913h39.656v-34.19
		C57.779,51.104,56.691,51.65,55.451,51.716"/>
	<path fill="#E57E25" d="M37.931,13.792l3.657,3.534c2.021,1.954,2.021,5.118,0,7.071c-2.019,1.952-5.295,1.952-7.314,0
		c-2.021-1.953-2.021-5.117,0-7.071L37.931,13.792z"/>
</g>
</svg>
