<?xml version="1.0" encoding="utf-8"?>
<!-- Generator: Adobe Illustrator 16.0.0, SVG Export Plug-In . SVG Version: 6.00 Build 0)  -->
<!DOCTYPE svg PUBLIC "-//W3C//DTD SVG 1.1//EN" "http://www.w3.org/Graphics/SVG/1.1/DTD/svg11.dtd">
<svg version="1.1" id="Layer_1" xmlns="http://www.w3.org/2000/svg" xmlns:xlink="http://www.w3.org/1999/xlink" x="0px" y="0px"
	 width="100px" height="100px" viewBox="0 0 100 100" enable-background="new 0 0 100 100" xml:space="preserve">
<g>
	<g>
		<path fill="#F8B7C2" d="M36.849,79.788l-7.633,0.836l-4.485,9.79c-1.534,3.354,0.007,7.354,3.445,8.939
			c3.438,1.586,7.469,0.153,9.004-3.198l4.17-9.105l0.043-0.093L36.849,79.788z"/>
		<path fill="#F8B7C2" d="M86.054,1.161C75.973-2.414,64.975,2.563,60.633,12.04L49.756,35.786l-4.734,10.334
			c1.474-0.831,3.17-1.307,4.978-1.307c2.877,0,5.472,1.202,7.333,3.129c0.933-1.071,2.601-3.535,4.712-6.065l0.16-0.352
			l10.999-24.01c1.451-3.167,5.118-4.91,8.493-3.726c3.872,1.36,5.703,5.65,4.077,9.196l-0.695,1.518
			c-1.536,3.354,0.007,7.355,3.443,8.939c3.438,1.586,7.469,0.153,9.005-3.198l0.695-1.519
			C103.086,18.107,97.623,5.262,86.054,1.161"/>
	</g>
	<path fill="#F96C7E" d="M70.886,80.852l-8.893-1.063l-3.536,6.845l0.191,0.417l4.171,9.104c1.534,3.354,5.566,4.786,9.003,3.2
		c3.438-1.585,4.979-5.586,3.445-8.939L70.886,80.852z"/>
	<path fill="#BE3A2B" d="M18.411,39.356c1.207-2.24,3.625-4.781,8.388-4.873c6.945-0.133,13.593,10.852,15.873,13.465
		c-1.795,1.86-2.909,4.393-2.909,7.195c0,1.878,0.535,3.614,1.402,5.131c0,10.428-13.974,17.302-19.829,11.395
		c-4.435-4.474-3.788-18.979-4.054-22.288C17.12,47.364,17.423,41.188,18.411,39.356"/>
	<g>
		<path fill="#922C25" d="M39.761,56.866c-0.362,0-0.728-0.114-1.04-0.349l-8.19-6.196c-0.758-0.575-0.908-1.657-0.334-2.415
			c0.576-0.76,1.654-0.909,2.416-0.336l8.189,6.197c0.761,0.575,0.911,1.657,0.336,2.417C40.799,56.63,40.283,56.866,39.761,56.866"
			/>
		<path fill="#922C25" d="M31.575,63.064c-0.522,0-1.038-0.236-1.377-0.684c-0.574-0.76-0.424-1.841,0.336-2.417l8.189-6.198
			c0.759-0.572,1.84-0.426,2.416,0.336c0.574,0.759,0.424,1.84-0.334,2.416l-8.189,6.198C32.302,62.95,31.937,63.064,31.575,63.064"
			/>
	</g>
	<path fill="#BE3A2B" d="M81.588,39.356c-1.207-2.24-3.625-4.781-8.389-4.873c-6.944-0.133-13.593,10.852-15.872,13.465
		c1.795,1.86,2.909,4.393,2.909,7.195c0,1.878-0.535,3.614-1.402,5.131c0,10.428,13.975,17.302,19.829,11.395
		c4.435-4.474,3.788-18.979,4.054-22.288C82.879,47.364,82.576,41.188,81.588,39.356"/>
	<g>
		<path fill="#922C25" d="M60.239,56.866c-0.522,0-1.038-0.236-1.378-0.683c-0.574-0.761-0.424-1.842,0.336-2.417l8.189-6.197
			c0.759-0.572,1.84-0.424,2.416,0.336c0.574,0.758,0.424,1.84-0.335,2.416l-8.189,6.196C60.966,56.753,60.6,56.866,60.239,56.866"
			/>
		<path fill="#922C25" d="M68.424,63.064c-0.362,0-0.728-0.114-1.039-0.349l-8.189-6.198c-0.759-0.576-0.909-1.656-0.335-2.415
			c0.575-0.763,1.655-0.909,2.415-0.337l8.189,6.199c0.761,0.575,0.911,1.656,0.337,2.417
			C69.462,62.828,68.947,63.064,68.424,63.064"/>
		<path fill="#922C25" d="M58.834,60.274L58.834,60.274c-1.769,3.094-5.041,5.198-8.834,5.198c-3.793,0-7.067-2.104-8.836-5.198l0,0
			c0,5.108-3.359,9.353-7.467,11.669l-7.619,9.026l10.771-1.182l6.255,9.867L50,68.966l6.897,20.689l5.096-9.867l10.421,1.247
			l-7.768-10.171C61.331,68.423,58.834,64.673,58.834,60.274"/>
	</g>
	<path fill="#F97B76" d="M60.237,55.143c0,5.705-4.583,10.33-10.236,10.33c-5.655,0-10.238-4.625-10.238-10.33
		S44.346,44.814,50,44.814C55.654,44.814,60.237,49.438,60.237,55.143"/>
	<path fill="#F96C7E" d="M18.303,13.791c3.374-1.185,7.043,0.557,8.495,3.726l10.999,24.01l0.16,0.35
		c2.11,2.531,3.778,4.995,4.71,6.067c0.691-0.717,1.483-1.333,2.355-1.824l4.734-10.333L50,35.254L39.367,12.041
		C35.025,2.563,24.027-2.413,13.944,1.161C2.377,5.261-3.086,18.108,1.777,28.727l0.695,1.517c1.536,3.352,5.567,4.785,9.005,3.2
		c3.438-1.584,4.979-5.588,3.443-8.939l-0.695-1.517C12.602,19.44,14.433,15.149,18.303,13.791"/>
	<g>
		<path fill="#F8B7C2" d="M11.653,8.262C9.384,7.423,6.905,7.314,4.479,7.923c-0.969,1.224-1.793,2.54-2.457,3.927
			c0.453,0.235,0.995,0.288,1.496,0.055c2.309-1.064,4.771-1.212,6.938-0.409c1.943,0.719,3.44,2.123,4.326,4.061
			c0.09,0.196,0.221,0.358,0.366,0.501c0.691-0.871,1.605-1.581,2.707-2.057C16.585,11.314,14.393,9.278,11.653,8.262"/>
		<path fill="#F8B7C2" d="M15.396,26.124c-0.093-0.548-0.233-1.093-0.476-1.621l-0.695-1.517c-0.284-0.621-0.427-1.267-0.507-1.916
			c-0.25-0.124-0.491-0.255-0.765-0.357c-3.269-1.21-8.159-0.664-12.875,1.394c0.09,1.148,0.29,2.293,0.588,3.427
			c0.114-0.026,0.228-0.029,0.338-0.079c4.011-1.848,8.231-2.443,10.75-1.507c0.813,0.3,1.35,0.729,1.599,1.272
			c0.29,0.633,0.915,1.007,1.569,1.007C15.081,26.228,15.239,26.169,15.396,26.124"/>
		<path fill="#F8B7C2" d="M25.99,0.736c-1.219-0.333-2.471-0.552-3.741-0.654c-0.035,0.302-0.019,0.609,0.115,0.905
			c2.083,4.545,1.314,9.552-1.677,10.931c-0.627,0.29-0.988,0.909-0.992,1.557c1.349-0.164,2.68,0.107,3.857,0.704
			C26.981,11.555,28.005,6.132,25.99,0.736"/>
		<path fill="#F8B7C2" d="M39.366,12.04c-0.904-1.975-2.11-3.738-3.522-5.285c-0.569,0.488-0.79,1.29-0.464,2.003
			c2.55,5.571-0.038,12.252-5.771,14.898l1.436,3.134c0.002-0.001,0.004-0.001,0.005-0.001c5.579-2.573,8.857-8.11,8.755-13.792
			L39.366,12.04z"/>
	</g>
	<g>
		<path fill="#F96C7E" d="M87.046,20.713c-0.274,0.102-0.516,0.233-0.766,0.357c-0.079,0.648-0.222,1.295-0.507,1.917l-0.696,1.518
			c-0.241,0.527-0.381,1.07-0.474,1.619c0.156,0.046,0.315,0.104,0.472,0.104c0.655,0,1.281-0.374,1.571-1.007
			c0.248-0.543,0.786-0.972,1.597-1.272c2.521-0.936,6.741-0.341,10.751,1.507c0.11,0.05,0.225,0.054,0.338,0.08
			c0.299-1.135,0.499-2.279,0.588-3.428C95.202,20.05,90.31,19.503,87.046,20.713"/>
		<path fill="#F96C7E" d="M95.521,7.923c-2.426-0.609-4.905-0.502-7.175,0.339c-2.739,1.014-4.933,3.052-6.201,5.74
			c1.102,0.474,2.015,1.185,2.706,2.055c0.146-0.143,0.276-0.304,0.366-0.5c0.886-1.938,2.383-3.341,4.325-4.061
			c2.162-0.802,4.626-0.657,6.938,0.409c0.501,0.231,1.041,0.178,1.496-0.057C97.312,10.461,96.49,9.146,95.521,7.923"/>
		<path fill="#F96C7E" d="M80.304,13.476c-0.003-0.648-0.363-1.269-0.991-1.559c-2.991-1.377-3.762-6.385-1.68-10.929
			c0.137-0.296,0.152-0.604,0.117-0.905c-1.272,0.102-2.522,0.321-3.741,0.654c-2.016,5.396-0.991,10.819,2.438,13.443
			C77.625,13.583,78.956,13.312,80.304,13.476"/>
		<path fill="#F96C7E" d="M64.62,8.759c0.325-0.714,0.104-1.515-0.464-2.003c-1.412,1.546-2.619,3.311-3.522,5.285l-0.439,0.958
			c-0.103,5.681,3.175,11.219,8.755,13.792c0.002,0,0.003,0,0.005,0.002l1.437-3.135C64.658,21.011,62.069,14.33,64.62,8.759"/>
	</g>
</g>
</svg>
