<?xml version="1.0" encoding="utf-8"?>
<!-- Generator: Adobe Illustrator 16.0.0, SVG Export Plug-In . SVG Version: 6.00 Build 0)  -->
<!DOCTYPE svg PUBLIC "-//W3C//DTD SVG 1.1//EN" "http://www.w3.org/Graphics/SVG/1.1/DTD/svg11.dtd">
<svg version="1.1" id="Layer_1" xmlns="http://www.w3.org/2000/svg" xmlns:xlink="http://www.w3.org/1999/xlink" x="0px" y="0px"
	 width="84.745px" height="100px" viewBox="0 0 84.745 100" enable-background="new 0 0 84.745 100" xml:space="preserve">
<g>
	<path fill="#559E62" d="M84.745,89.83c-9.322-6.039-15.254-11.864-15.254-11.864c4.449,0.424,6.786-5.085,6.786-5.085
		c-4.344-1.059-11.857-8.475-11.857-8.475c4.343-0.106,10.183-3.39,10.183-3.39c-4.66-0.74-16.924-13.559-16.924-13.559
		c3.813,0.53,6.833-1.695,6.833-1.695c-3.813-0.741-10.063-8.475-10.063-8.475c4.767,0.212,8.687-1.695,8.687-1.695
		c-8.27-5.1-15.072-18.093-18.147-24.749c-1.606,1.543-2.615,3.7-2.615,6.105c0-2.405-1.008-4.563-2.615-6.105
		C36.683,17.5,29.879,30.493,21.61,35.593c0,0,3.918,1.907,8.687,1.695c0,0-6.251,7.734-10.064,8.475c0,0,3.02,2.226,6.834,1.695
		c0,0-12.263,12.818-16.924,13.56c0,0,5.841,3.282,10.183,3.39c0,0-7.514,7.415-11.857,8.475c0,0,2.337,5.508,6.786,5.085
		c0,0-5.932,5.825-15.254,11.864c0,0,21.08,0.636,30.508-5.085c0,0-9.005,8.156-11.865,8.475c0,0,12.924-0.106,17.797-5.085
		c0,0,2.542,2.859,5.932,3.39c3.39-0.53,5.932-3.39,5.932-3.39c4.873,4.979,17.797,5.085,17.797,5.085
		c-2.859-0.318-11.864-8.475-11.864-8.475C63.666,90.466,84.745,89.83,84.745,89.83"/>
	<g>
		<path fill="#EEC319" d="M46.085,49.152h-2.341c-0.758,0-1.371-0.613-1.371-1.373V45.44c0-0.759,0.613-1.373,1.371-1.373h2.341
			c0.758,0,1.373,0.613,1.373,1.373v2.339C47.458,48.539,46.843,49.152,46.085,49.152"/>
		<path fill="#EEC319" d="M41,33.898h-2.34c-0.758,0-1.371-0.614-1.371-1.373v-2.339c0-0.76,0.613-1.373,1.371-1.373H41
			c0.758,0,1.373,0.613,1.373,1.373v2.339C42.373,33.285,41.758,33.898,41,33.898"/>
		<path fill="#EEC319" d="M34.221,57.627H31.88c-0.758,0-1.371-0.613-1.371-1.373v-2.339c0-0.759,0.613-1.373,1.371-1.373h2.341
			c0.757,0,1.373,0.614,1.373,1.373v2.339C35.594,57.014,34.979,57.627,34.221,57.627"/>
		<path fill="#EEC319" d="M56.255,61.017h-2.341c-0.758,0-1.371-0.613-1.371-1.372v-2.34c0-0.759,0.613-1.372,1.371-1.372h2.341
			c0.757,0,1.372,0.613,1.372,1.372v2.34C57.627,60.403,57.012,61.017,56.255,61.017"/>
		<path fill="#EEC319" d="M56.255,79.661h-2.341c-0.758,0-1.371-0.613-1.371-1.373v-2.339c0-0.76,0.613-1.373,1.371-1.373h2.341
			c0.757,0,1.372,0.613,1.372,1.373v2.339C57.627,79.048,57.012,79.661,56.255,79.661"/>
		<path fill="#EEC319" d="M42.695,69.491h-2.341c-0.758,0-1.371-0.613-1.371-1.372v-2.34c0-0.759,0.613-1.372,1.371-1.372h2.341
			c0.758,0,1.373,0.613,1.373,1.372v2.34C44.068,68.878,43.453,69.491,42.695,69.491"/>
		<path fill="#EEC319" d="M29.136,77.966h-2.34c-0.758,0-1.371-0.613-1.371-1.373v-2.339c0-0.759,0.613-1.373,1.371-1.373h2.34
			c0.758,0,1.373,0.614,1.373,1.373v2.339C30.509,77.353,29.894,77.966,29.136,77.966"/>
	</g>
	<path fill="#994530" d="M42.373,91.525c-1.283-0.2-2.442-0.734-3.39-1.32v8.1h6.78v-8.1C44.814,90.792,43.655,91.325,42.373,91.525
		"/>
	<path fill="#EEC319" d="M33.898,8.475c4.685,0,8.475-3.79,8.475-8.475c0,4.685,3.79,8.475,8.474,8.475
		c-4.685,0-8.474,3.79-8.474,8.475C42.373,12.265,38.583,8.475,33.898,8.475"/>
	<path fill="#7A3726" d="M50.847,100H33.898c-0.936,0-1.695-0.758-1.695-1.695c0-0.937,0.759-1.694,1.695-1.694h16.949
		c0.936,0,1.695,0.758,1.695,1.694C52.542,99.242,51.782,100,50.847,100"/>
</g>
</svg>
