<?xml version="1.0" encoding="utf-8"?>
<!-- Generator: Adobe Illustrator 23.0.3, SVG Export Plug-In . SVG Version: 6.00 Build 0)  -->
<svg version="1.1" id="Layer_1" xmlns="http://www.w3.org/2000/svg" xmlns:xlink="http://www.w3.org/1999/xlink" x="0px" y="0px"
	 viewBox="0 0 126 99.9" style="enable-background:new 0 0 126 99.9;" xml:space="preserve">
<style type="text/css">
	.st0{fill:#00C3FF;}
	.st1{fill:#96E6FF;}
	.st2{fill:#0096DC;}
	.st3{fill:#00D2FF;}
</style>
<path class="st0" d="M81.3,48.6C74.5,30.9,60,9.1,32.5,0.1c-1.5-0.5-3.1,0.5-3.4,2.1c-0.9,5.3-1.8,17.1,5.7,28.6l40.1,26.1
	L81.3,48.6z"/>
<path class="st1" d="M97.7,35.7c-5.5,0.2-10.4,2.8-13.6,6.8c-2.7,3.5-5.8,6.6-9.5,8.9c-14.3,9.1-46.8,13.1-46.8,13.1
	c-7.5,1-15.6,1.7-24.2,1.9c-2.7,0.1-4.4,2.9-3.3,5.3L9.1,91c0.9,2,3.4,2.8,5.3,1.7c3.5-2,9.4-5.3,16.4-9.1
	c7,9.9,18.5,16.3,31.5,16.3c16.7,0,31-10.7,36.3-25.6c0.6-1.7,2.1-2.8,3.8-3.2c8.2-1.9,14.3-9.3,13.9-18.2
	C115.9,43.3,107.4,35.4,97.7,35.7z"/>
<path class="st2" d="M103.4,53.7c-1.4,0-2.6-1.2-2.6-2.6v-2.6c0-1.4,1.2-2.6,2.6-2.6s2.6,1.2,2.6,2.6v2.6
	C106,52.6,104.8,53.7,103.4,53.7z"/>
<path class="st3" d="M85.4,66.6C53.3,83.7,30.1,67,23.2,60.9c-1.1-1-1-2.8,0.2-3.6l5.4-3.6C14.7,47.7,10.1,33.8,8.7,28
	c-0.3-1.4,0.6-2.7,2-2.8C60.5,21.8,85.4,66.6,85.4,66.6z M20,76.1L3.7,79.3L9,91.1c0.9,2,3.4,2.8,5.3,1.7c3.5-2,9.4-5.3,16.4-9.1
	l-3-4.4C26.1,76.8,23,75.5,20,76.1z"/>
<path class="st0" d="M114.7,53.5L114.7,53.5c0,2.6,0.8,4.5,3.3,3.7l5.9-2c1.4-0.5,1.5-2.5,0.1-3l-5.8-2.3
	C115.6,49,114.7,50.8,114.7,53.5z M63.1,58.4c-8.7,0.6-23.8-0.5-32.4-3.9c-1.2-0.5-2.5-0.4-3.6,0.4l-3.7,2.4
	c-1.2,0.8-1.4,2.6-0.3,3.6c3.2,2.8,9.8,7.8,19,10.8c0.7,0.2,1.5,0.2,2.2,0c9.1-2.7,15.8-7.1,19.8-10.3
	C65.6,60.4,64.7,58.3,63.1,58.4z"/>
</svg>
