<?xml version="1.0" encoding="utf-8"?>
<!-- Generator: Adobe Illustrator 16.0.0, SVG Export Plug-In . SVG Version: 6.00 Build 0)  -->
<!DOCTYPE svg PUBLIC "-//W3C//DTD SVG 1.1//EN" "http://www.w3.org/Graphics/SVG/1.1/DTD/svg11.dtd">
<svg version="1.1" id="Layer_1" xmlns="http://www.w3.org/2000/svg" xmlns:xlink="http://www.w3.org/1999/xlink" x="0px" y="0px"
	 width="69.51px" height="100px" viewBox="0 0 69.51 100" enable-background="new 0 0 69.51 100" xml:space="preserve">
<g>
	<g>
		<path fill="#FFDA44" d="M21.289,100c11.376,0,22.573-5.354,29.579-15.367c7.522-10.77,9.588-23.719,6.843-35.61
			c0.083-0.331,0.092-0.688-0.054-1.026c-4.655-10.955,0.219-23.545,10.861-28.061c0.826-0.352,1.214-1.308,0.861-2.134
			c-0.34-0.825-1.3-1.204-2.122-0.862c-8.247,3.5-13.49,11.184-14.439,19.671c-3.126-5.386-7.387-10.214-12.803-14.03
			c2.227-2.643,4.587-6.1,0.171-11.213C38.287,9.168,34.901,8.607,33.167,0c0,0-4.199,3.488-4.422,9.574
			c-4.066-3.23-7.947-1.805-10.484-6.576c0,0-5.022,9.424,4.346,14.403c-6.035,1.464-8.608,6.438-8.608,6.438
			c8.783-0.156,10.059,3.032,12.613,4.41c6.379,3.455,9.216-0.301,11.366-3.166c0.016,0.01,0.022,0.031,0.038,0.043
			C53.708,36.107,59.4,56.065,53.11,73.253c0.137-6.633-2.37-13.165-7.269-17.904c0.928-3.295,1.318-9.427-8.946-9.032
			c-2.014,0.071-6.406,0.436-10.504-1.734c0,0,6.889,21.873,17.62,13.549c7.03,7.218,7.942,18.878,1.644,27.531
			c-0.108,0.152-0.179,0.33-0.223,0.502C34.497,98.039,16.154,100.34,2.552,90.837c-0.729-0.511-1.744-0.336-2.257,0.397
			c-0.515,0.743-0.339,1.754,0.402,2.269C6.962,97.899,14.158,100,21.289,100z"/>
	</g>
</g>
</svg>
