<?xml version="1.0" encoding="utf-8"?>
<!-- Generator: Adobe Illustrator 16.0.0, SVG Export Plug-In . SVG Version: 6.00 Build 0)  -->
<!DOCTYPE svg PUBLIC "-//W3C//DTD SVG 1.1//EN" "http://www.w3.org/Graphics/SVG/1.1/DTD/svg11.dtd">
<svg version="1.1" id="Layer_1" xmlns="http://www.w3.org/2000/svg" xmlns:xlink="http://www.w3.org/1999/xlink" x="0px" y="0px"
	 width="100px" height="100px" viewBox="0 0 100 100" enable-background="new 0 0 100 100" xml:space="preserve">
<path fill="#DB5449" d="M3.125,26.563L50,50l46.875-23.438v50L50,100L3.125,76.563V26.563z"/>
<path fill="#C54B42" d="M3.125,31.25v14.61L49.844,68.75l47.031-22.969V31.25L50,54.219L3.125,31.25z"/>
<path fill="#D05045" d="M50,100V50L6.25,28.125H3.125v48.438L50,100z"/>
<path fill="#BB483E" d="M3.125,31.25v14.61L49.844,68.75L50,68.672V54.141v0.078L3.125,31.25z"/>
<path fill="#EB6258" d="M0,24.922L50,0l50,24.922v3.281L50,53.125L0,28.281V24.922z"/>
<path fill="#EFEFEF" d="M78.672,7.891c-1.641-2.969-5.156-4.766-9.297-4.766c-9.453,0-16.094,8.828-19.375,14.453
	C46.719,11.953,40,3.203,30.625,3.203c-6.016,0-10.313,3.672-10.313,8.672c0,8.906,9.766,14.688,29.375,14.688
	c19.609,0,30-7.422,30-14.609C79.688,10.547,79.375,9.141,78.672,7.891z M32.656,17.5c-2.188-1.484-2.969-3.125-2.969-4.219
	c0-1.328,1.25-2.344,3.047-2.344c4.219,0,7.578,5.547,9.453,9.375C37.266,19.922,34.375,18.594,32.656,17.5z M67.344,17.5
	c-1.719,1.094-4.609,2.422-9.531,2.813c1.797-3.828,5.156-9.375,9.453-9.375c1.797,0,3.047,1.016,3.047,2.344
	C70.313,14.375,69.531,16.016,67.344,17.5z"/>
<path fill="#E2574C" d="M0,25l50,24.453L100,25v16.172L49.844,65.625L0,41.172V25z"/>
<path fill="#EFEFEF" d="M68.75,42.422v-1.797L50,30.469L31.25,40.625v1.797l-12.5-5.469v-2.5l30.625-16.172L50,18.594l0.625-0.313
	L81.25,34.375v2.5L68.75,42.422z"/>
<path fill="#DCDCDC" d="M68.75,40.625v49.922l12.5-6.25V34.375L68.75,40.625z"/>
<path fill="#D1D1D1" d="M18.75,84.375l12.5,6.25V40.703l-12.5-6.328V84.375z"/>
</svg>
