<?xml version="1.0" encoding="utf-8"?>
<!-- Generator: Adobe Illustrator 16.0.0, SVG Export Plug-In . SVG Version: 6.00 Build 0)  -->
<!DOCTYPE svg PUBLIC "-//W3C//DTD SVG 1.1//EN" "http://www.w3.org/Graphics/SVG/1.1/DTD/svg11.dtd">
<svg version="1.1" id="Layer_1" xmlns="http://www.w3.org/2000/svg" xmlns:xlink="http://www.w3.org/1999/xlink" x="0px" y="0px"
	 width="101.209px" height="100px" viewBox="0 0 101.209 100" enable-background="new 0 0 101.209 100" xml:space="preserve">
<path fill="#FF9B48" d="M92.348,26.13c-1.582,1.752-3.613,2.771-5.624,2.771c-0.325,0-0.648-0.028-0.962-0.082
	c-5.28-0.7-13.776-3.442-19.994-7.821c-0.26-0.183-0.512-0.268-0.794-0.268c-1.84,0-4.824,3.292-7.457,6.197
	c-3.873,4.274-8.264,9.119-13.077,9.119c-0.411,0-0.823-0.036-1.225-0.106c-3.138-0.438-5.644-4.178-8.296-8.138
	c-2.029-3.028-4.556-6.73-6.344-6.799c-1.398-0.053-3.776,2.247-5.766,3.911c-3.584,2.997-7.291,6.096-10.717,6.096l0,0
	c-1.148,0-2.18-0.35-3.066-1.04c-0.024-0.019-0.047-0.038-0.069-0.057c-0.536-0.473-0.997-1.035-1.382-1.688
	C2.775,36.432,0,46.111,0,56.48C0,74.39,8.267,90.245,20.97,100h59.271c12.703-9.755,20.969-25.61,20.969-43.52
	C101.209,45.216,97.937,34.764,92.348,26.13z M79.639,66.841c0,4.864-3.942,8.806-8.806,8.806h-7.522
	c-1.937,2.212-4.778,3.611-7.95,3.611H45.85c-3.172,0-6.015-1.399-7.951-3.611h-7.522c-4.864,0-8.807-3.94-8.807-8.806v-7.926
	c0-4.864,3.942-8.806,8.807-8.806h7.522c1.936-2.211,4.778-3.611,7.951-3.611h9.511c3.172,0,6.015,1.399,7.95,3.611h7.522
	c4.863,0,8.806,3.942,8.806,8.806V66.841z"/>
<path fill="#FF5B3B" d="M98.662,9.938V6.752C98.662,3.029,95.633,0,91.911,0H9.3C5.578,0,2.549,3.029,2.549,6.752v3.186
	c0,2.709,1.61,5.147,4.102,6.212c0.838,0.358,1.729,0.539,2.646,0.54L9.97,16.69l-0.086,0.667c-0.647,5.038-0.179,8.448,1.356,9.863
	c0.249,0.18,0.513,0.261,0.852,0.261c2.146,0,5.792-3.048,8.454-5.274c2.291-1.916,4.269-3.569,6.062-4.306
	c0.62-0.279,1.288-0.426,1.967-0.426c3.673,0,6.395,4.062,9.276,8.363c1.708,2.55,4.288,6.401,5.86,6.608
	c0.027,0.003,0.057,0.008,0.087,0.013c0.217,0.039,0.43,0.058,0.642,0.058c3.249,0,7.081-4.228,10.461-7.958
	c3.578-3.948,6.667-7.357,10.072-7.357c1.016,0,1.967,0.307,2.826,0.912c5.741,4.044,13.59,6.574,18.453,7.211
	c0.028,0.004,0.062,0.009,0.094,0.015c0.123,0.022,0.249,0.033,0.376,0.033c1.171,0,2.599-0.92,3.552-2.291
	c1.113-1.599,1.547-3.627,1.224-5.713l-0.104-0.667l0.674-0.016c0.92-0.022,1.808-0.225,2.637-0.603
	C97.109,14.987,98.662,12.575,98.662,9.938z"/>
</svg>
