<?xml version="1.0" encoding="utf-8"?>
<!-- Generator: Adobe Illustrator 16.0.0, SVG Export Plug-In . SVG Version: 6.00 Build 0)  -->
<!DOCTYPE svg PUBLIC "-//W3C//DTD SVG 1.1//EN" "http://www.w3.org/Graphics/SVG/1.1/DTD/svg11.dtd">
<svg version="1.1" id="Layer_1" xmlns="http://www.w3.org/2000/svg" xmlns:xlink="http://www.w3.org/1999/xlink" x="0px" y="0px"
	 width="105.263px" height="100px" viewBox="0 0 105.263 100" enable-background="new 0 0 105.263 100" xml:space="preserve">
<path fill="#B02721" d="M94.372,46.541l-41.74-32.176l-41.74,32.176c-2.154,1.659-5.218,1.404-7.067-0.588l0,0
	c-2.096-2.258-1.812-5.825,0.614-7.723L49.052,3.326L52.631,0l3.581,3.326l44.613,34.904c2.427,1.897,2.711,5.465,0.614,7.723l0,0
	C99.589,47.945,96.526,48.2,94.372,46.541z"/>
<path fill="#B02721" d="M94.372,46.541l-41.74-32.176l-41.74,32.176c-2.154,1.659-5.218,1.404-7.067-0.588l0,0
	c-2.096-2.258-1.812-5.825,0.614-7.723L49.052,3.326L52.631,0l3.581,3.326l44.613,34.904c2.427,1.897,2.711,5.465,0.614,7.723l0,0
	C99.589,47.945,96.526,48.2,94.372,46.541z"/>
<polygon fill="#E0E1E2" points="52.631,14.365 12.28,45.469 12.28,45.613 12.28,98.246 92.982,98.246 92.982,45.613 92.982,45.469 
	"/>
<g>
	<path fill="#E0E1E2" d="M103.508,80.702c-0.97,0-1.754,0.785-1.754,1.754v1.755H100v-1.755c0-0.969-0.784-1.754-1.754-1.754
		c-0.971,0-1.755,0.785-1.755,1.754v1.755h-3.509c-0.97,0-1.754,0.785-1.754,1.754s0.784,1.755,1.754,1.755h3.509v5.263h-3.509
		c-0.97,0-1.754,0.786-1.754,1.755c0,0.968,0.784,1.754,1.754,1.754h3.509v1.755c0,0.968,0.784,1.754,1.755,1.754
		c0.97,0,1.754-0.786,1.754-1.754v-1.755h1.755v1.755c0,0.968,0.784,1.754,1.754,1.754c0.971,0,1.755-0.786,1.755-1.754v-15.79
		C105.263,81.487,104.479,80.702,103.508,80.702z M100,92.982V87.72h1.755v5.263H100z"/>
	<path fill="#E0E1E2" d="M12.28,87.72c0.97,0,1.754-0.786,1.754-1.755s-0.784-1.754-1.754-1.754H8.771v-1.755
		c0-0.969-0.784-1.754-1.754-1.754c-0.97,0-1.755,0.785-1.755,1.754v1.755H3.508v-1.755c0-0.969-0.784-1.754-1.754-1.754
		S0,81.487,0,82.456v15.79C0,99.214,0.784,100,1.754,100s1.754-0.786,1.754-1.754v-1.755h1.754v1.755
		c0,0.968,0.785,1.754,1.755,1.754c0.97,0,1.754-0.786,1.754-1.754v-1.755h3.509c0.97,0,1.754-0.786,1.754-1.754
		c0-0.969-0.784-1.755-1.754-1.755H8.771V87.72H12.28z M5.263,92.982H3.508V87.72h1.754V92.982z"/>
</g>
<rect x="26.315" y="43.859" fill="#556080" width="21.053" height="14.035"/>
<rect x="26.315" y="68.421" fill="#556080" width="21.053" height="17.544"/>
<rect x="57.894" y="43.859" fill="#556080" width="21.053" height="14.035"/>
<rect x="57.894" y="68.421" fill="#556080" width="21.053" height="29.825"/>
<rect x="57.894" y="43.859" fill="#7383BF" width="21.053" height="10.526"/>
<rect x="26.315" y="43.859" fill="#7383BF" width="21.053" height="4.852"/>
<polygon fill="#7383BF" points="38.596,75.438 38.596,68.421 35.087,68.421 35.087,75.438 26.315,75.438 26.315,78.947 
	35.087,78.947 35.087,85.965 38.596,85.965 38.596,78.947 47.368,78.947 47.368,75.438 "/>
</svg>
