<?xml version="1.0" encoding="utf-8"?>
<!-- Generator: Adobe Illustrator 16.0.0, SVG Export Plug-In . SVG Version: 6.00 Build 0)  -->
<!DOCTYPE svg PUBLIC "-//W3C//DTD SVG 1.1//EN" "http://www.w3.org/Graphics/SVG/1.1/DTD/svg11.dtd">
<svg version="1.1" id="Layer_1" xmlns="http://www.w3.org/2000/svg" xmlns:xlink="http://www.w3.org/1999/xlink" x="0px" y="0px"
	 width="98.276px" height="101px" viewBox="0 0 98.276 101" enable-background="new 0 0 98.276 101" xml:space="preserve">
<g>
	<path fill="#805333" d="M50.586,30.976c-0.196,0.016-0.386,0.059-0.586,0.059c-1.657,0-3.157-0.608-4.345-1.581
		c0.55,0.983,0.896,2.095,0.896,3.305c0,1.035-0.243,2.007-0.651,2.888c3.579,19.136,8.109,53.448-2.797,64.354h24.138
		C67.242,100,66.569,55.023,50.586,30.976z"/>
</g>
<line fill="none" stroke="#A4E869" stroke-width="2" stroke-linejoin="round" stroke-miterlimit="10" x1="0" y1="100" x2="98.276" y2="100"/>
<circle fill="#7F6E5D" cx="25.862" cy="93.104" r="6.896"/>
<circle fill="#CBB292" cx="50" cy="24.138" r="6.896"/>
<path fill="#4FBA6F" d="M61.821,9.8c-6.01,1.61-10.955,4.655-14.031,7.836c0.698-0.238,1.433-0.395,2.21-0.395
	c3.034,0,5.581,1.971,6.503,4.693L62,20.462l1.605-4l3.391,2.662l17.486-4.687C83.25,9.839,72.859,6.843,61.821,9.8z"/>
<path fill="#4C8056" d="M45.798,18.705C44.316,14.222,39.921,8.657,33.402,4.71c-9.776-5.916-20.591-5.935-23.057-1.862
	l15.488,9.375l3.998-1.61l0.428,4.29l12.984,7.859C43.578,21.112,44.516,19.698,45.798,18.705z"/>
<path fill="#4FBA6F" d="M43.104,24.138c0-0.569,0.088-1.114,0.219-1.643c-3.481-3.19-12.097-4.778-21.157-2.348
	C11.127,23.103,3.626,30.893,4.859,35.493l17.486-4.686l1.605-4l3.391,2.662l8.167-2.188c1.157-0.879,2.583-1.419,4.146-1.419
	c0.285,0,0.555,0.05,0.831,0.084l2.726-0.731C43.157,24.862,43.104,24.507,43.104,24.138z"/>
<path fill="#7F6E5D" d="M43.967,27.417c-1.183-0.958-2.67-1.555-4.312-1.555c-3.809,0-6.896,3.088-6.896,6.896
	s3.088,6.896,6.896,6.896s6.896-3.088,6.896-6.896c0-1.193-0.331-2.3-0.864-3.279C44.985,28.912,44.404,28.215,43.967,27.417z"/>
<line fill="none" stroke="#A4E869" stroke-width="2" stroke-linecap="round" stroke-linejoin="round" stroke-miterlimit="10" x1="72.415" y1="100" x2="72.415" y2="91.379"/>
<line fill="none" stroke="#A4E869" stroke-width="2" stroke-linecap="round" stroke-linejoin="round" stroke-miterlimit="10" x1="77.586" y1="100" x2="77.586" y2="94.827"/>
<line fill="none" stroke="#A4E869" stroke-width="2" stroke-linecap="round" stroke-linejoin="round" stroke-miterlimit="10" x1="82.759" y1="100" x2="82.759" y2="91.379"/>
<line fill="none" stroke="#A4E869" stroke-width="2" stroke-linecap="round" stroke-linejoin="round" stroke-miterlimit="10" x1="39.655" y1="98.275" x2="39.655" y2="93.104"/>
<g>
	<path fill="#CB8252" d="M59.873,51.724H48.44c0.145,1.138,0.281,2.288,0.41,3.448h12.021
		C60.554,54.019,60.222,52.869,59.873,51.724z"/>
	<path fill="#CB8252" d="M55.341,39.655c-0.537-1.174-1.097-2.328-1.685-3.448h-7.655c0.205,1.105,0.412,2.253,0.619,3.448H55.341z"
		/>
</g>
<g>
	<path fill="#CB8252" d="M65.994,82.759H49.459c-0.129,1.179-0.283,2.334-0.473,3.448h17.369
		C66.249,85.104,66.128,83.952,65.994,82.759z"/>
	<path fill="#CB8252" d="M49.928,70.689h14.356c-0.194-1.138-0.403-2.288-0.626-3.448H49.816
		C49.866,68.396,49.906,69.548,49.928,70.689z"/>
</g>
</svg>
