<?xml version="1.0" encoding="utf-8"?>
<!-- Generator: Adobe Illustrator 16.0.0, SVG Export Plug-In . SVG Version: 6.00 Build 0)  -->
<!DOCTYPE svg PUBLIC "-//W3C//DTD SVG 1.1//EN" "http://www.w3.org/Graphics/SVG/1.1/DTD/svg11.dtd">
<svg version="1.1" id="Layer_1" xmlns="http://www.w3.org/2000/svg" xmlns:xlink="http://www.w3.org/1999/xlink" x="0px" y="0px"
	 width="72.065px" height="100px" viewBox="0 0 72.065 100" enable-background="new 0 0 72.065 100" xml:space="preserve">
<g>
	<polygon fill="#659C35" points="38.386,16.467 33.235,17.544 28.205,2.553 36.977,0 	"/>
	<path fill="#88C057" d="M49.442,14.851c1.888-1.718,3.321-3.792,4.051-6.235c-9.573-3.563-12.554,1.056-12.554,1.056
		c-0.139-1.875-1.559-2.67-3.378-2.856l0.826,9.649l0,0l0,0l0,0l-5.152,1.079l0,0l0,0l-0.001-0.003l-3.081-9.183
		c-0.919,0.463-1.539,0.944-1.567,1.314c0,0-2.982-4.619-12.554-1.056c0.752,2.512,2.221,4.656,4.191,6.398
		c-7.696,1.089-14.77,3.738-18.332,10.252c18.03,5.396,23.396-3.302,23.396-3.302c1.093,11.817,10.248,15.307,11.632,15.789
		c1.384-0.482,10.538-3.972,11.632-15.789c0,0,1.977,8.697,20.009,3.302C64.585,18.707,57.162,15.933,49.442,14.851z"/>
	<g>
		<path fill="#E22F37" d="M65.552,26.181c-0.026-0.032-0.047-0.066-0.073-0.099c-15.17,3.549-16.93-4.117-16.93-4.117
			c-1.093,11.817-10.248,15.307-11.632,15.789c-1.384-0.482-10.539-3.972-11.631-15.789c0,0-4.482,7.123-18.818,4.388
			c-0.031,0.03-0.063,0.062-0.096,0.091c0.042,0.008,0.087,0.02,0.128,0.027C2.244,30.751,0,37.396,0,47.459
			C0.002,69.954,22.609,100,36.033,100s36.032-30.046,36.032-52.542c0-10.251-2.33-16.954-6.74-21.227
			C65.398,26.218,65.479,26.196,65.552,26.181z"/>
	</g>
	<path fill="#994530" d="M16.375,36.267c-0.214-0.687-1.184-0.687-1.396,0c0,0-2.66,9.288-2.66,10.185s0.349,1.74,0.984,2.375
		c0.633,0.635,1.477,0.984,2.374,0.984s1.74-0.35,2.374-0.984c0.635-0.635,0.984-1.477,0.984-2.375S16.375,36.267,16.375,36.267z"/>
	<path fill="#994530" d="M37.126,43.284c-0.214-0.687-1.185-0.687-1.396,0c0,0-2.66,9.288-2.66,10.185s0.349,1.74,0.984,2.375
		c0.633,0.635,1.478,0.984,2.374,0.984s1.74-0.35,2.373-0.984c0.636-0.635,0.984-1.477,0.984-2.375S37.126,43.284,37.126,43.284z"/>
	<path fill="#994530" d="M56.726,36.246c-0.214-0.687-1.184-0.687-1.396,0c0,0-2.659,9.287-2.659,10.184s0.349,1.74,0.984,2.375
		c0.633,0.636,1.477,0.984,2.373,0.984s1.74-0.349,2.374-0.984c0.635-0.635,0.984-1.477,0.984-2.375S56.726,36.246,56.726,36.246z"
		/>
	<path fill="#994530" d="M24.846,59.097c-0.214-0.687-1.185-0.687-1.396,0c0,0-2.66,9.287-2.66,10.184s0.349,1.741,0.984,2.376
		c0.634,0.635,1.478,0.984,2.374,0.984s1.74-0.35,2.374-0.984c0.635-0.635,0.984-1.478,0.984-2.376
		C27.505,68.383,24.846,59.097,24.846,59.097z"/>
	<path fill="#994530" d="M37.126,74.842c-0.214-0.686-1.185-0.686-1.396,0c0,0-2.66,9.288-2.66,10.185s0.349,1.74,0.984,2.375
		c0.633,0.636,1.478,0.984,2.374,0.984s1.74-0.349,2.373-0.984c0.636-0.635,0.984-1.477,0.984-2.375S37.126,74.842,37.126,74.842z"
		/>
	<path fill="#994530" d="M49.407,59.074c-0.214-0.687-1.184-0.687-1.396,0c0,0-2.659,9.287-2.659,10.184s0.349,1.74,0.984,2.375
		c0.633,0.636,1.477,0.984,2.373,0.984s1.74-0.349,2.374-0.984c0.635-0.635,0.984-1.477,0.984-2.375S49.407,59.074,49.407,59.074z"
		/>
</g>
</svg>
