<?xml version="1.0" encoding="utf-8"?>
<!-- Generator: Adobe Illustrator 23.0.3, SVG Export Plug-In . SVG Version: 6.00 Build 0)  -->
<svg version="1.1" id="Layer_1" xmlns="http://www.w3.org/2000/svg" xmlns:xlink="http://www.w3.org/1999/xlink" x="0px" y="0px"
	 viewBox="0 0 32.7 43.1" style="enable-background:new 0 0 32.7 43.1;" xml:space="preserve">
<style type="text/css">
	.st0{opacity:0.3;fill:#BDA791;enable-background:new    ;}
	.st1{fill:#005130;}
	.st2{fill:#009661;}
	.st3{fill:#FFFFFF;}
</style>
<path class="st0" d="M30.1,32.2L30.1,32.2L30.1,32.2c-1.7-1.5-3.9-3-5.9-4.4c-0.4-0.3-0.7-0.5-1.1-0.8c-0.1-0.1-0.2-0.1-0.2-0.2
	c-0.6-0.4-1-0.9-1.4-1.4l0,0c-0.1-0.2-0.2-0.4-0.3-0.6l0,0c-0.1-0.2-0.2-0.5-0.2-0.7c-0.2-0.8-0.3-1.7-0.3-2.9l0,0
	c0-0.6,0-1.3,0-1.9c0-0.3,0-0.7,0-1c0-1,0-1.8,0-1.8h1.9c0.5,0,0.9-0.4,0.9-0.9V9.7c0-0.5-0.4-0.9-0.9-0.9H5
	c1.7-2.2,1.9-4.7,1.9-5.7c0-0.3,0-0.4,0-0.5C6.9,1.2,5.7,0,4.3,0S1.7,1.2,1.7,2.6c0,0.1,0,0.3,0,0.4c0,1,0.2,3.5,1.9,5.7H2.1
	c-0.5,0-0.9,0.4-0.9,0.9v0.7c0,0,0,0,0,0.1c0,0.2,0,0.7,0,0.9c0,0.1,0,0.1,0,0.1V12c0,0.5,0,1.4,0,1.9v1.7c0,0.5,0.4,0.9,0.9,0.9
	h1.5c0,0,0,0.4,0,1.8c0,0.6,0,1.5,0,2.6c0,0.5,0,1.1,0,1.8c0,0.3,0,0.5,0,0.8c0,1.3,0.1,2.4,0.2,3.4l0,0c0,0.3,0.1,0.6,0.1,0.8l0,0
	l0,0c0.1,0.9,0.3,1.7,0.5,2.5l0,0l0,0c0.1,0.3,0.1,0.5,0.2,0.8l0,0c0.3,1,0.8,2,1.3,2.8l0,0l0,0C6,34,6.1,34.2,6.3,34.4
	c0,0,0,0,0,0.1c0.1,0.2,0.3,0.3,0.4,0.5l0,0l0,0c0.5,0.6,1,1.1,1.6,1.6l0,0l0,0c1.2,1,2.5,1.9,4.1,2.9l0,0l0,0
	c0.5,0.3,1,0.6,1.5,0.9c0.4,0.2,0.8,0.4,1.2,0.6l0,0c0.2,0.1,0.4,0.2,0.6,0.3l0,0l0,0c0.7,0.3,1.5,0.6,2.4,0.9l0,0l0,0
	c1.7,0.5,3.5,0.8,5.3,0.8c0,0,0,0,0.1,0c0.3,0,0.6,0,0.9,0l0,0l0,0c3.6-0.2,6.9-1.6,8.2-5.2C33.1,35.8,32,33.9,30.1,32.2z M2.5,2.6
	L2.5,2.6c0-1,0.8-1.8,1.8-1.8s1.8,0.8,1.8,1.8v0.1c0,0,0,0.2,0,0.4c0,0.9-0.2,3.2-1.8,5.3c-1.6-2-1.8-4.3-1.8-5.3
	C2.5,2.8,2.5,2.7,2.5,2.6z"/>
<path class="st1" d="M31.2,37.9c-2.5,7.1-13.1,5.8-18.6,2.6C5.9,36.5,2.3,34,2.3,23.6c0-5.9,0-7,0-7h17.1c0,0,0,2.7,0,4.7
	c0,2.8,0.4,4.2,2.3,5.6C26.2,30.2,32.7,33.6,31.2,37.9z"/>
<path class="st2" d="M26,29.9L14.5,41.3c-0.4-0.2-0.9-0.4-1.3-0.6l11.7-11.6C25.3,29.4,25.6,29.6,26,29.9z M27.9,31.3L17,42
	c-0.1,0.1-0.1,0.1-0.1,0.2c0.5,0.1,1,0.3,1.5,0.4l10.5-10.4C28.6,31.9,28.2,31.6,27.9,31.3z M30.4,33.8l-9,8.9
	c-0.1,0.1-0.1,0.2-0.2,0.3c0.6,0,1.2,0,1.8,0l8.1-8C30.9,34.6,30.7,34.2,30.4,33.8z M23,27.8c-0.4-0.3-0.7-0.5-1.1-0.8L10,38.8
	c0.4,0.2,0.8,0.5,1.2,0.7L22.9,28C22.9,27.9,23,27.8,23,27.8z M19.7,24.1L7.1,36.6c0.3,0.3,0.7,0.6,1.1,0.9l12.2-12.1
	C20,25,19.9,24.6,19.7,24.1z M19.4,19.3L4.7,33.9C5,34.3,5.2,34.7,5.5,35l13.9-13.8C19.4,20.6,19.4,20,19.4,19.3z M17.1,16.6
	l-14,13.8c0.1,0.5,0.3,1.1,0.5,1.5l15.6-15.3C19.2,16.6,17.1,16.6,17.1,16.6z M13.9,16.5H12L2.4,26c0,0.6,0.1,1.2,0.2,1.8l11.2-11.1
	C13.8,16.7,13.9,16.6,13.9,16.5z M8.7,16.7c0.1-0.1,0.1-0.1,0.1-0.2h-2l-4.5,4.4c0,0.5,0,1.1,0,1.8c0.1,0,0.3-0.1,0.4-0.2L8.7,16.7z
	"/>
<path class="st0" d="M2.4,16.6c0,0,0,0.4,0,1.8h17.1c0-1,0-1.8,0-1.8H2.4z"/>
<path class="st3" d="M21.4,8.8H3.7c1.8-2.2,2-4.8,2-5.8c0-0.2,0-0.4,0-0.4C5.7,1.2,4.5,0,3.1,0C1.7,0,0.5,1.2,0.5,2.6
	c0,0.1,0,0.3,0,0.4c0,1,0.2,3.6,2,5.8H0.9C0.4,8.8,0,9.2,0,9.7v0.7c0,0,0,0,0,0.1c0,0.2,0,0.7,0,0.9c0,0,0,0.1,0,0.1
	C0,11.7,0,12,0,12c0,0.5,0,1.4,0,1.9v1.7c0,0.5,0.4,0.9,0.9,0.9h20.5c0.5,0,0.9-0.4,0.9-0.9V9.7C22.3,9.2,21.9,8.8,21.4,8.8z
	 M1.3,2.7V2.6c0-1,0.8-1.8,1.8-1.8s1.8,0.8,1.8,1.8v0.1c0,0,0,0.2,0,0.4c0,0.9-0.2,3.2-1.8,5.3c-1.6-2-1.8-4.3-1.8-5.3
	C1.3,2.9,1.3,2.8,1.3,2.7z"/>
</svg>
