<?xml version="1.0" encoding="utf-8"?>
<!-- Generator: Adobe Illustrator 23.0.3, SVG Export Plug-In . SVG Version: 6.00 Build 0)  -->
<svg version="1.1" id="Layer_1" xmlns="http://www.w3.org/2000/svg" xmlns:xlink="http://www.w3.org/1999/xlink" x="0px" y="0px"
	 viewBox="0 0 28 34.5" style="enable-background:new 0 0 28 34.5;" xml:space="preserve">
<style type="text/css">
	.st0{fill:#A054A0;}
	.st1{fill:#993F97;}
	.st2{fill:#D60080;}
	.st3{fill:#EB008B;}
	.st4{opacity:0.1;fill:#231F20;enable-background:new    ;}
</style>
<g>
	<rect y="9.6" class="st0" width="28" height="7.5"/>
	<rect x="1.6" y="17.1" class="st1" width="24.7" height="17.4"/>
	<rect x="10.7" y="17.1" class="st2" width="6.7" height="17.4"/>
	<path class="st3" d="M10.5,9.6h7v7.5h-7V9.6z M21.2,5c0,2.2-1.8,4-4,4H10C7.5,9,5.5,7,5.5,4.5S7.5,0,10,0c1.7,0,3.3,1,4,2.5
		c0.8-1,1.9-1.6,3.2-1.6C19.4,0.9,21.2,2.7,21.2,5z M13.2,4.4c0-1.8-1.4-3.2-3.2-3.2S6.8,2.6,6.8,4.4c0,1.8,1.4,3.2,3.2,3.2h3.2V4.4
		z M19.9,4.9c0-1.5-1.2-2.7-2.7-2.7s-2.7,1.2-2.7,2.7v2.7h2.7C18.7,7.6,19.9,6.4,19.9,4.9z"/>
	<path class="st4" d="M21.2,4.9c0-2.2-1.8-4-4-4c-1.3,0-2.4,0.6-3.2,1.6V9h3.2C19.4,8.9,21.2,7.1,21.2,4.9z M14.5,4.9
		c0-1.5,1.2-2.7,2.7-2.7s2.7,1.2,2.7,2.7s-1.2,2.7-2.7,2.7h-2.7C14.5,7.6,14.5,4.9,14.5,4.9z M14,9.6v24.9h12.4V17.1H28V9.6H14z"/>
</g>
</svg>
