<?xml version="1.0" encoding="utf-8"?>
<!-- Generator: Adobe Illustrator 23.0.3, SVG Export Plug-In . SVG Version: 6.00 Build 0)  -->
<svg version="1.1" id="Layer_1" xmlns="http://www.w3.org/2000/svg" xmlns:xlink="http://www.w3.org/1999/xlink" x="0px" y="0px"
	 viewBox="0 0 47.5 52.2" style="enable-background:new 0 0 47.5 52.2;" xml:space="preserve">
<style type="text/css">
	.st0{fill:#7ED8F6;}
	.st1{fill:#5ECEF4;}
</style>
<path class="st0" d="M47.4,32.7c-0.3-0.9-1.2-1.4-2-1.1l-6.2,1.7l-4.6-2.7v-9l4.6-2.7l6.2,1.7c0.8,0.2,1.7-0.3,1.9-1.1
	s-0.3-1.7-1.1-1.9l-3.3-0.9l2.6-1.5c0.7-0.4,1-1.4,0.6-2.1c-0.4-0.7-1.4-1-2.1-0.6L41.4,14l0.9-3.3C42.5,9.9,42,9,41.2,8.8
	c-0.8-0.2-1.7,0.3-1.9,1.1l-1.7,6.2L33,18.8l-7.8-4.5V9l4.6-4.6c0.6-0.6,0.6-1.6,0-2.2c-0.6-0.6-1.6-0.6-2.2,0l-2.4,2.4v-3
	c0-0.9-0.7-1.6-1.6-1.6C22.7,0,22,0.7,22,1.6v3l-2.4-2.4c-0.6-0.6-1.6-0.6-2.2,0c-0.6,0.6-0.6,1.6,0,2.2L22,9v5.3l-7.8,4.5l-4.6-2.7
	L7.9,9.9C7.7,9.1,6.8,8.6,6,8.8C5.2,9,4.7,9.9,4.9,10.7l1,3.3l-2.6-1.5c-0.7-0.4-1.7-0.2-2.1,0.6c-0.4,0.7-0.2,1.7,0.6,2.1l2.6,1.5
	l-3.3,0.9c-0.8,0.2-1.3,1.1-1.1,1.9s1.1,1.3,1.9,1.1l6.2-1.7l4.6,2.7v9l-4.6,2.7l-6.2-1.7c-0.8-0.2-1.7,0.3-1.9,1.1s0.3,1.7,1.1,1.9
	l3.3,0.9L1.8,37c-0.7,0.4-1,1.4-0.6,2.1c0.4,0.7,1.4,1,2.1,0.6l2.6-1.5L5,41.5c-0.2,0.8,0.3,1.7,1.1,1.9c0.8,0.2,1.7-0.3,1.9-1.1
	l1.7-6.2l4.6-2.7l7.8,4.5v5.3l-4.6,4.6c-0.6,0.6-0.6,1.6,0,2.2c0.6,0.6,1.6,0.6,2.2,0l2.4-2.4v3c0,0.9,0.7,1.6,1.6,1.6
	c0.9,0,1.6-0.7,1.6-1.6v-3l2.4,2.4c0.6,0.6,1.6,0.6,2.2,0c0.6-0.6,0.6-1.6,0-2.2l-4.6-4.6v-5.3l7.8-4.5l4.6,2.7l1.7,6.2
	c0.2,0.8,1.1,1.3,1.9,1.1s1.3-1.1,1.1-1.9l-0.9-3.3l2.6,1.5c0.7,0.4,1.7,0.2,2.1-0.6c0.4-0.7,0.2-1.7-0.6-2.1L43,35.5l3.3-0.9
	C47.1,34.4,47.6,33.5,47.4,32.7z M15.8,23.3l4.7,2.7l-4.7,2.7V23.3z M22.1,34.2l-4.7-2.7l4.7-2.7V34.2z M22.1,23.4l-4.7-2.7l4.7-2.7
	V23.4z M25.2,17.9l4.7,2.7l-4.7,2.7V17.9z M25.2,34.2v-5.5l4.7,2.7L25.2,34.2z M31.5,28.8l-4.7-2.7l4.7-2.7V28.8z M30.3,11.5
	c0-1,0.8-1.8,1.8-1.8c1-0.1,1.8,0.8,1.8,1.8s-0.8,1.8-1.8,1.8S30.3,12.5,30.3,11.5z M7.8,27.9c-1,0-1.8-0.8-1.8-1.8s0.8-1.8,1.8-1.8
	c1-0.1,1.8,0.7,1.8,1.8C9.6,27.1,8.8,27.9,7.8,27.9z M39.6,24.3c0.9-0.1,1.8,0.7,1.8,1.8c0,1-0.8,1.8-1.8,1.8s-1.8-0.8-1.8-1.8
	S38.6,24.3,39.6,24.3z M13.7,11.5c0-1,0.8-1.8,1.8-1.8c1-0.1,1.8,0.8,1.8,1.8s-0.8,1.8-1.8,1.8S13.7,12.5,13.7,11.5z M33.8,40.6
	c0,1-0.8,1.8-1.8,1.8s-1.8-0.8-1.8-1.8s0.8-1.8,1.8-1.8S33.8,39.6,33.8,40.6z M17.2,40.6c0,1-0.8,1.8-1.8,1.8s-1.8-0.8-1.8-1.8
	s0.8-1.8,1.8-1.8C16.3,38.8,17.2,39.6,17.2,40.6z"/>
<path class="st1" d="M45.4,31.6l-6.2,1.7l-4.6-2.7v-9l4.6-2.7l6.2,1.7c0.8,0.2,1.7-0.3,1.9-1.1c0.2-0.8-0.3-1.7-1.1-1.9l-3.3-0.9
	l2.6-1.5c0.7-0.4,1-1.4,0.6-2.1c-0.4-0.7-1.4-1-2.1-0.6L41.4,14l0.9-3.3C42.5,9.9,42,9,41.2,8.8s-1.7,0.3-1.9,1.1l-1.7,6.2L33,18.8
	l-7.8-4.5V9l4.6-4.6c0.6-0.6,0.6-1.6,0-2.2s-1.6-0.6-2.2,0l-2.4,2.4v-3c0-0.9-0.7-1.6-1.6-1.6v52c0.9,0,1.6-0.7,1.6-1.6v-3l2.4,2.4
	c0.6,0.6,1.6,0.6,2.2,0s0.6-1.6,0-2.2L25.2,43v-5.3l7.8-4.5l4.6,2.7l1.7,6.2c0.2,0.8,1.1,1.3,1.9,1.1c0.8-0.2,1.3-1.1,1.1-1.9
	L41.4,38l2.6,1.5c0.7,0.4,1.7,0.2,2.1-0.6c0.4-0.7,0.2-1.7-0.6-2.1l-2.6-1.5l3.3-0.9c0.8-0.2,1.3-1.1,1.1-1.9
	C47.1,31.8,46.2,31.3,45.4,31.6z M25.2,17.9l4.7,2.7l-4.7,2.7V17.9z M25.2,34.2v-5.5l4.7,2.7L25.2,34.2z M31.5,28.8l-4.7-2.7
	l4.7-2.7V28.8z"/>
</svg>
