<?xml version="1.0" encoding="utf-8"?>
<!-- Generator: Adobe Illustrator 23.0.3, SVG Export Plug-In . SVG Version: 6.00 Build 0)  -->
<svg version="1.1" id="Layer_1" xmlns="http://www.w3.org/2000/svg" xmlns:xlink="http://www.w3.org/1999/xlink" x="0px" y="0px"
	 viewBox="0 0 45.1 42.7" style="enable-background:new 0 0 45.1 42.7;" xml:space="preserve">
<style type="text/css">
	.st0{fill:#00ACEA;}
	.st1{fill:#00EFD1;}
	.st2{fill:#FEDB41;}
	.st3{fill:#083863;}
</style>
<path class="st0" d="M44.4,13.5v24.1c0,2.4-1.9,4.3-4.3,4.3H5.2c-2.4,0-4.3-1.9-4.3-4.3V13.5H44.4z M28.1,27.4c0-3-2.4-5.5-5.5-5.5
	c-3,0-5.5,2.4-5.5,5.5c0,3,2.4,5.5,5.5,5.5C25.6,32.8,28.1,30.4,28.1,27.4z"/>
<path class="st1" d="M36.3,4.5h3.8c2.4,0,4.3,1.9,4.3,4.3v4.8H0.9V8.8c0-2.4,1.9-4.3,4.3-4.3H36.3z"/>
<path class="st2" d="M22.6,21.9c3,0,5.5,2.4,5.5,5.5c0,3-2.4,5.5-5.5,5.5s-5.5-2.5-5.5-5.5C17.1,24.3,19.6,21.9,22.6,21.9z"/>
<path class="st3" d="M5.2,42.7h34.9c2.8,0,5-2.3,5-5.1V8.8c0-2.8-2.2-5-5-5h-3v-3c0-0.4-0.3-0.8-0.8-0.8c-0.4,0-0.8,0.3-0.8,0.8v3
	H10.2v-3C10.2,0.4,9.9,0,9.4,0C9,0,8.6,0.3,8.6,0.8v3H5.1C2.3,3.8,0,6.1,0,8.8v28.9C0.1,40.4,2.4,42.7,5.2,42.7z M40.1,41.2H5.2
	c-1.9,0-3.6-1.6-3.6-3.5V14.3h41.9v23.3C43.6,39.6,42,41.2,40.1,41.2z M5.2,5.2h3.5v3.1c0,0.4,0.3,0.8,0.8,0.8
	c0.4,0,0.8-0.3,0.8-0.8V5.2h25.3v3.1c0,0.4,0.3,0.8,0.8,0.8c0.4,0,0.8-0.3,0.8-0.8V5.2h3c1.9,0,3.5,1.6,3.5,3.5v4H1.6v-4
	C1.6,6.8,3.3,5.2,5.2,5.2z M22.6,21.1c-3.4,0-6.2,2.8-6.2,6.2s2.8,6.2,6.2,6.2s6.2-2.8,6.2-6.2S26,21.1,22.6,21.1z M22.6,32.1
	c-2.6,0-4.7-2.1-4.7-4.7s2.1-4.7,4.7-4.7s4.7,2.1,4.7,4.7C27.3,30,25.2,32.1,22.6,32.1z M28.2,22.6c0.2,0,0.4-0.1,0.5-0.2l1.2-1.2
	c0.3-0.3,0.3-0.8,0-1.1s-0.8-0.3-1.1,0l-1.2,1.2c-0.2,0.2-0.3,0.5-0.2,0.8C27.6,22.4,27.9,22.6,28.2,22.6z M16.5,32.4l-1.2,1.2
	c-0.3,0.3-0.3,0.8,0,1.1s0.8,0.3,1.1,0l1.2-1.2c0.3-0.3,0.3-0.8,0-1.1S16.8,32.1,16.5,32.4z M22.6,20.3c0.4,0,0.8-0.3,0.8-0.8v-1.8
	c0-0.4-0.3-0.8-0.8-0.8s-0.8,0.3-0.8,0.8v1.8C21.8,20,22.1,20.3,22.6,20.3z M22.6,34.5c-0.4,0-0.8,0.3-0.8,0.8v1.8
	c0,0.4,0.3,0.8,0.8,0.8s0.8-0.3,0.8-0.8v-1.8C23.3,34.8,23,34.5,22.6,34.5z M16.5,22.3c0.3,0.3,0.8,0.3,1.1,0s0.3-0.8,0-1.1L16.4,20
	c-0.3-0.3-0.8-0.3-1.1,0s-0.3,0.8,0,1.1L16.5,22.3z M28.7,32.4c-0.3-0.3-0.8-0.3-1.1,0s-0.3,0.8,0,1.1l1.2,1.2
	c0.3,0.3,0.8,0.3,1.1,0s0.3-0.8,0-1.1L28.7,32.4z M15.4,27.4c0-0.4-0.3-0.8-0.8-0.8h-1.5c-0.4,0-0.8,0.3-0.8,0.8s0.3,0.8,0.8,0.8
	h1.6C15.1,28.2,15.4,27.8,15.4,27.4z M32.2,26.6h-1.8c-0.4,0-0.8,0.3-0.8,0.8s0.3,0.8,0.8,0.8h1.8c0.4,0,0.8-0.3,0.8-0.8
	S32.6,26.6,32.2,26.6z"/>
</svg>
