<?xml version="1.0" encoding="utf-8"?>
<!-- Generator: Adobe Illustrator 23.0.3, SVG Export Plug-In . SVG Version: 6.00 Build 0)  -->
<svg version="1.1" id="Layer_1" xmlns="http://www.w3.org/2000/svg" xmlns:xlink="http://www.w3.org/1999/xlink" x="0px" y="0px"
	 viewBox="0 0 53.9 53.9" style="enable-background:new 0 0 53.9 53.9;" xml:space="preserve">
<style type="text/css">
	.st0{fill:#0175BC;}
</style>
<path class="st0" d="M39.6,9.5c-0.9-0.9-1.3-2-1.3-3.2c0-1.2,0.4-2.3,1.3-3.1c0.9-0.9,1.9-1.3,3.2-1.3s2.3,0.5,3.2,1.3
	s1.3,1.8,1.3,3.1c0,1.3-0.4,2.3-1.3,3.2c-0.9,0.9-1.9,1.3-3.2,1.3C41.6,10.8,40.5,10.4,39.6,9.5z M53.9,24.8c0,0.5-0.2,1-0.6,1.4
	c-0.4,0.4-0.9,0.6-1.5,0.6c-0.6,0-1.1-0.2-1.6-0.6l-8.8-8.1l-9.6,4.6l6.4,5.6c0.6,0.6,0.9,1.3,0.8,2.1v0.2l-1.5,11.7
	c-0.1,1.2-0.7,1.9-1.8,2.3l9.4,3.4c0.8,0.4,1.7,0.4,2.5-0.1c0.7-0.4,1.4-0.5,2.1-0.3s1.3,0.7,1.7,1.3c0.4,0.6,0.5,1.3,0.3,2.1
	c-0.3,0.7-0.7,1.3-1.4,1.7C48,54,45.6,54.2,43,53.3l-37.9-14c-2.5-1-4.2-2.7-5-5.2c-0.2-0.8-0.1-1.5,0.2-2.2s0.9-1.1,1.6-1.4
	c0.7-0.3,1.4-0.2,2.1,0.1c0.7,0.4,1.2,0.9,1.5,1.7c0.2,0.8,0.8,1.4,1.7,1.8l4.4,1.6C11.2,35.2,11,34.6,11,34
	c0.1-1.1,0.6-1.9,1.6-2.4l8.1-3.6l-0.1-7.9c0.3-1.4,1.1-2.5,2.4-3.2l8.7-4.5l-5.3-2.1c-0.3-0.2-0.6-0.4-0.8-0.6L21,3.2
	c-0.3-0.5-0.4-0.9-0.3-1.4c0.1-0.6,0.3-1.1,0.8-1.4s1-0.5,1.6-0.4c0.6,0.1,1.1,0.3,1.5,0.8l4.5,6.4l10,3.4c0.6,0.2,1,0.5,1.4,1
	l12.6,11.6C53.6,23.7,53.9,24.2,53.9,24.8z M26.4,25.3v4.9C26.2,31,25.8,31.6,25,32l-10,4.5c-0.2,0.1-0.4,0.1-0.6,0.1l17.9,6.8
	c-0.3-0.5-0.4-1-0.3-1.5v-0.2v-0.1l1.3-10.3L26.4,25.3z"/>
</svg>
