<?xml version="1.0" encoding="utf-8"?>
<!-- Generator: Adobe Illustrator 23.0.3, SVG Export Plug-In . SVG Version: 6.00 Build 0)  -->
<svg version="1.1" id="Layer_1" xmlns="http://www.w3.org/2000/svg" xmlns:xlink="http://www.w3.org/1999/xlink" x="0px" y="0px"
	 viewBox="0 0 45 50.5" style="enable-background:new 0 0 45 50.5;" xml:space="preserve">
<style type="text/css">
	.st0{fill:#006B97;}
</style>
<g>
	<path class="st0" d="M39.1,5.5h-1.5V3.8c0-2.1-1.7-3.8-3.7-3.8s-3.7,1.7-3.7,3.8v1.7h-3.8V3.8c0-2.1-1.7-3.8-3.7-3.8S19,1.7,19,3.8
		v1.7h-3.8V3.8c0-2.1-1.7-3.8-3.7-3.8S7.8,1.7,7.8,3.8v1.7H5.9C2.7,5.5,0,8.1,0,11.4v33.2c0,3.2,2.6,5.9,5.9,5.9h33.2
		c3.2,0,5.9-2.6,5.9-5.9V11.4C45,8.1,42.4,5.5,39.1,5.5z M32.3,3.8c0-1,0.7-1.7,1.6-1.7c0.9,0,1.6,0.8,1.6,1.7v6.8
		c0,1-0.7,1.7-1.6,1.7c-0.9,0-1.6-0.8-1.6-1.7V3.8z M21.1,3.8c0-1,0.7-1.7,1.6-1.7c0.9,0,1.6,0.8,1.6,1.7v6.8c0,1-0.7,1.7-1.6,1.7
		c-0.9,0-1.6-0.8-1.6-1.7V3.8z M9.9,3.8c0-1,0.7-1.7,1.6-1.7s1.6,0.8,1.6,1.7v6.8c0,1-0.7,1.7-1.6,1.7s-1.6-0.8-1.6-1.7V3.8z
		 M41.5,44.6c0,1.3-1.1,2.4-2.4,2.4H5.9c-1.3,0-2.4-1.1-2.4-2.4V14.1h38.1L41.5,44.6z"/>
	<path class="st0" d="M14.4,32.3c0.6,0,1.1-0.1,1.7-0.3c0.9,1.3,2.4,2.1,4,2.1c1,0,2-0.3,2.8-0.8c0.9,0.9,2.1,1.4,3.5,1.4
		c2,0,3.7-1.2,4.5-2.9c0.2,0,0.5,0.1,0.8,0.1c2.2,0,4-1.8,4-4c0-2.1-1.6-3.7-3.6-3.9c-0.3-2.8-2.7-4.9-5.5-4.9
		c-1.4,0-2.6,0.5-3.6,1.3c-0.9-1.2-2.3-1.9-3.9-1.9c-2.4,0-4.4,1.7-4.9,3.9c-2.6,0.2-4.7,2.3-4.7,5C9.4,30.1,11.6,32.3,14.4,32.3z"
		/>
	<path class="st0" d="M13,38c0,0.8,0.7,1.5,1.5,1.5S16,38.8,16,38s-1.5-3.4-1.5-3.4S13,37.2,13,38z"/>
	<path class="st0" d="M17,41.7c0,0.8,0.7,1.5,1.5,1.5s1.5-0.7,1.5-1.5s-1.5-3.3-1.5-3.3S17,40.8,17,41.7z"/>
	<path class="st0" d="M20.9,38c0,0.8,0.7,1.5,1.5,1.5c0.8,0,1.5-0.7,1.5-1.5s-1.5-3.4-1.5-3.4S20.9,37.2,20.9,38z"/>
	<path class="st0" d="M24.9,41.7c0,0.8,0.7,1.5,1.5,1.5c0.9,0,1.5-0.7,1.5-1.5s-1.5-3.3-1.5-3.3S24.9,40.8,24.9,41.7z"/>
	<path class="st0" d="M28.9,38c0,0.8,0.7,1.5,1.5,1.5c0.8,0,1.5-0.7,1.5-1.5s-1.5-3.4-1.5-3.4S28.9,37.2,28.9,38z"/>
</g>
</svg>
