<?xml version="1.0" encoding="utf-8"?>
<!-- Generator: Adobe Illustrator 23.0.3, SVG Export Plug-In . SVG Version: 6.00 Build 0)  -->
<svg version="1.1" id="Layer_1" xmlns="http://www.w3.org/2000/svg" xmlns:xlink="http://www.w3.org/1999/xlink" x="0px" y="0px"
	 viewBox="0 0 50.2 33.1" style="enable-background:new 0 0 50.2 33.1;" xml:space="preserve">
<style type="text/css">
	.st0{fill:#E6E7E8;}
	.st1{fill:#DBDCDD;}
	.st2{fill:#BF6735;}
	.st3{fill:#FFCA05;}
	.st4{fill:#FCB813;}
	.st5{fill:#EC1C24;}
	.st6{fill:#B9131A;}
	.st7{fill:#FFFFFF;}
</style>
<rect x="2.4" y="31.3" class="st0" width="45.4" height="1.8"/>
<path class="st1" d="M2.4,1.8h45.4v1.8H2.4V1.8z M4.2,3.7h5.9v27.6H4.2V3.7z M40.2,3.7h5.9v27.6h-5.9V3.7z"/>
<path class="st0" d="M7.8,5.5v24.1c0,0.4-0.3,0.6-0.6,0.6c-0.4,0-0.6-0.3-0.6-0.6V5.5c0-0.4,0.3-0.6,0.6-0.6S7.7,5.1,7.8,5.5z
	 M5.4,4.9c-0.3,0-0.6,0.2-0.6,0.6v24.1c0,0.3,0.2,0.6,0.6,0.6C5.7,30.2,6,30,6,29.6V5.5C6,5.1,5.7,4.9,5.4,4.9z M9,4.9
	c-0.3,0-0.6,0.2-0.6,0.6v24.1c0,0.3,0.2,0.6,0.6,0.6c0.3,0,0.6-0.2,0.6-0.6V5.5C9.5,5.1,9.3,4.9,9,4.9z M44.9,4.9
	c-0.3,0-0.6,0.2-0.6,0.6v24.1c0,0.3,0.2,0.6,0.6,0.6c0.3,0,0.6-0.2,0.6-0.6V5.5C45.5,5.1,45.2,4.9,44.9,4.9z M43.1,4.9
	c-0.3,0-0.6,0.2-0.6,0.6v24.1c0,0.3,0.2,0.6,0.6,0.6c0.3,0,0.6-0.2,0.6-0.6V5.5C43.7,5.1,43.4,4.9,43.1,4.9z M41.3,4.9
	c-0.3,0-0.6,0.2-0.6,0.6v24.1c0,0.3,0.2,0.6,0.6,0.6c0.3,0,0.6-0.2,0.6-0.6V5.5C41.9,5.1,41.6,4.9,41.3,4.9z"/>
<path class="st0" d="M0,0h50.2v1.8H0V0z M10.1,3.7h30.1V6H10.1V3.7z"/>
<rect x="10.1" y="6" class="st2" width="30.1" height="25.3"/>
<g>
	<path class="st3" d="M24.5,30.6c-4.3,0-7.3-2.6-7.5-5.4c0.7,0.8,1.5,0.6,1.5,0.6c-1.8-3.2,1.7-5.9,1-7.8c2,0.8,2.1,2.8,2.1,2.8
		c1.6-0.7-1.8-5.6,1.4-6.9c-0.4,1.2,0.4,2,0.4,2c1.1-0.4,1.1-2.8,0.2-4.2c2.6,0.3,4.6,4.6,3.4,6.9c1-1.8,1.8-2.5,3-2.5
		c-1.4,2.7,0.5,4,0.5,7.8c1-0.4,1.3-2,1.3-2C32.8,23.4,31.7,30.6,24.5,30.6z"/>
	<path class="st4" d="M24.5,30c-3.2,0-5.4-1.9-4.4-4.4c1.1-2.7-0.3-4.9-0.3-4.9c1.3,0.5,2.3,1.8,2.1,3c1.4-1.2,2.1-4.1,1.3-6
		c1.1,0.9,2.1,3.4,1.9,4.8c0.8-1.6,2.1-3.3,3.6-3.5c-0.5,1.1-1.1,2.7-0.4,4.2C29.6,25.9,29.3,30,24.5,30z"/>
</g>
<path class="st5" d="M19.6,10.1c-0.5,0.8-1.4,1-2.2,0.6l-2.8-1.6c-0.8-0.5-1-1.4-0.6-2.2l2.1-3.7l3.5,2l-1.3,2.3L19,7.9
	C19.8,8.3,20.1,9.3,19.6,10.1z M27,7.9l-0.7-0.4l1.3-2.3l-3.5-2L22,6.9c-0.4,0.8-0.2,1.7,0.6,2.2l2.8,1.6c0.8,0.4,1.7,0.2,2.2-0.6
	C28,9.3,27.7,8.3,27,7.9z M34.9,7.9l-0.7-0.4l1.3-2.3l-3.5-2l-2.1,3.7c-0.4,0.8-0.2,1.7,0.6,2.2l2.8,1.6c0.8,0.4,1.7,0.2,2.2-0.6
	S35.7,8.3,34.9,7.9z"/>
<path class="st6" d="M16.4,0.4c-0.4,0-0.7,0.3-0.7,0.7s0.2,0.6,0.3,0.8s0.3,0.3,0.3,0.3h0.2c0,0,0.2-0.1,0.3-0.3
	c0.1-0.2,0.3-0.5,0.3-0.8C17.1,0.7,16.8,0.4,16.4,0.4z M16.6,1.8C16.5,1.9,16.4,2,16.4,2c-0.1,0-0.1-0.1-0.2-0.2
	C16.1,1.6,16,1.4,16,1.2c0-0.3,0.2-0.4,0.4-0.4c0.2,0,0.4,0.2,0.4,0.4C16.8,1.4,16.7,1.7,16.6,1.8z M19.3,8.1
	c0.5,0.4,0.7,1.3,0.4,2.1c-0.4,0.7-1.2,1-1.9,0.7c0-0.6,0.1-1.1,0.4-1.6C18.4,8.8,18.8,8.4,19.3,8.1z M14.6,6.1
	c0.9,0.9,1.2,2.2,0.8,3.4l-0.7-0.4c-0.8-0.5-1-1.4-0.6-2.2L14.6,6.1z M24.4,0.4c-0.4,0-0.7,0.3-0.7,0.7s0.2,0.6,0.3,0.8
	s0.3,0.3,0.3,0.3h0.2c0,0,0.2-0.1,0.3-0.3c0.1-0.2,0.3-0.5,0.3-0.8C25.1,0.7,24.8,0.4,24.4,0.4z M24.6,1.8C24.5,1.9,24.4,2,24.4,2
	c-0.1,0-0.1-0.1-0.2-0.2C24.1,1.6,24,1.4,24,1.2c0-0.3,0.1-0.4,0.4-0.4c0.2,0,0.4,0.2,0.4,0.4C24.8,1.4,24.7,1.7,24.6,1.8z
	 M27.2,8.1c0.6,0.4,0.8,1.3,0.4,2.1c-0.4,0.7-1.2,1-1.9,0.7c0-0.6,0.1-1.1,0.4-1.6C26.3,8.8,26.7,8.4,27.2,8.1z M22.5,6.1
	c0.9,0.9,1.2,2.2,0.8,3.4l-0.7-0.4c-0.8-0.5-1-1.4-0.6-2.2L22.5,6.1z M32.3,0.4c-0.4,0-0.7,0.3-0.7,0.7s0.2,0.6,0.3,0.8
	c0.1,0.2,0.3,0.3,0.3,0.3h0.2c0,0,0.2-0.1,0.3-0.3S33,1.4,33,1.1C33,0.7,32.7,0.4,32.3,0.4z M32.5,1.8C32.4,1.9,32.3,2,32.3,2
	c-0.1,0-0.1-0.1-0.2-0.2c-0.1-0.2-0.2-0.4-0.2-0.6c0-0.3,0.2-0.4,0.4-0.4s0.4,0.2,0.4,0.4C32.7,1.4,32.6,1.7,32.5,1.8z M35.6,10.2
	c-0.4,0.7-1.2,1-1.9,0.7c0-0.6,0.1-1.1,0.4-1.6c0.2-0.5,0.6-0.9,1.1-1.2C35.7,8.5,35.9,9.4,35.6,10.2z M30.5,6.1
	c0.9,0.9,1.2,2.2,0.8,3.4l-0.7-0.4c-0.8-0.5-1-1.4-0.6-2.2L30.5,6.1z"/>
<path class="st7" d="M16.1,2.3C16.2,2,16.6,2,16.8,2.1l3.5,2c0.3,0.1,0.3,0.5,0.2,0.7l-0.6,1c-0.1,0.3-0.5,0.3-0.7,0.2l-3.5-2
	c-0.3-0.1-0.3-0.5-0.2-0.7L16.1,2.3z M24,2.3C24.1,2,24.5,2,24.7,2.1l3.5,2c0.3,0.1,0.3,0.5,0.2,0.7l-0.6,1
	c-0.1,0.3-0.5,0.3-0.7,0.2l-3.5-2c-0.3-0.1-0.3-0.5-0.2-0.7L24,2.3z M32,2.3C32.1,2,32.5,2,32.7,2.1l3.5,2c0.3,0.1,0.3,0.5,0.2,0.7
	l-0.6,1c-0.1,0.3-0.5,0.3-0.7,0.2l-3.5-2c-0.3-0.1-0.3-0.5-0.2-0.7L32,2.3z"/>
</svg>
