<?xml version="1.0" encoding="utf-8"?>
<!-- Generator: Adobe Illustrator 23.0.3, SVG Export Plug-In . SVG Version: 6.00 Build 0)  -->
<svg version="1.1" id="Layer_1" xmlns="http://www.w3.org/2000/svg" xmlns:xlink="http://www.w3.org/1999/xlink" x="0px" y="0px"
	 viewBox="0 0 43 42.1" style="enable-background:new 0 0 43 42.1;" xml:space="preserve">
<style type="text/css">
	.st0{fill:#F6CB43;}
	.st1{fill:#FAB03C;}
	.st2{fill:#C4E1E8;}
	.st3{fill:#A4D5DD;}
	.st4{fill:#F0F5F7;}
	.st5{fill:#DDE9ED;}
</style>
<path class="st0" d="M24.5,21.5l-7.3,7.3h5.9c1-0.1,1.4,1.1,0.6,1.7l-17,11.4c-0.5,0.3-1,0.2-1.3-0.2c-0.3-0.3-0.3-0.9,0.1-1.3
	l8.4-8.4H8.3c-0.8,0-1.3-1-0.7-1.6l8.9-8.9H24.5z M39.2,34.3l-5.3-5.1l3.5-0.1c0.5,0,0.8-0.7,0.4-1l-5.7-5.4l-5,0.1l4.6,4.4
	l-3.6,0.1c-0.6,0-0.8,0.8-0.3,1.1l10.7,6.8c0.3,0.2,0.6,0.1,0.8-0.1S39.5,34.6,39.2,34.3z M6.7,27.2c-0.1-0.2-0.3-0.4-0.6-0.4h-1
	l0.7-0.7c0.3-0.2,0.3-0.6,0-0.9c-0.2-0.3-0.6-0.3-0.9,0L3.1,27C3,27.2,2.9,27.5,3,27.7c0.1,0.2,0.3,0.4,0.6,0.4h1l-1.5,1.5
	c-0.3,0.2-0.3,0.6,0,0.9c0.2,0.1,0.3,0.2,0.5,0.2c0.1,0,0.3-0.1,0.4-0.2l2.6-2.6C6.7,27.7,6.8,27.4,6.7,27.2z"/>
<path class="st1" d="M24.4,21.6l-7.3,7.3H23c1.1-0.2,1.5,1,0.7,1.6l-17,11.4c-0.5,0.3-1,0.2-1.3-0.2l14-11.2h-5.6
	c-0.8,0-1.3-1-0.7-1.6l7.3-7.3H24.4z M30.7,35.7l-1.5-1.5h1c0.3,0,0.5-0.2,0.6-0.4c0.1-0.2,0.1-0.5-0.1-0.7l-1.8-1.8
	c-0.2-0.3-0.6-0.3-0.9,0c-0.3,0.2-0.3,0.6,0,0.9l0.7,0.7h-1c-0.3,0-0.5,0.2-0.6,0.4C27,33.5,27,33.8,27.2,34l2.6,2.6
	c0.2,0.1,0.3,0.2,0.5,0.2s0.3-0.1,0.4-0.2C31,36.4,31,36,30.7,35.7z"/>
<path class="st2" d="M36.9,11.1C36.5,4.9,31.4,0,25.1,0C20,0,15.7,3.2,14,7.7c-4.4,0.1-7.9,3.6-7.9,8s3.6,8,8,8h22.6
	c3.5,0,6.3-2.8,6.3-6.3C43,14,40.3,11.2,36.9,11.1z"/>
<path class="st3" d="M36.8,11.2C36.5,5,31.3,0.1,25,0.1c-3.3,0-6.3,1.4-8.5,3.6c0.8-0.2,1.6-0.3,2.5-0.3c6.3,0,11.4,4.9,11.8,11.1
	c3.4,0.1,6.1,2.9,6.1,6.3c0,1-0.2,2-0.7,2.9h0.5c3.5,0,6.3-2.8,6.3-6.3C43,14,40.3,11.2,36.8,11.2z M31.9,6.2c0,0-0.2,0.1-0.4,0.1
	S31.2,6.2,31,6.1c-1.6-1.6-3.7-2.6-6-2.6c-0.4,0-0.6-0.3-0.6-0.6c0-0.4,0.3-0.6,0.6-0.6c2.6,0,5.1,1.1,6.9,3
	C32.1,5.6,32.1,6,31.9,6.2z M34,10.4c-0.1,0-0.2,0-0.2,0c-0.3,0-0.6-0.2-0.6-0.5c-0.1-0.5-0.3-0.9-0.4-1.3c-0.1-0.3,0-0.7,0.3-0.9
	c0.3-0.2,0.7,0,0.9,0.3c0.2,0.5,0.4,1,0.5,1.6C34.6,9.9,34.4,10.3,34,10.4z"/>
<path class="st4" d="M4.3,14.7c0.3-4.4,4-8,8.5-8c3.6,0,6.7,2.3,7.9,5.5c3.1,0,5.7,2.6,5.7,5.7c0,3.2-2.6,5.7-5.7,5.7
	c-1.3,0-14.8,0-16.2,0c-2.5,0-4.5-2-4.5-4.5C0,16.7,1.9,14.8,4.3,14.7z"/>
<path class="st5" d="M26.4,18c0,3.1-2.5,5.7-5.6,5.7c0.9-1,1.5-2.4,1.5-3.9c0-3.1-2.5-5.7-5.7-5.7c-1.2-3.2-4.3-5.5-7.9-5.5
	c-0.4,0-0.9,0-1.3,0.1c1.5-1.2,3.3-1.9,5.4-1.9c3.6,0,6.7,2.3,7.9,5.5C23.9,12.3,26.4,14.8,26.4,18z"/>
</svg>
