<?xml version="1.0" encoding="utf-8"?>
<!-- Generator: Adobe Illustrator 23.0.3, SVG Export Plug-In . SVG Version: 6.00 Build 0)  -->
<svg version="1.1" id="Layer_1" xmlns="http://www.w3.org/2000/svg" xmlns:xlink="http://www.w3.org/1999/xlink" x="0px" y="0px"
	 viewBox="0 0 37 41.2" style="enable-background:new 0 0 37 41.2;" xml:space="preserve">
<style type="text/css">
	.st0{fill:#EFAB3B;}
	.st1{fill:#005130;}
	.st2{opacity:0.3;fill:#BDA791;enable-background:new    ;}
	.st3{fill-rule:evenodd;clip-rule:evenodd;fill:#FFFFFF;}
	.st4{fill:#EA3C2B;}
	.st5{fill:#FFFFFF;}
	.st6{fill:#BDA791;}
	.st7{fill:#EC5B4B;}
</style>
<g>
	<g id="cupcake_3_">
		<g>
			<path class="st0" d="M35.4,19.1c0,5.8-7.9,9.2-17.7,9.2S0,24.9,0,19.1C0,11.5,7.9,5.3,17.7,5.3C27.4,5.3,35.4,11.4,35.4,19.1z"/>
			<path class="st1" d="M17.6,28.3c-6.8,0-12.7-1.6-15.7-4.6l4.3,13.8c0,0,2.3,3.7,11.5,3.7s11.5-3.7,11.5-3.7l4.1-13.8
				C30.4,26.7,24.5,28.3,17.6,28.3z"/>
		</g>
		<g>
			<path class="st2" d="M1.9,23.7l1,3.3c3.2,2.4,8.6,3.7,14.7,3.7s11.5-1.3,14.7-3.8l1-3.3c-3,3-8.9,4.6-15.7,4.6
				C10.8,28.3,4.9,26.7,1.9,23.7z"/>
		</g>
		<path class="st3" d="M19.8,23.7c0-0.3,0.2-0.5,0.5-0.5s0.5,0.2,0.5,0.5s-0.2,0.5-0.5,0.5C20.1,24.2,19.9,24,19.8,23.7L19.8,23.7z
			 M20,19.4c0-0.3,0.2-0.5,0.5-0.5s0.5,0.2,0.5,0.5s-0.2,0.5-0.5,0.5C20.3,19.9,20,19.7,20,19.4L20,19.4z M23.1,20.2
			c0-0.3,0.2-0.5,0.5-0.5s0.5,0.2,0.5,0.5s-0.2,0.5-0.5,0.5C23.4,20.7,23.1,20.5,23.1,20.2L23.1,20.2z M31.9,19.9
			c0-0.3,0.2-0.5,0.5-0.5s0.5,0.2,0.5,0.5s-0.2,0.5-0.5,0.5S31.9,20.2,31.9,19.9L31.9,19.9z"/>
		<g id="candy">
			<g id="Candy_4_">
				<g>
					<path class="st4" d="M18.1,0.1c4.1,0,7.4,3.3,7.4,7.4s-3.3,7.4-7.4,7.4s-7.4-3.3-7.4-7.4C10.8,3.4,14.1,0.1,18.1,0.1z"/>
				</g>
			</g>
			<g id="Stripes_4_">
				<g>
					<path class="st5" d="M11.8,11.4c0.5,0.8,1.2,1.5,1.9,2c0.3-2.5,2.2-4.7,4.2-6C15.3,7.4,12.9,9.1,11.8,11.4z M10.8,5.9
						c-0.1,0.5-0.2,1-0.2,1.5c0,0.4,0,0.9,0.1,1.3c2-1.6,4.9-1.8,7.3-1.3C16.1,5.5,13.3,4.9,10.8,5.9z M22.1,13.6
						c0.8-0.5,1.5-1.2,2-1.9c-2.5-0.3-4.7-2.2-6-4.2C18,10.2,19.7,12.6,22.1,13.6z M16.5,14.6c0.5,0.1,1,0.2,1.5,0.2
						c0.4,0,0.9,0,1.3-0.1c-1.6-2-1.8-4.9-1.3-7.3C16.1,9.4,15.6,12.2,16.5,14.6z M14,1.2c-0.8,0.5-1.5,1.2-2,1.9
						c2.5,0.3,4.7,2.2,6,4.2C18,4.7,16.4,2.3,14,1.2z M25.3,9c0.1-0.5,0.2-1,0.2-1.5c0-0.4,0-0.9-0.1-1.3c-2,1.6-4.9,1.8-7.3,1.3
						C20,9.4,22.8,9.9,25.3,9z M24.2,3.4c-0.5-0.8-1.2-1.5-2-2c-0.3,2.5-2.2,4.7-4.2,6C20.8,7.4,23.2,5.8,24.2,3.4z M19.6,0.2
						c-0.5-0.1-1-0.2-1.5-0.2c-0.4,0-0.9,0-1.3,0.1c1.6,2,1.8,4.9,1.3,7.3C20,5.5,20.5,2.6,19.6,0.2z"/>
				</g>
			</g>
		</g>
	</g>
	<path class="st6" d="M11.5,12.6c-0.1-1.4-1.2-2.5-2.6-2.4c-1.4,0-2.5,1.2-2.4,2.6s1.2,2.5,2.6,2.4S11.6,14,11.5,12.6z M12.3,15.1
		c-1,0-1.8,0.9-1.8,1.9s0.9,1.8,1.9,1.8s1.8-0.9,1.8-1.9S13.3,15.1,12.3,15.1z M5.4,15.1c-1,0-1.8,0.9-1.8,1.9s0.9,1.8,1.9,1.8
		s1.8-0.9,1.8-1.9C7.2,15.9,6.4,15.1,5.4,15.1z"/>
	<path class="st7" d="M8.3,15.2c-1.4,0-2.6-1-2.6-2.4c-0.1-1.4,1-2.6,2.4-2.6c1.4-0.1,2.6,1,2.6,2.4C10.8,14,9.7,15.1,8.3,15.2
		L8.3,15.2z M9.7,17.1c0-1,0.8-1.9,1.8-1.9s1.9,0.8,1.9,1.8s-0.8,1.9-1.8,1.9S9.8,18.1,9.7,17.1L9.7,17.1z M2.8,17.1
		c0-1,0.8-1.9,1.8-1.9S6.5,16,6.5,17s-0.8,1.9-1.8,1.9S2.8,18.1,2.8,17.1L2.8,17.1z"/>
</g>
</svg>
