<?xml version="1.0" encoding="utf-8"?>
<!-- Generator: Adobe Illustrator 23.0.3, SVG Export Plug-In . SVG Version: 6.00 Build 0)  -->
<svg version="1.1" id="Layer_1" xmlns="http://www.w3.org/2000/svg" xmlns:xlink="http://www.w3.org/1999/xlink" x="0px" y="0px"
	 viewBox="0 0 44 43.5" style="enable-background:new 0 0 44 43.5;" xml:space="preserve">
<style type="text/css">
	.st0{fill:#FFCC66;}
	.st1{opacity:0.2;fill:#666666;enable-background:new    ;}
	.st2{fill:#FFFFFF;}
</style>
<rect class="st0" width="44" height="43.5"/>
<g>
	<polyline class="st1" points="26.5,14.5 44,29.8 44,43.5 28.7,43.5 14.8,29.3 21.3,20.9 	"/>
	<g>
		<path class="st2" d="M27.6,18.9c0.8-2.2,0.1-3.7-1.8-4.8c-0.6-0.4-2.4-0.6-4.6,1.3c-0.6-1-2.9-2.3-5.7-0.7c-2.5,2.1-1,4.8-1,4.8
			c-2,0.5-3.3,1.6-3.2,3.3c0,2.5,2,4.1,3.6,4.1c-0.3,2.1,0,3.3,1.4,4.5c1.4,1.2,4.6,0.7,5.2-0.8c1.1,1.4,3.4,1.6,4.9,0.8
			c1.4-0.8,1.8-2.9,1.5-4.8c1.9,0,2.9-1.5,2.9-3.8C30.8,20.9,29.6,19,27.6,18.9z"/>
		<path class="st2" d="M14.7,36.2c0.3,0,0.4,0.3,0.5,0.6l0.6-0.1c-0.1-0.5-0.4-0.9-0.9-0.9c-0.6,0-0.9,0.5-0.9,1
			c0,0.6,0.3,0.7,0.7,1c0.4,0.2,0.7,0.4,0.7,0.9s-0.3,0.7-0.6,0.7c-0.5,0-0.5-0.3-0.6-0.7l-0.4,0.1c0.1,0.6,0.3,1,1,1
			c0.6,0,0.9-0.5,0.9-1.1c0-0.6-0.3-0.8-0.8-1.1c-0.6-0.4-0.7-0.5-0.7-0.8S14.3,36.2,14.7,36.2z"/>
		<path class="st2" d="M18,35.9h-0.8v3.8h0.3V38h0.6c0.5,0,0.9-0.4,0.9-1.1C19,36.3,18.7,35.9,18,35.9z M18.1,37.7h-0.5l0.1-1.4h0.4
			c0.4,0,0.6,0.2,0.6,0.7C18.7,37.4,18.4,37.7,18.1,37.7z"/>
		<path class="st2" d="M22.4,36.9c0-0.7-0.4-1-0.8-1h-1v3.9H21v-1.7h0.5l0.8,1.7l0.3-0.2L21.8,38C22.2,37.8,22.4,37.4,22.4,36.9z
			 M21,37.7v-1.4h0.5c0.4,0,0.6,0.2,0.6,0.7s-0.2,0.7-0.5,0.7H21z"/>
		<polygon class="st2" points="24.1,36.2 24.6,36.2 24.6,39.3 24.1,39.3 24.1,39.6 25.5,39.6 25.5,39.3 25,39.3 25,36.2 25.5,36.2 
			25.5,35.9 24.1,35.9 		"/>
		<polygon class="st2" points="28.8,38.3 28.8,39.1 27.7,35.9 27.2,35.9 27.2,39.7 27.6,39.7 27.6,37.4 27.6,36.5 28.7,39.8 
			29.2,39.8 29.2,36 28.8,36 		"/>
		<path class="st2" d="M31.5,38.1h0.7v1.1c-0.1,0.1-0.3,0.2-0.5,0.2c-0.3,0-0.7-0.3-0.7-1.6c0-0.5,0.1-1.6,0.7-1.6
			c0.3,0,0.5,0.3,0.6,0.5l0.3-0.2c-0.2-0.3-0.5-0.6-0.9-0.6c-0.9,0-1.1,1.2-1.1,1.9s0.1,1.9,1.1,1.9c0.3,0,0.7-0.1,0.9-0.3v-1.6
			h-1.1V38.1z"/>
	</g>
	<g>
		<path class="st0" d="M17,20.8c0,0-0.9-1.7,0.6-3c1.7-1,3.3-0.2,3.6,0.5c1.4-1.2,2.5-1.1,2.9-0.8c1.2,0.7,1.6,1.6,1.1,3
			c1.3,0.1,2,1.3,2,2.4c0,1.4-0.6,2.4-1.9,2.4c0.2,1.2-0.1,2.5-1,3.1c-0.9,0.5-2.4,0.4-3.1-0.5c-0.4,0.9-2.4,1.2-3.3,0.5
			s-1.1-1.5-0.9-2.8c-1,0-2.3-1-2.3-2.6C14.9,21.8,15.7,21.1,17,20.8z"/>
	</g>
</g>
</svg>
