<?xml version="1.0" encoding="utf-8"?>
<!-- Generator: Adobe Illustrator 23.0.3, SVG Export Plug-In . SVG Version: 6.00 Build 0)  -->
<svg version="1.1" id="Layer_1" xmlns="http://www.w3.org/2000/svg" xmlns:xlink="http://www.w3.org/1999/xlink" x="0px" y="0px"
	 viewBox="0 0 48.8 52" style="enable-background:new 0 0 48.8 52;" xml:space="preserve">
<style type="text/css">
	.st0{fill:#E1F3FC;}
	.st1{fill:#F6921E;}
	.st2{fill:#808184;}
	.st3{opacity:0.1;fill:#231F20;enable-background:new    ;}
	.st4{fill:#69502E;}
	.st5{fill:#EC1C24;}
</style>
<path class="st0" d="M24.5,0c5.6,0,10.2,4.6,10.2,10.2s-4.6,10.2-10.2,10.2s-10.2-4.6-10.2-10.2S18.9,0,24.5,0z M24.5,18
	c9.4,0,17,7.6,17,17s-7.6,17-17,17s-17-7.6-17-17S15.1,18,24.5,18z"/>
<polygon class="st1" points="23,9.2 29.6,10.4 23.2,11.3 "/>
<path class="st2" d="M22.9,14.8c0,0.6-0.5,1.1-1.1,1.1c-0.6,0-1.1-0.5-1.1-1.1c0-0.6,0.5-1.1,1.1-1.1C22.4,13.7,22.9,14.2,22.9,14.8
	z M24.5,16.4c0.6,0,1.1-0.5,1.1-1.1c0-0.6-0.5-1.1-1.1-1.1s-1.1,0.5-1.1,1.1C23.4,15.9,23.9,16.4,24.5,16.4z M19.5,12
	c-0.6,0-1.1,0.5-1.1,1.1c0,0.6,0.5,1.1,1.1,1.1s1.1-0.5,1.1-1.1C20.6,12.5,20.1,12,19.5,12z M29.3,8.1c0.6,0,1.1-0.5,1.1-1.1
	c0-0.6-0.5-1.1-1.1-1.1c-0.6,0-1.1,0.5-1.1,1.1C28.2,7.6,28.7,8.1,29.3,8.1z M19.7,8.1c0.6,0,1.1-0.5,1.1-1.1c0-0.6-0.5-1.1-1.1-1.1
	c-0.6,0-1.1,0.5-1.1,1.1C18.6,7.6,19.1,8.1,19.7,8.1z M29.5,12c-0.6,0-1.1,0.5-1.1,1.1c0,0.6,0.5,1.1,1.1,1.1s1.1-0.5,1.1-1.1
	C30.5,12.5,30.1,12,29.5,12z M27.2,13.7c-0.6,0-1.1,0.5-1.1,1.1c0,0.6,0.5,1.1,1.1,1.1c0.6,0,1.1-0.5,1.1-1.1
	C28.3,14.2,27.8,13.7,27.2,13.7z M24.5,26.2c-1,0-1.8,0.8-1.8,1.8s0.8,1.8,1.8,1.8s1.8-0.8,1.8-1.8S25.5,26.2,24.5,26.2z M24.5,32.8
	c-1,0-1.8,0.8-1.8,1.8s0.8,1.8,1.8,1.8s1.8-0.8,1.8-1.8S25.5,32.8,24.5,32.8z M24.5,39.5c-1,0-1.8,0.8-1.8,1.8c0,1,0.8,1.8,1.8,1.8
	s1.8-0.8,1.8-1.8C26.3,40.3,25.5,39.5,24.5,39.5z"/>
<path class="st3" d="M29.8,19.1c2.9-1.8,4.9-5,4.9-8.7c0-5.6-4.6-10.2-10.2-10.2v18v2.4v31.6c9.4,0,17-7.6,17-17
	C41.5,27.7,36.6,21.3,29.8,19.1z"/>
<path class="st4" d="M34.7,26.7l9.3-8.8l0.4-4.1h0.8v3.8l3.6-0.6v0.8l-3.9,1.1l-9.3,8.8L34.7,26.7z M14.1,26.7l-9.4-8.8l-0.3-4.1
	H3.6v3.8L0,17v0.8l3.9,1.1l9.3,8.8L14.1,26.7z"/>
<g>
	<path class="st5" d="M33.4,18.8c-0.6-1.1-1.5-1.6-1.5-1.6s-2.1,0.5-7.4,0.5s-7.4-0.5-7.4-0.5s-0.9,0.5-1.5,1.6s-0.8,2.3-0.8,2.3
		s0.4,0.1,1.2,0.2c0,0.1,0,0.3,0,0.4c0,0.2,0,0.3,0.1,0.5l-4.8,5.4l2.6,1.8l3.1-5.6l-1.3,6.4l3.2,0.4l-0.2-7.4
		c0.4-0.3,0.7-0.8,0.7-1.4c1.4,0.1,3.1,0.2,5,0.2c5.8,0,9.7-0.9,9.7-0.9S34,19.9,33.4,18.8z"/>
	<path class="st3" d="M24.5,22c5.8,0,9.7-0.9,9.7-0.9s-0.2-1.2-0.8-2.3s-1.5-1.6-1.5-1.6s-2.1,0.5-7.4,0.5
		C24.5,17.7,24.5,22,24.5,22z"/>
</g>
</svg>
