<?xml version="1.0" encoding="utf-8"?>
<!-- Generator: Adobe Illustrator 23.0.3, SVG Export Plug-In . SVG Version: 6.00 Build 0)  -->
<svg version="1.1" id="Layer_1" xmlns="http://www.w3.org/2000/svg" xmlns:xlink="http://www.w3.org/1999/xlink" x="0px" y="0px"
	 viewBox="0 0 50.6 45.4" style="enable-background:new 0 0 50.6 45.4;" xml:space="preserve">
<style type="text/css">
	.st0{fill:#92CDDE;}
	.st1{fill:#418ABD;}
</style>
<path class="st0" d="M50.6,12.3c0,0-1.3,16.1-24.4,7.8C21,18.2,16.6,15.7,0,17.5c0,0,10.5-7,25.3-3.5S50.6,12.3,50.6,12.3z
	 M26.2,24.4c-11.4-6.1-21-2.6-21-2.6c7.9,0,13.2,3.7,16.6,6.1c12.2,8.8,23.6-2.6,23.6-2.6S33.9,28.5,26.2,24.4z M7,26.2v1.7h1.7
	v-1.7H7z M7,31.4h1.7v-1.7H7V31.4z M5.2,29.6h1.7v-1.7H5.2V29.6z M8.7,29.6h1.7v-1.7H8.7V29.6z M28.8,41.9h1.7v-1.7h-1.7V41.9z
	 M28.8,45.4h1.7v-1.7h-1.7V45.4z M27.1,43.6h1.7v-1.7h-1.7V43.6z M30.6,43.6h1.7v-1.7h-1.7V43.6z M29.6,0h-1.7v1.7h1.7V0z M27.9,5.2
	h1.7V3.5h-1.7V5.2z M27.9,1.7h-1.7v1.7h1.7V1.7z M31.4,1.7h-1.7v1.7h1.7V1.7z M6.1,0H4.4v1.7h1.7V0z M6.1,3.5H4.4v1.7h1.7V3.5z
	 M4.3,1.7H2.6v1.7h1.7V1.7z M7.8,3.4V1.7H6.1v1.7H7.8z"/>
<path class="st1" d="M11.5,10.4l-0.3-1.7c7.1-1,14.3-0.7,21.3,0.9c5.4,1.2,7.9,0.4,9.1-0.5c0.7-0.5,1.1-1.3,1.2-2.1
	c0-0.1,0-0.1,0-0.2c0.1-0.8-0.1-1.6-0.5-2.3c-0.8-0.8-1.9-1.1-3-1c-4.2,0-4.4,2.4-4.4,2.6h-1.7c0,0,0.1-4.4,6.1-4.4
	c2,0,3.4,0.6,4.3,1.7c0.8,1,1.1,2.4,0.9,3.7c-0.1,1.3-0.8,2.6-1.9,3.4c-1.5,1.1-3.4,1.6-5.3,1.5c-1.8,0-3.5-0.3-5.2-0.7
	C25.3,9.8,18.4,9.5,11.5,10.4z M44.7,34.8c-2.1-1.7-5.7-1.9-10.9-0.7c-10.7,2.5-20-7.5-20.1-7.6l-1.3,1.2
	c0.4,0.4,10.1,10.8,21.8,8.1c5.7-1.3,8.3-0.6,9.4,0.3c0.5,0.4,0.8,0.9,0.9,1.5v0.1c0.2,1.1-0.1,2.3-0.7,3.2c-0.7,0.7-1.8,1.1-2.8,1
	c-4.2,0-4.4-2.3-4.4-2.6h-1.7c0,0.1,0.1,4.4,6.1,4.4c1.6,0.1,3.1-0.5,4.1-1.7c0.9-1.3,1.3-2.9,1.1-4.5
	C46.1,36.4,45.6,35.5,44.7,34.8z M13.6,31.7L12.5,33c0.3,0.2,7.2,6.2,13.6,6.3v-1.7C20.4,37.6,13.7,31.8,13.6,31.7z M26.1,39.3h0.1
	C26.2,39.3,26.1,39.3,26.1,39.3L26.1,39.3z M20.1,5.3C9.5,5.3,5,7.9,4.8,8l0.9,1.5C5.7,9.4,10,7,20.1,7V5.3z M23.5,5.2h-1.7v1.7h1.7
	V5.2z M49,12.7c0,0-4.2,7.2-15.6,4.8L33,19.2c1.6,0.3,3.3,0.5,4.9,0.5c9.1,0,12.6-6.1,12.6-6.2L49,12.7z"/>
</svg>
