<?xml version="1.0" encoding="utf-8"?>
<!-- Generator: Adobe Illustrator 23.0.3, SVG Export Plug-In . SVG Version: 6.00 Build 0)  -->
<svg version="1.1" id="Layer_1" xmlns="http://www.w3.org/2000/svg" xmlns:xlink="http://www.w3.org/1999/xlink" x="0px" y="0px"
	 viewBox="0 0 41.8 41.9" style="enable-background:new 0 0 41.8 41.9;" xml:space="preserve">
<style type="text/css">
	.st0{fill:#B52828;}
	.st1{fill:#F28236;}
	.st2{opacity:0.2;fill:#8E3C3C;enable-background:new    ;}
</style>
<path class="st0" d="M41.8,20.9c0,11.6-9.4,20.9-20.9,20.9S0,32.4,0,20.9C0,9.3,9.4,0,20.9,0S41.8,9.4,41.8,20.9z"/>
<g>
	<path class="st1" d="M19.8,29.8c0,0,0.4,1.1,0.5,2.8c0.1,2.2-0.4,3.2-0.4,3.2l1-0.5c0,0,1.1-4.3-0.3-6
		C20.2,29.5,19.8,29.8,19.8,29.8z"/>
	<path class="st1" d="M21.2,30.4c-1.3-0.2-2.7,2.7-4.7,1.6c-0.9-0.3,2-1.3,1-1.5c-1-0.1-5.1,0.1-6.7-2.6c2.3,0.5,4.6,1.3,4.7,0.4
		c0.1-1-4.1-4.1-4.7-5.8c0.3-0.4-1.3-4.3-0.6-5.8s2.9,4.4,3.7,2.8c0.8-0.4,2.6,4.1,3.4,3.7s-1.1-6-0.3-8.9s0.7,2.1,1.3,0.8
		c0.6-1.4,2.8-7.4,4.3-8.1s0.6,9.3,1.5,8.9c0.8-0.3,2.2-2.5,2.2-1c0.1,1.6-4,8.1-1.9,8.4c1.4,0.1,2.2-1.6,3-3.1s0.2,1.7,1.5,1.2
		c0.2-0.2,1.4-0.5,3-1.6c0.9-0.5-1,2.2-1.5,3.4c0.2,0.3,2.1,0.5,0.7,1.3c-1.4,0.9-6.8,2.8-5.9,3.8c0.9,1.1,2.3,1.9,3.9,0.2
		C30.8,27,27.4,34.8,21.2,30.4z"/>
</g>
<path class="st2" d="M20.5,0c8.9-0.1,21.1,6.8,21.1,20.9c-0.8,15.1-12.3,21-21.1,21C20.5,41.9,20.5,0,20.5,0z"/>
</svg>
