<?xml version="1.0" encoding="utf-8"?>
<!-- Generator: Adobe Illustrator 23.0.3, SVG Export Plug-In . SVG Version: 6.00 Build 0)  -->
<svg version="1.1" id="Layer_1" xmlns="http://www.w3.org/2000/svg" xmlns:xlink="http://www.w3.org/1999/xlink" x="0px" y="0px"
	 viewBox="0 0 38.3 50.2" style="enable-background:new 0 0 38.3 50.2;" xml:space="preserve">
<style type="text/css">
	.st0{fill:#EA3C2B;}
	.st1{fill:#FF8477;}
	.st2{opacity:0.2;fill:#FFFFFF;enable-background:new    ;}
	.st3{fill:#FFFFFF;}
	.st4{fill:#EFAB3B;}
</style>
<g>
	<path class="st0" d="M37.7,26L0.9,26.1c2.2-8,9.5-14,18.2-14.1C27.9,11.9,35.4,17.9,37.7,26z M19.5,50.2
		c7.4-0.1,13.7-4.3,16.8-10.5h-34C5.5,46,12,50.3,19.5,50.2z"/>
	<path class="st1" d="M38.1,28.2L0.4,28.3c-0.1,0.5-0.1,1-0.2,1.5l38-0.1C38.2,29.2,38.2,28.7,38.1,28.2z M0.9,36.1
		c0.1,0.5,0.3,1,0.5,1.5h35.8c0.2-0.5,0.3-1,0.5-1.5C37.7,36.1,0.9,36.1,0.9,36.1z"/>
</g>
<path class="st2" d="M6.5,39.7c-0.4-0.7-0.7-1.4-0.9-2.2c-0.2-0.5-0.3-1-0.5-1.5c-0.4-1.5-0.7-3.1-0.7-4.8c0-0.5,0-1,0.1-1.6
	c0-0.5,0.1-1,0.2-1.5c0.1-0.7,0.3-1.5,0.4-2.2c2-7.4,8.4-13.1,16.2-14c-0.8-0.1-1.6-0.1-2.4-0.1c-8.7,0.1-16,6.1-18.2,14.1
	c-0.2,0.7-0.3,1.4-0.4,2.2c-0.1,0.5-0.1,1-0.2,1.5c0,0.5-0.1,1-0.1,1.6c0,1.7,0.3,3.3,0.7,4.8c0.1,0.5,0.3,1,0.5,1.5
	c0.3,0.7,0.6,1.5,0.9,2.2c3.2,6.3,9.7,10.5,17.2,10.4c0.7,0,1.3-0.1,1.9-0.1C14.9,49.3,9.4,45.3,6.5,39.7z"/>
<path class="st3" d="M38.3,30.9c0-0.4,0-0.8-0.1-1.1l-38,0.1c0,0.5-0.1,1-0.1,1.6c0,1.7,0.3,3.3,0.7,4.8l36.8-0.1
	C38.1,34.4,38.4,32.7,38.3,30.9z M2.3,39.7h34c0.4-0.7,0.7-1.4,0.9-2.2H1.4C1.6,38.3,2,39,2.3,39.7z M37.7,26.1L0.9,26.2
	c-0.2,0.7-0.3,1.4-0.4,2.2l37.6-0.2C38,27.5,37.8,26.8,37.7,26.1z M19.5,7.6c-2.1,0-3.8-1.7-3.8-3.8S17.4,0,19.5,0s3.8,1.7,3.8,3.8
	C23.3,6,21.6,7.6,19.5,7.6z M19.5,1.3c-1.4,0-2.6,1.2-2.6,2.6s1.2,2.6,2.6,2.6s2.6-1.2,2.6-2.6C22.1,2.4,21,1.3,19.5,1.3z"/>
<path class="st4" d="M19.1,12c1.4,0,2.7,0.1,4,0.4V7.5h-7.3v4.8C16.8,12.2,17.9,12.1,19.1,12z"/>
</svg>
