<?xml version="1.0" encoding="utf-8"?>
<!-- Generator: Adobe Illustrator 23.0.3, SVG Export Plug-In . SVG Version: 6.00 Build 0)  -->
<svg version="1.1" id="Layer_1" xmlns="http://www.w3.org/2000/svg" xmlns:xlink="http://www.w3.org/1999/xlink" x="0px" y="0px"
	 viewBox="0 0 52.4 49.2" style="enable-background:new 0 0 52.4 49.2;" xml:space="preserve">
<style type="text/css">
	.st0{fill:#205FF5;}
</style>
<path class="st0" d="M8.6,4.3c0-0.9,1.7-4.3,1.7-4.3S12,3.4,12,4.3C12,5.2,11.2,6,10.3,6C9.4,6,8.6,5.2,8.6,4.3z M3.9,11
	c1.3,0,2.3-1,2.3-2.3C6.2,7.5,3.9,3,3.9,3S1.6,7.5,1.6,8.7C1.6,10,2.6,11,3.9,11z M27.8,5.7V4.5c0-0.9-0.7-1.6-1.6-1.6
	c-0.9,0-1.6,0.7-1.6,1.6v1.2C11.5,6.4,1,15.3,0,26.4c1.3-0.9,3.2-1.5,5.4-1.5c3.4,0,6.2,1.4,6.8,3.3h0.3c0.7-1.9,3.5-3.3,6.8-3.3
	c2.2,0,4.1,0.6,5.4,1.5v15.7c0,2.2-1.8,4-4,4s-4-1.8-4-4c0-0.9-0.7-1.6-1.6-1.6c-0.9,0-1.6,0.7-1.6,1.6c0,3.9,3.2,7.1,7.1,7.1
	c3.9,0,7.1-3.2,7.1-7.1V26.4c1.3-0.9,3.2-1.5,5.4-1.5c3.4,0,6.2,1.4,6.8,3.3h0.3c0.7-1.9,3.5-3.3,6.8-3.3c2.2,0,4.1,0.6,5.4,1.5
	C51.4,15.2,40.9,6.4,27.8,5.7z"/>
</svg>
