<?xml version="1.0" encoding="utf-8"?>
<!-- Generator: Adobe Illustrator 23.0.3, SVG Export Plug-In . SVG Version: 6.00 Build 0)  -->
<svg version="1.1" id="Layer_1" xmlns="http://www.w3.org/2000/svg" xmlns:xlink="http://www.w3.org/1999/xlink" x="0px" y="0px"
	 viewBox="0 0 84 100" style="enable-background:new 0 0 84 100;" xml:space="preserve">
<style type="text/css">
	.st0{fill:#AAC148;}
</style>
<path class="st0" d="M69.4,35.1v42.5c0,1.1-0.9,2-2,2h-9.2V94c0,3.3-2.7,6-6,6s-6-2.7-6-6V79.6h-8.4V94c0,3.3-2.7,6-6,6s-6-2.7-6-6
	V79.6h-9c-1.1,0-2-0.9-2-2V35.1c0-1.1,0.9-2,2-2h50.7C68.5,33,69.4,33.9,69.4,35.1z M6,33c-3.3,0-6,2.7-6,6v24.5c0,3.3,2.7,6,6,6
	s6-2.7,6-6V39C12,35.7,9.3,33,6,33z M78,33c-3.3,0-6,2.7-6,6v24.5c0,3.3,2.7,6,6,6s6-2.7,6-6V39C84,35.7,81.3,33,78,33z M15,27.6
	c1.6-7.8,6.6-14.5,13.4-18.3l-4.3-7.7c-0.3-0.5-0.1-1.2,0.4-1.5S25.7,0,26,0.5l4.3,7.7c3.5-1.6,7.4-2.5,11.6-2.5s8,0.9,11.6,2.5
	l4.3-7.7c0.3-0.5,0.9-0.7,1.5-0.4C59.8,0.4,60,1,59.7,1.6l-4.3,7.7c6.8,3.8,11.8,10.4,13.4,18.3c0.3,1.3-0.7,2.5-2,2.5H17
	C15.7,30,14.8,28.8,15,27.6z M52.2,18.6c0,1.3,1,2.3,2.3,2.3s2.3-1,2.3-2.3s-1-2.3-2.3-2.3C53.2,16.3,52.2,17.3,52.2,18.6z
	 M27.1,18.6c0,1.3,1,2.3,2.3,2.3s2.3-1,2.3-2.3s-1-2.3-2.3-2.3C28.1,16.3,27.1,17.3,27.1,18.6z"/>
</svg>
