<?xml version="1.0" encoding="utf-8"?>
<!-- Generator: Adobe Illustrator 23.0.3, SVG Export Plug-In . SVG Version: 6.00 Build 0)  -->
<svg version="1.1" id="Layer_1" xmlns="http://www.w3.org/2000/svg" xmlns:xlink="http://www.w3.org/1999/xlink" x="0px" y="0px"
	 viewBox="0 0 154 48" style="enable-background:new 0 0 154 48;" xml:space="preserve">
<style type="text/css">
	.st0{fill-rule:evenodd;clip-rule:evenodd;}
	.st1{fill-rule:evenodd;clip-rule:evenodd;fill:#FFFFFF;}
</style>
<path class="st0" d="M4.5,0h145c2.6,0,4.5,2.1,4.5,4.8v38.4c0,2.7-1.9,4.8-4.5,4.8H4.5C1.9,48,0,45.9,0,43.2V4.8C0,2.1,1.9,0,4.5,0z
	"/>
<path class="st1" d="M132.8,13.5c0.1,0.8,0.8,1.1,1.6,1.1c0.6,0,1.1-0.1,1.6-0.2l0.2,1.2c-0.6,0.2-1.3,0.4-2.1,0.4
	c-2,0-3.1-1.2-3.1-3c0-1.5,0.9-3.1,2.9-3.1c1.9,0,2.6,1.5,2.6,2.9c0,0.3,0,0.6-0.1,0.7H132.8z M133.9,11.1c-0.8,0-1.1,0.7-1.1,1.2
	h2.1C134.9,11.8,134.7,11.1,133.9,11.1z M134.5,25.5c3.4,0,4.7,2.7,4.7,5.3c0,0.6-0.1,1.1-0.1,1.3h-6.7c0.1,1.4,1.4,2,2.9,2
	c1.1,0,2-0.2,2.9-0.4l0.4,2.2c-1.1,0.4-2.4,0.6-3.8,0.6c-3.5,0-5.6-2.1-5.6-5.4C129.3,28.4,130.9,25.5,134.5,25.5z M136.2,29.8
	c0-0.8-0.3-2.1-1.8-2.1c-1.4,0-1.9,1.3-2,2.1H136.2z M127.4,12.6c0-0.8-0.3-1.3-0.9-1.3c-0.5,0-0.8,0.3-0.9,0.6
	c0,0.1-0.1,0.3-0.1,0.4v3.5h-1.8V7.4h1.8v3.3h0c0.2-0.3,0.4-0.4,0.7-0.6c0.3-0.1,0.6-0.2,0.9-0.2c1.2,0,2,0.8,2,2.6v3.4h-1.8V12.6z
	 M121.7,13.5c0,0.7,0.2,1,0.7,1c0.2,0,0.4,0,0.5,0l0,1.4c-0.2,0.1-0.7,0.2-1.2,0.2c-0.6,0-1.1-0.2-1.4-0.5c-0.3-0.3-0.5-0.9-0.5-1.7
	v-2.4h-0.8V10h0.8V8.7l1.8-0.4V10h1.3v1.3h-1.3V13.5z M114.2,36.5c-3.1,0-5.4-2-5.4-5.4c0-3.4,2.2-5.6,5.6-5.6
	c3.2,0,5.3,2.2,5.3,5.4C119.7,34.7,117,36.5,114.2,36.5z M114.3,27.8c-1.6,0-2.1,1.6-2.1,3.2c0,1.8,0.7,3.2,2.1,3.2
	c1.3,0,2.1-1.3,2.1-3.2C116.4,29.4,115.8,27.8,114.3,27.8z M113.5,12.6c0-0.8-0.3-1.3-0.9-1.3c-0.5,0-0.8,0.3-0.9,0.7
	c0,0.1-0.1,0.3-0.1,0.5v3.4h-1.8v-4c0-0.7,0-1.4,0-1.9h1.6l0.1,0.8h0c0.2-0.4,0.8-0.9,1.8-0.9c1.2,0,2.1,0.8,2.1,2.5v3.5h-1.8V12.6z
	 M105.6,16c-1.7,0-3-1.1-3-3s1.2-3.1,3.1-3.1c1.8,0,3,1.2,3,3C108.7,15,107.2,16,105.6,16z M105.7,11.2c-0.9,0-1.2,0.9-1.2,1.8
	c0,1,0.4,1.8,1.2,1.8c0.7,0,1.1-0.7,1.1-1.8C106.8,12.1,106.5,11.2,105.7,11.2z M105.3,22.7v3h2.3v2.4h-2.3v3.8
	c0,1.3,0.3,1.9,1.3,1.9c0.4,0,0.7,0,1-0.1l0,2.5c-0.4,0.2-1.2,0.3-2.1,0.3c-1,0-1.9-0.4-2.4-0.9c-0.6-0.6-0.9-1.6-0.9-3.1v-4.3h-1.4
	v-2.4h1.4v-2.3L105.3,22.7z M93.6,36.5c-1.6,0-3.3-0.4-4.1-0.9l0.7-2.7c0.9,0.5,2.2,0.9,3.6,0.9c1.5,0,2.3-0.6,2.3-1.6
	c0-0.9-0.7-1.4-2.4-2.1c-2.4-0.8-4-2.2-4-4.3c0-2.5,2.1-4.4,5.4-4.4c1.6,0,2.8,0.3,3.7,0.7l-0.7,2.7c-0.6-0.3-1.6-0.7-3-0.7
	c-1.4,0-2.1,0.6-2.1,1.4c0,0.9,0.8,1.3,2.7,2.1c2.5,1,3.7,2.3,3.7,4.3C99.5,34.4,97.6,36.5,93.6,36.5z M97.5,15L97.5,15
	c-0.4,0.7-1.1,1-1.8,1c-1.4,0-2.5-1.2-2.5-3c0-2,1.2-3.1,2.6-3.1c0.7,0,1.3,0.3,1.5,0.7h0V7.4h1.8v6.8c0,0.7,0,1.4,0,1.8h-1.6
	L97.5,15z M97.3,12.5c0-0.1,0-0.2,0-0.3c-0.1-0.5-0.5-0.9-1.1-0.9c-0.8,0-1.2,0.7-1.2,1.7c0,1,0.5,1.6,1.2,1.6c0.5,0,0.9-0.4,1-0.9
	c0-0.1,0-0.3,0-0.4V12.5z M89.9,15.3L89.9,15.3c-0.4,0.5-1,0.7-1.7,0.7c-1.2,0-1.9-0.9-1.9-1.8c0-1.5,1.4-2.3,3.4-2.2v-0.1
	c0-0.3-0.2-0.8-1.1-0.8c-0.6,0-1.2,0.2-1.6,0.4l-0.3-1.2c0.4-0.2,1.2-0.5,2.3-0.5c1.9,0,2.6,1.2,2.6,2.5v2c0,0.6,0,1.1,0.1,1.4H90
	L89.9,15.3z M89.8,13.1c-0.9,0-1.7,0.2-1.7,0.9c0,0.5,0.3,0.7,0.7,0.7c0.5,0,0.8-0.3,0.9-0.7c0-0.1,0-0.2,0-0.3V13.1z M82,16
	c-1.7,0-3-1.1-3-3s1.2-3.1,3.1-3.1c1.8,0,3,1.2,3,3C85,15,83.5,16,82,16z M82,11.2c-0.9,0-1.2,0.9-1.2,1.8c0,1,0.4,1.8,1.2,1.8
	c0.7,0,1.1-0.7,1.1-1.8C83.2,12.1,82.8,11.2,82,11.2z M83.7,30.8c0,3.8-2.4,5.7-4.7,5.7c-1.3,0-2.2-0.5-2.7-1.2h0v5.3h-3.2V29.2
	c0-1.4,0-2.6-0.1-3.5h2.8l0.1,1.5h0c0.8-1.1,2-1.7,3.5-1.7C81.6,25.5,83.7,27.5,83.7,30.8z M78.2,28c-0.9,0-1.7,0.7-1.9,1.7
	c0,0.2-0.1,0.4-0.1,0.6v1.4c0,0.3,0,0.5,0.1,0.7c0.2,0.9,1,1.6,1.9,1.6c1.4,0,2.2-1.2,2.2-3C80.4,29.3,79.6,28,78.2,28z M76,7.4h1.8
	v8.5H76V7.4z M73.3,12.6c0-0.8-0.3-1.3-0.9-1.3c-0.5,0-0.8,0.3-0.9,0.7c0,0.1-0.1,0.3-0.1,0.5v3.4h-1.8v-4c0-0.7,0-1.4,0-1.9h1.6
	l0.1,0.8h0c0.2-0.4,0.8-0.9,1.8-0.9c1.2,0,2.1,0.8,2.1,2.5v3.5h-1.8V12.6z M65.6,15.9l-0.5-2.1c-0.1-0.6-0.2-1.1-0.4-1.8h0
	c-0.1,0.7-0.2,1.3-0.4,1.8l-0.6,2.1h-1.7L60.4,10h1.8l0.5,2.4c0.1,0.6,0.2,1.3,0.3,1.9h0c0.1-0.7,0.3-1.3,0.4-1.9l0.6-2.4h1.4
	l0.6,2.3c0.2,0.7,0.3,1.3,0.4,2h0c0.1-0.7,0.2-1.3,0.3-2l0.5-2.3h1.8l-1.8,5.9H65.6z M56.9,16c-1.7,0-3-1.1-3-3s1.2-3.1,3.1-3.1
	c1.8,0,3,1.2,3,3C59.9,15,58.4,16,56.9,16z M56.9,11.2c-0.9,0-1.2,0.9-1.2,1.8c0,1,0.4,1.8,1.2,1.8c0.7,0,1.2-0.7,1.2-1.8
	C58.1,12.1,57.7,11.2,56.9,11.2z M54.6,36.3l-1.1-3.7h-4.1l-1,3.7h-3.4l4.4-14.6h4.3l4.5,14.6H54.6z M52.1,27
	c-0.3-0.9-0.5-1.9-0.7-2.8h0c-0.2,0.9-0.4,2-0.7,2.8l-0.9,3.1H53L52.1,27z M48.2,16c-0.9,0-1.6-0.1-2.1-0.1V7.9
	c0.7-0.1,1.5-0.2,2.4-0.2c1.5,0,2.5,0.3,3.3,0.9c0.8,0.6,1.4,1.6,1.4,3c0,1.5-0.6,2.6-1.3,3.3C51.1,15.6,49.8,16,48.2,16z M48.8,9.1
	c-0.4,0-0.7,0-0.8,0.1v5.3c0.2,0,0.4,0,0.6,0c1.6,0,2.7-0.9,2.7-2.8C51.3,10,50.3,9.1,48.8,9.1z M28,36.9c-2.1,0-2.2-1.2-5-1.2
	c-2.4,0-3.2,1.2-5,1.2c-3.5,0-8-7.6-8-13.8c0-6.4,4.5-9,7.4-9c2.5,0,3.5,1.5,5.6,1.5c1.7,0,3-1.5,5.5-1.5c3.4,0,5.6,3.3,5.6,3.3
	s-3.3,1.8-3.3,5.7c0,4.6,4.2,6,4.2,6S31.7,36.9,28,36.9z M22.2,14.5c-0.5-4,3.2-6.7,5.8-6.9C28.5,10.7,25.6,14.6,22.2,14.5z
	 M62.5,27.2L62.5,27.2c0.8-1.1,2-1.7,3.5-1.7c2.3,0,4.3,2,4.3,5.4c0,3.8-2.4,5.7-4.7,5.7c-1.3,0-2.2-0.5-2.7-1.2h0v5.3h-3.2V29.2
	c0-1.4,0-2.6-0.1-3.5h2.8L62.5,27.2z M62.9,31.7c0,0.3,0,0.5,0.1,0.7c0.2,0.9,1,1.6,1.9,1.6c1.4,0,2.2-1.2,2.2-3c0-1.7-0.7-3-2.2-3
	c-0.9,0-1.7,0.7-1.9,1.7c0,0.2-0.1,0.4-0.1,0.6V31.7z M124.6,27.6L124.6,27.6c0.6-1.5,1.9-2.2,2.9-2.2c0.3,0,0.4,0,0.7,0v3.1
	c-0.2,0-0.5-0.1-0.9-0.1c-1.2,0-2,0.6-2.2,1.7c0,0.2-0.1,0.5-0.1,0.7v5.4h-3.2v-7.1c0-1.6,0-2.6-0.1-3.5h2.8L124.6,27.6z"/>
</svg>
