<?xml version="1.0" encoding="utf-8"?>
<!-- Generator: Adobe Illustrator 23.0.3, SVG Export Plug-In . SVG Version: 6.00 Build 0)  -->
<svg version="1.1" id="Layer_1" xmlns="http://www.w3.org/2000/svg" xmlns:xlink="http://www.w3.org/1999/xlink" x="0px" y="0px"
	 viewBox="0 0 447.2 427.4" style="enable-background:new 0 0 447.2 427.4;" xml:space="preserve">
<style type="text/css">
	.st0{fill:#0062FF;}
</style>
<path class="st0" d="M119.3,321.1l-114.6-74c-5.9-3.8-6.3-12.2-0.9-16.6l77.1-62c3.4-2.8,8.3-3,12-0.6l114.6,73.9
	c5.9,3.8,6.3,12.2,0.9,16.6l-77.1,62C127.9,323.2,123,323.5,119.3,321.1z M443.4,230.5l-77.1-62c-3.4-2.8-8.3-3-12-0.6l-114.6,73.9
	c-5.9,3.8-6.3,12.2-0.9,16.6l77.1,62c3.4,2.8,8.3,3,12,0.6l114.6-73.9C448.4,243.3,448.9,234.9,443.4,230.5z M3.8,92.2l77.1,62
	c3.4,2.8,8.3,3,12,0.6l114.6-73.9c5.9-3.8,6.3-12.2,0.9-16.6l-77.1-62c-3.4-2.8-8.3-3-12-0.6L4.7,75.6C-1.2,79.4-1.6,87.8,3.8,92.2z
	 M239.7,80.9l114.6,73.9c3.7,2.4,8.6,2.1,12-0.6l77.1-62c5.5-4.4,5-12.8-0.9-16.6L327.9,1.7c-3.7-2.4-8.6-2.1-12,0.6l-77.1,62
	C233.4,68.7,233.8,77.1,239.7,80.9z M346.4,325.8l-20,12.9c-3.4,2.2-7.7,1.9-10.9-0.6l-85.9-68.8c-3.4-2.7-8.2-2.7-11.6,0
	l-86.3,68.8c-3.1,2.5-7.5,2.7-10.9,0.5l-21.3-13.7c-6.2-4-14.4,0.5-14.4,7.8v7.4c0,3.3,1.7,6.3,4.5,8l128.6,78c3,1.8,6.7,1.8,9.7,0
	l128.5-77.9c2.8-1.7,4.5-4.7,4.5-8v-6.6C360.8,326.2,352.6,321.8,346.4,325.8z"/>
</svg>
