<?xml version="1.0" encoding="utf-8"?>
<!-- Generator: Adobe Illustrator 23.0.3, SVG Export Plug-In . SVG Version: 6.00 Build 0)  -->
<svg version="1.1" id="Layer_1" xmlns="http://www.w3.org/2000/svg" xmlns:xlink="http://www.w3.org/1999/xlink" x="0px" y="0px"
	 viewBox="0 0 52.8 97.6" style="enable-background:new 0 0 52.8 97.6;" xml:space="preserve">
<style type="text/css">
	.st0{fill:#3B5998;}
</style>
<g>
	<path class="st0" d="M50.8,0L38.1,0C23.9,0,14.7,9.4,14.7,24v11.1H2c-1.1,0-2,0.9-2,2v16c0,1.1,0.9,2,2,2h12.7v40.5
		c0,1.1,0.9,2,2,2h16.6c1.1,0,2-0.9,2-2V55.1h14.9c1.1,0,2-0.9,2-2l0-16c0-0.5-0.2-1-0.6-1.4s-0.9-0.6-1.4-0.6H35.3v-9.4
		c0-4.5,1.1-6.8,7-6.8l8.5,0c1.1,0,2-0.9,2-2V2C52.8,0.9,51.9,0,50.8,0z"/>
</g>
</svg>
