<?xml version="1.0" encoding="utf-8"?>
<!-- Generator: Adobe Illustrator 23.0.3, SVG Export Plug-In . SVG Version: 6.00 Build 0)  -->
<svg version="1.1" id="Layer_1" xmlns="http://www.w3.org/2000/svg" xmlns:xlink="http://www.w3.org/1999/xlink" x="0px" y="0px"
	 viewBox="0 0 96.5 96.3" style="enable-background:new 0 0 96.5 96.3;" xml:space="preserve">
<style type="text/css">
	.st0{fill:#1D81CE;}
	.st1{fill:#126DB1;}
	.st2{fill:#FCFCFC;}
</style>
<circle class="st0" cx="48.2" cy="48.2" r="46.7"/>
<path class="st1" d="M48.2,1.5c-2.1,0-4.1,0.1-6.1,0.4c22.9,3,40.6,22.6,40.6,46.3S65,91.5,42.1,94.5c2,0.3,4,0.4,6.1,0.4
	C74,94.9,94.9,74,94.9,48.2S74,1.5,48.2,1.5z"/>
<path class="st2" d="M32,48.2v2H17.8v14.2H32v27.5c4.5,1.7,9.2,2.6,14.2,2.9V64.5h22.3V50.2H46.2v-2c0-7.8,6.4-12.2,14.2-12.2h8.1
	V21.8h-8.1C45.8,21.8,32,33.6,32,48.2z"/>
<path d="M82.3,14.1C73.2,5,61.1,0,48.2,0c-12.8,0-25,5.1-34.1,14.1C5,23.2,0,35.3,0,48.2c0,10,3.1,19.6,8.8,27.8
	c5.6,8,13.5,14,22.6,17.4c0.6,0.2,1.3,0,1.7-0.5c0.2-0.3,0.3-0.6,0.3-1V64.4c0-0.8-0.7-1.5-1.5-1.5H19.3V51.7H32
	c0.8,0,1.5-0.7,1.5-1.5v-2c0-13.2,12.6-24.8,26.9-24.8H67v11.2h-6.6c-4.3,0-8.2,1.2-11,3.5c-3.1,2.5-4.7,6-4.7,10.2v2
	c0,0.8,0.7,1.5,1.5,1.5h6c0.8,0,1.5-0.7,1.5-1.5l0,0c0-0.8-0.7-1.5-1.5-1.5h-4.5v-0.6c0-7.9,6.8-10.6,12.7-10.6h8.1
	c0.8,0,1.5-0.7,1.5-1.5V21.8c0-0.8-0.7-1.5-1.5-1.5h-8.1c-7.4,0-15,3-20.7,8.1c-6,5.4-9.2,12.4-9.2,19.8v0.5H17.8
	c-0.8,0-1.5,0.7-1.5,1.5v14.2c0,0.8,0.7,1.5,1.5,1.5h12.7v23.8C14,82.7,3.1,66.2,3.1,48.2c0-24.9,20.2-45.1,45.1-45.1
	s45.1,20.3,45.1,45.1c0,24.9-20.2,45.1-45.1,45.1c-0.2,0-0.3,0-0.5,0V65.9h20.8c0.8,0,1.5-0.7,1.5-1.5V50.2c0-0.8-0.7-1.5-1.5-1.5
	h-8.9c-0.8,0-1.5,0.7-1.5,1.5l0,0c0,0.8,0.7,1.5,1.5,1.5H67v11.2H46.2c-0.8,0-1.5,0.7-1.5,1.5v30.4c0,0.8,0.6,1.5,1.5,1.5
	c0.8,0,1.4,0,2.1,0c12.9,0,25-5,34.1-14.1c9-9,14.1-21.3,14.1-34.1C96.4,35.3,91.4,23.2,82.3,14.1z"/>
</svg>
