<?xml version="1.0" encoding="utf-8"?>
<!-- Generator: Adobe Illustrator 23.0.3, SVG Export Plug-In . SVG Version: 6.00 Build 0)  -->
<svg version="1.1" id="Layer_1" xmlns="http://www.w3.org/2000/svg" xmlns:xlink="http://www.w3.org/1999/xlink" x="0px" y="0px"
	 viewBox="0 0 52 99" style="enable-background:new 0 0 52 99;" xml:space="preserve">
<style type="text/css">
	.st0{fill:#3E50B4;}
</style>
<path class="st0" d="M39.4,21.5h9c1.9,0,3.5-1.6,3.5-3.5V3.5C52,1.6,50.4,0,48.5,0H36.1c-0.1,0-0.3,0-0.6,0c-2.4,0-10.5,0.5-17,6.4
	c-7,6.5-6.4,14.2-6.1,16.1V32h-9C1.6,32,0,33.5,0,35.5v15.6c0,1.9,1.6,3.5,3.5,3.5H12v40.9c0,1.9,1.6,3.5,3.5,3.5h17.7
	c1.9,0,3.5-1.6,3.5-3.5V54.8h10c1.8,0,3.3-1.3,3.5-3.1L52,35.9c0.1-1-0.2-2-0.9-2.7S49.5,32,48.5,32H36.6v-8
	C36.6,22.4,37.1,21.5,39.4,21.5z M34.7,35.9H48l-1.7,14.9H34.7c-1.1,0-2,0.9-2,2v42.3H15.9V52.6c0-1.1-0.9-2-2-2h-10V35.9h10.5
	c1.1,0,2-0.9,2-2V22.4c0-0.1,0-0.2,0-0.3c-0.2-1.2-1-7.4,4.8-12.7C26.6,4.4,33.5,4,35.4,4c0.3,0,0.4,0,0.5,0S36,4,36,4h12v13.6h-8.6
	c-4.2,0-6.7,2.4-6.7,6.5V34C32.7,35,33.6,35.9,34.7,35.9z M21.8,68.4v1c0,1.1-0.9,2-2,2s-2-0.9-2-2v-1c0-1.1,0.9-2,2-2
	C21,66.5,21.8,67.3,21.8,68.4z M21.8,75.7v15c0,1.1-0.9,2-2,2s-2-0.9-2-2v-15c0-1.1,0.9-2,2-2C21,73.8,21.8,74.6,21.8,75.7z"/>
</svg>
