<?xml version="1.0" encoding="utf-8"?>
<!-- Generator: Adobe Illustrator 23.0.3, SVG Export Plug-In . SVG Version: 6.00 Build 0)  -->
<svg version="1.1" id="Layer_1" xmlns="http://www.w3.org/2000/svg" xmlns:xlink="http://www.w3.org/1999/xlink" x="0px" y="0px"
	 viewBox="0 0 100 100" style="enable-background:new 0 0 100 100;" xml:space="preserve">
<style type="text/css">
	.st0{fill:#E62B33;}
	.st1{fill:#FFFFFF;}
</style>
<path id="XMLID_30_" class="st0" d="M100,50c0,27.6-22.4,50-50,50S0,77.6,0,50S22.4,0,50,0S100,22.4,100,50z"/>
<path class="st1" d="M75.9,49.1c0,0.3,0,0.7,0,1c0,1.1,0,2.1,0,3.2c-1.9,0-3.7,0-5.7,0c0,2,0,3.8,0,5.7c-1.4,0-2.7,0-4.1,0
	c0-1.8,0-3.7,0-5.7c-0.9,0-1.8,0-2.6,0c-1,0-2-0.1-3-0.1c0-1-0.1-2.1-0.1-3.1c0-0.3,0-0.6,0-1c2,0,3.8,0,5.8,0c0-0.3,0-0.6,0-0.9
	c0-1.6,0-3.2,0-4.8c1.3,0,2.6,0,3.8,0c0.1,0,0.4,0.4,0.4,0.6c0,1.4,0,2.7,0,4.1c0,0.2,0,0.5,0,0.8c0,0.1,0,0.1,0,0.2
	c0.4,0,0.7,0,1.1,0C72.8,49.1,74.3,49.1,75.9,49.1z M55,48.6c-3.6,0-7.2,0-10.8,0c-1,0-2.1,0-3.1,0c-0.2,0-0.5,0.2-0.5,0.4
	c0,2.1,0,4.1,0,6.3c3,0,5.8,0,8.8,0c-0.1,0.4-0.2,0.7-0.3,1c-1.3,4-5.5,6-9.9,5.3c-5.5-0.9-8.9-6-7.9-11.5c0.1-0.8,0.4-1.5,0.7-2.2
	c1.8-4,6.3-6.4,10.8-5.4c1.6,0.3,3,1.1,4.1,2.1c1.6-1.6,3.1-3.2,4.8-4.8c-0.1-0.1-0.3-0.2-0.4-0.3C47.4,36.2,43,35,38,35.8
	c-7.2,1.2-12.3,6.8-13.5,13.4C24,52,24.2,55,25.4,57.9c2.7,7,9.8,11.3,17.3,10.4c3.7-0.4,7-1.7,9.5-4.5c3.8-4,4.8-8.9,4.2-14.2
	C56.2,48.7,55.8,48.6,55,48.6z"/>
</svg>
