<?xml version="1.0" encoding="utf-8"?>
<!-- Generator: Adobe Illustrator 23.0.3, SVG Export Plug-In . SVG Version: 6.00 Build 0)  -->
<svg version="1.1" id="Layer_1" xmlns="http://www.w3.org/2000/svg" xmlns:xlink="http://www.w3.org/1999/xlink" x="0px" y="0px"
	 viewBox="0 0 80.7 99.8" style="enable-background:new 0 0 80.7 99.8;" xml:space="preserve">
<path d="M43.9,34.4c1.9-3.5,0.4-11.3-3.5-18.9c-3.9-7.8-9.9-7.2-11.7-6.6c-9.3,4.1-8.9,10.5-7.6,14.8C22.3,28,25.4,35.8,32,38.3
	S42.1,38.1,43.9,34.4z M24.8,24.3c-0.8-3.9,0.6-7.6,3.7-8.9c2.7-1,7-0.4,10.3,3.9s4.5,10.9,2.9,14.2c-1.6,3.3-4.9,4.5-8,2.7
	C30.3,34.8,25.6,28.2,24.8,24.3z M15.9,24.9c0.6,3.3,3.5,6,3.5,6.8s-0.8,1.4-2.1,0.8c-1.2-0.4-2.5-4.5-3.3-6.4S13.4,17,15.9,15
	c0.6-0.6,2.3,0,1.9,0.8C17.4,16.7,15.5,21.8,15.9,24.9z M49.5,15.7c-1.4-2.1-4.3-4.5-3.3-5.4c0.6-0.4,1.6,0.2,2.9,1.2
	c1.2,1,3.7,5.1,3.7,7.2c-0.2,2.1-0.4,2.7-1,2.9c-0.4,0.2-1.2-0.2-1.2-1C50.5,19.8,51.1,17.5,49.5,15.7z M80.4,42.8
	c-0.4-1.2-5.8-1.4-6-1.4s-0.2-3.7-0.6-4.7s-8.6-0.4-9.1-0.2c-0.4,0.4,0,4.9,0,5.4c0,0.4-6.4,0.2-7.2,0.4s-0.4,8.2,0,8.9
	c0.4,0.4,4.3,0.2,4.5,0.4c0.4,0,0.4,3.3,0.4,4.3s3.9,3.1,4.5,3.5c0.6,0.4,8.4-0.2,9.3-0.8c1-0.6,0.2-6.6,0.2-7
	c0.2-0.2,3.5,0.2,3.9-0.2C80.8,51.1,80.8,44.1,80.4,42.8z M77.3,49c-0.4,0-5.6-0.8-5.6,0s0.6,6.4,0.2,6.6c-0.2,0.2-4.9,0-5.1-0.2
	c-0.2-0.4-0.4-6-0.8-6.2s-6.8,0.2-6.8-0.2s-0.8-4.1,0.4-4.3s7,0.4,7-0.4c0-0.8,0-4.7,0.2-5.4c0.2-0.6,4.5-0.4,4.7,0.2
	c0.2,0.6,0,4.7,0.6,4.9s5.1,0,5.4,0.4C77.7,44.9,77.7,48.8,77.3,49z M12.8,68.4c-1.4,0.4-4.5,2.3-5.1,3.9c-0.8,1.6-0.4,6.6-1.2,6.6
	s-1.6-0.2-1.6-0.2c-0.4-0.2-0.8-4.7,0-6.2c0.8-1.4,2.7-4.3,5.1-5.6c2.5-1.2,3.3-1.2,3.5-0.6C13.7,66.9,13.9,67.5,12.8,68.4z
	 M22.7,63c-5.8,1.9-9.3,6.6-10.9,8.4c-4.1,4.9-1,10.3,1.9,13c3.1,2.7,7,3.7,14.6,3.5s13-4.5,15.2-9.7c2.3-5.1,0-8.9-3.3-12.1
	C36.9,63,28.5,61.2,22.7,63z M38.2,82.2c-3.7,2.1-9.7,3.7-14,3.7c-4.5,0-9.5-3.7-9.1-7.2s2.5-6.6,4.3-7.8C21.9,69.5,28,67,33,67.2
	c5.1,0.2,8,4.1,8.6,6.8C42.1,77,41.9,80.1,38.2,82.2z M47.6,50.9c-1.4-7.2,4.7-8.4,7.8-12.8c3.1-4.3,4.9-10.9,4.5-14.4
	C59.8,20.2,57.1,13,57.1,12s6.8-5.8,7.2-6.4c0.4-0.6,1-2.3,0.4-3.5c-0.4-1.2-1.4-1.2-4.1-1.2S41.7-0.2,35.1,0S21.5,2.1,16.2,4.7
	C10.8,7.4,6,11.6,3.6,17.1c-2.5,5.6-2.9,9.3-1,16.5c1.9,7,7.2,11.3,9.9,13.4c2.7,2.1,13,3.5,13.8,3.9c0,0,0.2,0.8,0.4,1.6
	c0.2,1,0.6,1.9,0.6,1.9s-0.4,0.2-2.1,0.4c-1.6,0.2-8,2.1-13.4,5.6C6.4,63.8-0.8,70.2,0.1,77.2c0.8,7,2.5,11.9,9.1,16.7
	c6.6,4.9,13,6.6,24.5,5.6c11.3-1,20.2-7.4,23.5-13.4c3.5-6,3.5-11.5,1-17.9C56.1,61.4,49.1,57.9,47.6,50.9z M56.1,75.8
	c-0.6-0.4-6-4.9-7.4-5.4c-1.4-0.4-1.9-0.8-2.3-0.2c-0.2,0.6-0.4,1.4,0.4,1.6c1,0.2,5.8,3.7,6.6,4.3c1,0.6,1.9,0.6,1.9,1.4
	s0,2.1-0.4,1.9s-7-5.6-7.4-5.6s-1.4,1-0.8,1.4c0.6,0.4,7.2,5.1,7.2,5.8c0,0.6-0.4,1.4-0.6,1.4c-0.2,0-6.6-5.1-7-4.9
	c-0.4,0.4-1.2,1.4-1,1.4c0.2,0.2,5.8,4.1,5.6,4.5c0,0.4-1.2,1.9-1.4,1.4c-0.4-0.4-3.7-4.1-4.5-4.1c-0.6,0-1.2,0.8-1,1
	s3.9,3.5,3.7,3.9s-1.2,0.8-1.2,0.8s-3.5-2.9-4.1-2.9c-0.6,0.2-1.4,0.8-1,1s3.3,2.5,3.1,2.9c-0.2,0.2-1.9,0.8-1.9,0.8
	s-2.7-3.1-3.3-2.7s-1.4,0.4-1,0.8s2.3,2.7,1.9,3.1c-0.4,0.4-8.4,1.9-16.7,1c-8.6-0.2-15-2.7-17.7-6.4C3.2,80.3,2.1,74.5,3,71
	c0.8-3.5,6.4-8.6,11.1-11.3s12.4-4.5,13.4-4.7s2.3-0.6,2.1-1.9c-0.2-1.2-1.4-3.3-0.4-4.9c0.8-1.4,4.3-4.5,3.7-5.1s-1.4-0.4-6.2-0.8
	C22,41.9,12.9,40.4,10,38.2c-2.9-2.3-6.4-7-6.2-15.9C4,19,6.9,12.4,11,8.9s13.2-6.4,16.7-7.2c3.7-0.8,12.8-0.6,17.5-0.4
	c4.9,0,15-0.2,15.4,0.4c0.4,0.4-7,4.7-7.4,5.1c-0.4,0.6-0.6,2.3,0.2,3.9s2.1,6.6,2.7,8.9c0.4,2.3,0,3.7,0,3.7s-2.7-2.5-2.9-2.1
	s-1.4,1.2-0.6,1.6c0.6,0.4,2.9,2.7,3.1,2.9c0.2,0.4,0.4,2.5,0,2.3s-4.1-4.5-4.7-4.1c-0.6,0.4-1.6,0.6-0.8,1.2s4.9,4.5,4.9,4.9
	s-0.4,2.1-0.8,1.9c-0.4,0-5.4-5.4-6-5.1c-0.4,0.2-1,0.8-0.8,1s5.6,5.4,5.3,5.8c0,0.4-1.2,1.6-1.4,1.6s-4.3-4.5-4.5-4.3
	s-1,1.2-0.6,1.6c0.4,0.4,3.7,3.7,3.7,4.1c-0.2,0.4-0.8,1.4-1.4,1.2c-0.6,0-2.9-2.7-3.3-2.5c-0.4,0.2-1.4,0.4-1,1s2.9,2.9,2.7,3.1
	c-0.2,0.4-2.1,2.5-2.5,3.7s-0.6,2.7-0.6,2.7s-4.5-3.7-4.9-3.5s-0.8,1.2-0.4,1.6c0.4,0.2,4.5,3.1,4.5,3.3s0.6,1.6,0.2,1.4
	c-0.4-0.2-3.7-2.7-3.9-2.3s0.2,1.6,0.4,1.9c0.2,0.2,3.7,2.7,4.1,3.1c0.2,0.4,0.8,2.7,0.8,2.7s-3.5-2.9-3.7-2.3
	c-0.2,0.6,0,1.6,0.4,1.9c0.4,0.2,5.6,3.1,6.2,3.7c0.6,0.6,0.8,1.6,0.8,1.6s-1.4,1.2-1,1.4c0.4,0.4,4.9,2.7,6.6,4.1
	c1.6,1.4,2.5,3.1,2.5,3.7s-0.4,0.6-0.4,0.6s-7-6-8.2-5.8c-1.4,0.2-0.8,1.2-0.4,1.9c0.6,0.6,7.8,5.8,8.4,6.2c0.6,0.4,1.2,0.8,1.2,1.4
	C56.5,74.3,56.7,76,56.1,75.8z"/>
</svg>
