<?xml version="1.0" encoding="utf-8"?>
<!-- Generator: Adobe Illustrator 23.0.3, SVG Export Plug-In . SVG Version: 6.00 Build 0)  -->
<svg version="1.1" id="Layer_1" xmlns="http://www.w3.org/2000/svg" xmlns:xlink="http://www.w3.org/1999/xlink" x="0px" y="0px"
	 viewBox="0 0 154 47.5" style="enable-background:new 0 0 154 47.5;" xml:space="preserve">
<style type="text/css">
	.st0{fill-rule:evenodd;clip-rule:evenodd;}
	.st1{fill-rule:evenodd;clip-rule:evenodd;fill:#FFFFFF;}
</style>
<path class="st0" d="M4.5,0h145c2.6,0,4.5,2.1,4.5,4.7v38c0,2.6-1.9,4.7-4.5,4.7H4.5c-2.6,0-4.5-2.1-4.5-4.7v-38C0,2.1,1.9,0,4.5,0z
	"/>
<path class="st1" d="M133.9,39.8c-0.4,1-2.1,1.4-3.3,1.4c-0.5,0-1.1-0.3-1.1-0.3l0.3-0.8c0,0,0.3,0.1,0.8,0.1c0.5,0,1.4-1.2,1.4-1.2
	l0.7-1.6l-3.6-9.5h1.2l3,8.1l2.9-8.1h1.2C137.4,28,134.3,38.8,133.9,39.8z M126.7,36.3c0,0-1.5,1.3-3.7,1.3c-2.2,0-3.1-1.1-3.1-2.8
	s1.4-3.3,4.5-3.3h2.4v-1.2c0,0-0.2-1.6-2.8-1.6c-2.6,0-2.5,1.8-2.5,1.8l-1.1,0c0,0,0.1-2.6,3.7-2.6c3.6,0,3.9,2.4,3.9,2.4v5.9
	c0,0.7,0,1.2,0,1.2h-1.2C126.7,37.4,126.7,36.9,126.7,36.3z M126.7,32.7h-2.4c-1.8,0-3.3,1-3.3,2.2s0.9,1.8,2.1,1.8
	c1.1,0,3.6-0.9,3.6-2.8V32.7z M117.2,24.4h1.2v13.1h-1.2V24.4z M111.7,37.6c-2.3,0-2.8-1.3-2.8-1.3V41h-1.2V28h1.2v1.2
	c0,0,0.8-1.2,2.8-1.2c2,0,4.2,1.3,4.2,4.8C115.9,36.1,114.1,37.6,111.7,37.6z M111.7,28.8c-1.9,0-2.7,2.7-2.7,2.7v2.4
	c0,0.1,0.7,2.9,2.6,2.9c1.9,0,3.3-1.7,3.3-4S113.4,28.8,111.7,28.8z M100.2,36.3c1.3,0,2.4-0.7,2.4-0.7s-1.1,1.8-3.5,1.8
	c-3.4,0-4.8-2.6-4.8-4.9c0-2.3,1.6-4.7,4.5-4.7c3,0,3.5,2.5,3.5,2.5l-4.7,1.9l-1.6,0.1C96.5,34.8,98.5,36.3,100.2,36.3z M100.2,30.5
	c0.2-0.3-0.2-1.8-1.9-1.8c-0.9,0-2.3,0.8-2.3,2.8c0,0.3,0,0.6,0.1,0.9C96.3,32.3,100.1,30.7,100.2,30.5z M93.7,36.7
	c0.5,0,0.7,0.1,0.7,0.1l-0.8,0.7h-3.6c0,0,1.2-0.7,1.2-1.2V24.4h-1.2l0.8-1.2l2.8,0c-0.7,0.4-1.2,0.7-1.2,2.4c0,1.7,0,9.5,0,9.5
	C92.3,35.7,93.2,36.7,93.7,36.7z M87.3,29c0,0,1.3,0.8,1.3,2.7c0,1.3-0.6,1.9-1.3,2.6c-0.7,0.7-0.7,0.9-0.7,1.2
	c0,0.3,0.2,0.6,1.2,1.3c1,0.7,1.7,1.6,1.7,2.9c0,2.7-3.3,3.7-5.3,3.7c-1.9,0-4.3-0.8-4.3-2.9c0-3.5,5.4-3.5,5.4-3.5
	s-0.6-0.6-0.6-1.3c0-0.4,0.1-0.7,0.1-0.7s-0.2,0.1-0.4,0.1c-2.3,0-3.5-1.7-3.5-3.1c0-2,1.8-3.8,4.2-3.8s4.7,0,4.7,0L88.5,29L87.3,29
	z M85.1,37.7c-0.4,0-3.6,0.2-3.6,2.4c0,2.2,2.8,2.5,3.4,2.5c0.7,0,2.9-0.2,2.9-2.1c0-1.4-1.1-1.8-2.1-2.7
	C85.8,37.7,85.5,37.7,85.1,37.7z M84.3,29c-1.1,0-1.8,0.9-1.8,2.2c0,1.3,1.1,3.4,2.5,3.4c1.4,0,1.7-1.1,1.7-1.9
	C86.8,30.2,85.4,29,84.3,29z M86.6,13.6c0-0.9-0.3-1.7-1.3-1.7c-0.7,0-1.2,0.5-1.4,1.1c0,0.1-0.1,0.3-0.1,0.5v3.5h-1v-4.2
	c0-0.6,0-1.1,0-1.6h0.9l0.1,0.9h0c0.3-0.5,0.9-1.1,1.9-1.1c0.8,0,2,0.5,2,2.4v3.4h-1V13.6z M78.6,17c-1.6,0-2.8-1.1-2.8-3
	c0-1.9,1.3-3,2.8-3c1.6,0,2.8,1.2,2.8,3C81.4,16.1,79.9,17,78.6,17z M78.6,11.8c-1.2,0-1.8,1.1-1.8,2.2c0,1.3,0.7,2.2,1.7,2.2
	c1,0,1.7-0.9,1.7-2.2C80.3,13,79.9,11.8,78.6,11.8z M79.7,32.7c0,2.8-2.1,4.8-5.1,4.8s-4.7-2.5-4.7-4.6c0-2.9,2.2-4.9,5-4.9
	C77.7,27.9,79.7,29.8,79.7,32.7z M74.4,28.5c-1.4,0-2.6,1.3-2.6,3c0,1.8,1.1,5.3,3.3,5.3c2.3,0,2.6-2.3,2.6-3.3
	C77.7,30.9,76.4,28.5,74.4,28.5z M71,15c0,0.7,0.2,1.1,0.8,1.1c0.3,0,0.5,0,0.6-0.1l0,0.8c-0.2,0.1-0.5,0.1-0.9,0.1
	c-0.5,0-0.9-0.2-1.1-0.4c-0.3-0.3-0.4-0.8-0.4-1.5v-3.1h-0.9v-0.8H70V9.8l1-0.3v1.6h1.5v0.8H71V15z M63.9,37.4c-3,0-4.7-2.5-4.7-4.6
	c0-2.9,2.2-4.9,5-4.9c2.8,0,4.8,1.9,4.8,4.7C69,35.5,66.9,37.4,63.9,37.4z M63.7,28.5c-1.4,0-2.6,1.3-2.6,3c0,1.8,1.1,5.3,3.3,5.3
	c2.3,0,2.6-2.3,2.6-3.3C67,30.9,65.6,28.5,63.7,28.5z M67.3,16.9h-1v-5.7h1V16.9z M66.8,10.2c-0.4,0-0.6-0.3-0.6-0.6
	c0-0.4,0.3-0.7,0.7-0.7c0.4,0,0.6,0.3,0.6,0.7C67.5,9.9,67.2,10.2,66.8,10.2z M61.6,15c0,0.7,0.2,1.1,0.8,1.1c0.3,0,0.5,0,0.6-0.1
	l0,0.8c-0.2,0.1-0.5,0.1-0.9,0.1c-0.5,0-0.9-0.2-1.1-0.4c-0.3-0.3-0.4-0.8-0.4-1.5v-3.1h-0.9v-0.8h0.9V9.8l1-0.3v1.6h1.5v0.8h-1.5
	V15z M55.1,14.2c0,1.4,0.9,2,2,2c0.7,0,1.2-0.1,1.6-0.3l0.2,0.7c-0.4,0.2-1,0.4-1.9,0.4c-1.8,0-2.8-1.2-2.8-2.9c0-1.7,1-3.1,2.7-3.1
	c1.9,0,2.4,1.6,2.4,2.7c0,0.2,0,0.4,0,0.5H55.1z M56.8,11.8c-1.1,0-1.5,1-1.6,1.7h3C58.2,12.8,57.9,11.8,56.8,11.8z M50.2,17
	c-1.2,0-2.2-0.3-3-1.1c-0.7-0.7-1.1-1.7-1.1-3c0-2.4,1.6-4.1,4.3-4.1c0.9,0,1.6,0.2,2,0.4L52.1,10c-0.4-0.2-1-0.3-1.8-0.3
	c-1.9,0-3.2,1.2-3.2,3.2c0,2,1.2,3.2,3.1,3.2c0.7,0,1.1-0.1,1.4-0.2v-2.4H50v-0.8h2.6v3.8C52.2,16.7,51.3,17,50.2,17z M52.3,23.9
	c3.9,0,5.4,1.6,5.4,1.6l-1.5,1.5l-0.7,0.2l0.4-0.7c0,0-1.4-1.8-3.8-1.8s-5.2,1.7-5.2,5.6c0,3.2,2.6,6.7,6.6,6.7
	c1.4,0,2.3-0.5,2.3-0.5v-2.9c0,0-2.1,0-2.8,0.2l1.5-0.9h4.7c0,0-1.4,0.5-1.4,1.6c0,1.1,0,2.3,0,2.3s-3,1-5.6,1
	c-5.1,0-7.2-3.8-7.2-6.7C44.8,27.5,47.6,23.9,52.3,23.9z M14.2,36.9c-0.3,0.2-0.7,0.3-1,0.3c0,0,0,0,0,0c0,0-0.1,0-0.1,0
	c0,0,0,0-0.1,0c0,0-0.1,0-0.1,0c0,0,0,0,0,0l0,0c-0.2,0-0.5-0.1-0.7-0.3c-0.7-0.4-1.1-1.2-1.1-2V11.5c0-0.8,0.4-1.6,1.1-2
	c0.2-0.1,0.4-0.2,0.7-0.3l0,0c0,0,0,0,0,0c0,0,0.1,0,0.1,0c0,0,0,0,0.1,0c0,0,0.1,0,0.1,0c0,0,0,0,0,0c0.4,0,0.7,0.1,1,0.3
	l18.8,11.7c0.7,0.4,1.1,1.2,1.1,2l0,0c0,0,0,0,0,0l0,0c0,0,0,0,0,0c0,0.8-0.4,1.6-1.1,2L14.2,36.9z M18.9,14.8l4.8,6.8l1.9-2.7
	L18.9,14.8z M32,23l-4.9-3.1l-8.2,11.8L32,23.5c0.1-0.1,0.1-0.2,0.1-0.3C32.2,23.1,32.1,23,32,23z"/>
</svg>
