<?xml version="1.0" encoding="utf-8"?>
<!-- Generator: Adobe Illustrator 23.0.3, SVG Export Plug-In . SVG Version: 6.00 Build 0)  -->
<svg version="1.1" id="Layer_1" xmlns="http://www.w3.org/2000/svg" xmlns:xlink="http://www.w3.org/1999/xlink" x="0px" y="0px"
	 viewBox="0 0 100 100" style="enable-background:new 0 0 100 100;" xml:space="preserve">
<style type="text/css">
	.st0{fill:#CF4C3C;}
	.st1{fill:#AD3228;}
	.st2{fill:#FFFFFF;}
</style>
<circle class="st0" cx="50" cy="50" r="50"/>
<path class="st1" d="M72.8,42.1l-7.1,8.6l-13.4-14H33.7l-7.5,8.1v17.6l36.1,36.1c16.3-4.1,29.5-16.3,34.9-32L72.8,42.1z"/>
<path class="st2" d="M40.2,48.1v4.5c0,0.7,0.5,1.2,1.2,1.2h8.9c-1.6,4.4-5.8,7.6-10.8,7.6c-6,0-11-4.9-11.3-10.9
	c-0.3-6.5,4.9-11.8,11.4-11.8c2.9,0,5.6,1.1,7.6,2.9c0.5,0.4,1.2,0.4,1.7,0l3.3-3.1c0.5-0.5,0.5-1.3,0-1.8c-3.2-3-7.5-4.9-12.2-5
	c-10-0.2-18.5,8.1-18.6,18.2s8.1,18.4,18.3,18.4c9.8,0,17.7-7.6,18.3-17.3c0-0.1,0-4.2,0-4.2H41.5C40.8,46.8,40.2,47.4,40.2,48.1z
	 M77.5,47.2h-4.4v-4.4c0-0.6-0.5-1.1-1.1-1.1h-3.7c-0.6,0-1.1,0.5-1.1,1.1v4.4h-4.4c-0.6,0-1.1,0.5-1.1,1.1V52
	c0,0.6,0.5,1.1,1.1,1.1h4.4v4.4c0,0.6,0.5,1.1,1.1,1.1H72c0.6,0,1.1-0.5,1.1-1.1v-4.4h4.4c0.6,0,1.1-0.5,1.1-1.1v-3.7
	C78.6,47.7,78.1,47.2,77.5,47.2z"/>
</svg>
