<?xml version="1.0" encoding="utf-8"?>
<!-- Generator: Adobe Illustrator 23.0.3, SVG Export Plug-In . SVG Version: 6.00 Build 0)  -->
<svg version="1.1" id="Layer_1" xmlns="http://www.w3.org/2000/svg" xmlns:xlink="http://www.w3.org/1999/xlink" x="0px" y="0px"
	 viewBox="0 0 99.9 99.9" style="enable-background:new 0 0 99.9 99.9;" xml:space="preserve">
<g>
	<g>
		<g>
			<path d="M43.3,58.2c-0.3-0.2-0.7-0.5-1-0.7c-1-0.3-2.1-0.5-3.2-0.5h-0.1c-5.1,0-9.5,3.1-9.5,6.6c0,3.8,3.8,6.8,8.7,6.8
				c6.4,0,9.6-2.2,9.6-6.6c0-0.4,0-0.8-0.2-1.3C47.1,60.9,45.6,59.8,43.3,58.2z"/>
			<path d="M39.7,45C39.7,45,39.7,45,39.7,45c1.2,0,2.2-0.5,3-1.4c1.2-1.4,1.8-3.7,1.5-6.2c-0.6-4.4-3.7-8.1-7-8.2l-0.1,0
				c-1.2,0-2.2,0.5-3,1.4c-1.2,1.4-1.7,3.6-1.4,6.1C33.2,41.1,36.4,44.9,39.7,45L39.7,45L39.7,45z"/>
			<path d="M50,0C22.4,0,0,22.4,0,50c0,27.5,22.4,50,50,50c27.5,0,50-22.4,50-50C99.9,22.4,77.5,0,50,0z M44.2,74.3
				c-1.9,0.5-3.9,0.8-6.1,0.8c-2.4,0-4.7-0.3-6.8-0.8c-4.1-1-7.2-3-8.6-5.6c-0.6-1.1-0.9-2.3-0.9-3.5c0-1.3,0.3-2.5,0.9-3.8
				c2.3-4.8,8.2-8.1,14.9-8.1c0.1,0,0.1,0,0.2,0c-0.5-0.9-0.8-1.9-0.8-3c0-0.5,0.1-1,0.2-1.6C30.2,48.7,25,43.6,25,36.9
				c0-4.7,3.8-9.3,9.2-11.2c1.6-0.6,3.3-0.8,4.9-0.8h14.9c0.5,0,1,0.3,1.1,0.8c0.2,0.5,0,1-0.4,1.3l-3.3,2.4
				c-0.2,0.1-0.4,0.2-0.7,0.2h-1.2c1.5,1.8,2.4,4.5,2.4,7.4c0,3.3-1.6,6.3-4.6,8.7c-2.3,1.8-2.4,2.3-2.4,3.3c0,0.6,1.6,2.4,3.4,3.7
				c4.1,2.9,5.7,5.8,5.7,10.6C53.9,68.2,50.1,72.6,44.2,74.3z M77.7,48.8c0,0.6-0.5,1.2-1.2,1.2h-8.4v8.4c0,0.6-0.5,1.2-1.2,1.2
				h-2.4c-0.6,0-1.2-0.5-1.2-1.2V50H55c-0.6,0-1.2-0.5-1.2-1.2v-2.4c0-0.6,0.5-1.2,1.2-1.2h8.4v-8.4c0-0.6,0.5-1.2,1.2-1.2H67
				c0.6,0,1.2,0.5,1.2,1.2v8.4h8.4c0.6,0,1.2,0.5,1.2,1.2L77.7,48.8L77.7,48.8z"/>
		</g>
	</g>
</g>
</svg>
