<?xml version="1.0" encoding="utf-8"?>
<!-- Generator: Adobe Illustrator 23.0.3, SVG Export Plug-In . SVG Version: 6.00 Build 0)  -->
<svg version="1.1" id="Layer_1" xmlns="http://www.w3.org/2000/svg" xmlns:xlink="http://www.w3.org/1999/xlink" x="0px" y="0px"
	 viewBox="0 0 100 100" style="enable-background:new 0 0 100 100;" xml:space="preserve">
<style type="text/css">
	.st0{fill:#383838;}
</style>
<path id="XMLID_13_" class="st0" d="M70.2,0H29.8C13.4,0,0,13.4,0,29.8v40.4C0,86.6,13.4,100,29.8,100h40.4
	c16.4,0,29.8-13.4,29.8-29.8V29.8C100,13.4,86.6,0,70.2,0z M89.9,70.2c0,10.9-8.8,19.7-19.7,19.7H29.8c-10.9,0-19.7-8.8-19.7-19.7
	V29.8c0-10.9,8.8-19.7,19.7-19.7h40.4c10.9,0,19.7,8.8,19.7,19.7L89.9,70.2L89.9,70.2z M50,24.1c-14.3,0-25.9,11.6-25.9,25.9
	S35.7,75.9,50,75.9S75.9,64.3,75.9,50S64.3,24.1,50,24.1z M50,65.8c-8.7,0-15.8-7.1-15.8-15.8S41.3,34.2,50,34.2S65.8,41.3,65.8,50
	S58.7,65.8,50,65.8z M75.9,18.1c3.4,0,6.2,2.8,6.2,6.2s-2.8,6.2-6.2,6.2s-6.2-2.8-6.2-6.2S72.5,18.1,75.9,18.1z"/>
</svg>
