<?xml version="1.0" encoding="utf-8"?>
<!-- Generator: Adobe Illustrator 23.0.3, SVG Export Plug-In . SVG Version: 6.00 Build 0)  -->
<svg version="1.1" id="Layer_1" xmlns="http://www.w3.org/2000/svg" xmlns:xlink="http://www.w3.org/1999/xlink" x="0px" y="0px"
	 viewBox="0 0 99.9 100" style="enable-background:new 0 0 99.9 100;" xml:space="preserve">
<style type="text/css">
	.st0{fill:#CC9966;}
	.st1{fill:#875426;}
	.st2{fill:#D9CDC1;}
	.st3{fill:#FFF8EF;}
	.st4{fill:#FFFFFF;}
	.st5{fill:#996632;}
	.st6{fill:#42210B;}
</style>
<path class="st0" d="M82.1,5.5H17.9c-6.8,0-12.4,5.6-12.4,12.4V82c0,6.8,5.6,12.4,12.4,12.4H82c6.8,0,12.4-5.6,12.4-12.4V17.9
	C94.5,11.1,88.9,5.5,82.1,5.5z M76.6,20.4c-0.7-2.8,1-5.7,3.8-6.5c0.5-0.1,0.9-0.2,1.3-0.2c2.4,0,4.5,1.6,5.1,4
	c0.7,2.7-1.1,5.6-3.9,6.4c-0.5,0.1-0.9,0.1-1.4,0.1C79.3,24.3,77.2,22.6,76.6,20.4z M50,22.7c14.7,0,26.7,12,26.7,26.7
	S64.7,76.1,50,76.1s-26.7-12-26.7-26.7S35.3,22.7,50,22.7z"/>
<path class="st1" d="M86.5,17.8c-0.6-2.1-2.6-3.8-4.8-3.8c-0.3,0-0.8,0-1.3,0.3c-1.2,0.3-2.2,1.1-2.8,2.1c-0.7,1.1-0.9,2.5-0.5,3.8
	c0.5,2.2,2.3,3.7,4.6,3.7c0.5,0,0.9-0.1,1.4-0.2c1.3-0.3,2.4-1.1,3.1-2.2C86.7,20.5,86.9,19.1,86.5,17.8z"/>
<path class="st2" d="M50,28.9c10.5-0.1,19,10.2,19,20.7s-8.5,19-19,19s-20.7-8.5-20.7-19C29.3,37.3,38.7,29,50,28.9z"/>
<path class="st3" d="M54,34.7c-10.5,0-19,8.5-19,19c0,4.2,1.4,8.1,3.6,11.1c3.2,2.2,7.1,3.6,11.1,3.6c10.5,0,19-8.5,19-19
	c0-4.2-1.4-8.1-3.6-11.1C62.1,36.1,58.3,34.7,54,34.7z"/>
<path class="st4" d="M50,25.4c13.4,0,24.2,10.8,24.2,24.2S63.4,73.8,50,73.8S25.8,63,25.8,49.6S36.6,25.4,50,25.4z M68.8,49.4
	c0-10.5-8.5-19-19-19s-19,8.5-19,19s8.5,19,19,19S68.8,59.9,68.8,49.4z"/>
<path class="st5" d="M83.1,1.3H16.9c-8.6,0-15.6,7-15.6,15.6v66.2c0,8.6,7,15.7,15.6,15.7h66.2c8.6,0,15.7-7,15.7-15.7V16.9
	C98.7,8.3,91.7,1.3,83.1,1.3z M92,82.9c0,4.9-4,8.9-8.9,8.9h-1.3V92H16.9C12,92,8,88,8,83.1V16.9C8,12,12,8,16.9,8h66.2
	C88,8,92,12,92,16.9V82.9L92,82.9L92,82.9z"/>
<path class="st6" d="M79.8,11.5c-4.2,1.2-6.7,5.4-5.6,9.5c0.8,3.4,4,5.8,7.5,5.8c0.8,0,1.4,0,2-0.2c4.2-1.2,6.7-5.2,5.6-9.5
	C88.1,12.9,83.9,10.5,79.8,11.5z M82.7,22.6c-1.8,0.6-3.8-0.6-4.4-2.6s0.6-4,2.4-4.4c0.4-0.2,0.8-0.2,1-0.2c1.6,0,3.2,1.2,3.6,2.8
	C85.9,20,84.7,22,82.7,22.6z M82.1,0H17.9C8.1,0,0,8.1,0,17.9V82c0,9.9,8.1,18,17.9,18H82c9.9,0,17.9-8.1,17.9-17.9V17.9
	C100,8.1,91.9,0,82.1,0z M96,17.9V82c0,7.7-6.3,14-13.9,14H17.9C10.3,96,4,89.7,4,82.1V17.9C4,10.3,10.3,4,17.9,4H82
	C89.7,4,96,10.3,96,17.9L96,17.9z M50,20.2c-16.1,0-29.2,13.1-29.2,29.2S33.9,78.6,50,78.6s29.2-13.1,29.2-29.2S66.1,20.2,50,20.2z
	 M49.8,72.4c-12.7,0-23-10.3-23-23s10.3-23,23-23s23,10.3,23,23S62.7,72.4,49.8,72.4z"/>
</svg>
