<?xml version="1.0" encoding="utf-8"?>
<!-- Generator: Adobe Illustrator 23.0.3, SVG Export Plug-In . SVG Version: 6.00 Build 0)  -->
<svg version="1.1" id="Capa_1" xmlns="http://www.w3.org/2000/svg" xmlns:xlink="http://www.w3.org/1999/xlink" x="0px" y="0px"
	 viewBox="0 0 100 100" style="enable-background:new 0 0 100 100;" xml:space="preserve">
<style type="text/css">
	.st0{fill:#007AB9;}
	.st1{fill:#F1F2F2;}
</style>
<g>
	<circle class="st0" cx="50" cy="50" r="50"/>
	<g>
		<path class="st1" d="M79.9,54v20.6h-12V55.4c0-4.8-1.7-8.1-6.1-8.1c-3.3,0-5.3,2.2-6.1,4.4c-0.3,0.8-0.4,1.8-0.4,2.9v20.1h-12
			c0,0,0.2-32.6,0-35.9h12v5.1c0,0-0.1,0.1-0.1,0.1h0.1v-0.1c1.6-2.4,4.4-5.9,10.8-5.9C74,37.8,79.9,43,79.9,54L79.9,54z M30.9,21.4
			c-4.1,0-6.8,2.7-6.8,6.2c0,3.5,2.6,6.2,6.6,6.2h0.1c4.2,0,6.8-2.8,6.8-6.2C37.5,24,35,21.4,30.9,21.4L30.9,21.4z M24.8,74.6h11.9
			V38.7H24.8V74.6z"/>
	</g>
</g>
</svg>
