<?xml version="1.0" encoding="utf-8"?>
<!-- Generator: Adobe Illustrator 23.0.3, SVG Export Plug-In . SVG Version: 6.00 Build 0)  -->
<svg version="1.1" id="Layer_1" xmlns="http://www.w3.org/2000/svg" xmlns:xlink="http://www.w3.org/1999/xlink" x="0px" y="0px"
	 viewBox="0 0 311 372.3" style="enable-background:new 0 0 311 372.3;" xml:space="preserve">
<style type="text/css">
	.st0{fill:#002987;}
	.st1{fill:#0085CC;}
	.st2{fill:#00186A;}
</style>
<g>
	<path class="st0" d="M142.2,83.1h98.1c15.3,0,29.4,4.9,40.9,13.1c0.6-5.1,1-10.3,1-15.6l0,0c0-44.5-36.1-80.6-80.6-80.6H67
		c-8.5,0-15.7,6.1-17.1,14.5L0.2,309.3c-1.8,10.6,6.4,20.2,17.1,20.2h49.2c8.5,0,15.8-6.1,17.2-14.5l15.5-92
		c0.1-0.7,0.3-1.6,0.4-2.1l20-118.8C121.5,91.2,131,83.1,142.2,83.1z"/>
	<path class="st1" d="M281.2,96.2c-7.7,62.7-61.1,111.2-125.9,111.2h-37.6c-8.5,0-15.8,5.6-18.1,13.6L77.2,354.5
		c-1.6,9.3,5.6,17.8,15.1,17.8h43.1c7.5,0,13.8-5.4,15.1-12.8l12.2-72.7c2.1-12.5,13-21.7,25.7-21.7h11.3
		c61.5,0,111.3-49.8,111.3-111.3l0,0C311,130,299.2,109,281.2,96.2z"/>
	<path class="st2" d="M117.8,207.4h37.6c64.8,0,118.2-48.5,125.9-111.2c-11.6-8.2-25.7-13.1-40.9-13.1h-98.1
		c-11.2,0-20.7,8.1-22.6,19.1L99.7,221C102,213,109.3,207.4,117.8,207.4z"/>
</g>
</svg>
