<?xml version="1.0" encoding="utf-8"?>
<!-- Generator: Adobe Illustrator 23.0.3, SVG Export Plug-In . SVG Version: 6.00 Build 0)  -->
<svg version="1.1" id="Layer_1" xmlns="http://www.w3.org/2000/svg" xmlns:xlink="http://www.w3.org/1999/xlink" x="0px" y="0px"
	 viewBox="0 0 100 100" style="enable-background:new 0 0 100 100;" xml:space="preserve">
<style type="text/css">
	.st0{fill:#E62B33;}
	.st1{fill:#FFFFFF;}
</style>
<g>
	<circle id="XMLID_25_" class="st0" cx="50" cy="50" r="50"/>
	<path id="XMLID_23_" class="st1" d="M52.5,18.5c-16.7,0-25.1,11.6-25.1,21.3c0,1.8,0.2,3.5,0.7,5.1c1,3.6,3.1,6.5,6.5,7.9
		c0.8,0.3,1.5,0,1.8-0.9c0.2-0.6,0.5-2.1,0.7-2.7c0.2-0.9,0.1-1.1-0.5-1.9c-0.9-1-1.5-2.1-1.9-3.5c-0.3-0.9-0.4-2-0.4-3.2
		c0-8.6,6.7-16.3,17.3-16.3c9.4,0,14.6,5.6,14.6,13c0,2.2-0.2,4.3-0.7,6.3C64,50.4,60.2,55.4,55,55.4c-3.7,0-6.4-2.9-5.6-6.6
		c0.5-2.1,1.2-4.2,1.9-6.2c0.7-2.2,1.2-4.3,1.2-5.9c0-2.8-1.5-5.1-4.7-5.1c-3.8,0-6.8,3.8-6.8,8.8c0,1,0.1,1.8,0.2,2.5
		c0.3,1.8,0.9,2.8,0.9,2.8s-3.8,15.8-4.5,18.5c-1.3,5.5-0.2,12.2-0.1,12.9c0.1,0.4,0.6,0.5,0.8,0.2c0.3-0.4,4.8-5.8,6.3-11.1
		c0.4-1.5,2.5-9.3,2.5-9.3c1.2,2.3,4.8,4.2,8.6,4.2c9.2,0,16-6.6,18.2-16.3c0.5-2.2,0.8-4.6,0.8-7C74.8,27.9,65.9,18.5,52.5,18.5z"
		/>
</g>
</svg>
