<?xml version="1.0" encoding="utf-8"?>
<!-- Generator: Adobe Illustrator 23.0.3, SVG Export Plug-In . SVG Version: 6.00 Build 0)  -->
<svg version="1.1" id="Layer_1" xmlns="http://www.w3.org/2000/svg" xmlns:xlink="http://www.w3.org/1999/xlink" x="0px" y="0px"
	 viewBox="0 0 77.6 99.7" style="enable-background:new 0 0 77.6 99.7;" xml:space="preserve">
<style type="text/css">
	.st0{fill:#060507;}
</style>
<g>
	<path class="st0" d="M31.9,66c-2.6,13.7-5.8,26.9-15.3,33.8c-2.9-20.8,4.3-36.3,7.6-52.9c-5.7-9.6,0.7-29,12.7-24.2
		c14.8,5.9-12.8,35.8,5.7,39.5C62.1,66,70.1,28.5,58,16.3C40.6-1.4,7.4,15.9,11.5,41.1c1,6.2,7.4,8,2.5,16.6
		C2.9,55.2-0.4,46.4,0,34.7C0.7,15.6,17.2,2.2,33.8,0.3C54.8-2,74.4,8,77.1,27.7c3.1,22.2-9.5,46.3-31.9,44.6
		C39.2,71.9,36.7,68.9,31.9,66z"/>
</g>
</svg>
