<?xml version="1.0" encoding="utf-8"?>
<!-- Generator: Adobe Illustrator 22.0.1, SVG Export Plug-In . SVG Version: 6.00 Build 0)  -->
<svg version="1.1" id="Capa_1" xmlns="http://www.w3.org/2000/svg" xmlns:xlink="http://www.w3.org/1999/xlink" x="0px" y="0px"
	 viewBox="0 0 512 512" style="enable-background:new 0 0 512 512;" xml:space="preserve">
<style type="text/css">
	.st0{fill:#D1D1D1;}
</style>
<path class="st0" d="M505.2,86.5c-6.7-9.1-17.2-14.3-28.1-14.3c-2.8,0-5.7,0.3-8.5,1.1L26.4,184.6c-13.7,3.4-23.9,14.8-26,28.7
	c-2.1,14,4.5,27.8,16.6,35l93.5,56.1v123.1c0,4.7,2.7,8.9,6.8,11c4.2,2,9.2,1.5,12.8-1.3l87.7-68.3l72,43.2c5.6,3.4,11.8,5,17.9,5
	c11.7,0,23.2-5.9,29.8-16.6l169.2-275.1C514.3,113.4,513.6,98,505.2,86.5z M305.7,373.5l-109.6-65.8l111.2-95.8
	c1.6-1.3,1.9-3.6,0.9-5.4c-1.1-1.8-3.2-2.5-5.1-1.8l-169.4,65.5l-82.3-49.4l412.1-103.7L305.7,373.5z"/>
</svg>
