<?xml version="1.0" encoding="utf-8"?>
<!-- Generator: Adobe Illustrator 23.0.3, SVG Export Plug-In . SVG Version: 6.00 Build 0)  -->
<svg version="1.1" id="Capa_1" xmlns="http://www.w3.org/2000/svg" xmlns:xlink="http://www.w3.org/1999/xlink" x="0px" y="0px"
	 viewBox="0 0 48.7 47.9" style="enable-background:new 0 0 48.7 47.9;" xml:space="preserve">
<g>
	<g>
		<path d="M40.3,31.2c-2.4,0-4.5,1-6,2.6l-17.7-8.7c0.1-0.4,0.1-0.8,0.1-1.2c0-0.4,0-0.8-0.1-1.2L34.3,14c1.5,1.6,3.7,2.6,6.1,2.6
			c4.6,0,8.3-3.7,8.3-8.3c0-4.6-3.7-8.3-8.3-8.3S32,3.7,32,8.3c0,0.4,0,0.8,0.1,1.2l-17.7,8.6c-1.5-1.6-3.7-2.6-6.1-2.6
			c-4.6,0-8.3,3.7-8.3,8.3c0,4.6,3.7,8.3,8.3,8.3c2.4,0,4.5-1,6-2.6l17.7,8.7C32,38.7,32,39.1,32,39.5c0,4.6,3.7,8.3,8.3,8.3
			s8.3-3.7,8.3-8.3C48.7,34.9,44.9,31.2,40.3,31.2z"/>
	</g>
</g>
</svg>
