<?xml version="1.0" encoding="utf-8"?>
<!-- Generator: Adobe Illustrator 23.0.3, SVG Export Plug-In . SVG Version: 6.00 Build 0)  -->
<svg version="1.1" id="Layer_1" xmlns="http://www.w3.org/2000/svg" xmlns:xlink="http://www.w3.org/1999/xlink" x="0px" y="0px"
	 viewBox="0 0 468.3 450.9" style="enable-background:new 0 0 468.3 450.9;" xml:space="preserve">
<style type="text/css">
	.st0{fill:#050505;}
</style>
<path class="st0" d="M234,25c62.9,0,115.2,52.4,115.3,115.4c0,14.8,0.5,28.3,1.3,40.9c0.5,7.7,6.9,13.4,14.3,13.4
	c1.1,0,2.2-0.1,3.3-0.4l19.7-4.6c0.8-0.2,1.7-0.3,2.5-0.3c5,0,9.6,3.4,10.7,8.5c1.6,7.2-2.4,14.4-9.4,16.8l-29.9,12.1
	c-7.5,3-11.6,11.3-9.5,19.1c24,88.7,91,79.4,91,91c0,14.5-50.5,16.6-55,21.1s-0.2,26.7-10.4,31c-1.9,0.8-4.6,1.1-8,1.1
	c-7.7,0-18.5-1.5-30-1.5c-9.9,0-20.3,1.1-29.4,5.3c-24.2,11.2-47.5,32-76.4,32s-52.2-20.9-76.4-32c-9.1-4.2-19.5-5.3-29.4-5.3
	c-11.4,0-22.3,1.5-30,1.5c-3.3,0-6.1-0.3-8-1.1c-10.2-4.3-5.8-26.4-10.4-31s-55-6.6-55-21.1c0-11.6,67-2.3,91-91
	c2.1-7.9-1.9-16.1-9.5-19.1l-29.9-12.1c-6.9-2.4-10.9-9.7-9.3-16.8c1.1-5.1,5.7-8.5,10.7-8.5c0.8,0,1.7,0.1,2.5,0.3l19.7,4.6
	c1.1,0.3,2.2,0.4,3.3,0.4c7.4,0,13.8-5.7,14.3-13.4c0.8-12.5,1.3-26.1,1.3-40.9C119.2,77.4,171.1,25,234,25 M234,0L234,0L234,0
	c-18.8,0-37.1,3.8-54.3,11.2c-16.6,7.1-31.5,17.3-44.4,30.2c-12.8,12.9-22.9,27.9-30,44.5c-7.4,17.3-11.1,35.6-11.1,54.4
	c0,9.2-0.2,18.2-0.6,26.7l-7.3-1.7c-2.7-0.6-5.5-0.9-8.2-1c-8,0-15.8,2.7-22.1,7.6c-6.6,5.1-11.2,12.4-13,20.5
	c-4.3,19.3,6.4,38.7,24.8,45.6l21.9,8.9c-14.5,44.6-41.3,53.1-59.3,58.9c-4.8,1.5-8.9,2.8-12.9,4.8C1.7,318.3,0,331.5,0,336.8
	C0,347,4.8,356.3,13.6,363c4.4,3.3,9.7,6.1,16.5,8.4c9.2,3.2,19.8,5.2,28.5,6.8c0.4,3.2,1,6.6,2.1,10.1
	c4.3,14.4,13.3,20.9,20.2,23.7c6.5,2.7,13.2,3,17.7,3c4.4,0,9-0.3,13.9-0.7c5.3-0.4,10.7-0.8,16.1-0.8c8.3,0,14.5,1,18.9,3
	c6.1,2.8,12.5,6.6,19.3,10.6c19,11.1,40.4,23.8,67.6,23.8s48.6-12.6,67.6-23.8c6.8-4,13.2-7.8,19.3-10.6c4.4-2,10.6-3,18.9-3
	c5.4,0,10.8,0.4,16.1,0.8c4.9,0.4,9.5,0.7,13.9,0.7c4.5,0,11.2-0.3,17.7-3c6.8-2.9,15.9-9.3,20.2-23.7c1-3.5,1.6-6.9,2.1-10.1
	c8.6-1.6,19.3-3.6,28.5-6.8c6.7-2.3,12.1-5.1,16.5-8.4c8.7-6.7,13.6-16,13.6-26.1c0-5.3-1.7-18.5-17.4-26.3c-3.9-2-8.1-3.3-12.9-4.8
	c-18-5.8-44.8-14.3-59.3-58.9l21.9-8.9c18.4-6.8,29.1-26.3,24.8-45.6c-1.8-8.1-6.4-15.4-13-20.5c-6.3-4.9-14.2-7.6-22.1-7.6
	c-2.8,0-5.5,0.3-8.2,0.9l-7.3,1.7c-0.4-8.6-0.6-17.5-0.6-26.7c0-18.8-3.8-37.1-11.2-54.4c-7.1-16.6-17.3-31.6-30.2-44.5
	c-12.9-12.9-27.9-23.1-44.5-30.2C271,3.8,252.7,0,234,0L234,0z"/>
</svg>
