<?xml version="1.0" encoding="utf-8"?>
<!-- Generator: Adobe Illustrator 23.0.3, SVG Export Plug-In . SVG Version: 6.00 Build 0)  -->
<svg version="1.1" id="Layer_1" xmlns="http://www.w3.org/2000/svg" xmlns:xlink="http://www.w3.org/1999/xlink" x="0px" y="0px"
	 viewBox="0 0 46 46" style="enable-background:new 0 0 46 46;" xml:space="preserve">
<style type="text/css">
	.st0{fill:#607EA3;}
	.st1{fill:#41607F;}
	.st2{fill:#D1D1D1;}
	.st3{fill:#FFFFFF;}
</style>
<circle class="st0" cx="23" cy="23" r="23"/>
<path class="st1" d="M33.4,12l-6.5,4.4l-2.5-3l-5.6,3.8l-2.6-3.4l-5,1.8l3.4,4.2L9.9,28l17.6,17.6c10.1-2,17.8-10.5,18.5-21L33.4,12
	z"/>
<circle class="st2" cx="30.3" cy="14.8" r="4.2"/>
<path class="st3" d="M30.2,19.5L30.2,19.5c-1.8,0-3.4,0.8-4.5,2.1c-0.8-1.7-2.5-3-4.5-3l0,0c-1.6,0-3,0.7-3.9,1.9
	c-0.5-1.6-1.9-2.7-3.7-2.7l0,0c-2.1,0-3.8,1.7-3.8,3.8V28h6.4v3.8h8v3.6h11.9v-9.9C36.2,22.2,33.5,19.5,30.2,19.5z M21.2,11.2
	c1.9,0,3.5,1.6,3.5,3.5s-1.6,3.5-3.5,3.5s-3.5-1.6-3.5-3.5S19.3,11.2,21.2,11.2z M13.7,12c1.5,0,2.7,1.2,2.7,2.7s-1.2,2.7-2.7,2.7
	S11,16.2,11,14.7S12.2,12,13.7,12z"/>
<g>
	<path class="st2" d="M30.2,19.5c-1.8,0-3.4,0.8-4.5,2.1c-0.8-1.7-2.5-3-4.5-3h-0.1v13.1h3.2v3.6h11.9v-9.9
		C36.2,22.2,33.5,19.5,30.2,19.5z"/>
	<path class="st2" d="M21.2,11.3L21.2,11.3l-0.1,6.9h0.1c1.9,0,3.5-1.5,3.5-3.5S23.1,11.3,21.2,11.3z"/>
</g>
</svg>
