<?xml version="1.0" encoding="utf-8"?>
<!-- Generator: Adobe Illustrator 23.0.3, SVG Export Plug-In . SVG Version: 6.00 Build 0)  -->
<svg version="1.1" id="Layer_1" xmlns="http://www.w3.org/2000/svg" xmlns:xlink="http://www.w3.org/1999/xlink" x="0px" y="0px"
	 viewBox="0 0 40 40" style="enable-background:new 0 0 40 40;" xml:space="preserve">
<style type="text/css">
	.st0{fill:#3A67FA;}
	.st1{fill:#2451D1;}
	.st2{fill:#FFFFFF;}
	.st3{fill:#D1D1D1;}
</style>
<circle class="st0" cx="20" cy="20" r="20"/>
<path class="st1" d="M38.8,26.7l-9.1-9.1l-6.9,1.1l-5.3-4.8l-7.3,1L8.7,26.7L21.1,40C29.3,39.5,36.2,34.1,38.8,26.7z"/>
<path class="st2" d="M18.2,18.9c0.4-0.6,0.6-1.4,0.6-2.1c0-2.1-1.8-3.8-3.9-3.8H9c-0.3,0-0.5,0.2-0.5,0.5v13C8.5,26.8,8.7,27,9,27
	h6.6c2.4,0,4.5-2,4.5-4.4C20.1,21,19.4,19.7,18.2,18.9L18.2,18.9z M11.1,15.5H15c0.7,0,1.3,0.6,1.3,1.3s-0.6,1.3-1.3,1.3h-3.9V15.5z
	 M15.7,24.3h-4.6v-3.7h4.6c1,0,1.8,0.8,1.8,1.8C17.5,23.5,16.7,24.3,15.7,24.3L15.7,24.3z"/>
<g>
	<path class="st3" d="M31.4,21.6c0-3-2.4-5.5-5.3-5.5c-2.9,0-5.3,2.5-5.3,5.5s2.4,5.5,5.3,5.5c1.8,0,3.4-0.9,4.4-2.4
		c0.1-0.2,0.2-0.4,0.3-0.6c0.1-0.1,0-0.3-0.2-0.3H28c-0.1,0-0.1,0-0.2,0.1c-0.5,0.5-1.1,0.7-1.8,0.7c-1.3,0-2.4-1-2.7-2.3h7.4
		c0.3,0,0.5-0.2,0.5-0.5L31.4,21.6L31.4,21.6L31.4,21.6z M26.1,18.7c0.9,0,1.8,0.5,2.3,1.3h-4.5C24.4,19.2,25.2,18.7,26.1,18.7
		L26.1,18.7z"/>
	<path class="st3" d="M28.3,15.5h-4.7c-0.2,0-0.4-0.2-0.4-0.4v-1.2c0-0.2,0.2-0.4,0.4-0.4h4.7c0.2,0,0.4,0.2,0.4,0.4v1.2
		C28.7,15.3,28.6,15.5,28.3,15.5L28.3,15.5z"/>
</g>
</svg>
