<?xml version="1.0" encoding="utf-8"?>
<!-- Generator: Adobe Illustrator 23.0.3, SVG Export Plug-In . SVG Version: 6.00 Build 0)  -->
<svg version="1.1" id="Layer_1" xmlns="http://www.w3.org/2000/svg" xmlns:xlink="http://www.w3.org/1999/xlink" x="0px" y="0px"
	 viewBox="0 0 36 32.9" style="enable-background:new 0 0 36 32.9;" xml:space="preserve">
<style type="text/css">
	.st0{fill:#3083C9;}
	.st1{fill:#CB465F;}
</style>
<path class="st0" d="M24.6,26.6l-5.9-3c-0.8-0.4-1.3-1.2-1.3-2v-2.3c0.2-0.2,0.4-0.4,0.6-0.7c0.8-1.1,1.4-2.4,1.8-3.7
	c0.8-0.2,1.3-0.9,1.3-1.8v-2.5c0-0.5-0.2-1-0.6-1.4V5.6c0,0,0.7-5.6-6.8-5.6C6.1,0,6.9,5.6,6.9,5.6v3.6C6.5,9.5,6.3,10,6.3,10.6V13
	c0,0.7,0.3,1.2,0.9,1.6c0.6,2.7,2.2,4.6,2.2,4.6v2.3c0,0.8-0.5,1.6-1.2,2l-5.5,3C1,27.4,0,29.1,0,30.9v2h27.3V31
	C27.3,29.1,26.2,27.4,24.6,26.6z"/>
<path class="st1" d="M33.6,27.3l-6.1-2.6c-0.3-0.2-0.6-0.5-0.8-0.9c-0.2-0.3,0.1-0.8,0.5-0.8h4.3c0,0,1.6,0.2,2.8-0.4
	c0.7-0.3,1-1.2,0.5-1.8c-1.3-1.8-4-6.2-4.1-10.7c0,0-0.1-6.9-7-7c-1.4,0-2.5,0.3-3.4,0.7c0.2,0.9,0.1,1.7,0.1,1.7v3.6
	c0.4,0.3,0.6,0.8,0.6,1.4V13c0,0.8-0.6,1.5-1.3,1.8c-0.4,1.3-1,2.6-1.8,3.7c-0.2,0.3-0.4,0.5-0.6,0.7v2.3c0,0.5,0.2,1,0.5,1.4h1.7
	c0.4,0,0.6,0.5,0.3,0.8c-0.1,0.1-0.2,0.2-0.3,0.3l5,2.5c1.7,0.8,2.8,2.6,2.8,4.5v1.9H36v-1.7C36,29.6,35.1,28,33.6,27.3z"/>
</svg>
