<?xml version="1.0" encoding="utf-8"?>
<!-- Generator: Adobe Illustrator 23.0.3, SVG Export Plug-In . SVG Version: 6.00 Build 0)  -->
<svg version="1.1" id="Layer_1" xmlns="http://www.w3.org/2000/svg" xmlns:xlink="http://www.w3.org/1999/xlink" x="0px" y="0px"
	 viewBox="0 0 39.3 40.2" style="enable-background:new 0 0 39.3 40.2;" xml:space="preserve">
<style type="text/css">
	.st0{fill:#EC5569;}
	.st1{fill:#E63950;}
	.st2{fill:#FFF5F5;}
	.st3{fill:#DCE6EB;}
</style>
<path class="st0" d="M32,0H7.4C3.3,0,0,3.3,0,7.4v16.1c0,4.1,3.3,7.4,7.4,7.4h3.5c0.2,0,0.3,0.1,0.3,0.3v8c0,0.9,1.1,1.4,1.8,0.7
	l8.3-8.9c0.1-0.1,0.1-0.1,0.2-0.1h10.4c4.1,0,7.4-3.3,7.4-7.4V7.4C39.4,3.3,36.1,0,32,0z"/>
<path class="st1" d="M14.4,28.2c0-0.2-0.1-0.3-0.3-0.3h-3.4c-4,0-7.2-3.5-7.2-7.8v-17c0-0.7,0.1-1.4,0.3-2.1
	C1.6,2.3,0.1,4.7,0.1,7.4v16.1c0,4.1,3.3,7.4,7.4,7.4H11c0.2,0,0.3,0.1,0.3,0.3v8c0,0.9,1.1,1.4,1.8,0.7l1.3-1.4L14.4,28.2
	L14.4,28.2z"/>
<path class="st0" d="M28,9.6L28,9.6c-1.9-1.9-4.9-1.9-6.8,0l-1.1,1.1c-0.3,0.3-0.7,0.3-0.9,0l-1-1c-1.9-1.9-4.9-1.9-6.8,0l0,0
	c-1.9,1.9-1.9,4.9,0,6.8l7.8,7.8c0.3,0.3,0.7,0.3,0.9,0l7.9-7.9C29.9,14.5,29.9,11.5,28,9.6z"/>
<path class="st2" d="M28,9.6L28,9.6c-1.9-1.9-4.9-1.9-6.8,0l-1.1,1.1c-0.3,0.3-0.7,0.3-0.9,0l-1-1c-1.9-1.9-4.9-1.9-6.8,0l0,0
	c-1.9,1.9-1.9,4.9,0,6.8l7.8,7.8c0.3,0.3,0.7,0.3,0.9,0l7.9-7.9C29.9,14.5,29.9,11.5,28,9.6z"/>
<path class="st3" d="M13.9,16.4c-1.9-1.9-1.9-4.9,0-6.8l0,0c0.6-0.6,1.4-1,2.1-1.2c-1.6-0.4-3.4,0-4.7,1.2l0,0
	c-1.9,1.9-1.9,4.9,0,6.8l7.8,7.8c0.3,0.3,0.7,0.3,0.9,0l0.8-0.8L13.9,16.4z"/>
</svg>
