<?xml version="1.0" encoding="utf-8"?>
<!-- Generator: Adobe Illustrator 23.0.3, SVG Export Plug-In . SVG Version: 6.00 Build 0)  -->
<svg version="1.1" id="Layer_1" xmlns="http://www.w3.org/2000/svg" xmlns:xlink="http://www.w3.org/1999/xlink" x="0px" y="0px"
	 viewBox="0 0 38 38" style="enable-background:new 0 0 38 38;" xml:space="preserve">
<style type="text/css">
	.st0{fill:#00A6D3;}
</style>
<path class="st0" d="M28,0H10C4.4,0,0,4.4,0,10v18c0,5.6,4.4,10,10,10h18c5.6,0,10-4.4,10-10V10C38,4.4,33.6,0,28,0z M35.5,28
	c0,4.3-3.3,7.6-7.6,7.6H10c-4.3,0-7.6-3.3-7.6-7.6V10c0-4.3,3.3-7.6,7.6-7.6h18c4.3,0,7.6,3.3,7.6,7.6L35.5,28z M29.7,9.6
	c-0.4,0.2-1.3,0.4-2.1,0.5c-0.2,0-0.3,0-0.5,0.1c-1-0.9-2.4-1.4-3.7-1.4c-3.1,0-5.6,2.4-5.8,5.4c-2.8-0.5-5.4-1.9-7.2-4.1
	c-0.3-0.3-0.7-0.5-1.1-0.4c-0.4,0.1-0.8,0.3-1,0.7c-0.1,0.2-0.8,1.9-0.8,6c0,3.6,2.8,6.3,4.8,7.6C11,24.6,9.4,24.8,8,24.7
	c-0.6-0.1-1.1,0.3-1.3,0.8s0,1.1,0.5,1.4c2.3,1.5,5,2.2,7.7,2.2c8.8,0,14.1-6.9,14.3-13.7c0.3-0.4,0.7-1.1,1.5-2.3
	c0.3-0.5,0.6-1.6,0.7-2.2c0.1-0.4-0.1-0.9-0.4-1.2C30.6,9.4,30.1,9.4,29.7,9.6z M26.9,14.4c-0.2,0.2-0.2,0.5-0.2,0.7
	c0,4.8-3.7,11.7-11.9,11.7c-0.7,0-1.5-0.1-2.2-0.2c1-0.4,1.9-0.9,2.7-1.5c0.3-0.3,0.5-0.7,0.5-1.1s-0.3-0.8-0.7-1
	c-0.1,0-5.2-2.8-5.2-6.6c0-1.3,0.1-2.3,0.2-3c2.4,2.1,5.5,3.3,8.7,3.5h0.1c0.7,0,1.2-0.5,1.2-1.2c0-0.2,0-0.3-0.1-0.5
	c0-0.2,0-0.4,0-0.6c0-1.8,1.5-3.3,3.4-3.3c0.9,0,1.8,0.4,2.5,1c0.3,0.3,0.7,0.4,1.1,0.4c0.3-0.1,0.6-0.1,0.9-0.1c0.1,0,0.2,0,0.4,0
	C27.3,13.9,26.9,14.3,26.9,14.4z"/>
</svg>
