<?xml version="1.0" encoding="utf-8"?>
<!-- Generator: Adobe Illustrator 23.0.3, SVG Export Plug-In . SVG Version: 6.00 Build 0)  -->
<svg version="1.1" id="Layer_1" xmlns="http://www.w3.org/2000/svg" xmlns:xlink="http://www.w3.org/1999/xlink" x="0px" y="0px"
	 viewBox="0 0 48 48" style="enable-background:new 0 0 48 48;" xml:space="preserve">
<style type="text/css">
	.st0{fill:#21D0C3;}
	.st1{fill:#FCB42A;}
	.st2{fill:#ECF0F1;}
	.st3{fill:#FED298;}
	.st4{fill:#0F7986;}
	.st5{fill:#15BDB2;}
	.st6{fill:#FFFFFF;}
	.st7{fill:#FAD24D;}
	.st8{fill:#B6B6B8;}
	.st9{fill:#666666;}
	.st10{fill:#FF5B62;}
</style>
<circle class="st0" cx="24" cy="24" r="24"/>
<circle class="st1" cx="40.3" cy="33.4" r="2.3"/>
<path class="st2" d="M24,16.9c3.9,0,7.1,3.2,7.1,7.1s-3.2,7.1-7.1,7.1s-7.1-3.2-7.1-7.1S20.1,16.9,24,16.9z"/>
<path class="st3" d="M27.3,26.1c0.7-0.1,0.6-1.2,0-1.1l-0.7,0.1V25h0.6c0.8,0,0.7-1.1,0-1.1h-0.6h-1.9l0.4-1.3
	c0.1-0.4,0.1-1.2-0.2-1.6c-0.2-0.3-0.8-0.2-0.8,0.1L24,22l-0.2,0.7l-0.9,0.9c-0.3,0-0.7,0.5-0.9,0.9l-5.1-0.2
	c0.1,1.5,0.6,2.8,1.4,3.9l3.6-0.1c0,0.1,0.1,0.1,0.1,0.2c0.2,0.2,0.6,0.4,1.1,0.4l2.2-0.1l1-0.1h0.1l0.7,0.1c0.4-0.1,0.4-1-0.1-1
	h-0.5v-0.1l0.6-0.2c0.2-0.1,0.4-0.3,0.4-0.6s-0.2-0.5-0.4-0.5l-0.7,0.1v-0.1L27.3,26.1z"/>
<path class="st4" d="M20.1,24.1l0.1,4.4l-1.6,0.1c-1-1.2-1.7-2.8-1.7-4.6L20.1,24.1z"/>
<path class="st5" d="M19.3,27.8c0,0.2-0.1,0.3-0.3,0.3s-0.3-0.2-0.3-0.3c0-0.2,0.1-0.3,0.3-0.3C19.1,27.5,19.3,27.6,19.3,27.8
	L19.3,27.8z"/>
<path class="st6" d="M24.6,21.1v0.6c-0.1,0-0.3-0.1-0.4,0v-0.5C24.2,20.8,24.6,20.8,24.6,21.1L24.6,21.1L24.6,21.1z M40.6,26v-2
	v-9.3c0.1-0.2,0.1-0.4-0.1-0.5c-0.1,0-0.1,0-0.2,0h-0.1l-7.9-4.6l-8.1-4.7C24.1,4.8,24,4.8,24,4.8c-0.1,0-0.2,0-0.3,0.2l0,0
	l-7.9,4.6l-7.9,4.6H7.7c-0.2,0-0.3,0.1-0.3,0.3c0,0.1,0.1,0.1,0.1,0.2V24v9.2c-0.1,0.1-0.1,0.1-0.1,0.2c0,0.2,0.1,0.3,0.3,0.3
	l8.1,4.7l8.1,4.7c0.1,0.1,0.2,0.1,0.3,0l6.3-3.6c1.6,2.9,4.7,4.9,8.2,4.9c5.1,0,9.3-4.2,9.3-9.3C48,30.6,44.8,26.9,40.6,26z M40,24
	v1.9c-0.4-0.1-0.9-0.1-1.3-0.1c-0.8,0-1.6,0.1-2.3,0.3L35.2,24l4.8-8.2V24z M33,27.8l1.8-3.1l1,1.7C34.8,26.6,33.8,27.1,33,27.8z
	 M31.8,28.5L31,29.9c-0.3,0.4-0.5,0.8-0.7,1.2l-1.1,2H24h-5.3l-2.6-4.5L13.5,24l2.6-4.5l2.6-4.5H24h5.2l2.6,4.5l2.6,4.5L31.8,28.5z
	 M34.8,23.3l-2.4-4.2L30,14.9h9.6L34.8,23.3z M32,10.2l7,4h-9.4l-4.6-8L32,10.2z M24,5.8l4.8,8.4H24h-4.9L24,5.8z M16,10.2l7-4
	l-4.6,8H9L16,10.2z M18,14.9l-2.4,4.2l-2.4,4.3l-4.9-8.5H18z M8,24v-8.4l4.8,8.4L8,32.3V24z M13.2,24.5l2.4,4.3L18,33H8.3L13.2,24.5
	z M16,37.8l-7.1-4.1h9.5l4.7,8.2L16,37.8z M24,42.1l-4.9-8.4H24h4.8L24,42.1z M24.9,41.9l4.6-8c-0.1,0.4-0.1,0.8-0.1,1.2
	c0,1.3,0.3,2.6,0.8,3.7L24.9,41.9z M20.9,24.2l0.1,4.1h-0.8l-0.1-4.1H20.9z"/>
<path class="st7" d="M38.7,26.8c4.6,0,8.3,3.7,8.3,8.3s-3.7,8.3-8.3,8.3s-8.3-3.7-8.3-8.3S34.1,26.8,38.7,26.8z"/>
<path class="st8" d="M24.2,18.7h0.2v0.9h-0.2V18.7z M23.3,18.8l-0.2,0.1l0.3,0.9l0.2-0.1L23.3,18.8z M25.3,18.8l0.2,0.1l-0.3,0.9
	L25,19.7L25.3,18.8z M28.3,22.8V23l-0.9-0.1v-0.2L28.3,22.8z M28.2,21.7v0.2l-0.9,0.2v-0.2L28.2,21.7z M27.8,20.7l0.1,0.2L27,21.3
	l-0.1-0.2L27.8,20.7z M27.1,19.9l0.1,0.2l-0.7,0.6l-0.1-0.2L27.1,19.9z M26.3,19.2l0.2,0.1L26,20.1L25.8,20L26.3,19.2z M20.2,22.8
	V23l0.9-0.1v-0.2L20.2,22.8z M20.4,21.7v0.2l0.9,0.2v-0.2L20.4,21.7L20.4,21.7z M20.8,20.7l-0.1,0.2l0.8,0.4l0.1-0.2L20.8,20.7z
	 M21.4,19.9l-0.1,0.2l0.7,0.6l0.1-0.2L21.4,19.9z M22.3,19.2l-0.2,0.1l0.5,0.8l0.2-0.1L22.3,19.2L22.3,19.2L22.3,19.2z"/>
<path class="st2" d="M32.2,35.1c3.7-5.5,9.3-5.5,13,0C41.5,40.5,35.9,40.5,32.2,35.1z"/>
<circle class="st0" cx="38.7" cy="35.1" r="3.2"/>
<circle class="st5" cx="38.7" cy="35.1" r="2.2"/>
<circle class="st9" cx="38.7" cy="35.1" r="1.1"/>
<path class="st6" d="M37.7,33.8c0,0.3-0.2,0.5-0.5,0.5s-0.5-0.2-0.5-0.5s0.2-0.5,0.5-0.5S37.7,33.5,37.7,33.8z M39.7,35.6
	c-0.2,0-0.4,0.2-0.4,0.4s0.2,0.4,0.4,0.4c0.2,0,0.4-0.2,0.4-0.4S39.9,35.6,39.7,35.6z"/>
<circle class="st7" cx="7.7" cy="14.6" r="2.3"/>
<path class="st4" d="M21.7,5.2c0-1.3,1-2.3,2.3-2.3s2.3,1,2.3,2.3s-1,2.3-2.3,2.3S21.7,6.5,21.7,5.2z M24,40.5c-1.3,0-2.3,1-2.3,2.3
	s1,2.3,2.3,2.3s2.3-1,2.3-2.3S25.3,40.5,24,40.5z"/>
<path class="st10" d="M42.6,14.6c0,1.3-1,2.3-2.3,2.3s-2.3-1-2.3-2.3c0-1.3,1-2.3,2.3-2.3S42.6,13.3,42.6,14.6z M7.7,31.1
	c-1.3,0-2.3,1-2.3,2.3c0,1.3,1,2.3,2.3,2.3s2.3-1,2.3-2.3C10,32.1,9,31.1,7.7,31.1z"/>
</svg>
