<?xml version="1.0" encoding="utf-8"?>
<!-- Generator: Adobe Illustrator 23.0.3, SVG Export Plug-In . SVG Version: 6.00 Build 0)  -->
<svg version="1.1" id="Layer_1" xmlns="http://www.w3.org/2000/svg" xmlns:xlink="http://www.w3.org/1999/xlink" x="0px" y="0px"
	 viewBox="0 0 34.1 34.1" style="enable-background:new 0 0 34.1 34.1;" xml:space="preserve">
<style type="text/css">
	.st0{fill:#FBBB00;}
	.st1{fill:#518EF8;}
	.st2{fill:#28B446;}
	.st3{fill:#F14336;}
</style>
<path class="st0" d="M7.5,20.6L6.3,25L2,25.1c-1.3-2.4-2-5.2-2-8.1c0-2.8,0.7-5.5,1.9-7.8l0,0l3.9,0.7l1.7,3.8C7.1,14.7,7,15.8,7,17
	C6.9,18.3,7.1,19.5,7.5,20.6z"/>
<path class="st1" d="M33.8,13.9c0.2,1,0.3,2.1,0.3,3.2c0,1.2-0.1,2.4-0.4,3.6c-0.8,3.9-3,7.3-6,9.7l0,0l-4.9-0.2l-0.7-4.4
	c2-1.2,3.5-3,4.4-5.2h-9.1v-6.7h9.2H33.8L33.8,13.9z"/>
<path class="st2" d="M27.7,30.3L27.7,30.3c-2.9,2.3-6.6,3.8-10.7,3.8c-6.5,0-12.1-3.6-15-9l5.5-4.5c1.4,3.8,5.1,6.6,9.5,6.6
	c1.9,0,3.6-0.5,5.1-1.4L27.7,30.3z"/>
<path class="st3" d="M27.9,3.9l-5.5,4.5c-1.6-1-3.4-1.5-5.4-1.5c-4.4,0-8.2,2.9-9.6,6.8L1.9,9.2l0,0C4.7,3.7,10.4,0,17,0
	C21.2,0,25,1.5,27.9,3.9z"/>
</svg>
