<?xml version="1.0" encoding="utf-8"?>
<!-- Generator: Adobe Illustrator 23.0.3, SVG Export Plug-In . SVG Version: 6.00 Build 0)  -->
<svg version="1.1" id="Layer_1" xmlns="http://www.w3.org/2000/svg" xmlns:xlink="http://www.w3.org/1999/xlink" x="0px" y="0px"
	 viewBox="0 0 43.8 45" style="enable-background:new 0 0 43.8 45;" xml:space="preserve">
<style type="text/css">
	.st0{fill:#DBB703;}
</style>
<path class="st0" d="M43.8,15.6C44,7,37,0,28.4,0C20.6,0,14,5.8,13,13.5C5.6,14.7,0,21.1,0,28.8c0,3.6,1.2,7.1,3.5,9.9l-2.4,5.5
	c-0.1,0.3,0,0.6,0.3,0.8c0.1,0,0.2,0.1,0.3,0l8.5-1.5c1.7,0.6,3.5,0.9,5.2,0.9c7.9,0,14.4-5.9,15.4-13.5c0.9-0.2,1.8-0.4,2.7-0.7
	l8.5,1.5c0.3,0.1,0.6-0.2,0.7-0.5c0-0.1,0-0.2,0-0.3l-2.4-5.5C42.6,22.6,43.8,19.2,43.8,15.6z M15.5,43.3c-1.7,0-3.4-0.3-5-0.9
	c-0.1,0-0.2,0-0.3,0l-7.6,1.3l2.1-4.9c0.1-0.2,0.1-0.4-0.1-0.6c-2.2-2.6-3.4-5.9-3.4-9.3c0-7.9,6.4-14.4,14.3-14.4
	s14.4,6.4,14.4,14.4S23.5,43.3,15.5,43.3z M23,12.7c0.3-1.7,1.5-2.8,3-2.8c0.9,0,1.9,0.4,2.9,1.1c0.2,0.2,0.5,0.2,0.7,0
	c1-0.7,2-1.1,2.9-1.1c1.5,0,2.7,1.1,3.1,2.8c0.7,3.8-2.6,7-6.3,8.4L29,21.2c-1.4-2.4-3.4-4.5-5.8-5.8C22.9,14.5,22.9,13.6,23,12.7z
	 M41.5,30.4L33.7,29c-0.1,0-0.2,0-0.3,0c-0.8,0.3-1.6,0.5-2.4,0.7c0-0.3,0-0.5,0-0.8c0-2.3-0.5-4.6-1.5-6.6h0.1
	c2.6-1.1,4.6-2.6,5.8-4.5c1.1-1.7,1.5-3.5,1.2-5.3c-0.5-2.3-2.1-3.7-4.2-3.7c-1,0-2.1,0.4-3.2,1.1C28.1,9.2,27,8.8,26,8.8
	c-2.1,0-3.8,1.5-4.2,3.8c-0.1,0.7-0.1,1.5,0,2.2c-2-0.9-4.1-1.3-6.3-1.3c-0.4,0-0.9,0-1.3,0.1c0.5-3.5,2.1-6.5,4.6-8.7
	c2.6-2.4,6.1-3.7,9.7-3.7c7.9,0,14.4,6.4,14.4,14.4c0,3.4-1.2,6.7-3.4,9.3c-0.1,0.2-0.2,0.4-0.1,0.6L41.5,30.4z M23.8,30.2
	c0.6-0.7,0.5-1.7-0.1-2.3c-0.3-0.3-0.7-0.4-1.1-0.4h-3.9c-0.1,0-0.2-0.1-0.3-0.2c-0.1-0.6,0-1.1,0.2-1.6c0.2-0.6,0.4-1.3,0.4-2v-0.4
	c0-1.3-1.1-2.4-2.4-2.4c-0.3,0-0.5,0.2-0.6,0.5l-0.2,1.3c-0.2,1.3-0.7,2.6-1.5,3.7c-0.4,0.5-1,0.9-1.7,0.9H12v-0.8
	c0-0.3-0.3-0.6-0.6-0.6H7.5c-0.3,0-0.6,0.3-0.6,0.6v10c0.1,0.3,0.4,0.6,0.7,0.6h3.9c0.3,0,0.6-0.3,0.6-0.6v-0.7h0.3
	c1,0,2,0.3,2.9,0.8c1.1,0.7,2.3,0.7,3.5,0.7H22c0.9,0,1.7-0.7,1.7-1.7c0-0.3-0.1-0.6-0.2-0.8c0.8-0.5,0.9-1.6,0.4-2.3l-0.1-0.1
	C24.3,31.8,24.4,30.8,23.8,30.2z M10.9,35.9H8.2v-8.8h2.7V35.9z M20.8,30.9h1.5c0.3,0,0.5,0.2,0.5,0.5c0,0.3-0.2,0.5-0.5,0.5h-1.5
	c-0.3,0-0.6,0.3-0.6,0.6s0.3,0.6,0.6,0.6h1.5c0.3,0,0.5,0.2,0.5,0.5c0,0.3-0.2,0.5-0.5,0.5h-2.2c-0.3,0-0.6,0.3-0.6,0.6
	s0.3,0.6,0.6,0.6h1.7c0.3,0,0.5,0.2,0.5,0.5s-0.2,0.5-0.5,0.5h-3.2c-1.1,0-2.1,0-2.9-0.6c-1.1-0.7-2.3-1-3.5-1H12v-6.1h0.4
	c1.1,0,2-0.5,2.7-1.4c0.9-1.3,1.5-2.7,1.7-4.2l0.1-0.8c0.5,0.2,0.8,0.6,0.8,1.2v0.4c0,0.5-0.1,1.1-0.3,1.6c-0.3,0.7-0.4,1.4-0.3,2.2
	c0.1,0.7,0.7,1.3,1.4,1.3h3.9c0.2,0,0.4,0.2,0.4,0.4s-0.2,0.4-0.4,0.4h-0.9c0,0,0,0-0.1,0h-0.6c-0.3,0-0.6,0.3-0.6,0.6
	S20.5,30.9,20.8,30.9z"/>
</svg>
