<?xml version="1.0" encoding="utf-8"?>
<!-- Generator: Adobe Illustrator 23.0.3, SVG Export Plug-In . SVG Version: 6.00 Build 0)  -->
<svg version="1.1" id="Layer_1" xmlns="http://www.w3.org/2000/svg" xmlns:xlink="http://www.w3.org/1999/xlink" x="0px" y="0px"
	 viewBox="0 0 50 39.5" style="enable-background:new 0 0 50 39.5;" xml:space="preserve">
<style type="text/css">
	.st0{fill:#ED5575;}
	.st1{fill:#444966;}
	.st2{fill:#FCD0AE;}
	.st3{fill:#EBEEF2;}
	.st4{fill:#2E344C;}
	.st5{fill:#5C9CEE;}
	.st6{fill:#FCAB29;}
	.st7{fill:#DD8D19;}
	.st8{fill:#656D88;}
	.st9{fill:#E59F6A;}
</style>
<path class="st0" d="M10,23H5.8c-0.4,0-0.7-0.2-1.1-0.1c-2.4,0.5-4.1,2.6-4.1,5.1v5c0,0.2,0.2,0.4,0.4,0.4h13.8
	c0.2,0,0.4-0.2,0.4-0.4v-5c0-2.5-1.8-4.6-4.1-5.1C10.7,22.8,10.4,23,10,23z"/>
<path class="st1" d="M15,15.8v-3.9c0-3.9-3.2-7.1-7.1-7.1l0,0C4,4.8,0.8,8,0.8,11.9v3.9c0,1-0.3,2.3-0.8,3.1
	c-0.1,0.3,0.1,0.6,0.4,0.6h15c0.3,0,0.5-0.3,0.4-0.6C15.3,18.1,15,16.8,15,15.8z"/>
<path class="st2" d="M13.2,13.9V15c0,2.9-2.4,5.3-5.3,5.3S2.6,17.9,2.6,15v-3.4c0-0.2,0-0.4,0-0.5h0.7c0.7,0,1.4,0.4,1.6,1.1
	c0.2,0.5,0.5,1,1,1.3c0.4,0.3,1,0.5,1.5,0.5L13.2,13.9L13.2,13.9z"/>
<path class="st3" d="M11.1,22.9c-0.3-0.1-0.7-0.1-1.1-0.1H5.8c-0.4,0-0.7,0-1.1,0.1c0.2,1.9,1.5,3.5,3.2,4.2
	C9.6,26.4,10.8,24.8,11.1,22.9z"/>
<circle class="st4" cx="47.4" cy="16.3" r="2.6"/>
<path class="st2" d="M42.1,20.2L42.1,20.2c-2.9,0-5.3-2.4-5.3-5.3v-3.4c0-2.7,2.2-4.9,4.9-4.9h0.8c2.7,0,4.9,2.2,4.9,4.9v3.4
	C47.4,17.9,45,20.2,42.1,20.2z"/>
<path class="st5" d="M44.2,22.8H40c-2.9,0-5.2,2.3-5.2,5.2v5c0,0.2,0.2,0.4,0.4,0.4H49c0.2,0,0.4-0.2,0.4-0.4v-5
	C49.4,25.1,47.1,22.8,44.2,22.8z"/>
<path class="st1" d="M47.4,11.6V15c-7.5-0.7-8.2-4.7-8.2-4.7v2.6h-2.4v-1.3c0-2.7,2.2-4.9,4.9-4.9h0.8C45.2,6.7,47.4,8.9,47.4,11.6z
	"/>
<path class="st3" d="M45.3,22.9c-0.3-0.1-0.7-0.1-1.1-0.1H40c-0.4,0-0.7,0-1.1,0.1c0.2,1.9,1.5,3.5,3.2,4.2
	C43.8,26.4,45,24.8,45.3,22.9z"/>
<path class="st6" d="M35,29.7c-2.4-8.9-2.4-9.5-0.7-17.9c0.2-0.7,0.2-1.4,0.2-2.1c0-5.4-4.4-9.7-9.7-9.7s-9.7,4.4-9.7,9.7
	c0,0.7,0.1,1.4,0.2,2.1c1.7,8.3,1.8,8.9-0.7,17.9c-0.3,1-0.4,2-0.4,3c0,5.9,4.7,4.4,10.6,4.4s10.6,1.4,10.6-4.4
	C35.4,31.7,35.3,30.7,35,29.7z"/>
<path class="st7" d="M35,29.7c-2.4-8.9-2.4-9.5-0.7-17.9c0.2-0.7,0.2-1.4,0.2-2.1c0-5.4-4.4-9.7-9.7-9.7c-0.3,0-0.5,0-0.7,0
	c4.4,0.4,7.8,4.6,7.8,9.7c0,0.7-0.1,1.4-0.2,2.1c-1.5,8.3-1.5,8.9,0.6,17.9c0.2,1,0.4,2,0.4,3c0,3.5-1.5,4.4-3.8,4.6
	c3.9,0.1,6.6-0.1,6.6-4.6C35.4,31.7,35.3,30.7,35,29.7z"/>
<path class="st8" d="M27.9,24.2h-6.1c-1.2,0-2.3,0.1-3.2,0.5c-2.5,1.2-4.3,3.8-4.3,6.8v6.9c0,0.6,0.5,1,1,1h19.2c0.6,0,1-0.5,1-1
	v-6.9c0-3-1.8-5.6-4.4-6.9C30.1,24.3,29,24.2,27.9,24.2z"/>
<path class="st1" d="M27.9,24.2h-1.5c1.6,0,3,0.4,4.2,1.5c1.4,1.4,2.4,3.5,2.4,5.9v6.9c0,0.6-0.4,1-0.9,1h2.3c0.6,0,1-0.5,1-1v-6.9
	c0-3-1.8-5.6-4.4-6.9C30.1,24.3,29,24.2,27.9,24.2z"/>
<path class="st2" d="M31.9,14.8c-0.4,3.6-3.4,6.3-7.1,6.3c-3.9,0-7.1-3.2-7.1-7.1V9.4c0-1.7,0.7-3.3,1.7-4.5
	C21.1,8.6,25.3,13,31.9,14.8z"/>
<path class="st9" d="M29.2,13.9c0,0.3,0,0.6,0,0.9c-0.3,3.3-2.4,5.9-5.1,6.3c0.2,0,0.5,0,0.7,0c3.7,0,6.7-2.8,7.1-6.3
	C31,14.5,30.1,14.2,29.2,13.9z"/>
<path class="st3" d="M24.8,36.1L31,24.7c-1-0.4-2-0.7-3.2-0.7h-6.1c-1.1,0-2.2,0.3-3.2,0.7L24.8,36.1z"/>
<path class="st0" d="M25.9,26.8c1.1-0.4,1.9-1.5,1.9-2.8h-6c0,1.3,0.8,2.3,1.9,2.8l-1,5.4l2.1,3.8l2.1-3.8L25.9,26.8z"/>
</svg>
