<?xml version="1.0" encoding="utf-8"?>
<!-- Generator: Adobe Illustrator 23.0.3, SVG Export Plug-In . SVG Version: 6.00 Build 0)  -->
<svg version="1.1" id="Layer_1" xmlns="http://www.w3.org/2000/svg" xmlns:xlink="http://www.w3.org/1999/xlink" x="0px" y="0px"
	 viewBox="0 0 41.1 41" style="enable-background:new 0 0 41.1 41;" xml:space="preserve">
<style type="text/css">
	.st0{fill:#4554A5;}
</style>
<path class="st0" d="M37.7,34.2c-1,0-1.9,0.5-2.6,1.2l-4.3-2.2c0-0.2,0.1-0.5,0.1-0.7s0-0.5-0.1-0.7l4.3-2.2
	c0.6,0.7,1.5,1.2,2.6,1.2c1.9,0,3.4-1.5,3.4-3.4S39.6,24,37.7,24s-3.4,1.5-3.4,3.4c0,0.2,0,0.5,0.1,0.7l-4.3,2.2
	c-0.6-0.7-1.5-1.2-2.6-1.2c-1.9,0-3.4,1.5-3.4,3.4c0,1.9,1.5,3.4,3.4,3.4c1,0,1.9-0.5,2.6-1.2l4.3,2.2c0,0.2-0.1,0.5-0.1,0.7
	c0,1.9,1.5,3.4,3.4,3.4s3.4-1.5,3.4-3.4C41.1,35.7,39.6,34.2,37.7,34.2z M18.9,0c5.7,0,10.3,4.6,10.3,10.3s-4.6,10.3-10.3,10.3
	S8.6,16,8.6,10.3S13.2,0,18.9,0z M22.3,32.5c0-2.8,2.3-5.1,5.1-5.1c0.8,0,1.6,0.2,2.4,0.6c0.2,0.1,0.5,0.1,0.8,0l1.5-0.8
	c0.2-0.1,0.4-0.4,0.5-0.7v-0.2c0.1-0.4-0.1-0.8-0.5-0.9c-3.1-1.5-8-3.2-13.3-3.2c-5.9,0-11.2,2.1-14.6,3.9C1.6,27.4,0,30.1,0,33v1.3
	c0,1.9,1.5,3.4,3.4,3.4h19.7c0.3,0,0.7-0.2,0.8-0.5s0.1-0.7-0.2-0.9C22.9,35.2,22.3,33.9,22.3,32.5z"/>
</svg>
