<?xml version="1.0" encoding="utf-8"?>
<!-- Generator: Adobe Illustrator 23.0.3, SVG Export Plug-In . SVG Version: 6.00 Build 0)  -->
<svg version="1.1" id="Layer_1" xmlns="http://www.w3.org/2000/svg" xmlns:xlink="http://www.w3.org/1999/xlink" x="0px" y="0px"
	 viewBox="0 0 41 41" style="enable-background:new 0 0 41 41;" xml:space="preserve">
<style type="text/css">
	.st0{fill:#0F7986;}
	.st1{fill:#15BDB2;}
	.st2{fill:#21D0C3;}
	.st3{fill:#FFFFFF;}
	.st4{fill:#FF5B62;}
	.st5{fill:#FAD24D;}
</style>
<circle class="st0" cx="20.5" cy="20.5" r="20.5"/>
<path class="st1" d="M20.5,8.3c6.8,0,12.2,5.5,12.2,12.2c0,6.8-5.5,12.2-12.2,12.2c-6.8,0-12.2-5.5-12.2-12.2
	C8.3,13.7,13.7,8.3,20.5,8.3z"/>
<path class="st2" d="M20.5,8.3c4.8,0,9,2.8,11,6.9c0.3,1.1,0.5,2.3,0.5,3.5C32,26,26,32,18.6,32c-1.1,0-2.2-0.1-3.2-0.4
	c-4.2-1.9-7.2-6.2-7.2-11.1C8.3,13.7,13.7,8.3,20.5,8.3L20.5,8.3z"/>
<path class="st3" d="M28.1,10.9c2.3,1.8,3.9,4.4,4.4,7.4c0-0.1-0.1-0.1-0.1-0.2c-0.2,0.1-0.2,0.1-0.5,0.1l0,0
	c-0.1,0.2,0,0.1-0.2,0.3s-0.4,0.5-0.6,0.6c0,0.3,0,0.3,0,0.7c0,0.1-0.2,0.5-0.3,0.4c-0.1,0-0.3-0.5-0.3-0.7
	c-0.1-0.3-0.2-0.4-0.2-0.7c0-0.2-0.1-0.4-0.1-0.6c-0.2,0-0.2,0.1-0.3,0s-0.1-0.1-0.1-0.3c-0.1-0.1-0.3-0.3-0.4-0.4
	c-0.1,0-0.5,0-0.7,0c-0.3,0-0.3,0-0.5-0.3c-0.3,0-0.3,0.1-0.6-0.1c-0.2-0.2-0.2-0.5-0.5-0.3c0,0.3,0.1,0.3,0.2,0.4s0.2,0.2,0.2,0.3
	v0.1c0.3,0,0.4-0.1,0.5-0.2c0.2,0.1,0,0.2,0.2,0.3s0.1,0,0.3,0.2c0.1,0.2-0.4,0.7-0.6,0.8c-0.1,0.1-0.2,0-0.3,0.1
	c-0.2,0.1,0,0.1-0.3,0.2s-0.6,0.3-0.9,0.4c-0.1-0.2-0.1-0.4-0.2-0.6c-0.2-0.6-0.2-0.4-0.4-0.7c-0.1-0.1-0.1-0.2-0.1-0.4
	c0-0.1-0.1-0.1-0.2-0.3c-0.1-0.2-0.2-0.5-0.4-0.4c0,0.1,0.2,0.6,0.3,0.7c0.1,0.1,0.2,0.2,0.2,0.3c0,0.2,0,0.2,0.1,0.4
	c0.3,0.3,0,0.3,0.4,0.6c0.3,0.2,0.2,0.3,0.4,0.6c0.2,0.1,0.8-0.2,0.9-0.1c0.1,0.2-0.1,0.6-0.2,0.7c-0.2,0.6-0.6,0.6-0.9,1.1
	c-0.2,0.3-0.2,0.3-0.4,0.6c-0.2,0.4,0.3,1.3,0,1.7c-0.1,0.1-0.3,0.2-0.6,0.4c-0.3,0.3,0,0.3-0.1,0.8c-0.1,0.1-0.2,0.1-0.3,0.2
	c0,0.1,0,0.2-0.1,0.4s-0.1,0.1-0.2,0.2s-0.1,0.2-0.2,0.3c-0.1,0.1-0.1,0.1-0.2,0.2c-0.3,0.3-1.1,0.3-1.1,0.3
	C22.9,26.3,23,26.2,23,26s-0.1-0.3-0.2-0.5l0,0c0-0.1-0.1-0.1-0.1-0.2c-0.1-0.4-0.1-0.8-0.3-1.2c-0.3-0.6,0.2-0.9,0.2-1.2
	c0-0.1,0-0.1,0-0.2c-0.1-0.4-0.1-0.7-0.3-1c-0.3-0.3-0.2-0.2-0.1-0.7c0.1-0.6-0.1-0.4-0.5-0.5c-0.2-0.5-0.5-0.3-0.8-0.1
	c-0.2,0.1-0.3,0-0.5,0c-0.5,0.1-0.1,0.3-0.8-0.3c-0.3-0.2-0.1-0.1-0.3-0.4c-0.1-0.1-0.2-0.2-0.3-0.4c-0.3-0.3,0.1-0.7,0-1.1
	c-0.1-0.7-0.2-0.1,0.2-1c0.2-0.5,0.5-0.5,0.6-0.7s0-0.3,0.2-0.5c0.1-0.1,0.3-0.1,0.4-0.3c0.1-0.3-0.1-0.3-0.3-0.3
	c-0.1-0.3-0.1-0.2,0-0.5c0-0.1,0-0.2,0-0.4c0.1-0.4,0.7,0,0.9-0.2c0.1-0.2,0.1-0.3,0-0.5c-0.1-0.1-0.2-0.1-0.3-0.3
	c0.1-0.1,0,0,0.2,0s0.1-0.1,0.3-0.1s0.3-0.2,0.4-0.3c0.2-0.1,0.1-0.3,0.4-0.3c0.4-0.1,0.2-0.1,0.2-0.5c0.1,0,0.1-0.1,0.2-0.1
	c0.1,0.2,0,0.1,0.1,0.2l0.1-0.1c0-0.2-0.1-0.2-0.2-0.4c-0.2,0-0.3,0.2-0.5,0.2c-0.2-0.1-0.2-0.3-0.2-0.5c0.1-0.2,0.4-0.2,0.5-0.3
	c0.2-0.1,0.2-0.2,0.3-0.4c0.2-0.2,0.1,0,0.2-0.3c0.3,0,0.1,0,0.3-0.1l0,0l0,0c0.1,0,0.2-0.1,0.3-0.1c0.4-0.1,0.6-0.1,0.9,0.1
	c0.2,0.1,1,0.1,1,0.4c-0.2,0.2-0.3,0-0.6,0.1c0,0.2,0.1,0.2,0.3,0.3c0-0.1,0-0.1,0-0.1c0.1,0,0.1,0,0.2,0c0.1-0.2,0.2-0.2,0.4-0.2
	c0-0.2-0.1-0.1,0-0.3c0.2,0,0,0,0.2,0.2c0.2,0,0.3-0.2,0.6-0.2c0.1,0,0.1,0,0.4,0c0.2,0,0.2-0.1,0.3,0c0.1-0.1,0-0.1,0.2-0.1
	s0.4,0.1,0.7,0.1c-0.2-0.2-0.3-0.2-0.1-0.5c0.3-0.1,0.3,0,0.4,0.2C28.1,11,28.1,11,28.1,10.9L28.1,10.9L28.1,10.9L28.1,10.9z
	 M8.6,17.9c0.6-2.5,1.9-4.7,3.7-6.4c0.1,0,0.3,0,0.5,0c0.1-0.1,0.1-0.2,0.2-0.2h0.1v0.1l0,0l0,0c0.2-0.1,0-0.1,0.2-0.4
	c-0.2,0-0.2,0-0.3-0.1c0.1-0.1,0.4-0.2,0.5-0.2c0,0.1-0.1,0.1,0,0.2c0.1-0.1,0.2-0.3,0.5-0.3l0.1,0.1c-0.1,0.1-0.3,0.1-0.4,0.2
	c-0.1,0.7,0.2,0.1,0.1,0.6c0.2,0,0.3-0.1,0.4-0.3C14.1,11.1,14,11.1,14,11s0.1-0.2,0.2-0.3c0.1,0,0.2-0.1,0.3-0.1
	c1.2,0,0.7,0.1,1,0.2c0.1,0,0.2,0.1,0.3,0.1c0.1,0.1,0,0.2,0.1,0.3c0.1,0.1,0.1,0,0.3,0.2c0,0.1-0.1,0.2-0.3,0.2s-0.1-0.1-0.3-0.1
	c0,0.2,0.2,0.3,0,0.4c-0.2,0.1-0.1,0-0.2,0l0,0l0,0c0,0,0,0-0.1,0.1c-0.3-0.1-0.3,0-0.4-0.3c-0.1-0.1-0.1-0.1-0.2-0.1
	c-0.1,0-0.2,0-0.3,0c0.2-0.2,0.2,0,0.5-0.1c0,0,0.3-0.2,0.3-0.3c-0.1-0.2,0,0-0.1-0.1c-0.2-0.2-0.3-0.2-0.6-0.2
	c-0.1,0.2-0.2,0.4-0.4,0.4c-0.1,0.1-0.2,0.1-0.3,0c0.1,0.3,0.2,0.1,0.3,0.4c-0.1,0-0.2-0.1-0.3,0c-0.3,0.1,0,0.1,0,0.1s0.1,0,0,0.1
	c-0.1,0,0,0-0.3-0.2c0-0.1,0.1-0.1,0.1-0.2c-0.2,0.1-0.5,0.2-0.7,0.3c-0.3,0.1-0.5,0.3-0.7,0.4c0,0.2,0,0.1,0.1,0.4
	c0.4,0,0.2,0.1,0.6,0.2c0.1,0,0.2,0,0.3,0.1c0,0.2-0.2,0.3,0,0.5c0.3,0.2,0.3-0.2,0.3-0.4c0.9-0.2,0.4-0.4,0.7-0.9
	c0-0.1,0.1-0.1,0.1-0.2c0.1,0,0.3,0,0.4,0c0.2,0,0.1,0.1,0.3,0.2c0,0.2-0.1,0.4,0.2,0.3c0.2,0,0.1-0.2,0.4-0.2
	c0.1,0.2,0.1,0.4,0.1,0.7c0.6,0.2,0.3,0.4,0.2,0.8c0.1,0,0.1,0.1,0.2,0.1c0,0.1,0,0.2,0,0.4l-0.6-0.1c0.1-0.3,0.3-0.3,0.4-0.5
	c-0.2,0-0.2,0.1-0.3,0.2c-0.1,0-0.2,0-0.4,0c-0.1,0.2,0-0.1,0,0.1c0,0.1,0,0,0,0.1c-0.2-0.1-0.1-0.3-0.5-0.1c0.1,0,0.2,0.1,0.3,0.1
	c0,0.2,0,0.1-0.1,0.2c-0.1,0.4,0.3,0.2,0.5,0.1c0,0.2-0.2,0.2-0.4,0.3s-0.3,0.1-0.4,0.2c0-0.3,0,0,0.1-0.2c-0.2,0-0.3,0.1-0.4,0.2
	l0,0c-0.2,0.1-0.2,0.1-0.3,0.4c-0.2,0.1-0.4,0.1-0.5,0.2c-0.1,0.1-0.2,0.2-0.4,0.3l0,0c0,0.3,0,0.3-0.2,0.5
	c-0.2,0.1-0.2,0.1-0.4,0.2c-0.5,0.4-0.3,0.2-0.2,1c-0.1,0-0.2-0.1-0.3-0.1c-0.1-0.5,0-0.3-0.4-0.5c-0.6,0-0.6,0.2-0.8,0.3
	c-0.2,0-0.3-0.2-0.6,0c-0.2,0.1-0.3,0.2-0.4,0.4c0,0.2-0.2,0.4-0.1,0.7c0,0.7,0.7,0.7,0.8,0.4c0.1-0.2,0.1-0.3,0.4-0.3
	c0,0.2,0,0.3-0.1,0.5c0,0.1-0.1,0.2-0.1,0.4c0.3,0.1,0.3-0.1,0.6,0.1c0,0.3-0.2,0.7,0.1,0.9c0.2,0.1,0.2,0,0.4,0s0.2,0.1,0.3,0.1
	c0.1-0.1,0.1,0,0.1-0.2c0.1-0.3,0.1-0.1,0.4-0.3c0,0,0.1,0,0.1-0.1c0,0.1,0.1,0.1,0.1,0.2c0.2-0.2,0.2,0,0.5,0.1c0.1,0,0.2,0,0.2,0
	c0.2,0,0.2-0.1,0.4,0H14l0,0l0,0c0,0,0,0.1,0.1,0.1c0.2,0.2,0.3,0.3,0.5,0.5c0.3,0.1,0.3-0.1,0.7,0.2c0.1,0.1,0.1,0.1,0.2,0.3
	c0,0,0,0.1,0.1,0.1c0,0.1,0.1,0.2,0.1,0.2c0.2,0.2,0.4,0.1,0.6,0.3c0.1,0.1,0,0.1,0.3,0.1c0.4,0.1,0.3,0,0.6,0.3
	c0.1,0.1,0.2,0,0.3,0.1c0.2,0.2,0.1,0.5,0,0.7c-0.4,0.6-0.3,0.5-0.3,1c0,0.3-0.1,0.9-0.4,1c-1,0.3-0.4,0.5-0.7,1
	C16,26,16,26.1,15.9,26.2c-0.2,0.5-0.1,0.6-0.6,0.5c0.1,0.1,0,0,0.1,0.1c0.2,0.3,0.2,0.5-0.2,0.5c-0.3,0.1-0.2,0-0.2,0.3
	c-0.1,0-0.2,0-0.2,0.1c0.1,0.2,0,0,0.2,0.1c0,0.1-0.1,0.2-0.1,0.3c-0.1,0.2-0.1,0-0.1,0.3c0.1,0,0.2,0,0.3,0.2
	c0,0.1-0.1,0.4-0.1,0.5c0.1,0.2,0.3,0.4,0.6,0.5c0,0.2,0,0.2-0.1,0.2s-0.4-0.1-0.5-0.2c-0.2-0.1-0.4-0.3-0.5-0.5
	c-0.1-0.1,0-0.1-0.1-0.2c-0.1-0.2-0.1-0.3-0.1-0.4s-0.1-0.2-0.1-0.4c0-0.1,0.1-0.4,0-0.3C14,28,14.2,28,14,28.1
	c0-0.1-0.1-0.3-0.1-0.4c0-0.2-0.1-0.3-0.1-0.4c-0.1-0.3,0.1-0.4-0.1-1c-0.1-0.4-0.1-1.3-0.2-1.8c0-0.1,0-0.1-0.1-0.2
	c-0.1-0.2-0.4-0.3-0.6-0.4l0,0c-0.3-0.2-0.6-1-0.8-1.3c-0.1-0.1-0.2-0.1-0.2-0.3c-0.1-0.2,0-0.2,0.1-0.3c-0.3-0.6,0.5-0.6,0.3-1.4
	c0-0.1-0.1-0.3-0.2-0.4c-0.2,0.1-0.1,0.1-0.2,0.3c-0.1-0.1-0.3-0.2-0.4-0.2c-0.4-0.4-0.2-0.1-0.3-0.4c-0.2-0.5-0.5-0.2-0.8-0.5
	c-0.1-0.1-0.2-0.3-0.4-0.3c-0.3,0-0.1,0.1-0.5-0.1c-0.3-0.1-0.6-0.3-0.8-0.5C8.7,18.2,8.8,18.2,8.6,17.9L8.6,17.9z M12.4,11.3
	c0.1-0.1,0.1-0.1,0.2-0.2l0,0c0,0,0,0,0,0.1C12.5,11.3,12.5,11.3,12.4,11.3z M22.9,15c0.1,0.1,0.2,0.1,0.3,0.2
	c0.1,0.3,0,0.1,0.2,0.4c0.1,0.2,0.1,0.3,0.2,0.4c0.2,0,0,0,0.2-0.1l0.1-0.1c-0.1-0.1-0.1-0.1-0.2-0.2c0.2-0.3,0.3-0.1,0.4,0.1
	c0.2,0.6,0.4,0.4,0.6,0.4s0,0,0.2,0.1c0.2,0,0.1,0,0.2,0c0.4-0.1,0.1,0.7,0.1,0.8c-0.2,0-0.2,0-0.3,0c-0.3,0,0,0.2-0.7-0.1
	c-0.7-0.2-0.6-0.3-0.7,0.2c-0.2,0-0.2,0-0.3-0.1c-0.1,0-0.1,0-0.1,0l0,0c-0.1,0,0,0-0.1-0.1s-0.4-0.1-0.6-0.2c0-0.2,0.1-0.3,0-0.5
	c-0.1,0-0.9,0-1,0c-0.3,0.1-0.3,0.3-0.7,0.2c-0.2,0-0.1,0-0.2-0.1c0.1-0.1,0,0,0.1-0.1h0.1c0.6-0.1,0.3-0.4,0.7-0.7
	c0.3-0.3,0.1,0,0.2-0.3c0.2,0,0.2,0.1,0.4,0c0.1-0.1,0.1-0.1,0.3-0.1c0.2,0.2,0.1,0.3,0.5,0.4c0.1,0.1,0.2,0.1,0.3,0.2
	c0.1,0.2,0,0.1,0.1,0.3l0,0l0,0c0.2-0.1-0.1-0.1,0.2-0.3c-0.1-0.1-0.1-0.1-0.2-0.1l0,0c-0.2-0.1-0.1,0-0.4-0.3
	c-0.1-0.1-0.1-0.1-0.1-0.2C22.6,14.6,22.6,14.8,22.9,15C22.8,14.9,22.8,15,22.9,15L22.9,15L22.9,15z M27,23.4
	c-0.2,0.1-0.2,0.3-0.3,0.4c-0.1,0.1-0.3,0.1-0.4,0.3c-0.1,0.3,0.1,0.2-0.1,0.6c-0.1,0.1-0.1,0.5,0,0.6c0.3,0.3,0.5-0.5,0.6-0.8
	c0.1-0.2,0.1-0.4,0.2-0.6C27.1,23.8,27.2,23.7,27,23.4z M26.5,14.7c0,0.4,0.3,0.5,0.4,0.7c0,0.2-0.1,0.1-0.1,0.4
	c0.2,0.1,0.3,0.2,0.6,0.2c0-0.3-0.1-0.3-0.2-0.5l0.1-0.1c0.1-0.1,0,0,0.1-0.1c-0.2-0.1-0.5-0.2-0.5-0.5c0.1-0.1,0.1,0,0.1-0.1
	c0.1-0.1,0,0,0.1-0.1c-0.1-0.1-0.2-0.2-0.3-0.1C26.7,14.5,26.5,14.6,26.5,14.7z M24.9,14.8c-0.1-0.2-0.1-0.3-0.3-0.3
	c-0.1,0.1-0.2,0.3-0.3,0.4c-0.1,0.2,0,0.1,0,0.3l0,0c0,0.2,0,0,0,0.1c0.2,0,0,0,0.2-0.1c0.1,0,0.5-0.2,0.6-0.1
	c0.3,0.1,0.5,0.3,0.8,0.1c0-0.3-0.3-0.4-0.6-0.5c0-0.3,0.1-0.1,0.1-0.3c-0.1,0-0.1,0-0.2,0c-0.2,0.1-0.1,0.1-0.1,0.1
	c0,0.1,0.2,0,0,0.1C25,14.8,24.9,14.8,24.9,14.8z M20.3,12.9c0,0.4,0.1,0.3,0.3,0.5c-0.1,0.2-0.1,0-0.2,0.2s0,0,0,0.3
	c0.1,0,0.3,0,0.4,0c0.2,0,0.2,0,0.3-0.3c-0.1-0.1-0.2-0.3-0.4-0.4c-0.2-0.2,0-0.1,0-0.3c0-0.1-0.1-0.1-0.1-0.2
	C20.4,12.8,20.4,12.8,20.3,12.9L20.3,12.9z"/>
<path class="st2" d="M12.2,11.1l-1.3-1.3l0.9-0.9L8.3,8.3l0.6,3.5l0.9-0.9l1.3,1.3l0,0l0,0l0.1-0.1l0,0l0,0l0,0l0,0l0,0l0,0l0.1-0.1
	l0,0l0,0l0,0l0,0c0.1-0.1,0.1-0.1,0.2-0.2c0.1-0.1,0.1-0.1,0.2-0.2l0,0l0,0c0.1-0.1,0.1-0.1,0.2-0.2l0,0l0,0l0,0l0,0
	C12.1,11.2,12.1,11.1,12.2,11.1L12.2,11.1z M28.8,29.9l1.3,1.3l-0.9,0.9l3.5,0.6l-0.6-3.5l-0.9,0.9l-1.3-1.3l0,0l0,0l-0.1,0.1l0,0
	l0,0l0,0l0,0l0,0l0,0L29.7,29l0,0l0,0l0,0l0,0c-0.1,0.1-0.1,0.1-0.2,0.2s-0.1,0.1-0.2,0.2l0,0l0,0c-0.1,0.1-0.1,0.1-0.2,0.2l0,0l0,0
	l0,0l0,0C28.9,29.8,28.9,29.9,28.8,29.9L28.8,29.9z"/>
<path class="st4" d="M21.3,8V6.2h1.3l-2.1-2.9l-2.1,2.9h1.3V8l0,0l0,0h0.1l0,0l0,0l0,0h0.1l0,0l0,0h0.2l0,0l0,0l0,0l0,0
	c0.1,0,0.2,0,0.3,0s0.2,0,0.3,0l0,0l0,0c0.1,0,0.2,0,0.2,0l0,0l0,0l0,0l0,0C21.1,7.9,21.2,7.9,21.3,8L21.3,8z M11.1,28.8l-1.3,1.3
	l-0.9-0.9l-0.6,3.5l3.5-0.6l-0.9-0.9l1.3-1.3l0,0l0,0l-0.1-0.1l0,0l0,0l0,0l0,0l0,0l0,0L12,29.7l0,0l0,0l0,0l0,0
	c-0.1-0.1-0.1-0.1-0.2-0.2c-0.1-0.1-0.1-0.1-0.2-0.2l0,0l0,0c-0.1-0.1-0.1-0.1-0.2-0.2l0,0l0,0l0,0l0,0
	C11.2,28.9,11.1,28.9,11.1,28.8L11.1,28.8z M33,21.3h1.8v1.3l2.9-2.1l-2.9-2.1v1.3H33l0,0l0,0v0.1l0,0l0,0l0,0v0.1l0,0l0,0v0.2l0,0
	l0,0l0,0l0,0c0,0.1,0,0.2,0,0.3s0,0.2,0,0.3l0,0l0,0c0,0.1,0,0.2,0,0.2l0,0l0,0l0,0l0,0C33.1,21.1,33.1,21.2,33,21.3L33,21.3z"/>
<path class="st5" d="M8,19.7H6.2v-1.3l-2.9,2.1l2.9,2.1v-1.3H8l0,0l0,0v-0.1l0,0l0,0l0,0v-0.1l0,0l0,0v-0.2l0,0l0,0l0,0l0,0
	c0-0.1,0-0.2,0-0.3s0-0.2,0-0.3l0,0l0,0c0-0.1,0-0.2,0-0.2l0,0l0,0l0,0l0,0C7.9,19.9,7.9,19.8,8,19.7L8,19.7z M19.7,33v1.8h-1.3
	l2.1,2.9l2.1-2.9h-1.3V33l0,0l0,0h-0.1l0,0l0,0l0,0h-0.1l0,0l0,0h-0.2l0,0l0,0l0,0l0,0c-0.1,0-0.2,0-0.3,0s-0.2,0-0.3,0l0,0l0,0
	c-0.1,0-0.2,0-0.2,0l0,0l0,0l0,0l0,0C19.9,33.1,19.8,33.1,19.7,33L19.7,33z M29.9,12.2l1.3-1.3l0.9,0.9l0.6-3.5l-3.5,0.6l0.9,0.9
	l-1.3,1.3l0,0l0,0l0.1,0.1l0,0l0,0l0,0l0,0l0,0l0,0l0.1,0.1l0,0l0,0l0,0l0,0c0.1,0.1,0.1,0.1,0.2,0.2c0.1,0.1,0.1,0.1,0.2,0.2l0,0
	l0,0c0.1,0.1,0.1,0.1,0.2,0.2l0,0l0,0l0,0l0,0C29.8,12.1,29.9,12.1,29.9,12.2L29.9,12.2z"/>
</svg>
