<?xml version="1.0" encoding="utf-8"?>
<!-- Generator: Adobe Illustrator 23.0.3, SVG Export Plug-In . SVG Version: 6.00 Build 0)  -->
<svg version="1.1" id="Layer_1" xmlns="http://www.w3.org/2000/svg" xmlns:xlink="http://www.w3.org/1999/xlink" x="0px" y="0px"
	 viewBox="0 0 42.3 41.7" style="enable-background:new 0 0 42.3 41.7;" xml:space="preserve">
<style type="text/css">
	.st0{fill:#00C8F6;}
</style>
<path class="st0" d="M42.3,24.4c0.1-0.7,0-1.5,0-2.3c0-3.5-0.1-6.9-1.8-9.9c1.8-4.9,1.7-8.5-0.6-10.8c-1.1-1.1-3-1.6-5.7-1.4
	s-5.8,1-9.1,2.5c-0.5-0.1-0.9-0.1-1.4-0.1c-4.5,0-7.9,1.7-12.1,4.2c-3.9,2.4-7,5.3-9.3,10.9c3.8-3.3,8.5-6.6,12.1-8.3
	c-0.4,0.3-1.1,1.1-2.6,2.6c-4.1,3.9-5.2,5.8-6.6,8.2c-1.9,3.1-3.2,5.8-4,8.4C0.4,30.9,0,33.3,0,35.3c0,2.1,0.5,3.6,1.6,4.5
	c2.7,2.7,7.2,2.5,13.4-0.5c2.8,1.3,5.8,2,8.9,2c4.1,0,7.9-1.3,11.3-3.7c3.4-2.4,5.7-5.7,7.1-9.6H31.7c-0.9,1.4-1.8,2.6-3.2,3.4
	s-2.9,1.2-4.5,1.2c-1.7,0-3.1-0.4-4.5-1.2c-1.4-0.9-2.4-1.9-3.2-3.3c-0.7-1.3-1.3-2.5-1.3-3.9l17.5,0.2H42.3z M4.2,37.8
	c-2-2-1.2-4.4,1.4-9.5c1.6,4.3,3,6.3,6.9,8.7C7.9,39.1,5.9,39.5,4.2,37.8z M36.9,3.2c0.9,0.4,1.6,1.1,2,2c0.4,0.7,0.2,1.4-0.7,3.9
	c-2.8-3.3-3.4-3.6-7-5.4C34.6,2.3,35.5,2.3,36.9,3.2z M15.5,18.9c0.2-2.1,1.3-3.9,2.9-5.4c1.6-1.5,3.4-2.1,5.6-2.1
	c2.1,0,4,0.6,5.6,2.1c1.6,1.4,2.3,3.3,2.5,5.4H15.5z"/>
</svg>
