<?xml version="1.0" encoding="utf-8"?>
<!-- Generator: Adobe Illustrator 23.0.3, SVG Export Plug-In . SVG Version: 6.00 Build 0)  -->
<svg version="1.1" id="Layer_1" xmlns="http://www.w3.org/2000/svg" xmlns:xlink="http://www.w3.org/1999/xlink" x="0px" y="0px"
	 viewBox="0 0 203.8 352" style="enable-background:new 0 0 203.8 352;" xml:space="preserve">
<style type="text/css">
	.st0{fill:#2A445D;}
</style>
<path class="st0" d="M185,279.9c0,0-10.4,12-30.3,12c-19.8,0-28.7-12-28.7-29.8c0-7.1,0-50.9,0-100.6h64.2v-61H126
	c0-54,0-100.6,0-100.6H77.7C70.1,45.1,40.4,82.7,0,101.2v60.4h47.1c0,58.7,0,111.8,0,115.9c0,16.1,15.1,74.6,92.4,74.6
	c45.4,0,64.2-29.2,64.2-29.2L185,279.9z"/>
</svg>
