<?xml version="1.0" encoding="utf-8"?>
<!-- Generator: Adobe Illustrator 23.0.3, SVG Export Plug-In . SVG Version: 6.00 Build 0)  -->
<svg version="1.1" id="Layer_1" xmlns="http://www.w3.org/2000/svg" xmlns:xlink="http://www.w3.org/1999/xlink" x="0px" y="0px"
	 viewBox="0 0 98 98" style="enable-background:new 0 0 98 98;" xml:space="preserve">
<style type="text/css">
	.st0{fill:#43BDEF;}
	.st1{fill:#FFFFFF;}
</style>
<g>
	<circle id="XMLID_49_" class="st0" cx="49" cy="49" r="49"/>
	<path id="XMLID_47_" class="st1" d="M78.1,34.1c-2.1,0.9-4.4,1.6-6.8,1.8c2.5-1.5,4.3-3.7,5.2-6.5c-2.3,1.3-4.9,2.3-7.6,2.8
		c-2.2-2.3-5.3-3.7-8.7-3.7c-6.6,0-11.9,5.3-11.9,11.7c0,0.9,0.1,1.8,0.3,2.7c-9.9-0.5-18.7-5.2-24.6-12.3c-1,1.7-1.6,3.7-1.6,5.9
		c0,4.1,2.1,7.7,5.3,9.8c-2-0.1-3.8-0.6-5.4-1.5c0,0,0,0.1,0,0.1c0,1.5,0.3,2.9,0.8,4.3c1.5,3.7,4.7,6.5,8.7,7.3
		c-1,0.3-2.1,0.4-3.1,0.4c-0.8,0-1.5-0.1-2.2-0.2c1.5,4.7,5.9,8.1,11.1,8.1c-4.1,3.1-9.2,5-14.8,5c-1,0-1.9-0.1-2.8-0.2
		c5.3,3.3,11.5,5.3,18.3,5.3c18.6,0,30.1-12.9,33.1-26.3c0.5-2.4,0.8-4.7,0.8-7.1c0-0.5,0-1,0-1.5C74.4,38.5,76.5,36.4,78.1,34.1z"
		/>
</g>
</svg>
