<?xml version="1.0" encoding="utf-8"?>
<!-- Generator: Adobe Illustrator 23.0.3, SVG Export Plug-In . SVG Version: 6.00 Build 0)  -->
<svg version="1.1" id="Layer_1" xmlns="http://www.w3.org/2000/svg" xmlns:xlink="http://www.w3.org/1999/xlink" x="0px" y="0px"
	 viewBox="0 0 98.4 78.7" style="enable-background:new 0 0 98.4 78.7;" xml:space="preserve">
<style type="text/css">
	.st0{fill:#49BCEC;}
</style>
<path id="XMLID_47_" class="st0" d="M98.4,9.3c-3.6,1.6-7.5,2.6-11.6,3.1c4.2-2.5,7.4-6.4,8.9-11c-3.9,2.3-8.2,3.9-12.8,4.8
	C79.2,2.4,73.9,0,68.1,0C57,0,48,8.9,48,19.9c0,1.6,0.2,3.1,0.5,4.5C31.7,23.6,16.8,15.7,6.9,3.6c-1.7,2.9-2.7,6.4-2.7,10
	c0,6.9,3.6,13,9,16.5c-3.3-0.1-6.4-1-9.1-2.5c0,0.1,0,0.2,0,0.2c0,2.5,0.5,5,1.4,7.2c2.5,6.2,8,10.9,14.8,12.3
	c-1.7,0.4-3.5,0.7-5.3,0.7c-1.3,0-2.6-0.1-3.8-0.4c2.6,7.9,10,13.6,18.9,13.8c-6.9,5.3-15.6,8.5-25.1,8.5c-1.6,0-3.2-0.1-4.8-0.3
	c8.9,5.6,19.6,8.9,31,8.9c31.6,0,51-21.9,56.1-44.5c0.9-4,1.4-8,1.4-12c0-0.9,0-1.7-0.1-2.6C92.3,16.8,95.7,13.3,98.4,9.3z"/>
</svg>
