<?xml version="1.0" encoding="utf-8"?>
<!-- Generator: Adobe Illustrator 23.0.3, SVG Export Plug-In . SVG Version: 6.00 Build 0)  -->
<svg version="1.1" id="Layer_1" xmlns="http://www.w3.org/2000/svg" xmlns:xlink="http://www.w3.org/1999/xlink" x="0px" y="0px"
	 viewBox="0 0 434 365.5" style="enable-background:new 0 0 434 365.5;" xml:space="preserve">
<style type="text/css">
	.st0{fill:#69B4E5;}
</style>
<path class="st0" d="M416,18C405.5,6.7,390.3,0.6,370.8,0.1c-55-1.8-93.9,27.5-115.7,87c-1.1,3.1-0.4,6.6,1.8,9
	c2.2,2.4,5.6,3.4,8.8,2.5c6.2-1.7,12.4-2.6,18.4-2.6c8,0,18.7,1.5,24,8.5c4.1,5.4,4.6,13.5,1.6,24c-2.5,8.9-15.5,32.7-31.5,57.9
	C258.8,217.2,248,231,244.9,231c-10.3,0-47.6-165.2-48.6-168.8c-10.7-37.9-16.1-56.9-50.8-56.9C119,5.3,60,53.7,11.5,95.8
	c-3,2.6-5.5,4.8-7.4,6.4c-4.7,4-5.4,11-1.6,15.8l9,11.6c3.8,4.9,10.8,5.9,15.8,2.3l0.5-0.4c15.7-11.2,30.5-21.7,41.7-22.3
	c12.2-0.6,22.7,18.4,35.3,63.6c24,87.8,60.4,192.5,97.7,192.5c39,0,85.6-33.1,145.8-111.4c54.5-70.9,83.7-127.1,85.5-168l0,0
	C435.2,55.1,429.2,32.2,416,18z"/>
</svg>
