<?xml version="1.0" encoding="utf-8"?>
<!-- Generator: Adobe Illustrator 23.0.3, SVG Export Plug-In . SVG Version: 6.00 Build 0)  -->
<svg version="1.1" id="Layer_1" xmlns="http://www.w3.org/2000/svg" xmlns:xlink="http://www.w3.org/1999/xlink" x="0px" y="0px"
	 viewBox="0 0 374.1 385.7" style="enable-background:new 0 0 374.1 385.7;" xml:space="preserve">
<style type="text/css">
	.st0{fill:#04B086;}
</style>
<path class="st0" d="M369.1,189.5c-0.8-5.9-6.2-10-12.1-9.3c-4.5,0.5-9,0.8-13.3,0.8c-28.7,0-69.7-2.2-95-19.1
	c-2.2-1.5-4.3-3.1-6.3-4.8c-19-16.3-23.1-36.5-23.2-50.5c-0.2-18.5,4.2-32.2,13-40.6c7.8-7.5,17.4-9,20.8-9c0.2,0,0.3,0,0.5,0
	c1.1,0.1,10.6,0.8,17.6,11.1c5.4,7.9,12,25.9,3.7,62.6c-0.9,3.9,1.3,7.9,5.1,9.3c13.1,4.9,29.7,6.9,42.5,7.6
	c3.9,0.2,7.5-2.4,8.3-6.3c3.9-17.7,5.5-34.2,4.8-49.1c-1-21.9-6.8-40.9-17.3-56.3c-14.4-21.1-37.4-34.5-61.5-35.8
	c-17.3-0.9-43.1,5.1-63.6,24.7c-14.2,13.5-31,38.8-30.6,82.2c0.3,36.5,15.6,69.5,43,93.2c8.4,7.2,19.1,14.6,32.8,20.9
	c-14.8,26.2-30.9,48-44.2,64.3c-12.5,15.2-24,27.3-32.6,35.8c-43.2-34.3-68.8-98.6-83-149.2C64.4,122.5,58.7,76.8,56.8,57.7
	c-0.5-5.3-5.2-9.2-10.4-8.8l-18.8,1.3l28.4-1.9L9.2,51.4C3.6,51.8-0.5,56.7,0,62.2c2,20.5,8,69.6,23.2,124.2
	c11.7,42,26.6,78.7,44.1,109c23,39.8,51,69,83.1,86.8c4.3,2.4,9.1,3.6,13.8,3.6c6.5,0,12.9-2.2,18.1-6.5c1-0.8,25.4-21,54.6-56.5
	c17.1-20.7,32.5-42.5,45.7-64.9c4.1-7,8.1-14,11.8-21.1c20,2.5,43.2,2.8,70-0.2c6.1-0.7,10.4-6.3,9.6-12.4L369.1,189.5z"/>
</svg>
