<?xml version="1.0" encoding="utf-8"?>
<!-- Generator: Adobe Illustrator 23.0.3, SVG Export Plug-In . SVG Version: 6.00 Build 0)  -->
<svg version="1.1" id="Layer_1" xmlns="http://www.w3.org/2000/svg" xmlns:xlink="http://www.w3.org/1999/xlink" x="0px" y="0px"
	 viewBox="0 0 99 100" style="enable-background:new 0 0 99 100;" xml:space="preserve">
<style type="text/css">
	.st0{fill:#7AD06D;}
</style>
<path class="st0" d="M47.2,0.1C20.8,1.3-0.1,23.3,0,49.8c0,8.1,2,15.7,5.4,22.4L0.1,97.7c-0.3,1.4,1,2.6,2.3,2.3l25-5.9
	c6.4,3.2,13.7,5.1,21.3,5.2c27,0.4,49.5-21,50.3-48C100.1,22.3,76.2-1.3,47.2,0.1z M77.1,77.1C69.7,84.4,60,88.4,49.6,88.4
	c-6.1,0-11.9-1.4-17.3-4l-3.5-1.7l-15.4,3.6l3.2-15.7l-1.7-3.4c-2.8-5.5-4.2-11.4-4.2-17.6c0-10.4,4-20.1,11.4-27.5
	c7.3-7.3,17.2-11.4,27.5-11.4c10.4,0,20.1,4,27.5,11.4c7.3,7.3,11.4,17.1,11.4,27.5C88.4,59.9,84.3,69.8,77.1,77.1z M75.7,65.7
	c-1.9,3-4.9,6.6-8.6,7.5c-6.6,1.6-16.7,0-29.3-11.7C26.9,51.3,24,42.8,24.7,36.1c0.4-3.8,3.6-7.3,6.2-9.5c1.8-1.5,4.6-0.9,5.6,1.3
	l4,9.1c0.5,1.2,0.4,2.6-0.4,3.6L38,43.3c-0.9,1.1-1,2.7-0.3,3.9c2.4,4.3,12,12.8,16.5,14.6C55.5,62.3,57,62,58,61l2.3-2.4
	c0.9-0.9,2.3-1.3,3.5-0.9l9.6,2.8C76,61,77,63.7,75.7,65.7z"/>
</svg>
