<?xml version="1.0" encoding="utf-8"?>
<!-- Generator: Adobe Illustrator 23.0.3, SVG Export Plug-In . SVG Version: 6.00 Build 0)  -->
<svg version="1.1" id="Layer_1" xmlns="http://www.w3.org/2000/svg" xmlns:xlink="http://www.w3.org/1999/xlink" x="0px" y="0px"
	 viewBox="0 0 96.6 96.6" style="enable-background:new 0 0 96.6 96.6;" xml:space="preserve">
<style type="text/css">
	.st0{fill:#23B180;}
	.st1{fill:#FFFFFF;}
</style>
<circle id="XMLID_36_" class="st0" cx="48.3" cy="48.3" r="48.3"/>
<g>
	<path class="st1" d="M76.8,44.8C76.4,29.7,64,17.7,48.7,17.7c-15.1,0-27.4,11.8-28,26.6c0,0.4,0,0.8,0,1.2c0,5.3,1.5,10.2,4,14.4
		l-5.1,14.9l15.5-4.9c4,2.2,8.6,3.5,13.6,3.5c15.5,0,28.1-12.5,28.1-27.9C76.8,45.3,76.8,45.1,76.8,44.8z M48.8,68.9
		c-4.8,0-9.3-1.4-13-3.9l-9.1,2.9l2.9-8.7c-2.8-3.9-4.5-8.6-4.5-13.7c0-0.8,0-1.5,0.1-2.3c1.2-11.8,11.3-21.1,23.6-21.1
		c12.4,0,22.6,9.5,23.5,21.6c0,0.6,0.1,1.2,0.1,1.8C72.4,58.4,61.8,68.9,48.8,68.9z"/>
	<path class="st1" d="M61.6,51.1c-0.7-0.3-4.1-2-4.7-2.2c-0.6-0.2-1.1-0.3-1.5,0.3c-0.5,0.7-1.8,2.2-2.2,2.7s-0.8,0.5-1.5,0.2
		s-2.9-1.1-5.5-3.4c-2-1.8-3.4-4-3.8-4.7c-0.4-0.7,0-1.1,0.3-1.4c0.3-0.3,0.7-0.8,1-1.2c0.1-0.1,0.2-0.2,0.3-0.3
		c0.2-0.3,0.3-0.5,0.4-0.8c0.2-0.5,0.1-0.9-0.1-1.2c-0.2-0.3-1.5-3.7-2.1-5.1c-0.6-1.4-1.1-1.1-1.5-1.1s-0.9-0.1-1.3-0.1
		c-0.5,0-1.2,0.2-1.8,0.9s-2.4,2.3-2.4,5.7c0,0.8,0.1,1.6,0.4,2.3c0.7,2.4,2.2,4.4,2.5,4.7c0.3,0.5,4.8,7.6,11.8,10.3s7,1.8,8.3,1.7
		s4.1-1.6,4.6-3.2c0.6-1.6,0.6-3,0.4-3.2C62.8,51.7,62.3,51.5,61.6,51.1z"/>
</g>
</svg>
