<?xml version="1.0" encoding="utf-8"?>
<!-- Generator: Adobe Illustrator 23.0.3, SVG Export Plug-In . SVG Version: 6.00 Build 0)  -->
<svg version="1.1" id="Capa_1" xmlns="http://www.w3.org/2000/svg" xmlns:xlink="http://www.w3.org/1999/xlink" x="0px" y="0px"
	 viewBox="0 0 100 100" style="enable-background:new 0 0 100 100;" xml:space="preserve">
<style type="text/css">
	.st0{fill:#DC472E;}
	.st1{fill:#FFFFFF;}
</style>
<rect class="st0" width="100" height="100"/>
<path class="st1" d="M57.8,74.6L57.8,74.6L57.8,74.6c0,0.2,0,0.4-0.1,0.6c-0.2,0.8-0.8,1.1-1.6,1c-0.5-0.1-0.9-0.4-1.3-0.8l-0.1-0.2
	l0,0v-0.3V63.1l0,0l0,0c0,0,0.1-0.2,0.2-0.4c0.4-0.4,0.9-0.6,1.5-0.6c0.5,0,0.9,0.3,1.1,0.7c0,0.1,0.1,0.2,0.1,0.3
	c0.1,0.3,0.2,0.6,0.2,0.8C57.8,67.5,57.8,71.1,57.8,74.6z M71.1,63.8L71.1,63.8c0-0.9-0.7-1.6-1.6-1.6s-1.6,0.7-1.6,1.6v2.8h3.2
	V63.8z M79.8,55.1V77c0,4.9-3.9,8.8-8.8,8.9c-14,0.3-28,0.3-42.1,0c-4.9-0.1-8.8-4.1-8.8-8.9V55.1c0-4.9,3.9-8.8,8.8-8.9
	c14-0.3,28-0.3,42.1,0C75.9,46.3,79.8,50.2,79.8,55.1z M33.1,79V56.1h4.2v-3.8H24.9v3.8H29V79H33.1z M47.6,59.3H44V74
	c0,0.1,0,0.3-0.1,0.4c-0.5,0.6-1,1.1-1.7,1.4c-0.6,0.2-1.1-0.1-1.3-0.7c-0.1-0.3-0.1-0.5-0.1-0.8c0-4.8,0-14.8,0-14.9h-3.6
	c0,0.1,0,14,0,16.6c0,0.7,0.1,1.4,0.4,2.1c0.3,0.7,0.8,1.2,1.6,1.3c0.6,0.1,1.1,0,1.7-0.2c1.1-0.4,2-1.1,2.8-2
	c0.1-0.1,0.1-0.2,0.3-0.3V79h3.6v-9.5C47.6,66.2,47.6,59.3,47.6,59.3z M61.5,75c0-3.7,0-7.5,0-11.2c0-1-0.1-2-0.6-3
	c-0.8-1.6-2.3-2-3.7-1.7c-0.8,0.2-1.5,0.7-2.1,1.3c-0.2,0.2-0.4,0.6-0.4,0.6s0-5.9,0-8.8h-3.6V79h3.6v-1.5c0,0,0.3,0.3,0.3,0.4
	c0.8,0.9,1.8,1.4,3.1,1.4c1.5,0,2.6-0.7,3-2.2C61.4,76.4,61.5,75.7,61.5,75z M74.8,72h-3.7v2.5c0,0.9-0.7,1.6-1.6,1.6
	s-1.6-0.7-1.6-1.6v-4.9h6.9c0,0,0-3.4,0-5c0-0.7-0.1-1.3-0.2-2c-0.4-1.7-1.3-3-3-3.5c-0.5-0.2-1-0.3-1.6-0.3
	c-1.7-0.1-3.3,0.4-4.5,1.7c-1,1.2-1.4,2.6-1.4,4.1c0,2.9,0,5.8,0,8.8c0,0.7,0.1,1.5,0.3,2.2c0.4,1.6,1.2,2.8,2.7,3.5
	c1.1,0.5,2.3,0.5,3.4,0.4c1.9-0.3,3.2-1.3,3.8-3.1C74.9,75,74.8,72,74.8,72z M59.6,40.8c0.9-0.2,1.7-0.6,2.3-1.2
	c0.4-0.3,0.7-0.7,1.1-1.1v2.1h3.7V20.8H63v14.7c0,0.1,0,0.3-0.1,0.4c-0.5,0.6-1,1.1-1.8,1.4c-0.6,0.2-1.1-0.1-1.2-0.7
	c0-0.2-0.1-0.4-0.1-0.6V20.8h-3.6v16.9c0,0.5,0.1,1,0.2,1.5C57,40.7,58.2,41.1,59.6,40.8z M34.4,29.8v10.9h3.8V29.8
	c0-0.2,0-0.4,0.1-0.5c1.4-4.7,4.6-15.4,4.6-15.4h-4.2c0,0-1.7,7.1-2.5,10.4l0,0c-0.8-3.4-2.5-10.4-2.5-10.4h-4.2
	c0,0,3.2,10.6,4.6,15.4C34.4,29.4,34.4,29.6,34.4,29.8z M42.7,25.6c0-2.9,2.4-5.3,5.3-5.3c2.9,0,5.3,2.4,5.3,5.3v10.3
	c0,2.9-2.4,5.3-5.3,5.3c-2.9,0-5.3-2.4-5.3-5.3V25.6z M46.5,36.1c0,0.8,0.7,1.5,1.5,1.5s1.5-0.7,1.5-1.5V25.4c0-0.8-0.7-1.5-1.5-1.5
	s-1.5,0.7-1.5,1.5V36.1z"/>
</svg>
